<?xml version="1.0" encoding="UTF-8"?>
<svg width="948px" height="384px" viewBox="0 0 948 384" version="1.1" xmlns="http://www.w3.org/2000/svg" xmlns:xlink="http://www.w3.org/1999/xlink">
    <!-- Generator: Sketch 52.2 (67145) - http://www.bohemiancoding.com/sketch -->
    <title>Group 6</title>
    <desc>Created with Sketch.</desc>
    <g id="Page-1" stroke="none" stroke-width="1" fill="none" fill-rule="evenodd">
        <g id="15_Logo&amp;Concept_2" transform="translate(-192.000000, -162.000000)">
            <g id="Group-6" transform="translate(192.000000, 158.000000)">
                <g id="Group-5" transform="translate(0.000000, 10.000000)" fill="#000000">
                    <path d="M0,80.9268293 L0,0.43902439 L10.2043507,0.43902439 L10.2043507,71.2168179 L48.2926829,71.2168179 L48.2926829,80.9268293 L0,80.9268293 Z M61.1707317,4.73170732 L61.1707317,-6 L70.8292683,-6 L70.8292683,4.73170732 L61.1707317,4.73170732 Z M61.1707317,82 L61.1707317,21.902439 L70.8292683,21.902439 L70.8292683,82 L61.1707317,82 Z M96.7011,80.9268293 L96.7011,29.7277782 L84.7804878,29.7277782 L84.7804878,21.038031 L96.7011,21.038031 L96.7011,3.65853659 L106.075562,3.65853659 L106.075562,21.038031 L120.195122,21.038031 L120.195122,29.7277782 L106.075562,29.7277782 L106.075562,80.9268293 L96.7011,80.9268293 Z M160.97561,4.73170732 L160.97561,-6 L170.634146,-6 L170.634146,4.73170732 L160.97561,4.73170732 Z M160.97561,82 L160.97561,21.902439 L170.634146,21.902439 L170.634146,82 L160.97561,82 Z M196.505978,80.9268293 L196.505978,29.7277782 L184.585366,29.7277782 L184.585366,21.038031 L196.505978,21.038031 L196.505978,3.65853659 L205.88044,3.65853659 L205.88044,21.038031 L220,21.038031 L220,29.7277782 L205.88044,29.7277782 L205.88044,80.9268293 L196.505978,80.9268293 Z" id="Lit-it"></path>
                    <text id="TypePo-choose" font-family="Saira-Regular, Saira" font-size="24" font-weight="normal">
                        <tspan x="0" y="123">TypePo choose</tspan>
                    </text>
                </g>
                <g id="Group-4" transform="translate(407.000000, 0.000000)" fill="#000000" font-family="Saira-Regular, Saira" font-weight="normal">
                    <text id="Logo-&amp;-Design-Saira" font-size="24">
                        <tspan x="0" y="27">Logo &amp; Design    Saira</tspan>
                    </text>
                    <text id="ABCDEFG-IJKLMNOPCUZT" font-size="32" line-spacing="49">
                        <tspan x="0" y="82">ABCDEFG IJKLMNOPCUZTUVWXYZ</tspan>
                        <tspan x="0" y="131">abcdefghijklmnopqrstuvwxyz</tspan>
                    </text>
                </g>
                <text id="Logo-Typo-shift-&amp;-De" font-family="Saira-Regular, Saira" font-size="24" font-weight="normal" fill="#000000">
                    <tspan x="0" y="383">Logo Typo shift &amp; Design</tspan>
                </text>
                <g id="Group-3" transform="translate(407.000000, 254.000000)" fill="#000000" font-family="TimesNewRomanPSMT, Times New Roman" font-weight="normal">
                    <text id="Coby-&amp;-Body-text-Tim" font-size="24">
                        <tspan x="0" y="21">Coby &amp; Body text    Times New Roman</tspan>
                    </text>
                    <text id="ABCDEFG-IJKLMNOPCUZT-Copy" font-size="32" line-spacing="49">
                        <tspan x="0" y="63">ABCDEFG IJKLMNOPCUZTUVWXYZ</tspan>
                        <tspan x="0" y="112">abcdefghijklmnopqrstuvwxyz</tspan>
                    </text>
                </g>
                <g id="Group-2" transform="translate(0.000000, 183.000000)">
                    <g id="Group" transform="translate(0.000000, 6.471074)">
                        <polygon id="Fill-38-Copy" fill="#26140F" points="4.54747351e-13 80.2052613 4.54747351e-13 -1.70530257e-13 10.0584746 -1.70530257e-13 10.0584746 70.5294011 47.6019303 70.5294011 47.6019303 80.2052613"></polygon>
                        <polygon id="Fill-40-Copy" fill="#000000" points="55.4143126 10.8419809 65.4727872 10.8419809 65.4727872 2.84217094e-13 55.4143126 2.84217094e-13"></polygon>
                        <polygon id="Fill-42-Copy" fill="#26140F" points="55.4143126 80.0999542 65.4727872 80.0999542 65.4727872 15.4863318 55.4143126 15.4863318"></polygon>
                        <polygon id="Fill-43-Copy" fill="#26140F" points="84.5513653 80.013747 84.5513653 24.0265277 72.5047081 24.0265277 72.5047081 15.4001246 84.5513653 15.4001246 84.5513653 1.70530257e-13 94.0246234 1.70530257e-13 94.0246234 15.4001246 108.29355 15.4001246 108.29355 24.0265277 94.0246234 24.0265277 94.0246234 80.013747"></polygon>
                        <polygon id="Fill-44-Copy" fill="#000000" points="129.990584 10.8419809 140.049058 10.8419809 140.049058 2.84217094e-13 129.990584 2.84217094e-13"></polygon>
                        <polygon id="Fill-45-Copy" fill="#26140F" points="129.990584 80.0999542 140.049058 80.0999542 140.049058 15.4863318 129.990584 15.4863318"></polygon>
                        <polygon id="Fill-46-Copy" fill="#26140F" points="159.127637 80.013747 159.127637 24.0265277 147.080979 24.0265277 147.080979 15.4001246 159.127637 15.4001246 159.127637 1.70530257e-13 168.600895 1.70530257e-13 168.600895 15.4001246 182.869821 15.4001246 182.869821 24.0265277 168.600895 24.0265277 168.600895 80.013747"></polygon>
                    </g>
                    <path d="M-1.13686838e-13,86.6404959 L-1.13686838e-13,6.49803719 L10.0682742,6.49803719 L10.0682742,76.9721469 L47.6486928,76.9721469 L47.6486928,86.6404959 L-1.13686838e-13,86.6404959 Z M61.3657407,10.830062 L61.3657407,0 L71.4730392,0 L71.4730392,10.830062 L61.3657407,10.830062 Z M61.3657407,86.6404959 L61.3657407,27.436157 L70.7510893,27.436157 L70.7510893,86.6404959 L61.3657407,86.6404959 Z M95.8966512,86.6404959 L95.8966512,35.9290324 L83.7461874,35.9290324 L83.7461874,27.3220409 L95.8966512,27.3220409 L95.8966512,10.1080579 L105.45187,10.1080579 L105.45187,27.3220409 L119.843682,27.3220409 L119.843682,35.9290324 L105.45187,35.9290324 L105.45187,86.6404959 L95.8966512,86.6404959 Z M160.272876,10.830062 L160.272876,0 L170.380174,0 L170.380174,10.830062 L160.272876,10.830062 Z M160.994826,86.6404959 L160.994826,27.436157 L170.380174,27.436157 L170.380174,86.6404959 L160.994826,86.6404959 Z M195.525736,86.6404959 L195.525736,35.9290324 L183.375272,35.9290324 L183.375272,27.3220409 L195.525736,27.3220409 L195.525736,10.1080579 L205.080955,10.1080579 L205.080955,27.3220409 L219.472767,27.3220409 L219.472767,35.9290324 L205.080955,35.9290324 L205.080955,86.6404959 L195.525736,86.6404959 Z" id="Lit-it-Copy" fill-opacity="0.4" fill="#EC4723"></path>
                </g>
            </g>
        </g>
    </g>
</svg>