<?xml version="1.0" encoding="UTF-8"?>
<svg width="1014px" height="431px" viewBox="0 0 1014 431" version="1.1" xmlns="http://www.w3.org/2000/svg" xmlns:xlink="http://www.w3.org/1999/xlink">
    <!-- Generator: Sketch 52.2 (67145) - http://www.bohemiancoding.com/sketch -->
    <title>Group 5</title>
    <desc>Created with Sketch.</desc>
    <g id="Page-1" stroke="none" stroke-width="1" fill="none" fill-rule="evenodd">
        <g id="22_missuse" transform="translate(-147.000000, -183.000000)">
            <g id="Group-5" transform="translate(147.000000, 183.000000)">
                <g id="Group" transform="translate(0.000000, 1.000000)">
                    <g id="Group-2" transform="translate(0.000000, 0.010001)">
                        <polygon id="Fill-47" fill="#EC4723" points="19.4917796 15.7678404 35.2609837 15.7678404 35.2609837 -5.36459765e-13 19.4917796 -5.36459765e-13"></polygon>
                        <polygon id="Fill-48" fill="#26140F" points="19.4917796 63.1535743 35.2609837 63.1535743 35.2609837 19.490094 19.4917796 19.490094"></polygon>
                        <path d="M54.7527634,8.14367 L54.7527634,1.41746138 C54.7527634,0.634668333 54.1180401,1.42108547e-14 53.3351794,1.42108547e-14 L38.9835593,1.42108547e-14 L38.9835593,63.0710072 L54.3374113,47.718483 C54.6035627,47.452709 54.7527634,47.0923194 54.7527634,46.7163378 L54.7527634,23.9115104 L58.3052288,23.9115104 C59.0884439,23.9115104 59.7228128,23.2768421 59.7228128,22.494049 L59.7228128,9.56113138 C59.7228128,8.77833833 59.0884439,8.14367 58.3052288,8.14367 L54.7527634,8.14367 Z" id="Fill-49" fill="#26140F"></path>
                        <path d="M1.41758397,5.75539616e-13 C0.634723224,5.75539616e-13 -6.16395823e-13,0.634668333 -6.16395823e-13,1.41746138 L-6.16395823e-13,46.7163378 C-6.16395823e-13,47.0923194 0.149200713,47.4530634 0.415352104,47.7188374 L15.7692041,63.0713616 L15.7692041,5.75539616e-13 L1.41758397,5.75539616e-13 Z" id="Fill-50" fill="#26140F"></path>
                    </g>
                    <text id="Lit-it" font-family="TimesNewRomanPSMT, Times New Roman" font-size="48.3800027" font-weight="normal" fill="#000000">
                        <tspan x="79.7332613" y="43.0100013">Lit it</tspan>
                    </text>
                </g>
                <text id="Don’t-change-typogra" font-family="Saira-Regular, Saira" font-size="16" font-weight="normal" line-spacing="20" fill="#000000">
                    <tspan x="251" y="27">Don’t change typography of </tspan>
                    <tspan x="251" y="47">logo text</tspan>
                </text>
                <text id="Don’t-scale-the-logo" font-family="Saira-Regular, Saira" font-size="16" font-weight="normal" line-spacing="20" fill="#000000">
                    <tspan x="809" y="27">Don’t scale the logo text </tspan>
                    <tspan x="809" y="47">without logo change</tspan>
                </text>
                <text id="Except-the-primay-an" font-family="Saira-Regular, Saira" font-size="16" font-weight="normal" line-spacing="20" fill="#000000">
                    <tspan x="251" y="150">Except the primay and </tspan>
                    <tspan x="251" y="170">secondary color, don’t use </tspan>
                    <tspan x="251" y="190">other color on logo.</tspan>
                </text>
                <text id="Don’t-transform,-rot" font-family="Saira-Regular, Saira" font-size="16" font-weight="normal" line-spacing="20" fill="#000000">
                    <tspan x="809" y="150">Don’t transform, rotate the </tspan>
                    <tspan x="809" y="170">the logo, or remove the part </tspan>
                    <tspan x="809" y="190">of logo</tspan>
                </text>
                <text id="Don’t-change-the-gap" font-family="Saira-Regular, Saira" font-size="16" font-weight="normal" line-spacing="20" fill="#000000">
                    <tspan x="251" y="389">Don’t change the gap </tspan>
                    <tspan x="251" y="409">between logo and text</tspan>
                </text>
                <text id="Don’t-use-the-outlin" font-family="Saira-Regular, Saira" font-size="16" font-weight="normal" line-spacing="20" fill="#000000">
                    <tspan x="809" y="389">Don’t use the outline on </tspan>
                    <tspan x="809" y="409">logo, it should be solid color </tspan>
                    <tspan x="809" y="429">only.</tspan>
                </text>
                <text id="Don’t-transform-the" font-family="Saira-Regular, Saira" font-size="16" font-weight="normal" line-spacing="20" fill="#000000">
                    <tspan x="251" y="273">Don’t transform the text in </tspan>
                    <tspan x="251" y="293">logo</tspan>
                </text>
                <text id="Don’t-use-the-logo-t" font-family="Saira-Regular, Saira" font-size="16" font-weight="normal" line-spacing="20" fill="#000000">
                    <tspan x="809" y="273">Don’t use the logo text only.</tspan>
                </text>
                <g id="Group-Copy-3" transform="translate(0.000000, 120.000000)">
                    <g id="Group-Copy-2">
                        <polygon id="Fill-47" fill="#681F1F" points="19.4714765 15.8371269 35.224255 15.8371269 35.224255 -5.36459765e-13 19.4714765 -5.36459765e-13"></polygon>
                        <polygon id="Fill-48" fill="#7ED321" points="19.4714765 63.4310818 35.224255 63.4310818 35.224255 19.5757367 19.4714765 19.5757367"></polygon>
                        <path d="M54.6957315,8.17945465 L54.6957315,1.42368994 C54.6957315,0.637457172 54.0616695,2.13162821e-14 53.2796242,2.13162821e-14 L38.942953,2.13162821e-14 L38.942953,63.3481518 L54.2808121,47.928166 C54.5466862,47.6612242 54.6957315,47.299251 54.6957315,46.9216172 L54.6957315,24.0165816 L58.2444966,24.0165816 C59.026896,24.0165816 59.660604,23.3791244 59.660604,22.5928916 L59.660604,9.60314459 C59.660604,8.81691182 59.026896,8.17945465 58.2444966,8.17945465 L54.6957315,8.17945465 Z" id="Fill-49" fill="#681F1F"></path>
                        <path d="M1.41610738,5.54223334e-13 C0.634062081,5.54223334e-13 -6.1817218e-13,0.637457172 -6.1817218e-13,1.42368994 L-6.1817218e-13,46.9216172 C-6.1817218e-13,47.299251 0.149045302,47.6615801 0.414919463,47.928522 L15.7527785,63.3485077 L15.7527785,5.54223334e-13 L1.41610738,5.54223334e-13 Z" id="Fill-50" fill="#50E3C2"></path>
                        <polygon id="Fill-61" fill="#F8E71C" points="86.0285235 59.5718142 86.0285235 4.27106983 92.9044329 4.27106983 92.9044329 52.9004032 118.568901 52.9004032 118.568901 59.5718142"></polygon>
                        <polygon id="Fill-62" fill="#EC4723" points="123.555369 11.7465098 130.431279 11.7465098 130.431279 4.27106983 123.555369 4.27106983"></polygon>
                        <polygon id="Fill-63" fill="#F8E71C" points="123.555369 59.4992061 130.431279 59.4992061 130.431279 14.9487444 123.555369 14.9487444"></polygon>
                        <polygon id="Fill-64" fill="#F8E71C" points="143.473273 59.439767 143.473273 20.837126 135.238255 20.837126 135.238255 14.8893054 143.473273 14.8893054 143.473273 4.27106983 149.949487 4.27106983 149.949487 14.8893054 159.70328 14.8893054 159.70328 20.837126 149.949487 20.837126 149.949487 59.439767"></polygon>
                        <polygon id="Fill-65" fill="#EC4723" points="174.535235 11.7465098 181.411144 11.7465098 181.411144 4.27106983 174.535235 4.27106983"></polygon>
                        <polygon id="Fill-66" fill="#F8E71C" points="174.535235 59.4992061 181.411144 59.4992061 181.411144 14.9487444 174.535235 14.9487444"></polygon>
                        <polygon id="Fill-67" fill="#F8E71C" points="194.453139 59.439767 194.453139 20.837126 186.218121 20.837126 186.218121 14.8893054 194.453139 14.8893054 194.453139 4.27106983 200.928998 4.27106983 200.928998 14.8893054 210.683146 14.8893054 210.683146 20.837126 200.928998 20.837126 200.928998 59.439767"></polygon>
                    </g>
                </g>
                <g id="Group-Copy-2" transform="translate(0.000000, 238.000000)">
                    <polygon id="Fill-47" fill="#EC4723" points="17 16 31 16 31 0 17 0"></polygon>
                    <polygon id="Fill-48" fill="#26140F" points="17 65 31 65 31 20 17 20"></polygon>
                    <path d="M47.6863978,8.26362068 L47.6863978,1.43833962 C47.6863978,0.644016563 47.1355092,0 46.4560492,0 L34,0 L34,64 L47.3259057,48.4213436 C47.5569036,48.1516549 47.6863978,47.7859571 47.6863978,47.4044375 L47.6863978,24.2637106 L50.7696514,24.2637106 C51.449419,24.2637106 52,23.619694 52,22.825371 L52,9.7019603 C52,8.90763725 51.449419,8.26362068 50.7696514,8.26362068 L47.6863978,8.26362068 Z" id="Fill-49" fill="#26140F"></path>
                    <path d="M1.25854009,0 C0.563511327,0 0,0.644012945 0,1.43833154 L0,47.4041712 C0,47.7856886 0.132461345,48.151744 0.368752247,48.4214311 L14,64 L14,0 L1.25854009,0 Z" id="Fill-50" fill="#26140F"></path>
                    <polygon id="Fill-61" fill="#26140F" points="76 60 76 4 82.1278137 4 82.1278137 53.2442316 105 53.2442316 105 60"></polygon>
                    <polygon id="Fill-62" fill="#EC4723" points="109 12 115 12 115 4 109 4"></polygon>
                    <polygon id="Fill-63" fill="#26140F" points="109 60 115 60 115 15 109 15"></polygon>
                    <polygon id="Fill-64" fill="#26140F" points="126.405282 60 126.405282 20.8156798 119 20.8156798 119 14.7782351 126.405282 14.7782351 126.405282 4 132.22897 4 132.22897 14.7782351 141 14.7782351 141 20.8156798 132.22897 20.8156798 132.22897 60"></polygon>
                    <polygon id="Fill-65" fill="#EC4723" points="154 12 160 12 160 4 154 4"></polygon>
                    <polygon id="Fill-66" fill="#26140F" points="154 60 160 60 160 15 154 15"></polygon>
                    <polygon id="Fill-67" fill="#26140F" points="171.405282 60 171.405282 20.8156798 164 20.8156798 164 14.7782351 171.405282 14.7782351 171.405282 4 177.228652 4 177.228652 14.7782351 186 14.7782351 186 20.8156798 177.228652 20.8156798 177.228652 60"></polygon>
                </g>
                <g id="Group-Copy-4" transform="translate(0.000000, 358.000000)">
                    <g id="Group-4">
                        <polygon id="Fill-47" fill="#EC4723" points="19.840604 16.084582 35.8920134 16.084582 35.8920134 -6.34159392e-13 19.840604 -6.34159392e-13"></polygon>
                        <polygon id="Fill-48" fill="#26140F" points="19.840604 64.4221924 35.8920134 64.4221924 35.8920134 19.8816076 19.840604 19.8816076"></polygon>
                        <path d="M55.7326174,8.30725863 L55.7326174,1.4459351 C55.7326174,0.647417441 55.0865352,1.42108547e-14 54.2896644,1.42108547e-14 L39.6812081,1.42108547e-14 L39.6812081,64.3379667 L55.3098322,48.6770436 C55.5807466,48.4059308 55.7326174,48.0383018 55.7326174,47.6547675 L55.7326174,24.3918407 L59.3486577,24.3918407 C60.1458893,24.3918407 60.7916107,23.7444232 60.7916107,22.9459056 L60.7916107,9.75319373 C60.7916107,8.95467607 60.1458893,8.30725863 59.3486577,8.30725863 L55.7326174,8.30725863 Z" id="Fill-49" fill="#26140F"></path>
                        <path d="M1.44295302,6.4659389e-13 C0.646082215,6.4659389e-13 -6.48370246e-13,0.647417441 -6.48370246e-13,1.4459351 L-6.48370246e-13,47.6547675 C-6.48370246e-13,48.0383018 0.151870805,48.4062923 0.422785235,48.6774051 L16.0514094,64.3383282 L16.0514094,6.4659389e-13 L1.44295302,6.4659389e-13 Z" id="Fill-50" fill="#26140F"></path>
                    </g>
                    <g id="Group-3" transform="translate(64.000000, 4.000000)">
                        <polygon id="Fill-61" fill="#26140F" points="0.659395973 56.5026238 0.659395973 0.337805298 7.66565436 0.337805298 7.66565436 49.726972 33.8166527 49.726972 33.8166527 56.5026238"></polygon>
                        <polygon id="Fill-62" fill="#EC4723" points="38.897651 7.93004902 45.9039094 7.93004902 45.9039094 0.337805298 38.897651 0.337805298"></polygon>
                        <polygon id="Fill-63" fill="#26140F" points="38.897651 56.4288811 45.9039094 56.4288811 45.9039094 11.1823185 38.897651 11.1823185"></polygon>
                        <polygon id="Fill-64" fill="#26140F" points="59.193146 56.3685134 59.193146 17.1627061 50.8020134 17.1627061 50.8020134 11.1219508 59.193146 11.1219508 59.193146 0.337805298 65.7921309 0.337805298 65.7921309 11.1219508 75.7308305 11.1219508 75.7308305 17.1627061 65.7921309 17.1627061 65.7921309 56.3685134"></polygon>
                        <polygon id="Fill-65" fill="#EC4723" points="90.8439597 7.93004902 97.8502181 7.93004902 97.8502181 0.337805298 90.8439597 0.337805298"></polygon>
                        <polygon id="Fill-66" fill="#26140F" points="90.8439597 56.4288811 97.8502181 56.4288811 97.8502181 11.1823185 90.8439597 11.1823185"></polygon>
                        <polygon id="Fill-67" fill="#26140F" points="111.139455 56.3685134 111.139455 17.1627061 102.748322 17.1627061 102.748322 11.1219508 111.139455 11.1219508 111.139455 0.337805298 117.738079 0.337805298 117.738079 11.1219508 127.677139 11.1219508 127.677139 17.1627061 117.738079 17.1627061 117.738079 56.3685134"></polygon>
                    </g>
                </g>
                <g id="Group-Copy-9" transform="translate(553.000000, 354.000000)">
                    <g id="Group-4">
                        <path d="M20.340604,15.584582 L35.3920134,15.584582 L35.3920134,0.5 L20.340604,0.5 L20.340604,15.584582 Z" id="Fill-47" stroke="#EC4723"></path>
                        <path d="M20.340604,63.9221924 L35.3920134,63.9221924 L35.3920134,20.3816076 L20.340604,20.3816076 L20.340604,63.9221924 Z" id="Fill-48" stroke="#26140F"></path>
                        <path d="M40.1812081,0.5 L40.1812081,63.1290955 L54.9561494,48.3236197 C55.1332082,48.1464312 55.2326174,47.9059928 55.2326174,47.6547675 L55.2326174,23.8918407 L59.3486577,23.8918407 C59.8693716,23.8918407 60.2916107,23.4686558 60.2916107,22.9459056 L60.2916107,9.75319373 C60.2916107,9.23044348 59.8693716,8.80725863 59.3486577,8.80725863 L55.2326174,8.80725863 L55.2326174,1.4459351 C55.2326174,0.923329001 54.8101615,0.5 54.2896644,0.5 L40.1812081,0.5 Z" id="Fill-49" stroke="#26140F"></path>
                        <path d="M15.5514094,63.129457 L15.5514094,0.5 L1.44295302,0.5 C0.922455932,0.5 0.5,0.923329001 0.5,1.4459351 L0.5,47.6547675 C0.5,47.9061109 0.599492561,48.1468761 0.776703395,48.3242169 L15.5514094,63.129457 Z" id="Fill-50" stroke="#26140F"></path>
                    </g>
                    <g id="Group-3" transform="translate(88.000000, 4.000000)">
                        <path d="M1.15939597,56.0026238 L33.3166527,56.0026238 L33.3166527,50.226972 L7.16565436,50.226972 L7.16565436,0.837805298 L1.15939597,0.837805298 L1.15939597,56.0026238 Z" id="Fill-61" stroke="#26140F"></path>
                        <path d="M39.397651,7.43004902 L45.4039094,7.43004902 L45.4039094,0.837805298 L39.397651,0.837805298 L39.397651,7.43004902 Z" id="Fill-62" stroke="#EC4723"></path>
                        <path d="M39.397651,55.9288811 L45.4039094,55.9288811 L45.4039094,11.6823185 L39.397651,11.6823185 L39.397651,55.9288811 Z" id="Fill-63" stroke="#26140F"></path>
                        <path d="M59.693146,55.8685134 L65.2921309,55.8685134 L65.2921309,16.6627061 L75.2308305,16.6627061 L75.2308305,11.6219508 L65.2921309,11.6219508 L65.2921309,0.837805298 L59.693146,0.837805298 L59.693146,11.6219508 L51.3020134,11.6219508 L51.3020134,16.6627061 L59.693146,16.6627061 L59.693146,55.8685134 Z" id="Fill-64" stroke="#26140F"></path>
                        <path d="M91.3439597,7.43004902 L97.3502181,7.43004902 L97.3502181,0.837805298 L91.3439597,0.837805298 L91.3439597,7.43004902 Z" id="Fill-65" stroke="#EC4723"></path>
                        <path d="M91.3439597,55.9288811 L97.3502181,55.9288811 L97.3502181,11.6823185 L91.3439597,11.6823185 L91.3439597,55.9288811 Z" id="Fill-66" stroke="#26140F"></path>
                        <path d="M111.639455,55.8685134 L117.238079,55.8685134 L117.238079,16.6627061 L127.177139,16.6627061 L127.177139,11.6219508 L117.238079,11.6219508 L117.238079,0.837805298 L111.639455,0.837805298 L111.639455,11.6219508 L103.248322,11.6219508 L103.248322,16.6627061 L111.639455,16.6627061 L111.639455,55.8685134 Z" id="Fill-67" stroke="#26140F"></path>
                    </g>
                </g>
                <g id="Group-Copy-7" transform="translate(539.000000, 108.000000)">
                    <g id="Group-4" transform="translate(43.500000, 43.500000) rotate(30.000000) translate(-43.500000, -43.500000) translate(13.000000, 11.000000)" fill="#26140F">
                        <polygon id="Fill-48" points="19.840604 64.4221924 35.8920134 64.4221924 35.8920134 19.8816076 19.840604 19.8816076"></polygon>
                        <path d="M55.7326174,8.30725863 L55.7326174,1.4459351 C55.7326174,0.647417441 55.0865352,1.42108547e-14 54.2896644,1.42108547e-14 L39.6812081,1.42108547e-14 L39.6812081,64.3379667 L55.3098322,48.6770436 C55.5807466,48.4059308 55.7326174,48.0383018 55.7326174,47.6547675 L55.7326174,24.3918407 L59.3486577,24.3918407 C60.1458893,24.3918407 60.7916107,23.7444232 60.7916107,22.9459056 L60.7916107,9.75319373 C60.7916107,8.95467607 60.1458893,8.30725863 59.3486577,8.30725863 L55.7326174,8.30725863 Z" id="Fill-49"></path>
                        <path d="M1.44295302,6.4659389e-13 C0.646082215,6.4659389e-13 -6.48370246e-13,0.647417441 -6.48370246e-13,1.4459351 L-6.48370246e-13,47.6547675 C-6.48370246e-13,48.0383018 0.151870805,48.4062923 0.422785235,48.6774051 L16.0514094,64.3383282 L16.0514094,6.4659389e-13 L1.44295302,6.4659389e-13 Z" id="Fill-50"></path>
                    </g>
                    <g id="Group-3" transform="translate(101.000000, 15.000000)">
                        <polygon id="Fill-61" fill="#26140F" points="0.659395973 56.5026238 0.659395973 0.337805298 7.66565436 0.337805298 7.66565436 49.726972 33.8166527 49.726972 33.8166527 56.5026238"></polygon>
                        <polygon id="Fill-62" fill="#EC4723" points="38.897651 7.93004902 45.9039094 7.93004902 45.9039094 0.337805298 38.897651 0.337805298"></polygon>
                        <polygon id="Fill-63" fill="#26140F" points="38.897651 56.4288811 45.9039094 56.4288811 45.9039094 11.1823185 38.897651 11.1823185"></polygon>
                        <polygon id="Fill-64" fill="#26140F" points="59.193146 56.3685134 59.193146 17.1627061 50.8020134 17.1627061 50.8020134 11.1219508 59.193146 11.1219508 59.193146 0.337805298 65.7921309 0.337805298 65.7921309 11.1219508 75.7308305 11.1219508 75.7308305 17.1627061 65.7921309 17.1627061 65.7921309 56.3685134"></polygon>
                        <polygon id="Fill-65" fill="#EC4723" points="90.8439597 7.93004902 97.8502181 7.93004902 97.8502181 0.337805298 90.8439597 0.337805298"></polygon>
                        <polygon id="Fill-66" fill="#26140F" points="90.8439597 56.4288811 97.8502181 56.4288811 97.8502181 11.1823185 90.8439597 11.1823185"></polygon>
                        <polygon id="Fill-67" fill="#26140F" points="111.139455 56.3685134 111.139455 17.1627061 102.748322 17.1627061 102.748322 11.1219508 111.139455 11.1219508 111.139455 0.337805298 117.738079 0.337805298 117.738079 11.1219508 127.677139 11.1219508 127.677139 17.1627061 117.738079 17.1627061 117.738079 56.3685134"></polygon>
                    </g>
                </g>
                <g id="Group-Copy-8" transform="translate(552.000000, 246.000000)">
                    <g id="Group-3">
                        <polygon id="Fill-61" fill="#26140F" points="0.659395973 56.5026238 0.659395973 0.337805298 7.66565436 0.337805298 7.66565436 49.726972 33.8166527 49.726972 33.8166527 56.5026238"></polygon>
                        <polygon id="Fill-62" fill="#EC4723" points="38.897651 7.93004902 45.9039094 7.93004902 45.9039094 0.337805298 38.897651 0.337805298"></polygon>
                        <polygon id="Fill-63" fill="#26140F" points="38.897651 56.4288811 45.9039094 56.4288811 45.9039094 11.1823185 38.897651 11.1823185"></polygon>
                        <polygon id="Fill-64" fill="#26140F" points="59.193146 56.3685134 59.193146 17.1627061 50.8020134 17.1627061 50.8020134 11.1219508 59.193146 11.1219508 59.193146 0.337805298 65.7921309 0.337805298 65.7921309 11.1219508 75.7308305 11.1219508 75.7308305 17.1627061 65.7921309 17.1627061 65.7921309 56.3685134"></polygon>
                        <polygon id="Fill-65" fill="#EC4723" points="90.8439597 7.93004902 97.8502181 7.93004902 97.8502181 0.337805298 90.8439597 0.337805298"></polygon>
                        <polygon id="Fill-66" fill="#26140F" points="90.8439597 56.4288811 97.8502181 56.4288811 97.8502181 11.1823185 90.8439597 11.1823185"></polygon>
                        <polygon id="Fill-67" fill="#26140F" points="111.139455 56.3685134 111.139455 17.1627061 102.748322 17.1627061 102.748322 11.1219508 111.139455 11.1219508 111.139455 0.337805298 117.738079 0.337805298 117.738079 11.1219508 127.677139 11.1219508 127.677139 17.1627061 117.738079 17.1627061 117.738079 56.3685134"></polygon>
                    </g>
                </g>
                <g id="Group-Copy-5" transform="translate(552.000000, 0.000000)">
                    <g id="Group-4">
                        <polygon id="Fill-47" fill="#EC4723" points="19.840604 16.084582 35.8920134 16.084582 35.8920134 -6.34159392e-13 19.840604 -6.34159392e-13"></polygon>
                        <polygon id="Fill-48" fill="#26140F" points="19.840604 64.4221924 35.8920134 64.4221924 35.8920134 19.8816076 19.840604 19.8816076"></polygon>
                        <path d="M55.7326174,8.30725863 L55.7326174,1.4459351 C55.7326174,0.647417441 55.0865352,1.42108547e-14 54.2896644,1.42108547e-14 L39.6812081,1.42108547e-14 L39.6812081,64.3379667 L55.3098322,48.6770436 C55.5807466,48.4059308 55.7326174,48.0383018 55.7326174,47.6547675 L55.7326174,24.3918407 L59.3486577,24.3918407 C60.1458893,24.3918407 60.7916107,23.7444232 60.7916107,22.9459056 L60.7916107,9.75319373 C60.7916107,8.95467607 60.1458893,8.30725863 59.3486577,8.30725863 L55.7326174,8.30725863 Z" id="Fill-49" fill="#26140F"></path>
                        <path d="M1.44295302,6.4659389e-13 C0.646082215,6.4659389e-13 -6.48370246e-13,0.647417441 -6.48370246e-13,1.4459351 L-6.48370246e-13,47.6547675 C-6.48370246e-13,48.0383018 0.151870805,48.4062923 0.422785235,48.6774051 L16.0514094,64.3383282 L16.0514094,6.4659389e-13 L1.44295302,6.4659389e-13 Z" id="Fill-50" fill="#26140F"></path>
                    </g>
                    <g id="Group-3" transform="translate(87.000000, 22.000000)">
                        <polygon id="Fill-61" fill="#26140F" points="0 38 0 0 4.85999021 0 4.85999021 33.4157286 23 33.4157286 23 38"></polygon>
                        <polygon id="Fill-62" fill="#EC4723" points="26 5 31 5 31 0 26 0"></polygon>
                        <polygon id="Fill-63" fill="#26140F" points="26 39 31 39 31 8 26 8"></polygon>
                        <polygon id="Fill-64" fill="#26140F" points="40.7222632 38 40.7222632 11.4106399 35 11.4106399 35 7.3138024 40.7222632 7.3138024 40.7222632 0 45.2223862 0 45.2223862 7.3138024 52 7.3138024 52 11.4106399 45.2223862 11.4106399 45.2223862 38"></polygon>
                        <polygon id="Fill-65" fill="#EC4723" points="62 5 67 5 67 0 62 0"></polygon>
                        <polygon id="Fill-66" fill="#26140F" points="62 39 67 39 67 8 62 8"></polygon>
                        <polygon id="Fill-67" fill="#26140F" points="75.7222632 38 75.7222632 11.4106399 70 11.4106399 70 7.3138024 75.7222632 7.3138024 75.7222632 0 80.2221402 0 80.2221402 7.3138024 87 7.3138024 87 11.4106399 80.2221402 11.4106399 80.2221402 38"></polygon>
                    </g>
                </g>
            </g>
        </g>
    </g>
</svg>