<?xml version="1.0" encoding="UTF-8"?>
<svg width="984px" height="376px" viewBox="0 0 984 376" version="1.1" xmlns="http://www.w3.org/2000/svg" xmlns:xlink="http://www.w3.org/1999/xlink">
    <!-- Generator: Sketch 52.2 (67145) - http://www.bohemiancoding.com/sketch -->
    <title>Group 6</title>
    <desc>Created with Sketch.</desc>
    <defs>
        <polygon id="path-1" points="824.718106 222.000009 780.179232 222.000009 779.57678 222.000009 690.970328 222.000009 689.897302 222.000009 601.525777 222.000009 600.688398 222.000009 512.081946 222.000009 511.243847 222.000009 421.800016 222.000009 421.800016 254.40001 511.243847 254.40001 512.081946 254.40001 600.688398 254.40001 601.525777 254.40001 689.897302 254.40001 690.970328 254.40001 779.57678 254.40001 780.179232 254.40001 824.718106 254.40001 915.000036 254.40001 915.000036 222.000009"></polygon>
        <mask id="mask-2" maskContentUnits="userSpaceOnUse" maskUnits="objectBoundingBox" x="0" y="0" width="493.20002" height="32.4000013" fill="white">
            <use xlink:href="#path-1"></use>
        </mask>
    </defs>
    <g id="Page-1" stroke="none" stroke-width="1" fill="none" fill-rule="evenodd">
        <g id="16_safe_area" transform="translate(-149.000000, -232.000000)">
            <g id="Group-6" transform="translate(148.000000, 229.000000)">
                <path d="M220.928973,301.200012 L205.10752,301.200012 L204.893454,301.200012 L173.417766,301.200012 L173.036483,301.200012 L141.644403,301.200012 L141.346728,301.200012 L109.871041,301.200012 L109.573366,301.200012 L77.8000031,301.200012 L77.8000031,333.600013 L109.573366,333.600013 L109.871041,333.600013 L141.346728,333.600013 L141.644403,333.600013 L173.036483,333.600013 L173.417766,333.600013 L204.893454,333.600013 L205.10752,333.600013 L220.928973,333.600013 L253.00001,333.600013 L253.00001,301.200012 L220.928973,301.200012 Z" id="Fill-36-Copy" stroke="#000000" stroke-width="0.719999986" opacity="0.72" stroke-dasharray="2.160000028610227"></path>
                <path d="M220.600009,61.2000024 L220.600009,106.600004 L220.600009,152.000006 L220.600009,197.400008 L220.600009,242.798989 L220.600009,288.198991 L220.600009,333.600013 L253.00001,333.600013 L253.00001,288.198991 L253.00001,242.798989 L253.00001,197.400008 L253.00001,152.000006 L253.00001,106.600004 L253.00001,61.2000024 L220.600009,61.2000024 Z" id="Fill-22-Copy-3" stroke="#000000" stroke-width="0.719999986" opacity="0.72" stroke-dasharray="2.160000028610227"></path>
                <g id="Group-Copy" transform="translate(109.000004, 336.000013)" opacity="0.72" stroke="#000000" stroke-dasharray="2.159999885559074" stroke-width="0.719999986">
                    <path d="M1.20000005,0 L1.20000005,26.400001" id="Fill-22-Copy"></path>
                    <path d="M111.600004,0 L111.600004,26.400001" id="Fill-22-Copy-2"></path>
                </g>
                <text id="3.5-X" font-family="Rubik-Regular, Rubik" font-size="17.2799997" font-weight="normal" fill="#000000">
                    <tspan x="145.48112" y="378">3.5 X</tspan>
                </text>
                <path d="M77.8000031,61.2000024 L77.8000031,106.600004 L77.8000031,152.000006 L77.8000031,197.400008 L77.8000031,242.798989 L77.8000031,288.198991 L77.8000031,333.600013 L110.200004,333.600013 L110.200004,288.198991 L110.200004,242.798989 L110.200004,197.400008 L110.200004,152.000006 L110.200004,106.600004 L110.200004,61.2000024 L77.8000031,61.2000024 Z" id="Fill-22-Copy" stroke="#000000" stroke-width="0.719999986" opacity="0.72" stroke-dasharray="2.160000028610227"></path>
                <path d="M220.928973,61.2000024 L205.10752,61.2000024 L204.893454,61.2000024 L173.417766,61.2000024 L173.036483,61.2000024 L141.644403,61.2000024 L141.346728,61.2000024 L109.871041,61.2000024 L109.573366,61.2000024 L77.8000031,61.2000024 L77.8000031,93.6000037 L109.573366,93.6000037 L109.871041,93.6000037 L141.346728,93.6000037 L141.644403,93.6000037 L173.036483,93.6000037 L173.417766,93.6000037 L204.893454,93.6000037 L205.10752,93.6000037 L220.928973,93.6000037 L253.00001,93.6000037 L253.00001,61.2000024 L220.928973,61.2000024 Z" id="Fill-36-Copy" stroke="#979797" stroke-width="0.719999986" opacity="0.72" stroke-dasharray="2.159999885559074"></path>
                <g id="Group-Copy-2" transform="translate(114.400005, 109.800004) rotate(90.000000) translate(-114.400005, -109.800004) translate(98.200004, 42.000002)" opacity="0.72" stroke="#000000" stroke-dasharray="2.159999885559074" stroke-width="0.719999986">
                    <path d="M0.600000024,0 L0.600000024,135.600005" id="Fill-22-Copy"></path>
                    <path d="M31.8000013,0 L31.8000013,135.600005" id="Fill-22-Copy-2"></path>
                </g>
                <g id="Group-Copy-8" transform="translate(60.800001, 237.400001) rotate(90.000000) translate(-60.800001, -237.400001) translate(43.400000, 223.600000)" opacity="0.72" stroke="#000000" stroke-dasharray="2.159999885559074" stroke-width="0.719999986">
                    <path d="M1.20000005,0.600000024 L1.20000005,27.0000011" id="Fill-22-Copy"></path>
                    <path d="M33.6000013,0.600000024 L33.6000013,27.0000011" id="Fill-22-Copy-2"></path>
                </g>
                <g id="Group-Copy-3" transform="translate(59.200002, 277.200011) rotate(90.000000) translate(-59.200002, -277.200011) translate(34.000001, 263.400010)" opacity="0.72" stroke="#000000" stroke-dasharray="2.159999885559074" stroke-width="0.719999986">
                    <path d="M1.20000005,0.600000024 L1.20000005,27.0000011" id="Fill-22-Copy"></path>
                    <path d="M49.200002,0.600000024 L49.200002,27.0000011" id="Fill-22-Copy-2"></path>
                </g>
                <path d="M220.928973,220.800009 L205.10752,220.800009 L204.893454,220.800009 L173.417766,220.800009 L173.036483,220.800009 L141.644403,220.800009 L141.346728,220.800009 L109.871041,220.800009 L109.573366,220.800009 L77.8000031,220.800009 L77.8000031,253.20001 L109.573366,253.20001 L109.871041,253.20001 L141.346728,253.20001 L141.644403,253.20001 L173.036483,253.20001 L173.417766,253.20001 L204.893454,253.20001 L205.10752,253.20001 L220.928973,253.20001 L253.00001,253.20001 L253.00001,220.800009 L220.928973,220.800009 Z" id="Fill-36-Copy" stroke="#000000" stroke-width="0.719999986" opacity="0.72" stroke-dasharray="2.159999885559074"></path>
                <text id="X-Copy" font-family="Rubik-Regular, Rubik" font-size="17.2799997" font-weight="normal" fill="#000000">
                    <tspan x="26.7481613" y="114.400004">X</tspan>
                </text>
                <text id="X-Copy-3" font-family="Rubik-Regular, Rubik" font-size="17.2799997" font-weight="normal" fill="#000000">
                    <tspan x="26.7481613" y="241.600009">X</tspan>
                </text>
                <text id="1.5-X-Copy" font-family="Rubik-Regular, Rubik" font-size="17.2799997" font-weight="normal" fill="#000000">
                    <tspan x="1.07584111" y="283.600011">1.5 X</tspan>
                </text>
                <g id="Group-Copy-7" transform="translate(149.800006, 31.200001)" opacity="0.72" stroke="#000000" stroke-dasharray="2.159999885559074" stroke-width="0.719999986">
                    <path d="M0.600000024,0 L0.600000024,63.6000025" id="Fill-22-Copy"></path>
                    <path d="M33.0000013,0 L33.0000013,63.6000025" id="Fill-22-Copy-2"></path>
                </g>
                <text id="X-Copy-2" font-family="Rubik-Regular, Rubik" font-size="17.2799997" font-weight="normal" fill="#000000">
                    <tspan x="161.148167" y="16">X</tspan>
                </text>
                <g id="Group-5" transform="translate(110.000000, 93.000000)">
                    <g id="Group" transform="translate(0.000000, 160.000000)">
                        <polygon id="Fill-1-Copy" fill="#26140F" points="0.200004339 48.200012 0.200004339 0.200010061 6.28546705 0.200010061 6.28546705 42.409289 29.0000055 42.409289 29.0000055 48.200012"></polygon>
                        <polygon id="Fill-2-Copy" fill="#EC4723" points="32.6000056 6.2000103 38.6000059 6.2000103 38.6000059 0.200010061 32.6000056 0.200010061"></polygon>
                        <polygon id="Fill-3-Copy" fill="#26140F" points="32.6000056 48.200012 38.6000059 48.200012 38.6000059 9.80001044 32.6000056 9.80001044"></polygon>
                        <polygon id="Fill-4-Copy" fill="#26140F" points="50.6705874 48.200012 50.6705874 14.613347 43.4000061 14.613347 43.4000061 9.43812712 50.6705874 9.43812712 50.6705874 0.200010061 56.3883845 0.200010061 56.3883845 9.43812712 65.0000069 9.43812712 65.0000069 14.613347 56.3883845 14.613347 56.3883845 48.200012"></polygon>
                        <polygon id="Fill-5-Copy" fill="#EC4723" points="79.4000075 6.2000103 85.4000077 6.2000103 85.4000077 0.200010061 79.4000075 0.200010061"></polygon>
                        <polygon id="Fill-6-Copy" fill="#26140F" points="79.4000075 48.200012 85.4000077 48.200012 85.4000077 9.80001044 79.4000075 9.80001044"></polygon>
                        <polygon id="Fill-7-Copy" fill="#26140F" points="96.2705893 48.200012 96.2705893 14.613347 89.0000079 14.613347 89.0000079 9.43812712 96.2705893 9.43812712 96.2705893 0.200010061 101.988386 0.200010061 101.988386 9.43812712 110.600009 9.43812712 110.600009 14.613347 101.988386 14.613347 101.988386 48.200012"></polygon>
                    </g>
                    <g id="Group-4">
                        <polygon id="Fill-8-Copy" fill="#EC4723" points="39.8000059 33.000005 72.2000072 33.000005 72.2000072 0.600003719 39.8000059 0.600003719"></polygon>
                        <polygon id="Fill-9-Copy" fill="#26140F" points="39.8000059 129.000009 72.2000072 129.000009 72.2000072 40.2000053 39.8000059 40.2000053"></polygon>
                        <path d="M111.334937,17.1788934 L111.334937,3.48567269 C111.334937,1.892062 110.04953,0.600003719 108.464123,0.600003719 L79.4000075,0.600003719 L79.4000075,129.000009 L110.493789,97.7453282 C111.032784,97.2042653 111.334937,96.4705839 111.334937,95.7051602 L111.334937,49.279075 L118.529196,49.279075 C120.114602,49.279075 121.400009,47.9870167 121.400009,46.393406 L121.400009,20.0645623 C121.400009,18.4709517 120.114602,17.1788934 118.529196,17.1788934 L111.334937,17.1788934 Z" id="Fill-10-Copy" fill="#26140F"></path>
                        <path d="M3.11262581,0.600003719 C1.5041306,0.600003719 0.200004339,1.89205474 0.200004339,3.48565648 L0.200004339,95.7046259 C0.200004339,96.4700453 0.506557749,97.2044439 1.05267428,97.7455038 L32.6000056,129.000009 L32.6000056,0.600003719 L3.11262581,0.600003719 Z" id="Fill-12-Copy" fill="#26140F"></path>
                    </g>
                </g>
                <g id="Group-3" transform="translate(454.200017, 93.600004)">
                    <polygon id="Fill-8" fill="#EC4723" points="39.6000016 32.4000013 72.0000029 32.4000013 72.0000029 0 39.6000016 0"></polygon>
                    <polygon id="Fill-9" fill="#26140F" points="39.6000016 128.400005 72.0000029 128.400005 72.0000029 39.6000016 39.6000016 39.6000016"></polygon>
                    <path d="M111.134933,16.5788897 L111.134933,2.88566897 C111.134933,1.29205828 109.849526,0 108.264119,0 L79.2000031,0 L79.2000031,128.400005 L110.293784,97.1453245 C110.83278,96.6042615 111.134933,95.8705802 111.134933,95.1051565 L111.134933,48.6790713 L118.329191,48.6790713 C119.914598,48.6790713 121.200005,47.387013 121.200005,45.7934023 L121.200005,19.4645586 C121.200005,17.8709479 119.914598,16.5788897 118.329191,16.5788897 L111.134933,16.5788897 Z" id="Fill-10" fill="#26140F"></path>
                    <path d="M2.91262147,0 C1.30412627,0 0,1.29205102 0,2.88565276 L0,95.1046222 C0,95.8700416 0.30655341,96.6044402 0.852669937,97.1455001 L32.4000013,128.400005 L32.4000013,0 L2.91262147,0 Z" id="Fill-12" fill="#26140F"></path>
                </g>
                <path d="M564.600022,61.2000024 L564.600022,93.2000037 L564.600022,125.200005 L564.600022,157.200006 L564.600022,189.199288 L564.600022,221.19929 L564.600022,253.20001 L628.200024,253.20001 L628.200024,221.19929 L628.200024,189.199288 L628.200024,157.200006 L628.200024,125.200005 L628.200024,93.2000037 L628.200024,61.2000024 L564.600022,61.2000024 Z" id="Fill-14" stroke="#000000" stroke-width="0.719999986" opacity="0.72" stroke-dasharray="2.160000028610227"></path>
                <path d="M882.600034,61.2000024 L882.600034,93.2000037 L882.600034,125.200005 L882.600034,157.200006 L882.600034,189.199288 L882.600034,221.19929 L882.600034,253.20001 L915.000036,253.20001 L915.000036,221.19929 L915.000036,189.199288 L915.000036,157.200006 L915.000036,125.200005 L915.000036,93.2000037 L915.000036,61.2000024 L882.600034,61.2000024 Z" id="Fill-16" stroke="#000000" stroke-width="0.719999986" opacity="0.72" stroke-dasharray="2.160000028610227"></path>
                <path d="M421.800016,61.2000024 L421.800016,93.2000037 L421.800016,125.200005 L421.800016,157.200006 L421.800016,189.199288 L421.800016,221.19929 L421.800016,253.20001 L454.200017,253.20001 L454.200017,221.19929 L454.200017,189.199288 L454.200017,157.200006 L454.200017,125.200005 L454.200017,93.2000037 L454.200017,61.2000024 L421.800016,61.2000024 Z" id="Fill-16" stroke="#000000" stroke-width="0.719999986" opacity="0.72" stroke-dasharray="2.159999885559074"></path>
                <path d="M824.718106,61.2000024 L780.179952,61.2000024 L779.57678,61.2000024 L690.970328,61.2000024 L689.897302,61.2000024 L601.525777,61.2000024 L600.688398,61.2000024 L512.081946,61.2000024 L511.243847,61.2000024 L421.800016,61.2000024 L421.800016,93.6000037 L511.243847,93.6000037 L512.081946,93.6000037 L600.688398,93.6000037 L601.525777,93.6000037 L689.897302,93.6000037 L690.970328,93.6000037 L779.57678,93.6000037 L780.179952,93.6000037 L824.718106,93.6000037 L915.000036,93.6000037 L915.000036,61.2000024 L824.718106,61.2000024 Z" id="Fill-18" stroke="#000000" stroke-width="0.719999986" opacity="0.72" stroke-dasharray="2.160000028610227"></path>
                <g id="Group-Copy-11" transform="translate(421.200016, 31.200001)" opacity="0.72" stroke="#000000" stroke-dasharray="2.159999885559074" stroke-width="0.719999986">
                    <path d="M0.600000024,0 L0.600000024,63.6000025" id="Fill-22-Copy"></path>
                    <path d="M33.0000013,0 L33.0000013,63.6000025" id="Fill-22-Copy-2"></path>
                </g>
                <g id="Group-Copy-9" transform="translate(485.400018, 31.200001)" opacity="0.72" stroke="#000000" stroke-dasharray="2.159999885559074" stroke-width="0.719999986">
                    <path d="M1.20000005,0 L1.20000005,63.6000025" id="Fill-22-Copy"></path>
                    <path d="M8.40000033,0 L8.40000033,63.6000025" id="Fill-22-Copy-2"></path>
                </g>
                <g id="Group-Copy-5" transform="translate(563.400022, 32.400001)" opacity="0.72" stroke="#000000" stroke-dasharray="2.159999885559074" stroke-width="0.719999986">
                    <path d="M1.20000005,0 L1.20000005,26.400001" id="Fill-22-Copy"></path>
                    <path d="M64.8000026,0 L64.8000026,26.400001" id="Fill-22-Copy-2"></path>
                </g>
                <g id="Group-Copy-10" transform="translate(403.800015, 78.000003) rotate(90.000000) translate(-403.800015, -78.000003) translate(387.000015, 64.800003)" opacity="0.72" stroke="#000000" stroke-dasharray="2.159999885559074" stroke-width="0.719999986">
                    <path d="M1.20000005,0 L1.20000005,26.400001" id="Fill-22-Copy"></path>
                    <path d="M32.4000013,0 L32.4000013,26.400001" id="Fill-22-Copy-2"></path>
                </g>
                <g id="Group-Copy-4" transform="translate(403.800015, 156.600006) rotate(90.000000) translate(-403.800015, -156.600006) translate(338.400013, 143.400006)" opacity="0.72" stroke="#000000" stroke-dasharray="2.159999885559074" stroke-width="0.719999986">
                    <path d="M2.4000001,0 L2.4000001,26.400001" id="Fill-22-Copy"></path>
                    <path d="M128.400005,0 L128.400005,26.400001" id="Fill-22-Copy-2"></path>
                </g>
                <g id="Group-Copy-6" transform="translate(785.400030, 157.800006) rotate(90.000000) translate(-785.400030, -157.800006) translate(727.200028, 0.600000)" opacity="0.72" stroke="#000000" stroke-dasharray="2.159999885559074" stroke-width="0.719999986">
                    <path d="M2.4000001,0 L2.4000001,314.400012" id="Fill-22-Copy"></path>
                    <path d="M114.000005,0 L114.000005,314.400012" id="Fill-22-Copy-2"></path>
                </g>
                <use id="Fill-24" stroke="#000000" mask="url(#mask-2)" stroke-width="1.43999997" opacity="0.72" stroke-dasharray="2.160000028610227" xlink:href="#path-1"></use>
                <g id="Group-2" transform="translate(628.200024, 102.000004)">
                    <polygon id="Fill-38" fill="#26140F" points="0 111.600004 0 0 13.9460594 0 13.9460594 98.1367226 66.0000026 98.1367226 66.0000026 111.600004"></polygon>
                    <polygon id="Fill-40" fill="#EC4723" points="78.0000031 15.6000006 92.4000037 15.6000006 92.4000037 0 78.0000031 0"></polygon>
                    <polygon id="Fill-42" fill="#26140F" points="78.0000031 111.600004 92.4000037 111.600004 92.4000037 21.6000009 78.0000031 21.6000009"></polygon>
                    <polygon id="Fill-43" fill="#26140F" points="117.360908 111.600004 117.360908 33.5112489 100.800004 33.5112489 100.800004 21.4794837 117.360908 21.4794837 117.360908 0 130.384082 0 130.384082 21.4794837 150.000006 21.4794837 150.000006 33.5112489 130.384082 33.5112489 130.384082 111.600004"></polygon>
                    <polygon id="Fill-44" fill="#EC4723" points="181.200007 15.6000006 195.600008 15.6000006 195.600008 0 181.200007 0"></polygon>
                    <polygon id="Fill-45" fill="#26140F" points="181.200007 111.600004 195.600008 111.600004 195.600008 21.6000009 181.200007 21.6000009"></polygon>
                    <polygon id="Fill-46" fill="#26140F" points="221.760912 111.600004 221.760912 33.5112489 205.200008 33.5112489 205.200008 21.4794837 221.760912 21.4794837 221.760912 0 234.784086 0 234.784086 21.4794837 254.40001 21.4794837 254.40001 33.5112489 234.784086 33.5112489 234.784086 111.600004"></polygon>
                </g>
                <text id="2-X" font-family="Rubik-Regular, Rubik" font-size="17.2799997" font-weight="normal" fill="#000000">
                    <tspan x="584.376983" y="16">2 X</tspan>
                </text>
                <text id="0.25-X" font-family="Rubik-Regular, Rubik" font-size="17.2799997" font-weight="normal" fill="#000000">
                    <tspan x="465.571219" y="16">0.25 X</tspan>
                </text>
                <text id="X-Copy-5" font-family="Rubik-Regular, Rubik" font-size="17.2799997" font-weight="normal" fill="#000000">
                    <tspan x="431.948177" y="16">X</tspan>
                </text>
                <text id="X-Copy-4" font-family="Rubik-Regular, Rubik" font-size="17.2799997" font-weight="normal" fill="#000000">
                    <tspan x="374.348174" y="84.4000027">X</tspan>
                </text>
                <text id="3.5-X-Copy" font-family="Rubik-Regular, Rubik" font-size="17.2799997" font-weight="normal" fill="#000000">
                    <tspan x="945.381158" y="162.400006">3.5 X</tspan>
                </text>
                <text id="4-X" font-family="Rubik-Regular, Rubik" font-size="17.2799997" font-weight="normal" fill="#000000">
                    <tspan x="359.683214" y="162.400006">4 X</tspan>
                </text>
            </g>
        </g>
    </g>
</svg>