<?xml version="1.0" encoding="UTF-8"?>
<svg width="1035px" height="422px" viewBox="0 0 1035 422" version="1.1" xmlns="http://www.w3.org/2000/svg" xmlns:xlink="http://www.w3.org/1999/xlink">
    <!-- Generator: Sketch 52.2 (67145) - http://www.bohemiancoding.com/sketch -->
    <title>Group 8</title>
    <desc>Created with Sketch.</desc>
    <g id="Page-1" stroke="none" stroke-width="1" fill="none" fill-rule="evenodd">
        <g id="17_Logo_Size" transform="translate(-149.000000, -150.000000)">
            <g id="Group-8" transform="translate(149.000000, 148.000000)">
                <g id="Group-6" transform="translate(582.000000, 358.000000)">
                    <g id="Group-7" transform="translate(0.000000, 40.000000)">
                        <g id="Group-Copy-12" transform="translate(58.500000, 11.000000) rotate(90.000000) translate(-58.500000, -11.000000) translate(48.500000, -44.500000)" opacity="0.72" stroke="#000000" stroke-dasharray="2.159999885559074" stroke-width="0.719999986">
                            <path d="M1,0.5 L1,110.5" id="Fill-22-Copy"></path>
                            <path d="M19,0.5 L19,110.5" id="Fill-22-Copy-2"></path>
                        </g>
                        <g id="Group-5-Copy-3" transform="translate(0.000000, 2.000000)">
                            <g id="Group-4">
                                <polygon id="Fill-8-Copy" fill="#EC4723" points="5.87213202 4.89473758 10.6524601 4.89473758 10.6524601 0.088995767 5.87213202 0.088995767"></polygon>
                                <polygon id="Fill-9-Copy" fill="#26140F" points="5.87213202 19.1339726 10.6524601 19.1339726 10.6524601 5.96268021 5.87213202 5.96268021"></polygon>
                                <path d="M16.4264661,2.54806552 L16.4264661,0.517013653 C16.4264661,0.280640775 16.2368159,0.088995767 16.0029035,0.088995767 L11.7147552,0.088995767 L11.7147552,19.1339726 L16.3023623,14.4981109 C16.3818861,14.4178575 16.4264661,14.309034 16.4264661,14.1955022 L16.4264661,7.30933648 L17.4879141,7.30933648 C17.7218266,7.30933648 17.9114768,7.11769148 17.9114768,6.8813186 L17.9114768,2.97608341 C17.9114768,2.73971053 17.7218266,2.54806552 17.4879141,2.54806552 L16.4264661,2.54806552 Z" id="Fill-10-Copy" fill="#26140F"></path>
                                <path d="M0.459239874,0.088995767 C0.221920909,0.088995767 0.0295088369,0.280639699 0.0295088369,0.517011248 L0.0295088369,14.195423 C0.0295088369,14.3089541 0.0747380286,14.417884 0.155312598,14.4981369 L4.8098369,19.1339726 L4.8098369,0.088995767 L0.459239874,0.088995767 Z" id="Fill-12-Copy" fill="#26140F"></path>
                            </g>
                        </g>
                        <text id="0.15X" font-family="Rubik-Regular, Rubik" font-size="17.2799997" font-weight="normal" fill="#000000">
                            <tspan x="123.34928" y="16">0.15X</tspan>
                        </text>
                    </g>
                    <text id="Minimum-Size" font-family="Rubik-Regular, Rubik" font-size="24" font-weight="normal" fill="#000000">
                        <tspan x="0" y="22">Minimum-Size</tspan>
                    </text>
                </g>
                <g id="Group" transform="translate(0.000000, 33.000000)">
                    <g id="Group-3" transform="translate(0.200017, 0.600004)">
                        <polygon id="Fill-8" fill="#EC4723" points="39.6000016 32.4000013 72.0000029 32.4000013 72.0000029 0 39.6000016 0"></polygon>
                        <polygon id="Fill-9" fill="#26140F" points="39.6000016 128.400005 72.0000029 128.400005 72.0000029 39.6000016 39.6000016 39.6000016"></polygon>
                        <path d="M111.134933,16.5788897 L111.134933,2.88566897 C111.134933,1.29205828 109.849526,0 108.264119,0 L79.2000031,0 L79.2000031,128.400005 L110.293784,97.1453245 C110.83278,96.6042615 111.134933,95.8705802 111.134933,95.1051565 L111.134933,48.6790713 L118.329191,48.6790713 C119.914598,48.6790713 121.200005,47.387013 121.200005,45.7934023 L121.200005,19.4645586 C121.200005,17.8709479 119.914598,16.5788897 118.329191,16.5788897 L111.134933,16.5788897 Z" id="Fill-10" fill="#26140F"></path>
                        <path d="M2.91262147,0 C1.30412627,0 0,1.29205102 0,2.88565276 L0,95.1046222 C0,95.8700416 0.30655341,96.6044402 0.852669937,97.1455001 L32.4000013,128.400005 L32.4000013,0 L2.91262147,0 Z" id="Fill-12" fill="#26140F"></path>
                    </g>
                    <g id="Group-2" transform="translate(174.200024, 9.000004)">
                        <polygon id="Fill-38" fill="#26140F" points="0 111.600004 0 0 13.9460594 0 13.9460594 98.1367226 66.0000026 98.1367226 66.0000026 111.600004"></polygon>
                        <polygon id="Fill-40" fill="#EC4723" points="78.0000031 15.6000006 92.4000037 15.6000006 92.4000037 0 78.0000031 0"></polygon>
                        <polygon id="Fill-42" fill="#26140F" points="78.0000031 111.600004 92.4000037 111.600004 92.4000037 21.6000009 78.0000031 21.6000009"></polygon>
                        <polygon id="Fill-43" fill="#26140F" points="117.360908 111.600004 117.360908 33.5112489 100.800004 33.5112489 100.800004 21.4794837 117.360908 21.4794837 117.360908 0 130.384082 0 130.384082 21.4794837 150.000006 21.4794837 150.000006 33.5112489 130.384082 33.5112489 130.384082 111.600004"></polygon>
                        <polygon id="Fill-44" fill="#EC4723" points="181.200007 15.6000006 195.600008 15.6000006 195.600008 0 181.200007 0"></polygon>
                        <polygon id="Fill-45" fill="#26140F" points="181.200007 111.600004 195.600008 111.600004 195.600008 21.6000009 181.200007 21.6000009"></polygon>
                        <polygon id="Fill-46" fill="#26140F" points="221.760912 111.600004 221.760912 33.5112489 205.200008 33.5112489 205.200008 21.4794837 221.760912 21.4794837 221.760912 0 234.784086 0 234.784086 21.4794837 254.40001 21.4794837 254.40001 33.5112489 234.784086 33.5112489 234.784086 111.600004"></polygon>
                    </g>
                </g>
                <text id="Size-:-1X" font-family="Rubik-Regular, Rubik" font-size="16" font-weight="normal" fill="#000000">
                    <tspan x="15.216" y="15">Size : 1X</tspan>
                </text>
                <text id="Size-:-1X-Copy" font-family="Rubik-Regular, Rubik" font-size="16" font-weight="normal" fill="#000000">
                    <tspan x="582.216" y="15">Size : 1X</tspan>
                </text>
                <text id="Size-:-0.5X" font-family="Rubik-Regular, Rubik" font-size="16" font-weight="normal" fill="#000000">
                    <tspan x="0" y="226">Size : 0.5X</tspan>
                </text>
                <text id="Size-:-0.5X-Copy" font-family="Rubik-Regular, Rubik" font-size="16" font-weight="normal" fill="#000000">
                    <tspan x="796" y="15">Size : 0.5X</tspan>
                </text>
                <text id="Size-:-0.25X" font-family="Rubik-Regular, Rubik" font-size="16" font-weight="normal" fill="#000000">
                    <tspan x="949" y="15">Size : 0.25X</tspan>
                </text>
                <text id="Size-:-0.25X" font-family="Rubik-Regular, Rubik" font-size="16" font-weight="normal" fill="#000000">
                    <tspan x="0" y="373">Size : 0.25X</tspan>
                </text>
                <g id="Group-Copy" transform="translate(0.000000, 244.000000)">
                    <g id="Group-3" transform="translate(0.100242, 0.302327)">
                        <polygon id="Fill-8" fill="#EC4723" points="19.8461546 16.325582 36.0839175 16.325582 36.0839175 0 19.8461546 0"></polygon>
                        <polygon id="Fill-9" fill="#26140F" points="19.8461546 64.697677 36.0839175 64.697677 36.0839175 19.9534892 19.8461546 19.9534892"></polygon>
                        <path d="M55.6969942,8.35370409 L55.6969942,1.45401925 C55.6969942,0.651037119 55.0527927,0 54.2582415,0 L39.6923093,0 L39.6923093,64.697677 L55.2754397,48.9491945 C55.5455655,48.6765659 55.6969942,48.3068815 55.6969942,47.9212029 L55.6969942,24.5282142 L59.3025085,24.5282142 C60.0970596,24.5282142 60.7412612,23.8771771 60.7412612,23.074195 L60.7412612,9.80772334 C60.7412612,9.00474121 60.0970596,8.35370409 59.3025085,8.35370409 L55.6969942,8.35370409 Z" id="Fill-10" fill="#26140F"></path>
                        <path d="M1.4597054,0 C0.653583093,0 0,0.651033461 0,1.45401108 L0,47.9209337 C0,48.3066101 0.153633993,48.6766559 0.427328756,48.949283 L16.2377629,64.697677 L16.2377629,0 L1.4597054,0 Z" id="Fill-12" fill="#26140F"></path>
                    </g>
                    <g id="Group-2" transform="translate(87.303042, 4.534886)">
                        <polygon id="Fill-38" fill="#26140F" points="0 56.2325604 0 0 6.98928385 0 6.98928385 49.4487362 33.0769244 49.4487362 33.0769244 56.2325604"></polygon>
                        <polygon id="Fill-40" fill="#EC4723" points="39.0909106 7.86046543 46.3076941 7.86046543 46.3076941 0 39.0909106 0"></polygon>
                        <polygon id="Fill-42" fill="#26140F" points="39.0909106 56.2325604 46.3076941 56.2325604 46.3076941 10.8837214 39.0909106 10.8837214"></polygon>
                        <polygon id="Fill-43" fill="#26140F" points="58.8172381 56.2325604 58.8172381 16.885513 50.5174845 16.885513 50.5174845 10.8229957 58.8172381 10.8229957 58.8172381 0 65.3440036 0 65.3440036 10.8229957 75.1748282 10.8229957 75.1748282 16.885513 65.3440036 16.885513 65.3440036 56.2325604"></polygon>
                        <polygon id="Fill-44" fill="#EC4723" points="90.8111924 7.86046543 98.0279759 7.86046543 98.0279759 0 90.8111924 0"></polygon>
                        <polygon id="Fill-45" fill="#26140F" points="90.8111924 56.2325604 98.0279759 56.2325604 98.0279759 10.8837214 90.8111924 10.8837214"></polygon>
                        <polygon id="Fill-46" fill="#26140F" points="111.138918 56.2325604 111.138918 16.885513 102.839165 16.885513 102.839165 10.8229957 111.138918 10.8229957 111.138918 0 117.665684 0 117.665684 10.8229957 127.496509 10.8229957 127.496509 16.885513 117.665684 16.885513 117.665684 56.2325604"></polygon>
                    </g>
                </g>
                <g id="Group-Copy-2" transform="translate(0.000000, 391.000000)">
                    <g id="Group-3" transform="translate(0.050354, 0.153489)">
                        <polygon id="Fill-8" fill="#EC4723" points="9.96923117 8.28837242 18.1258748 8.28837242 18.1258748 0 9.96923117 0"></polygon>
                        <polygon id="Fill-9" fill="#26140F" points="9.96923117 32.8465129 18.1258748 32.8465129 18.1258748 10.130233 9.96923117 10.130233"></polygon>
                        <path d="M27.978025,4.24111131 L27.978025,0.738194388 C27.978025,0.330526537 27.6544261,0 27.2553027,0 L19.9384623,0 L19.9384623,32.8465129 L27.7662674,24.8511295 C27.9019585,24.7127181 27.978025,24.5250321 27.978025,24.3292261 L27.978025,12.4527857 L29.789167,12.4527857 C30.1882904,12.4527857 30.5118893,12.1222591 30.5118893,11.7145913 L30.5118893,4.97930569 C30.5118893,4.57163784 30.1882904,4.24111131 29.789167,4.24111131 L27.978025,4.24111131 Z" id="Fill-10" fill="#26140F"></path>
                        <path d="M0.733247364,0 C0.328311507,0 0,0.33052468 0,0.73819024 L0,24.3290894 C0,24.5248944 0.0771742851,24.7127638 0.214658166,24.8511744 L8.15664368,32.8465129 L8.15664368,0 L0.733247364,0 Z" id="Fill-12" fill="#26140F"></path>
                    </g>
                    <g id="Group-2" transform="translate(43.854552, 2.302327)">
                        <polygon id="Fill-38" fill="#26140F" points="0 28.5488383 0 0 3.51089608 0 3.51089608 25.104743 16.6153853 25.104743 16.6153853 28.5488383"></polygon>
                        <polygon id="Fill-40" fill="#EC4723" points="19.6363644 3.99069783 23.2615394 3.99069783 23.2615394 0 19.6363644 0"></polygon>
                        <polygon id="Fill-42" fill="#26140F" points="19.6363644 28.5488383 23.2615394 28.5488383 23.2615394 5.52558161 19.6363644 5.52558161"></polygon>
                        <polygon id="Fill-43" fill="#26140F" points="29.5454033 28.5488383 29.5454033 8.57264507 25.3762248 8.57264507 25.3762248 5.49475164 29.5454033 5.49475164 29.5454033 0 32.8239646 0 32.8239646 5.49475164 37.7622393 5.49475164 37.7622393 8.57264507 32.8239646 8.57264507 32.8239646 28.5488383"></polygon>
                        <polygon id="Fill-44" fill="#EC4723" points="45.616785 3.99069783 49.24196 3.99069783 49.24196 0 45.616785 0"></polygon>
                        <polygon id="Fill-45" fill="#26140F" points="45.616785 28.5488383 49.24196 28.5488383 49.24196 5.52558161 45.616785 5.52558161"></polygon>
                        <polygon id="Fill-46" fill="#26140F" points="55.8279218 28.5488383 55.8279218 8.57264507 51.6587433 8.57264507 51.6587433 5.49475164 55.8279218 5.49475164 55.8279218 0 59.1064831 0 59.1064831 5.49475164 64.0447578 5.49475164 64.0447578 8.57264507 59.1064831 8.57264507 59.1064831 28.5488383"></polygon>
                    </g>
                </g>
                <g id="Group-5" transform="translate(582.000000, 33.000000)">
                    <g id="Group" transform="translate(0.000000, 160.000000)">
                        <polygon id="Fill-1-Copy" fill="#26140F" points="0.200004339 48.200012 0.200004339 0.200010061 6.28546705 0.200010061 6.28546705 42.409289 29.0000055 42.409289 29.0000055 48.200012"></polygon>
                        <polygon id="Fill-2-Copy" fill="#EC4723" points="32.6000056 6.2000103 38.6000059 6.2000103 38.6000059 0.200010061 32.6000056 0.200010061"></polygon>
                        <polygon id="Fill-3-Copy" fill="#26140F" points="32.6000056 48.200012 38.6000059 48.200012 38.6000059 9.80001044 32.6000056 9.80001044"></polygon>
                        <polygon id="Fill-4-Copy" fill="#26140F" points="50.6705874 48.200012 50.6705874 14.613347 43.4000061 14.613347 43.4000061 9.43812712 50.6705874 9.43812712 50.6705874 0.200010061 56.3883845 0.200010061 56.3883845 9.43812712 65.0000069 9.43812712 65.0000069 14.613347 56.3883845 14.613347 56.3883845 48.200012"></polygon>
                        <polygon id="Fill-5-Copy" fill="#EC4723" points="79.4000075 6.2000103 85.4000077 6.2000103 85.4000077 0.200010061 79.4000075 0.200010061"></polygon>
                        <polygon id="Fill-6-Copy" fill="#26140F" points="79.4000075 48.200012 85.4000077 48.200012 85.4000077 9.80001044 79.4000075 9.80001044"></polygon>
                        <polygon id="Fill-7-Copy" fill="#26140F" points="96.2705893 48.200012 96.2705893 14.613347 89.0000079 14.613347 89.0000079 9.43812712 96.2705893 9.43812712 96.2705893 0.200010061 101.988386 0.200010061 101.988386 9.43812712 110.600009 9.43812712 110.600009 14.613347 101.988386 14.613347 101.988386 48.200012"></polygon>
                    </g>
                    <g id="Group-4">
                        <polygon id="Fill-8-Copy" fill="#EC4723" points="39.8000059 33.000005 72.2000072 33.000005 72.2000072 0.600003719 39.8000059 0.600003719"></polygon>
                        <polygon id="Fill-9-Copy" fill="#26140F" points="39.8000059 129.000009 72.2000072 129.000009 72.2000072 40.2000053 39.8000059 40.2000053"></polygon>
                        <path d="M111.334937,17.1788934 L111.334937,3.48567269 C111.334937,1.892062 110.04953,0.600003719 108.464123,0.600003719 L79.4000075,0.600003719 L79.4000075,129.000009 L110.493789,97.7453282 C111.032784,97.2042653 111.334937,96.4705839 111.334937,95.7051602 L111.334937,49.279075 L118.529196,49.279075 C120.114602,49.279075 121.400009,47.9870167 121.400009,46.393406 L121.400009,20.0645623 C121.400009,18.4709517 120.114602,17.1788934 118.529196,17.1788934 L111.334937,17.1788934 Z" id="Fill-10-Copy" fill="#26140F"></path>
                        <path d="M3.11262581,0.600003719 C1.5041306,0.600003719 0.200004339,1.89205474 0.200004339,3.48565648 L0.200004339,95.7046259 C0.200004339,96.4700453 0.506557749,97.2044439 1.05267428,97.7455038 L32.6000056,129.000009 L32.6000056,0.600003719 L3.11262581,0.600003719 Z" id="Fill-12-Copy" fill="#26140F"></path>
                    </g>
                </g>
                <g id="Group-5-Copy" transform="translate(796.000000, 33.000000)">
                    <g id="Group" transform="translate(0.000000, 80.382775)">
                        <polygon id="Fill-1-Copy" fill="#26140F" points="0.10000217 24.215317 0.10000217 0.100483524 3.14273352 0.100483524 3.14273352 21.3061021 14.5000027 21.3061021 14.5000027 24.215317"></polygon>
                        <polygon id="Fill-2-Copy" fill="#EC4723" points="16.3000028 3.11483771 19.3000029 3.11483771 19.3000029 0.100483524 16.3000028 0.100483524"></polygon>
                        <polygon id="Fill-3-Copy" fill="#26140F" points="16.3000028 24.215317 19.3000029 24.215317 19.3000029 4.92345022 16.3000028 4.92345022"></polygon>
                        <polygon id="Fill-4-Copy" fill="#26140F" points="25.3352937 24.215317 25.3352937 7.34163365 21.700003 7.34163365 21.700003 4.74164281 25.3352937 4.74164281 25.3352937 0.100483524 28.1941923 0.100483524 28.1941923 4.74164281 32.5000035 4.74164281 32.5000035 7.34163365 28.1941923 7.34163365 28.1941923 24.215317"></polygon>
                        <polygon id="Fill-5-Copy" fill="#EC4723" points="39.7000037 3.11483771 42.7000039 3.11483771 42.7000039 0.100483524 39.7000037 0.100483524"></polygon>
                        <polygon id="Fill-6-Copy" fill="#26140F" points="39.7000037 24.215317 42.7000039 24.215317 42.7000039 4.92345022 39.7000037 4.92345022"></polygon>
                        <polygon id="Fill-7-Copy" fill="#26140F" points="48.1352946 24.215317 48.1352946 7.34163365 44.5000039 7.34163365 44.5000039 4.74164281 48.1352946 4.74164281 48.1352946 0.100483524 50.9941932 0.100483524 50.9941932 4.74164281 55.3000044 4.74164281 55.3000044 7.34163365 50.9941932 7.34163365 50.9941932 24.215317"></polygon>
                    </g>
                    <g id="Group-4">
                        <polygon id="Fill-8-Copy" fill="#EC4723" points="19.900003 16.5789499 36.1000036 16.5789499 36.1000036 0.301437275 19.900003 0.301437275"></polygon>
                        <polygon id="Fill-9-Copy" fill="#26140F" points="19.900003 64.8086169 36.1000036 64.8086169 36.1000036 20.1961749 19.900003 20.1961749"></polygon>
                        <path d="M55.6674685,8.63054452 L55.6674685,1.75117527 C55.6674685,0.950557465 55.0247651,0.301437275 54.2320617,0.301437275 L39.7000037,0.301437275 L39.7000037,64.8086169 L55.2468943,49.1065046 C55.5163919,48.8346787 55.6674685,48.4660828 55.6674685,48.0815398 L55.6674685,24.75743 L59.2645978,24.75743 C60.0573012,24.75743 60.7000046,24.1083098 60.7000046,23.307692 L60.7000046,10.0802825 C60.7000046,9.27966471 60.0573012,8.63054452 59.2645978,8.63054452 L55.6674685,8.63054452 Z" id="Fill-10-Copy" fill="#26140F"></path>
                        <path d="M1.55631291,0.301437275 C0.752065302,0.301437275 0.10000217,0.950553818 0.10000217,1.75116713 L0.10000217,48.0812714 C0.10000217,48.4658122 0.253278875,48.8347685 0.526337138,49.1065928 L16.3000028,64.8086169 L16.3000028,0.301437275 L1.55631291,0.301437275 Z" id="Fill-12-Copy" fill="#26140F"></path>
                    </g>
                </g>
                <g id="Group-5-Copy-2" transform="translate(949.000000, 33.000000)">
                    <g id="Group" transform="translate(0.000000, 40.574163)">
                        <polygon id="Fill-1-Copy" fill="#26140F" points="0.0508207747 12.2229695 0.0508207747 0.0507202548 1.59712687 0.0507202548 1.59712687 10.7545087 7.36885385 10.7545087 7.36885385 12.2229695"></polygon>
                        <polygon id="Fill-2-Copy" fill="#EC4723" points="8.28360799 1.57225142 9.80819821 1.57225142 9.80819821 0.0507202548 8.28360799 0.0507202548"></polygon>
                        <polygon id="Fill-3-Copy" fill="#26140F" points="8.28360799 12.2229695 9.80819821 12.2229695 9.80819821 2.48517011 8.28360799 2.48517011"></polygon>
                        <polygon id="Fill-4-Copy" fill="#26140F" points="12.8753132 12.2229695 12.8753132 3.70577698 11.0278704 3.70577698 11.0278704 2.39340066 12.8753132 2.39340066 12.8753132 0.0507202548 14.3281961 0.0507202548 14.3281961 2.39340066 16.5163952 2.39340066 16.5163952 3.70577698 14.3281961 3.70577698 14.3281961 12.2229695"></polygon>
                        <polygon id="Fill-5-Copy" fill="#EC4723" points="20.1754117 1.57225142 21.700002 1.57225142 21.700002 0.0507202548 20.1754117 0.0507202548"></polygon>
                        <polygon id="Fill-6-Copy" fill="#26140F" points="20.1754117 12.2229695 21.700002 12.2229695 21.700002 2.48517011 20.1754117 2.48517011"></polygon>
                        <polygon id="Fill-7-Copy" fill="#26140F" points="24.4621989 12.2229695 24.4621989 3.70577698 22.6147561 3.70577698 22.6147561 2.39340066 24.4621989 2.39340066 24.4621989 0.0507202548 25.9150818 0.0507202548 25.9150818 2.39340066 28.1032809 2.39340066 28.1032809 3.70577698 25.9150818 3.70577698 25.9150818 12.2229695"></polygon>
                    </g>
                    <g id="Group-4">
                        <polygon id="Fill-8-Copy" fill="#EC4723" points="10.1131163 8.36842232 18.3459035 8.36842232 18.3459035 0.152154053 10.1131163 0.152154053"></polygon>
                        <polygon id="Fill-9-Copy" fill="#26140F" points="10.1131163 32.7129209 18.3459035 32.7129209 18.3459035 10.1942597 10.1131163 10.1942597"></polygon>
                        <path d="M28.290025,4.35637009 L28.290025,0.883926567 C28.290025,0.479805196 27.9634052,0.152154053 27.560556,0.152154053 L20.1754117,0.152154053 L20.1754117,32.7129209 L28.0762906,24.7870928 C28.2132484,24.6498855 28.290025,24.4638323 28.290025,24.2697296 L28.290025,12.4966075 L30.1180743,12.4966075 C30.5209236,12.4966075 30.8475433,12.1689564 30.8475433,11.764835 L30.8475433,5.0881426 C30.8475433,4.68402123 30.5209236,4.35637009 30.1180743,4.35637009 L28.290025,4.35637009 Z" id="Fill-10-Copy" fill="#26140F"></path>
                        <path d="M0.790913117,0.152154053 C0.382197121,0.152154053 0.0508207747,0.479803356 0.0508207747,0.883922456 L0.0508207747,24.2695941 C0.0508207747,24.4636957 0.128715494,24.6499308 0.267482808,24.7871373 L8.28360799,32.7129209 L8.28360799,0.152154053 L0.790913117,0.152154053 Z" id="Fill-12-Copy" fill="#26140F"></path>
                    </g>
                </g>
            </g>
        </g>
    </g>
</svg>