<?xml version="1.0" encoding="utf-8"?>
<!-- Generator: Adobe Illustrator 25.0.0, SVG Export Plug-In . SVG Version: 6.00 Build 0)  -->
<svg version="1.1" id="Layer_1" xmlns="http://www.w3.org/2000/svg" xmlns:xlink="http://www.w3.org/1999/xlink" x="0px" y="0px"
	 viewBox="0 0 120 120" style="enable-background:new 0 0 120 120;" xml:space="preserve">
<style type="text/css">
	.st0{fill:none;stroke:#EE2A7B;stroke-miterlimit:10;}
	.st1{fill:none;stroke:#EE2A7B;stroke-miterlimit:10;stroke-dasharray:3,3;}
	.st2{opacity:0.32;fill:#3B0097;enable-background:new    ;}
	.st3{fill:none;}
	.st4{fill-rule:evenodd;clip-rule:evenodd;fill:#EC4723;}
	.st5{fill-rule:evenodd;clip-rule:evenodd;fill:#FFFFFF;}
</style>
<line class="st0" x1="10" y1="0" x2="10" y2="1.5"/>
<line class="st1" x1="10" y1="4.5" x2="10" y2="117"/>
<line class="st0" x1="10" y1="118.5" x2="10" y2="120"/>
<line class="st0" x1="110" y1="0" x2="110" y2="1.5"/>
<line class="st1" x1="110" y1="4.5" x2="110" y2="117"/>
<line class="st0" x1="110" y1="118.5" x2="110" y2="120"/>
<line class="st0" x1="120" y1="10" x2="118.5" y2="10"/>
<line class="st1" x1="115.5" y1="10" x2="3" y2="10"/>
<line class="st0" x1="1.5" y1="10" x2="0" y2="10"/>
<line class="st0" x1="120" y1="110" x2="118.5" y2="110"/>
<line class="st1" x1="115.5" y1="110" x2="3" y2="110"/>
<line class="st0" x1="1.5" y1="110" x2="0" y2="110"/>
<rect id="_.bg" x="15.6" y="15.6" class="st2" width="88.9" height="88.9"/>
<rect x="-98.9" y="65.7" class="st3" width="24" height="24"/>
<g id="Page-1">
	<g id="Group-4">
		<polygon id="Fill-47-Copy" class="st4" points="53.1,49.4 63.7,49.4 63.7,38.8 53.1,38.8 		"/>
		<polygon id="Fill-48-Copy" class="st5" points="53.1,81.3 63.7,81.3 63.7,51.9 53.1,51.9 		"/>
		<path id="Fill-49-Copy" class="st5" d="M76.8,44.2v-4.5c0-0.5-0.4-1-1-1h-9.7v42.5l10.4-10.4c0.2-0.2,0.3-0.4,0.3-0.7V54.9h2.4
			c0.5,0,1-0.4,1-1v-8.7c0-0.5-0.4-1-1-1H76.8z"/>
		<path id="Fill-50-Copy" class="st5" d="M40.9,38.8c-0.5,0-1,0.4-1,1v30.6c0,0.3,0.1,0.5,0.3,0.7l10.4,10.4V38.8H40.9z"/>
	</g>
</g>
</svg>
