<?xml version="1.0" encoding="utf-8"?>
<!-- Generator: Adobe Illustrator 25.0.0, SVG Export Plug-In . SVG Version: 6.00 Build 0)  -->
<svg version="1.1" id="Layer_1" xmlns="http://www.w3.org/2000/svg" xmlns:xlink="http://www.w3.org/1999/xlink" x="0px" y="0px"
	 viewBox="0 0 120 120" style="enable-background:new 0 0 120 120;" xml:space="preserve">
<style type="text/css">
	.st0{fill:none;stroke:#EE2A7B;stroke-miterlimit:10;}
	.st1{fill:none;stroke:#EE2A7B;stroke-miterlimit:10;stroke-dasharray:3,3;}
	.st2{opacity:0.32;fill:#3B0097;enable-background:new    ;}
	.st3{fill:none;}
	.st4{fill:#EE2A7B;}
</style>
<line class="st0" x1="10" y1="0" x2="10" y2="1.5"/>
<line class="st1" x1="10" y1="4.5" x2="10" y2="117"/>
<line class="st0" x1="10" y1="118.5" x2="10" y2="120"/>
<line class="st0" x1="110" y1="0" x2="110" y2="1.5"/>
<line class="st1" x1="110" y1="4.5" x2="110" y2="117"/>
<line class="st0" x1="110" y1="118.5" x2="110" y2="120"/>
<line class="st0" x1="120" y1="10" x2="118.5" y2="10"/>
<line class="st1" x1="115.5" y1="10" x2="3" y2="10"/>
<line class="st0" x1="1.5" y1="10" x2="0" y2="10"/>
<line class="st0" x1="120" y1="110" x2="118.5" y2="110"/>
<line class="st1" x1="115.5" y1="110" x2="3" y2="110"/>
<line class="st0" x1="1.5" y1="110" x2="0" y2="110"/>
<rect id="_.bg" x="15.6" y="15.6" class="st2" width="88.9" height="88.9"/>
<rect x="-98.9" y="65.7" class="st3" width="24" height="24"/>
<path class="st4" d="M76,54.7c0,1.3,0,2.6,0,3.8c0,0.4,0.1,0.5,0.5,0.5c1.1,0,2.3-0.1,3.4,0.1c3.5,0.6,5.2,4.8,3.1,7.7
	c-1,1.4-2.4,2-4.1,2.1c-0.8,0-1.6,0-2.4,0c-0.4,0-0.5,0.1-0.5,0.5c0,2.4,0,4.7,0,7.1c0,1.7-0.6,3-2.2,3.8c-0.5,0.3-1.1,0.4-1.7,0.4
	c-2.3,0-4.7,0-7,0c-0.4,0-0.6-0.1-0.6-0.6c0-1,0-2-0.1-3.1c-0.2-2.5-2.5-4.6-5-4.6c-2.9-0.1-5.6,2.2-5.6,5.5c0,0.8,0,1.5,0,2.3
	c0,0.3-0.1,0.4-0.4,0.4c-2.5,0-4.9,0-7.4,0c-1.8,0-3.5-1.7-3.6-3.6c0-2.4,0-4.9,0-7.3c0-0.4,0.2-0.5,0.5-0.5c1,0,2,0,3-0.1
	c2.8-0.2,5.1-3,4.7-5.8c-0.3-2.4-1.7-4-4-4.6c-0.7-0.2-1.6-0.1-2.3-0.2c-0.4,0-0.9,0-1.3,0c-0.4,0-0.5-0.1-0.5-0.5
	c0-1.7,0-3.5,0-5.2c0-0.5,0-1.1,0-1.6c0-2.4,1.7-4.1,4.1-4.1c2.4,0,4.8,0,7.2,0c0.4,0,0.5-0.1,0.5-0.5c0-1.1,0-2.1,0.1-3.2
	c0.3-2.4,2.5-4.2,4.9-4.2c2.5,0,4.5,1.9,4.8,4.3c0.1,1,0.1,2,0.1,3.1c0,0.4,0.1,0.5,0.5,0.5c2.4,0,4.8,0,7.2,0
	c1.9,0,3.4,1.1,3.9,2.8c0.1,0.5,0.2,1,0.2,1.5C76,52.5,76,53.6,76,54.7C76,54.7,76,54.7,76,54.7z"/>
</svg>
