<?xml version="1.0" encoding="utf-8"?>
<!-- Generator: Adobe Illustrator 25.0.0, SVG Export Plug-In . SVG Version: 6.00 Build 0)  -->
<svg version="1.1" id="Layer_1" xmlns="http://www.w3.org/2000/svg" xmlns:xlink="http://www.w3.org/1999/xlink" x="0px" y="0px"
	 viewBox="0 0 120 120" style="enable-background:new 0 0 120 120;" xml:space="preserve">
<style type="text/css">
	.st0{fill:none;stroke:#EE2A7B;stroke-miterlimit:10;}
	.st1{fill:none;stroke:#EE2A7B;stroke-miterlimit:10;stroke-dasharray:3,3;}
	.st2{opacity:0.32;fill:#3B0097;enable-background:new    ;}
	.st3{fill:none;}
	.st4{fill:#EE2A7B;}
</style>
<line class="st0" x1="10" y1="0" x2="10" y2="1.5"/>
<line class="st1" x1="10" y1="4.5" x2="10" y2="117"/>
<line class="st0" x1="10" y1="118.5" x2="10" y2="120"/>
<line class="st0" x1="110" y1="0" x2="110" y2="1.5"/>
<line class="st1" x1="110" y1="4.5" x2="110" y2="117"/>
<line class="st0" x1="110" y1="118.5" x2="110" y2="120"/>
<line class="st0" x1="120" y1="10" x2="118.5" y2="10"/>
<line class="st1" x1="115.5" y1="10" x2="3" y2="10"/>
<line class="st0" x1="1.5" y1="10" x2="0" y2="10"/>
<line class="st0" x1="120" y1="110" x2="118.5" y2="110"/>
<line class="st1" x1="115.5" y1="110" x2="3" y2="110"/>
<line class="st0" x1="1.5" y1="110" x2="0" y2="110"/>
<rect id="_.bg" x="15.6" y="15.6" class="st2" width="88.9" height="88.9"/>
<rect x="-98.9" y="65.7" class="st3" width="24" height="24"/>
<g>
	<g>
		<g>
			<path class="st4" d="M39.5,44.1v6.7h17.3l4.2-6.7H39.5z M44.9,48.7h-2.5v-2.5h2.5V48.7z M49.1,48.7h-2.5v-2.5h2.5V48.7z
				 M53.3,48.7h-2.5v-2.5h2.5V48.7z"/>
		</g>
	</g>
	<g>
		<g>
			<path class="st4" d="M70.4,65.2c-0.1-0.1-0.2-0.2-0.4-0.2h-1.8v1.3H70c0.2,0,0.3-0.1,0.4-0.2c0.1-0.1,0.2-0.3,0.2-0.5
				C70.6,65.5,70.5,65.4,70.4,65.2z"/>
		</g>
	</g>
	<g>
		<g>
			<path class="st4" d="M70.1,62.3c-0.1-0.1-0.2-0.1-0.4-0.1h-1.5v1.2h1.5c0.1,0,0.3,0,0.4-0.1c0.1-0.1,0.2-0.2,0.2-0.5
				C70.3,62.6,70.3,62.4,70.1,62.3z"/>
		</g>
	</g>
	<g>
		<g>
			<path class="st4" d="M39.5,53.3V76h41.1V53.3H39.5z M55.9,68.2h-1.8L53,65.4l-1.1,2.8h-1.8l-3.1-7.8h2.3l1.7,5.4l0.5-1.6
				l-1.3-3.7h2l0.7,2.4l0.7-2.4h2l-1.3,3.7l0.6,1.6l1.7-5.4H59L55.9,68.2z M65.1,68.2h-5.6v-7.8H65v1.9h-3.3v1.1h2.8v1.7h-2.8v1.2
				h3.4V68.2z M72.5,67.1c-0.1,0.3-0.3,0.5-0.6,0.6c-0.3,0.2-0.6,0.3-0.9,0.4c-0.3,0.1-0.7,0.1-1.1,0.1h-3.8v-7.8h0h4.5
				c0.3,0,0.5,0.1,0.7,0.2c0.2,0.1,0.4,0.3,0.6,0.5s0.3,0.4,0.4,0.6c0.1,0.2,0.1,0.5,0.1,0.7c0,0.4-0.1,0.7-0.3,1.1
				c-0.2,0.3-0.5,0.6-0.8,0.8c0.4,0.1,0.8,0.4,1.1,0.7c0.3,0.3,0.4,0.8,0.4,1.3C72.8,66.5,72.7,66.8,72.5,67.1z"/>
		</g>
	</g>
	<g>
		<g>
			<polygon class="st4" points="64,44.1 59.8,50.8 80.6,50.8 80.6,44.1 			"/>
		</g>
	</g>
</g>
</svg>
