<svg id="Layer_1" data-name="Layer 1" xmlns="http://www.w3.org/2000/svg" viewBox="0 0 409.42 200.43"><defs><style>.cls-1{fill:#ea4f34;}.cls-2{fill:#d8d8d8;}</style></defs><polygon class="cls-1" points="123.51 32.01 0 32.01 0 73.48 123.51 73.48 284.32 73.48 284.32 32.01 123.51 32.01"/><rect class="cls-2" x="284.32" y="32.01" width="125.1" height="41.47"/><polygon class="cls-1" points="89.27 158.96 0 158.96 0 200.43 89.27 200.43 205.5 200.43 205.5 158.96 89.27 158.96"/><rect class="cls-2" x="205.5" y="158.96" width="203.92" height="41.47"/><path d="M16.47,186.68a2.59,2.59,0,0,1-2.6-2.6v-.78H16v.48a.86.86,0,0,0,.15.59.86.86,0,0,0,.59.15h8.6a.84.84,0,0,0,.59-.15.86.86,0,0,0,.15-.59v-2.66a.6.6,0,0,0-.74-.74H13.87v-8.12h14.4v2.18H16.77a.86.86,0,0,0-.59.15.84.84,0,0,0-.15.59v2.3a.86.86,0,0,0,.15.59.86.86,0,0,0,.59.15h8.9a2.49,2.49,0,0,1,1.83.76,2.45,2.45,0,0,1,.77,1.84v3.26a2.47,2.47,0,0,1-.77,1.84,2.53,2.53,0,0,1-1.83.76Z"/><path d="M33.85,186.68V175.14l-1.66,2H29.35l4.08-4.86H36v14.4Z"/><path d="M40.65,179a2.49,2.49,0,0,1-2.54-2.54v-1.58a2.48,2.48,0,0,1,2.54-2.54h1.78A2.46,2.46,0,0,1,45,174.88v1.58A2.48,2.48,0,0,1,42.43,179Zm-.12-1.7h2a1.92,1.92,0,0,0,.52-.07c.15,0,.22-.27.22-.67v-1.78c0-.4,0-.63-.07-.67S43,174,42.55,174h-2a1.52,1.52,0,0,0-.67.07,1.68,1.68,0,0,0-.07.67v1.78a1.71,1.71,0,0,0,.07.67A1.71,1.71,0,0,0,40.53,177.3Zm-.66,9.38v-2.52L53.75,172.4l.52-.12v2.5l-13.82,11.7Zm11.42-.06a2.46,2.46,0,0,1-2.52-2.52v-1.6A2.46,2.46,0,0,1,51.29,180h1.8a2.47,2.47,0,0,1,1.81.72,2.41,2.41,0,0,1,.73,1.8v1.6a2.41,2.41,0,0,1-.73,1.8,2.47,2.47,0,0,1-1.81.72Zm-.1-1.68h2c.4,0,.63,0,.67-.07a1.52,1.52,0,0,0,.07-.67v-1.8c0-.4,0-.63-.07-.67s-.27-.07-.67-.07h-2a1.52,1.52,0,0,0-.67.07,1.68,1.68,0,0,0-.07.67v1.8a1.71,1.71,0,0,0,.07.67A1.52,1.52,0,0,0,51.19,184.94Z"/><path d="M16.47,59.81a2.5,2.5,0,0,1-1.84-.76,2.54,2.54,0,0,1-.76-1.84V48a2.57,2.57,0,0,1,.76-1.86,2.5,2.5,0,0,1,1.84-.76h9.4v2.18h-9.1a.86.86,0,0,0-.59.15.86.86,0,0,0-.15.59v2.26a.84.84,0,0,0,.15.59.86.86,0,0,0,.59.15h8.9a2.53,2.53,0,0,1,1.83.76,2.47,2.47,0,0,1,.77,1.84v3.3a2.61,2.61,0,0,1-2.6,2.6Zm.3-2.16h8.6a.6.6,0,0,0,.74-.74v-2.7a.86.86,0,0,0-.15-.59.84.84,0,0,0-.59-.15H16v3.44a.84.84,0,0,0,.15.59A.86.86,0,0,0,16.77,57.65Z"/><path d="M32.87,59.81A2.46,2.46,0,0,1,31,59a2.63,2.63,0,0,1-.76-1.86v-9.1A2.6,2.6,0,0,1,31,46.19a2.48,2.48,0,0,1,1.84-.78h9.2a2.47,2.47,0,0,1,1.83.78,2.53,2.53,0,0,1,.77,1.86v9.1A2.56,2.56,0,0,1,43.9,59a2.46,2.46,0,0,1-1.83.8Zm-.44-4.46,9.34-7.74h-8.6a.6.6,0,0,0-.74.74Zm.72,2.22h8.62a.85.85,0,0,0,.59-.14.81.81,0,0,0,.15-.58v-7Z"/><path d="M49.31,52.13a2.49,2.49,0,0,1-2.54-2.54V48a2.48,2.48,0,0,1,2.54-2.54h1.78A2.46,2.46,0,0,1,53.63,48v1.58a2.47,2.47,0,0,1-.72,1.81,2.43,2.43,0,0,1-1.82.73Zm-.12-1.7h2a1.6,1.6,0,0,0,.52-.07c.15,0,.22-.27.22-.67V47.91a1.52,1.52,0,0,0-.07-.67,1.68,1.68,0,0,0-.67-.07h-2a1.71,1.71,0,0,0-.67.07,1.71,1.71,0,0,0-.07.67v1.78a1.68,1.68,0,0,0,.07.67A1.52,1.52,0,0,0,49.19,50.43Zm-.66,9.38V57.29L62.41,45.53l.52-.12v2.5L49.11,59.61ZM60,59.75a2.46,2.46,0,0,1-2.52-2.52v-1.6A2.46,2.46,0,0,1,60,53.11h1.8a2.47,2.47,0,0,1,1.81.72,2.41,2.41,0,0,1,.73,1.8v1.6a2.41,2.41,0,0,1-.73,1.8,2.47,2.47,0,0,1-1.81.72Zm-.1-1.68h2c.4,0,.63,0,.67-.07s.07-.27.07-.67v-1.8a1.52,1.52,0,0,0-.07-.67,1.68,1.68,0,0,0-.67-.07h-2a1.71,1.71,0,0,0-.67.07,1.71,1.71,0,0,0-.07.67v1.8a1.68,1.68,0,0,0,.07.67A1.52,1.52,0,0,0,59.85,58.07Z"/><path class="cls-1" d="M.93,13.76V2.24H11.49V4H2.67V7.14H9.76V8.86H2.67v4.9Z"/><path class="cls-1" d="M14.48,13.76a2.08,2.08,0,0,1-2.08-2.08V8.26h7.7V6.8A.68.68,0,0,0,20,6.33a.63.63,0,0,0-.46-.12H12.4V4.48h7.36a2,2,0,0,1,1.47.61,2,2,0,0,1,.61,1.47v7.2ZM14.72,12H20.1V9.87h-6v1.57a.68.68,0,0,0,.12.47A.68.68,0,0,0,14.72,12Z"/><path class="cls-1" d="M23.47,13.76V1.44H25.2V8.26h2.08l3.47-3.78h2V4.8L28.82,9.12l3.92,4.32v.32h-2L27.28,10H25.2v3.78Z"/><path class="cls-1" d="M35.79,13.76a2.08,2.08,0,0,1-2.08-2.08V6.56a2.08,2.08,0,0,1,2.08-2.08h5.28a2,2,0,0,1,1.47.61,2,2,0,0,1,.61,1.47V10H35.44v1.46a.68.68,0,0,0,.12.47A.68.68,0,0,0,36,12h7.12v1.73Zm-.35-5.39h6V6.8a.75.75,0,0,0-.11-.47.66.66,0,0,0-.47-.12H36a.68.68,0,0,0-.47.12.68.68,0,0,0-.12.47Z"/><path class="cls-1" d="M49.47,13.76V4.48h7.36a2,2,0,0,1,1.47.61,2,2,0,0,1,.61,1.47v7.2H57.18v-7a.68.68,0,0,0-.12-.47.66.66,0,0,0-.47-.12h-4.8a.68.68,0,0,0-.47.12.68.68,0,0,0-.12.47v7Z"/><path class="cls-1" d="M62.46,13.76a2.08,2.08,0,0,1-2.08-2.08V6.56a2.08,2.08,0,0,1,2.08-2.08h5.28a2.07,2.07,0,0,1,2.08,2.08V10H62.11v1.46a.68.68,0,0,0,.12.47.68.68,0,0,0,.47.12h7.12v1.73Zm-.35-5.39h6V6.8A.75.75,0,0,0,68,6.33a.66.66,0,0,0-.47-.12H62.7a.68.68,0,0,0-.47.12.68.68,0,0,0-.12.47Z"/><path class="cls-1" d="M74.3,13.76,70.66,4.48H72.5L75,10.62l2.67-6.14h2l2.83,6.16,2.35-6.16h1.84l-3.49,9.28h-1.4L78.67,6.88l-3,6.88Z"/><path class="cls-1" d="M89.49,13.76a2.08,2.08,0,0,1-2.08-2.08v-.24h1.73v.1a.43.43,0,0,0,.49.49h5a.48.48,0,0,0,.37-.12.5.5,0,0,0,.11-.37V10.48A.52.52,0,0,0,95,10.1a.48.48,0,0,0-.37-.12H89.49A2.07,2.07,0,0,1,87.41,7.9V6.56A2,2,0,0,1,88,5.09a2,2,0,0,1,1.47-.61h5.28a2,2,0,0,1,1.47.61,2,2,0,0,1,.61,1.47V6.8H95.1V6.7A.5.5,0,0,0,95,6.33a.48.48,0,0,0-.37-.12h-5a.43.43,0,0,0-.49.49V7.76a.52.52,0,0,0,.12.38.5.5,0,0,0,.37.12h5.14a2,2,0,0,1,1.47.6,2,2,0,0,1,.61,1.48v1.34a2,2,0,0,1-.61,1.47,2,2,0,0,1-1.47.61Z"/><path class="cls-1" d="M105.1,13.76A2.08,2.08,0,0,1,103,11.68v-.24h1.73v.1a.5.5,0,0,0,.12.37.52.52,0,0,0,.38.12h5a.5.5,0,0,0,.37-.12.54.54,0,0,0,.11-.37V10.48a.57.57,0,0,0-.11-.38.5.5,0,0,0-.37-.12H105.1A2.07,2.07,0,0,1,103,7.9V6.56a2.08,2.08,0,0,1,2.08-2.08h5.28a2,2,0,0,1,1.47.61,2,2,0,0,1,.61,1.47V6.8h-1.74V6.7a.54.54,0,0,0-.11-.37.5.5,0,0,0-.37-.12h-5a.52.52,0,0,0-.38.12.5.5,0,0,0-.12.37V7.76a.43.43,0,0,0,.5.5h5.13a2.07,2.07,0,0,1,2.08,2.08v1.34a2.08,2.08,0,0,1-2.08,2.08Z"/><path class="cls-1" d="M114.09,13.76V1.44h1.73v3h5.64a2.1,2.1,0,0,1,2.08,2.08v7.2h-1.73v-7a.68.68,0,0,0-.12-.47.69.69,0,0,0-.48-.12h-4.79a.69.69,0,0,0-.48.12.68.68,0,0,0-.12.47v7Z"/><path class="cls-1" d="M126.88,13.76a2.08,2.08,0,0,1-2.08-2.08V8.26h7.69V6.8a.69.69,0,0,0-.11-.47.63.63,0,0,0-.46-.12H124.8V4.48h7.36a2.08,2.08,0,0,1,2.08,2.08v7.2Zm.24-1.73h5.37V9.87h-6v1.57a.68.68,0,0,0,.12.47A.66.66,0,0,0,127.12,12Z"/><path class="cls-1" d="M135.69,13.76V6.56a2.08,2.08,0,0,1,2.08-2.08H143V6.21h-5a.68.68,0,0,0-.47.12.68.68,0,0,0-.12.47v7Z"/><path class="cls-1" d="M146.09,13.76A2.08,2.08,0,0,1,144,11.68V6.56a2.08,2.08,0,0,1,2.08-2.08h5.28a2.07,2.07,0,0,1,2.08,2.08V10h-7.71v1.46a.68.68,0,0,0,.12.47.68.68,0,0,0,.47.12h7.12v1.73Zm-.35-5.39h6V6.8a.75.75,0,0,0-.11-.47.66.66,0,0,0-.47-.12h-4.8a.68.68,0,0,0-.47.12.68.68,0,0,0-.12.47Z"/><path class="cls-1" d="M159.77,13.76V1.44h1.73v3h5.63a2.07,2.07,0,0,1,2.08,2.08v5.12a2.07,2.07,0,0,1-2.08,2.08ZM162.09,12h4.8a.69.69,0,0,0,.48-.12.68.68,0,0,0,.12-.47V6.8a.68.68,0,0,0-.12-.47.69.69,0,0,0-.48-.12h-4.8a.68.68,0,0,0-.47.12.68.68,0,0,0-.12.47v4.64a.68.68,0,0,0,.12.47A.68.68,0,0,0,162.09,12Z"/><path class="cls-1" d="M171.89,17.31V15.57h5.48a.69.69,0,0,0,.48-.12A.68.68,0,0,0,178,15V13.76h-5.64a2.08,2.08,0,0,1-2.08-2.08V4.51H172v6.93a.68.68,0,0,0,.12.47.68.68,0,0,0,.47.12h4.8a.69.69,0,0,0,.48-.12.68.68,0,0,0,.12-.47V4.51h1.72V15.23a2.07,2.07,0,0,1-2.08,2.08Z"/><path class="cls-1" d="M188,13.76A2.08,2.08,0,0,1,186,11.68v-.24h1.73v.1a.43.43,0,0,0,.49.49h5a.46.46,0,0,0,.36-.12.5.5,0,0,0,.12-.37V10.48a.52.52,0,0,0-.12-.38.46.46,0,0,0-.36-.12H188A2.07,2.07,0,0,1,186,7.9V6.56a2,2,0,0,1,.61-1.47A2,2,0,0,1,188,4.48h5.28a2,2,0,0,1,1.47.61,2,2,0,0,1,.61,1.47V6.8h-1.74V6.7a.5.5,0,0,0-.12-.37.46.46,0,0,0-.36-.12h-5a.43.43,0,0,0-.49.49V7.76a.52.52,0,0,0,.12.38.5.5,0,0,0,.37.12h5.14a2.07,2.07,0,0,1,2.08,2.08v1.34a2.08,2.08,0,0,1-2.08,2.08Z"/><path class="cls-1" d="M198.94,13.76a2,2,0,0,1-1.47-.61,2,2,0,0,1-.61-1.47V6.56a2,2,0,0,1,.61-1.47,2,2,0,0,1,1.47-.61h5.28a2,2,0,0,1,1.47.61,2,2,0,0,1,.61,1.47v5.12a2.08,2.08,0,0,1-2.08,2.08Zm.24-1.73H204a.66.66,0,0,0,.47-.12.75.75,0,0,0,.11-.47V6.8a.75.75,0,0,0-.11-.47.66.66,0,0,0-.47-.12h-4.8a.68.68,0,0,0-.47.12.68.68,0,0,0-.12.47v4.64a.68.68,0,0,0,.12.47A.68.68,0,0,0,199.18,12Z"/><path class="cls-1" d="M210,13.76a2.08,2.08,0,0,1-2.08-2.08V6.56A2.08,2.08,0,0,1,210,4.48h7.33V6.21h-7.09a.68.68,0,0,0-.47.12.68.68,0,0,0-.12.47v4.64a.68.68,0,0,0,.12.47.68.68,0,0,0,.47.12h7.12v1.73Z"/><path class="cls-1" d="M219.07,3.17V1.44h1.73V3.17Zm0,10.59V4.48h1.73v9.28Z"/><path class="cls-1" d="M224.25,13.76a2.08,2.08,0,0,1-2.08-2.08V8.26h7.7V6.8a.75.75,0,0,0-.11-.47.66.66,0,0,0-.47-.12h-7.12V4.48h7.36a2.07,2.07,0,0,1,2.08,2.08v7.2Zm.24-1.73h5.38V9.87h-6v1.57a.68.68,0,0,0,.12.47A.68.68,0,0,0,224.49,12Z"/><path class="cls-1" d="M235.1,13.76A2.08,2.08,0,0,1,233,11.68V1.44h1.73v10a.68.68,0,0,0,.12.47.68.68,0,0,0,.47.12h1.49v1.73Z"/><path class="cls-1" d="M242.73,13.76V4.48h11.86a2,2,0,0,1,1.47.61,2,2,0,0,1,.61,1.47v7.2H255v-7a.68.68,0,0,0-.12-.47.68.68,0,0,0-.47-.12h-3.19a.69.69,0,0,0-.48.12.75.75,0,0,0-.11.47v7h-1.74v-7a.68.68,0,0,0-.12-.47.69.69,0,0,0-.48-.12h-3.2a.63.63,0,0,0-.46.12.69.69,0,0,0-.11.47v7Z"/><path class="cls-1" d="M260.17,13.76a2.08,2.08,0,0,1-2.08-2.08V6.56a2.08,2.08,0,0,1,2.08-2.08h5.28a2.07,2.07,0,0,1,2.08,2.08V10h-7.71v1.46a.68.68,0,0,0,.12.47.68.68,0,0,0,.47.12h7.12v1.73Zm-.35-5.39h6V6.8a.75.75,0,0,0-.11-.47.66.66,0,0,0-.47-.12h-4.8a.68.68,0,0,0-.47.12.68.68,0,0,0-.12.47Z"/><path class="cls-1" d="M270.8,13.76a2.08,2.08,0,0,1-2.08-2.08V6.56a2,2,0,0,1,.61-1.47,2,2,0,0,1,1.47-.61h5.63v-3h1.73V13.76Zm.25-1.73h4.8a.66.66,0,0,0,.47-.12.75.75,0,0,0,.11-.47V6.8a.75.75,0,0,0-.11-.47.66.66,0,0,0-.47-.12h-4.8a.68.68,0,0,0-.47.12.68.68,0,0,0-.12.47v4.64a.68.68,0,0,0,.12.47A.68.68,0,0,0,271.05,12Z"/><path class="cls-1" d="M279.85,3.17V1.44h1.73V3.17Zm0,10.59V4.48h1.73v9.28Z"/><path class="cls-1" d="M285,13.76A2.07,2.07,0,0,1,283,11.68V8.26h7.69V6.8a.69.69,0,0,0-.11-.47.63.63,0,0,0-.46-.12H283V4.48h7.36a2.08,2.08,0,0,1,2.08,2.08v7.2Zm.24-1.73h5.37V9.87h-6v1.57a.68.68,0,0,0,.12.47A.65.65,0,0,0,285.28,12Z"/><path class="cls-1" d="M.93,144.54V133H11.49v1.73H2.67v3.17H9.76v1.72H2.67v4.9Z"/><path class="cls-1" d="M14.48,144.54a2.08,2.08,0,0,1-2.08-2.08V139h7.7v-1.46a.68.68,0,0,0-.12-.47.63.63,0,0,0-.46-.12H12.4v-1.73h7.36a2.08,2.08,0,0,1,2.08,2.08v7.2Zm.24-1.73H20.1v-2.16h-6v1.57a.68.68,0,0,0,.12.47A.68.68,0,0,0,14.72,142.81Z"/><path class="cls-1" d="M23.47,144.54V132.22H25.2V139h2.08l3.47-3.78h2v.32l-3.92,4.32,3.92,4.32v.32h-2l-3.47-3.78H25.2v3.78Z"/><path class="cls-1" d="M35.79,144.54a2.08,2.08,0,0,1-2.08-2.08v-5.12a2.08,2.08,0,0,1,2.08-2.08h5.28a2.08,2.08,0,0,1,2.08,2.08v3.42H35.44v1.46a.48.48,0,0,0,.59.59h7.12v1.73Zm-.35-5.39h6v-1.57a.75.75,0,0,0-.11-.47.66.66,0,0,0-.47-.12H36a.48.48,0,0,0-.59.59Z"/><path class="cls-1" d="M49.47,144.54v-9.28h7.36a2.08,2.08,0,0,1,2.08,2.08v7.2H57.18v-7a.68.68,0,0,0-.12-.47.66.66,0,0,0-.47-.12h-4.8a.48.48,0,0,0-.59.59v7Z"/><path class="cls-1" d="M62.46,144.54a2.08,2.08,0,0,1-2.08-2.08v-5.12a2.08,2.08,0,0,1,2.08-2.08h5.28a2.07,2.07,0,0,1,2.08,2.08v3.42H62.11v1.46a.48.48,0,0,0,.59.59h7.12v1.73Zm-.35-5.39h6v-1.57a.75.75,0,0,0-.11-.47.66.66,0,0,0-.47-.12H62.7a.48.48,0,0,0-.59.59Z"/><path class="cls-1" d="M74.3,144.54l-3.64-9.28H72.5L75,141.4l2.67-6.14h2l2.83,6.16,2.35-6.16h1.84l-3.49,9.28h-1.4l-3.11-6.88-3,6.88Z"/><path class="cls-1" d="M89.49,144.54a2.08,2.08,0,0,1-2.08-2.08v-.24h1.73v.1a.43.43,0,0,0,.49.49h5a.48.48,0,0,0,.37-.12.5.5,0,0,0,.11-.37v-1.06a.52.52,0,0,0-.11-.38.48.48,0,0,0-.37-.12H89.49a2.07,2.07,0,0,1-2.08-2.08v-1.34a2.08,2.08,0,0,1,2.08-2.08h5.28a2,2,0,0,1,1.47.61,2,2,0,0,1,.61,1.47v.24H95.1v-.1a.5.5,0,0,0-.11-.37.48.48,0,0,0-.37-.12h-5a.43.43,0,0,0-.49.49v1.06a.52.52,0,0,0,.12.38.5.5,0,0,0,.37.12h5.14a2,2,0,0,1,1.47.6,2,2,0,0,1,.61,1.48v1.34a2,2,0,0,1-.61,1.47,2,2,0,0,1-1.47.61Z"/><path class="cls-1" d="M105.1,144.54a2.08,2.08,0,0,1-2.08-2.08v-.24h1.73v.1a.5.5,0,0,0,.12.37.52.52,0,0,0,.38.12h5a.5.5,0,0,0,.37-.12.54.54,0,0,0,.11-.37v-1.06a.57.57,0,0,0-.11-.38.5.5,0,0,0-.37-.12H105.1a2.07,2.07,0,0,1-2.08-2.08v-1.34a2.08,2.08,0,0,1,2.08-2.08h5.28a2.08,2.08,0,0,1,2.08,2.08v.24h-1.74v-.1a.54.54,0,0,0-.11-.37.5.5,0,0,0-.37-.12h-5a.52.52,0,0,0-.38.12.5.5,0,0,0-.12.37v1.06a.43.43,0,0,0,.5.5h5.13a2.07,2.07,0,0,1,2.08,2.08v1.34a2.08,2.08,0,0,1-2.08,2.08Z"/><path class="cls-1" d="M114.09,144.54V132.22h1.73v3h5.64a2.1,2.1,0,0,1,2.08,2.08v7.2h-1.73v-7a.68.68,0,0,0-.12-.47.69.69,0,0,0-.48-.12h-4.79a.69.69,0,0,0-.48.12.68.68,0,0,0-.12.47v7Z"/><path class="cls-1" d="M126.88,144.54a2.08,2.08,0,0,1-2.08-2.08V139h7.69v-1.46a.69.69,0,0,0-.11-.47.63.63,0,0,0-.46-.12H124.8v-1.73h7.36a2.08,2.08,0,0,1,2.08,2.08v7.2Zm.24-1.73h5.37v-2.16h-6v1.57a.68.68,0,0,0,.12.47A.66.66,0,0,0,127.12,142.81Z"/><path class="cls-1" d="M135.69,144.54v-7.2a2.08,2.08,0,0,1,2.08-2.08H143V137h-5a.48.48,0,0,0-.59.59v7Z"/><path class="cls-1" d="M146.09,144.54a2.08,2.08,0,0,1-2.08-2.08v-5.12a2.08,2.08,0,0,1,2.08-2.08h5.28a2.07,2.07,0,0,1,2.08,2.08v3.42h-7.71v1.46a.48.48,0,0,0,.59.59h7.12v1.73Zm-.35-5.39h6v-1.57a.75.75,0,0,0-.11-.47.66.66,0,0,0-.47-.12h-4.8a.48.48,0,0,0-.59.59Z"/><path class="cls-1" d="M159.77,144.54V132.22h1.73v3h5.63a2.07,2.07,0,0,1,2.08,2.08v5.12a2.07,2.07,0,0,1-2.08,2.08Zm2.32-1.73h4.8a.69.69,0,0,0,.48-.12.68.68,0,0,0,.12-.47v-4.64a.68.68,0,0,0-.12-.47.69.69,0,0,0-.48-.12h-4.8a.48.48,0,0,0-.59.59v4.64a.48.48,0,0,0,.59.59Z"/><path class="cls-1" d="M171.89,148.09v-1.74h5.48a.69.69,0,0,0,.48-.12.68.68,0,0,0,.12-.47v-1.22h-5.64a2.08,2.08,0,0,1-2.08-2.08v-7.17H172v6.93a.48.48,0,0,0,.59.59h4.8a.69.69,0,0,0,.48-.12.68.68,0,0,0,.12-.47v-6.93h1.72V146a2.07,2.07,0,0,1-2.08,2.08Z"/><path class="cls-1" d="M188.08,144.54a2.08,2.08,0,0,1-2.08-2.08v-5.12a2.08,2.08,0,0,1,2.08-2.08h5.28a2,2,0,0,1,1.47.61,2,2,0,0,1,.61,1.47v5.12a2,2,0,0,1-.61,1.47,2,2,0,0,1-1.47.61Zm.24-1.73h4.8a.63.63,0,0,0,.46-.12.69.69,0,0,0,.11-.47v-4.64a.69.69,0,0,0-.11-.47.63.63,0,0,0-.46-.12h-4.8a.66.66,0,0,0-.47.12.68.68,0,0,0-.12.47v4.64a.68.68,0,0,0,.12.47A.66.66,0,0,0,188.32,142.81Z"/><path class="cls-1" d="M198.85,144.54a2.07,2.07,0,0,1-2.08-2.08V132.33h1.72v2.93h3.81V137h-3.81v5.23a.68.68,0,0,0,.12.47.69.69,0,0,0,.48.12h3.21v1.73Z"/><path class="cls-1" d="M203.74,144.54V132.22h1.73v3h5.63a2,2,0,0,1,1.47.61,2,2,0,0,1,.61,1.47v7.2h-1.73v-7a.68.68,0,0,0-.12-.47.66.66,0,0,0-.47-.12h-4.8a.48.48,0,0,0-.59.59v7Z"/><path class="cls-1" d="M216.46,144.54a2.08,2.08,0,0,1-2.08-2.08v-5.12a2.08,2.08,0,0,1,2.08-2.08h5.28a2.08,2.08,0,0,1,2.08,2.08v3.42h-7.71v1.46a.48.48,0,0,0,.59.59h7.12v1.73Zm-.35-5.39h6v-1.57a.75.75,0,0,0-.11-.47.66.66,0,0,0-.47-.12h-4.8a.48.48,0,0,0-.59.59Z"/><path class="cls-1" d="M225.37,144.54v-7.2a2.08,2.08,0,0,1,2.08-2.08h5.19V137h-4.95a.48.48,0,0,0-.59.59v7Z"/><path class="cls-1" d="M241.66,144.54,238,135.26h1.84l2.52,6.14,2.67-6.14h2l2.84,6.16,2.35-6.16H254l-3.49,9.28h-1.41l-3.1-6.88-3,6.88Z"/><path class="cls-1" d="M257.21,144.54a2.08,2.08,0,0,1-2.08-2.08V139h7.7v-1.46a.75.75,0,0,0-.11-.47.66.66,0,0,0-.47-.12h-7.12v-1.73h7.36a2.07,2.07,0,0,1,2.08,2.08v7.2Zm.24-1.73h5.38v-2.16h-6v1.57a.48.48,0,0,0,.59.59Z"/><path class="cls-1" d="M267.71,148.09v-1.74h5.49a.48.48,0,0,0,.59-.59v-1.22h-5.63a2.08,2.08,0,0,1-2.08-2.08v-7.17h1.73v6.93a.68.68,0,0,0,.12.47.66.66,0,0,0,.47.12h4.8a.48.48,0,0,0,.59-.59v-6.93h1.73V146a2.08,2.08,0,0,1-2.08,2.08Z"/><path class="cls-1" d="M279.15,144.54a2.08,2.08,0,0,1-2.08-2.08v-.24h1.73v.1a.43.43,0,0,0,.49.49h5a.46.46,0,0,0,.36-.12.5.5,0,0,0,.12-.37v-1.06a.52.52,0,0,0-.12-.38.46.46,0,0,0-.36-.12h-5.14a2.07,2.07,0,0,1-2.08-2.08v-1.34a2.08,2.08,0,0,1,2.08-2.08h5.28a2.08,2.08,0,0,1,2.08,2.08v.24h-1.74v-.1a.5.5,0,0,0-.12-.37.46.46,0,0,0-.36-.12h-5a.43.43,0,0,0-.49.49v1.06a.52.52,0,0,0,.12.38.5.5,0,0,0,.37.12h5.14a2.07,2.07,0,0,1,2.08,2.08v1.34a2.08,2.08,0,0,1-2.08,2.08Z"/></svg>