<svg id="Layer_1" data-name="Layer 1" xmlns="http://www.w3.org/2000/svg" viewBox="0 0 409.42 41.47"><defs><style>.cls-1{fill:#fff;}.cls-2{fill:#d8d8d8;}.cls-3{fill:#707070;}</style></defs><polygon class="cls-1" points="61.76 0 0 0 0 41.47 61.76 41.47 142.16 41.47 142.16 0 61.76 0"/><polygon class="cls-2" points="227.46 0 142.16 0 142.16 41.47 227.46 41.47 338.52 41.47 338.52 0 227.46 0"/><rect class="cls-3" x="338.52" width="70.91" height="41.47"/><path d="M12.94,18.83a1.54,1.54,0,0,1-1.57-1.56v-.36h1.31v.18a.59.59,0,0,0,.08.36.49.49,0,0,0,.35.09h5.17a.49.49,0,0,0,.35-.09.59.59,0,0,0,.08-.36V15.53a.58.58,0,0,0-.08-.35.49.49,0,0,0-.35-.09H12.94v-1.3h5a.52.52,0,0,0,.36-.09.58.58,0,0,0,.08-.35V11.93a.58.58,0,0,0-.08-.35.52.52,0,0,0-.36-.09h-4.8a.49.49,0,0,0-.35.09.58.58,0,0,0-.08.35v.3H11.37v-.48a1.55,1.55,0,0,1,1.57-1.57h5.15a1.48,1.48,0,0,1,1.11.46,1.51,1.51,0,0,1,.45,1.11v1.78a1.63,1.63,0,0,1,0,.31,1.4,1.4,0,0,1-.09.29,1.47,1.47,0,0,1,.37.59,2,2,0,0,1,.11.63v1.92a1.51,1.51,0,0,1-.46,1.11,1.5,1.5,0,0,1-1.09.45Z"/><path d="M22.84,18.83a1.44,1.44,0,0,1-1-.37,1.89,1.89,0,0,1-.57-.92h6.88a.49.49,0,0,0,.35-.09.52.52,0,0,0,.09-.36V15.72a.52.52,0,0,0-.09-.36.56.56,0,0,0-.35-.08H22.84a1.57,1.57,0,0,1-1.57-1.56v-2a1.48,1.48,0,0,1,.46-1.11,1.51,1.51,0,0,1,1.11-.46h5.52a1.57,1.57,0,0,1,1.55,1.57v5.52a1.51,1.51,0,0,1-.46,1.11,1.5,1.5,0,0,1-1.09.45ZM23,14h5.6v-2a.51.51,0,0,0-.09-.35.49.49,0,0,0-.35-.09H23a.49.49,0,0,0-.35.09.51.51,0,0,0-.09.35v1.61a.49.49,0,0,0,.09.35A.56.56,0,0,0,23,14Z"/><path d="M32.68,14.22a1.47,1.47,0,0,1-1.52-1.52v-.95a1.47,1.47,0,0,1,.43-1.09,1.5,1.5,0,0,1,1.09-.43h1.07a1.47,1.47,0,0,1,1.52,1.52v.95a1.5,1.5,0,0,1-.43,1.09,1.47,1.47,0,0,1-1.09.43Zm-.07-1h1.21a1,1,0,0,0,.31,0c.09,0,.13-.16.13-.4V11.69a.92.92,0,0,0,0-.4.92.92,0,0,0-.4,0H32.61c-.24,0-.38,0-.4,0a.84.84,0,0,0-.05.4v1.07a.84.84,0,0,0,.05.4S32.37,13.2,32.61,13.2Zm-.4,5.63V17.32l8.33-7.06.31-.07v1.5l-8.29,7Zm6.85,0a1.49,1.49,0,0,1-1.51-1.52v-1a1.47,1.47,0,0,1,1.51-1.51h1.08a1.51,1.51,0,0,1,1.09.43,1.47,1.47,0,0,1,.44,1.08v1a1.44,1.44,0,0,1-.44,1.08,1.48,1.48,0,0,1-1.09.44Zm-.06-1h1.2a1.21,1.21,0,0,0,.41,0,1.21,1.21,0,0,0,0-.41V16.26a1.13,1.13,0,0,0,0-.4,1,1,0,0,0-.41,0H39a.92.92,0,0,0-.4,0,.92.92,0,0,0,0,.4v1.08a1,1,0,0,0,0,.41A1.13,1.13,0,0,0,39,17.79Z"/><path d="M161.24,18.83V16.64h-5.72V15.33l5.72-5.15h1.29v5.15h1.27v1.31h-1.27v2.19Zm-3.82-3.5h3.82V12.08Z"/><path d="M166.46,18.83a1.51,1.51,0,0,1-1.11-.45,1.55,1.55,0,0,1-.46-1.11V16.8h1.3v.29a.52.52,0,0,0,.09.36.51.51,0,0,0,.35.09h5.16a.36.36,0,0,0,.45-.45V15.5a.36.36,0,0,0-.45-.45h-6.9V10.18h8.65v1.31h-6.91a.51.51,0,0,0-.35.09.51.51,0,0,0-.09.35v1.38a.52.52,0,0,0,.09.36.51.51,0,0,0,.35.09H172a1.57,1.57,0,0,1,1.56,1.56v1.95A1.57,1.57,0,0,1,172,18.83Z"/><path d="M176.27,14.22a1.47,1.47,0,0,1-1.52-1.52v-.95a1.47,1.47,0,0,1,.43-1.09,1.5,1.5,0,0,1,1.09-.43h1.07a1.47,1.47,0,0,1,1.52,1.52v.95a1.5,1.5,0,0,1-.43,1.09,1.47,1.47,0,0,1-1.09.43Zm-.07-1h1.21a1,1,0,0,0,.31,0c.09,0,.13-.16.13-.4V11.69a.92.92,0,0,0,0-.4.92.92,0,0,0-.4,0H176.2c-.24,0-.38,0-.4,0a.84.84,0,0,0-.05.4v1.07a.84.84,0,0,0,.05.4S176,13.2,176.2,13.2Zm-.4,5.63V17.32l8.33-7.06.31-.07v1.5l-8.29,7Zm6.85,0a1.49,1.49,0,0,1-1.51-1.52v-1a1.47,1.47,0,0,1,1.51-1.51h1.08a1.51,1.51,0,0,1,1.09.43,1.47,1.47,0,0,1,.44,1.08v1a1.44,1.44,0,0,1-.44,1.08,1.48,1.48,0,0,1-1.09.44Zm-.06-1h1.2a1.21,1.21,0,0,0,.41,0,1.21,1.21,0,0,0,0-.41V16.26a1.13,1.13,0,0,0,0-.4,1,1,0,0,0-.41,0h-1.2a.92.92,0,0,0-.4,0,.92.92,0,0,0,0,.4v1.08a1,1,0,0,0,0,.41A1.13,1.13,0,0,0,182.59,17.79Z"/><path d="M348.84,18.83V11.91l-1,1.2h-1.71l2.45-2.92h1.55v8.64Z"/><path d="M353.07,18.83a1.54,1.54,0,0,1-1.56-1.56V11.75a1.55,1.55,0,0,1,1.56-1.57h5.64v1.31h-5.46a.52.52,0,0,0-.36.09.51.51,0,0,0-.09.35v1.36a.51.51,0,0,0,.09.35.52.52,0,0,0,.36.09h5.34a1.57,1.57,0,0,1,1.56,1.56v2a1.55,1.55,0,0,1-.46,1.11,1.53,1.53,0,0,1-1.1.45Zm.18-1.29h5.16a.51.51,0,0,0,.35-.09.52.52,0,0,0,.09-.36V15.47a.36.36,0,0,0-.44-.44H352.8v2.06a.36.36,0,0,0,.45.45Z"/><path d="M362.76,14.22a1.46,1.46,0,0,1-1.08-.43,1.51,1.51,0,0,1-.44-1.09v-.95a1.48,1.48,0,0,1,.44-1.09,1.46,1.46,0,0,1,1.08-.43h1.07a1.45,1.45,0,0,1,1.09.43,1.48,1.48,0,0,1,.44,1.09v.95a1.51,1.51,0,0,1-.44,1.09,1.45,1.45,0,0,1-1.09.43Zm-.07-1h1.21a1,1,0,0,0,.32,0c.08,0,.13-.16.13-.4V11.69a1.13,1.13,0,0,0,0-.4,1,1,0,0,0-.41,0h-1.21a.92.92,0,0,0-.4,0,.92.92,0,0,0,0,.4v1.07a.92.92,0,0,0,0,.4A.92.92,0,0,0,362.69,13.2Zm-.39,5.63V17.32l8.32-7.06.32-.07v1.5l-8.3,7Zm6.85,0a1.47,1.47,0,0,1-1.08-.44,1.43,1.43,0,0,1-.43-1.08v-1a1.46,1.46,0,0,1,.43-1.08,1.5,1.5,0,0,1,1.08-.43h1.08a1.5,1.5,0,0,1,1.08.43,1.43,1.43,0,0,1,.44,1.08v1a1.4,1.4,0,0,1-.44,1.08,1.47,1.47,0,0,1-1.08.44Zm-.06-1h1.2a1.13,1.13,0,0,0,.4,0,1,1,0,0,0,0-.41V16.26a.92.92,0,0,0,0-.4.92.92,0,0,0-.4,0h-1.2c-.24,0-.38,0-.4,0a.84.84,0,0,0-.05.4v1.08a.9.9,0,0,0,.05.41A1.09,1.09,0,0,0,369.09,17.79Z"/><path d="M14.44,32.62,11.56,27.4h1.12l2.24,4.13,2.24-4.13h1.13l-2.88,5.22Z"/><path d="M19.84,32.62a1.16,1.16,0,0,1-1.17-1.17V28.57a1.09,1.09,0,0,1,.34-.82,1.13,1.13,0,0,1,.83-.35h3A1.18,1.18,0,0,1,24,28.57V30.5H19.64v.82c0,.13,0,.22.07.26s.13.07.26.07h4v1Zm-.2-3H23v-.88a.38.38,0,0,0-.07-.27.39.39,0,0,0-.26-.06H20a.39.39,0,0,0-.26.06.38.38,0,0,0-.07.27Z"/><path d="M24.85,32.62v-4a1.09,1.09,0,0,1,.34-.82A1.14,1.14,0,0,1,26,27.4h2.92v1H26.16a.41.41,0,0,0-.27.06.38.38,0,0,0-.07.27v3.91Z"/><path d="M30.33,34.62v-1h3.09c.13,0,.22,0,.26-.07s.07-.13.07-.26v-.69H30.58a1.09,1.09,0,0,1-.82-.34,1.13,1.13,0,0,1-.35-.83v-4h1v3.9a.39.39,0,0,0,.06.26.38.38,0,0,0,.27.07h2.7c.13,0,.22,0,.26-.07s.07-.13.07-.26v-3.9h1v6a1.16,1.16,0,0,1-1.17,1.17Z"/><path d="M39.44,32.62a1.13,1.13,0,0,1-.83-.34,1.12,1.12,0,0,1-.34-.83V28.57a1.09,1.09,0,0,1,.34-.82,1.14,1.14,0,0,1,.83-.35h4.12v1h-4a.39.39,0,0,0-.26.06.38.38,0,0,0-.07.27v2.61c0,.13,0,.22.07.26s.13.07.26.07h4v1Z"/><path d="M45.66,32.62a1.16,1.16,0,0,1-1.17-1.17V28.57a1.09,1.09,0,0,1,.34-.82,1.13,1.13,0,0,1,.83-.35h3a1.18,1.18,0,0,1,1.17,1.17v2.88a1.16,1.16,0,0,1-.34.83,1.13,1.13,0,0,1-.83.34Zm.13-1h2.7c.13,0,.22,0,.26-.07s.07-.13.07-.26V28.71a.38.38,0,0,0-.07-.27.39.39,0,0,0-.26-.06h-2.7a.39.39,0,0,0-.26.06.38.38,0,0,0-.07.27v2.61c0,.13,0,.22.07.26S45.66,31.65,45.79,31.65Z"/><path d="M50.56,32.62V27.4H54.7a1.13,1.13,0,0,1,.83.35,1.09,1.09,0,0,1,.34.82v4h-1V28.71a.38.38,0,0,0-.07-.27.39.39,0,0,0-.26-.06h-2.7a.26.26,0,0,0-.33.33v3.91Z"/><path d="M56.82,32.62V26.86a1.09,1.09,0,0,1,.34-.82,1.13,1.13,0,0,1,.83-.35h1.94v1H58.12a.39.39,0,0,0-.26.06.38.38,0,0,0-.07.27v.4h2.14v1H57.79v4.24Z"/><path d="M60.58,26.67v-1h1v1Zm0,5.95V27.4h1v5.22Z"/><path d="M63.5,32.62a1.16,1.16,0,0,1-1.17-1.17V28.57a1.09,1.09,0,0,1,.34-.82,1.13,1.13,0,0,1,.83-.35h3.16V25.69h1v6.93Zm.14-1h2.7c.13,0,.22,0,.26-.07a.39.39,0,0,0,.06-.26V28.71a.45.45,0,0,0-.06-.27.39.39,0,0,0-.26-.06h-2.7a.26.26,0,0,0-.33.33v2.61a.39.39,0,0,0,.06.26A.38.38,0,0,0,63.64,31.65Z"/><path d="M69.56,32.62a1.13,1.13,0,0,1-.83-.34,1.16,1.16,0,0,1-.34-.83V28.57a1.18,1.18,0,0,1,1.17-1.17h3a1.13,1.13,0,0,1,.83.35,1.09,1.09,0,0,1,.34.82V30.5H69.36v.82a.38.38,0,0,0,.07.26.37.37,0,0,0,.27.07h4v1Zm-.2-3h3.36v-.88a.45.45,0,0,0-.06-.27.39.39,0,0,0-.26-.06H69.7a.43.43,0,0,0-.27.06.44.44,0,0,0-.07.27Z"/><path d="M74.65,32.62V27.4h4.14A1.2,1.2,0,0,1,80,28.57v4H79V28.71a.26.26,0,0,0-.33-.33H76a.39.39,0,0,0-.26.06.38.38,0,0,0-.07.27v3.91Z"/><path d="M82.07,32.62a1.13,1.13,0,0,1-.83-.34,1.16,1.16,0,0,1-.34-.83V25.76h1V27.4H84v1H81.87v2.94a.38.38,0,0,0,.07.26.37.37,0,0,0,.27.07H84v1Z"/><path d="M157.16,32.62a1.13,1.13,0,0,1-.83-.34,1.12,1.12,0,0,1-.34-.83v-.37h1v.24a.38.38,0,0,0,.07.26.37.37,0,0,0,.27.07h3.87a.35.35,0,0,0,.26-.07.39.39,0,0,0,.06-.26V30.2a.45.45,0,0,0-.06-.27.41.41,0,0,0-.26-.06h-4A1.16,1.16,0,0,1,156,28.7V27.31a1.09,1.09,0,0,1,.34-.82,1.14,1.14,0,0,1,.83-.35h4.14a1.14,1.14,0,0,1,.83.35,1.09,1.09,0,0,1,.34.82v.38h-1v-.24a.45.45,0,0,0-.06-.27.41.41,0,0,0-.26-.06H157.3a.43.43,0,0,0-.27.06.44.44,0,0,0-.07.27v1.12a.44.44,0,0,0,.07.27.43.43,0,0,0,.27.06h4a1.13,1.13,0,0,1,.83.34,1.12,1.12,0,0,1,.34.83v1.38a1.12,1.12,0,0,1-.34.83,1.13,1.13,0,0,1-.83.34Z"/><path d="M164.57,32.62a1.16,1.16,0,0,1-1.17-1.17V28.57a1.09,1.09,0,0,1,.34-.82,1.13,1.13,0,0,1,.83-.35h3a1.18,1.18,0,0,1,1.17,1.17v2.88a1.16,1.16,0,0,1-.34.83,1.13,1.13,0,0,1-.83.34Zm.13-1h2.7c.13,0,.22,0,.26-.07s.07-.13.07-.26V28.71a.38.38,0,0,0-.07-.27.39.39,0,0,0-.26-.06h-2.7a.39.39,0,0,0-.26.06.38.38,0,0,0-.07.27v2.61c0,.13,0,.22.07.26S164.57,31.65,164.7,31.65Z"/><path d="M169.65,32.62V27.4h6.67a1.13,1.13,0,0,1,.83.35,1.09,1.09,0,0,1,.34.82v4h-1V28.71a.38.38,0,0,0-.07-.27.39.39,0,0,0-.26-.06h-1.8a.26.26,0,0,0-.33.33v3.91h-1V28.71a.38.38,0,0,0-.07-.27.39.39,0,0,0-.26-.06H171a.39.39,0,0,0-.26.06.38.38,0,0,0-.07.27v3.91Z"/><path d="M179.46,32.62a1.13,1.13,0,0,1-.83-.34,1.16,1.16,0,0,1-.34-.83V28.57a1.18,1.18,0,0,1,1.17-1.17h3a1.13,1.13,0,0,1,.83.35,1.09,1.09,0,0,1,.34.82V30.5h-4.34v.82a.38.38,0,0,0,.07.26.38.38,0,0,0,.27.07h4v1Zm-.2-3h3.36v-.88a.45.45,0,0,0-.06-.27.39.39,0,0,0-.26-.06h-2.7a.45.45,0,0,0-.27.06.44.44,0,0,0-.07.27Z"/><path d="M184.51,32.62V25.69h1V27.4h3.17a1.16,1.16,0,0,1,.83.35,1.09,1.09,0,0,1,.34.82v4h-1V28.71a.38.38,0,0,0-.07-.27.39.39,0,0,0-.26-.06h-2.7a.43.43,0,0,0-.27.06.44.44,0,0,0-.07.27v3.91Z"/><path d="M191.67,32.62a1.16,1.16,0,0,1-1.17-1.17V28.57a1.09,1.09,0,0,1,.34-.82,1.13,1.13,0,0,1,.83-.35h3a1.2,1.2,0,0,1,1.17,1.17v2.88a1.13,1.13,0,0,1-.35.83,1.09,1.09,0,0,1-.82.34Zm.13-1h2.7c.13,0,.22,0,.26-.07a.38.38,0,0,0,.07-.26V28.71a.44.44,0,0,0-.07-.27.39.39,0,0,0-.26-.06h-2.7a.39.39,0,0,0-.26.06.38.38,0,0,0-.07.27v2.61c0,.13,0,.22.07.26S191.67,31.65,191.8,31.65Z"/><path d="M198.2,32.62l-2-5.22h1l1.42,3.46,1.5-3.46h1.11l1.59,3.47,1.32-3.47h1l-2,5.22h-.8l-1.74-3.87L199,32.62Z"/><path d="M209.65,32.62a1.16,1.16,0,0,1-1.17-1.17V28.57a1.09,1.09,0,0,1,.34-.82,1.13,1.13,0,0,1,.83-.35h4.12v1h-4a.39.39,0,0,0-.26.06.38.38,0,0,0-.07.27v2.61c0,.13,0,.22.07.26s.13.07.26.07h4v1Z"/><path d="M215.87,32.62a1.16,1.16,0,0,1-1.17-1.17V28.57a1.09,1.09,0,0,1,.34-.82,1.13,1.13,0,0,1,.83-.35h3A1.2,1.2,0,0,1,220,28.57v2.88a1.13,1.13,0,0,1-.35.83,1.09,1.09,0,0,1-.82.34Zm.13-1h2.7c.13,0,.22,0,.26-.07s.07-.13.07-.26V28.71a.38.38,0,0,0-.07-.27.39.39,0,0,0-.26-.06H216a.39.39,0,0,0-.26.06.38.38,0,0,0-.07.27v2.61c0,.13,0,.22.07.26S215.87,31.65,216,31.65Z"/><path d="M220.77,32.62V27.4h4.14a1.13,1.13,0,0,1,.83.35,1.09,1.09,0,0,1,.34.82v4h-1V28.71a.38.38,0,0,0-.07-.27.39.39,0,0,0-.26-.06h-2.7a.45.45,0,0,0-.27.06.44.44,0,0,0-.07.27v3.91Z"/><path d="M227,32.62V26.86a1.09,1.09,0,0,1,.34-.82,1.13,1.13,0,0,1,.83-.35h1.94v1h-1.81a.39.39,0,0,0-.26.06A.38.38,0,0,0,228,27v.4h2.14v1H228v4.24Z"/><path d="M230.79,26.67v-1h1v1Zm0,5.95V27.4h1v5.22Z"/><path d="M233.71,32.62a1.1,1.1,0,0,1-.83-.34,1.12,1.12,0,0,1-.34-.83V28.57a1.09,1.09,0,0,1,.34-.82,1.11,1.11,0,0,1,.83-.35h3.16V25.69h1v6.93Zm.14-1h2.7c.13,0,.22,0,.26-.07a.39.39,0,0,0,.06-.26V28.71a.45.45,0,0,0-.06-.27.39.39,0,0,0-.26-.06h-2.7a.26.26,0,0,0-.33.33v2.61a.39.39,0,0,0,.06.26A.38.38,0,0,0,233.85,31.65Z"/><path d="M239.77,32.62a1.13,1.13,0,0,1-.83-.34,1.12,1.12,0,0,1-.34-.83V28.57a1.09,1.09,0,0,1,.34-.82,1.14,1.14,0,0,1,.83-.35h3a1.14,1.14,0,0,1,.83.35,1.09,1.09,0,0,1,.34.82V30.5h-4.34v.82a.38.38,0,0,0,.07.26.37.37,0,0,0,.27.07h4v1Zm-.2-3h3.36v-.88a.45.45,0,0,0-.06-.27.39.39,0,0,0-.26-.06h-2.7a.43.43,0,0,0-.27.06.44.44,0,0,0-.07.27Z"/><path d="M244.86,32.62V27.4H249a1.2,1.2,0,0,1,1.17,1.17v4h-1V28.71a.26.26,0,0,0-.33-.33h-2.7a.39.39,0,0,0-.26.06.38.38,0,0,0-.07.27v3.91Z"/><path d="M252.28,32.62a1.13,1.13,0,0,1-.83-.34,1.12,1.12,0,0,1-.34-.83V25.76h1V27.4h2.14v1h-2.14v2.94a.38.38,0,0,0,.07.26.37.37,0,0,0,.27.07h1.8v1Z"/><path d="M347.8,32.62a1.13,1.13,0,0,1-.83-.34,1.12,1.12,0,0,1-.34-.83V27.31a1.09,1.09,0,0,1,.34-.82,1.14,1.14,0,0,1,.83-.35h4.14a1.12,1.12,0,0,1,.82.35,1.1,1.1,0,0,1,.35.82v4.14a1.13,1.13,0,0,1-.35.83,1.11,1.11,0,0,1-.82.34Zm.13-1h3.87a.38.38,0,0,0,.27-.07.39.39,0,0,0,.06-.26V27.45a.26.26,0,0,0-.33-.33h-3.87a.39.39,0,0,0-.26.06.38.38,0,0,0-.07.27v3.87c0,.13,0,.22.07.26S347.8,31.65,347.93,31.65Z"/><path d="M355.24,32.62a1.13,1.13,0,0,1-.83-.34,1.16,1.16,0,0,1-.34-.83V25.76h1V27.4h2.15v1H355v2.94a.38.38,0,0,0,.07.26.38.38,0,0,0,.27.07h1.81v1Z"/><path d="M358,32.62V25.69h1V27.4h3.17a1.14,1.14,0,0,1,.82.35,1.1,1.1,0,0,1,.35.82v4h-1V28.71a.26.26,0,0,0-.33-.33h-2.7a.39.39,0,0,0-.26.06.38.38,0,0,0-.07.27v3.91Z"/><path d="M365.15,32.62a1.13,1.13,0,0,1-.83-.34,1.16,1.16,0,0,1-.34-.83V28.57a1.18,1.18,0,0,1,1.17-1.17h3a1.13,1.13,0,0,1,.83.35,1.09,1.09,0,0,1,.34.82V30.5H365v.82a.38.38,0,0,0,.07.26.37.37,0,0,0,.27.07h4v1Zm-.2-3h3.36v-.88a.45.45,0,0,0-.06-.27.39.39,0,0,0-.26-.06h-2.7a.43.43,0,0,0-.27.06.44.44,0,0,0-.07.27Z"/><path d="M370.16,32.62v-4a1.2,1.2,0,0,1,1.17-1.17h2.92v1h-2.78a.26.26,0,0,0-.33.33v3.91Z"/><path d="M376,32.62a1.09,1.09,0,0,1-.82-.34,1.13,1.13,0,0,1-.35-.83v-.13h1v.05a.24.24,0,0,0,.28.28h2.8a.25.25,0,0,0,.21-.07.29.29,0,0,0,.06-.21v-.59a.29.29,0,0,0-.06-.21.25.25,0,0,0-.21-.07H376a1.09,1.09,0,0,1-.82-.34,1.14,1.14,0,0,1-.35-.83v-.76A1.2,1.2,0,0,1,376,27.4h3a1.13,1.13,0,0,1,.83.35,1.09,1.09,0,0,1,.34.82v.14h-1v-.06a.33.33,0,0,0-.06-.21.29.29,0,0,0-.21-.06h-2.8a.34.34,0,0,0-.22.06.33.33,0,0,0-.06.21v.6a.24.24,0,0,0,.28.28H379a1.16,1.16,0,0,1,1.17,1.17v.75A1.16,1.16,0,0,1,379,32.62Z"/></svg>