<?xml version="1.0" encoding="utf-8"?>
<!-- Generator: Adobe Illustrator 25.0.0, SVG Export Plug-In . SVG Version: 6.00 Build 0)  -->
<svg version="1.1" id="Layer_1" xmlns="http://www.w3.org/2000/svg" xmlns:xlink="http://www.w3.org/1999/xlink" x="0px" y="0px"
	 viewBox="0 0 530 396.8" style="enable-background:new 0 0 530 396.8;" xml:space="preserve">
<style type="text/css">
	.st0{fill-rule:evenodd;clip-rule:evenodd;fill:#5400D5;}
	.st1{fill:none;stroke:#5400D5;stroke-linejoin:round;stroke-miterlimit:10;}
	.st2{fill:#FFFFFF;}
	.st3{fill-rule:evenodd;clip-rule:evenodd;fill:#FF008A;}
	.st4{fill:none;stroke:#FF008A;stroke-linejoin:round;stroke-miterlimit:10;}
	.st5{fill:#FF008A;}
	.st6{fill-rule:evenodd;clip-rule:evenodd;fill-opacity:0;}
	.st7{fill:none;stroke:#FF008A;stroke-width:2;stroke-linejoin:round;stroke-miterlimit:10;stroke-dasharray:2,6;}
	.st8{fill-rule:evenodd;clip-rule:evenodd;fill:#FF008A;stroke:#FF008A;stroke-width:2;stroke-miterlimit:10;}
</style>
<g>
	<path class="st0" d="M46.1,0.5h240.2l6.2,6.2v31.2l0,0H52.4l-6.2-6.2V0.5z"/>
	<path class="st1" d="M46.1,0.5h240.2l6.2,6.2v31.2l0,0H52.4l-6.2-6.2V0.5z"/>
	<path class="st2" d="M83.7,23v-7h1.6l1.5,3.5l0.6,1.5h0c0-0.4-0.1-0.8-0.1-1.2c-0.1-0.5-0.1-0.9-0.1-1.3V16h1.5v7h-1.6l-1.5-3.5
		L85.1,18h0c0,0.4,0.1,0.8,0.1,1.2c0.1,0.4,0.1,0.9,0.1,1.3V23H83.7z M93,23.1c-0.4,0-0.8-0.1-1.2-0.2c-0.4-0.1-0.7-0.3-0.9-0.5
		c-0.3-0.2-0.5-0.5-0.6-0.9S90,20.8,90,20.3s0.1-0.8,0.2-1.2c0.2-0.3,0.4-0.6,0.6-0.9c0.3-0.2,0.6-0.4,0.9-0.5
		c0.3-0.1,0.7-0.2,1-0.2c0.4,0,0.8,0.1,1.1,0.2s0.6,0.3,0.8,0.5c0.2,0.2,0.4,0.5,0.5,0.8c0.1,0.3,0.2,0.6,0.2,1c0,0.1,0,0.3,0,0.4
		c0,0.1,0,0.2,0,0.3h-3.6c0.1,0.4,0.2,0.7,0.5,0.8c0.3,0.2,0.6,0.3,1.1,0.3c0.2,0,0.5,0,0.7-0.1c0.2-0.1,0.4-0.2,0.7-0.3l0.5,1
		c-0.3,0.2-0.6,0.3-1,0.5C93.7,23,93.3,23.1,93,23.1z M92.8,18.7c-0.3,0-0.6,0.1-0.8,0.2c-0.2,0.2-0.4,0.4-0.4,0.7h2.3
		C93.8,19.1,93.4,18.7,92.8,18.7z M96.7,23l-0.9-5.3h1.5l0.3,2.5c0,0.3,0.1,0.5,0.1,0.8c0,0.2,0.1,0.5,0.1,0.8h0
		c0-0.3,0.1-0.5,0.1-0.8c0-0.3,0.1-0.5,0.1-0.8l0.3-1.8h1.1l0.3,1.8c0.1,0.3,0.1,0.5,0.2,0.8c0,0.2,0.1,0.5,0.1,0.8h0
		c0-0.3,0.1-0.5,0.1-0.8c0-0.3,0-0.5,0.1-0.8l0.3-2.5h1.4l-0.8,5.3h-1.8l-0.3-1.7c0-0.2-0.1-0.5-0.1-0.7c0-0.3-0.1-0.5-0.1-0.8h0
		c0,0.2,0,0.5-0.1,0.7c0,0.2-0.1,0.5-0.1,0.9L98.6,23H96.7z M105.4,23.1c-0.5,0-0.9-0.1-1.4-0.2c-0.4-0.2-0.8-0.3-1.2-0.6l0.7-1
		c0.3,0.2,0.7,0.4,1,0.5c0.4,0.1,0.7,0.2,1.1,0.2c0.3,0,0.5,0,0.6-0.1c0.1-0.1,0.2-0.2,0.2-0.3c0-0.1,0-0.1-0.1-0.2
		c0-0.1-0.1-0.1-0.2-0.2c-0.1,0-0.2-0.1-0.4-0.1c-0.2-0.1-0.4-0.1-0.6-0.2c-0.7-0.2-1.2-0.4-1.5-0.6c-0.3-0.3-0.5-0.6-0.5-1
		c0-0.2,0.1-0.5,0.2-0.7c0.1-0.2,0.3-0.4,0.5-0.5c0.2-0.1,0.5-0.3,0.8-0.3c0.3-0.1,0.6-0.1,1-0.1c0.5,0,0.9,0.1,1.3,0.2
		c0.4,0.1,0.7,0.3,1,0.5l-0.7,0.9c-0.3-0.2-0.6-0.3-0.8-0.4c-0.3-0.1-0.6-0.1-0.9-0.1c-0.2,0-0.4,0-0.6,0.1
		c-0.1,0.1-0.2,0.2-0.2,0.3c0,0.2,0.1,0.3,0.3,0.3c0.2,0.1,0.5,0.1,1,0.2c0.4,0.1,0.7,0.2,1,0.3c0.3,0.1,0.5,0.2,0.6,0.4
		c0.2,0.1,0.3,0.3,0.3,0.5c0.1,0.2,0.1,0.4,0.1,0.6c0,0.2-0.1,0.5-0.2,0.7c-0.1,0.2-0.3,0.4-0.5,0.5c-0.2,0.1-0.5,0.3-0.8,0.4
		C106.2,23,105.8,23.1,105.4,23.1z M117.3,23v-4.1h-1.4v-1.2l1.4-0.1v-0.1c0-0.3,0-0.6,0.1-0.8c0.1-0.3,0.2-0.5,0.4-0.7
		c0.2-0.2,0.4-0.4,0.7-0.5c0.3-0.1,0.7-0.2,1.1-0.2c0.3,0,0.6,0,0.8,0.1c0.3,0.1,0.5,0.1,0.8,0.2l-0.3,1.2c-0.4-0.1-0.7-0.2-1.1-0.2
		c-0.3,0-0.6,0.1-0.8,0.2c-0.2,0.1-0.2,0.4-0.2,0.7v0.2h1.8v1.2h-1.8V23H117.3z M122.6,23v-5.3h1.3l0.1,1.1h0c0.3-0.4,0.6-0.7,0.9-1
		c0.4-0.2,0.8-0.3,1.2-0.3c0.2,0,0.4,0,0.6,0c0.1,0,0.3,0.1,0.5,0.2l-0.3,1.3c-0.2-0.1-0.3-0.1-0.4-0.1c-0.1,0-0.3,0-0.5,0
		c-0.3,0-0.6,0.1-1,0.3c-0.3,0.2-0.6,0.5-0.8,1V23H122.6z M131,23.1c-0.4,0-0.7-0.1-1-0.2s-0.6-0.3-0.9-0.5
		c-0.2-0.2-0.5-0.5-0.6-0.9c-0.1-0.3-0.2-0.7-0.2-1.2s0.1-0.8,0.2-1.2c0.2-0.4,0.4-0.6,0.6-0.9c0.2-0.2,0.5-0.4,0.9-0.5
		c0.3-0.1,0.7-0.2,1-0.2c0.3,0,0.7,0.1,1,0.2c0.3,0.1,0.6,0.3,0.9,0.5c0.3,0.2,0.5,0.5,0.6,0.9c0.1,0.3,0.2,0.7,0.2,1.2
		s-0.1,0.8-0.2,1.2s-0.3,0.6-0.6,0.9c-0.2,0.2-0.5,0.4-0.9,0.5S131.3,23.1,131,23.1z M131,21.8c0.4,0,0.6-0.1,0.8-0.4
		c0.2-0.3,0.3-0.6,0.3-1.1c0-0.5-0.1-0.8-0.3-1.1c-0.2-0.3-0.4-0.4-0.8-0.4c-0.4,0-0.6,0.1-0.8,0.4c-0.2,0.3-0.3,0.6-0.3,1.1
		c0,0.5,0.1,0.8,0.3,1.1C130.4,21.7,130.6,21.8,131,21.8z M134.6,23v-5.3h1.2l0.1,0.6h0c0.1-0.2,0.2-0.4,0.4-0.5
		c0.2-0.2,0.4-0.2,0.7-0.2c0.2,0,0.4,0.1,0.6,0.2c0.2,0.1,0.3,0.4,0.3,0.6c0.1-0.2,0.2-0.4,0.4-0.6c0.2-0.2,0.4-0.2,0.8-0.2
		c0.4,0,0.7,0.2,0.9,0.5c0.2,0.3,0.3,0.7,0.3,1.2V23h-1.5v-3.6c0-0.2,0-0.3-0.1-0.3c0-0.1-0.1-0.1-0.2-0.1c-0.1,0-0.2,0-0.3,0.1
		c-0.1,0.1-0.1,0.2-0.2,0.4V23h-1.2v-3.6c0-0.3-0.1-0.5-0.3-0.5c-0.1,0-0.2,0-0.2,0.1c-0.1,0.1-0.1,0.2-0.2,0.4V23H134.6z
		 M147.7,24.9v-7.2h1.3l0.1,0.5h0c0.2-0.2,0.5-0.4,0.7-0.5c0.3-0.1,0.6-0.2,0.8-0.2c0.3,0,0.6,0.1,0.9,0.2c0.3,0.1,0.5,0.3,0.7,0.5
		c0.2,0.2,0.3,0.5,0.4,0.8c0.1,0.3,0.1,0.7,0.1,1.1c0,0.5-0.1,0.9-0.2,1.2c-0.1,0.4-0.3,0.7-0.5,0.9c-0.2,0.2-0.5,0.4-0.7,0.5
		c-0.3,0.1-0.6,0.2-0.8,0.2c-0.5,0-0.9-0.2-1.3-0.6h0l0.1,0.9v1.5H147.7z M150.2,21.8c0.3,0,0.6-0.1,0.8-0.4
		c0.2-0.2,0.3-0.6,0.3-1.2c0-1-0.3-1.4-1-1.4c-0.3,0-0.7,0.2-1,0.5v2.1c0.2,0.1,0.3,0.2,0.5,0.3C149.9,21.8,150.1,21.8,150.2,21.8z
		 M154.6,23v-5.3h1.3l0.1,1.1h0c0.3-0.4,0.6-0.7,0.9-1c0.4-0.2,0.8-0.3,1.2-0.3c0.2,0,0.4,0,0.6,0s0.3,0.1,0.5,0.2l-0.3,1.3
		c-0.2-0.1-0.3-0.1-0.4-0.1c-0.1,0-0.3,0-0.5,0c-0.3,0-0.6,0.1-1,0.3c-0.3,0.2-0.6,0.5-0.8,1V23H154.6z M162.7,23v-4.1h-2.1v-1.2
		h3.7V23H162.7z M163,16.9c-0.3,0-0.6-0.1-0.8-0.2c-0.2-0.2-0.3-0.4-0.3-0.7c0-0.3,0.1-0.5,0.3-0.7c0.2-0.2,0.5-0.3,0.8-0.3
		c0.3,0,0.5,0.1,0.7,0.3c0.2,0.2,0.3,0.4,0.3,0.7c0,0.3-0.1,0.5-0.3,0.7C163.5,16.8,163.3,16.9,163,16.9z M170.3,23.1
		c-0.4,0-0.8-0.1-1.1-0.2c-0.3-0.1-0.5-0.3-0.7-0.5c-0.2-0.2-0.3-0.5-0.4-0.7c-0.1-0.3-0.1-0.6-0.1-0.9v-1.9h-1.3v-1.2l1.4-0.1
		l0.2-1.6h1.3v1.6h2.2v1.2h-2.2v1.9c0,0.4,0.1,0.7,0.3,0.9c0.2,0.2,0.5,0.2,0.9,0.2c0.2,0,0.4,0,0.5,0c0.2,0,0.3-0.1,0.5-0.2
		l0.3,1.1c-0.2,0.1-0.5,0.1-0.8,0.2C171,23.1,170.7,23.1,170.3,23.1z M179.3,23v-5.3h1.2l0.1,0.6h0c0.1-0.2,0.2-0.4,0.4-0.5
		c0.2-0.2,0.4-0.2,0.7-0.2c0.2,0,0.4,0.1,0.6,0.2c0.2,0.1,0.3,0.4,0.3,0.6c0.1-0.2,0.2-0.4,0.4-0.6c0.2-0.2,0.4-0.2,0.8-0.2
		c0.4,0,0.7,0.2,0.9,0.5c0.2,0.3,0.3,0.7,0.3,1.2V23h-1.5v-3.6c0-0.2,0-0.3-0.1-0.3c0-0.1-0.1-0.1-0.2-0.1s-0.2,0-0.3,0.1
		c-0.1,0.1-0.1,0.2-0.2,0.4V23h-1.2v-3.6c0-0.3-0.1-0.5-0.3-0.5c-0.1,0-0.2,0-0.2,0.1c-0.1,0.1-0.1,0.2-0.2,0.4V23H179.3z
		 M188.9,23.1c-0.4,0-0.8-0.1-1.2-0.2c-0.4-0.1-0.7-0.3-0.9-0.5c-0.3-0.2-0.5-0.5-0.6-0.9c-0.1-0.3-0.2-0.7-0.2-1.2s0.1-0.8,0.2-1.2
		c0.2-0.3,0.4-0.6,0.6-0.9c0.3-0.2,0.6-0.4,0.9-0.5c0.3-0.1,0.7-0.2,1-0.2c0.4,0,0.8,0.1,1.1,0.2s0.6,0.3,0.8,0.5
		c0.2,0.2,0.4,0.5,0.5,0.8c0.1,0.3,0.2,0.6,0.2,1c0,0.1,0,0.3,0,0.4c0,0.1,0,0.2,0,0.3h-3.6c0.1,0.4,0.2,0.7,0.5,0.8
		c0.3,0.2,0.6,0.3,1.1,0.3c0.2,0,0.5,0,0.7-0.1c0.2-0.1,0.4-0.2,0.7-0.3l0.5,1c-0.3,0.2-0.6,0.3-1,0.5
		C189.6,23,189.2,23.1,188.9,23.1z M188.7,18.7c-0.3,0-0.6,0.1-0.8,0.2c-0.2,0.2-0.4,0.4-0.4,0.7h2.3
		C189.7,19.1,189.4,18.7,188.7,18.7z M194.5,23.1c-0.3,0-0.6-0.1-0.9-0.2c-0.3-0.1-0.5-0.3-0.7-0.5c-0.2-0.2-0.3-0.5-0.5-0.9
		c-0.1-0.3-0.2-0.7-0.2-1.2c0-0.4,0.1-0.8,0.2-1.2c0.1-0.3,0.3-0.6,0.5-0.9c0.2-0.2,0.4-0.4,0.7-0.5c0.3-0.1,0.6-0.2,0.8-0.2
		c0.3,0,0.5,0,0.8,0.1c0.2,0.1,0.4,0.2,0.6,0.4h0l-0.1-0.8v-1.8h1.6V23h-1.3l-0.1-0.5h0c-0.2,0.2-0.4,0.4-0.7,0.5
		C195,23,194.7,23.1,194.5,23.1z M194.9,21.8c0.2,0,0.3,0,0.5-0.1c0.1-0.1,0.3-0.2,0.4-0.4v-2.1c-0.1-0.1-0.3-0.2-0.4-0.3
		c-0.1-0.1-0.3-0.1-0.5-0.1c-0.3,0-0.5,0.1-0.8,0.4c-0.2,0.2-0.3,0.6-0.3,1.1c0,0.5,0.1,0.9,0.3,1.2
		C194.3,21.7,194.5,21.8,194.9,21.8z M201.1,23v-4.1H199v-1.2h3.7V23H201.1z M201.3,16.9c-0.3,0-0.6-0.1-0.8-0.2
		c-0.2-0.2-0.3-0.4-0.3-0.7c0-0.3,0.1-0.5,0.3-0.7c0.2-0.2,0.5-0.3,0.8-0.3c0.3,0,0.5,0.1,0.7,0.3c0.2,0.2,0.3,0.4,0.3,0.7
		c0,0.3-0.1,0.5-0.3,0.7C201.9,16.8,201.6,16.9,201.3,16.9z M206.9,23.1c-0.3,0-0.5,0-0.7-0.1c-0.2-0.1-0.4-0.2-0.5-0.3
		c-0.1-0.1-0.3-0.3-0.3-0.5c-0.1-0.2-0.1-0.4-0.1-0.6c0-0.3,0.1-0.6,0.2-0.8c0.1-0.2,0.3-0.4,0.6-0.6s0.6-0.3,1.1-0.4
		c0.4-0.1,1-0.2,1.6-0.2c0-0.2-0.1-0.4-0.3-0.6c-0.2-0.1-0.4-0.2-0.8-0.2c-0.2,0-0.5,0-0.8,0.1c-0.3,0.1-0.5,0.2-0.8,0.4l-0.5-1
		c0.4-0.2,0.8-0.4,1.2-0.5c0.4-0.1,0.9-0.2,1.3-0.2c0.7,0,1.3,0.2,1.8,0.6c0.4,0.4,0.6,1,0.6,1.8v3h-1.3l-0.1-0.6h0
		c-0.3,0.2-0.6,0.4-0.9,0.5C207.6,23,207.3,23.1,206.9,23.1z M207.4,21.9c0.2,0,0.4,0,0.7-0.1s0.4-0.2,0.6-0.4v-0.9
		c-0.4,0-0.7,0.1-1,0.1c-0.2,0-0.5,0.1-0.6,0.2c-0.1,0.1-0.2,0.2-0.3,0.3c-0.1,0.1-0.1,0.2-0.1,0.3c0,0.2,0.1,0.3,0.2,0.4
		C207,21.8,207.2,21.9,207.4,21.9z M220.5,23.1c-0.4,0-0.7-0.1-1-0.2c-0.3-0.1-0.6-0.3-0.9-0.5c-0.2-0.2-0.5-0.5-0.6-0.9
		c-0.1-0.3-0.2-0.7-0.2-1.2c0-0.4,0.1-0.8,0.2-1.2c0.2-0.4,0.4-0.6,0.6-0.9c0.3-0.2,0.5-0.4,0.9-0.5c0.3-0.1,0.7-0.2,1-0.2
		c0.3,0,0.7,0.1,1,0.2c0.3,0.1,0.6,0.3,0.9,0.5c0.3,0.2,0.5,0.5,0.6,0.9c0.1,0.3,0.2,0.7,0.2,1.2s-0.1,0.8-0.2,1.2
		c-0.1,0.3-0.3,0.6-0.6,0.9c-0.2,0.2-0.5,0.4-0.9,0.5C221.2,23,220.9,23.1,220.5,23.1z M220.5,21.8c0.4,0,0.6-0.1,0.8-0.4
		c0.2-0.3,0.3-0.6,0.3-1.1c0-0.5-0.1-0.8-0.3-1.1c-0.2-0.3-0.4-0.4-0.8-0.4c-0.4,0-0.6,0.1-0.8,0.4c-0.2,0.3-0.3,0.6-0.3,1.1
		c0,0.5,0.1,0.8,0.3,1.1C219.9,21.7,220.2,21.8,220.5,21.8z M224.9,23v-5.3h1.3l0.1,1.1h0c0.3-0.4,0.6-0.7,0.9-1
		c0.4-0.2,0.8-0.3,1.2-0.3c0.2,0,0.4,0,0.6,0s0.3,0.1,0.5,0.2l-0.3,1.3c-0.2-0.1-0.3-0.1-0.4-0.1c-0.1,0-0.3,0-0.5,0
		c-0.3,0-0.6,0.1-1,0.3c-0.3,0.2-0.6,0.5-0.8,1V23H224.9z M237.4,23l-0.9-5.3h1.5l0.3,2.5c0,0.3,0.1,0.5,0.1,0.8
		c0,0.2,0.1,0.5,0.1,0.8h0c0-0.3,0.1-0.5,0.1-0.8c0-0.3,0.1-0.5,0.1-0.8l0.3-1.8h1.1l0.3,1.8c0.1,0.3,0.1,0.5,0.2,0.8
		c0,0.2,0.1,0.5,0.1,0.8h0c0-0.3,0.1-0.5,0.1-0.8c0-0.3,0-0.5,0.1-0.8l0.3-2.5h1.4L242,23h-1.8l-0.3-1.7c0-0.2-0.1-0.5-0.1-0.7
		c0-0.3-0.1-0.5-0.1-0.8h0c0,0.2,0,0.5-0.1,0.7c0,0.2-0.1,0.5-0.1,0.9l-0.3,1.7H237.4z M246.4,23.1c-0.4,0-0.8-0.1-1.2-0.2
		c-0.4-0.1-0.7-0.3-0.9-0.5c-0.3-0.2-0.5-0.5-0.6-0.9c-0.1-0.3-0.2-0.7-0.2-1.2s0.1-0.8,0.2-1.2c0.2-0.3,0.4-0.6,0.6-0.9
		c0.3-0.2,0.6-0.4,0.9-0.5c0.3-0.1,0.7-0.2,1-0.2c0.4,0,0.8,0.1,1.1,0.2s0.6,0.3,0.8,0.5c0.2,0.2,0.4,0.5,0.5,0.8
		c0.1,0.3,0.2,0.6,0.2,1c0,0.1,0,0.3,0,0.4c0,0.1,0,0.2,0,0.3H245c0.1,0.4,0.2,0.7,0.5,0.8c0.3,0.2,0.6,0.3,1.1,0.3
		c0.2,0,0.5,0,0.7-0.1c0.2-0.1,0.4-0.2,0.7-0.3l0.5,1c-0.3,0.2-0.6,0.3-1,0.5C247.1,23,246.8,23.1,246.4,23.1z M246.3,18.7
		c-0.3,0-0.6,0.1-0.8,0.2c-0.2,0.2-0.4,0.4-0.4,0.7h2.3C247.2,19.1,246.9,18.7,246.3,18.7z M252.9,23.1c-0.2,0-0.5-0.1-0.8-0.2
		c-0.2-0.1-0.5-0.3-0.7-0.5h0l-0.1,0.6h-1.2v-7.5h1.6v1.8l0,0.8h0c0.2-0.2,0.4-0.3,0.7-0.4c0.3-0.1,0.5-0.2,0.8-0.2
		c0.3,0,0.6,0.1,0.9,0.2c0.3,0.1,0.5,0.3,0.7,0.5c0.2,0.2,0.3,0.5,0.4,0.8c0.1,0.3,0.2,0.7,0.2,1.1c0,0.4-0.1,0.9-0.2,1.2
		c-0.1,0.4-0.3,0.7-0.5,0.9c-0.2,0.2-0.5,0.4-0.7,0.5C253.5,23,253.2,23.1,252.9,23.1z M252.5,21.8c0.3,0,0.5-0.1,0.7-0.4
		c0.2-0.2,0.3-0.6,0.3-1.2c0-1-0.3-1.4-1-1.4c-0.3,0-0.7,0.2-1,0.5v2.1c0.2,0.1,0.3,0.2,0.5,0.3C252.2,21.8,252.4,21.8,252.5,21.8z"
		/>
	<path class="st3" d="M192,88.9h140.2l6.2,6.2v31.2l0,0H198.2l-6.2-6.2V88.9z"/>
	<path class="st1" d="M192,88.9h140.2l6.2,6.2v31.2l0,0H198.2l-6.2-6.2V88.9z"/>
	<path class="st2" d="M243.8,104.9l-0.9-7h1.6l0.2,3.7c0,0.3,0,0.6,0,0.9c0,0.3,0,0.6,0,0.9h0c0.1-0.3,0.1-0.6,0.2-0.9
		c0.1-0.3,0.1-0.6,0.2-0.9l0.5-1.9h1l0.4,1.9c0.1,0.3,0.1,0.6,0.2,0.9c0.1,0.3,0.1,0.6,0.2,0.9h0c0-0.3,0-0.6,0-0.9
		c0-0.3,0-0.6,0-0.9l0.2-3.7h1.5l-0.8,7h-1.7l-0.4-2.2c0-0.2-0.1-0.4-0.1-0.7c0-0.2-0.1-0.4-0.1-0.6h0c0,0.2,0,0.4-0.1,0.6
		c0,0.2-0.1,0.5-0.1,0.7l-0.4,2.2H243.8z M252.7,105c-0.4,0-0.8-0.1-1.2-0.2c-0.4-0.1-0.7-0.3-0.9-0.5c-0.3-0.2-0.5-0.5-0.6-0.9
		s-0.2-0.7-0.2-1.2s0.1-0.8,0.2-1.2c0.2-0.3,0.4-0.6,0.6-0.9c0.3-0.2,0.6-0.4,0.9-0.5c0.3-0.1,0.7-0.2,1-0.2c0.4,0,0.8,0.1,1.1,0.2
		s0.6,0.3,0.8,0.5c0.2,0.2,0.4,0.5,0.5,0.8c0.1,0.3,0.2,0.6,0.2,1c0,0.1,0,0.3,0,0.4c0,0.1,0,0.2,0,0.3h-3.6
		c0.1,0.4,0.2,0.7,0.5,0.8c0.3,0.2,0.6,0.3,1.1,0.3c0.2,0,0.5,0,0.7-0.1c0.2-0.1,0.4-0.2,0.7-0.3l0.5,1c-0.3,0.2-0.6,0.3-1,0.5
		C253.4,105,253.1,105,252.7,105z M252.6,100.7c-0.3,0-0.6,0.1-0.8,0.2c-0.2,0.2-0.4,0.4-0.4,0.7h2.3
		C253.6,101,253.2,100.7,252.6,100.7z M259.2,105c-0.2,0-0.5-0.1-0.8-0.2c-0.2-0.1-0.5-0.3-0.7-0.5h0l-0.1,0.6h-1.2v-7.5h1.6v1.8
		l0,0.8h0c0.2-0.2,0.4-0.3,0.7-0.4c0.3-0.1,0.5-0.2,0.8-0.2c0.3,0,0.6,0.1,0.9,0.2c0.3,0.1,0.5,0.3,0.7,0.5c0.2,0.2,0.3,0.5,0.4,0.8
		c0.1,0.3,0.2,0.7,0.2,1.1c0,0.4-0.1,0.9-0.2,1.2c-0.1,0.4-0.3,0.7-0.5,0.9c-0.2,0.2-0.5,0.4-0.7,0.5C259.8,105,259.5,105,259.2,105
		z M258.9,103.7c0.3,0,0.5-0.1,0.7-0.4c0.2-0.2,0.3-0.6,0.3-1.2c0-1-0.3-1.4-1-1.4c-0.3,0-0.7,0.2-1,0.5v2.1
		c0.2,0.1,0.3,0.2,0.5,0.3C258.6,103.7,258.7,103.7,258.9,103.7z M264.3,104.9l-2-5.3h1.6l0.8,2.5c0.1,0.3,0.2,0.5,0.2,0.8
		c0.1,0.3,0.2,0.5,0.2,0.8h0c0.1-0.3,0.1-0.6,0.2-0.8c0.1-0.3,0.2-0.5,0.2-0.8l0.8-2.5h1.5l-1.9,5.3H264.3z M271.4,104.9v-4.1h-2.1
		v-1.2h3.7v5.3H271.4z M271.6,98.8c-0.3,0-0.6-0.1-0.8-0.2c-0.2-0.2-0.3-0.4-0.3-0.7c0-0.3,0.1-0.5,0.3-0.7c0.2-0.2,0.5-0.3,0.8-0.3
		c0.3,0,0.5,0.1,0.7,0.3c0.2,0.2,0.3,0.4,0.3,0.7c0,0.3-0.1,0.5-0.3,0.7C272.1,98.7,271.9,98.8,271.6,98.8z M278.3,105
		c-0.4,0-0.8-0.1-1.2-0.2c-0.4-0.1-0.7-0.3-0.9-0.5c-0.3-0.2-0.5-0.5-0.6-0.9s-0.2-0.7-0.2-1.2s0.1-0.8,0.2-1.2
		c0.2-0.3,0.4-0.6,0.6-0.9c0.3-0.2,0.6-0.4,0.9-0.5c0.3-0.1,0.7-0.2,1-0.2c0.4,0,0.8,0.1,1.1,0.2s0.6,0.3,0.8,0.5
		c0.2,0.2,0.4,0.5,0.5,0.8c0.1,0.3,0.2,0.6,0.2,1c0,0.1,0,0.3,0,0.4c0,0.1,0,0.2,0,0.3h-3.6c0.1,0.4,0.2,0.7,0.5,0.8
		c0.3,0.2,0.6,0.3,1.1,0.3c0.2,0,0.5,0,0.7-0.1c0.2-0.1,0.4-0.2,0.7-0.3l0.5,1c-0.3,0.2-0.6,0.3-1,0.5C279,105,278.7,105,278.3,105z
		 M278.2,100.7c-0.3,0-0.6,0.1-0.8,0.2c-0.2,0.2-0.4,0.4-0.4,0.7h2.3C279.1,101,278.8,100.7,278.2,100.7z M282.1,104.9l-0.9-5.3h1.5
		l0.3,2.5c0,0.3,0.1,0.5,0.1,0.8c0,0.2,0.1,0.5,0.1,0.8h0c0-0.3,0.1-0.5,0.1-0.8c0-0.3,0.1-0.5,0.1-0.8l0.3-1.8h1.1l0.3,1.8
		c0.1,0.3,0.1,0.5,0.2,0.8c0,0.2,0.1,0.5,0.1,0.8h0c0-0.3,0.1-0.5,0.1-0.8c0-0.3,0-0.5,0.1-0.8l0.3-2.5h1.4l-0.8,5.3h-1.8l-0.3-1.7
		c0-0.2-0.1-0.5-0.1-0.7c0-0.3-0.1-0.5-0.1-0.8h0c0,0.2,0,0.5-0.1,0.7c0,0.2-0.1,0.5-0.1,0.9l-0.3,1.7H282.1z"/>
	<path class="st2" d="M221.4,119.8c-0.7-0.6-1.2-1.3-1.6-2.1s-0.6-1.7-0.6-2.7c0-1,0.2-1.9,0.6-2.7s1-1.5,1.6-2.1l0.9,0.7
		c-0.6,0.6-1.1,1.3-1.4,1.9c-0.3,0.7-0.4,1.4-0.4,2.2c0,0.4,0,0.8,0.1,1.2c0.1,0.4,0.2,0.7,0.3,1.1s0.3,0.7,0.6,1s0.5,0.6,0.8,0.9
		L221.4,119.8z M227.3,118c-0.4,0-0.8-0.1-1.2-0.2c-0.4-0.1-0.7-0.3-0.9-0.5c-0.3-0.2-0.5-0.5-0.6-0.9s-0.2-0.7-0.2-1.2
		s0.1-0.8,0.2-1.2c0.2-0.4,0.4-0.6,0.7-0.9c0.3-0.2,0.6-0.4,1-0.5c0.4-0.1,0.8-0.2,1.2-0.2c0.4,0,0.8,0.1,1.1,0.2
		c0.3,0.1,0.6,0.3,0.8,0.5l-0.7,1c-0.4-0.3-0.8-0.4-1.2-0.4c-0.5,0-0.8,0.1-1.1,0.4c-0.3,0.3-0.4,0.6-0.4,1.1c0,0.5,0.1,0.8,0.4,1.1
		c0.3,0.3,0.6,0.4,1.1,0.4c0.3,0,0.5,0,0.8-0.1c0.2-0.1,0.4-0.2,0.6-0.4l0.6,1c-0.3,0.3-0.7,0.5-1.1,0.6
		C228,118,227.7,118,227.3,118z M232.4,118c-0.3,0-0.5,0-0.7-0.1c-0.2-0.1-0.4-0.2-0.5-0.3c-0.1-0.1-0.3-0.3-0.3-0.5
		c-0.1-0.2-0.1-0.4-0.1-0.6c0-0.3,0.1-0.6,0.2-0.8c0.1-0.2,0.3-0.4,0.6-0.6s0.6-0.3,1.1-0.4c0.4-0.1,1-0.2,1.6-0.2
		c0-0.2-0.1-0.4-0.3-0.6c-0.2-0.1-0.4-0.2-0.8-0.2c-0.2,0-0.5,0-0.8,0.1c-0.3,0.1-0.5,0.2-0.8,0.4l-0.5-1c0.4-0.2,0.8-0.4,1.2-0.5
		c0.4-0.1,0.9-0.2,1.3-0.2c0.7,0,1.3,0.2,1.8,0.6c0.4,0.4,0.6,1,0.6,1.8v3h-1.3l-0.1-0.6h0c-0.3,0.2-0.6,0.4-0.9,0.5
		C233.1,118,232.8,118,232.4,118z M232.9,116.8c0.2,0,0.4,0,0.7-0.1c0.2-0.1,0.4-0.2,0.6-0.4v-0.9c-0.4,0-0.7,0.1-1,0.1
		c-0.2,0-0.5,0.1-0.6,0.2c-0.1,0.1-0.2,0.2-0.3,0.3c-0.1,0.1-0.1,0.2-0.1,0.3c0,0.2,0.1,0.3,0.2,0.4
		C232.5,116.8,232.7,116.8,232.9,116.8z M236.8,117.9v-5.3h1.2l0.1,0.6h0c0.1-0.2,0.2-0.4,0.4-0.5c0.2-0.2,0.4-0.2,0.7-0.2
		c0.2,0,0.4,0.1,0.6,0.2c0.2,0.1,0.3,0.4,0.3,0.6c0.1-0.2,0.2-0.4,0.4-0.6c0.2-0.2,0.4-0.2,0.8-0.2c0.4,0,0.7,0.2,0.9,0.5
		c0.2,0.3,0.3,0.7,0.3,1.2v3.7h-1.5v-3.6c0-0.2,0-0.3-0.1-0.3c0-0.1-0.1-0.1-0.2-0.1c-0.1,0-0.2,0-0.3,0.1c-0.1,0.1-0.1,0.2-0.2,0.4
		v3.6h-1.2v-3.6c0-0.3-0.1-0.5-0.3-0.5c-0.1,0-0.2,0-0.2,0.1c-0.1,0.1-0.1,0.2-0.2,0.4v3.6H236.8z M246.3,118
		c-0.4,0-0.8-0.1-1.2-0.2c-0.4-0.1-0.7-0.3-0.9-0.5c-0.3-0.2-0.5-0.5-0.6-0.9s-0.2-0.7-0.2-1.2s0.1-0.8,0.2-1.2
		c0.2-0.3,0.4-0.6,0.6-0.9c0.3-0.2,0.6-0.4,0.9-0.5c0.3-0.1,0.7-0.2,1-0.2c0.4,0,0.8,0.1,1.1,0.2s0.6,0.3,0.8,0.5
		c0.2,0.2,0.4,0.5,0.5,0.8c0.1,0.3,0.2,0.6,0.2,1c0,0.1,0,0.3,0,0.4c0,0.1,0,0.2,0,0.3H245c0.1,0.4,0.2,0.7,0.5,0.8
		c0.3,0.2,0.6,0.3,1.1,0.3c0.2,0,0.5,0,0.7-0.1c0.2-0.1,0.4-0.2,0.7-0.3l0.5,1c-0.3,0.2-0.6,0.3-1,0.5
		C247.1,118,246.7,118,246.3,118z M246.2,113.7c-0.3,0-0.6,0.1-0.8,0.2c-0.2,0.2-0.4,0.4-0.4,0.7h2.3
		C247.2,114,246.8,113.7,246.2,113.7z M250.5,117.9v-5.3h1.3l0.1,1.1h0c0.3-0.4,0.6-0.7,0.9-1c0.4-0.2,0.8-0.3,1.2-0.3
		c0.2,0,0.4,0,0.6,0s0.3,0.1,0.5,0.2l-0.3,1.3c-0.2-0.1-0.3-0.1-0.4-0.1c-0.1,0-0.3,0-0.5,0c-0.3,0-0.6,0.1-1,0.3
		c-0.3,0.2-0.6,0.5-0.8,1v2.8H250.5z M258,118c-0.3,0-0.5,0-0.7-0.1c-0.2-0.1-0.4-0.2-0.5-0.3c-0.1-0.1-0.3-0.3-0.3-0.5
		c-0.1-0.2-0.1-0.4-0.1-0.6c0-0.3,0.1-0.6,0.2-0.8c0.1-0.2,0.3-0.4,0.6-0.6s0.6-0.3,1.1-0.4c0.4-0.1,1-0.2,1.6-0.2
		c0-0.2-0.1-0.4-0.3-0.6c-0.2-0.1-0.4-0.2-0.8-0.2c-0.2,0-0.5,0-0.8,0.1c-0.3,0.1-0.5,0.2-0.8,0.4l-0.5-1c0.4-0.2,0.8-0.4,1.2-0.5
		c0.4-0.1,0.9-0.2,1.3-0.2c0.7,0,1.3,0.2,1.8,0.6c0.4,0.4,0.6,1,0.6,1.8v3H260l-0.1-0.6h0c-0.3,0.2-0.6,0.4-0.9,0.5
		C258.7,118,258.3,118,258,118z M258.5,116.8c0.2,0,0.4,0,0.7-0.1c0.2-0.1,0.4-0.2,0.6-0.4v-0.9c-0.4,0-0.7,0.1-1,0.1
		c-0.2,0-0.5,0.1-0.6,0.2c-0.1,0.1-0.2,0.2-0.3,0.3c-0.1,0.1-0.1,0.2-0.1,0.3c0,0.2,0.1,0.3,0.2,0.4
		C258.1,116.8,258.3,116.8,258.5,116.8z M271.9,118c-0.4,0-0.8-0.1-1.2-0.2c-0.4-0.1-0.7-0.3-0.9-0.5c-0.3-0.2-0.5-0.5-0.6-0.9
		s-0.2-0.7-0.2-1.2s0.1-0.8,0.2-1.2c0.2-0.3,0.4-0.6,0.6-0.9c0.3-0.2,0.6-0.4,0.9-0.5c0.3-0.1,0.7-0.2,1-0.2c0.4,0,0.8,0.1,1.1,0.2
		s0.6,0.3,0.8,0.5c0.2,0.2,0.4,0.5,0.5,0.8c0.1,0.3,0.2,0.6,0.2,1c0,0.1,0,0.3,0,0.4c0,0.1,0,0.2,0,0.3h-3.6
		c0.1,0.4,0.2,0.7,0.5,0.8c0.3,0.2,0.6,0.3,1.1,0.3c0.2,0,0.5,0,0.7-0.1c0.2-0.1,0.4-0.2,0.7-0.3l0.5,1c-0.3,0.2-0.6,0.3-1,0.5
		C272.6,118,272.3,118,271.9,118z M271.8,113.7c-0.3,0-0.6,0.1-0.8,0.2c-0.2,0.2-0.4,0.4-0.4,0.7h2.3
		C272.8,114,272.4,113.7,271.8,113.7z M275.6,117.9v-5.3h1.3l0.1,0.7h0c0.2-0.2,0.5-0.4,0.8-0.6c0.3-0.2,0.7-0.2,1-0.2
		c0.6,0,1,0.2,1.3,0.6c0.3,0.4,0.4,0.9,0.4,1.6v3.3H279v-3.1c0-0.4-0.1-0.6-0.2-0.8c-0.1-0.2-0.3-0.2-0.6-0.2c-0.2,0-0.4,0-0.6,0.1
		c-0.2,0.1-0.3,0.2-0.5,0.4v3.5H275.6z M283.6,118c-0.3,0-0.5,0-0.7-0.1c-0.2-0.1-0.4-0.2-0.5-0.3c-0.1-0.1-0.3-0.3-0.3-0.5
		c-0.1-0.2-0.1-0.4-0.1-0.6c0-0.3,0.1-0.6,0.2-0.8c0.1-0.2,0.3-0.4,0.6-0.6s0.6-0.3,1.1-0.4c0.4-0.1,1-0.2,1.6-0.2
		c0-0.2-0.1-0.4-0.3-0.6c-0.2-0.1-0.4-0.2-0.8-0.2c-0.2,0-0.5,0-0.8,0.1c-0.3,0.1-0.5,0.2-0.8,0.4l-0.5-1c0.4-0.2,0.8-0.4,1.2-0.5
		c0.4-0.1,0.9-0.2,1.3-0.2c0.7,0,1.3,0.2,1.8,0.6c0.4,0.4,0.6,1,0.6,1.8v3h-1.3l-0.1-0.6h0c-0.3,0.2-0.6,0.4-0.9,0.5
		C284.2,118,283.9,118,283.6,118z M284.1,116.8c0.2,0,0.4,0,0.7-0.1c0.2-0.1,0.4-0.2,0.6-0.4v-0.9c-0.4,0-0.7,0.1-1,0.1
		c-0.2,0-0.5,0.1-0.6,0.2c-0.1,0.1-0.2,0.2-0.3,0.3c-0.1,0.1-0.1,0.2-0.1,0.3c0,0.2,0.1,0.3,0.2,0.4
		C283.7,116.8,283.8,116.8,284.1,116.8z M291.2,118c-0.2,0-0.5-0.1-0.8-0.2c-0.2-0.1-0.5-0.3-0.7-0.5h0l-0.1,0.6h-1.2v-7.5h1.6v1.8
		l0,0.8h0c0.2-0.2,0.4-0.3,0.7-0.4c0.3-0.1,0.5-0.2,0.8-0.2c0.3,0,0.6,0.1,0.9,0.2c0.3,0.1,0.5,0.3,0.7,0.5c0.2,0.2,0.3,0.5,0.4,0.8
		c0.1,0.3,0.2,0.7,0.2,1.1c0,0.4-0.1,0.9-0.2,1.2c-0.1,0.4-0.3,0.7-0.5,0.9c-0.2,0.2-0.5,0.4-0.7,0.5C291.8,118,291.5,118,291.2,118
		z M290.8,116.7c0.3,0,0.5-0.1,0.7-0.4c0.2-0.2,0.3-0.6,0.3-1.2c0-1-0.3-1.4-1-1.4c-0.3,0-0.7,0.2-1,0.5v2.1
		c0.2,0.1,0.3,0.2,0.5,0.3C290.5,116.7,290.7,116.7,290.8,116.7z M298.2,118c-0.7,0-1.2-0.2-1.5-0.6c-0.3-0.4-0.5-0.9-0.5-1.6v-4.2
		h-1.7v-1.2h3.2v5.5c0,0.2,0,0.3,0.1,0.4c0.1,0.1,0.1,0.2,0.2,0.3c0.1,0.1,0.2,0.1,0.3,0.1c0.1,0,0.2,0,0.3,0c0.1,0,0.2,0,0.4,0
		c0.1,0,0.3-0.1,0.5-0.1l0.3,1.2c-0.1,0-0.3,0.1-0.4,0.1c-0.1,0-0.2,0.1-0.4,0.1c-0.1,0-0.2,0-0.4,0C298.5,118,298.3,118,298.2,118z
		 M303.9,118c-0.4,0-0.8-0.1-1.2-0.2c-0.4-0.1-0.7-0.3-0.9-0.5c-0.3-0.2-0.5-0.5-0.6-0.9s-0.2-0.7-0.2-1.2s0.1-0.8,0.2-1.2
		c0.2-0.3,0.4-0.6,0.6-0.9c0.3-0.2,0.6-0.4,0.9-0.5c0.3-0.1,0.7-0.2,1-0.2c0.4,0,0.8,0.1,1.1,0.2s0.6,0.3,0.8,0.5
		c0.2,0.2,0.4,0.5,0.5,0.8c0.1,0.3,0.2,0.6,0.2,1c0,0.1,0,0.3,0,0.4c0,0.1,0,0.2,0,0.3h-3.6c0.1,0.4,0.2,0.7,0.5,0.8
		c0.3,0.2,0.6,0.3,1.1,0.3c0.2,0,0.5,0,0.7-0.1c0.2-0.1,0.4-0.2,0.7-0.3l0.5,1c-0.3,0.2-0.6,0.3-1,0.5
		C304.6,118,304.2,118,303.9,118z M303.8,113.7c-0.3,0-0.6,0.1-0.8,0.2c-0.2,0.2-0.4,0.4-0.4,0.7h2.3
		C304.7,114,304.4,113.7,303.8,113.7z M309,119.8l-0.9-0.7c0.3-0.3,0.6-0.6,0.8-0.9c0.2-0.3,0.4-0.6,0.6-1c0.1-0.3,0.3-0.7,0.3-1.1
		c0.1-0.4,0.1-0.8,0.1-1.2c0-0.8-0.1-1.6-0.4-2.2c-0.3-0.7-0.7-1.3-1.4-1.9l0.9-0.7c0.7,0.6,1.2,1.3,1.6,2.1
		c0.4,0.8,0.6,1.7,0.6,2.7c0,1-0.2,1.9-0.6,2.7C310.2,118.5,309.7,119.2,309,119.8z"/>
	<path class="st3" d="M0.5,88.9h140.2l6.2,6.2v31.2l0,0H6.7l-6.2-6.2C0.5,120.1,0.5,88.9,0.5,88.9z"/>
	<path class="st1" d="M0.5,88.9h140.2l6.2,6.2v31.2l0,0H6.7l-6.2-6.2C0.5,120.1,0.5,88.9,0.5,88.9z"/>
	<path class="st2" d="M41.2,107.9l-0.2,0.6h1.5l-0.2-0.6c-0.1-0.3-0.2-0.7-0.3-1.1c-0.1-0.4-0.2-0.8-0.3-1.1h0
		c-0.1,0.4-0.2,0.7-0.3,1.1C41.3,107.2,41.2,107.5,41.2,107.9z M38.7,111.4l2.2-7h1.9l2.2,7h-1.7l-0.4-1.7h-2.1l-0.4,1.7H38.7z
		 M45.7,113.3v-7.2H47l0.1,0.5h0c0.2-0.2,0.5-0.4,0.7-0.5c0.3-0.1,0.6-0.2,0.8-0.2c0.3,0,0.6,0.1,0.9,0.2s0.5,0.3,0.7,0.5
		c0.2,0.2,0.3,0.5,0.4,0.8c0.1,0.3,0.1,0.7,0.1,1.1c0,0.5-0.1,0.9-0.2,1.2c-0.1,0.4-0.3,0.7-0.5,0.9c-0.2,0.2-0.5,0.4-0.7,0.5
		c-0.3,0.1-0.6,0.2-0.8,0.2c-0.5,0-0.9-0.2-1.3-0.6h0l0.1,0.9v1.5H45.7z M48.2,110.2c0.3,0,0.6-0.1,0.8-0.4c0.2-0.2,0.3-0.6,0.3-1.2
		c0-1-0.3-1.4-1-1.4c-0.3,0-0.7,0.2-1,0.5v2.1c0.2,0.1,0.3,0.2,0.5,0.3C47.9,110.2,48.1,110.2,48.2,110.2z M52.1,113.3v-7.2h1.3
		l0.1,0.5h0c0.2-0.2,0.5-0.4,0.7-0.5c0.3-0.1,0.6-0.2,0.8-0.2c0.3,0,0.6,0.1,0.9,0.2c0.3,0.1,0.5,0.3,0.7,0.5
		c0.2,0.2,0.3,0.5,0.4,0.8c0.1,0.3,0.1,0.7,0.1,1.1c0,0.5-0.1,0.9-0.2,1.2c-0.1,0.4-0.3,0.7-0.5,0.9c-0.2,0.2-0.5,0.4-0.7,0.5
		c-0.3,0.1-0.6,0.2-0.8,0.2c-0.5,0-0.9-0.2-1.3-0.6h0l0.1,0.9v1.5H52.1z M54.6,110.2c0.3,0,0.6-0.1,0.8-0.4c0.2-0.2,0.3-0.6,0.3-1.2
		c0-1-0.3-1.4-1-1.4c-0.3,0-0.7,0.2-1,0.5v2.1c0.2,0.1,0.3,0.2,0.5,0.3C54.3,110.2,54.4,110.2,54.6,110.2z M61.9,111.5
		c-0.7,0-1.2-0.2-1.5-0.6c-0.3-0.4-0.5-0.9-0.5-1.6v-4.2h-1.7v-1.2h3.2v5.5c0,0.2,0,0.3,0.1,0.4c0.1,0.1,0.1,0.2,0.2,0.3
		c0.1,0.1,0.2,0.1,0.3,0.1c0.1,0,0.2,0,0.3,0c0.1,0,0.2,0,0.4,0c0.1,0,0.3-0.1,0.5-0.1l0.3,1.2c-0.1,0-0.3,0.1-0.4,0.1
		c-0.1,0-0.2,0.1-0.4,0.1c-0.1,0-0.2,0-0.4,0C62.3,111.5,62.1,111.5,61.9,111.5z M67.1,111.4v-4.1H65v-1.2h3.7v5.3H67.1z
		 M67.3,105.3c-0.3,0-0.6-0.1-0.8-0.2c-0.2-0.2-0.3-0.4-0.3-0.7c0-0.3,0.1-0.5,0.3-0.7c0.2-0.2,0.5-0.3,0.8-0.3
		c0.3,0,0.5,0.1,0.7,0.3c0.2,0.2,0.3,0.4,0.3,0.7c0,0.3-0.1,0.5-0.3,0.7C67.9,105.2,67.6,105.3,67.3,105.3z M74.2,111.5
		c-0.4,0-0.8-0.1-1.2-0.2c-0.4-0.1-0.7-0.3-0.9-0.5c-0.3-0.2-0.5-0.5-0.6-0.9c-0.1-0.3-0.2-0.7-0.2-1.2s0.1-0.8,0.2-1.2
		c0.2-0.4,0.4-0.6,0.7-0.9c0.3-0.2,0.6-0.4,1-0.5c0.4-0.1,0.8-0.2,1.2-0.2c0.4,0,0.8,0.1,1.1,0.2c0.3,0.1,0.6,0.3,0.8,0.5l-0.7,1
		c-0.4-0.3-0.8-0.4-1.2-0.4c-0.5,0-0.8,0.1-1.1,0.4c-0.3,0.3-0.4,0.6-0.4,1.1c0,0.5,0.1,0.8,0.4,1.1c0.3,0.3,0.6,0.4,1.1,0.4
		c0.3,0,0.5,0,0.8-0.1c0.2-0.1,0.4-0.2,0.6-0.4l0.6,1c-0.3,0.3-0.7,0.5-1.1,0.6C74.9,111.5,74.6,111.5,74.2,111.5z M79.3,111.5
		c-0.3,0-0.5,0-0.7-0.1c-0.2-0.1-0.4-0.2-0.5-0.3c-0.1-0.1-0.3-0.3-0.3-0.5c-0.1-0.2-0.1-0.4-0.1-0.6c0-0.3,0.1-0.6,0.2-0.8
		c0.1-0.2,0.3-0.4,0.6-0.6s0.6-0.3,1.1-0.4c0.4-0.1,1-0.2,1.6-0.2c0-0.2-0.1-0.4-0.3-0.6c-0.2-0.1-0.4-0.2-0.8-0.2
		c-0.2,0-0.5,0-0.8,0.1c-0.3,0.1-0.5,0.2-0.8,0.4l-0.5-1c0.4-0.2,0.8-0.4,1.2-0.5c0.4-0.1,0.9-0.2,1.3-0.2c0.7,0,1.3,0.2,1.8,0.6
		c0.4,0.4,0.6,1,0.6,1.8v3h-1.3l-0.1-0.6h0c-0.3,0.2-0.6,0.4-0.9,0.5C80,111.5,79.7,111.5,79.3,111.5z M79.8,110.3
		c0.2,0,0.4,0,0.7-0.1s0.4-0.2,0.6-0.4v-0.9c-0.4,0-0.7,0.1-1,0.1c-0.2,0-0.5,0.1-0.6,0.2c-0.1,0.1-0.2,0.2-0.3,0.3
		c-0.1,0.1-0.1,0.2-0.1,0.3c0,0.2,0.1,0.3,0.2,0.4C79.4,110.3,79.6,110.3,79.8,110.3z M87.5,111.5c-0.4,0-0.8-0.1-1.1-0.2
		c-0.3-0.1-0.5-0.3-0.7-0.5c-0.2-0.2-0.3-0.5-0.4-0.7c-0.1-0.3-0.1-0.6-0.1-0.9v-1.9h-1.3v-1.2l1.4-0.1l0.2-1.6h1.3v1.6H89v1.2h-2.2
		v1.9c0,0.4,0.1,0.7,0.3,0.9c0.2,0.2,0.5,0.2,0.9,0.2c0.2,0,0.4,0,0.5,0c0.2,0,0.3-0.1,0.5-0.2l0.3,1.1c-0.2,0.1-0.5,0.1-0.8,0.2
		C88.1,111.5,87.8,111.5,87.5,111.5z M92.7,111.4v-4.1h-2.1v-1.2h3.7v5.3H92.7z M92.9,105.3c-0.3,0-0.6-0.1-0.8-0.2
		c-0.2-0.2-0.3-0.4-0.3-0.7c0-0.3,0.1-0.5,0.3-0.7c0.2-0.2,0.5-0.3,0.8-0.3c0.3,0,0.5,0.1,0.7,0.3c0.2,0.2,0.3,0.4,0.3,0.7
		c0,0.3-0.1,0.5-0.3,0.7C93.5,105.2,93.2,105.3,92.9,105.3z M99.3,111.5c-0.4,0-0.7-0.1-1-0.2s-0.6-0.3-0.9-0.5
		c-0.2-0.2-0.5-0.5-0.6-0.9c-0.1-0.3-0.2-0.7-0.2-1.2s0.1-0.8,0.2-1.2c0.2-0.4,0.4-0.6,0.6-0.9c0.2-0.2,0.5-0.4,0.9-0.5
		c0.3-0.1,0.7-0.2,1-0.2c0.3,0,0.7,0.1,1,0.2c0.3,0.1,0.6,0.3,0.9,0.5c0.3,0.2,0.5,0.5,0.6,0.9c0.1,0.3,0.2,0.7,0.2,1.2
		s-0.1,0.8-0.2,1.2s-0.3,0.6-0.6,0.9c-0.2,0.2-0.5,0.4-0.9,0.5S99.7,111.5,99.3,111.5z M99.3,110.3c0.4,0,0.6-0.1,0.8-0.4
		c0.2-0.3,0.3-0.6,0.3-1.1c0-0.5-0.1-0.8-0.3-1.1c-0.2-0.3-0.4-0.4-0.8-0.4c-0.4,0-0.6,0.1-0.8,0.4c-0.2,0.3-0.3,0.6-0.3,1.1
		c0,0.5,0.1,0.8,0.3,1.1C98.7,110.1,98.9,110.3,99.3,110.3z M103.3,111.4v-5.3h1.3l0.1,0.7h0c0.2-0.2,0.5-0.4,0.8-0.6
		c0.3-0.2,0.7-0.2,1-0.2c0.6,0,1,0.2,1.3,0.6c0.3,0.4,0.4,0.9,0.4,1.6v3.3h-1.6v-3.1c0-0.4-0.1-0.6-0.2-0.8
		c-0.1-0.2-0.3-0.2-0.6-0.2c-0.2,0-0.4,0-0.6,0.1c-0.2,0.1-0.3,0.2-0.5,0.4v3.5H103.3z"/>
	<path class="st3" d="M383,88.9h140.2l6.2,6.2v31.2l0,0H389.3l-6.2-6.2V88.9z"/>
	<path class="st1" d="M383,88.9h140.2l6.2,6.2v31.2l0,0H389.3l-6.2-6.2V88.9z"/>
	<path class="st2" d="M402.7,111.4v-7h2.3c0.4,0,0.7,0,1,0.1c0.3,0.1,0.6,0.1,0.8,0.3c0.2,0.1,0.4,0.3,0.5,0.5
		c0.1,0.2,0.2,0.5,0.2,0.8c0,0.2,0,0.3-0.1,0.5c0,0.2-0.1,0.3-0.2,0.4c-0.1,0.1-0.2,0.3-0.4,0.4c-0.1,0.1-0.3,0.2-0.5,0.2v0
		c0.5,0.1,0.9,0.3,1.1,0.5c0.3,0.3,0.4,0.6,0.4,1.1c0,0.4-0.1,0.7-0.2,0.9c-0.1,0.2-0.3,0.5-0.6,0.6c-0.2,0.2-0.5,0.3-0.8,0.4
		c-0.3,0.1-0.7,0.1-1,0.1H402.7z M404.3,107.2h0.7c0.4,0,0.7-0.1,0.8-0.2c0.2-0.2,0.3-0.4,0.3-0.6c0-0.2-0.1-0.4-0.3-0.5
		c-0.2-0.1-0.4-0.2-0.8-0.2h-0.7V107.2z M404.3,110.2h0.8c0.8,0,1.2-0.3,1.2-0.9c0-0.3-0.1-0.5-0.3-0.7c-0.2-0.1-0.5-0.2-0.9-0.2
		h-0.8V110.2z M409.6,111.4v-5.3h1.3l0.1,1.1h0c0.3-0.4,0.6-0.7,0.9-1c0.4-0.2,0.8-0.3,1.2-0.3c0.2,0,0.4,0,0.6,0
		c0.1,0,0.3,0.1,0.5,0.2l-0.3,1.3c-0.2-0.1-0.3-0.1-0.4-0.1c-0.1,0-0.3,0-0.5,0c-0.3,0-0.6,0.1-1,0.3c-0.3,0.2-0.6,0.5-0.8,1v2.8
		H409.6z M417.9,111.5c-0.4,0-0.7-0.1-1-0.2c-0.3-0.1-0.6-0.3-0.9-0.5c-0.2-0.2-0.5-0.5-0.6-0.9c-0.1-0.3-0.2-0.7-0.2-1.2
		s0.1-0.8,0.2-1.2c0.2-0.4,0.4-0.6,0.6-0.9c0.2-0.2,0.5-0.4,0.9-0.5c0.3-0.1,0.7-0.2,1-0.2c0.3,0,0.7,0.1,1,0.2
		c0.3,0.1,0.6,0.3,0.9,0.5c0.3,0.2,0.5,0.5,0.6,0.9c0.1,0.3,0.2,0.7,0.2,1.2s-0.1,0.8-0.2,1.2c-0.1,0.3-0.3,0.6-0.6,0.9
		c-0.2,0.2-0.5,0.4-0.9,0.5C418.6,111.5,418.3,111.5,417.9,111.5z M417.9,110.3c0.4,0,0.6-0.1,0.8-0.4c0.2-0.3,0.3-0.6,0.3-1.1
		c0-0.5-0.1-0.8-0.3-1.1c-0.2-0.3-0.4-0.4-0.8-0.4c-0.4,0-0.6,0.1-0.8,0.4c-0.2,0.3-0.3,0.6-0.3,1.1c0,0.5,0.1,0.8,0.3,1.1
		C417.3,110.1,417.6,110.3,417.9,110.3z M422,111.4l-0.9-5.3h1.5l0.3,2.5c0,0.3,0.1,0.5,0.1,0.8c0,0.2,0.1,0.5,0.1,0.8h0
		c0-0.3,0.1-0.5,0.1-0.8c0-0.3,0.1-0.5,0.1-0.8l0.3-1.8h1.1l0.3,1.8c0.1,0.3,0.1,0.5,0.2,0.8c0,0.2,0.1,0.5,0.1,0.8h0
		c0-0.3,0.1-0.5,0.1-0.8c0-0.3,0-0.5,0.1-0.8l0.3-2.5h1.4l-0.8,5.3h-1.8l-0.3-1.7c0-0.2-0.1-0.5-0.1-0.7c0-0.3-0.1-0.5-0.1-0.8h0
		c0,0.2,0,0.5-0.1,0.7c0,0.2-0.1,0.5-0.1,0.9l-0.3,1.7H422z M430.7,111.5c-0.5,0-0.9-0.1-1.4-0.2c-0.4-0.2-0.8-0.3-1.2-0.6l0.7-1
		c0.3,0.2,0.7,0.4,1,0.5c0.4,0.1,0.7,0.2,1.1,0.2c0.3,0,0.5,0,0.6-0.1c0.1-0.1,0.2-0.2,0.2-0.3c0-0.1,0-0.1-0.1-0.2
		c0-0.1-0.1-0.1-0.2-0.2c-0.1,0-0.2-0.1-0.4-0.1c-0.2-0.1-0.4-0.1-0.6-0.2c-0.7-0.2-1.2-0.4-1.5-0.6c-0.3-0.3-0.5-0.6-0.5-1
		c0-0.2,0.1-0.5,0.2-0.7c0.1-0.2,0.3-0.4,0.5-0.5c0.2-0.1,0.5-0.3,0.8-0.3c0.3-0.1,0.6-0.1,1-0.1c0.5,0,0.9,0.1,1.3,0.2
		c0.4,0.1,0.7,0.3,1,0.5l-0.7,0.9c-0.3-0.2-0.6-0.3-0.8-0.4c-0.3-0.1-0.6-0.1-0.9-0.1c-0.2,0-0.4,0-0.6,0.1
		c-0.1,0.1-0.2,0.2-0.2,0.3c0,0.2,0.1,0.3,0.3,0.3c0.2,0.1,0.5,0.1,1,0.2c0.4,0.1,0.7,0.2,1,0.3c0.3,0.1,0.5,0.2,0.6,0.4
		c0.2,0.1,0.3,0.3,0.3,0.5c0.1,0.2,0.1,0.4,0.1,0.6c0,0.2-0.1,0.5-0.2,0.7c-0.1,0.2-0.3,0.4-0.5,0.5c-0.2,0.1-0.5,0.3-0.8,0.4
		C431.5,111.5,431.1,111.5,430.7,111.5z M437.4,111.5c-0.4,0-0.8-0.1-1.2-0.2c-0.4-0.1-0.7-0.3-0.9-0.5c-0.3-0.2-0.5-0.5-0.6-0.9
		c-0.1-0.3-0.2-0.7-0.2-1.2s0.1-0.8,0.2-1.2c0.2-0.3,0.4-0.6,0.6-0.9c0.3-0.2,0.6-0.4,0.9-0.5c0.3-0.1,0.7-0.2,1-0.2
		c0.4,0,0.8,0.1,1.1,0.2s0.6,0.3,0.8,0.5c0.2,0.2,0.4,0.5,0.5,0.8c0.1,0.3,0.2,0.6,0.2,1c0,0.1,0,0.3,0,0.4c0,0.1,0,0.2,0,0.3H436
		c0.1,0.4,0.2,0.7,0.5,0.8c0.3,0.2,0.6,0.3,1.1,0.3c0.2,0,0.5,0,0.7-0.1c0.2-0.1,0.4-0.2,0.7-0.3l0.5,1c-0.3,0.2-0.6,0.3-1,0.5
		C438.1,111.5,437.8,111.5,437.4,111.5z M437.3,107.2c-0.3,0-0.6,0.1-0.8,0.2c-0.2,0.2-0.4,0.4-0.4,0.7h2.3
		C438.2,107.5,437.9,107.2,437.3,107.2z M441.5,111.4v-5.3h1.3l0.1,1.1h0c0.3-0.4,0.6-0.7,0.9-1c0.4-0.2,0.8-0.3,1.2-0.3
		c0.2,0,0.4,0,0.6,0c0.1,0,0.3,0.1,0.5,0.2l-0.3,1.3c-0.2-0.1-0.3-0.1-0.4-0.1c-0.1,0-0.3,0-0.5,0c-0.3,0-0.6,0.1-1,0.3
		c-0.3,0.2-0.6,0.5-0.8,1v2.8H441.5z M454.1,111.4v-7h4.6v1.3h-3v1.4h2.6v1.3h-2.6v1.6h3.1v1.3H454.1z M459.9,111.4l1.8-2.8
		l-1.7-2.5h1.7l0.5,0.8c0.1,0.2,0.2,0.3,0.3,0.5c0.1,0.1,0.2,0.3,0.3,0.4h0c0.1-0.1,0.1-0.3,0.2-0.5c0.1-0.2,0.2-0.3,0.2-0.5
		l0.5-0.8h1.6l-1.7,2.7l1.8,2.6h-1.7l-0.6-0.9c-0.1-0.1-0.2-0.3-0.3-0.5c-0.1-0.2-0.2-0.3-0.3-0.5h0c-0.1,0.2-0.2,0.3-0.2,0.5
		c-0.1,0.1-0.2,0.3-0.2,0.5l-0.5,0.9H459.9z M470,111.5c-0.4,0-0.8-0.1-1.1-0.2c-0.3-0.1-0.5-0.3-0.7-0.5c-0.2-0.2-0.3-0.5-0.4-0.7
		c-0.1-0.3-0.1-0.6-0.1-0.9v-1.9h-1.3v-1.2l1.4-0.1l0.2-1.6h1.3v1.6h2.2v1.2h-2.2v1.9c0,0.4,0.1,0.7,0.3,0.9
		c0.2,0.2,0.5,0.2,0.9,0.2c0.2,0,0.4,0,0.5,0c0.2,0,0.3-0.1,0.5-0.2l0.3,1.1c-0.2,0.1-0.5,0.1-0.8,0.2
		C470.7,111.5,470.4,111.5,470,111.5z M475.8,111.5c-0.4,0-0.8-0.1-1.2-0.2c-0.4-0.1-0.7-0.3-0.9-0.5c-0.3-0.2-0.5-0.5-0.6-0.9
		c-0.1-0.3-0.2-0.7-0.2-1.2c0-0.4,0.1-0.8,0.2-1.2c0.2-0.3,0.4-0.6,0.6-0.9c0.3-0.2,0.6-0.4,0.9-0.5c0.3-0.1,0.7-0.2,1-0.2
		c0.4,0,0.8,0.1,1.1,0.2c0.3,0.1,0.6,0.3,0.8,0.5c0.2,0.2,0.4,0.5,0.5,0.8c0.1,0.3,0.2,0.6,0.2,1c0,0.1,0,0.3,0,0.4
		c0,0.1,0,0.2,0,0.3h-3.6c0.1,0.4,0.2,0.7,0.5,0.8c0.3,0.2,0.6,0.3,1.1,0.3c0.2,0,0.5,0,0.7-0.1c0.2-0.1,0.4-0.2,0.7-0.3l0.5,1
		c-0.3,0.2-0.6,0.3-1,0.5C476.5,111.5,476.1,111.5,475.8,111.5z M475.6,107.2c-0.3,0-0.6,0.1-0.8,0.2c-0.2,0.2-0.4,0.4-0.4,0.7h2.3
		C476.6,107.5,476.3,107.2,475.6,107.2z M479.4,111.4v-5.3h1.3l0.1,0.7h0c0.2-0.2,0.5-0.4,0.8-0.6c0.3-0.2,0.7-0.2,1-0.2
		c0.6,0,1,0.2,1.3,0.6c0.3,0.4,0.4,0.9,0.4,1.6v3.3h-1.6v-3.1c0-0.4-0.1-0.6-0.2-0.8c-0.1-0.2-0.3-0.2-0.6-0.2c-0.2,0-0.4,0-0.6,0.1
		c-0.2,0.1-0.3,0.2-0.5,0.4v3.5H479.4z M488.2,111.5c-0.5,0-0.9-0.1-1.4-0.2c-0.4-0.2-0.8-0.3-1.2-0.6l0.7-1c0.3,0.2,0.7,0.4,1,0.5
		c0.4,0.1,0.7,0.2,1.1,0.2c0.3,0,0.5,0,0.6-0.1c0.1-0.1,0.2-0.2,0.2-0.3c0-0.1,0-0.1-0.1-0.2c0-0.1-0.1-0.1-0.2-0.2
		c-0.1,0-0.2-0.1-0.4-0.1c-0.2-0.1-0.4-0.1-0.6-0.2c-0.7-0.2-1.2-0.4-1.5-0.6c-0.3-0.3-0.5-0.6-0.5-1c0-0.2,0.1-0.5,0.2-0.7
		c0.1-0.2,0.3-0.4,0.5-0.5c0.2-0.1,0.5-0.3,0.8-0.3c0.3-0.1,0.6-0.1,1-0.1c0.5,0,0.9,0.1,1.3,0.2c0.4,0.1,0.7,0.3,1,0.5l-0.7,0.9
		c-0.3-0.2-0.6-0.3-0.8-0.4c-0.3-0.1-0.6-0.1-0.9-0.1c-0.2,0-0.4,0-0.6,0.1c-0.1,0.1-0.2,0.2-0.2,0.3c0,0.2,0.1,0.3,0.3,0.3
		c0.2,0.1,0.5,0.1,1,0.2c0.4,0.1,0.7,0.2,1,0.3c0.3,0.1,0.5,0.2,0.6,0.4c0.2,0.1,0.3,0.3,0.3,0.5c0.1,0.2,0.1,0.4,0.1,0.6
		c0,0.2-0.1,0.5-0.2,0.7c-0.1,0.2-0.3,0.4-0.5,0.5c-0.2,0.1-0.5,0.3-0.8,0.4C489,111.5,488.6,111.5,488.2,111.5z M494.4,111.4v-4.1
		h-2.1v-1.2h3.7v5.3H494.4z M494.6,105.3c-0.3,0-0.6-0.1-0.8-0.2c-0.2-0.2-0.3-0.4-0.3-0.7c0-0.3,0.1-0.5,0.3-0.7
		c0.2-0.2,0.5-0.3,0.8-0.3c0.3,0,0.5,0.1,0.7,0.3c0.2,0.2,0.3,0.4,0.3,0.7c0,0.3-0.1,0.5-0.3,0.7
		C495.2,105.2,494.9,105.3,494.6,105.3z M501,111.5c-0.4,0-0.7-0.1-1-0.2s-0.6-0.3-0.9-0.5c-0.2-0.2-0.5-0.5-0.6-0.9
		c-0.1-0.3-0.2-0.7-0.2-1.2s0.1-0.8,0.2-1.2c0.2-0.4,0.4-0.6,0.6-0.9c0.2-0.2,0.5-0.4,0.9-0.5c0.3-0.1,0.7-0.2,1-0.2
		c0.3,0,0.7,0.1,1,0.2c0.3,0.1,0.6,0.3,0.9,0.5c0.3,0.2,0.5,0.5,0.6,0.9c0.1,0.3,0.2,0.7,0.2,1.2s-0.1,0.8-0.2,1.2s-0.3,0.6-0.6,0.9
		c-0.2,0.2-0.5,0.4-0.9,0.5S501.4,111.5,501,111.5z M501,110.3c0.4,0,0.6-0.1,0.8-0.4c0.2-0.3,0.3-0.6,0.3-1.1
		c0-0.5-0.1-0.8-0.3-1.1c-0.2-0.3-0.4-0.4-0.8-0.4c-0.4,0-0.6,0.1-0.8,0.4c-0.2,0.3-0.3,0.6-0.3,1.1c0,0.5,0.1,0.8,0.3,1.1
		C500.4,110.1,500.7,110.3,501,110.3z M505,111.4v-5.3h1.3l0.1,0.7h0c0.2-0.2,0.5-0.4,0.8-0.6c0.3-0.2,0.7-0.2,1-0.2
		c0.6,0,1,0.2,1.3,0.6c0.3,0.4,0.4,0.9,0.4,1.6v3.3h-1.6v-3.1c0-0.4-0.1-0.6-0.2-0.8c-0.1-0.2-0.3-0.2-0.6-0.2c-0.2,0-0.4,0-0.6,0.1
		c-0.2,0.1-0.3,0.2-0.5,0.4v3.5H505z"/>
	<path class="st0" d="M102.6,161.4h140.2l6.2,6.2v31.2l0,0H108.8l-6.2-6.2V161.4z"/>
	<path class="st1" d="M102.6,161.4h140.2l6.2,6.2v31.2l0,0H108.8l-6.2-6.2V161.4z"/>
	<path class="st2" d="M122.6,177.3v-7h4.6v1.3h-3v1.6h2.6v1.3h-2.6v2.7H122.6z M131.1,177.5c-0.4,0-0.7-0.1-1-0.2
		c-0.3-0.1-0.6-0.3-0.9-0.5c-0.2-0.2-0.5-0.5-0.6-0.9c-0.1-0.3-0.2-0.7-0.2-1.2s0.1-0.8,0.2-1.2c0.2-0.4,0.4-0.6,0.6-0.9
		c0.2-0.2,0.5-0.4,0.9-0.5c0.3-0.1,0.7-0.2,1-0.2c0.3,0,0.7,0.1,1,0.2c0.3,0.1,0.6,0.3,0.9,0.5c0.3,0.2,0.5,0.5,0.6,0.9
		c0.1,0.3,0.2,0.7,0.2,1.2s-0.1,0.8-0.2,1.2c-0.1,0.3-0.3,0.6-0.6,0.9c-0.2,0.2-0.5,0.4-0.9,0.5
		C131.8,177.4,131.4,177.5,131.1,177.5z M131.1,176.2c0.4,0,0.6-0.1,0.8-0.4c0.2-0.3,0.3-0.6,0.3-1.1c0-0.5-0.1-0.8-0.3-1.1
		c-0.2-0.3-0.4-0.4-0.8-0.4c-0.4,0-0.6,0.1-0.8,0.4c-0.2,0.3-0.3,0.6-0.3,1.1c0,0.5,0.1,0.8,0.3,1.1
		C130.4,176,130.7,176.2,131.1,176.2z M137.9,177.5c-0.4,0-0.8-0.1-1.2-0.2c-0.4-0.1-0.7-0.3-0.9-0.5c-0.3-0.2-0.5-0.5-0.6-0.9
		s-0.2-0.7-0.2-1.2s0.1-0.8,0.2-1.2c0.2-0.4,0.4-0.6,0.7-0.9c0.3-0.2,0.6-0.4,1-0.5c0.4-0.1,0.8-0.2,1.2-0.2c0.4,0,0.8,0.1,1.1,0.2
		c0.3,0.1,0.6,0.3,0.8,0.5l-0.7,1c-0.4-0.3-0.8-0.4-1.2-0.4c-0.5,0-0.8,0.1-1.1,0.4c-0.3,0.3-0.4,0.6-0.4,1.1c0,0.5,0.1,0.8,0.4,1.1
		c0.3,0.3,0.6,0.4,1.1,0.4c0.3,0,0.5,0,0.8-0.1c0.2-0.1,0.4-0.2,0.6-0.4l0.6,1c-0.3,0.3-0.7,0.5-1.1,0.6
		C138.7,177.4,138.3,177.5,137.9,177.5z M143,177.5c-0.6,0-1-0.2-1.3-0.6c-0.3-0.4-0.4-0.9-0.4-1.6V172h1.6v3c0,0.4,0.1,0.6,0.2,0.8
		c0.1,0.2,0.3,0.2,0.6,0.2c0.2,0,0.4,0,0.5-0.1c0.2-0.1,0.3-0.2,0.5-0.5V172h1.6v5.3H145l-0.1-0.8h0c-0.2,0.3-0.5,0.5-0.8,0.6
		C143.8,177.4,143.4,177.5,143,177.5z M150.2,177.5c-0.5,0-0.9-0.1-1.4-0.2c-0.4-0.2-0.8-0.3-1.2-0.6l0.7-1c0.3,0.2,0.7,0.4,1,0.5
		c0.4,0.1,0.7,0.2,1.1,0.2c0.3,0,0.5,0,0.6-0.1c0.1-0.1,0.2-0.2,0.2-0.3c0-0.1,0-0.1-0.1-0.2c0-0.1-0.1-0.1-0.2-0.2
		c-0.1,0-0.2-0.1-0.4-0.1c-0.2-0.1-0.4-0.1-0.6-0.2c-0.7-0.2-1.2-0.4-1.5-0.6c-0.3-0.3-0.5-0.6-0.5-1c0-0.2,0.1-0.5,0.2-0.7
		c0.1-0.2,0.3-0.4,0.5-0.5c0.2-0.1,0.5-0.3,0.8-0.3c0.3-0.1,0.6-0.1,1-0.1c0.5,0,0.9,0.1,1.3,0.2c0.4,0.1,0.7,0.3,1,0.5l-0.7,0.9
		c-0.3-0.2-0.6-0.3-0.8-0.4c-0.3-0.1-0.6-0.1-0.9-0.1c-0.2,0-0.4,0-0.6,0.1c-0.1,0.1-0.2,0.2-0.2,0.3c0,0.2,0.1,0.3,0.3,0.3
		c0.2,0.1,0.5,0.1,1,0.2c0.4,0.1,0.7,0.2,1,0.3c0.3,0.1,0.5,0.2,0.6,0.4c0.2,0.1,0.3,0.3,0.3,0.5c0.1,0.2,0.1,0.4,0.1,0.6
		c0,0.2-0.1,0.5-0.2,0.7c-0.1,0.2-0.3,0.4-0.5,0.5c-0.2,0.1-0.5,0.3-0.8,0.4C151,177.4,150.6,177.5,150.2,177.5z M164,177.5
		c-0.4,0-0.8-0.1-1.1-0.2c-0.3-0.1-0.5-0.3-0.7-0.5c-0.2-0.2-0.3-0.5-0.4-0.7c-0.1-0.3-0.1-0.6-0.1-0.9v-1.9h-1.3v-1.2l1.4-0.1
		l0.2-1.6h1.3v1.6h2.2v1.2h-2.2v1.9c0,0.4,0.1,0.7,0.3,0.9c0.2,0.2,0.5,0.2,0.9,0.2c0.2,0,0.4,0,0.5,0c0.2,0,0.3-0.1,0.5-0.2
		l0.3,1.1c-0.2,0.1-0.5,0.1-0.8,0.2C164.7,177.4,164.3,177.5,164,177.5z M167,177.3v-7.5h1.6v1.8l-0.1,1h0c0.2-0.2,0.4-0.4,0.7-0.5
		c0.3-0.2,0.6-0.2,1-0.2c0.6,0,1,0.2,1.3,0.6c0.3,0.4,0.4,0.9,0.4,1.6v3.3h-1.6v-3.1c0-0.4-0.1-0.6-0.2-0.8
		c-0.1-0.2-0.3-0.2-0.6-0.2c-0.2,0-0.4,0-0.6,0.1c-0.2,0.1-0.3,0.2-0.5,0.4v3.5H167z M176.1,177.5c-0.4,0-0.8-0.1-1.2-0.2
		c-0.4-0.1-0.7-0.3-0.9-0.5c-0.3-0.2-0.5-0.5-0.6-0.9c-0.1-0.3-0.2-0.7-0.2-1.2s0.1-0.8,0.2-1.2c0.2-0.3,0.4-0.6,0.6-0.9
		c0.3-0.2,0.6-0.4,0.9-0.5c0.3-0.1,0.7-0.2,1-0.2c0.4,0,0.8,0.1,1.1,0.2s0.6,0.3,0.8,0.5c0.2,0.2,0.4,0.5,0.5,0.8
		c0.1,0.3,0.2,0.6,0.2,1c0,0.1,0,0.3,0,0.4c0,0.1,0,0.2,0,0.3h-3.6c0.1,0.4,0.2,0.7,0.5,0.8c0.3,0.2,0.6,0.3,1.1,0.3
		c0.2,0,0.5,0,0.7-0.1c0.2-0.1,0.4-0.2,0.7-0.3l0.5,1c-0.3,0.2-0.6,0.3-1,0.5C176.9,177.4,176.5,177.5,176.1,177.5z M176,173.1
		c-0.3,0-0.6,0.1-0.8,0.2c-0.2,0.2-0.4,0.4-0.4,0.7h2.3C177,173.4,176.6,173.1,176,173.1z M187.8,177.5c-0.3,0-0.5,0-0.7-0.1
		c-0.2-0.1-0.4-0.2-0.5-0.3c-0.1-0.1-0.3-0.3-0.3-0.5c-0.1-0.2-0.1-0.4-0.1-0.6c0-0.3,0.1-0.6,0.2-0.8c0.1-0.2,0.3-0.4,0.6-0.6
		s0.6-0.3,1.1-0.4c0.4-0.1,1-0.2,1.6-0.2c0-0.2-0.1-0.4-0.3-0.6c-0.2-0.1-0.4-0.2-0.8-0.2c-0.2,0-0.5,0-0.8,0.1
		c-0.3,0.1-0.5,0.2-0.8,0.4l-0.5-1c0.4-0.2,0.8-0.4,1.2-0.5c0.4-0.1,0.9-0.2,1.3-0.2c0.7,0,1.3,0.2,1.8,0.6c0.4,0.4,0.6,1,0.6,1.8v3
		h-1.3l-0.1-0.6h0c-0.3,0.2-0.6,0.4-0.9,0.5C188.5,177.4,188.2,177.5,187.8,177.5z M188.3,176.2c0.2,0,0.4,0,0.7-0.1
		c0.2-0.1,0.4-0.2,0.6-0.4v-0.9c-0.4,0-0.7,0.1-1,0.1c-0.2,0-0.5,0.1-0.6,0.2c-0.1,0.1-0.2,0.2-0.3,0.3c-0.1,0.1-0.1,0.2-0.1,0.3
		c0,0.2,0.1,0.3,0.2,0.4C187.9,176.2,188.1,176.2,188.3,176.2z M193,177.3V172h1.3l0.1,1.1h0c0.3-0.4,0.6-0.7,0.9-1
		c0.4-0.2,0.8-0.3,1.2-0.3c0.2,0,0.4,0,0.6,0c0.1,0,0.3,0.1,0.5,0.2l-0.3,1.3c-0.2-0.1-0.3-0.1-0.4-0.1c-0.1,0-0.3,0-0.5,0
		c-0.3,0-0.6,0.1-1,0.3c-0.3,0.2-0.6,0.5-0.8,1v2.8H193z M202.3,177.5c-0.4,0-0.8-0.1-1.1-0.2c-0.3-0.1-0.5-0.3-0.7-0.5
		c-0.2-0.2-0.3-0.5-0.4-0.7c-0.1-0.3-0.1-0.6-0.1-0.9v-1.9h-1.3v-1.2l1.4-0.1l0.2-1.6h1.3v1.6h2.2v1.2h-2.2v1.9
		c0,0.4,0.1,0.7,0.3,0.9c0.2,0.2,0.5,0.2,0.9,0.2c0.2,0,0.4,0,0.5,0c0.2,0,0.3-0.1,0.5-0.2l0.3,1.1c-0.2,0.1-0.5,0.1-0.8,0.2
		C203,177.4,202.7,177.5,202.3,177.5z M207.6,177.3v-4.1h-2.1V172h3.7v5.3H207.6z M207.8,171.2c-0.3,0-0.6-0.1-0.8-0.2
		c-0.2-0.2-0.3-0.4-0.3-0.7c0-0.3,0.1-0.5,0.3-0.7c0.2-0.2,0.5-0.3,0.8-0.3c0.3,0,0.5,0.1,0.7,0.3c0.2,0.2,0.3,0.4,0.3,0.7
		c0,0.3-0.1,0.5-0.3,0.7C208.3,171.1,208.1,171.2,207.8,171.2z M214.6,177.5c-0.4,0-0.8-0.1-1.2-0.2c-0.4-0.1-0.7-0.3-0.9-0.5
		c-0.3-0.2-0.5-0.5-0.6-0.9c-0.1-0.3-0.2-0.7-0.2-1.2s0.1-0.8,0.2-1.2c0.2-0.4,0.4-0.6,0.7-0.9c0.3-0.2,0.6-0.4,1-0.5
		c0.4-0.1,0.8-0.2,1.2-0.2c0.4,0,0.8,0.1,1.1,0.2c0.3,0.1,0.6,0.3,0.8,0.5l-0.7,1c-0.4-0.3-0.8-0.4-1.2-0.4c-0.5,0-0.8,0.1-1.1,0.4
		c-0.3,0.3-0.4,0.6-0.4,1.1c0,0.5,0.1,0.8,0.4,1.1c0.3,0.3,0.6,0.4,1.1,0.4c0.3,0,0.5,0,0.8-0.1c0.2-0.1,0.4-0.2,0.6-0.4l0.6,1
		c-0.3,0.3-0.7,0.5-1.1,0.6C215.4,177.4,215,177.5,214.6,177.5z M221.6,177.5c-0.7,0-1.2-0.2-1.5-0.6c-0.3-0.4-0.5-0.9-0.5-1.6v-4.2
		h-1.7v-1.2h3.2v5.5c0,0.2,0,0.3,0.1,0.4c0.1,0.1,0.1,0.2,0.2,0.3c0.1,0.1,0.2,0.1,0.3,0.1c0.1,0,0.2,0,0.3,0c0.1,0,0.2,0,0.4,0
		c0.1,0,0.3-0.1,0.5-0.1l0.3,1.2c-0.1,0-0.3,0.1-0.4,0.1c-0.1,0-0.2,0.1-0.4,0.1c-0.1,0-0.2,0-0.4,0
		C221.9,177.4,221.8,177.5,221.6,177.5z M227.3,177.5c-0.4,0-0.8-0.1-1.2-0.2c-0.4-0.1-0.7-0.3-0.9-0.5c-0.3-0.2-0.5-0.5-0.6-0.9
		c-0.1-0.3-0.2-0.7-0.2-1.2s0.1-0.8,0.2-1.2c0.2-0.3,0.4-0.6,0.6-0.9c0.3-0.2,0.6-0.4,0.9-0.5c0.3-0.1,0.7-0.2,1-0.2
		c0.4,0,0.8,0.1,1.1,0.2s0.6,0.3,0.8,0.5c0.2,0.2,0.4,0.5,0.5,0.8c0.1,0.3,0.2,0.6,0.2,1c0,0.1,0,0.3,0,0.4c0,0.1,0,0.2,0,0.3h-3.6
		c0.1,0.4,0.2,0.7,0.5,0.8c0.3,0.2,0.6,0.3,1.1,0.3c0.2,0,0.5,0,0.7-0.1c0.2-0.1,0.4-0.2,0.7-0.3l0.5,1c-0.3,0.2-0.6,0.3-1,0.5
		C228,177.4,227.6,177.5,227.3,177.5z M227.2,173.1c-0.3,0-0.6,0.1-0.8,0.2c-0.2,0.2-0.4,0.4-0.4,0.7h2.3
		C228.1,173.4,227.8,173.1,227.2,173.1z"/>
	<path class="st2" d="M156.7,190.5c-0.4,0-0.7-0.1-1-0.2c-0.3-0.1-0.6-0.3-0.9-0.5c-0.2-0.2-0.5-0.5-0.6-0.9
		c-0.1-0.3-0.2-0.7-0.2-1.2s0.1-0.8,0.2-1.2c0.2-0.4,0.4-0.6,0.6-0.9c0.2-0.2,0.5-0.4,0.9-0.5c0.3-0.1,0.7-0.2,1-0.2
		c0.3,0,0.7,0.1,1,0.2c0.3,0.1,0.6,0.3,0.9,0.5c0.3,0.2,0.5,0.5,0.6,0.9c0.1,0.3,0.2,0.7,0.2,1.2s-0.1,0.8-0.2,1.2
		c-0.1,0.3-0.3,0.6-0.6,0.9c-0.2,0.2-0.5,0.4-0.9,0.5C157.3,190.4,157,190.5,156.7,190.5z M156.7,189.2c0.4,0,0.6-0.1,0.8-0.4
		c0.2-0.3,0.3-0.6,0.3-1.1c0-0.5-0.1-0.8-0.3-1.1c-0.2-0.3-0.4-0.4-0.8-0.4c-0.4,0-0.6,0.1-0.8,0.4c-0.2,0.3-0.3,0.6-0.3,1.1
		c0,0.5,0.1,0.8,0.3,1.1C156,189,156.3,189.2,156.7,189.2z M161.1,190.3V185h1.3l0.1,1.1h0c0.3-0.4,0.6-0.7,0.9-1
		c0.4-0.2,0.8-0.3,1.2-0.3c0.2,0,0.4,0,0.6,0s0.3,0.1,0.5,0.2l-0.3,1.3c-0.2-0.1-0.3-0.1-0.4-0.1c-0.1,0-0.3,0-0.5,0
		c-0.3,0-0.6,0.1-1,0.3c-0.3,0.2-0.6,0.5-0.8,1v2.8H161.1z M173.4,190.3V185h1.3l0.1,0.7h0c0.2-0.2,0.5-0.4,0.8-0.6
		c0.3-0.2,0.7-0.2,1-0.2c0.6,0,1,0.2,1.3,0.6c0.3,0.4,0.4,0.9,0.4,1.6v3.3h-1.6v-3.1c0-0.4-0.1-0.6-0.2-0.8
		c-0.1-0.2-0.3-0.2-0.6-0.2c-0.2,0-0.4,0-0.6,0.1c-0.2,0.1-0.3,0.2-0.5,0.4v3.5H173.4z M182.5,190.5c-0.4,0-0.8-0.1-1.2-0.2
		c-0.4-0.1-0.7-0.3-0.9-0.5c-0.3-0.2-0.5-0.5-0.6-0.9s-0.2-0.7-0.2-1.2s0.1-0.8,0.2-1.2c0.2-0.3,0.4-0.6,0.6-0.9
		c0.3-0.2,0.6-0.4,0.9-0.5c0.3-0.1,0.7-0.2,1-0.2c0.4,0,0.8,0.1,1.1,0.2s0.6,0.3,0.8,0.5c0.2,0.2,0.4,0.5,0.5,0.8
		c0.1,0.3,0.2,0.6,0.2,1c0,0.1,0,0.3,0,0.4c0,0.1,0,0.2,0,0.3h-3.6c0.1,0.4,0.2,0.7,0.5,0.8c0.3,0.2,0.6,0.3,1.1,0.3
		c0.2,0,0.5,0,0.7-0.1c0.2-0.1,0.4-0.2,0.7-0.3l0.5,1c-0.3,0.2-0.6,0.3-1,0.5C183.3,190.4,182.9,190.5,182.5,190.5z M182.4,186.1
		c-0.3,0-0.6,0.1-0.8,0.2c-0.2,0.2-0.4,0.4-0.4,0.7h2.3C183.4,186.4,183,186.1,182.4,186.1z M186.3,190.3l-0.9-5.3h1.5l0.3,2.5
		c0,0.3,0.1,0.5,0.1,0.8c0,0.2,0.1,0.5,0.1,0.8h0c0-0.3,0.1-0.5,0.1-0.8c0-0.3,0.1-0.5,0.1-0.8l0.3-1.8h1.1l0.3,1.8
		c0.1,0.3,0.1,0.5,0.2,0.8c0,0.2,0.1,0.5,0.1,0.8h0c0-0.3,0.1-0.5,0.1-0.8c0-0.3,0-0.5,0.1-0.8l0.3-2.5h1.4l-0.8,5.3h-1.8l-0.3-1.7
		c0-0.2-0.1-0.5-0.1-0.7c0-0.3-0.1-0.5-0.1-0.8h0c0,0.2,0,0.5-0.1,0.7c0,0.2-0.1,0.5-0.1,0.9l-0.3,1.7H186.3z M195,190.5
		c-0.5,0-0.9-0.1-1.4-0.2c-0.4-0.2-0.8-0.3-1.2-0.6l0.7-1c0.3,0.2,0.7,0.4,1,0.5c0.4,0.1,0.7,0.2,1.1,0.2c0.3,0,0.5,0,0.6-0.1
		c0.1-0.1,0.2-0.2,0.2-0.3c0-0.1,0-0.1-0.1-0.2c0-0.1-0.1-0.1-0.2-0.2c-0.1,0-0.2-0.1-0.4-0.1c-0.2-0.1-0.4-0.1-0.6-0.2
		c-0.7-0.2-1.2-0.4-1.5-0.6c-0.3-0.3-0.5-0.6-0.5-1c0-0.2,0.1-0.5,0.2-0.7c0.1-0.2,0.3-0.4,0.5-0.5c0.2-0.1,0.5-0.3,0.8-0.3
		c0.3-0.1,0.6-0.1,1-0.1c0.5,0,0.9,0.1,1.3,0.2c0.4,0.1,0.7,0.3,1,0.5l-0.7,0.9c-0.3-0.2-0.6-0.3-0.8-0.4c-0.3-0.1-0.6-0.1-0.9-0.1
		c-0.2,0-0.4,0-0.6,0.1c-0.1,0.1-0.2,0.2-0.2,0.3c0,0.2,0.1,0.3,0.3,0.3c0.2,0.1,0.5,0.1,1,0.2c0.4,0.1,0.7,0.2,1,0.3
		c0.3,0.1,0.5,0.2,0.6,0.4c0.2,0.1,0.3,0.3,0.3,0.5c0.1,0.2,0.1,0.4,0.1,0.6c0,0.2-0.1,0.5-0.2,0.7c-0.1,0.2-0.3,0.4-0.5,0.5
		c-0.2,0.1-0.5,0.3-0.8,0.4C195.8,190.4,195.4,190.5,195,190.5z"/>
	<path class="st0" d="M102.6,230.2h140.2l6.2,6.2v31.2l0,0H108.8l-6.2-6.2V230.2z"/>
	<path class="st1" d="M102.6,230.2h140.2l6.2,6.2v31.2l0,0H108.8l-6.2-6.2V230.2z"/>
	<path class="st2" d="M140.6,246.3c-0.5,0-0.9-0.1-1.4-0.2c-0.5-0.2-0.9-0.4-1.2-0.8l0.9-1.1c0.3,0.2,0.5,0.4,0.9,0.5
		c0.3,0.1,0.6,0.2,1,0.2s0.6-0.1,0.8-0.2c0.2-0.1,0.2-0.3,0.2-0.4c0-0.1,0-0.2-0.1-0.3c-0.1-0.1-0.1-0.2-0.2-0.2
		c-0.1-0.1-0.2-0.1-0.3-0.2c-0.1-0.1-0.3-0.1-0.5-0.2l-0.9-0.4c-0.2-0.1-0.4-0.2-0.6-0.3c-0.2-0.1-0.3-0.2-0.5-0.4
		c-0.1-0.2-0.2-0.3-0.3-0.5c-0.1-0.2-0.1-0.4-0.1-0.7c0-0.3,0.1-0.5,0.2-0.8s0.3-0.5,0.5-0.7c0.2-0.2,0.5-0.3,0.8-0.4
		c0.3-0.1,0.7-0.2,1-0.2c0.4,0,0.8,0.1,1.2,0.2c0.4,0.2,0.8,0.4,1.1,0.7l-0.8,1c-0.2-0.2-0.5-0.3-0.7-0.4c-0.2-0.1-0.5-0.1-0.9-0.1
		c-0.3,0-0.5,0.1-0.6,0.2c-0.2,0.1-0.2,0.3-0.2,0.5c0,0.2,0.1,0.4,0.3,0.5c0.2,0.1,0.5,0.2,0.8,0.3l0.8,0.4c0.5,0.2,0.8,0.4,1.1,0.7
		c0.3,0.3,0.4,0.7,0.4,1.2c0,0.3-0.1,0.6-0.2,0.8c-0.1,0.3-0.3,0.5-0.5,0.7c-0.2,0.2-0.5,0.4-0.8,0.5
		C141.5,246.2,141.1,246.3,140.6,246.3z M147.5,246.3c-0.4,0-0.8-0.1-1.2-0.2c-0.4-0.1-0.7-0.3-0.9-0.5c-0.3-0.2-0.5-0.5-0.6-0.9
		c-0.1-0.3-0.2-0.7-0.2-1.2c0-0.4,0.1-0.8,0.2-1.2c0.2-0.4,0.4-0.6,0.7-0.9c0.3-0.2,0.6-0.4,1-0.5c0.4-0.1,0.8-0.2,1.2-0.2
		c0.4,0,0.8,0.1,1.1,0.2c0.3,0.1,0.6,0.3,0.8,0.5l-0.7,1c-0.4-0.3-0.8-0.4-1.2-0.4c-0.5,0-0.8,0.1-1.1,0.4c-0.3,0.3-0.4,0.6-0.4,1.1
		c0,0.5,0.1,0.8,0.4,1.1c0.3,0.3,0.6,0.4,1.1,0.4c0.3,0,0.5,0,0.8-0.1c0.2-0.1,0.4-0.2,0.6-0.4l0.6,1c-0.3,0.3-0.7,0.5-1.1,0.6
		C148.2,246.2,147.9,246.3,147.5,246.3z M152.6,246.3c-0.3,0-0.5,0-0.7-0.1c-0.2-0.1-0.4-0.2-0.5-0.3c-0.1-0.1-0.3-0.3-0.3-0.5
		c-0.1-0.2-0.1-0.4-0.1-0.6c0-0.3,0.1-0.6,0.2-0.8c0.1-0.2,0.3-0.4,0.6-0.6s0.6-0.3,1.1-0.4c0.4-0.1,1-0.2,1.6-0.2
		c0-0.2-0.1-0.4-0.3-0.6c-0.2-0.1-0.4-0.2-0.8-0.2c-0.2,0-0.5,0-0.8,0.1c-0.3,0.1-0.5,0.2-0.8,0.4l-0.5-1c0.4-0.2,0.8-0.4,1.2-0.5
		c0.4-0.1,0.9-0.2,1.3-0.2c0.7,0,1.3,0.2,1.8,0.6c0.4,0.4,0.6,1,0.6,1.8v3h-1.3l-0.1-0.6h0c-0.3,0.2-0.6,0.4-0.9,0.5
		C153.3,246.2,153,246.3,152.6,246.3z M153.1,245.1c0.2,0,0.4,0,0.7-0.1c0.2-0.1,0.4-0.2,0.6-0.4v-0.9c-0.4,0-0.7,0.1-1,0.1
		c-0.2,0-0.5,0.1-0.6,0.2c-0.1,0.1-0.2,0.2-0.3,0.3c-0.1,0.1-0.1,0.2-0.1,0.3c0,0.2,0.1,0.3,0.2,0.4
		C152.7,245,152.9,245.1,153.1,245.1z M157.4,246.2v-5.3h1.3l0.1,0.7h0c0.2-0.2,0.5-0.4,0.8-0.6c0.3-0.2,0.7-0.2,1-0.2
		c0.6,0,1,0.2,1.3,0.6c0.3,0.4,0.4,0.9,0.4,1.6v3.3h-1.6v-3.1c0-0.4-0.1-0.6-0.2-0.8c-0.1-0.2-0.3-0.2-0.6-0.2c-0.2,0-0.4,0-0.6,0.1
		c-0.2,0.1-0.3,0.2-0.5,0.4v3.5H157.4z M163.8,246.2v-5.3h1.3l0.1,0.7h0c0.2-0.2,0.5-0.4,0.8-0.6c0.3-0.2,0.7-0.2,1-0.2
		c0.6,0,1,0.2,1.3,0.6c0.3,0.4,0.4,0.9,0.4,1.6v3.3h-1.6v-3.1c0-0.4-0.1-0.6-0.2-0.8c-0.1-0.2-0.3-0.2-0.6-0.2c-0.2,0-0.4,0-0.6,0.1
		c-0.2,0.1-0.3,0.2-0.5,0.4v3.5H163.8z M172.4,246.2v-4.1h-2.1v-1.2h3.7v5.3H172.4z M172.6,240.1c-0.3,0-0.6-0.1-0.8-0.2
		c-0.2-0.2-0.3-0.4-0.3-0.7c0-0.3,0.1-0.5,0.3-0.7c0.2-0.2,0.5-0.3,0.8-0.3c0.3,0,0.5,0.1,0.7,0.3c0.2,0.2,0.3,0.4,0.3,0.7
		c0,0.3-0.1,0.5-0.3,0.7C173.2,240,172.9,240.1,172.6,240.1z M176.6,246.2v-5.3h1.3l0.1,0.7h0c0.2-0.2,0.5-0.4,0.8-0.6
		c0.3-0.2,0.7-0.2,1-0.2c0.6,0,1,0.2,1.3,0.6c0.3,0.4,0.4,0.9,0.4,1.6v3.3H180v-3.1c0-0.4-0.1-0.6-0.2-0.8c-0.1-0.2-0.3-0.2-0.6-0.2
		c-0.2,0-0.4,0-0.6,0.1c-0.2,0.1-0.3,0.2-0.5,0.4v3.5H176.6z M185.2,248.4c-0.3,0-0.7,0-1-0.1c-0.3-0.1-0.5-0.1-0.8-0.2
		c-0.2-0.1-0.4-0.2-0.5-0.4c-0.1-0.2-0.2-0.4-0.2-0.6c0-0.4,0.3-0.8,0.8-1v0c-0.1-0.1-0.3-0.2-0.4-0.3c-0.1-0.1-0.2-0.3-0.2-0.6
		c0-0.2,0.1-0.4,0.2-0.5c0.1-0.2,0.3-0.3,0.5-0.5v0c-0.2-0.1-0.3-0.3-0.5-0.5c-0.1-0.2-0.2-0.5-0.2-0.8s0.1-0.6,0.2-0.8
		c0.1-0.2,0.3-0.4,0.5-0.6c0.2-0.2,0.4-0.3,0.7-0.4c0.3-0.1,0.6-0.1,0.9-0.1c0.3,0,0.6,0,0.9,0.1h2.1v1.1h-1.1
		c0.1,0.1,0.1,0.2,0.2,0.3c0.1,0.1,0.1,0.3,0.1,0.4c0,0.3-0.1,0.6-0.2,0.8s-0.3,0.4-0.5,0.5c-0.2,0.1-0.4,0.3-0.7,0.3
		c-0.3,0.1-0.5,0.1-0.9,0.1c-0.2,0-0.5,0-0.7-0.1c-0.1,0.1-0.1,0.1-0.2,0.2c0,0.1,0,0.1,0,0.2c0,0.1,0.1,0.2,0.2,0.3
		c0.1,0.1,0.4,0.1,0.7,0.1h1c0.7,0,1.2,0.1,1.6,0.3c0.4,0.2,0.5,0.5,0.5,1c0,0.3-0.1,0.5-0.2,0.8c-0.1,0.2-0.4,0.4-0.6,0.6
		c-0.3,0.2-0.6,0.3-1,0.4C186.1,248.4,185.7,248.4,185.2,248.4z M185.3,243.5c0.2,0,0.4-0.1,0.6-0.2c0.2-0.1,0.2-0.4,0.2-0.7
		c0-0.3-0.1-0.5-0.2-0.6c-0.2-0.2-0.3-0.2-0.6-0.2c-0.2,0-0.4,0.1-0.6,0.2c-0.1,0.1-0.2,0.4-0.2,0.6c0,0.3,0.1,0.5,0.2,0.7
		C184.8,243.5,185,243.5,185.3,243.5z M185.4,247.4c0.4,0,0.8-0.1,1-0.2c0.3-0.1,0.4-0.3,0.4-0.4c0-0.2-0.1-0.3-0.2-0.3
		c-0.2,0-0.4-0.1-0.7-0.1h-0.7c-0.2,0-0.3,0-0.5,0c-0.1,0-0.2,0-0.3-0.1c-0.1,0.1-0.2,0.2-0.3,0.2c-0.1,0.1-0.1,0.2-0.1,0.3
		c0,0.2,0.1,0.3,0.4,0.4C184.6,247.4,185,247.4,185.4,247.4z M197.4,246.3c-0.3,0-0.5,0-0.7-0.1c-0.2-0.1-0.4-0.2-0.5-0.3
		c-0.1-0.1-0.3-0.3-0.3-0.5c-0.1-0.2-0.1-0.4-0.1-0.6c0-0.3,0.1-0.6,0.2-0.8c0.1-0.2,0.3-0.4,0.6-0.6c0.3-0.2,0.6-0.3,1.1-0.4
		c0.4-0.1,1-0.2,1.6-0.2c0-0.2-0.1-0.4-0.3-0.6c-0.2-0.1-0.4-0.2-0.8-0.2c-0.2,0-0.5,0-0.8,0.1c-0.3,0.1-0.5,0.2-0.8,0.4l-0.5-1
		c0.4-0.2,0.8-0.4,1.2-0.5c0.4-0.1,0.9-0.2,1.3-0.2c0.7,0,1.3,0.2,1.8,0.6c0.4,0.4,0.6,1,0.6,1.8v3h-1.3l-0.1-0.6h0
		c-0.3,0.2-0.6,0.4-0.9,0.5C198.1,246.2,197.7,246.3,197.4,246.3z M197.9,245.1c0.2,0,0.4,0,0.7-0.1c0.2-0.1,0.4-0.2,0.6-0.4v-0.9
		c-0.4,0-0.7,0.1-1,0.1c-0.2,0-0.5,0.1-0.6,0.2c-0.1,0.1-0.2,0.2-0.3,0.3c-0.1,0.1-0.1,0.2-0.1,0.3c0,0.2,0.1,0.3,0.2,0.4
		C197.5,245,197.7,245.1,197.9,245.1z M202.2,246.2v-5.3h1.3l0.1,0.7h0c0.2-0.2,0.5-0.4,0.8-0.6c0.3-0.2,0.7-0.2,1-0.2
		c0.6,0,1,0.2,1.3,0.6c0.3,0.4,0.4,0.9,0.4,1.6v3.3h-1.6v-3.1c0-0.4-0.1-0.6-0.2-0.8c-0.1-0.2-0.3-0.2-0.6-0.2c-0.2,0-0.4,0-0.6,0.1
		c-0.2,0.1-0.3,0.2-0.5,0.4v3.5H202.2z M210.5,246.3c-0.3,0-0.6-0.1-0.9-0.2c-0.3-0.1-0.5-0.3-0.7-0.5c-0.2-0.2-0.3-0.5-0.5-0.9
		c-0.1-0.3-0.2-0.7-0.2-1.2c0-0.4,0.1-0.8,0.2-1.2c0.1-0.3,0.3-0.6,0.5-0.9c0.2-0.2,0.4-0.4,0.7-0.5s0.6-0.2,0.8-0.2s0.5,0,0.8,0.1
		s0.4,0.2,0.6,0.4h0l-0.1-0.8v-1.8h1.6v7.5h-1.3l-0.1-0.5h0c-0.2,0.2-0.4,0.4-0.7,0.5C211.1,246.2,210.8,246.3,210.5,246.3z
		 M210.9,245c0.2,0,0.3,0,0.5-0.1c0.1-0.1,0.3-0.2,0.4-0.4v-2.1c-0.1-0.1-0.3-0.2-0.4-0.3c-0.1-0.1-0.3-0.1-0.5-0.1
		c-0.3,0-0.5,0.1-0.8,0.4c-0.2,0.2-0.3,0.6-0.3,1.1c0,0.5,0.1,0.9,0.3,1.2C210.3,244.9,210.6,245,210.9,245z"/>
	<path class="st2" d="M134.7,259.3c-0.4,0-0.8-0.1-1.2-0.2c-0.4-0.1-0.7-0.3-0.9-0.5c-0.3-0.2-0.5-0.5-0.6-0.9s-0.2-0.7-0.2-1.2
		s0.1-0.8,0.2-1.2c0.2-0.4,0.4-0.6,0.7-0.9c0.3-0.2,0.6-0.4,1-0.5c0.4-0.1,0.8-0.2,1.2-0.2c0.4,0,0.8,0.1,1.1,0.2
		c0.3,0.1,0.6,0.3,0.8,0.5l-0.7,1c-0.4-0.3-0.8-0.4-1.2-0.4c-0.5,0-0.8,0.1-1.1,0.4c-0.3,0.3-0.4,0.6-0.4,1.1c0,0.5,0.1,0.8,0.4,1.1
		c0.3,0.3,0.6,0.4,1.1,0.4c0.3,0,0.5,0,0.8-0.1c0.2-0.1,0.4-0.2,0.6-0.4l0.6,1c-0.3,0.3-0.7,0.5-1.1,0.6
		C135.5,259.2,135.1,259.3,134.7,259.3z M140.7,259.3c-0.4,0-0.7-0.1-1-0.2c-0.3-0.1-0.6-0.3-0.9-0.5c-0.2-0.2-0.5-0.5-0.6-0.9
		c-0.1-0.3-0.2-0.7-0.2-1.2s0.1-0.8,0.2-1.2c0.2-0.4,0.4-0.6,0.6-0.9c0.2-0.2,0.5-0.4,0.9-0.5c0.3-0.1,0.7-0.2,1-0.2
		c0.3,0,0.7,0.1,1,0.2c0.3,0.1,0.6,0.3,0.9,0.5c0.3,0.2,0.5,0.5,0.6,0.9c0.1,0.3,0.2,0.7,0.2,1.2s-0.1,0.8-0.2,1.2
		c-0.1,0.3-0.3,0.6-0.6,0.9c-0.2,0.2-0.5,0.4-0.9,0.5C141.3,259.2,141,259.3,140.7,259.3z M140.7,258c0.4,0,0.6-0.1,0.8-0.4
		c0.2-0.3,0.3-0.6,0.3-1.1c0-0.5-0.1-0.8-0.3-1.1c-0.2-0.3-0.4-0.4-0.8-0.4c-0.4,0-0.6,0.1-0.8,0.4c-0.2,0.3-0.3,0.6-0.3,1.1
		c0,0.5,0.1,0.8,0.3,1.1C140,257.9,140.3,258,140.7,258z M144.2,259.2v-5.3h1.2l0.1,0.6h0c0.1-0.2,0.2-0.4,0.4-0.5
		c0.2-0.2,0.4-0.2,0.7-0.2c0.2,0,0.4,0.1,0.6,0.2c0.2,0.1,0.3,0.4,0.3,0.6c0.1-0.2,0.2-0.4,0.4-0.6c0.2-0.2,0.4-0.2,0.8-0.2
		c0.4,0,0.7,0.2,0.9,0.5c0.2,0.3,0.3,0.7,0.3,1.2v3.7h-1.5v-3.6c0-0.2,0-0.3-0.1-0.3c0-0.1-0.1-0.1-0.2-0.1c-0.1,0-0.2,0-0.3,0.1
		c-0.1,0.1-0.1,0.2-0.2,0.4v3.6h-1.2v-3.6c0-0.3-0.1-0.5-0.3-0.5c-0.1,0-0.2,0-0.2,0.1c-0.1,0.1-0.1,0.2-0.2,0.4v3.6H144.2z
		 M151,261.1v-7.2h1.3l0.1,0.5h0c0.2-0.2,0.5-0.4,0.7-0.5c0.3-0.1,0.6-0.2,0.8-0.2c0.3,0,0.6,0.1,0.9,0.2c0.3,0.1,0.5,0.3,0.7,0.5
		c0.2,0.2,0.3,0.5,0.4,0.8c0.1,0.3,0.1,0.7,0.1,1.1c0,0.5-0.1,0.9-0.2,1.2c-0.1,0.4-0.3,0.7-0.5,0.9c-0.2,0.2-0.5,0.4-0.7,0.5
		c-0.3,0.1-0.6,0.2-0.8,0.2c-0.5,0-0.9-0.2-1.3-0.6h0l0.1,0.9v1.5H151z M153.5,258c0.3,0,0.6-0.1,0.8-0.4c0.2-0.2,0.3-0.6,0.3-1.2
		c0-1-0.3-1.4-1-1.4c-0.3,0-0.7,0.2-1,0.5v2.1c0.2,0.1,0.3,0.2,0.5,0.3C153.2,258,153.3,258,153.5,258z M159,259.3
		c-0.3,0-0.5,0-0.7-0.1c-0.2-0.1-0.4-0.2-0.5-0.3c-0.1-0.1-0.3-0.3-0.3-0.5c-0.1-0.2-0.1-0.4-0.1-0.6c0-0.3,0.1-0.6,0.2-0.8
		c0.1-0.2,0.3-0.4,0.6-0.6s0.6-0.3,1.1-0.4c0.4-0.1,1-0.2,1.6-0.2c0-0.2-0.1-0.4-0.3-0.6c-0.2-0.1-0.4-0.2-0.8-0.2
		c-0.2,0-0.5,0-0.8,0.1c-0.3,0.1-0.5,0.2-0.8,0.4l-0.5-1c0.4-0.2,0.8-0.4,1.2-0.5c0.4-0.1,0.9-0.2,1.3-0.2c0.7,0,1.3,0.2,1.8,0.6
		c0.4,0.4,0.6,1,0.6,1.8v3h-1.3l-0.1-0.6h0c-0.3,0.2-0.6,0.4-0.9,0.5C159.7,259.2,159.4,259.3,159,259.3z M159.5,258.1
		c0.2,0,0.4,0,0.7-0.1s0.4-0.2,0.6-0.4v-0.9c-0.4,0-0.7,0.1-1,0.1c-0.2,0-0.5,0.1-0.6,0.2c-0.1,0.1-0.2,0.2-0.3,0.3
		c-0.1,0.1-0.1,0.2-0.1,0.3c0,0.2,0.1,0.3,0.2,0.4C159.1,258,159.3,258.1,159.5,258.1z M164.3,259.2v-5.3h1.3l0.1,1.1h0
		c0.3-0.4,0.6-0.7,0.9-1c0.4-0.2,0.8-0.3,1.2-0.3c0.2,0,0.4,0,0.6,0c0.1,0,0.3,0.1,0.5,0.2l-0.3,1.3c-0.2-0.1-0.3-0.1-0.4-0.1
		c-0.1,0-0.3,0-0.5,0c-0.3,0-0.6,0.1-1,0.3c-0.3,0.2-0.6,0.5-0.8,1v2.8H164.3z M172.4,259.2v-4.1h-2.1v-1.2h3.7v5.3H172.4z
		 M172.6,253.1c-0.3,0-0.6-0.1-0.8-0.2c-0.2-0.2-0.3-0.4-0.3-0.7c0-0.3,0.1-0.5,0.3-0.7c0.2-0.2,0.5-0.3,0.8-0.3
		c0.3,0,0.5,0.1,0.7,0.3c0.2,0.2,0.3,0.4,0.3,0.7c0,0.3-0.1,0.5-0.3,0.7C173.2,253,172.9,253.1,172.6,253.1z M176.6,259.2v-5.3h1.3
		l0.1,0.7h0c0.2-0.2,0.5-0.4,0.8-0.6c0.3-0.2,0.7-0.2,1-0.2c0.6,0,1,0.2,1.3,0.6c0.3,0.4,0.4,0.9,0.4,1.6v3.3H180v-3.1
		c0-0.4-0.1-0.6-0.2-0.8c-0.1-0.2-0.3-0.2-0.6-0.2c-0.2,0-0.4,0-0.6,0.1c-0.2,0.1-0.3,0.2-0.5,0.4v3.5H176.6z M185.2,261.4
		c-0.3,0-0.7,0-1-0.1c-0.3-0.1-0.5-0.1-0.8-0.2c-0.2-0.1-0.4-0.2-0.5-0.4c-0.1-0.2-0.2-0.4-0.2-0.6c0-0.4,0.3-0.8,0.8-1v0
		c-0.1-0.1-0.3-0.2-0.4-0.3c-0.1-0.1-0.2-0.3-0.2-0.6c0-0.2,0.1-0.4,0.2-0.5c0.1-0.2,0.3-0.3,0.5-0.5v0c-0.2-0.1-0.3-0.3-0.5-0.5
		c-0.1-0.2-0.2-0.5-0.2-0.8s0.1-0.6,0.2-0.8c0.1-0.2,0.3-0.4,0.5-0.6c0.2-0.2,0.4-0.3,0.7-0.4c0.3-0.1,0.6-0.1,0.9-0.1
		c0.3,0,0.6,0,0.9,0.1h2.1v1.1h-1.1c0.1,0.1,0.1,0.2,0.2,0.3c0.1,0.1,0.1,0.3,0.1,0.4c0,0.3-0.1,0.6-0.2,0.8s-0.3,0.4-0.5,0.5
		c-0.2,0.1-0.4,0.3-0.7,0.3c-0.3,0.1-0.5,0.1-0.9,0.1c-0.2,0-0.5,0-0.7-0.1c-0.1,0.1-0.1,0.1-0.2,0.2c0,0.1,0,0.1,0,0.2
		c0,0.1,0.1,0.2,0.2,0.3c0.1,0.1,0.4,0.1,0.7,0.1h1c0.7,0,1.2,0.1,1.6,0.3c0.4,0.2,0.5,0.5,0.5,1c0,0.3-0.1,0.5-0.2,0.8
		c-0.1,0.2-0.4,0.4-0.6,0.6c-0.3,0.2-0.6,0.3-1,0.4C186.1,261.4,185.7,261.4,185.2,261.4z M185.3,256.5c0.2,0,0.4-0.1,0.6-0.2
		c0.2-0.1,0.2-0.4,0.2-0.7c0-0.3-0.1-0.5-0.2-0.6c-0.2-0.2-0.3-0.2-0.6-0.2c-0.2,0-0.4,0.1-0.6,0.2c-0.1,0.1-0.2,0.4-0.2,0.6
		c0,0.3,0.1,0.5,0.2,0.7C184.8,256.5,185,256.5,185.3,256.5z M185.4,260.4c0.4,0,0.8-0.1,1-0.2c0.3-0.1,0.4-0.3,0.4-0.4
		c0-0.2-0.1-0.3-0.2-0.3c-0.2,0-0.4-0.1-0.7-0.1h-0.7c-0.2,0-0.3,0-0.5,0c-0.1,0-0.2,0-0.3-0.1c-0.1,0.1-0.2,0.2-0.3,0.2
		c-0.1,0.1-0.1,0.2-0.1,0.3c0,0.2,0.1,0.3,0.4,0.4C184.6,260.4,185,260.4,185.4,260.4z M197.7,259.3c-0.3,0-0.6-0.1-0.9-0.2
		c-0.3-0.1-0.5-0.3-0.7-0.5c-0.2-0.2-0.3-0.5-0.5-0.9c-0.1-0.3-0.2-0.7-0.2-1.2c0-0.4,0.1-0.8,0.2-1.2c0.1-0.3,0.3-0.6,0.5-0.9
		c0.2-0.2,0.4-0.4,0.7-0.5c0.3-0.1,0.6-0.2,0.8-0.2c0.3,0,0.5,0,0.8,0.1c0.2,0.1,0.4,0.2,0.6,0.4h0l-0.1-0.8v-1.8h1.6v7.5h-1.3
		l-0.1-0.5h0c-0.2,0.2-0.4,0.4-0.7,0.5C198.3,259.2,198,259.3,197.7,259.3z M198.1,258c0.2,0,0.3,0,0.5-0.1c0.1-0.1,0.3-0.2,0.4-0.4
		v-2.1c-0.1-0.1-0.3-0.2-0.4-0.3c-0.1-0.1-0.3-0.1-0.5-0.1c-0.3,0-0.5,0.1-0.8,0.4c-0.2,0.2-0.3,0.6-0.3,1.1c0,0.5,0.1,0.9,0.3,1.2
		C197.6,257.9,197.8,258,198.1,258z M203.8,259.3c-0.3,0-0.5,0-0.7-0.1c-0.2-0.1-0.4-0.2-0.5-0.3c-0.1-0.1-0.3-0.3-0.3-0.5
		c-0.1-0.2-0.1-0.4-0.1-0.6c0-0.3,0.1-0.6,0.2-0.8c0.1-0.2,0.3-0.4,0.6-0.6s0.6-0.3,1.1-0.4c0.4-0.1,1-0.2,1.6-0.2
		c0-0.2-0.1-0.4-0.3-0.6c-0.2-0.1-0.4-0.2-0.8-0.2c-0.2,0-0.5,0-0.8,0.1c-0.3,0.1-0.5,0.2-0.8,0.4l-0.5-1c0.4-0.2,0.8-0.4,1.2-0.5
		c0.4-0.1,0.9-0.2,1.3-0.2c0.7,0,1.3,0.2,1.8,0.6c0.4,0.4,0.6,1,0.6,1.8v3h-1.3l-0.1-0.6h0c-0.3,0.2-0.6,0.4-0.9,0.5
		C204.5,259.2,204.1,259.3,203.8,259.3z M204.3,258.1c0.2,0,0.4,0,0.7-0.1c0.2-0.1,0.4-0.2,0.6-0.4v-0.9c-0.4,0-0.7,0.1-1,0.1
		c-0.2,0-0.5,0.1-0.6,0.2c-0.1,0.1-0.2,0.2-0.3,0.3c-0.1,0.1-0.1,0.2-0.1,0.3c0,0.2,0.1,0.3,0.2,0.4
		C203.9,258,204.1,258.1,204.3,258.1z M211.9,259.3c-0.4,0-0.8-0.1-1.1-0.2c-0.3-0.1-0.5-0.3-0.7-0.5c-0.2-0.2-0.3-0.5-0.4-0.7
		c-0.1-0.3-0.1-0.6-0.1-0.9v-1.9h-1.3v-1.2l1.4-0.1l0.2-1.6h1.3v1.6h2.2v1.2h-2.2v1.9c0,0.4,0.1,0.7,0.3,0.9
		c0.2,0.2,0.5,0.2,0.9,0.2c0.2,0,0.4,0,0.5,0c0.2,0,0.3-0.1,0.5-0.2l0.3,1.1c-0.2,0.1-0.5,0.1-0.8,0.2
		C212.6,259.3,212.3,259.3,211.9,259.3z M216.6,259.3c-0.3,0-0.5,0-0.7-0.1c-0.2-0.1-0.4-0.2-0.5-0.3c-0.1-0.1-0.3-0.3-0.3-0.5
		c-0.1-0.2-0.1-0.4-0.1-0.6c0-0.3,0.1-0.6,0.2-0.8c0.1-0.2,0.3-0.4,0.6-0.6s0.6-0.3,1.1-0.4c0.4-0.1,1-0.2,1.6-0.2
		c0-0.2-0.1-0.4-0.3-0.6c-0.2-0.1-0.4-0.2-0.8-0.2c-0.2,0-0.5,0-0.8,0.1c-0.3,0.1-0.5,0.2-0.8,0.4l-0.5-1c0.4-0.2,0.8-0.4,1.2-0.5
		c0.4-0.1,0.9-0.2,1.3-0.2c0.7,0,1.3,0.2,1.8,0.6c0.4,0.4,0.6,1,0.6,1.8v3h-1.3l-0.1-0.6h0c-0.3,0.2-0.6,0.4-0.9,0.5
		C217.3,259.2,216.9,259.3,216.6,259.3z M217.1,258.1c0.2,0,0.4,0,0.7-0.1c0.2-0.1,0.4-0.2,0.6-0.4v-0.9c-0.4,0-0.7,0.1-1,0.1
		c-0.2,0-0.5,0.1-0.6,0.2c-0.1,0.1-0.2,0.2-0.3,0.3c-0.1,0.1-0.1,0.2-0.1,0.3c0,0.2,0.1,0.3,0.2,0.4
		C216.7,258,216.8,258.1,217.1,258.1z"/>
	<path class="st4" d="M102.6,294.5h140.2l6.2,6.2V332l0,0H108.8l-6.2-6.2V294.5z"/>
	<path class="st5" d="M125.4,317v-7h2.5c0.4,0,0.7,0,1,0.1c0.3,0.1,0.6,0.2,0.8,0.4c0.2,0.2,0.4,0.4,0.6,0.7c0.1,0.3,0.2,0.6,0.2,1
		c0,0.5-0.1,0.9-0.3,1.3c-0.2,0.3-0.5,0.6-0.9,0.7l1.6,2.8h-1.8l-1.3-2.5H127v2.5H125.4z M127,313.2h0.8c0.8,0,1.3-0.3,1.3-1
		c0-0.3-0.1-0.6-0.3-0.7c-0.2-0.1-0.5-0.2-0.9-0.2H127V313.2z M134.6,317.1c-0.4,0-0.8-0.1-1.2-0.2c-0.4-0.1-0.7-0.3-0.9-0.5
		c-0.3-0.2-0.5-0.5-0.6-0.9c-0.1-0.3-0.2-0.7-0.2-1.2c0-0.4,0.1-0.8,0.2-1.2c0.2-0.3,0.4-0.6,0.6-0.9c0.3-0.2,0.6-0.4,0.9-0.5
		c0.3-0.1,0.7-0.2,1-0.2c0.4,0,0.8,0.1,1.1,0.2c0.3,0.1,0.6,0.3,0.8,0.5c0.2,0.2,0.4,0.5,0.5,0.8c0.1,0.3,0.2,0.6,0.2,1
		c0,0.1,0,0.3,0,0.4c0,0.1,0,0.2,0,0.3h-3.6c0.1,0.4,0.2,0.7,0.5,0.8c0.3,0.2,0.6,0.3,1.1,0.3c0.2,0,0.5,0,0.7-0.1
		c0.2-0.1,0.4-0.2,0.7-0.3l0.5,1c-0.3,0.2-0.6,0.3-1,0.5C135.3,317.1,134.9,317.1,134.6,317.1z M134.5,312.8c-0.3,0-0.6,0.1-0.8,0.2
		c-0.2,0.2-0.4,0.4-0.4,0.7h2.3C135.4,313.1,135.1,312.8,134.5,312.8z M141.1,317.1c-0.4,0-0.8-0.1-1.2-0.2
		c-0.4-0.1-0.7-0.3-0.9-0.5c-0.3-0.2-0.5-0.5-0.6-0.9c-0.1-0.3-0.2-0.7-0.2-1.2c0-0.4,0.1-0.8,0.2-1.2c0.2-0.4,0.4-0.6,0.7-0.9
		c0.3-0.2,0.6-0.4,1-0.5c0.4-0.1,0.8-0.2,1.2-0.2c0.4,0,0.8,0.1,1.1,0.2c0.3,0.1,0.6,0.3,0.8,0.5l-0.7,1c-0.4-0.3-0.8-0.4-1.2-0.4
		c-0.5,0-0.8,0.1-1.1,0.4c-0.3,0.3-0.4,0.6-0.4,1.1c0,0.5,0.1,0.8,0.4,1.1c0.3,0.3,0.6,0.4,1.1,0.4c0.3,0,0.5,0,0.8-0.1
		c0.2-0.1,0.4-0.2,0.6-0.4l0.6,1c-0.3,0.3-0.7,0.5-1.1,0.6C141.9,317.1,141.5,317.1,141.1,317.1z M147.1,317.1c-0.4,0-0.7-0.1-1-0.2
		c-0.3-0.1-0.6-0.3-0.9-0.5c-0.2-0.2-0.5-0.5-0.6-0.9c-0.1-0.3-0.2-0.7-0.2-1.2c0-0.4,0.1-0.8,0.2-1.2c0.2-0.4,0.4-0.6,0.6-0.9
		c0.3-0.2,0.5-0.4,0.9-0.5c0.3-0.1,0.7-0.2,1-0.2c0.3,0,0.7,0.1,1,0.2c0.3,0.1,0.6,0.3,0.9,0.5c0.3,0.2,0.5,0.5,0.6,0.9
		c0.1,0.3,0.2,0.7,0.2,1.2c0,0.4-0.1,0.8-0.2,1.2c-0.1,0.3-0.3,0.6-0.6,0.9c-0.2,0.2-0.5,0.4-0.9,0.5
		C147.7,317.1,147.4,317.1,147.1,317.1z M147.1,315.9c0.4,0,0.6-0.1,0.8-0.4c0.2-0.3,0.3-0.6,0.3-1.1c0-0.5-0.1-0.8-0.3-1.1
		c-0.2-0.3-0.4-0.4-0.8-0.4c-0.4,0-0.6,0.1-0.8,0.4c-0.2,0.3-0.3,0.6-0.3,1.1c0,0.5,0.1,0.8,0.3,1.1
		C146.4,315.7,146.7,315.9,147.1,315.9z M153.2,319.2c-0.3,0-0.7,0-1-0.1c-0.3-0.1-0.5-0.1-0.8-0.2c-0.2-0.1-0.4-0.2-0.5-0.4
		c-0.1-0.2-0.2-0.4-0.2-0.6c0-0.4,0.3-0.8,0.8-1v0c-0.1-0.1-0.3-0.2-0.4-0.3c-0.1-0.1-0.2-0.3-0.2-0.6c0-0.2,0.1-0.4,0.2-0.5
		c0.1-0.2,0.3-0.3,0.5-0.5v0c-0.2-0.1-0.3-0.3-0.5-0.5c-0.1-0.2-0.2-0.5-0.2-0.8c0-0.3,0.1-0.6,0.2-0.8c0.1-0.2,0.3-0.4,0.5-0.6
		c0.2-0.2,0.4-0.3,0.7-0.4c0.3-0.1,0.6-0.1,0.9-0.1c0.3,0,0.6,0,0.9,0.1h2.1v1.1h-1.1c0.1,0.1,0.1,0.2,0.2,0.3
		c0.1,0.1,0.1,0.3,0.1,0.4c0,0.3-0.1,0.6-0.2,0.8c-0.1,0.2-0.3,0.4-0.5,0.5c-0.2,0.1-0.4,0.3-0.7,0.3c-0.3,0.1-0.5,0.1-0.9,0.1
		c-0.2,0-0.5,0-0.7-0.1c-0.1,0.1-0.1,0.1-0.2,0.2c0,0.1,0,0.1,0,0.2c0,0.1,0.1,0.2,0.2,0.3c0.1,0.1,0.4,0.1,0.7,0.1h1
		c0.7,0,1.2,0.1,1.6,0.3c0.4,0.2,0.5,0.5,0.5,1c0,0.3-0.1,0.5-0.2,0.8c-0.1,0.2-0.4,0.4-0.6,0.6c-0.3,0.2-0.6,0.3-1,0.4
		C154.1,319.2,153.7,319.2,153.2,319.2z M153.3,314.4c0.2,0,0.4-0.1,0.6-0.2c0.2-0.1,0.2-0.4,0.2-0.7c0-0.3-0.1-0.5-0.2-0.6
		c-0.2-0.2-0.3-0.2-0.6-0.2c-0.2,0-0.4,0.1-0.6,0.2c-0.1,0.1-0.2,0.4-0.2,0.6c0,0.3,0.1,0.5,0.2,0.7
		C152.9,314.3,153.1,314.4,153.3,314.4z M153.4,318.2c0.4,0,0.8-0.1,1-0.2c0.3-0.1,0.4-0.3,0.4-0.4c0-0.2-0.1-0.3-0.2-0.3
		c-0.2,0-0.4-0.1-0.7-0.1h-0.7c-0.2,0-0.3,0-0.5,0c-0.1,0-0.2,0-0.3-0.1c-0.1,0.1-0.2,0.2-0.3,0.2c-0.1,0.1-0.1,0.2-0.1,0.3
		c0,0.2,0.1,0.3,0.4,0.4C152.7,318.2,153,318.2,153.4,318.2z M157.4,317v-5.3h1.3l0.1,0.7h0c0.2-0.2,0.5-0.4,0.8-0.6
		c0.3-0.2,0.7-0.3,1-0.2c0.6,0,1,0.2,1.3,0.6c0.3,0.4,0.4,0.9,0.4,1.6v3.3h-1.6v-3.1c0-0.4-0.1-0.6-0.2-0.8
		c-0.1-0.2-0.3-0.3-0.6-0.2c-0.2,0-0.4,0-0.6,0.1c-0.2,0.1-0.3,0.2-0.5,0.4v3.5H157.4z M166,317v-4.1h-2.1v-1.2h3.7v5.3H166z
		 M166.2,310.9c-0.3,0-0.6-0.1-0.8-0.2c-0.2-0.2-0.3-0.4-0.3-0.7c0-0.3,0.1-0.5,0.3-0.7c0.2-0.2,0.5-0.3,0.8-0.3
		c0.3,0,0.5,0.1,0.7,0.3c0.2,0.2,0.3,0.4,0.3,0.7c0,0.3-0.1,0.5-0.3,0.7C166.8,310.8,166.5,310.9,166.2,310.9z M170.2,317v-0.8
		l2.8-3.2h-2.4v-1.2h4.6v0.8l-2.8,3.2h2.8v1.2H170.2z M179.3,317.1c-0.4,0-0.8-0.1-1.2-0.2c-0.4-0.1-0.7-0.3-0.9-0.5
		c-0.3-0.2-0.5-0.5-0.6-0.9c-0.1-0.3-0.2-0.7-0.2-1.2c0-0.4,0.1-0.8,0.2-1.2c0.2-0.3,0.4-0.6,0.6-0.9c0.3-0.2,0.6-0.4,0.9-0.5
		c0.3-0.1,0.7-0.2,1-0.2c0.4,0,0.8,0.1,1.1,0.2c0.3,0.1,0.6,0.3,0.8,0.5c0.2,0.2,0.4,0.5,0.5,0.8c0.1,0.3,0.2,0.6,0.2,1
		c0,0.1,0,0.3,0,0.4c0,0.1,0,0.2,0,0.3H178c0.1,0.4,0.2,0.7,0.5,0.8c0.3,0.2,0.6,0.3,1.1,0.3c0.2,0,0.5,0,0.7-0.1
		c0.2-0.1,0.4-0.2,0.7-0.3l0.5,1c-0.3,0.2-0.6,0.3-1,0.5C180.1,317.1,179.7,317.1,179.3,317.1z M179.2,312.8c-0.3,0-0.6,0.1-0.8,0.2
		c-0.2,0.2-0.4,0.4-0.4,0.7h2.3C180.2,313.1,179.8,312.8,179.2,312.8z M185,317.1c-0.3,0-0.6-0.1-0.9-0.2c-0.3-0.1-0.5-0.3-0.7-0.5
		c-0.2-0.2-0.3-0.5-0.5-0.9c-0.1-0.3-0.2-0.7-0.2-1.2c0-0.4,0.1-0.8,0.2-1.2c0.1-0.3,0.3-0.6,0.5-0.9c0.2-0.2,0.4-0.4,0.7-0.5
		c0.3-0.1,0.6-0.2,0.8-0.2c0.3,0,0.5,0,0.8,0.1c0.2,0.1,0.4,0.2,0.6,0.4h0l-0.1-0.8v-1.8h1.6v7.5h-1.3l-0.1-0.5h0
		c-0.2,0.2-0.4,0.4-0.7,0.5C185.5,317.1,185.2,317.1,185,317.1z M185.4,315.8c0.2,0,0.3,0,0.5-0.1c0.1-0.1,0.3-0.2,0.4-0.4v-2.1
		c-0.1-0.1-0.3-0.2-0.4-0.3c-0.1-0.1-0.3-0.1-0.5-0.1c-0.3,0-0.5,0.1-0.8,0.4c-0.2,0.2-0.3,0.6-0.3,1.1c0,0.5,0.1,0.9,0.3,1.2
		C184.8,315.7,185,315.8,185.4,315.8z M195.8,317v-5.3h1.3l0.1,0.7h0c0.2-0.2,0.5-0.4,0.8-0.6c0.3-0.2,0.7-0.3,1-0.2
		c0.6,0,1,0.2,1.3,0.6c0.3,0.4,0.4,0.9,0.4,1.6v3.3h-1.6v-3.1c0-0.4-0.1-0.6-0.2-0.8c-0.1-0.2-0.3-0.3-0.6-0.2c-0.2,0-0.4,0-0.6,0.1
		c-0.2,0.1-0.3,0.2-0.5,0.4v3.5H195.8z M204.9,317.1c-0.4,0-0.8-0.1-1.2-0.2c-0.4-0.1-0.7-0.3-0.9-0.5c-0.3-0.2-0.5-0.5-0.6-0.9
		c-0.1-0.3-0.2-0.7-0.2-1.2c0-0.4,0.1-0.8,0.2-1.2c0.2-0.3,0.4-0.6,0.6-0.9c0.3-0.2,0.6-0.4,0.9-0.5c0.3-0.1,0.7-0.2,1-0.2
		c0.4,0,0.8,0.1,1.1,0.2c0.3,0.1,0.6,0.3,0.8,0.5c0.2,0.2,0.4,0.5,0.5,0.8c0.1,0.3,0.2,0.6,0.2,1c0,0.1,0,0.3,0,0.4
		c0,0.1,0,0.2,0,0.3h-3.6c0.1,0.4,0.2,0.7,0.5,0.8c0.3,0.2,0.6,0.3,1.1,0.3c0.2,0,0.5,0,0.7-0.1c0.2-0.1,0.4-0.2,0.7-0.3l0.5,1
		c-0.3,0.2-0.6,0.3-1,0.5C205.6,317.1,205.3,317.1,204.9,317.1z M204.8,312.8c-0.3,0-0.6,0.1-0.8,0.2c-0.2,0.2-0.4,0.4-0.4,0.7h2.3
		C205.8,313.1,205.4,312.8,204.8,312.8z M208.7,317l-0.9-5.3h1.5l0.3,2.5c0,0.3,0.1,0.5,0.1,0.8c0,0.2,0.1,0.5,0.1,0.8h0
		c0-0.3,0.1-0.5,0.1-0.8c0-0.3,0.1-0.5,0.1-0.8l0.3-1.8h1.1l0.3,1.8c0.1,0.3,0.1,0.5,0.2,0.8c0,0.2,0.1,0.5,0.1,0.8h0
		c0-0.3,0.1-0.5,0.1-0.8c0-0.3,0-0.5,0.1-0.8l0.3-2.5h1.4l-0.8,5.3h-1.8l-0.3-1.7c0-0.2-0.1-0.5-0.1-0.7c0-0.3-0.1-0.5-0.1-0.8h0
		c0,0.2,0,0.5-0.1,0.7c0,0.2-0.1,0.5-0.1,0.9l-0.3,1.7H208.7z M217.3,317.1c-0.5,0-0.9-0.1-1.4-0.2c-0.4-0.2-0.8-0.3-1.2-0.6l0.7-1
		c0.3,0.2,0.7,0.4,1,0.5c0.4,0.1,0.7,0.2,1.1,0.2c0.3,0,0.5,0,0.6-0.1c0.1-0.1,0.2-0.2,0.2-0.3c0-0.1,0-0.1-0.1-0.2
		c0-0.1-0.1-0.1-0.2-0.2c-0.1,0-0.2-0.1-0.4-0.1c-0.2-0.1-0.4-0.1-0.6-0.2c-0.7-0.2-1.2-0.4-1.5-0.6c-0.3-0.3-0.5-0.6-0.5-1
		c0-0.2,0.1-0.5,0.2-0.7c0.1-0.2,0.3-0.4,0.5-0.5c0.2-0.1,0.5-0.3,0.8-0.3c0.3-0.1,0.6-0.1,1-0.1c0.5,0,0.9,0.1,1.3,0.2
		c0.4,0.1,0.7,0.3,1,0.5l-0.7,0.9c-0.3-0.2-0.6-0.3-0.8-0.4c-0.3-0.1-0.6-0.1-0.9-0.1c-0.2,0-0.4,0-0.6,0.1
		c-0.1,0.1-0.2,0.2-0.2,0.3c0,0.2,0.1,0.3,0.3,0.3c0.2,0.1,0.5,0.1,1,0.2c0.4,0.1,0.7,0.2,1,0.3c0.3,0.1,0.5,0.2,0.6,0.4
		c0.2,0.1,0.3,0.3,0.3,0.5c0.1,0.2,0.1,0.4,0.1,0.6c0,0.2-0.1,0.5-0.2,0.7c-0.1,0.2-0.3,0.4-0.5,0.5c-0.2,0.1-0.5,0.3-0.8,0.4
		C218.1,317.1,217.8,317.1,217.3,317.1z M222.9,314.3c0-0.2,0-0.4,0-0.6c0.1-0.2,0.1-0.4,0.2-0.5c0.1-0.1,0.2-0.3,0.4-0.4
		c0.1-0.1,0.3-0.2,0.4-0.4c0.1-0.1,0.2-0.2,0.3-0.3c0.1-0.1,0.1-0.2,0.1-0.4c0-0.2-0.1-0.4-0.2-0.5c-0.1-0.1-0.3-0.2-0.6-0.2
		c-0.2,0-0.4,0-0.6,0.1c-0.2,0.1-0.3,0.2-0.5,0.3l-0.9-0.8c0.2-0.3,0.5-0.5,0.9-0.7c0.4-0.2,0.7-0.3,1.2-0.3c0.3,0,0.6,0,0.9,0.1
		c0.3,0.1,0.5,0.2,0.7,0.3c0.2,0.1,0.4,0.3,0.5,0.5c0.1,0.2,0.2,0.5,0.2,0.8c0,0.2,0,0.4-0.1,0.6c-0.1,0.2-0.2,0.3-0.3,0.5
		c-0.1,0.1-0.3,0.3-0.4,0.4c-0.1,0.1-0.3,0.2-0.4,0.4c-0.1,0.1-0.2,0.3-0.3,0.4c-0.1,0.1-0.1,0.3-0.1,0.5H222.9z M223.6,317.1
		c-0.3,0-0.6-0.1-0.8-0.3c-0.2-0.2-0.3-0.5-0.3-0.8c0-0.3,0.1-0.6,0.3-0.8c0.2-0.2,0.5-0.3,0.8-0.3c0.3,0,0.6,0.1,0.8,0.3
		c0.2,0.2,0.3,0.5,0.3,0.8c0,0.3-0.1,0.6-0.3,0.8C224.2,317,223.9,317.1,223.6,317.1z"/>
	<path class="st0" d="M102.6,358.9h140.2l6.2,6.2v31.2l0,0H108.8l-6.2-6.2V358.9z"/>
	<path class="st1" d="M102.6,358.9h140.2l6.2,6.2v31.2l0,0H108.8l-6.2-6.2V358.9z"/>
	<path class="st2" d="M121.5,375c-0.5,0-0.9-0.1-1.4-0.2c-0.5-0.2-0.9-0.4-1.2-0.8l0.9-1.1c0.3,0.2,0.5,0.4,0.9,0.5
		c0.3,0.1,0.6,0.2,1,0.2c0.3,0,0.6-0.1,0.8-0.2c0.2-0.1,0.2-0.3,0.2-0.4c0-0.1,0-0.2-0.1-0.3c-0.1-0.1-0.1-0.2-0.2-0.2
		c-0.1-0.1-0.2-0.1-0.3-0.2c-0.1-0.1-0.3-0.1-0.5-0.2l-0.9-0.4c-0.2-0.1-0.4-0.2-0.6-0.3c-0.2-0.1-0.3-0.2-0.5-0.4
		c-0.1-0.2-0.2-0.3-0.3-0.5c-0.1-0.2-0.1-0.4-0.1-0.7c0-0.3,0.1-0.5,0.2-0.8c0.1-0.3,0.3-0.5,0.5-0.7c0.2-0.2,0.5-0.3,0.8-0.4
		c0.3-0.1,0.7-0.2,1-0.2c0.4,0,0.8,0.1,1.2,0.2c0.4,0.2,0.8,0.4,1.1,0.7l-0.8,1c-0.2-0.2-0.5-0.3-0.7-0.4c-0.2-0.1-0.5-0.1-0.9-0.1
		c-0.3,0-0.5,0.1-0.6,0.2c-0.2,0.1-0.2,0.3-0.2,0.5c0,0.2,0.1,0.4,0.3,0.5c0.2,0.1,0.5,0.2,0.8,0.3l0.8,0.4c0.5,0.2,0.8,0.4,1.1,0.7
		c0.3,0.3,0.4,0.7,0.4,1.2c0,0.3-0.1,0.6-0.2,0.8c-0.1,0.3-0.3,0.5-0.5,0.7c-0.2,0.2-0.5,0.4-0.8,0.5
		C122.3,374.9,121.9,375,121.5,375z M125.4,374.8v-7.5h1.6v1.8l-0.1,1h0c0.2-0.2,0.4-0.4,0.7-0.5c0.3-0.2,0.6-0.2,1-0.2
		c0.6,0,1,0.2,1.3,0.6c0.3,0.4,0.4,0.9,0.4,1.6v3.3h-1.6v-3.1c0-0.4-0.1-0.6-0.2-0.8c-0.1-0.2-0.3-0.3-0.6-0.2c-0.2,0-0.4,0-0.6,0.1
		c-0.2,0.1-0.3,0.2-0.5,0.4v3.5H125.4z M134.3,375c-0.4,0-0.7-0.1-1-0.2c-0.3-0.1-0.6-0.3-0.9-0.5c-0.2-0.2-0.5-0.5-0.6-0.9
		c-0.1-0.3-0.2-0.7-0.2-1.2c0-0.4,0.1-0.8,0.2-1.2c0.2-0.4,0.4-0.6,0.6-0.9c0.2-0.2,0.5-0.4,0.9-0.5c0.3-0.1,0.7-0.2,1-0.2
		c0.3,0,0.7,0.1,1,0.2c0.3,0.1,0.6,0.3,0.9,0.5c0.3,0.2,0.5,0.5,0.6,0.9c0.1,0.3,0.2,0.7,0.2,1.2c0,0.4-0.1,0.8-0.2,1.2
		c-0.1,0.3-0.3,0.6-0.6,0.9c-0.2,0.2-0.5,0.4-0.9,0.5C134.9,374.9,134.6,375,134.3,375z M134.3,373.7c0.4,0,0.6-0.1,0.8-0.4
		c0.2-0.3,0.3-0.6,0.3-1.1c0-0.5-0.1-0.8-0.3-1.1c-0.2-0.3-0.4-0.4-0.8-0.4c-0.4,0-0.6,0.1-0.8,0.4c-0.2,0.3-0.3,0.6-0.3,1.1
		c0,0.5,0.1,0.8,0.3,1.1C133.6,373.6,133.9,373.7,134.3,373.7z M138.4,374.8l-0.9-5.3h1.5l0.3,2.5c0,0.3,0.1,0.5,0.1,0.8
		c0,0.2,0.1,0.5,0.1,0.8h0c0-0.3,0.1-0.5,0.1-0.8c0-0.3,0.1-0.5,0.1-0.8l0.3-1.8h1.1l0.3,1.8c0.1,0.3,0.1,0.5,0.2,0.8
		c0,0.2,0.1,0.5,0.1,0.8h0c0-0.3,0.1-0.5,0.1-0.8c0-0.3,0-0.5,0.1-0.8l0.3-2.5h1.4l-0.8,5.3h-1.8l-0.3-1.7c0-0.2-0.1-0.5-0.1-0.7
		c0-0.3-0.1-0.5-0.1-0.8h0c0,0.2,0,0.5-0.1,0.7c0,0.2-0.1,0.5-0.1,0.9l-0.3,1.7H138.4z M154.4,375c-0.4,0-0.8-0.1-1.1-0.2
		c-0.3-0.1-0.5-0.3-0.7-0.5c-0.2-0.2-0.3-0.5-0.4-0.7c-0.1-0.3-0.1-0.6-0.1-0.9v-1.9h-1.3v-1.2l1.4-0.1l0.2-1.6h1.3v1.6h2.2v1.2
		h-2.2v1.9c0,0.4,0.1,0.7,0.3,0.9c0.2,0.2,0.5,0.2,0.9,0.2c0.2,0,0.4,0,0.5,0c0.2,0,0.3-0.1,0.5-0.2l0.3,1.1
		c-0.2,0.1-0.5,0.1-0.8,0.2C155.1,374.9,154.7,375,154.4,375z M157.4,374.8v-7.5h1.6v1.8l-0.1,1h0c0.2-0.2,0.4-0.4,0.7-0.5
		c0.3-0.2,0.6-0.2,1-0.2c0.6,0,1,0.2,1.3,0.6c0.3,0.4,0.4,0.9,0.4,1.6v3.3h-1.6v-3.1c0-0.4-0.1-0.6-0.2-0.8
		c-0.1-0.2-0.3-0.3-0.6-0.2c-0.2,0-0.4,0-0.6,0.1c-0.2,0.1-0.3,0.2-0.5,0.4v3.5H157.4z M166.6,375c-0.4,0-0.8-0.1-1.2-0.2
		c-0.4-0.1-0.7-0.3-0.9-0.5c-0.3-0.2-0.5-0.5-0.6-0.9c-0.1-0.3-0.2-0.7-0.2-1.2c0-0.4,0.1-0.8,0.2-1.2c0.2-0.3,0.4-0.6,0.6-0.9
		c0.3-0.2,0.6-0.4,0.9-0.5c0.3-0.1,0.7-0.2,1-0.2c0.4,0,0.8,0.1,1.1,0.2c0.3,0.1,0.6,0.3,0.8,0.5c0.2,0.2,0.4,0.5,0.5,0.8
		c0.1,0.3,0.2,0.6,0.2,1c0,0.1,0,0.3,0,0.4c0,0.1,0,0.2,0,0.3h-3.6c0.1,0.4,0.2,0.7,0.5,0.8c0.3,0.2,0.6,0.3,1.1,0.3
		c0.2,0,0.5,0,0.7-0.1c0.2-0.1,0.4-0.2,0.7-0.3l0.5,1c-0.3,0.2-0.6,0.3-1,0.5C167.3,374.9,166.9,375,166.6,375z M166.4,370.6
		c-0.3,0-0.6,0.1-0.8,0.2c-0.2,0.2-0.4,0.4-0.4,0.7h2.3C167.4,370.9,167,370.6,166.4,370.6z M178.1,374.8v-4.1h-1.4v-1.2l1.4-0.1
		v-0.1c0-0.3,0-0.6,0.1-0.8c0.1-0.3,0.2-0.5,0.4-0.7c0.2-0.2,0.4-0.4,0.7-0.5c0.3-0.1,0.7-0.2,1.1-0.2c0.3,0,0.6,0,0.8,0.1
		c0.3,0.1,0.5,0.1,0.8,0.2l-0.3,1.2c-0.4-0.1-0.7-0.2-1.1-0.2c-0.3,0-0.6,0.1-0.8,0.2c-0.2,0.1-0.2,0.4-0.2,0.7v0.2h1.8v1.2h-1.8
		v4.1H178.1z M184.6,375c-0.3,0-0.5,0-0.7-0.1c-0.2-0.1-0.4-0.2-0.5-0.3c-0.1-0.1-0.3-0.3-0.3-0.5c-0.1-0.2-0.1-0.4-0.1-0.6
		c0-0.3,0.1-0.6,0.2-0.8c0.1-0.2,0.3-0.4,0.6-0.6c0.3-0.2,0.6-0.3,1.1-0.4c0.4-0.1,1-0.2,1.6-0.2c0-0.2-0.1-0.4-0.3-0.6
		c-0.2-0.1-0.4-0.2-0.8-0.2c-0.2,0-0.5,0-0.8,0.1c-0.3,0.1-0.5,0.2-0.8,0.4l-0.5-1c0.4-0.2,0.8-0.4,1.2-0.5c0.4-0.1,0.9-0.2,1.3-0.2
		c0.7,0,1.3,0.2,1.8,0.6c0.4,0.4,0.6,1,0.6,1.8v3h-1.3l-0.1-0.6h0c-0.3,0.2-0.6,0.4-0.9,0.5C185.3,374.9,185,375,184.6,375z
		 M185.1,373.7c0.2,0,0.4,0,0.7-0.1c0.2-0.1,0.4-0.2,0.6-0.4v-0.9c-0.4,0-0.7,0.1-1,0.1c-0.2,0-0.5,0.1-0.6,0.2
		c-0.1,0.1-0.2,0.2-0.3,0.3c-0.1,0.1-0.1,0.2-0.1,0.3c0,0.2,0.1,0.3,0.2,0.4C184.7,373.7,184.9,373.7,185.1,373.7z M189.4,374.8
		v-7.5h1.6v4.3h0l1.9-2.1h1.7l-2,2.1l2.2,3.1h-1.7l-1.4-2.2l-0.8,0.8v1.3H189.4z M198.5,375c-0.4,0-0.8-0.1-1.2-0.2
		c-0.4-0.1-0.7-0.3-0.9-0.5c-0.3-0.2-0.5-0.5-0.6-0.9c-0.1-0.3-0.2-0.7-0.2-1.2c0-0.4,0.1-0.8,0.2-1.2c0.2-0.3,0.4-0.6,0.6-0.9
		c0.3-0.2,0.6-0.4,0.9-0.5c0.3-0.1,0.7-0.2,1-0.2c0.4,0,0.8,0.1,1.1,0.2c0.3,0.1,0.6,0.3,0.8,0.5c0.2,0.2,0.4,0.5,0.5,0.8
		c0.1,0.3,0.2,0.6,0.2,1c0,0.1,0,0.3,0,0.4c0,0.1,0,0.2,0,0.3h-3.6c0.1,0.4,0.2,0.7,0.5,0.8c0.3,0.2,0.6,0.3,1.1,0.3
		c0.2,0,0.5,0,0.7-0.1c0.2-0.1,0.4-0.2,0.7-0.3l0.5,1c-0.3,0.2-0.6,0.3-1,0.5C199.2,374.9,198.9,375,198.5,375z M198.4,370.6
		c-0.3,0-0.6,0.1-0.8,0.2c-0.2,0.2-0.4,0.4-0.4,0.7h2.3C199.4,370.9,199,370.6,198.4,370.6z M202.2,376.5l3.5-9.3h1.3l-3.5,9.3
		H202.2z M209,374.8v-5.3h1.3l0.1,1.1h0c0.3-0.4,0.6-0.7,0.9-1c0.4-0.2,0.8-0.3,1.2-0.3c0.2,0,0.4,0,0.6,0c0.1,0,0.3,0.1,0.5,0.2
		l-0.3,1.3c-0.2-0.1-0.3-0.1-0.4-0.1c-0.1,0-0.3,0-0.5,0c-0.3,0-0.6,0.1-1,0.3c-0.3,0.2-0.6,0.5-0.8,1v2.8H209z M217.7,375
		c-0.4,0-0.8-0.1-1.2-0.2c-0.4-0.1-0.7-0.3-0.9-0.5c-0.3-0.2-0.5-0.5-0.6-0.9c-0.1-0.3-0.2-0.7-0.2-1.2c0-0.4,0.1-0.8,0.2-1.2
		c0.2-0.3,0.4-0.6,0.6-0.9c0.3-0.2,0.6-0.4,0.9-0.5c0.3-0.1,0.7-0.2,1-0.2c0.4,0,0.8,0.1,1.1,0.2c0.3,0.1,0.6,0.3,0.8,0.5
		c0.2,0.2,0.4,0.5,0.5,0.8c0.1,0.3,0.2,0.6,0.2,1c0,0.1,0,0.3,0,0.4c0,0.1,0,0.2,0,0.3h-3.6c0.1,0.4,0.2,0.7,0.5,0.8
		c0.3,0.2,0.6,0.3,1.1,0.3c0.2,0,0.5,0,0.7-0.1c0.2-0.1,0.4-0.2,0.7-0.3l0.5,1c-0.3,0.2-0.6,0.3-1,0.5
		C218.4,374.9,218.1,375,217.7,375z M217.6,370.6c-0.3,0-0.6,0.1-0.8,0.2c-0.2,0.2-0.4,0.4-0.4,0.7h2.3
		C218.5,370.9,218.2,370.6,217.6,370.6z M223,375c-0.3,0-0.5,0-0.7-0.1c-0.2-0.1-0.4-0.2-0.5-0.3c-0.1-0.1-0.3-0.3-0.3-0.5
		c-0.1-0.2-0.1-0.4-0.1-0.6c0-0.3,0.1-0.6,0.2-0.8c0.1-0.2,0.3-0.4,0.6-0.6c0.3-0.2,0.6-0.3,1.1-0.4c0.4-0.1,1-0.2,1.6-0.2
		c0-0.2-0.1-0.4-0.3-0.6c-0.2-0.1-0.4-0.2-0.8-0.2c-0.2,0-0.5,0-0.8,0.1c-0.3,0.1-0.5,0.2-0.8,0.4l-0.5-1c0.4-0.2,0.8-0.4,1.2-0.5
		c0.4-0.1,0.9-0.2,1.3-0.2c0.7,0,1.3,0.2,1.8,0.6c0.4,0.4,0.6,1,0.6,1.8v3H225l-0.1-0.6h0c-0.3,0.2-0.6,0.4-0.9,0.5
		C223.6,374.9,223.3,375,223,375z M223.5,373.7c0.2,0,0.4,0,0.7-0.1c0.2-0.1,0.4-0.2,0.6-0.4v-0.9c-0.4,0-0.7,0.1-1,0.1
		c-0.2,0-0.5,0.1-0.6,0.2c-0.1,0.1-0.2,0.2-0.3,0.3c-0.1,0.1-0.1,0.2-0.1,0.3c0,0.2,0.1,0.3,0.2,0.4
		C223.1,373.7,223.2,373.7,223.5,373.7z M231.2,375c-0.7,0-1.2-0.2-1.5-0.6c-0.3-0.4-0.5-0.9-0.5-1.6v-4.2h-1.7v-1.2h3.2v5.5
		c0,0.2,0,0.3,0.1,0.4c0.1,0.1,0.1,0.2,0.2,0.3c0.1,0.1,0.2,0.1,0.3,0.1c0.1,0,0.2,0,0.3,0c0.1,0,0.2,0,0.4,0c0.1,0,0.3-0.1,0.5-0.1
		l0.3,1.2c-0.1,0-0.3,0.1-0.4,0.1c-0.1,0-0.2,0.1-0.4,0.1c-0.1,0-0.2,0-0.4,0C231.5,374.9,231.3,375,231.2,375z"/>
	<path class="st2" d="M163.8,387.8v-5.3h1.3l0.1,0.7h0c0.2-0.2,0.5-0.4,0.8-0.6c0.3-0.2,0.7-0.3,1-0.2c0.6,0,1,0.2,1.3,0.6
		c0.3,0.4,0.4,0.9,0.4,1.6v3.3h-1.6v-3.1c0-0.4-0.1-0.6-0.2-0.8c-0.1-0.2-0.3-0.3-0.6-0.2c-0.2,0-0.4,0-0.6,0.1
		c-0.2,0.1-0.3,0.2-0.5,0.4v3.5H163.8z M172.9,388c-0.4,0-0.8-0.1-1.2-0.2c-0.4-0.1-0.7-0.3-0.9-0.5c-0.3-0.2-0.5-0.5-0.6-0.9
		c-0.1-0.3-0.2-0.7-0.2-1.2c0-0.4,0.1-0.8,0.2-1.2c0.2-0.3,0.4-0.6,0.6-0.9c0.3-0.2,0.6-0.4,0.9-0.5c0.3-0.1,0.7-0.2,1-0.2
		c0.4,0,0.8,0.1,1.1,0.2c0.3,0.1,0.6,0.3,0.8,0.5c0.2,0.2,0.4,0.5,0.5,0.8c0.1,0.3,0.2,0.6,0.2,1c0,0.1,0,0.3,0,0.4
		c0,0.1,0,0.2,0,0.3h-3.6c0.1,0.4,0.2,0.7,0.5,0.8c0.3,0.2,0.6,0.3,1.1,0.3c0.2,0,0.5,0,0.7-0.1c0.2-0.1,0.4-0.2,0.7-0.3l0.5,1
		c-0.3,0.2-0.6,0.3-1,0.5C173.7,387.9,173.3,388,172.9,388z M172.8,383.6c-0.3,0-0.6,0.1-0.8,0.2c-0.2,0.2-0.4,0.4-0.4,0.7h2.3
		C173.8,383.9,173.4,383.6,172.8,383.6z M176.7,387.8l-0.9-5.3h1.5l0.3,2.5c0,0.3,0.1,0.5,0.1,0.8c0,0.2,0.1,0.5,0.1,0.8h0
		c0-0.3,0.1-0.5,0.1-0.8c0-0.3,0.1-0.5,0.1-0.8l0.3-1.8h1.1l0.3,1.8c0.1,0.3,0.1,0.5,0.2,0.8c0,0.2,0.1,0.5,0.1,0.8h0
		c0-0.3,0.1-0.5,0.1-0.8c0-0.3,0-0.5,0.1-0.8l0.3-2.5h1.4l-0.8,5.3h-1.8l-0.3-1.7c0-0.2-0.1-0.5-0.1-0.7c0-0.3-0.1-0.5-0.1-0.8h0
		c0,0.2,0,0.5-0.1,0.7c0,0.2-0.1,0.5-0.1,0.9l-0.3,1.7H176.7z M185.4,388c-0.5,0-0.9-0.1-1.4-0.2c-0.4-0.2-0.8-0.3-1.2-0.6l0.7-1
		c0.3,0.2,0.7,0.4,1,0.5c0.4,0.1,0.7,0.2,1.1,0.2c0.3,0,0.5,0,0.6-0.1c0.1-0.1,0.2-0.2,0.2-0.3c0-0.1,0-0.1-0.1-0.2
		c0-0.1-0.1-0.1-0.2-0.2c-0.1,0-0.2-0.1-0.4-0.1c-0.2-0.1-0.4-0.1-0.6-0.2c-0.7-0.2-1.2-0.4-1.5-0.6c-0.3-0.3-0.5-0.6-0.5-1
		c0-0.2,0.1-0.5,0.2-0.7c0.1-0.2,0.3-0.4,0.5-0.5c0.2-0.1,0.5-0.3,0.8-0.3c0.3-0.1,0.6-0.1,1-0.1c0.5,0,0.9,0.1,1.3,0.2
		c0.4,0.1,0.7,0.3,1,0.5l-0.7,0.9c-0.3-0.2-0.6-0.3-0.8-0.4c-0.3-0.1-0.6-0.1-0.9-0.1c-0.2,0-0.4,0-0.6,0.1
		c-0.1,0.1-0.2,0.2-0.2,0.3c0,0.2,0.1,0.3,0.3,0.3c0.2,0.1,0.5,0.1,1,0.2c0.4,0.1,0.7,0.2,1,0.3c0.3,0.1,0.5,0.2,0.6,0.4
		c0.2,0.1,0.3,0.3,0.3,0.5c0.1,0.2,0.1,0.4,0.1,0.6c0,0.2-0.1,0.5-0.2,0.7c-0.1,0.2-0.3,0.4-0.5,0.5c-0.2,0.1-0.5,0.3-0.8,0.4
		C186.2,387.9,185.8,388,185.4,388z"/>
	<path class="st0" d="M287.5,294.5h140.2l6.2,6.2V332l0,0H293.8l-6.2-6.2V294.5z"/>
	<path class="st1" d="M287.5,294.5h140.2l6.2,6.2V332l0,0H293.8l-6.2-6.2V294.5z"/>
	<path class="st2" d="M316,310.6c-0.5,0-0.9-0.1-1.4-0.2c-0.5-0.2-0.9-0.4-1.2-0.8l0.9-1.1c0.3,0.2,0.5,0.4,0.9,0.5
		c0.3,0.1,0.6,0.2,1,0.2c0.3,0,0.6-0.1,0.8-0.2c0.2-0.1,0.2-0.3,0.2-0.4c0-0.1,0-0.2-0.1-0.3c-0.1-0.1-0.1-0.2-0.2-0.2
		c-0.1-0.1-0.2-0.1-0.3-0.2c-0.1-0.1-0.3-0.1-0.5-0.2l-0.9-0.4c-0.2-0.1-0.4-0.2-0.6-0.3c-0.2-0.1-0.3-0.2-0.5-0.4
		c-0.1-0.2-0.2-0.3-0.3-0.5c-0.1-0.2-0.1-0.4-0.1-0.7c0-0.3,0.1-0.5,0.2-0.8c0.1-0.3,0.3-0.5,0.5-0.7c0.2-0.2,0.5-0.3,0.8-0.4
		c0.3-0.1,0.7-0.2,1-0.2c0.4,0,0.8,0.1,1.2,0.2c0.4,0.2,0.8,0.4,1.1,0.7l-0.8,1c-0.2-0.2-0.5-0.3-0.7-0.4c-0.2-0.1-0.5-0.1-0.9-0.1
		c-0.3,0-0.5,0.1-0.6,0.2c-0.2,0.1-0.2,0.3-0.2,0.5c0,0.2,0.1,0.4,0.3,0.5c0.2,0.1,0.5,0.2,0.8,0.3l0.8,0.4c0.5,0.2,0.8,0.4,1.1,0.7
		c0.3,0.3,0.4,0.7,0.4,1.2c0,0.3-0.1,0.6-0.2,0.8c-0.1,0.3-0.3,0.5-0.5,0.7c-0.2,0.2-0.5,0.4-0.8,0.5
		C316.8,310.6,316.4,310.6,316,310.6z M321.6,310.6c-0.6,0-1-0.2-1.3-0.6c-0.3-0.4-0.4-0.9-0.4-1.6v-3.2h1.6v3
		c0,0.4,0.1,0.6,0.2,0.8c0.1,0.2,0.3,0.2,0.6,0.2c0.2,0,0.4,0,0.5-0.1c0.2-0.1,0.3-0.2,0.5-0.5v-3.5h1.6v5.3h-1.3l-0.1-0.8h0
		c-0.2,0.3-0.5,0.5-0.8,0.6C322.3,310.5,322,310.6,321.6,310.6z M328.5,312.7c-0.3,0-0.7,0-1-0.1c-0.3-0.1-0.5-0.1-0.8-0.2
		c-0.2-0.1-0.4-0.2-0.5-0.4c-0.1-0.2-0.2-0.4-0.2-0.6c0-0.4,0.3-0.8,0.8-1v0c-0.1-0.1-0.3-0.2-0.4-0.3c-0.1-0.1-0.2-0.3-0.2-0.6
		c0-0.2,0.1-0.4,0.2-0.5c0.1-0.2,0.3-0.3,0.5-0.5v0c-0.2-0.1-0.3-0.3-0.5-0.5c-0.1-0.2-0.2-0.5-0.2-0.8c0-0.3,0.1-0.6,0.2-0.8
		c0.1-0.2,0.3-0.4,0.5-0.6c0.2-0.2,0.4-0.3,0.7-0.4c0.3-0.1,0.6-0.1,0.9-0.1c0.3,0,0.6,0,0.9,0.1h2.1v1.1h-1.1
		c0.1,0.1,0.1,0.2,0.2,0.3c0.1,0.1,0.1,0.3,0.1,0.4c0,0.3-0.1,0.6-0.2,0.8c-0.1,0.2-0.3,0.4-0.5,0.5c-0.2,0.1-0.4,0.3-0.7,0.3
		c-0.3,0.1-0.5,0.1-0.9,0.1c-0.2,0-0.5,0-0.7-0.1c-0.1,0.1-0.1,0.1-0.2,0.2c0,0.1,0,0.1,0,0.2c0,0.1,0.1,0.2,0.2,0.3
		c0.1,0.1,0.4,0.1,0.7,0.1h1c0.7,0,1.2,0.1,1.6,0.3c0.4,0.2,0.5,0.5,0.5,1c0,0.3-0.1,0.5-0.2,0.8c-0.1,0.2-0.4,0.4-0.6,0.6
		c-0.3,0.2-0.6,0.3-1,0.4C329.5,312.7,329,312.7,328.5,312.7z M328.6,307.9c0.2,0,0.4-0.1,0.6-0.2c0.2-0.1,0.2-0.4,0.2-0.7
		c0-0.3-0.1-0.5-0.2-0.6c-0.2-0.2-0.3-0.2-0.6-0.2c-0.2,0-0.4,0.1-0.6,0.2c-0.1,0.1-0.2,0.4-0.2,0.6c0,0.3,0.1,0.5,0.2,0.7
		C328.2,307.8,328.4,307.9,328.6,307.9z M328.8,311.7c0.4,0,0.8-0.1,1-0.2c0.3-0.1,0.4-0.3,0.4-0.4c0-0.2-0.1-0.3-0.2-0.3
		c-0.2,0-0.4-0.1-0.7-0.1h-0.7c-0.2,0-0.3,0-0.5,0c-0.1,0-0.2,0-0.3-0.1c-0.1,0.1-0.2,0.2-0.3,0.2c-0.1,0.1-0.1,0.2-0.1,0.3
		c0,0.2,0.1,0.3,0.4,0.4C328,311.7,328.3,311.7,328.8,311.7z M334.9,312.7c-0.3,0-0.7,0-1-0.1c-0.3-0.1-0.5-0.1-0.8-0.2
		c-0.2-0.1-0.4-0.2-0.5-0.4c-0.1-0.2-0.2-0.4-0.2-0.6c0-0.4,0.3-0.8,0.8-1v0c-0.1-0.1-0.3-0.2-0.4-0.3c-0.1-0.1-0.2-0.3-0.2-0.6
		c0-0.2,0.1-0.4,0.2-0.5c0.1-0.2,0.3-0.3,0.5-0.5v0c-0.2-0.1-0.3-0.3-0.5-0.5c-0.1-0.2-0.2-0.5-0.2-0.8c0-0.3,0.1-0.6,0.2-0.8
		c0.1-0.2,0.3-0.4,0.5-0.6c0.2-0.2,0.4-0.3,0.7-0.4c0.3-0.1,0.6-0.1,0.9-0.1c0.3,0,0.6,0,0.9,0.1h2.1v1.1H337
		c0.1,0.1,0.1,0.2,0.2,0.3c0.1,0.1,0.1,0.3,0.1,0.4c0,0.3-0.1,0.6-0.2,0.8c-0.1,0.2-0.3,0.4-0.5,0.5c-0.2,0.1-0.4,0.3-0.7,0.3
		c-0.3,0.1-0.5,0.1-0.9,0.1c-0.2,0-0.5,0-0.7-0.1c-0.1,0.1-0.1,0.1-0.2,0.2c0,0.1,0,0.1,0,0.2c0,0.1,0.1,0.2,0.2,0.3
		c0.1,0.1,0.4,0.1,0.7,0.1h1c0.7,0,1.2,0.1,1.6,0.3c0.4,0.2,0.5,0.5,0.5,1c0,0.3-0.1,0.5-0.2,0.8c-0.1,0.2-0.4,0.4-0.6,0.6
		c-0.3,0.2-0.6,0.3-1,0.4C335.8,312.7,335.4,312.7,334.9,312.7z M335,307.9c0.2,0,0.4-0.1,0.6-0.2c0.2-0.1,0.2-0.4,0.2-0.7
		c0-0.3-0.1-0.5-0.2-0.6c-0.2-0.2-0.3-0.2-0.6-0.2c-0.2,0-0.4,0.1-0.6,0.2c-0.1,0.1-0.2,0.4-0.2,0.6c0,0.3,0.1,0.5,0.2,0.7
		C334.6,307.8,334.8,307.9,335,307.9z M335.2,311.7c0.4,0,0.8-0.1,1-0.2c0.3-0.1,0.4-0.3,0.4-0.4c0-0.2-0.1-0.3-0.2-0.3
		c-0.2,0-0.4-0.1-0.7-0.1H335c-0.2,0-0.3,0-0.5,0c-0.1,0-0.2,0-0.3-0.1c-0.1,0.1-0.2,0.2-0.3,0.2c-0.1,0.1-0.1,0.2-0.1,0.3
		c0,0.2,0.1,0.3,0.4,0.4C334.4,311.7,334.7,311.7,335.2,311.7z M341.9,310.6c-0.4,0-0.8-0.1-1.2-0.2c-0.4-0.1-0.7-0.3-0.9-0.5
		c-0.3-0.2-0.5-0.5-0.6-0.9c-0.1-0.3-0.2-0.7-0.2-1.2c0-0.4,0.1-0.8,0.2-1.2c0.2-0.3,0.4-0.6,0.6-0.9c0.3-0.2,0.6-0.4,0.9-0.5
		c0.3-0.1,0.7-0.2,1-0.2c0.4,0,0.8,0.1,1.1,0.2c0.3,0.1,0.6,0.3,0.8,0.5c0.2,0.2,0.4,0.5,0.5,0.8c0.1,0.3,0.2,0.6,0.2,1
		c0,0.1,0,0.3,0,0.4c0,0.1,0,0.2,0,0.3h-3.6c0.1,0.4,0.2,0.7,0.5,0.8c0.3,0.2,0.6,0.3,1.1,0.3c0.2,0,0.5,0,0.7-0.1
		c0.2-0.1,0.4-0.2,0.7-0.3l0.5,1c-0.3,0.2-0.6,0.3-1,0.5C342.6,310.6,342.2,310.6,341.9,310.6z M341.8,306.3c-0.3,0-0.6,0.1-0.8,0.2
		c-0.2,0.2-0.4,0.4-0.4,0.7h2.3C342.7,306.6,342.4,306.3,341.8,306.3z M347.9,310.6c-0.5,0-0.9-0.1-1.4-0.2
		c-0.4-0.2-0.8-0.3-1.2-0.6l0.7-1c0.3,0.2,0.7,0.4,1,0.5c0.4,0.1,0.7,0.2,1.1,0.2c0.3,0,0.5,0,0.6-0.1c0.1-0.1,0.2-0.2,0.2-0.3
		c0-0.1,0-0.1-0.1-0.2c0-0.1-0.1-0.1-0.2-0.2c-0.1,0-0.2-0.1-0.4-0.1c-0.2-0.1-0.4-0.1-0.6-0.2c-0.7-0.2-1.2-0.4-1.5-0.6
		c-0.3-0.3-0.5-0.6-0.5-1c0-0.2,0.1-0.5,0.2-0.7c0.1-0.2,0.3-0.4,0.5-0.5c0.2-0.1,0.5-0.3,0.8-0.3c0.3-0.1,0.6-0.1,1-0.1
		c0.5,0,0.9,0.1,1.3,0.2c0.4,0.1,0.7,0.3,1,0.5l-0.7,0.9c-0.3-0.2-0.6-0.3-0.8-0.4c-0.3-0.1-0.6-0.1-0.9-0.1c-0.2,0-0.4,0-0.6,0.1
		c-0.1,0.1-0.2,0.2-0.2,0.3c0,0.2,0.1,0.3,0.3,0.3c0.2,0.1,0.5,0.1,1,0.2c0.4,0.1,0.7,0.2,1,0.3c0.3,0.1,0.5,0.2,0.6,0.4
		c0.2,0.1,0.3,0.3,0.3,0.5c0.1,0.2,0.1,0.4,0.1,0.6c0,0.2-0.1,0.5-0.2,0.7c-0.1,0.2-0.3,0.4-0.5,0.5c-0.2,0.1-0.5,0.3-0.8,0.4
		C348.7,310.6,348.4,310.6,347.9,310.6z M355.3,310.6c-0.4,0-0.8-0.1-1.1-0.2c-0.3-0.1-0.5-0.3-0.7-0.5c-0.2-0.2-0.3-0.5-0.4-0.7
		c-0.1-0.3-0.1-0.6-0.1-0.9v-1.9h-1.3v-1.2l1.4-0.1l0.2-1.6h1.3v1.6h2.2v1.2h-2.2v1.9c0,0.4,0.1,0.7,0.3,0.9
		c0.2,0.2,0.5,0.2,0.9,0.2c0.2,0,0.4,0,0.5,0c0.2,0,0.3-0.1,0.5-0.2l0.3,1.1c-0.2,0.1-0.5,0.1-0.8,0.2
		C356,310.6,355.7,310.6,355.3,310.6z M368.1,310.6c-0.4,0-0.8-0.1-1.1-0.2c-0.3-0.1-0.5-0.3-0.7-0.5c-0.2-0.2-0.3-0.5-0.4-0.7
		c-0.1-0.3-0.1-0.6-0.1-0.9v-1.9h-1.3v-1.2l1.4-0.1l0.2-1.6h1.3v1.6h2.2v1.2h-2.2v1.9c0,0.4,0.1,0.7,0.3,0.9
		c0.2,0.2,0.5,0.2,0.9,0.2c0.2,0,0.4,0,0.5,0c0.2,0,0.3-0.1,0.5-0.2l0.3,1.1c-0.2,0.1-0.5,0.1-0.8,0.2
		C368.8,310.6,368.4,310.6,368.1,310.6z M373.5,310.6c-0.4,0-0.7-0.1-1-0.2c-0.3-0.1-0.6-0.3-0.9-0.5c-0.3-0.2-0.5-0.5-0.6-0.9
		c-0.1-0.3-0.2-0.7-0.2-1.2c0-0.4,0.1-0.8,0.2-1.2c0.2-0.4,0.4-0.6,0.6-0.9c0.2-0.2,0.5-0.4,0.9-0.5c0.3-0.1,0.7-0.2,1-0.2
		c0.3,0,0.7,0.1,1,0.2c0.3,0.1,0.6,0.3,0.9,0.5c0.3,0.2,0.5,0.5,0.6,0.9c0.1,0.3,0.2,0.7,0.2,1.2c0,0.4-0.1,0.8-0.2,1.2
		c-0.1,0.3-0.3,0.6-0.6,0.9c-0.3,0.2-0.5,0.4-0.9,0.5C374.2,310.6,373.9,310.6,373.5,310.6z M373.5,309.4c0.4,0,0.6-0.1,0.8-0.4
		c0.2-0.3,0.3-0.6,0.3-1.1c0-0.5-0.1-0.8-0.3-1.1c-0.2-0.3-0.4-0.4-0.8-0.4c-0.4,0-0.6,0.1-0.8,0.4c-0.2,0.3-0.3,0.6-0.3,1.1
		c0,0.5,0.1,0.8,0.3,1.1C372.9,309.2,373.2,309.4,373.5,309.4z M386.3,310.6c-0.5,0-0.9-0.1-1.4-0.2c-0.4-0.2-0.8-0.3-1.2-0.6l0.7-1
		c0.3,0.2,0.7,0.4,1,0.5c0.4,0.1,0.7,0.2,1.1,0.2c0.3,0,0.5,0,0.6-0.1c0.1-0.1,0.2-0.2,0.2-0.3c0-0.1,0-0.1-0.1-0.2
		c0-0.1-0.1-0.1-0.2-0.2c-0.1,0-0.2-0.1-0.4-0.1c-0.2-0.1-0.4-0.1-0.6-0.2c-0.7-0.2-1.2-0.4-1.5-0.6c-0.3-0.3-0.5-0.6-0.5-1
		c0-0.2,0.1-0.5,0.2-0.7c0.1-0.2,0.3-0.4,0.5-0.5c0.2-0.1,0.5-0.3,0.8-0.3c0.3-0.1,0.6-0.1,1-0.1c0.5,0,0.9,0.1,1.3,0.2
		c0.4,0.1,0.7,0.3,1,0.5l-0.7,0.9c-0.3-0.2-0.6-0.3-0.8-0.4c-0.3-0.1-0.6-0.1-0.9-0.1c-0.2,0-0.4,0-0.6,0.1
		c-0.1,0.1-0.2,0.2-0.2,0.3c0,0.2,0.1,0.3,0.3,0.3c0.2,0.1,0.5,0.1,1,0.2c0.4,0.1,0.7,0.2,1,0.3c0.3,0.1,0.5,0.2,0.6,0.4
		c0.2,0.1,0.3,0.3,0.3,0.5c0.1,0.2,0.1,0.4,0.1,0.6c0,0.2-0.1,0.5-0.2,0.7c-0.1,0.2-0.3,0.4-0.5,0.5c-0.2,0.1-0.5,0.3-0.8,0.4
		C387.1,310.6,386.7,310.6,386.3,310.6z M390.3,312.5v-7.2h1.3l0.1,0.5h0c0.2-0.2,0.5-0.4,0.7-0.5c0.3-0.1,0.6-0.2,0.8-0.2
		c0.3,0,0.6,0.1,0.9,0.2c0.3,0.1,0.5,0.3,0.7,0.5c0.2,0.2,0.3,0.5,0.4,0.8c0.1,0.3,0.1,0.7,0.1,1.1c0,0.5-0.1,0.9-0.2,1.2
		c-0.1,0.4-0.3,0.7-0.5,0.9c-0.2,0.2-0.5,0.4-0.7,0.5c-0.3,0.1-0.6,0.2-0.8,0.2c-0.5,0-0.9-0.2-1.3-0.6h0l0.1,0.9v1.5H390.3z
		 M392.8,309.3c0.3,0,0.6-0.1,0.8-0.4c0.2-0.3,0.3-0.6,0.3-1.2c0-1-0.3-1.4-1-1.4c-0.3,0-0.7,0.2-1,0.5v2.1c0.2,0.1,0.3,0.2,0.5,0.3
		C392.5,309.3,392.6,309.3,392.8,309.3z M399.1,310.6c-0.4,0-0.7-0.1-1-0.2c-0.3-0.1-0.6-0.3-0.9-0.5c-0.2-0.2-0.5-0.5-0.6-0.9
		c-0.1-0.3-0.2-0.7-0.2-1.2c0-0.4,0.1-0.8,0.2-1.2c0.2-0.4,0.4-0.6,0.6-0.9c0.2-0.2,0.5-0.4,0.9-0.5c0.3-0.1,0.7-0.2,1-0.2
		c0.3,0,0.7,0.1,1,0.2c0.3,0.1,0.6,0.3,0.9,0.5c0.3,0.2,0.5,0.5,0.6,0.9c0.1,0.3,0.2,0.7,0.2,1.2c0,0.4-0.1,0.8-0.2,1.2
		c-0.1,0.3-0.3,0.6-0.6,0.9c-0.2,0.2-0.5,0.4-0.9,0.5C399.8,310.6,399.5,310.6,399.1,310.6z M399.1,309.4c0.4,0,0.6-0.1,0.8-0.4
		c0.2-0.3,0.3-0.6,0.3-1.1c0-0.5-0.1-0.8-0.3-1.1c-0.2-0.3-0.4-0.4-0.8-0.4c-0.4,0-0.6,0.1-0.8,0.4c-0.2,0.3-0.3,0.6-0.3,1.1
		c0,0.5,0.1,0.8,0.3,1.1C398.5,309.2,398.8,309.4,399.1,309.4z M406.5,310.6c-0.4,0-0.8-0.1-1.1-0.2c-0.3-0.1-0.5-0.3-0.7-0.5
		c-0.2-0.2-0.3-0.5-0.4-0.7c-0.1-0.3-0.1-0.6-0.1-0.9v-1.9h-1.3v-1.2l1.4-0.1l0.2-1.6h1.3v1.6h2.2v1.2h-2.2v1.9
		c0,0.4,0.1,0.7,0.3,0.9c0.2,0.2,0.5,0.2,0.9,0.2c0.2,0,0.4,0,0.5,0c0.2,0,0.3-0.1,0.5-0.2l0.3,1.1c-0.2,0.1-0.5,0.1-0.8,0.2
		C407.1,310.6,406.8,310.6,406.5,310.6z"/>
	<path class="st2" d="M348.7,323.5v-5.3h1.3l0.1,0.7h0c0.2-0.2,0.5-0.4,0.8-0.6c0.3-0.2,0.7-0.3,1-0.2c0.6,0,1,0.2,1.3,0.6
		c0.3,0.4,0.4,0.9,0.4,1.6v3.3h-1.6v-3.1c0-0.4-0.1-0.6-0.2-0.8c-0.1-0.2-0.3-0.3-0.6-0.2c-0.2,0-0.4,0-0.6,0.1
		c-0.2,0.1-0.3,0.2-0.5,0.4v3.5H348.7z M357.9,323.6c-0.4,0-0.8-0.1-1.2-0.2c-0.4-0.1-0.7-0.3-0.9-0.5c-0.3-0.2-0.5-0.5-0.6-0.9
		c-0.1-0.3-0.2-0.7-0.2-1.2c0-0.4,0.1-0.8,0.2-1.2c0.2-0.3,0.4-0.6,0.6-0.9c0.3-0.2,0.6-0.4,0.9-0.5c0.3-0.1,0.7-0.2,1-0.2
		c0.4,0,0.8,0.1,1.1,0.2c0.3,0.1,0.6,0.3,0.8,0.5c0.2,0.2,0.4,0.5,0.5,0.8c0.1,0.3,0.2,0.6,0.2,1c0,0.1,0,0.3,0,0.4
		c0,0.1,0,0.2,0,0.3h-3.6c0.1,0.4,0.2,0.7,0.5,0.8c0.3,0.2,0.6,0.3,1.1,0.3c0.2,0,0.5,0,0.7-0.1c0.2-0.1,0.4-0.2,0.7-0.3l0.5,1
		c-0.3,0.2-0.6,0.3-1,0.5C358.6,323.6,358.2,323.6,357.9,323.6z M357.8,319.3c-0.3,0-0.6,0.1-0.8,0.2c-0.2,0.2-0.4,0.4-0.4,0.7h2.3
		C358.7,319.6,358.4,319.3,357.8,319.3z M361.7,323.5l-0.9-5.3h1.5l0.3,2.5c0,0.3,0.1,0.5,0.1,0.8c0,0.2,0.1,0.5,0.1,0.8h0
		c0-0.3,0.1-0.5,0.1-0.8c0-0.3,0.1-0.5,0.1-0.8l0.3-1.8h1.1l0.3,1.8c0.1,0.3,0.1,0.5,0.2,0.8c0,0.2,0.1,0.5,0.1,0.8h0
		c0-0.3,0.1-0.5,0.1-0.8c0-0.3,0-0.5,0.1-0.8l0.3-2.5h1.4l-0.8,5.3h-1.8l-0.3-1.7c0-0.2-0.1-0.5-0.1-0.7c0-0.3-0.1-0.5-0.1-0.8h0
		c0,0.2,0,0.5-0.1,0.7c0,0.2-0.1,0.5-0.1,0.9l-0.3,1.7H361.7z M370.3,323.6c-0.5,0-0.9-0.1-1.4-0.2c-0.4-0.2-0.8-0.3-1.2-0.6l0.7-1
		c0.3,0.2,0.7,0.4,1,0.5c0.4,0.1,0.7,0.2,1.1,0.2c0.3,0,0.5,0,0.6-0.1c0.1-0.1,0.2-0.2,0.2-0.3c0-0.1,0-0.1-0.1-0.2
		c0-0.1-0.1-0.1-0.2-0.2c-0.1,0-0.2-0.1-0.4-0.1c-0.2-0.1-0.4-0.1-0.6-0.2c-0.7-0.2-1.2-0.4-1.5-0.6c-0.3-0.3-0.5-0.6-0.5-1
		c0-0.2,0.1-0.5,0.2-0.7c0.1-0.2,0.3-0.4,0.5-0.5c0.2-0.1,0.5-0.3,0.8-0.3c0.3-0.1,0.6-0.1,1-0.1c0.5,0,0.9,0.1,1.3,0.2
		c0.4,0.1,0.7,0.3,1,0.5l-0.7,0.9c-0.3-0.2-0.6-0.3-0.8-0.4c-0.3-0.1-0.6-0.1-0.9-0.1c-0.2,0-0.4,0-0.6,0.1
		c-0.1,0.1-0.2,0.2-0.2,0.3c0,0.2,0.1,0.3,0.3,0.3c0.2,0.1,0.5,0.1,1,0.2c0.4,0.1,0.7,0.2,1,0.3c0.3,0.1,0.5,0.2,0.6,0.4
		c0.2,0.1,0.3,0.3,0.3,0.5c0.1,0.2,0.1,0.4,0.1,0.6c0,0.2-0.1,0.5-0.2,0.7c-0.1,0.2-0.3,0.4-0.5,0.5c-0.2,0.1-0.5,0.3-0.8,0.4
		C371.1,323.6,370.7,323.6,370.3,323.6z"/>
	<path class="st6" d="M169.4,37.9v25.5H73.7v25.5"/>
	<path class="st7" d="M169.4,37.9v25.5H73.7v13.5"/>
	<path class="st8" d="M70.4,76.9l3.3,9.1l3.3-9.1H70.4z"/>
	<path class="st6" d="M169.4,37.9v25.5h95.8v25.5"/>
	<path class="st7" d="M169.4,37.9v25.5h95.8v13.5"/>
	<path class="st8" d="M261.9,76.9l3.3,9.1l3.3-9.1H261.9z"/>
	<path class="st6" d="M169.4,37.9v25.5h286.9v25.5"/>
	<path class="st7" d="M169.4,37.9v25.5h286.9v13.5"/>
	<path class="st8" d="M453,76.9l3.3,9.1l3.3-9.1H453z"/>
	<path class="st6" d="M73.7,126.4v17.5h102.1v17.5"/>
	<path class="st7" d="M73.7,126.4v17.5h102.1v5.5"/>
	<path class="st8" d="M172.5,149.4l3.3,9.1l3.3-9.1H172.5z"/>
	<path class="st6" d="M265.2,126.4v17.5h-89.4v17.5"/>
	<path class="st7" d="M265.2,126.4v17.5h-89.4v5.5"/>
	<path class="st8" d="M172.5,149.4l3.3,9.1l3.3-9.1H172.5z"/>
	<path class="st6" d="M456.3,126.4h1.3v53.7H249.1"/>
	<path class="st7" d="M456.3,126.4h1.3v53.7H261.1"/>
	<path class="st8" d="M261.1,176.8l-9.1,3.3l9.1,3.3V176.8z"/>
	<path class="st6" d="M175.8,198.8v15.7h0.1v15.7"/>
	<path class="st7" d="M175.8,198.8v15.7h0.1v3.7"/>
	<path class="st8" d="M172.6,218.2l3.3,9.1l3.3-9.1H172.6z"/>
	<path class="st6" d="M175.8,267.6v13.4h0.1v13.5"/>
	<path class="st7" d="M175.8,267.6v13.4h0.1v1.5"/>
	<path class="st8" d="M172.6,282.5l3.3,9.1l3.3-9.1H172.6z"/>
	<path class="st6" d="M249.1,313.3h19.2v0.1h19.3"/>
	<path class="st7" d="M249.1,313.3h19.2v0.1h7.3"/>
	<path class="st8" d="M275.5,316.6l9.1-3.3l-9.1-3.3V316.6z"/>
	<path class="st6" d="M175.8,332v13.4h0.1v13.5"/>
	<path class="st7" d="M175.8,332v13.4h0.1v1.5"/>
	<path class="st8" d="M172.6,346.9l3.3,9.1l3.3-9.1H172.6z"/>
	<path class="st6" d="M360.8,332v45.6H249.1"/>
	<path class="st7" d="M360.8,332v45.6h-99.7"/>
	<path class="st8" d="M261.1,374.3l-9.1,3.3l9.1,3.3V374.3z"/>
</g>
</svg>
