<?xml version="1.0" encoding="utf-8"?>
<!-- Generator: Adobe Illustrator 23.0.1, SVG Export Plug-In . SVG Version: 6.00 Build 0)  -->
<svg version="1.1" id="Layer_1" xmlns="http://www.w3.org/2000/svg" xmlns:xlink="http://www.w3.org/1999/xlink" x="0px" y="0px"
	 viewBox="0 0 120 120" style="enable-background:new 0 0 120 120;" xml:space="preserve">
<style type="text/css">
	.st0{fill:none;stroke:#EE2A7B;stroke-miterlimit:10;}
	.st1{fill:none;stroke:#EE2A7B;stroke-miterlimit:10;stroke-dasharray:3,3;}
	.st2{opacity:0.32;fill:#3B0097;enable-background:new    ;}
	.st3{fill:#FFFFFF;}
</style>
<title>problems</title>
<line class="st0" x1="10" y1="0" x2="10" y2="1.5"/>
<line class="st1" x1="10" y1="4.5" x2="10" y2="117"/>
<line class="st0" x1="10" y1="118.5" x2="10" y2="120"/>
<line class="st0" x1="110" y1="0" x2="110" y2="1.5"/>
<line class="st1" x1="110" y1="4.5" x2="110" y2="117"/>
<line class="st0" x1="110" y1="118.5" x2="110" y2="120"/>
<line class="st0" x1="120" y1="10" x2="118.5" y2="10"/>
<line class="st1" x1="115.5" y1="10" x2="3" y2="10"/>
<line class="st0" x1="1.5" y1="10" x2="0" y2="10"/>
<line class="st0" x1="120" y1="110" x2="118.5" y2="110"/>
<line class="st1" x1="115.5" y1="110" x2="3" y2="110"/>
<line class="st0" x1="1.5" y1="110" x2="0" y2="110"/>
<rect id="_.bg" x="15.6" y="15.6" class="st2" width="88.9" height="88.9"/>
<g>
	<path class="st3" d="M69.8,29.4c-10.8,0-19.8,8-21.3,18.5c0.5,0,1.1-0.1,1.6-0.1c0.7,0,1.4,0,2.2,0.1c1.4-8.3,8.7-14.7,17.5-14.7
		c9.8,0,17.7,8,17.7,17.7c0,8.8-6.4,16-14.7,17.5c0.1,0.7,0.1,1.4,0.1,2.2c0,0.6,0,1.1-0.1,1.6c10.4-1.5,18.5-10.4,18.5-21.3
		C91.3,39.1,81.7,29.4,69.8,29.4z"/>
</g>
<polygon class="st3" points="75.5,45.2 66.5,45.2 69.4,48.1 47,70.5 50.2,73.8 72.6,51.4 75.5,54.3 "/>
<path class="st3" d="M65,60.8c1.9,2.8,2.9,6.2,2.9,9.8c0,9.8-8,17.7-17.7,17.7s-17.7-8-17.7-17.7c0-9.8,8-17.7,17.7-17.7
	c3.6,0,7,1.1,9.8,2.9l2.7-2.7c-3.5-2.5-7.8-4-12.5-4c-11.9,0-21.5,9.7-21.5,21.5c0,11.9,9.7,21.5,21.5,21.5s21.5-9.7,21.5-21.5
	c0-4.7-1.5-8.9-4-12.5L65,60.8z"/>
</svg>
