<?xml version="1.0" encoding="utf-8"?>
<!-- Generator: Adobe Illustrator 23.0.1, SVG Export Plug-In . SVG Version: 6.00 Build 0)  -->
<svg version="1.1" id="Layer_1" xmlns="http://www.w3.org/2000/svg" xmlns:xlink="http://www.w3.org/1999/xlink" x="0px" y="0px"
	 viewBox="0 0 200.6 120" style="enable-background:new 0 0 200.6 120;" xml:space="preserve">
<style type="text/css">
	.st0{fill:none;stroke:#EE2A7B;stroke-miterlimit:10;}
	.st1{fill:none;stroke:#EE2A7B;stroke-miterlimit:10;stroke-dasharray:3,3;}
	.st2{opacity:0.32;fill:#3B0097;enable-background:new    ;}
	.st3{fill:#FFFFFF;}
</style>
<title>problems</title>
<line class="st0" x1="10" y1="0" x2="10" y2="1.5"/>
<line class="st1" x1="10" y1="4.5" x2="10" y2="117"/>
<line class="st0" x1="10" y1="118.5" x2="10" y2="120"/>
<line class="st0" x1="190.2" y1="0" x2="190.2" y2="1.5"/>
<line class="st1" x1="190.2" y1="4.5" x2="190.2" y2="117"/>
<line class="st0" x1="190.2" y1="118.5" x2="190.2" y2="120"/>
<line class="st0" x1="200.2" y1="10" x2="198.7" y2="10"/>
<line class="st1" x1="195.2" y1="10" x2="3" y2="10"/>
<line class="st0" x1="1.5" y1="10" x2="0" y2="10"/>
<line class="st0" x1="200.2" y1="110" x2="198.7" y2="110"/>
<line class="st1" x1="195.2" y1="110" x2="3" y2="110"/>
<line class="st0" x1="1.5" y1="110" x2="0" y2="110"/>
<polygon class="st2" points="104.5,15.6 95.7,15.6 15.6,15.6 15.6,104.5 95.7,104.5 104.5,104.5 184.6,104.5 184.6,15.6 "/>
<path class="st3" d="M72.8,44.9v4.5h4.5v3h-4.5V57h-3v-4.5h-4.5v-3h4.5v-4.5H72.8z M60.7,63.1c1.7,0,3-1.4,3-3s-1.4-3-3-3
	s-3,1.4-3,3S59.1,63.1,60.7,63.1z M63.7,48.3V54h4.5v4.5h4.4c0.1,0.6,0.1,1.2,0.1,1.8c0,5-4,11-12.1,17.8
	c-8.1-6.9-12.1-12.8-12.1-17.8c0-7.5,5.7-12.4,12.1-12.4C61.7,48,62.8,48.1,63.7,48.3z"/>
<g>
	<path class="st3" d="M149.4,44.1c-3.5,0-6.6,1.8-8.4,4.4c0,0,0,0,0,0c-0.6,0-1.2,0-1.8,0c-6.4,0-11.7,0.7-11.7,5.8v14.6
		c0,1.3,0.6,2.4,1.5,3.2v2.6c0,0.8,0.7,1.5,1.5,1.5h1.5c0.8,0,1.5-0.7,1.5-1.5v-1.5H145v1.5c0,0.8,0.7,1.5,1.5,1.5h1.5
		c0.8,0,1.5-0.7,1.5-1.5v-2.6c0.9-0.8,1.5-2,1.5-3.2v-4.5c4.9-0.7,8.7-4.9,8.7-10.1C159.6,48.7,155,44.1,149.4,44.1z M132.6,70.3
		c-1.2,0-2.2-1-2.2-2.2c0-1.2,1-2.2,2.2-2.2s2.2,1,2.2,2.2C134.8,69.3,133.9,70.3,132.6,70.3z M130.5,61.6v-7.3h8.7
		c0,2.9,1.2,5.4,3.1,7.3H130.5z M145.8,70.3c-1.2,0-2.2-1-2.2-2.2c0-1.2,1-2.2,2.2-2.2s2.2,1,2.2,2.2
		C147.9,69.3,147,70.3,145.8,70.3z M149.4,61.6c-4,0-7.3-3.3-7.3-7.3s3.3-7.3,7.3-7.3c4,0,7.3,3.3,7.3,7.3S153.4,61.6,149.4,61.6z
		 M150.1,48.5h-2.2v7.3l5.3,3.1l1.1-1.8l-4.2-2.4V48.5z"/>
</g>
<polygon class="st3" points="107.4,58.8 104.2,62 107.4,65.2 105.3,67.3 102.1,64.1 98.8,67.3 96.7,65.2 99.9,62 96.7,58.8 
	98.8,56.6 102.1,59.8 105.3,56.6 "/>
</svg>
