<?xml version="1.0" encoding="utf-8"?>
<!-- Generator: Adobe Illustrator 23.0.1, SVG Export Plug-In . SVG Version: 6.00 Build 0)  -->
<svg version="1.1" id="Layer_1" xmlns="http://www.w3.org/2000/svg" xmlns:xlink="http://www.w3.org/1999/xlink" x="0px" y="0px"
	 viewBox="0 0 200.2 120" style="enable-background:new 0 0 200.2 120;" xml:space="preserve">
<style type="text/css">
	.st0{opacity:0.32;fill:#3B0097;enable-background:new    ;}
	.st1{fill:none;stroke:#EE2A7B;stroke-miterlimit:10;}
	.st2{fill:none;stroke:#EE2A7B;stroke-miterlimit:10;stroke-dasharray:3,3;}
	.st3{fill:#FFFFFF;}
	.st4{fill:none;}
</style>
<title>problems</title>
<polygon class="st0" points="104.5,15.6 95.7,15.6 15.6,15.6 15.6,104.5 95.7,104.5 104.5,104.5 184.6,104.5 184.6,15.6 "/>
<line class="st1" x1="10" y1="0" x2="10" y2="1.5"/>
<line class="st2" x1="10" y1="4.5" x2="10" y2="117"/>
<line class="st1" x1="10" y1="118.5" x2="10" y2="120"/>
<line class="st1" x1="190.2" y1="0" x2="190.2" y2="1.5"/>
<line class="st2" x1="190.2" y1="4.5" x2="190.2" y2="117"/>
<line class="st1" x1="190.2" y1="118.5" x2="190.2" y2="120"/>
<line class="st1" x1="200.2" y1="10" x2="198.7" y2="10"/>
<line class="st2" x1="195.2" y1="10" x2="3" y2="10"/>
<line class="st1" x1="1.5" y1="10" x2="0" y2="10"/>
<line class="st1" x1="200.2" y1="110" x2="198.7" y2="110"/>
<line class="st2" x1="195.2" y1="110" x2="3" y2="110"/>
<line class="st1" x1="1.5" y1="110" x2="0" y2="110"/>
<polygon class="st3" points="107.4,58.8 104.2,62 107.4,65.2 105.3,67.3 102.1,64.1 98.8,67.3 96.7,65.2 99.9,62 96.7,58.8 
	98.8,56.6 102.1,59.8 105.3,56.6 "/>
<path class="st4" d="M43.2,45.5h38.9v38.9H43.2V45.5z"/>
<path class="st4" d="M105,168H81v-24h24V168z"/>
<path class="st3" d="M55.1,64.5h1.4c0.4,0,0.7-0.3,0.7-0.7v-6.4c0-0.4-0.3-0.7-0.7-0.7h-1.4V64.5z M69.1,59.5
	c0.1-0.2,0.1-0.4,0.1-0.6v-0.8c0-0.8-0.6-1.4-1.4-1.4h-3.9l0.7-3.3c0-0.2,0-0.3-0.1-0.5c-0.2-0.3-0.4-0.6-0.6-0.9l-0.3-0.3l-4.5,4.5
	c-0.3,0.3-0.4,0.6-0.4,1v5.5c0,0.9,0.7,1.6,1.7,1.6H66c0.5,0,1-0.3,1.2-0.7C67.3,63.8,69.1,59.5,69.1,59.5z"/>
<path class="st4" d="M81,144h24v24H81V144z"/>
<path class="st3" d="M70.7,36.8H53.6c-3,0-5.3,2.4-5.3,5.3v36.4c0,3,2.4,5.3,5.3,5.3h17.1c3,0,5.3-2.4,5.3-5.3V42.1
	C76.1,39.2,73.7,36.8,70.7,36.8z M62.2,81.7c-1.8,0-3.2-1.4-3.2-3.2c0-1.8,1.4-3.2,3.2-3.2c1.8,0,3.2,1.4,3.2,3.2
	C65.4,80.3,64,81.7,62.2,81.7z M71.8,73.1H52.6v-30h19.3V73.1z"/>
<g>
	<path class="st3" d="M139.4,42.5c-0.9,0-1.7,0.1-2.6,0.3c-5.1,1-9.2,5.1-10.1,10.2c-0.9,4.8,0.9,9.3,4.1,12.1
		c0.8,0.7,1.2,1.7,1.2,2.7v4.3c0,2,1.7,3.7,3.7,3.7h0.5c0.6,1.1,1.8,1.9,3.2,1.9c1.4,0,2.6-0.7,3.2-1.9h0.5c2,0,3.7-1.7,3.7-3.7
		v-4.3c0-1,0.4-2,1.2-2.7c2.7-2.4,4.4-5.8,4.4-9.7C152.3,48.3,146.5,42.5,139.4,42.5z M143.1,72.1h-7.4v-1.9h7.4V72.1z M143.1,68.4
		h-7.4v-1.9h7.4V68.4z M140.3,58v4.8h-1.9V58l-3.4-3.4l1.3-1.3l3,3l3-3l1.3,1.3L140.3,58z"/>
</g>
</svg>
