<?xml version="1.0" encoding="utf-8"?>
<!-- Generator: Adobe Illustrator 23.0.1, SVG Export Plug-In . SVG Version: 6.00 Build 0)  -->
<svg version="1.1" id="Layer_1" xmlns="http://www.w3.org/2000/svg" xmlns:xlink="http://www.w3.org/1999/xlink" x="0px" y="0px"
	 viewBox="0 0 200.2 120" style="enable-background:new 0 0 200.2 120;" xml:space="preserve">
<style type="text/css">
	.st0{opacity:0.32;fill:#3B0097;enable-background:new    ;}
	.st1{fill:#FFFFFF;}
	.st2{fill:none;stroke:#EE2A7B;stroke-miterlimit:10;}
	.st3{fill:none;stroke:#EE2A7B;stroke-miterlimit:10;stroke-dasharray:3,3;}
	.st4{fill:none;}
</style>
<polygon class="st0" points="104.5,15.6 95.7,15.6 15.6,15.6 15.6,104.5 95.7,104.5 104.5,104.5 184.6,104.5 184.6,15.6 "/>
<title>problems</title>
<g>
	<path class="st1" d="M156.5,51.5c-0.1,0.2-0.2,0.4-0.4,0.6c-1.2,1.2-3.4,0.8-5-0.8c-1.6-1.6-1.9-3.8-0.8-5c0.2-0.2,0.4-0.3,0.6-0.4
		l-3.1-3.1l-4.6,4.6l1.1,1.1l-0.7,0.7l-1.1-1.1l-21.3,21.3l3,3c1.2-1.2,3.4-0.8,5,0.8c1.6,1.6,1.9,3.8,0.8,5l3,3l26.5-26.5
		L156.5,51.5z M147.2,52.7l-1.7-1.7l0.7-0.7l1.7,1.7L147.2,52.7z M150.7,56.2l-1.7-1.7l0.7-0.7l1.8,1.7L150.7,56.2z M154.2,59.7
		l-1.8-1.7l0.7-0.7l1.7,1.7L154.2,59.7z"/>
</g>
<line class="st2" x1="10" y1="0" x2="10" y2="1.5"/>
<line class="st3" x1="10" y1="4.5" x2="10" y2="117"/>
<line class="st2" x1="10" y1="118.5" x2="10" y2="120"/>
<line class="st2" x1="190.2" y1="0" x2="190.2" y2="1.5"/>
<line class="st3" x1="190.2" y1="4.5" x2="190.2" y2="117"/>
<line class="st2" x1="190.2" y1="118.5" x2="190.2" y2="120"/>
<line class="st2" x1="200.2" y1="10" x2="198.7" y2="10"/>
<line class="st3" x1="195.2" y1="10" x2="3" y2="10"/>
<line class="st2" x1="1.5" y1="10" x2="0" y2="10"/>
<line class="st2" x1="200.2" y1="110" x2="198.7" y2="110"/>
<line class="st3" x1="195.2" y1="110" x2="3" y2="110"/>
<line class="st2" x1="1.5" y1="110" x2="0" y2="110"/>
<polygon class="st1" points="107.4,58.8 104.2,62 107.4,65.2 105.3,67.3 102.1,64.1 98.8,67.3 96.7,65.2 99.9,62 96.7,58.8 
	98.8,56.6 102.1,59.8 105.3,56.6 "/>
<path class="st4" d="M43.2,45.5h38.9v38.9H43.2V45.5z"/>
<path class="st1" d="M67.5,44.1h-9.7v3.2h9.7V44.1z M61,65.2h3.2v-9.7H61V65.2z M74,54.5l2.3-2.3c-0.7-0.8-1.5-1.6-2.3-2.3l-2.3,2.3
	c-2.5-2-5.7-3.2-9.1-3.2c-8.1,0-14.6,6.5-14.6,14.6s6.5,14.6,14.6,14.6s14.6-6.5,14.6-14.6C77.2,60.1,76,57,74,54.5z M62.7,74.9
	c-6.3,0-11.3-5.1-11.3-11.3s5.1-11.3,11.3-11.3S74,57.3,74,63.6S68.9,74.9,62.7,74.9z"/>
</svg>
