<?xml version="1.0" encoding="utf-8"?>
<!-- Generator: Adobe Illustrator 23.0.1, SVG Export Plug-In . SVG Version: 6.00 Build 0)  -->
<svg version="1.1" id="Layer_1" xmlns="http://www.w3.org/2000/svg" xmlns:xlink="http://www.w3.org/1999/xlink" x="0px" y="0px"
	 viewBox="0 0 436.9 433.3" style="enable-background:new 0 0 436.9 433.3;" xml:space="preserve">
<style type="text/css">
	.st0{fill:#FFFFFF;}
	.st1{fill-rule:evenodd;clip-rule:evenodd;fill-opacity:0;}
	.st2{fill:none;}
	.st3{fill:#FF008A;}
	.st4{fill:#5401D5;}
	.st5{fill:#D5D5D5;}
	.st6{fill-rule:evenodd;clip-rule:evenodd;fill:#FF008A;}
	.st7{fill-rule:evenodd;clip-rule:evenodd;fill:#FFFFFF;}
	.st8{fill:#DEDEDE;}
</style>
<path class="st0" d="M137.3,154v-10.5h8.1c0.6,0,1,0.2,1.4,0.6s0.6,0.9,0.6,1.4v2.1c0,0.1,0,0.2,0,0.4c0,0.1-0.1,0.2-0.1,0.3
	c0.2,0.2,0.3,0.5,0.4,0.7c0.1,0.2,0.2,0.5,0.2,0.7v2.3c0,0.6-0.2,1-0.6,1.4s-0.9,0.6-1.5,0.6H137.3z M139.8,152h5.6
	c0.3,0,0.4,0,0.5,0s0.1-0.2,0.1-0.5v-1.4c0-0.3,0-0.4-0.1-0.5s-0.2,0-0.5,0h-5.6c-0.3,0-0.4,0-0.5,0c0,0,0,0.2,0,0.5v1.4
	c0,0.3,0,0.4,0,0.5C139.3,152,139.5,152,139.8,152z M139.8,147.6h5.2c0.3,0,0.4,0,0.5,0c0,0,0-0.2,0-0.5v-1.2c0-0.3,0-0.4,0-0.5
	c0,0-0.2-0.1-0.5-0.1h-5.2c-0.3,0-0.4,0-0.5,0.1c0,0,0,0.2,0,0.5v1.2c0,0.3,0,0.4,0,0.5C139.3,147.6,139.5,147.6,139.8,147.6z
	 M151.4,154c-0.6,0-1-0.2-1.4-0.6s-0.6-0.9-0.6-1.4v-4.5c0-0.6,0.2-1,0.6-1.4s0.9-0.6,1.4-0.6h4.6c0.6,0,1,0.2,1.4,0.6
	s0.6,0.9,0.6,1.4v4.5c0,0.6-0.2,1-0.6,1.4c-0.4,0.4-0.9,0.6-1.4,0.6H151.4z M151.8,152h3.8c0.3,0,0.4,0,0.5,0s0-0.2,0-0.5v-3.6
	c0-0.3,0-0.4,0-0.5s-0.2,0-0.5,0h-3.8c-0.3,0-0.4,0-0.5,0s0,0.2,0,0.5v3.6c0,0.3,0,0.4,0,0.5S151.6,152,151.8,152z M161.3,154
	c-0.6,0-1-0.2-1.4-0.6s-0.6-0.9-0.6-1.4v-9.1h1.9v2.6h3.3v1.9h-3.3v4.1c0,0.3,0,0.4,0,0.5s0.2,0,0.5,0h2.8v1.9h-3.2V154z M167.8,154
	c-0.6,0-1-0.2-1.4-0.6s-0.6-0.9-0.6-1.4v-9.1h1.9v2.6h3.3v1.9h-3.3v4.1c0,0.3,0,0.4,0,0.5s0.2,0,0.5,0h2.8v1.9h-3.2V154z M174.2,154
	c-0.6,0-1-0.2-1.4-0.6s-0.6-0.9-0.6-1.4v-4.5c0-0.6,0.2-1,0.6-1.4s0.9-0.6,1.4-0.6h4.6c0.6,0,1,0.2,1.4,0.6s0.6,0.9,0.6,1.4v4.5
	c0,0.6-0.2,1-0.6,1.4c-0.4,0.4-0.9,0.6-1.4,0.6H174.2z M174.6,152h3.8c0.3,0,0.4,0,0.5,0s0-0.2,0-0.5v-3.6c0-0.3,0-0.4,0-0.5
	s-0.2,0-0.5,0h-3.8c-0.3,0-0.4,0-0.5,0s0,0.2,0,0.5v3.6c0,0.3,0,0.4,0,0.5S174.4,152,174.6,152z M182.4,154v-8.5h10.5
	c0.6,0,1,0.2,1.4,0.6s0.6,0.9,0.6,1.4v6.5H193v-6.1c0-0.3,0-0.4-0.1-0.5s-0.2,0-0.5,0H190c-0.3,0-0.4,0-0.5,0c0,0,0,0.2,0,0.5v6.1
	h-1.9v-6.1c0-0.3,0-0.4,0-0.5s-0.2,0-0.5,0h-2.3c-0.3,0-0.4,0-0.5,0s0,0.2,0,0.5v6.1H182.4z M201.2,154v-10.5h2.1l6.5,7.7v-7.7h2
	V154h-2.1l-6.5-7.7v7.7H201.2z M215.4,154c-0.6,0-1-0.2-1.4-0.6s-0.6-0.9-0.6-1.4v-3.2h6.7V148c0-0.3,0-0.4,0-0.5s-0.2,0-0.5,0h-6.2
	v-1.9h6.6c0.6,0,1,0.2,1.4,0.6s0.6,0.9,0.6,1.4v6.5h-6.6V154z M215.8,152h4.3v-1.6h-4.8v1c0,0.3,0,0.4,0,0.5S215.5,152,215.8,152z
	 M227.3,154l-4.7-8.5h2.2l3.4,6.2l3.3-6.2h2.2L229,154H227.3z M234.7,154v-8.5h1.9v8.5H234.7z M234.7,144.6v-1.9h1.9v1.9H234.7z
	 M239.2,157.3v-1.9h4.8c0.3,0,0.4,0,0.4-0.1c0,0,0.1-0.2,0.1-0.5v-0.9h-4.7c-0.6,0-1-0.2-1.4-0.6s-0.6-0.9-0.6-1.4v-4.5
	c0-0.6,0.2-1,0.6-1.4s0.9-0.6,1.4-0.6h4.6c0.6,0,1,0.2,1.4,0.6s0.6,0.9,0.6,1.4v7.8c0,0.6-0.2,1-0.6,1.4c-0.4,0.4-0.9,0.6-1.4,0.6
	L239.2,157.3L239.2,157.3L239.2,157.3z M240.3,152h3.8c0.3,0,0.4,0,0.4,0s0.1-0.2,0.1-0.5v-3.6c0-0.3,0-0.4-0.1-0.5c0,0-0.2,0-0.4,0
	h-3.8c-0.3,0-0.4,0-0.5,0c0,0,0,0.2,0,0.5v3.6c0,0.3,0,0.4,0,0.5C239.8,152,240,152,240.3,152z M249.7,154c-0.6,0-1-0.2-1.4-0.6
	s-0.6-0.9-0.6-1.4v-3.2h6.7V148c0-0.3,0-0.4,0-0.5s-0.2,0-0.5,0h-6.2v-1.9h6.6c0.6,0,1,0.2,1.4,0.6c0.4,0.4,0.6,0.9,0.6,1.4v6.5
	h-6.6L249.7,154L249.7,154z M250.1,152h4.3v-1.6h-4.8v1c0,0.3,0,0.4,0,0.5S249.8,152,250.1,152z M259.9,154c-0.6,0-1-0.2-1.4-0.6
	s-0.6-0.9-0.6-1.4v-9.1h1.9v2.6h3.3v1.9h-3.3v4.1c0,0.3,0,0.4,0,0.5s0.2,0,0.5,0h2.8v1.9h-3.2L259.9,154L259.9,154z M264.3,154v-8.5
	h1.9v8.5H264.3z M264.3,144.6v-1.9h1.9v1.9H264.3z M269.6,154c-0.6,0-1-0.2-1.4-0.6s-0.6-0.9-0.6-1.4v-4.5c0-0.6,0.2-1,0.6-1.4
	s0.9-0.6,1.4-0.6h4.6c0.6,0,1,0.2,1.4,0.6s0.6,0.9,0.6,1.4v4.5c0,0.6-0.2,1-0.6,1.4s-0.9,0.6-1.4,0.6H269.6z M270,152h3.8
	c0.3,0,0.4,0,0.5,0s0-0.2,0-0.5v-3.6c0-0.3,0-0.4,0-0.5s-0.2,0-0.5,0H270c-0.3,0-0.4,0-0.5,0s0,0.2,0,0.5v3.6c0,0.3,0,0.4,0,0.5
	S269.7,152,270,152z M277.4,154v-8.5h6.6c0.6,0,1,0.2,1.4,0.6s0.6,0.9,0.6,1.4v6.5h-1.9v-6.1c0-0.3,0-0.4,0-0.5s-0.2,0-0.5,0h-3.8
	c-0.3,0-0.4,0-0.5,0s0,0.2,0,0.5v6.1H277.4z"/>
<path class="st0" d="M106.5,414.8c-0.6,0-1-0.2-1.4-0.6s-0.6-0.9-0.6-1.4V412h1.9v0.4c0,0.3,0,0.4,0,0.5s0.2,0,0.5,0h5.6
	c0.3,0,0.4,0,0.5,0s0-0.2,0-0.5V411c0-0.3,0-0.4,0-0.5s-0.2,0-0.5,0h-6c-0.6,0-1-0.2-1.4-0.6s-0.6-0.9-0.6-1.4v-2.2
	c0-0.6,0.2-1,0.6-1.4s0.9-0.6,1.4-0.6h6.5c0.6,0,1,0.2,1.4,0.6s0.6,0.9,0.6,1.4v0.8h-2v-0.4c0-0.3,0-0.4,0-0.5c0,0-0.2-0.1-0.5-0.1
	h-5.6c-0.3,0-0.4,0-0.5,0.1c0,0,0,0.2,0,0.5v1.3c0,0.3,0,0.4,0,0.5c0,0,0.2,0,0.5,0h6.1c0.6,0,1,0.2,1.4,0.6s0.6,0.9,0.6,1.5v2.2
	c0,0.6-0.2,1-0.6,1.4s-0.9,0.6-1.4,0.6H106.5z M116.6,414.8v-11.3h1.9v2.8h4.7c0.5,0,1,0.2,1.4,0.6s0.6,0.9,0.6,1.4v6.5h-1.9v-6.1
	c0-0.3,0-0.4,0-0.5s-0.2,0-0.5,0H119c-0.3,0-0.4,0-0.5,0s0,0.2,0,0.5v6.1H116.6z M128.3,414.8c-0.6,0-1-0.2-1.4-0.6
	s-0.6-0.9-0.6-1.4v-4.5c0-0.6,0.2-1,0.6-1.4s0.9-0.6,1.4-0.6h4.6c0.6,0,1,0.2,1.4,0.6s0.6,0.9,0.6,1.4v4.5c0,0.6-0.2,1-0.6,1.4
	c-0.4,0.4-0.9,0.6-1.4,0.6H128.3z M128.8,412.8h3.8c0.3,0,0.4,0,0.5,0s0-0.2,0-0.5v-3.6c0-0.3,0-0.4,0-0.5s-0.2,0-0.5,0h-3.8
	c-0.3,0-0.4,0-0.5,0s0,0.2,0,0.5v3.6c0,0.3,0,0.4,0,0.5S128.5,412.8,128.8,412.8z M138.7,414.8l-3.3-8.5h2l2.1,5l2.2-5h2l2.3,5
	l1.9-5h2l-3.2,8.5h-1.5l-2.6-5.7l-2.5,5.7H138.7z M159.5,414.8v-8.6h-4.3v-1.9h10.5v1.9h-4.3v8.6H159.5z M166.7,414.8v-8.5h1.9v8.5
	H166.7z M166.7,405.4v-1.9h1.9v1.9H166.7z M172,414.8c-0.6,0-1-0.2-1.4-0.6s-0.6-0.9-0.6-1.4v-4.5c0-0.6,0.2-1,0.6-1.4
	c0.4-0.4,0.9-0.6,1.4-0.6h6.6v1.9h-6.2c-0.3,0-0.4,0-0.5,0c0,0,0,0.2,0,0.5v3.6c0,0.3,0,0.4,0,0.5c0,0,0.2,0,0.5,0h6.2v1.9H172
	V414.8z M179.9,414.8v-11.3h1.9v6.1h1.5l3-3.3h2.1v0.5l-3.4,3.7l3.4,3.7v0.5h-2l-3-3.3h-1.5v3.3L179.9,414.8L179.9,414.8z
	 M191.3,414.8c-0.6,0-1-0.2-1.4-0.6s-0.6-0.9-0.6-1.4v-4.5c0-0.6,0.2-1,0.6-1.4c0.4-0.4,0.9-0.6,1.4-0.6h4.6c0.6,0,1,0.2,1.4,0.6
	s0.6,0.9,0.6,1.4v3.2h-6.7v0.8c0,0.3,0,0.4,0,0.5s0.2,0,0.5,0h6.2v1.9h-6.6V414.8z M191.2,409.7h4.8v-1c0-0.3,0-0.4,0-0.5
	s-0.2,0-0.5,0h-3.8c-0.3,0-0.4,0-0.5,0s0,0.2,0,0.5V409.7z M201.4,414.8c-0.6,0-1-0.2-1.4-0.6s-0.6-0.9-0.6-1.4v-9.1h1.9v2.6h3.3
	v1.9h-3.3v4.1c0,0.3,0,0.4,0,0.5s0.2,0,0.5,0h2.8v1.9h-3.2V414.8z M210.3,414.8v-8.5h1.9v8.5H210.3z M210.3,405.4v-1.9h1.9v1.9
	H210.3z M213.9,414.8v-8.5h6.6c0.6,0,1,0.2,1.4,0.6s0.6,0.9,0.6,1.4v6.5h-1.9v-6.1c0-0.3,0-0.4,0-0.5s-0.2,0-0.5,0h-3.8
	c-0.3,0-0.4,0-0.5,0s0,0.2,0,0.5v6.1H213.9z M224.1,414.8v-9.3c0-0.6,0.2-1,0.6-1.4c0.4-0.4,0.9-0.6,1.4-0.6h3.2v1.9h-2.8
	c-0.3,0-0.4,0-0.5,0s0,0.2,0,0.4v0.4h3.3v1.9H226v6.6h-1.9V414.8z M232.5,414.8c-0.6,0-1-0.2-1.4-0.6s-0.6-0.9-0.6-1.4v-4.5
	c0-0.6,0.2-1,0.6-1.4c0.4-0.4,0.9-0.6,1.4-0.6h4.6c0.6,0,1,0.2,1.4,0.6s0.6,0.9,0.6,1.4v4.5c0,0.6-0.2,1-0.6,1.4
	c-0.4,0.4-0.9,0.6-1.4,0.6H232.5z M232.9,412.8h3.8c0.3,0,0.4,0,0.5,0s0-0.2,0-0.5v-3.6c0-0.3,0-0.4,0-0.5s-0.2,0-0.5,0h-3.8
	c-0.3,0-0.4,0-0.5,0s0,0.2,0,0.5v3.6c0,0.3,0,0.4,0,0.5S232.6,412.8,232.9,412.8z M248.2,414.8l-3.3-8.5h2l2.1,5l2.2-5h2l2.3,5
	l1.9-5h2l-3.2,8.5h-1.5l-2.6-5.7l-2.5,5.7H248.2z M260.4,414.8v-8.5h1.9v8.5H260.4z M260.4,405.4v-1.9h1.9v1.9H260.4z M265.9,414.8
	c-0.6,0-1-0.2-1.4-0.6s-0.6-0.9-0.6-1.4v-9.1h1.9v2.6h3.3v1.9h-3.3v4.1c0,0.3,0,0.4,0,0.5s0.2,0,0.5,0h2.8v1.9h-3.2L265.9,414.8
	L265.9,414.8z M270.6,414.8v-11.3h1.9v2.8h4.7c0.5,0,1,0.2,1.4,0.6s0.6,0.9,0.6,1.4v6.5h-1.9v-6.1c0-0.3,0-0.4,0-0.5s-0.2,0-0.5,0
	H273c-0.3,0-0.4,0-0.5,0s0,0.2,0,0.5v6.1H270.6z M284.8,414.8v-10.5h1.9v10.5H284.8z M290,414.8c-0.6,0-1-0.2-1.4-0.6
	s-0.6-0.9-0.6-1.4v-6.5c0-0.6,0.2-1,0.6-1.4s0.9-0.6,1.4-0.6h8.5v1.9h-8.1c-0.3,0-0.4,0-0.5,0.1c0,0,0,0.2,0,0.5v5.6
	c0,0.3,0,0.4,0,0.5c0,0,0.2,0,0.5,0h8.1v2H290V414.8z M302.1,414.8c-0.6,0-1-0.2-1.4-0.6s-0.6-0.9-0.6-1.4v-6.5c0-0.6,0.2-1,0.6-1.4
	s0.9-0.6,1.4-0.6h6.5c0.6,0,1,0.2,1.4,0.6s0.6,0.9,0.6,1.4v6.5c0,0.6-0.2,1-0.6,1.4s-0.9,0.6-1.4,0.6H302.1z M302.5,412.8h5.6
	c0.3,0,0.4,0,0.5,0c0,0,0.1-0.2,0.1-0.5v-5.6c0-0.3,0-0.4-0.1-0.5c0,0-0.2-0.1-0.5-0.1h-5.6c-0.3,0-0.4,0-0.5,0.1c0,0,0,0.2,0,0.5
	v5.6c0,0.3,0,0.4,0,0.5C302,412.8,302.2,412.8,302.5,412.8z M312.2,414.8v-10.5h2.1l6.5,7.7v-7.7h2v10.5h-2.1l-6.5-7.7v7.7H312.2z"
	/>
<path class="st1" d="M108.2,15.9h63.4v101.4h-63.4C108.2,117.3,108.2,15.9,108.2,15.9z"/>
<rect x="108.2" y="15.9" class="st2" width="63.4" height="101.4"/>
<path class="st3" d="M207.4,65.8c-0.1-0.1-0.1-0.1-0.2-0.1c-2.1-2.1-4.3-4.3-6.4-6.4c-0.8-0.8-0.8-1.8,0-2.5c0.5-0.5,0.9-1,1.4-1.4
	c0.7-0.7,1.7-0.7,2.5,0c0.9,0.9,1.8,1.8,2.7,2.7c2.2,2.2,4.4,4.4,6.6,6.6c0.3,0.3,0.6,0.7,0.6,1.2s-0.2,1-0.5,1.3
	c-0.8,0.8-1.5,1.5-2.3,2.3c-2.3,2.3-4.7,4.7-7,7c-0.4,0.4-0.8,0.6-1.3,0.6s-0.8-0.2-1.2-0.5c-0.5-0.5-1-1-1.5-1.5
	c-0.6-0.6-0.6-1.6-0.1-2.2c0.1-0.1,0.1-0.1,0.2-0.2c1.7-1.7,3.4-3.4,5.1-5c0.5-0.5,0.9-0.9,1.4-1.4C207.3,66,207.3,65.9,207.4,65.8z
	"/>
<path class="st3" d="M220.7,65.8c-0.1,0-0.1-0.1-0.2-0.1c-2.2-2.2-4.3-4.3-6.5-6.5c-0.5-0.5-0.6-1-0.5-1.6c0.1-0.3,0.2-0.5,0.4-0.7
	c0.5-0.6,1.1-1.2,1.7-1.7c0.6-0.6,1.5-0.6,2.1,0c0.1,0.1,0.1,0.1,0.2,0.2c3.1,3.1,6.2,6.2,9.3,9.3c0.3,0.3,0.5,0.6,0.6,1
	c0.1,0.6,0,1-0.5,1.4c-3.2,3.2-6.3,6.3-9.5,9.5c-0.6,0.6-1.6,0.6-2.2,0.1c-0.6-0.5-1.1-1.1-1.7-1.7c-0.6-0.6-0.6-1.7,0.1-2.3
	c0.7-0.7,1.3-1.3,2-2c1.5-1.5,3-3,4.6-4.6C220.6,65.9,220.6,65.9,220.7,65.8z"/>
<path class="st3" d="M220.6,322.1c0.1,0.1,0.1,0.1,0.2,0.1c2.1,2.1,4.3,4.3,6.4,6.4c0.8,0.8,0.8,1.8,0,2.5c-0.5,0.5-0.9,1-1.4,1.4
	c-0.7,0.7-1.7,0.7-2.5,0c-0.9-0.9-1.8-1.8-2.7-2.7c-2.2-2.2-4.4-4.4-6.6-6.6c-0.3-0.3-0.6-0.7-0.6-1.2s0.2-1,0.5-1.3
	c0.8-0.8,1.5-1.5,2.3-2.3c2.3-2.3,4.7-4.7,7-7c0.4-0.4,0.8-0.6,1.3-0.6s0.8,0.2,1.2,0.5c0.5,0.5,1,1,1.5,1.5
	c0.6,0.6,0.6,1.6,0.1,2.2c-0.1,0.1-0.1,0.1-0.2,0.2c-1.7,1.7-3.4,3.4-5.1,5c-0.5,0.5-0.9,0.9-1.4,1.4
	C220.7,321.9,220.7,322,220.6,322.1z"/>
<path class="st3" d="M207.3,322.1c0.1,0,0.1,0.1,0.2,0.1c2.2,2.2,4.3,4.3,6.5,6.5c0.5,0.5,0.6,1,0.5,1.6c-0.1,0.3-0.2,0.5-0.4,0.7
	c-0.5,0.6-1.1,1.2-1.7,1.7c-0.6,0.6-1.5,0.6-2.1,0c-0.1-0.1-0.1-0.1-0.2-0.2c-3.1-3.1-6.2-6.2-9.3-9.3c-0.3-0.3-0.5-0.6-0.6-1
	c-0.1-0.6,0-1,0.5-1.4c3.2-3.2,6.3-6.3,9.5-9.5c0.6-0.6,1.6-0.6,2.2-0.1c0.6,0.5,1.1,1.1,1.7,1.7c0.6,0.6,0.6,1.7-0.1,2.3
	c-0.7,0.7-1.3,1.3-2,2c-1.5,1.5-3,3-4.6,4.6C207.4,322,207.4,322,207.3,322.1z"/>
<path class="st4" d="M312.6,17.4c-0.8-0.3-1.7-0.4-2.5-0.6c-15.1,0-30.2,0-45.3,0c-1,0.2-2,0.3-3,0.7c-3.5,1.4-5.5,4-6,7.8
	c0,0.2-0.1,0.4-0.1,0.5c0,27.8,0,55.6,0,83.4c0.2,0.9,0.3,1.8,0.6,2.6c1.4,3.9,4.8,6.4,9,6.4c14.7,0,29.4,0,44.2,0
	c4.2,0,7.7-2.5,9-6.4c0.3-1,0.5-2.1,0.5-3.2c0-27.4,0-54.7,0-82.1C319.1,22.2,316.6,18.8,312.6,17.4z M287.4,111.9
	c-3.5,0-6.3-2.9-6.3-6.4s2.8-6.4,6.4-6.3c3.5,0,6.3,2.9,6.3,6.4S290.9,111.9,287.4,111.9z"/>
<path class="st5" d="M165.2,17.4c-0.8-0.3-1.7-0.4-2.5-0.6c-15.1,0-30.2,0-45.3,0c-1,0.2-2,0.3-3,0.7c-3.5,1.4-5.5,4-6,7.8
	c0,0.2-0.1,0.4-0.1,0.5c0,27.8,0,55.6,0,83.4c0.2,0.9,0.3,1.8,0.6,2.6c1.4,3.9,4.8,6.4,9,6.4c14.7,0,29.4,0,44.2,0
	c4.2,0,7.7-2.5,9-6.4c0.3-1,0.5-2.1,0.5-3.2c0-27.4,0-54.7,0-82.1C171.6,22.2,169.2,18.8,165.2,17.4z M139.9,111.9
	c-3.5,0-6.3-2.9-6.3-6.4s2.8-6.4,6.4-6.3c3.5,0,6.3,2.9,6.3,6.4C146.3,109.1,143.5,111.9,139.9,111.9z"/>
<path class="st6" d="M262,81.4L262,81.4c0-1,0.8-1.9,1.9-1.9h46.8c0.5,0,1,0.2,1.3,0.5s0.5,0.8,0.5,1.3v7.4c0,1-0.8,1.9-1.9,1.9
	h-46.8c-1,0-1.9-0.8-1.9-1.9v-7.3H262z"/>
<path class="st7" d="M115.4,26.4L115.4,26.4c0-2.2,1.7-3.9,3.9-3.9h15.6l0,0c1,0,2,0.4,2.8,1.1c0.7,0.7,1.1,1.7,1.1,2.8v66.2
	c0,2.2-1.7,3.9-3.9,3.9h-15.6c-2.2,0-3.9-1.7-3.9-3.9L115.4,26.4L115.4,26.4z"/>
<path class="st4" d="M115,345.9c0.2-0.1,0.4-0.2,0.5-0.4c0.5-0.5,0.9-0.6,1.5-0.1c0.7,0.6,1.8,0.4,2.6-0.1c0.7-0.6,1.1-1.6,0.7-2.5
	c-0.2-0.6-0.1-0.8,0.4-1c0.2-0.1,0.5-0.3,0.7-0.5c0.1,0.1,0.3,0.2,0.4,0.3c0.8,0.7,1.9,0.7,2.8,0.1c0.8-0.5,1.1-1.6,0.8-2.5
	c-0.2-0.4-0.1-0.7,0.3-0.9c0.2-0.1,0.3-0.2,0.4-0.3c0.2-0.2,0.4-0.2,0.7,0c0.9,0.8,1.9,0.8,2.8,0.2c0.9-0.6,1.2-1.7,0.8-2.8
	c-0.1-0.3-0.1-0.5,0.2-0.6c0.1,0,0.2-0.1,0.3-0.2c0.4-0.4,0.7-0.5,1.2,0c0.6,0.5,1.3,0.6,2.1,0.3c0.4-0.2,0.6-0.1,0.8,0.3
	c1.9,2.7,3.8,5.4,5.7,8.1c4.7,6.6,9.5,13.3,14.2,19.9c1.3,1.8,2.6,3.6,3.9,5.5c0.1,0.1,0.2,0.4,0.1,0.6c-0.9,1.4-0.9,1.7-0.2,3.2
	c-0.3,0.2-0.7,0.5-1.1,0.7c-0.1,0.1-0.4-0.1-0.5-0.2c-0.7-0.6-1.4-0.9-2.3-0.6c-0.9,0.3-1.5,0.9-1.5,1.8c0,0.6,0.2,1.2,0.3,2
	c-0.3,0.2-0.7,0.5-1.1,0.8c-0.5-0.6-1.1-1.2-2-1.1c-0.5,0-1,0.2-1.4,0.5c-1,0.7-1.1,1.8-0.3,3.3c-0.4,0.3-0.8,0.6-1.3,0.9
	c-0.5-0.7-1.2-1.2-2.1-1.1c-0.5,0.1-1,0.3-1.4,0.6c-0.9,0.7-1,1.8-0.3,3.2c-0.4,0.3-0.8,0.6-1.4,1c-0.1-0.1-0.1-0.3-0.3-0.4
	c-0.7-0.7-1.6-0.9-2.5-0.6c-0.3,0.1-0.5,0.1-0.7-0.2c-4-5.6-8-11.2-11.9-16.8c-2.8-4-5.7-8-8.5-12c-1.1-1.6-2.2-3.1-3.4-4.7
	c-0.2-0.3-0.3-0.5,0-0.9C115.5,347.8,115.5,346.9,115,345.9z"/>
<path class="st4" d="M120.6,340.6c-0.6,0.4-1.1,0.9-1.7,1.2c-0.3,0.2-0.4,0.4-0.1,0.7c0.1,0.2,0.2,0.3,0.3,0.5
	c0.3,0.6,0.2,1.2-0.3,1.6s-1.1,0.3-1.6-0.2l0,0c-0.7-0.8-0.7-0.8-1.5-0.2c-0.7,0.5-1.4,1-2.2,1.6c0.2,0.3,0.4,0.5,0.5,0.8
	c0.4,0.7,0.3,1.2-0.3,1.7c-0.1,0.1-0.2,0.2-0.4,0.3c-0.4,0.2-0.4,0.4-0.1,0.7c1.3,1.8,2.6,3.6,3.9,5.4c3.7,5.2,7.3,10.3,11,15.5
	c0.1,0.1,0.2,0.3,0.2,0.5c-0.5-0.2-1-0.4-1.4-0.6c-7.4-3.2-14.9-6.5-22.3-9.7c-0.4-0.2-0.6-0.3-0.5-0.9c0.2-0.9-0.2-1.6-0.9-2.1
	c-0.3-0.2-0.3-0.4-0.2-0.7c0.1-0.1,0.2-0.3,0.2-0.4c0.1-0.4,0.3-0.6,0.8-0.5c1,0.2,2-0.4,2.4-1.4s0.1-2-0.8-2.6
	c-0.1-0.1-0.2-0.2-0.3-0.3c0.2-0.4,0.3-0.8,0.5-1.2c0.1-0.1,0.3-0.2,0.4-0.2c1.2,0.2,2.1-0.3,2.6-1.3c0.4-1,0.2-2-0.8-2.8
	c-0.1-0.1-0.2-0.4-0.1-0.5c0-0.2,0.1-0.3,0.2-0.5c0.1-0.5,0.4-0.7,1-0.6c0.9,0.2,1.9-0.4,2.3-1.3s0.2-2-0.6-2.6
	c-0.4-0.3-0.5-0.5-0.2-0.9c0.1-0.3,0.3-0.6,0.4-0.9c0.3,0,0.6,0.1,0.9,0.1c0.7,0,1.4-0.3,1.8-0.9c0.2-0.2,0.3-0.4,0.6-0.2
	c2.1,0.9,4.2,1.8,6.2,2.7C120.4,340.4,120.5,340.5,120.6,340.6z"/>
<path class="st4" d="M152.9,358.9c-1.4-2-2.9-4-4.3-6c0,0,0-0.1,0.1-0.1c0.2,0.1,0.4,0.2,0.6,0.3c0.9,0.4,1.8,0.7,2.6,1.1
	c0.2,0.1,0.4,0.3,0.3,0.4c-0.2,1.3,0.3,2.2,1.5,2.8c-0.2,0.5-0.4,1-0.6,1.4C153.1,358.9,153,358.9,152.9,358.9z"/>
<path class="st8" d="M279,345.9c0.2-0.1,0.4-0.2,0.5-0.4c0.5-0.5,0.9-0.6,1.5-0.1c0.7,0.6,1.8,0.4,2.6-0.1c0.7-0.6,1.1-1.6,0.7-2.5
	c-0.2-0.6-0.1-0.8,0.4-1c0.2-0.1,0.5-0.3,0.7-0.5c0.1,0.1,0.3,0.2,0.4,0.3c0.8,0.7,1.9,0.7,2.8,0.1c0.8-0.5,1.1-1.6,0.8-2.5
	c-0.2-0.4-0.1-0.7,0.3-0.9c0.2-0.1,0.3-0.2,0.4-0.3c0.2-0.2,0.4-0.2,0.7,0c0.9,0.8,1.9,0.8,2.8,0.2c0.9-0.6,1.2-1.7,0.8-2.8
	c-0.1-0.3-0.1-0.5,0.2-0.6c0.1,0,0.2-0.1,0.3-0.2c0.4-0.4,0.7-0.5,1.2,0c0.6,0.5,1.3,0.6,2.1,0.3c0.4-0.2,0.6-0.1,0.8,0.3
	c1.9,2.7,3.8,5.4,5.7,8.1c4.7,6.6,9.5,13.3,14.2,19.9c1.3,1.8,2.6,3.6,3.9,5.5c0.1,0.1,0.2,0.4,0.1,0.6c-0.9,1.4-0.9,1.7-0.2,3.2
	c-0.3,0.2-0.7,0.5-1.1,0.7c-0.1,0.1-0.4-0.1-0.5-0.2c-0.7-0.6-1.4-0.9-2.3-0.6s-1.5,0.9-1.5,1.8c0,0.6,0.2,1.2,0.3,2
	c-0.3,0.2-0.7,0.5-1.1,0.8c-0.5-0.6-1.1-1.2-2-1.1c-0.5,0-1,0.2-1.4,0.5c-1,0.7-1.1,1.8-0.3,3.3c-0.4,0.3-0.8,0.6-1.3,0.9
	c-0.5-0.7-1.2-1.2-2.1-1.1c-0.5,0.1-1,0.3-1.4,0.6c-0.9,0.7-1,1.8-0.3,3.2c-0.4,0.3-0.8,0.6-1.4,1c-0.1-0.1-0.1-0.3-0.3-0.4
	c-0.7-0.7-1.6-0.9-2.5-0.6c-0.3,0.1-0.5,0.1-0.7-0.2c-4-5.6-8-11.2-11.9-16.8c-2.8-4-5.7-8-8.5-12c-1.1-1.6-2.2-3.1-3.4-4.7
	c-0.2-0.3-0.3-0.5,0-0.9C279.5,347.8,279.5,346.9,279,345.9z"/>
<path class="st8" d="M284.6,340.6c-0.6,0.4-1.1,0.9-1.7,1.2c-0.3,0.2-0.4,0.4-0.1,0.7c0.1,0.2,0.2,0.3,0.3,0.5
	c0.3,0.6,0.2,1.2-0.3,1.6s-1.1,0.3-1.6-0.2l0,0c-0.7-0.8-0.7-0.8-1.5-0.2c-0.7,0.5-1.4,1-2.2,1.6c0.2,0.3,0.4,0.5,0.5,0.8
	c0.4,0.7,0.3,1.2-0.3,1.7c-0.1,0.1-0.2,0.2-0.4,0.3c-0.4,0.2-0.4,0.4-0.1,0.7c1.3,1.8,2.6,3.6,3.9,5.4c3.7,5.2,7.3,10.3,11,15.5
	c0.1,0.1,0.2,0.3,0.2,0.5c-0.5-0.2-1-0.4-1.4-0.6c-7.4-3.2-14.9-6.5-22.3-9.7c-0.4-0.2-0.6-0.3-0.5-0.9c0.2-0.9-0.2-1.6-0.9-2.1
	c-0.3-0.2-0.3-0.4-0.2-0.7c0.1-0.1,0.2-0.3,0.2-0.4c0.1-0.4,0.3-0.6,0.8-0.5c1,0.2,2-0.4,2.4-1.4s0.1-2-0.8-2.6
	c-0.1-0.1-0.2-0.2-0.3-0.3c0.2-0.4,0.3-0.8,0.5-1.2c0.1-0.1,0.3-0.2,0.4-0.2c1.2,0.2,2.1-0.3,2.6-1.3c0.4-1,0.2-2-0.8-2.8
	c-0.1-0.1-0.2-0.4-0.1-0.5c0-0.2,0.1-0.3,0.2-0.5c0.1-0.5,0.4-0.7,1-0.6c0.9,0.2,1.9-0.4,2.3-1.3s0.2-2-0.6-2.6
	c-0.4-0.3-0.5-0.5-0.2-0.9c0.1-0.3,0.3-0.6,0.4-0.9c0.3,0,0.6,0.1,0.9,0.1c0.7,0,1.4-0.3,1.8-0.9c0.2-0.2,0.3-0.4,0.6-0.2
	c2.1,0.9,4.2,1.8,6.2,2.7C284.4,340.4,284.5,340.5,284.6,340.6z"/>
<path class="st8" d="M317,358.9c-1.4-2-2.9-4-4.3-6c0,0,0-0.1,0.1-0.1c0.2,0.1,0.4,0.2,0.6,0.3c0.9,0.4,1.8,0.7,2.6,1.1
	c0.2,0.1,0.4,0.3,0.3,0.4c-0.2,1.3,0.3,2.2,1.5,2.8c-0.2,0.5-0.4,1-0.6,1.4C317.1,358.9,317,358.9,317,358.9z"/>
<path class="st1" d="M85.2,231.5h91.6v57.1H85.2V231.5z"/>
<rect x="85.2" y="231.5" class="st2" width="91.6" height="57.1"/>
<g>
	<path class="st3" d="M103.1,257.8c0.6,0.9,1.6,1.2,1.7,2.4c-5.2,0-10.3,0-15.5,0c0.1-0.2,0.2-0.4,0.3-0.6c0.5-0.6,1.1-1.1,1.7-1.7
		c-0.4-0.2-0.8-0.4-1.3-0.5c-1.2-0.2-2-1.1-2.6-2.1c-0.4-0.6-0.6-1.3-0.6-2.1c0-4.4,0-8.7,0-13.1c0-1.5,0.8-2.6,2-3.3
		c1-0.6,2.2-0.9,3.4-1.2c1.5-0.3,3-0.1,4.4-0.2c1.5-0.1,3.1-0.2,4.5,0c1.5,0.2,3,0.4,4.3,1.3c0.9,0.6,1.5,1.4,1.8,2.4
		c0.2,0.7,0.2,1.4,0.2,2.1c0,3.9,0,7.9,0,11.8c0,1.1-0.3,2.2-1.2,2.9c-0.2,0.2-0.4,0.4-0.6,0.6c-0.5,0.5-1.1,0.9-1.9,0.8
		C103.7,257.5,103.4,257.7,103.1,257.8z M89.4,240.7c0,2.3,0,4.4,0,6.6c2,0,3.9,0,5.8,0c0.5,0,0.8-0.2,0.8-0.7c0-2,0-3.9,0-5.9
		C93.7,240.7,91.6,240.7,89.4,240.7z M98.5,247.3c2,0,3.9,0,5.8,0c0.6,0,0.8-0.2,0.8-0.8c0-1.9,0-3.8,0-5.8c-2.2,0-4.4,0-6.6,0
		C98.5,242.9,98.5,245,98.5,247.3z M103.9,251.2c-1.1-0.1-2.1,0-2.6,1c-0.2,0.3-0.4,0.7-0.3,1c0.3,0.7,0.5,1.4,1.3,1.8
		c0.5,0,1,0,1.6,0C105.6,253.4,105.4,252.5,103.9,251.2z M89.3,252.4c0.1,0.4,0,1.1,0.2,1.4s0.1,0.8,0.7,0.9c0.3,0.1,0.6,0.2,1,0.2
		c1.2,0.1,2.1-0.9,2-2c-0.1-1.4-0.7-1.9-2.7-1.8C90.2,251.6,89.8,252,89.3,252.4z"/>
	<path class="st3" d="M135.7,257.8c-3.5,0-7,0-10.4,0c0,0.6,0,1.2,0,1.7c-0.3,0.3-0.5,0.5-0.7,0.7c-0.7,0-1.5,0-2.2,0
		c-0.2-0.2-0.4-0.5-0.7-0.7c0-0.9,0-1.8,0-2.7c-1-0.9-1.4-2.1-1.4-3.4c0-4.2,0-8.5,0-12.7c0-2,0.7-3.4,2.6-4.3
		c0.8-0.4,1.7-0.5,2.6-0.8c1.5-0.4,3.1-0.2,4.6-0.2s3-0.1,4.5,0c1.3,0.2,2.7,0.4,4,1.1c1.6,0.8,2.4,2.1,2.4,3.9c0,4.2,0,8.5,0,12.7
		c0,1.3-0.3,2.4-1.1,3.4c-0.2,0.2-0.3,0.4-0.3,0.7c0,0.8,0,1.6,0,2.3c-0.2,0.2-0.5,0.5-0.7,0.7c-0.5,0-1,0-1.5,0
		c-1.1,0-1.5-0.4-1.7-1.5C135.7,258.4,135.7,258.1,135.7,257.8z M122.7,247.3c5,0,9.9,0,14.8,0c0.1,0,0.2,0,0.3,0
		c0.4-0.1,0.6-0.3,0.6-0.7c0-2,0-3.9,0-5.9c-5.9-0.2-14.6-0.1-15.7,0.1C122.7,242.9,122.7,245,122.7,247.3z M137.2,251.2
		c-1.1-0.1-2.1,0-2.6,1.1c-0.5,1.2,0.1,2,0.9,2.7c0.6,0,1.2,0,1.7,0C138.9,253.5,138.9,252.6,137.2,251.2z M124,255
		c2,0,2.6-0.5,2.6-1.9c0-0.6-0.2-1-0.5-1.4c-0.6-0.6-1.4-0.5-2.1-0.5C122.2,252.7,122.4,253.6,124,255z"/>
	<path class="st3" d="M175.4,238.8c0,1.3,0,1.3-1.3,1.4c0,3.5,0,7,0,10.6c-6.6,0-13.2,0-19.9,0c0-3.5,0-7,0-10.5
		c-0.4-0.3-1,0.1-1.2-0.4c-0.1-0.3-0.1-0.7-0.2-1.1c1.3-0.3,2.5-0.7,3.7-1s2.5-0.6,3.7-0.7c1.3-0.1,2.7-0.3,4-0.3s2.6,0.2,3.9,0.3
		c1.3,0.1,2.5,0.3,3.7,0.6C173,238,174.1,238.4,175.4,238.8z M166.6,241.3c-1.4-1.1-3.5-1.2-4.9,0c0,2.8,0,5.7,0,8.4
		c1.7,0,3.3,0,4.9,0C166.6,246.9,166.6,244.1,166.6,241.3z M160.3,249.7c0-0.8,0-1.7,0-2.5c0-1.8,0-3.6,0-5.4c0-0.3,0-0.6-0.3-0.8
		c-0.7-0.4-1.5-0.4-2.2-0.7c-0.4,0.4-0.9,0.2-1.4,0.3c-0.8,0.1-1.1,0.5-1.1,1.4c0,0.6,0,1.2,0,1.8c0,2,0,3.9,0,5.9
		C157,249.7,158.6,249.7,160.3,249.7z M172.9,241.3c-0.7-0.9-1.8-0.5-2.6-1c-0.8,0.4-1.8,0.2-2.3,0.9c0,2.9,0,5.6,0,8.4
		c1.6,0,3.2,0,4.9,0C172.9,246.9,172.9,244.1,172.9,241.3z"/>
	<path class="st3" d="M154.2,258.3c0-2.3,0-4.5,0-6.9c0.3,0.1,0.6,0.2,0.8,0.2c0.3,0.1,0.6,0.1,0.9,0.1c5.4,0,10.8,0,16.2,0
		c0.6,0,1.1-0.2,1.7-0.3l0.1,0.1v0.1c0,2.2,0,4.4,0,6.6C167.4,258.3,160.8,258.3,154.2,258.3z M164.1,256.4c0.7-0.2,1.2-0.7,1.4-1.4
		c-0.2-0.7-0.7-1.2-1.4-1.4c-0.7,0.2-1.2,0.7-1.4,1.4C163.2,255.9,163.2,255.9,164.1,256.4z"/>
	<path class="st3" d="M176.5,260.5c0,0.5,0,0.9,0,1.4c-0.7,0-1.5,0-2.2,0c-0.8,0-1.6-0.2-2.1-0.9c-0.3-0.3-0.5-0.6-1.1-0.5
		c-0.2,0.3-0.2,0.6,0.1,0.9c0.7,0.6,1.3,1.3,1.9,2c0.2,0.2,0.3,0.5,0.5,0.9c-6.4,0-12.6,0-18.8,0c-0.2-0.3-0.1-0.6,0.2-0.9
		c0.7-0.6,1.3-1.3,1.9-2c0.2-0.2,0.2-0.5,0.3-0.8c-0.5-0.2-0.8-0.2-1.1,0.2c-0.2,0.2-0.4,0.4-0.6,0.6c-0.3,0.2-0.7,0.5-1.2,0.5
		c-0.9,0-1.8,0-2.7,0c0-0.5,0-0.9,0-1.3c0.8,0,1.5,0,2.4,0c0-0.5,0.1-0.9,0.1-1.4c6.6,0,13.2,0,19.8,0c0,0.4,0,0.8,0,1.3
		C174.9,260.5,175.6,260.5,176.5,260.5z"/>
	<path class="st3" d="M96.8,280.4c-0.1-1.4,0.1-2.7,0.8-3.9c1.1-2,2.8-3.4,4.8-4.1c1.6-0.5,3.4-0.6,5.2,0.1c1.3,0.5,2.5,1.2,3.4,2.1
		c1.1,1.1,1.8,2.5,2.1,4.1c0.4,1.7,0.2,3.3-0.4,4.9c-0.6,1.5-1.6,2.8-3.1,3.8c-1.3,0.8-2.6,1.3-4.2,1.3c-0.9,0-1.9,0-2.8-0.2
		c-0.8-0.2-1.6-0.5-2.2-1c-0.6-0.6-1.6-0.8-1.9-1.8C97.3,284.2,96.6,282.4,96.8,280.4z M104.9,287c2,0.2,3.6-0.6,4.9-1.9
		c1.2-1.2,1.8-2.8,1.8-4.6c0-1.8-0.7-3.3-1.9-4.6c-1.4-1.6-3-2.1-4.6-2.1c-1.9-0.1-3.4,0.6-4.8,1.8c-1.4,1.3-2.2,3-2.2,4.8
		c0,1.6,0.5,3.2,1.8,4.5C101.4,286.3,102.9,287.2,104.9,287z"/>
	<path class="st3" d="M123.6,286.7c-0.7,0-1.2,0-1.8,0c-0.2-1.1-0.3-8-0.1-13.8c2,0,4.1,0,6.1,0c0.7,0,1.4,0.2,1.9,0.6
		c0.6,0.4,1,1,1.4,1.6c0.2,0.3,0.1,0.8,0.2,1.2c0,0.2,0.3,0.5,0.2,0.6c-0.4,0.4,0,1.1-0.3,1.4c-0.5,0.6-0.8,1.5-1.7,1.9
		c-0.7,0.3-1.4,0.6-2.1,0.5c-1,0-2,0-3,0c-0.7,0-0.9,0.2-0.9,0.9c0,0.9,0,1.7,0,2.6C123.6,285,123.6,285.8,123.6,286.7z
		 M123.6,274.6c0,1.6,0,3.1,0,4.7c1.1,0,2.2,0.1,3.3,0c1-0.2,2.1-0.3,2.5-1.7c0.5-1.5-0.3-2.9-1.8-3
		C126.3,274.6,125,274.6,123.6,274.6z"/>
	<path class="st3" d="M141.5,286.7c-0.5,0-1,0-1.5,0c-0.2-0.4-0.3-0.7-0.5-1.1c-0.9,0.9-1.9,1.5-3.1,1.4c-1.9-0.2-2.8-0.8-3.3-2.6
		c-0.1-0.5,0-1.2,0.3-1.6c0.7-0.9,1.5-1.8,2.8-1.8c0.6,0,1.1-0.2,1.7-0.3c0.5,0,1.1,0,1.6,0c0.5-0.6-0.1-1.2-0.2-1.8
		c-0.1-0.4-0.7-0.6-1.2-0.7c-0.3-0.1-0.6,0-0.8,0c-1-0.1-1.6,0.3-1.9,1.3c-0.6,0-1.2,0-1.9,0c0.2-0.5,0.3-1,0.5-1.4
		c0.3-0.5,0.7-0.8,1.4-0.9s1.4-0.5,2.2-0.4c0.6,0.1,1.3,0.1,1.9,0.3c1,0.3,1.7,1.4,1.7,2.5c0,1.8,0,3.6,0,5.4
		C141.2,285.6,141.4,286.1,141.5,286.7z M139.6,282c-0.7,0-1.3,0-1.8,0c-1.2-0.1-2.2,0.3-2.9,1.3c0,0.4,0,0.9,0,1.3
		c0.8,1.3,2,1,3.2,1c0.3-0.3,0.6-0.6,0.9-0.9c0.1-0.1,0.3-0.3,0.3-0.4C139.4,283.6,139.5,282.9,139.6,282z"/>
	<path class="st3" d="M153.5,284c0.5,0,0.7,0,1,0c0.7,0,0.7,0,1,0.7c0.1,0.2,0.2,0.4,0.3,0.5c0.9,0.6,2.8,0.6,3.5-0.3
		c0.4-0.5,0.3-1.5-0.3-1.8c-0.5-0.2-1-0.4-1.6-0.6c-0.8-0.2-1.6-0.4-2.3-0.7c-0.5-0.2-0.9-0.6-1.4-0.9c0-0.5,0-0.8,0-1.2
		c-0.1-1.2,0.6-2,1.6-2.5c0.9-0.4,1.9-0.8,2.9-0.2c0.3,0.1,0.6,0,0.9,0.1c0.8,0.2,0.8,0.3,1.7,1.2c0.1,0.4-0.1,0.8,0.4,1.2
		c-0.7,0-1.3,0-1.8,0c-0.4-0.4-0.7-0.9-1.1-1.3c-0.7,0-1.4,0-1.9,0c-0.4,0.4-0.7,0.7-1,0.9c0,0.9,0.5,1.3,1.3,1.5
		c0.9,0.2,1.9,0.5,2.8,0.8c0.5,0.2,1,0.4,1.3,0.8c0.3,0.5,0.7,1.1,0.6,1.6c0,0.4,0,1-0.3,1.3c-0.5,0.6-1,1.2-1.7,1.4
		c-0.9,0.2-1.9,0.5-2.9,0.3c-1.1-0.3-2.3-0.6-2.8-1.9C153.7,284.8,153.7,284.4,153.5,284z"/>
	<path class="st3" d="M143.7,284c0.6,0,1.1,0,1.6,0c0.1,0.2,0.3,0.3,0.3,0.5c0.3,0.8,0.8,1.2,1.7,1.1c0.5,0,1,0,1.5,0
		c0.3-0.3,0.6-0.6,1-1c0-1.4,0-1.3-1.4-1.8c-0.9-0.3-1.8-0.5-2.7-0.8c-1.2-0.4-1.7-1.1-1.7-2.3c0-1.1,0.8-2.4,1.8-2.7
		c0.6-0.2,1.3-0.2,1.9-0.3c0.6-0.1,1.2,0.3,1.8,0.3c0.8,0,1.5,0.9,1.6,1.8c0,0.2,0.1,0.4,0.2,0.6c-0.6,0-1.2,0-1.8,0
		c-0.2-0.6-0.4-1.2-1-1.3c-0.7-0.1-1.4-0.2-2.1,0.2c-0.5,0.3-0.8,0.8-0.8,1.2c0,0.4,0.4,0.8,0.9,1c1,0.3,2.1,0.5,3.1,0.9
		c0.6,0.2,1.1,0.4,1.4,0.9c0.3,0.5,0.6,1.1,0.6,1.7c0,0.4-0.2,1-0.4,1.3c-0.4,0.6-1,1.1-1.8,1.4c-1.2,0.4-2.3,0.3-3.5,0
		c-1-0.2-1.6-0.7-2.1-1.6C143.6,284.7,143.8,284.4,143.7,284z"/>
	<path class="st3" d="M156.7,235.9c0-0.3,0-0.5,0-0.7c1.7-0.1,3.2-0.6,4.9-0.7s3.3-0.1,5,0c1.6,0.1,3.2,0.6,4.9,0.7
		c0,0.2,0,0.4,0,0.7c-0.3,0-0.9,0-1,0.1c-0.5,0.9-1,0.5-1.6,0.3c-0.1,0-0.2,0-0.3,0c-1.9-0.1-3.8-0.3-5.7-0.2
		c-1.2,0.1-2.3,0.2-3.5,0.2c-0.2,0-0.3,0.2-0.5,0.2c-0.5,0-1.1,0.5-1.4-0.3C157.6,235.9,157.1,236,156.7,235.9z"/>
	<path class="st3" d="M153.4,256.9c-1,0-1.1-0.1-1.1-0.8c0-3.7,0-7.3,0-11c0-0.4,0.2-0.8,0.4-1.2c0.4,0.2,0.7,0.3,0.7,0.8
		c0,0.4,0,0.8,0,1.2c0,3.3,0,6.7,0,10C153.4,256.3,153.4,256.6,153.4,256.9z"/>
	<path class="st3" d="M175.6,243.9c0.1,0.5,0.3,0.9,0.3,1.3c0,3.6,0,7.1,0,10.7c0,0.8-0.1,0.9-1.1,0.9c0-2.1,0-4.3,0-6.4
		c0-1.8,0-3.7,0-5.5C174.9,244.4,175,244.1,175.6,243.9z"/>
	<path class="st3" d="M165.3,233.7c-0.8,0-1.5,0-2.3,0c0.1-0.6,0.5-1,1-1C164.7,232.6,165,233,165.3,233.7z"/>
	<path class="st3" d="M137.2,251.2c1.6,1.4,1.6,2.4,0,3.8c-0.5,0-1.1,0-1.7,0c-0.8-0.7-1.4-1.5-0.9-2.7
		C135.1,251.1,136.1,251.1,137.2,251.2z"/>
	<path class="st3" d="M124,255c-1.6-1.4-1.8-2.3,0-3.9c0.7,0,1.5-0.1,2.1,0.5c0.4,0.4,0.5,0.9,0.5,1.4C126.6,254.5,126,255,124,255z
		"/>
	<path class="st3" d="M102,282.1c0.8-0.2,1.1,0.3,1.4,0.7c0.4,0.7,0.9,0.8,1.6,0.9c0.8,0,1.4-0.3,1.8-0.8c0.6-0.8,0.1-2-0.9-2.2
		c-0.5-0.1-0.9-0.2-1.4-0.3c0-0.2,0-0.4,0-0.6c0.7-0.3,1.6-0.3,2.2-1.1c0-0.2,0-0.4,0-0.6c0-0.9-0.4-1.3-1.3-1.4c-0.4,0-0.8,0-1.4,0
		c-0.2,0.2-0.4,0.4-0.6,0.7c-0.5,0.7-0.5,0.7-1.4,0.7c0.1-0.2,0.2-0.4,0.2-0.5c0.1-0.2,0.2-0.4,0.2-0.6c0.1-0.5,0.4-0.7,0.9-0.9
		c1-0.5,2.1-0.5,3.1-0.1c0.5,0.2,0.9,0.8,1.3,1.2c0,0.7,0,1.3,0,2.1c-0.3,0.2-0.7,0.6-1.1,0.9c0.5,0.4,0.9,0.8,1.4,1.1
		c0,0.7,0,1.3,0,2.1c-0.5,0.4-1.1,0.8-1.6,1.3c-0.5,0.4-1.1-0.2-1.5,0.4c-0.4-0.1-0.8-0.1-1.2-0.3C102.9,284,102.1,283.3,102,282.1z
		"/>
</g>
<path class="st8" d="M317.1,255.5v-12.2H305v4.1h-20.3v-4.1h-12.2v12.2h4.1v20.3h-4.1V288h12.2v-4.1H305v4.1h12.2v-12.2h-4.1v-20.3
	H317.1z M276.6,247.4h4.1v4.1h-4.1V247.4z M280.6,283.9h-4.1v-4.1h4.1V283.9z M305,279.9h-20.3v-4.1h-4.1v-20.3h4.1v-4.1H305v4.1
	h4.1v20.3H305V279.9z M313.1,283.9H309v-4.1h4.1V283.9z M309,251.5v-4.1h4.1v4.1H309z M298.3,269.7h-7.1l-1.5,4.1h-3.3l6.9-18.3h2.8
	l6.9,18.3h-3.3C299.8,273.8,298.3,269.7,298.3,269.7z M292.2,267.2h5.3l-2.6-7.8C294.8,259.4,292.2,267.2,292.2,267.2z"/>
<polygon class="st0" points="135.1,309.8 131.1,309.8 131.1,305.8 129.1,305.8 129.1,309.8 125,309.8 125,311.9 129.1,311.9 
	129.1,315.9 131.1,315.9 131.1,311.9 135.1,311.9 "/>
<polygon class="st0" points="299.9,309.8 295.8,309.8 295.8,305.8 293.8,305.8 293.8,309.8 289.7,309.8 289.7,311.9 293.8,311.9 
	293.8,315.9 295.8,315.9 295.8,311.9 299.9,311.9 "/>
</svg>
