<?xml version="1.0" encoding="utf-8"?>
<!-- Generator: Adobe Illustrator 23.0.1, SVG Export Plug-In . SVG Version: 6.00 Build 0)  -->
<svg version="1.1" id="Layer_1" xmlns="http://www.w3.org/2000/svg" xmlns:xlink="http://www.w3.org/1999/xlink" x="0px" y="0px"
	 viewBox="0 0 283 480.5" style="enable-background:new 0 0 283 480.5;" xml:space="preserve">
<style type="text/css">
	.st0{fill-rule:evenodd;clip-rule:evenodd;fill-opacity:0;}
	.st1{fill:#5400D5;}
	.st2{fill-opacity:0;}
	.st3{fill:#5401D5;}
</style>
<path class="st0" d="M51,330.2h184.2v84.6H51V330.2z"/>
<path class="st1" d="M63,354.5c-0.6,0-1.1-0.2-1.6-0.7s-0.7-1-0.7-1.6v-9.3h2.1v8.8c0,0.3,0,0.5,0.1,0.5c0,0,0.2,0,0.5,0h6.2
	c0.3,0,0.4,0,0.5,0c0,0,0.1-0.2,0.1-0.5v-8.8h2.1v9.3c0,0.6-0.2,1.1-0.7,1.6s-1,0.7-1.6,0.7H63z M76.1,354.5c-0.6,0-1.1-0.2-1.6-0.6
	c-0.4-0.4-0.6-1-0.6-1.6v-0.4H76v0.1c0,0.2,0,0.3,0,0.3s0.2,0,0.3,0h4.5c0.2,0,0.3,0,0.3,0s0.1-0.2,0.1-0.3v-0.8
	c0-0.2,0-0.3-0.1-0.3c0,0-0.1-0.1-0.3-0.1H76c-0.6,0-1.1-0.2-1.6-0.7c-0.4-0.4-0.6-1-0.6-1.6v-1.3c0-0.6,0.2-1.1,0.6-1.5
	c0.4-0.4,1-0.7,1.6-0.7h5c0.6,0,1.1,0.2,1.6,0.7c0.4,0.4,0.7,0.9,0.7,1.5v0.4h-2.1v-0.1c0-0.2,0-0.3-0.1-0.3c0,0-0.1-0.1-0.3-0.1
	h-4.5c-0.2,0-0.3,0-0.3,0.1c0,0,0,0.1,0,0.3v0.8c0,0.2,0,0.3,0,0.3s0.2,0,0.3,0h4.8c0.6,0,1.1,0.2,1.6,0.7s0.7,1,0.7,1.6v1.3
	c0,0.6-0.2,1.1-0.7,1.6c-0.4,0.4-1,0.6-1.6,0.6h-5V354.5z M84.9,354.5v-9.3H87v9.3H84.9z M84.9,344.3v-2.1H87v2.1H84.9z M88.8,354.5
	v-9.3H96c0.6,0,1.1,0.2,1.5,0.7c0.4,0.4,0.7,0.9,0.7,1.5v7.1h-2.1v-6.6c0-0.3,0-0.5-0.1-0.5c0,0-0.2-0.1-0.5-0.1h-4.1
	c-0.3,0-0.5,0-0.5,0.1c0,0-0.1,0.2-0.1,0.5v6.6H88.8z M101.2,358.2v-2.1h5.2c0.3,0,0.5,0,0.5-0.1c0,0,0.1-0.2,0.1-0.5v-1h-5.1
	c-0.6,0-1.1-0.2-1.6-0.6c-0.4-0.4-0.6-1-0.6-1.6v-4.9c0-0.6,0.2-1.1,0.6-1.5c0.4-0.4,1-0.7,1.6-0.7h5c0.6,0,1.1,0.2,1.5,0.7
	c0.4,0.4,0.6,0.9,0.6,1.5v8.5c0,0.6-0.2,1.1-0.6,1.6c-0.4,0.4-0.9,0.6-1.5,0.6h-5.7V358.2z M102.3,352.4h4.1c0.3,0,0.5,0,0.5,0
	s0.1-0.2,0.1-0.5v-4c0-0.3,0-0.5-0.1-0.5c0,0-0.2-0.1-0.5-0.1h-4.1c-0.3,0-0.5,0-0.5,0.1c0,0,0,0.2,0,0.5v4c0,0.3,0,0.5,0,0.5
	S102,352.4,102.3,352.4z M117.9,354.5c-0.6,0-1.1-0.2-1.6-0.7s-0.7-1-0.7-1.6v-0.9h2.1v0.4c0,0.3,0,0.5,0.1,0.5c0,0,0.2,0,0.5,0h6.2
	c0.3,0,0.5,0,0.5,0s0.1-0.2,0.1-0.5v-1.5c0-0.3,0-0.5-0.1-0.5c0,0-0.2,0-0.5,0h-6.6c-0.6,0-1.1-0.2-1.6-0.7c-0.4-0.4-0.7-1-0.7-1.6
	v-2.2c0-0.6,0.2-1.1,0.7-1.6s1-0.7,1.6-0.7h7.1c0.6,0,1.1,0.2,1.6,0.7s0.7,1,0.7,1.6v0.9h-2.1v-0.4c0-0.3,0-0.5-0.1-0.5
	c0,0-0.2-0.1-0.5-0.1h-6.2c-0.3,0-0.5,0-0.5,0.1c0,0-0.1,0.2-0.1,0.5v1.5c0,0.3,0,0.5,0.1,0.5c0,0,0.2,0,0.5,0h6.6
	c0.6,0,1.1,0.2,1.6,0.7c0.4,0.4,0.7,1,0.7,1.6v2.4c0,0.6-0.2,1.1-0.7,1.6s-1,0.7-1.6,0.7h-7.1V354.5z M131.1,354.5
	c-0.6,0-1.1-0.2-1.6-0.6c-0.4-0.4-0.6-1-0.6-1.6v-4.9c0-0.6,0.2-1.1,0.6-1.5c0.4-0.4,1-0.7,1.6-0.7h5c0.6,0,1.1,0.2,1.5,0.7
	c0.4,0.4,0.7,0.9,0.7,1.5v3.5H131v0.9c0,0.3,0,0.5,0.1,0.5c0,0,0.2,0,0.5,0h6.8v2.1h-7.3V354.5z M131,349h5.2v-1.2
	c0-0.3,0-0.5-0.1-0.5c0,0-0.2-0.1-0.5-0.1h-4.1c-0.3,0-0.5,0-0.5,0.1c0,0-0.1,0.2-0.1,0.5L131,349L131,349z M139.9,354.5v-7.1
	c0-0.6,0.2-1.1,0.6-1.5c0.4-0.4,1-0.7,1.6-0.7h5.1v2.1h-4.7c-0.3,0-0.5,0-0.5,0.1c0,0-0.1,0.2-0.1,0.5v6.6L139.9,354.5L139.9,354.5z
	 M152.9,354.5l-5.1-9.3h2.4l3.7,6.7l3.6-6.7h2.4l-5.1,9.3H152.9z M161.1,354.5v-9.3h2.1v9.3H161.1z M161.1,344.3v-2.1h2.1v2.1H161.1
	z M166.9,354.5c-0.6,0-1.1-0.2-1.6-0.6c-0.4-0.4-0.6-1-0.6-1.6v-4.9c0-0.6,0.2-1.1,0.6-1.5c0.4-0.4,1-0.7,1.6-0.7h7.2v2.1h-6.8
	c-0.3,0-0.5,0-0.5,0.1c0,0-0.1,0.2-0.1,0.5v4c0,0.3,0,0.5,0.1,0.5c0,0,0.2,0,0.5,0h6.8v2.1L166.9,354.5L166.9,354.5z M177.6,354.5
	c-0.6,0-1.1-0.2-1.6-0.6c-0.4-0.4-0.6-1-0.6-1.6v-4.9c0-0.6,0.2-1.1,0.6-1.5c0.4-0.4,1-0.7,1.6-0.7h5c0.6,0,1.1,0.2,1.5,0.7
	c0.4,0.4,0.7,0.9,0.7,1.5v3.5h-7.3v0.9c0,0.3,0,0.5,0.1,0.5c0,0,0.2,0,0.5,0h6.8v2.1h-7.3V354.5z M177.5,349h5.2v-1.2
	c0-0.3,0-0.5-0.1-0.5c0,0-0.2-0.1-0.5-0.1h-4.1c-0.3,0-0.5,0-0.5,0.1c0,0-0.1,0.2-0.1,0.5L177.5,349L177.5,349z M188.5,354.5
	c-0.6,0-1.1-0.2-1.6-0.6c-0.4-0.4-0.6-1-0.6-1.6v-0.4h2.1v0.1c0,0.2,0,0.3,0,0.3s0.2,0,0.3,0h4.5c0.2,0,0.3,0,0.3,0s0.1-0.2,0.1-0.3
	v-0.8c0-0.2,0-0.3-0.1-0.3c0,0-0.1-0.1-0.3-0.1h-4.8c-0.6,0-1.1-0.2-1.6-0.7c-0.4-0.4-0.6-1-0.6-1.6v-1.3c0-0.6,0.2-1.1,0.6-1.5
	c0.4-0.4,1-0.7,1.6-0.7h5c0.6,0,1.1,0.2,1.6,0.7c0.4,0.4,0.7,0.9,0.7,1.5v0.4h-2.1v-0.1c0-0.2,0-0.3-0.1-0.3c0,0-0.1-0.1-0.3-0.1
	h-4.5c-0.2,0-0.3,0-0.3,0.1c0,0,0,0.1,0,0.3v0.8c0,0.2,0,0.3,0,0.3s0.2,0,0.3,0h4.8c0.6,0,1.1,0.2,1.6,0.7c0.4,0.4,0.7,1,0.7,1.6
	v1.3c0,0.6-0.2,1.1-0.7,1.6c-0.4,0.4-1,0.6-1.6,0.6h-5V354.5z M197.3,347.3v-2.1h2.1v2.1H197.3z M197.3,354.5v-2.1h2.1v2.1H197.3z"
	/>
<path class="st1" d="M63.5,393.5v-16.8h3.6v16.8H63.5z"/>
<path d="M78.4,388.8c-0.5,0-0.9-0.1-1.4-0.3c-0.4-0.2-0.8-0.4-1.1-0.8s-0.5-0.8-0.7-1.3s-0.2-1.1-0.2-1.7c0-0.6,0.1-1.2,0.3-1.7
	s0.4-0.9,0.7-1.3s0.7-0.6,1.1-0.8c0.4-0.2,0.9-0.3,1.4-0.3s1,0.1,1.3,0.3c0.4,0.2,0.7,0.4,0.9,0.7l-0.7,0.8
	c-0.2-0.2-0.4-0.4-0.6-0.5c-0.2-0.1-0.5-0.2-0.9-0.2c-0.3,0-0.6,0.1-0.9,0.2c-0.3,0.1-0.5,0.3-0.7,0.6c-0.2,0.3-0.4,0.6-0.5,1
	s-0.2,0.8-0.2,1.2c0,0.9,0.2,1.7,0.6,2.2c0.4,0.5,1,0.8,1.7,0.8c0.2,0,0.5,0,0.7-0.1s0.4-0.2,0.5-0.3v-1.9h-1.5v-1h2.5v3.4
	c-0.2,0.3-0.6,0.5-1,0.7C79.4,388.7,78.9,388.8,78.4,388.8z M85.1,388.8c-0.4,0-0.7-0.1-1.1-0.2c-0.4-0.1-0.7-0.3-0.9-0.6
	c-0.3-0.3-0.5-0.6-0.7-1s-0.2-0.8-0.2-1.3s0.1-0.9,0.2-1.3c0.2-0.4,0.4-0.7,0.7-1c0.3-0.3,0.6-0.5,0.9-0.6c0.4-0.1,0.7-0.2,1.1-0.2
	c0.4,0,0.8,0.1,1.1,0.2c0.4,0.1,0.7,0.3,0.9,0.6c0.3,0.3,0.5,0.6,0.6,1c0.2,0.4,0.2,0.8,0.2,1.3s-0.1,0.9-0.2,1.3
	c-0.2,0.4-0.4,0.7-0.6,1c-0.3,0.3-0.6,0.5-0.9,0.6C85.9,388.8,85.5,388.8,85.1,388.8z M85.1,387.8c0.5,0,0.9-0.2,1.2-0.6
	s0.5-0.9,0.5-1.5s-0.2-1.1-0.5-1.5s-0.7-0.6-1.2-0.6s-0.9,0.2-1.2,0.6c-0.3,0.4-0.5,0.9-0.5,1.5s0.2,1.1,0.5,1.5
	C84.2,387.7,84.6,387.8,85.1,387.8z M92.3,388.8c-0.4,0-0.7-0.1-1.1-0.2c-0.4-0.1-0.7-0.3-0.9-0.6c-0.3-0.3-0.5-0.6-0.7-1
	s-0.2-0.8-0.2-1.3s0.1-0.9,0.2-1.3c0.2-0.4,0.4-0.7,0.7-1c0.3-0.3,0.6-0.5,0.9-0.6c0.4-0.1,0.7-0.2,1.1-0.2c0.4,0,0.8,0.1,1.1,0.2
	c0.4,0.1,0.7,0.3,0.9,0.6c0.3,0.3,0.5,0.6,0.6,1c0.2,0.4,0.2,0.8,0.2,1.3s-0.1,0.9-0.2,1.3c-0.2,0.4-0.4,0.7-0.6,1
	c-0.3,0.3-0.6,0.5-0.9,0.6C93.1,388.8,92.7,388.8,92.3,388.8z M92.3,387.8c0.5,0,0.9-0.2,1.2-0.6s0.5-0.9,0.5-1.5s-0.2-1.1-0.5-1.5
	s-0.7-0.6-1.2-0.6s-0.9,0.2-1.2,0.6c-0.3,0.4-0.5,0.9-0.5,1.5s0.2,1.1,0.5,1.5C91.4,387.7,91.8,387.8,92.3,387.8z M99.4,391.3
	c-0.8,0-1.5-0.1-2-0.4c-0.5-0.3-0.7-0.7-0.7-1.2s0.3-0.9,1-1.3l0,0c-0.2-0.1-0.3-0.2-0.4-0.4c-0.1-0.2-0.2-0.4-0.2-0.6
	s0.1-0.4,0.2-0.6c0.1-0.2,0.3-0.4,0.5-0.5l0,0c-0.2-0.1-0.4-0.3-0.5-0.6c-0.1-0.3-0.2-0.6-0.2-0.9c0-0.3,0.1-0.6,0.2-0.9
	c0.1-0.3,0.3-0.5,0.5-0.7c0.2-0.2,0.5-0.3,0.8-0.4s0.6-0.2,0.9-0.2s0.6,0,0.9,0.1h2.4v0.9h-1.4c0.1,0.1,0.2,0.3,0.3,0.5
	c0.1,0.2,0.1,0.4,0.1,0.6c0,0.3-0.1,0.6-0.2,0.8c-0.1,0.2-0.3,0.5-0.5,0.6c-0.2,0.2-0.5,0.3-0.7,0.4c-0.3,0.1-0.6,0.1-0.9,0.1
	c-0.1,0-0.3,0-0.5,0s-0.3-0.1-0.5-0.1c-0.3,0.2-0.4,0.4-0.4,0.6c0,0.4,0.4,0.6,1.2,0.6h1.2c0.8,0,1.3,0.1,1.7,0.3
	c0.4,0.2,0.6,0.6,0.6,1.1c0,0.3-0.1,0.6-0.2,0.8c-0.1,0.2-0.4,0.5-0.7,0.7c-0.3,0.2-0.6,0.3-1,0.4
	C100.4,391.3,99.9,391.3,99.4,391.3z M99.4,386.1c0.3,0,0.6-0.1,0.9-0.3c0.2-0.2,0.4-0.5,0.4-1c0-0.4-0.1-0.7-0.4-0.9
	c-0.2-0.2-0.5-0.4-0.9-0.4c-0.3,0-0.6,0.1-0.9,0.4c-0.2,0.2-0.4,0.5-0.4,0.9s0.1,0.7,0.4,1C98.8,385.9,99.1,386.1,99.4,386.1z
	 M99.6,390.5c0.3,0,0.6,0,0.8-0.1c0.3-0.1,0.5-0.1,0.6-0.2c0.2-0.1,0.3-0.2,0.4-0.3c0.1-0.1,0.2-0.3,0.2-0.4c0-0.3-0.1-0.4-0.3-0.5
	s-0.5-0.1-0.9-0.1h-1c-0.2,0-0.4,0-0.5,0s-0.3,0-0.4-0.1c-0.2,0.1-0.4,0.3-0.5,0.4c-0.1,0.2-0.1,0.3-0.1,0.5c0,0.3,0.2,0.5,0.5,0.7
	C98.5,390.4,99,390.5,99.6,390.5z M108,388.8c-0.7,0-1.2-0.2-1.5-0.6c-0.3-0.4-0.5-0.9-0.5-1.6v-5.5h-2v-1h3.2v6.5
	c0,0.4,0.1,0.7,0.3,0.9c0.2,0.2,0.5,0.3,0.8,0.3s0.7-0.1,1.1-0.2l0.3,0.9c-0.3,0.1-0.5,0.2-0.8,0.2
	C108.6,388.8,108.3,388.8,108,388.8z M114.3,388.8c-0.4,0-0.9-0.1-1.2-0.2c-0.4-0.1-0.7-0.3-1-0.6c-0.3-0.3-0.5-0.6-0.7-1
	s-0.2-0.8-0.2-1.3s0.1-0.9,0.2-1.3c0.2-0.4,0.4-0.7,0.7-1c0.3-0.3,0.6-0.5,1-0.6s0.7-0.2,1.1-0.2c0.4,0,0.8,0.1,1.1,0.2
	c0.3,0.1,0.6,0.3,0.9,0.6c0.2,0.2,0.4,0.5,0.5,0.9c0.1,0.3,0.2,0.7,0.2,1.1c0,0.1,0,0.2,0,0.4c0,0.1,0,0.2,0,0.3h-4.5
	c0.1,0.6,0.3,1.1,0.7,1.4s0.9,0.4,1.5,0.4c0.3,0,0.6,0,0.9-0.1c0.3-0.1,0.5-0.2,0.8-0.4l0.4,0.8c-0.3,0.2-0.6,0.4-1,0.5
	C115.2,388.8,114.8,388.8,114.3,388.8z M114.2,383.6c-0.2,0-0.4,0-0.6,0.1c-0.2,0.1-0.4,0.2-0.5,0.3c-0.2,0.1-0.3,0.3-0.4,0.5
	c-0.1,0.2-0.2,0.4-0.2,0.7h3.4c0-0.5-0.2-0.9-0.5-1.2C115,383.7,114.6,383.6,114.2,383.6z M125.6,388.7v-7.9h1.4l1,3.2l0.3,1.2l0,0
	l0.3-1.2l1-3.2h1.4v7.9h-1.1v-3.5c0-0.2,0-0.4,0-0.7c0-0.3,0-0.5,0.1-0.8c0-0.3,0-0.6,0.1-0.8c0-0.3,0-0.5,0-0.7l0,0l-0.5,1.7
	l-1,2.8h-0.8l-1-2.8l-0.5-1.7l0,0c0,0.2,0,0.4,0.1,0.7c0,0.3,0,0.5,0.1,0.8c0,0.3,0,0.6,0,0.8c0,0.3,0,0.5,0,0.7v3.5H125.6z
	 M134.8,388.8c-0.3,0-0.5,0-0.8-0.1c-0.2-0.1-0.4-0.2-0.6-0.3c-0.2-0.2-0.3-0.3-0.4-0.5c-0.1-0.2-0.2-0.4-0.2-0.7
	c0-0.3,0.1-0.6,0.2-0.9c0.2-0.2,0.4-0.5,0.7-0.6c0.3-0.2,0.8-0.3,1.3-0.4c0.5-0.1,1.2-0.2,1.9-0.3c0-0.4-0.1-0.7-0.3-0.9
	c-0.2-0.3-0.6-0.4-1.1-0.4c-0.4,0-0.7,0.1-1.1,0.2c-0.3,0.1-0.6,0.3-0.9,0.5l-0.4-0.8c0.2-0.1,0.3-0.2,0.5-0.3s0.4-0.2,0.6-0.3
	c0.2-0.1,0.5-0.1,0.7-0.2c0.2-0.1,0.5-0.1,0.8-0.1c0.8,0,1.4,0.2,1.8,0.7c0.4,0.4,0.6,1,0.6,1.8v3.5h-1l-0.1-0.8l0,0
	c-0.3,0.2-0.7,0.4-1.1,0.6C135.6,388.7,135.3,388.8,134.8,388.8z M135.2,387.9c0.3,0,0.6-0.1,0.9-0.2c0.3-0.1,0.6-0.3,0.9-0.6v-1.4
	c-0.6,0-1.1,0.1-1.4,0.2c-0.4,0.1-0.7,0.2-0.9,0.3s-0.4,0.2-0.5,0.4c-0.1,0.1-0.1,0.3-0.1,0.5c0,0.3,0.1,0.5,0.3,0.6
	S134.9,387.9,135.2,387.9z M140.2,391.1v-8.3h1l0.1,0.7l0,0c0.3-0.3,0.6-0.5,0.9-0.6c0.3-0.2,0.7-0.2,1-0.2c0.4,0,0.7,0.1,1,0.2
	s0.6,0.3,0.8,0.6c0.2,0.3,0.4,0.6,0.5,1s0.2,0.8,0.2,1.2c0,0.5-0.1,1-0.2,1.4c-0.1,0.4-0.3,0.7-0.6,1c-0.2,0.3-0.5,0.5-0.8,0.6
	s-0.6,0.2-1,0.2c-0.3,0-0.6-0.1-0.9-0.2c-0.3-0.1-0.6-0.3-0.8-0.5l0,0l0.1,1.1v1.9L140.2,391.1L140.2,391.1z M142.8,387.8
	c0.5,0,0.9-0.2,1.2-0.5c0.3-0.4,0.5-0.9,0.5-1.6c0-0.6-0.1-1.1-0.4-1.5c-0.2-0.4-0.6-0.5-1.1-0.5c-0.2,0-0.5,0.1-0.8,0.2
	c-0.3,0.1-0.5,0.3-0.8,0.6v2.8c0.2,0.2,0.5,0.4,0.8,0.5C142.4,387.8,142.6,387.8,142.8,387.8z"/>
<path class="st1" d="M63.5,422.5v-16.8h3.6v16.8H63.5z"/>
<path d="M75.2,417.7v-7.9h1.4l1,3.2l0.3,1.2l0,0l0.3-1.2l1-3.2h1.4v7.9h-1v-3.5c0-0.2,0-0.4,0-0.7c0-0.3,0-0.5,0.1-0.8
	c0-0.3,0-0.6,0.1-0.8c0-0.3,0-0.5,0-0.7l0,0l-0.5,1.7l-1,2.8h-0.7l-1-2.8l-0.5-1.7l0,0c0,0.2,0,0.4,0.1,0.7c0,0.3,0,0.5,0.1,0.8
	c0,0.3,0,0.6,0,0.8c0,0.3,0,0.5,0,0.7v3.5L75.2,417.7L75.2,417.7z M85.2,417.8c-0.4,0-0.8-0.1-1.1-0.2s-0.6-0.3-0.9-0.6
	c-0.2-0.2-0.4-0.6-0.5-1s-0.2-0.9-0.2-1.4v-4.9h1.2v4.9c0,0.7,0.1,1.2,0.4,1.5c0.3,0.3,0.6,0.5,1.1,0.5c0.4,0,0.8-0.2,1.1-0.5
	s0.4-0.8,0.4-1.5v-4.9h1.2v4.9c0,0.6-0.1,1-0.2,1.4c-0.1,0.4-0.3,0.7-0.5,1c-0.2,0.2-0.5,0.4-0.8,0.6
	C85.9,417.8,85.6,417.8,85.2,417.8z M89.7,417.7v-7.9H91l2.3,4.7l0.7,1.7l0,0c0-0.4-0.1-0.8-0.1-1.3c0-0.4-0.1-0.9-0.1-1.3v-3.8H95
	v7.9h-1.3l-2.3-4.7l-0.7-1.7l0,0c0,0.4,0.1,0.8,0.1,1.3c0.1,0.4,0.1,0.9,0.1,1.3v3.8H89.7z M97,417.7v-1h1.9v-5.8H97v-1h5v1h-1.9
	v5.8h1.9v1H97z M111.2,417.7v-7.9h1.4l1,3.2l0.3,1.2l0,0l0.3-1.2l1-3.2h1.4v7.9h-1v-3.5c0-0.2,0-0.4,0-0.7c0-0.3,0-0.5,0.1-0.8
	c0-0.3,0-0.6,0.1-0.8c0-0.3,0-0.5,0-0.7l0,0l-0.5,1.7l-1,2.8h-0.7l-1-2.8l-0.5-1.7l0,0c0,0.2,0,0.4,0.1,0.7c0,0.3,0,0.5,0.1,0.8
	c0,0.3,0,0.6,0,0.8c0,0.3,0,0.5,0,0.7v3.5L111.2,417.7L111.2,417.7z M121.1,417.8c-0.4,0-0.7-0.1-1.1-0.2c-0.4-0.1-0.7-0.3-0.9-0.6
	c-0.3-0.3-0.5-0.6-0.7-1s-0.2-0.8-0.2-1.3s0.1-0.9,0.2-1.3c0.2-0.4,0.4-0.7,0.7-1s0.6-0.5,0.9-0.6c0.4-0.1,0.7-0.2,1.1-0.2
	c0.4,0,0.8,0.1,1.1,0.2c0.4,0.1,0.7,0.3,0.9,0.6c0.3,0.3,0.5,0.6,0.6,1c0.2,0.4,0.2,0.8,0.2,1.3s-0.1,0.9-0.2,1.3
	c-0.2,0.4-0.4,0.7-0.6,1c-0.3,0.3-0.6,0.5-0.9,0.6C121.9,417.8,121.5,417.8,121.1,417.8z M121.1,416.8c0.5,0,0.9-0.2,1.2-0.6
	s0.5-0.9,0.5-1.5s-0.2-1.1-0.5-1.5s-0.7-0.6-1.2-0.6s-0.9,0.2-1.2,0.6s-0.5,0.9-0.5,1.5s0.2,1.1,0.5,1.5
	C120.2,416.7,120.6,416.8,121.1,416.8z M128.7,417.8c-0.3,0-0.6-0.1-0.9-0.2c-0.3-0.1-0.6-0.3-0.9-0.6l0,0l-0.1,0.6h-0.9v-8.4h1.2
	v2.3v1.1l0,0c0.2-0.3,0.5-0.5,0.9-0.6c0.3-0.2,0.7-0.2,1-0.2c0.4,0,0.7,0.1,1,0.2s0.6,0.3,0.8,0.6c0.2,0.3,0.4,0.6,0.5,1
	s0.2,0.8,0.2,1.2c0,0.5-0.1,1-0.2,1.4c-0.1,0.4-0.3,0.7-0.6,1c-0.2,0.3-0.5,0.5-0.8,0.6C129.3,417.8,129,417.8,128.7,417.8z
	 M128.4,416.8c0.5,0,0.9-0.2,1.2-0.5c0.3-0.4,0.5-0.9,0.5-1.6c0-0.6-0.1-1.1-0.4-1.5c-0.2-0.4-0.6-0.5-1.1-0.5
	c-0.2,0-0.5,0.1-0.8,0.2s-0.5,0.3-0.8,0.6v2.8c0.2,0.2,0.5,0.4,0.8,0.5C128,416.8,128.2,416.8,128.4,416.8z M135.6,417.7v-4.9H133
	v-1h3.8v5.9H135.6z M136.5,410.7c-0.2,0-0.5-0.1-0.6-0.2c-0.2-0.2-0.2-0.4-0.2-0.6c0-0.3,0.1-0.5,0.2-0.6c0.2-0.2,0.4-0.2,0.6-0.2
	c0.3,0,0.5,0.1,0.6,0.2c0.2,0.2,0.2,0.4,0.2,0.6c0,0.3-0.1,0.5-0.2,0.6C137,410.6,136.8,410.7,136.5,410.7z M144,417.8
	c-0.7,0-1.2-0.2-1.5-0.6s-0.5-0.9-0.5-1.6v-5.5h-2v-1h3.2v6.5c0,0.4,0.1,0.7,0.3,0.9c0.2,0.2,0.5,0.3,0.8,0.3s0.7-0.1,1.1-0.2
	l0.3,0.9c-0.3,0.1-0.5,0.2-0.8,0.2C144.6,417.8,144.3,417.8,144,417.8z M150.3,417.8c-0.4,0-0.9-0.1-1.2-0.2c-0.4-0.1-0.7-0.3-1-0.6
	c-0.3-0.3-0.5-0.6-0.7-1s-0.2-0.8-0.2-1.3s0.1-0.9,0.2-1.3c0.2-0.4,0.4-0.7,0.7-1s0.6-0.5,1-0.6s0.7-0.2,1.1-0.2
	c0.4,0,0.8,0.1,1.1,0.2s0.6,0.3,0.9,0.6c0.2,0.2,0.4,0.5,0.5,0.9c0.1,0.3,0.2,0.7,0.2,1.1c0,0.1,0,0.2,0,0.4c0,0.1,0,0.2,0,0.3h-4.5
	c0.1,0.6,0.3,1.1,0.7,1.4s0.9,0.4,1.5,0.4c0.3,0,0.6,0,0.9-0.1c0.3-0.1,0.5-0.2,0.8-0.4l0.4,0.8c-0.3,0.2-0.6,0.4-1,0.5
	C151.2,417.8,150.8,417.8,150.3,417.8z M150.2,412.6c-0.2,0-0.4,0-0.6,0.1c-0.2,0.1-0.4,0.2-0.5,0.3c-0.2,0.1-0.3,0.3-0.4,0.5
	c-0.1,0.2-0.2,0.4-0.2,0.7h3.4c0-0.5-0.2-0.9-0.5-1.2C151,412.7,150.6,412.6,150.2,412.6z"/>
<path class="st1" d="M63.5,451.5v-16.8h3.6v16.8H63.5z"/>
<path d="M77.4,446.7v-6.9h-2.5v-1h6.3v1h-2.6v6.9H77.4z M84.4,446.8c-0.3,0-0.5,0-0.8-0.1c-0.2-0.1-0.4-0.2-0.6-0.3
	c-0.2-0.2-0.3-0.3-0.4-0.5c-0.1-0.2-0.2-0.4-0.2-0.7c0-0.3,0.1-0.6,0.2-0.9c0.2-0.2,0.4-0.5,0.7-0.6c0.3-0.2,0.8-0.3,1.3-0.4
	s1.2-0.2,1.9-0.3c0-0.4-0.1-0.7-0.3-0.9c-0.2-0.3-0.6-0.4-1.1-0.4c-0.4,0-0.7,0.1-1.1,0.2c-0.3,0.1-0.6,0.3-0.9,0.5l-0.4-0.8
	c0.2-0.1,0.3-0.2,0.5-0.3c0.2-0.1,0.4-0.2,0.6-0.3c0.2-0.1,0.5-0.1,0.7-0.2s0.5-0.1,0.8-0.1c0.8,0,1.4,0.2,1.8,0.7
	c0.4,0.4,0.6,1,0.6,1.8v3.5h-1l-0.1-0.8l0,0c-0.3,0.2-0.7,0.4-1.1,0.6C85.2,446.7,84.9,446.8,84.4,446.8z M84.8,445.9
	c0.3,0,0.6-0.1,0.9-0.2c0.3-0.1,0.6-0.3,0.9-0.6v-1.4c-0.6,0-1.1,0.1-1.4,0.2c-0.4,0.1-0.7,0.2-0.9,0.3c-0.2,0.1-0.4,0.2-0.5,0.4
	c-0.1,0.1-0.1,0.3-0.1,0.5c0,0.3,0.1,0.5,0.3,0.6C84.2,445.8,84.5,445.9,84.8,445.9z M89.8,446.7v-5.9h1l0.1,1l0,0
	c0.3-0.3,0.6-0.6,1-0.8c0.3-0.2,0.7-0.3,1.2-0.3c0.7,0,1.2,0.2,1.5,0.6s0.5,1,0.5,1.8v3.6h-1.2v-3.5c0-0.5-0.1-0.9-0.3-1.1
	s-0.5-0.4-1-0.4c-0.3,0-0.6,0.1-0.8,0.2c-0.2,0.2-0.5,0.4-0.8,0.7v4L89.8,446.7L89.8,446.7z M99.6,446.8c-0.6,0-1.1-0.1-1.6-0.3
	c-0.5-0.2-0.9-0.4-1.3-0.6l0.5-0.8c0.3,0.2,0.7,0.4,1.1,0.6c0.4,0.1,0.9,0.2,1.4,0.2s0.8-0.1,1-0.2c0.2-0.2,0.3-0.3,0.3-0.6
	c0-0.1,0-0.2-0.1-0.3c0-0.1-0.1-0.2-0.2-0.2c-0.1-0.1-0.3-0.2-0.5-0.2c-0.2-0.1-0.5-0.2-0.9-0.2c-0.8-0.2-1.3-0.4-1.7-0.6
	c-0.4-0.3-0.6-0.6-0.6-1.1c0-0.2,0.1-0.5,0.2-0.7c0.1-0.2,0.3-0.4,0.5-0.5c0.2-0.2,0.5-0.3,0.8-0.4s0.7-0.1,1.1-0.1
	c0.5,0,0.9,0.1,1.3,0.2s0.8,0.3,1.1,0.5l-0.6,0.8c-0.3-0.2-0.6-0.3-0.9-0.4c-0.3-0.1-0.7-0.2-1-0.2c-0.4,0-0.8,0.1-0.9,0.2
	c-0.2,0.1-0.3,0.3-0.3,0.5s0.1,0.4,0.4,0.5c0.2,0.1,0.7,0.2,1.2,0.4c0.5,0.1,0.9,0.2,1.2,0.3c0.3,0.1,0.6,0.2,0.7,0.4
	c0.2,0.1,0.3,0.3,0.4,0.5c0.1,0.2,0.1,0.4,0.1,0.6s-0.1,0.5-0.2,0.7c-0.1,0.2-0.3,0.4-0.5,0.6s-0.5,0.3-0.8,0.4
	C100.4,446.8,100.1,446.8,99.6,446.8z M106.8,446.7v-4.9h-2.6v-1h3.8v5.9H106.8z M107.7,439.7c-0.2,0-0.5-0.1-0.6-0.2
	c-0.2-0.2-0.2-0.4-0.2-0.6c0-0.3,0.1-0.5,0.2-0.6s0.4-0.2,0.6-0.2c0.3,0,0.5,0.1,0.6,0.2s0.2,0.4,0.2,0.6c0,0.3-0.1,0.5-0.2,0.6
	C108.2,439.6,108,439.7,107.7,439.7z M115.1,446.8c-0.4,0-0.8-0.1-1.1-0.2s-0.5-0.3-0.7-0.5s-0.3-0.5-0.4-0.8
	c-0.1-0.3-0.1-0.6-0.1-1v-2.6h-1.6v-0.9l1.7-0.1l0.2-1.9h1v1.9h2.8v1h-2.8v2.6c0,0.5,0.1,0.9,0.3,1.1s0.6,0.4,1.1,0.4
	c0.2,0,0.5,0,0.7-0.1s0.4-0.1,0.6-0.2l0.2,0.9c-0.3,0.1-0.5,0.2-0.8,0.2C115.8,446.8,115.4,446.8,115.1,446.8z M122.6,448.8
	c-0.8-0.7-1.5-1.4-2-2.3s-0.7-1.9-0.7-3.1s0.2-2.2,0.7-3.1s1.1-1.7,2-2.3l0.7,0.6c-0.8,0.7-1.4,1.4-1.7,2.2
	c-0.4,0.8-0.5,1.7-0.5,2.7s0.2,1.9,0.5,2.7c0.4,0.8,1,1.5,1.7,2.2L122.6,448.8z M127.6,442.4l-0.3,1.1h2.2l-0.3-1.1
	c-0.1-0.4-0.3-0.9-0.4-1.3c-0.1-0.4-0.2-0.9-0.4-1.3l0,0c-0.1,0.4-0.2,0.9-0.3,1.3C127.8,441.5,127.7,442,127.6,442.4z M125.1,446.7
	l2.6-7.9h1.4l2.6,7.9h-1.3l-0.7-2.2H127l-0.7,2.2H125.1z M133,449.1v-8.3h1l0.1,0.7l0,0c0.3-0.3,0.6-0.5,0.9-0.6
	c0.3-0.2,0.7-0.2,1-0.2c0.4,0,0.7,0.1,1,0.2s0.6,0.3,0.8,0.6c0.2,0.3,0.4,0.6,0.5,1s0.2,0.8,0.2,1.2c0,0.5-0.1,1-0.2,1.4
	c-0.1,0.4-0.3,0.7-0.6,1c-0.2,0.3-0.5,0.5-0.8,0.6s-0.6,0.2-1,0.2c-0.3,0-0.6-0.1-0.9-0.2c-0.3-0.1-0.6-0.3-0.8-0.5l0,0l0.1,1.1v1.9
	H133V449.1z M135.6,445.8c0.5,0,0.9-0.2,1.2-0.5c0.3-0.4,0.5-0.9,0.5-1.6c0-0.6-0.1-1.1-0.4-1.5c-0.2-0.4-0.6-0.5-1.1-0.5
	c-0.2,0-0.5,0.1-0.8,0.2s-0.5,0.3-0.8,0.6v2.8c0.2,0.2,0.5,0.4,0.8,0.5C135.2,445.8,135.4,445.8,135.6,445.8z M140.2,449.1v-8.3h1
	l0.1,0.7l0,0c0.3-0.3,0.6-0.5,0.9-0.6c0.3-0.2,0.7-0.2,1-0.2c0.4,0,0.7,0.1,1,0.2s0.6,0.3,0.8,0.6c0.2,0.3,0.4,0.6,0.5,1
	s0.2,0.8,0.2,1.2c0,0.5-0.1,1-0.2,1.4c-0.1,0.4-0.3,0.7-0.6,1c-0.2,0.3-0.5,0.5-0.8,0.6s-0.6,0.2-1,0.2c-0.3,0-0.6-0.1-0.9-0.2
	c-0.3-0.1-0.6-0.3-0.8-0.5l0,0l0.1,1.1v1.9h-1.3V449.1z M142.8,445.8c0.5,0,0.9-0.2,1.2-0.5c0.3-0.4,0.5-0.9,0.5-1.6
	c0-0.6-0.1-1.1-0.4-1.5c-0.2-0.4-0.6-0.5-1.1-0.5c-0.2,0-0.5,0.1-0.8,0.2s-0.5,0.3-0.8,0.6v2.8c0.2,0.2,0.5,0.4,0.8,0.5
	C142.4,445.8,142.6,445.8,142.8,445.8z M148.5,448.8l-0.7-0.6c0.8-0.7,1.4-1.4,1.7-2.2c0.4-0.8,0.6-1.7,0.6-2.7s-0.2-1.9-0.6-2.7
	c-0.4-0.8-0.9-1.5-1.7-2.2l0.7-0.6c0.8,0.7,1.5,1.4,1.9,2.3c0.5,0.9,0.7,1.9,0.7,3.1s-0.2,2.2-0.7,3.1
	C150,447.3,149.3,448.1,148.5,448.8z"/>
<path class="st2" d="M-18,23.6L-18,23.6v20.1l0,0V23.6z"/>
<path class="st0" d="M51,179.1h240.9V272H51V179.1z"/>
<path class="st1" d="M60.8,203.4v-11.5h9.3c0.6,0,1.2,0.2,1.6,0.7c0.4,0.4,0.7,1,0.7,1.5v3.1c0,0.6-0.2,1.1-0.7,1.6
	c-0.4,0.4-1,0.7-1.6,0.7h-7.2v3.9H60.8z M63.5,197.4h6.2c0.3,0,0.4,0,0.5,0c0,0,0.1-0.2,0.1-0.5v-2.2c0-0.3,0-0.5-0.1-0.5
	c0,0-0.2-0.1-0.5-0.1h-6.2c-0.3,0-0.5,0-0.5,0.1c0,0,0,0.2,0,0.5v2.2c0,0.3,0,0.5,0,0.5C63.1,197.4,63.2,197.4,63.5,197.4z
	 M75.6,203.4c-0.6,0-1.1-0.2-1.6-0.6c-0.4-0.4-0.6-1-0.6-1.6v-4.9c0-0.6,0.2-1.1,0.6-1.5c0.4-0.4,1-0.7,1.6-0.7h5
	c0.6,0,1.1,0.2,1.5,0.7c0.4,0.4,0.7,0.9,0.7,1.5v3.5h-7.3v0.9c0,0.3,0,0.5,0.1,0.5c0,0,0.2,0,0.5,0h6.8v2.1L75.6,203.4L75.6,203.4z
	 M75.5,198h5.2v-1.2c0-0.3,0-0.5-0.1-0.5c0,0-0.2-0.1-0.5-0.1h-4.1c-0.3,0-0.5,0-0.5,0.1c0,0-0.1,0.2-0.1,0.5L75.5,198L75.5,198z
	 M84.4,203.4v-7.1c0-0.6,0.2-1.1,0.6-1.5c0.4-0.4,1-0.7,1.6-0.7h5.1v2.1H87c-0.3,0-0.5,0-0.5,0.1c0,0-0.1,0.2-0.1,0.5v6.6
	C86.4,203.4,84.4,203.4,84.4,203.4z M95.1,203.4c-0.6,0-1.1-0.2-1.6-0.6c-0.4-0.4-0.6-1-0.6-1.6v-0.4H95v0.1c0,0.2,0,0.3,0,0.3
	s0.2,0,0.3,0h4.5c0.2,0,0.3,0,0.3,0s0.1-0.2,0.1-0.3v-0.7c0-0.2,0-0.3-0.1-0.3c0,0-0.1-0.1-0.3-0.1H95c-0.6,0-1.1-0.2-1.6-0.7
	c-0.4-0.4-0.6-1-0.6-1.6v-1.3c0-0.6,0.2-1.1,0.6-1.5c0.4-0.4,1-0.7,1.6-0.7h5c0.6,0,1.1,0.2,1.6,0.7c0.4,0.4,0.7,0.9,0.7,1.5v0.4
	h-2.1v-0.1c0-0.2,0-0.3-0.1-0.3c0,0-0.1-0.1-0.3-0.1h-4.5c-0.2,0-0.3,0-0.3,0.1c0,0,0,0.1,0,0.3v0.8c0,0.2,0,0.3,0,0.3s0.2,0,0.3,0
	h4.8c0.6,0,1.1,0.2,1.6,0.7c0.4,0.4,0.7,1,0.7,1.6v1.3c0,0.6-0.2,1.1-0.7,1.6c-0.4,0.4-1,0.6-1.6,0.6
	C100.1,203.4,95.1,203.4,95.1,203.4z M105.9,203.4c-0.6,0-1.1-0.2-1.6-0.6c-0.4-0.4-0.6-1-0.6-1.6v-4.9c0-0.6,0.2-1.1,0.6-1.5
	c0.4-0.4,1-0.7,1.6-0.7h5c0.6,0,1.1,0.2,1.5,0.7c0.4,0.4,0.7,0.9,0.7,1.5v4.9c0,0.6-0.2,1.1-0.7,1.6c-0.4,0.4-0.9,0.6-1.5,0.6
	C110.9,203.4,105.9,203.4,105.9,203.4z M106.4,201.4h4.1c0.3,0,0.5,0,0.5,0s0.1-0.2,0.1-0.5v-4c0-0.3,0-0.5-0.1-0.5
	c0,0-0.2-0.1-0.5-0.1h-4.1c-0.3,0-0.5,0-0.5,0.1c0,0-0.1,0.2-0.1,0.5v4c0,0.3,0,0.5,0.1,0.5C105.9,201.3,106.1,201.4,106.4,201.4z
	 M114.4,203.4v-9.2h7.2c0.6,0,1.1,0.2,1.5,0.7c0.4,0.4,0.7,0.9,0.7,1.5v7.1h-2.1v-6.6c0-0.3,0-0.5-0.1-0.5c0,0-0.2-0.1-0.5-0.1h-4.1
	c-0.3,0-0.5,0-0.5,0.1c0,0-0.1,0.2-0.1,0.5v6.6h-2V203.4z M127.8,203.4c-0.6,0-1.1-0.2-1.6-0.6c-0.4-0.4-0.6-1-0.6-1.6v-3.5h7.3
	v-0.9c0-0.3,0-0.5-0.1-0.5c0,0-0.2-0.1-0.5-0.1h-6.7v-2h7.2c0.6,0,1.1,0.2,1.5,0.7c0.4,0.4,0.7,0.9,0.7,1.5v7.1h-7.2V203.4z
	 M128.2,201.4h4.7v-1.7h-5.3v1.2c0,0.3,0,0.5,0.1,0.5C127.7,201.3,127.9,201.4,128.2,201.4z M138.5,203.4c-0.6,0-1.1-0.2-1.6-0.6
	c-0.4-0.4-0.6-1-0.6-1.6v-10.1h2.1v9.7c0,0.3,0,0.5,0.1,0.5c0,0,0.2,0,0.5,0h1.4v2.1H138.5z M141.9,203.4v-9.2h2.1v9.3h-2.1V203.4z
	 M141.9,193.2v-2.1h2.1v2.1H141.9z M147.9,203.4c-0.6,0-1.1-0.2-1.6-0.6c-0.4-0.4-0.6-1-0.6-1.6v-9.9h2.1v2.9h3.6v2.1h-3.6v4.5
	c0,0.3,0,0.5,0.1,0.5c0,0,0.2,0,0.5,0h3.1v2.1C151.5,203.4,147.9,203.4,147.9,203.4z M154.1,206.9v-2.1h5.2c0.3,0,0.5,0,0.5-0.1
	c0,0,0.1-0.2,0.1-0.5v-0.8h-5.1c-0.6,0-1.1-0.2-1.6-0.6c-0.4-0.4-0.6-1-0.6-1.6v-7h2.1v6.6c0,0.3,0,0.5,0,0.5s0.2,0,0.5,0h4.1
	c0.3,0,0.5,0,0.5,0s0.1-0.2,0.1-0.5v-6.6h2.1v10.5c0,0.6-0.2,1.1-0.6,1.5c-0.4,0.4-0.9,0.7-1.5,0.7H154.1z M163.7,196.2v-2.1h2.1
	v2.1H163.7z M163.7,203.4v-2.1h2.1v2.1H163.7z"/>
<path class="st1" d="M63.5,243.7v-16.8h3.6v16.8H63.5z"/>
<path d="M76.4,238.9v-8.7h2.8c0.5,0,0.9,0,1.3,0.1c0.4,0.1,0.7,0.2,1,0.4s0.5,0.5,0.7,0.8s0.2,0.7,0.2,1.2s-0.1,0.9-0.2,1.2
	c-0.2,0.3-0.4,0.6-0.7,0.9c-0.3,0.2-0.6,0.4-1,0.5c-0.4,0.1-0.8,0.2-1.3,0.2h-1.4v3.3L76.4,238.9L76.4,238.9z M77.7,234.5H79
	c0.7,0,1.2-0.1,1.6-0.4c0.3-0.3,0.5-0.7,0.5-1.3s-0.2-1-0.5-1.2s-0.9-0.3-1.6-0.3h-1.3V234.5z M87.1,239c-0.4,0-0.8-0.1-1.2-0.2
	c-0.4-0.2-0.7-0.4-1-0.7s-0.5-0.6-0.7-1.1c-0.2-0.4-0.3-0.9-0.3-1.5c0-0.5,0.1-1,0.3-1.5c0.2-0.4,0.4-0.8,0.7-1.1s0.6-0.5,1-0.7
	s0.8-0.2,1.2-0.2s0.8,0.1,1.2,0.2c0.4,0.1,0.7,0.4,1,0.7c0.3,0.3,0.5,0.7,0.7,1.1c0.2,0.4,0.3,0.9,0.3,1.5c0,0.5-0.1,1-0.3,1.5
	c-0.2,0.4-0.4,0.8-0.7,1.1c-0.3,0.3-0.7,0.5-1,0.7S87.6,239,87.1,239z M87.1,238c0.6,0,1-0.2,1.4-0.6c0.3-0.4,0.5-1,0.5-1.7
	s-0.2-1.3-0.5-1.7c-0.3-0.4-0.8-0.6-1.4-0.6s-1,0.2-1.4,0.6c-0.3,0.4-0.5,1-0.5,1.7s0.2,1.3,0.5,1.7C86.1,237.8,86.6,238,87.1,238z
	 M95.2,239c-0.6,0-1.2-0.1-1.8-0.3c-0.5-0.2-1-0.4-1.4-0.7l0.6-0.8c0.4,0.3,0.8,0.5,1.2,0.6c0.5,0.1,1,0.2,1.5,0.2s0.9-0.1,1.1-0.2
	c0.2-0.2,0.4-0.4,0.4-0.6c0-0.1,0-0.2-0.1-0.3c0-0.1-0.1-0.2-0.3-0.3c-0.1-0.1-0.3-0.2-0.6-0.2c-0.2-0.1-0.6-0.2-1-0.3
	c-0.9-0.2-1.5-0.4-1.9-0.7s-0.6-0.7-0.6-1.2c0-0.3,0.1-0.5,0.2-0.8c0.1-0.2,0.3-0.4,0.5-0.6s0.5-0.3,0.9-0.4
	c0.4-0.1,0.8-0.1,1.2-0.1c0.5,0,1,0.1,1.5,0.3c0.5,0.2,0.9,0.4,1.2,0.6l-0.6,0.8c-0.3-0.2-0.6-0.4-1-0.5c-0.4-0.1-0.8-0.2-1.2-0.2
	c-0.5,0-0.8,0.1-1,0.2c-0.2,0.2-0.3,0.3-0.3,0.6s0.1,0.5,0.4,0.6c0.3,0.1,0.7,0.3,1.4,0.4c0.5,0.1,1,0.3,1.3,0.4
	c0.3,0.1,0.6,0.3,0.8,0.4c0.2,0.2,0.3,0.3,0.4,0.5c0.1,0.2,0.1,0.4,0.1,0.7s-0.1,0.5-0.2,0.8c-0.1,0.2-0.3,0.5-0.6,0.6
	c-0.2,0.2-0.6,0.3-0.9,0.4C96.1,239,95.7,239,95.2,239z M103.2,238.9v-5.5h-2.9v-1.1h4.2v6.5L103.2,238.9L103.2,238.9z M104.1,231.1
	c-0.3,0-0.5-0.1-0.7-0.2c-0.2-0.2-0.3-0.4-0.3-0.7c0-0.3,0.1-0.5,0.3-0.7s0.4-0.3,0.7-0.3s0.5,0.1,0.7,0.3c0.2,0.2,0.3,0.4,0.3,0.7
	s-0.1,0.5-0.3,0.7C104.7,231,104.4,231.1,104.1,231.1z M112.4,239c-0.5,0-0.9-0.1-1.2-0.2c-0.3-0.1-0.6-0.3-0.8-0.6
	c-0.2-0.2-0.3-0.5-0.4-0.9c-0.1-0.3-0.1-0.7-0.1-1.1v-2.9h-1.8v-1l1.8-0.1l0.2-2.1h1.1v2.1h3.1v1.1h-3.1v2.9c0,0.6,0.1,1,0.3,1.3
	s0.6,0.4,1.2,0.4c0.3,0,0.5,0,0.8-0.1c0.2-0.1,0.5-0.1,0.7-0.2l0.3,1c-0.3,0.1-0.6,0.2-1,0.3C113.2,239,112.8,239,112.4,239z
	 M119.2,238.9v-5.5h-2.9v-1.1h4.2v6.5L119.2,238.9L119.2,238.9z M120.1,231.1c-0.3,0-0.5-0.1-0.7-0.2c-0.2-0.2-0.3-0.4-0.3-0.7
	c0-0.3,0.1-0.5,0.3-0.7s0.4-0.3,0.7-0.3s0.5,0.1,0.7,0.3c0.2,0.2,0.3,0.4,0.3,0.7s-0.1,0.5-0.3,0.7
	C120.7,231,120.4,231.1,120.1,231.1z M126.4,238.9l-2.7-6.5h1.3l1.4,3.5c0.1,0.3,0.2,0.6,0.4,1c0.1,0.3,0.2,0.6,0.3,1l0,0
	c0.1-0.3,0.2-0.6,0.3-1c0.1-0.3,0.2-0.6,0.4-1l1.4-3.5h1.3l-2.6,6.5H126.4z M135.5,239c-0.5,0-0.9-0.1-1.4-0.2
	c-0.4-0.2-0.8-0.4-1.1-0.7s-0.6-0.7-0.8-1.1c-0.2-0.4-0.3-0.9-0.3-1.5c0-0.5,0.1-1,0.3-1.4c0.2-0.4,0.4-0.8,0.7-1.1
	c0.3-0.3,0.7-0.5,1.1-0.7c0.4-0.2,0.8-0.2,1.3-0.2s0.9,0.1,1.3,0.2c0.4,0.1,0.7,0.4,0.9,0.6c0.3,0.3,0.5,0.6,0.6,1
	c0.1,0.4,0.2,0.8,0.2,1.2c0,0.1,0,0.3,0,0.4c0,0.1,0,0.2,0,0.3h-5c0.1,0.7,0.3,1.2,0.8,1.5c0.4,0.3,1,0.5,1.6,0.5
	c0.4,0,0.7-0.1,1-0.2c0.3-0.1,0.6-0.2,0.9-0.4l0.5,0.8c-0.3,0.2-0.7,0.4-1.2,0.5C136.5,239,136,239,135.5,239z M135.4,233.2
	c-0.2,0-0.5,0-0.7,0.1c-0.2,0.1-0.4,0.2-0.6,0.3c-0.2,0.1-0.3,0.3-0.5,0.5s-0.2,0.5-0.3,0.8h3.8c-0.1-0.6-0.2-1-0.5-1.3
	C136.3,233.4,135.9,233.2,135.4,233.2z M150.3,239c-0.3,0-0.6,0-0.9-0.1c-0.3-0.1-0.5-0.2-0.7-0.4c-0.2-0.2-0.4-0.4-0.5-0.6
	s-0.2-0.5-0.2-0.8c0-0.4,0.1-0.7,0.2-1c0.2-0.3,0.4-0.5,0.8-0.7c0.4-0.2,0.9-0.4,1.4-0.5c0.6-0.1,1.3-0.2,2.1-0.3
	c0-0.4-0.2-0.8-0.4-1c-0.2-0.3-0.6-0.4-1.2-0.4c-0.4,0-0.8,0.1-1.2,0.2c-0.4,0.1-0.7,0.3-1,0.5l-0.5-0.9c0.2-0.1,0.4-0.2,0.6-0.3
	c0.2-0.1,0.5-0.2,0.7-0.3s0.5-0.2,0.8-0.2c0.3-0.1,0.6-0.1,0.8-0.1c0.9,0,1.6,0.2,2,0.7c0.5,0.5,0.7,1.2,0.7,2v3.9h-1.1l-0.1-0.8
	l0,0c-0.3,0.3-0.7,0.5-1.2,0.7C151.2,238.9,150.8,239,150.3,239z M150.7,238c0.4,0,0.7-0.1,1-0.2c0.3-0.2,0.7-0.4,1-0.7v-1.5
	c-0.6,0.1-1.2,0.1-1.6,0.2c-0.4,0.1-0.8,0.2-1,0.3c-0.3,0.1-0.4,0.3-0.5,0.4c-0.1,0.2-0.2,0.3-0.2,0.5c0,0.3,0.1,0.6,0.4,0.7
	C150,237.9,150.3,238,150.7,238z M156.3,238.9v-6.5h1.1l0.1,1l0,0c0.3-0.3,0.7-0.6,1.1-0.8c0.4-0.2,0.8-0.4,1.3-0.4
	c0.8,0,1.3,0.2,1.7,0.7c0.4,0.4,0.5,1.1,0.5,2v4h-1.3V235c0-0.6-0.1-1-0.3-1.3s-0.5-0.4-1-0.4c-0.3,0-0.7,0.1-0.9,0.3
	c-0.3,0.2-0.6,0.4-0.9,0.8v4.5C157.7,238.9,156.3,238.9,156.3,238.9z M166.7,239c-0.4,0-0.8-0.1-1.2-0.2c-0.3-0.2-0.6-0.4-0.9-0.7
	c-0.3-0.3-0.4-0.6-0.6-1.1c-0.1-0.4-0.2-0.9-0.2-1.5c0-0.5,0.1-1,0.2-1.4c0.2-0.4,0.4-0.8,0.7-1.1c0.3-0.3,0.6-0.5,0.9-0.7
	c0.4-0.2,0.7-0.2,1.1-0.2c0.4,0,0.7,0.1,1,0.2c0.3,0.1,0.6,0.3,0.9,0.6l0,0l-0.1-1.2v-2.4h1.3v9.5h-1.1l-0.1-0.8l0,0
	c-0.3,0.3-0.6,0.5-0.9,0.7C167.4,238.9,167.1,239,166.7,239z M167,237.9c0.6,0,1.1-0.3,1.6-0.9v-3.1c-0.3-0.2-0.5-0.4-0.8-0.5
	c-0.3-0.1-0.5-0.2-0.8-0.2s-0.5,0.1-0.7,0.2c-0.2,0.1-0.4,0.3-0.6,0.5c-0.2,0.2-0.3,0.4-0.4,0.7c-0.1,0.3-0.1,0.6-0.1,1
	c0,0.8,0.2,1.3,0.5,1.7C166,237.8,166.4,237.9,167,237.9z M180.3,238.9v-8.7h2.6c0.4,0,0.8,0,1.2,0.1c0.4,0.1,0.7,0.2,1,0.4
	s0.5,0.4,0.6,0.7c0.2,0.3,0.2,0.6,0.2,1c0,0.4-0.1,0.8-0.4,1.2c-0.2,0.4-0.6,0.6-1.1,0.7l0,0c0.6,0.1,1.1,0.3,1.5,0.7
	s0.5,0.8,0.5,1.4c0,0.4-0.1,0.8-0.2,1.1c-0.2,0.3-0.4,0.6-0.7,0.8s-0.6,0.4-1,0.5c-0.4,0.1-0.9,0.2-1.3,0.2L180.3,238.9L180.3,238.9
	z M181.7,233.8h1.1c0.7,0,1.2-0.1,1.5-0.3s0.5-0.6,0.5-1c0-0.4-0.2-0.7-0.5-0.9c-0.3-0.2-0.8-0.3-1.4-0.3h-1.1L181.7,233.8
	L181.7,233.8z M181.7,237.8h1.3c0.7,0,1.2-0.1,1.6-0.4c0.4-0.2,0.6-0.6,0.6-1.2c0-0.5-0.2-0.9-0.5-1.1c-0.4-0.2-0.9-0.3-1.6-0.3
	h-1.3L181.7,237.8L181.7,237.8z M189,238.9v-6.5h1.1l0.1,1.5l0,0c0.3-0.5,0.7-0.9,1.2-1.2s1-0.4,1.6-0.4c0.2,0,0.5,0,0.7,0.1
	c0.2,0,0.4,0.1,0.6,0.2l-0.3,1.1c-0.2-0.1-0.4-0.1-0.6-0.2c-0.2,0-0.4,0-0.6,0c-0.5,0-0.9,0.1-1.4,0.4c-0.4,0.3-0.8,0.7-1.2,1.4v3.7
	H189V238.9z M199.2,238.9v-5.5h-2.9v-1.1h4.2v6.5L199.2,238.9L199.2,238.9z M200.1,231.1c-0.3,0-0.5-0.1-0.7-0.2
	c-0.2-0.2-0.3-0.4-0.3-0.7c0-0.3,0.1-0.5,0.3-0.7s0.4-0.3,0.7-0.3s0.5,0.1,0.7,0.3c0.2,0.2,0.3,0.4,0.3,0.7s-0.1,0.5-0.3,0.7
	C200.6,231,200.4,231.1,200.1,231.1z M207,241.8c-0.9,0-1.7-0.2-2.2-0.5s-0.8-0.7-0.8-1.3s0.4-1,1.1-1.4v-0.1
	c-0.2-0.1-0.3-0.2-0.5-0.4c-0.1-0.2-0.2-0.4-0.2-0.7c0-0.2,0.1-0.4,0.2-0.6c0.1-0.2,0.3-0.4,0.6-0.6l0,0c-0.2-0.2-0.4-0.4-0.6-0.7
	c-0.2-0.3-0.2-0.6-0.2-1c0-0.4,0.1-0.7,0.2-1c0.1-0.3,0.3-0.5,0.6-0.7c0.2-0.2,0.5-0.4,0.8-0.5c0.3-0.1,0.6-0.2,1-0.2s0.7,0.1,1,0.2
	h2.7v1h-1.6c0.1,0.1,0.2,0.3,0.3,0.5s0.2,0.4,0.2,0.7c0,0.4-0.1,0.7-0.2,1c-0.1,0.3-0.3,0.5-0.5,0.7s-0.5,0.3-0.8,0.4
	c-0.3,0.1-0.6,0.1-1,0.1c-0.2,0-0.3,0-0.5,0s-0.4-0.1-0.5-0.2c-0.3,0.2-0.5,0.4-0.5,0.7c0,0.4,0.4,0.7,1.3,0.7h1.4
	c0.9,0,1.5,0.1,1.9,0.4c0.4,0.2,0.6,0.6,0.6,1.2c0,0.3-0.1,0.6-0.3,0.9s-0.4,0.5-0.8,0.7c-0.3,0.2-0.7,0.4-1.2,0.5
	C208,241.8,207.5,241.8,207,241.8z M207,236c0.4,0,0.7-0.1,1-0.4c0.3-0.2,0.4-0.6,0.4-1c0-0.4-0.1-0.8-0.4-1c-0.3-0.3-0.6-0.4-1-0.4
	s-0.7,0.1-1,0.4s-0.4,0.6-0.4,1c0,0.4,0.1,0.8,0.4,1C206.3,235.8,206.6,236,207,236z M207.1,240.9c0.3,0,0.7,0,0.9-0.1
	c0.3-0.1,0.5-0.2,0.7-0.3s0.3-0.2,0.5-0.4c0.1-0.1,0.2-0.3,0.2-0.4c0-0.3-0.1-0.5-0.4-0.6c-0.2-0.1-0.6-0.1-1-0.1h-1.2
	c-0.2,0-0.4,0-0.5,0c-0.2,0-0.3,0-0.4-0.1c-0.3,0.1-0.5,0.3-0.6,0.5s-0.2,0.3-0.2,0.5c0,0.3,0.2,0.6,0.5,0.7
	C206,240.8,206.5,240.9,207.1,240.9z M212.3,238.9v-9.5h1.3v2.5l-0.1,1.5l0,0c0.3-0.3,0.7-0.6,1-0.8c0.4-0.2,0.8-0.3,1.3-0.3
	c0.8,0,1.3,0.2,1.7,0.7c0.4,0.4,0.5,1.1,0.5,2v4h-1.3v-3.9c0-0.6-0.1-1-0.3-1.3s-0.5-0.4-1-0.4c-0.3,0-0.7,0.1-0.9,0.3
	c-0.3,0.2-0.6,0.4-0.9,0.8v4.5L212.3,238.9L212.3,238.9z M224.3,239c-0.5,0-0.9-0.1-1.2-0.2c-0.3-0.1-0.6-0.3-0.8-0.6
	c-0.2-0.2-0.3-0.5-0.4-0.9c-0.1-0.3-0.1-0.7-0.1-1.1v-2.9H220v-1l1.8-0.1l0.2-2.1h1.1v2.1h3.1v1.1h-3.1v2.9c0,0.6,0.1,1,0.3,1.3
	s0.6,0.4,1.2,0.4c0.3,0,0.5,0,0.8-0.1c0.2-0.1,0.5-0.1,0.7-0.2l0.3,1c-0.3,0.1-0.6,0.2-1,0.3C225.1,239,224.7,239,224.3,239z
	 M231.1,239c-0.3,0-0.6-0.1-0.9-0.3c-0.2-0.2-0.3-0.5-0.3-0.9c0-0.4,0.1-0.7,0.3-0.9c0.2-0.2,0.5-0.3,0.9-0.3c0.3,0,0.6,0.1,0.8,0.3
	s0.4,0.5,0.4,0.9c0,0.4-0.1,0.7-0.4,0.9C231.7,238.9,231.4,239,231.1,239z"/>
<path class="st1" d="M63.5,267.7v-16.8h3.6v16.8H63.5z"/>
<path d="M76.8,262.9v-8.7h1.3v7.6h4.2v1.1H76.8z M87.2,262.9v-5.5h-2.9v-1.1h4.2v6.5h-1.3V262.9z M88.1,255.1
	c-0.3,0-0.5-0.1-0.7-0.2c-0.2-0.2-0.3-0.4-0.3-0.7c0-0.3,0.1-0.5,0.3-0.7s0.4-0.3,0.7-0.3s0.5,0.1,0.7,0.3c0.2,0.2,0.3,0.4,0.3,0.7
	s-0.1,0.5-0.3,0.7C88.7,255,88.4,255.1,88.1,255.1z M92.5,262.9v-9.5h1.3v6.2l0,0l3.2-3.2h1.5l-2.6,2.6l2.9,3.9h-1.5l-2.2-3.1
	l-1.4,1.4v1.7H92.5z M103.5,263c-0.5,0-0.9-0.1-1.4-0.2c-0.4-0.2-0.8-0.4-1.1-0.7s-0.6-0.7-0.8-1.1c-0.2-0.4-0.3-0.9-0.3-1.5
	c0-0.5,0.1-1,0.3-1.4s0.4-0.8,0.7-1.1c0.3-0.3,0.7-0.5,1.1-0.7c0.4-0.2,0.8-0.2,1.3-0.2s0.9,0.1,1.3,0.2c0.4,0.1,0.7,0.4,0.9,0.6
	c0.3,0.3,0.5,0.6,0.6,1c0.1,0.4,0.2,0.8,0.2,1.2c0,0.1,0,0.3,0,0.4c0,0.1,0,0.2,0,0.3h-5c0.1,0.7,0.3,1.2,0.8,1.5
	c0.4,0.3,1,0.5,1.6,0.5c0.4,0,0.7-0.1,1-0.2c0.3-0.1,0.6-0.2,0.9-0.4l0.5,0.8c-0.3,0.2-0.7,0.4-1.2,0.5C104.5,263,104,263,103.5,263
	z M103.4,257.2c-0.2,0-0.5,0-0.7,0.1c-0.2,0.1-0.4,0.2-0.6,0.3c-0.2,0.1-0.3,0.3-0.5,0.5c-0.2,0.2-0.2,0.5-0.3,0.8h3.8
	c-0.1-0.6-0.2-1-0.5-1.3C104.3,257.4,103.9,257.2,103.4,257.2z M120.4,263c-0.5,0-0.9-0.1-1.2-0.2c-0.3-0.1-0.6-0.3-0.8-0.6
	c-0.2-0.2-0.3-0.5-0.4-0.9c-0.1-0.3-0.1-0.7-0.1-1.1v-2.9h-1.8v-1l1.8-0.1l0.2-2.1h1.1v2.1h3.1v1.1h-3.1v2.9c0,0.6,0.1,1,0.3,1.3
	c0.2,0.3,0.6,0.4,1.2,0.4c0.3,0,0.5,0,0.8-0.1c0.2-0.1,0.5-0.1,0.7-0.2l0.3,1c-0.3,0.1-0.6,0.2-1,0.3C121.2,263,120.8,263,120.4,263
	z M127.1,263c-0.4,0-0.8-0.1-1.2-0.2c-0.4-0.2-0.7-0.4-1-0.7s-0.5-0.6-0.7-1.1c-0.2-0.4-0.3-0.9-0.3-1.5c0-0.5,0.1-1,0.3-1.5
	c0.2-0.4,0.4-0.8,0.7-1.1c0.3-0.3,0.6-0.5,1-0.7c0.4-0.2,0.8-0.2,1.2-0.2s0.8,0.1,1.2,0.2s0.7,0.4,1,0.7c0.3,0.3,0.5,0.7,0.7,1.1
	c0.2,0.4,0.3,0.9,0.3,1.5c0,0.5-0.1,1-0.3,1.5c-0.2,0.4-0.4,0.8-0.7,1.1c-0.3,0.3-0.7,0.5-1,0.7C128,263,127.6,263,127.1,263z
	 M127.1,262c0.6,0,1-0.2,1.4-0.6c0.3-0.4,0.5-1,0.5-1.7c0-0.7-0.2-1.3-0.5-1.7s-0.8-0.6-1.4-0.6c-0.6,0-1,0.2-1.4,0.6
	c-0.3,0.4-0.5,1-0.5,1.7c0,0.7,0.2,1.3,0.5,1.7C126.1,261.8,126.5,262,127.1,262z M143.2,263c-0.6,0-1.2-0.1-1.8-0.3
	c-0.5-0.2-1-0.4-1.4-0.7l0.6-0.8c0.4,0.3,0.8,0.5,1.2,0.6c0.5,0.1,1,0.2,1.5,0.2s0.9-0.1,1.1-0.2c0.2-0.2,0.4-0.4,0.4-0.6
	c0-0.1,0-0.2-0.1-0.3c0-0.1-0.1-0.2-0.3-0.3c-0.1-0.1-0.3-0.2-0.6-0.2c-0.2-0.1-0.6-0.2-1-0.3c-0.9-0.2-1.5-0.4-1.9-0.7
	s-0.6-0.7-0.6-1.2c0-0.3,0.1-0.5,0.2-0.8c0.1-0.2,0.3-0.4,0.5-0.6c0.2-0.2,0.5-0.3,0.9-0.4s0.8-0.1,1.2-0.1c0.5,0,1,0.1,1.5,0.3
	c0.5,0.2,0.9,0.4,1.2,0.6l-0.6,0.8c-0.3-0.2-0.6-0.4-1-0.5s-0.8-0.2-1.2-0.2c-0.5,0-0.8,0.1-1,0.2c-0.2,0.2-0.3,0.3-0.3,0.6
	s0.1,0.5,0.4,0.6c0.3,0.1,0.7,0.3,1.4,0.4c0.5,0.1,1,0.3,1.3,0.4s0.6,0.3,0.8,0.4c0.2,0.2,0.3,0.3,0.4,0.5c0.1,0.2,0.1,0.4,0.1,0.7
	s-0.1,0.5-0.2,0.8c-0.1,0.2-0.3,0.5-0.6,0.6c-0.2,0.2-0.6,0.3-0.9,0.4C144.1,263,143.7,263,143.2,263z M151.1,263
	c-0.4,0-0.8-0.1-1.2-0.2c-0.4-0.2-0.7-0.4-1-0.7s-0.5-0.6-0.7-1.1c-0.2-0.4-0.3-0.9-0.3-1.5c0-0.5,0.1-1,0.3-1.5
	c0.2-0.4,0.4-0.8,0.7-1.1c0.3-0.3,0.6-0.5,1-0.7c0.4-0.2,0.8-0.2,1.2-0.2s0.8,0.1,1.2,0.2s0.7,0.4,1,0.7c0.3,0.3,0.5,0.7,0.7,1.1
	c0.2,0.4,0.3,0.9,0.3,1.5c0,0.5-0.1,1-0.3,1.5c-0.2,0.4-0.4,0.8-0.7,1.1c-0.3,0.3-0.7,0.5-1,0.7C152,263,151.5,263,151.1,263z
	 M151.1,262c0.6,0,1-0.2,1.4-0.6c0.3-0.4,0.5-1,0.5-1.7c0-0.7-0.2-1.3-0.5-1.7s-0.8-0.6-1.4-0.6c-0.6,0-1,0.2-1.4,0.6
	c-0.3,0.4-0.5,1-0.5,1.7c0,0.7,0.2,1.3,0.5,1.7C150.1,261.8,150.5,262,151.1,262z M160.5,263c-0.7,0-1.3-0.2-1.7-0.6
	c-0.4-0.4-0.6-1-0.6-1.8v-6.1H156v-1.1h3.6v7.2c0,0.5,0.1,0.8,0.3,1c0.2,0.2,0.5,0.3,0.9,0.3c0.3,0,0.7-0.1,1.2-0.3l0.3,1
	c-0.3,0.1-0.6,0.2-0.9,0.3C161.2,263,160.9,263,160.5,263z M166.4,262.9l-2.7-6.5h1.3l1.4,3.5c0.1,0.3,0.2,0.6,0.4,1
	c0.1,0.3,0.2,0.6,0.3,1l0,0c0.1-0.3,0.2-0.6,0.3-1c0.1-0.3,0.2-0.6,0.4-1l1.4-3.5h1.3l-2.6,6.5H166.4z M175.5,263
	c-0.5,0-0.9-0.1-1.4-0.2c-0.4-0.2-0.8-0.4-1.1-0.7s-0.6-0.7-0.8-1.1c-0.2-0.4-0.3-0.9-0.3-1.5c0-0.5,0.1-1,0.3-1.4s0.4-0.8,0.7-1.1
	c0.3-0.3,0.7-0.5,1.1-0.7c0.4-0.2,0.8-0.2,1.3-0.2s0.9,0.1,1.3,0.2c0.4,0.1,0.7,0.4,0.9,0.6c0.3,0.3,0.5,0.6,0.6,1
	c0.1,0.4,0.2,0.8,0.2,1.2c0,0.1,0,0.3,0,0.4c0,0.1,0,0.2,0,0.3h-5c0.1,0.7,0.3,1.2,0.8,1.5c0.4,0.3,1,0.5,1.6,0.5
	c0.4,0,0.7-0.1,1-0.2c0.3-0.1,0.6-0.2,0.9-0.4l0.5,0.8c-0.3,0.2-0.7,0.4-1.2,0.5C176.5,263,176,263,175.5,263z M175.3,257.2
	c-0.2,0-0.5,0-0.7,0.1c-0.2,0.1-0.4,0.2-0.6,0.3c-0.2,0.1-0.3,0.3-0.5,0.5c-0.1,0.2-0.2,0.5-0.3,0.8h3.8c-0.1-0.6-0.2-1-0.5-1.3
	C176.3,257.4,175.9,257.2,175.3,257.2z M188.3,265.6v-9.2h1.1l0.1,0.8l0,0c0.3-0.3,0.6-0.5,1-0.7c0.4-0.2,0.8-0.3,1.2-0.3
	s0.8,0.1,1.1,0.2c0.3,0.2,0.6,0.4,0.8,0.7s0.4,0.6,0.5,1s0.2,0.9,0.2,1.4c0,0.6-0.1,1.1-0.2,1.5c-0.2,0.4-0.4,0.8-0.6,1.1
	c-0.3,0.3-0.6,0.5-0.9,0.7c-0.4,0.2-0.7,0.2-1.1,0.2c-0.3,0-0.6-0.1-1-0.2c-0.3-0.1-0.6-0.3-0.9-0.6l0,0l0.1,1.2v2.1h-1.4V265.6z
	 M191.2,261.9c0.5,0,1-0.2,1.3-0.6c0.4-0.4,0.5-1,0.5-1.8c0-0.7-0.1-1.2-0.4-1.6c-0.3-0.4-0.7-0.6-1.3-0.6c-0.3,0-0.6,0.1-0.8,0.2
	c-0.3,0.1-0.6,0.4-0.9,0.7v3.1c0.3,0.2,0.5,0.4,0.8,0.5C190.7,261.9,191,261.9,191.2,261.9z M196.9,262.9v-6.5h1.1l0.1,1.5l0,0
	c0.3-0.5,0.7-0.9,1.2-1.2c0.5-0.3,1-0.4,1.6-0.4c0.2,0,0.5,0,0.7,0.1c0.2,0,0.4,0.1,0.6,0.2l-0.3,1.1c-0.2-0.1-0.4-0.1-0.6-0.2
	c-0.2,0-0.4,0-0.6,0c-0.5,0-0.9,0.1-1.4,0.4c-0.4,0.3-0.8,0.7-1.2,1.4v3.7h-1.2V262.9z M207.1,263c-0.4,0-0.8-0.1-1.2-0.2
	c-0.4-0.2-0.7-0.4-1-0.7s-0.5-0.6-0.7-1.1c-0.2-0.4-0.3-0.9-0.3-1.5c0-0.5,0.1-1,0.3-1.5c0.2-0.4,0.4-0.8,0.7-1.1
	c0.3-0.3,0.6-0.5,1-0.7c0.4-0.2,0.8-0.2,1.2-0.2s0.8,0.1,1.2,0.2s0.7,0.4,1,0.7c0.3,0.3,0.5,0.7,0.7,1.1c0.2,0.4,0.3,0.9,0.3,1.5
	c0,0.5-0.1,1-0.3,1.5c-0.2,0.4-0.4,0.8-0.7,1.1c-0.3,0.3-0.7,0.5-1,0.7C207.9,263,207.5,263,207.1,263z M207.1,262
	c0.6,0,1-0.2,1.4-0.6c0.3-0.4,0.5-1,0.5-1.7c0-0.7-0.2-1.3-0.5-1.7s-0.8-0.6-1.4-0.6c-0.6,0-1,0.2-1.4,0.6c-0.3,0.4-0.5,1-0.5,1.7
	c0,0.7,0.2,1.3,0.5,1.7C206.1,261.8,206.5,262,207.1,262z M215.4,263c-0.3,0-0.6-0.1-1-0.2c-0.3-0.2-0.7-0.4-1-0.7l0,0l-0.1,0.7h-1
	v-9.5h1.3v2.5l-0.1,1.2l0,0c0.3-0.3,0.6-0.5,1-0.7c0.4-0.2,0.7-0.2,1.1-0.2c0.4,0,0.8,0.1,1.1,0.2c0.3,0.1,0.6,0.4,0.8,0.7
	c0.2,0.3,0.4,0.6,0.5,1s0.2,0.9,0.2,1.4c0,0.6-0.1,1.1-0.2,1.5c-0.2,0.4-0.4,0.8-0.6,1.1c-0.3,0.3-0.6,0.5-0.9,0.7
	C216.2,263,215.8,263,215.4,263z M215.2,261.9c0.5,0,0.9-0.2,1.3-0.6c0.4-0.4,0.5-1,0.5-1.8c0-0.7-0.1-1.2-0.4-1.6
	c-0.3-0.4-0.7-0.6-1.3-0.6c-0.3,0-0.6,0.1-0.8,0.2c-0.3,0.1-0.6,0.4-0.9,0.7v3.1c0.3,0.2,0.5,0.4,0.8,0.5
	C214.7,261.9,215,261.9,215.2,261.9z M224.5,263c-0.7,0-1.3-0.2-1.7-0.6c-0.4-0.4-0.6-1-0.6-1.8v-6.1H220v-1.1h3.6v7.2
	c0,0.5,0.1,0.8,0.3,1c0.2,0.2,0.5,0.3,0.9,0.3c0.3,0,0.7-0.1,1.2-0.3l0.3,1c-0.3,0.1-0.6,0.2-0.9,0.3S224.8,263,224.5,263z
	 M231.5,263c-0.5,0-0.9-0.1-1.4-0.2c-0.4-0.2-0.8-0.4-1.1-0.7s-0.6-0.7-0.8-1.1c-0.2-0.4-0.3-0.9-0.3-1.5c0-0.5,0.1-1,0.3-1.4
	s0.4-0.8,0.7-1.1c0.3-0.3,0.7-0.5,1.1-0.7c0.4-0.2,0.8-0.2,1.3-0.2s0.9,0.1,1.3,0.2c0.4,0.1,0.7,0.4,0.9,0.6c0.3,0.3,0.5,0.6,0.6,1
	c0.1,0.4,0.2,0.8,0.2,1.2c0,0.1,0,0.3,0,0.4c0,0.1,0,0.2,0,0.3h-5c0.1,0.7,0.3,1.2,0.8,1.5c0.4,0.3,1,0.5,1.6,0.5
	c0.4,0,0.7-0.1,1-0.2c0.3-0.1,0.6-0.2,0.9-0.4l0.5,0.8c-0.3,0.2-0.7,0.4-1.2,0.5C232.5,263,232,263,231.5,263z M231.3,257.2
	c-0.2,0-0.5,0-0.7,0.1c-0.2,0.1-0.4,0.2-0.6,0.3c-0.2,0.1-0.3,0.3-0.5,0.5c-0.2,0.2-0.2,0.5-0.3,0.8h3.8c-0.1-0.6-0.2-1-0.5-1.3
	C232.2,257.4,231.8,257.2,231.3,257.2z M235.8,262.9v-6.5h1l0.1,0.8l0,0c0.2-0.3,0.3-0.5,0.6-0.7c0.2-0.2,0.5-0.3,0.9-0.3
	c0.6,0,1,0.4,1.2,1.1c0.2-0.3,0.4-0.6,0.6-0.8c0.2-0.2,0.5-0.3,0.9-0.3c0.5,0,0.8,0.2,1.1,0.5c0.2,0.3,0.4,0.8,0.4,1.5v4.6h-1.3
	v-4.5c0-0.7-0.2-1-0.6-1c-0.2,0-0.4,0.1-0.5,0.2c-0.1,0.1-0.3,0.4-0.4,0.7v4.6h-1.2v-4.5c0-0.7-0.2-1-0.6-1c-0.2,0-0.4,0.1-0.5,0.2
	c-0.1,0.1-0.3,0.4-0.4,0.7v4.6h-1.3V262.9z"/>
<path d="M87.5,281c-0.4,0-0.8-0.1-1.2-0.2c-0.3-0.2-0.6-0.4-0.9-0.7c-0.2-0.3-0.4-0.6-0.6-1.1c-0.1-0.4-0.2-0.9-0.2-1.5
	c0-0.5,0.1-1,0.2-1.4c0.2-0.4,0.4-0.8,0.7-1.1c0.3-0.3,0.6-0.5,0.9-0.7c0.3-0.2,0.7-0.2,1.1-0.2s0.7,0.1,1,0.2s0.6,0.3,0.9,0.6l0,0
	l-0.1-1.2v-2.4h1.3v9.5h-1.1l-0.1-0.8l0,0c-0.2,0.3-0.6,0.5-0.9,0.7C88.3,280.9,87.9,281,87.5,281z M87.8,279.9
	c0.6,0,1.1-0.3,1.6-0.9v-3.1c-0.2-0.2-0.5-0.4-0.8-0.5s-0.5-0.2-0.8-0.2c-0.2,0-0.5,0.1-0.7,0.2s-0.4,0.3-0.6,0.5
	c-0.2,0.2-0.3,0.4-0.4,0.7c-0.1,0.3-0.1,0.6-0.1,1c0,0.8,0.2,1.3,0.5,1.7C86.8,279.8,87.3,279.9,87.8,279.9z M96,280.9v-5.5h-2.9
	v-1.1h4.2v6.5H96V280.9z M96.9,273.1c-0.3,0-0.5-0.1-0.7-0.2c-0.2-0.2-0.3-0.4-0.3-0.7c0-0.3,0.1-0.5,0.3-0.7
	c0.2-0.2,0.4-0.3,0.7-0.3s0.5,0.1,0.7,0.3c0.2,0.2,0.3,0.4,0.3,0.7s-0.1,0.5-0.3,0.7C97.5,273,97.2,273.1,96.9,273.1z M101.8,280.9
	v-6.5h1.1l0.1,1.5l0,0c0.3-0.5,0.7-0.9,1.2-1.2c0.5-0.3,1-0.4,1.6-0.4c0.2,0,0.5,0,0.7,0.1c0.2,0,0.4,0.1,0.6,0.2l-0.3,1.1
	c-0.2-0.1-0.4-0.1-0.6-0.2c-0.2,0-0.4,0-0.6,0c-0.5,0-0.9,0.1-1.4,0.4c-0.4,0.3-0.8,0.7-1.2,1.4v3.7h-1.2V280.9z M112.3,281
	c-0.5,0-0.9-0.1-1.4-0.2c-0.4-0.2-0.8-0.4-1.1-0.7s-0.6-0.7-0.8-1.1c-0.2-0.4-0.3-0.9-0.3-1.5c0-0.5,0.1-1,0.3-1.4s0.4-0.8,0.7-1.1
	c0.3-0.3,0.7-0.5,1.1-0.7c0.4-0.2,0.8-0.2,1.3-0.2s0.9,0.1,1.3,0.2c0.4,0.1,0.7,0.4,0.9,0.6c0.3,0.3,0.5,0.6,0.6,1
	c0.1,0.4,0.2,0.8,0.2,1.2c0,0.1,0,0.3,0,0.4c0,0.1,0,0.2,0,0.3h-5c0.1,0.7,0.3,1.2,0.8,1.5c0.4,0.3,1,0.5,1.6,0.5
	c0.4,0,0.7-0.1,1-0.2c0.3-0.1,0.6-0.2,0.9-0.4l0.5,0.8c-0.3,0.2-0.7,0.4-1.2,0.5C113.3,281,112.8,281,112.3,281z M112.2,275.2
	c-0.2,0-0.5,0-0.7,0.1c-0.2,0.1-0.4,0.2-0.6,0.3c-0.2,0.1-0.3,0.3-0.5,0.5c-0.2,0.2-0.2,0.5-0.3,0.8h3.8c-0.1-0.6-0.2-1-0.5-1.3
	C113.1,275.4,112.7,275.2,112.2,275.2z M120.5,281c-0.5,0-1-0.1-1.4-0.2c-0.4-0.2-0.8-0.4-1.1-0.7s-0.6-0.6-0.8-1.1
	c-0.2-0.4-0.3-0.9-0.3-1.5c0-0.5,0.1-1,0.3-1.5c0.2-0.4,0.5-0.8,0.8-1.1c0.3-0.3,0.7-0.5,1.2-0.7c0.4-0.2,0.9-0.2,1.4-0.2
	s1,0.1,1.4,0.3s0.7,0.4,1,0.6l-0.6,0.8c-0.3-0.2-0.5-0.4-0.8-0.5c-0.3-0.1-0.6-0.2-0.9-0.2c-0.4,0-0.7,0.1-1,0.2
	c-0.3,0.1-0.5,0.3-0.8,0.5c-0.2,0.2-0.4,0.4-0.5,0.7s-0.2,0.6-0.2,1s0.1,0.7,0.2,1c0.1,0.3,0.3,0.5,0.5,0.8c0.2,0.2,0.5,0.4,0.7,0.5
	c0.3,0.1,0.6,0.2,1,0.2s0.8-0.1,1.1-0.2c0.3-0.2,0.6-0.3,0.9-0.5l0.6,0.8c-0.4,0.3-0.8,0.6-1.2,0.8C121.5,281,121,281,120.5,281z
	 M129.1,281c-0.5,0-0.9-0.1-1.2-0.2c-0.3-0.1-0.6-0.3-0.8-0.6c-0.2-0.2-0.3-0.5-0.4-0.9c-0.1-0.3-0.1-0.7-0.1-1.1v-2.9h-1.8v-1
	l1.8-0.1l0.2-2.1h1.1v2.1h3.1v1.1h-3.1v2.9c0,0.6,0.1,1,0.3,1.3c0.2,0.3,0.6,0.4,1.2,0.4c0.3,0,0.5,0,0.8-0.1
	c0.2-0.1,0.5-0.1,0.7-0.2l0.3,1c-0.3,0.1-0.6,0.2-1,0.3C129.9,281,129.6,281,129.1,281z M136,280.9v-5.5h-2.9v-1.1h4.2v6.5H136
	V280.9z M136.9,273.1c-0.3,0-0.5-0.1-0.7-0.2c-0.2-0.2-0.3-0.4-0.3-0.7c0-0.3,0.1-0.5,0.3-0.7c0.2-0.2,0.4-0.3,0.7-0.3
	s0.5,0.1,0.7,0.3c0.2,0.2,0.3,0.4,0.3,0.7s-0.1,0.5-0.3,0.7C137.4,273,137.2,273.1,136.9,273.1z M143.2,280.9l-2.7-6.5h1.3l1.4,3.5
	c0.1,0.3,0.2,0.6,0.4,1c0.1,0.3,0.2,0.6,0.3,1l0,0c0.1-0.3,0.2-0.6,0.3-1c0.1-0.3,0.2-0.6,0.4-1l1.4-3.5h1.3l-2.6,6.5H143.2z
	 M152.3,281c-0.5,0-0.9-0.1-1.4-0.2c-0.4-0.2-0.8-0.4-1.1-0.7s-0.6-0.7-0.8-1.1c-0.2-0.4-0.3-0.9-0.3-1.5c0-0.5,0.1-1,0.3-1.4
	s0.4-0.8,0.7-1.1c0.3-0.3,0.7-0.5,1.1-0.7c0.4-0.2,0.8-0.2,1.3-0.2s0.9,0.1,1.3,0.2c0.4,0.1,0.7,0.4,0.9,0.6c0.3,0.3,0.5,0.6,0.6,1
	c0.1,0.4,0.2,0.8,0.2,1.2c0,0.1,0,0.3,0,0.4c0,0.1,0,0.2,0,0.3h-5c0.1,0.7,0.3,1.2,0.8,1.5c0.4,0.3,1,0.5,1.6,0.5
	c0.4,0,0.7-0.1,1-0.2c0.3-0.1,0.6-0.2,0.9-0.4l0.5,0.8c-0.3,0.2-0.7,0.4-1.2,0.5C153.3,281,152.8,281,152.3,281z M152.2,275.2
	c-0.2,0-0.5,0-0.7,0.1c-0.2,0.1-0.4,0.2-0.6,0.3c-0.2,0.1-0.3,0.3-0.5,0.5c-0.2,0.2-0.2,0.5-0.3,0.8h3.8c-0.1-0.6-0.2-1-0.5-1.3
	C153.1,275.4,152.7,275.2,152.2,275.2z M161.3,281c-0.7,0-1.3-0.2-1.7-0.6c-0.4-0.4-0.6-1-0.6-1.8v-6.1h-2.2v-1.1h3.6v7.2
	c0,0.5,0.1,0.8,0.3,1c0.2,0.2,0.5,0.3,0.9,0.3c0.3,0,0.7-0.1,1.2-0.3l0.3,1c-0.3,0.1-0.6,0.2-0.9,0.3S161.7,281,161.3,281z
	 M165.7,283.6c-0.2,0-0.3,0-0.5,0s-0.3-0.1-0.4-0.1l0.3-1c0.1,0,0.2,0,0.3,0.1c0.1,0,0.2,0,0.3,0c0.4,0,0.8-0.1,1-0.4
	c0.3-0.2,0.5-0.5,0.6-0.9l0.2-0.5l-3-6.5h1.3l1.5,3.4c0.1,0.3,0.2,0.6,0.4,1c0.1,0.3,0.3,0.6,0.4,1h0.1c0.1-0.3,0.2-0.6,0.3-1
	c0.1-0.3,0.2-0.7,0.3-1l1.3-3.4h1.2l-2.8,6.9c-0.1,0.4-0.3,0.7-0.5,1c-0.2,0.3-0.4,0.5-0.6,0.7c-0.2,0.2-0.5,0.4-0.8,0.5
	C166.4,283.6,166.1,283.6,165.7,283.6z"/>
<path class="st1" d="M175.9,281c-0.3,0-0.6-0.1-0.9-0.3c-0.2-0.2-0.3-0.5-0.3-0.9c0-0.4,0.1-0.7,0.3-0.9c0.2-0.2,0.5-0.3,0.9-0.3
	c0.3,0,0.6,0.1,0.8,0.3s0.4,0.5,0.4,0.9c0,0.4-0.1,0.7-0.4,0.9C176.5,280.9,176.2,281,175.9,281z"/>
<path class="st1" d="M63.5,303.7v-16.8h3.6v16.8H63.5z"/>
<path d="M76.4,298.9v-8.7h2.8c0.5,0,0.9,0,1.2,0.1c0.4,0.1,0.7,0.2,1,0.4c0.3,0.2,0.5,0.5,0.7,0.8c0.2,0.3,0.2,0.7,0.2,1.2
	c0,0.7-0.2,1.2-0.5,1.6c-0.3,0.4-0.8,0.7-1.3,0.9l2.2,3.7h-1.5l-2-3.5h-1.4v3.5H76.4z M77.7,294.3H79c0.6,0,1.1-0.1,1.5-0.4
	c0.3-0.3,0.5-0.7,0.5-1.2s-0.2-0.9-0.5-1.1c-0.3-0.2-0.8-0.3-1.5-0.3h-1.3V294.3z M86.4,299c-0.3,0-0.6,0-0.9-0.1
	c-0.3-0.1-0.5-0.2-0.7-0.4c-0.2-0.2-0.4-0.4-0.5-0.6c-0.1-0.2-0.2-0.5-0.2-0.8c0-0.4,0.1-0.7,0.2-1c0.2-0.3,0.4-0.5,0.8-0.7
	c0.4-0.2,0.9-0.4,1.4-0.5s1.3-0.2,2.1-0.3c0-0.4-0.2-0.8-0.4-1c-0.2-0.3-0.6-0.4-1.2-0.4c-0.4,0-0.8,0.1-1.2,0.2
	c-0.4,0.1-0.7,0.3-1,0.5l-0.5-0.9c0.2-0.1,0.4-0.2,0.6-0.3c0.2-0.1,0.5-0.2,0.7-0.3s0.5-0.2,0.8-0.2c0.3-0.1,0.6-0.1,0.8-0.1
	c0.9,0,1.6,0.2,2,0.7c0.5,0.5,0.7,1.2,0.7,2v3.9h-1.1l-0.1-0.8l0,0c-0.3,0.3-0.7,0.5-1.2,0.7C87.3,298.9,86.8,299,86.4,299z
	 M86.7,298c0.4,0,0.7-0.1,1-0.2c0.3-0.2,0.7-0.4,1-0.7v-1.5c-0.6,0.1-1.2,0.1-1.6,0.2c-0.4,0.1-0.8,0.2-1,0.3s-0.4,0.3-0.5,0.4
	c-0.1,0.1-0.2,0.3-0.2,0.5c0,0.3,0.1,0.6,0.4,0.7C86.1,297.9,86.4,298,86.7,298z M96.4,299c-0.5,0-0.9-0.1-1.2-0.2
	c-0.3-0.1-0.6-0.3-0.8-0.6c-0.2-0.2-0.3-0.5-0.4-0.9c-0.1-0.3-0.1-0.7-0.1-1.1v-2.9h-1.8v-1l1.8-0.1l0.2-2.1h1.1v2.1h3.1v1.1h-3.1
	v2.9c0,0.6,0.1,1,0.3,1.3c0.2,0.3,0.6,0.4,1.2,0.4c0.3,0,0.5,0,0.8-0.1c0.2-0.1,0.5-0.1,0.7-0.2l0.3,1c-0.3,0.1-0.6,0.2-1,0.3
	C97.2,299,96.8,299,96.4,299z M103.2,298.9v-5.5h-2.9v-1.1h4.2v6.5h-1.3V298.9z M104.1,291.1c-0.3,0-0.5-0.1-0.7-0.2
	c-0.2-0.2-0.3-0.4-0.3-0.7c0-0.3,0.1-0.5,0.3-0.7c0.2-0.2,0.4-0.3,0.7-0.3s0.5,0.1,0.7,0.3c0.2,0.2,0.3,0.4,0.3,0.7
	c0,0.3-0.1,0.5-0.3,0.7C104.7,291,104.4,291.1,104.1,291.1z M111.1,299c-0.4,0-0.8-0.1-1.2-0.2c-0.4-0.2-0.7-0.4-1-0.7
	c-0.3-0.3-0.5-0.6-0.7-1.1c-0.2-0.4-0.3-0.9-0.3-1.5c0-0.5,0.1-1,0.3-1.5c0.2-0.4,0.4-0.8,0.7-1.1c0.3-0.3,0.6-0.5,1-0.7
	c0.4-0.2,0.8-0.2,1.2-0.2s0.8,0.1,1.2,0.2s0.7,0.4,1,0.7c0.3,0.3,0.5,0.7,0.7,1.1s0.3,0.9,0.3,1.5c0,0.5-0.1,1-0.3,1.5
	c-0.2,0.4-0.4,0.8-0.7,1.1c-0.3,0.3-0.7,0.5-1,0.7C112,299,111.6,299,111.1,299z M111.1,298c0.6,0,1-0.2,1.4-0.6
	c0.3-0.4,0.5-1,0.5-1.7c0-0.7-0.2-1.3-0.5-1.7s-0.8-0.6-1.4-0.6s-1,0.2-1.4,0.6c-0.3,0.4-0.5,1-0.5,1.7c0,0.7,0.2,1.3,0.5,1.7
	C110.1,297.8,110.6,298,111.1,298z M116.3,298.9v-6.5h1.1l0.1,1l0,0c0.3-0.3,0.7-0.6,1.1-0.8c0.4-0.2,0.8-0.4,1.3-0.4
	c0.8,0,1.3,0.2,1.7,0.7c0.4,0.4,0.5,1.1,0.5,2v4h-1.3V295c0-0.6-0.1-1-0.3-1.3c-0.2-0.3-0.5-0.4-1-0.4c-0.3,0-0.7,0.1-0.9,0.3
	c-0.3,0.2-0.6,0.4-0.9,0.8v4.5L116.3,298.9L116.3,298.9z M126.4,299c-0.3,0-0.6,0-0.9-0.1c-0.3-0.1-0.5-0.2-0.7-0.4
	c-0.2-0.2-0.4-0.4-0.5-0.6c-0.1-0.2-0.2-0.5-0.2-0.8c0-0.4,0.1-0.7,0.2-1c0.2-0.3,0.4-0.5,0.8-0.7c0.4-0.2,0.9-0.4,1.4-0.5
	c0.6-0.1,1.3-0.2,2.1-0.3c0-0.4-0.2-0.8-0.4-1c-0.2-0.3-0.6-0.4-1.2-0.4c-0.4,0-0.8,0.1-1.2,0.2c-0.4,0.1-0.7,0.3-1,0.5l-0.5-0.9
	c0.2-0.1,0.4-0.2,0.6-0.3c0.2-0.1,0.5-0.2,0.7-0.3s0.5-0.2,0.8-0.2c0.3-0.1,0.6-0.1,0.8-0.1c0.9,0,1.6,0.2,2,0.7
	c0.5,0.5,0.7,1.2,0.7,2v3.9h-1.1l-0.1-0.8l0,0c-0.3,0.3-0.7,0.5-1.2,0.7C127.2,298.9,126.8,299,126.4,299z M126.7,298
	c0.4,0,0.7-0.1,1-0.2c0.3-0.2,0.7-0.4,1-0.7v-1.5c-0.6,0.1-1.2,0.1-1.6,0.2c-0.4,0.1-0.8,0.2-1,0.3s-0.4,0.3-0.5,0.4
	c-0.1,0.2-0.2,0.3-0.2,0.5c0,0.3,0.1,0.6,0.4,0.7C126.1,297.9,126.4,298,126.7,298z M136.5,299c-0.7,0-1.3-0.2-1.7-0.6
	c-0.4-0.4-0.6-1-0.6-1.8v-6.1H132v-1.1h3.6v7.2c0,0.5,0.1,0.8,0.3,1c0.2,0.2,0.5,0.3,0.9,0.3c0.3,0,0.7-0.1,1.2-0.3l0.3,1
	c-0.3,0.1-0.6,0.2-0.9,0.3C137.2,299,136.9,299,136.5,299z"/>
<path class="st0" d="M75.5,16h184.2v134.7H75.5V16z"/>
<path d="M85.3,36.5v-0.8c0.6-0.5,1.1-1,1.6-1.4s0.9-0.8,1.2-1.2c0.3-0.4,0.6-0.7,0.8-1c0.2-0.3,0.3-0.6,0.3-0.9c0-0.4-0.1-0.7-0.4-1
	c-0.2-0.2-0.6-0.4-1.1-0.4c-0.3,0-0.6,0.1-0.9,0.2c-0.3,0.2-0.5,0.4-0.8,0.6l-0.8-0.8c0.4-0.4,0.8-0.7,1.2-0.9
	c0.4-0.2,0.9-0.3,1.5-0.3c0.4,0,0.7,0.1,1.1,0.2c0.3,0.1,0.6,0.3,0.8,0.5c0.2,0.2,0.4,0.4,0.5,0.7s0.2,0.6,0.2,1
	c0,0.3-0.1,0.7-0.2,1c-0.2,0.3-0.4,0.7-0.7,1.1c-0.3,0.4-0.6,0.7-1,1.1c-0.4,0.4-0.8,0.8-1.2,1.2c0.2,0,0.5,0,0.7,0s0.5,0,0.7,0H91
	v1.2L85.3,36.5L85.3,36.5z M95.3,36.6c-0.4,0-0.8-0.1-1.2-0.2c-0.4-0.1-0.7-0.2-0.9-0.4c-0.2-0.2-0.4-0.4-0.6-0.7
	c-0.1-0.3-0.2-0.5-0.2-0.9c0-0.2,0-0.5,0.1-0.7s0.2-0.4,0.3-0.5c0.1-0.2,0.3-0.3,0.5-0.4s0.4-0.2,0.6-0.3l0,0
	c-0.3-0.2-0.6-0.5-0.8-0.8c-0.2-0.3-0.3-0.6-0.3-1c0-0.3,0.1-0.6,0.2-0.8s0.3-0.5,0.5-0.6c0.2-0.2,0.5-0.3,0.8-0.4
	c0.3-0.1,0.6-0.2,1-0.2c0.8,0,1.4,0.2,1.8,0.6c0.4,0.4,0.7,0.9,0.7,1.5c0,0.4-0.1,0.7-0.3,1c-0.2,0.3-0.5,0.5-0.8,0.8l0,0
	c0.2,0.1,0.4,0.2,0.6,0.3s0.3,0.2,0.5,0.4c0.1,0.2,0.2,0.3,0.3,0.5c0.1,0.2,0.1,0.4,0.1,0.7s-0.1,0.6-0.2,0.8s-0.3,0.5-0.5,0.7
	s-0.5,0.3-0.9,0.4C96.2,36.6,95.8,36.6,95.3,36.6z M95.9,32.2c0.5-0.4,0.8-0.8,0.8-1.3c0-0.3-0.1-0.6-0.3-0.8
	c-0.2-0.2-0.5-0.3-1-0.3c-0.4,0-0.7,0.1-0.9,0.3c-0.2,0.2-0.3,0.4-0.3,0.8c0,0.2,0,0.4,0.1,0.5s0.2,0.3,0.4,0.4
	c0.2,0.1,0.4,0.2,0.6,0.3S95.6,32.1,95.9,32.2z M95.3,35.7c0.5,0,0.8-0.1,1.1-0.3c0.3-0.2,0.4-0.5,0.4-0.8c0-0.2-0.1-0.4-0.2-0.5
	c-0.1-0.2-0.2-0.3-0.4-0.4c-0.2-0.1-0.4-0.2-0.7-0.3c-0.2-0.1-0.5-0.2-0.8-0.3c-0.3,0.2-0.6,0.4-0.8,0.6c-0.2,0.2-0.3,0.5-0.3,0.8
	c0,0.4,0.2,0.7,0.5,0.9C94.5,35.5,94.9,35.7,95.3,35.7z M107.7,38.9c-0.2,0-0.3,0-0.5,0c-0.1,0-0.3-0.1-0.4-0.1l0.3-1.1
	c0.1,0,0.2,0.1,0.2,0.1c0.1,0,0.2,0,0.3,0c0.4,0,0.7-0.1,0.9-0.3c0.2-0.2,0.4-0.4,0.5-0.7l0.2-0.4l-2.6-5.8h1.4l1.2,2.9
	c0.1,0.3,0.2,0.5,0.3,0.8c0.1,0.3,0.2,0.6,0.3,0.9l0,0c0.1-0.3,0.2-0.6,0.3-0.9c0.1-0.3,0.2-0.6,0.3-0.9l1.1-2.9h1.3l-2.5,6.2
	c-0.1,0.3-0.3,0.6-0.4,0.9c-0.2,0.3-0.3,0.5-0.5,0.7s-0.4,0.3-0.7,0.4C108.4,38.9,108.1,38.9,107.7,38.9z M117.3,36.6
	c-0.4,0-0.9-0.1-1.3-0.2c-0.4-0.1-0.7-0.3-1-0.6s-0.5-0.6-0.7-1s-0.3-0.8-0.2-1.3c0-0.5,0.1-0.9,0.2-1.3c0.2-0.4,0.4-0.7,0.7-1
	c0.3-0.3,0.6-0.5,1-0.6s0.7-0.2,1.1-0.2s0.8,0.1,1.2,0.2c0.3,0.1,0.6,0.3,0.9,0.6c0.2,0.2,0.4,0.5,0.5,0.9c0.1,0.3,0.2,0.7,0.2,1.1
	c0,0.1,0,0.3,0,0.4c0,0.1,0,0.2,0,0.3h-4.3c0.1,0.6,0.3,1,0.7,1.2c0.4,0.3,0.8,0.4,1.4,0.4c0.3,0,0.6,0,0.9-0.1s0.5-0.2,0.8-0.4
	l0.5,0.9c-0.3,0.2-0.7,0.4-1.1,0.5C118.1,36.6,117.7,36.6,117.3,36.6z M117.1,31.5c-0.4,0-0.8,0.1-1.1,0.4c-0.3,0.2-0.5,0.6-0.6,1.1
	h3.1c-0.1-0.5-0.2-0.8-0.5-1.1C117.9,31.7,117.5,31.5,117.1,31.5z M123.3,36.6c-0.3,0-0.5,0-0.8-0.1c-0.2-0.1-0.4-0.2-0.6-0.3
	c-0.2-0.2-0.3-0.3-0.4-0.5s-0.1-0.5-0.1-0.7c0-0.3,0.1-0.6,0.2-0.9c0.2-0.2,0.4-0.5,0.7-0.6c0.3-0.2,0.8-0.3,1.3-0.4
	c0.5-0.1,1.1-0.2,1.9-0.2c0-0.3-0.1-0.6-0.4-0.8s-0.6-0.3-1-0.3c-0.3,0-0.7,0.1-1,0.2c-0.3,0.1-0.6,0.3-1,0.4l-0.5-0.9
	c0.4-0.2,0.8-0.4,1.2-0.6c0.5-0.2,1-0.2,1.5-0.2c0.8,0,1.4,0.2,1.9,0.7c0.4,0.4,0.7,1.1,0.7,1.9v3.5h-1.2l-0.1-0.7l0,0
	c-0.3,0.2-0.7,0.4-1,0.6C124.1,36.6,123.7,36.6,123.3,36.6z M123.7,35.6c0.3,0,0.6-0.1,0.9-0.2c0.3-0.1,0.6-0.3,0.8-0.5v-1.2
	c-0.5,0-1,0.1-1.3,0.2c-0.3,0.1-0.6,0.1-0.8,0.2c-0.2,0.1-0.4,0.2-0.5,0.4c-0.1,0.1-0.1,0.3-0.1,0.4c0,0.3,0.1,0.5,0.3,0.6
	C123.2,35.5,123.4,35.6,123.7,35.6z M129.3,36.5v-5.9h1.1l0.1,1.3l0,0c0.3-0.5,0.7-0.8,1.1-1.1c0.4-0.2,0.9-0.4,1.4-0.4
	c0.2,0,0.4,0,0.6,0.1c0.2,0,0.4,0.1,0.5,0.2l-0.3,1.2c-0.2-0.1-0.4-0.1-0.5-0.1s-0.3,0-0.6,0c-0.4,0-0.8,0.1-1.2,0.4
	c-0.4,0.2-0.7,0.6-1,1.2v3.2h-1.2V36.5z M138.5,36.6c-0.6,0-1.1-0.1-1.6-0.3s-0.9-0.4-1.3-0.6l0.6-0.9c0.4,0.2,0.7,0.4,1.1,0.5
	s0.8,0.2,1.3,0.2c0.4,0,0.7-0.1,0.9-0.2c0.2-0.1,0.3-0.3,0.3-0.5c0-0.1,0-0.2-0.1-0.2c0-0.1-0.1-0.2-0.2-0.2
	c-0.1-0.1-0.3-0.1-0.5-0.2s-0.5-0.1-0.8-0.2c-0.8-0.2-1.4-0.4-1.7-0.7c-0.4-0.3-0.5-0.7-0.5-1.1c0-0.5,0.2-0.9,0.7-1.3
	c0.4-0.3,1.1-0.5,1.9-0.5c0.5,0,0.9,0.1,1.4,0.2s0.8,0.3,1.1,0.5l-0.6,0.8c-0.3-0.2-0.6-0.3-0.9-0.4c-0.3-0.1-0.7-0.2-1-0.2
	c-0.4,0-0.7,0.1-0.8,0.2c-0.2,0.1-0.2,0.3-0.2,0.5s0.1,0.4,0.4,0.5c0.2,0.1,0.6,0.2,1.2,0.3c0.5,0.1,0.9,0.2,1.2,0.3
	c0.3,0.1,0.5,0.2,0.7,0.4c0.2,0.1,0.3,0.3,0.4,0.5s0.1,0.4,0.1,0.6c0,0.3-0.1,0.5-0.2,0.7s-0.3,0.4-0.5,0.6
	c-0.2,0.2-0.5,0.3-0.9,0.4S139,36.6,138.5,36.6z M152.9,36.6c-0.4,0-0.7-0.1-1.1-0.2c-0.4-0.1-0.7-0.3-1-0.6s-0.5-0.6-0.7-1
	s-0.2-0.8-0.2-1.3s0.1-0.9,0.2-1.3c0.2-0.4,0.4-0.7,0.7-1c0.3-0.3,0.6-0.5,1-0.6s0.7-0.2,1.1-0.2s0.8,0.1,1.1,0.2
	c0.4,0.1,0.7,0.3,1,0.6s0.5,0.6,0.7,1s0.2,0.8,0.2,1.3s-0.1,0.9-0.2,1.3c-0.2,0.4-0.4,0.7-0.7,1c-0.3,0.3-0.6,0.5-1,0.6
	C153.6,36.6,153.3,36.6,152.9,36.6z M152.9,35.5c0.5,0,0.9-0.2,1.1-0.5c0.3-0.4,0.4-0.8,0.4-1.4c0-0.6-0.1-1.1-0.4-1.4
	c-0.3-0.4-0.6-0.5-1.1-0.5s-0.9,0.2-1.1,0.5c-0.3,0.4-0.4,0.8-0.4,1.4c0,0.6,0.1,1.1,0.4,1.4C152,35.3,152.4,35.5,152.9,35.5z
	 M161.3,36.6c-0.7,0-1.2-0.2-1.6-0.6c-0.4-0.4-0.5-1-0.5-1.7v-5.2h-2V28h3.3v6.4c0,0.4,0.1,0.7,0.3,0.9c0.2,0.2,0.5,0.2,0.8,0.2
	s0.7-0.1,1-0.2l0.3,1c-0.3,0.1-0.6,0.2-0.8,0.2C161.9,36.6,161.7,36.6,161.3,36.6z M166.9,36.6c-0.4,0-0.7-0.1-1-0.2
	c-0.3-0.1-0.6-0.3-0.8-0.6c-0.2-0.3-0.4-0.6-0.5-1s-0.2-0.8-0.2-1.3s0.1-0.9,0.2-1.3c0.1-0.4,0.3-0.7,0.6-1c0.2-0.3,0.5-0.5,0.8-0.6
	s0.6-0.2,1-0.2c0.3,0,0.6,0.1,0.9,0.2c0.3,0.1,0.5,0.3,0.7,0.5l0,0l-0.1-1V28h1.4v8.5h-1.1l-0.1-0.7l0,0c-0.2,0.2-0.5,0.4-0.8,0.6
	C167.5,36.6,167.2,36.6,166.9,36.6z M167.2,35.5c0.5,0,0.9-0.2,1.3-0.7v-2.7c-0.2-0.2-0.4-0.3-0.6-0.4c-0.2-0.1-0.4-0.1-0.6-0.1
	s-0.4,0-0.6,0.1s-0.3,0.2-0.5,0.4c-0.1,0.2-0.2,0.4-0.3,0.6c-0.1,0.2-0.1,0.5-0.1,0.8c0,0.6,0.1,1.1,0.4,1.5
	C166.4,35.3,166.7,35.5,167.2,35.5z M173.5,39.1l-0.4-0.8c1-0.4,1.5-1,1.5-1.8c0,0-0.1,0-0.2,0c-0.3,0-0.6-0.1-0.8-0.3
	c-0.2-0.2-0.3-0.5-0.3-0.8s0.1-0.6,0.3-0.8c0.2-0.2,0.5-0.3,0.8-0.3c0.4,0,0.8,0.2,1,0.5s0.3,0.8,0.3,1.3c0,0.7-0.2,1.4-0.6,1.9
	C174.8,38.5,174.3,38.8,173.5,39.1z M178.9,36.5v-7.8h1.5l0.9,3.1l0.3,1.2l0,0l0.3-1.2l1-3.1h1.5v7.8h-1.2v-3.2c0-0.2,0-0.5,0-0.7
	c0-0.3,0-0.6,0-0.9c0-0.3,0-0.6,0.1-0.9c0-0.3,0.1-0.5,0.1-0.7l0,0l-0.5,1.8l-0.9,2.5h-0.8l-0.9-2.5l-0.5-1.8l0,0
	c0,0.2,0,0.4,0.1,0.7c0,0.3,0.1,0.6,0.1,0.9c0,0.3,0,0.6,0,0.9c0,0.3,0,0.5,0,0.7v3.2H178.9z M188.1,36.6c-0.3,0-0.5,0-0.8-0.1
	c-0.2-0.1-0.4-0.2-0.6-0.3c-0.2-0.2-0.3-0.3-0.4-0.5s-0.1-0.5-0.1-0.7c0-0.3,0.1-0.6,0.2-0.9c0.2-0.2,0.4-0.5,0.7-0.6
	c0.3-0.2,0.8-0.3,1.3-0.4c0.5-0.1,1.1-0.2,1.9-0.2c0-0.3-0.1-0.6-0.4-0.8s-0.6-0.3-1-0.3c-0.3,0-0.7,0.1-1,0.2
	c-0.3,0.1-0.6,0.3-1,0.4l-0.5-0.9c0.4-0.2,0.8-0.4,1.2-0.6c0.5-0.2,1-0.2,1.5-0.2c0.8,0,1.4,0.2,1.9,0.7c0.4,0.4,0.7,1.1,0.7,1.9
	v3.5h-1.1l-0.1-0.7l0,0c-0.3,0.2-0.7,0.4-1,0.6C188.9,36.6,188.5,36.6,188.1,36.6z M188.5,35.6c0.3,0,0.6-0.1,0.9-0.2
	c0.3-0.1,0.6-0.3,0.8-0.5v-1.2c-0.5,0-1,0.1-1.3,0.2c-0.3,0.1-0.6,0.1-0.8,0.2c-0.2,0.1-0.4,0.2-0.5,0.4c-0.1,0.1-0.1,0.3-0.1,0.4
	c0,0.3,0.1,0.5,0.3,0.6C188,35.5,188.2,35.6,188.5,35.6z M197.3,36.6c-0.7,0-1.2-0.2-1.6-0.6c-0.4-0.4-0.5-1-0.5-1.7v-5.2h-2V28h3.3
	v6.4c0,0.4,0.1,0.7,0.3,0.9c0.2,0.2,0.5,0.2,0.8,0.2s0.7-0.1,1-0.2l0.3,1c-0.3,0.1-0.6,0.2-0.8,0.2
	C197.9,36.6,197.7,36.6,197.3,36.6z M203.7,36.6c-0.4,0-0.9-0.1-1.3-0.2c-0.4-0.1-0.7-0.3-1-0.6s-0.5-0.6-0.7-1s-0.2-0.8-0.2-1.3
	s0.1-0.9,0.2-1.3c0.2-0.4,0.4-0.7,0.7-1c0.3-0.3,0.6-0.5,1-0.6s0.7-0.2,1.1-0.2s0.8,0.1,1.2,0.2c0.3,0.1,0.6,0.3,0.9,0.6
	c0.2,0.2,0.4,0.5,0.5,0.9c0.1,0.3,0.2,0.7,0.2,1.1c0,0.1,0,0.3,0,0.4s0,0.2,0,0.3H202c0.1,0.6,0.3,1,0.7,1.2
	c0.4,0.3,0.8,0.4,1.4,0.4c0.3,0,0.6,0,0.9-0.1s0.5-0.2,0.8-0.4l0.5,0.9c-0.3,0.2-0.7,0.4-1.1,0.5S204.1,36.6,203.7,36.6z
	 M203.5,31.5c-0.4,0-0.8,0.1-1.1,0.4c-0.3,0.2-0.5,0.6-0.6,1.1h3.1c-0.1-0.5-0.2-0.8-0.5-1.1C204.3,31.7,203.9,31.5,203.5,31.5z"/>
<path d="M88.1,65.6c-0.6,0-1.1-0.1-1.6-0.3c-0.5-0.2-0.9-0.5-1.3-0.9l0.8-0.9c0.3,0.3,0.6,0.5,1,0.6c0.4,0.2,0.8,0.2,1.2,0.2
	c0.5,0,0.8-0.1,1-0.3c0.2-0.2,0.4-0.4,0.4-0.7c0-0.2,0-0.3-0.1-0.4s-0.2-0.2-0.3-0.3c-0.1-0.1-0.3-0.2-0.4-0.2
	c-0.2-0.1-0.3-0.2-0.5-0.2l-1.1-0.5c-0.2-0.1-0.4-0.2-0.6-0.3c-0.2-0.1-0.4-0.3-0.5-0.4c-0.2-0.2-0.3-0.4-0.4-0.6s-0.1-0.5-0.1-0.8
	s0.1-0.6,0.2-0.9s0.3-0.5,0.6-0.7c0.2-0.2,0.5-0.3,0.9-0.5c0.3-0.1,0.7-0.2,1.1-0.2c0.5,0,0.9,0.1,1.4,0.3c0.4,0.2,0.8,0.4,1.1,0.7
	l-0.7,0.9c-0.3-0.2-0.5-0.4-0.8-0.5s-0.6-0.2-1-0.2s-0.7,0.1-0.9,0.2c-0.2,0.2-0.3,0.4-0.3,0.7c0,0.2,0,0.3,0.1,0.4s0.2,0.2,0.3,0.3
	c0.1,0.1,0.3,0.2,0.4,0.2s0.3,0.1,0.5,0.2l1,0.4c0.2,0.1,0.5,0.2,0.7,0.3c0.2,0.1,0.4,0.3,0.5,0.4c0.2,0.2,0.3,0.4,0.4,0.6
	s0.1,0.5,0.1,0.8s-0.1,0.6-0.2,0.9s-0.3,0.5-0.6,0.7c-0.2,0.2-0.5,0.4-0.9,0.5C89,65.6,88.6,65.6,88.1,65.6z M94.5,65.6
	c-0.3,0-0.5,0-0.8-0.1c-0.2-0.1-0.4-0.2-0.6-0.3c-0.2-0.2-0.3-0.3-0.4-0.5s-0.1-0.5-0.1-0.7c0-0.3,0.1-0.6,0.2-0.9
	c0.2-0.2,0.4-0.5,0.7-0.6c0.3-0.2,0.8-0.3,1.3-0.4s1.1-0.2,1.9-0.2c0-0.3-0.1-0.6-0.4-0.8s-0.6-0.3-1-0.3c-0.3,0-0.7,0.1-1,0.2
	s-0.6,0.3-1,0.4l-0.5-0.9c0.4-0.2,0.8-0.4,1.2-0.6c0.5-0.2,1-0.2,1.5-0.2c0.8,0,1.4,0.2,1.9,0.7c0.4,0.4,0.7,1.1,0.7,1.9v3.5H97
	l-0.1-0.7l0,0c-0.3,0.2-0.7,0.4-1,0.6C95.3,65.6,94.9,65.6,94.5,65.6z M94.9,64.6c0.3,0,0.6-0.1,0.9-0.2s0.6-0.3,0.8-0.5v-1.2
	c-0.5,0-1,0.1-1.3,0.2s-0.6,0.1-0.8,0.2c-0.2,0.1-0.4,0.2-0.5,0.4c-0.1,0.1-0.1,0.3-0.1,0.4c0,0.3,0.1,0.5,0.3,0.6
	C94.4,64.5,94.6,64.6,94.9,64.6z M99.9,65.5v-5.9h1.1l0.1,0.9l0,0c0.3-0.3,0.6-0.5,0.9-0.7s0.7-0.3,1.2-0.3c0.7,0,1.2,0.2,1.5,0.6
	s0.5,1,0.5,1.8v3.6h-1.4V62c0-0.5-0.1-0.8-0.2-1c-0.2-0.2-0.4-0.3-0.8-0.3c-0.3,0-0.6,0.1-0.8,0.2c-0.2,0.1-0.5,0.3-0.7,0.6v4
	C101.3,65.5,99.9,65.5,99.9,65.5z M114.7,65.5v-7.8h5v1.2h-3.6v2.2h3.1v1.2h-3.1v3.3L114.7,65.5L114.7,65.5z M122.1,65.5v-5.9h1.1
	l0.1,1.3l0,0c0.3-0.5,0.7-0.8,1.1-1.1c0.4-0.2,0.9-0.4,1.4-0.4c0.2,0,0.4,0,0.6,0.1c0.2,0,0.4,0.1,0.5,0.2l-0.3,1.2
	c-0.2-0.1-0.4-0.1-0.5-0.1s-0.3,0-0.6,0c-0.4,0-0.8,0.1-1.2,0.4c-0.4,0.2-0.7,0.6-1,1.2v3.2L122.1,65.5L122.1,65.5z M130.5,65.6
	c-0.3,0-0.5,0-0.8-0.1c-0.2-0.1-0.4-0.2-0.6-0.3c-0.2-0.2-0.3-0.3-0.4-0.5s-0.1-0.5-0.1-0.7c0-0.3,0.1-0.6,0.2-0.9
	c0.2-0.2,0.4-0.5,0.7-0.6c0.3-0.2,0.8-0.3,1.3-0.4s1.1-0.2,1.9-0.2c0-0.3-0.1-0.6-0.4-0.8s-0.6-0.3-1-0.3c-0.3,0-0.7,0.1-1,0.2
	s-0.6,0.3-1,0.4l-0.5-0.9c0.4-0.2,0.8-0.4,1.2-0.6c0.5-0.2,1-0.2,1.5-0.2c0.8,0,1.4,0.2,1.9,0.7c0.4,0.4,0.7,1.1,0.7,1.9v3.5H133
	l-0.1-0.7l0,0c-0.3,0.2-0.7,0.4-1,0.6C131.3,65.6,130.9,65.6,130.5,65.6z M130.9,64.6c0.3,0,0.6-0.1,0.9-0.2s0.6-0.3,0.8-0.5v-1.2
	c-0.5,0-1,0.1-1.3,0.2s-0.6,0.1-0.8,0.2c-0.2,0.1-0.4,0.2-0.5,0.4c-0.1,0.1-0.1,0.3-0.1,0.4c0,0.3,0.1,0.5,0.3,0.6
	C130.4,64.5,130.6,64.6,130.9,64.6z M135.9,65.5v-5.9h1.1l0.1,0.9l0,0c0.3-0.3,0.6-0.5,0.9-0.7s0.7-0.3,1.2-0.3
	c0.7,0,1.2,0.2,1.5,0.6s0.5,1,0.5,1.8v3.6h-1.4V62c0-0.5-0.1-0.8-0.2-1c-0.2-0.2-0.4-0.3-0.8-0.3c-0.3,0-0.6,0.1-0.8,0.2
	c-0.2,0.1-0.5,0.3-0.7,0.6v4C137.3,65.5,135.9,65.5,135.9,65.5z M146.2,65.6c-0.5,0-0.9-0.1-1.3-0.2s-0.7-0.3-1-0.6
	c-0.3-0.3-0.5-0.6-0.7-1S143,63,143,62.5s0.1-0.9,0.3-1.3c0.2-0.4,0.4-0.7,0.7-1c0.3-0.3,0.7-0.5,1.1-0.6s0.8-0.2,1.3-0.2
	s0.9,0.1,1.3,0.2s0.7,0.4,0.9,0.6l-0.7,0.9c-0.2-0.2-0.5-0.3-0.7-0.4s-0.5-0.1-0.8-0.1c-0.6,0-1.1,0.2-1.5,0.5
	c-0.4,0.4-0.5,0.8-0.5,1.4c0,0.3,0,0.6,0.1,0.8c0.1,0.2,0.2,0.4,0.4,0.6c0.2,0.2,0.4,0.3,0.6,0.4s0.5,0.1,0.8,0.1s0.6-0.1,0.9-0.2
	s0.5-0.3,0.8-0.5l0.6,0.9c-0.3,0.3-0.7,0.5-1.1,0.7C147.1,65.6,146.7,65.6,146.2,65.6z M152.9,65.5v-4.8h-2.5v-1.1h3.9v5.9H152.9z
	 M153.9,58.5c-0.3,0-0.5-0.1-0.7-0.2c-0.2-0.2-0.3-0.4-0.3-0.7s0.1-0.5,0.3-0.7c0.2-0.2,0.4-0.3,0.7-0.3c0.3,0,0.5,0.1,0.7,0.3
	c0.2,0.2,0.3,0.4,0.3,0.7s-0.1,0.5-0.3,0.7C154.4,58.5,154.2,58.5,153.9,58.5z M160.1,65.6c-0.6,0-1.1-0.1-1.6-0.3
	c-0.5-0.2-0.9-0.4-1.3-0.6l0.6-0.9c0.4,0.2,0.7,0.4,1.1,0.5s0.8,0.2,1.3,0.2c0.4,0,0.7-0.1,0.9-0.2c0.2-0.1,0.3-0.3,0.3-0.5
	c0-0.1,0-0.2-0.1-0.2c0-0.1-0.1-0.2-0.2-0.2c-0.1-0.1-0.3-0.1-0.5-0.2s-0.5-0.1-0.8-0.2c-0.8-0.2-1.4-0.4-1.7-0.7
	c-0.4-0.3-0.5-0.7-0.5-1.1c0-0.5,0.2-0.9,0.7-1.3c0.4-0.3,1.1-0.5,1.9-0.5c0.5,0,0.9,0.1,1.4,0.2c0.4,0.2,0.8,0.3,1.1,0.5l-0.6,0.8
	c-0.3-0.2-0.6-0.3-0.9-0.4s-0.7-0.2-1-0.2c-0.4,0-0.7,0.1-0.8,0.2c-0.2,0.1-0.2,0.3-0.2,0.5s0.1,0.4,0.4,0.5
	c0.2,0.1,0.6,0.2,1.2,0.3c0.5,0.1,0.9,0.2,1.2,0.3c0.3,0.1,0.5,0.2,0.7,0.4c0.2,0.1,0.3,0.3,0.4,0.5s0.1,0.4,0.1,0.6
	c0,0.3-0.1,0.5-0.2,0.7s-0.3,0.4-0.5,0.6s-0.5,0.3-0.9,0.4S160.6,65.6,160.1,65.6z M167.8,65.6c-0.5,0-0.9-0.1-1.3-0.2
	s-0.7-0.3-1-0.6c-0.3-0.3-0.5-0.6-0.7-1s-0.3-0.8-0.2-1.3c0-0.5,0.1-0.9,0.3-1.3c0.2-0.4,0.4-0.7,0.7-1c0.3-0.3,0.7-0.5,1.1-0.6
	s0.8-0.2,1.3-0.2s0.9,0.1,1.3,0.2c0.4,0.2,0.7,0.4,0.9,0.6l-0.7,0.9c-0.2-0.2-0.5-0.3-0.7-0.4s-0.5-0.1-0.8-0.1
	c-0.6,0-1.1,0.2-1.5,0.5c-0.4,0.4-0.5,0.8-0.5,1.4c0,0.3,0,0.6,0.1,0.8c0.1,0.2,0.2,0.4,0.4,0.6c0.2,0.2,0.4,0.3,0.6,0.4
	s0.5,0.1,0.8,0.1s0.6-0.1,0.9-0.2s0.5-0.3,0.8-0.5l0.6,0.9c-0.3,0.3-0.7,0.5-1.1,0.7C168.7,65.6,168.3,65.6,167.8,65.6z M174.5,65.6
	c-0.4,0-0.7-0.1-1.1-0.2s-0.7-0.3-1-0.6c-0.3-0.3-0.5-0.6-0.7-1s-0.2-0.8-0.2-1.3s0.1-0.9,0.2-1.3c0.2-0.4,0.4-0.7,0.7-1
	c0.3-0.3,0.6-0.5,1-0.6s0.7-0.2,1.1-0.2s0.8,0.1,1.1,0.2c0.4,0.1,0.7,0.3,1,0.6c0.3,0.3,0.5,0.6,0.7,1s0.3,0.8,0.2,1.3
	c0,0.5-0.1,0.9-0.2,1.3c-0.2,0.4-0.4,0.7-0.7,1c-0.3,0.3-0.6,0.5-1,0.6C175.3,65.6,174.9,65.6,174.5,65.6z M174.5,64.5
	c0.5,0,0.9-0.2,1.1-0.5c0.3-0.4,0.4-0.8,0.4-1.4s-0.1-1.1-0.4-1.4c-0.3-0.4-0.6-0.5-1.1-0.5s-0.9,0.2-1.1,0.5
	c-0.3,0.4-0.4,0.8-0.4,1.4s0.1,1.1,0.4,1.4C173.6,64.3,174,64.5,174.5,64.5z M180.7,68.1l-0.4-0.8c1-0.4,1.5-1,1.5-1.8
	c0,0-0.1,0-0.2,0c-0.3,0-0.6-0.1-0.8-0.3c-0.2-0.2-0.3-0.5-0.3-0.8s0.1-0.6,0.3-0.8c0.2-0.2,0.5-0.3,0.8-0.3c0.4,0,0.8,0.2,1,0.5
	s0.3,0.8,0.3,1.3c0,0.7-0.2,1.4-0.6,1.9C182,67.5,181.5,67.8,180.7,68.1z M196.8,65.6c-0.5,0-0.9-0.1-1.4-0.3
	c-0.4-0.2-0.8-0.4-1.1-0.8s-0.6-0.8-0.8-1.3c-0.2-0.5-0.3-1.1-0.3-1.7s0.1-1.2,0.3-1.7c0.2-0.5,0.4-0.9,0.8-1.3
	c0.3-0.4,0.7-0.6,1.2-0.8c0.4-0.2,0.9-0.3,1.4-0.3s0.9,0.1,1.3,0.3c0.4,0.2,0.7,0.4,1,0.7l-0.8,0.9c-0.2-0.2-0.4-0.4-0.7-0.5
	c-0.2-0.1-0.5-0.2-0.8-0.2s-0.6,0.1-0.9,0.2s-0.5,0.3-0.7,0.6c-0.2,0.2-0.3,0.5-0.5,0.9c-0.1,0.4-0.2,0.8-0.2,1.2
	c0,0.4,0.1,0.8,0.2,1.2c0.1,0.4,0.3,0.7,0.5,0.9c0.2,0.2,0.4,0.4,0.7,0.6c0.3,0.1,0.6,0.2,0.9,0.2s0.6-0.1,0.9-0.2s0.5-0.3,0.7-0.6
	l0.8,0.8c-0.3,0.4-0.7,0.7-1.1,0.9C197.8,65.6,197.3,65.6,196.8,65.6z M202.6,61.3l-0.3,1h2l-0.3-1c-0.1-0.4-0.2-0.8-0.4-1.3
	c-0.1-0.4-0.2-0.9-0.3-1.3l0,0c-0.1,0.4-0.2,0.9-0.3,1.3C202.8,60.5,202.7,60.9,202.6,61.3z M199.9,65.5l2.5-7.8h1.6l2.5,7.8H205
	l-0.6-2.1h-2.6l-0.6,2.1H199.9z"/>
<path d="M88.8,94.6c-0.5,0-0.9-0.1-1.4-0.3s-0.8-0.4-1.1-0.8s-0.6-0.8-0.8-1.3c-0.2-0.5-0.3-1.1-0.3-1.7s0.1-1.2,0.3-1.7
	c0.2-0.5,0.4-0.9,0.8-1.3c0.3-0.4,0.7-0.6,1.2-0.8c0.4-0.2,0.9-0.3,1.4-0.3s0.9,0.1,1.3,0.3c0.4,0.2,0.7,0.4,1,0.7l-0.8,0.9
	c-0.2-0.2-0.4-0.4-0.7-0.5s-0.5-0.2-0.8-0.2s-0.6,0.1-0.9,0.2s-0.5,0.3-0.7,0.6c-0.2,0.2-0.3,0.5-0.5,0.9c-0.1,0.4-0.2,0.8-0.2,1.2
	c0,0.4,0.1,0.8,0.2,1.2c0.1,0.4,0.3,0.7,0.5,0.9c0.2,0.2,0.4,0.4,0.7,0.6c0.3,0.1,0.6,0.2,0.9,0.2s0.6-0.1,0.9-0.2s0.5-0.3,0.7-0.6
	l0.8,0.8c-0.3,0.4-0.7,0.7-1.1,0.9C89.8,94.6,89.3,94.6,88.8,94.6z M94.5,94.6c-0.3,0-0.5,0-0.8-0.1c-0.2-0.1-0.4-0.2-0.6-0.3
	c-0.2-0.2-0.3-0.3-0.4-0.5s-0.1-0.5-0.1-0.7c0-0.3,0.1-0.6,0.2-0.9c0.2-0.2,0.4-0.5,0.7-0.6c0.3-0.2,0.8-0.3,1.3-0.4
	s1.1-0.2,1.9-0.2c0-0.3-0.1-0.6-0.4-0.8s-0.6-0.3-1-0.3c-0.3,0-0.7,0.1-1,0.2s-0.6,0.3-1,0.4l-0.5-0.9c0.4-0.2,0.8-0.4,1.2-0.6
	c0.5-0.2,1-0.2,1.5-0.2c0.8,0,1.4,0.2,1.9,0.7c0.4,0.4,0.7,1.1,0.7,1.9v3.5H97l-0.1-0.7l0,0c-0.3,0.2-0.7,0.4-1,0.6
	C95.3,94.6,94.9,94.6,94.5,94.6z M94.9,93.6c0.3,0,0.6-0.1,0.9-0.2s0.6-0.3,0.8-0.5v-1.2c-0.5,0-1,0.1-1.3,0.2s-0.6,0.1-0.8,0.2
	c-0.2,0.1-0.4,0.2-0.5,0.4c-0.1,0.1-0.1,0.3-0.1,0.4c0,0.3,0.1,0.5,0.3,0.6C94.4,93.5,94.6,93.6,94.9,93.6z M101.6,94.5v-4.8H100v-1
	l1.6-0.1v-0.3c0-0.3,0-0.7,0.1-1s0.3-0.6,0.5-0.8c0.2-0.2,0.5-0.4,0.8-0.5s0.7-0.2,1.1-0.2c0.3,0,0.6,0,0.9,0.1s0.6,0.1,0.8,0.2
	l-0.3,1c-0.2-0.1-0.4-0.2-0.6-0.2s-0.4-0.1-0.7-0.1c-0.5,0-0.8,0.1-1,0.3c-0.2,0.2-0.3,0.5-0.3,1v0.3h2.2v1.1h-2.2v4.8h-1.3V94.5z
	 M110.1,94.6c-0.4,0-0.9-0.1-1.3-0.2s-0.7-0.3-1-0.6c-0.3-0.3-0.5-0.6-0.7-1s-0.2-0.8-0.2-1.3s0.1-0.9,0.2-1.3
	c0.2-0.4,0.4-0.7,0.7-1c0.3-0.3,0.6-0.5,1-0.6s0.7-0.2,1.1-0.2s0.8,0.1,1.2,0.2c0.3,0.1,0.6,0.3,0.9,0.6c0.2,0.2,0.4,0.5,0.5,0.9
	c0.1,0.3,0.2,0.7,0.2,1.1c0,0.1,0,0.3,0,0.4s0,0.2,0,0.3h-4.3c0.1,0.6,0.3,1,0.7,1.2c0.4,0.3,0.8,0.4,1.4,0.4c0.3,0,0.6,0,0.9-0.1
	s0.5-0.2,0.8-0.4l0.5,0.9c-0.3,0.2-0.7,0.4-1.1,0.5C110.9,94.6,110.5,94.6,110.1,94.6z M109.9,89.5c-0.4,0-0.8,0.1-1.1,0.4
	c-0.3,0.2-0.5,0.6-0.6,1.1h3.1c-0.1-0.5-0.2-0.8-0.5-1.1C110.7,89.7,110.3,89.5,109.9,89.5z M121.5,94.5v-7.8h2.4
	c0.4,0,0.8,0,1.1,0.1c0.3,0.1,0.6,0.2,0.9,0.3c0.2,0.1,0.4,0.3,0.6,0.6c0.1,0.2,0.2,0.6,0.2,0.9c0,0.4-0.1,0.7-0.3,1s-0.6,0.5-1,0.7
	v0.1c0.6,0.1,1,0.3,1.3,0.6c0.3,0.3,0.5,0.7,0.5,1.3c0,0.4-0.1,0.7-0.2,1s-0.4,0.5-0.6,0.7c-0.3,0.2-0.6,0.3-1,0.4s-0.8,0.1-1.2,0.1
	C124.2,94.5,121.5,94.5,121.5,94.5z M122.9,89.9h0.9c0.6,0,0.9-0.1,1.2-0.3c0.2-0.2,0.4-0.5,0.4-0.8c0-0.4-0.1-0.6-0.4-0.8
	c-0.2-0.2-0.6-0.2-1.1-0.2h-1V89.9z M122.9,93.4h1.1c0.6,0,1-0.1,1.3-0.3c0.3-0.2,0.5-0.5,0.5-1c0-0.4-0.1-0.7-0.4-0.9
	c-0.3-0.2-0.7-0.3-1.3-0.3H123v2.5H122.9z M130.5,94.6c-0.3,0-0.5,0-0.8-0.1c-0.2-0.1-0.4-0.2-0.6-0.3c-0.2-0.2-0.3-0.3-0.4-0.5
	s-0.1-0.5-0.1-0.7c0-0.3,0.1-0.6,0.2-0.9c0.2-0.2,0.4-0.5,0.7-0.6c0.3-0.2,0.8-0.3,1.3-0.4s1.1-0.2,1.9-0.2c0-0.3-0.1-0.6-0.4-0.8
	s-0.6-0.3-1-0.3c-0.3,0-0.7,0.1-1,0.2s-0.6,0.3-1,0.4l-0.5-0.9c0.4-0.2,0.8-0.4,1.2-0.6c0.5-0.2,1-0.2,1.5-0.2
	c0.8,0,1.4,0.2,1.9,0.7c0.4,0.4,0.7,1.1,0.7,1.9v3.5H133l-0.1-0.7l0,0c-0.3,0.2-0.7,0.4-1,0.6C131.3,94.6,130.9,94.6,130.5,94.6z
	 M130.9,93.6c0.3,0,0.6-0.1,0.9-0.2s0.6-0.3,0.8-0.5v-1.2c-0.5,0-1,0.1-1.3,0.2s-0.6,0.1-0.8,0.2c-0.2,0.1-0.4,0.2-0.5,0.4
	c-0.1,0.1-0.1,0.3-0.1,0.4c0,0.3,0.1,0.5,0.3,0.6C130.4,93.5,130.6,93.6,130.9,93.6z M136.5,94.5v-5.9h1.1l0.1,1.3l0,0
	c0.3-0.5,0.7-0.8,1.1-1.1s0.9-0.4,1.4-0.4c0.2,0,0.4,0,0.6,0.1c0.2,0,0.4,0.1,0.5,0.2l-0.3,1.2c-0.2-0.1-0.4-0.1-0.5-0.1
	s-0.3,0-0.6,0c-0.4,0-0.8,0.1-1.2,0.4c-0.4,0.2-0.7,0.6-1,1.2v3.2L136.5,94.5L136.5,94.5z M145.7,94.5v-4.8h-2.5v-1.1h3.9v5.9H145.7
	z M146.7,87.5c-0.3,0-0.5-0.1-0.7-0.2c-0.2-0.2-0.3-0.4-0.3-0.7s0.1-0.5,0.3-0.7c0.2-0.2,0.4-0.3,0.7-0.3c0.3,0,0.5,0.1,0.7,0.3
	c0.2,0.2,0.3,0.4,0.3,0.7s-0.1,0.5-0.3,0.7S147,87.5,146.7,87.5z M152.9,94.6c-0.6,0-1.1-0.1-1.6-0.3c-0.5-0.2-0.9-0.4-1.3-0.6
	l0.6-0.9c0.4,0.2,0.7,0.4,1.1,0.5s0.8,0.2,1.3,0.2c0.4,0,0.7-0.1,0.9-0.2c0.2-0.1,0.3-0.3,0.3-0.5c0-0.1,0-0.2-0.1-0.2
	c0-0.1-0.1-0.2-0.2-0.2c-0.1-0.1-0.3-0.1-0.5-0.2s-0.5-0.1-0.8-0.2c-0.8-0.2-1.4-0.4-1.7-0.7c-0.4-0.3-0.5-0.7-0.5-1.1
	c0-0.5,0.2-0.9,0.7-1.3c0.4-0.3,1.1-0.5,1.9-0.5c0.5,0,0.9,0.1,1.4,0.2c0.4,0.2,0.8,0.3,1.1,0.5l-0.6,0.8c-0.3-0.2-0.6-0.3-0.9-0.4
	s-0.7-0.2-1-0.2c-0.4,0-0.7,0.1-0.8,0.2c-0.2,0.1-0.2,0.3-0.2,0.5s0.1,0.4,0.4,0.5c0.2,0.1,0.6,0.2,1.2,0.3c0.5,0.1,0.9,0.2,1.2,0.3
	c0.3,0.1,0.5,0.2,0.7,0.4c0.2,0.1,0.3,0.3,0.4,0.5s0.1,0.4,0.1,0.6c0,0.3-0.1,0.5-0.2,0.7s-0.3,0.4-0.5,0.6s-0.5,0.3-0.9,0.4
	S153.4,94.6,152.9,94.6z M161.2,94.6c-0.4,0-0.8-0.1-1.1-0.2c-0.3-0.1-0.5-0.3-0.7-0.5s-0.3-0.5-0.4-0.8s-0.1-0.7-0.1-1v-2.4h-1.6
	v-1l1.6-0.1l0.2-1.8h1.1v1.8h2.7v1.1h-2.7v2.4c0,0.5,0.1,0.8,0.3,1.1c0.2,0.2,0.6,0.3,1.1,0.3c0.2,0,0.5,0,0.7-0.1s0.4-0.1,0.6-0.2
	l0.3,1c-0.3,0.1-0.5,0.2-0.9,0.2C161.9,94.6,161.6,94.6,161.2,94.6z M166.5,94.6c-0.3,0-0.5,0-0.8-0.1c-0.2-0.1-0.4-0.2-0.6-0.3
	c-0.2-0.2-0.3-0.3-0.4-0.5s-0.1-0.5-0.1-0.7c0-0.3,0.1-0.6,0.2-0.9c0.2-0.2,0.4-0.5,0.7-0.6c0.3-0.2,0.8-0.3,1.3-0.4
	s1.1-0.2,1.9-0.2c0-0.3-0.1-0.6-0.4-0.8c-0.2-0.2-0.6-0.3-1-0.3c-0.3,0-0.7,0.1-1,0.2s-0.6,0.3-1,0.4l-0.5-0.9
	c0.4-0.2,0.8-0.4,1.2-0.6c0.5-0.2,1-0.2,1.5-0.2c0.8,0,1.4,0.2,1.9,0.7c0.4,0.4,0.7,1.1,0.7,1.9v3.5H169l-0.1-0.7l0,0
	c-0.3,0.2-0.7,0.4-1,0.6C167.3,94.6,166.9,94.6,166.5,94.6z M166.9,93.6c0.3,0,0.6-0.1,0.9-0.2s0.6-0.3,0.8-0.5v-1.2
	c-0.5,0-1,0.1-1.3,0.2s-0.6,0.1-0.8,0.2c-0.2,0.1-0.4,0.2-0.5,0.4c-0.1,0.1-0.1,0.3-0.1,0.4c0,0.3,0.1,0.5,0.3,0.6
	C166.4,93.5,166.6,93.6,166.9,93.6z"/>
<path d="M85.5,123.5v-7.8h2.4c0.4,0,0.8,0,1.1,0.1c0.3,0.1,0.6,0.2,0.9,0.3c0.2,0.1,0.4,0.3,0.6,0.6c0.1,0.2,0.2,0.6,0.2,0.9
	c0,0.4-0.1,0.7-0.3,1s-0.6,0.5-1,0.7v0.1c0.6,0.1,1,0.3,1.3,0.6s0.5,0.7,0.5,1.3c0,0.4-0.1,0.7-0.2,1s-0.4,0.5-0.6,0.7
	c-0.3,0.2-0.6,0.3-1,0.4s-0.8,0.1-1.2,0.1L85.5,123.5L85.5,123.5z M86.9,118.9h0.9c0.6,0,0.9-0.1,1.2-0.3c0.2-0.2,0.4-0.5,0.4-0.8
	c0-0.4-0.1-0.6-0.4-0.8c-0.2-0.2-0.6-0.2-1.1-0.2h-1V118.9z M86.9,122.4H88c0.6,0,1-0.1,1.3-0.3s0.5-0.5,0.5-1
	c0-0.4-0.1-0.7-0.4-0.9s-0.7-0.3-1.3-0.3H87v2.5H86.9z M94.5,123.6c-0.7,0-1.2-0.2-1.5-0.6c-0.3-0.4-0.5-1-0.5-1.8v-3.6h1.4v3.5
	c0,0.5,0.1,0.8,0.2,1c0.2,0.2,0.5,0.3,0.9,0.3c0.3,0,0.5-0.1,0.8-0.2s0.5-0.4,0.7-0.7v-4h1.4v5.9h-1.2l-0.1-0.9l0,0
	c-0.3,0.3-0.6,0.6-0.9,0.8C95.3,123.6,95,123.6,94.5,123.6z M102.5,123.6c-0.6,0-1.1-0.1-1.6-0.3s-0.9-0.4-1.3-0.6l0.6-0.9
	c0.4,0.2,0.7,0.4,1.1,0.5s0.8,0.2,1.3,0.2c0.4,0,0.7-0.1,0.9-0.2c0.2-0.1,0.3-0.3,0.3-0.5c0-0.1,0-0.2-0.1-0.2
	c0-0.1-0.1-0.2-0.2-0.2c-0.1-0.1-0.3-0.1-0.5-0.2c-0.2-0.1-0.5-0.1-0.8-0.2c-0.8-0.2-1.4-0.4-1.7-0.7c-0.4-0.3-0.5-0.7-0.5-1.1
	c0-0.5,0.2-0.9,0.7-1.3c0.4-0.3,1.1-0.5,1.9-0.5c0.5,0,0.9,0.1,1.4,0.2c0.4,0.2,0.8,0.3,1.1,0.5l-0.6,0.8c-0.3-0.2-0.6-0.3-0.9-0.4
	s-0.7-0.2-1-0.2c-0.4,0-0.7,0.1-0.8,0.2c-0.2,0.1-0.2,0.3-0.2,0.5c0,0.2,0.1,0.4,0.4,0.5c0.2,0.1,0.6,0.2,1.2,0.3
	c0.5,0.1,0.9,0.2,1.2,0.3c0.3,0.1,0.5,0.2,0.7,0.4c0.2,0.1,0.3,0.3,0.4,0.5s0.1,0.4,0.1,0.6c0,0.3-0.1,0.5-0.2,0.7s-0.3,0.4-0.5,0.6
	c-0.2,0.2-0.5,0.3-0.9,0.4S103,123.6,102.5,123.6z M109.7,123.6c-0.6,0-1.1-0.1-1.6-0.3s-0.9-0.4-1.3-0.6l0.6-0.9
	c0.4,0.2,0.7,0.4,1.1,0.5s0.8,0.2,1.3,0.2c0.4,0,0.7-0.1,0.9-0.2c0.2-0.1,0.3-0.3,0.3-0.5c0-0.1,0-0.2-0.1-0.2
	c0-0.1-0.1-0.2-0.2-0.2c-0.1-0.1-0.3-0.1-0.5-0.2c-0.2-0.1-0.5-0.1-0.8-0.2c-0.8-0.2-1.4-0.4-1.7-0.7c-0.4-0.3-0.5-0.7-0.5-1.1
	c0-0.5,0.2-0.9,0.7-1.3c0.4-0.3,1.1-0.5,1.9-0.5c0.5,0,0.9,0.1,1.4,0.2c0.4,0.2,0.8,0.3,1.1,0.5l-0.6,0.8c-0.3-0.2-0.6-0.3-0.9-0.4
	s-0.7-0.2-1-0.2c-0.4,0-0.7,0.1-0.8,0.2c-0.2,0.1-0.2,0.3-0.2,0.5c0,0.2,0.1,0.4,0.4,0.5c0.2,0.1,0.6,0.2,1.2,0.3
	c0.5,0.1,0.9,0.2,1.2,0.3c0.3,0.1,0.5,0.2,0.7,0.4c0.2,0.1,0.3,0.3,0.4,0.5s0.1,0.4,0.1,0.6c0,0.3-0.1,0.5-0.2,0.7s-0.3,0.4-0.5,0.6
	c-0.2,0.2-0.5,0.3-0.9,0.4C110.6,123.6,110.2,123.6,109.7,123.6z M116.9,123.5v-4.8h-2.5v-1.1h3.9v5.9H116.9z M117.9,116.5
	c-0.3,0-0.5-0.1-0.7-0.2c-0.2-0.2-0.3-0.4-0.3-0.7c0-0.3,0.1-0.5,0.3-0.7c0.2-0.2,0.4-0.3,0.7-0.3c0.3,0,0.5,0.1,0.7,0.3
	c0.2,0.2,0.3,0.4,0.3,0.7c0,0.3-0.1,0.5-0.3,0.7C118.4,116.5,118.2,116.5,117.9,116.5z M121.5,123.5v-5.9h1.1l0.1,0.9l0,0
	c0.3-0.3,0.6-0.5,0.9-0.7s0.7-0.3,1.2-0.3c0.7,0,1.2,0.2,1.5,0.6s0.5,1,0.5,1.8v3.6h-1.4V120c0-0.5-0.1-0.8-0.2-1
	c-0.2-0.2-0.4-0.3-0.8-0.3c-0.3,0-0.6,0.1-0.8,0.2c-0.2,0.1-0.5,0.3-0.7,0.6v4H121.5z M131.7,123.6c-0.4,0-0.9-0.1-1.3-0.2
	c-0.4-0.1-0.7-0.3-1-0.6s-0.5-0.6-0.7-1s-0.2-0.8-0.2-1.3s0.1-0.9,0.2-1.3c0.2-0.4,0.4-0.7,0.7-1c0.3-0.3,0.6-0.5,1-0.6
	s0.7-0.2,1.1-0.2s0.8,0.1,1.2,0.2c0.3,0.1,0.6,0.3,0.9,0.6c0.2,0.2,0.4,0.5,0.5,0.9c0.1,0.3,0.2,0.7,0.2,1.1c0,0.1,0,0.3,0,0.4
	c0,0.1,0,0.2,0,0.3H130c0.1,0.6,0.3,1,0.7,1.2c0.4,0.3,0.8,0.4,1.4,0.4c0.3,0,0.6,0,0.9-0.1s0.5-0.2,0.8-0.4l0.5,0.9
	c-0.3,0.2-0.7,0.4-1.1,0.5C132.5,123.6,132.1,123.6,131.7,123.6z M131.5,118.5c-0.4,0-0.8,0.1-1.1,0.4c-0.3,0.2-0.5,0.6-0.6,1.1h3.1
	c-0.1-0.5-0.2-0.8-0.5-1.1C132.3,118.7,131.9,118.5,131.5,118.5z M138.5,123.6c-0.6,0-1.1-0.1-1.6-0.3s-0.9-0.4-1.3-0.6l0.6-0.9
	c0.4,0.2,0.7,0.4,1.1,0.5s0.8,0.2,1.3,0.2c0.4,0,0.7-0.1,0.9-0.2s0.3-0.3,0.3-0.5c0-0.1,0-0.2-0.1-0.2c0-0.1-0.1-0.2-0.2-0.2
	c-0.1-0.1-0.3-0.1-0.5-0.2s-0.5-0.1-0.8-0.2c-0.8-0.2-1.4-0.4-1.7-0.7c-0.4-0.3-0.5-0.7-0.5-1.1c0-0.5,0.2-0.9,0.7-1.3
	c0.4-0.3,1.1-0.5,1.9-0.5c0.5,0,0.9,0.1,1.4,0.2s0.8,0.3,1.1,0.5l-0.6,0.8c-0.3-0.2-0.6-0.3-0.9-0.4s-0.7-0.2-1-0.2
	c-0.4,0-0.7,0.1-0.8,0.2c-0.2,0.1-0.2,0.3-0.2,0.5c0,0.2,0.1,0.4,0.4,0.5s0.6,0.2,1.2,0.3c0.5,0.1,0.9,0.2,1.2,0.3
	c0.3,0.1,0.5,0.2,0.7,0.4c0.2,0.1,0.3,0.3,0.4,0.5s0.1,0.4,0.1,0.6c0,0.3-0.1,0.5-0.2,0.7s-0.3,0.4-0.5,0.6s-0.5,0.3-0.9,0.4
	S139,123.6,138.5,123.6z M145.7,123.6c-0.6,0-1.1-0.1-1.6-0.3s-0.9-0.4-1.3-0.6l0.6-0.9c0.4,0.2,0.7,0.4,1.1,0.5s0.8,0.2,1.3,0.2
	c0.4,0,0.7-0.1,0.9-0.2s0.3-0.3,0.3-0.5c0-0.1,0-0.2-0.1-0.2c0-0.1-0.1-0.2-0.2-0.2c-0.1-0.1-0.3-0.1-0.5-0.2s-0.5-0.1-0.8-0.2
	c-0.8-0.2-1.4-0.4-1.7-0.7c-0.4-0.3-0.5-0.7-0.5-1.1c0-0.5,0.2-0.9,0.7-1.3c0.4-0.3,1.1-0.5,1.9-0.5c0.5,0,0.9,0.1,1.4,0.2
	s0.8,0.3,1.1,0.5l-0.6,0.8c-0.3-0.2-0.6-0.3-0.9-0.4s-0.7-0.2-1-0.2c-0.4,0-0.7,0.1-0.8,0.2c-0.2,0.1-0.2,0.3-0.2,0.5
	c0,0.2,0.1,0.4,0.4,0.5s0.6,0.2,1.2,0.3c0.5,0.1,0.9,0.2,1.2,0.3c0.3,0.1,0.5,0.2,0.7,0.4c0.2,0.1,0.3,0.3,0.4,0.5s0.1,0.4,0.1,0.6
	c0,0.3-0.1,0.5-0.2,0.7s-0.3,0.4-0.5,0.6s-0.5,0.3-0.9,0.4S146.2,123.6,145.7,123.6z M151.9,126.1l-0.4-0.8c1-0.4,1.5-1,1.5-1.8
	c0,0-0.1,0-0.2,0c-0.3,0-0.6-0.1-0.8-0.3c-0.2-0.2-0.3-0.5-0.3-0.8s0.1-0.6,0.3-0.8c0.2-0.2,0.5-0.3,0.8-0.3c0.4,0,0.8,0.2,1,0.5
	s0.3,0.8,0.3,1.3c0,0.7-0.2,1.4-0.6,1.9C153.2,125.5,152.7,125.8,151.9,126.1z M157.5,123.5v-7.8h2.4c0.4,0,0.8,0,1.1,0.1
	c0.3,0.1,0.6,0.2,0.9,0.3c0.2,0.1,0.4,0.3,0.6,0.6c0.1,0.2,0.2,0.6,0.2,0.9c0,0.4-0.1,0.7-0.3,1s-0.6,0.5-1,0.7v0.1
	c0.6,0.1,1,0.3,1.3,0.6s0.5,0.7,0.5,1.3c0,0.4-0.1,0.7-0.2,1s-0.4,0.5-0.6,0.7c-0.3,0.2-0.6,0.3-1,0.4c-0.4,0.1-0.8,0.1-1.2,0.1
	L157.5,123.5L157.5,123.5z M158.9,118.9h0.9c0.6,0,0.9-0.1,1.2-0.3c0.2-0.2,0.4-0.5,0.4-0.8c0-0.4-0.1-0.6-0.4-0.8
	c-0.2-0.2-0.6-0.2-1.1-0.2h-1V118.9z M158.9,122.4h1.1c0.6,0,1-0.1,1.3-0.3s0.5-0.5,0.5-1c0-0.4-0.1-0.7-0.4-0.9s-0.7-0.3-1.3-0.3
	H159v2.5H158.9z M166.5,123.6c-0.3,0-0.5,0-0.8-0.1c-0.2-0.1-0.4-0.2-0.6-0.3c-0.2-0.2-0.3-0.3-0.4-0.5s-0.1-0.5-0.1-0.7
	c0-0.3,0.1-0.6,0.2-0.9c0.2-0.2,0.4-0.5,0.7-0.6c0.3-0.2,0.8-0.3,1.3-0.4c0.5-0.1,1.1-0.2,1.9-0.2c0-0.3-0.1-0.6-0.4-0.8
	c-0.2-0.2-0.6-0.3-1-0.3c-0.3,0-0.7,0.1-1,0.2s-0.6,0.3-1,0.4l-0.5-0.9c0.4-0.2,0.8-0.4,1.2-0.6c0.5-0.2,1-0.2,1.5-0.2
	c0.8,0,1.4,0.2,1.9,0.7c0.4,0.4,0.7,1.1,0.7,1.9v3.5H169l-0.1-0.7l0,0c-0.3,0.2-0.7,0.4-1,0.6C167.3,123.6,166.9,123.6,166.5,123.6z
	 M166.9,122.6c0.3,0,0.6-0.1,0.9-0.2c0.3-0.1,0.6-0.3,0.8-0.5v-1.2c-0.5,0-1,0.1-1.3,0.2c-0.3,0.1-0.6,0.1-0.8,0.2
	c-0.2,0.1-0.4,0.2-0.5,0.4c-0.1,0.1-0.1,0.3-0.1,0.4c0,0.3,0.1,0.5,0.3,0.6C166.4,122.5,166.6,122.6,166.9,122.6z M172.5,123.5v-5.9
	h1.1l0.1,1.3l0,0c0.3-0.5,0.7-0.8,1.1-1.1c0.4-0.2,0.9-0.4,1.4-0.4c0.2,0,0.4,0,0.6,0.1c0.2,0,0.4,0.1,0.5,0.2l-0.3,1.2
	c-0.2-0.1-0.4-0.1-0.5-0.1s-0.3,0-0.6,0c-0.4,0-0.8,0.1-1.2,0.4c-0.4,0.2-0.7,0.6-1,1.2v3.2L172.5,123.5L172.5,123.5z M182.2,123.6
	c-0.5,0-0.9-0.1-1.3-0.2c-0.4-0.1-0.7-0.3-1-0.6s-0.5-0.6-0.7-1s-0.2-0.8-0.2-1.3s0.1-0.9,0.3-1.3c0.2-0.4,0.4-0.7,0.7-1
	c0.3-0.3,0.7-0.5,1.1-0.6s0.8-0.2,1.3-0.2s0.9,0.1,1.3,0.2c0.4,0.2,0.7,0.4,0.9,0.6l-0.7,0.9c-0.2-0.2-0.5-0.3-0.7-0.4
	s-0.5-0.1-0.8-0.1c-0.6,0-1.1,0.2-1.5,0.5c-0.4,0.4-0.5,0.8-0.5,1.4c0,0.3,0,0.6,0.1,0.8s0.2,0.4,0.4,0.6c0.2,0.2,0.4,0.3,0.6,0.4
	c0.2,0.1,0.5,0.1,0.8,0.1s0.6-0.1,0.9-0.2c0.3-0.1,0.5-0.3,0.8-0.5l0.6,0.9c-0.3,0.3-0.7,0.5-1.1,0.7
	C183.1,123.6,182.7,123.6,182.2,123.6z M186.3,123.5V115h1.4v2.2l-0.1,1.2l0,0c0.3-0.3,0.6-0.5,0.9-0.7s0.7-0.3,1.2-0.3
	c0.7,0,1.2,0.2,1.5,0.6s0.5,1,0.5,1.8v3.6h-1.4v-3.5c0-0.5-0.1-0.8-0.2-1c-0.2-0.2-0.4-0.3-0.8-0.3c-0.3,0-0.6,0.1-0.8,0.2
	c-0.2,0.1-0.5,0.3-0.7,0.6v4h-1.5V123.5z M196.5,123.6c-0.4,0-0.9-0.1-1.3-0.2c-0.4-0.1-0.7-0.3-1-0.6s-0.5-0.6-0.7-1
	s-0.2-0.8-0.2-1.3s0.1-0.9,0.2-1.3c0.2-0.4,0.4-0.7,0.7-1c0.3-0.3,0.6-0.5,1-0.6s0.7-0.2,1.1-0.2s0.8,0.1,1.2,0.2
	c0.3,0.1,0.6,0.3,0.9,0.6s0.4,0.5,0.5,0.9c0.1,0.3,0.2,0.7,0.2,1.1c0,0.1,0,0.3,0,0.4s0,0.2,0,0.3h-4.3c0.1,0.6,0.3,1,0.7,1.2
	c0.4,0.3,0.8,0.4,1.4,0.4c0.3,0,0.6,0,0.9-0.1s0.5-0.2,0.8-0.4l0.5,0.9c-0.3,0.2-0.7,0.4-1.1,0.5S196.9,123.6,196.5,123.6z
	 M196.3,118.5c-0.4,0-0.8,0.1-1.1,0.4c-0.3,0.2-0.5,0.6-0.6,1.1h3.1c-0.1-0.5-0.2-0.8-0.5-1.1C197.1,118.7,196.7,118.5,196.3,118.5z
	 M204.5,123.6c-0.7,0-1.2-0.2-1.6-0.6c-0.4-0.4-0.5-1-0.5-1.7v-5.2h-2V115h3.3v6.4c0,0.4,0.1,0.7,0.3,0.9c0.2,0.2,0.5,0.2,0.8,0.2
	s0.7-0.1,1-0.2l0.3,1c-0.3,0.1-0.6,0.2-0.8,0.2C205.1,123.6,204.9,123.6,204.5,123.6z M210.5,123.6c-0.4,0-0.7-0.1-1.1-0.2
	c-0.4-0.1-0.7-0.3-1-0.6s-0.5-0.6-0.7-1s-0.2-0.8-0.2-1.3s0.1-0.9,0.2-1.3c0.2-0.4,0.4-0.7,0.7-1c0.3-0.3,0.6-0.5,1-0.6
	s0.7-0.2,1.1-0.2s0.8,0.1,1.1,0.2c0.4,0.1,0.7,0.3,1,0.6c0.3,0.3,0.5,0.6,0.7,1c0.2,0.4,0.2,0.8,0.2,1.3s-0.1,0.9-0.2,1.3
	c-0.2,0.4-0.4,0.7-0.7,1c-0.3,0.3-0.6,0.5-1,0.6C211.3,123.6,210.9,123.6,210.5,123.6z M210.5,122.5c0.5,0,0.9-0.2,1.1-0.5
	c0.3-0.4,0.4-0.8,0.4-1.4c0-0.6-0.1-1.1-0.4-1.4c-0.3-0.4-0.6-0.5-1.1-0.5s-0.9,0.2-1.1,0.5c-0.3,0.4-0.4,0.8-0.4,1.4
	c0,0.6,0.1,1.1,0.4,1.4C209.6,122.3,210,122.5,210.5,122.5z M215.7,123.5v-5.9h1.1l0.1,1.3l0,0c0.3-0.5,0.7-0.8,1.1-1.1
	c0.4-0.2,0.9-0.4,1.4-0.4c0.2,0,0.4,0,0.6,0.1c0.2,0,0.4,0.1,0.5,0.2l-0.3,1.2c-0.2-0.1-0.4-0.1-0.5-0.1s-0.3,0-0.6,0
	c-0.4,0-0.8,0.1-1.2,0.4c-0.4,0.2-0.7,0.6-1,1.2v3.2L215.7,123.5L215.7,123.5z"/>
<path d="M88.1,152.6c-0.6,0-1.1-0.1-1.6-0.3c-0.5-0.2-0.9-0.5-1.3-0.9l0.8-0.9c0.3,0.3,0.6,0.5,1,0.6c0.4,0.2,0.8,0.2,1.2,0.2
	c0.5,0,0.8-0.1,1-0.3c0.2-0.2,0.4-0.4,0.4-0.7c0-0.2,0-0.3-0.1-0.4c-0.1-0.1-0.2-0.2-0.3-0.3c-0.1-0.1-0.3-0.2-0.4-0.2
	c-0.2-0.1-0.3-0.2-0.5-0.2l-1.1-0.5c-0.2-0.1-0.4-0.2-0.6-0.3s-0.4-0.3-0.5-0.4c-0.2-0.2-0.3-0.4-0.4-0.6s-0.1-0.5-0.1-0.8
	c0-0.3,0.1-0.6,0.2-0.9s0.3-0.5,0.6-0.7c0.2-0.2,0.5-0.3,0.9-0.5c0.3-0.1,0.7-0.2,1.1-0.2c0.5,0,0.9,0.1,1.4,0.3
	c0.4,0.2,0.8,0.4,1.1,0.7l-0.7,0.9c-0.3-0.2-0.5-0.4-0.8-0.5s-0.6-0.2-1-0.2s-0.7,0.1-0.9,0.2c-0.2,0.2-0.3,0.4-0.3,0.7
	c0,0.2,0,0.3,0.1,0.4s0.2,0.2,0.3,0.3c0.1,0.1,0.3,0.2,0.4,0.2s0.3,0.1,0.5,0.2l1,0.4c0.2,0.1,0.5,0.2,0.7,0.3s0.4,0.3,0.5,0.4
	c0.2,0.2,0.3,0.4,0.4,0.6c0.1,0.2,0.1,0.5,0.1,0.8c0,0.3-0.1,0.6-0.2,0.9s-0.3,0.5-0.6,0.7c-0.2,0.2-0.5,0.4-0.9,0.5
	C89,152.6,88.6,152.6,88.1,152.6z M95.3,152.5v-4.8h-2.6v-1.1h3.9v5.9L95.3,152.5L95.3,152.5z M96.3,145.5c-0.3,0-0.5-0.1-0.7-0.2
	c-0.2-0.2-0.3-0.4-0.3-0.7c0-0.3,0.1-0.5,0.3-0.7c0.2-0.2,0.4-0.3,0.7-0.3c0.3,0,0.5,0.1,0.7,0.3c0.2,0.2,0.3,0.4,0.3,0.7
	c0,0.3-0.1,0.5-0.3,0.7C96.8,145.5,96.6,145.5,96.3,145.5z M99.9,152.5v-5.9h1.1l0.1,0.9l0,0c0.3-0.3,0.6-0.5,0.9-0.7
	c0.3-0.2,0.7-0.3,1.2-0.3c0.7,0,1.2,0.2,1.5,0.6c0.3,0.4,0.5,1,0.5,1.8v3.6h-1.4V149c0-0.5-0.1-0.8-0.2-1c-0.2-0.2-0.4-0.3-0.8-0.3
	c-0.3,0-0.6,0.1-0.8,0.2c-0.2,0.1-0.5,0.3-0.7,0.6v4H99.9L99.9,152.5z M109.5,155.1c-0.4,0-0.8,0-1.1-0.1c-0.3-0.1-0.6-0.2-0.8-0.3
	c-0.2-0.1-0.4-0.3-0.5-0.5c-0.1-0.2-0.2-0.4-0.2-0.7c0-0.5,0.3-0.9,0.9-1.2l0,0c-0.2-0.1-0.3-0.2-0.4-0.4c-0.1-0.2-0.2-0.4-0.2-0.6
	c0-0.2,0.1-0.4,0.2-0.6c0.1-0.2,0.3-0.4,0.5-0.5l0,0c-0.2-0.1-0.4-0.3-0.5-0.6c-0.1-0.3-0.2-0.6-0.2-0.9s0.1-0.6,0.2-0.9
	s0.3-0.5,0.5-0.7c0.2-0.2,0.5-0.3,0.8-0.4c0.3-0.1,0.6-0.1,0.9-0.1s0.6,0,0.9,0.1h2.4v1h-1.4c0.1,0.1,0.2,0.3,0.3,0.4
	c0.1,0.2,0.1,0.3,0.1,0.5c0,0.3-0.1,0.6-0.2,0.9c-0.1,0.2-0.3,0.5-0.5,0.6c-0.2,0.2-0.5,0.3-0.8,0.4s-0.6,0.1-0.9,0.1
	s-0.6-0.1-0.9-0.2c-0.2,0.1-0.4,0.3-0.4,0.6c0,0.4,0.4,0.5,1.1,0.5h1.2c0.8,0,1.3,0.1,1.7,0.3c0.4,0.2,0.6,0.6,0.6,1.1
	c0,0.3-0.1,0.6-0.2,0.8c-0.2,0.3-0.4,0.5-0.7,0.7c-0.3,0.2-0.6,0.3-1.1,0.4C110.5,155.1,110.1,155.1,109.5,155.1z M109.6,149.8
	c0.3,0,0.6-0.1,0.8-0.3c0.2-0.2,0.3-0.5,0.3-0.9s-0.1-0.7-0.3-0.9c-0.2-0.2-0.5-0.3-0.8-0.3s-0.6,0.1-0.8,0.3
	c-0.2,0.2-0.3,0.5-0.3,0.9s0.1,0.7,0.3,0.9S109.3,149.8,109.6,149.8z M109.7,154.2c0.3,0,0.6,0,0.8-0.1c0.2-0.1,0.4-0.1,0.6-0.2
	s0.3-0.2,0.4-0.3s0.1-0.2,0.1-0.3c0-0.2-0.1-0.4-0.3-0.5c-0.2-0.1-0.5-0.1-0.9-0.1h-0.9c-0.4,0-0.7,0-0.9-0.1
	c-0.2,0.1-0.4,0.2-0.5,0.4c-0.1,0.1-0.1,0.3-0.1,0.4c0,0.3,0.1,0.5,0.4,0.6C108.7,154.1,109.1,154.2,109.7,154.2z M118.1,152.6
	c-0.7,0-1.2-0.2-1.6-0.6s-0.5-1-0.5-1.7v-5.2h-2V144h3.3v6.4c0,0.4,0.1,0.7,0.3,0.9c0.2,0.2,0.5,0.2,0.8,0.2s0.7-0.1,1-0.2l0.3,1
	c-0.3,0.1-0.6,0.2-0.8,0.2C118.7,152.6,118.5,152.6,118.1,152.6z M124.5,152.6c-0.4,0-0.9-0.1-1.3-0.2s-0.7-0.3-1-0.6
	c-0.3-0.3-0.5-0.6-0.7-1s-0.2-0.8-0.2-1.3s0.1-0.9,0.2-1.3c0.2-0.4,0.4-0.7,0.7-1c0.3-0.3,0.6-0.5,1-0.6s0.7-0.2,1.1-0.2
	s0.8,0.1,1.2,0.2c0.3,0.1,0.6,0.3,0.9,0.6c0.2,0.2,0.4,0.5,0.5,0.9c0.1,0.3,0.2,0.7,0.2,1.1c0,0.1,0,0.3,0,0.4c0,0.1,0,0.2,0,0.3
	h-4.3c0.1,0.6,0.3,1,0.7,1.2c0.4,0.3,0.8,0.4,1.4,0.4c0.3,0,0.6,0,0.9-0.1s0.5-0.2,0.8-0.4l0.5,0.9c-0.3,0.2-0.7,0.4-1.1,0.5
	C125.3,152.6,124.9,152.6,124.5,152.6z M124.3,147.5c-0.4,0-0.8,0.1-1.1,0.4c-0.3,0.2-0.5,0.6-0.6,1.1h3.1c-0.1-0.5-0.2-0.8-0.5-1.1
	C125.1,147.7,124.7,147.5,124.3,147.5z"/>
<path class="st3" d="M61.6,118.8C61.6,118.7,61.6,118.7,61.6,118.8c2-1.1,4-2.2,5.9-3.2c0,0,0.1,0,0.1,0c2,1.1,3.9,2.1,5.9,3.2
	c0,0,0.1,0.1,0.1,0.1c0,1.4,0,2.8,0,4.2c0,0.1,0,0.1-0.1,0.1c-0.3,0-0.6,0-0.9,0c-0.1,0-0.1,0-0.1-0.1c0-1.2,0-2.4,0-3.6
	c0,0,0-0.1,0-0.1c0,0-0.1,0-0.1,0c-1.6,0.9-3.2,1.7-4.8,2.6c-0.1,0-0.1,0-0.2,0c-1.9-1.1-3.8-2.1-5.8-3.2
	C61.7,118.8,61.6,118.8,61.6,118.8z"/>
<path class="st3" d="M63.7,121c0.2,0.1,0.3,0.2,0.5,0.3c1.1,0.6,2.2,1.2,3.2,1.8c0.1,0,0.1,0,0.1,0c1.2-0.7,2.4-1.3,3.6-2
	c0,0,0,0,0.1,0c0,0,0,0.1,0,0.1c0,0.7,0,1.3,0,2c0,0.1,0,0.1-0.1,0.1c-1.2,0.7-2.4,1.3-3.7,2c-0.1,0-0.1,0-0.2,0
	c-1.2-0.7-2.4-1.3-3.6-2c-0.1,0-0.1-0.1-0.1-0.1C63.8,122.5,63.7,121.8,63.7,121C63.7,121.1,63.7,121.1,63.7,121z"/>
<path class="st3" d="M62.1,62.2c1.8-1.6,3.6-3.2,5.4-4.9c1.8,1.6,3.6,3.2,5.4,4.9c0,0-0.1,0-0.1,0c-0.5,0-1,0-1.4,0
	c-0.1,0-0.1,0-0.1,0.1c0,1.4,0,2.8,0,4.2c0,0.1,0,0.1-0.1,0.1c-0.8,0-1.7,0-2.5,0c-0.1,0-0.1,0-0.1-0.1c0-1,0-2,0-3.1
	c0-0.1,0-0.1-0.1-0.1c-0.7,0-1.3,0-2,0c-0.1,0-0.1,0-0.1,0.1c0,1,0,2,0,3.1c0,0.1,0,0.1-0.1,0.1c-0.8,0-1.7,0-2.5,0c0,0-0.1,0-0.1,0
	c0,0,0-0.1,0-0.1c0-1.4,0-2.8,0-4.1c0-0.1,0-0.1-0.1-0.1C63.2,62.2,62.7,62.2,62.1,62.2C62.2,62.2,62.2,62.2,62.1,62.2
	C62.1,62.2,62.1,62.2,62.1,62.2z"/>
<path class="st3" d="M73,33.1c0,3-2.5,5.4-5.4,5.4c-3,0-5.4-2.4-5.4-5.4c0-3,2.4-5.4,5.4-5.4C70.6,27.7,73,30.1,73,33.1z M67.7,37.1
	c0.2,0,0.4,0,0.7-0.1c1-0.2,1.8-0.8,2.4-1.6c0,0,0-0.1,0-0.1c0-0.2-0.1-0.3-0.2-0.4c-0.2-0.3-0.5-0.5-0.9-0.7
	c-0.5-0.2-0.9-0.4-1.4-0.4c-0.4-0.1-0.8-0.1-1.3-0.1c-0.5,0.1-1.1,0.2-1.6,0.4c-0.3,0.1-0.6,0.3-0.9,0.5c-0.2,0.2-0.3,0.4-0.4,0.6
	c0,0.1,0,0.1,0,0.2c0.1,0.1,0.2,0.3,0.3,0.4C65.4,36.6,66.4,37,67.7,37.1z M69.2,31c0-0.9-0.7-1.6-1.6-1.6c-0.9,0-1.6,0.7-1.6,1.6
	c0,0.9,0.7,1.6,1.6,1.6C68.5,32.6,69.2,31.9,69.2,31z"/>
<path class="st3" d="M69.4,88.1c0,0,0.1,0,0.1,0c0.7,0,1.3,0,2,0c0.3,0,0.5,0.1,0.7,0.3c0.2,0.2,0.3,0.4,0.3,0.7c0,0.5,0,0.9,0,1.4
	c0,1.5,0,2.9,0,4.4c0,0.3-0.1,0.5-0.3,0.8c-0.2,0.2-0.4,0.3-0.7,0.3c0,0-0.1,0-0.1,0c-2.8,0-5.5,0-8.3,0c-0.3,0-0.6-0.1-0.8-0.3
	c-0.2-0.2-0.3-0.4-0.3-0.7c0-0.2,0-0.3,0-0.5c0-1.8,0-3.5,0-5.3c0-0.4,0.2-0.8,0.6-1c0.1-0.1,0.3-0.1,0.5-0.1c0.6,0,1.3,0,1.9,0
	c0,0,0,0,0.1,0c0.1,0,0.1,0,0.1-0.1c0-0.3,0-0.7,0-1c0-0.5,0.4-1,1-1c0.7,0,1.4,0,2.2,0c0.1,0,0.2,0,0.3,0.1c0.4,0.1,0.7,0.5,0.7,1
	C69.4,87.4,69.4,87.7,69.4,88.1C69.4,88.1,69.4,88.1,69.4,88.1z M66.3,88.1C66.3,88.1,66.3,88.1,66.3,88.1c0.7,0,1.4,0,2,0
	c0.1,0,0.1,0,0.1-0.1c0-0.3,0-0.6,0-0.9c0-0.1,0-0.1-0.1-0.1c-0.7,0-1.3,0-2,0c0,0,0,0-0.1,0C66.3,87.4,66.3,87.8,66.3,88.1z"/>
<path class="st3" d="M66.3,88.1c0-0.4,0-0.7,0-1.1c0,0,0.1,0,0.1,0c0.7,0,1.3,0,2,0c0.1,0,0.1,0,0.1,0.1c0,0.3,0,0.6,0,0.9
	c0,0,0,0.1-0.1,0.1C67.6,88.1,67,88.1,66.3,88.1C66.3,88.1,66.3,88.1,66.3,88.1z"/>
<path class="st3" d="M67.5,154.3c-0.2-0.2-0.3-0.3-0.5-0.4c-0.7-0.6-1.3-1.2-2-1.8c-0.6-0.6-1.2-1.1-1.7-1.8c-0.4-0.5-0.8-1-1.1-1.7
	c-0.2-0.5-0.4-1.1-0.4-1.7c0.1-1.2,0.6-2.1,1.6-2.6c0.8-0.4,1.7-0.5,2.6-0.2c0.5,0.2,1,0.5,1.4,0.9c0,0,0,0,0,0.1c0,0,0-0.1,0-0.1
	c0.6-0.7,1.3-1,2.2-1.1c1-0.1,1.8,0.2,2.5,1c0.5,0.6,0.8,1.2,0.8,2c0,0.7-0.2,1.4-0.5,2.1c-0.3,0.5-0.7,1-1.1,1.4
	c-0.4,0.5-0.9,1-1.4,1.4C69.4,152.6,68.5,153.4,67.5,154.3C67.6,154.2,67.6,154.2,67.5,154.3z"/>
</svg>
