<?xml version="1.0" encoding="utf-8"?>
<!-- Generator: Adobe Illustrator 23.0.1, SVG Export Plug-In . SVG Version: 6.00 Build 0)  -->
<svg version="1.1" id="Layer_1" xmlns="http://www.w3.org/2000/svg" xmlns:xlink="http://www.w3.org/1999/xlink" x="0px" y="0px"
	 viewBox="0 0 120 120" style="enable-background:new 0 0 120 120;" xml:space="preserve">
<style type="text/css">
	.st0{fill:none;stroke:#EE2A7B;stroke-miterlimit:10;}
	.st1{fill:none;stroke:#EE2A7B;stroke-miterlimit:10;stroke-dasharray:3,3;}
	.st2{opacity:0.32;fill:#3B0097;enable-background:new    ;}
	.st3{fill:#EE2A7B;}
	.st4{fill:none;}
	.st5{fill:#FFFFFF;}
</style>
<title>problems</title>
<line class="st0" x1="10" y1="0" x2="10" y2="1.5"/>
<line class="st1" x1="10" y1="4.5" x2="10" y2="117"/>
<line class="st0" x1="10" y1="118.5" x2="10" y2="120"/>
<line class="st0" x1="110" y1="0" x2="110" y2="1.5"/>
<line class="st1" x1="110" y1="4.5" x2="110" y2="117"/>
<line class="st0" x1="110" y1="118.5" x2="110" y2="120"/>
<line class="st0" x1="120" y1="10" x2="118.5" y2="10"/>
<line class="st1" x1="115.5" y1="10" x2="3" y2="10"/>
<line class="st0" x1="1.5" y1="10" x2="0" y2="10"/>
<line class="st0" x1="120" y1="110" x2="118.5" y2="110"/>
<line class="st1" x1="115.5" y1="110" x2="3" y2="110"/>
<line class="st0" x1="1.5" y1="110" x2="0" y2="110"/>
<rect id="_.bg" x="15.6" y="15.6" class="st2" width="88.9" height="88.9"/>
<path class="st3" d="M55.3,67.2c-1.3,0-2.4,1.1-2.4,2.4S54,72,55.3,72s2.4-1.1,2.4-2.4S56.6,67.2,55.3,67.2z M48.1,48.1v2.4h2.4
	l4.3,9l-1.6,2.9c-0.2,0.3-0.3,0.7-0.3,1.1c0,1.3,1.1,2.4,2.4,2.4h14.3v-2.4H55.8c-0.2,0-0.3-0.1-0.3-0.3l0-0.1l1.1-1.9h8.9
	c0.9,0,1.7-0.5,2.1-1.2l4.3-7.7c0.1-0.2,0.1-0.4,0.1-0.6c0-0.7-0.5-1.2-1.2-1.2H53.2L52,48.1C52,48.1,48.1,48.1,48.1,48.1z
	 M67.2,67.2c-1.3,0-2.4,1.1-2.4,2.4s1.1,2.4,2.4,2.4c1.3,0,2.4-1.1,2.4-2.4S68.5,67.2,67.2,67.2z"/>
<g>
	<path class="st4" d="M40.9,40.9h38.4v38.4H40.9V40.9z"/>
	<g>
		<rect x="59.2" y="29.9" class="st5" width="1.6" height="7.7"/>
		<rect x="59.2" y="82.5" class="st5" width="1.6" height="7.7"/>
	</g>
	<g>
		<rect x="46.1" y="33.4" transform="matrix(0.866 -0.5 0.5 0.866 -12.3494 28.4397)" class="st5" width="1.6" height="7.7"/>
		<rect x="72.4" y="79" transform="matrix(0.866 -0.5 0.5 0.866 -31.6103 47.7006)" class="st5" width="1.6" height="7.7"/>
	</g>
	<g>
		<rect x="36.5" y="43.1" transform="matrix(0.5 -0.866 0.866 0.5 -21.9798 55.719)" class="st5" width="1.6" height="7.7"/>
		<rect x="82" y="69.4" transform="matrix(0.5 -0.866 0.866 0.5 -21.9798 108.3407)" class="st5" width="1.6" height="7.7"/>
	</g>
	<g>
		
			<rect x="32.9" y="56.2" transform="matrix(4.643048e-11 -1 1 4.643048e-11 -26.3108 93.7892)" class="st5" width="1.6" height="7.7"/>
		
			<rect x="85.5" y="56.2" transform="matrix(4.699003e-11 -1 1 4.699003e-11 26.3108 146.4108)" class="st5" width="1.6" height="7.7"/>
	</g>
	<g>
		<rect x="36.5" y="69.4" transform="matrix(-0.5 -0.866 0.866 -0.5 -7.5015 142.0798)" class="st5" width="1.6" height="7.7"/>
		<rect x="82" y="43.1" transform="matrix(-0.5 -0.866 0.866 -0.5 83.6419 142.0798)" class="st5" width="1.6" height="7.7"/>
	</g>
	<g>
		<rect x="46.1" y="79" transform="matrix(-0.866 -0.5 0.5 -0.866 46.0886 178.0211)" class="st5" width="1.6" height="7.7"/>
		<rect x="72.4" y="33.4" transform="matrix(-0.866 -0.5 0.5 -0.866 117.9711 106.1386)" class="st5" width="1.6" height="7.7"/>
	</g>
</g>
</svg>
