<?xml version="1.0" encoding="utf-8"?>
<!-- Generator: Adobe Illustrator 23.0.1, SVG Export Plug-In . SVG Version: 6.00 Build 0)  -->
<svg version="1.1" id="Layer_1" xmlns="http://www.w3.org/2000/svg" xmlns:xlink="http://www.w3.org/1999/xlink" x="0px" y="0px"
	 viewBox="0 0 24 24" style="enable-background:new 0 0 24 24;" xml:space="preserve">
<style type="text/css">
	.st0{fill:#FFFFFF;}
</style>
<path class="st0" d="M17,4l4,4l-4,4V9h-4V7h4V4z M10,7C9.4,7,9,7.4,9,8s0.4,1,1,1s1-0.4,1-1S10.6,7,10,7z M6,7C5.4,7,5,7.4,5,8
	s0.4,1,1,1s1-0.4,1-1S6.6,7,6,7z M7,17h4v-2H7v-3l-4,4l4,4V17z M14,17c0.6,0,1-0.5,1-1c0-0.6-0.4-1-1-1s-1,0.4-1,1
	C13,16.5,13.4,17,14,17z M18,17c0.5,0,1-0.5,1-1c0-0.6-0.5-1-1-1s-1,0.4-1,1C17,16.5,17.5,17,18,17z"/>
</svg>
