<?xml version="1.0" encoding="utf-8"?>
<!-- Generator: Adobe Illustrator 23.0.1, SVG Export Plug-In . SVG Version: 6.00 Build 0)  -->
<svg version="1.1" id="Layer_1" xmlns="http://www.w3.org/2000/svg" xmlns:xlink="http://www.w3.org/1999/xlink" x="0px" y="0px"
	 viewBox="0 0 120 120" style="enable-background:new 0 0 120 120;" xml:space="preserve">
<style type="text/css">
	.st0{fill:#FFFFFF;}
</style>
<title>user_icon</title>
<path class="st0" d="M59.9,39.8c4.4,0,8-3.6,8-8l0,0c0-1.5-0.3-2.9-1.1-4.1l-6.9-12.1l-6.9,11.9c-0.8,1.3-1.1,2.6-1.1,4.1
	C51.9,36.2,55.5,39.8,59.9,39.8z M78.5,80.1l-4.2-4.2l-4.4,4.2c-5.5,5.2-14.2,5.2-19.7,0l-4.4-4.2l-4.4,4.2c-2.6,2.6-6,4.1-9.8,4.1
	c-2.8,0-5.5-0.8-7.8-2.4v18.6c0,2.3,1.8,4.1,4.1,4.1h64.4c2.3,0,4.1-1.8,4.1-4.1V81.7c-2.3,1.6-5.1,2.4-7.8,2.4
	C84.5,84.1,81.1,82.7,78.5,80.1z M84.1,52H64v-8.2h-8V52H35.8c-6.7,0-12.1,5.4-12.1,12.1l0,0v6.2c0,4.4,3.6,7.8,7.8,7.8
	c2.1,0,4.1-0.8,5.5-2.3l8.6-8.6l8.6,8.6c3.1,2.9,8,2.9,11.1,0l8.6-8.6l8.6,8.6c1.5,1.5,3.4,2.3,5.5,2.3c4.4,0,7.8-3.6,7.8-7.8v-6.2
	c0-6.7-5.2-12.1-11.9-12.1C84.2,52,84.2,52,84.1,52z"/>
</svg>
