<?xml version="1.0" encoding="utf-8"?>
<!-- Generator: Adobe Illustrator 23.0.1, SVG Export Plug-In . SVG Version: 6.00 Build 0)  -->
<svg version="1.1" id="Layer_1" xmlns="http://www.w3.org/2000/svg" xmlns:xlink="http://www.w3.org/1999/xlink" x="0px" y="0px"
	 viewBox="0 0 24 24" style="enable-background:new 0 0 24 24;" xml:space="preserve">
<style type="text/css">
	.st0{fill:none;}
	.st1{fill:#FFFFFF;}
</style>
<path class="st0" d="M0,0h24v24H0V0z"/>
<path class="st1" d="M13,5.5c1.1,0,2-0.9,2-2s-0.9-2-2-2s-2,0.9-2,2S11.9,5.5,13,5.5z M9.2,8.9L6.5,23h2.1l1.8-8l2.1,2v6h2v-7.6
	l-2.1-2.1l0.6-3c1.3,1.6,3.2,2.6,5.4,2.6v-2c-1.9,0-3.4-1-4.4-2.4L13.2,7c-0.3-0.6-1-1-1.7-1c-0.2,0-0.5,0.1-0.8,0.2L5.5,8.3V13h2
	V9.6L9.2,8.9"/>
</svg>
