<svg id="ÂúñÂ_01" data-name="ÂúñÂ±§ 01" xmlns="http://www.w3.org/2000/svg" viewBox="0 0 24.23 31.42"><defs><style>.cls-1{fill:#09bfdd;}.cls-2{fill:#e51c4e;}.cls-3{fill:#242052;}</style></defs><title>favicon</title><polygon class="cls-1" points="8.88 15.99 11.84 12.06 14.8 15.99 11.84 19.91 8.88 15.99"/><polygon class="cls-1" points="10.36 10.1 7.4 6.17 0 15.99 7.4 25.81 10.36 21.88 5.92 15.99 10.36 10.1"/><polygon class="cls-1" points="8.88 4.21 11.84 0.28 23.68 15.99 11.84 31.7 8.88 27.77 17.76 15.99 8.88 4.21"/><polygon class="cls-2" points="9.44 15.71 12.39 11.78 15.36 15.71 12.39 19.64 9.44 15.71"/><polygon class="cls-2" points="10.91 9.82 7.96 5.89 0.56 15.71 7.96 25.53 10.91 21.6 6.48 15.71 10.91 9.82"/><polygon class="cls-2" points="9.44 3.93 12.39 0 24.23 15.71 12.39 31.42 9.44 27.49 18.31 15.71 9.44 3.93"/><polygon class="cls-2" points="9.16 15.85 12.12 11.92 15.08 15.85 12.12 19.78 9.16 15.85"/><polygon class="cls-3" points="10.64 9.96 7.68 6.03 0.28 15.85 7.68 25.67 10.64 21.74 6.2 15.85 10.64 9.96"/><polygon class="cls-3" points="9.16 4.07 12.12 0.14 23.95 15.85 12.12 31.56 9.16 27.63 18.04 15.85 9.16 4.07"/></svg>