<?xml version="1.0" encoding="UTF-8"?>
<svg width="169px" height="179px" viewBox="0 0 169 179" version="1.1" xmlns="http://www.w3.org/2000/svg" xmlns:xlink="http://www.w3.org/1999/xlink">
    <!-- Generator: Sketch 52.2 (67145) - http://www.bohemiancoding.com/sketch -->
    <title>Group 4</title>
    <desc>Created with Sketch.</desc>
    <g id="Page-1" stroke="none" stroke-width="1" fill="none" fill-rule="evenodd">
        <g id="Group-4">
            <polygon id="Fill-47-Copy" fill="#EC4723" points="55 44.496 99.496 44.496 99.496 5.68434189e-14 55 5.68434189e-14"></polygon>
            <polygon id="Fill-48-Copy" fill="#FFFFFF" points="55 178.216 99.496 178.216 99.496 55 55 55"></polygon>
            <path d="M154.496,22.981 L154.496,4 C154.496,1.791 152.705,8.52651283e-14 150.496,8.52651283e-14 L110,8.52651283e-14 L110,177.983 L153.324,134.659 C154.075,133.909 154.496,132.892 154.496,131.831 L154.496,67.477 L164.52,67.477 C166.73,67.477 168.52,65.686 168.52,63.477 L168.52,26.981 C168.52,24.772 166.73,22.981 164.52,22.981 L154.496,22.981 Z" id="Fill-49-Copy" fill="#FFFFFF"></path>
            <path d="M4,1.70530257e-13 C1.791,1.70530257e-13 -4.08562073e-13,1.791 -4.08562073e-13,4 L-4.08562073e-13,131.831 C-4.08562073e-13,132.892 0.421,133.91 1.172,134.66 L44.496,177.984 L44.496,1.70530257e-13 L4,1.70530257e-13 Z" id="Fill-50-Copy" fill="#FFFFFF"></path>
        </g>
    </g>
</svg>