<?xml version="1.0" encoding="utf-8"?>
<!-- Generator: Adobe Illustrator 23.0.1, SVG Export Plug-In . SVG Version: 6.00 Build 0)  -->
<svg version="1.1" id="Layer_1" xmlns="http://www.w3.org/2000/svg" xmlns:xlink="http://www.w3.org/1999/xlink" x="0px" y="0px"
	 viewBox="0 0 960 540" style="enable-background:new 0 0 960 540;" xml:space="preserve">
<style type="text/css">
	.st0{fill-rule:evenodd;clip-rule:evenodd;fill-opacity:0;}
	.st1{fill:none;stroke:#FF008A;stroke-linejoin:round;stroke-miterlimit:10;stroke-dasharray:4,3;}
	.st2{fill:#202124;}
	.st3{fill:#010000;fill-opacity:0;}
	.st4{fill:#FFFFFF;}
	.st5{fill-opacity:0;}
	.st6{fill-rule:evenodd;clip-rule:evenodd;fill:#3B0097;}
	.st7{fill:none;stroke:#FF008A;stroke-width:4;stroke-linejoin:round;stroke-miterlimit:10;}
	.st8{fill:none;stroke:#FF008A;stroke-width:2;stroke-linejoin:round;stroke-miterlimit:10;stroke-dasharray:2,6;}
	.st9{fill:#FF008A;stroke:#FF008A;stroke-width:2;stroke-miterlimit:10;}
	.st10{fill-rule:evenodd;clip-rule:evenodd;fill:#FF008A;}
	.st11{fill-rule:evenodd;clip-rule:evenodd;fill:#FFFFFF;}
</style>
<path class="st0" d="M450.5,228.7L450.5,228.7c-16.3-16.3-16.3-42.8,0-59.2l0,0c7.8-7.8,18.5-12.3,29.6-12.3s21.7,4.4,29.6,12.3l0,0
	c16.3,16.3,16.3,42.8,0,59.2l0,0C493.3,245,466.8,245,450.5,228.7z"/>
<path class="st1" d="M450.5,228.7L450.5,228.7c-16.3-16.3-16.3-42.8,0-59.2l0,0c7.8-7.8,18.5-12.3,29.6-12.3s21.7,4.4,29.6,12.3l0,0
	c16.3,16.3,16.3,42.8,0,59.2l0,0C493.3,245,466.8,245,450.5,228.7z"/>
<path class="st0" d="M104.7,311.7H319v37.4H104.7L104.7,311.7z"/>
<path class="st2" d="M137.5,334.8v-10.5h8.1c0.6,0,1,0.2,1.4,0.6c0.4,0.4,0.6,0.9,0.6,1.4v2.1c0,0.1,0,0.2,0,0.4
	c0,0.1-0.1,0.2-0.1,0.3c0.2,0.2,0.3,0.5,0.4,0.7c0.1,0.2,0.2,0.5,0.2,0.7v2.3c0,0.6-0.2,1-0.6,1.4c-0.4,0.4-0.9,0.6-1.5,0.6H137.5z
	 M140,332.8h5.6c0.3,0,0.4,0,0.5,0s0.1-0.2,0.1-0.5v-1.4c0-0.3,0-0.4-0.1-0.5s-0.2,0-0.5,0H140c-0.3,0-0.4,0-0.5,0c0,0,0,0.2,0,0.5
	v1.4c0,0.3,0,0.4,0,0.5C139.5,332.8,139.7,332.8,140,332.8z M140,328.4h5.2c0.3,0,0.4,0,0.5,0c0,0,0-0.2,0-0.5v-1.2
	c0-0.3,0-0.4,0-0.5c0,0-0.2-0.1-0.5-0.1H140c-0.3,0-0.4,0-0.5,0.1c0,0,0,0.2,0,0.5v1.2c0,0.3,0,0.4,0,0.5
	C139.5,328.4,139.7,328.4,140,328.4z M151.6,334.8c-0.6,0-1-0.2-1.4-0.6c-0.4-0.4-0.6-0.9-0.6-1.4v-4.5c0-0.6,0.2-1,0.6-1.4
	c0.4-0.4,0.9-0.6,1.4-0.6h4.6c0.6,0,1,0.2,1.4,0.6c0.4,0.4,0.6,0.9,0.6,1.4v4.5c0,0.6-0.2,1-0.6,1.4c-0.4,0.4-0.9,0.6-1.4,0.6H151.6
	z M152,332.8h3.8c0.3,0,0.4,0,0.5,0s0-0.2,0-0.5v-3.6c0-0.3,0-0.4,0-0.5s-0.2,0-0.5,0H152c-0.3,0-0.4,0-0.5,0s0,0.2,0,0.5v3.6
	c0,0.3,0,0.4,0,0.5S151.8,332.8,152,332.8z M161.5,334.8c-0.6,0-1-0.2-1.4-0.6c-0.4-0.4-0.6-0.9-0.6-1.4v-9.1h1.9v2.6h3.3v1.9h-3.3
	v4.1c0,0.3,0,0.4,0,0.5s0.2,0,0.5,0h2.8v1.9H161.5z M168,334.8c-0.6,0-1-0.2-1.4-0.6c-0.4-0.4-0.6-0.9-0.6-1.4v-9.1h1.9v2.6h3.3v1.9
	h-3.3v4.1c0,0.3,0,0.4,0,0.5s0.2,0,0.5,0h2.8v1.9H168z M174.4,334.8c-0.6,0-1-0.2-1.4-0.6c-0.4-0.4-0.6-0.9-0.6-1.4v-4.5
	c0-0.6,0.2-1,0.6-1.4c0.4-0.4,0.9-0.6,1.4-0.6h4.6c0.6,0,1,0.2,1.4,0.6c0.4,0.4,0.6,0.9,0.6,1.4v4.5c0,0.6-0.2,1-0.6,1.4
	c-0.4,0.4-0.9,0.6-1.4,0.6H174.4z M174.8,332.8h3.8c0.3,0,0.4,0,0.5,0s0-0.2,0-0.5v-3.6c0-0.3,0-0.4,0-0.5s-0.2,0-0.5,0h-3.8
	c-0.3,0-0.4,0-0.5,0s0,0.2,0,0.5v3.6c0,0.3,0,0.4,0,0.5S174.6,332.8,174.8,332.8z M182.6,334.8v-8.5h10.5c0.6,0,1,0.2,1.4,0.6
	c0.4,0.4,0.6,0.9,0.6,1.4v6.5h-1.9v-6.1c0-0.3,0-0.4-0.1-0.5s-0.2,0-0.5,0h-2.4c-0.3,0-0.4,0-0.5,0c0,0,0,0.2,0,0.5v6.1h-1.9v-6.1
	c0-0.3,0-0.4,0-0.5s-0.2,0-0.5,0H185c-0.3,0-0.4,0-0.5,0s0,0.2,0,0.5v6.1H182.6z M201.4,334.8v-10.5h2.1l6.5,7.7v-7.7h2v10.5h-2.1
	l-6.5-7.7v7.7H201.4z M215.6,334.8c-0.6,0-1-0.2-1.4-0.6c-0.4-0.4-0.6-0.9-0.6-1.4v-3.2h6.7v-0.8c0-0.3,0-0.4,0-0.5s-0.2,0-0.5,0
	h-6.2v-1.9h6.6c0.6,0,1,0.2,1.4,0.6c0.4,0.4,0.6,0.9,0.6,1.4v6.5H215.6z M216,332.8h4.3v-1.6h-4.8v1c0,0.3,0,0.4,0,0.5
	S215.7,332.8,216,332.8z M227.5,334.8l-4.7-8.5h2.2l3.4,6.2l3.3-6.2h2.2l-4.7,8.5H227.5z M234.9,334.8v-8.5h1.9v8.5H234.9z
	 M234.9,325.4v-1.9h1.9v1.9H234.9z M239.4,338.1v-1.9h4.8c0.3,0,0.4,0,0.4-0.1c0,0,0.1-0.2,0.1-0.5v-0.9h-4.7c-0.6,0-1-0.2-1.4-0.6
	c-0.4-0.4-0.6-0.9-0.6-1.4v-4.5c0-0.6,0.2-1,0.6-1.4c0.4-0.4,0.9-0.6,1.4-0.6h4.6c0.6,0,1,0.2,1.4,0.6c0.4,0.4,0.6,0.9,0.6,1.4v7.8
	c0,0.6-0.2,1-0.6,1.4c-0.4,0.4-0.9,0.6-1.4,0.6H239.4z M240.5,332.8h3.8c0.3,0,0.4,0,0.4,0c0,0,0.1-0.2,0.1-0.5v-3.6
	c0-0.3,0-0.4-0.1-0.5c0,0-0.2,0-0.4,0h-3.8c-0.3,0-0.4,0-0.5,0c0,0,0,0.2,0,0.5v3.6c0,0.3,0,0.4,0,0.5
	C240,332.8,240.2,332.8,240.5,332.8z M249.9,334.8c-0.6,0-1-0.2-1.4-0.6c-0.4-0.4-0.6-0.9-0.6-1.4v-3.2h6.7v-0.8c0-0.3,0-0.4,0-0.5
	s-0.2,0-0.5,0h-6.2v-1.9h6.6c0.6,0,1,0.2,1.4,0.6c0.4,0.4,0.6,0.9,0.6,1.4v6.5H249.9z M250.3,332.8h4.3v-1.6h-4.8v1
	c0,0.3,0,0.4,0,0.5S250,332.8,250.3,332.8z M260.1,334.8c-0.6,0-1-0.2-1.4-0.6c-0.4-0.4-0.6-0.9-0.6-1.4v-9.1h1.9v2.6h3.3v1.9H260
	v4.1c0,0.3,0,0.4,0,0.5s0.2,0,0.5,0h2.8v1.9H260.1z M264.5,334.8v-8.5h1.9v8.5H264.5z M264.5,325.4v-1.9h1.9v1.9H264.5z
	 M269.8,334.8c-0.6,0-1-0.2-1.4-0.6c-0.4-0.4-0.6-0.9-0.6-1.4v-4.5c0-0.6,0.2-1,0.6-1.4c0.4-0.4,0.9-0.6,1.4-0.6h4.6
	c0.6,0,1,0.2,1.4,0.6c0.4,0.4,0.6,0.9,0.6,1.4v4.5c0,0.6-0.2,1-0.6,1.4c-0.4,0.4-0.9,0.6-1.4,0.6H269.8z M270.2,332.8h3.8
	c0.3,0,0.4,0,0.5,0s0-0.2,0-0.5v-3.6c0-0.3,0-0.4,0-0.5s-0.2,0-0.5,0h-3.8c-0.3,0-0.4,0-0.5,0s0,0.2,0,0.5v3.6c0,0.3,0,0.4,0,0.5
	S269.9,332.8,270.2,332.8z M277.6,334.8v-8.5h6.6c0.6,0,1,0.2,1.4,0.6c0.4,0.4,0.6,0.9,0.6,1.4v6.5h-1.9v-6.1c0-0.3,0-0.4,0-0.5
	s-0.2,0-0.5,0H280c-0.3,0-0.4,0-0.5,0s0,0.2,0,0.5v6.1H277.6z"/>
<path class="st3" d="M354.9,36.9h10.6v16h-10.6V36.9z"/>
<path class="st4" d="M354.9,52.9v-6h10.6v6H354.9z"/>
<path class="st3" d="M365.5,34.7h16v22.2h-16V34.7z"/>
<path class="st4" d="M373.4,37.9v8h-8v-8H373.4z M381.5,45.9v8h-8v-8H381.5z"/>
<path class="st5" d="M381.5,34.5L381.5,34.5v20.1l0,0V34.5z"/>
<path class="st6" d="M601.2,467.2h280.9l11.3-11.3V354.2H601.2V467.2z"/>
<g transform="matrix(1.0 0.0 0.0 1.0 0.0 2.0)">
	<g id="g627bde892a257149_609.2">
		<path class="st0" d="M499.5,212.2L479.6,232l-19.8-19.8l19.8-19.8L499.5,212.2z"/>
		
			<g transform="matrix(-0.025826372501648296 0.02582659204147507 -0.025826043191908135 -0.025826262731734908 499.4696614871774 210.20205492977402)">
			<g>
				<defs>
					
						<rect id="SVGID_1_" x="408.7" y="331.3" transform="matrix(0.7071 -0.7071 0.7071 0.7071 -120.3441 400.0417)" width="28.1" height="28.1"/>
				</defs>
				<clipPath id="SVGID_2_">
					<use xlink:href="#SVGID_1_"  style="overflow:visible;"/>
				</clipPath>
				<g transform="matrix(1 0 0 1 0 3.814697e-06)" style="clip-path:url(#SVGID_2_);enable-background:new    ;">
					
						<image style="overflow:visible;" width="768" height="768" xlink:href="A553DD86ABC425C0.png"  transform="matrix(1 1.510507e-05 0 1 38.7199 -38.7199)">
					</image>
				</g>
			</g>
		</g>
	</g>
</g>
<path class="st0" d="M499.5,210.2L479.6,230l-19.8-19.8l19.8-19.8L499.5,210.2z"/>
<g transform="matrix(-0.025826372501648296 0.02582659204147507 -0.025826043191908135 -0.025826262731734908 499.4696614871774 210.20205492977402)">
	<g>
		<defs>
			
				<rect id="SVGID_3_" x="370" y="370" transform="matrix(0.7071 -0.7071 0.7071 0.7071 -159.0643 384.0033)" width="28.1" height="28.1"/>
		</defs>
		<clipPath id="SVGID_4_">
			<use xlink:href="#SVGID_3_"  style="overflow:visible;"/>
		</clipPath>
		<g style="clip-path:url(#SVGID_4_);enable-background:new    ;">
			
				<image style="overflow:visible;" width="768" height="768" xlink:href="A553DD86ABC425C1.png"  transform="matrix(1 1.510507e-05 0 1 6.919639e-06 1.138193e-05)">
			</image>
		</g>
	</g>
</g>
<g transform="matrix(1.0 0.0 0.0 1.0 0.0 2.0)">
	<g id="g627bde892a257149_609.4">
		<path class="st0" d="M443.9,176.2L480,140l36.1,36.1L480,212.3L443.9,176.2z"/>
		
			<g transform="matrix(0.04702704085321784 -0.047027406752929136 0.04702649200365092 0.04702685790336221 443.88320977122015 174.153927779042)">
			<g>
				<defs>
					
						<rect id="SVGID_5_" x="337.2" y="379.7" transform="matrix(0.7071 -0.7071 0.7071 0.7071 -180.3213 375.1974)" width="51.1" height="51.1"/>
				</defs>
				<clipPath id="SVGID_6_">
					<use xlink:href="#SVGID_5_"  style="overflow:visible;"/>
				</clipPath>
				<g style="clip-path:url(#SVGID_6_);enable-background:new    ;">
					
						<image style="overflow:visible;" width="768" height="768" xlink:href="A553DD86ABC425C7.png"  transform="matrix(1 0 1.451377e-05 1 -21.2641 21.2646)">
					</image>
				</g>
			</g>
		</g>
	</g>
</g>
<path class="st0" d="M443.9,174.2L480,138l36.1,36.1L480,210.3L443.9,174.2z"/>
<g transform="matrix(0.04702704085321784 -0.047027406752929136 0.04702649200365092 0.04702685790336221 443.88320977122015 174.153927779042)">
	<g>
		<defs>
			
				<rect id="SVGID_7_" x="358.5" y="358.5" transform="matrix(0.7071 -0.7071 0.7071 0.7071 -159.0567 384.0052)" width="51.1" height="51.1"/>
		</defs>
		<clipPath id="SVGID_8_">
			<use xlink:href="#SVGID_7_"  style="overflow:visible;"/>
		</clipPath>
		<g style="clip-path:url(#SVGID_8_);enable-background:new    ;">
			
				<image style="overflow:visible;" width="768" height="768" xlink:href="A553DD86ABC425C2.png"  transform="matrix(1 0 1.451377e-05 1 6.001357e-06 0)">
			</image>
		</g>
	</g>
</g>
<path class="st0" d="M472.2,247.9L472.2,247.9c-13.7-2.2-25.9-10.1-33.5-21.8c-7.6-11.6-9.9-26-6.5-39.4l47.8,12.4L472.2,247.9z"/>
<path class="st0" d="M472.2,247.9L472.2,247.9c-13.7-2.2-25.9-10.1-33.5-21.8c-7.6-11.6-9.9-26-6.5-39.4"/>
<path class="st7" d="M472.2,247.9L472.2,247.9c-13.7-2.2-25.9-10.1-33.5-21.8c-7.6-11.6-9.9-26-6.5-39.4"/>
<path class="st0" d="M528.5,189.3L528.5,189.3c2.6,13-0.1,26.5-7.5,37.4c-7.4,11-18.9,18.5-32,20.9l-9-48.6L528.5,189.3z"/>
<path class="st0" d="M528.5,189.3L528.5,189.3c2.6,13-0.1,26.5-7.5,37.4c-7.4,11-18.9,18.5-32,20.9"/>
<path class="st7" d="M528.5,189.3L528.5,189.3c2.6,13-0.1,26.5-7.5,37.4c-7.4,11-18.9,18.5-32,20.9"/>
<path class="st0" d="M610.9,311.7h272.9v37.4H610.9V311.7z"/>
<path class="st2" d="M640.2,334.8c-0.6,0-1-0.2-1.4-0.6c-0.4-0.4-0.6-0.9-0.6-1.4v-0.8h1.9v0.4c0,0.3,0,0.4,0,0.5s0.2,0,0.5,0h5.6
	c0.3,0,0.4,0,0.5,0s0-0.2,0-0.5V331c0-0.3,0-0.4,0-0.5s-0.2,0-0.5,0h-6c-0.6,0-1-0.2-1.4-0.6c-0.4-0.4-0.6-0.9-0.6-1.4v-2.2
	c0-0.6,0.2-1,0.6-1.4c0.4-0.4,0.9-0.6,1.4-0.6h6.5c0.6,0,1,0.2,1.4,0.6c0.4,0.4,0.6,0.9,0.6,1.4v0.8h-2v-0.4c0-0.3,0-0.4,0-0.5
	c0,0-0.2-0.1-0.5-0.1h-5.6c-0.3,0-0.4,0-0.5,0.1c0,0,0,0.2,0,0.5v1.3c0,0.3,0,0.4,0,0.5c0,0,0.2,0,0.5,0h6.1c0.6,0,1,0.2,1.4,0.6
	c0.4,0.4,0.6,0.9,0.6,1.5v2.2c0,0.6-0.2,1-0.6,1.4c-0.4,0.4-0.9,0.6-1.4,0.6H640.2z M650.3,334.8v-11.3h1.9v2.8h4.7
	c0.5,0,1,0.2,1.4,0.6c0.4,0.4,0.6,0.9,0.6,1.4v6.5H657v-6.1c0-0.3,0-0.4,0-0.5s-0.2,0-0.5,0h-3.8c-0.3,0-0.4,0-0.5,0s0,0.2,0,0.5
	v6.1H650.3z M662,334.8c-0.6,0-1-0.2-1.4-0.6c-0.4-0.4-0.6-0.9-0.6-1.4v-4.5c0-0.6,0.2-1,0.6-1.4c0.4-0.4,0.9-0.6,1.4-0.6h4.6
	c0.6,0,1,0.2,1.4,0.6c0.4,0.4,0.6,0.9,0.6,1.4v4.5c0,0.6-0.2,1-0.6,1.4c-0.4,0.4-0.9,0.6-1.4,0.6H662z M662.5,332.8h3.8
	c0.3,0,0.4,0,0.5,0s0-0.2,0-0.5v-3.6c0-0.3,0-0.4,0-0.5s-0.2,0-0.5,0h-3.8c-0.3,0-0.4,0-0.5,0s0,0.2,0,0.5v3.6c0,0.3,0,0.4,0,0.5
	S662.2,332.8,662.5,332.8z M672.4,334.8l-3.3-8.5h2l2.1,5l2.2-5h2l2.3,5l1.9-5h2l-3.2,8.5h-1.5l-2.6-5.7l-2.5,5.7H672.4z
	 M693.2,334.8v-8.6h-4.3v-1.9h10.5v1.9h-4.3v8.6H693.2z M700.4,334.8v-8.5h1.9v8.5H700.4z M700.4,325.4v-1.9h1.9v1.9H700.4z
	 M705.7,334.8c-0.6,0-1-0.2-1.4-0.6c-0.4-0.4-0.6-0.9-0.6-1.4v-4.5c0-0.6,0.2-1,0.6-1.4c0.4-0.4,0.9-0.6,1.4-0.6h6.6v1.9h-6.2
	c-0.3,0-0.4,0-0.5,0c0,0,0,0.2,0,0.5v3.6c0,0.3,0,0.4,0,0.5c0,0,0.2,0,0.5,0h6.2v1.9H705.7z M713.6,334.8v-11.3h1.9v6.1h1.5l3-3.3
	h2.1v0.5l-3.4,3.7l3.4,3.7v0.5h-2l-3-3.3h-1.5v3.3H713.6z M725,334.8c-0.6,0-1-0.2-1.4-0.6c-0.4-0.4-0.6-0.9-0.6-1.4v-4.5
	c0-0.6,0.2-1,0.6-1.4c0.4-0.4,0.9-0.6,1.4-0.6h4.6c0.6,0,1,0.2,1.4,0.6c0.4,0.4,0.6,0.9,0.6,1.4v3.2h-6.7v0.8c0,0.3,0,0.4,0,0.5
	s0.2,0,0.5,0h6.2v1.9H725z M724.9,329.7h4.8v-1c0-0.3,0-0.4,0-0.5s-0.2,0-0.5,0h-3.8c-0.3,0-0.4,0-0.5,0s0,0.2,0,0.5V329.7z
	 M735.1,334.8c-0.6,0-1-0.2-1.4-0.6c-0.4-0.4-0.6-0.9-0.6-1.4v-9.1h1.9v2.6h3.3v1.9H735v4.1c0,0.3,0,0.4,0,0.5s0.2,0,0.5,0h2.8v1.9
	H735.1z M744,334.8v-8.5h1.9v8.5H744z M744,325.4v-1.9h1.9v1.9H744z M747.6,334.8v-8.5h6.6c0.6,0,1,0.2,1.4,0.6
	c0.4,0.4,0.6,0.9,0.6,1.4v6.5h-1.9v-6.1c0-0.3,0-0.4,0-0.5s-0.2,0-0.5,0H750c-0.3,0-0.4,0-0.5,0s0,0.2,0,0.5v6.1H747.6z
	 M757.8,334.8v-9.3c0-0.6,0.2-1,0.6-1.4c0.4-0.4,0.9-0.6,1.4-0.6h3.2v1.9h-2.8c-0.3,0-0.4,0-0.5,0s0,0.2,0,0.4v0.4h3.3v1.9h-3.3v6.6
	H757.8z M766.2,334.8c-0.6,0-1-0.2-1.4-0.6c-0.4-0.4-0.6-0.9-0.6-1.4v-4.5c0-0.6,0.2-1,0.6-1.4c0.4-0.4,0.9-0.6,1.4-0.6h4.6
	c0.6,0,1,0.2,1.4,0.6c0.4,0.4,0.6,0.9,0.6,1.4v4.5c0,0.6-0.2,1-0.6,1.4c-0.4,0.4-0.9,0.6-1.4,0.6H766.2z M766.6,332.8h3.8
	c0.3,0,0.4,0,0.5,0s0-0.2,0-0.5v-3.6c0-0.3,0-0.4,0-0.5s-0.2,0-0.5,0h-3.8c-0.3,0-0.4,0-0.5,0s0,0.2,0,0.5v3.6c0,0.3,0,0.4,0,0.5
	S766.3,332.8,766.6,332.8z M781.9,334.8l-3.3-8.5h2l2.1,5l2.2-5h2l2.3,5l1.9-5h2l-3.2,8.5h-1.5l-2.6-5.7l-2.5,5.7H781.9z
	 M794.1,334.8v-8.5h1.9v8.5H794.1z M794.1,325.4v-1.9h1.9v1.9H794.1z M799.6,334.8c-0.6,0-1-0.2-1.4-0.6c-0.4-0.4-0.6-0.9-0.6-1.4
	v-9.1h1.9v2.6h3.3v1.9h-3.3v4.1c0,0.3,0,0.4,0,0.5s0.2,0,0.5,0h2.8v1.9H799.6z M804.3,334.8v-11.3h1.9v2.8h4.7c0.5,0,1,0.2,1.4,0.6
	c0.4,0.4,0.6,0.9,0.6,1.4v6.5H811v-6.1c0-0.3,0-0.4,0-0.5s-0.2,0-0.5,0h-3.8c-0.3,0-0.4,0-0.5,0s0,0.2,0,0.5v6.1H804.3z
	 M818.5,334.8v-10.5h1.9v10.5H818.5z M823.7,334.8c-0.6,0-1-0.2-1.4-0.6c-0.4-0.4-0.6-0.9-0.6-1.4v-6.5c0-0.6,0.2-1,0.6-1.4
	c0.4-0.4,0.9-0.6,1.4-0.6h8.5v1.9h-8.1c-0.3,0-0.4,0-0.5,0.1c0,0,0,0.2,0,0.5v5.6c0,0.3,0,0.4,0,0.5c0,0,0.2,0,0.5,0h8.1v2H823.7z
	 M835.8,334.8c-0.6,0-1-0.2-1.4-0.6c-0.4-0.4-0.6-0.9-0.6-1.4v-6.5c0-0.6,0.2-1,0.6-1.4c0.4-0.4,0.9-0.6,1.4-0.6h6.5
	c0.6,0,1,0.2,1.4,0.6c0.4,0.4,0.6,0.9,0.6,1.4v6.5c0,0.6-0.2,1-0.6,1.4c-0.4,0.4-0.9,0.6-1.4,0.6H835.8z M836.2,332.8h5.6
	c0.3,0,0.4,0,0.5,0c0,0,0.1-0.2,0.1-0.5v-5.6c0-0.3,0-0.4-0.1-0.5c0,0-0.2-0.1-0.5-0.1h-5.6c-0.3,0-0.4,0-0.5,0.1c0,0,0,0.2,0,0.5
	v5.6c0,0.3,0,0.4,0,0.5C835.7,332.8,835.9,332.8,836.2,332.8z M845.9,334.8v-10.5h2.1l6.5,7.7v-7.7h2v10.5h-2.1l-6.5-7.7v7.7H845.9z
	"/>
<path class="st0" d="M619.6,368.7h244.9v77.2H619.6V368.7z"/>
<path class="st4" d="M632.2,389.4c-0.6,0-1.1-0.1-1.6-0.3c-0.5-0.2-0.9-0.5-1.3-0.9l0.8-0.9c0.3,0.3,0.6,0.5,1,0.6
	c0.4,0.2,0.8,0.2,1.2,0.2c0.5,0,0.8-0.1,1-0.3c0.2-0.2,0.4-0.4,0.4-0.7c0-0.2,0-0.3-0.1-0.4c-0.1-0.1-0.2-0.2-0.3-0.3
	c-0.1-0.1-0.3-0.2-0.4-0.2c-0.2-0.1-0.3-0.2-0.5-0.2l-1.1-0.5c-0.2-0.1-0.4-0.2-0.6-0.3c-0.2-0.1-0.4-0.3-0.5-0.4
	c-0.2-0.2-0.3-0.4-0.4-0.6c-0.1-0.2-0.1-0.5-0.1-0.8c0-0.3,0.1-0.6,0.2-0.9c0.1-0.3,0.3-0.5,0.6-0.7c0.2-0.2,0.5-0.3,0.9-0.5
	c0.3-0.1,0.7-0.2,1.1-0.2c0.5,0,0.9,0.1,1.4,0.3c0.4,0.2,0.8,0.4,1.1,0.7l-0.7,0.9c-0.3-0.2-0.5-0.4-0.8-0.5c-0.3-0.1-0.6-0.2-1-0.2
	c-0.4,0-0.7,0.1-0.9,0.2c-0.2,0.2-0.3,0.4-0.3,0.7c0,0.2,0,0.3,0.1,0.4c0.1,0.1,0.2,0.2,0.3,0.3c0.1,0.1,0.3,0.2,0.4,0.2
	c0.2,0.1,0.3,0.1,0.5,0.2l1,0.4c0.2,0.1,0.5,0.2,0.7,0.3c0.2,0.1,0.4,0.3,0.5,0.4c0.2,0.2,0.3,0.4,0.4,0.6c0.1,0.2,0.1,0.5,0.1,0.8
	c0,0.3-0.1,0.6-0.2,0.9c-0.1,0.3-0.3,0.5-0.6,0.7c-0.2,0.2-0.5,0.4-0.9,0.5C633.1,389.3,632.7,389.4,632.2,389.4z M636.8,389.3v-8.5
	h1.4v2.2l-0.1,1.2h0c0.3-0.3,0.6-0.5,0.9-0.7c0.3-0.2,0.7-0.3,1.2-0.3c0.7,0,1.2,0.2,1.5,0.6c0.3,0.4,0.5,1,0.5,1.8v3.6h-1.4v-3.5
	c0-0.5-0.1-0.8-0.2-1c-0.2-0.2-0.4-0.3-0.8-0.3c-0.3,0-0.6,0.1-0.8,0.2c-0.2,0.1-0.5,0.3-0.7,0.6v4H636.8z M646.6,389.4
	c-0.4,0-0.7-0.1-1.1-0.2c-0.4-0.1-0.7-0.3-1-0.6c-0.3-0.3-0.5-0.6-0.7-1c-0.2-0.4-0.2-0.8-0.2-1.3c0-0.5,0.1-0.9,0.2-1.3
	c0.2-0.4,0.4-0.7,0.7-1c0.3-0.3,0.6-0.5,1-0.6c0.4-0.1,0.7-0.2,1.1-0.2c0.4,0,0.8,0.1,1.1,0.2c0.4,0.1,0.7,0.3,1,0.6
	c0.3,0.3,0.5,0.6,0.7,1c0.2,0.4,0.2,0.8,0.2,1.3c0,0.5-0.1,0.9-0.2,1.3c-0.2,0.4-0.4,0.7-0.7,1c-0.3,0.3-0.6,0.5-1,0.6
	C647.4,389.3,647,389.4,646.6,389.4z M646.6,388.3c0.5,0,0.9-0.2,1.1-0.5c0.3-0.4,0.4-0.8,0.4-1.4c0-0.6-0.1-1.1-0.4-1.4
	c-0.3-0.4-0.6-0.5-1.1-0.5c-0.5,0-0.9,0.2-1.1,0.5c-0.3,0.4-0.4,0.8-0.4,1.4c0,0.6,0.1,1.1,0.4,1.4
	C645.7,388.1,646.1,388.3,646.6,388.3z M651.4,389.3l-1.1-5.9h1.3l0.5,3.1c0,0.3,0.1,0.6,0.1,0.8c0,0.3,0.1,0.6,0.1,0.8h0
	c0-0.3,0.1-0.6,0.1-0.8c0.1-0.3,0.1-0.6,0.2-0.8l0.5-2.5h1.1l0.5,2.5c0.1,0.3,0.1,0.6,0.2,0.8c0.1,0.3,0.1,0.6,0.2,0.8h0
	c0-0.3,0.1-0.6,0.1-0.8c0-0.3,0.1-0.6,0.1-0.8l0.5-3.1h1.3l-1.1,5.9h-1.7l-0.5-2.4c-0.1-0.5-0.2-1-0.2-1.7h0c0,0.3-0.1,0.6-0.1,0.9
	c0,0.3-0.1,0.6-0.1,0.8l-0.5,2.4H651.4z M668.2,389.3v-4.8h-2.5v-1.1h3.9v5.9H668.2z M669.2,382.3c-0.3,0-0.5-0.1-0.7-0.2
	c-0.2-0.2-0.3-0.4-0.3-0.7c0-0.3,0.1-0.5,0.3-0.7c0.2-0.2,0.4-0.3,0.7-0.3c0.3,0,0.5,0.1,0.7,0.3c0.2,0.2,0.3,0.4,0.3,0.7
	c0,0.3-0.1,0.5-0.3,0.7C669.7,382.2,669.5,382.3,669.2,382.3z M672.8,389.3v-5.9h1.1l0.1,0.9h0c0.3-0.3,0.6-0.5,0.9-0.7
	c0.3-0.2,0.7-0.3,1.2-0.3c0.7,0,1.2,0.2,1.5,0.6c0.3,0.4,0.5,1,0.5,1.8v3.6h-1.4v-3.5c0-0.5-0.1-0.8-0.2-1c-0.2-0.2-0.4-0.3-0.8-0.3
	c-0.3,0-0.6,0.1-0.8,0.2c-0.2,0.1-0.5,0.3-0.7,0.6v4H672.8z M681.7,389.3v-4.8h-1.6v-1l1.6-0.1V383c0-0.3,0-0.7,0.1-1
	c0.1-0.3,0.3-0.6,0.5-0.8c0.2-0.2,0.5-0.4,0.8-0.5c0.3-0.1,0.7-0.2,1.1-0.2c0.3,0,0.6,0,0.9,0.1c0.3,0.1,0.6,0.1,0.8,0.2l-0.3,1
	c-0.2-0.1-0.4-0.2-0.6-0.2c-0.2,0-0.4-0.1-0.7-0.1c-0.5,0-0.8,0.1-1,0.3c-0.2,0.2-0.3,0.5-0.3,1v0.3h2.2v1.1h-2.2v4.8H681.7z
	 M689.8,389.4c-0.4,0-0.7-0.1-1.1-0.2c-0.4-0.1-0.7-0.3-1-0.6c-0.3-0.3-0.5-0.6-0.7-1c-0.2-0.4-0.2-0.8-0.2-1.3
	c0-0.5,0.1-0.9,0.2-1.3c0.2-0.4,0.4-0.7,0.7-1c0.3-0.3,0.6-0.5,1-0.6c0.4-0.1,0.7-0.2,1.1-0.2c0.4,0,0.8,0.1,1.1,0.2
	c0.4,0.1,0.7,0.3,1,0.6c0.3,0.3,0.5,0.6,0.7,1c0.2,0.4,0.2,0.8,0.2,1.3c0,0.5-0.1,0.9-0.2,1.3c-0.2,0.4-0.4,0.7-0.7,1
	c-0.3,0.3-0.6,0.5-1,0.6C690.6,389.3,690.2,389.4,689.8,389.4z M689.8,388.3c0.5,0,0.9-0.2,1.1-0.5c0.3-0.4,0.4-0.8,0.4-1.4
	c0-0.6-0.1-1.1-0.4-1.4c-0.3-0.4-0.6-0.5-1.1-0.5c-0.5,0-0.9,0.2-1.1,0.5c-0.3,0.4-0.4,0.8-0.4,1.4c0,0.6,0.1,1.1,0.4,1.4
	C688.9,388.1,689.3,388.3,689.8,388.3z M695,389.3v-5.9h1.1l0.1,1.3h0c0.3-0.5,0.7-0.8,1.1-1.1c0.4-0.3,0.9-0.4,1.4-0.4
	c0.2,0,0.4,0,0.6,0.1c0.2,0,0.4,0.1,0.5,0.2l-0.3,1.2c-0.2-0.1-0.4-0.1-0.5-0.1c-0.1,0-0.3,0-0.6,0c-0.4,0-0.8,0.1-1.2,0.4
	c-0.4,0.2-0.7,0.6-1,1.2v3.2H695z M701.2,389.3v-5.9h1.1l0.1,0.8h0c0.1-0.3,0.3-0.5,0.5-0.6c0.2-0.2,0.5-0.3,0.8-0.2
	c0.6,0,0.9,0.3,1.1,1c0.1-0.3,0.3-0.5,0.5-0.7c0.2-0.2,0.5-0.3,0.8-0.3c0.4,0,0.7,0.2,1,0.5c0.2,0.3,0.3,0.8,0.3,1.4v4.2h-1.3v-4.1
	c0-0.5-0.2-0.8-0.5-0.8c-0.2,0-0.3,0.1-0.4,0.2c-0.1,0.1-0.2,0.3-0.3,0.6v4.1h-1.2v-4.1c0-0.3,0-0.5-0.1-0.6
	c-0.1-0.1-0.2-0.2-0.4-0.2c-0.2,0-0.3,0.1-0.4,0.2c-0.1,0.1-0.2,0.3-0.3,0.6v4.1H701.2z M710.6,389.4c-0.3,0-0.5,0-0.8-0.1
	c-0.2-0.1-0.4-0.2-0.6-0.3c-0.2-0.2-0.3-0.3-0.4-0.5c-0.1-0.2-0.1-0.5-0.1-0.7c0-0.3,0.1-0.6,0.2-0.9c0.2-0.3,0.4-0.5,0.7-0.6
	c0.3-0.2,0.8-0.3,1.3-0.4c0.5-0.1,1.1-0.2,1.9-0.2c0-0.3-0.1-0.6-0.4-0.8c-0.2-0.2-0.6-0.3-1-0.3c-0.3,0-0.7,0.1-1,0.2
	c-0.3,0.1-0.6,0.3-1,0.4l-0.5-0.9c0.4-0.2,0.8-0.4,1.2-0.6c0.5-0.2,1-0.3,1.5-0.2c0.8,0,1.4,0.2,1.9,0.7c0.4,0.4,0.7,1.1,0.7,1.9
	v3.5H713l-0.1-0.7h0c-0.3,0.2-0.7,0.4-1,0.6C711.4,389.3,711,389.4,710.6,389.4z M711,388.3c0.3,0,0.6-0.1,0.9-0.2
	c0.3-0.1,0.6-0.3,0.8-0.5v-1.2c-0.5,0-1,0.1-1.3,0.2c-0.3,0.1-0.6,0.1-0.8,0.2c-0.2,0.1-0.4,0.2-0.5,0.4c-0.1,0.1-0.1,0.3-0.1,0.4
	c0,0.3,0.1,0.5,0.3,0.6C710.5,388.3,710.7,388.3,711,388.3z M719.7,389.4c-0.4,0-0.8-0.1-1.1-0.2c-0.3-0.1-0.5-0.3-0.7-0.5
	c-0.2-0.2-0.3-0.5-0.4-0.8c-0.1-0.3-0.1-0.7-0.1-1v-2.4h-1.6v-1l1.6-0.1l0.2-1.8h1.1v1.8h2.7v1.1h-2.7v2.4c0,0.5,0.1,0.8,0.3,1.1
	c0.2,0.2,0.6,0.3,1.1,0.3c0.2,0,0.5,0,0.7-0.1c0.2-0.1,0.4-0.1,0.6-0.2l0.3,1c-0.3,0.1-0.5,0.2-0.9,0.2
	C720.4,389.4,720.1,389.4,719.7,389.4z M725.8,389.3v-4.8h-2.5v-1.1h3.9v5.9H725.8z M726.8,382.3c-0.3,0-0.5-0.1-0.7-0.2
	c-0.2-0.2-0.3-0.4-0.3-0.7c0-0.3,0.1-0.5,0.3-0.7c0.2-0.2,0.4-0.3,0.7-0.3c0.3,0,0.5,0.1,0.7,0.3c0.2,0.2,0.3,0.4,0.3,0.7
	c0,0.3-0.1,0.5-0.3,0.7C727.3,382.2,727.1,382.3,726.8,382.3z M733,389.4c-0.4,0-0.7-0.1-1.1-0.2c-0.4-0.1-0.7-0.3-1-0.6
	c-0.3-0.3-0.5-0.6-0.7-1c-0.2-0.4-0.2-0.8-0.2-1.3c0-0.5,0.1-0.9,0.2-1.3c0.2-0.4,0.4-0.7,0.7-1c0.3-0.3,0.6-0.5,1-0.6
	c0.4-0.1,0.7-0.2,1.1-0.2c0.4,0,0.8,0.1,1.1,0.2c0.4,0.1,0.7,0.3,1,0.6c0.3,0.3,0.5,0.6,0.7,1c0.2,0.4,0.2,0.8,0.2,1.3
	c0,0.5-0.1,0.9-0.2,1.3c-0.2,0.4-0.4,0.7-0.7,1c-0.3,0.3-0.6,0.5-1,0.6C733.8,389.3,733.4,389.4,733,389.4z M733,388.3
	c0.5,0,0.9-0.2,1.1-0.5c0.3-0.4,0.4-0.8,0.4-1.4c0-0.6-0.1-1.1-0.4-1.4c-0.3-0.4-0.6-0.5-1.1-0.5c-0.5,0-0.9,0.2-1.1,0.5
	c-0.3,0.4-0.4,0.8-0.4,1.4c0,0.6,0.1,1.1,0.4,1.4C732.1,388.1,732.5,388.3,733,388.3z M737.6,389.3v-5.9h1.1l0.1,0.9h0
	c0.3-0.3,0.6-0.5,0.9-0.7c0.3-0.2,0.7-0.3,1.2-0.3c0.7,0,1.2,0.2,1.5,0.6c0.3,0.4,0.5,1,0.5,1.8v3.6h-1.4v-3.5c0-0.5-0.1-0.8-0.2-1
	c-0.2-0.2-0.4-0.3-0.8-0.3c-0.3,0-0.6,0.1-0.8,0.2c-0.2,0.1-0.5,0.3-0.7,0.6v4H737.6z M747.4,389.4c-0.6,0-1.1-0.1-1.6-0.3
	c-0.5-0.2-0.9-0.4-1.3-0.6l0.6-0.9c0.4,0.2,0.7,0.4,1.1,0.5c0.4,0.1,0.8,0.2,1.3,0.2c0.4,0,0.7-0.1,0.9-0.2c0.2-0.1,0.3-0.3,0.3-0.5
	c0-0.1,0-0.2-0.1-0.2c0-0.1-0.1-0.2-0.2-0.2c-0.1-0.1-0.3-0.1-0.5-0.2c-0.2-0.1-0.5-0.1-0.8-0.2c-0.8-0.2-1.4-0.4-1.7-0.7
	c-0.4-0.3-0.5-0.7-0.5-1.1c0-0.5,0.2-0.9,0.7-1.3c0.4-0.3,1.1-0.5,1.9-0.5c0.5,0,0.9,0.1,1.4,0.2c0.4,0.2,0.8,0.3,1.1,0.5l-0.6,0.8
	c-0.3-0.2-0.6-0.3-0.9-0.4c-0.3-0.1-0.7-0.2-1-0.2c-0.4,0-0.7,0.1-0.8,0.2c-0.2,0.1-0.2,0.3-0.2,0.5c0,0.2,0.1,0.4,0.4,0.5
	c0.2,0.1,0.6,0.2,1.2,0.3c0.5,0.1,0.9,0.2,1.2,0.3c0.3,0.1,0.5,0.2,0.7,0.4c0.2,0.1,0.3,0.3,0.4,0.5c0.1,0.2,0.1,0.4,0.1,0.6
	c0,0.3-0.1,0.5-0.2,0.7c-0.1,0.2-0.3,0.4-0.5,0.6c-0.2,0.2-0.5,0.3-0.9,0.4C748.3,389.3,747.9,389.4,747.4,389.4z M759.4,389.3
	l-1.1-5.9h1.3l0.5,3.1c0,0.3,0.1,0.6,0.1,0.8c0,0.3,0.1,0.6,0.1,0.8h0c0-0.3,0.1-0.6,0.1-0.8c0.1-0.3,0.1-0.6,0.2-0.8l0.5-2.5h1.1
	l0.5,2.5c0.1,0.3,0.1,0.6,0.2,0.8c0.1,0.3,0.1,0.6,0.2,0.8h0c0-0.3,0.1-0.6,0.1-0.8c0-0.3,0.1-0.6,0.1-0.8l0.5-3.1h1.3l-1.1,5.9
	h-1.7l-0.5-2.4c-0.1-0.5-0.2-1-0.2-1.7h0c0,0.3-0.1,0.6-0.1,0.9c0,0.3-0.1,0.6-0.1,0.8l-0.5,2.4H759.4z M769,389.3v-4.8h-2.5v-1.1
	h3.9v5.9H769z M770,382.3c-0.3,0-0.5-0.1-0.7-0.2c-0.2-0.2-0.3-0.4-0.3-0.7c0-0.3,0.1-0.5,0.3-0.7c0.2-0.2,0.4-0.3,0.7-0.3
	c0.3,0,0.5,0.1,0.7,0.3c0.2,0.2,0.3,0.4,0.3,0.7c0,0.3-0.1,0.5-0.3,0.7C770.5,382.2,770.3,382.3,770,382.3z M777.3,389.4
	c-0.4,0-0.8-0.1-1.1-0.2c-0.3-0.1-0.5-0.3-0.7-0.5c-0.2-0.2-0.3-0.5-0.4-0.8c-0.1-0.3-0.1-0.7-0.1-1v-2.4h-1.6v-1l1.6-0.1l0.2-1.8
	h1.1v1.8h2.7v1.1h-2.7v2.4c0,0.5,0.1,0.8,0.3,1.1c0.2,0.2,0.6,0.3,1.1,0.3c0.2,0,0.5,0,0.7-0.1c0.2-0.1,0.4-0.1,0.6-0.2l0.3,1
	c-0.3,0.1-0.5,0.2-0.9,0.2C778,389.4,777.7,389.4,777.3,389.4z M780.8,389.3v-8.5h1.4v2.2l-0.1,1.2h0c0.3-0.3,0.6-0.5,0.9-0.7
	c0.3-0.2,0.7-0.3,1.2-0.3c0.7,0,1.2,0.2,1.5,0.6c0.3,0.4,0.5,1,0.5,1.8v3.6h-1.4v-3.5c0-0.5-0.1-0.8-0.2-1c-0.2-0.2-0.4-0.3-0.8-0.3
	c-0.3,0-0.6,0.1-0.8,0.2c-0.2,0.1-0.5,0.3-0.7,0.6v4H780.8z M797.8,389.3v-4.8h-2.5v-1.1h3.9v5.9H797.8z M798.8,382.3
	c-0.3,0-0.5-0.1-0.7-0.2c-0.2-0.2-0.3-0.4-0.3-0.7c0-0.3,0.1-0.5,0.3-0.7c0.2-0.2,0.4-0.3,0.7-0.3c0.3,0,0.5,0.1,0.7,0.3
	c0.2,0.2,0.3,0.4,0.3,0.7c0,0.3-0.1,0.5-0.3,0.7C799.3,382.2,799.1,382.3,798.8,382.3z M805.5,389.4c-0.5,0-0.9-0.1-1.3-0.2
	c-0.4-0.1-0.7-0.3-1-0.6c-0.3-0.3-0.5-0.6-0.7-1c-0.2-0.4-0.2-0.8-0.2-1.3c0-0.5,0.1-0.9,0.3-1.3c0.2-0.4,0.4-0.7,0.7-1
	c0.3-0.3,0.7-0.5,1.1-0.6c0.4-0.1,0.8-0.2,1.3-0.2c0.5,0,0.9,0.1,1.3,0.2c0.4,0.2,0.7,0.4,0.9,0.6l-0.7,0.9
	c-0.2-0.2-0.5-0.3-0.7-0.4c-0.2-0.1-0.5-0.1-0.8-0.1c-0.6,0-1.1,0.2-1.5,0.5c-0.4,0.4-0.5,0.8-0.5,1.4c0,0.3,0,0.6,0.1,0.8
	c0.1,0.2,0.2,0.4,0.4,0.6c0.2,0.2,0.4,0.3,0.6,0.4c0.2,0.1,0.5,0.1,0.8,0.1c0.3,0,0.6-0.1,0.9-0.2c0.3-0.1,0.5-0.3,0.8-0.5l0.6,0.9
	c-0.3,0.3-0.7,0.5-1.1,0.7C806.4,389.3,806,389.4,805.5,389.4z M812.2,389.4c-0.4,0-0.7-0.1-1.1-0.2c-0.4-0.1-0.7-0.3-1-0.6
	c-0.3-0.3-0.5-0.6-0.7-1c-0.2-0.4-0.2-0.8-0.2-1.3c0-0.5,0.1-0.9,0.2-1.3c0.2-0.4,0.4-0.7,0.7-1c0.3-0.3,0.6-0.5,1-0.6
	c0.4-0.1,0.7-0.2,1.1-0.2c0.4,0,0.8,0.1,1.1,0.2c0.4,0.1,0.7,0.3,1,0.6c0.3,0.3,0.5,0.6,0.7,1c0.2,0.4,0.2,0.8,0.2,1.3
	c0,0.5-0.1,0.9-0.2,1.3c-0.2,0.4-0.4,0.7-0.7,1c-0.3,0.3-0.6,0.5-1,0.6C813,389.3,812.6,389.4,812.2,389.4z M812.2,388.3
	c0.5,0,0.9-0.2,1.1-0.5c0.3-0.4,0.4-0.8,0.4-1.4c0-0.6-0.1-1.1-0.4-1.4c-0.3-0.4-0.6-0.5-1.1-0.5c-0.5,0-0.9,0.2-1.1,0.5
	c-0.3,0.4-0.4,0.8-0.4,1.4c0,0.6,0.1,1.1,0.4,1.4C811.3,388.1,811.7,388.3,812.2,388.3z M816.8,389.3v-5.9h1.1l0.1,0.9h0
	c0.3-0.3,0.6-0.5,0.9-0.7c0.3-0.2,0.7-0.3,1.2-0.3c0.7,0,1.2,0.2,1.5,0.6c0.3,0.4,0.5,1,0.5,1.8v3.6h-1.4v-3.5c0-0.5-0.1-0.8-0.2-1
	c-0.2-0.2-0.4-0.3-0.8-0.3c-0.3,0-0.6,0.1-0.8,0.2c-0.2,0.1-0.5,0.3-0.7,0.6v4H816.8z M834.9,389.4c-0.4,0-0.8-0.1-1.1-0.2
	c-0.3-0.1-0.5-0.3-0.7-0.5c-0.2-0.2-0.3-0.5-0.4-0.8c-0.1-0.3-0.1-0.7-0.1-1v-2.4h-1.6v-1l1.6-0.1l0.2-1.8h1.1v1.8h2.7v1.1h-2.7v2.4
	c0,0.5,0.1,0.8,0.3,1.1c0.2,0.2,0.6,0.3,1.1,0.3c0.2,0,0.5,0,0.7-0.1c0.2-0.1,0.4-0.1,0.6-0.2l0.3,1c-0.3,0.1-0.5,0.2-0.9,0.2
	C835.6,389.4,835.3,389.4,834.9,389.4z M841,389.4c-0.4,0-0.7-0.1-1.1-0.2c-0.4-0.1-0.7-0.3-1-0.6c-0.3-0.3-0.5-0.6-0.7-1
	c-0.2-0.4-0.2-0.8-0.2-1.3c0-0.5,0.1-0.9,0.2-1.3c0.2-0.4,0.4-0.7,0.7-1c0.3-0.3,0.6-0.5,1-0.6c0.4-0.1,0.7-0.2,1.1-0.2
	c0.4,0,0.8,0.1,1.1,0.2c0.4,0.1,0.7,0.3,1,0.6c0.3,0.3,0.5,0.6,0.7,1c0.2,0.4,0.2,0.8,0.2,1.3c0,0.5-0.1,0.9-0.2,1.3
	c-0.2,0.4-0.4,0.7-0.7,1c-0.3,0.3-0.6,0.5-1,0.6C841.8,389.3,841.4,389.4,841,389.4z M841,388.3c0.5,0,0.9-0.2,1.1-0.5
	c0.3-0.4,0.4-0.8,0.4-1.4c0-0.6-0.1-1.1-0.4-1.4c-0.3-0.4-0.6-0.5-1.1-0.5c-0.5,0-0.9,0.2-1.1,0.5c-0.3,0.4-0.4,0.8-0.4,1.4
	c0,0.6,0.1,1.1,0.4,1.4C840.1,388.1,840.5,388.3,841,388.3z"/>
<path class="st4" d="M631.3,406.3v-4.8h-1.6v-1l1.6-0.1V400c0-0.3,0-0.7,0.1-1c0.1-0.3,0.3-0.6,0.5-0.8c0.2-0.2,0.5-0.4,0.8-0.5
	c0.3-0.1,0.7-0.2,1.1-0.2c0.3,0,0.6,0,0.9,0.1c0.3,0.1,0.6,0.1,0.8,0.2l-0.3,1c-0.2-0.1-0.4-0.2-0.6-0.2c-0.2,0-0.4-0.1-0.7-0.1
	c-0.5,0-0.8,0.1-1,0.3c-0.2,0.2-0.3,0.5-0.3,1v0.3h2.2v1.1h-2.2v4.8H631.3z M640.6,406.4c-0.7,0-1.2-0.2-1.6-0.6
	c-0.4-0.4-0.5-1-0.5-1.7v-5.2h-2v-1.1h3.3v6.4c0,0.4,0.1,0.7,0.3,0.9c0.2,0.2,0.5,0.2,0.8,0.2c0.3,0,0.7-0.1,1-0.2l0.3,1
	c-0.3,0.1-0.6,0.2-0.8,0.2C641.3,406.4,641,406.4,640.6,406.4z M645.8,406.4c-0.3,0-0.5,0-0.8-0.1c-0.2-0.1-0.4-0.2-0.6-0.3
	c-0.2-0.2-0.3-0.3-0.4-0.5c-0.1-0.2-0.1-0.5-0.1-0.7c0-0.3,0.1-0.6,0.2-0.9c0.2-0.3,0.4-0.5,0.7-0.6c0.3-0.2,0.8-0.3,1.3-0.4
	c0.5-0.1,1.1-0.2,1.9-0.2c0-0.3-0.1-0.6-0.4-0.8c-0.2-0.2-0.6-0.3-1-0.3c-0.3,0-0.7,0.1-1,0.2c-0.3,0.1-0.6,0.3-1,0.4l-0.5-0.9
	c0.4-0.2,0.8-0.4,1.2-0.6c0.5-0.2,1-0.3,1.5-0.2c0.8,0,1.4,0.2,1.9,0.7c0.4,0.4,0.7,1.1,0.7,1.9v3.5h-1.1l-0.1-0.7h0
	c-0.3,0.2-0.7,0.4-1,0.6C646.6,406.3,646.2,406.4,645.8,406.4z M646.2,405.3c0.3,0,0.6-0.1,0.9-0.2c0.3-0.1,0.6-0.3,0.8-0.5v-1.2
	c-0.5,0-1,0.1-1.3,0.2c-0.3,0.1-0.6,0.1-0.8,0.2c-0.2,0.1-0.4,0.2-0.5,0.4c-0.1,0.1-0.1,0.3-0.1,0.4c0,0.3,0.1,0.5,0.3,0.6
	C645.7,405.3,645.9,405.3,646.2,405.3z M654.9,406.4c-0.4,0-0.8-0.1-1.1-0.2c-0.3-0.1-0.5-0.3-0.7-0.5c-0.2-0.2-0.3-0.5-0.4-0.8
	c-0.1-0.3-0.1-0.7-0.1-1v-2.4h-1.6v-1l1.6-0.1l0.2-1.8h1.1v1.8h2.7v1.1h-2.7v2.4c0,0.5,0.1,0.8,0.3,1.1c0.2,0.2,0.6,0.3,1.1,0.3
	c0.2,0,0.5,0,0.7-0.1c0.2-0.1,0.4-0.1,0.6-0.2l0.3,1c-0.3,0.1-0.5,0.2-0.9,0.2C655.6,406.4,655.3,406.4,654.9,406.4z M669.3,406.4
	c-0.4,0-0.8-0.1-1.1-0.2c-0.3-0.1-0.5-0.3-0.7-0.5c-0.2-0.2-0.3-0.5-0.4-0.8c-0.1-0.3-0.1-0.7-0.1-1v-2.4h-1.6v-1l1.6-0.1l0.2-1.8
	h1.1v1.8h2.7v1.1h-2.7v2.4c0,0.5,0.1,0.8,0.3,1.1c0.2,0.2,0.6,0.3,1.1,0.3c0.2,0,0.5,0,0.7-0.1c0.2-0.1,0.4-0.1,0.6-0.2l0.3,1
	c-0.3,0.1-0.5,0.2-0.9,0.2C670,406.4,669.7,406.4,669.3,406.4z M672.8,406.3v-8.5h1.4v2.2l-0.1,1.2h0c0.3-0.3,0.6-0.5,0.9-0.7
	c0.3-0.2,0.7-0.3,1.2-0.3c0.7,0,1.2,0.2,1.5,0.6c0.3,0.4,0.5,1,0.5,1.8v3.6h-1.4v-3.5c0-0.5-0.1-0.8-0.2-1c-0.2-0.2-0.4-0.3-0.8-0.3
	c-0.3,0-0.6,0.1-0.8,0.2c-0.2,0.1-0.5,0.3-0.7,0.6v4H672.8z M683,406.4c-0.4,0-0.9-0.1-1.3-0.2c-0.4-0.1-0.7-0.3-1-0.6
	c-0.3-0.3-0.5-0.6-0.7-1c-0.2-0.4-0.2-0.8-0.2-1.3c0-0.5,0.1-0.9,0.2-1.3c0.2-0.4,0.4-0.7,0.7-1c0.3-0.3,0.6-0.5,1-0.6
	c0.4-0.1,0.7-0.2,1.1-0.2c0.4,0,0.8,0.1,1.2,0.2c0.3,0.1,0.6,0.3,0.9,0.6c0.2,0.2,0.4,0.5,0.5,0.9c0.1,0.3,0.2,0.7,0.2,1.1
	c0,0.1,0,0.3,0,0.4c0,0.1,0,0.2,0,0.3h-4.3c0.1,0.6,0.3,1,0.7,1.2c0.4,0.3,0.8,0.4,1.4,0.4c0.3,0,0.6,0,0.9-0.1
	c0.3-0.1,0.5-0.2,0.8-0.4l0.5,0.9c-0.3,0.2-0.7,0.4-1.1,0.5C683.8,406.3,683.4,406.4,683,406.4z M682.8,401.3
	c-0.4,0-0.8,0.1-1.1,0.4c-0.3,0.2-0.5,0.6-0.6,1.1h3.1c-0.1-0.5-0.2-0.8-0.5-1.1C683.6,401.4,683.2,401.3,682.8,401.3z M698.2,406.4
	c-0.7,0-1.2-0.2-1.6-0.6c-0.4-0.4-0.5-1-0.5-1.7v-5.2h-2v-1.1h3.3v6.4c0,0.4,0.1,0.7,0.3,0.9c0.2,0.2,0.5,0.2,0.8,0.2
	c0.3,0,0.7-0.1,1-0.2l0.3,1c-0.3,0.1-0.6,0.2-0.8,0.2C698.9,406.4,698.6,406.4,698.2,406.4z M704.6,406.4c-0.4,0-0.9-0.1-1.3-0.2
	c-0.4-0.1-0.7-0.3-1-0.6c-0.3-0.3-0.5-0.6-0.7-1c-0.2-0.4-0.2-0.8-0.2-1.3c0-0.5,0.1-0.9,0.2-1.3c0.2-0.4,0.4-0.7,0.7-1
	c0.3-0.3,0.6-0.5,1-0.6c0.4-0.1,0.7-0.2,1.1-0.2c0.4,0,0.8,0.1,1.2,0.2c0.3,0.1,0.6,0.3,0.9,0.6c0.2,0.2,0.4,0.5,0.5,0.9
	c0.1,0.3,0.2,0.7,0.2,1.1c0,0.1,0,0.3,0,0.4c0,0.1,0,0.2,0,0.3h-4.3c0.1,0.6,0.3,1,0.7,1.2c0.4,0.3,0.8,0.4,1.4,0.4
	c0.3,0,0.6,0,0.9-0.1c0.3-0.1,0.5-0.2,0.8-0.4l0.5,0.9c-0.3,0.2-0.7,0.4-1.1,0.5C705.4,406.3,705,406.4,704.6,406.4z M704.4,401.3
	c-0.4,0-0.8,0.1-1.1,0.4c-0.3,0.2-0.5,0.6-0.6,1.1h3.1c-0.1-0.5-0.2-0.8-0.5-1.1C705.2,401.4,704.8,401.3,704.4,401.3z M710.6,406.4
	c-0.3,0-0.5,0-0.8-0.1c-0.2-0.1-0.4-0.2-0.6-0.3c-0.2-0.2-0.3-0.3-0.4-0.5c-0.1-0.2-0.1-0.5-0.1-0.7c0-0.3,0.1-0.6,0.2-0.9
	c0.2-0.3,0.4-0.5,0.7-0.6c0.3-0.2,0.8-0.3,1.3-0.4c0.5-0.1,1.1-0.2,1.9-0.2c0-0.3-0.1-0.6-0.4-0.8c-0.2-0.2-0.6-0.3-1-0.3
	c-0.3,0-0.7,0.1-1,0.2c-0.3,0.1-0.6,0.3-1,0.4l-0.5-0.9c0.4-0.2,0.8-0.4,1.2-0.6c0.5-0.2,1-0.3,1.5-0.2c0.8,0,1.4,0.2,1.9,0.7
	c0.4,0.4,0.7,1.1,0.7,1.9v3.5H713l-0.1-0.7h0c-0.3,0.2-0.7,0.4-1,0.6C711.4,406.3,711,406.4,710.6,406.4z M711,405.3
	c0.3,0,0.6-0.1,0.9-0.2c0.3-0.1,0.6-0.3,0.8-0.5v-1.2c-0.5,0-1,0.1-1.3,0.2c-0.3,0.1-0.6,0.1-0.8,0.2c-0.2,0.1-0.4,0.2-0.5,0.4
	c-0.1,0.1-0.1,0.3-0.1,0.4c0,0.3,0.1,0.5,0.3,0.6C710.5,405.3,710.7,405.3,711,405.3z M716.6,406.3v-5.9h1.1l0.1,1.3h0
	c0.3-0.5,0.7-0.8,1.1-1.1c0.4-0.3,0.9-0.4,1.4-0.4c0.2,0,0.4,0,0.6,0.1c0.2,0,0.4,0.1,0.5,0.2l-0.3,1.2c-0.2-0.1-0.4-0.1-0.5-0.1
	c-0.1,0-0.3,0-0.6,0c-0.4,0-0.8,0.1-1.2,0.4c-0.4,0.2-0.7,0.6-1,1.2v3.2H716.6z M723.2,406.3v-5.9h1.1l0.1,0.9h0
	c0.3-0.3,0.6-0.5,0.9-0.7c0.3-0.2,0.7-0.3,1.2-0.3c0.7,0,1.2,0.2,1.5,0.6c0.3,0.4,0.5,1,0.5,1.8v3.6h-1.4v-3.5c0-0.5-0.1-0.8-0.2-1
	c-0.2-0.2-0.4-0.3-0.8-0.3c-0.3,0-0.6,0.1-0.8,0.2c-0.2,0.1-0.5,0.3-0.7,0.6v4H723.2z M733,406.3v-4.8h-2.5v-1.1h3.9v5.9H733z
	 M734,399.3c-0.3,0-0.5-0.1-0.7-0.2c-0.2-0.2-0.3-0.4-0.3-0.7c0-0.3,0.1-0.5,0.3-0.7c0.2-0.2,0.4-0.3,0.7-0.3c0.3,0,0.5,0.1,0.7,0.3
	c0.2,0.2,0.3,0.4,0.3,0.7c0,0.3-0.1,0.5-0.3,0.7C734.5,399.2,734.3,399.3,734,399.3z M737.6,406.3v-5.9h1.1l0.1,0.9h0
	c0.3-0.3,0.6-0.5,0.9-0.7c0.3-0.2,0.7-0.3,1.2-0.3c0.7,0,1.2,0.2,1.5,0.6c0.3,0.4,0.5,1,0.5,1.8v3.6h-1.4v-3.5c0-0.5-0.1-0.8-0.2-1
	c-0.2-0.2-0.4-0.3-0.8-0.3c-0.3,0-0.6,0.1-0.8,0.2c-0.2,0.1-0.5,0.3-0.7,0.6v4H737.6z M747.2,408.9c-0.4,0-0.8,0-1.1-0.1
	c-0.3-0.1-0.6-0.2-0.8-0.3c-0.2-0.1-0.4-0.3-0.5-0.5c-0.1-0.2-0.2-0.4-0.2-0.7c0-0.5,0.3-0.9,0.9-1.2v0c-0.2-0.1-0.3-0.2-0.4-0.4
	c-0.1-0.2-0.2-0.4-0.2-0.6c0-0.2,0.1-0.4,0.2-0.6c0.1-0.2,0.3-0.4,0.5-0.5v0c-0.2-0.1-0.4-0.3-0.5-0.6c-0.1-0.3-0.2-0.6-0.2-0.9
	c0-0.3,0.1-0.6,0.2-0.9c0.1-0.3,0.3-0.5,0.5-0.7c0.2-0.2,0.5-0.3,0.8-0.4c0.3-0.1,0.6-0.1,0.9-0.1c0.3,0,0.6,0,0.9,0.1h2.4v1h-1.4
	c0.1,0.1,0.2,0.3,0.3,0.4c0.1,0.2,0.1,0.3,0.1,0.5c0,0.3-0.1,0.6-0.2,0.9c-0.1,0.2-0.3,0.5-0.5,0.6c-0.2,0.2-0.5,0.3-0.8,0.4
	c-0.3,0.1-0.6,0.1-0.9,0.1c-0.3,0-0.6-0.1-0.9-0.2c-0.2,0.1-0.4,0.3-0.4,0.6c0,0.4,0.4,0.5,1.1,0.5h1.2c0.8,0,1.3,0.1,1.7,0.3
	c0.4,0.2,0.6,0.6,0.6,1.1c0,0.3-0.1,0.6-0.2,0.8c-0.2,0.3-0.4,0.5-0.7,0.7c-0.3,0.2-0.6,0.3-1.1,0.4
	C748.2,408.8,747.8,408.9,747.2,408.9z M747.3,403.5c0.3,0,0.6-0.1,0.8-0.3c0.2-0.2,0.3-0.5,0.3-0.9c0-0.4-0.1-0.7-0.3-0.9
	c-0.2-0.2-0.5-0.3-0.8-0.3c-0.3,0-0.6,0.1-0.8,0.3c-0.2,0.2-0.3,0.5-0.3,0.9c0,0.4,0.1,0.7,0.3,0.9
	C746.7,403.4,747,403.5,747.3,403.5z M747.4,407.9c0.3,0,0.6,0,0.8-0.1c0.2-0.1,0.4-0.1,0.6-0.2c0.2-0.1,0.3-0.2,0.4-0.3
	c0.1-0.1,0.1-0.2,0.1-0.3c0-0.2-0.1-0.4-0.3-0.5c-0.2-0.1-0.5-0.1-0.9-0.1h-0.9c-0.4,0-0.7,0-0.9-0.1c-0.2,0.1-0.4,0.2-0.5,0.4
	c-0.1,0.1-0.1,0.3-0.1,0.4c0,0.3,0.1,0.5,0.4,0.6C746.4,407.9,746.8,407.9,747.4,407.9z M762.3,406.4c-0.5,0-0.9-0.1-1.3-0.2
	c-0.4-0.1-0.7-0.3-1-0.6c-0.3-0.3-0.5-0.6-0.7-1c-0.2-0.4-0.2-0.8-0.2-1.3c0-0.5,0.1-0.9,0.3-1.3c0.2-0.4,0.4-0.7,0.7-1
	c0.3-0.3,0.7-0.5,1.1-0.6c0.4-0.1,0.8-0.2,1.3-0.2c0.5,0,0.9,0.1,1.3,0.2c0.4,0.2,0.7,0.4,0.9,0.6l-0.7,0.9
	c-0.2-0.2-0.5-0.3-0.7-0.4c-0.2-0.1-0.5-0.1-0.8-0.1c-0.6,0-1.1,0.2-1.5,0.5c-0.4,0.4-0.5,0.8-0.5,1.4c0,0.3,0,0.6,0.1,0.8
	c0.1,0.2,0.2,0.4,0.4,0.6c0.2,0.2,0.4,0.3,0.6,0.4c0.2,0.1,0.5,0.1,0.8,0.1c0.3,0,0.6-0.1,0.9-0.2c0.3-0.1,0.5-0.3,0.8-0.5l0.6,0.9
	c-0.3,0.3-0.7,0.5-1.1,0.7C763.2,406.3,762.8,406.4,762.3,406.4z M768.2,406.4c-0.7,0-1.2-0.2-1.5-0.6c-0.3-0.4-0.5-1-0.5-1.8v-3.6
	h1.4v3.5c0,0.5,0.1,0.8,0.2,1c0.2,0.2,0.5,0.3,0.9,0.3c0.3,0,0.5-0.1,0.8-0.2c0.2-0.1,0.5-0.4,0.7-0.7v-4h1.4v5.9h-1.1l-0.1-0.9h0
	c-0.3,0.3-0.6,0.6-0.9,0.8C769,406.3,768.7,406.4,768.2,406.4z M774.2,406.3v-5.9h1.1l0.1,1.3h0c0.3-0.5,0.7-0.8,1.1-1.1
	c0.4-0.3,0.9-0.4,1.4-0.4c0.2,0,0.4,0,0.6,0.1c0.2,0,0.4,0.1,0.5,0.2l-0.3,1.2c-0.2-0.1-0.4-0.1-0.5-0.1c-0.1,0-0.3,0-0.6,0
	c-0.4,0-0.8,0.1-1.2,0.4c-0.4,0.2-0.7,0.6-1,1.2v3.2H774.2z M782.7,406.3l-2.4-5.9h1.4l1.1,3.1c0.1,0.3,0.2,0.6,0.3,0.9
	c0.1,0.3,0.2,0.6,0.3,0.9h0c0.1-0.3,0.2-0.6,0.3-0.9c0.1-0.3,0.2-0.6,0.3-0.9l1.1-3.1h1.3l-2.3,5.9H782.7z M791,406.4
	c-0.4,0-0.9-0.1-1.3-0.2c-0.4-0.1-0.7-0.3-1-0.6c-0.3-0.3-0.5-0.6-0.7-1c-0.2-0.4-0.2-0.8-0.2-1.3c0-0.5,0.1-0.9,0.2-1.3
	c0.2-0.4,0.4-0.7,0.7-1c0.3-0.3,0.6-0.5,1-0.6c0.4-0.1,0.7-0.2,1.1-0.2c0.4,0,0.8,0.1,1.2,0.2c0.3,0.1,0.6,0.3,0.9,0.6
	c0.2,0.2,0.4,0.5,0.5,0.9c0.1,0.3,0.2,0.7,0.2,1.1c0,0.1,0,0.3,0,0.4c0,0.1,0,0.2,0,0.3h-4.3c0.1,0.6,0.3,1,0.7,1.2
	c0.4,0.3,0.8,0.4,1.4,0.4c0.3,0,0.6,0,0.9-0.1c0.3-0.1,0.5-0.2,0.8-0.4l0.5,0.9c-0.3,0.2-0.7,0.4-1.1,0.5
	C791.8,406.3,791.4,406.4,791,406.4z M790.8,401.3c-0.4,0-0.8,0.1-1.1,0.4c-0.3,0.2-0.5,0.6-0.6,1.1h3.1c-0.1-0.5-0.2-0.8-0.5-1.1
	C791.6,401.4,791.2,401.3,790.8,401.3z M804.1,406.3v-4.8h-1.6v-1l1.6-0.1V400c0-0.3,0-0.7,0.1-1c0.1-0.3,0.3-0.6,0.5-0.8
	c0.2-0.2,0.5-0.4,0.8-0.5c0.3-0.1,0.7-0.2,1.1-0.2c0.3,0,0.6,0,0.9,0.1c0.3,0.1,0.6,0.1,0.8,0.2l-0.3,1c-0.2-0.1-0.4-0.2-0.6-0.2
	c-0.2,0-0.4-0.1-0.7-0.1c-0.5,0-0.8,0.1-1,0.3c-0.2,0.2-0.3,0.5-0.3,1v0.3h2.2v1.1h-2.2v4.8H804.1z M812.2,406.4
	c-0.4,0-0.7-0.1-1.1-0.2c-0.4-0.1-0.7-0.3-1-0.6c-0.3-0.3-0.5-0.6-0.7-1c-0.2-0.4-0.2-0.8-0.2-1.3c0-0.5,0.1-0.9,0.2-1.3
	c0.2-0.4,0.4-0.7,0.7-1c0.3-0.3,0.6-0.5,1-0.6c0.4-0.1,0.7-0.2,1.1-0.2c0.4,0,0.8,0.1,1.1,0.2c0.4,0.1,0.7,0.3,1,0.6
	c0.3,0.3,0.5,0.6,0.7,1c0.2,0.4,0.2,0.8,0.2,1.3c0,0.5-0.1,0.9-0.2,1.3c-0.2,0.4-0.4,0.7-0.7,1c-0.3,0.3-0.6,0.5-1,0.6
	C813,406.3,812.6,406.4,812.2,406.4z M812.2,405.3c0.5,0,0.9-0.2,1.1-0.5c0.3-0.4,0.4-0.8,0.4-1.4c0-0.6-0.1-1.1-0.4-1.4
	c-0.3-0.4-0.6-0.5-1.1-0.5c-0.5,0-0.9,0.2-1.1,0.5c-0.3,0.4-0.4,0.8-0.4,1.4c0,0.6,0.1,1.1,0.4,1.4
	C811.3,405.1,811.7,405.3,812.2,405.3z M817.4,406.3v-5.9h1.1l0.1,1.3h0c0.3-0.5,0.7-0.8,1.1-1.1c0.4-0.3,0.9-0.4,1.4-0.4
	c0.2,0,0.4,0,0.6,0.1c0.2,0,0.4,0.1,0.5,0.2l-0.3,1.2c-0.2-0.1-0.4-0.1-0.5-0.1c-0.1,0-0.3,0-0.6,0c-0.4,0-0.8,0.1-1.2,0.4
	c-0.4,0.2-0.7,0.6-1,1.2v3.2H817.4z M831.2,406.3v-5.9h1.1l0.1,0.9h0c0.3-0.3,0.6-0.5,0.9-0.7c0.3-0.2,0.7-0.3,1.2-0.3
	c0.7,0,1.2,0.2,1.5,0.6c0.3,0.4,0.5,1,0.5,1.8v3.6h-1.4v-3.5c0-0.5-0.1-0.8-0.2-1c-0.2-0.2-0.4-0.3-0.8-0.3c-0.3,0-0.6,0.1-0.8,0.2
	c-0.2,0.1-0.5,0.3-0.7,0.6v4H831.2z M841.4,406.4c-0.4,0-0.9-0.1-1.3-0.2c-0.4-0.1-0.7-0.3-1-0.6c-0.3-0.3-0.5-0.6-0.7-1
	c-0.2-0.4-0.2-0.8-0.2-1.3c0-0.5,0.1-0.9,0.2-1.3c0.2-0.4,0.4-0.7,0.7-1c0.3-0.3,0.6-0.5,1-0.6c0.4-0.1,0.7-0.2,1.1-0.2
	c0.4,0,0.8,0.1,1.2,0.2c0.3,0.1,0.6,0.3,0.9,0.6c0.2,0.2,0.4,0.5,0.5,0.9c0.1,0.3,0.2,0.7,0.2,1.1c0,0.1,0,0.3,0,0.4
	c0,0.1,0,0.2,0,0.3h-4.3c0.1,0.6,0.3,1,0.7,1.2c0.4,0.3,0.8,0.4,1.4,0.4c0.3,0,0.6,0,0.9-0.1c0.3-0.1,0.5-0.2,0.8-0.4l0.5,0.9
	c-0.3,0.2-0.7,0.4-1.1,0.5C842.2,406.3,841.8,406.4,841.4,406.4z M841.2,401.3c-0.4,0-0.8,0.1-1.1,0.4c-0.3,0.2-0.5,0.6-0.6,1.1h3.1
	c-0.1-0.5-0.2-0.8-0.5-1.1C842,401.4,841.6,401.3,841.2,401.3z M845.8,406.3l-1.1-5.9h1.3l0.5,3.1c0,0.3,0.1,0.6,0.1,0.8
	c0,0.3,0.1,0.6,0.1,0.8h0c0-0.3,0.1-0.6,0.1-0.8c0.1-0.3,0.1-0.6,0.2-0.8l0.5-2.5h1.1l0.5,2.5c0.1,0.3,0.1,0.6,0.2,0.8
	c0.1,0.3,0.1,0.6,0.2,0.8h0c0-0.3,0.1-0.6,0.1-0.8c0-0.3,0.1-0.6,0.1-0.8l0.5-3.1h1.3l-1.1,5.9H849l-0.5-2.4c-0.1-0.5-0.2-1-0.2-1.7
	h0c0,0.3-0.1,0.6-0.1,0.9c0,0.3-0.1,0.6-0.1,0.8l-0.5,2.4H845.8z"/>
<path class="st4" d="M631.4,423.4c-0.7,0-1.2-0.2-1.5-0.6c-0.3-0.4-0.5-1-0.5-1.8v-3.6h1.4v3.5c0,0.5,0.1,0.8,0.2,1
	c0.2,0.2,0.5,0.3,0.9,0.3c0.3,0,0.5-0.1,0.8-0.2c0.2-0.1,0.5-0.4,0.7-0.7v-4h1.4v5.9h-1.1l-0.1-0.9h0c-0.3,0.3-0.6,0.6-0.9,0.8
	C632.2,423.3,631.9,423.4,631.4,423.4z M639.4,423.4c-0.6,0-1.1-0.1-1.6-0.3c-0.5-0.2-0.9-0.4-1.3-0.6l0.6-0.9
	c0.4,0.2,0.7,0.4,1.1,0.5c0.4,0.1,0.8,0.2,1.3,0.2c0.4,0,0.7-0.1,0.9-0.2c0.2-0.1,0.3-0.3,0.3-0.5c0-0.1,0-0.2-0.1-0.2
	c0-0.1-0.1-0.2-0.2-0.2c-0.1-0.1-0.3-0.1-0.5-0.2c-0.2-0.1-0.5-0.1-0.8-0.2c-0.8-0.2-1.4-0.4-1.7-0.7c-0.4-0.3-0.5-0.7-0.5-1.1
	c0-0.5,0.2-0.9,0.7-1.3c0.4-0.3,1.1-0.5,1.9-0.5c0.5,0,0.9,0.1,1.4,0.2c0.4,0.2,0.8,0.3,1.1,0.5l-0.6,0.8c-0.3-0.2-0.6-0.3-0.9-0.4
	c-0.3-0.1-0.7-0.2-1-0.2c-0.4,0-0.7,0.1-0.8,0.2c-0.2,0.1-0.2,0.3-0.2,0.5c0,0.2,0.1,0.4,0.4,0.5c0.2,0.1,0.6,0.2,1.2,0.3
	c0.5,0.1,0.9,0.2,1.2,0.3c0.3,0.1,0.5,0.2,0.7,0.4c0.2,0.1,0.3,0.3,0.4,0.5c0.1,0.2,0.1,0.4,0.1,0.6c0,0.3-0.1,0.5-0.2,0.7
	c-0.1,0.2-0.3,0.4-0.5,0.6c-0.2,0.2-0.5,0.3-0.9,0.4C640.3,423.3,639.9,423.4,639.4,423.4z M647,423.4c-0.4,0-0.9-0.1-1.3-0.2
	c-0.4-0.1-0.7-0.3-1-0.6c-0.3-0.3-0.5-0.6-0.7-1c-0.2-0.4-0.2-0.8-0.2-1.3c0-0.5,0.1-0.9,0.2-1.3c0.2-0.4,0.4-0.7,0.7-1
	c0.3-0.3,0.6-0.5,1-0.6c0.4-0.1,0.7-0.2,1.1-0.2c0.4,0,0.8,0.1,1.2,0.2c0.3,0.1,0.6,0.3,0.9,0.6c0.2,0.2,0.4,0.5,0.5,0.9
	c0.1,0.3,0.2,0.7,0.2,1.1c0,0.1,0,0.3,0,0.4c0,0.1,0,0.2,0,0.3h-4.3c0.1,0.6,0.3,1,0.7,1.2c0.4,0.3,0.8,0.4,1.4,0.4
	c0.3,0,0.6,0,0.9-0.1c0.3-0.1,0.5-0.2,0.8-0.4l0.5,0.9c-0.3,0.2-0.7,0.4-1.1,0.5C647.8,423.3,647.4,423.4,647,423.4z M646.8,418.3
	c-0.4,0-0.8,0.1-1.1,0.4c-0.3,0.2-0.5,0.6-0.6,1.1h3.1c-0.1-0.5-0.2-0.8-0.5-1.1C647.6,418.4,647.2,418.3,646.8,418.3z M651.8,423.3
	v-5.9h1.1l0.1,1.3h0c0.3-0.5,0.7-0.8,1.1-1.1c0.4-0.3,0.9-0.4,1.4-0.4c0.2,0,0.4,0,0.6,0.1c0.2,0,0.4,0.1,0.5,0.2l-0.3,1.2
	c-0.2-0.1-0.4-0.1-0.5-0.1c-0.1,0-0.3,0-0.6,0c-0.4,0-0.8,0.1-1.2,0.4c-0.4,0.2-0.7,0.6-1,1.2v3.2H651.8z M666.2,423.3v-5.9h1.1
	l0.1,1.3h0c0.3-0.5,0.7-0.8,1.1-1.1c0.4-0.3,0.9-0.4,1.4-0.4c0.2,0,0.4,0,0.6,0.1c0.2,0,0.4,0.1,0.5,0.2l-0.3,1.2
	c-0.2-0.1-0.4-0.1-0.5-0.1c-0.1,0-0.3,0-0.6,0c-0.4,0-0.8,0.1-1.2,0.4c-0.4,0.2-0.7,0.6-1,1.2v3.2H666.2z M675.8,423.4
	c-0.4,0-0.9-0.1-1.3-0.2c-0.4-0.1-0.7-0.3-1-0.6c-0.3-0.3-0.5-0.6-0.7-1c-0.2-0.4-0.2-0.8-0.2-1.3c0-0.5,0.1-0.9,0.2-1.3
	c0.2-0.4,0.4-0.7,0.7-1c0.3-0.3,0.6-0.5,1-0.6c0.4-0.1,0.7-0.2,1.1-0.2c0.4,0,0.8,0.1,1.2,0.2c0.3,0.1,0.6,0.3,0.9,0.6
	c0.2,0.2,0.4,0.5,0.5,0.9c0.1,0.3,0.2,0.7,0.2,1.1c0,0.1,0,0.3,0,0.4c0,0.1,0,0.2,0,0.3h-4.3c0.1,0.6,0.3,1,0.7,1.2
	c0.4,0.3,0.8,0.4,1.4,0.4c0.3,0,0.6,0,0.9-0.1c0.3-0.1,0.5-0.2,0.8-0.4l0.5,0.9c-0.3,0.2-0.7,0.4-1.1,0.5
	C676.6,423.3,676.2,423.4,675.8,423.4z M675.6,418.3c-0.4,0-0.8,0.1-1.1,0.4c-0.3,0.2-0.5,0.6-0.6,1.1h3.1c-0.1-0.5-0.2-0.8-0.5-1.1
	C676.4,418.4,676,418.3,675.6,418.3z M683.1,423.4c-0.5,0-0.9-0.1-1.3-0.2c-0.4-0.1-0.7-0.3-1-0.6c-0.3-0.3-0.5-0.6-0.7-1
	c-0.2-0.4-0.2-0.8-0.2-1.3c0-0.5,0.1-0.9,0.3-1.3c0.2-0.4,0.4-0.7,0.7-1c0.3-0.3,0.7-0.5,1.1-0.6c0.4-0.1,0.8-0.2,1.3-0.2
	c0.5,0,0.9,0.1,1.3,0.2c0.4,0.2,0.7,0.4,0.9,0.6l-0.7,0.9c-0.2-0.2-0.5-0.3-0.7-0.4c-0.2-0.1-0.5-0.1-0.8-0.1
	c-0.6,0-1.1,0.2-1.5,0.5c-0.4,0.4-0.5,0.8-0.5,1.4c0,0.3,0,0.6,0.1,0.8c0.1,0.2,0.2,0.4,0.4,0.6c0.2,0.2,0.4,0.3,0.6,0.4
	c0.2,0.1,0.5,0.1,0.8,0.1c0.3,0,0.6-0.1,0.9-0.2c0.3-0.1,0.5-0.3,0.8-0.5l0.6,0.9c-0.3,0.3-0.7,0.5-1.1,0.7
	C684,423.3,683.6,423.4,683.1,423.4z M689.8,423.4c-0.4,0-0.7-0.1-1.1-0.2c-0.4-0.1-0.7-0.3-1-0.6c-0.3-0.3-0.5-0.6-0.7-1
	c-0.2-0.4-0.2-0.8-0.2-1.3c0-0.5,0.1-0.9,0.2-1.3c0.2-0.4,0.4-0.7,0.7-1c0.3-0.3,0.6-0.5,1-0.6c0.4-0.1,0.7-0.2,1.1-0.2
	c0.4,0,0.8,0.1,1.1,0.2c0.4,0.1,0.7,0.3,1,0.6c0.3,0.3,0.5,0.6,0.7,1c0.2,0.4,0.2,0.8,0.2,1.3c0,0.5-0.1,0.9-0.2,1.3
	c-0.2,0.4-0.4,0.7-0.7,1c-0.3,0.3-0.6,0.5-1,0.6C690.6,423.3,690.2,423.4,689.8,423.4z M689.8,422.3c0.5,0,0.9-0.2,1.1-0.5
	c0.3-0.4,0.4-0.8,0.4-1.4c0-0.6-0.1-1.1-0.4-1.4c-0.3-0.4-0.6-0.5-1.1-0.5c-0.5,0-0.9,0.2-1.1,0.5c-0.3,0.4-0.4,0.8-0.4,1.4
	c0,0.6,0.1,1.1,0.4,1.4C688.9,422.1,689.3,422.3,689.8,422.3z M696.8,425.9c-0.4,0-0.8,0-1.1-0.1c-0.3-0.1-0.6-0.2-0.8-0.3
	c-0.2-0.1-0.4-0.3-0.5-0.5c-0.1-0.2-0.2-0.4-0.2-0.7c0-0.5,0.3-0.9,0.9-1.2v0c-0.2-0.1-0.3-0.2-0.4-0.4c-0.1-0.2-0.2-0.4-0.2-0.6
	c0-0.2,0.1-0.4,0.2-0.6c0.1-0.2,0.3-0.4,0.5-0.5v0c-0.2-0.1-0.4-0.3-0.5-0.6c-0.1-0.3-0.2-0.6-0.2-0.9c0-0.3,0.1-0.6,0.2-0.9
	c0.1-0.3,0.3-0.5,0.5-0.7c0.2-0.2,0.5-0.3,0.8-0.4c0.3-0.1,0.6-0.1,0.9-0.1c0.3,0,0.6,0,0.9,0.1h2.4v1h-1.4c0.1,0.1,0.2,0.3,0.3,0.4
	c0.1,0.2,0.1,0.3,0.1,0.5c0,0.3-0.1,0.6-0.2,0.9c-0.1,0.2-0.3,0.5-0.5,0.6c-0.2,0.2-0.5,0.3-0.8,0.4c-0.3,0.1-0.6,0.1-0.9,0.1
	c-0.3,0-0.6-0.1-0.9-0.2c-0.2,0.1-0.4,0.3-0.4,0.6c0,0.4,0.4,0.5,1.1,0.5h1.2c0.8,0,1.3,0.1,1.7,0.3c0.4,0.2,0.6,0.6,0.6,1.1
	c0,0.3-0.1,0.6-0.2,0.8c-0.2,0.3-0.4,0.5-0.7,0.7c-0.3,0.2-0.6,0.3-1.1,0.4C697.8,425.8,697.4,425.9,696.8,425.9z M696.9,420.5
	c0.3,0,0.6-0.1,0.8-0.3c0.2-0.2,0.3-0.5,0.3-0.9c0-0.4-0.1-0.7-0.3-0.9c-0.2-0.2-0.5-0.3-0.8-0.3c-0.3,0-0.6,0.1-0.8,0.3
	c-0.2,0.2-0.3,0.5-0.3,0.9c0,0.4,0.1,0.7,0.3,0.9C696.3,420.4,696.6,420.5,696.9,420.5z M697,424.9c0.3,0,0.6,0,0.8-0.1
	c0.2-0.1,0.4-0.1,0.6-0.2c0.2-0.1,0.3-0.2,0.4-0.3c0.1-0.1,0.1-0.2,0.1-0.3c0-0.2-0.1-0.4-0.3-0.5c-0.2-0.1-0.5-0.1-0.9-0.1h-0.9
	c-0.4,0-0.7,0-0.9-0.1c-0.2,0.1-0.4,0.2-0.5,0.4c-0.1,0.1-0.1,0.3-0.1,0.4c0,0.3,0.1,0.5,0.4,0.6C696,424.9,696.4,424.9,697,424.9z
	 M701.6,423.3v-5.9h1.1l0.1,0.9h0c0.3-0.3,0.6-0.5,0.9-0.7c0.3-0.2,0.7-0.3,1.2-0.3c0.7,0,1.2,0.2,1.5,0.6c0.3,0.4,0.5,1,0.5,1.8
	v3.6h-1.4v-3.5c0-0.5-0.1-0.8-0.2-1c-0.2-0.2-0.4-0.3-0.8-0.3c-0.3,0-0.6,0.1-0.8,0.2c-0.2,0.1-0.5,0.3-0.7,0.6v4H701.6z
	 M711.4,423.3v-4.8h-2.5v-1.1h3.9v5.9H711.4z M712.4,416.3c-0.3,0-0.5-0.1-0.7-0.2c-0.2-0.2-0.3-0.4-0.3-0.7c0-0.3,0.1-0.5,0.3-0.7
	c0.2-0.2,0.4-0.3,0.7-0.3c0.3,0,0.5,0.1,0.7,0.3c0.2,0.2,0.3,0.4,0.3,0.7c0,0.3-0.1,0.5-0.3,0.7
	C712.9,416.2,712.7,416.3,712.4,416.3z M715.9,423.3v-0.8l3.5-4h-3.1v-1.1h5.1v0.7l-3.6,4h3.7v1.1H715.9z M725.8,423.3v-4.8h-2.5
	v-1.1h3.9v5.9H725.8z M726.8,416.3c-0.3,0-0.5-0.1-0.7-0.2c-0.2-0.2-0.3-0.4-0.3-0.7c0-0.3,0.1-0.5,0.3-0.7c0.2-0.2,0.4-0.3,0.7-0.3
	c0.3,0,0.5,0.1,0.7,0.3c0.2,0.2,0.3,0.4,0.3,0.7c0,0.3-0.1,0.5-0.3,0.7C727.3,416.2,727.1,416.3,726.8,416.3z M730.4,423.3v-5.9h1.1
	l0.1,0.9h0c0.3-0.3,0.6-0.5,0.9-0.7c0.3-0.2,0.7-0.3,1.2-0.3c0.7,0,1.2,0.2,1.5,0.6c0.3,0.4,0.5,1,0.5,1.8v3.6h-1.4v-3.5
	c0-0.5-0.1-0.8-0.2-1c-0.2-0.2-0.4-0.3-0.8-0.3c-0.3,0-0.6,0.1-0.8,0.2c-0.2,0.1-0.5,0.3-0.7,0.6v4H730.4z M740,425.9
	c-0.4,0-0.8,0-1.1-0.1c-0.3-0.1-0.6-0.2-0.8-0.3c-0.2-0.1-0.4-0.3-0.5-0.5c-0.1-0.2-0.2-0.4-0.2-0.7c0-0.5,0.3-0.9,0.9-1.2v0
	c-0.2-0.1-0.3-0.2-0.4-0.4c-0.1-0.2-0.2-0.4-0.2-0.6c0-0.2,0.1-0.4,0.2-0.6c0.1-0.2,0.3-0.4,0.5-0.5v0c-0.2-0.1-0.4-0.3-0.5-0.6
	c-0.1-0.3-0.2-0.6-0.2-0.9c0-0.3,0.1-0.6,0.2-0.9c0.1-0.3,0.3-0.5,0.5-0.7c0.2-0.2,0.5-0.3,0.8-0.4c0.3-0.1,0.6-0.1,0.9-0.1
	c0.3,0,0.6,0,0.9,0.1h2.4v1H742c0.1,0.1,0.2,0.3,0.3,0.4c0.1,0.2,0.1,0.3,0.1,0.5c0,0.3-0.1,0.6-0.2,0.9c-0.1,0.2-0.3,0.5-0.5,0.6
	c-0.2,0.2-0.5,0.3-0.8,0.4c-0.3,0.1-0.6,0.1-0.9,0.1c-0.3,0-0.6-0.1-0.9-0.2c-0.2,0.1-0.4,0.3-0.4,0.6c0,0.4,0.4,0.5,1.1,0.5h1.2
	c0.8,0,1.3,0.1,1.7,0.3c0.4,0.2,0.6,0.6,0.6,1.1c0,0.3-0.1,0.6-0.2,0.8c-0.2,0.3-0.4,0.5-0.7,0.7c-0.3,0.2-0.6,0.3-1.1,0.4
	C741,425.8,740.6,425.9,740,425.9z M740.1,420.5c0.3,0,0.6-0.1,0.8-0.3c0.2-0.2,0.3-0.5,0.3-0.9c0-0.4-0.1-0.7-0.3-0.9
	c-0.2-0.2-0.5-0.3-0.8-0.3c-0.3,0-0.6,0.1-0.8,0.3c-0.2,0.2-0.3,0.5-0.3,0.9c0,0.4,0.1,0.7,0.3,0.9
	C739.5,420.4,739.8,420.5,740.1,420.5z M740.2,424.9c0.3,0,0.6,0,0.8-0.1c0.2-0.1,0.4-0.1,0.6-0.2c0.2-0.1,0.3-0.2,0.4-0.3
	c0.1-0.1,0.1-0.2,0.1-0.3c0-0.2-0.1-0.4-0.3-0.5c-0.2-0.1-0.5-0.1-0.9-0.1H740c-0.4,0-0.7,0-0.9-0.1c-0.2,0.1-0.4,0.2-0.5,0.4
	c-0.1,0.1-0.1,0.3-0.1,0.4c0,0.3,0.1,0.5,0.4,0.6C739.2,424.9,739.6,424.9,740.2,424.9z M755.7,423.4c-0.4,0-0.8-0.1-1.1-0.2
	c-0.3-0.1-0.5-0.3-0.7-0.5c-0.2-0.2-0.3-0.5-0.4-0.8c-0.1-0.3-0.1-0.7-0.1-1v-2.4h-1.6v-1l1.6-0.1l0.2-1.8h1.1v1.8h2.7v1.1h-2.7v2.4
	c0,0.5,0.1,0.8,0.3,1.1c0.2,0.2,0.6,0.3,1.1,0.3c0.2,0,0.5,0,0.7-0.1c0.2-0.1,0.4-0.1,0.6-0.2l0.3,1c-0.3,0.1-0.5,0.2-0.9,0.2
	C756.4,423.4,756.1,423.4,755.7,423.4z M759.2,423.3v-8.5h1.4v2.2l-0.1,1.2h0c0.3-0.3,0.6-0.5,0.9-0.7c0.3-0.2,0.7-0.3,1.2-0.3
	c0.7,0,1.2,0.2,1.5,0.6c0.3,0.4,0.5,1,0.5,1.8v3.6h-1.4v-3.5c0-0.5-0.1-0.8-0.2-1c-0.2-0.2-0.4-0.3-0.8-0.3c-0.3,0-0.6,0.1-0.8,0.2
	c-0.2,0.1-0.5,0.3-0.7,0.6v4H759.2z M769.4,423.4c-0.4,0-0.9-0.1-1.3-0.2c-0.4-0.1-0.7-0.3-1-0.6c-0.3-0.3-0.5-0.6-0.7-1
	c-0.2-0.4-0.2-0.8-0.2-1.3c0-0.5,0.1-0.9,0.2-1.3c0.2-0.4,0.4-0.7,0.7-1c0.3-0.3,0.6-0.5,1-0.6c0.4-0.1,0.7-0.2,1.1-0.2
	c0.4,0,0.8,0.1,1.2,0.2c0.3,0.1,0.6,0.3,0.9,0.6c0.2,0.2,0.4,0.5,0.5,0.9c0.1,0.3,0.2,0.7,0.2,1.1c0,0.1,0,0.3,0,0.4
	c0,0.1,0,0.2,0,0.3h-4.3c0.1,0.6,0.3,1,0.7,1.2c0.4,0.3,0.8,0.4,1.4,0.4c0.3,0,0.6,0,0.9-0.1c0.3-0.1,0.5-0.2,0.8-0.4l0.5,0.9
	c-0.3,0.2-0.7,0.4-1.1,0.5C770.2,423.3,769.8,423.4,769.4,423.4z M769.2,418.3c-0.4,0-0.8,0.1-1.1,0.4c-0.3,0.2-0.5,0.6-0.6,1.1h3.1
	c-0.1-0.5-0.2-0.8-0.5-1.1C770,418.4,769.6,418.3,769.2,418.3z M783,423.4c-0.4,0-0.7-0.1-1-0.2c-0.3-0.1-0.6-0.3-0.8-0.6
	c-0.2-0.3-0.4-0.6-0.5-1c-0.1-0.4-0.2-0.8-0.2-1.3c0-0.5,0.1-0.9,0.2-1.3c0.1-0.4,0.3-0.7,0.6-1c0.2-0.3,0.5-0.5,0.8-0.6
	c0.3-0.1,0.6-0.2,1-0.2c0.3,0,0.6,0.1,0.9,0.2c0.3,0.1,0.5,0.3,0.7,0.5h0l-0.1-1v-2.1h1.4v8.5h-1.1l-0.1-0.7h0
	c-0.2,0.2-0.5,0.4-0.8,0.6C783.6,423.3,783.3,423.4,783,423.4z M783.3,422.3c0.5,0,0.9-0.2,1.3-0.7v-2.7c-0.2-0.2-0.4-0.3-0.6-0.4
	c-0.2-0.1-0.4-0.1-0.6-0.1c-0.2,0-0.4,0-0.6,0.1c-0.2,0.1-0.3,0.2-0.5,0.4c-0.1,0.2-0.2,0.4-0.3,0.6c-0.1,0.2-0.1,0.5-0.1,0.8
	c0,0.6,0.1,1.1,0.4,1.5C782.5,422.1,782.8,422.3,783.3,422.3z M790.6,423.3v-4.8H788v-1.1h3.9v5.9H790.6z M791.6,416.3
	c-0.3,0-0.5-0.1-0.7-0.2c-0.2-0.2-0.3-0.4-0.3-0.7c0-0.3,0.1-0.5,0.3-0.7c0.2-0.2,0.4-0.3,0.7-0.3c0.3,0,0.5,0.1,0.7,0.3
	c0.2,0.2,0.3,0.4,0.3,0.7c0,0.3-0.1,0.5-0.3,0.7C792.1,416.2,791.9,416.3,791.6,416.3z M796.9,423.3v-4.8h-1.6v-1l1.6-0.1V417
	c0-0.3,0-0.7,0.1-1c0.1-0.3,0.3-0.6,0.5-0.8c0.2-0.2,0.5-0.4,0.8-0.5c0.3-0.1,0.7-0.2,1.1-0.2c0.3,0,0.6,0,0.9,0.1
	c0.3,0.1,0.6,0.1,0.8,0.2l-0.3,1c-0.2-0.1-0.4-0.2-0.6-0.2c-0.2,0-0.4-0.1-0.7-0.1c-0.5,0-0.8,0.1-1,0.3c-0.2,0.2-0.3,0.5-0.3,1v0.3
	h2.2v1.1h-2.2v4.8H796.9z M804.1,423.3v-4.8h-1.6v-1l1.6-0.1V417c0-0.3,0-0.7,0.1-1c0.1-0.3,0.3-0.6,0.5-0.8
	c0.2-0.2,0.5-0.4,0.8-0.5c0.3-0.1,0.7-0.2,1.1-0.2c0.3,0,0.6,0,0.9,0.1c0.3,0.1,0.6,0.1,0.8,0.2l-0.3,1c-0.2-0.1-0.4-0.2-0.6-0.2
	c-0.2,0-0.4-0.1-0.7-0.1c-0.5,0-0.8,0.1-1,0.3c-0.2,0.2-0.3,0.5-0.3,1v0.3h2.2v1.1h-2.2v4.8H804.1z M812.6,423.4
	c-0.4,0-0.9-0.1-1.3-0.2c-0.4-0.1-0.7-0.3-1-0.6c-0.3-0.3-0.5-0.6-0.7-1c-0.2-0.4-0.2-0.8-0.2-1.3c0-0.5,0.1-0.9,0.2-1.3
	c0.2-0.4,0.4-0.7,0.7-1c0.3-0.3,0.6-0.5,1-0.6c0.4-0.1,0.7-0.2,1.1-0.2c0.4,0,0.8,0.1,1.2,0.2c0.3,0.1,0.6,0.3,0.9,0.6
	c0.2,0.2,0.4,0.5,0.5,0.9c0.1,0.3,0.2,0.7,0.2,1.1c0,0.1,0,0.3,0,0.4c0,0.1,0,0.2,0,0.3h-4.3c0.1,0.6,0.3,1,0.7,1.2
	c0.4,0.3,0.8,0.4,1.4,0.4c0.3,0,0.6,0,0.9-0.1c0.3-0.1,0.5-0.2,0.8-0.4l0.5,0.9c-0.3,0.2-0.7,0.4-1.1,0.5
	C813.4,423.3,813,423.4,812.6,423.4z M812.4,418.3c-0.4,0-0.8,0.1-1.1,0.4c-0.3,0.2-0.5,0.6-0.6,1.1h3.1c-0.1-0.5-0.2-0.8-0.5-1.1
	C813.2,418.4,812.8,418.3,812.4,418.3z M817.4,423.3v-5.9h1.1l0.1,1.3h0c0.3-0.5,0.7-0.8,1.1-1.1c0.4-0.3,0.9-0.4,1.4-0.4
	c0.2,0,0.4,0,0.6,0.1c0.2,0,0.4,0.1,0.5,0.2l-0.3,1.2c-0.2-0.1-0.4-0.1-0.5-0.1c-0.1,0-0.3,0-0.6,0c-0.4,0-0.8,0.1-1.2,0.4
	c-0.4,0.2-0.7,0.6-1,1.2v3.2H817.4z M827,423.4c-0.4,0-0.9-0.1-1.3-0.2c-0.4-0.1-0.7-0.3-1-0.6c-0.3-0.3-0.5-0.6-0.7-1
	c-0.2-0.4-0.2-0.8-0.2-1.3c0-0.5,0.1-0.9,0.2-1.3c0.2-0.4,0.4-0.7,0.7-1c0.3-0.3,0.6-0.5,1-0.6c0.4-0.1,0.7-0.2,1.1-0.2
	c0.4,0,0.8,0.1,1.2,0.2c0.3,0.1,0.6,0.3,0.9,0.6c0.2,0.2,0.4,0.5,0.5,0.9c0.1,0.3,0.2,0.7,0.2,1.1c0,0.1,0,0.3,0,0.4
	c0,0.1,0,0.2,0,0.3h-4.3c0.1,0.6,0.3,1,0.7,1.2c0.4,0.3,0.8,0.4,1.4,0.4c0.3,0,0.6,0,0.9-0.1c0.3-0.1,0.5-0.2,0.8-0.4l0.5,0.9
	c-0.3,0.2-0.7,0.4-1.1,0.5C827.8,423.3,827.4,423.4,827,423.4z M826.8,418.3c-0.4,0-0.8,0.1-1.1,0.4c-0.3,0.2-0.5,0.6-0.6,1.1h3.1
	c-0.1-0.5-0.2-0.8-0.5-1.1C827.6,418.4,827.2,418.3,826.8,418.3z M831.2,423.3v-5.9h1.1l0.1,0.9h0c0.3-0.3,0.6-0.5,0.9-0.7
	c0.3-0.2,0.7-0.3,1.2-0.3c0.7,0,1.2,0.2,1.5,0.6c0.3,0.4,0.5,1,0.5,1.8v3.6h-1.4v-3.5c0-0.5-0.1-0.8-0.2-1c-0.2-0.2-0.4-0.3-0.8-0.3
	c-0.3,0-0.6,0.1-0.8,0.2c-0.2,0.1-0.5,0.3-0.7,0.6v4H831.2z M842.1,423.4c-0.4,0-0.8-0.1-1.1-0.2c-0.3-0.1-0.5-0.3-0.7-0.5
	c-0.2-0.2-0.3-0.5-0.4-0.8c-0.1-0.3-0.1-0.7-0.1-1v-2.4h-1.6v-1l1.6-0.1l0.2-1.8h1.1v1.8h2.7v1.1h-2.7v2.4c0,0.5,0.1,0.8,0.3,1.1
	c0.2,0.2,0.6,0.3,1.1,0.3c0.2,0,0.5,0,0.7-0.1c0.2-0.1,0.4-0.1,0.6-0.2l0.3,1c-0.3,0.1-0.5,0.2-0.9,0.2
	C842.8,423.4,842.5,423.4,842.1,423.4z"/>
<path class="st4" d="M633.3,440.4c-0.4,0-0.8-0.1-1.1-0.2c-0.3-0.1-0.5-0.3-0.7-0.5c-0.2-0.2-0.3-0.5-0.4-0.8
	c-0.1-0.3-0.1-0.7-0.1-1v-2.4h-1.6v-1l1.6-0.1l0.2-1.8h1.1v1.8h2.7v1.1h-2.7v2.4c0,0.5,0.1,0.8,0.3,1.1c0.2,0.2,0.6,0.3,1.1,0.3
	c0.2,0,0.5,0,0.7-0.1c0.2-0.1,0.4-0.1,0.6-0.2l0.3,1c-0.3,0.1-0.5,0.2-0.9,0.2C634,440.4,633.7,440.4,633.3,440.4z M639.4,440.3
	v-4.8h-2.5v-1.1h3.9v5.9H639.4z M640.4,433.3c-0.3,0-0.5-0.1-0.7-0.2c-0.2-0.2-0.3-0.4-0.3-0.7c0-0.3,0.1-0.5,0.3-0.7
	c0.2-0.2,0.4-0.3,0.7-0.3c0.3,0,0.5,0.1,0.7,0.3c0.2,0.2,0.3,0.4,0.3,0.7c0,0.3-0.1,0.5-0.3,0.7
	C640.9,433.2,640.7,433.3,640.4,433.3z M647.1,440.4c-0.5,0-0.9-0.1-1.3-0.2c-0.4-0.1-0.7-0.3-1-0.6c-0.3-0.3-0.5-0.6-0.7-1
	c-0.2-0.4-0.2-0.8-0.2-1.3c0-0.5,0.1-0.9,0.3-1.3c0.2-0.4,0.4-0.7,0.7-1c0.3-0.3,0.7-0.5,1.1-0.6c0.4-0.1,0.8-0.2,1.3-0.2
	c0.5,0,0.9,0.1,1.3,0.2c0.4,0.2,0.7,0.4,0.9,0.6l-0.7,0.9c-0.2-0.2-0.5-0.3-0.7-0.4c-0.2-0.1-0.5-0.1-0.8-0.1
	c-0.6,0-1.1,0.2-1.5,0.5c-0.4,0.4-0.5,0.8-0.5,1.4c0,0.3,0,0.6,0.1,0.8c0.1,0.2,0.2,0.4,0.4,0.6c0.2,0.2,0.4,0.3,0.6,0.4
	c0.2,0.1,0.5,0.1,0.8,0.1c0.3,0,0.6-0.1,0.9-0.2c0.3-0.1,0.5-0.3,0.8-0.5l0.6,0.9c-0.3,0.3-0.7,0.5-1.1,0.7
	C648,440.3,647.6,440.4,647.1,440.4z M651.3,440.3v-8.5h1.4v5.3h0l2.7-2.7h1.5l-2.3,2.3l2.5,3.5h-1.5l-1.9-2.7l-1.1,1.2v1.5H651.3z
	 M661.4,440.4c-0.4,0-0.9-0.1-1.3-0.2c-0.4-0.1-0.7-0.3-1-0.6c-0.3-0.3-0.5-0.6-0.7-1c-0.2-0.4-0.2-0.8-0.2-1.3
	c0-0.5,0.1-0.9,0.2-1.3c0.2-0.4,0.4-0.7,0.7-1c0.3-0.3,0.6-0.5,1-0.6c0.4-0.1,0.7-0.2,1.1-0.2c0.4,0,0.8,0.1,1.2,0.2
	c0.3,0.1,0.6,0.3,0.9,0.6c0.2,0.2,0.4,0.5,0.5,0.9c0.1,0.3,0.2,0.7,0.2,1.1c0,0.1,0,0.3,0,0.4c0,0.1,0,0.2,0,0.3h-4.3
	c0.1,0.6,0.3,1,0.7,1.2c0.4,0.3,0.8,0.4,1.4,0.4c0.3,0,0.6,0,0.9-0.1c0.3-0.1,0.5-0.2,0.8-0.4l0.5,0.9c-0.3,0.2-0.7,0.4-1.1,0.5
	C662.2,440.3,661.8,440.4,661.4,440.4z M661.2,435.3c-0.4,0-0.8,0.1-1.1,0.4c-0.3,0.2-0.5,0.6-0.6,1.1h3.1c-0.1-0.5-0.2-0.8-0.5-1.1
	C662,435.4,661.6,435.3,661.2,435.3z M669.3,440.4c-0.4,0-0.8-0.1-1.1-0.2c-0.3-0.1-0.5-0.3-0.7-0.5c-0.2-0.2-0.3-0.5-0.4-0.8
	c-0.1-0.3-0.1-0.7-0.1-1v-2.4h-1.6v-1l1.6-0.1l0.2-1.8h1.1v1.8h2.7v1.1h-2.7v2.4c0,0.5,0.1,0.8,0.3,1.1c0.2,0.2,0.6,0.3,1.1,0.3
	c0.2,0,0.5,0,0.7-0.1c0.2-0.1,0.4-0.1,0.6-0.2l0.3,1c-0.3,0.1-0.5,0.2-0.9,0.2C670,440.4,669.7,440.4,669.3,440.4z"/>
<path class="st0" d="M430,228l-13,13v169h-35"/>
<path class="st8" d="M430,228l-13,13v169h-27.4"/>
<path class="st9" d="M389.6,413.3H383v-6.6h6.6V413.3z"/>
<path class="st0" d="M108.4,179.7h63.4v101.4h-63.4V179.7z"/>
<g>
	<defs>
		<rect id="SVGID_9_" x="108.4" y="179.7" width="63.4" height="101.4"/>
	</defs>
	<clipPath id="SVGID_10_">
		<use xlink:href="#SVGID_9_"  style="overflow:visible;"/>
	</clipPath>
	<g transform="matrix(1 0 0 1 0 0)" style="clip-path:url(#SVGID_10_);enable-background:new    ;">
		
			<image style="overflow:visible;" width="640" height="1024" xlink:href="A553DD86ABC425C3.png"  transform="matrix(9.901155e-02 0 0 9.901103e-02 108.4409 179.6683)">
		</image>
	</g>
</g>
<path class="st0" d="M530,228l13,13v169h35"/>
<path class="st8" d="M530,228l13,13v169h27.4"/>
<path class="st9" d="M570.4,406.7h6.6v6.6h-6.6V406.7z"/>
<path class="st0" d="M197.9,211.3h31.9v36.4h-31.9V211.3z"/>
<g>
	<defs>
		<rect id="SVGID_11_" x="197.9" y="211.3" width="31.9" height="36.4"/>
	</defs>
	<clipPath id="SVGID_12_">
		<use xlink:href="#SVGID_11_"  style="overflow:visible;"/>
	</clipPath>
	<g style="clip-path:url(#SVGID_12_);enable-background:new    ;">
		
			<image style="overflow:visible;" width="896" height="1024" xlink:href="A553DD86ABC425CE.png"  transform="matrix(3.556509e-02 0 0 3.556509e-02 197.8809 211.3171)">
		</image>
	</g>
</g>
<path class="st6" d="M356.9,467.2H76l-11.3-11.3V354.2h292.2V467.2z"/>
<path class="st0" d="M319.2,180.5h-63.4v101.4h63.4V180.5z"/>
<g>
	<defs>
		<rect id="SVGID_13_" x="255.8" y="180.5" width="63.4" height="101.4"/>
	</defs>
	<clipPath id="SVGID_14_">
		<use xlink:href="#SVGID_13_"  style="overflow:visible;"/>
	</clipPath>
	<g style="clip-path:url(#SVGID_14_);enable-background:new    ;">
		
			<image style="overflow:visible;" width="640" height="1024" xlink:href="A553DD86ABC425CF.png"  transform="matrix(-9.901024e-02 0 0 9.900945e-02 319.187 180.5078)">
		</image>
	</g>
</g>
<path class="st10" d="M262.2,245.2L262.2,245.2c0-1,0.8-1.9,1.9-1.9h46.8c0.5,0,1,0.2,1.3,0.5c0.3,0.3,0.5,0.8,0.5,1.3v7.4
	c0,1-0.8,1.9-1.9,1.9h-46.8c-1,0-1.9-0.8-1.9-1.9V245.2z"/>
<path class="st11" d="M115.6,190.2L115.6,190.2c0-2.2,1.7-3.9,3.9-3.9h15.6l0,0c1,0,2,0.4,2.8,1.1c0.7,0.7,1.1,1.7,1.1,2.8v66.2
	c0,2.2-1.7,3.9-3.9,3.9h-15.6c-2.2,0-3.9-1.7-3.9-3.9V190.2z"/>
<path class="st0" d="M82.9,368.7h261.9v92H82.9L82.9,368.7z"/>
<path class="st4" d="M95.5,389.4c-0.9,0-1.5-0.3-2-0.8c-0.5-0.5-0.7-1.3-0.7-2.4v-4.8h1.4v5c0,0.6,0.1,1.1,0.4,1.4
	c0.2,0.3,0.6,0.4,1,0.4c0.4,0,0.8-0.1,1-0.4c0.2-0.3,0.4-0.8,0.4-1.4v-5h1.3v4.8c0,1.1-0.2,1.9-0.7,2.4
	C97,389.1,96.3,389.4,95.5,389.4z M102.7,389.4c-0.6,0-1.1-0.1-1.6-0.3c-0.5-0.2-0.9-0.4-1.3-0.6l0.6-0.9c0.4,0.2,0.7,0.4,1.1,0.5
	c0.4,0.1,0.8,0.2,1.3,0.2c0.4,0,0.7-0.1,0.9-0.2c0.2-0.1,0.3-0.3,0.3-0.5c0-0.1,0-0.2-0.1-0.2c0-0.1-0.1-0.2-0.2-0.2
	c-0.1-0.1-0.3-0.1-0.5-0.2c-0.2-0.1-0.5-0.1-0.8-0.2c-0.8-0.2-1.4-0.4-1.7-0.7c-0.4-0.3-0.5-0.7-0.5-1.1c0-0.5,0.2-0.9,0.7-1.3
	c0.4-0.3,1.1-0.5,1.9-0.5c0.5,0,0.9,0.1,1.4,0.2c0.4,0.2,0.8,0.3,1.1,0.5l-0.6,0.8c-0.3-0.2-0.6-0.3-0.9-0.4c-0.3-0.1-0.7-0.2-1-0.2
	c-0.4,0-0.7,0.1-0.8,0.2c-0.2,0.1-0.2,0.3-0.2,0.5c0,0.2,0.1,0.4,0.4,0.5c0.2,0.1,0.6,0.2,1.2,0.3c0.5,0.1,0.9,0.2,1.2,0.3
	c0.3,0.1,0.5,0.2,0.7,0.4c0.2,0.1,0.3,0.3,0.4,0.5c0.1,0.2,0.1,0.4,0.1,0.6c0,0.3-0.1,0.5-0.2,0.7c-0.1,0.2-0.3,0.4-0.5,0.6
	c-0.2,0.2-0.5,0.3-0.9,0.4C103.5,389.3,103.1,389.4,102.7,389.4z M110.2,389.4c-0.4,0-0.9-0.1-1.3-0.2c-0.4-0.1-0.7-0.3-1-0.6
	c-0.3-0.3-0.5-0.6-0.7-1c-0.2-0.4-0.2-0.8-0.2-1.3c0-0.5,0.1-0.9,0.2-1.3c0.2-0.4,0.4-0.7,0.7-1c0.3-0.3,0.6-0.5,1-0.6
	c0.4-0.1,0.7-0.2,1.1-0.2c0.4,0,0.8,0.1,1.2,0.2c0.3,0.1,0.6,0.3,0.9,0.6c0.2,0.2,0.4,0.5,0.5,0.9c0.1,0.3,0.2,0.7,0.2,1.1
	c0,0.1,0,0.3,0,0.4c0,0.1,0,0.2,0,0.3h-4.3c0.1,0.6,0.3,1,0.7,1.2c0.4,0.3,0.8,0.4,1.4,0.4c0.3,0,0.6,0,0.9-0.1
	c0.3-0.1,0.5-0.2,0.8-0.4l0.5,0.9c-0.3,0.2-0.7,0.4-1.1,0.5C111.1,389.3,110.6,389.4,110.2,389.4z M110.1,384.3
	c-0.4,0-0.8,0.1-1.1,0.4c-0.3,0.2-0.5,0.6-0.6,1.1h3.1c-0.1-0.5-0.2-0.8-0.5-1.1C110.8,384.4,110.5,384.3,110.1,384.3z M115,389.3
	v-5.9h1.1l0.1,1.3h0c0.3-0.5,0.7-0.8,1.1-1.1c0.4-0.3,0.9-0.4,1.4-0.4c0.2,0,0.4,0,0.6,0.1c0.2,0,0.4,0.1,0.5,0.2l-0.3,1.2
	c-0.2-0.1-0.4-0.1-0.5-0.1c-0.1,0-0.3,0-0.6,0c-0.4,0-0.8,0.1-1.2,0.4c-0.4,0.2-0.7,0.6-1,1.2v3.2H115z M124.3,389.4
	c-0.6,0-1.1-0.1-1.6-0.3c-0.5-0.2-0.9-0.4-1.3-0.6l0.6-0.9c0.4,0.2,0.7,0.4,1.1,0.5c0.4,0.1,0.8,0.2,1.3,0.2c0.4,0,0.7-0.1,0.9-0.2
	c0.2-0.1,0.3-0.3,0.3-0.5c0-0.1,0-0.2-0.1-0.2c0-0.1-0.1-0.2-0.2-0.2c-0.1-0.1-0.3-0.1-0.5-0.2c-0.2-0.1-0.5-0.1-0.8-0.2
	c-0.8-0.2-1.4-0.4-1.7-0.7c-0.4-0.3-0.5-0.7-0.5-1.1c0-0.5,0.2-0.9,0.7-1.3c0.4-0.3,1.1-0.5,1.9-0.5c0.5,0,0.9,0.1,1.4,0.2
	c0.4,0.2,0.8,0.3,1.1,0.5l-0.6,0.8c-0.3-0.2-0.6-0.3-0.9-0.4c-0.3-0.1-0.7-0.2-1-0.2c-0.4,0-0.7,0.1-0.8,0.2
	c-0.2,0.1-0.2,0.3-0.2,0.5c0,0.2,0.1,0.4,0.4,0.5c0.2,0.1,0.6,0.2,1.2,0.3c0.5,0.1,0.9,0.2,1.2,0.3c0.3,0.1,0.5,0.2,0.7,0.4
	c0.2,0.1,0.3,0.3,0.4,0.5c0.1,0.2,0.1,0.4,0.1,0.6c0,0.3-0.1,0.5-0.2,0.7c-0.1,0.2-0.3,0.4-0.5,0.6c-0.2,0.2-0.5,0.3-0.9,0.4
	C125.1,389.3,124.7,389.4,124.3,389.4z M138.2,389.4c-0.4,0-0.7-0.1-1-0.2c-0.3-0.1-0.6-0.3-0.8-0.6c-0.2-0.3-0.4-0.6-0.5-1
	c-0.1-0.4-0.2-0.8-0.2-1.3c0-0.5,0.1-0.9,0.2-1.3c0.1-0.4,0.3-0.7,0.6-1c0.2-0.3,0.5-0.5,0.8-0.6c0.3-0.1,0.6-0.2,1-0.2
	c0.3,0,0.6,0.1,0.9,0.2c0.3,0.1,0.5,0.3,0.7,0.5h0l-0.1-1v-2.1h1.4v8.5h-1.1l-0.1-0.7h0c-0.2,0.2-0.5,0.4-0.8,0.6
	C138.9,389.3,138.5,389.4,138.2,389.4z M138.5,388.3c0.5,0,0.9-0.2,1.3-0.7v-2.7c-0.2-0.2-0.4-0.3-0.6-0.4c-0.2-0.1-0.4-0.1-0.6-0.1
	c-0.2,0-0.4,0-0.6,0.1c-0.2,0.1-0.3,0.2-0.5,0.4c-0.1,0.2-0.2,0.4-0.3,0.6c-0.1,0.2-0.1,0.5-0.1,0.8c0,0.6,0.1,1.1,0.4,1.5
	C137.7,388.1,138.1,388.3,138.5,388.3z M145.8,389.4c-0.4,0-0.7-0.1-1.1-0.2c-0.4-0.1-0.7-0.3-1-0.6c-0.3-0.3-0.5-0.6-0.7-1
	c-0.2-0.4-0.2-0.8-0.2-1.3c0-0.5,0.1-0.9,0.2-1.3c0.2-0.4,0.4-0.7,0.7-1c0.3-0.3,0.6-0.5,1-0.6c0.4-0.1,0.7-0.2,1.1-0.2
	c0.4,0,0.8,0.1,1.1,0.2c0.4,0.1,0.7,0.3,1,0.6c0.3,0.3,0.5,0.6,0.7,1c0.2,0.4,0.2,0.8,0.2,1.3c0,0.5-0.1,0.9-0.2,1.3
	c-0.2,0.4-0.4,0.7-0.7,1c-0.3,0.3-0.6,0.5-1,0.6C146.6,389.3,146.2,389.4,145.8,389.4z M145.8,388.3c0.5,0,0.9-0.2,1.1-0.5
	c0.3-0.4,0.4-0.8,0.4-1.4c0-0.6-0.1-1.1-0.4-1.4c-0.3-0.4-0.6-0.5-1.1-0.5c-0.5,0-0.9,0.2-1.1,0.5c-0.3,0.4-0.4,0.8-0.4,1.4
	c0,0.6,0.1,1.1,0.4,1.4C145,388.1,145.4,388.3,145.8,388.3z M150.4,389.3v-5.9h1.1l0.1,0.9h0c0.3-0.3,0.6-0.5,0.9-0.7
	c0.3-0.2,0.7-0.3,1.2-0.3c0.7,0,1.2,0.2,1.5,0.6c0.3,0.4,0.5,1,0.5,1.8v3.6h-1.4v-3.5c0-0.5-0.1-0.8-0.2-1c-0.2-0.2-0.4-0.3-0.8-0.3
	c-0.3,0-0.6,0.1-0.8,0.2c-0.2,0.1-0.5,0.3-0.7,0.6v4H150.4z M159.6,385.4l-0.4-0.8c0.4-0.2,0.7-0.5,0.9-0.8c0.2-0.3,0.3-0.6,0.4-1
	c-0.1,0-0.2,0-0.3,0c-0.3,0-0.5-0.1-0.7-0.3c-0.2-0.2-0.3-0.4-0.3-0.7c0-0.3,0.1-0.6,0.3-0.8c0.2-0.2,0.4-0.3,0.7-0.3
	c0.4,0,0.7,0.2,0.9,0.5c0.2,0.3,0.3,0.7,0.3,1.2c0,0.6-0.2,1.2-0.5,1.7C160.7,384.7,160.2,385.1,159.6,385.4z M168.5,389.4
	c-0.4,0-0.8-0.1-1.1-0.2c-0.3-0.1-0.5-0.3-0.7-0.5c-0.2-0.2-0.3-0.5-0.4-0.8c-0.1-0.3-0.1-0.7-0.1-1v-2.4h-1.6v-1l1.6-0.1l0.2-1.8
	h1.1v1.8h2.7v1.1h-2.7v2.4c0,0.5,0.1,0.8,0.3,1.1c0.2,0.2,0.6,0.3,1.1,0.3c0.2,0,0.5,0,0.7-0.1c0.2-0.1,0.4-0.1,0.6-0.2l0.3,1
	c-0.3,0.1-0.5,0.2-0.9,0.2C169.3,389.4,168.9,389.4,168.5,389.4z M179.2,389.3v-5.9h1.1l0.1,0.9h0c0.3-0.3,0.6-0.5,0.9-0.7
	c0.3-0.2,0.7-0.3,1.2-0.3c0.7,0,1.2,0.2,1.5,0.6c0.3,0.4,0.5,1,0.5,1.8v3.6h-1.4v-3.5c0-0.5-0.1-0.8-0.2-1c-0.2-0.2-0.4-0.3-0.8-0.3
	c-0.3,0-0.6,0.1-0.8,0.2c-0.2,0.1-0.5,0.3-0.7,0.6v4H179.2z M189.4,389.4c-0.4,0-0.9-0.1-1.3-0.2c-0.4-0.1-0.7-0.3-1-0.6
	c-0.3-0.3-0.5-0.6-0.7-1c-0.2-0.4-0.2-0.8-0.2-1.3c0-0.5,0.1-0.9,0.2-1.3c0.2-0.4,0.4-0.7,0.7-1c0.3-0.3,0.6-0.5,1-0.6
	c0.4-0.1,0.7-0.2,1.1-0.2c0.4,0,0.8,0.1,1.2,0.2c0.3,0.1,0.6,0.3,0.9,0.6c0.2,0.2,0.4,0.5,0.5,0.9c0.1,0.3,0.2,0.7,0.2,1.1
	c0,0.1,0,0.3,0,0.4c0,0.1,0,0.2,0,0.3h-4.3c0.1,0.6,0.3,1,0.7,1.2c0.4,0.3,0.8,0.4,1.4,0.4c0.3,0,0.6,0,0.9-0.1
	c0.3-0.1,0.5-0.2,0.8-0.4l0.5,0.9c-0.3,0.2-0.7,0.4-1.1,0.5C190.3,389.3,189.8,389.4,189.4,389.4z M189.3,384.3
	c-0.4,0-0.8,0.1-1.1,0.4c-0.3,0.2-0.5,0.6-0.6,1.1h3.1c-0.1-0.5-0.2-0.8-0.5-1.1C190,384.4,189.7,384.3,189.3,384.3z M196.6,389.4
	c-0.4,0-0.9-0.1-1.3-0.2c-0.4-0.1-0.7-0.3-1-0.6c-0.3-0.3-0.5-0.6-0.7-1c-0.2-0.4-0.2-0.8-0.2-1.3c0-0.5,0.1-0.9,0.2-1.3
	c0.2-0.4,0.4-0.7,0.7-1c0.3-0.3,0.6-0.5,1-0.6c0.4-0.1,0.7-0.2,1.1-0.2c0.4,0,0.8,0.1,1.2,0.2c0.3,0.1,0.6,0.3,0.9,0.6
	c0.2,0.2,0.4,0.5,0.5,0.9c0.1,0.3,0.2,0.7,0.2,1.1c0,0.1,0,0.3,0,0.4c0,0.1,0,0.2,0,0.3h-4.3c0.1,0.6,0.3,1,0.7,1.2
	c0.4,0.3,0.8,0.4,1.4,0.4c0.3,0,0.6,0,0.9-0.1c0.3-0.1,0.5-0.2,0.8-0.4l0.5,0.9c-0.3,0.2-0.7,0.4-1.1,0.5
	C197.5,389.3,197,389.4,196.6,389.4z M196.5,384.3c-0.4,0-0.8,0.1-1.1,0.4c-0.3,0.2-0.5,0.6-0.6,1.1h3.1c-0.1-0.5-0.2-0.8-0.5-1.1
	C197.2,384.4,196.9,384.3,196.5,384.3z M203,389.4c-0.4,0-0.7-0.1-1-0.2c-0.3-0.1-0.6-0.3-0.8-0.6c-0.2-0.3-0.4-0.6-0.5-1
	c-0.1-0.4-0.2-0.8-0.2-1.3c0-0.5,0.1-0.9,0.2-1.3c0.1-0.4,0.3-0.7,0.6-1c0.2-0.3,0.5-0.5,0.8-0.6c0.3-0.1,0.6-0.2,1-0.2
	c0.3,0,0.6,0.1,0.9,0.2c0.3,0.1,0.5,0.3,0.7,0.5h0l-0.1-1v-2.1h1.4v8.5h-1.1l-0.1-0.7h0c-0.2,0.2-0.5,0.4-0.8,0.6
	C203.7,389.3,203.3,389.4,203,389.4z M203.3,388.3c0.5,0,0.9-0.2,1.3-0.7v-2.7c-0.2-0.2-0.4-0.3-0.6-0.4c-0.2-0.1-0.4-0.1-0.6-0.1
	c-0.2,0-0.4,0-0.6,0.1c-0.2,0.1-0.3,0.2-0.5,0.4c-0.1,0.2-0.2,0.4-0.3,0.6c-0.1,0.2-0.1,0.5-0.1,0.8c0,0.6,0.1,1.1,0.4,1.5
	C202.5,388.1,202.9,388.3,203.3,388.3z M218.9,389.4c-0.4,0-0.8-0.1-1.1-0.2c-0.3-0.1-0.5-0.3-0.7-0.5c-0.2-0.2-0.3-0.5-0.4-0.8
	c-0.1-0.3-0.1-0.7-0.1-1v-2.4H215v-1l1.6-0.1l0.2-1.8h1.1v1.8h2.7v1.1h-2.7v2.4c0,0.5,0.1,0.8,0.3,1.1c0.2,0.2,0.6,0.3,1.1,0.3
	c0.2,0,0.5,0,0.7-0.1c0.2-0.1,0.4-0.1,0.6-0.2l0.3,1c-0.3,0.1-0.5,0.2-0.9,0.2C219.7,389.4,219.3,389.4,218.9,389.4z M225,389.4
	c-0.4,0-0.7-0.1-1.1-0.2c-0.4-0.1-0.7-0.3-1-0.6c-0.3-0.3-0.5-0.6-0.7-1c-0.2-0.4-0.2-0.8-0.2-1.3c0-0.5,0.1-0.9,0.2-1.3
	c0.2-0.4,0.4-0.7,0.7-1c0.3-0.3,0.6-0.5,1-0.6c0.4-0.1,0.7-0.2,1.1-0.2c0.4,0,0.8,0.1,1.1,0.2c0.4,0.1,0.7,0.3,1,0.6
	c0.3,0.3,0.5,0.6,0.7,1c0.2,0.4,0.2,0.8,0.2,1.3c0,0.5-0.1,0.9-0.2,1.3c-0.2,0.4-0.4,0.7-0.7,1c-0.3,0.3-0.6,0.5-1,0.6
	C225.8,389.3,225.4,389.4,225,389.4z M225,388.3c0.5,0,0.9-0.2,1.1-0.5c0.3-0.4,0.4-0.8,0.4-1.4c0-0.6-0.1-1.1-0.4-1.4
	c-0.3-0.4-0.6-0.5-1.1-0.5c-0.5,0-0.9,0.2-1.1,0.5c-0.3,0.4-0.4,0.8-0.4,1.4c0,0.6,0.1,1.1,0.4,1.4
	C224.2,388.1,224.6,388.3,225,388.3z M239,389.4c-0.4,0-0.7-0.1-1-0.2c-0.3-0.1-0.6-0.3-0.8-0.6c-0.2-0.3-0.4-0.6-0.5-1
	c-0.1-0.4-0.2-0.8-0.2-1.3c0-0.5,0.1-0.9,0.2-1.3c0.1-0.4,0.3-0.7,0.6-1c0.2-0.3,0.5-0.5,0.8-0.6c0.3-0.1,0.6-0.2,1-0.2
	c0.3,0,0.6,0.1,0.9,0.2c0.3,0.1,0.5,0.3,0.7,0.5h0l-0.1-1v-2.1h1.4v8.5h-1.1l-0.1-0.7h0c-0.2,0.2-0.5,0.4-0.8,0.6
	C239.7,389.3,239.3,389.4,239,389.4z M239.3,388.3c0.5,0,0.9-0.2,1.3-0.7v-2.7c-0.2-0.2-0.4-0.3-0.6-0.4c-0.2-0.1-0.4-0.1-0.6-0.1
	c-0.2,0-0.4,0-0.6,0.1c-0.2,0.1-0.3,0.2-0.5,0.4c-0.1,0.2-0.2,0.4-0.3,0.6c-0.1,0.2-0.1,0.5-0.1,0.8c0,0.6,0.1,1.1,0.4,1.5
	C238.5,388.1,238.9,388.3,239.3,388.3z M246.6,389.4c-0.4,0-0.7-0.1-1.1-0.2c-0.4-0.1-0.7-0.3-1-0.6c-0.3-0.3-0.5-0.6-0.7-1
	c-0.2-0.4-0.2-0.8-0.2-1.3c0-0.5,0.1-0.9,0.2-1.3c0.2-0.4,0.4-0.7,0.7-1c0.3-0.3,0.6-0.5,1-0.6c0.4-0.1,0.7-0.2,1.1-0.2
	c0.4,0,0.8,0.1,1.1,0.2c0.4,0.1,0.7,0.3,1,0.6c0.3,0.3,0.5,0.6,0.7,1c0.2,0.4,0.3,0.8,0.2,1.3c0,0.5-0.1,0.9-0.2,1.3
	c-0.2,0.4-0.4,0.7-0.7,1c-0.3,0.3-0.6,0.5-1,0.6C247.4,389.3,247,389.4,246.6,389.4z M246.6,388.3c0.5,0,0.9-0.2,1.1-0.5
	c0.3-0.4,0.4-0.8,0.4-1.4c0-0.6-0.1-1.1-0.4-1.4c-0.3-0.4-0.6-0.5-1.1-0.5c-0.5,0-0.9,0.2-1.1,0.5c-0.3,0.4-0.4,0.8-0.4,1.4
	c0,0.6,0.1,1.1,0.4,1.4C245.8,388.1,246.2,388.3,246.6,388.3z M262.1,389.4c-0.4,0-0.8-0.1-1.1-0.2c-0.3-0.1-0.5-0.3-0.7-0.5
	c-0.2-0.2-0.3-0.5-0.4-0.8c-0.1-0.3-0.1-0.7-0.1-1v-2.4h-1.6v-1l1.6-0.1l0.2-1.8h1.1v1.8h2.7v1.1h-2.7v2.4c0,0.5,0.1,0.8,0.3,1.1
	c0.2,0.2,0.6,0.3,1.1,0.3c0.2,0,0.5,0,0.7-0.1c0.2-0.1,0.4-0.1,0.6-0.2l0.3,1c-0.3,0.1-0.5,0.2-0.9,0.2
	C262.9,389.4,262.5,389.4,262.1,389.4z M265.6,389.3v-8.5h1.4v2.2l-0.1,1.2h0c0.3-0.3,0.6-0.5,0.9-0.7c0.3-0.2,0.7-0.3,1.2-0.3
	c0.7,0,1.2,0.2,1.5,0.6c0.3,0.4,0.5,1,0.5,1.8v3.6h-1.4v-3.5c0-0.5-0.1-0.8-0.2-1c-0.2-0.2-0.4-0.3-0.8-0.3c-0.3,0-0.6,0.1-0.8,0.2
	c-0.2,0.1-0.5,0.3-0.7,0.6v4H265.6z M275.8,389.4c-0.4,0-0.9-0.1-1.3-0.2c-0.4-0.1-0.7-0.3-1-0.6c-0.3-0.3-0.5-0.6-0.7-1
	c-0.2-0.4-0.2-0.8-0.2-1.3c0-0.5,0.1-0.9,0.2-1.3c0.2-0.4,0.4-0.7,0.7-1c0.3-0.3,0.6-0.5,1-0.6c0.4-0.1,0.7-0.2,1.1-0.2
	c0.4,0,0.8,0.1,1.2,0.2c0.3,0.1,0.6,0.3,0.9,0.6c0.2,0.2,0.4,0.5,0.5,0.9c0.1,0.3,0.2,0.7,0.2,1.1c0,0.1,0,0.3,0,0.4
	c0,0.1,0,0.2,0,0.3H274c0.1,0.6,0.3,1,0.7,1.2c0.4,0.3,0.8,0.4,1.4,0.4c0.3,0,0.6,0,0.9-0.1c0.3-0.1,0.5-0.2,0.8-0.4l0.5,0.9
	c-0.3,0.2-0.7,0.4-1.1,0.5C276.7,389.3,276.2,389.4,275.8,389.4z M275.7,384.3c-0.4,0-0.8,0.1-1.1,0.4c-0.3,0.2-0.5,0.6-0.6,1.1h3.1
	c-0.1-0.5-0.2-0.8-0.5-1.1C276.4,384.4,276.1,384.3,275.7,384.3z M290.2,389.4c-0.4,0-0.9-0.1-1.3-0.2c-0.4-0.1-0.7-0.3-1-0.6
	c-0.3-0.3-0.5-0.6-0.7-1c-0.2-0.4-0.2-0.8-0.2-1.3c0-0.5,0.1-0.9,0.2-1.3c0.2-0.4,0.4-0.7,0.7-1c0.3-0.3,0.6-0.5,1-0.6
	c0.4-0.1,0.7-0.2,1.1-0.2c0.4,0,0.8,0.1,1.2,0.2c0.3,0.1,0.6,0.3,0.9,0.6c0.2,0.2,0.4,0.5,0.5,0.9c0.1,0.3,0.2,0.7,0.2,1.1
	c0,0.1,0,0.3,0,0.4c0,0.1,0,0.2,0,0.3h-4.3c0.1,0.6,0.3,1,0.7,1.2c0.4,0.3,0.8,0.4,1.4,0.4c0.3,0,0.6,0,0.9-0.1
	c0.3-0.1,0.5-0.2,0.8-0.4l0.5,0.9c-0.3,0.2-0.7,0.4-1.1,0.5C291.1,389.3,290.6,389.4,290.2,389.4z M290.1,384.3
	c-0.4,0-0.8,0.1-1.1,0.4c-0.3,0.2-0.5,0.6-0.6,1.1h3.1c-0.1-0.5-0.2-0.8-0.5-1.1C290.8,384.4,290.5,384.3,290.1,384.3z M294.1,389.3
	l2.1-3.1l-2-2.8h1.5l0.8,1.1c0.1,0.2,0.2,0.3,0.3,0.5c0.1,0.2,0.2,0.3,0.3,0.5h0c0.1-0.2,0.2-0.3,0.3-0.5c0.1-0.2,0.2-0.3,0.3-0.5
	l0.7-1.1h1.5l-2,3l2.2,2.9h-1.5l-0.9-1.2c-0.1-0.2-0.2-0.3-0.4-0.5c-0.1-0.2-0.2-0.4-0.4-0.5h0c-0.1,0.2-0.2,0.4-0.3,0.5
	c-0.1,0.2-0.2,0.3-0.3,0.5l-0.8,1.2H294.1z M305.3,389.4c-0.4,0-0.8-0.1-1.1-0.2c-0.3-0.1-0.5-0.3-0.7-0.5c-0.2-0.2-0.3-0.5-0.4-0.8
	c-0.1-0.3-0.1-0.7-0.1-1v-2.4h-1.6v-1l1.6-0.1l0.2-1.8h1.1v1.8h2.7v1.1h-2.7v2.4c0,0.5,0.1,0.8,0.3,1.1c0.2,0.2,0.6,0.3,1.1,0.3
	c0.2,0,0.5,0,0.7-0.1c0.2-0.1,0.4-0.1,0.6-0.2l0.3,1c-0.3,0.1-0.5,0.2-0.9,0.2C306.1,389.4,305.7,389.4,305.3,389.4z M309.4,389.3
	v-5.9h1.1l0.1,1.3h0c0.3-0.5,0.7-0.8,1.1-1.1c0.4-0.3,0.9-0.4,1.4-0.4c0.2,0,0.4,0,0.6,0.1c0.2,0,0.4,0.1,0.5,0.2l-0.3,1.2
	c-0.2-0.1-0.4-0.1-0.5-0.1c-0.1,0-0.3,0-0.6,0c-0.4,0-0.8,0.1-1.2,0.4c-0.4,0.2-0.7,0.6-1,1.2v3.2H309.4z M317.9,389.4
	c-0.3,0-0.5,0-0.8-0.1c-0.2-0.1-0.4-0.2-0.6-0.3c-0.2-0.2-0.3-0.3-0.4-0.5c-0.1-0.2-0.1-0.5-0.1-0.7c0-0.3,0.1-0.6,0.2-0.9
	c0.2-0.3,0.4-0.5,0.7-0.6c0.3-0.2,0.8-0.3,1.3-0.4c0.5-0.1,1.1-0.2,1.9-0.2c0-0.3-0.1-0.6-0.4-0.8c-0.2-0.2-0.6-0.3-1-0.3
	c-0.3,0-0.7,0.1-1,0.2c-0.3,0.1-0.6,0.3-1,0.4l-0.5-0.9c0.4-0.2,0.8-0.4,1.2-0.6c0.5-0.2,1-0.3,1.5-0.2c0.8,0,1.4,0.2,1.9,0.7
	c0.4,0.4,0.7,1.1,0.7,1.9v3.5h-1.1l-0.1-0.7h0c-0.3,0.2-0.7,0.4-1,0.6C318.7,389.3,318.3,389.4,317.9,389.4z M318.3,388.3
	c0.3,0,0.6-0.1,0.9-0.2c0.3-0.1,0.6-0.3,0.8-0.5v-1.2c-0.5,0-1,0.1-1.3,0.2c-0.3,0.1-0.6,0.1-0.8,0.2c-0.2,0.1-0.4,0.2-0.5,0.4
	c-0.1,0.1-0.1,0.3-0.1,0.4c0,0.3,0.1,0.5,0.3,0.6C317.7,388.3,318,388.3,318.3,388.3z"/>
<path class="st4" d="M96,406.4c-0.5,0-0.9-0.1-1.3-0.2c-0.4-0.1-0.7-0.3-1-0.6c-0.3-0.3-0.5-0.6-0.7-1c-0.2-0.4-0.2-0.8-0.2-1.3
	c0-0.5,0.1-0.9,0.3-1.3c0.2-0.4,0.4-0.7,0.7-1c0.3-0.3,0.7-0.5,1.1-0.6c0.4-0.1,0.8-0.2,1.3-0.2c0.5,0,0.9,0.1,1.3,0.2
	c0.4,0.2,0.7,0.4,0.9,0.6l-0.7,0.9c-0.2-0.2-0.5-0.3-0.7-0.4c-0.2-0.1-0.5-0.1-0.8-0.1c-0.6,0-1.1,0.2-1.5,0.5
	c-0.4,0.4-0.5,0.8-0.5,1.4c0,0.3,0,0.6,0.1,0.8c0.1,0.2,0.2,0.4,0.4,0.6c0.2,0.2,0.4,0.3,0.6,0.4c0.2,0.1,0.5,0.1,0.8,0.1
	c0.3,0,0.6-0.1,0.9-0.2c0.3-0.1,0.5-0.3,0.8-0.5l0.6,0.9c-0.3,0.3-0.7,0.5-1.1,0.7C96.8,406.3,96.4,406.4,96,406.4z M103.9,406.4
	c-0.7,0-1.2-0.2-1.6-0.6c-0.4-0.4-0.5-1-0.5-1.7v-5.2h-2v-1.1h3.3v6.4c0,0.4,0.1,0.7,0.3,0.9c0.2,0.2,0.5,0.2,0.8,0.2
	c0.3,0,0.7-0.1,1-0.2l0.3,1c-0.3,0.1-0.6,0.2-0.8,0.2C104.5,406.4,104.2,406.4,103.9,406.4z M109.8,406.3v-4.8h-2.5v-1.1h3.9v5.9
	H109.8z M110.8,399.3c-0.3,0-0.5-0.1-0.7-0.2c-0.2-0.2-0.3-0.4-0.3-0.7c0-0.3,0.1-0.5,0.3-0.7c0.2-0.2,0.4-0.3,0.7-0.3
	c0.3,0,0.5,0.1,0.7,0.3c0.2,0.2,0.3,0.4,0.3,0.7c0,0.3-0.1,0.5-0.3,0.7C111.4,399.2,111.1,399.3,110.8,399.3z M117.6,406.4
	c-0.5,0-0.9-0.1-1.3-0.2c-0.4-0.1-0.7-0.3-1-0.6c-0.3-0.3-0.5-0.6-0.7-1c-0.2-0.4-0.2-0.8-0.2-1.3c0-0.5,0.1-0.9,0.3-1.3
	c0.2-0.4,0.4-0.7,0.7-1c0.3-0.3,0.7-0.5,1.1-0.6c0.4-0.1,0.8-0.2,1.3-0.2c0.5,0,0.9,0.1,1.3,0.2c0.4,0.2,0.7,0.4,0.9,0.6l-0.7,0.9
	c-0.2-0.2-0.5-0.3-0.7-0.4c-0.2-0.1-0.5-0.1-0.8-0.1c-0.6,0-1.1,0.2-1.5,0.5c-0.4,0.4-0.5,0.8-0.5,1.4c0,0.3,0,0.6,0.1,0.8
	c0.1,0.2,0.2,0.4,0.4,0.6c0.2,0.2,0.4,0.3,0.6,0.4c0.2,0.1,0.5,0.1,0.8,0.1c0.3,0,0.6-0.1,0.9-0.2c0.3-0.1,0.5-0.3,0.8-0.5l0.6,0.9
	c-0.3,0.3-0.7,0.5-1.1,0.7C118.4,406.3,118,406.4,117.6,406.4z M121.7,406.3v-8.5h1.4v5.3h0l2.7-2.7h1.5l-2.3,2.3l2.5,3.5h-1.5
	l-1.9-2.7l-1.1,1.2v1.5H121.7z M131.5,406.4c-0.6,0-1.1-0.1-1.6-0.3c-0.5-0.2-0.9-0.4-1.3-0.6l0.6-0.9c0.4,0.2,0.7,0.4,1.1,0.5
	c0.4,0.1,0.8,0.2,1.3,0.2c0.4,0,0.7-0.1,0.9-0.2c0.2-0.1,0.3-0.3,0.3-0.5c0-0.1,0-0.2-0.1-0.2c0-0.1-0.1-0.2-0.2-0.2
	c-0.1-0.1-0.3-0.1-0.5-0.2c-0.2-0.1-0.5-0.1-0.8-0.2c-0.8-0.2-1.4-0.4-1.7-0.7c-0.4-0.3-0.5-0.7-0.5-1.1c0-0.5,0.2-0.9,0.7-1.3
	c0.4-0.3,1.1-0.5,1.9-0.5c0.5,0,0.9,0.1,1.4,0.2c0.4,0.2,0.8,0.3,1.1,0.5l-0.6,0.8c-0.3-0.2-0.6-0.3-0.9-0.4c-0.3-0.1-0.7-0.2-1-0.2
	c-0.4,0-0.7,0.1-0.8,0.2c-0.2,0.1-0.2,0.3-0.2,0.5c0,0.2,0.1,0.4,0.4,0.5c0.2,0.1,0.6,0.2,1.2,0.3c0.5,0.1,0.9,0.2,1.2,0.3
	c0.3,0.1,0.5,0.2,0.7,0.4c0.2,0.1,0.3,0.3,0.4,0.5c0.1,0.2,0.1,0.4,0.1,0.6c0,0.3-0.1,0.5-0.2,0.7c-0.1,0.2-0.3,0.4-0.5,0.6
	c-0.2,0.2-0.5,0.3-0.9,0.4C132.3,406.3,131.9,406.4,131.5,406.4z M143.4,406.3l-1.1-5.9h1.3l0.5,3.1c0,0.3,0.1,0.6,0.1,0.8
	c0,0.3,0.1,0.6,0.1,0.8h0c0-0.3,0.1-0.6,0.1-0.8c0.1-0.3,0.1-0.6,0.2-0.8l0.5-2.5h1.1l0.5,2.5c0.1,0.3,0.1,0.6,0.2,0.8
	c0.1,0.3,0.1,0.6,0.2,0.8h0c0-0.3,0.1-0.6,0.1-0.8c0-0.3,0.1-0.6,0.1-0.8l0.5-3.1h1.3l-1.1,5.9h-1.7l-0.5-2.4
	c-0.1-0.5-0.2-1-0.2-1.7h0c0,0.3-0.1,0.6-0.1,0.9c0,0.3-0.1,0.6-0.1,0.8l-0.5,2.4H143.4z M150.4,406.3v-8.5h1.4v2.2l-0.1,1.2h0
	c0.3-0.3,0.6-0.5,0.9-0.7c0.3-0.2,0.7-0.3,1.2-0.3c0.7,0,1.2,0.2,1.5,0.6c0.3,0.4,0.5,1,0.5,1.8v3.6h-1.4v-3.5c0-0.5-0.1-0.8-0.2-1
	c-0.2-0.2-0.4-0.3-0.8-0.3c-0.3,0-0.6,0.1-0.8,0.2c-0.2,0.1-0.5,0.3-0.7,0.6v4H150.4z M160.2,406.3v-4.8h-2.5v-1.1h3.9v5.9H160.2z
	 M161.2,399.3c-0.3,0-0.5-0.1-0.7-0.2c-0.2-0.2-0.3-0.4-0.3-0.7c0-0.3,0.1-0.5,0.3-0.7c0.2-0.2,0.4-0.3,0.7-0.3
	c0.3,0,0.5,0.1,0.7,0.3c0.2,0.2,0.3,0.4,0.3,0.7c0,0.3-0.1,0.5-0.3,0.7C161.8,399.2,161.5,399.3,161.2,399.3z M168.7,406.4
	c-0.7,0-1.2-0.2-1.6-0.6c-0.4-0.4-0.5-1-0.5-1.7v-5.2h-2v-1.1h3.3v6.4c0,0.4,0.1,0.7,0.3,0.9c0.2,0.2,0.5,0.2,0.8,0.2
	c0.3,0,0.7-0.1,1-0.2l0.3,1c-0.3,0.1-0.6,0.2-0.8,0.2C169.3,406.4,169,406.4,168.7,406.4z M175,406.4c-0.4,0-0.9-0.1-1.3-0.2
	c-0.4-0.1-0.7-0.3-1-0.6c-0.3-0.3-0.5-0.6-0.7-1c-0.2-0.4-0.2-0.8-0.2-1.3c0-0.5,0.1-0.9,0.2-1.3c0.2-0.4,0.4-0.7,0.7-1
	c0.3-0.3,0.6-0.5,1-0.6c0.4-0.1,0.7-0.2,1.1-0.2c0.4,0,0.8,0.1,1.2,0.2c0.3,0.1,0.6,0.3,0.9,0.6c0.2,0.2,0.4,0.5,0.5,0.9
	c0.1,0.3,0.2,0.7,0.2,1.1c0,0.1,0,0.3,0,0.4c0,0.1,0,0.2,0,0.3h-4.3c0.1,0.6,0.3,1,0.7,1.2c0.4,0.3,0.8,0.4,1.4,0.4
	c0.3,0,0.6,0,0.9-0.1c0.3-0.1,0.5-0.2,0.8-0.4l0.5,0.9c-0.3,0.2-0.7,0.4-1.1,0.5C175.9,406.3,175.4,406.4,175,406.4z M174.9,401.3
	c-0.4,0-0.8,0.1-1.1,0.4c-0.3,0.2-0.5,0.6-0.6,1.1h3.1c-0.1-0.5-0.2-0.8-0.5-1.1C175.6,401.4,175.3,401.3,174.9,401.3z M190.1,406.4
	c-0.4,0-0.8-0.1-1.1-0.2c-0.3-0.1-0.5-0.3-0.7-0.5c-0.2-0.2-0.3-0.5-0.4-0.8c-0.1-0.3-0.1-0.7-0.1-1v-2.4h-1.6v-1l1.6-0.1l0.2-1.8
	h1.1v1.8h2.7v1.1h-2.7v2.4c0,0.5,0.1,0.8,0.3,1.1c0.2,0.2,0.6,0.3,1.1,0.3c0.3,0,0.5,0,0.7-0.1c0.2-0.1,0.4-0.1,0.6-0.2l0.3,1
	c-0.3,0.1-0.5,0.2-0.9,0.2C190.9,406.4,190.5,406.4,190.1,406.4z M193.6,406.3v-8.5h1.4v2.2l-0.1,1.2h0c0.3-0.3,0.6-0.5,0.9-0.7
	c0.3-0.2,0.7-0.3,1.2-0.3c0.7,0,1.2,0.2,1.5,0.6c0.3,0.4,0.5,1,0.5,1.8v3.6h-1.4v-3.5c0-0.5-0.1-0.8-0.2-1c-0.2-0.2-0.4-0.3-0.8-0.3
	c-0.3,0-0.6,0.1-0.8,0.2c-0.2,0.1-0.5,0.3-0.7,0.6v4H193.6z M203.8,406.4c-0.4,0-0.9-0.1-1.3-0.2c-0.4-0.1-0.7-0.3-1-0.6
	c-0.3-0.3-0.5-0.6-0.7-1c-0.2-0.4-0.2-0.8-0.2-1.3c0-0.5,0.1-0.9,0.2-1.3c0.2-0.4,0.4-0.7,0.7-1c0.3-0.3,0.6-0.5,1-0.6
	c0.4-0.1,0.7-0.2,1.1-0.2c0.4,0,0.8,0.1,1.2,0.2c0.3,0.1,0.6,0.3,0.9,0.6c0.2,0.2,0.4,0.5,0.5,0.9c0.1,0.3,0.2,0.7,0.2,1.1
	c0,0.1,0,0.3,0,0.4c0,0.1,0,0.2,0,0.3H202c0.1,0.6,0.3,1,0.7,1.2c0.4,0.3,0.8,0.4,1.4,0.4c0.3,0,0.6,0,0.9-0.1
	c0.3-0.1,0.5-0.2,0.8-0.4l0.5,0.9c-0.3,0.2-0.7,0.4-1.1,0.5C204.7,406.3,204.2,406.4,203.8,406.4z M203.7,401.3
	c-0.4,0-0.8,0.1-1.1,0.4c-0.3,0.2-0.5,0.6-0.6,1.1h3.1c-0.1-0.5-0.2-0.8-0.5-1.1C204.4,401.4,204.1,401.3,203.7,401.3z M208.7,408.7
	c-0.2,0-0.3,0-0.5,0c-0.1,0-0.3-0.1-0.4-0.1l0.3-1.1c0.1,0,0.2,0.1,0.2,0.1c0.1,0,0.2,0,0.3,0c0.4,0,0.7-0.1,0.9-0.3
	c0.2-0.2,0.4-0.4,0.5-0.7l0.2-0.4l-2.6-5.8h1.4l1.2,2.9c0.1,0.3,0.2,0.5,0.3,0.8c0.1,0.3,0.2,0.6,0.3,0.9h0c0.1-0.3,0.2-0.6,0.3-0.9
	c0.1-0.3,0.2-0.6,0.3-0.9l1.1-2.9h1.3l-2.5,6.2c-0.1,0.3-0.3,0.6-0.4,0.9c-0.2,0.3-0.3,0.5-0.5,0.7c-0.2,0.2-0.4,0.3-0.7,0.4
	C209.4,408.6,209,408.7,208.7,408.7z M217.2,402.4l-0.4-0.8c0.4-0.2,0.7-0.5,0.9-0.8c0.2-0.3,0.3-0.6,0.4-1c-0.1,0-0.2,0-0.3,0
	c-0.3,0-0.5-0.1-0.7-0.3c-0.2-0.2-0.3-0.4-0.3-0.7c0-0.3,0.1-0.6,0.3-0.8c0.2-0.2,0.4-0.3,0.7-0.3c0.4,0,0.7,0.2,0.9,0.5
	c0.2,0.3,0.3,0.7,0.3,1.2c0,0.6-0.2,1.2-0.5,1.7C218.3,401.7,217.8,402.1,217.2,402.4z M224.6,406.4c-0.4,0-0.7-0.1-1-0.2
	c-0.3-0.1-0.6-0.3-0.8-0.6c-0.2-0.3-0.4-0.6-0.5-1c-0.1-0.4-0.2-0.8-0.2-1.3c0-0.5,0.1-0.9,0.2-1.3c0.1-0.4,0.3-0.7,0.6-1
	c0.2-0.3,0.5-0.5,0.8-0.6c0.3-0.1,0.6-0.2,1-0.2c0.3,0,0.6,0.1,0.9,0.2c0.3,0.1,0.5,0.3,0.7,0.5h0l-0.1-1v-2.1h1.4v8.5h-1.1
	l-0.1-0.7h0c-0.2,0.2-0.5,0.4-0.8,0.6C225.3,406.3,224.9,406.4,224.6,406.4z M224.9,405.3c0.5,0,0.9-0.2,1.3-0.7v-2.7
	c-0.2-0.2-0.4-0.3-0.6-0.4c-0.2-0.1-0.4-0.1-0.6-0.1c-0.2,0-0.4,0-0.6,0.1c-0.2,0.1-0.3,0.2-0.5,0.4c-0.1,0.2-0.2,0.4-0.3,0.6
	c-0.1,0.2-0.1,0.5-0.1,0.8c0,0.6,0.1,1.1,0.4,1.5C224.1,405.1,224.5,405.3,224.9,405.3z M239.3,408.9c-0.4,0-0.8,0-1.1-0.1
	c-0.3-0.1-0.6-0.2-0.8-0.3c-0.2-0.1-0.4-0.3-0.5-0.5c-0.1-0.2-0.2-0.4-0.2-0.7c0-0.5,0.3-0.9,0.9-1.2v0c-0.2-0.1-0.3-0.2-0.4-0.4
	c-0.1-0.2-0.2-0.4-0.2-0.6c0-0.2,0.1-0.4,0.2-0.6c0.1-0.2,0.3-0.4,0.5-0.5v0c-0.2-0.1-0.4-0.3-0.5-0.6c-0.1-0.3-0.2-0.6-0.2-0.9
	c0-0.3,0.1-0.6,0.2-0.9c0.1-0.3,0.3-0.5,0.5-0.7c0.2-0.2,0.5-0.3,0.8-0.4c0.3-0.1,0.6-0.1,0.9-0.1c0.3,0,0.6,0,0.9,0.1h2.4v1h-1.4
	c0.1,0.1,0.2,0.3,0.3,0.4c0.1,0.2,0.1,0.3,0.1,0.5c0,0.3-0.1,0.6-0.2,0.9c-0.1,0.2-0.3,0.5-0.5,0.6c-0.2,0.2-0.5,0.3-0.8,0.4
	c-0.3,0.1-0.6,0.1-0.9,0.1c-0.3,0-0.6-0.1-0.9-0.2c-0.2,0.1-0.4,0.3-0.4,0.6c0,0.4,0.4,0.5,1.1,0.5h1.2c0.8,0,1.3,0.1,1.7,0.3
	c0.4,0.2,0.6,0.6,0.6,1.1c0,0.3-0.1,0.6-0.2,0.8c-0.2,0.3-0.4,0.5-0.7,0.7c-0.3,0.2-0.6,0.3-1.1,0.4
	C240.3,408.8,239.8,408.9,239.3,408.9z M239.3,403.5c0.3,0,0.6-0.1,0.8-0.3c0.2-0.2,0.3-0.5,0.3-0.9c0-0.4-0.1-0.7-0.3-0.9
	c-0.2-0.2-0.5-0.3-0.8-0.3c-0.3,0-0.6,0.1-0.8,0.3c-0.2,0.2-0.3,0.5-0.3,0.9c0,0.4,0.1,0.7,0.3,0.9
	C238.7,403.4,239,403.5,239.3,403.5z M239.4,407.9c0.3,0,0.6,0,0.8-0.1c0.2-0.1,0.4-0.1,0.6-0.2c0.2-0.1,0.3-0.2,0.4-0.3
	c0.1-0.1,0.1-0.2,0.1-0.3c0-0.2-0.1-0.4-0.3-0.5c-0.2-0.1-0.5-0.1-0.9-0.1h-0.9c-0.4,0-0.7,0-0.9-0.1c-0.2,0.1-0.4,0.2-0.5,0.4
	c-0.1,0.1-0.1,0.3-0.1,0.4c0,0.3,0.1,0.5,0.4,0.6C238.5,407.9,238.9,407.9,239.4,407.9z M246.6,406.4c-0.4,0-0.7-0.1-1.1-0.2
	c-0.4-0.1-0.7-0.3-1-0.6c-0.3-0.3-0.5-0.6-0.7-1c-0.2-0.4-0.2-0.8-0.2-1.3c0-0.5,0.1-0.9,0.2-1.3c0.2-0.4,0.4-0.7,0.7-1
	c0.3-0.3,0.6-0.5,1-0.6c0.4-0.1,0.7-0.2,1.1-0.2c0.4,0,0.8,0.1,1.1,0.2c0.4,0.1,0.7,0.3,1,0.6c0.3,0.3,0.5,0.6,0.7,1
	c0.2,0.4,0.3,0.8,0.2,1.3c0,0.5-0.1,0.9-0.2,1.3c-0.2,0.4-0.4,0.7-0.7,1c-0.3,0.3-0.6,0.5-1,0.6C247.4,406.3,247,406.4,246.6,406.4z
	 M246.6,405.3c0.5,0,0.9-0.2,1.1-0.5c0.3-0.4,0.4-0.8,0.4-1.4c0-0.6-0.1-1.1-0.4-1.4c-0.3-0.4-0.6-0.5-1.1-0.5
	c-0.5,0-0.9,0.2-1.1,0.5c-0.3,0.4-0.4,0.8-0.4,1.4c0,0.6,0.1,1.1,0.4,1.4C245.8,405.1,246.2,405.3,246.6,405.3z M261,406.4
	c-0.4,0-0.7-0.1-1.1-0.2c-0.4-0.1-0.7-0.3-1-0.6c-0.3-0.3-0.5-0.6-0.7-1c-0.2-0.4-0.2-0.8-0.2-1.3c0-0.5,0.1-0.9,0.2-1.3
	c0.2-0.4,0.4-0.7,0.7-1c0.3-0.3,0.6-0.5,1-0.6c0.4-0.1,0.7-0.2,1.1-0.2c0.4,0,0.8,0.1,1.1,0.2c0.4,0.1,0.7,0.3,1,0.6
	c0.3,0.3,0.5,0.6,0.7,1c0.2,0.4,0.2,0.8,0.2,1.3c0,0.5-0.1,0.9-0.2,1.3c-0.2,0.4-0.4,0.7-0.7,1c-0.3,0.3-0.6,0.5-1,0.6
	C261.8,406.3,261.4,406.4,261,406.4z M261,405.3c0.5,0,0.9-0.2,1.1-0.5c0.3-0.4,0.4-0.8,0.4-1.4c0-0.6-0.1-1.1-0.4-1.4
	c-0.3-0.4-0.6-0.5-1.1-0.5c-0.5,0-0.9,0.2-1.1,0.5c-0.3,0.4-0.4,0.8-0.4,1.4c0,0.6,0.1,1.1,0.4,1.4
	C260.2,405.1,260.6,405.3,261,405.3z M266.2,406.3v-5.9h1.1l0.1,1.3h0c0.3-0.5,0.7-0.8,1.1-1.1c0.4-0.3,0.9-0.4,1.4-0.4
	c0.2,0,0.4,0,0.6,0.1c0.2,0,0.4,0.1,0.5,0.2l-0.3,1.2c-0.2-0.1-0.4-0.1-0.5-0.1c-0.1,0-0.3,0-0.6,0c-0.4,0-0.8,0.1-1.2,0.4
	c-0.4,0.2-0.7,0.6-1,1.2v3.2H266.2z M282.7,406.4c-0.6,0-1.1-0.1-1.6-0.3c-0.5-0.2-0.9-0.4-1.3-0.6l0.6-0.9c0.4,0.2,0.7,0.4,1.1,0.5
	c0.4,0.1,0.8,0.2,1.3,0.2c0.4,0,0.7-0.1,0.9-0.2c0.2-0.1,0.3-0.3,0.3-0.5c0-0.1,0-0.2-0.1-0.2c0-0.1-0.1-0.2-0.2-0.2
	c-0.1-0.1-0.3-0.1-0.5-0.2c-0.2-0.1-0.5-0.1-0.8-0.2c-0.8-0.2-1.4-0.4-1.7-0.7c-0.4-0.3-0.5-0.7-0.5-1.1c0-0.5,0.2-0.9,0.7-1.3
	c0.4-0.3,1.1-0.5,1.9-0.5c0.5,0,0.9,0.1,1.4,0.2c0.4,0.2,0.8,0.3,1.1,0.5l-0.6,0.8c-0.3-0.2-0.6-0.3-0.9-0.4c-0.3-0.1-0.7-0.2-1-0.2
	c-0.4,0-0.7,0.1-0.8,0.2c-0.2,0.1-0.2,0.3-0.2,0.5c0,0.2,0.1,0.4,0.4,0.5c0.2,0.1,0.6,0.2,1.2,0.3c0.5,0.1,0.9,0.2,1.2,0.3
	c0.3,0.1,0.5,0.2,0.7,0.4c0.2,0.1,0.3,0.3,0.4,0.5c0.1,0.2,0.1,0.4,0.1,0.6c0,0.3-0.1,0.5-0.2,0.7c-0.1,0.2-0.3,0.4-0.5,0.6
	c-0.2,0.2-0.5,0.3-0.9,0.4C283.5,406.3,283.1,406.4,282.7,406.4z M287.4,406.3l-1.1-5.9h1.3l0.5,3.1c0,0.3,0.1,0.6,0.1,0.8
	c0,0.3,0.1,0.6,0.1,0.8h0c0-0.3,0.1-0.6,0.1-0.8c0.1-0.3,0.1-0.6,0.2-0.8l0.5-2.5h1.1l0.5,2.5c0.1,0.3,0.1,0.6,0.2,0.8
	c0.1,0.3,0.1,0.6,0.2,0.8h0c0-0.3,0.1-0.6,0.1-0.8c0-0.3,0.1-0.6,0.1-0.8l0.5-3.1h1.3l-1.1,5.9h-1.7l-0.5-2.4
	c-0.1-0.5-0.2-1-0.2-1.7h0c0,0.3-0.1,0.6-0.1,0.9c0,0.3-0.1,0.6-0.1,0.8l-0.5,2.4H287.4z M297,406.3v-4.8h-2.5v-1.1h3.9v5.9H297z
	 M298,399.3c-0.3,0-0.5-0.1-0.7-0.2c-0.2-0.2-0.3-0.4-0.3-0.7c0-0.3,0.1-0.5,0.3-0.7c0.2-0.2,0.4-0.3,0.7-0.3c0.3,0,0.5,0.1,0.7,0.3
	c0.2,0.2,0.3,0.4,0.3,0.7c0,0.3-0.1,0.5-0.3,0.7C298.6,399.2,298.3,399.3,298,399.3z M305.3,406.4c-0.4,0-0.8-0.1-1.1-0.2
	c-0.3-0.1-0.5-0.3-0.7-0.5c-0.2-0.2-0.3-0.5-0.4-0.8c-0.1-0.3-0.1-0.7-0.1-1v-2.4h-1.6v-1l1.6-0.1l0.2-1.8h1.1v1.8h2.7v1.1h-2.7v2.4
	c0,0.5,0.1,0.8,0.3,1.1c0.2,0.2,0.6,0.3,1.1,0.3c0.2,0,0.5,0,0.7-0.1c0.2-0.1,0.4-0.1,0.6-0.2l0.3,1c-0.3,0.1-0.5,0.2-0.9,0.2
	C306.1,406.4,305.7,406.4,305.3,406.4z M312,406.4c-0.5,0-0.9-0.1-1.3-0.2c-0.4-0.1-0.7-0.3-1-0.6c-0.3-0.3-0.5-0.6-0.7-1
	c-0.2-0.4-0.2-0.8-0.2-1.3c0-0.5,0.1-0.9,0.3-1.3c0.2-0.4,0.4-0.7,0.7-1c0.3-0.3,0.7-0.5,1.1-0.6c0.4-0.1,0.8-0.2,1.3-0.2
	c0.5,0,0.9,0.1,1.3,0.2c0.4,0.2,0.7,0.4,0.9,0.6l-0.7,0.9c-0.2-0.2-0.5-0.3-0.7-0.4c-0.2-0.1-0.5-0.1-0.8-0.1
	c-0.6,0-1.1,0.2-1.5,0.5c-0.4,0.4-0.5,0.8-0.5,1.4c0,0.3,0,0.6,0.1,0.8c0.1,0.2,0.2,0.4,0.4,0.6c0.2,0.2,0.4,0.3,0.6,0.4
	c0.2,0.1,0.5,0.1,0.8,0.1c0.3,0,0.6-0.1,0.9-0.2c0.3-0.1,0.5-0.3,0.8-0.5l0.6,0.9c-0.3,0.3-0.7,0.5-1.1,0.7
	C312.8,406.3,312.4,406.4,312,406.4z M316,406.3v-8.5h1.4v2.2l-0.1,1.2h0c0.3-0.3,0.6-0.5,0.9-0.7c0.3-0.2,0.7-0.3,1.2-0.3
	c0.7,0,1.2,0.2,1.5,0.6c0.3,0.4,0.5,1,0.5,1.8v3.6H320v-3.5c0-0.5-0.1-0.8-0.2-1c-0.2-0.2-0.4-0.3-0.8-0.3c-0.3,0-0.6,0.1-0.8,0.2
	c-0.2,0.1-0.5,0.3-0.7,0.6v4H316z"/>
<path class="st4" d="M92.8,425.6v-8.2H94l0.1,0.7h0c0.3-0.2,0.6-0.4,0.9-0.6c0.3-0.2,0.7-0.2,1-0.2c0.4,0,0.7,0.1,1,0.2
	c0.3,0.1,0.6,0.3,0.8,0.6c0.2,0.3,0.4,0.6,0.5,1c0.1,0.4,0.2,0.8,0.2,1.2c0,0.5-0.1,0.9-0.2,1.3c-0.1,0.4-0.3,0.7-0.6,1
	c-0.2,0.3-0.5,0.5-0.8,0.6c-0.3,0.1-0.6,0.2-1,0.2c-0.3,0-0.6-0.1-0.8-0.2c-0.3-0.1-0.5-0.3-0.8-0.5h0l0.1,1v1.8H92.8z M95.5,422.3
	c0.4,0,0.8-0.2,1.1-0.5c0.3-0.3,0.4-0.9,0.4-1.5c0-0.6-0.1-1-0.3-1.4c-0.2-0.3-0.6-0.5-1-0.5c-0.2,0-0.4,0.1-0.7,0.2
	c-0.2,0.1-0.5,0.3-0.7,0.5v2.7c0.2,0.2,0.4,0.3,0.7,0.4C95.1,422.2,95.3,422.3,95.5,422.3z M101.9,423.4c-0.3,0-0.5,0-0.8-0.1
	c-0.2-0.1-0.4-0.2-0.6-0.3c-0.2-0.2-0.3-0.3-0.4-0.5c-0.1-0.2-0.1-0.5-0.1-0.7c0-0.3,0.1-0.6,0.2-0.9c0.2-0.3,0.4-0.5,0.7-0.6
	c0.3-0.2,0.8-0.3,1.3-0.4c0.5-0.1,1.1-0.2,1.9-0.2c0-0.3-0.1-0.6-0.4-0.8c-0.2-0.2-0.6-0.3-1-0.3c-0.3,0-0.7,0.1-1,0.2
	c-0.3,0.1-0.6,0.3-1,0.4l-0.5-0.9c0.4-0.2,0.8-0.4,1.2-0.6c0.5-0.2,1-0.3,1.5-0.2c0.8,0,1.4,0.2,1.9,0.7c0.4,0.4,0.7,1.1,0.7,1.9
	v3.5h-1.1l-0.1-0.7h0c-0.3,0.2-0.7,0.4-1,0.6C102.7,423.3,102.3,423.4,101.9,423.4z M102.3,422.3c0.3,0,0.6-0.1,0.9-0.2
	c0.3-0.1,0.6-0.3,0.8-0.5v-1.2c-0.5,0-1,0.1-1.3,0.2c-0.3,0.1-0.6,0.1-0.8,0.2c-0.2,0.1-0.4,0.2-0.5,0.4c-0.1,0.1-0.1,0.3-0.1,0.4
	c0,0.3,0.1,0.5,0.3,0.6C101.7,422.3,102,422.3,102.3,422.3z M109.7,425.9c-0.4,0-0.8,0-1.1-0.1c-0.3-0.1-0.6-0.2-0.8-0.3
	c-0.2-0.1-0.4-0.3-0.5-0.5c-0.1-0.2-0.2-0.4-0.2-0.7c0-0.5,0.3-0.9,0.9-1.2v0c-0.2-0.1-0.3-0.2-0.4-0.4c-0.1-0.2-0.2-0.4-0.2-0.6
	c0-0.2,0.1-0.4,0.2-0.6c0.1-0.2,0.3-0.4,0.5-0.5v0c-0.2-0.1-0.4-0.3-0.5-0.6c-0.1-0.3-0.2-0.6-0.2-0.9c0-0.3,0.1-0.6,0.2-0.9
	c0.1-0.3,0.3-0.5,0.5-0.7c0.2-0.2,0.5-0.3,0.8-0.4c0.3-0.1,0.6-0.1,0.9-0.1c0.3,0,0.6,0,0.9,0.1h2.4v1h-1.4c0.1,0.1,0.2,0.3,0.3,0.4
	c0.1,0.2,0.1,0.3,0.1,0.5c0,0.3-0.1,0.6-0.2,0.9c-0.1,0.2-0.3,0.5-0.5,0.6c-0.2,0.2-0.5,0.3-0.8,0.4c-0.3,0.1-0.6,0.1-0.9,0.1
	c-0.3,0-0.6-0.1-0.9-0.2c-0.2,0.1-0.4,0.3-0.4,0.6c0,0.4,0.4,0.5,1.1,0.5h1.2c0.8,0,1.3,0.1,1.7,0.3c0.4,0.2,0.6,0.6,0.6,1.1
	c0,0.3-0.1,0.6-0.2,0.8c-0.2,0.3-0.4,0.5-0.7,0.7c-0.3,0.2-0.6,0.3-1.1,0.4C110.7,425.8,110.2,425.9,109.7,425.9z M109.7,420.5
	c0.3,0,0.6-0.1,0.8-0.3c0.2-0.2,0.3-0.5,0.3-0.9c0-0.4-0.1-0.7-0.3-0.9c-0.2-0.2-0.5-0.3-0.8-0.3c-0.3,0-0.6,0.1-0.8,0.3
	c-0.2,0.2-0.3,0.5-0.3,0.9c0,0.4,0.1,0.7,0.3,0.9C109.1,420.4,109.4,420.5,109.7,420.5z M109.8,424.9c0.3,0,0.6,0,0.8-0.1
	c0.2-0.1,0.4-0.1,0.6-0.2c0.2-0.1,0.3-0.2,0.4-0.3c0.1-0.1,0.1-0.2,0.1-0.3c0-0.2-0.1-0.4-0.3-0.5c-0.2-0.1-0.5-0.1-0.9-0.1h-0.9
	c-0.4,0-0.7,0-0.9-0.1c-0.2,0.1-0.4,0.2-0.5,0.4c-0.1,0.1-0.1,0.3-0.1,0.4c0,0.3,0.1,0.5,0.4,0.6
	C108.9,424.9,109.3,424.9,109.8,424.9z M117.4,423.4c-0.4,0-0.9-0.1-1.3-0.2c-0.4-0.1-0.7-0.3-1-0.6c-0.3-0.3-0.5-0.6-0.7-1
	c-0.2-0.4-0.2-0.8-0.2-1.3c0-0.5,0.1-0.9,0.2-1.3c0.2-0.4,0.4-0.7,0.7-1c0.3-0.3,0.6-0.5,1-0.6c0.4-0.1,0.7-0.2,1.1-0.2
	c0.4,0,0.8,0.1,1.2,0.2c0.3,0.1,0.6,0.3,0.9,0.6c0.2,0.2,0.4,0.5,0.5,0.9c0.1,0.3,0.2,0.7,0.2,1.1c0,0.1,0,0.3,0,0.4
	c0,0.1,0,0.2,0,0.3h-4.3c0.1,0.6,0.3,1,0.7,1.2c0.4,0.3,0.8,0.4,1.4,0.4c0.3,0,0.6,0,0.9-0.1c0.3-0.1,0.5-0.2,0.8-0.4l0.5,0.9
	c-0.3,0.2-0.7,0.4-1.1,0.5C118.3,423.3,117.8,423.4,117.4,423.4z M117.3,418.3c-0.4,0-0.8,0.1-1.1,0.4c-0.3,0.2-0.5,0.6-0.6,1.1h3.1
	c-0.1-0.5-0.2-0.8-0.5-1.1C118,418.4,117.7,418.3,117.3,418.3z M123.3,425.8l-0.4-0.8c1-0.4,1.5-1,1.5-1.8c0,0-0.1,0-0.2,0
	c-0.3,0-0.6-0.1-0.8-0.3c-0.2-0.2-0.3-0.5-0.3-0.8c0-0.3,0.1-0.6,0.3-0.8c0.2-0.2,0.5-0.3,0.8-0.3c0.4,0,0.8,0.2,1,0.5
	c0.2,0.3,0.3,0.7,0.3,1.3c0,0.7-0.2,1.4-0.6,1.9C124.6,425.2,124,425.6,123.3,425.8z M138.7,423.4c-0.6,0-1.1-0.1-1.6-0.3
	c-0.5-0.2-0.9-0.4-1.3-0.6l0.6-0.9c0.4,0.2,0.7,0.4,1.1,0.5c0.4,0.1,0.8,0.2,1.3,0.2c0.4,0,0.7-0.1,0.9-0.2c0.2-0.1,0.3-0.3,0.3-0.5
	c0-0.1,0-0.2-0.1-0.2c0-0.1-0.1-0.2-0.2-0.2c-0.1-0.1-0.3-0.1-0.5-0.2c-0.2-0.1-0.5-0.1-0.8-0.2c-0.8-0.2-1.4-0.4-1.7-0.7
	c-0.4-0.3-0.5-0.7-0.5-1.1c0-0.5,0.2-0.9,0.7-1.3c0.4-0.3,1.1-0.5,1.9-0.5c0.5,0,0.9,0.1,1.4,0.2c0.4,0.2,0.8,0.3,1.1,0.5l-0.6,0.8
	c-0.3-0.2-0.6-0.3-0.9-0.4c-0.3-0.1-0.7-0.2-1-0.2c-0.4,0-0.7,0.1-0.8,0.2c-0.2,0.1-0.2,0.3-0.2,0.5c0,0.2,0.1,0.4,0.4,0.5
	c0.2,0.1,0.6,0.2,1.2,0.3c0.5,0.1,0.9,0.2,1.2,0.3c0.3,0.1,0.5,0.2,0.7,0.4c0.2,0.1,0.3,0.3,0.4,0.5c0.1,0.2,0.1,0.4,0.1,0.6
	c0,0.3-0.1,0.5-0.2,0.7c-0.1,0.2-0.3,0.4-0.5,0.6c-0.2,0.2-0.5,0.3-0.9,0.4C139.5,423.3,139.1,423.4,138.7,423.4z M145.1,423.4
	c-0.3,0-0.5,0-0.8-0.1c-0.2-0.1-0.4-0.2-0.6-0.3c-0.2-0.2-0.3-0.3-0.4-0.5c-0.1-0.2-0.1-0.5-0.1-0.7c0-0.3,0.1-0.6,0.2-0.9
	c0.2-0.3,0.4-0.5,0.7-0.6c0.3-0.2,0.8-0.3,1.3-0.4c0.5-0.1,1.1-0.2,1.9-0.2c0-0.3-0.1-0.6-0.4-0.8c-0.2-0.2-0.6-0.3-1-0.3
	c-0.3,0-0.7,0.1-1,0.2c-0.3,0.1-0.6,0.3-1,0.4l-0.5-0.9c0.4-0.2,0.8-0.4,1.2-0.6c0.5-0.2,1-0.3,1.5-0.2c0.8,0,1.4,0.2,1.9,0.7
	c0.4,0.4,0.7,1.1,0.7,1.9v3.5h-1.1l-0.1-0.7h0c-0.3,0.2-0.7,0.4-1,0.6C145.9,423.3,145.5,423.4,145.1,423.4z M145.5,422.3
	c0.3,0,0.6-0.1,0.9-0.2c0.3-0.1,0.6-0.3,0.8-0.5v-1.2c-0.5,0-1,0.1-1.3,0.2c-0.3,0.1-0.6,0.1-0.8,0.2c-0.2,0.1-0.4,0.2-0.5,0.4
	c-0.1,0.1-0.1,0.3-0.1,0.4c0,0.3,0.1,0.5,0.3,0.6C144.9,422.3,145.2,422.3,145.5,422.3z M152.3,423.3l-2.4-5.9h1.4l1.1,3.1
	c0.1,0.3,0.2,0.6,0.3,0.9c0.1,0.3,0.2,0.6,0.3,0.9h0c0.1-0.3,0.2-0.6,0.3-0.9c0.1-0.3,0.2-0.6,0.3-0.9l1.1-3.1h1.3l-2.3,5.9H152.3z
	 M160.6,423.4c-0.4,0-0.9-0.1-1.3-0.2c-0.4-0.1-0.7-0.3-1-0.6c-0.3-0.3-0.5-0.6-0.7-1c-0.2-0.4-0.2-0.8-0.2-1.3
	c0-0.5,0.1-0.9,0.2-1.3c0.2-0.4,0.4-0.7,0.7-1c0.3-0.3,0.6-0.5,1-0.6c0.4-0.1,0.7-0.2,1.1-0.2c0.4,0,0.8,0.1,1.2,0.2
	c0.3,0.1,0.6,0.3,0.9,0.6c0.2,0.2,0.4,0.5,0.5,0.9c0.1,0.3,0.2,0.7,0.2,1.1c0,0.1,0,0.3,0,0.4c0,0.1,0,0.2,0,0.3h-4.3
	c0.1,0.6,0.3,1,0.7,1.2c0.4,0.3,0.8,0.4,1.4,0.4c0.3,0,0.6,0,0.9-0.1c0.3-0.1,0.5-0.2,0.8-0.4l0.5,0.9c-0.3,0.2-0.7,0.4-1.1,0.5
	C161.5,423.3,161,423.4,160.6,423.4z M160.5,418.3c-0.4,0-0.8,0.1-1.1,0.4c-0.3,0.2-0.5,0.6-0.6,1.1h3.1c-0.1-0.5-0.2-0.8-0.5-1.1
	C161.2,418.4,160.9,418.3,160.5,418.3z M175.7,423.4c-0.4,0-0.8-0.1-1.1-0.2c-0.3-0.1-0.5-0.3-0.7-0.5c-0.2-0.2-0.3-0.5-0.4-0.8
	c-0.1-0.3-0.1-0.7-0.1-1v-2.4h-1.6v-1l1.6-0.1l0.2-1.8h1.1v1.8h2.7v1.1h-2.7v2.4c0,0.5,0.1,0.8,0.3,1.1c0.2,0.2,0.6,0.3,1.1,0.3
	c0.2,0,0.5,0,0.7-0.1c0.2-0.1,0.4-0.1,0.6-0.2l0.3,1c-0.3,0.1-0.5,0.2-0.9,0.2C176.5,423.4,176.1,423.4,175.7,423.4z M181.8,423.3
	v-4.8h-2.5v-1.1h3.9v5.9H181.8z M182.8,416.3c-0.3,0-0.5-0.1-0.7-0.2c-0.2-0.2-0.3-0.4-0.3-0.7c0-0.3,0.1-0.5,0.3-0.7
	c0.2-0.2,0.4-0.3,0.7-0.3c0.3,0,0.5,0.1,0.7,0.3c0.2,0.2,0.3,0.4,0.3,0.7c0,0.3-0.1,0.5-0.3,0.7
	C183.4,416.2,183.1,416.3,182.8,416.3z M186,423.3v-5.9h1.1l0.1,0.8h0c0.1-0.3,0.3-0.5,0.5-0.6c0.2-0.2,0.5-0.3,0.8-0.2
	c0.6,0,0.9,0.3,1.1,1c0.1-0.3,0.3-0.5,0.5-0.7c0.2-0.2,0.5-0.3,0.8-0.3c0.4,0,0.7,0.2,1,0.5c0.2,0.3,0.3,0.8,0.3,1.4v4.2h-1.3v-4.1
	c0-0.5-0.2-0.8-0.5-0.8c-0.2,0-0.3,0.1-0.4,0.2c-0.1,0.1-0.2,0.3-0.3,0.6v4.1h-1.2v-4.1c0-0.3,0-0.5-0.1-0.6
	c-0.1-0.1-0.2-0.2-0.4-0.2c-0.2,0-0.3,0.1-0.4,0.2c-0.1,0.1-0.2,0.3-0.3,0.6v4.1H186z M196.6,423.4c-0.4,0-0.9-0.1-1.3-0.2
	c-0.4-0.1-0.7-0.3-1-0.6c-0.3-0.3-0.5-0.6-0.7-1c-0.2-0.4-0.2-0.8-0.2-1.3c0-0.5,0.1-0.9,0.2-1.3c0.2-0.4,0.4-0.7,0.7-1
	c0.3-0.3,0.6-0.5,1-0.6c0.4-0.1,0.7-0.2,1.1-0.2c0.4,0,0.8,0.1,1.2,0.2c0.3,0.1,0.6,0.3,0.9,0.6c0.2,0.2,0.4,0.5,0.5,0.9
	c0.1,0.3,0.2,0.7,0.2,1.1c0,0.1,0,0.3,0,0.4c0,0.1,0,0.2,0,0.3h-4.3c0.1,0.6,0.3,1,0.7,1.2c0.4,0.3,0.8,0.4,1.4,0.4
	c0.3,0,0.6,0,0.9-0.1c0.3-0.1,0.5-0.2,0.8-0.4l0.5,0.9c-0.3,0.2-0.7,0.4-1.1,0.5C197.5,423.3,197,423.4,196.6,423.4z M196.5,418.3
	c-0.4,0-0.8,0.1-1.1,0.4c-0.3,0.2-0.5,0.6-0.6,1.1h3.1c-0.1-0.5-0.2-0.8-0.5-1.1C197.2,418.4,196.9,418.3,196.5,418.3z M209.9,423.4
	c-0.3,0-0.5,0-0.8-0.1c-0.2-0.1-0.4-0.2-0.6-0.3c-0.2-0.2-0.3-0.3-0.4-0.5c-0.1-0.2-0.1-0.5-0.1-0.7c0-0.3,0.1-0.6,0.2-0.9
	c0.2-0.3,0.4-0.5,0.7-0.6c0.3-0.2,0.8-0.3,1.3-0.4c0.5-0.1,1.1-0.2,1.9-0.2c0-0.3-0.1-0.6-0.4-0.8c-0.2-0.2-0.6-0.3-1-0.3
	c-0.3,0-0.7,0.1-1,0.2c-0.3,0.1-0.6,0.3-1,0.4l-0.5-0.9c0.4-0.2,0.8-0.4,1.2-0.6c0.5-0.2,1-0.3,1.5-0.2c0.8,0,1.4,0.2,1.9,0.7
	c0.4,0.4,0.7,1.1,0.7,1.9v3.5h-1.1l-0.1-0.7h0c-0.3,0.2-0.7,0.4-1,0.6C210.7,423.3,210.3,423.4,209.9,423.4z M210.3,422.3
	c0.3,0,0.6-0.1,0.9-0.2c0.3-0.1,0.6-0.3,0.8-0.5v-1.2c-0.5,0-1,0.1-1.3,0.2c-0.3,0.1-0.6,0.1-0.8,0.2c-0.2,0.1-0.4,0.2-0.5,0.4
	c-0.1,0.1-0.1,0.3-0.1,0.4c0,0.3,0.1,0.5,0.3,0.6C209.7,422.3,210,422.3,210.3,422.3z M215.2,423.3v-5.9h1.1l0.1,0.9h0
	c0.3-0.3,0.6-0.5,0.9-0.7c0.3-0.2,0.7-0.3,1.2-0.3c0.7,0,1.2,0.2,1.5,0.6c0.3,0.4,0.5,1,0.5,1.8v3.6h-1.4v-3.5c0-0.5-0.1-0.8-0.2-1
	c-0.2-0.2-0.4-0.3-0.8-0.3c-0.3,0-0.6,0.1-0.8,0.2c-0.2,0.1-0.5,0.3-0.7,0.6v4H215.2z M224.6,423.4c-0.4,0-0.7-0.1-1-0.2
	c-0.3-0.1-0.6-0.3-0.8-0.6c-0.2-0.3-0.4-0.6-0.5-1c-0.1-0.4-0.2-0.8-0.2-1.3c0-0.5,0.1-0.9,0.2-1.3c0.1-0.4,0.3-0.7,0.6-1
	c0.2-0.3,0.5-0.5,0.8-0.6c0.3-0.1,0.6-0.2,1-0.2c0.3,0,0.6,0.1,0.9,0.2c0.3,0.1,0.5,0.3,0.7,0.5h0l-0.1-1v-2.1h1.4v8.5h-1.1
	l-0.1-0.7h0c-0.2,0.2-0.5,0.4-0.8,0.6C225.3,423.3,224.9,423.4,224.6,423.4z M224.9,422.3c0.5,0,0.9-0.2,1.3-0.7v-2.7
	c-0.2-0.2-0.4-0.3-0.6-0.4c-0.2-0.1-0.4-0.1-0.6-0.1c-0.2,0-0.4,0-0.6,0.1c-0.2,0.1-0.3,0.2-0.5,0.4c-0.1,0.2-0.2,0.4-0.3,0.6
	c-0.1,0.2-0.1,0.5-0.1,0.8c0,0.6,0.1,1.1,0.4,1.5C224.1,422.1,224.5,422.3,224.9,422.3z M238.7,423.4c-0.7,0-1.2-0.2-1.5-0.6
	c-0.3-0.4-0.5-1-0.5-1.8v-3.6h1.4v3.5c0,0.5,0.1,0.8,0.2,1c0.2,0.2,0.5,0.3,0.9,0.3c0.3,0,0.5-0.1,0.8-0.2c0.2-0.1,0.5-0.4,0.7-0.7
	v-4h1.4v5.9h-1.1l-0.1-0.9h0c-0.3,0.3-0.6,0.6-0.9,0.8C239.5,423.3,239.1,423.4,238.7,423.4z M246.7,423.4c-0.6,0-1.1-0.1-1.6-0.3
	c-0.5-0.2-0.9-0.4-1.3-0.6l0.6-0.9c0.4,0.2,0.7,0.4,1.1,0.5c0.4,0.1,0.8,0.2,1.3,0.2c0.4,0,0.7-0.1,0.9-0.2c0.2-0.1,0.3-0.3,0.3-0.5
	c0-0.1,0-0.2-0.1-0.2c0-0.1-0.1-0.2-0.2-0.2c-0.1-0.1-0.3-0.1-0.5-0.2c-0.2-0.1-0.5-0.1-0.8-0.2c-0.8-0.2-1.4-0.4-1.7-0.7
	c-0.4-0.3-0.5-0.7-0.5-1.1c0-0.5,0.2-0.9,0.7-1.3c0.4-0.3,1.1-0.5,1.9-0.5c0.5,0,0.9,0.1,1.4,0.2c0.4,0.2,0.8,0.3,1.1,0.5l-0.6,0.8
	c-0.3-0.2-0.6-0.3-0.9-0.4c-0.3-0.1-0.7-0.2-1-0.2c-0.4,0-0.7,0.1-0.8,0.2c-0.2,0.1-0.2,0.3-0.2,0.5c0,0.2,0.1,0.4,0.4,0.5
	c0.2,0.1,0.6,0.2,1.2,0.3c0.5,0.1,0.9,0.2,1.2,0.3c0.3,0.1,0.5,0.2,0.7,0.4c0.2,0.1,0.3,0.3,0.4,0.5c0.1,0.2,0.1,0.4,0.1,0.6
	c0,0.3-0.1,0.5-0.2,0.7c-0.1,0.2-0.3,0.4-0.5,0.6c-0.2,0.2-0.5,0.3-0.9,0.4C247.5,423.3,247.1,423.4,246.7,423.4z M254.2,423.4
	c-0.4,0-0.9-0.1-1.3-0.2c-0.4-0.1-0.7-0.3-1-0.6c-0.3-0.3-0.5-0.6-0.7-1c-0.2-0.4-0.2-0.8-0.2-1.3c0-0.5,0.1-0.9,0.2-1.3
	c0.2-0.4,0.4-0.7,0.7-1c0.3-0.3,0.6-0.5,1-0.6c0.4-0.1,0.7-0.2,1.1-0.2c0.4,0,0.8,0.1,1.2,0.2c0.3,0.1,0.6,0.3,0.9,0.6
	c0.2,0.2,0.4,0.5,0.5,0.9c0.1,0.3,0.2,0.7,0.2,1.1c0,0.1,0,0.3,0,0.4c0,0.1,0,0.2,0,0.3h-4.3c0.1,0.6,0.3,1,0.7,1.2
	c0.4,0.3,0.8,0.4,1.4,0.4c0.3,0,0.6,0,0.9-0.1c0.3-0.1,0.5-0.2,0.8-0.4l0.5,0.9c-0.3,0.2-0.7,0.4-1.1,0.5
	C255.1,423.3,254.6,423.4,254.2,423.4z M254.1,418.3c-0.4,0-0.8,0.1-1.1,0.4c-0.3,0.2-0.5,0.6-0.6,1.1h3.1c-0.1-0.5-0.2-0.8-0.5-1.1
	C254.8,418.4,254.5,418.3,254.1,418.3z M265.2,423.3v-5.9h1.1l0.1,0.8h0c0.1-0.3,0.3-0.5,0.5-0.6c0.2-0.2,0.5-0.3,0.8-0.2
	c0.6,0,0.9,0.3,1.1,1c0.1-0.3,0.3-0.5,0.5-0.7c0.2-0.2,0.5-0.3,0.8-0.3c0.4,0,0.7,0.2,1,0.5c0.2,0.3,0.3,0.8,0.3,1.4v4.2h-1.3v-4.1
	c0-0.5-0.2-0.8-0.5-0.8c-0.2,0-0.3,0.1-0.4,0.2c-0.1,0.1-0.2,0.3-0.3,0.6v4.1h-1.2v-4.1c0-0.3,0-0.5-0.1-0.6
	c-0.1-0.1-0.2-0.2-0.4-0.2c-0.2,0-0.3,0.1-0.4,0.2c-0.1,0.1-0.2,0.3-0.3,0.6v4.1H265.2z M274.7,423.4c-0.7,0-1.2-0.2-1.5-0.6
	c-0.3-0.4-0.5-1-0.5-1.8v-3.6h1.4v3.5c0,0.5,0.1,0.8,0.2,1c0.2,0.2,0.5,0.3,0.9,0.3c0.3,0,0.5-0.1,0.8-0.2c0.2-0.1,0.5-0.4,0.7-0.7
	v-4h1.4v5.9h-1.1l-0.1-0.9h0c-0.3,0.3-0.6,0.6-0.9,0.8C275.5,423.3,275.1,423.4,274.7,423.4z M283.2,423.4c-0.5,0-0.9-0.1-1.3-0.2
	c-0.4-0.1-0.7-0.3-1-0.6c-0.3-0.3-0.5-0.6-0.7-1c-0.2-0.4-0.2-0.8-0.2-1.3c0-0.5,0.1-0.9,0.3-1.3c0.2-0.4,0.4-0.7,0.7-1
	c0.3-0.3,0.7-0.5,1.1-0.6c0.4-0.1,0.8-0.2,1.3-0.2c0.5,0,0.9,0.1,1.3,0.2c0.4,0.2,0.7,0.4,0.9,0.6l-0.7,0.9
	c-0.2-0.2-0.5-0.3-0.7-0.4c-0.2-0.1-0.5-0.1-0.8-0.1c-0.6,0-1.1,0.2-1.5,0.5c-0.4,0.4-0.5,0.8-0.5,1.4c0,0.3,0,0.6,0.1,0.8
	c0.1,0.2,0.2,0.4,0.4,0.6c0.2,0.2,0.4,0.3,0.6,0.4c0.2,0.1,0.5,0.1,0.8,0.1c0.3,0,0.6-0.1,0.9-0.2c0.3-0.1,0.5-0.3,0.8-0.5l0.6,0.9
	c-0.3,0.3-0.7,0.5-1.1,0.7C284,423.3,283.6,423.4,283.2,423.4z M287.2,423.3v-8.5h1.4v2.2l-0.1,1.2h0c0.3-0.3,0.6-0.5,0.9-0.7
	c0.3-0.2,0.7-0.3,1.2-0.3c0.7,0,1.2,0.2,1.5,0.6c0.3,0.4,0.5,1,0.5,1.8v3.6h-1.4v-3.5c0-0.5-0.1-0.8-0.2-1c-0.2-0.2-0.4-0.3-0.8-0.3
	c-0.3,0-0.6,0.1-0.8,0.2c-0.2,0.1-0.5,0.3-0.7,0.6v4H287.2z"/>
<path class="st4" d="M95.4,440.3v-4.8h-2.5v-1.1h3.9v5.9H95.4z M96.4,433.3c-0.3,0-0.5-0.1-0.7-0.2c-0.2-0.2-0.3-0.4-0.3-0.7
	c0-0.3,0.1-0.5,0.3-0.7c0.2-0.2,0.4-0.3,0.7-0.3c0.3,0,0.5,0.1,0.7,0.3c0.2,0.2,0.3,0.4,0.3,0.7c0,0.3-0.1,0.5-0.3,0.7
	C97,433.2,96.7,433.3,96.4,433.3z M100,440.3v-5.9h1.1l0.1,0.9h0c0.3-0.3,0.6-0.5,0.9-0.7c0.3-0.2,0.7-0.3,1.2-0.3
	c0.7,0,1.2,0.2,1.5,0.6c0.3,0.4,0.5,1,0.5,1.8v3.6H104v-3.5c0-0.5-0.1-0.8-0.2-1c-0.2-0.2-0.4-0.3-0.8-0.3c-0.3,0-0.6,0.1-0.8,0.2
	c-0.2,0.1-0.5,0.3-0.7,0.6v4H100z M110.9,440.4c-0.4,0-0.8-0.1-1.1-0.2c-0.3-0.1-0.5-0.3-0.7-0.5c-0.2-0.2-0.3-0.5-0.4-0.8
	c-0.1-0.3-0.1-0.7-0.1-1v-2.4H107v-1l1.6-0.1l0.2-1.8h1.1v1.8h2.7v1.1h-2.7v2.4c0,0.5,0.1,0.8,0.3,1.1c0.2,0.2,0.6,0.3,1.1,0.3
	c0.2,0,0.5,0,0.7-0.1c0.2-0.1,0.4-0.1,0.6-0.2l0.3,1c-0.3,0.1-0.5,0.2-0.9,0.2C111.7,440.4,111.3,440.4,110.9,440.4z M116.3,440.4
	c-0.7,0-1.2-0.2-1.5-0.6c-0.3-0.4-0.5-1-0.5-1.8v-3.6h1.4v3.5c0,0.5,0.1,0.8,0.2,1c0.2,0.2,0.5,0.3,0.9,0.3c0.3,0,0.5-0.1,0.8-0.2
	c0.2-0.1,0.5-0.4,0.7-0.7v-4h1.4v5.9h-1.1l-0.1-0.9h0c-0.3,0.3-0.6,0.6-0.9,0.8C117.1,440.3,116.7,440.4,116.3,440.4z M124.2,440.3
	v-4.8h-2.5v-1.1h3.9v5.9H124.2z M125.2,433.3c-0.3,0-0.5-0.1-0.7-0.2c-0.2-0.2-0.3-0.4-0.3-0.7c0-0.3,0.1-0.5,0.3-0.7
	c0.2-0.2,0.4-0.3,0.7-0.3c0.3,0,0.5,0.1,0.7,0.3c0.2,0.2,0.3,0.4,0.3,0.7c0,0.3-0.1,0.5-0.3,0.7
	C125.8,433.2,125.5,433.3,125.2,433.3z M132.5,440.4c-0.4,0-0.8-0.1-1.1-0.2c-0.3-0.1-0.5-0.3-0.7-0.5c-0.2-0.2-0.3-0.5-0.4-0.8
	c-0.1-0.3-0.1-0.7-0.1-1v-2.4h-1.6v-1l1.6-0.1l0.2-1.8h1.1v1.8h2.7v1.1h-2.7v2.4c0,0.5,0.1,0.8,0.3,1.1c0.2,0.2,0.6,0.3,1.1,0.3
	c0.2,0,0.5,0,0.7-0.1c0.2-0.1,0.4-0.1,0.6-0.2l0.3,1c-0.3,0.1-0.5,0.2-0.9,0.2C133.3,440.4,132.9,440.4,132.5,440.4z M138.6,440.3
	v-4.8h-2.5v-1.1h3.9v5.9H138.6z M139.6,433.3c-0.3,0-0.5-0.1-0.7-0.2c-0.2-0.2-0.3-0.4-0.3-0.7c0-0.3,0.1-0.5,0.3-0.7
	c0.2-0.2,0.4-0.3,0.7-0.3c0.3,0,0.5,0.1,0.7,0.3c0.2,0.2,0.3,0.4,0.3,0.7c0,0.3-0.1,0.5-0.3,0.7
	C140.2,433.2,139.9,433.3,139.6,433.3z M145.1,440.3l-2.4-5.9h1.4l1.1,3.1c0.1,0.3,0.2,0.6,0.3,0.9c0.1,0.3,0.2,0.6,0.3,0.9h0
	c0.1-0.3,0.2-0.6,0.3-0.9c0.1-0.3,0.2-0.6,0.3-0.9l1.1-3.1h1.3l-2.3,5.9H145.1z M153.4,440.4c-0.4,0-0.9-0.1-1.3-0.2
	c-0.4-0.1-0.7-0.3-1-0.6c-0.3-0.3-0.5-0.6-0.7-1c-0.2-0.4-0.2-0.8-0.2-1.3c0-0.5,0.1-0.9,0.2-1.3c0.2-0.4,0.4-0.7,0.7-1
	c0.3-0.3,0.6-0.5,1-0.6c0.4-0.1,0.7-0.2,1.1-0.2c0.4,0,0.8,0.1,1.2,0.2c0.3,0.1,0.6,0.3,0.9,0.6c0.2,0.2,0.4,0.5,0.5,0.9
	c0.1,0.3,0.2,0.7,0.2,1.1c0,0.1,0,0.3,0,0.4c0,0.1,0,0.2,0,0.3h-4.3c0.1,0.6,0.3,1,0.7,1.2c0.4,0.3,0.8,0.4,1.4,0.4
	c0.3,0,0.6,0,0.9-0.1c0.3-0.1,0.5-0.2,0.8-0.4l0.5,0.9c-0.3,0.2-0.7,0.4-1.1,0.5C154.3,440.3,153.8,440.4,153.4,440.4z M153.3,435.3
	c-0.4,0-0.8,0.1-1.1,0.4c-0.3,0.2-0.5,0.6-0.6,1.1h3.1c-0.1-0.5-0.2-0.8-0.5-1.1C154,435.4,153.7,435.3,153.3,435.3z M161.5,440.4
	c-0.7,0-1.2-0.2-1.6-0.6c-0.4-0.4-0.5-1-0.5-1.7v-5.2h-2v-1.1h3.3v6.4c0,0.4,0.1,0.7,0.3,0.9c0.2,0.2,0.5,0.2,0.8,0.2
	c0.3,0,0.7-0.1,1-0.2l0.3,1c-0.3,0.1-0.6,0.2-0.8,0.2C162.1,440.4,161.8,440.4,161.5,440.4z M165.5,442.7c-0.2,0-0.3,0-0.5,0
	c-0.1,0-0.3-0.1-0.4-0.1l0.3-1.1c0.1,0,0.2,0.1,0.2,0.1c0.1,0,0.2,0,0.3,0c0.4,0,0.7-0.1,0.9-0.3c0.2-0.2,0.4-0.4,0.5-0.7l0.2-0.4
	l-2.6-5.8h1.4l1.2,2.9c0.1,0.3,0.2,0.5,0.3,0.8c0.1,0.3,0.2,0.6,0.3,0.9h0c0.1-0.3,0.2-0.6,0.3-0.9c0.1-0.3,0.2-0.6,0.3-0.9l1.1-2.9
	h1.3l-2.5,6.2c-0.1,0.3-0.3,0.6-0.4,0.9c-0.2,0.3-0.3,0.5-0.5,0.7c-0.2,0.2-0.4,0.3-0.7,0.4C166.2,442.6,165.8,442.7,165.5,442.7z
	 M174.6,440.4c-0.3,0-0.6-0.1-0.9-0.3c-0.2-0.2-0.3-0.5-0.3-0.9c0-0.4,0.1-0.6,0.3-0.9c0.2-0.2,0.5-0.3,0.9-0.3
	c0.3,0,0.6,0.1,0.8,0.3c0.2,0.2,0.3,0.5,0.3,0.9c0,0.3-0.1,0.6-0.3,0.9C175.3,440.3,175,440.4,174.6,440.4z"/>
<path class="st0" d="M636.1,231.5h57.1v57.1h-57.1V231.5z"/>
<g>
	<defs>
		<rect id="SVGID_15_" x="636.1" y="231.5" width="57.1" height="57.1"/>
	</defs>
	<clipPath id="SVGID_16_">
		<use xlink:href="#SVGID_15_"  style="overflow:visible;"/>
	</clipPath>
	<g transform="matrix(1 0 0 1 0 -1.525879e-05)" style="clip-path:url(#SVGID_16_);enable-background:new    ;">
		
			<image style="overflow:visible;" width="512" height="512" xlink:href="A553DD86ABC425C4.png"  transform="matrix(0.1116 0 0 0.1116 636.1408 231.5485)">
		</image>
	</g>
</g>
<path class="st0" d="M801.4,231.5h57.1v57.1h-57.1V231.5z"/>
<g>
	<defs>
		<rect id="SVGID_17_" x="801.4" y="231.5" width="57.1" height="57.1"/>
	</defs>
	<clipPath id="SVGID_18_">
		<use xlink:href="#SVGID_17_"  style="overflow:visible;"/>
	</clipPath>
	<g style="clip-path:url(#SVGID_18_);enable-background:new    ;">
		
			<image style="overflow:visible;" width="512" height="512" xlink:href="A553DD86ABC425C5.png"  transform="matrix(0.1116 0 0 0.1116 801.3766 231.5475)">
		</image>
	</g>
</g>
<path class="st0" d="M831.2,201.5h38.4V218h-38.4V201.5z"/>
<g>
	<defs>
		<rect id="SVGID_19_" x="831.2" y="201.5" width="38.4" height="16.5"/>
	</defs>
	<clipPath id="SVGID_20_">
		<use xlink:href="#SVGID_19_"  style="overflow:visible;"/>
	</clipPath>
	<g style="clip-path:url(#SVGID_20_);enable-background:new    ;">
		
			<image style="overflow:visible;" width="512" height="512" xlink:href="E51F0476D359751F.png"  transform="matrix(0.1241 0 0 0.1241 818.6348 174.6396)">
		</image>
	</g>
</g>
<path class="st0" d="M763.3,247.7h-31.9v-36.4h31.9V247.7z"/>
<g>
	<defs>
		<rect id="SVGID_21_" x="731.4" y="211.3" width="31.9" height="36.4"/>
	</defs>
	<clipPath id="SVGID_22_">
		<use xlink:href="#SVGID_21_"  style="overflow:visible;"/>
	</clipPath>
	<g style="clip-path:url(#SVGID_22_);enable-background:new    ;">
		
			<image style="overflow:visible;" width="896" height="1024" xlink:href="E51F0476D359751D.png"  transform="matrix(-3.556509e-02 0 0 -3.556509e-02 763.2521 247.7358)">
		</image>
	</g>
</g>
<path class="st0" d="M618.9,162.7h91.6v57.1h-91.6V162.7z"/>
<g>
	<defs>
		<rect id="SVGID_23_" x="618.9" y="162.7" width="91.6" height="57.1"/>
	</defs>
	<clipPath id="SVGID_24_">
		<use xlink:href="#SVGID_23_"  style="overflow:visible;"/>
	</clipPath>
	<g style="clip-path:url(#SVGID_24_);enable-background:new    ;">
		
			<image style="overflow:visible;" width="327" height="204" xlink:href="E51F0476D359751B.png"  transform="matrix(0.28 0 0 0.28 618.9211 162.6614)">
		</image>
	</g>
</g>
<path class="st0" d="M789.8,201.5h38.4V218h-38.4V201.5z"/>
<g>
	<defs>
		<rect id="SVGID_25_" x="789.8" y="201.5" width="38.4" height="16.5"/>
	</defs>
	<clipPath id="SVGID_26_">
		<use xlink:href="#SVGID_25_"  style="overflow:visible;"/>
	</clipPath>
	<g style="clip-path:url(#SVGID_26_);enable-background:new    ;">
		
			<image style="overflow:visible;" width="512" height="512" xlink:href="E51F0476D3597515.png"  transform="matrix(0.1241 0 0 0.1241 777.3041 174.6396)">
		</image>
	</g>
</g>
<path class="st0" d="M831.2,180.2h38.4v16.5h-38.4V180.2z"/>
<g>
	<defs>
		<rect id="SVGID_27_" x="831.2" y="180.2" width="38.4" height="16.5"/>
	</defs>
	<clipPath id="SVGID_28_">
		<use xlink:href="#SVGID_27_"  style="overflow:visible;"/>
	</clipPath>
	<g style="clip-path:url(#SVGID_28_);enable-background:new    ;">
		
			<image style="overflow:visible;" width="512" height="512" xlink:href="E51F0476D3597517.png"  transform="matrix(0.1241 0 0 0.1241 818.6348 153.3088)">
		</image>
	</g>
</g>
<path class="st0" d="M789.8,180.2h38.4v16.5h-38.4V180.2z"/>
<g>
	<defs>
		<rect id="SVGID_29_" x="789.8" y="180.2" width="38.4" height="16.5"/>
	</defs>
	<clipPath id="SVGID_30_">
		<use xlink:href="#SVGID_29_"  style="overflow:visible;"/>
	</clipPath>
	<g style="clip-path:url(#SVGID_30_);enable-background:new    ;">
		
			<image style="overflow:visible;" width="512" height="512" xlink:href="E51F0476D359750A.png"  transform="matrix(0.1241 0 0 0.1241 777.3041 153.3088)">
		</image>
	</g>
</g>
</svg>
