<svg id="Layer_1" data-name="Layer 1" xmlns="http://www.w3.org/2000/svg" viewBox="0 0 145.71 81.79"><defs><style>.cls-1{fill:#f68b1f;}</style></defs><path class="cls-1" d="M26.14,67.65c-2.11-2.06-3.84-3.73-5.55-5.43-.58-.58-1.22-.31-1.88-.15a72.73,72.73,0,0,1-9,2,8.12,8.12,0,0,1-3,0C5,63.62,4.64,62.31,6,61.13a8.4,8.4,0,0,1,4.64-2,17.36,17.36,0,0,1,5.53.41,2.25,2.25,0,0,0,1.91-.12,47.86,47.86,0,0,0-4.2-5.89A2.78,2.78,0,0,0,12,52.91c-2.32-.39-4.65-.76-7-1.13a7.26,7.26,0,0,1-3.86-1.62c-.69-.61-1.42-1.3-1.09-2.29s1.47-1.37,2.5-1.46A10.87,10.87,0,0,1,7,47.16a19.89,19.89,0,0,1,4.63,2.63c.67-.59.29-1,.12-1.42A56.17,56.17,0,0,1,8.14,35.05a12.55,12.55,0,0,1,.4-6.1,8.86,8.86,0,0,1,.6-1.38c.53-1,1.12-2,2.48-1.8a2.42,2.42,0,0,1,2,2.22,14.39,14.39,0,0,1,0,4.9c-.45,3.36-.76,6.73-1.41,10.06-.6,3.07,1,5.27,2.13,7.76,1-.49.81-1.23.87-1.81a59.33,59.33,0,0,1,1.36-8.56,9.08,9.08,0,0,1,2.66-4.77,2.3,2.3,0,0,1,2.28-.8c1,.33,1,1.2,1,2a12.76,12.76,0,0,1-.66,3.65c-.93,3.13-2.63,6-3.83,9-2.31,5.78-2.41,4,1.25,8.9.24.32.52.61.77.91.92-.18.65-.91.72-1.4a35.73,35.73,0,0,1,1.93-7.21,5.31,5.31,0,0,1,2.15-2.74c1.59-1,3.15-.23,3.28,1.55a5.41,5.41,0,0,1-.7,2.87q-2,3.91-4.07,7.82c-.95,1.82-1,1.83.54,3.29A39.56,39.56,0,0,0,31.2,69.3a10.16,10.16,0,0,0,.2-3.56,20.06,20.06,0,0,1,2.46-9.8c.88-1.66,1.81-2.29,2.86-2s1.75,1.75,1.52,3.28A10.55,10.55,0,0,1,37.16,60c-1.38,3-2.69,5.95-4.1,8.9a1.44,1.44,0,0,0,.67,2.19,54.63,54.63,0,0,0,8.88,4.46c.55.21,1.11.39,1.63.65a.73.73,0,0,1,.33.58.61.61,0,0,1-.78.46,14.15,14.15,0,0,1-1.93-.54A46.56,46.56,0,0,1,30.1,70.36a2.88,2.88,0,0,0-3.61-.14,29.75,29.75,0,0,1-8.7,3.69c-.42.08-.83.22-1.25.26-1.79.17-2.79-.42-3.11-1.78-.27-1.17.32-2.13,1.9-2.89a20.15,20.15,0,0,1,7.92-1.79C24,67.67,24.77,67.68,26.14,67.65Zm-9-19.3c-.07-.4.56-.86-.06-1.22a.4.4,0,0,0,.57-.22,39.85,39.85,0,0,0,3.21-8.06,4.9,4.9,0,0,0,.13-2.7,3.6,3.6,0,0,0-2.24,2.38,21.52,21.52,0,0,0-1.69,8.6c-.42.45-.2.81.13,1.14h-.13Zm16.07,17.3c1-2.13,2-4.26,2.91-6.39A7.12,7.12,0,0,0,37,56.67c0-.59,0-1.23-.61-1.47-.81-.3-1,.48-1.26.93a18.71,18.71,0,0,0-2.31,8.81.68.68,0,0,0,.47.74c-.19-.15-.34-.14-.42.12,0,0,0,.08.07.12Zm-10.73-7c1.68-2.14,2.68-4.62,3.94-7,.5-.93,1.26-2,.09-2.84-.63-.45-1.93.62-2.59,2a2.18,2.18,0,0,0-.09.23,22.29,22.29,0,0,0-1.73,7.46c-.05.22-.15.52.13.57S22.54,58.88,22.49,58.66ZM11.12,40.81c.46-3.24.94-6.48,1.37-9.73A5.86,5.86,0,0,0,12.17,28c-.16-.37-.28-.81-.79-.79a1.14,1.14,0,0,0-1,.73,8.75,8.75,0,0,0-1,3.57A20.76,20.76,0,0,0,11.12,40.81Zm14.1,28.6a8.14,8.14,0,0,0-4.06-.16A15.47,15.47,0,0,0,15.59,71c-.55.3-1,.69-.83,1.36s.8.76,1.41.72a10.73,10.73,0,0,0,1.49-.23C20.42,72.22,22.77,70.72,25.22,69.41Zm-23.94-21c2.58,2.81,6.26,2,9.85,3C7.86,48.19,4.14,47.1,1.28,48.39ZM16.39,61.12c-3.46-.74-6.91-1.53-10.21,1.37C8.53,63.4,11.28,63,16.39,61.12ZM18.3,59.7l-.23-.07-.09.22.31,0A1.34,1.34,0,0,0,18.3,59.7Z"/><path class="cls-1" d="M131.06,54.1a35.75,35.75,0,0,1,8.13-4.19,23.06,23.06,0,0,1,4-.88c1-.12,2-.07,2.41.92s-.28,1.57-.87,2.16a14.17,14.17,0,0,1-7.11,3.76c-2.42.56-4.84,1.08-7.27,1.58a4.62,4.62,0,0,0-3.58,2.46,20.35,20.35,0,0,1-2.23,3c-.27.37-.82.72-.43,1.26s.87.21,1.35,0c1.44-.54,2.89-1,4.33-1.57a20.84,20.84,0,0,1,4.73-1.1c1-.13,2.17-.13,2.6,1s-.4,1.84-1.21,2.48a7.7,7.7,0,0,1-4,1.67c-3.74.43-7.44,1.12-11.14,1.77a11.65,11.65,0,0,0-4.94,1.85,52.87,52.87,0,0,1-13.06,6.3c-.84.3-.86.28-2.47.07.54-1,1.59-1.21,2.51-1.56a70.81,70.81,0,0,0,9.8-4.33c1.33-.74,2.58-1.62,3.9-2.39,1-.57,1.22-1.08.61-2.16a38.09,38.09,0,0,1-2.26-5.15,5.6,5.6,0,0,1-.21-4.52,1.82,1.82,0,0,1,3.25-.43,6.69,6.69,0,0,1,1.28,3.39c.31,1.89.56,3.79.87,6a21.62,21.62,0,0,0,5-5.65c-2.49-1.06-4.1-2.93-5.72-4.8a8.06,8.06,0,0,1-1.72-3.22,1.8,1.8,0,0,1,.54-2,1.86,1.86,0,0,1,2.14.2,9.12,9.12,0,0,1,3.08,3.19c1,1.49,1.81,3,2.82,4.77a22.26,22.26,0,0,0,3.31-7c.26-.76-.24-1-.78-1.27-2.37-1.26-4.73-2.56-7.09-3.83a6.35,6.35,0,0,1-2.2-1.63,2.12,2.12,0,0,1-.3-2.51,2,2,0,0,1,2.49-.71,11.41,11.41,0,0,1,5.94,4c.65.82,1.26,1.66,2.15,2.84a4.13,4.13,0,0,0-.67-3.36,40.61,40.61,0,0,1-5-9.25c-.68-1.85-.8-3.7,1-5.16a2.54,2.54,0,0,1,3.83.21,6,6,0,0,1,1.49,3.05c.55,3,1.32,5.89.86,9a1.74,1.74,0,0,0,.34,1.63c.84-.45.91-1.34,1.29-2a20.75,20.75,0,0,1,5.41-6.82c1.73-1.32,3.2-1.62,3.86-.74,1,1.34,0,2.47-.73,3.56a19.58,19.58,0,0,1-3.61,3.84c-1.57,1.4-3.1,2.85-4.76,4.16a3.88,3.88,0,0,0-1.74,3.34c.07,1.59-.87,3-1.07,4.51-.16.2-.23.48,0,.61S130.83,54.34,131.06,54.1Zm2.5-11.21a.74.74,0,0,0,1-.17c4.4-3.39,6-5.26,6.35-7.83a14.91,14.91,0,0,0-6.72,7.53c-.21.16-.42.32-.61.49,0,.07.11.15.1.21-.05.26,0,.3.15.07C133.88,43.15,133.67,43,133.56,42.89Zm-9.78,14.73c.22.11.48.25.6-.09.05-.17-.13-.28-.33-.26a12.16,12.16,0,0,0-5-6.48C119,53.38,120.35,55.18,123.78,57.62Zm-.87,9.57a63.53,63.53,0,0,1,8.32-1.46,7.72,7.72,0,0,0,4-1.59c.38-.32.84-.66.53-1.21s-.76-.31-1.15-.24a17.11,17.11,0,0,0-2.76.57,74.89,74.89,0,0,0-9.06,3.42c-.32.15-.69.23-.81.62ZM130,42.66c0-.56.12-1.13.11-1.69a23.68,23.68,0,0,0-1.54-8.77c-.34-.82-.86-1.64-2-1.58-.91.05-1.75,1.26-1.72,2.43a5.79,5.79,0,0,0,.32,1.4C126.18,37.48,128.14,40,130,42.66Zm14.09,7.79c-5.26.22-9.46,2.59-13.32,5.7C135.76,55.33,140.77,54.65,144.13,50.45ZM118,65.38l.51-.08a18.8,18.8,0,0,0-1-7.08c-.22-.64-.38-1.72-1.27-1.49s-.89,1.27-.76,2.1a7.72,7.72,0,0,0,.41,1.64C116.58,62.12,117.31,63.74,118,65.38Zm9.38-18a10.22,10.22,0,0,0-6.18-5.2c-.29-.1-.67-.2-.89.2a.89.89,0,0,0,0,.92,2.3,2.3,0,0,0,1.07,1C123.26,45.29,125.11,46.22,127.4,47.4Zm-3.85,17.08.23.29c0-.07.15-.15.13-.19a1.43,1.43,0,0,0-.2-.3Z"/><path class="cls-1" d="M65.09,28.57A71.9,71.9,0,0,1,63.15,5.24a10.85,10.85,0,0,1,.72-3.47,1.38,1.38,0,0,1,1.6-.9,1.21,1.21,0,0,1,1,1.11,32.57,32.57,0,0,1,.25,3.54c-.09,4.21.28,8.39.49,12.58.19,3.91,1.46,7.6,2.33,11.36a15.4,15.4,0,0,1-1.77,11.23c-1.21,2.21-3.54,3.31-5.94,4-1.46.43-1.94.94-1.65,2.48C62.16,57.38,62.44,67.74,63.56,78a5.64,5.64,0,0,1-.12,2.55,1.55,1.55,0,0,1-1.39,1.23,1.58,1.58,0,0,1-1.62-1,8.46,8.46,0,0,1-.67-3.14q-1.45-14.46-2.94-28.91c-.32-3.13-.3-3.13-3.48-3.8-5.14-1.07-11.17-7.24-11.93-12.2a105,105,0,0,1-1.52-21.53c.09-1.72.16-3.44.27-5.16a5,5,0,0,1,.75-2.45A1.51,1.51,0,0,1,42.66,3a1.23,1.23,0,0,1,1,1.17c0,1.28,0,2.57,0,3.86-.16,6.46-.52,12.92.5,19.34.08.53.11,1.07.2,1.6.17,1,.55,1.6,1.79,1.35s.94-.93.79-1.69C45.52,21.82,45.74,14.92,45.78,8a42.6,42.6,0,0,1,.36-4.51c.13-1,.59-1.95,1.86-1.92s1.59,1,1.6,2.06c0,1.61-.06,3.23,0,4.84.15,6.34-.55,12.71.62,19,.08.42.09.86.14,1.28.12.89.77.92,1.5.83s1.12-.53.93-1.33a45.09,45.09,0,0,1-1.24-9.59c-.09-4.31-.08-8.61-.09-12.92a18,18,0,0,1,.17-1.93c.14-1.2.32-2.63,2-2.51S55,3,55,4.16c0,6.89-.26,13.78.69,20.64.15,1.07.29,2.14.4,3.21s.72,1.4,1.84,1.29c1.46-.14,1.17-1,1-1.87A86.8,86.8,0,0,1,57.48,5.26c.05-.75.13-1.5.25-2.24s.47-1.5,1.45-1.52c1.24,0,1.39.9,1.5,1.77s.17,1.71.21,2.57c.31,5.26.17,10.55.94,15.79.29,1.92.6,3.83.84,5.75C62.86,28.85,63.61,29.22,65.09,28.57ZM45.94,34a16.75,16.75,0,0,0,5.51,5.67c6.65,3.92,13.31.87,14.19-6.83C59.21,33.26,52.81,33.1,45.94,34Z"/><path class="cls-1" d="M94.3,3.67c-1.2,2.25-.72,4.25-1,6.12-1.36,8.8-3.28,17.49-5,26.22a214,214,0,0,0-3.66,24.82c-.39,5.43-1.36,10.84-2.15,16.24a14.13,14.13,0,0,1-1.1,3.05,1.51,1.51,0,0,1-1.82,1.07c-.79-.17-1-.77-1.13-1.44a5.08,5.08,0,0,1,.21-2.22,118.76,118.76,0,0,0,2.66-16.86c1.12-9.79,2.3-19.56,4.29-29.25A256.6,256.6,0,0,0,90,5.75a7.47,7.47,0,0,1,1.17-4c1.74-2.3,4.54-2.32,6.57-.2,4.07,4.24,4.87,9.53,5.46,14.9a124.19,124.19,0,0,1-.07,25.06,28.9,28.9,0,0,1-6.79,16.83,40.91,40.91,0,0,1-4.75,4.1,3.6,3.6,0,0,1-1.89.64c-.79.13-1.64.26-2.07-.59a1.9,1.9,0,0,1,.15-2.15,6.53,6.53,0,0,1,1.47-1.3c4.89-3.14,7.24-7.73,8.55-13C99,41,98.94,35.81,99.25,30.67a81.48,81.48,0,0,0-.91-17.58C97.83,9.8,97,6.6,94.3,3.67Z"/></svg>