<?xml version="1.0" encoding="utf-8"?>
<!-- Generator: Adobe Illustrator 25.0.0, SVG Export Plug-In . SVG Version: 6.00 Build 0)  -->
<svg version="1.1" id="Layer_1" xmlns="http://www.w3.org/2000/svg" xmlns:xlink="http://www.w3.org/1999/xlink" x="0px" y="0px"
	 viewBox="0 0 202.6 47.2" style="enable-background:new 0 0 202.6 47.2;" xml:space="preserve">
<style type="text/css">
	.st0{fill:#FF3300;}
	.st1{fill:#F68B1F;}
</style>
<circle class="st0" cx="184.4" cy="42.5" r="4.8"/>
<path class="st1" d="M202.5,15.8c-1.2-8.6-14.9-13.1-19.2,0c-2.3,6.6-1.5,13.8,2.1,19.8C185.4,35.6,203.8,25.9,202.5,15.8z
	 M192.1,21.4c-2.1-0.2-3.7-2.2-3.4-4.3c0.2-2.1,2.2-3.7,4.3-3.4c2.1,0.2,3.7,2.2,3.4,4.3C196.2,20.1,194.2,21.6,192.1,21.4z"/>
<path class="st0" d="M9,45.2c-0.7-0.2-1.3-0.6-1.8-1.1c-0.4-0.5-0.6-1.1-0.7-1.7c-0.5-2.4-1-4.6-1.5-6.6s-0.9-4.1-1.4-6.3
	s-1-4.5-1.5-6.6s-0.9-4-1.2-5.6S0.3,14.6,0.2,14c-0.2-0.7-0.2-1.5,0-2.2c0.2-0.5,0.6-1,1.1-1.3C1.8,10.1,2.4,9.8,3,9.6l6-1.4
	c1.6-0.4,3.4-0.8,5.1-1.2c1.8-0.4,3.3-0.7,4.6-1c1-0.3,2.1-0.3,3.1,0c0.7,0.2,1.3,0.5,1.7,1c0.4,0.5,0.7,1.1,0.9,1.8
	c0.3,1.4,0.5,2.6,0.7,3.6s0.3,1.9,0.4,2.7c0.2,1.1-0.1,2.2-0.7,3.1c-0.6,0.8-2.1,1.4-4.3,1.8c-1.1,0.3-2.2,0.2-3.2-0.3
	c-0.7-0.5-1.2-1.2-1.4-2.1l-0.7-4.4l-4.2,0.6l3,11.4c1-0.1,1.9-0.1,2.9,0c0.7,0.1,1.5,0.3,2.1,0.6c0.6,0.3,1.1,0.9,1.2,1.6
	c0.2,0.6,0,1.3-0.5,1.8c-0.5,0.5-1.1,0.8-1.8,1c-0.9,0.3-1.8,0.5-2.7,0.6c0.8,3.8,1.4,7,1.8,9.8c0.3,1,0.2,2.2-0.3,3.1
	c-0.4,0.7-1.1,1.2-1.8,1.5c-0.9,0.3-1.9,0.4-2.9,0.4C11.3,45.7,10.1,45.6,9,45.2z"/>
<path class="st0" d="M48.5,17.2l1.6,0.8c0.7,0.3,1.3,0.7,1.9,1.1c1.3,0.3,2.4,1,3.4,1.8c1.1,1.1,2,2.4,2.6,3.8
	c0.9,2.2,1.5,4.6,1.6,7c0.2,1.7-0.1,3.5-0.8,5.1c-0.6,1.3-1.6,2.5-2.7,3.4c-1.1,0.9-2.4,1.6-3.8,2.1c-1.2,0.5-2.5,0.9-3.8,1.1
	c-1.2,0.2-2.6,0.4-4.2,0.5c-1.5,0.1-3.1,0-4.6-0.3c-1.4-0.3-2.7-0.8-3.9-1.6c-1.4-0.9-2.5-2.2-3.3-3.7c-1-2.1-1.5-4.4-1.4-6.7
	c-0.1-2.4,0.4-4.8,1.3-7c0.8-1.7,1.9-3.2,3.3-4.4c1.2-1,2.5-1.8,4-2.4c1.5-0.5,3.1-0.9,4.8-1.2C45.9,16.6,47.3,16.7,48.5,17.2z
	 M45.1,23.4c-1,1.3-1.8,2.7-2.4,4.2c-0.5,1.5-0.8,3-0.7,4.6c0,1.4,0.2,2.7,0.7,4c0.3,0.8,0.8,1.5,1.4,2.1c0.3,0.3,0.7,0.5,1.1,0.6
	c0.4-0.1,0.9-0.2,1.3-0.4c0.7-0.4,1.3-1,1.6-1.8c0.5-1.3,0.7-2.8,0.5-4.2c0-1.3-0.3-2.6-0.6-3.9c-0.3-0.9-0.7-1.8-1.2-2.6
	C46.4,25.1,45.8,24.3,45.1,23.4z"/>
<path class="st0" d="M80,16.7l1.6,0.9c0.6,0.3,1.2,0.7,1.8,1.1c1.2,0.4,2.4,1,3.4,1.9c1.1,1.1,1.9,2.4,2.5,3.8
	c0.9,2.3,1.4,4.7,1.4,7.1c0.4,3.3-1.1,6.5-3.7,8.4c-1.2,0.9-2.5,1.6-3.9,2.1c-1.3,0.5-2.6,0.8-3.9,1c-1.2,0.2-2.6,0.3-4.2,0.4
	c-1.5,0-3.1-0.1-4.6-0.4c-1.4-0.3-2.7-0.9-3.9-1.7c-1.4-1-2.5-2.3-3.2-3.8c-0.9-2.1-1.3-4.4-1.2-6.8c0-2.4,0.5-4.8,1.5-6.9
	c0.8-1.7,2-3.1,3.4-4.3c1.2-1,2.6-1.7,4.1-2.2c1.6-0.5,3.2-0.8,4.8-1C77.4,16,78.8,16.2,80,16.7z M76.5,22.7c-1,1.3-1.8,2.6-2.5,4.1
	c-0.6,1.4-0.8,3-0.8,4.6c0,1.4,0.2,2.7,0.6,4c0.3,0.8,0.7,1.5,1.3,2.1c0.3,0.3,0.7,0.5,1.1,0.6c0.5-0.1,0.9-0.2,1.3-0.4
	c0.7-0.4,1.3-1,1.6-1.7c0.6-1.3,0.8-2.8,0.6-4.2c0-1.3-0.2-2.6-0.6-3.8c-0.3-0.9-0.7-1.8-1.2-2.6C77.6,24.5,77.1,23.7,76.5,22.7
	L76.5,22.7z"/>
<path class="st0" d="M116.1,0c0.9,0.1,1.8,0.3,2.7,0.6c0.7,0.2,1.4,0.6,2,1c0.6,0.4,0.9,1.1,0.9,1.8c0,0.5,0.1,1.5,0.2,3.2
	s0.1,3.6,0.2,5.8s0.1,4.5,0.2,6.9s0.1,4.6,0.2,6.7s0.1,4.4,0.2,7c0,1-0.2,1.9-0.5,2.8c-0.3,0.9-0.8,1.6-1.3,2.3
	c-1.4,1.7-3.2,3-5.2,4c-2.7,1.1-5.6,1.6-8.5,1.5c-2.3,0-4.6-0.5-6.8-1.5c-2.1-0.9-3.9-2.4-5.2-4.3c-1.4-2.3-2-5-1.8-7.6
	c0-2.2,0.6-4.3,1.7-6.2c1-1.7,2.4-3.2,4.1-4.4c1.7-1.1,3.6-2,5.5-2.5c2-0.5,4.1-0.8,6.1-0.8l-0.2-11.6c-0.2-0.7-0.1-1.4,0.1-2.1
	c0.3-0.7,0.8-1.3,1.5-1.6C113.5,0.3,114.8,0,116.1,0z M111,22c-1.1-0.1-2.2,0.3-3,1.1c-1,0.9-1.8,2-2.4,3.2c-0.6,1.2-1,2.5-1,3.9
	c-0.1,1.7,0.2,3.4,0.9,5c0.6,1.4,1.5,2.1,2.5,2.1c0.7,0,1.4-0.3,1.8-0.8c0.6-0.8,1.2-1.7,1.6-2.7L111,22z"/>
<path class="st0" d="M129.1,15.5c-0.8-0.3-1.5-0.8-2.1-1.5c-0.6-0.9-1-1.9-0.9-3c-0.1-1.1,0.2-2.1,0.7-3c0.4-0.6,1-1,1.7-1.3
	c0.6-0.2,1.3-0.3,2-0.3c0.4,0,0.9,0,1.3,0c0.5,0,0.9,0,1.3,0.2c0.7,0.2,1.3,0.4,1.9,0.8c0.7,0.4,1.2,1,1.6,1.8
	c0.4,0.9,0.6,1.9,0.4,2.9c-0.1,1-0.4,1.9-1,2.6c-0.5,0.5-1.1,0.9-1.8,1.1c-0.8,0.2-1.6,0.3-2.4,0.3C131,16,130,15.8,129.1,15.5z
	 M127.6,24.6c-0.4-1-0.6-1.5-0.7-1.7s-0.1-0.4-0.2-0.9c-0.1-0.5,0.1-1,0.4-1.4c0.6-0.6,1.4-1,2.3-1c1.2-0.2,2.5-0.2,3.8,0
	c1.2,0.1,2.4,0.6,3.4,1.3c1.1,0.9,1.7,2.3,1.7,3.7c0.1,1.3,0.2,2.8,0.3,4.5s0.2,3.4,0.3,5s0.2,3.6,0.3,5.8c0.1,0.8,0,1.6-0.2,2.3
	c-0.3,0.7-0.7,1.2-1.4,1.5c-1,0.5-2.2,0.7-3.3,0.6c-1.2,0-2.4-0.3-3.5-0.8c-0.7-0.4-1.2-0.9-1.6-1.5c-0.3-0.7-0.5-1.4-0.6-2.1
	L127.6,24.6z"/>
<path class="st0" d="M170.7,26.3c-0.2,1.9-0.9,3.8-2.2,5.2c-1.2,1.3-2.6,2.2-4.3,2.8c-1.6,0.6-3.2,0.9-4.8,1.1
	c-1.8,0.1-3.7,0.1-5.5,0c0.1,1.2,0.4,2.4,0.9,3.4c0.3,0.6,0.9,1.1,1.6,1.2c0.6,0.2,1.2,0.2,1.7,0c0.7-0.2,1.3-0.6,1.9-1
	c1-0.7,2-1.2,3.2-1.6c1.3-0.3,2.7-0.4,4-0.3c1.3,0,2.6,0.3,3.7,1c0.5,0.4,0.9,1,0.8,1.7c-0.1,0.8-0.5,1.6-0.9,2.2
	c-0.8,0.8-1.7,1.5-2.8,2c-1.3,0.6-2.7,1-4.2,1.3c-2.2,0.4-4.5,0.5-6.7,0.3c-2.3,0-4.5-0.6-6.6-1.5c-1.6-0.8-3-1.9-4.2-3.3
	c-1-1.2-1.8-2.6-2.4-4.1c-0.5-1.3-0.8-2.6-1-3.9c-0.1-0.9-0.2-1.9-0.2-2.8c0.1-0.9,0.2-1.7,0.3-2.6c0.2-1.2,0.6-2.3,1.1-3.3
	c0.6-1.2,1.4-2.3,2.4-3.2c1.2-1.1,2.7-1.9,4.2-2.3c2.2-0.6,4.4-0.8,6.6-0.6c2.6,0.1,5.3,0.5,7.8,1.4c1.5,0.5,2.8,1.3,3.9,2.5
	c0.7,0.8,1.2,1.7,1.4,2.6C170.7,25.2,170.7,25.8,170.7,26.3z M159.5,29.4c1.2-0.6,2.1-1.7,2.6-3c0.3-1,0.2-2.1-0.4-3
	c-0.7-0.9-1.7-1.4-2.8-1.3c-1.1-0.1-2.3,0.4-3,1.2c-0.7,0.9-1.3,1.9-1.6,3c-0.4,1.4-0.7,2.9-0.8,4.3
	C155.5,30.8,157.6,30.4,159.5,29.4z"/>
</svg>
