<?xml version="1.0" encoding="utf-8"?>
<!-- Generator: Adobe Illustrator 25.0.0, SVG Export Plug-In . SVG Version: 6.00 Build 0)  -->
<svg version="1.1" id="Layer_1" xmlns="http://www.w3.org/2000/svg" xmlns:xlink="http://www.w3.org/1999/xlink" x="0px" y="0px"
	 viewBox="0 0 467 390" style="enable-background:new 0 0 467 390;" xml:space="preserve">
<style type="text/css">
	.st0{fill-rule:evenodd;clip-rule:evenodd;fill:#5400D5;}
	.st1{fill:none;stroke:#5400D5;stroke-linejoin:round;stroke-miterlimit:10;}
	.st2{fill:#FFFFFF;}
	.st3{fill-rule:evenodd;clip-rule:evenodd;fill:#FF008A;}
	.st4{fill-rule:evenodd;clip-rule:evenodd;fill-opacity:0;}
	.st5{fill:none;stroke:#FF008A;stroke-linejoin:round;stroke-miterlimit:10;stroke-dasharray:1,3;}
	.st6{fill-rule:evenodd;clip-rule:evenodd;fill:#FF008A;stroke:#FF008A;stroke-miterlimit:10;}
</style>
<path class="st0" d="M167.2,8.3h119.2l7.9,7.9v39.6l0,0H175.2l-7.9-7.9V8.3H167.2z"/>
<path class="st1" d="M167.2,8.3h119.2l7.9,7.9v39.6l0,0H175.2l-7.9-7.9V8.3H167.2z"/>
<path class="st2" d="M214.8,29.5c-0.5,0-0.9-0.1-1.4-0.2c-0.5-0.2-0.9-0.4-1.2-0.8l0.9-1.1c0.3,0.2,0.5,0.4,0.9,0.5s0.6,0.2,1,0.2
	s0.6-0.1,0.8-0.2s0.2-0.3,0.2-0.4s0-0.2-0.1-0.3c-0.1-0.1-0.1-0.2-0.2-0.2c-0.1-0.1-0.2-0.1-0.3-0.2s-0.3-0.1-0.5-0.2l-0.9-0.4
	c-0.2-0.1-0.4-0.2-0.6-0.3c-0.2-0.1-0.3-0.2-0.5-0.4c-0.1-0.2-0.2-0.3-0.3-0.5s-0.1-0.4-0.1-0.7c0-0.3,0.1-0.5,0.2-0.8
	s0.3-0.5,0.5-0.7s0.5-0.3,0.8-0.4s0.7-0.2,1-0.2c0.4,0,0.8,0.1,1.2,0.2c0.4,0.2,0.8,0.4,1.1,0.7l-0.8,1c-0.2-0.2-0.5-0.3-0.7-0.4
	s-0.5-0.1-0.9-0.1c-0.3,0-0.5,0.1-0.6,0.2c-0.2,0.1-0.2,0.3-0.2,0.5s0.1,0.4,0.3,0.5s0.5,0.2,0.8,0.3l0.8,0.4
	c0.5,0.2,0.8,0.4,1.1,0.7c0.3,0.3,0.4,0.7,0.4,1.2c0,0.3-0.1,0.6-0.2,0.8c-0.1,0.3-0.3,0.5-0.5,0.7s-0.5,0.4-0.8,0.5
	C215.6,29.4,215.2,29.5,214.8,29.5z M221.5,29.5c-0.4,0-0.8-0.1-1.2-0.2s-0.7-0.3-0.9-0.5c-0.3-0.2-0.5-0.5-0.6-0.9
	c-0.1-0.3-0.2-0.7-0.2-1.2s0.1-0.8,0.2-1.2c0.2-0.3,0.4-0.6,0.6-0.9c0.3-0.2,0.6-0.4,0.9-0.5c0.3-0.1,0.7-0.2,1-0.2
	c0.4,0,0.8,0.1,1.1,0.2s0.6,0.3,0.8,0.5s0.4,0.5,0.5,0.8s0.2,0.6,0.2,1c0,0.1,0,0.3,0,0.4s0,0.2,0,0.3h-3.6c0.1,0.4,0.2,0.7,0.5,0.8
	c0.3,0.2,0.6,0.3,1.1,0.3c0.2,0,0.5,0,0.7-0.1s0.4-0.2,0.7-0.3l0.5,1c-0.3,0.2-0.6,0.3-1,0.5C222.2,29.4,221.9,29.5,221.5,29.5z
	 M221.4,25.1c-0.3,0-0.6,0.1-0.8,0.2c-0.2,0.2-0.4,0.4-0.4,0.7h2.3C222.3,25.5,222,25.1,221.4,25.1z M226.8,29.5
	c-0.3,0-0.5,0-0.7-0.1s-0.4-0.2-0.5-0.3c-0.1-0.1-0.3-0.3-0.3-0.5c-0.1-0.2-0.1-0.4-0.1-0.6c0-0.3,0.1-0.6,0.2-0.8
	c0.1-0.2,0.3-0.4,0.6-0.6s0.6-0.3,1.1-0.4c0.4-0.1,1-0.2,1.6-0.2c0-0.2-0.1-0.4-0.3-0.6c-0.2-0.1-0.4-0.2-0.8-0.2
	c-0.2,0-0.5,0-0.8,0.1s-0.5,0.2-0.8,0.4l-0.5-1c0.4-0.2,0.8-0.4,1.2-0.5s0.9-0.2,1.3-0.2c0.7,0,1.3,0.2,1.8,0.6
	c0.4,0.4,0.6,1,0.6,1.8v3h-1.3l-0.1-0.6l0,0c-0.3,0.2-0.6,0.4-0.9,0.5C227.4,29.4,227.1,29.5,226.8,29.5z M227.3,28.3
	c0.2,0,0.4,0,0.7-0.1s0.4-0.2,0.6-0.4v-0.9c-0.4,0-0.7,0.1-1,0.1c-0.2,0-0.5,0.1-0.6,0.2s-0.2,0.2-0.3,0.3c-0.1,0.1-0.1,0.2-0.1,0.3
	c0,0.2,0.1,0.3,0.2,0.4C226.9,28.2,227,28.3,227.3,28.3z M232,29.4v-5.3h1.3l0.1,1.1l0,0c0.3-0.4,0.6-0.7,0.9-1
	c0.4-0.2,0.8-0.3,1.2-0.3c0.2,0,0.4,0,0.6,0s0.3,0.1,0.5,0.2l-0.3,1.3c-0.2-0.1-0.3-0.1-0.4-0.1s-0.3,0-0.5,0c-0.3,0-0.6,0.1-1,0.3
	c-0.3,0.2-0.6,0.5-0.8,1v2.8C233.6,29.4,232,29.4,232,29.4z M240.8,29.5c-0.4,0-0.8-0.1-1.2-0.2s-0.7-0.3-0.9-0.5
	c-0.3-0.2-0.5-0.5-0.6-0.9s-0.2-0.7-0.2-1.2s0.1-0.8,0.2-1.2c0.2-0.4,0.4-0.6,0.7-0.9c0.3-0.2,0.6-0.4,1-0.5s0.8-0.2,1.2-0.2
	s0.8,0.1,1.1,0.2s0.6,0.3,0.8,0.5l-0.7,1c-0.4-0.3-0.8-0.4-1.2-0.4c-0.5,0-0.8,0.1-1.1,0.4s-0.4,0.6-0.4,1.1s0.1,0.8,0.4,1.1
	s0.6,0.4,1.1,0.4c0.3,0,0.5,0,0.8-0.1c0.2-0.1,0.4-0.2,0.6-0.4l0.6,1c-0.3,0.3-0.7,0.5-1.1,0.6C241.6,29.4,241.2,29.5,240.8,29.5z
	 M244.3,29.4v-7.5h1.6v1.8l-0.1,1l0,0c0.2-0.2,0.4-0.4,0.7-0.5c0.3-0.2,0.6-0.2,1-0.2c0.6,0,1,0.2,1.3,0.6s0.4,0.9,0.4,1.6v3.3h-1.6
	v-3.1c0-0.4-0.1-0.6-0.2-0.8c-0.1-0.2-0.3-0.2-0.6-0.2c-0.2,0-0.4,0-0.6,0.1c-0.2,0.1-0.3,0.2-0.5,0.4v3.5
	C245.7,29.4,244.3,29.4,244.3,29.4z"/>
<path class="st2" d="M196.4,42.4v-7h2.5c0.4,0,0.7,0,1,0.1s0.6,0.2,0.8,0.4s0.4,0.4,0.6,0.7c0.1,0.3,0.2,0.6,0.2,1
	c0,0.5-0.1,0.9-0.3,1.3c-0.2,0.3-0.5,0.6-0.9,0.7l1.6,2.8h-1.7l-1.3-2.5h-0.8v2.5H196.4z M197.9,38.6h0.8c0.8,0,1.3-0.3,1.3-1
	c0-0.3-0.1-0.6-0.3-0.7c-0.2-0.1-0.5-0.2-0.9-0.2H198v1.9H197.9z M205.5,42.5c-0.4,0-0.8-0.1-1.2-0.2c-0.4-0.1-0.7-0.3-0.9-0.5
	c-0.3-0.2-0.5-0.5-0.6-0.9s-0.2-0.7-0.2-1.2s0.1-0.8,0.2-1.2c0.2-0.3,0.4-0.6,0.6-0.9c0.3-0.2,0.6-0.4,0.9-0.5
	c0.3-0.1,0.7-0.2,1-0.2c0.4,0,0.8,0.1,1.1,0.2s0.6,0.3,0.8,0.5s0.4,0.5,0.5,0.8s0.2,0.6,0.2,1c0,0.1,0,0.3,0,0.4c0,0.1,0,0.2,0,0.3
	h-3.6c0.1,0.4,0.2,0.7,0.5,0.8s0.6,0.3,1.1,0.3c0.2,0,0.5,0,0.7-0.1s0.4-0.2,0.7-0.3l0.5,1c-0.3,0.2-0.6,0.3-1,0.5
	C206.2,42.4,205.9,42.5,205.5,42.5z M205.4,38.1c-0.3,0-0.6,0.1-0.8,0.2c-0.2,0.2-0.4,0.4-0.4,0.7h2.3
	C206.4,38.5,206,38.1,205.4,38.1z M211.6,42.5c-0.5,0-0.9-0.1-1.4-0.2c-0.4-0.2-0.8-0.3-1.2-0.6l0.7-1c0.3,0.2,0.7,0.4,1,0.5
	c0.4,0.1,0.7,0.2,1.1,0.2c0.3,0,0.5,0,0.6-0.1s0.2-0.2,0.2-0.3s0-0.1-0.1-0.2c0-0.1-0.1-0.1-0.2-0.2c-0.1,0-0.2-0.1-0.4-0.1
	c-0.2-0.1-0.4-0.1-0.6-0.2c-0.7-0.2-1.2-0.4-1.5-0.6c-0.3-0.3-0.5-0.6-0.5-1c0-0.2,0.1-0.5,0.2-0.7c0.1-0.2,0.3-0.4,0.5-0.5
	s0.5-0.3,0.8-0.3c0.3-0.1,0.6-0.1,1-0.1c0.5,0,0.9,0.1,1.3,0.2c0.4,0.1,0.7,0.3,1,0.5l-0.7,0.9c-0.3-0.2-0.6-0.3-0.8-0.4
	c-0.3-0.1-0.6-0.1-0.9-0.1c-0.2,0-0.4,0-0.6,0.1c-0.1,0.1-0.2,0.2-0.2,0.3c0,0.2,0.1,0.3,0.3,0.3c0.2,0.1,0.5,0.1,1,0.2
	c0.4,0.1,0.7,0.2,1,0.3s0.5,0.2,0.6,0.4s0.3,0.3,0.3,0.5c0.1,0.2,0.1,0.4,0.1,0.6c0,0.2-0.1,0.5-0.2,0.7s-0.3,0.4-0.5,0.5
	s-0.5,0.3-0.8,0.4C212.4,42.4,212,42.5,211.6,42.5z M218.9,42.5c-0.4,0-0.8-0.1-1.1-0.2c-0.3-0.1-0.5-0.3-0.7-0.5s-0.3-0.5-0.4-0.7
	c-0.1-0.3-0.1-0.6-0.1-0.9v-1.9h-1.3v-1.2l1.4-0.1l0.2-1.6h1.3V37h2.2v1.2h-2.2v1.9c0,0.4,0.1,0.7,0.3,0.9s0.5,0.2,0.9,0.2
	c0.2,0,0.4,0,0.5,0c0.2,0,0.3-0.1,0.5-0.2l0.3,1.1c-0.2,0.1-0.5,0.1-0.8,0.2C219.6,42.4,219.3,42.5,218.9,42.5z M223.6,42.5
	c-0.3,0-0.5,0-0.7-0.1s-0.4-0.2-0.5-0.3s-0.3-0.3-0.3-0.5c-0.1-0.2-0.1-0.4-0.1-0.6c0-0.3,0.1-0.6,0.2-0.8c0.1-0.2,0.3-0.4,0.6-0.6
	s0.6-0.3,1.1-0.4c0.4-0.1,1-0.2,1.6-0.2c0-0.2-0.1-0.4-0.3-0.6c-0.2-0.1-0.4-0.2-0.8-0.2c-0.2,0-0.5,0-0.8,0.1s-0.5,0.2-0.8,0.4
	l-0.5-1c0.4-0.2,0.8-0.4,1.2-0.5s0.9-0.2,1.3-0.2c0.7,0,1.3,0.2,1.8,0.6c0.4,0.4,0.6,1,0.6,1.8v3h-1.3l-0.1-0.6l0,0
	c-0.3,0.2-0.6,0.4-0.9,0.5C224.3,42.4,223.9,42.5,223.6,42.5z M224.1,41.3c0.2,0,0.4,0,0.7-0.1c0.2-0.1,0.4-0.2,0.6-0.4v-0.9
	c-0.4,0-0.7,0.1-1,0.1c-0.2,0-0.5,0.1-0.6,0.2c-0.1,0.1-0.2,0.2-0.3,0.3s-0.1,0.2-0.1,0.3c0,0.2,0.1,0.3,0.2,0.4
	C223.7,41.2,223.9,41.3,224.1,41.3z M230,42.5c-0.6,0-1-0.2-1.3-0.6c-0.3-0.4-0.4-0.9-0.4-1.6v-3.2h1.6v3c0,0.4,0.1,0.6,0.2,0.8
	c0.1,0.2,0.3,0.2,0.6,0.2c0.2,0,0.4,0,0.5-0.1c0.2-0.1,0.3-0.2,0.5-0.5V37h1.6v5.3H232l-0.1-0.8l0,0c-0.2,0.3-0.5,0.5-0.8,0.6
	C230.7,42.4,230.3,42.5,230,42.5z M235.2,42.4v-5.3h1.3l0.1,1.1l0,0c0.3-0.4,0.6-0.7,0.9-1c0.4-0.2,0.8-0.3,1.2-0.3
	c0.2,0,0.4,0,0.6,0s0.3,0.1,0.5,0.2l-0.3,1.3c-0.2-0.1-0.3-0.1-0.4-0.1s-0.3,0-0.5,0c-0.3,0-0.6,0.1-1,0.3c-0.3,0.2-0.6,0.5-0.8,1
	v2.8H235.2z M242.8,42.5c-0.3,0-0.5,0-0.7-0.1s-0.4-0.2-0.5-0.3s-0.3-0.3-0.3-0.5c-0.1-0.2-0.1-0.4-0.1-0.6c0-0.3,0.1-0.6,0.2-0.8
	c0.1-0.2,0.3-0.4,0.6-0.6s0.6-0.3,1.1-0.4c0.4-0.1,1-0.2,1.6-0.2c0-0.2-0.1-0.4-0.3-0.6c-0.2-0.1-0.4-0.2-0.8-0.2
	c-0.2,0-0.5,0-0.8,0.1s-0.5,0.2-0.8,0.4l-0.5-1c0.4-0.2,0.8-0.4,1.2-0.5s0.9-0.2,1.3-0.2c0.7,0,1.3,0.2,1.8,0.6
	c0.4,0.4,0.6,1,0.6,1.8v3h-1.3l-0.1-0.6l0,0c-0.3,0.2-0.6,0.4-0.9,0.5C243.4,42.4,243.1,42.5,242.8,42.5z M243.3,41.3
	c0.2,0,0.4,0,0.7-0.1c0.2-0.1,0.4-0.2,0.6-0.4v-0.9c-0.4,0-0.7,0.1-1,0.1c-0.2,0-0.5,0.1-0.6,0.2c-0.1,0.1-0.2,0.2-0.3,0.3
	s-0.1,0.2-0.1,0.3c0,0.2,0.1,0.3,0.2,0.4C242.8,41.2,243,41.3,243.3,41.3z M247.5,42.4v-5.3h1.3l0.1,0.7l0,0
	c0.2-0.2,0.5-0.4,0.8-0.6c0.3-0.2,0.7-0.2,1-0.2c0.6,0,1,0.2,1.3,0.6c0.3,0.4,0.4,0.9,0.4,1.6v3.3H251v-3.1c0-0.4-0.1-0.6-0.2-0.8
	c-0.1-0.2-0.3-0.2-0.6-0.2c-0.2,0-0.4,0-0.6,0.1c-0.2,0.1-0.3,0.2-0.5,0.4v3.5H247.5z M257.3,42.5c-0.4,0-0.8-0.1-1.1-0.2
	c-0.3-0.1-0.5-0.3-0.7-0.5s-0.3-0.5-0.4-0.7c-0.1-0.3-0.1-0.6-0.1-0.9v-1.9h-1.3v-1.2l1.4-0.1l0.2-1.6h1.3V37h2.2v1.2h-2.2v1.9
	c0,0.4,0.1,0.7,0.3,0.9s0.5,0.2,0.9,0.2c0.2,0,0.4,0,0.5,0c0.2,0,0.3-0.1,0.5-0.2l0.3,1.1c-0.2,0.1-0.5,0.1-0.8,0.2
	C258,42.4,257.7,42.5,257.3,42.5z M262.7,42.5c-0.5,0-0.9-0.1-1.4-0.2c-0.4-0.2-0.8-0.3-1.2-0.6l0.7-1c0.3,0.2,0.7,0.4,1,0.5
	c0.4,0.1,0.7,0.2,1.1,0.2c0.3,0,0.5,0,0.6-0.1s0.2-0.2,0.2-0.3s0-0.1-0.1-0.2c0-0.1-0.1-0.1-0.2-0.2c-0.1,0-0.2-0.1-0.4-0.1
	c-0.2-0.1-0.4-0.1-0.6-0.2c-0.7-0.2-1.2-0.4-1.5-0.6c-0.3-0.3-0.5-0.6-0.5-1c0-0.2,0.1-0.5,0.2-0.7s0.3-0.4,0.5-0.5s0.5-0.3,0.8-0.3
	c0.3-0.1,0.6-0.1,1-0.1c0.5,0,0.9,0.1,1.3,0.2c0.4,0.1,0.7,0.3,1,0.5l-0.7,0.9c-0.3-0.2-0.6-0.3-0.8-0.4c-0.3-0.1-0.6-0.1-0.9-0.1
	c-0.2,0-0.4,0-0.6,0.1c-0.1,0.1-0.2,0.2-0.2,0.3c0,0.2,0.1,0.3,0.3,0.3c0.2,0.1,0.5,0.1,1,0.2c0.4,0.1,0.7,0.2,1,0.3
	s0.5,0.2,0.6,0.4s0.3,0.3,0.3,0.5c0.1,0.2,0.1,0.4,0.1,0.6c0,0.2-0.1,0.5-0.2,0.7s-0.3,0.4-0.5,0.5s-0.5,0.3-0.8,0.4
	C263.5,42.4,263.1,42.5,262.7,42.5z"/>
<path class="st0" d="M167.2,105.8H288l6.2,6.2v31.2l0,0H173.5l-6.2-6.2v-31.2H167.2z"/>
<path class="st1" d="M167.2,105.8H288l6.2,6.2v31.2l0,0H173.5l-6.2-6.2v-31.2H167.2z"/>
<path class="st2" d="M193,128.3c-0.4,0-0.8-0.1-1.2-0.2c-0.4-0.2-0.7-0.4-1-0.7c-0.3-0.3-0.5-0.7-0.7-1.1s-0.2-1-0.2-1.5
	c0-0.6,0.1-1.1,0.2-1.5c0.2-0.4,0.4-0.8,0.7-1.1c0.3-0.3,0.7-0.6,1.1-0.7c0.4-0.2,0.8-0.2,1.3-0.2c0.4,0,0.8,0.1,1.2,0.3
	c0.4,0.2,0.7,0.4,0.9,0.6l-0.9,1c-0.2-0.2-0.3-0.3-0.5-0.4s-0.4-0.1-0.7-0.1s-0.5,0.1-0.7,0.2s-0.4,0.2-0.5,0.4s-0.3,0.4-0.4,0.7
	c-0.1,0.3-0.1,0.6-0.1,0.9c0,0.7,0.2,1.3,0.5,1.7c0.3,0.4,0.8,0.6,1.3,0.6c0.2,0,0.5-0.1,0.7-0.2s0.4-0.3,0.6-0.5l0.9,1
	C194.7,128,194,128.3,193,128.3z M198,128.3c-0.3,0-0.5,0-0.7-0.1s-0.4-0.2-0.5-0.3c-0.1-0.1-0.3-0.3-0.3-0.5
	c-0.1-0.2-0.1-0.4-0.1-0.6c0-0.3,0.1-0.6,0.2-0.8c0.1-0.2,0.3-0.4,0.6-0.6s0.6-0.3,1.1-0.4c0.4-0.1,1-0.2,1.6-0.2
	c0-0.2-0.1-0.4-0.3-0.6c-0.2-0.1-0.4-0.2-0.8-0.2c-0.2,0-0.5,0-0.8,0.1s-0.5,0.2-0.8,0.4l-0.5-1c0.4-0.2,0.8-0.4,1.2-0.5
	s0.9-0.2,1.3-0.2c0.7,0,1.3,0.2,1.8,0.6c0.4,0.4,0.6,1,0.6,1.8v3H200l-0.1-0.6l0,0c-0.3,0.2-0.6,0.4-0.9,0.5
	C198.7,128.3,198.3,128.3,198,128.3z M198.5,127.1c0.2,0,0.4,0,0.7-0.1s0.4-0.2,0.6-0.4v-0.9c-0.4,0-0.7,0.1-1,0.1
	c-0.2,0-0.5,0.1-0.6,0.2s-0.2,0.2-0.3,0.3c-0.1,0.1-0.1,0.2-0.1,0.3c0,0.2,0.1,0.3,0.2,0.4C198.1,127.1,198.3,127.1,198.5,127.1z
	 M206.2,128.3c-0.7,0-1.2-0.2-1.5-0.6s-0.5-0.9-0.5-1.6V122h-1.7v-1.2h3.2v5.5c0,0.2,0,0.3,0.1,0.4s0.1,0.2,0.2,0.3
	c0.1,0.1,0.2,0.1,0.3,0.1s0.2,0,0.3,0s0.2,0,0.4,0c0.1,0,0.3-0.1,0.5-0.1l0.3,1.2c-0.1,0-0.3,0.1-0.4,0.1c-0.1,0-0.2,0.1-0.4,0.1
	c-0.1,0-0.2,0-0.4,0C206.5,128.3,206.4,128.3,206.2,128.3z M212.6,128.3c-0.7,0-1.2-0.2-1.5-0.6s-0.5-0.9-0.5-1.6V122h-1.7v-1.2h3.2
	v5.5c0,0.2,0,0.3,0.1,0.4s0.1,0.2,0.2,0.3c0.1,0.1,0.2,0.1,0.3,0.1s0.2,0,0.3,0s0.2,0,0.4,0c0.1,0,0.3-0.1,0.5-0.1l0.3,1.2
	c-0.1,0-0.3,0.1-0.4,0.1c-0.1,0-0.2,0.1-0.4,0.1c-0.1,0-0.2,0-0.4,0C212.9,128.3,212.8,128.3,212.6,128.3z M223.6,128.2v-2.3
	l-2.2-4.6h1.7l0.7,1.7c0.1,0.3,0.2,0.5,0.3,0.8c0.1,0.2,0.2,0.5,0.3,0.8l0,0c0.1-0.3,0.2-0.5,0.3-0.8s0.2-0.5,0.3-0.8l0.7-1.7h1.6
	l-2.2,4.6v2.3H223.6z M231.1,128.3c-0.4,0-0.8-0.1-1.2-0.2c-0.4-0.1-0.7-0.3-0.9-0.5c-0.3-0.2-0.5-0.5-0.6-0.9
	c-0.1-0.3-0.2-0.7-0.2-1.2s0.1-0.8,0.2-1.2c0.2-0.3,0.4-0.6,0.6-0.9c0.3-0.2,0.6-0.4,0.9-0.5c0.3-0.1,0.7-0.2,1-0.2
	c0.4,0,0.8,0.1,1.1,0.2s0.6,0.3,0.8,0.5s0.4,0.5,0.5,0.8s0.2,0.6,0.2,1c0,0.1,0,0.3,0,0.4s0,0.2,0,0.3h-3.6c0.1,0.4,0.2,0.7,0.5,0.8
	c0.3,0.2,0.6,0.3,1.1,0.3c0.2,0,0.5,0,0.7-0.1s0.4-0.2,0.7-0.3l0.5,1c-0.3,0.2-0.6,0.3-1,0.5C231.8,128.3,231.5,128.3,231.1,128.3z
	 M231,124c-0.3,0-0.6,0.1-0.8,0.2c-0.2,0.2-0.4,0.4-0.4,0.7h2.3C231.9,124.3,231.6,124,231,124z M238.2,128.3
	c-0.7,0-1.2-0.2-1.5-0.6s-0.5-0.9-0.5-1.6V122h-1.7v-1.2h3.2v5.5c0,0.2,0,0.3,0.1,0.4s0.1,0.2,0.2,0.3c0.1,0.1,0.2,0.1,0.3,0.1
	s0.2,0,0.3,0s0.2,0,0.4,0c0.1,0,0.3-0.1,0.5-0.1l0.3,1.2c-0.1,0-0.3,0.1-0.4,0.1c-0.1,0-0.2,0.1-0.4,0.1c-0.1,0-0.2,0-0.4,0
	C238.5,128.3,238.3,128.3,238.2,128.3z M241.1,130.2V123h1.3l0.1,0.5l0,0c0.2-0.2,0.5-0.4,0.7-0.5c0.3-0.1,0.6-0.2,0.8-0.2
	c0.3,0,0.6,0.1,0.9,0.2s0.5,0.3,0.7,0.5s0.3,0.5,0.4,0.8c0.1,0.3,0.1,0.7,0.1,1.1c0,0.5-0.1,0.9-0.2,1.2c-0.1,0.4-0.3,0.7-0.5,0.9
	c-0.2,0.2-0.5,0.4-0.7,0.5c-0.3,0.1-0.6,0.2-0.8,0.2c-0.5,0-0.9-0.2-1.3-0.6l0,0l0.1,0.9v1.5h-1.6V130.2z M243.6,127.1
	c0.3,0,0.6-0.1,0.8-0.4c0.2-0.2,0.3-0.6,0.3-1.2c0-1-0.3-1.4-1-1.4c-0.3,0-0.7,0.2-1,0.5v2.1c0.2,0.1,0.3,0.2,0.5,0.3
	C243.3,127,243.5,127.1,243.6,127.1z M255.8,124.7l-0.2,0.6h1.5l-0.2-0.6c-0.1-0.3-0.2-0.7-0.3-1.1c-0.1-0.4-0.2-0.8-0.3-1.1l0,0
	c-0.1,0.4-0.2,0.7-0.3,1.1C255.9,124,255.8,124.4,255.8,124.7z M253.3,128.2l2.2-7h1.9l2.2,7h-1.7l-0.4-1.7h-2.1l-0.4,1.7H253.3z
	 M260.3,128.2v-7h2.5c0.4,0,0.7,0,1,0.1s0.6,0.2,0.9,0.4c0.2,0.2,0.4,0.4,0.6,0.7c0.1,0.3,0.2,0.6,0.2,1.1c0,0.4-0.1,0.7-0.2,1
	s-0.3,0.6-0.6,0.8c-0.2,0.2-0.5,0.3-0.9,0.4c-0.3,0.1-0.7,0.1-1,0.1h-0.9v2.4H260.3z M261.9,124.6h0.8c0.8,0,1.3-0.4,1.3-1.1
	c0-0.4-0.1-0.6-0.3-0.8c-0.2-0.2-0.5-0.2-0.9-0.2H262v2.1H261.9z M266.7,128.2v-1.3h1.6v-4.3h-1.6v-1.3h4.8v1.3h-1.6v4.3h1.6v1.3
	H266.7z"/>
<path class="st0" d="M167.2,164.9h116.7l10.4,10.4v52.2l0,0H177.7l-10.4-10.4v-52.2H167.2z"/>
<path class="st1" d="M167.2,164.9h116.7l10.4,10.4v52.2l0,0H177.7l-10.4-10.4v-52.2H167.2z"/>
<path class="st2" d="M193.2,186.9v-7h2.5c0.4,0,0.7,0,1,0.1s0.6,0.2,0.9,0.4c0.3,0.2,0.4,0.4,0.6,0.7c0.1,0.3,0.2,0.6,0.2,1.1
	c0,0.4-0.1,0.7-0.2,1c-0.1,0.3-0.3,0.6-0.6,0.8c-0.2,0.2-0.5,0.3-0.9,0.4c-0.3,0.1-0.7,0.1-1,0.1h-0.9v2.4H193.2z M194.8,183.3h0.8
	c0.8,0,1.3-0.4,1.3-1.1c0-0.4-0.1-0.6-0.3-0.8s-0.5-0.2-0.9-0.2h-0.8v2.1H194.8z M200,186.9v-5.3h1.3l0.1,1.1l0,0
	c0.3-0.4,0.6-0.7,0.9-1c0.4-0.2,0.8-0.3,1.2-0.3c0.2,0,0.4,0,0.6,0s0.3,0.1,0.5,0.2l-0.3,1.3c-0.2-0.1-0.3-0.1-0.4-0.1
	c-0.1,0-0.3,0-0.5,0c-0.3,0-0.6,0.1-1,0.3c-0.3,0.2-0.6,0.5-0.8,1v2.8H200z M208.2,186.9v-4.1H206v-1.2h3.7v5.3H208.2z M208.4,180.8
	c-0.3,0-0.6-0.1-0.8-0.2c-0.2-0.2-0.3-0.4-0.3-0.7s0.1-0.5,0.3-0.7s0.5-0.3,0.8-0.3s0.5,0.1,0.7,0.3s0.3,0.4,0.3,0.7
	s-0.1,0.5-0.3,0.7C209,180.8,208.7,180.8,208.4,180.8z M212.4,186.9v-5.3h1.3l0.1,0.7l0,0c0.2-0.2,0.5-0.4,0.8-0.6
	c0.3-0.2,0.7-0.2,1-0.2c0.6,0,1,0.2,1.3,0.6c0.3,0.4,0.4,0.9,0.4,1.6v3.3h-1.6v-3.1c0-0.4-0.1-0.6-0.2-0.8c-0.1-0.2-0.3-0.2-0.6-0.2
	c-0.2,0-0.4,0-0.6,0.1c-0.2,0.1-0.3,0.2-0.5,0.4v3.5H212.4z M222.1,187.1c-0.4,0-0.8-0.1-1.1-0.2c-0.3-0.1-0.5-0.3-0.7-0.5
	s-0.3-0.5-0.4-0.7c-0.1-0.3-0.1-0.6-0.1-0.9v-1.9h-1.3v-1.2l1.4-0.1l0.2-1.6h1.3v1.6h2.2v1.2h-2.2v1.9c0,0.4,0.1,0.7,0.3,0.9
	s0.5,0.2,0.9,0.2c0.2,0,0.4,0,0.5,0c0.2,0,0.3-0.1,0.5-0.2l0.3,1.1c-0.2,0.1-0.5,0.1-0.8,0.2C222.8,187,222.5,187.1,222.1,187.1z
	 M233.2,187.1c-0.4,0-0.7-0.1-1-0.2c-0.3-0.1-0.5-0.2-0.7-0.4s-0.3-0.4-0.4-0.6c-0.1-0.2-0.1-0.5-0.1-0.8c0-0.2,0-0.4,0.1-0.6
	c0.1-0.2,0.1-0.4,0.2-0.5c0.1-0.2,0.2-0.3,0.4-0.4c0.1-0.1,0.3-0.3,0.4-0.4c-0.1-0.3-0.2-0.5-0.3-0.8c-0.1-0.2-0.1-0.5-0.1-0.7
	s0-0.5,0.1-0.7s0.2-0.4,0.3-0.6c0.1-0.2,0.3-0.3,0.5-0.4c0.2-0.1,0.5-0.2,0.7-0.2c0.5,0,0.9,0.1,1.2,0.4c0.3,0.3,0.5,0.7,0.5,1.1
	c0,0.2,0,0.4-0.1,0.6c-0.1,0.2-0.2,0.3-0.3,0.5s-0.3,0.3-0.4,0.4c-0.2,0.1-0.3,0.3-0.5,0.4c0.2,0.2,0.4,0.4,0.6,0.7
	c0.2,0.2,0.4,0.4,0.7,0.6c0.1-0.2,0.2-0.5,0.3-0.7c0.1-0.3,0.2-0.5,0.2-0.9h1.4c-0.1,0.4-0.2,0.8-0.4,1.2s-0.3,0.8-0.6,1.1
	c0.4,0.2,0.7,0.4,1,0.4l-0.4,1.3c-0.5-0.1-1-0.3-1.5-0.7c-0.3,0.2-0.6,0.4-0.9,0.5C234,187,233.6,187.1,233.2,187.1z M233,181.7
	c0,0.2,0.1,0.5,0.2,0.8c0.2-0.1,0.4-0.3,0.5-0.5s0.2-0.4,0.2-0.6c0-0.2,0-0.3-0.1-0.4c-0.1-0.1-0.2-0.2-0.3-0.2s-0.2,0.1-0.3,0.2
	C233,181.3,233,181.4,233,181.7z M233.5,185.9c0.2,0,0.5-0.1,0.7-0.2c-0.2-0.2-0.5-0.4-0.7-0.7c-0.2-0.2-0.4-0.5-0.6-0.8
	c-0.1,0.1-0.2,0.3-0.2,0.4c-0.1,0.1-0.1,0.3-0.1,0.4c0,0.3,0.1,0.5,0.3,0.6C232.9,185.8,233.2,185.9,233.5,185.9z M246.7,187.1
	c-0.5,0-0.9-0.1-1.4-0.2c-0.5-0.2-0.9-0.4-1.2-0.8l0.9-1.1c0.3,0.2,0.5,0.4,0.9,0.5c0.3,0.1,0.6,0.2,1,0.2s0.6-0.1,0.8-0.2
	c0.2-0.1,0.2-0.3,0.2-0.4c0-0.1,0-0.2-0.1-0.3s-0.1-0.2-0.2-0.2c-0.1-0.1-0.2-0.1-0.3-0.2c-0.1-0.1-0.3-0.1-0.5-0.2l-0.9-0.4
	c-0.2-0.1-0.4-0.2-0.6-0.3c-0.2-0.1-0.3-0.2-0.5-0.4c-0.1-0.2-0.2-0.3-0.3-0.5s-0.1-0.4-0.1-0.7s0.1-0.5,0.2-0.8s0.3-0.5,0.5-0.7
	s0.5-0.3,0.8-0.4c0.3-0.1,0.7-0.2,1-0.2c0.4,0,0.8,0.1,1.2,0.2c0.4,0.2,0.8,0.4,1.1,0.7l-0.8,1c-0.2-0.2-0.5-0.3-0.7-0.4
	c-0.2-0.1-0.5-0.1-0.9-0.1c-0.3,0-0.5,0.1-0.6,0.2c-0.2,0.1-0.2,0.3-0.2,0.5s0.1,0.4,0.3,0.5s0.5,0.2,0.8,0.3l0.8,0.4
	c0.5,0.2,0.8,0.4,1.1,0.7s0.4,0.7,0.4,1.2c0,0.3-0.1,0.6-0.2,0.8c-0.1,0.3-0.3,0.5-0.5,0.7s-0.5,0.4-0.8,0.5
	C247.6,187,247.2,187.1,246.7,187.1z M250.7,186.9v-7.5h1.6v1.8l-0.1,1l0,0c0.2-0.2,0.4-0.4,0.7-0.5c0.3-0.2,0.6-0.2,1-0.2
	c0.6,0,1,0.2,1.3,0.6c0.3,0.4,0.4,0.9,0.4,1.6v3.3H254v-3.1c0-0.4-0.1-0.6-0.2-0.8c-0.1-0.2-0.3-0.2-0.6-0.2c-0.2,0-0.4,0-0.6,0.1
	c-0.2,0.1-0.3,0.2-0.5,0.4v3.5L250.7,186.9L250.7,186.9z M259.6,187.1c-0.4,0-0.7-0.1-1-0.2s-0.6-0.3-0.9-0.5
	c-0.2-0.2-0.5-0.5-0.6-0.9c-0.1-0.3-0.2-0.7-0.2-1.2s0.1-0.8,0.2-1.2c0.2-0.4,0.4-0.6,0.6-0.9c0.2-0.2,0.5-0.4,0.9-0.5
	c0.3-0.1,0.7-0.2,1-0.2s0.7,0.1,1,0.2c0.3,0.1,0.6,0.3,0.9,0.5s0.5,0.5,0.6,0.9c0.1,0.3,0.2,0.7,0.2,1.2s-0.1,0.8-0.2,1.2
	s-0.3,0.6-0.6,0.9c-0.2,0.2-0.5,0.4-0.9,0.5S259.9,187.1,259.6,187.1z M259.6,185.8c0.4,0,0.6-0.1,0.8-0.4c0.2-0.3,0.3-0.6,0.3-1.1
	s-0.1-0.8-0.3-1.1c-0.2-0.3-0.4-0.4-0.8-0.4s-0.6,0.1-0.8,0.4c-0.2,0.3-0.3,0.6-0.3,1.1s0.1,0.8,0.3,1.1
	C258.9,185.7,259.2,185.8,259.6,185.8z M263.7,186.9l-0.9-5.3h1.5l0.3,2.5c0,0.3,0.1,0.5,0.1,0.8c0,0.2,0.1,0.5,0.1,0.8l0,0
	c0-0.3,0.1-0.5,0.1-0.8s0.1-0.5,0.1-0.8l0.3-1.8h1.1l0.3,1.8c0.1,0.3,0.1,0.5,0.2,0.8c0,0.2,0.1,0.5,0.1,0.8l0,0
	c0-0.3,0.1-0.5,0.1-0.8s0-0.5,0.1-0.8l0.3-2.5h1.4l-0.8,5.3h-1.8l-0.3-1.7c0-0.2-0.1-0.5-0.1-0.7c0-0.3-0.1-0.5-0.1-0.8l0,0
	c0,0.2,0,0.5-0.1,0.7c0,0.2-0.1,0.5-0.1,0.9l-0.3,1.7L263.7,186.9L263.7,186.9z"/>
<path class="st2" d="M209.2,199.9v-7h2.5c0.4,0,0.7,0,1,0.1s0.6,0.2,0.8,0.4s0.4,0.4,0.6,0.7c0.1,0.3,0.2,0.6,0.2,1
	c0,0.5-0.1,0.9-0.3,1.3c-0.2,0.3-0.5,0.6-0.9,0.7l1.6,2.8h-1.8l-1.3-2.5h-0.8v2.5H209.2z M210.7,196.2h0.8c0.8,0,1.3-0.3,1.3-1
	c0-0.3-0.1-0.6-0.3-0.7c-0.2-0.1-0.5-0.2-0.9-0.2h-0.8v1.9H210.7z M218.3,200.1c-0.4,0-0.8-0.1-1.2-0.2c-0.4-0.1-0.7-0.3-0.9-0.5
	c-0.3-0.2-0.5-0.5-0.6-0.9c-0.1-0.3-0.2-0.7-0.2-1.2s0.1-0.8,0.2-1.2c0.2-0.3,0.4-0.6,0.6-0.9c0.3-0.2,0.6-0.4,0.9-0.5
	c0.3-0.1,0.7-0.2,1-0.2c0.4,0,0.8,0.1,1.1,0.2s0.6,0.3,0.8,0.5s0.4,0.5,0.5,0.8s0.2,0.6,0.2,1c0,0.1,0,0.3,0,0.4c0,0.1,0,0.2,0,0.3
	H217c0.1,0.4,0.2,0.7,0.5,0.8c0.3,0.2,0.6,0.3,1.1,0.3c0.2,0,0.5,0,0.7-0.1s0.4-0.2,0.7-0.3l0.5,1c-0.3,0.2-0.6,0.3-1,0.5
	C219,200,218.7,200.1,218.3,200.1z M218.2,195.7c-0.3,0-0.6,0.1-0.8,0.2c-0.2,0.2-0.4,0.4-0.4,0.7h2.3
	C219.1,196.1,218.8,195.7,218.2,195.7z M224.3,200.1c-0.5,0-0.9-0.1-1.4-0.2c-0.4-0.2-0.8-0.3-1.2-0.6l0.7-1c0.3,0.2,0.7,0.4,1,0.5
	c0.4,0.1,0.7,0.2,1.1,0.2c0.3,0,0.5,0,0.6-0.1s0.2-0.2,0.2-0.3s0-0.1-0.1-0.2c0-0.1-0.1-0.1-0.2-0.2c-0.1,0-0.2-0.1-0.4-0.1
	c-0.2-0.1-0.4-0.1-0.6-0.2c-0.7-0.2-1.2-0.4-1.5-0.6c-0.3-0.3-0.5-0.6-0.5-1c0-0.2,0.1-0.5,0.2-0.7c0.1-0.2,0.3-0.4,0.5-0.5
	s0.5-0.3,0.8-0.3c0.3-0.1,0.6-0.1,1-0.1c0.5,0,0.9,0.1,1.3,0.2c0.4,0.1,0.7,0.3,1,0.5l-0.7,0.9c-0.3-0.2-0.6-0.3-0.8-0.4
	c-0.3-0.1-0.6-0.1-0.9-0.1c-0.2,0-0.4,0-0.6,0.1c-0.1,0.1-0.2,0.2-0.2,0.3c0,0.2,0.1,0.3,0.3,0.3c0.2,0.1,0.5,0.1,1,0.2
	c0.4,0.1,0.7,0.2,1,0.3s0.5,0.2,0.6,0.4c0.2,0.1,0.3,0.3,0.3,0.5c0.1,0.2,0.1,0.4,0.1,0.6c0,0.2-0.1,0.5-0.2,0.7
	c-0.1,0.2-0.3,0.4-0.5,0.5s-0.5,0.3-0.8,0.4C225.1,200,224.8,200.1,224.3,200.1z M230,200.1c-0.6,0-1-0.2-1.3-0.6
	c-0.3-0.4-0.4-0.9-0.4-1.6v-3.2h1.6v3c0,0.4,0.1,0.6,0.2,0.8c0.1,0.2,0.3,0.2,0.6,0.2c0.2,0,0.4,0,0.5-0.1c0.2-0.1,0.3-0.2,0.5-0.5
	v-3.5h1.6v5.3H232l-0.1-0.8l0,0c-0.2,0.3-0.5,0.5-0.8,0.6C230.7,200,230.3,200.1,230,200.1z M238.2,200.1c-0.7,0-1.2-0.2-1.5-0.6
	c-0.3-0.4-0.5-0.9-0.5-1.6v-4.2h-1.7v-1.2h3.2v5.5c0,0.2,0,0.3,0.1,0.4c0.1,0.1,0.1,0.2,0.2,0.3c0.1,0.1,0.2,0.1,0.3,0.1
	s0.2,0,0.3,0s0.2,0,0.4,0c0.1,0,0.3-0.1,0.5-0.1l0.3,1.2c-0.1,0-0.3,0.1-0.4,0.1c-0.1,0-0.2,0.1-0.4,0.1c-0.1,0-0.2,0-0.4,0
	C238.5,200.1,238.3,200.1,238.2,200.1z M244.5,200.1c-0.4,0-0.8-0.1-1.1-0.2c-0.3-0.1-0.5-0.3-0.7-0.5s-0.3-0.5-0.4-0.7
	c-0.1-0.3-0.1-0.6-0.1-0.9v-1.9h-1.3v-1.2l1.4-0.1l0.2-1.6h1.3v1.6h2.2v1.2h-2.2v1.9c0,0.4,0.1,0.7,0.3,0.9s0.5,0.2,0.9,0.2
	c0.2,0,0.4,0,0.5,0c0.2,0,0.3-0.1,0.5-0.2l0.3,1.1c-0.2,0.1-0.5,0.1-0.8,0.2C245.2,200,244.9,200.1,244.5,200.1z M249.9,200.1
	c-0.5,0-0.9-0.1-1.4-0.2c-0.4-0.2-0.8-0.3-1.2-0.6l0.7-1c0.3,0.2,0.7,0.4,1,0.5c0.4,0.1,0.7,0.2,1.1,0.2c0.3,0,0.5,0,0.6-0.1
	s0.2-0.2,0.2-0.3s0-0.1-0.1-0.2c0-0.1-0.1-0.1-0.2-0.2c-0.1,0-0.2-0.1-0.4-0.1c-0.2-0.1-0.4-0.1-0.6-0.2c-0.7-0.2-1.2-0.4-1.5-0.6
	c-0.3-0.3-0.5-0.6-0.5-1c0-0.2,0.1-0.5,0.2-0.7c0.1-0.2,0.3-0.4,0.5-0.5s0.5-0.3,0.8-0.3c0.3-0.1,0.6-0.1,1-0.1
	c0.5,0,0.9,0.1,1.3,0.2c0.4,0.1,0.7,0.3,1,0.5l-0.7,0.9c-0.3-0.2-0.6-0.3-0.8-0.4c-0.3-0.1-0.6-0.1-0.9-0.1c-0.2,0-0.4,0-0.6,0.1
	c-0.1,0.1-0.2,0.2-0.2,0.3c0,0.2,0.1,0.3,0.3,0.3c0.2,0.1,0.5,0.1,1,0.2c0.4,0.1,0.7,0.2,1,0.3s0.5,0.2,0.6,0.4
	c0.2,0.1,0.3,0.3,0.3,0.5c0.1,0.2,0.1,0.4,0.1,0.6c0,0.2-0.1,0.5-0.2,0.7c-0.1,0.2-0.3,0.4-0.5,0.5s-0.5,0.3-0.8,0.4
	C250.7,200,250.3,200.1,249.9,200.1z"/>
<path class="st2" d="M203,214.9c-0.7-0.6-1.2-1.3-1.6-2.1c-0.4-0.8-0.6-1.7-0.6-2.7s0.2-1.9,0.6-2.7c0.4-0.8,1-1.5,1.6-2.1l0.9,0.7
	c-0.6,0.6-1.1,1.3-1.4,1.9c-0.3,0.7-0.4,1.4-0.4,2.2c0,0.4,0,0.8,0.1,1.2s0.2,0.7,0.3,1.1s0.3,0.7,0.6,1s0.5,0.6,0.8,0.9L203,214.9z
	 M208.4,213.1c-0.5,0-0.9-0.1-1.4-0.2c-0.4-0.2-0.8-0.3-1.2-0.6l0.7-1c0.3,0.2,0.7,0.4,1,0.5c0.4,0.1,0.7,0.2,1.1,0.2
	c0.3,0,0.5,0,0.6-0.1s0.2-0.2,0.2-0.3s0-0.1-0.1-0.2c0-0.1-0.1-0.1-0.2-0.2c-0.1,0-0.2-0.1-0.4-0.1c-0.2-0.1-0.4-0.1-0.6-0.2
	c-0.7-0.2-1.2-0.4-1.5-0.6c-0.3-0.3-0.5-0.6-0.5-1c0-0.2,0.1-0.5,0.2-0.7c0.1-0.2,0.3-0.4,0.5-0.5s0.5-0.3,0.8-0.3
	c0.3-0.1,0.6-0.1,1-0.1c0.5,0,0.9,0.1,1.3,0.2c0.4,0.1,0.7,0.3,1,0.5l-0.7,0.9c-0.3-0.2-0.6-0.3-0.8-0.4c-0.3-0.1-0.6-0.1-0.9-0.1
	c-0.2,0-0.4,0-0.6,0.1c-0.1,0.1-0.2,0.2-0.2,0.3c0,0.2,0.1,0.3,0.3,0.3c0.2,0.1,0.5,0.1,1,0.2c0.4,0.1,0.7,0.2,1,0.3
	s0.5,0.2,0.6,0.4c0.2,0.1,0.3,0.3,0.3,0.5c0.1,0.2,0.1,0.4,0.1,0.6c0,0.2-0.1,0.5-0.2,0.7c-0.1,0.2-0.3,0.4-0.5,0.5
	s-0.5,0.3-0.8,0.4C209.2,213,208.8,213.1,208.4,213.1z M214.8,213.1c-0.4,0-0.7-0.1-1-0.2c-0.3-0.1-0.6-0.3-0.9-0.5
	c-0.2-0.2-0.5-0.5-0.6-0.9c-0.1-0.3-0.2-0.7-0.2-1.2s0.1-0.8,0.2-1.2c0.2-0.4,0.4-0.6,0.6-0.9c0.2-0.2,0.5-0.4,0.9-0.5
	c0.3-0.1,0.7-0.2,1-0.2s0.7,0.1,1,0.2c0.3,0.1,0.6,0.3,0.9,0.5c0.3,0.2,0.5,0.5,0.6,0.9c0.1,0.3,0.2,0.7,0.2,1.2s-0.1,0.8-0.2,1.2
	c-0.1,0.3-0.3,0.6-0.6,0.9c-0.2,0.2-0.5,0.4-0.9,0.5C215.5,213,215.1,213.1,214.8,213.1z M214.8,211.8c0.4,0,0.6-0.1,0.8-0.4
	c0.2-0.3,0.3-0.6,0.3-1.1s-0.1-0.8-0.3-1.1s-0.4-0.4-0.8-0.4c-0.4,0-0.6,0.1-0.8,0.4c-0.2,0.3-0.3,0.6-0.3,1.1s0.1,0.8,0.3,1.1
	C214.2,211.7,214.4,211.8,214.8,211.8z M219.2,212.9v-5.3h1.3l0.1,1.1l0,0c0.3-0.4,0.6-0.7,0.9-1c0.4-0.2,0.8-0.3,1.2-0.3
	c0.2,0,0.4,0,0.6,0c0.1,0,0.3,0.1,0.5,0.2l-0.3,1.3c-0.2-0.1-0.3-0.1-0.4-0.1c-0.1,0-0.3,0-0.5,0c-0.3,0-0.6,0.1-1,0.3
	c-0.3,0.2-0.6,0.5-0.8,1v2.8H219.2z M228.5,213.1c-0.4,0-0.8-0.1-1.1-0.2c-0.3-0.1-0.5-0.3-0.7-0.5s-0.3-0.5-0.4-0.7
	c-0.1-0.3-0.1-0.6-0.1-0.9v-1.9h-1.3v-1.2l1.4-0.1l0.2-1.6h1.3v1.6h2.2v1.2h-2.2v1.9c0,0.4,0.1,0.7,0.3,0.9s0.5,0.2,0.9,0.2
	c0.2,0,0.4,0,0.5,0c0.2,0,0.3-0.1,0.5-0.2l0.3,1.1c-0.2,0.1-0.5,0.1-0.8,0.2C229.2,213,228.9,213.1,228.5,213.1z M233.2,213.1
	c-0.3,0-0.5,0-0.7-0.1s-0.4-0.2-0.5-0.3s-0.3-0.3-0.3-0.5c-0.1-0.2-0.1-0.4-0.1-0.6c0-0.3,0.1-0.6,0.2-0.8c0.1-0.2,0.3-0.4,0.6-0.6
	s0.6-0.3,1.1-0.4c0.4-0.1,1-0.2,1.6-0.2c0-0.2-0.1-0.4-0.3-0.6c-0.2-0.1-0.4-0.2-0.8-0.2c-0.2,0-0.5,0-0.8,0.1s-0.5,0.2-0.8,0.4
	l-0.5-1c0.4-0.2,0.8-0.4,1.2-0.5s0.9-0.2,1.3-0.2c0.7,0,1.3,0.2,1.8,0.6c0.4,0.4,0.6,1,0.6,1.8v3h-1.3l-0.1-0.6l0,0
	c-0.3,0.2-0.6,0.4-0.9,0.5C233.8,213,233.5,213.1,233.2,213.1z M233.7,211.9c0.2,0,0.4,0,0.7-0.1s0.4-0.2,0.6-0.4v-0.9
	c-0.4,0-0.7,0.1-1,0.1c-0.2,0-0.5,0.1-0.6,0.2c-0.1,0.1-0.2,0.2-0.3,0.3s-0.1,0.2-0.1,0.3c0,0.2,0.1,0.3,0.2,0.4
	C233.3,211.8,233.4,211.9,233.7,211.9z M240.8,213.1c-0.2,0-0.5-0.1-0.8-0.2c-0.2-0.1-0.5-0.3-0.7-0.5l0,0l-0.1,0.6H238v-7.5h1.6
	v1.8v0.8l0,0c0.2-0.2,0.4-0.3,0.7-0.4c0.3-0.1,0.5-0.2,0.8-0.2s0.6,0.1,0.9,0.2c0.3,0.1,0.5,0.3,0.7,0.5s0.3,0.5,0.4,0.8
	c0.1,0.3,0.2,0.7,0.2,1.1c0,0.4-0.1,0.9-0.2,1.2c-0.1,0.4-0.3,0.7-0.5,0.9s-0.5,0.4-0.7,0.5C241.4,213,241.1,213.1,240.8,213.1z
	 M240.4,211.8c0.3,0,0.5-0.1,0.7-0.4c0.2-0.2,0.3-0.6,0.3-1.2c0-1-0.3-1.4-1-1.4c-0.3,0-0.7,0.2-1,0.5v2.1c0.2,0.1,0.3,0.2,0.5,0.3
	C240.1,211.8,240.3,211.8,240.4,211.8z M247.8,213.1c-0.7,0-1.2-0.2-1.5-0.6c-0.3-0.4-0.5-0.9-0.5-1.6v-4.2h-1.7v-1.2h3.2v5.5
	c0,0.2,0,0.3,0.1,0.4c0.1,0.1,0.1,0.2,0.2,0.3c0.1,0.1,0.2,0.1,0.3,0.1s0.2,0,0.3,0s0.2,0,0.4,0c0.1,0,0.3-0.1,0.5-0.1l0.3,1.2
	c-0.1,0-0.3,0.1-0.4,0.1c-0.1,0-0.2,0.1-0.4,0.1c-0.1,0-0.2,0-0.4,0C248.1,213.1,247.9,213.1,247.8,213.1z M253.5,213.1
	c-0.4,0-0.8-0.1-1.2-0.2c-0.4-0.1-0.7-0.3-0.9-0.5c-0.3-0.2-0.5-0.5-0.6-0.9s-0.2-0.7-0.2-1.2s0.1-0.8,0.2-1.2
	c0.2-0.3,0.4-0.6,0.6-0.9c0.3-0.2,0.6-0.4,0.9-0.5c0.3-0.1,0.7-0.2,1-0.2c0.4,0,0.8,0.1,1.1,0.2s0.6,0.3,0.8,0.5s0.4,0.5,0.5,0.8
	s0.2,0.6,0.2,1c0,0.1,0,0.3,0,0.4c0,0.1,0,0.2,0,0.3h-3.6c0.1,0.4,0.2,0.7,0.5,0.8c0.3,0.2,0.6,0.3,1.1,0.3c0.2,0,0.5,0,0.7-0.1
	s0.4-0.2,0.7-0.3l0.5,1c-0.3,0.2-0.6,0.3-1,0.5C254.2,213,253.8,213.1,253.5,213.1z M253.4,208.7c-0.3,0-0.6,0.1-0.8,0.2
	c-0.2,0.2-0.4,0.4-0.4,0.7h2.3C254.3,209.1,254,208.7,253.4,208.7z M258.6,214.9l-0.9-0.7c0.3-0.3,0.6-0.6,0.8-0.9
	c0.2-0.3,0.4-0.6,0.6-1s0.3-0.7,0.3-1.1c0.1-0.4,0.1-0.8,0.1-1.2c0-0.8-0.1-1.6-0.4-2.2c-0.3-0.7-0.7-1.3-1.4-1.9l0.9-0.7
	c0.7,0.6,1.2,1.3,1.6,2.1s0.6,1.7,0.6,2.7s-0.2,1.9-0.6,2.7C259.8,213.5,259.3,214.2,258.6,214.9z"/>
<path class="st1" d="M11.4,45.2h120.8l6.2,6.2v31.2l0,0H17.6l-6.2-6.2C11.4,76.4,11.4,45.2,11.4,45.2z"/>
<path class="st2" d="M33.4,67.8c-0.5,0-0.9-0.1-1.4-0.2c-0.5-0.2-0.9-0.4-1.2-0.8l0.9-1.1c0.3,0.2,0.5,0.4,0.9,0.5
	c0.3,0.1,0.6,0.2,1,0.2c0.3,0,0.6-0.1,0.8-0.2s0.2-0.3,0.2-0.4s0-0.2-0.1-0.3c-0.1-0.1-0.1-0.2-0.2-0.2c-0.1-0.1-0.2-0.1-0.3-0.2
	s-0.3-0.1-0.5-0.2l-0.9-0.4c-0.2-0.1-0.4-0.2-0.6-0.3c-0.2-0.1-0.3-0.2-0.5-0.4c-0.1-0.2-0.2-0.3-0.3-0.5C31,63.1,31,62.9,31,62.6
	c0-0.3,0.1-0.5,0.2-0.8s0.3-0.5,0.5-0.7s0.5-0.3,0.8-0.4c0.3-0.1,0.7-0.2,1-0.2c0.4,0,0.8,0.1,1.2,0.2c0.4,0.2,0.8,0.4,1.1,0.7
	l-0.8,1c-0.2-0.2-0.5-0.3-0.7-0.4c-0.2-0.1-0.5-0.1-0.9-0.1c-0.3,0-0.5,0.1-0.6,0.2c-0.2,0.1-0.2,0.3-0.2,0.5s0.1,0.4,0.3,0.5
	s0.5,0.2,0.8,0.3l0.8,0.4c0.5,0.2,0.8,0.4,1.1,0.7s0.4,0.7,0.4,1.2c0,0.3-0.1,0.6-0.2,0.8c-0.1,0.3-0.3,0.5-0.5,0.7
	s-0.5,0.4-0.8,0.5C34.2,67.7,33.8,67.8,33.4,67.8z M40.1,67.8c-0.4,0-0.8-0.1-1.2-0.2s-0.7-0.3-0.9-0.5c-0.3-0.2-0.5-0.5-0.6-0.9
	c-0.1-0.3-0.2-0.7-0.2-1.2c0-0.4,0.1-0.8,0.2-1.2c0.2-0.3,0.4-0.6,0.6-0.9c0.3-0.2,0.6-0.4,0.9-0.5c0.3-0.1,0.7-0.2,1-0.2
	c0.4,0,0.8,0.1,1.1,0.2c0.3,0.1,0.6,0.3,0.8,0.5s0.4,0.5,0.5,0.8c0.1,0.3,0.2,0.6,0.2,1c0,0.1,0,0.3,0,0.4s0,0.2,0,0.3h-3.6
	c0.1,0.4,0.2,0.7,0.5,0.8c0.3,0.2,0.6,0.3,1.1,0.3c0.2,0,0.5,0,0.7-0.1s0.4-0.2,0.7-0.3l0.5,1c-0.3,0.2-0.6,0.3-1,0.5
	C40.8,67.7,40.5,67.8,40.1,67.8z M40,63.4c-0.3,0-0.6,0.1-0.8,0.2c-0.2,0.2-0.4,0.4-0.4,0.7H41C40.9,63.8,40.6,63.4,40,63.4z
	 M45.4,67.8c-0.3,0-0.5,0-0.7-0.1s-0.4-0.2-0.5-0.3c-0.1-0.1-0.3-0.3-0.3-0.5c-0.1-0.2-0.1-0.4-0.1-0.6c0-0.3,0.1-0.6,0.2-0.8
	c0.1-0.2,0.3-0.4,0.6-0.6s0.6-0.3,1.1-0.4c0.4-0.1,1-0.2,1.6-0.2c0-0.2-0.1-0.4-0.3-0.6c-0.2-0.1-0.4-0.2-0.8-0.2
	c-0.2,0-0.5,0-0.8,0.1s-0.5,0.2-0.8,0.4l-0.5-1c0.4-0.2,0.8-0.4,1.2-0.5s0.9-0.2,1.3-0.2c0.7,0,1.3,0.2,1.8,0.6
	c0.4,0.4,0.6,1,0.6,1.8v3h-1.3l-0.1-0.6l0,0c-0.3,0.2-0.6,0.4-0.9,0.5C46,67.7,45.7,67.8,45.4,67.8z M45.9,66.6c0.2,0,0.4,0,0.7-0.1
	c0.2-0.1,0.4-0.2,0.6-0.4v-0.9c-0.4,0-0.7,0.1-1,0.1c-0.2,0-0.5,0.1-0.6,0.2s-0.2,0.2-0.3,0.3c-0.1,0.1-0.1,0.2-0.1,0.3
	c0,0.2,0.1,0.3,0.2,0.4C45.5,66.5,45.6,66.6,45.9,66.6z M50.6,67.6v-5.3h1.3l0.1,1.1l0,0c0.3-0.4,0.6-0.7,0.9-1
	c0.4-0.2,0.8-0.3,1.2-0.3c0.2,0,0.4,0,0.6,0c0.1,0,0.3,0.1,0.5,0.2l-0.3,1.3c-0.2-0.1-0.3-0.1-0.4-0.1c-0.1,0-0.3,0-0.5,0
	c-0.3,0-0.6,0.1-1,0.3c-0.3,0.2-0.6,0.5-0.8,1v2.8C52.2,67.6,50.6,67.6,50.6,67.6z M59.4,67.8c-0.4,0-0.8-0.1-1.2-0.2
	s-0.7-0.3-0.9-0.5c-0.3-0.2-0.5-0.5-0.6-0.9c-0.1-0.3-0.2-0.7-0.2-1.2c0-0.4,0.1-0.8,0.2-1.2c0.2-0.4,0.4-0.6,0.7-0.9
	c0.3-0.2,0.6-0.4,1-0.5s0.8-0.2,1.2-0.2s0.8,0.1,1.1,0.2c0.3,0.1,0.6,0.3,0.8,0.5l-0.7,1c-0.4-0.3-0.8-0.4-1.2-0.4
	c-0.5,0-0.8,0.1-1.1,0.4c-0.3,0.3-0.4,0.6-0.4,1.1s0.1,0.8,0.4,1.1c0.3,0.3,0.6,0.4,1.1,0.4c0.3,0,0.5,0,0.8-0.1
	c0.2-0.1,0.4-0.2,0.6-0.4l0.6,1c-0.3,0.3-0.7,0.5-1.1,0.6C60.2,67.7,59.8,67.8,59.4,67.8z M62.9,67.6v-7.5h1.6V62l-0.1,1l0,0
	c0.2-0.2,0.4-0.4,0.7-0.5c0.3-0.2,0.6-0.2,1-0.2c0.6,0,1,0.2,1.3,0.6c0.3,0.4,0.4,0.9,0.4,1.6v3.3h-1.6v-3.1c0-0.4-0.1-0.6-0.2-0.8
	s-0.3-0.3-0.6-0.2c-0.2,0-0.4,0-0.6,0.1s-0.3,0.2-0.5,0.4v3.5h-1.4V67.6z M78.1,67.8c-0.5,0-0.9-0.1-1.4-0.2
	c-0.5-0.2-0.9-0.4-1.2-0.8l0.9-1.1c0.3,0.2,0.5,0.4,0.9,0.5c0.3,0.1,0.6,0.2,1,0.2c0.3,0,0.6-0.1,0.8-0.2c0.2-0.1,0.2-0.3,0.2-0.4
	s0-0.2-0.1-0.3c-0.1-0.1-0.1-0.2-0.2-0.2c-0.1-0.1-0.2-0.1-0.3-0.2c-0.1-0.1-0.3-0.1-0.5-0.2l-0.9-0.4c-0.2-0.1-0.4-0.2-0.6-0.3
	c-0.2-0.1-0.3-0.2-0.5-0.4c-0.1-0.2-0.2-0.3-0.3-0.5c-0.1-0.2-0.1-0.4-0.1-0.7s0.1-0.5,0.2-0.8s0.3-0.5,0.5-0.7s0.5-0.3,0.8-0.4
	c0.3-0.1,0.7-0.2,1-0.2c0.4,0,0.8,0.1,1.2,0.2c0.4,0.2,0.8,0.4,1.1,0.7l-0.8,1c-0.2-0.2-0.5-0.3-0.7-0.4c-0.2-0.1-0.5-0.1-0.9-0.1
	c-0.3,0-0.5,0.1-0.6,0.2c-0.2,0.1-0.2,0.3-0.2,0.5s0.1,0.4,0.3,0.5c0.2,0.1,0.5,0.2,0.8,0.3l0.8,0.4c0.5,0.2,0.8,0.4,1.1,0.7
	c0.3,0.3,0.4,0.7,0.4,1.2c0,0.3-0.1,0.6-0.2,0.8c-0.1,0.3-0.3,0.5-0.5,0.7s-0.5,0.4-0.8,0.5C78.9,67.7,78.6,67.8,78.1,67.8z
	 M84.9,67.8c-0.4,0-0.8-0.1-1.2-0.2c-0.4-0.1-0.7-0.3-0.9-0.5c-0.3-0.2-0.5-0.5-0.6-0.9C82.1,65.9,82,65.5,82,65
	c0-0.4,0.1-0.8,0.2-1.2c0.2-0.3,0.4-0.6,0.6-0.9c0.3-0.2,0.6-0.4,0.9-0.5s0.7-0.2,1-0.2c0.4,0,0.8,0.1,1.1,0.2
	c0.3,0.1,0.6,0.3,0.8,0.5c0.2,0.2,0.4,0.5,0.5,0.8c0.1,0.3,0.2,0.6,0.2,1c0,0.1,0,0.3,0,0.4s0,0.2,0,0.3h-3.6
	c0.1,0.4,0.2,0.7,0.5,0.8c0.3,0.2,0.6,0.3,1.1,0.3c0.2,0,0.5,0,0.7-0.1s0.4-0.2,0.7-0.3l0.5,1c-0.3,0.2-0.6,0.3-1,0.5
	C85.6,67.7,85.2,67.8,84.9,67.8z M84.7,63.4c-0.3,0-0.6,0.1-0.8,0.2c-0.2,0.2-0.4,0.4-0.4,0.7h2.3C85.7,63.8,85.3,63.4,84.7,63.4z
	 M91.9,67.8c-0.4,0-0.8-0.1-1.1-0.2c-0.3-0.1-0.5-0.3-0.7-0.5s-0.3-0.5-0.4-0.7c-0.1-0.3-0.1-0.6-0.1-0.9v-1.9h-1.3v-1.2l1.4-0.1
	l0.2-1.6h1.3v1.6h2.2v1.2h-2.2v1.9c0,0.4,0.1,0.7,0.3,0.9c0.2,0.2,0.5,0.2,0.9,0.2c0.2,0,0.4,0,0.5,0c0.2,0,0.3-0.1,0.5-0.2l0.3,1.1
	c-0.2,0.1-0.5,0.1-0.8,0.2C92.5,67.7,92.2,67.8,91.9,67.8z M98.3,67.8c-0.4,0-0.8-0.1-1.1-0.2c-0.3-0.1-0.5-0.3-0.7-0.5
	s-0.3-0.5-0.4-0.7C96,66.1,96,65.8,96,65.5v-1.9h-1.3v-1.2l1.4-0.1l0.2-1.6h1.3v1.6h2.2v1.2h-2.2v1.9c0,0.4,0.1,0.7,0.3,0.9
	c0.2,0.2,0.5,0.2,0.9,0.2c0.2,0,0.4,0,0.5,0c0.2,0,0.3-0.1,0.5-0.2l0.3,1.1c-0.2,0.1-0.5,0.1-0.8,0.2C98.9,67.7,98.6,67.8,98.3,67.8
	z M103.5,67.6v-4.1h-2.1v-1.2h3.7v5.3H103.5z M103.7,61.5c-0.3,0-0.6-0.1-0.8-0.2c-0.2-0.2-0.3-0.4-0.3-0.7s0.1-0.5,0.3-0.7
	c0.2-0.2,0.5-0.3,0.8-0.3s0.5,0.1,0.7,0.3s0.3,0.4,0.3,0.7s-0.1,0.5-0.3,0.7C104.3,61.5,104,61.5,103.7,61.5z M107.7,67.6v-5.3h1.3
	l0.1,0.7l0,0c0.2-0.2,0.5-0.4,0.8-0.6c0.3-0.2,0.7-0.3,1-0.2c0.6,0,1,0.2,1.3,0.6c0.3,0.4,0.4,0.9,0.4,1.6v3.3H111v-3.1
	c0-0.4-0.1-0.6-0.2-0.8s-0.3-0.3-0.6-0.2c-0.2,0-0.4,0-0.6,0.1s-0.3,0.2-0.5,0.4v3.5C109.1,67.6,107.7,67.6,107.7,67.6z M116.3,69.9
	c-0.3,0-0.7,0-1-0.1s-0.5-0.1-0.8-0.2c-0.2-0.1-0.4-0.2-0.5-0.4c-0.1-0.2-0.2-0.4-0.2-0.6c0-0.4,0.3-0.8,0.8-1l0,0
	c-0.1-0.1-0.3-0.2-0.4-0.3c-0.1-0.1-0.2-0.3-0.2-0.6c0-0.2,0.1-0.4,0.2-0.5c0.1-0.2,0.3-0.3,0.5-0.5l0,0c-0.2-0.1-0.3-0.3-0.5-0.5
	c-0.1-0.2-0.2-0.5-0.2-0.8s0.1-0.6,0.2-0.8s0.3-0.4,0.5-0.6c0.2-0.2,0.4-0.3,0.7-0.4c0.3-0.1,0.6-0.1,0.9-0.1s0.6,0,0.9,0.1h2.1v1.1
	h-1.1c0.1,0.1,0.1,0.2,0.2,0.3s0.1,0.3,0.1,0.4c0,0.3-0.1,0.6-0.2,0.8c-0.1,0.2-0.3,0.4-0.5,0.5s-0.4,0.3-0.7,0.3
	c-0.3,0.1-0.5,0.1-0.9,0.1c-0.2,0-0.5,0-0.7-0.1c-0.1,0.1-0.1,0.1-0.2,0.2c0,0.1,0,0.1,0,0.2s0.1,0.2,0.2,0.3
	c0.1,0.1,0.4,0.1,0.7,0.1h1c0.7,0,1.2,0.1,1.6,0.3c0.4,0.2,0.5,0.5,0.5,1c0,0.3-0.1,0.5-0.2,0.8c-0.1,0.2-0.4,0.4-0.6,0.6
	c-0.3,0.2-0.6,0.3-1,0.4C117.2,69.8,116.7,69.9,116.3,69.9z M116.3,65c0.2,0,0.4-0.1,0.6-0.2s0.2-0.4,0.2-0.7c0-0.3-0.1-0.5-0.2-0.6
	c-0.2-0.2-0.3-0.2-0.6-0.2c-0.2,0-0.4,0.1-0.6,0.2c-0.1,0.1-0.2,0.4-0.2,0.6c0,0.3,0.1,0.5,0.2,0.7C115.9,64.9,116.1,65,116.3,65z
	 M116.5,68.9c0.4,0,0.8-0.1,1-0.2c0.3-0.1,0.4-0.3,0.4-0.4c0-0.2-0.1-0.3-0.2-0.3c-0.2,0-0.4-0.1-0.7-0.1h-0.7c-0.2,0-0.3,0-0.5,0
	c-0.1,0-0.2,0-0.3-0.1c-0.1,0.1-0.2,0.2-0.3,0.2c-0.1,0.1-0.1,0.2-0.1,0.3c0,0.2,0.1,0.3,0.4,0.4C115.7,68.8,116.1,68.9,116.5,68.9z
	"/>
<path class="st1" d="M333.8,164.9h120.8l6.2,6.2v31.2l0,0H340l-6.2-6.2V164.9z"/>
<path class="st2" d="M353.3,180.9v-7h1.9c0.5,0,1,0.1,1.4,0.2c0.4,0.1,0.8,0.3,1.1,0.6c0.3,0.3,0.5,0.6,0.7,1.1
	c0.2,0.4,0.2,0.9,0.2,1.5s-0.1,1.1-0.2,1.5c-0.2,0.4-0.4,0.8-0.7,1.1c-0.3,0.3-0.6,0.5-1,0.7c-0.4,0.1-0.8,0.2-1.3,0.2L353.3,180.9
	L353.3,180.9z M354.9,179.6h0.2c0.3,0,0.5,0,0.7-0.1s0.4-0.2,0.6-0.4s0.3-0.4,0.4-0.7s0.1-0.6,0.1-1s0-0.8-0.1-1
	c-0.1-0.3-0.2-0.5-0.4-0.7c-0.2-0.2-0.3-0.3-0.6-0.4c-0.2-0.1-0.5-0.1-0.7-0.1h-0.2V179.6z M360.5,182.9c-0.2,0-0.3,0-0.4,0
	s-0.3,0-0.4-0.1l0.3-1.2c0.1,0,0.3,0.1,0.4,0.1c0.3,0,0.5-0.1,0.7-0.2c0.2-0.1,0.3-0.3,0.4-0.5l0.1-0.3l-2.3-5.1h1.6l0.9,2.3
	c0.1,0.2,0.2,0.5,0.3,0.8c0.1,0.3,0.2,0.5,0.2,0.8l0,0c0.1-0.3,0.2-0.5,0.2-0.8c0.1-0.3,0.2-0.5,0.2-0.8l0.8-2.3h1.5l-2.1,5.3
	c-0.1,0.3-0.3,0.6-0.4,0.9c-0.1,0.3-0.3,0.5-0.5,0.6c-0.2,0.2-0.4,0.3-0.7,0.4C361.1,182.9,360.8,182.9,360.5,182.9z M366.1,180.9
	v-5.3h1.3l0.1,0.7l0,0c0.2-0.2,0.5-0.4,0.8-0.6c0.3-0.2,0.7-0.2,1-0.2c0.6,0,1,0.2,1.3,0.6c0.3,0.4,0.4,0.9,0.4,1.6v3.3h-1.6v-3.1
	c0-0.4-0.1-0.6-0.2-0.8s-0.3-0.2-0.6-0.2c-0.2,0-0.4,0-0.6,0.1s-0.3,0.2-0.5,0.4v3.5H366.1z M374.1,181c-0.3,0-0.5,0-0.7-0.1
	s-0.4-0.2-0.5-0.3s-0.3-0.3-0.3-0.5c-0.1-0.2-0.1-0.4-0.1-0.6c0-0.3,0.1-0.6,0.2-0.8s0.3-0.4,0.6-0.6s0.6-0.3,1.1-0.4
	c0.4-0.1,1-0.2,1.6-0.2c0-0.2-0.1-0.4-0.3-0.6c-0.2-0.1-0.4-0.2-0.8-0.2c-0.2,0-0.5,0-0.8,0.1s-0.5,0.2-0.8,0.4l-0.5-1
	c0.4-0.2,0.8-0.4,1.2-0.5c0.4-0.1,0.9-0.2,1.3-0.2c0.7,0,1.3,0.2,1.8,0.6c0.4,0.4,0.6,1,0.6,1.8v3h-1.3l-0.1-0.6l0,0
	c-0.3,0.2-0.6,0.4-0.9,0.5C374.8,180.9,374.5,181,374.1,181z M374.6,179.8c0.2,0,0.4,0,0.7-0.1s0.4-0.2,0.6-0.4v-0.9
	c-0.4,0-0.7,0.1-1,0.1c-0.2,0-0.5,0.1-0.6,0.2c-0.1,0.1-0.2,0.2-0.3,0.3c-0.1,0.1-0.1,0.2-0.1,0.3c0,0.2,0.1,0.3,0.2,0.4
	C374.2,179.7,374.4,179.8,374.6,179.8z M378.5,180.9v-5.3h1.2l0.1,0.6l0,0c0.1-0.2,0.2-0.4,0.4-0.5c0.2-0.2,0.4-0.2,0.7-0.2
	c0.2,0,0.4,0.1,0.6,0.2c0.2,0.1,0.3,0.4,0.3,0.6c0.1-0.2,0.2-0.4,0.4-0.6c0.2-0.2,0.4-0.2,0.8-0.2s0.7,0.2,0.9,0.5
	c0.2,0.3,0.3,0.7,0.3,1.2v3.7h-1.5v-3.6c0-0.2,0-0.3-0.1-0.3c0-0.1-0.1-0.1-0.2-0.1s-0.2,0-0.3,0.1c-0.1,0.1-0.1,0.2-0.2,0.4v3.6
	h-1.2v-3.6c0-0.3-0.1-0.5-0.3-0.5c-0.1,0-0.2,0-0.2,0.1c-0.1,0.1-0.1,0.2-0.2,0.4v3.6L378.5,180.9L378.5,180.9z M387.5,180.9v-4.1
	h-2.1v-1.2h3.7v5.3H387.5z M387.7,174.8c-0.3,0-0.6-0.1-0.8-0.2c-0.2-0.2-0.3-0.4-0.3-0.7s0.1-0.5,0.3-0.7c0.2-0.2,0.5-0.3,0.8-0.3
	s0.5,0.1,0.7,0.3s0.3,0.4,0.3,0.7s-0.1,0.5-0.3,0.7C388.3,174.7,388,174.8,387.7,174.8z M394.6,181c-0.4,0-0.8-0.1-1.2-0.2
	c-0.4-0.1-0.7-0.3-0.9-0.5c-0.3-0.2-0.5-0.5-0.6-0.9c-0.1-0.3-0.2-0.7-0.2-1.2s0.1-0.8,0.2-1.2c0.2-0.4,0.4-0.6,0.7-0.9
	c0.3-0.2,0.6-0.4,1-0.5s0.8-0.2,1.2-0.2c0.4,0,0.8,0.1,1.1,0.2c0.3,0.1,0.6,0.3,0.8,0.5l-0.7,1c-0.4-0.3-0.8-0.4-1.2-0.4
	c-0.5,0-0.8,0.1-1.1,0.4c-0.3,0.3-0.4,0.6-0.4,1.1s0.1,0.8,0.4,1.1s0.6,0.4,1.1,0.4c0.3,0,0.5,0,0.8-0.1c0.2-0.1,0.4-0.2,0.6-0.4
	l0.6,1c-0.3,0.3-0.7,0.5-1.1,0.6C395.3,180.9,395,181,394.6,181z M407.5,181c-0.4,0-0.8-0.1-1.2-0.2c-0.4-0.2-0.7-0.4-1-0.7
	s-0.5-0.7-0.7-1.1c-0.2-0.4-0.2-1-0.2-1.5c0-0.6,0.1-1.1,0.2-1.5c0.2-0.4,0.4-0.8,0.7-1.1c0.3-0.3,0.7-0.6,1.1-0.7
	c0.4-0.2,0.8-0.2,1.3-0.2c0.4,0,0.8,0.1,1.2,0.3c0.4,0.2,0.7,0.4,0.9,0.6l-0.9,1c-0.2-0.2-0.3-0.3-0.5-0.4c-0.2-0.1-0.4-0.1-0.7-0.1
	c-0.2,0-0.5,0.1-0.7,0.2c-0.2,0.1-0.4,0.2-0.5,0.4c-0.2,0.2-0.3,0.4-0.4,0.7s-0.1,0.6-0.1,0.9c0,0.7,0.2,1.3,0.5,1.7
	s0.8,0.6,1.3,0.6c0.3,0,0.5-0.1,0.7-0.2c0.2-0.1,0.4-0.3,0.6-0.5l0.9,1C409.2,180.6,408.5,181,407.5,181z M410.9,180.9v-7.5h1.6v1.8
	l-0.1,1l0,0c0.2-0.2,0.4-0.4,0.7-0.5c0.3-0.2,0.6-0.2,1-0.2c0.6,0,1,0.2,1.3,0.6c0.3,0.4,0.4,0.9,0.4,1.6v3.3h-1.6v-3.1
	c0-0.4-0.1-0.6-0.2-0.8s-0.3-0.2-0.6-0.2c-0.2,0-0.4,0-0.6,0.1s-0.3,0.2-0.5,0.4v3.5L410.9,180.9L410.9,180.9z M418.9,181
	c-0.3,0-0.5,0-0.7-0.1s-0.4-0.2-0.5-0.3s-0.3-0.3-0.3-0.5c-0.1-0.2-0.1-0.4-0.1-0.6c0-0.3,0.1-0.6,0.2-0.8s0.3-0.4,0.6-0.6
	s0.6-0.3,1.1-0.4c0.4-0.1,1-0.2,1.6-0.2c0-0.2-0.1-0.4-0.3-0.6c-0.2-0.1-0.4-0.2-0.8-0.2c-0.2,0-0.5,0-0.8,0.1s-0.5,0.2-0.8,0.4
	l-0.5-1c0.4-0.2,0.8-0.4,1.2-0.5c0.4-0.1,0.9-0.2,1.3-0.2c0.7,0,1.3,0.2,1.8,0.6c0.4,0.4,0.6,1,0.6,1.8v3h-1.3l-0.1-0.6l0,0
	c-0.3,0.2-0.6,0.4-0.9,0.5C419.6,180.9,419.2,181,418.9,181z M419.4,179.8c0.2,0,0.4,0,0.7-0.1c0.2-0.1,0.4-0.2,0.6-0.4v-0.9
	c-0.4,0-0.7,0.1-1,0.1c-0.2,0-0.5,0.1-0.6,0.2c-0.1,0.1-0.2,0.2-0.3,0.3c-0.1,0.1-0.1,0.2-0.1,0.3c0,0.2,0.1,0.3,0.2,0.4
	C419,179.7,419.2,179.8,419.4,179.8z M423.7,180.9v-5.3h1.3l0.1,0.7l0,0c0.2-0.2,0.5-0.4,0.8-0.6c0.3-0.2,0.7-0.2,1-0.2
	c0.6,0,1,0.2,1.3,0.6c0.3,0.4,0.4,0.9,0.4,1.6v3.3H427v-3.1c0-0.4-0.1-0.6-0.2-0.8s-0.3-0.2-0.6-0.2c-0.2,0-0.4,0-0.6,0.1
	s-0.3,0.2-0.5,0.4v3.5H423.7z M432.3,183.1c-0.3,0-0.7,0-1-0.1s-0.5-0.1-0.8-0.2c-0.2-0.1-0.4-0.2-0.5-0.4s-0.2-0.4-0.2-0.6
	c0-0.4,0.3-0.8,0.8-1l0,0c-0.1-0.1-0.3-0.2-0.4-0.3s-0.2-0.3-0.2-0.6c0-0.2,0.1-0.4,0.2-0.5c0.1-0.2,0.3-0.3,0.5-0.5l0,0
	c-0.2-0.1-0.3-0.3-0.5-0.5c-0.1-0.2-0.2-0.5-0.2-0.8s0.1-0.6,0.2-0.8s0.3-0.4,0.5-0.6c0.2-0.2,0.4-0.3,0.7-0.4
	c0.3-0.1,0.6-0.1,0.9-0.1s0.6,0,0.9,0.1h2.1v1.1h-1.1c0.1,0.1,0.1,0.2,0.2,0.3s0.1,0.3,0.1,0.4c0,0.3-0.1,0.6-0.2,0.8
	s-0.3,0.4-0.5,0.5s-0.4,0.3-0.7,0.3c-0.3,0.1-0.5,0.1-0.9,0.1c-0.2,0-0.5,0-0.7-0.1c-0.1,0.1-0.1,0.1-0.2,0.2c0,0.1,0,0.1,0,0.2
	c0,0.1,0.1,0.2,0.2,0.3s0.4,0.1,0.7,0.1h1c0.7,0,1.2,0.1,1.6,0.3s0.5,0.5,0.5,1c0,0.3-0.1,0.5-0.2,0.8c-0.1,0.2-0.4,0.4-0.6,0.6
	c-0.3,0.2-0.6,0.3-1,0.4C433.2,183.1,432.7,183.1,432.3,183.1z M432.3,178.2c0.2,0,0.4-0.1,0.6-0.2c0.2-0.1,0.2-0.4,0.2-0.7
	s-0.1-0.5-0.2-0.6c-0.2-0.2-0.3-0.2-0.6-0.2c-0.2,0-0.4,0.1-0.6,0.2c-0.1,0.1-0.2,0.4-0.2,0.6c0,0.3,0.1,0.5,0.2,0.7
	C431.9,178.2,432.1,178.2,432.3,178.2z M432.5,182.1c0.4,0,0.8-0.1,1-0.2c0.3-0.1,0.4-0.3,0.4-0.4c0-0.2-0.1-0.3-0.2-0.3
	c-0.2,0-0.4-0.1-0.7-0.1h-0.7c-0.2,0-0.3,0-0.5,0c-0.1,0-0.2,0-0.3-0.1c-0.1,0.1-0.2,0.2-0.3,0.2c-0.1,0.1-0.1,0.2-0.1,0.3
	c0,0.2,0.1,0.3,0.4,0.4C431.7,182.1,432.1,182.1,432.5,182.1z M439.2,181c-0.4,0-0.8-0.1-1.2-0.2c-0.4-0.1-0.7-0.3-0.9-0.5
	c-0.3-0.2-0.5-0.5-0.6-0.9c-0.1-0.3-0.2-0.7-0.2-1.2s0.1-0.8,0.2-1.2c0.2-0.3,0.4-0.6,0.6-0.9c0.3-0.2,0.6-0.4,0.9-0.5
	s0.7-0.2,1-0.2c0.4,0,0.8,0.1,1.1,0.2s0.6,0.3,0.8,0.5c0.2,0.2,0.4,0.5,0.5,0.8s0.2,0.6,0.2,1c0,0.1,0,0.3,0,0.4c0,0.1,0,0.2,0,0.3
	H438c0.1,0.4,0.2,0.7,0.5,0.8c0.3,0.2,0.6,0.3,1.1,0.3c0.2,0,0.5,0,0.7-0.1s0.4-0.2,0.7-0.3l0.5,1c-0.3,0.2-0.6,0.3-1,0.5
	C439.9,180.9,439.6,181,439.2,181z M439.1,176.6c-0.3,0-0.6,0.1-0.8,0.2c-0.2,0.2-0.4,0.4-0.4,0.7h2.3
	C440,177,439.7,176.6,439.1,176.6z"/>
<path class="st2" d="M372.6,193.9v-7.5h1.6v4.3l0,0l1.9-2.1h1.7l-2,2.1l2.2,3.1h-1.7l-1.4-2.2l-0.8,0.8v1.3h-1.5V193.9z M381.7,194
	c-0.4,0-0.8-0.1-1.2-0.2c-0.4-0.1-0.7-0.3-0.9-0.5c-0.3-0.2-0.5-0.5-0.6-0.9s-0.2-0.7-0.2-1.2s0.1-0.8,0.2-1.2
	c0.2-0.3,0.4-0.6,0.6-0.9c0.3-0.2,0.6-0.4,0.9-0.5s0.7-0.2,1-0.2c0.4,0,0.8,0.1,1.1,0.2s0.6,0.3,0.8,0.5c0.2,0.2,0.4,0.5,0.5,0.8
	s0.2,0.6,0.2,1c0,0.1,0,0.3,0,0.4c0,0.1,0,0.2,0,0.3h-3.6c0.1,0.4,0.2,0.7,0.5,0.8c0.3,0.2,0.6,0.3,1.1,0.3c0.2,0,0.5,0,0.7-0.1
	s0.4-0.2,0.7-0.3l0.5,1c-0.3,0.2-0.6,0.3-1,0.5C382.4,193.9,382,194,381.7,194z M381.5,189.6c-0.3,0-0.6,0.1-0.8,0.2
	c-0.2,0.2-0.4,0.4-0.4,0.7h2.3C382.5,190,382.2,189.6,381.5,189.6z M386.1,195.9c-0.2,0-0.3,0-0.4,0s-0.3,0-0.4-0.1l0.3-1.2
	c0.1,0,0.3,0.1,0.4,0.1c0.3,0,0.5-0.1,0.7-0.2c0.2-0.1,0.3-0.3,0.4-0.5l0.1-0.3l-2.3-5.1h1.6l0.9,2.3c0.1,0.2,0.2,0.5,0.3,0.8
	c0.1,0.3,0.2,0.5,0.2,0.8l0,0c0.1-0.3,0.2-0.5,0.2-0.8c0.1-0.3,0.2-0.5,0.2-0.8l0.8-2.3h1.5l-2.1,5.3c-0.1,0.3-0.3,0.6-0.4,0.9
	c-0.1,0.3-0.3,0.5-0.5,0.6c-0.2,0.2-0.4,0.3-0.7,0.4C386.7,195.9,386.4,195.9,386.1,195.9z M391.8,193.9l-0.9-5.3h1.5l0.3,2.5
	c0,0.3,0.1,0.5,0.1,0.8c0,0.2,0.1,0.5,0.1,0.8l0,0c0-0.3,0.1-0.5,0.1-0.8s0.1-0.5,0.1-0.8l0.3-1.8h1.1l0.3,1.8
	c0.1,0.3,0.1,0.5,0.2,0.8c0,0.2,0.1,0.5,0.1,0.8l0,0c0-0.3,0.1-0.5,0.1-0.8s0-0.5,0.1-0.8l0.3-2.5h1.4l-0.8,5.3h-1.8l-0.3-1.7
	c0-0.2-0.1-0.5-0.1-0.7c0-0.3-0.1-0.5-0.1-0.8l0,0c0,0.2,0,0.5-0.1,0.7c0,0.2-0.1,0.5-0.1,0.9l-0.3,1.7L391.8,193.9L391.8,193.9z
	 M400.5,194c-0.4,0-0.7-0.1-1-0.2c-0.3-0.1-0.6-0.3-0.9-0.5c-0.2-0.2-0.5-0.5-0.6-0.9c-0.1-0.3-0.2-0.7-0.2-1.2
	c0-0.4,0.1-0.8,0.2-1.2c0.2-0.4,0.4-0.6,0.6-0.9c0.3-0.2,0.5-0.4,0.9-0.5c0.3-0.1,0.7-0.2,1-0.2s0.7,0.1,1,0.2
	c0.3,0.1,0.6,0.3,0.9,0.5s0.5,0.5,0.6,0.9c0.1,0.3,0.2,0.7,0.2,1.2c0,0.4-0.1,0.8-0.2,1.2c-0.1,0.3-0.3,0.6-0.6,0.9
	c-0.2,0.2-0.5,0.4-0.9,0.5C401.2,193.9,400.9,194,400.5,194z M400.5,192.7c0.4,0,0.6-0.1,0.8-0.4c0.2-0.3,0.3-0.6,0.3-1.1
	s-0.1-0.8-0.3-1.1c-0.2-0.3-0.4-0.4-0.8-0.4s-0.6,0.1-0.8,0.4c-0.2,0.3-0.3,0.6-0.3,1.1s0.1,0.8,0.3,1.1S400.2,192.7,400.5,192.7z
	 M405,193.9v-5.3h1.3l0.1,1.1l0,0c0.3-0.4,0.6-0.7,0.9-1c0.4-0.2,0.8-0.3,1.2-0.3c0.2,0,0.4,0,0.6,0c0.1,0,0.3,0.1,0.5,0.2l-0.3,1.3
	c-0.2-0.1-0.3-0.1-0.4-0.1s-0.3,0-0.5,0c-0.3,0-0.6,0.1-1,0.3c-0.3,0.2-0.6,0.5-0.8,1v2.8H405z M412.9,194c-0.3,0-0.6-0.1-0.9-0.2
	c-0.3-0.1-0.5-0.3-0.7-0.5s-0.3-0.5-0.5-0.9c-0.1-0.3-0.2-0.7-0.2-1.2c0-0.4,0.1-0.8,0.2-1.2c0.1-0.3,0.3-0.6,0.5-0.9
	c0.2-0.2,0.4-0.4,0.7-0.5c0.3-0.1,0.6-0.2,0.8-0.2c0.3,0,0.5,0,0.8,0.1c0.2,0.1,0.4,0.2,0.6,0.4l0,0l-0.1-0.8v-1.8h1.6v7.5h-1.3
	l-0.1-0.5l0,0c-0.2,0.2-0.4,0.4-0.7,0.5C413.4,193.9,413.1,194,412.9,194z M413.3,192.7c0.2,0,0.3,0,0.5-0.1
	c0.1-0.1,0.3-0.2,0.4-0.4v-2.1c-0.1-0.1-0.3-0.2-0.4-0.3s-0.3-0.1-0.5-0.1c-0.3,0-0.5,0.1-0.8,0.4c-0.2,0.2-0.3,0.6-0.3,1.1
	s0.1,0.9,0.3,1.2C412.7,192.6,412.9,192.7,413.3,192.7z M419.7,194c-0.5,0-0.9-0.1-1.4-0.2c-0.4-0.2-0.8-0.3-1.2-0.6l0.7-1
	c0.3,0.2,0.7,0.4,1,0.5c0.4,0.1,0.7,0.2,1.1,0.2c0.3,0,0.5,0,0.6-0.1s0.2-0.2,0.2-0.3s0-0.1-0.1-0.2c0-0.1-0.1-0.1-0.2-0.2
	c-0.1,0-0.2-0.1-0.4-0.1c-0.2-0.1-0.4-0.1-0.6-0.2c-0.7-0.2-1.2-0.4-1.5-0.6c-0.3-0.3-0.5-0.6-0.5-1c0-0.2,0.1-0.5,0.2-0.7
	s0.3-0.4,0.5-0.5s0.5-0.3,0.8-0.3c0.3-0.1,0.6-0.1,1-0.1c0.5,0,0.9,0.1,1.3,0.2c0.4,0.1,0.7,0.3,1,0.5l-0.7,0.9
	c-0.3-0.2-0.6-0.3-0.8-0.4c-0.3-0.1-0.6-0.1-0.9-0.1c-0.2,0-0.4,0-0.6,0.1c-0.1,0.1-0.2,0.2-0.2,0.3c0,0.2,0.1,0.3,0.3,0.3
	c0.2,0.1,0.5,0.1,1,0.2c0.4,0.1,0.7,0.2,1,0.3s0.5,0.2,0.6,0.4c0.2,0.1,0.3,0.3,0.3,0.5c0.1,0.2,0.1,0.4,0.1,0.6
	c0,0.2-0.1,0.5-0.2,0.7s-0.3,0.4-0.5,0.5s-0.5,0.3-0.8,0.4C420.5,193.9,420.1,194,419.7,194z"/>
<path class="st3" d="M333.8,105.8h120.8l6.2,6.2v31.2l0,0H340l-6.2-6.2V105.8z"/>
<path class="st1" d="M333.8,105.8h120.8l6.2,6.2v31.2l0,0H340l-6.2-6.2V105.8z"/>
<path class="st2" d="M366.1,128.2v-7h1.9c0.5,0,1,0.1,1.4,0.2s0.8,0.3,1.1,0.6c0.3,0.3,0.5,0.6,0.7,1.1c0.2,0.4,0.2,0.9,0.2,1.5
	s-0.1,1.1-0.2,1.5s-0.4,0.8-0.7,1.1c-0.3,0.3-0.6,0.5-1,0.7c-0.4,0.1-0.8,0.2-1.3,0.2h-2.1V128.2z M367.7,127h0.2
	c0.3,0,0.5,0,0.7-0.1s0.4-0.2,0.6-0.4c0.2-0.2,0.3-0.4,0.4-0.7c0.1-0.3,0.1-0.6,0.1-1s0-0.8-0.1-1c-0.1-0.3-0.2-0.5-0.4-0.7
	c-0.2-0.2-0.3-0.3-0.6-0.4c-0.2-0.1-0.5-0.1-0.7-0.1h-0.2V127z M375.3,128.3c-0.4,0-0.8-0.1-1.2-0.2c-0.4-0.1-0.7-0.3-0.9-0.5
	c-0.3-0.2-0.5-0.5-0.6-0.9s-0.2-0.7-0.2-1.2s0.1-0.8,0.2-1.2c0.2-0.3,0.4-0.6,0.6-0.9c0.3-0.2,0.6-0.4,0.9-0.5s0.7-0.2,1-0.2
	c0.4,0,0.8,0.1,1.1,0.2s0.6,0.3,0.8,0.5c0.2,0.2,0.4,0.5,0.5,0.8s0.2,0.6,0.2,1c0,0.1,0,0.3,0,0.4s0,0.2,0,0.3h-3.6
	c0.1,0.4,0.2,0.7,0.5,0.8c0.3,0.2,0.6,0.3,1.1,0.3c0.2,0,0.5,0,0.7-0.1s0.4-0.2,0.7-0.3l0.5,1c-0.3,0.2-0.6,0.3-1,0.5
	C376,128.3,375.6,128.3,375.3,128.3z M375.1,124c-0.3,0-0.6,0.1-0.8,0.2c-0.2,0.2-0.4,0.4-0.4,0.7h2.3
	C376.1,124.3,375.8,124,375.1,124z M381.8,128.3c-0.2,0-0.5-0.1-0.8-0.2c-0.2-0.1-0.5-0.3-0.7-0.5l0,0l-0.1,0.6H379v-7.5h1.6v1.8
	v0.8l0,0c0.2-0.2,0.4-0.3,0.7-0.4c0.3-0.1,0.5-0.2,0.8-0.2s0.6,0.1,0.9,0.2s0.5,0.3,0.7,0.5s0.3,0.5,0.4,0.8s0.2,0.7,0.2,1.1
	s-0.1,0.9-0.2,1.2c-0.1,0.4-0.3,0.7-0.5,0.9c-0.2,0.2-0.5,0.4-0.7,0.5C382.3,128.3,382,128.3,381.8,128.3z M381.4,127.1
	c0.3,0,0.5-0.1,0.7-0.4c0.2-0.2,0.3-0.6,0.3-1.2c0-1-0.3-1.4-1-1.4c-0.3,0-0.7,0.2-1,0.5v2.1c0.2,0.1,0.3,0.2,0.5,0.3
	C381.1,127,381.3,127.1,381.4,127.1z M387.7,128.3c-0.4,0-0.7-0.1-1-0.2c-0.3-0.1-0.6-0.3-0.9-0.5c-0.2-0.2-0.5-0.5-0.6-0.9
	c-0.1-0.3-0.2-0.7-0.2-1.2s0.1-0.8,0.2-1.2c0.2-0.4,0.4-0.6,0.6-0.9c0.2-0.2,0.5-0.4,0.9-0.5c0.3-0.1,0.7-0.2,1-0.2s0.7,0.1,1,0.2
	s0.6,0.3,0.9,0.5s0.5,0.5,0.6,0.9c0.1,0.3,0.2,0.7,0.2,1.2s-0.1,0.8-0.2,1.2c-0.1,0.3-0.3,0.6-0.6,0.9c-0.2,0.2-0.5,0.4-0.9,0.5
	C388.4,128.3,388.1,128.3,387.7,128.3z M387.7,127.1c0.4,0,0.6-0.1,0.8-0.4c0.2-0.3,0.3-0.6,0.3-1.1s-0.1-0.8-0.3-1.1
	c-0.2-0.3-0.4-0.4-0.8-0.4s-0.6,0.1-0.8,0.4c-0.2,0.3-0.3,0.6-0.3,1.1s0.1,0.8,0.3,1.1C387.1,126.9,387.4,127.1,387.7,127.1z
	 M393.3,128.3c-0.6,0-1-0.2-1.3-0.6s-0.4-0.9-0.4-1.6v-3.2h1.6v3c0,0.4,0.1,0.6,0.2,0.8c0.1,0.2,0.3,0.2,0.6,0.2
	c0.2,0,0.4,0,0.5-0.1c0.2-0.1,0.3-0.2,0.5-0.5v-3.5h1.6v5.3h-1.3l-0.1-0.8l0,0c-0.2,0.3-0.5,0.5-0.8,0.6
	C394,128.3,393.7,128.3,393.3,128.3z M398.1,128.2v-5.3h1.3l0.1,0.7l0,0c0.2-0.2,0.5-0.4,0.8-0.6s0.7-0.2,1-0.2c0.6,0,1,0.2,1.3,0.6
	s0.4,0.9,0.4,1.6v3.3h-1.6v-3.1c0-0.4-0.1-0.6-0.2-0.8c-0.1-0.2-0.3-0.2-0.6-0.2c-0.2,0-0.4,0-0.6,0.1s-0.3,0.2-0.5,0.4v3.5
	L398.1,128.2L398.1,128.2z M407.4,128.3c-0.4,0-0.8-0.1-1.2-0.2c-0.4-0.1-0.7-0.3-0.9-0.5c-0.3-0.2-0.5-0.5-0.6-0.9
	c-0.1-0.3-0.2-0.7-0.2-1.2c0-0.4,0.1-0.8,0.2-1.2c0.2-0.4,0.4-0.6,0.7-0.9c0.3-0.2,0.6-0.4,1-0.5s0.8-0.2,1.2-0.2
	c0.4,0,0.8,0.1,1.1,0.2c0.3,0.1,0.6,0.3,0.8,0.5l-0.7,1c-0.4-0.3-0.8-0.4-1.2-0.4c-0.5,0-0.8,0.1-1.1,0.4c-0.3,0.3-0.4,0.6-0.4,1.1
	s0.1,0.8,0.4,1.1c0.3,0.3,0.6,0.4,1.1,0.4c0.3,0,0.5,0,0.8-0.1c0.2-0.1,0.4-0.2,0.6-0.4l0.6,1c-0.3,0.3-0.7,0.5-1.1,0.6
	C408.1,128.3,407.7,128.3,407.4,128.3z M413.1,128.2v-4.1H411v-1.2h3.7v5.3H413.1z M413.3,122.1c-0.3,0-0.6-0.1-0.8-0.2
	c-0.2-0.2-0.3-0.4-0.3-0.7c0-0.3,0.1-0.5,0.3-0.7c0.2-0.2,0.5-0.3,0.8-0.3s0.5,0.1,0.7,0.3c0.2,0.2,0.3,0.4,0.3,0.7
	c0,0.3-0.1,0.5-0.3,0.7C413.9,122,413.6,122.1,413.3,122.1z M417.3,128.2v-5.3h1.3l0.1,0.7l0,0c0.2-0.2,0.5-0.4,0.8-0.6
	s0.7-0.2,1-0.2c0.6,0,1,0.2,1.3,0.6s0.4,0.9,0.4,1.6v3.3h-1.6v-3.1c0-0.4-0.1-0.6-0.2-0.8c-0.1-0.2-0.3-0.2-0.6-0.2
	c-0.2,0-0.4,0-0.6,0.1s-0.3,0.2-0.5,0.4v3.5L417.3,128.2L417.3,128.2z M425.9,130.5c-0.3,0-0.7,0-1-0.1s-0.5-0.1-0.8-0.2
	c-0.2-0.1-0.4-0.2-0.5-0.4s-0.2-0.4-0.2-0.6c0-0.4,0.3-0.8,0.8-1l0,0c-0.1-0.1-0.3-0.2-0.4-0.3c-0.1-0.1-0.2-0.3-0.2-0.6
	c0-0.2,0.1-0.4,0.2-0.5c0.1-0.2,0.3-0.3,0.5-0.5l0,0c-0.2-0.1-0.3-0.3-0.5-0.5c-0.1-0.2-0.2-0.5-0.2-0.8s0.1-0.6,0.2-0.8
	c0.1-0.2,0.3-0.4,0.5-0.6s0.4-0.3,0.7-0.4c0.3-0.1,0.6-0.1,0.9-0.1s0.6,0,0.9,0.1h2.1v1.1h-1.1c0.1,0.1,0.1,0.2,0.2,0.3
	c0.1,0.1,0.1,0.3,0.1,0.4c0,0.3-0.1,0.6-0.2,0.8s-0.3,0.4-0.5,0.5s-0.4,0.3-0.7,0.3c-0.3,0.1-0.5,0.1-0.9,0.1c-0.2,0-0.5,0-0.7-0.1
	c-0.1,0.1-0.1,0.1-0.2,0.2c0,0.1,0,0.1,0,0.2s0.1,0.2,0.2,0.3c0.1,0.1,0.4,0.1,0.7,0.1h1c0.7,0,1.2,0.1,1.6,0.3
	c0.4,0.2,0.5,0.5,0.5,1c0,0.3-0.1,0.5-0.2,0.8c-0.1,0.2-0.4,0.4-0.6,0.6c-0.3,0.2-0.6,0.3-1,0.4
	C426.8,130.4,426.3,130.5,425.9,130.5z M425.9,125.6c0.2,0,0.4-0.1,0.6-0.2s0.2-0.4,0.2-0.7c0-0.3-0.1-0.5-0.2-0.6
	c-0.2-0.2-0.3-0.2-0.6-0.2c-0.2,0-0.4,0.1-0.6,0.2c-0.1,0.1-0.2,0.4-0.2,0.6c0,0.3,0.1,0.5,0.2,0.7
	C425.5,125.5,425.7,125.6,425.9,125.6z M426.1,129.5c0.4,0,0.8-0.1,1-0.2c0.3-0.1,0.4-0.3,0.4-0.4c0-0.2-0.1-0.3-0.2-0.3
	c-0.2,0-0.4-0.1-0.7-0.1h-0.7c-0.2,0-0.3,0-0.5,0c-0.1,0-0.2,0-0.3-0.1c-0.1,0.1-0.2,0.2-0.3,0.2c-0.1,0.1-0.1,0.2-0.1,0.3
	c0,0.2,0.1,0.3,0.4,0.4C425.3,129.4,425.7,129.5,426.1,129.5z"/>
<path class="st0" d="M237.9,268.8h120.8l6.2,6.2v31.2l0,0H244.2L238,300v-31.2H237.9z"/>
<path class="st1" d="M237.9,268.8h120.8l6.2,6.2v31.2l0,0H244.2L238,300v-31.2H237.9z"/>
<path class="st2" d="M257.3,291.4c-0.4,0-0.8-0.1-1.2-0.2c-0.4-0.2-0.7-0.4-1-0.7c-0.3-0.3-0.5-0.7-0.7-1.1s-0.2-1-0.2-1.5
	c0-0.6,0.1-1.1,0.2-1.5c0.2-0.4,0.4-0.8,0.7-1.1c0.3-0.3,0.7-0.6,1.1-0.7c0.4-0.2,0.8-0.2,1.3-0.2c0.4,0,0.8,0.1,1.2,0.3
	c0.4,0.2,0.7,0.4,0.9,0.6l-0.9,1c-0.2-0.2-0.3-0.3-0.5-0.4s-0.4-0.1-0.7-0.1s-0.5,0.1-0.7,0.2s-0.4,0.2-0.5,0.4s-0.3,0.4-0.4,0.7
	c-0.1,0.3-0.1,0.6-0.1,0.9c0,0.7,0.2,1.3,0.5,1.7c0.3,0.4,0.8,0.6,1.3,0.6c0.2,0,0.5-0.1,0.7-0.2s0.4-0.3,0.6-0.5l0.9,1
	C259,291.1,258.3,291.4,257.3,291.4z M260.7,291.3v-7.5h1.6v1.8l-0.1,1l0,0c0.2-0.2,0.4-0.4,0.7-0.5c0.3-0.2,0.6-0.2,1-0.2
	c0.6,0,1,0.2,1.3,0.6s0.4,0.9,0.4,1.6v3.3H264v-3.1c0-0.4-0.1-0.6-0.2-0.8c-0.1-0.2-0.3-0.2-0.6-0.2c-0.2,0-0.4,0-0.6,0.1
	s-0.3,0.2-0.5,0.4v3.5L260.7,291.3L260.7,291.3z M269.8,291.4c-0.4,0-0.8-0.1-1.2-0.2c-0.4-0.1-0.7-0.3-0.9-0.5
	c-0.3-0.2-0.5-0.5-0.6-0.9s-0.2-0.7-0.2-1.2s0.1-0.8,0.2-1.2c0.2-0.3,0.4-0.6,0.6-0.9c0.3-0.2,0.6-0.4,0.9-0.5s0.7-0.2,1-0.2
	c0.4,0,0.8,0.1,1.1,0.2s0.6,0.3,0.8,0.5c0.2,0.2,0.4,0.5,0.5,0.8s0.2,0.6,0.2,1c0,0.1,0,0.3,0,0.4s0,0.2,0,0.3h-3.6
	c0.1,0.4,0.2,0.7,0.5,0.8c0.3,0.2,0.6,0.3,1.1,0.3c0.2,0,0.5,0,0.7-0.1s0.4-0.2,0.7-0.3l0.5,1c-0.3,0.2-0.6,0.3-1,0.5
	C270.5,291.4,270.2,291.4,269.8,291.4z M269.7,287.1c-0.3,0-0.6,0.1-0.8,0.2c-0.2,0.2-0.4,0.4-0.4,0.7h2.3
	C270.7,287.4,270.3,287.1,269.7,287.1z M276.4,291.4c-0.4,0-0.8-0.1-1.2-0.2c-0.4-0.1-0.7-0.3-0.9-0.5c-0.3-0.2-0.5-0.5-0.6-0.9
	s-0.2-0.7-0.2-1.2s0.1-0.8,0.2-1.2c0.2-0.4,0.4-0.6,0.7-0.9c0.3-0.2,0.6-0.4,1-0.5s0.8-0.2,1.2-0.2c0.4,0,0.8,0.1,1.1,0.2
	c0.3,0.1,0.6,0.3,0.8,0.5l-0.7,1c-0.4-0.3-0.8-0.4-1.2-0.4c-0.5,0-0.8,0.1-1.1,0.4c-0.3,0.3-0.4,0.6-0.4,1.1s0.1,0.8,0.4,1.1
	c0.3,0.3,0.6,0.4,1.1,0.4c0.3,0,0.5,0,0.8-0.1c0.2-0.1,0.4-0.2,0.6-0.4l0.6,1c-0.3,0.3-0.7,0.5-1.1,0.6
	C277.1,291.4,276.7,291.4,276.4,291.4z M279.9,291.3v-7.5h1.6v4.3l0,0l1.9-2.1h1.7l-2,2.1l2.2,3.1h-1.7l-1.4-2.2l-0.8,0.8v1.3h-1.5
	V291.3z M296,291.4c-0.4,0-0.8-0.1-1.1-0.2c-0.3-0.1-0.5-0.3-0.7-0.5s-0.3-0.5-0.4-0.7c-0.1-0.3-0.1-0.6-0.1-0.9v-1.9h-1.3V286
	l1.4-0.1l0.2-1.6h1.3v1.6h2.2v1.2h-2.2v1.9c0,0.4,0.1,0.7,0.3,0.9c0.2,0.2,0.5,0.2,0.9,0.2c0.2,0,0.4,0,0.5,0c0.2,0,0.3-0.1,0.5-0.2
	l0.3,1.1c-0.2,0.1-0.5,0.1-0.8,0.2C296.7,291.4,296.4,291.4,296,291.4z M299,291.3v-7.5h1.6v1.8l-0.1,1l0,0c0.2-0.2,0.4-0.4,0.7-0.5
	c0.3-0.2,0.6-0.2,1-0.2c0.6,0,1,0.2,1.3,0.6s0.4,0.9,0.4,1.6v3.3h-1.6v-3.1c0-0.4-0.1-0.6-0.2-0.8c-0.1-0.2-0.3-0.2-0.6-0.2
	c-0.2,0-0.4,0-0.6,0.1s-0.3,0.2-0.5,0.4v3.5L299,291.3L299,291.3z M308.2,291.4c-0.4,0-0.8-0.1-1.2-0.2c-0.4-0.1-0.7-0.3-0.9-0.5
	c-0.3-0.2-0.5-0.5-0.6-0.9c-0.1-0.3-0.2-0.7-0.2-1.2s0.1-0.8,0.2-1.2c0.2-0.3,0.4-0.6,0.6-0.9c0.3-0.2,0.6-0.4,0.9-0.5
	s0.7-0.2,1-0.2c0.4,0,0.8,0.1,1.1,0.2s0.6,0.3,0.8,0.5c0.2,0.2,0.4,0.5,0.5,0.8s0.2,0.6,0.2,1c0,0.1,0,0.3,0,0.4s0,0.2,0,0.3H307
	c0.1,0.4,0.2,0.7,0.5,0.8c0.3,0.2,0.6,0.3,1.1,0.3c0.2,0,0.5,0,0.7-0.1s0.4-0.2,0.7-0.3l0.5,1c-0.3,0.2-0.6,0.3-1,0.5
	C308.9,291.4,308.5,291.4,308.2,291.4z M308.1,287.1c-0.3,0-0.6,0.1-0.8,0.2c-0.2,0.2-0.4,0.4-0.4,0.7h2.3
	C309,287.4,308.7,287.1,308.1,287.1z M318.7,291.3V286h1.3l0.1,1.1l0,0c0.3-0.4,0.6-0.7,0.9-1c0.4-0.2,0.8-0.3,1.2-0.3
	c0.2,0,0.4,0,0.6,0c0.1,0,0.3,0.1,0.5,0.2l-0.3,1.3c-0.2-0.1-0.3-0.1-0.4-0.1s-0.3,0-0.5,0c-0.3,0-0.6,0.1-1,0.3
	c-0.3,0.2-0.6,0.5-0.8,1v2.8H318.7z M327.1,291.4c-0.4,0-0.7-0.1-1-0.2s-0.6-0.3-0.9-0.5s-0.5-0.5-0.6-0.9c-0.1-0.3-0.2-0.7-0.2-1.2
	c0-0.4,0.1-0.8,0.2-1.2c0.2-0.4,0.4-0.6,0.6-0.9c0.2-0.2,0.5-0.4,0.9-0.5c0.3-0.1,0.7-0.2,1-0.2s0.7,0.1,1,0.2s0.6,0.3,0.9,0.5
	s0.5,0.5,0.6,0.9c0.1,0.3,0.2,0.7,0.2,1.2c0,0.4-0.1,0.8-0.2,1.2c-0.1,0.3-0.3,0.6-0.6,0.9c-0.3,0.2-0.5,0.4-0.9,0.5
	C327.7,291.4,327.4,291.4,327.1,291.4z M327.1,290.2c0.4,0,0.6-0.1,0.8-0.4c0.2-0.3,0.3-0.6,0.3-1.1s-0.1-0.8-0.3-1.1
	c-0.2-0.3-0.4-0.4-0.8-0.4s-0.6,0.1-0.8,0.4c-0.2,0.3-0.3,0.6-0.3,1.1s0.1,0.8,0.3,1.1C326.4,290,326.7,290.2,327.1,290.2z
	 M332.6,291.4c-0.6,0-1-0.2-1.3-0.6s-0.4-0.9-0.4-1.6V286h1.6v3c0,0.4,0.1,0.6,0.2,0.8c0.1,0.2,0.3,0.2,0.6,0.2c0.2,0,0.4,0,0.5-0.1
	c0.2-0.1,0.3-0.2,0.5-0.5V286h1.6v5.3h-1.3l-0.1-0.8l0,0c-0.2,0.3-0.5,0.5-0.8,0.6C333.3,291.3,333,291.4,332.6,291.4z M340.8,291.4
	c-0.4,0-0.8-0.1-1.1-0.2c-0.3-0.1-0.5-0.3-0.7-0.5s-0.3-0.5-0.4-0.7c-0.1-0.3-0.1-0.6-0.1-0.9v-1.9h-1.3V286l1.4-0.1l0.2-1.6h1.3
	v1.6h2.2v1.2h-2.2v1.9c0,0.4,0.1,0.7,0.3,0.9c0.2,0.2,0.5,0.2,0.9,0.2c0.2,0,0.4,0,0.5,0c0.2,0,0.3-0.1,0.5-0.2l0.3,1.1
	c-0.2,0.1-0.5,0.1-0.8,0.2C341.5,291.4,341.1,291.4,340.8,291.4z M346.6,291.4c-0.4,0-0.8-0.1-1.2-0.2c-0.4-0.1-0.7-0.3-0.9-0.5
	c-0.3-0.2-0.5-0.5-0.6-0.9s-0.2-0.7-0.2-1.2s0.1-0.8,0.2-1.2c0.2-0.3,0.4-0.6,0.6-0.9c0.3-0.2,0.6-0.4,0.9-0.5s0.7-0.2,1-0.2
	c0.4,0,0.8,0.1,1.1,0.2s0.6,0.3,0.8,0.5c0.2,0.2,0.4,0.5,0.5,0.8s0.2,0.6,0.2,1c0,0.1,0,0.3,0,0.4s0,0.2,0,0.3h-3.6
	c0.1,0.4,0.2,0.7,0.5,0.8c0.3,0.2,0.6,0.3,1.1,0.3c0.2,0,0.5,0,0.7-0.1s0.4-0.2,0.7-0.3l0.5,1c-0.3,0.2-0.6,0.3-1,0.5
	C347.3,291.4,346.9,291.4,346.6,291.4z M346.4,287.1c-0.3,0-0.6,0.1-0.8,0.2c-0.2,0.2-0.4,0.4-0.4,0.7h2.3
	C347.4,287.4,347,287.1,346.4,287.1z"/>
<path class="st0" d="M96.5,268.8h120.8l6.2,6.2v31.2l0,0H102.8l-6.2-6.2v-31.2H96.5z"/>
<path class="st1" d="M96.5,268.8h120.8l6.2,6.2v31.2l0,0H102.8l-6.2-6.2v-31.2H96.5z"/>
<path class="st2" d="M112.7,284.9c-0.4,0-0.8-0.1-1.2-0.2c-0.4-0.2-0.7-0.4-1-0.7c-0.3-0.3-0.5-0.7-0.7-1.1s-0.2-1-0.2-1.5
	c0-0.6,0.1-1.1,0.2-1.5c0.2-0.4,0.4-0.8,0.7-1.1c0.3-0.3,0.7-0.6,1.1-0.7c0.4-0.2,0.8-0.2,1.3-0.2c0.4,0,0.8,0.1,1.2,0.3
	c0.4,0.2,0.7,0.4,0.9,0.6l-0.9,1c-0.2-0.2-0.3-0.3-0.5-0.4s-0.4-0.1-0.7-0.1s-0.5,0.1-0.7,0.2s-0.4,0.2-0.5,0.4s-0.3,0.4-0.4,0.7
	c-0.1,0.3-0.1,0.6-0.1,0.9c0,0.7,0.2,1.3,0.5,1.7c0.3,0.4,0.8,0.6,1.3,0.6c0.2,0,0.5-0.1,0.7-0.2s0.4-0.3,0.6-0.5l0.9,1
	C114.4,284.6,113.7,284.9,112.7,284.9z M116.1,284.8v-7.5h1.6v1.8l-0.1,1l0,0c0.2-0.2,0.4-0.4,0.7-0.5c0.3-0.2,0.6-0.2,1-0.2
	c0.6,0,1,0.2,1.3,0.6s0.4,0.9,0.4,1.6v3.3h-1.6v-3.1c0-0.4-0.1-0.6-0.2-0.8c-0.1-0.2-0.3-0.2-0.6-0.2c-0.2,0-0.4,0-0.6,0.1
	s-0.3,0.2-0.5,0.4v3.5L116.1,284.8L116.1,284.8z M125.2,284.9c-0.4,0-0.8-0.1-1.2-0.2c-0.4-0.1-0.7-0.3-0.9-0.5
	c-0.3-0.2-0.5-0.5-0.6-0.9c-0.1-0.3-0.2-0.7-0.2-1.2s0.1-0.8,0.2-1.2c0.2-0.3,0.4-0.6,0.6-0.9c0.3-0.2,0.6-0.4,0.9-0.5
	s0.7-0.2,1-0.2c0.4,0,0.8,0.1,1.1,0.2s0.6,0.3,0.8,0.5c0.2,0.2,0.4,0.5,0.5,0.8s0.2,0.6,0.2,1c0,0.1,0,0.3,0,0.4s0,0.2,0,0.3H124
	c0.1,0.4,0.2,0.7,0.5,0.8c0.3,0.2,0.6,0.3,1.1,0.3c0.2,0,0.5,0,0.7-0.1s0.4-0.2,0.7-0.3l0.5,1c-0.3,0.2-0.6,0.3-1,0.5
	C125.9,284.9,125.6,284.9,125.2,284.9z M125.1,280.6c-0.3,0-0.6,0.1-0.8,0.2c-0.2,0.2-0.4,0.4-0.4,0.7h2.3
	C126.1,280.9,125.7,280.6,125.1,280.6z M131.8,284.9c-0.4,0-0.8-0.1-1.2-0.2s-0.7-0.3-0.9-0.5c-0.3-0.2-0.5-0.5-0.6-0.9
	c-0.1-0.3-0.2-0.7-0.2-1.2c0-0.4,0.1-0.8,0.2-1.2c0.2-0.4,0.4-0.6,0.7-0.9c0.3-0.2,0.6-0.4,1-0.5s0.8-0.2,1.2-0.2s0.8,0.1,1.1,0.2
	s0.6,0.3,0.8,0.5l-0.7,1c-0.4-0.3-0.8-0.4-1.2-0.4c-0.5,0-0.8,0.1-1.1,0.4s-0.4,0.6-0.4,1.1s0.1,0.8,0.4,1.1
	c0.3,0.3,0.6,0.4,1.1,0.4c0.3,0,0.5,0,0.8-0.1c0.2-0.1,0.4-0.2,0.6-0.4l0.6,1c-0.3,0.3-0.7,0.5-1.1,0.6
	C132.5,284.9,132.1,284.9,131.8,284.9z M135.3,284.8v-7.5h1.6v4.3l0,0l1.9-2.1h1.7l-2,2.1l2.2,3.1H139l-1.4-2.2l-0.8,0.8v1.3h-1.5
	V284.8z M148.5,284.8v-5.3h1.3l0.1,1.1l0,0c0.3-0.4,0.6-0.7,0.9-1c0.4-0.2,0.8-0.3,1.2-0.3c0.2,0,0.4,0,0.6,0c0.1,0,0.3,0.1,0.5,0.2
	l-0.3,1.3c-0.2-0.1-0.3-0.1-0.4-0.1c-0.1,0-0.3,0-0.5,0c-0.3,0-0.6,0.1-1,0.3c-0.3,0.2-0.6,0.5-0.8,1v2.8H148.5z M157.2,284.9
	c-0.4,0-0.8-0.1-1.2-0.2s-0.7-0.3-0.9-0.5c-0.3-0.2-0.5-0.5-0.6-0.9c-0.1-0.3-0.2-0.7-0.2-1.2c0-0.4,0.1-0.8,0.2-1.2
	c0.2-0.3,0.4-0.6,0.6-0.9c0.3-0.2,0.6-0.4,0.9-0.5c0.3-0.1,0.7-0.2,1-0.2c0.4,0,0.8,0.1,1.1,0.2s0.6,0.3,0.8,0.5s0.4,0.5,0.5,0.8
	s0.2,0.6,0.2,1c0,0.1,0,0.3,0,0.4s0,0.2,0,0.3H156c0.1,0.4,0.2,0.7,0.5,0.8c0.3,0.2,0.6,0.3,1.1,0.3c0.2,0,0.5,0,0.7-0.1
	s0.4-0.2,0.7-0.3l0.5,1c-0.3,0.2-0.6,0.3-1,0.5C157.9,284.9,157.6,284.9,157.2,284.9z M157.1,280.6c-0.3,0-0.6,0.1-0.8,0.2
	c-0.2,0.2-0.4,0.4-0.4,0.7h2.3C158,280.9,157.7,280.6,157.1,280.6z M163.2,284.9c-0.5,0-0.9-0.1-1.4-0.2c-0.4-0.2-0.8-0.3-1.2-0.6
	l0.7-1c0.3,0.2,0.7,0.4,1,0.5c0.4,0.1,0.7,0.2,1.1,0.2c0.3,0,0.5,0,0.6-0.1s0.2-0.2,0.2-0.3c0-0.1,0-0.1-0.1-0.2
	c0-0.1-0.1-0.1-0.2-0.2c-0.1,0-0.2-0.1-0.4-0.1c-0.2-0.1-0.4-0.1-0.6-0.2c-0.7-0.2-1.2-0.4-1.5-0.6c-0.3-0.3-0.5-0.6-0.5-1
	c0-0.2,0.1-0.5,0.2-0.7c0.1-0.2,0.3-0.4,0.5-0.5s0.5-0.3,0.8-0.3c0.3-0.1,0.6-0.1,1-0.1c0.5,0,0.9,0.1,1.3,0.2
	c0.4,0.1,0.7,0.3,1,0.5l-0.7,0.9c-0.3-0.2-0.6-0.3-0.8-0.4c-0.3-0.1-0.6-0.1-0.9-0.1c-0.2,0-0.4,0-0.6,0.1c-0.1,0.1-0.2,0.2-0.2,0.3
	c0,0.2,0.1,0.3,0.3,0.3c0.2,0.1,0.5,0.1,1,0.2c0.4,0.1,0.7,0.2,1,0.3c0.3,0.1,0.5,0.2,0.6,0.4c0.2,0.1,0.3,0.3,0.3,0.5
	c0.1,0.2,0.1,0.4,0.1,0.6s-0.1,0.5-0.2,0.7c-0.1,0.2-0.3,0.4-0.5,0.5s-0.5,0.3-0.8,0.4C164,284.9,163.7,284.9,163.2,284.9z
	 M170.6,284.9c-0.4,0-0.8-0.1-1.1-0.2s-0.5-0.3-0.7-0.5s-0.3-0.5-0.4-0.7c-0.1-0.3-0.1-0.6-0.1-0.9v-1.9H167v-1.2l1.4-0.1l0.2-1.6
	h1.3v1.6h2.2v1.2h-2.2v1.9c0,0.4,0.1,0.7,0.3,0.9c0.2,0.2,0.5,0.2,0.9,0.2c0.2,0,0.4,0,0.5,0c0.2,0,0.3-0.1,0.5-0.2l0.3,1.1
	c-0.2,0.1-0.5,0.1-0.8,0.2C171.3,284.9,171,284.9,170.6,284.9z M175.3,284.9c-0.3,0-0.5,0-0.7-0.1s-0.4-0.2-0.5-0.3
	c-0.1-0.1-0.3-0.3-0.3-0.5c-0.1-0.2-0.1-0.4-0.1-0.6c0-0.3,0.1-0.6,0.2-0.8c0.1-0.2,0.3-0.4,0.6-0.6s0.6-0.3,1.1-0.4
	c0.4-0.1,1-0.2,1.6-0.2c0-0.2-0.1-0.4-0.3-0.6c-0.2-0.1-0.4-0.2-0.8-0.2c-0.2,0-0.5,0-0.8,0.1s-0.5,0.2-0.8,0.4l-0.5-1
	c0.4-0.2,0.8-0.4,1.2-0.5s0.9-0.2,1.3-0.2c0.7,0,1.3,0.2,1.8,0.6c0.4,0.4,0.6,1,0.6,1.8v3h-1.3l-0.1-0.6l0,0
	c-0.3,0.2-0.6,0.4-0.9,0.5C175.9,284.9,175.6,284.9,175.3,284.9z M175.8,283.7c0.2,0,0.4,0,0.7-0.1c0.2-0.1,0.4-0.2,0.6-0.4v-0.9
	c-0.4,0-0.7,0.1-1,0.1c-0.2,0-0.5,0.1-0.6,0.2s-0.2,0.2-0.3,0.3c-0.1,0.1-0.1,0.2-0.1,0.3c0,0.2,0.1,0.3,0.2,0.4
	C175.3,283.7,175.5,283.7,175.8,283.7z M181.6,284.9c-0.6,0-1-0.2-1.3-0.6s-0.4-0.9-0.4-1.6v-3.2h1.6v3c0,0.4,0.1,0.6,0.2,0.8
	c0.1,0.2,0.3,0.2,0.6,0.2c0.2,0,0.4,0,0.5-0.1c0.2-0.1,0.3-0.2,0.5-0.5v-3.5h1.6v5.3h-1.3l-0.1-0.8l0,0c-0.2,0.3-0.5,0.5-0.8,0.6
	C182.4,284.9,182,284.9,181.6,284.9z M186.9,284.8v-5.3h1.3l0.1,1.1l0,0c0.3-0.4,0.6-0.7,0.9-1c0.4-0.2,0.8-0.3,1.2-0.3
	c0.2,0,0.4,0,0.6,0c0.1,0,0.3,0.1,0.5,0.2l-0.3,1.3c-0.2-0.1-0.3-0.1-0.4-0.1c-0.1,0-0.3,0-0.5,0c-0.3,0-0.6,0.1-1,0.3
	c-0.3,0.2-0.6,0.5-0.8,1v2.8H186.9z M194.4,284.9c-0.3,0-0.5,0-0.7-0.1s-0.4-0.2-0.5-0.3c-0.1-0.1-0.3-0.3-0.3-0.5
	c-0.1-0.2-0.1-0.4-0.1-0.6c0-0.3,0.1-0.6,0.2-0.8c0.1-0.2,0.3-0.4,0.6-0.6s0.6-0.3,1.1-0.4c0.4-0.1,1-0.2,1.6-0.2
	c0-0.2-0.1-0.4-0.3-0.6c-0.2-0.1-0.4-0.2-0.8-0.2c-0.2,0-0.5,0-0.8,0.1s-0.5,0.2-0.8,0.4l-0.5-1c0.4-0.2,0.8-0.4,1.2-0.5
	s0.9-0.2,1.3-0.2c0.7,0,1.3,0.2,1.8,0.6c0.4,0.4,0.6,1,0.6,1.8v3h-1.3l-0.1-0.6l0,0c-0.3,0.2-0.6,0.4-0.9,0.5
	C195.1,284.9,194.8,284.9,194.4,284.9z M194.9,283.7c0.2,0,0.4,0,0.7-0.1s0.4-0.2,0.6-0.4v-0.9c-0.4,0-0.7,0.1-1,0.1
	c-0.2,0-0.5,0.1-0.6,0.2s-0.2,0.2-0.3,0.3c-0.1,0.1-0.1,0.2-0.1,0.3c0,0.2,0.1,0.3,0.2,0.4C194.5,283.7,194.7,283.7,194.9,283.7z
	 M199.2,284.8v-5.3h1.3l0.1,0.7l0,0c0.2-0.2,0.5-0.4,0.8-0.6s0.7-0.2,1-0.2c0.6,0,1,0.2,1.3,0.6s0.4,0.9,0.4,1.6v3.3h-1.6v-3.1
	c0-0.4-0.1-0.6-0.2-0.8c-0.1-0.2-0.3-0.2-0.6-0.2c-0.2,0-0.4,0-0.6,0.1c-0.2,0.1-0.3,0.2-0.5,0.4v3.5H199.2z M209,284.9
	c-0.4,0-0.8-0.1-1.1-0.2s-0.5-0.3-0.7-0.5s-0.3-0.5-0.4-0.7c-0.1-0.3-0.1-0.6-0.1-0.9v-1.9h-1.3v-1.2l1.4-0.1l0.2-1.6h1.3v1.6h2.2
	v1.2h-2.2v1.9c0,0.4,0.1,0.7,0.3,0.9c0.2,0.2,0.5,0.2,0.9,0.2c0.2,0,0.4,0,0.5,0c0.2,0,0.3-0.1,0.5-0.2l0.3,1.1
	c-0.2,0.1-0.5,0.1-0.8,0.2C209.7,284.9,209.3,284.9,209,284.9z"/>
<path class="st2" d="M150.3,297.8v-4.1h-2.1v-1.2h3.7v5.3L150.3,297.8L150.3,297.8z M150.5,291.7c-0.3,0-0.6-0.1-0.8-0.2
	c-0.2-0.2-0.3-0.4-0.3-0.7c0-0.3,0.1-0.5,0.3-0.7s0.5-0.3,0.8-0.3s0.5,0.1,0.7,0.3c0.2,0.2,0.3,0.4,0.3,0.7c0,0.3-0.1,0.5-0.3,0.7
	C151,291.6,150.8,291.7,150.5,291.7z M154.5,297.8v-5.3h1.3l0.1,0.7l0,0c0.2-0.2,0.5-0.4,0.8-0.6s0.7-0.2,1-0.2c0.6,0,1,0.2,1.3,0.6
	s0.4,0.9,0.4,1.6v3.3h-1.6v-3.1c0-0.4-0.1-0.6-0.2-0.8c-0.1-0.2-0.3-0.2-0.6-0.2c-0.2,0-0.4,0-0.6,0.1c-0.2,0.1-0.3,0.2-0.5,0.4v3.5
	H154.5z M162.3,297.8v-4.1H161v-1.2l1.4-0.1v-0.1c0-0.3,0-0.6,0.1-0.8c0.1-0.3,0.2-0.5,0.4-0.7s0.4-0.4,0.7-0.5s0.7-0.2,1.1-0.2
	c0.3,0,0.6,0,0.8,0.1c0.3,0.1,0.5,0.1,0.8,0.2l-0.3,1.2c-0.4-0.1-0.7-0.2-1.1-0.2c-0.3,0-0.6,0.1-0.8,0.2s-0.2,0.4-0.2,0.7v0.2h1.8
	v1.2h-1.8v4.1L162.3,297.8L162.3,297.8z M169.7,297.9c-0.4,0-0.7-0.1-1-0.2s-0.6-0.3-0.9-0.5c-0.2-0.2-0.5-0.5-0.6-0.9
	c-0.1-0.3-0.2-0.7-0.2-1.2s0.1-0.8,0.2-1.2c0.2-0.4,0.4-0.6,0.6-0.9c0.2-0.2,0.5-0.4,0.9-0.5c0.3-0.1,0.7-0.2,1-0.2s0.7,0.1,1,0.2
	s0.6,0.3,0.9,0.5c0.3,0.2,0.5,0.5,0.6,0.9c0.1,0.3,0.2,0.7,0.2,1.2s-0.1,0.8-0.2,1.2s-0.3,0.6-0.6,0.9c-0.2,0.2-0.5,0.4-0.9,0.5
	S170,297.9,169.7,297.9z M169.7,296.7c0.4,0,0.6-0.1,0.8-0.4s0.3-0.6,0.3-1.1s-0.1-0.8-0.3-1.1c-0.2-0.3-0.4-0.4-0.8-0.4
	c-0.4,0-0.6,0.1-0.8,0.4s-0.3,0.6-0.3,1.1s0.1,0.8,0.3,1.1C169,296.5,169.3,296.7,169.7,296.7z"/>
<path class="st0" d="M167.2,341.4H288l6.2,6.2v31.2l0,0H173.5l-6.2-6.2v-31.2H167.2z"/>
<path class="st1" d="M167.2,341.4H288l6.2,6.2v31.2l0,0H173.5l-6.2-6.2v-31.2H167.2z"/>
<path class="st2" d="M183.3,363.9c-0.4,0-0.9-0.1-1.2-0.2c-0.4-0.2-0.7-0.4-1-0.7c-0.3-0.3-0.5-0.7-0.7-1.1s-0.2-1-0.2-1.5
	c0-0.6,0.1-1.1,0.2-1.5c0.2-0.4,0.4-0.8,0.7-1.1c0.3-0.3,0.6-0.6,1-0.7c0.4-0.2,0.8-0.3,1.3-0.2c0.5,0,0.9,0.1,1.2,0.3
	c0.3,0.2,0.6,0.4,0.8,0.6l-0.9,1c-0.1-0.2-0.3-0.3-0.5-0.4s-0.4-0.1-0.7-0.1c-0.2,0-0.4,0.1-0.6,0.2c-0.2,0.1-0.4,0.2-0.5,0.4
	c-0.1,0.2-0.3,0.4-0.3,0.7c-0.1,0.3-0.1,0.6-0.1,0.9c0,0.7,0.1,1.3,0.4,1.7c0.3,0.4,0.7,0.6,1.2,0.6c0.1,0,0.3,0,0.4,0
	c0.1,0,0.2-0.1,0.3-0.2v-1.2h-1v-1.3h2.4v3.2c-0.2,0.2-0.5,0.4-0.9,0.6C184.2,363.9,183.7,363.9,183.3,363.9z M189.2,363.9
	c-0.4,0-0.7-0.1-1-0.2s-0.6-0.3-0.9-0.5c-0.2-0.2-0.5-0.5-0.6-0.9c-0.1-0.3-0.2-0.7-0.2-1.2c0-0.4,0.1-0.8,0.2-1.2
	c0.2-0.4,0.4-0.6,0.6-0.9c0.2-0.2,0.5-0.4,0.9-0.5c0.3-0.1,0.7-0.2,1-0.2s0.7,0.1,1,0.2s0.6,0.3,0.9,0.5c0.3,0.2,0.5,0.5,0.6,0.9
	c0.1,0.3,0.2,0.7,0.2,1.2c0,0.4-0.1,0.8-0.2,1.2c-0.1,0.3-0.3,0.6-0.6,0.9c-0.2,0.2-0.5,0.4-0.9,0.5
	C189.9,363.9,189.6,363.9,189.2,363.9z M189.2,362.7c0.4,0,0.6-0.1,0.8-0.4s0.3-0.6,0.3-1.1s-0.1-0.8-0.3-1.1
	c-0.2-0.3-0.4-0.4-0.8-0.4c-0.4,0-0.6,0.1-0.8,0.4s-0.3,0.6-0.3,1.1s0.1,0.8,0.3,1.1C188.6,362.5,188.9,362.7,189.2,362.7z
	 M203,363.9c-0.4,0-0.8-0.1-1.1-0.2s-0.5-0.3-0.7-0.5s-0.3-0.5-0.4-0.7c-0.1-0.3-0.1-0.6-0.1-0.9v-1.9h-1.3v-1.2l1.4-0.1l0.2-1.6
	h1.3v1.6h2.2v1.2h-2.2v1.9c0,0.4,0.1,0.7,0.3,0.9c0.2,0.2,0.5,0.2,0.9,0.2c0.2,0,0.4,0,0.5,0c0.2,0,0.3-0.1,0.5-0.2l0.3,1.1
	c-0.2,0.1-0.5,0.1-0.8,0.2C203.6,363.9,203.3,363.9,203,363.9z M208.4,363.9c-0.4,0-0.7-0.1-1-0.2s-0.6-0.3-0.9-0.5
	c-0.2-0.2-0.5-0.5-0.6-0.9c-0.1-0.3-0.2-0.7-0.2-1.2c0-0.4,0.1-0.8,0.2-1.2c0.2-0.4,0.4-0.6,0.6-0.9c0.2-0.2,0.5-0.4,0.9-0.5
	c0.3-0.1,0.7-0.2,1-0.2s0.7,0.1,1,0.2s0.6,0.3,0.9,0.5c0.3,0.2,0.5,0.5,0.6,0.9c0.1,0.3,0.2,0.7,0.2,1.2c0,0.4-0.1,0.8-0.2,1.2
	c-0.1,0.3-0.3,0.6-0.6,0.9c-0.2,0.2-0.5,0.4-0.9,0.5C209.1,363.9,208.8,363.9,208.4,363.9z M208.4,362.7c0.4,0,0.6-0.1,0.8-0.4
	s0.3-0.6,0.3-1.1s-0.1-0.8-0.3-1.1c-0.2-0.3-0.4-0.4-0.8-0.4c-0.4,0-0.6,0.1-0.8,0.4s-0.3,0.6-0.3,1.1s0.1,0.8,0.3,1.1
	C207.8,362.5,208,362.7,208.4,362.7z M219.2,363.8v-5.3h1.3l0.1,1.1l0,0c0.3-0.4,0.6-0.7,0.9-1c0.4-0.2,0.8-0.3,1.2-0.3
	c0.2,0,0.4,0,0.6,0c0.1,0,0.3,0.1,0.5,0.2l-0.3,1.3c-0.2-0.1-0.3-0.1-0.4-0.1c-0.1,0-0.3,0-0.5,0c-0.3,0-0.6,0.1-1,0.3
	c-0.3,0.2-0.6,0.5-0.8,1v2.8H219.2z M227.9,363.9c-0.4,0-0.8-0.1-1.2-0.2s-0.7-0.3-0.9-0.5c-0.3-0.2-0.5-0.5-0.6-0.9
	c-0.1-0.3-0.2-0.7-0.2-1.2c0-0.4,0.1-0.8,0.2-1.2c0.2-0.3,0.4-0.6,0.6-0.9c0.3-0.2,0.6-0.4,0.9-0.5c0.3-0.1,0.7-0.2,1-0.2
	c0.4,0,0.8,0.1,1.1,0.2s0.6,0.3,0.8,0.5s0.4,0.5,0.5,0.8s0.2,0.6,0.2,1c0,0.1,0,0.3,0,0.4s0,0.2,0,0.3h-3.6c0.1,0.4,0.2,0.7,0.5,0.8
	c0.3,0.2,0.6,0.3,1.1,0.3c0.2,0,0.5,0,0.7-0.1s0.4-0.2,0.7-0.3l0.5,1c-0.3,0.2-0.6,0.3-1,0.5C228.6,363.9,228.3,363.9,227.9,363.9z
	 M227.8,359.6c-0.3,0-0.6,0.1-0.8,0.2c-0.2,0.2-0.4,0.4-0.4,0.7h2.3C228.7,359.9,228.4,359.6,227.8,359.6z M233.9,363.9
	c-0.5,0-0.9-0.1-1.4-0.2c-0.4-0.2-0.8-0.3-1.2-0.6l0.7-1c0.3,0.2,0.7,0.4,1,0.5c0.4,0.1,0.7,0.2,1.1,0.2c0.3,0,0.5,0,0.6-0.1
	s0.2-0.2,0.2-0.3c0-0.1,0-0.1-0.1-0.2c0-0.1-0.1-0.1-0.2-0.2c-0.1,0-0.2-0.1-0.4-0.1c-0.2-0.1-0.4-0.1-0.6-0.2
	c-0.7-0.2-1.2-0.4-1.5-0.6c-0.3-0.3-0.5-0.6-0.5-1c0-0.2,0.1-0.5,0.2-0.7c0.1-0.2,0.3-0.4,0.5-0.5s0.5-0.3,0.8-0.3
	c0.3-0.1,0.6-0.1,1-0.1c0.5,0,0.9,0.1,1.3,0.2c0.4,0.1,0.7,0.3,1,0.5l-0.7,0.9c-0.3-0.2-0.6-0.3-0.8-0.4c-0.3-0.1-0.6-0.1-0.9-0.1
	c-0.2,0-0.4,0-0.6,0.1c-0.1,0.1-0.2,0.2-0.2,0.3c0,0.2,0.1,0.3,0.3,0.3c0.2,0.1,0.5,0.1,1,0.2c0.4,0.1,0.7,0.2,1,0.3
	c0.3,0.1,0.5,0.2,0.6,0.4c0.2,0.1,0.3,0.3,0.3,0.5c0.1,0.2,0.1,0.4,0.1,0.6s-0.1,0.5-0.2,0.7c-0.1,0.2-0.3,0.4-0.5,0.5
	s-0.5,0.3-0.8,0.4C234.7,363.9,234.4,363.9,233.9,363.9z M241.3,363.9c-0.4,0-0.8-0.1-1.1-0.2s-0.5-0.3-0.7-0.5s-0.3-0.5-0.4-0.7
	c-0.1-0.3-0.1-0.6-0.1-0.9v-1.9h-1.3v-1.2l1.4-0.1l0.2-1.6h1.3v1.6h2.2v1.2h-2.2v1.9c0,0.4,0.1,0.7,0.3,0.9c0.2,0.2,0.5,0.2,0.9,0.2
	c0.2,0,0.4,0,0.5,0c0.2,0,0.3-0.1,0.5-0.2l0.3,1.1c-0.2,0.1-0.5,0.1-0.8,0.2C242,363.9,241.7,363.9,241.3,363.9z M246,363.9
	c-0.3,0-0.5,0-0.7-0.1s-0.4-0.2-0.5-0.3c-0.1-0.1-0.3-0.3-0.3-0.5c-0.1-0.2-0.1-0.4-0.1-0.6c0-0.3,0.1-0.6,0.2-0.8
	c0.1-0.2,0.3-0.4,0.6-0.6s0.6-0.3,1.1-0.4c0.4-0.1,1-0.2,1.6-0.2c0-0.2-0.1-0.4-0.3-0.6c-0.2-0.1-0.4-0.2-0.8-0.2
	c-0.2,0-0.5,0-0.8,0.1s-0.5,0.2-0.8,0.4l-0.5-1c0.4-0.2,0.8-0.4,1.2-0.5s0.9-0.2,1.3-0.2c0.7,0,1.3,0.2,1.8,0.6
	c0.4,0.4,0.6,1,0.6,1.8v3H248l-0.1-0.6l0,0c-0.3,0.2-0.6,0.4-0.9,0.5C246.6,363.9,246.3,363.9,246,363.9z M246.5,362.7
	c0.2,0,0.4,0,0.7-0.1c0.2-0.1,0.4-0.2,0.6-0.4v-0.9c-0.4,0-0.7,0.1-1,0.1c-0.2,0-0.5,0.1-0.6,0.2s-0.2,0.2-0.3,0.3
	c-0.1,0.1-0.1,0.2-0.1,0.3c0,0.2,0.1,0.3,0.2,0.4C246,362.7,246.2,362.7,246.5,362.7z M252.3,363.9c-0.6,0-1-0.2-1.3-0.6
	s-0.4-0.9-0.4-1.6v-3.2h1.6v3c0,0.4,0.1,0.6,0.2,0.8c0.1,0.2,0.3,0.2,0.6,0.2c0.2,0,0.4,0,0.5-0.1c0.2-0.1,0.3-0.2,0.5-0.5v-3.5h1.6
	v5.3h-1.3l-0.1-0.8l0,0c-0.2,0.3-0.5,0.5-0.8,0.6C253.1,363.9,252.7,363.9,252.3,363.9z M257.6,363.8v-5.3h1.3l0.1,1.1l0,0
	c0.3-0.4,0.6-0.7,0.9-1c0.4-0.2,0.8-0.3,1.2-0.3c0.2,0,0.4,0,0.6,0c0.1,0,0.3,0.1,0.5,0.2l-0.3,1.3c-0.2-0.1-0.3-0.1-0.4-0.1
	s-0.3,0-0.5,0c-0.3,0-0.6,0.1-1,0.3c-0.3,0.2-0.6,0.5-0.8,1v2.8H257.6z M265.1,363.9c-0.3,0-0.5,0-0.7-0.1s-0.4-0.2-0.5-0.3
	c-0.1-0.1-0.3-0.3-0.3-0.5c-0.1-0.2-0.1-0.4-0.1-0.6c0-0.3,0.1-0.6,0.2-0.8c0.1-0.2,0.3-0.4,0.6-0.6c0.3-0.2,0.6-0.3,1.1-0.4
	c0.4-0.1,1-0.2,1.6-0.2c0-0.2-0.1-0.4-0.3-0.6c-0.2-0.1-0.4-0.2-0.8-0.2c-0.2,0-0.5,0-0.8,0.1s-0.5,0.2-0.8,0.4l-0.5-1
	c0.4-0.2,0.8-0.4,1.2-0.5c0.4-0.1,0.9-0.2,1.3-0.2c0.7,0,1.3,0.2,1.8,0.6c0.4,0.4,0.6,1,0.6,1.8v3h-1.3l-0.1-0.6l0,0
	c-0.3,0.2-0.6,0.4-0.9,0.5C265.8,363.9,265.5,363.9,265.1,363.9z M265.6,362.7c0.2,0,0.4,0,0.7-0.1c0.2-0.1,0.4-0.2,0.6-0.4v-0.9
	c-0.4,0-0.7,0.1-1,0.1c-0.2,0-0.5,0.1-0.6,0.2s-0.2,0.2-0.3,0.3c-0.1,0.1-0.1,0.2-0.1,0.3c0,0.2,0.1,0.3,0.2,0.4
	C265.2,362.7,265.4,362.7,265.6,362.7z M269.9,363.8v-5.3h1.3l0.1,0.7l0,0c0.2-0.2,0.5-0.4,0.8-0.6s0.7-0.3,1-0.2
	c0.6,0,1,0.2,1.3,0.6s0.4,0.9,0.4,1.6v3.3h-1.6v-3.1c0-0.4-0.1-0.6-0.2-0.8c-0.1-0.2-0.3-0.3-0.6-0.2c-0.2,0-0.4,0-0.6,0.1
	s-0.3,0.2-0.5,0.4v3.5H269.9z M279.7,363.9c-0.4,0-0.8-0.1-1.1-0.2c-0.3-0.1-0.5-0.3-0.7-0.5s-0.3-0.5-0.4-0.7
	c-0.1-0.3-0.1-0.6-0.1-0.9v-1.9h-1.3v-1.2l1.4-0.1l0.2-1.6h1.3v1.6h2.2v1.2H279v1.9c0,0.4,0.1,0.7,0.3,0.9c0.2,0.2,0.5,0.2,0.9,0.2
	c0.2,0,0.4,0,0.5,0c0.2,0,0.3-0.1,0.5-0.2l0.3,1.1c-0.2,0.1-0.5,0.1-0.8,0.2C280.3,363.9,280,363.9,279.7,363.9z"/>
<path class="st4" d="M167.2,32.1H75v13.1"/>
<path class="st5" d="M167.2,32.1H75v7.1"/>
<path class="st6" d="M73.3,39.2l1.7,4.5l1.7-4.5H73.3z"/>
<path class="st4" d="M397.3,105.8V32.1h-103"/>
<path class="st5" d="M397.3,105.8V32.1h-97"/>
<path class="st6" d="M300.3,30.5l-4.5,1.7l4.5,1.7V30.5z"/>
<path class="st4" d="M397.3,164.9v-10.8h0.1v-10.9"/>
<path class="st5" d="M397.3,164.9v-10.8h0.1v-4.9"/>
<path class="st6" d="M399,149.2l-1.7-4.5l-1.7,4.5H399z"/>
<path class="st4" d="M294.3,196.2H314v-12.6h19.7"/>
<path class="st5" d="M294.3,196.2H314v-12.6h13.7"/>
<path class="st6" d="M327.8,185.3l4.5-1.7l-4.5-1.7V185.3z"/>
<path class="st3" d="M11.4,105.8h120.8l6.2,6.2v31.2l0,0H17.6l-6.2-6.2C11.4,137,11.4,105.8,11.4,105.8z"/>
<path class="st1" d="M11.4,105.8h120.8l6.2,6.2v31.2l0,0H17.6l-6.2-6.2C11.4,137,11.4,105.8,11.4,105.8z"/>
<path class="st2" d="M43.7,128.2v-7h1.9c0.5,0,1,0.1,1.4,0.2s0.8,0.3,1.1,0.6c0.3,0.3,0.5,0.6,0.7,1.1c0.2,0.4,0.2,0.9,0.2,1.5
	s-0.1,1.1-0.2,1.5s-0.4,0.8-0.7,1.1c-0.3,0.3-0.6,0.5-1,0.7c-0.4,0.1-0.8,0.2-1.3,0.2h-2.1V128.2z M45.3,127h0.2
	c0.3,0,0.5,0,0.7-0.1s0.4-0.2,0.6-0.4c0.2-0.2,0.3-0.4,0.4-0.7c0.1-0.3,0.1-0.6,0.1-1s0-0.8-0.1-1c-0.1-0.3-0.2-0.5-0.4-0.7
	s-0.3-0.3-0.6-0.4c-0.2-0.1-0.5-0.1-0.7-0.1h-0.2V127z M52.9,128.3c-0.4,0-0.8-0.1-1.2-0.2c-0.4-0.1-0.7-0.3-0.9-0.5
	c-0.3-0.2-0.5-0.5-0.6-0.9c-0.1-0.3-0.2-0.7-0.2-1.2s0.1-0.8,0.2-1.2c0.2-0.3,0.4-0.6,0.6-0.9c0.3-0.2,0.6-0.4,0.9-0.5
	c0.3-0.1,0.7-0.2,1-0.2c0.4,0,0.8,0.1,1.1,0.2s0.6,0.3,0.8,0.5s0.4,0.5,0.5,0.8s0.2,0.6,0.2,1c0,0.1,0,0.3,0,0.4s0,0.2,0,0.3h-3.6
	c0.1,0.4,0.2,0.7,0.5,0.8c0.3,0.2,0.6,0.3,1.1,0.3c0.2,0,0.5,0,0.7-0.1s0.4-0.2,0.7-0.3l0.5,1c-0.3,0.2-0.6,0.3-1,0.5
	C53.6,128.3,53.2,128.3,52.9,128.3z M52.8,124c-0.3,0-0.6,0.1-0.8,0.2c-0.2,0.2-0.4,0.4-0.4,0.7h2.3C53.7,124.3,53.4,124,52.8,124z
	 M59.4,128.3c-0.2,0-0.5-0.1-0.8-0.2c-0.2-0.1-0.5-0.3-0.7-0.5l0,0l-0.1,0.6h-1.2v-7.5h1.6v1.8v0.8l0,0c0.2-0.2,0.4-0.3,0.7-0.4
	s0.5-0.2,0.8-0.2s0.6,0.1,0.9,0.2c0.3,0.1,0.5,0.3,0.7,0.5s0.3,0.5,0.4,0.8c0.1,0.3,0.2,0.7,0.2,1.1s-0.1,0.9-0.2,1.2
	c-0.1,0.4-0.3,0.7-0.5,0.9c-0.2,0.2-0.5,0.4-0.7,0.5C59.9,128.3,59.7,128.3,59.4,128.3z M59,127.1c0.3,0,0.5-0.1,0.7-0.4
	c0.2-0.2,0.3-0.6,0.3-1.2c0-1-0.3-1.4-1-1.4c-0.3,0-0.7,0.2-1,0.5v2.1c0.2,0.1,0.3,0.2,0.5,0.3C58.7,127,58.9,127.1,59,127.1z
	 M65.4,128.3c-0.4,0-0.7-0.1-1-0.2c-0.3-0.1-0.6-0.3-0.9-0.5c-0.2-0.2-0.5-0.5-0.6-0.9c-0.1-0.3-0.2-0.7-0.2-1.2s0.1-0.8,0.2-1.2
	c0.2-0.4,0.4-0.6,0.6-0.9c0.2-0.2,0.5-0.4,0.9-0.5c0.3-0.1,0.7-0.2,1-0.2s0.7,0.1,1,0.2s0.6,0.3,0.9,0.5s0.5,0.5,0.6,0.9
	c0.1,0.3,0.2,0.7,0.2,1.2s-0.1,0.8-0.2,1.2c-0.1,0.3-0.3,0.6-0.6,0.9c-0.2,0.2-0.5,0.4-0.9,0.5C66,128.3,65.7,128.3,65.4,128.3z
	 M65.4,127.1c0.4,0,0.6-0.1,0.8-0.4c0.2-0.3,0.3-0.6,0.3-1.1s-0.1-0.8-0.3-1.1c-0.2-0.3-0.4-0.4-0.8-0.4s-0.6,0.1-0.8,0.4
	c-0.2,0.3-0.3,0.6-0.3,1.1s0.1,0.8,0.3,1.1C64.7,126.9,65,127.1,65.4,127.1z M70.9,128.3c-0.6,0-1-0.2-1.3-0.6s-0.4-0.9-0.4-1.6
	v-3.2h1.6v3c0,0.4,0.1,0.6,0.2,0.8c0.1,0.2,0.3,0.2,0.6,0.2c0.2,0,0.4,0,0.5-0.1c0.2-0.1,0.3-0.2,0.5-0.5v-3.5h1.6v5.3h-1.3
	l-0.1-0.8l0,0c-0.2,0.3-0.5,0.5-0.8,0.6C71.6,128.3,71.3,128.3,70.9,128.3z M75.7,128.2v-5.3H77l0.1,0.7l0,0
	c0.2-0.2,0.5-0.4,0.8-0.6s0.7-0.2,1-0.2c0.6,0,1,0.2,1.3,0.6s0.4,0.9,0.4,1.6v3.3H79v-3.1c0-0.4-0.1-0.6-0.2-0.8
	c-0.1-0.2-0.3-0.2-0.6-0.2c-0.2,0-0.4,0-0.6,0.1s-0.3,0.2-0.5,0.4v3.5L75.7,128.2L75.7,128.2z M85,128.3c-0.4,0-0.8-0.1-1.2-0.2
	c-0.4-0.1-0.7-0.3-0.9-0.5c-0.3-0.2-0.5-0.5-0.6-0.9c-0.1-0.3-0.2-0.7-0.2-1.2s0.1-0.8,0.2-1.2c0.2-0.4,0.4-0.6,0.7-0.9
	c0.3-0.2,0.6-0.4,1-0.5s0.8-0.2,1.2-0.2c0.4,0,0.8,0.1,1.1,0.2c0.3,0.1,0.6,0.3,0.8,0.5l-0.7,1c-0.4-0.3-0.8-0.4-1.2-0.4
	c-0.5,0-0.8,0.1-1.1,0.4c-0.3,0.3-0.4,0.6-0.4,1.1s0.1,0.8,0.4,1.1c0.3,0.3,0.6,0.4,1.1,0.4c0.3,0,0.5,0,0.8-0.1
	c0.2-0.1,0.4-0.2,0.6-0.4l0.6,1c-0.3,0.3-0.7,0.5-1.1,0.6C85.7,128.3,85.4,128.3,85,128.3z M90.7,128.2v-4.1h-2.1v-1.2h3.7v5.3H90.7
	z M90.9,122.1c-0.3,0-0.6-0.1-0.8-0.2c-0.2-0.2-0.3-0.4-0.3-0.7c0-0.3,0.1-0.5,0.3-0.7c0.2-0.2,0.5-0.3,0.8-0.3s0.5,0.1,0.7,0.3
	c0.2,0.2,0.3,0.4,0.3,0.7c0,0.3-0.1,0.5-0.3,0.7C91.5,122,91.2,122.1,90.9,122.1z M94.9,128.2v-5.3h1.3l0.1,0.7l0,0
	c0.2-0.2,0.5-0.4,0.8-0.6s0.7-0.2,1-0.2c0.6,0,1,0.2,1.3,0.6s0.4,0.9,0.4,1.6v3.3h-1.6v-3.1c0-0.4-0.1-0.6-0.2-0.8
	c-0.1-0.2-0.3-0.2-0.6-0.2c-0.2,0-0.4,0-0.6,0.1s-0.3,0.2-0.5,0.4v3.5L94.9,128.2L94.9,128.2z M103.5,130.5c-0.3,0-0.7,0-1-0.1
	s-0.5-0.1-0.8-0.2c-0.2-0.1-0.4-0.2-0.5-0.4s-0.2-0.4-0.2-0.6c0-0.4,0.3-0.8,0.8-1l0,0c-0.1-0.1-0.3-0.2-0.4-0.3
	c-0.1-0.1-0.2-0.3-0.2-0.6c0-0.2,0.1-0.4,0.2-0.5c0.1-0.2,0.3-0.3,0.5-0.5l0,0c-0.2-0.1-0.3-0.3-0.5-0.5c-0.1-0.2-0.2-0.5-0.2-0.8
	s0.1-0.6,0.2-0.8c0.1-0.2,0.3-0.4,0.5-0.6s0.4-0.3,0.7-0.4c0.3-0.1,0.6-0.1,0.9-0.1s0.6,0,0.9,0.1h2.1v1.1h-1.1
	c0.1,0.1,0.1,0.2,0.2,0.3c0.1,0.1,0.1,0.3,0.1,0.4c0,0.3-0.1,0.6-0.2,0.8s-0.3,0.4-0.5,0.5s-0.4,0.3-0.7,0.3
	c-0.3,0.1-0.5,0.1-0.9,0.1c-0.2,0-0.5,0-0.7-0.1c-0.1,0.1-0.1,0.1-0.2,0.2c0,0.1,0,0.1,0,0.2s0.1,0.2,0.2,0.3
	c0.1,0.1,0.4,0.1,0.7,0.1h1c0.7,0,1.2,0.1,1.6,0.3c0.4,0.2,0.5,0.5,0.5,1c0,0.3-0.1,0.5-0.2,0.8c-0.1,0.2-0.4,0.4-0.6,0.6
	c-0.3,0.2-0.6,0.3-1,0.4C104.4,130.4,104,130.5,103.5,130.5z M103.6,125.6c0.2,0,0.4-0.1,0.6-0.2s0.2-0.4,0.2-0.7
	c0-0.3-0.1-0.5-0.2-0.6c-0.2-0.2-0.3-0.2-0.6-0.2c-0.2,0-0.4,0.1-0.6,0.2c-0.1,0.1-0.2,0.4-0.2,0.6c0,0.3,0.1,0.5,0.2,0.7
	C103.1,125.5,103.3,125.6,103.6,125.6z M103.7,129.5c0.4,0,0.8-0.1,1-0.2c0.3-0.1,0.4-0.3,0.4-0.4c0-0.2-0.1-0.3-0.2-0.3
	c-0.2,0-0.4-0.1-0.7-0.1h-0.7c-0.2,0-0.3,0-0.5,0c-0.1,0-0.2,0-0.3-0.1c-0.1,0.1-0.2,0.2-0.3,0.2c-0.1,0.1-0.1,0.2-0.1,0.3
	c0,0.2,0.1,0.3,0.4,0.4C103,129.4,103.3,129.5,103.7,129.5z"/>
<path class="st4" d="M74.9,82.6v11.6H75v11.6"/>
<path class="st5" d="M74.9,82.6v11.6H75v5.6"/>
<path class="st6" d="M73.4,99.7l1.7,4.5l1.7-4.5H73.4z"/>
<path class="st4" d="M138.5,124.5h14.4v0.1h14.4"/>
<path class="st5" d="M138.5,124.5h14.4v0.1h8.4"/>
<path class="st6" d="M161.2,126.2l4.5-1.7l-4.5-1.7V126.2z"/>
<path class="st4" d="M230.8,143.2V154h0.1v10.9"/>
<path class="st5" d="M230.8,143.2V154h0.1v4.9"/>
<path class="st6" d="M229.2,158.9l1.7,4.5l1.7-4.5H229.2z"/>
<path class="st4" d="M301.5,306.3v17.5h-70.7v17.5"/>
<path class="st5" d="M301.5,306.3v17.5h-70.7v11.5"/>
<path class="st6" d="M229.1,335.4l1.7,4.5l1.7-4.5H229.1z"/>
<path class="st4" d="M230.8,227.5v20.7h70.7v20.7"/>
<path class="st5" d="M230.8,227.5v20.7h70.7v14.7"/>
<path class="st6" d="M299.8,262.8l1.7,4.5l1.7-4.5H299.8z"/>
<path class="st4" d="M160.1,306.3v17.5h70.7v17.6"/>
<path class="st5" d="M160.1,306.3v17.5h70.7v11.6"/>
<path class="st6" d="M229.1,335.4l1.7,4.5l1.7-4.5H229.1z"/>
<path class="st4" d="M230.8,227.5v20.7h-70.7v20.7"/>
<path class="st5" d="M230.8,227.5v20.7h-70.7v14.7"/>
<path class="st6" d="M158.4,262.8l1.7,4.5l1.7-4.5H158.4z"/>
</svg>
