<?xml version="1.0" encoding="utf-8"?>
<!-- Generator: Adobe Illustrator 25.0.0, SVG Export Plug-In . SVG Version: 6.00 Build 0)  -->
<svg version="1.1" id="Layer_1" xmlns="http://www.w3.org/2000/svg" xmlns:xlink="http://www.w3.org/1999/xlink" x="0px" y="0px"
	 viewBox="0 0 120 120" style="enable-background:new 0 0 120 120;" xml:space="preserve">
<style type="text/css">
	.st0{opacity:0.32;fill:#3B0097;enable-background:new    ;}
	.st1{fill:none;}
	.st2{fill:none;stroke:#EE2A7B;stroke-miterlimit:10;}
	.st3{fill:none;stroke:#EE2A7B;stroke-miterlimit:10;stroke-dasharray:3,3;}
	.st4{fill:#FFFFFF;}
	.st5{fill:#EE2A7B;}
</style>
<rect id="_.bg" x="15.6" y="15.6" class="st0" width="88.9" height="88.9"/>
<path class="st1" d="M-44,0h24v24h-24V0z"/>
<line class="st2" x1="10" y1="0" x2="10" y2="1.5"/>
<line class="st3" x1="10" y1="4.5" x2="10" y2="117"/>
<line class="st2" x1="10" y1="118.5" x2="10" y2="120"/>
<line class="st2" x1="110" y1="0" x2="110" y2="1.5"/>
<line class="st3" x1="110" y1="4.5" x2="110" y2="117"/>
<line class="st2" x1="110" y1="118.5" x2="110" y2="120"/>
<line class="st2" x1="120" y1="10" x2="118.5" y2="10"/>
<line class="st3" x1="115.5" y1="10" x2="3" y2="10"/>
<line class="st2" x1="1.5" y1="10" x2="0" y2="10"/>
<line class="st2" x1="120" y1="110" x2="118.5" y2="110"/>
<line class="st3" x1="115.5" y1="110" x2="3" y2="110"/>
<line class="st2" x1="1.5" y1="110" x2="0" y2="110"/>
<g>
	<path class="st1" d="M40.9,40.9h38.4v38.4H40.9V40.9z"/>
	<g>
		<rect x="59.2" y="29.9" class="st4" width="1.6" height="7.7"/>
		<rect x="59.2" y="82.5" class="st4" width="1.6" height="7.7"/>
	</g>
	<g>
		<rect x="46.1" y="33.4" transform="matrix(0.866 -0.5 0.5 0.866 -12.3395 28.4398)" class="st4" width="1.6" height="7.7"/>
		<rect x="72.4" y="79" transform="matrix(0.866 -0.5 0.5 0.866 -31.6196 47.7009)" class="st4" width="1.6" height="7.7"/>
	</g>
	<g>
		<rect x="36.5" y="43" transform="matrix(0.5 -0.866 0.866 0.5 -21.9752 55.7299)" class="st4" width="1.6" height="7.7"/>
		<rect x="82.1" y="69.4" transform="matrix(0.5 -0.866 0.866 0.5 -21.9754 108.3709)" class="st4" width="1.6" height="7.7"/>
	</g>
	<g>
		<rect x="29.9" y="59.3" class="st4" width="7.7" height="1.6"/>
		<rect x="82.5" y="59.3" class="st4" width="7.7" height="1.6"/>
	</g>
	<g>
		<rect x="33.4" y="72.4" transform="matrix(0.866 -0.5 0.5 0.866 -31.6111 28.4472)" class="st4" width="7.7" height="1.6"/>
		<rect x="79.1" y="46.1" transform="matrix(0.866 -0.5 0.5 0.866 -12.3256 47.752)" class="st4" width="7.7" height="1.6"/>
	</g>
	<g>
		<rect x="43" y="82.1" transform="matrix(0.5 -0.866 0.866 0.5 -48.3269 82.0005)" class="st4" width="7.7" height="1.6"/>
		<rect x="69.4" y="36.5" transform="matrix(0.5 -0.866 0.866 0.5 4.3599 82.0556)" class="st4" width="7.7" height="1.6"/>
	</g>
</g>
<path class="st5" d="M61.4,51c1.5,0,2.7-1.2,2.7-2.7s-1.2-2.7-2.7-2.7s-2.7,1.2-2.7,2.7S59.9,51,61.4,51z M56.4,55.5l-3.5,17.4
	c-0.1,0.8,0.4,1.6,1.3,1.6h0.1c0.7,0,1.2-0.4,1.3-1.1l2.2-9.7l2.8,2.7v6.7c0,0.7,0.5,1.3,1.3,1.3s1.3-0.7,1.3-1.3v-7.5
	c0-0.7-0.3-1.5-0.8-1.9l-2-1.9l0.8-4c1.5,1.6,3.5,2.8,5.9,3.2c0.8,0.1,1.5-0.5,1.5-1.3c0-0.7-0.5-1.2-1.2-1.3
	c-2-0.3-3.8-1.5-4.6-3.1l-1.3-2.2c-0.8-1.3-2.3-1.9-3.6-1.2l-5.1,2.2c-0.9,0.4-1.6,1.3-1.6,2.4v3.2c0,0.8,0.5,1.3,1.3,1.3
	s1.3-0.5,1.3-1.3v-3.2L56.4,55.5"/>
</svg>
