<?xml version="1.0" encoding="utf-8"?>
<!-- Generator: Adobe Illustrator 25.0.0, SVG Export Plug-In . SVG Version: 6.00 Build 0)  -->
<svg version="1.1" id="Layer_1" xmlns="http://www.w3.org/2000/svg" xmlns:xlink="http://www.w3.org/1999/xlink" x="0px" y="0px"
	 viewBox="0 0 120 120" style="enable-background:new 0 0 120 120;" xml:space="preserve">
<style type="text/css">
	.st0{fill:#EE2A7B;}
	.st1{fill:none;stroke:#EE2A7B;stroke-miterlimit:10;}
	.st2{fill:none;stroke:#EE2A7B;stroke-miterlimit:10;stroke-dasharray:3,3;}
	.st3{opacity:0.32;fill:#3B0097;enable-background:new    ;}
	.st4{fill:none;}
	.st5{fill:#FFFFFF;}
</style>
<path class="st0" d="M-113.8-4h24 M-89.8,20h-24"/>
<line class="st1" x1="10" y1="0" x2="10" y2="1.5"/>
<line class="st2" x1="10" y1="4.5" x2="10" y2="117"/>
<line class="st1" x1="10" y1="118.5" x2="10" y2="120"/>
<line class="st1" x1="110" y1="0" x2="110" y2="1.5"/>
<line class="st2" x1="110" y1="4.5" x2="110" y2="117"/>
<line class="st1" x1="110" y1="118.5" x2="110" y2="120"/>
<line class="st1" x1="120" y1="10" x2="118.5" y2="10"/>
<line class="st2" x1="115.5" y1="10" x2="3" y2="10"/>
<line class="st1" x1="1.5" y1="10" x2="0" y2="10"/>
<line class="st1" x1="120" y1="110" x2="118.5" y2="110"/>
<line class="st2" x1="115.5" y1="110" x2="3" y2="110"/>
<line class="st1" x1="1.5" y1="110" x2="0" y2="110"/>
<rect id="_.bg" x="15.6" y="15.6" class="st3" width="88.9" height="88.9"/>
<g>
	<path class="st4" d="M40.9,40.9h38.4v38.4H40.9V40.9z"/>
	<g>
		<rect x="59.2" y="29.9" class="st5" width="1.6" height="7.7"/>
		<rect x="59.2" y="82.5" class="st5" width="1.6" height="7.7"/>
	</g>
	<g>
		<rect x="46.1" y="33.4" transform="matrix(0.866 -0.5 0.5 0.866 -12.342 28.4366)" class="st5" width="1.6" height="7.7"/>
		<rect x="72.4" y="79" transform="matrix(0.866 -0.5 0.5 0.866 -31.6171 47.7039)" class="st5" width="1.6" height="7.7"/>
	</g>
	<g>
		<rect x="36.5" y="43" transform="matrix(0.5 -0.866 0.866 0.5 -21.9455 55.7731)" class="st5" width="1.6" height="7.7"/>
		<rect x="82.1" y="69.4" transform="matrix(0.5 -0.866 0.866 0.5 -22.0189 108.3834)" class="st5" width="1.6" height="7.7"/>
	</g>
	<g>
		<rect x="29.9" y="59.3" class="st5" width="7.7" height="1.6"/>
		<rect x="82.5" y="59.3" class="st5" width="7.7" height="1.6"/>
	</g>
	<g>
		<rect x="33.4" y="72.4" transform="matrix(0.866 -0.5 0.5 0.866 -31.5821 28.443)" class="st5" width="7.7" height="1.6"/>
		<rect x="79.1" y="46.1" transform="matrix(0.866 -0.5 0.5 0.866 -12.3434 47.7349)" class="st5" width="7.7" height="1.6"/>
	</g>
	<g>
		<rect x="43" y="82" transform="matrix(0.5 -0.866 0.866 0.5 -48.2777 82.0253)" class="st5" width="7.7" height="1.6"/>
		<rect x="69.4" y="36.5" transform="matrix(0.5 -0.866 0.866 0.5 4.3164 82.0365)" class="st5" width="7.7" height="1.6"/>
	</g>
</g>
<path class="st0" d="M48.1,50.2c3.6,4.6,8.9,11.4,8.9,11.4v7.7c0,1.7,1.4,3.1,3.1,3.1l0,0c1.7,0,3.1-1.4,3.1-3.1v-7.7
	c0,0,5.3-6.8,8.9-11.4c0.8-1,0.1-2.5-1.2-2.5H49.3C48,47.7,47.3,49.2,48.1,50.2z"/>
</svg>
