<?xml version="1.0" encoding="utf-8"?>
<!-- Generator: Adobe Illustrator 25.0.0, SVG Export Plug-In . SVG Version: 6.00 Build 0)  -->
<svg version="1.1" id="Layer_1" xmlns="http://www.w3.org/2000/svg" xmlns:xlink="http://www.w3.org/1999/xlink" x="0px" y="0px"
	 viewBox="0 0 120 120" style="enable-background:new 0 0 120 120;" xml:space="preserve">
<style type="text/css">
	.st0{fill:none;}
	.st1{fill:none;stroke:#EE2A7B;stroke-miterlimit:10;}
	.st2{fill:none;stroke:#EE2A7B;stroke-miterlimit:10;stroke-dasharray:3,3;}
	.st3{opacity:0.32;fill:#3B0097;enable-background:new    ;}
	.st4{fill:#FFFFFF;}
	.st5{fill:#EE2A7B;}
</style>
<path class="st0" d="M-44,0h24v24h-24V0z"/>
<line class="st1" x1="10" y1="0" x2="10" y2="1.5"/>
<line class="st2" x1="10" y1="4.5" x2="10" y2="117"/>
<line class="st1" x1="10" y1="118.5" x2="10" y2="120"/>
<line class="st1" x1="110" y1="0" x2="110" y2="1.5"/>
<line class="st2" x1="110" y1="4.5" x2="110" y2="117"/>
<line class="st1" x1="110" y1="118.5" x2="110" y2="120"/>
<line class="st1" x1="120" y1="10" x2="118.5" y2="10"/>
<line class="st2" x1="115.5" y1="10" x2="3" y2="10"/>
<line class="st1" x1="1.5" y1="10" x2="0" y2="10"/>
<line class="st1" x1="120" y1="110" x2="118.5" y2="110"/>
<line class="st2" x1="115.5" y1="110" x2="3" y2="110"/>
<line class="st1" x1="1.5" y1="110" x2="0" y2="110"/>
<rect id="_.bg" x="15.6" y="15.6" class="st3" width="88.9" height="88.9"/>
<g>
	<path class="st0" d="M40.9,40.9h38.4v38.4H40.9V40.9z"/>
	<g>
		<rect x="59.2" y="29.9" class="st4" width="1.6" height="7.7"/>
		<rect x="59.2" y="82.5" class="st4" width="1.6" height="7.7"/>
	</g>
	<g>
		<rect x="46.1" y="33.4" transform="matrix(0.866 -0.5 0.5 0.866 -12.342 28.4366)" class="st4" width="1.6" height="7.7"/>
		<rect x="72.4" y="79" transform="matrix(0.866 -0.5 0.5 0.866 -31.6171 47.7039)" class="st4" width="1.6" height="7.7"/>
	</g>
	<g>
		<rect x="36.5" y="43" transform="matrix(0.5 -0.866 0.866 0.5 -21.9455 55.7731)" class="st4" width="1.6" height="7.7"/>
		<rect x="82.1" y="69.4" transform="matrix(0.5 -0.866 0.866 0.5 -22.0189 108.3834)" class="st4" width="1.6" height="7.7"/>
	</g>
	<g>
		<rect x="29.9" y="59.3" class="st4" width="7.7" height="1.6"/>
		<rect x="82.5" y="59.3" class="st4" width="7.7" height="1.6"/>
	</g>
	<g>
		<rect x="33.4" y="72.4" transform="matrix(0.866 -0.5 0.5 0.866 -31.5821 28.443)" class="st4" width="7.7" height="1.6"/>
		<rect x="79.1" y="46.1" transform="matrix(0.866 -0.5 0.5 0.866 -12.3434 47.7349)" class="st4" width="7.7" height="1.6"/>
	</g>
	<g>
		<rect x="43" y="82" transform="matrix(0.5 -0.866 0.866 0.5 -48.2777 82.0253)" class="st4" width="7.7" height="1.6"/>
		<rect x="69.4" y="36.5" transform="matrix(0.5 -0.866 0.866 0.5 4.3164 82.0365)" class="st4" width="7.7" height="1.6"/>
	</g>
</g>
<path class="st5" d="M66.3,63.9h-1.2l-0.4-0.4c1.9-2.2,2.9-5.2,2.3-8.4c-0.7-4.4-4.4-7.9-8.8-8.4c-6.7-0.8-12.3,4.8-11.5,11.5
	c0.5,4.4,4,8.1,8.4,8.8c3.2,0.5,6.2-0.4,8.4-2.3l0.4,0.4v1.2l6.7,6.7c0.6,0.6,1.7,0.6,2.3,0c0.6-0.6,0.6-1.7,0-2.3L66.3,63.9z
	 M56.9,63.9c-3.9,0-7.1-3.2-7.1-7.1s3.2-7.1,7.1-7.1s7.1,3.2,7.1,7.1S60.8,63.9,56.9,63.9z"/>
</svg>
