<?xml version="1.0" encoding="utf-8"?>
<!-- Generator: Adobe Illustrator 23.0.1, SVG Export Plug-In . SVG Version: 6.00 Build 0)  -->
<svg version="1.1" id="Layer_1" xmlns="http://www.w3.org/2000/svg" xmlns:xlink="http://www.w3.org/1999/xlink" x="0px" y="0px"
	 viewBox="0 0 120 120" style="enable-background:new 0 0 120 120;" xml:space="preserve">
<style type="text/css">
	.st0{fill:none;stroke:#EE2A7B;stroke-miterlimit:10;}
	.st1{fill:none;stroke:#EE2A7B;stroke-miterlimit:10;stroke-dasharray:3,3;}
	.st2{opacity:0.32;fill:#3B0097;enable-background:new    ;}
	.st3{fill:#FFFFFF;}
</style>
<title>problems</title>
<line class="st0" x1="10" y1="0" x2="10" y2="1.5"/>
<line class="st1" x1="10" y1="4.5" x2="10" y2="117"/>
<line class="st0" x1="10" y1="118.5" x2="10" y2="120"/>
<line class="st0" x1="110" y1="0" x2="110" y2="1.5"/>
<line class="st1" x1="110" y1="4.5" x2="110" y2="117"/>
<line class="st0" x1="110" y1="118.5" x2="110" y2="120"/>
<line class="st0" x1="120" y1="10" x2="118.5" y2="10"/>
<line class="st1" x1="115.5" y1="10" x2="3" y2="10"/>
<line class="st0" x1="1.5" y1="10" x2="0" y2="10"/>
<line class="st0" x1="120" y1="110" x2="118.5" y2="110"/>
<line class="st1" x1="115.5" y1="110" x2="3" y2="110"/>
<line class="st0" x1="1.5" y1="110" x2="0" y2="110"/>
<rect id="_.bg" x="15.6" y="15.6" class="st2" width="88.9" height="88.9"/>
<g>
	<rect x="44.9" y="79.1" class="st3" width="30.3" height="6.3"/>
	<rect x="35.5" y="86.9" class="st3" width="49" height="3.2"/>
	<path class="st3" d="M20.9,30v47.6h78.2V30H20.9z M97,75.1H23V32.5h74V75.1z"/>
	<rect x="69.5" y="36.2" class="st3" width="4" height="4"/>
	<rect x="74.8" y="36.2" class="st3" width="17.3" height="4"/>
	<rect x="69.5" y="41.7" class="st3" width="4" height="4"/>
	<rect x="74.8" y="41.7" class="st3" width="15.5" height="4"/>
	<rect x="69.5" y="57.7" class="st3" width="4" height="4"/>
	<rect x="74.8" y="57.7" class="st3" width="17.3" height="4"/>
	<rect x="69.5" y="63.2" class="st3" width="4" height="4"/>
	<rect x="74.8" y="63.2" class="st3" width="15.5" height="4"/>
	<rect x="86.2" y="47.2" class="st3" width="4" height="4"/>
	<rect x="69.5" y="47.2" class="st3" width="15.5" height="4"/>
	<rect x="26.4" y="36.2" class="st3" width="8.4" height="35.7"/>
	<g>
		<path class="st3" d="M67.3,72.5H35.8V35.7h31.5V72.5z M36.8,71.5h29.5V36.7H36.8V71.5z"/>
	</g>
	<g>
		<polygon class="st3" points="38.8,64.6 37.9,64.2 42.2,52.9 46.6,60.6 51.2,51.6 56.4,51.6 58.2,46.5 62.1,48.9 63.9,56.7 
			62.9,57 61.2,49.6 58.7,48 57.2,52.6 51.8,52.6 46.6,62.7 42.4,55.3 		"/>
	</g>
</g>
</svg>
