<?xml version="1.0" encoding="utf-8"?>
<!-- Generator: Adobe Illustrator 23.0.1, SVG Export Plug-In . SVG Version: 6.00 Build 0)  -->
<svg version="1.1" id="Layer_1" xmlns="http://www.w3.org/2000/svg" xmlns:xlink="http://www.w3.org/1999/xlink" x="0px" y="0px"
	 viewBox="0 0 170 120" style="enable-background:new 0 0 170 120;" xml:space="preserve">
<style type="text/css">
	.st0{fill:none;stroke:#EE2A7B;stroke-miterlimit:10;}
	.st1{fill:none;stroke:#EE2A7B;stroke-miterlimit:10;stroke-dasharray:3,3;}
	.st2{opacity:0.32;fill:#3B0097;enable-background:new    ;}
	.st3{fill:#FFFFFF;}
	.st4{font-family:'OCRAStd';}
	.st5{font-size:16px;}
	.st6{font-size:12px;}
</style>
<title>problems</title>
<line class="st0" x1="10" y1="0" x2="10" y2="1.5"/>
<line class="st1" x1="10" y1="4.5" x2="10" y2="117"/>
<line class="st0" x1="10" y1="118.5" x2="10" y2="120"/>
<line class="st0" x1="155.7" y1="0" x2="155.7" y2="1.5"/>
<line class="st1" x1="155.7" y1="4.5" x2="155.7" y2="117"/>
<line class="st0" x1="155.7" y1="118.5" x2="155.7" y2="120"/>
<line class="st0" x1="170" y1="10" x2="167.9" y2="10"/>
<line class="st1" x1="163.6" y1="10" x2="3" y2="10"/>
<line class="st0" x1="1.5" y1="10" x2="0" y2="10"/>
<line class="st0" x1="170" y1="110" x2="167.9" y2="110"/>
<line class="st1" x1="163.6" y1="110" x2="3" y2="110"/>
<line class="st0" x1="1.5" y1="110" x2="0" y2="110"/>
<rect id="_.bg" x="15.6" y="15.6" class="st2" width="133.6" height="88.9"/>
<text transform="matrix(1 0 0 1 36.3343 54.8578)" class="st3 st4 st5">DEBOUNCE</text>
<text transform="matrix(1 0 0 1 43.534 76.3511)" class="st3 st4 st6">150-200ms</text>
</svg>
