<svg id="Layer_1" data-name="Layer 1" xmlns="http://www.w3.org/2000/svg" viewBox="0 0 27.24 21.95"><defs><style>.cls-1{fill:#ff008a;}</style></defs><title>findings_arrow</title><path class="cls-1" d="M7.16,11a.31.31,0,0,0-.2-.1L.66,4.55a1.6,1.6,0,0,1,0-2.5L2.16.55a1.61,1.61,0,0,1,2.3.1l.8.8,8.3,8.3a2.07,2.07,0,0,1,.6,1,1.28,1.28,0,0,1-.6,1.4L10.76,15l-6.4,6.4a1.61,1.61,0,0,1-1.3.6,1.38,1.38,0,0,1-1.1-.6l-1.5-1.5a1.68,1.68,0,0,1-.1-2.2l.2-.2c2.3-2.2,4.4-4.3,6.6-6.5Z"/><path class="cls-1" d="M20.26,11l-.1-.1-6.4-6.4a1.75,1.75,0,0,1-.5-1.6,1,1,0,0,1,.4-.7l1.7-1.7a1.45,1.45,0,0,1,2.1,0l.1.1,9.1,9.1a1.47,1.47,0,0,1,.5,1.6c-.1.2-.2.5-.4.6l-9.4,9.4a1.45,1.45,0,0,1-2.1,0l-1.7-1.7a1.69,1.69,0,0,1,0-2.3l.8-.8,5.7-5.7C20.16,11.15,20.26,11.05,20.26,11Z"/></svg>