<?xml version="1.0" encoding="utf-8"?>
<!-- Generator: Adobe Illustrator 23.0.1, SVG Export Plug-In . SVG Version: 6.00 Build 0)  -->
<svg version="1.1" id="Layer_1" xmlns="http://www.w3.org/2000/svg" xmlns:xlink="http://www.w3.org/1999/xlink" x="0px" y="0px"
	 viewBox="0 0 478.9 324.6" style="enable-background:new 0 0 478.9 324.6;" xml:space="preserve">
<style type="text/css">
	.st0{fill:#FF008A;}
	.st1{fill-rule:evenodd;clip-rule:evenodd;fill-opacity:0;}
	.st2{fill:none;stroke:#595959;stroke-linejoin:round;stroke-miterlimit:10;stroke-dasharray:1,3;}
	.st3{fill-rule:evenodd;clip-rule:evenodd;fill:#595959;stroke:#595959;stroke-miterlimit:10;}
	.st4{fill:#FFFFFF;}
	.st5{opacity:0.5;fill:#FF008A;enable-background:new    ;}
	.st6{opacity:0.4;fill:#FF008A;enable-background:new    ;}
	.st7{opacity:0.6;fill:#FF008A;enable-background:new    ;}
	.st8{fill:#8B8B8B;}
</style>
<path class="st0" d="M17.8,175c0-9.8,0-19.6,0-29.4c0.6,0,1.2,0.1,1.9,0.1c12,0,24.1,0,36.1,0c0.6,0,1.2,0,1.8,0
	c0,9.8,0,19.5,0,29.2c-0.8,0-1.4,0-2,0c-12,0-23.9,0-35.9,0C19.1,175,18.4,175,17.8,175z M46.9,157.3c-1.8,1.9-3.5,3.7-5.5,5.8
	c-3.1-3.2-6.1-6.3-9.1-9.4c-3.3,3.4-6.7,6.7-10,10.1c-0.2,0.2-0.5,0.6-0.5,0.9c0,2.1,0,4.1,0,6.3c10.7,0,21.3,0,32.1,0
	c0-2.2,0-4.2,0-6.3c0-0.3-0.2-0.6-0.4-0.8C51.4,161.8,49.4,159.8,46.9,157.3z M44.5,153.7c0-1.6-1.2-2.8-2.7-2.8
	c-1.5,0-2.8,1.3-2.8,2.8c0,1.4,1.2,2.7,2.7,2.7C43.3,156.5,44.5,155.3,44.5,153.7z"/>
<path class="st0" d="M144.1,136.9c0,15.8,0,31.6,0,47.4c-15.8,0-31.6,0-47.4,0c0-11.1,0-22.1,0-33.3c10,0,19.9,0,29.8,0
	c3.6-4.8,7.1-9.5,10.5-14.1C139.6,136.9,141.9,136.9,144.1,136.9z M116.4,153.6c0,1,0,2,0,3c-0.1,1.2-1.3,1.8-2.3,1.1
	c-0.7-0.5-1.5-0.9-2.3-1.4c-1.4,2.4-2.8,4.8-4.2,7.2c0.5,0.2,1,0.5,1.5,0.8c0.5,0.3,1,0.6,1.4,1c0.5,0.5,0.5,1.3,0,1.7
	c-0.4,0.4-0.9,0.7-1.4,1c-0.5,0.3-1.1,0.6-1.6,0.8c1.6,2.3,2.6,4.9,4.3,7.1c0.8-0.5,1.5-0.8,2.2-1.3c0.5-0.4,1.1-0.5,1.5-0.2
	c0.5,0.3,1,0.7,0.9,1.5c-0.1,1,0,1.9,0,2.8c2.8,0,5.4,0,8.1,0c0-0.5,0-1,0-1.5c0-0.5,0-1,0-1.5c0.1-1.2,1.3-1.8,2.3-1.1
	c0.7,0.5,1.5,0.9,2.3,1.4c1.4-2.4,2.8-4.8,4.1-7.1c-0.8-0.5-1.6-1-2.4-1.6c-1.1-0.7-1.2-1.5,0-2.2c0.9-0.5,1.7-1.1,2.5-1.6
	c-1.6-2.3-2.6-4.9-4.3-7c-0.8,0.5-1.5,0.8-2.2,1.3c-0.5,0.4-1.1,0.5-1.5,0.2c-0.5-0.3-1-0.7-0.9-1.5c0.1-1,0-1.9,0-2.8
	C121.7,153.6,119.1,153.6,116.4,153.6z"/>
<path class="st0" d="M125.4,148c-9.5,0-19,0-28.5,0c0-3.7,0-7.3,0-11c12.1,0,24.3,0,36.6,0c-0.7,1.5-1.8,2.5-2.6,3.7
	c-0.8,1.2-1.8,2.3-2.7,3.5C127.2,145.4,126.4,146.6,125.4,148z M105.2,145.4c0.1-1,0.1-2,0-2.9c-1,0-1.9,0-2.9,0
	c0.1,1-0.1,2,0.1,2.9C103.4,145.4,104.2,145.4,105.2,145.4z M110.8,142.5c-1.1,0-2,0-2.9,0c0,1,0,2,0,2.8c1.1,0,2,0,2.9,0
	C110.8,144.4,110.8,143.5,110.8,142.5z M116.3,145.4c0-1.1,0-2,0-2.9c-1,0-2,0-2.8,0c0,1.1,0,2,0,2.9
	C114.5,145.4,115.4,145.4,116.3,145.4z"/>
<path class="st0" d="M129.4,169.6c0,1-0.6,1.8-1.3,2.4c-0.1,0-0.3,0-0.4,0c-1.7-1.4-1.7-1.4-3.4-0.2c-0.4,0.3-0.8,0.6-1.3,0.9
	c-0.2,0.1-0.6,0.1-1,0.1c0,0.5,0,1,0,1.4c0,0.4,0,0.9,0,1.4c-1,0-1.9,0-2.9,0c0-0.9,0-1.8,0-2.8c-1.3,0.1-2.2-0.7-2.9-1.4
	c-0.8-0.7-1.4-0.4-2.1-0.1c-0.4,0.2-0.6,0.5-1,0.9c-0.4-0.4-0.7-0.6-1-1c-0.2-0.4-0.4-0.8-0.5-1.3c-0.1-0.7,0.7-0.4,0.9-0.9
	c0.1-0.2,0.5-0.2,0.7-0.4c0.5-0.3,0.7-0.8,0.4-1.4c-0.4-0.8-0.4-1.6,0-2.4c0.3-0.5,0.1-1-0.3-1.3c-0.6-0.4-1.2-0.7-1.8-1.1
	c0.2-1.1,0.3-1.4,1.3-2.4c0.1,0,0.3,0,0.4,0c1.7,1.4,1.7,1.4,3.4,0.2c0.4-0.3,0.8-0.6,1.3-0.9c0.2-0.1,0.6-0.1,0.9-0.1
	c0-0.9,0-1.8,0-2.8c1,0,2,0,3,0c0,0.9,0,1.8,0,2.8c1.3-0.1,2.2,0.7,2.9,1.4c0.8,0.7,1.4,0.4,2.1,0.1c0.4-0.2,0.6-0.5,1-0.9
	c0.4,0.4,0.7,0.6,1,1c0.2,0.4,0.4,0.8,0.5,1.3c0.1,0.7-0.7,0.4-0.9,0.9c-0.1,0.2-0.5,0.2-0.7,0.4c-0.5,0.3-0.7,0.8-0.4,1.4
	c0.4,0.8,0.4,1.6,0,2.4c-0.3,0.5-0.1,1,0.3,1.3C128.1,169,128.7,169.3,129.4,169.6z M124.5,166.1c0.2-1.2-0.3-2-1.1-2.8
	c-0.8-0.8-1.6-1.2-2.8-1.3c-1.2,0-2.2,0.4-3,1.3c-0.8,0.8-1.2,1.7-1.2,2.8c0,1.2,0.4,2,1.2,2.8c0.8,0.8,1.6,1.2,2.8,1.3
	c1.2,0,2.2-0.4,3-1.3C124.1,168.2,124.7,167.3,124.5,166.1z"/>
<path d="M121.9,166.2c0,0.4-1.1,1.4-1.5,1.4c-0.5,0-1.5-1.1-1.5-1.6c0.1-0.4,1.2-1.4,1.6-1.3C121,164.7,122,165.8,121.9,166.2z"/>
<g>
	<path class="st1" d="M72.7,160.2h8.7v-0.1h8.7"/>
	<path class="st2" d="M64.9,160h14.7v-0.1h4.6"/>
	<path class="st3" d="M84.1,161.8l4.5-1.7l-4.5-1.7V161.8z"/>
</g>
<g>
	<path class="st1" d="M359.5,160.2h8.7v-0.1h8.7"/>
	<path class="st2" d="M351.7,160h14.7v-0.1h4.6"/>
	<path class="st3" d="M370.9,161.8l4.5-1.7l-4.5-1.7V161.8z"/>
</g>
<path class="st4" d="M159.9,157.1c-0.4,0-0.8-0.2-1.1-0.5c-0.3-0.3-0.5-0.7-0.5-1.1v-6.4c0-0.4,0.2-0.8,0.5-1.1
	c0.3-0.3,0.7-0.5,1.1-0.5h8v1.1h-8c-0.1,0-0.3,0.1-0.4,0.2c-0.1,0.1-0.1,0.2-0.1,0.4v6.4c0,0.1,0,0.3,0.1,0.4
	c0.1,0.1,0.2,0.2,0.4,0.2h8v1.1H159.9z M169.3,157.1v-9.6h1.5l4,4.8l4-4.8h1.5v9.6h-1.1v-8.4l-4.4,5.2l-4.4-5.2v8.4H169.3z
	 M183.2,157.1c-0.4,0-0.8-0.2-1.1-0.5c-0.3-0.3-0.5-0.7-0.5-1.1v-0.4h1.1v0.4c0,0.1,0,0.3,0.1,0.4c0.1,0.1,0.2,0.2,0.4,0.2h6.4
	c0.1,0,0.3-0.1,0.4-0.2c0.1-0.1,0.2-0.2,0.2-0.4v-2.2c0-0.1-0.1-0.2-0.2-0.3c-0.1-0.1-0.2-0.2-0.4-0.2h-6.4c-0.4,0-0.8-0.2-1.1-0.5
	c-0.3-0.3-0.5-0.7-0.5-1.1v-2.2c0-0.4,0.2-0.8,0.5-1.1c0.3-0.3,0.7-0.5,1.1-0.5h6.4c0.4,0,0.8,0.2,1.1,0.5s0.5,0.7,0.5,1.1v0.4h-1.1
	v-0.4c0-0.1-0.1-0.3-0.2-0.4c-0.1-0.1-0.2-0.2-0.4-0.2h-6.4c-0.1,0-0.3,0.1-0.4,0.2c-0.1,0.1-0.1,0.2-0.1,0.4v2.2
	c0,0.1,0,0.3,0.1,0.4c0.1,0.1,0.2,0.1,0.4,0.1h6.4c0.4,0,0.8,0.2,1.1,0.5c0.3,0.3,0.5,0.7,0.5,1.1v2.2c0,0.4-0.2,0.8-0.5,1.1
	s-0.7,0.5-1.1,0.5H183.2z"/>
<path class="st4" d="M158.3,173.1v-9.6h1.5l4,4.8l4-4.8h1.5v9.6h-1.1v-8.4l-4.4,5.2l-4.4-5.2v8.4H158.3z M172.2,173.1
	c-0.4,0-0.8-0.2-1.2-0.5c-0.3-0.3-0.5-0.7-0.5-1.1v-2.8h6.8V167c0-0.1-0.1-0.3-0.2-0.4c-0.1-0.1-0.2-0.2-0.4-0.2h-6.2v-1.1h6.2
	c0.5,0,0.8,0.2,1.2,0.5c0.3,0.3,0.5,0.7,0.5,1.1v6.1H172.2z M172.2,172h5.2v-2.2h-5.7v1.7c0,0.1,0.1,0.3,0.2,0.4
	C172,171.9,172.1,172,172.2,172z M179.7,173.1v-7.7h6.3c0.4,0,0.8,0.2,1.1,0.5c0.3,0.3,0.5,0.7,0.5,1.1v6.1h-1.1V167
	c0-0.1-0.1-0.3-0.2-0.4c-0.1-0.1-0.2-0.2-0.4-0.2h-4.6c-0.1,0-0.3,0.1-0.4,0.2c-0.1,0.1-0.2,0.2-0.2,0.4v6.1H179.7z M190.6,173.1
	c-0.4,0-0.8-0.2-1.2-0.5c-0.3-0.3-0.5-0.7-0.5-1.1v-2.8h6.8V167c0-0.1-0.1-0.3-0.2-0.4c-0.1-0.1-0.2-0.2-0.4-0.2h-6.2v-1.1h6.2
	c0.5,0,0.8,0.2,1.2,0.5c0.3,0.3,0.5,0.7,0.5,1.1v6.1H190.6z M190.6,172h5.2v-2.2H190v1.7c0,0.1,0.1,0.3,0.2,0.4
	C190.3,171.9,190.4,172,190.6,172z M199.5,176.1V175h4.8c0.1,0,0.3-0.1,0.4-0.2c0.1-0.1,0.2-0.2,0.2-0.4v-1.4h-5.2
	c-0.4,0-0.8-0.2-1.1-0.5c-0.3-0.3-0.5-0.7-0.5-1.1V167c0-0.4,0.2-0.8,0.5-1.1c0.3-0.3,0.7-0.5,1.1-0.5h4.6c0.5,0,0.8,0.2,1.1,0.5
	c0.3,0.3,0.5,0.7,0.5,1.1v7.5c0,0.5-0.2,0.8-0.5,1.2c-0.3,0.3-0.7,0.5-1.1,0.5H199.5z M199.7,172h4.6c0.1,0,0.3-0.1,0.4-0.2
	c0.1-0.1,0.2-0.2,0.2-0.4V167c0-0.1-0.1-0.3-0.2-0.4c-0.1-0.1-0.2-0.2-0.4-0.2h-4.6c-0.1,0-0.3,0.1-0.4,0.2
	c-0.1,0.1-0.2,0.2-0.2,0.4v4.5c0,0.1,0.1,0.3,0.2,0.4C199.4,171.9,199.5,172,199.7,172z M208.7,173.1c-0.4,0-0.8-0.2-1.1-0.5
	c-0.3-0.3-0.5-0.7-0.5-1.1V167c0-0.4,0.2-0.8,0.5-1.1c0.3-0.3,0.7-0.5,1.1-0.5h4.6c0.4,0,0.8,0.2,1.1,0.5c0.3,0.3,0.5,0.7,0.5,1.1
	v2.8h-6.8v1.7c0,0.1,0.1,0.3,0.2,0.4c0.1,0.1,0.2,0.2,0.4,0.2h6.3v1.1H208.7z M208.2,168.7h5.7V167c0-0.1-0.1-0.3-0.2-0.4
	c-0.1-0.1-0.2-0.2-0.4-0.2h-4.6c-0.1,0-0.3,0.1-0.4,0.2c-0.1,0.1-0.2,0.2-0.2,0.4V168.7z M216.3,173.1v-7.7h10.2
	c0.5,0,0.8,0.2,1.2,0.5c0.3,0.3,0.5,0.7,0.5,1.1v6.1h-1.1V167c0-0.1-0.1-0.3-0.2-0.4c-0.1-0.1-0.2-0.2-0.4-0.2h-3.2
	c-0.1,0-0.3,0.1-0.4,0.2c-0.1,0.1-0.1,0.2-0.1,0.4v6.1h-1.1V167c0-0.1-0.1-0.3-0.2-0.4c-0.1-0.1-0.2-0.2-0.4-0.2H218
	c-0.1,0-0.3,0.1-0.4,0.2c-0.1,0.1-0.1,0.2-0.1,0.4v6.1H216.3z M231,173.1c-0.4,0-0.8-0.2-1.1-0.5c-0.3-0.3-0.5-0.7-0.5-1.1V167
	c0-0.4,0.2-0.8,0.5-1.1c0.3-0.3,0.7-0.5,1.1-0.5h4.6c0.4,0,0.8,0.2,1.1,0.5c0.3,0.3,0.5,0.7,0.5,1.1v2.8h-6.8v1.7
	c0,0.1,0.1,0.3,0.2,0.4c0.1,0.1,0.2,0.2,0.4,0.2h6.3v1.1H231z M230.4,168.7h5.7V167c0-0.1-0.1-0.3-0.2-0.4c-0.1-0.1-0.2-0.2-0.4-0.2
	H231c-0.1,0-0.3,0.1-0.4,0.2c-0.1,0.1-0.2,0.2-0.2,0.4V168.7z M238.6,173.1v-7.7h6.3c0.4,0,0.8,0.2,1.1,0.5c0.3,0.3,0.5,0.7,0.5,1.1
	v6.1h-1.1V167c0-0.1-0.1-0.3-0.2-0.4c-0.1-0.1-0.2-0.2-0.4-0.2h-4.6c-0.1,0-0.3,0.1-0.4,0.2c-0.1,0.1-0.2,0.2-0.2,0.4v6.1H238.6z
	 M249.5,173.1c-0.4,0-0.8-0.2-1.1-0.5c-0.3-0.3-0.5-0.7-0.5-1.1v-8.7h1.1v2.5h3.3v1.1H249v5c0,0.1,0.1,0.3,0.2,0.4
	c0.1,0.1,0.2,0.2,0.4,0.2h2.8v1.1H249.5z"/>
<g>
	<path class="st1" d="M120.1,188.8v54.5h29.5"/>
	<path class="st2" d="M120.1,188.8v54.5h23.5"/>
	<path class="st3" d="M143.6,244.9l4.5-1.7l-4.5-1.7V244.9z"/>
</g>
<g>
	<path class="st1" d="M149.6,75.9h-29.5v54.5"/>
	<path class="st2" d="M143.6,75.9h-23.5v54.5"/>
	<path class="st3" d="M143.6,77.6l4.5-1.7l-4.5-1.7V77.6z"/>
</g>
<g>
	<path class="st2" d="M317.5,124.4V74.2H203.6"/>
	<path class="st3" d="M315.8,124.4l1.7,4.5l1.7-4.5H315.8z"/>
</g>
<g>
	<path class="st2" d="M203.6,244.1h113.8v-50.1"/>
	<path class="st3" d="M319.1,193.9l-1.7-4.5l-1.7,4.5H319.1z"/>
</g>
<path class="st4" d="M138.3,27.5v-9.6h8c0.4,0,0.8,0.2,1.1,0.5s0.5,0.7,0.5,1.1v2.8c0,0.4-0.2,0.8-0.5,1.1s-0.7,0.5-1.1,0.5h-6.9
	v3.6H138.3z M139.9,22.8h6.4c0.1,0,0.3,0,0.4-0.1c0.1-0.1,0.2-0.2,0.2-0.4v-2.8c0-0.1-0.1-0.3-0.2-0.4c-0.1-0.1-0.2-0.2-0.4-0.2
	h-6.4c-0.1,0-0.3,0.1-0.4,0.2c-0.1,0.1-0.1,0.2-0.1,0.4v2.8c0,0.1,0,0.3,0.1,0.4C139.6,22.8,139.8,22.8,139.9,22.8z M148.9,27.5
	v-9.6h1.1v4.2h7.7v-4.2h1.1v9.6h-1.1v-4.2h-7.7v4.2H148.9z M160.2,27.5v-9.6h8c0.4,0,0.8,0.2,1.1,0.5s0.5,0.7,0.5,1.1v2.8
	c0,0.4-0.2,0.8-0.5,1.1s-0.7,0.5-1.1,0.5h-6.9v3.6H160.2z M161.8,22.8h6.4c0.1,0,0.3,0,0.4-0.1s0.2-0.2,0.2-0.4v-2.8
	c0-0.1-0.1-0.3-0.2-0.4c-0.1-0.1-0.2-0.2-0.4-0.2h-6.4c-0.1,0-0.3,0.1-0.4,0.2c-0.1,0.1-0.1,0.2-0.1,0.4v2.8c0,0.1,0,0.3,0.1,0.4
	C161.5,22.8,161.6,22.8,161.8,22.8z M174.4,27.5v-9.6h1.5l4,4.8l4-4.8h1.5v9.6h-1.1v-8.4l-4.4,5.2l-4.4-5.2v8.4H174.4z M188.3,27.5
	c-0.4,0-0.8-0.2-1.2-0.5c-0.3-0.3-0.5-0.7-0.5-1.1v-2.8h6.8v-1.7c0-0.1-0.1-0.3-0.2-0.4c-0.1-0.1-0.2-0.2-0.4-0.2h-6.2v-1.1h6.2
	c0.5,0,0.8,0.2,1.2,0.5c0.3,0.3,0.5,0.7,0.5,1.1v6.1H188.3z M188.3,26.4h5.2v-2.2h-5.7v1.7c0,0.1,0.1,0.3,0.2,0.4
	C188,26.3,188.1,26.4,188.3,26.4z M195.7,27.5v-7.7h6.3c0.4,0,0.8,0.2,1.1,0.5c0.3,0.3,0.5,0.7,0.5,1.1v6.1h-1.1v-6.1
	c0-0.1-0.1-0.3-0.2-0.4c-0.1-0.1-0.2-0.2-0.4-0.2h-4.6c-0.1,0-0.3,0.1-0.4,0.2c-0.1,0.1-0.2,0.2-0.2,0.4v6.1H195.7z M206.6,27.5
	c-0.4,0-0.8-0.2-1.2-0.5c-0.3-0.3-0.5-0.7-0.5-1.1v-2.8h6.8v-1.7c0-0.1-0.1-0.3-0.2-0.4s-0.2-0.2-0.4-0.2H205v-1.1h6.2
	c0.5,0,0.8,0.2,1.2,0.5c0.3,0.3,0.5,0.7,0.5,1.1v6.1H206.6z M206.6,26.4h5.2v-2.2h-5.7v1.7c0,0.1,0.1,0.3,0.2,0.4
	S206.5,26.4,206.6,26.4z M215.5,30.5v-1.1h4.8c0.1,0,0.3-0.1,0.4-0.2c0.1-0.1,0.2-0.2,0.2-0.4v-1.4h-5.2c-0.4,0-0.8-0.2-1.1-0.5
	c-0.3-0.3-0.5-0.7-0.5-1.1v-4.5c0-0.4,0.2-0.8,0.5-1.1c0.3-0.3,0.7-0.5,1.1-0.5h4.6c0.5,0,0.8,0.2,1.1,0.5c0.3,0.3,0.5,0.7,0.5,1.1
	v7.5c0,0.5-0.2,0.8-0.5,1.2c-0.3,0.3-0.7,0.5-1.1,0.5H215.5z M215.7,26.4h4.6c0.1,0,0.3-0.1,0.4-0.2c0.1-0.1,0.2-0.2,0.2-0.4v-4.5
	c0-0.1-0.1-0.3-0.2-0.4c-0.1-0.1-0.2-0.2-0.4-0.2h-4.6c-0.1,0-0.3,0.1-0.4,0.2c-0.1,0.1-0.2,0.2-0.2,0.4v4.5c0,0.1,0.1,0.3,0.2,0.4
	C215.5,26.3,215.6,26.4,215.7,26.4z M224.8,27.5c-0.4,0-0.8-0.2-1.1-0.5c-0.3-0.3-0.5-0.7-0.5-1.1v-4.5c0-0.4,0.2-0.8,0.5-1.1
	c0.3-0.3,0.7-0.5,1.1-0.5h4.6c0.4,0,0.8,0.2,1.1,0.5c0.3,0.3,0.5,0.7,0.5,1.1v2.8h-6.8v1.7c0,0.1,0.1,0.3,0.2,0.4
	c0.1,0.1,0.2,0.2,0.4,0.2h6.3v1.1H224.8z M224.2,23.1h5.7v-1.7c0-0.1-0.1-0.3-0.2-0.4c-0.1-0.1-0.2-0.2-0.4-0.2h-4.6
	c-0.1,0-0.3,0.1-0.4,0.2c-0.1,0.1-0.2,0.2-0.2,0.4V23.1z"/>
<path class="st4" d="M123.1,43.5c-0.4,0-0.8-0.2-1.1-0.5c-0.3-0.3-0.5-0.7-0.5-1.1v-0.1h1.1v0.1c0,0.1,0.1,0.3,0.2,0.4
	s0.2,0.2,0.4,0.2h4.6c0.1,0,0.3-0.1,0.4-0.2c0.1-0.1,0.2-0.2,0.2-0.4v-1.2c0-0.1-0.1-0.3-0.2-0.4c-0.1-0.1-0.2-0.2-0.4-0.2h-4.6
	c-0.4,0-0.8-0.2-1.1-0.5c-0.3-0.3-0.5-0.7-0.5-1.2v-1.2c0-0.4,0.2-0.8,0.5-1.1c0.3-0.3,0.7-0.5,1.1-0.5h4.6c0.5,0,0.8,0.2,1.2,0.5
	c0.3,0.3,0.5,0.7,0.5,1.1v0.1h-1.1v-0.1c0-0.1-0.1-0.3-0.2-0.4c-0.1-0.1-0.2-0.2-0.4-0.2h-4.6c-0.1,0-0.3,0.1-0.4,0.2
	s-0.2,0.2-0.2,0.4v1.2c0,0.1,0.1,0.3,0.2,0.4s0.2,0.2,0.4,0.2h4.6c0.5,0,0.8,0.2,1.2,0.5s0.5,0.7,0.5,1.1v1.2c0,0.4-0.2,0.8-0.5,1.1
	c-0.3,0.3-0.7,0.5-1.2,0.5H123.1z M132.1,43.5c-0.4,0-0.8-0.2-1.1-0.5c-0.3-0.3-0.5-0.7-0.5-1.1v-4.5c0-0.4,0.2-0.8,0.5-1.1
	c0.3-0.3,0.7-0.5,1.1-0.5h4.6c0.4,0,0.8,0.2,1.1,0.5c0.3,0.3,0.5,0.7,0.5,1.1v2.8h-6.8v1.7c0,0.1,0.1,0.3,0.2,0.4s0.2,0.2,0.4,0.2
	h6.3v1.1H132.1z M131.5,39.1h5.7v-1.7c0-0.1-0.1-0.3-0.2-0.4s-0.2-0.2-0.4-0.2h-4.6c-0.1,0-0.3,0.1-0.4,0.2s-0.2,0.2-0.2,0.4V39.1z
	 M139.7,43.5v-7.7h6.3c0.4,0,0.8,0.2,1.1,0.5c0.3,0.3,0.5,0.7,0.5,1.1v6.1h-1.1v-6.1c0-0.1-0.1-0.3-0.2-0.4
	c-0.1-0.1-0.2-0.2-0.4-0.2h-4.6c-0.1,0-0.3,0.1-0.4,0.2s-0.2,0.2-0.2,0.4v6.1H139.7z M150.5,43.5c-0.4,0-0.8-0.2-1.1-0.5
	c-0.3-0.3-0.5-0.7-0.5-1.1v-0.1h1.1v0.1c0,0.1,0.1,0.3,0.2,0.4c0.1,0.1,0.2,0.2,0.4,0.2h4.6c0.1,0,0.3-0.1,0.4-0.2
	c0.1-0.1,0.2-0.2,0.2-0.4v-1.2c0-0.1-0.1-0.3-0.2-0.4c-0.1-0.1-0.2-0.2-0.4-0.2h-4.6c-0.4,0-0.8-0.2-1.1-0.5
	c-0.3-0.3-0.5-0.7-0.5-1.2v-1.2c0-0.4,0.2-0.8,0.5-1.1c0.3-0.3,0.7-0.5,1.1-0.5h4.6c0.5,0,0.8,0.2,1.2,0.5c0.3,0.3,0.5,0.7,0.5,1.1
	v0.1h-1.1v-0.1c0-0.1-0.1-0.3-0.2-0.4c-0.1-0.1-0.2-0.2-0.4-0.2h-4.6c-0.1,0-0.3,0.1-0.4,0.2c-0.1,0.1-0.2,0.2-0.2,0.4v1.2
	c0,0.1,0.1,0.3,0.2,0.4c0.1,0.1,0.2,0.2,0.4,0.2h4.6c0.5,0,0.8,0.2,1.2,0.5s0.5,0.7,0.5,1.1v1.2c0,0.4-0.2,0.8-0.5,1.1
	c-0.3,0.3-0.7,0.5-1.2,0.5H150.5z M158.1,43.5v-7.7h1.1v7.7H158.1z M158.1,34.3v-1.1h1.1v1.1H158.1z M162.5,43.5
	c-0.4,0-0.8-0.2-1.1-0.5c-0.3-0.3-0.5-0.7-0.5-1.1v-8.7h1.1v2.5h3.3v1.1H162v5c0,0.1,0.1,0.3,0.2,0.4s0.2,0.2,0.4,0.2h2.8v1.1H162.5
	z M166.4,43.5v-7.7h1.1v7.7H166.4z M166.4,34.3v-1.1h1.1v1.1H166.4z M173,43.5l-4.3-7.7h1.3l3.6,6.7l3.6-6.7h1.3l-4.3,7.7H173z
	 M180.9,43.5c-0.4,0-0.8-0.2-1.1-0.5c-0.3-0.3-0.5-0.7-0.5-1.1v-4.5c0-0.4,0.2-0.8,0.5-1.1c0.3-0.3,0.7-0.5,1.1-0.5h4.6
	c0.4,0,0.8,0.2,1.1,0.5c0.3,0.3,0.5,0.7,0.5,1.1v2.8h-6.8v1.7c0,0.1,0.1,0.3,0.2,0.4c0.1,0.1,0.2,0.2,0.4,0.2h6.3v1.1H180.9z
	 M180.3,39.1h5.7v-1.7c0-0.1-0.1-0.3-0.2-0.4c-0.1-0.1-0.2-0.2-0.4-0.2h-4.6c-0.1,0-0.3,0.1-0.4,0.2c-0.1,0.1-0.2,0.2-0.2,0.4V39.1z
	 M193.7,43.5c-0.4,0-0.8-0.2-1.1-0.5c-0.3-0.3-0.5-0.7-0.5-1.1v-4.5c0-0.4,0.2-0.8,0.5-1.1c0.3-0.3,0.7-0.5,1.1-0.5h6.2v1.1h-6.2
	c-0.1,0-0.3,0.1-0.4,0.2c-0.1,0.1-0.2,0.2-0.2,0.4v4.5c0,0.1,0.1,0.3,0.2,0.4c0.1,0.1,0.2,0.2,0.4,0.2h6.3v1.1H193.7z M203,43.5
	c-0.4,0-0.8-0.2-1.1-0.5c-0.3-0.3-0.5-0.7-0.5-1.1v-4.5c0-0.4,0.2-0.8,0.5-1.1c0.3-0.3,0.7-0.5,1.1-0.5h4.6c0.4,0,0.8,0.2,1.1,0.5
	c0.3,0.3,0.5,0.7,0.5,1.1v4.5c0,0.4-0.2,0.8-0.5,1.1c-0.3,0.3-0.7,0.5-1.1,0.5H203z M203,42.4h4.6c0.1,0,0.3-0.1,0.4-0.2
	s0.2-0.2,0.2-0.4v-4.5c0-0.1-0.1-0.3-0.2-0.4s-0.2-0.2-0.4-0.2H203c-0.1,0-0.3,0.1-0.4,0.2s-0.2,0.2-0.2,0.4v4.5
	c0,0.1,0.1,0.3,0.2,0.4S202.8,42.4,203,42.4z M210.4,43.5v-7.7h6.3c0.4,0,0.8,0.2,1.1,0.5c0.3,0.3,0.5,0.7,0.5,1.1v6.1h-1.1v-6.1
	c0-0.1-0.1-0.3-0.2-0.4c-0.1-0.1-0.2-0.2-0.4-0.2H212c-0.1,0-0.3,0.1-0.4,0.2s-0.2,0.2-0.2,0.4v6.1H210.4z M221.3,43.5
	c-0.4,0-0.8-0.2-1.1-0.5c-0.3-0.3-0.5-0.7-0.5-1.1v-8.7h1.1v2.5h3.3v1.1h-3.3v5c0,0.1,0.1,0.3,0.2,0.4c0.1,0.1,0.2,0.2,0.4,0.2h2.8
	v1.1H221.3z M226.7,43.5c-0.4,0-0.8-0.2-1.1-0.5c-0.3-0.3-0.5-0.7-0.5-1.1v-4.5c0-0.4,0.2-0.8,0.5-1.1c0.3-0.3,0.7-0.5,1.1-0.5h4.6
	c0.4,0,0.8,0.2,1.1,0.5c0.3,0.3,0.5,0.7,0.5,1.1v2.8h-6.8v1.7c0,0.1,0.1,0.3,0.2,0.4s0.2,0.2,0.4,0.2h6.3v1.1H226.7z M226.2,39.1
	h5.7v-1.7c0-0.1-0.1-0.3-0.2-0.4s-0.2-0.2-0.4-0.2h-4.6c-0.1,0-0.3,0.1-0.4,0.2s-0.2,0.2-0.2,0.4V39.1z M234.4,43.5v-7.7h6.3
	c0.4,0,0.8,0.2,1.1,0.5c0.3,0.3,0.5,0.7,0.5,1.1v6.1h-1.1v-6.1c0-0.1-0.1-0.3-0.2-0.4c-0.1-0.1-0.2-0.2-0.4-0.2H236
	c-0.1,0-0.3,0.1-0.4,0.2s-0.2,0.2-0.2,0.4v6.1H234.4z M245.2,43.5c-0.4,0-0.8-0.2-1.1-0.5c-0.3-0.3-0.5-0.7-0.5-1.1v-8.7h1.1v2.5
	h3.3v1.1h-3.3v5c0,0.1,0.1,0.3,0.2,0.4c0.1,0.1,0.2,0.2,0.4,0.2h2.8v1.1H245.2z"/>
<path class="st4" d="M106.7,287.1v-9.6h8.8v1.1h-7.7v3.2h6.2v1.1h-6.2v4.2H106.7z M116.3,287.1v-7.7h1.1v7.7H116.3z M116.3,277.9
	v-1.1h1.1v1.1H116.3z M119.1,287.1V281c0-0.4,0.2-0.8,0.5-1.1c0.3-0.3,0.7-0.5,1.2-0.5h4.3v1.1h-4.3c-0.1,0-0.3,0.1-0.4,0.2
	c-0.1,0.1-0.2,0.2-0.2,0.4v6.1H119.1z M127.5,287.1c-0.4,0-0.8-0.2-1.1-0.5c-0.3-0.3-0.5-0.7-0.5-1.1V281c0-0.4,0.2-0.8,0.5-1.1
	c0.3-0.3,0.7-0.5,1.1-0.5h4.6c0.4,0,0.8,0.2,1.1,0.5c0.3,0.3,0.5,0.7,0.5,1.1v2.8H127v1.7c0,0.1,0.1,0.3,0.2,0.4
	c0.1,0.1,0.2,0.2,0.4,0.2h6.3v1.1H127.5z M127,282.7h5.7V281c0-0.1-0.1-0.3-0.2-0.4c-0.1-0.1-0.2-0.2-0.4-0.2h-4.6
	c-0.1,0-0.3,0.1-0.4,0.2c-0.1,0.1-0.2,0.2-0.2,0.4V282.7z M136.7,287.1c-0.4,0-0.8-0.2-1.1-0.5c-0.3-0.3-0.5-0.7-0.5-1.1v-0.1h1.1
	v0.1c0,0.1,0.1,0.3,0.2,0.4s0.2,0.2,0.4,0.2h4.6c0.1,0,0.3-0.1,0.4-0.2c0.1-0.1,0.2-0.2,0.2-0.4v-1.2c0-0.1-0.1-0.3-0.2-0.4
	c-0.1-0.1-0.2-0.2-0.4-0.2h-4.6c-0.4,0-0.8-0.2-1.1-0.5c-0.3-0.3-0.5-0.7-0.5-1.2V281c0-0.4,0.2-0.8,0.5-1.1
	c0.3-0.3,0.7-0.5,1.1-0.5h4.6c0.5,0,0.8,0.2,1.2,0.5c0.3,0.3,0.5,0.7,0.5,1.1v0.1h-1.1V281c0-0.1-0.1-0.3-0.2-0.4
	c-0.1-0.1-0.2-0.2-0.4-0.2h-4.6c-0.1,0-0.3,0.1-0.4,0.2s-0.2,0.2-0.2,0.4v1.2c0,0.1,0.1,0.3,0.2,0.4s0.2,0.2,0.4,0.2h4.6
	c0.5,0,0.8,0.2,1.2,0.5s0.5,0.7,0.5,1.1v1.2c0,0.4-0.2,0.8-0.5,1.1c-0.3,0.3-0.7,0.5-1.2,0.5H136.7z M145.9,287.1
	c-0.4,0-0.8-0.2-1.1-0.5c-0.3-0.3-0.5-0.7-0.5-1.1v-8.7h1.1v2.5h3.3v1.1h-3.3v5c0,0.1,0.1,0.3,0.2,0.4s0.2,0.2,0.4,0.2h2.8v1.1
	H145.9z M151.3,287.1c-0.4,0-0.8-0.2-1.1-0.5c-0.3-0.3-0.5-0.7-0.5-1.1V281c0-0.4,0.2-0.8,0.5-1.1c0.3-0.3,0.7-0.5,1.1-0.5h4.6
	c0.4,0,0.8,0.2,1.1,0.5c0.3,0.3,0.5,0.7,0.5,1.1v4.5c0,0.4-0.2,0.8-0.5,1.1c-0.3,0.3-0.7,0.5-1.1,0.5H151.3z M151.3,286h4.6
	c0.1,0,0.3-0.1,0.4-0.2c0.1-0.1,0.2-0.2,0.2-0.4V281c0-0.1-0.1-0.3-0.2-0.4c-0.1-0.1-0.2-0.2-0.4-0.2h-4.6c-0.1,0-0.3,0.1-0.4,0.2
	c-0.1,0.1-0.2,0.2-0.2,0.4v4.5c0,0.1,0.1,0.3,0.2,0.4C151.1,286,151.2,286,151.3,286z M158.8,287.1V281c0-0.4,0.2-0.8,0.5-1.1
	c0.3-0.3,0.7-0.5,1.2-0.5h4.3v1.1h-4.3c-0.1,0-0.3,0.1-0.4,0.2s-0.2,0.2-0.2,0.4v6.1H158.8z M167.3,287.1c-0.4,0-0.8-0.2-1.2-0.5
	c-0.3-0.3-0.5-0.7-0.5-1.1v-2.8h6.8V281c0-0.1-0.1-0.3-0.2-0.4s-0.2-0.2-0.4-0.2h-6.2v-1.1h6.2c0.5,0,0.8,0.2,1.2,0.5
	c0.3,0.3,0.5,0.7,0.5,1.1v6.1H167.3z M167.3,286h5.2v-2.2h-5.7v1.7c0,0.1,0.1,0.3,0.2,0.4S167.1,286,167.3,286z M176.2,290.2v-1.1
	h4.8c0.1,0,0.3-0.1,0.4-0.2c0.1-0.1,0.2-0.2,0.2-0.4v-1.4h-5.2c-0.4,0-0.8-0.2-1.1-0.5c-0.3-0.3-0.5-0.7-0.5-1.1V281
	c0-0.4,0.2-0.8,0.5-1.1c0.3-0.3,0.7-0.5,1.1-0.5h4.6c0.5,0,0.8,0.2,1.1,0.5c0.3,0.3,0.5,0.7,0.5,1.1v7.5c0,0.5-0.2,0.8-0.5,1.2
	c-0.3,0.3-0.7,0.5-1.1,0.5H176.2z M176.4,286h4.6c0.1,0,0.3-0.1,0.4-0.2c0.1-0.1,0.2-0.2,0.2-0.4V281c0-0.1-0.1-0.3-0.2-0.4
	c-0.1-0.1-0.2-0.2-0.4-0.2h-4.6c-0.1,0-0.3,0.1-0.4,0.2c-0.1,0.1-0.2,0.2-0.2,0.4v4.5c0,0.1,0.1,0.3,0.2,0.4
	C176.1,286,176.2,286,176.4,286z M185.4,287.1c-0.4,0-0.8-0.2-1.1-0.5c-0.3-0.3-0.5-0.7-0.5-1.1V281c0-0.4,0.2-0.8,0.5-1.1
	c0.3-0.3,0.7-0.5,1.1-0.5h4.6c0.4,0,0.8,0.2,1.1,0.5c0.3,0.3,0.5,0.7,0.5,1.1v2.8h-6.8v1.7c0,0.1,0.1,0.3,0.2,0.4
	c0.1,0.1,0.2,0.2,0.4,0.2h6.3v1.1H185.4z M184.9,282.7h5.7V281c0-0.1-0.1-0.3-0.2-0.4c-0.1-0.1-0.2-0.2-0.4-0.2h-4.6
	c-0.1,0-0.3,0.1-0.4,0.2c-0.1,0.1-0.2,0.2-0.2,0.4V282.7z M196.7,287.1v-7.7h10.2c0.5,0,0.8,0.2,1.2,0.5c0.3,0.3,0.5,0.7,0.5,1.1
	v6.1h-1.1V281c0-0.1-0.1-0.3-0.2-0.4c-0.1-0.1-0.2-0.2-0.4-0.2h-3.2c-0.1,0-0.3,0.1-0.4,0.2c-0.1,0.1-0.1,0.2-0.1,0.4v6.1H202V281
	c0-0.1-0.1-0.3-0.2-0.4c-0.1-0.1-0.2-0.2-0.4-0.2h-3.2c-0.1,0-0.3,0.1-0.4,0.2c-0.1,0.1-0.1,0.2-0.1,0.4v6.1H196.7z M211.3,287.1
	c-0.4,0-0.8-0.2-1.2-0.5c-0.3-0.3-0.5-0.7-0.5-1.1v-2.8h6.8V281c0-0.1-0.1-0.3-0.2-0.4s-0.2-0.2-0.4-0.2h-6.2v-1.1h6.2
	c0.5,0,0.8,0.2,1.2,0.5c0.3,0.3,0.5,0.7,0.5,1.1v6.1H211.3z M211.3,286h5.2v-2.2h-5.7v1.7c0,0.1,0.1,0.3,0.2,0.4
	S211.1,286,211.3,286z M218.8,287.1v-7.7h6.3c0.4,0,0.8,0.2,1.1,0.5c0.3,0.3,0.5,0.7,0.5,1.1v6.1h-1.1V281c0-0.1-0.1-0.3-0.2-0.4
	c-0.1-0.1-0.2-0.2-0.4-0.2h-4.6c-0.1,0-0.3,0.1-0.4,0.2c-0.1,0.1-0.2,0.2-0.2,0.4v6.1H218.8z M229.6,287.1c-0.4,0-0.8-0.2-1.2-0.5
	c-0.3-0.3-0.5-0.7-0.5-1.1v-2.8h6.8V281c0-0.1-0.1-0.3-0.2-0.4c-0.1-0.1-0.2-0.2-0.4-0.2H228v-1.1h6.2c0.5,0,0.8,0.2,1.2,0.5
	c0.3,0.3,0.5,0.7,0.5,1.1v6.1H229.6z M229.6,286h5.2v-2.2h-5.7v1.7c0,0.1,0.1,0.3,0.2,0.4C229.4,286,229.5,286,229.6,286z
	 M238.5,290.2v-1.1h4.8c0.1,0,0.3-0.1,0.4-0.2c0.1-0.1,0.2-0.2,0.2-0.4v-1.4h-5.2c-0.4,0-0.8-0.2-1.1-0.5c-0.3-0.3-0.5-0.7-0.5-1.1
	V281c0-0.4,0.2-0.8,0.5-1.1c0.3-0.3,0.7-0.5,1.1-0.5h4.6c0.5,0,0.8,0.2,1.1,0.5c0.3,0.3,0.5,0.7,0.5,1.1v7.5c0,0.5-0.2,0.8-0.5,1.2
	c-0.3,0.3-0.7,0.5-1.1,0.5H238.5z M238.7,286h4.6c0.1,0,0.3-0.1,0.4-0.2c0.1-0.1,0.2-0.2,0.2-0.4V281c0-0.1-0.1-0.3-0.2-0.4
	c-0.1-0.1-0.2-0.2-0.4-0.2h-4.6c-0.1,0-0.3,0.1-0.4,0.2s-0.2,0.2-0.2,0.4v4.5c0,0.1,0.1,0.3,0.2,0.4S238.6,286,238.7,286z
	 M247.8,287.1c-0.4,0-0.8-0.2-1.1-0.5c-0.3-0.3-0.5-0.7-0.5-1.1V281c0-0.4,0.2-0.8,0.5-1.1c0.3-0.3,0.7-0.5,1.1-0.5h4.6
	c0.4,0,0.8,0.2,1.1,0.5c0.3,0.3,0.5,0.7,0.5,1.1v2.8h-6.8v1.7c0,0.1,0.1,0.3,0.2,0.4s0.2,0.2,0.4,0.2h6.3v1.1H247.8z M247.2,282.7
	h5.7V281c0-0.1-0.1-0.3-0.2-0.4s-0.2-0.2-0.4-0.2h-4.6c-0.1,0-0.3,0.1-0.4,0.2s-0.2,0.2-0.2,0.4V282.7z"/>
<path class="st4" d="M123.7,306.2v-1.1h4.8c0.1,0,0.3-0.1,0.4-0.2c0.1-0.1,0.2-0.2,0.2-0.4v-1.4h-5.2c-0.4,0-0.8-0.2-1.1-0.5
	c-0.3-0.3-0.5-0.7-0.5-1.1V297c0-0.4,0.2-0.8,0.5-1.1c0.3-0.3,0.7-0.5,1.1-0.5h4.6c0.5,0,0.8,0.2,1.1,0.5c0.3,0.3,0.5,0.7,0.5,1.1
	v7.5c0,0.5-0.2,0.8-0.5,1.2c-0.3,0.3-0.7,0.5-1.1,0.5H123.7z M123.9,302h4.6c0.1,0,0.3-0.1,0.4-0.2c0.1-0.1,0.2-0.2,0.2-0.4V297
	c0-0.1-0.1-0.3-0.2-0.4c-0.1-0.1-0.2-0.2-0.4-0.2h-4.6c-0.1,0-0.3,0.1-0.4,0.2c-0.1,0.1-0.2,0.2-0.2,0.4v4.5c0,0.1,0.1,0.3,0.2,0.4
	C123.7,302,123.8,302,123.9,302z M133,303.1c-0.4,0-0.8-0.2-1.1-0.5c-0.3-0.3-0.5-0.7-0.5-1.1V297c0-0.4,0.2-0.8,0.5-1.1
	c0.3-0.3,0.7-0.5,1.1-0.5h4.6c0.4,0,0.8,0.2,1.1,0.5c0.3,0.3,0.5,0.7,0.5,1.1v2.8h-6.8v1.7c0,0.1,0.1,0.3,0.2,0.4
	c0.1,0.1,0.2,0.2,0.4,0.2h6.3v1.1H133z M132.4,298.7h5.7V297c0-0.1-0.1-0.3-0.2-0.4c-0.1-0.1-0.2-0.2-0.4-0.2H133
	c-0.1,0-0.3,0.1-0.4,0.2c-0.1,0.1-0.2,0.2-0.2,0.4V298.7z M140.6,303.1v-7.7h6.3c0.4,0,0.8,0.2,1.1,0.5c0.3,0.3,0.5,0.7,0.5,1.1v6.1
	h-1.1V297c0-0.1-0.1-0.3-0.2-0.4c-0.1-0.1-0.2-0.2-0.4-0.2h-4.6c-0.1,0-0.3,0.1-0.4,0.2s-0.2,0.2-0.2,0.4v6.1H140.6z M151.5,303.1
	c-0.4,0-0.8-0.2-1.1-0.5c-0.3-0.3-0.5-0.7-0.5-1.1V297c0-0.4,0.2-0.8,0.5-1.1c0.3-0.3,0.7-0.5,1.1-0.5h4.6c0.4,0,0.8,0.2,1.1,0.5
	c0.3,0.3,0.5,0.7,0.5,1.1v2.8h-6.8v1.7c0,0.1,0.1,0.3,0.2,0.4c0.1,0.1,0.2,0.2,0.4,0.2h6.3v1.1H151.5z M150.9,298.7h5.7V297
	c0-0.1-0.1-0.3-0.2-0.4c-0.1-0.1-0.2-0.2-0.4-0.2h-4.6c-0.1,0-0.3,0.1-0.4,0.2c-0.1,0.1-0.2,0.2-0.2,0.4V298.7z M159,303.1V297
	c0-0.4,0.2-0.8,0.5-1.1c0.3-0.3,0.7-0.5,1.2-0.5h4.3v1.1h-4.3c-0.1,0-0.3,0.1-0.4,0.2c-0.1,0.1-0.2,0.2-0.2,0.4v6.1H159z
	 M167.5,303.1c-0.4,0-0.8-0.2-1.2-0.5c-0.3-0.3-0.5-0.7-0.5-1.1v-2.8h6.8V297c0-0.1-0.1-0.3-0.2-0.4c-0.1-0.1-0.2-0.2-0.4-0.2h-6.2
	v-1.1h6.2c0.5,0,0.8,0.2,1.2,0.5c0.3,0.3,0.5,0.7,0.5,1.1v6.1H167.5z M167.5,302h5.2v-2.2h-5.7v1.7c0,0.1,0.1,0.3,0.2,0.4
	C167.2,302,167.3,302,167.5,302z M176.6,303.1c-0.4,0-0.8-0.2-1.2-0.5c-0.3-0.3-0.5-0.7-0.5-1.1v-8.7h1.1v8.7c0,0.1,0.1,0.3,0.2,0.4
	c0.1,0.1,0.2,0.2,0.4,0.2h1.3v1.1H176.6z M184.2,303.1c-0.4,0-0.8-0.2-1.1-0.5c-0.3-0.3-0.5-0.7-0.5-1.1V297c0-0.4,0.2-0.8,0.5-1.1
	c0.3-0.3,0.7-0.5,1.1-0.5h6.2v1.1h-6.2c-0.1,0-0.3,0.1-0.4,0.2c-0.1,0.1-0.2,0.2-0.2,0.4v4.5c0,0.1,0.1,0.3,0.2,0.4
	c0.1,0.1,0.2,0.2,0.4,0.2h6.3v1.1H184.2z M193.5,303.1c-0.4,0-0.8-0.2-1.1-0.5c-0.3-0.3-0.5-0.7-0.5-1.1V297c0-0.4,0.2-0.8,0.5-1.1
	c0.3-0.3,0.7-0.5,1.1-0.5h4.6c0.4,0,0.8,0.2,1.1,0.5c0.3,0.3,0.5,0.7,0.5,1.1v4.5c0,0.4-0.2,0.8-0.5,1.1c-0.3,0.3-0.7,0.5-1.1,0.5
	H193.5z M193.5,302h4.6c0.1,0,0.3-0.1,0.4-0.2c0.1-0.1,0.2-0.2,0.2-0.4V297c0-0.1-0.1-0.3-0.2-0.4c-0.1-0.1-0.2-0.2-0.4-0.2h-4.6
	c-0.1,0-0.3,0.1-0.4,0.2c-0.1,0.1-0.2,0.2-0.2,0.4v4.5c0,0.1,0.1,0.3,0.2,0.4C193.2,302,193.3,302,193.5,302z M200.9,303.1v-7.7h6.3
	c0.4,0,0.8,0.2,1.1,0.5c0.3,0.3,0.5,0.7,0.5,1.1v6.1h-1.1V297c0-0.1-0.1-0.3-0.2-0.4c-0.1-0.1-0.2-0.2-0.4-0.2h-4.6
	c-0.1,0-0.3,0.1-0.4,0.2c-0.1,0.1-0.2,0.2-0.2,0.4v6.1H200.9z M211.8,303.1c-0.4,0-0.8-0.2-1.1-0.5c-0.3-0.3-0.5-0.7-0.5-1.1v-8.7
	h1.1v2.5h3.3v1.1h-3.3v5c0,0.1,0.1,0.3,0.2,0.4s0.2,0.2,0.4,0.2h2.8v1.1H211.8z M217.2,303.1c-0.4,0-0.8-0.2-1.1-0.5
	c-0.3-0.3-0.5-0.7-0.5-1.1V297c0-0.4,0.2-0.8,0.5-1.1c0.3-0.3,0.7-0.5,1.1-0.5h4.6c0.4,0,0.8,0.2,1.1,0.5c0.3,0.3,0.5,0.7,0.5,1.1
	v2.8h-6.8v1.7c0,0.1,0.1,0.3,0.2,0.4c0.1,0.1,0.2,0.2,0.4,0.2h6.3v1.1H217.2z M216.7,298.7h5.7V297c0-0.1-0.1-0.3-0.2-0.4
	c-0.1-0.1-0.2-0.2-0.4-0.2h-4.6c-0.1,0-0.3,0.1-0.4,0.2c-0.1,0.1-0.2,0.2-0.2,0.4V298.7z M224.9,303.1v-7.7h6.3
	c0.4,0,0.8,0.2,1.1,0.5c0.3,0.3,0.5,0.7,0.5,1.1v6.1h-1.1V297c0-0.1-0.1-0.3-0.2-0.4c-0.1-0.1-0.2-0.2-0.4-0.2h-4.6
	c-0.1,0-0.3,0.1-0.4,0.2c-0.1,0.1-0.2,0.2-0.2,0.4v6.1H224.9z M235.7,303.1c-0.4,0-0.8-0.2-1.1-0.5c-0.3-0.3-0.5-0.7-0.5-1.1v-8.7
	h1.1v2.5h3.3v1.1h-3.3v5c0,0.1,0.1,0.3,0.2,0.4s0.2,0.2,0.4,0.2h2.8v1.1H235.7z"/>
<path class="st4" d="M360.5,200.2c-0.4,0-0.8-0.2-1.1-0.5c-0.3-0.3-0.5-0.7-0.5-1.1v-0.4h1.1v0.4c0,0.1,0,0.3,0.1,0.4
	c0.1,0.1,0.2,0.2,0.4,0.2h6.4c0.1,0,0.3-0.1,0.4-0.2c0.1-0.1,0.2-0.2,0.2-0.4v-2.2c0-0.1-0.1-0.2-0.2-0.3c-0.1-0.1-0.2-0.2-0.4-0.2
	h-6.4c-0.4,0-0.8-0.2-1.1-0.5c-0.3-0.3-0.5-0.7-0.5-1.1v-2.2c0-0.4,0.2-0.8,0.5-1.1c0.3-0.3,0.7-0.5,1.1-0.5h6.4
	c0.4,0,0.8,0.2,1.1,0.5c0.3,0.3,0.5,0.7,0.5,1.1v0.4h-1.1v-0.4c0-0.1-0.1-0.3-0.2-0.4c-0.1-0.1-0.2-0.2-0.4-0.2h-6.4
	c-0.1,0-0.3,0.1-0.4,0.2c-0.1,0.1-0.1,0.2-0.1,0.4v2.2c0,0.1,0,0.3,0.1,0.4c0.1,0.1,0.2,0.1,0.4,0.1h6.4c0.4,0,0.8,0.2,1.1,0.5
	c0.3,0.3,0.5,0.7,0.5,1.1v2.2c0,0.4-0.2,0.8-0.5,1.1c-0.3,0.3-0.7,0.5-1.1,0.5H360.5z M369.9,200.2v-10.3h1.1v2.5h5.2
	c0.4,0,0.8,0.2,1.1,0.5c0.3,0.3,0.5,0.7,0.5,1.1v6.1h-1.1v-6.1c0-0.1-0.1-0.3-0.2-0.4c-0.1-0.1-0.2-0.2-0.4-0.2h-4.6
	c-0.1,0-0.3,0.1-0.4,0.2s-0.2,0.2-0.2,0.4v6.1H369.9z M380.4,200.2c-0.4,0-0.8-0.2-1.1-0.5c-0.3-0.3-0.5-0.7-0.5-1.1v-4.5
	c0-0.4,0.2-0.8,0.5-1.1c0.3-0.3,0.7-0.5,1.1-0.5h4.6c0.4,0,0.8,0.2,1.1,0.5c0.3,0.3,0.5,0.7,0.5,1.1v4.5c0,0.4-0.2,0.8-0.5,1.1
	c-0.3,0.3-0.7,0.5-1.1,0.5H380.4z M380.4,199.1h4.6c0.1,0,0.3-0.1,0.4-0.2c0.1-0.1,0.2-0.2,0.2-0.4v-4.5c0-0.1-0.1-0.3-0.2-0.4
	c-0.1-0.1-0.2-0.2-0.4-0.2h-4.6c-0.1,0-0.3,0.1-0.4,0.2c-0.1,0.1-0.2,0.2-0.2,0.4v4.5c0,0.1,0.1,0.3,0.2,0.4
	C380.1,199.1,380.3,199.1,380.4,199.1z M390.4,200.2l-3-7.7h1.2l2.3,5.8l2.5-5.8h1.4l2.6,5.8l2.2-5.8h1.2l-2.9,7.7H397l-2.9-6.4
	l-2.7,6.4H390.4z M405.5,200.2v-7.7h1.1v7.7H405.5z M405.5,191v-1.1h1.1v1.1H405.5z M408.1,200.2v-7.7h6.3c0.4,0,0.8,0.2,1.1,0.5
	c0.3,0.3,0.5,0.7,0.5,1.1v6.1h-1.1v-6.1c0-0.1-0.1-0.3-0.2-0.4c-0.1-0.1-0.2-0.2-0.4-0.2h-4.6c-0.1,0-0.3,0.1-0.4,0.2
	s-0.2,0.2-0.2,0.4v6.1H408.1z M421,200.2v-9.6h8.8v1.1h-7.7v3.2h6.2v1.1h-6.2v4.2H421z M430.6,200.2v-6.1c0-0.4,0.2-0.8,0.5-1.1
	c0.3-0.3,0.7-0.5,1.2-0.5h4.3v1.1h-4.3c-0.1,0-0.3,0.1-0.4,0.2c-0.1,0.1-0.2,0.2-0.2,0.4v6.1H430.6z M438.9,200.2
	c-0.4,0-0.8-0.2-1.1-0.5c-0.3-0.3-0.5-0.7-0.5-1.1v-4.5c0-0.4,0.2-0.8,0.5-1.1c0.3-0.3,0.7-0.5,1.1-0.5h4.6c0.4,0,0.8,0.2,1.1,0.5
	c0.3,0.3,0.5,0.7,0.5,1.1v4.5c0,0.4-0.2,0.8-0.5,1.1c-0.3,0.3-0.7,0.5-1.1,0.5H438.9z M438.9,199.1h4.6c0.1,0,0.3-0.1,0.4-0.2
	c0.1-0.1,0.2-0.2,0.2-0.4v-4.5c0-0.1-0.1-0.3-0.2-0.4c-0.1-0.1-0.2-0.2-0.4-0.2h-4.6c-0.1,0-0.3,0.1-0.4,0.2
	c-0.1,0.1-0.2,0.2-0.2,0.4v4.5c0,0.1,0.1,0.3,0.2,0.4C438.7,199.1,438.8,199.1,438.9,199.1z M446.4,200.2v-7.7h6.3
	c0.4,0,0.8,0.2,1.1,0.5c0.3,0.3,0.5,0.7,0.5,1.1v6.1h-1.1v-6.1c0-0.1-0.1-0.3-0.2-0.4c-0.1-0.1-0.2-0.2-0.4-0.2H448
	c-0.1,0-0.3,0.1-0.4,0.2s-0.2,0.2-0.2,0.4v6.1H446.4z M457.3,200.2c-0.4,0-0.8-0.2-1.1-0.5c-0.3-0.3-0.5-0.7-0.5-1.1v-8.7h1.1v2.5
	h3.3v1.1h-3.3v5c0,0.1,0.1,0.3,0.2,0.4s0.2,0.2,0.4,0.2h2.8v1.1H457.3z"/>
<g>
	<path class="st0" d="M179.4,67.3c6.1,0,12.3,0,18.4,0c0.4,0,0.8,0,1.1,0c0.4,0,0.4,0.2,0.4,0.5c0,0.2,0,0.4,0,0.6
		c0,8.7,0,17.4,0,26.1c0,1.1,0,1.1-1.2,1.1c-7.1,0-14.2,0-21.2,0c-5.4,0-10.8,0-16.2,0c-0.3,0-0.6,0-1,0c-0.4,0-0.4-0.2-0.4-0.5
		c0-0.2,0-0.4,0-0.6c0-8.7,0-17.4,0-26.1c0-1.1,0-1.1,1.2-1.1C166.8,67.3,173.1,67.3,179.4,67.3z M163.8,81.4c0,1.8,0.1,3.6,0,5.5
		c-0.1,2,0.3,1.8,1.8,1.7c0.1,0,0.1,0,0.2,0c0.4,0.1,0.6-0.1,0.6-0.5c-0.1-0.9,0-1.8,0-2.7c0-0.5,0.1-0.6,0.6-0.6c1.7,0.1,3.3,0,5,0
		c0.5,0,0.7-0.1,0.7-0.7c-0.1-3.1-0.1-6.3,0-9.4c0-0.7-0.3-0.7-0.8-0.7c-2.3,0-4.6,0-6.9,0c-1.1,0-1.2,0.1-1.2,1.3
		C163.7,77.4,163.8,79.5,163.8,81.4z M186.1,81.3c0,2.2,0,4.5,0,6.7c0,0.5,0.2,0.7,0.6,0.6c0.4-0.1,0.9,0,1.3,0
		c0.2,0,0.4-0.3,0.4-0.4c0.1-0.9,0-1.7,0-2.5c0-0.7,0.3-0.9,1-0.9c1.7,0,3.3,0,5,0c0.4,0,0.7,0,0.7-0.6c-0.1-3,0-6.1,0-9.1
		c0-0.9-0.2-1.1-1.1-1.1c-2.4,0-4.7,0.1-7.1,0c-0.7,0-0.7,0.3-0.7,0.7C186.1,77,186.1,79.2,186.1,81.3z M183.6,81.5c0-2,0-4.1,0-6.1
		c0-1.2,0-1.2-1.2-1.2c-1.1,0-1.1,0-1.1,1.1c0,0.5,0,1.1,0,1.6c0,1.1-0.1,2.2-0.1,3.3c-1.1,0-2.2,0.1-3.3,0.1c-0.1,0-0.2,0-0.3,0
		c-0.4,0.1-0.4-0.2-0.4-0.5c0-1.7,0-3.3,0-5.1c0-0.3-0.1-0.5-0.4-0.5c-0.3,0-0.6,0-1,0c-0.9,0-0.9,0-0.9,0.8c0,4.2,0,8.4,0,12.6
		c0,1.1,0,1.1,1.1,1.1c1.1,0,1.1,0,1.2-1.2c0-0.5,0-1,0-1.4c0-1.1,0-2.2,0.1-3.3c1.2-0.1,2.4-0.1,3.6-0.2c0.5-0.1,0.5,0.2,0.5,0.6
		c0,1.4,0,2.7,0,4.1c0,1.4,0,1.4,1.4,1.3c0.1,0,0.1,0,0.2,0c0.5,0.1,0.7-0.1,0.6-0.6C183.5,85.9,183.6,83.7,183.6,81.5z"/>
	<path class="st0" d="M179.3,64.8c-6.3,0-12.6,0-18.9,0c-1.1,0-1.1,0-1.1-1.2c0-0.2,0-0.3,0-0.5c-0.1-0.6,0.3-0.6,0.7-0.6
		c2.6,0,5.2,0,7.7,0c3.7,0,7.4,0,11.2,0c0.6,0,1-0.2,1.4-0.6c2-2.1,4.1-4.1,6.1-6.1c0.4-0.4,0.8-0.6,1.4-0.6c3.6,0.1,7.2,0,10.9,0
		c0.8,0,0.8,0,0.8,0.7c0,2.7,0,5.4,0,8c0,0.7,0,0.7-0.8,0.7C192.1,64.8,185.7,64.8,179.3,64.8z"/>
	<path class="st0" d="M169.2,60c-3,0-6.1,0-9.1,0c-0.5,0-0.8,0.1-0.8-0.7c0.1-1.4,0.1-2.7,0.2-4c1.3,0,2.6-0.1,3.9-0.1
		c6.1,0,12.2,0,18.4,0c0.4,0,0.8,0,1.1,0c0.2,0,0.3,0.1,0.4,0.2c-0.1,0.2-0.2,0.4-0.2,0.6c0,0.1-0.1,0.1-0.1,0.1
		c-1.2,1.2-2.3,2.3-3.4,3.4c-0.4,0.4-0.7,0.5-1.2,0.5C175.3,60,172.2,60,169.2,60z"/>
	<path class="st0" d="M166.3,79.5c0-0.1,0-0.2,0-0.3c0.1-0.8,0.1-1.6,0.1-2.5c0.8,0,1.7-0.1,2.5-0.1c0.3,0,0.5,0,0.8,0
		c0.4,0,0.7,0.3,0.7,0.7c0.1,1.6,0.1,3.1,0,4.7c0,0.4-0.3,0.7-0.7,0.7c-0.9,0-1.8,0.1-2.7,0c-0.4,0-0.7-0.3-0.7-0.8
		C166.3,81.1,166.3,80.3,166.3,79.5z"/>
	<path class="st0" d="M192.4,79.5c0,0.7,0,1.5,0,2.2c0,0.8-0.3,1-1,1c-0.7,0-1.5,0-2.2,0c-0.6,0-0.9-0.3-0.9-0.8c0-1.5,0-2.9,0-4.4
		c0-0.5,0.3-0.7,0.7-0.8c0.2-0.1,0.3,0,0.5,0c0.9,0,1.9,0.1,2.8,0.1c0.1,0,0.1,0.1,0.1,0.1C192.4,77.7,192.4,78.7,192.4,79.5
		L192.4,79.5z"/>
</g>
<g>
	<path class="st5" d="M424.1,141.8c2.7,0,5.4,0,8.2,0c-6.8,11.6-13.5,23.2-20.3,34.8c-0.1-0.1-0.1-0.1-0.1-0.2
		c-1.2-2.1-2.5-4.3-3.7-6.4c-2-3.3-3.9-6.7-5.9-10c-0.2-0.4-0.5-0.8-0.7-1.2c-1.4-2.4-2.8-4.9-4.3-7.3c-0.8-1.4-1.6-2.9-2.5-4.3
		c-1-1.7-2-3.4-3-5.1c0-0.1-0.1-0.1-0.1-0.2c2.8,0,5.4,0,8.2,0c0,0.1,0,0.1,0.1,0.2c0.2,0.4,0.4,0.8,0.7,1.1
		c0.4,0.7,0.9,1.4,1.2,2.1c0.8,1.3,1.6,2.7,2.3,4c0.8,1.3,1.5,2.7,2.3,4c0.6,1,1.2,2,1.8,3c0.2,0.3,0.4,0.6,0.5,0.9
		c1,1.6,1.9,3.2,2.8,4.9c0.1,0.2,0.3,0.4,0.4,0.7c0.1-0.1,0.1-0.2,0.1-0.2c0.9-1.5,1.8-3,2.7-4.6c1.1-1.9,2.2-3.8,3.3-5.7
		c1.1-1.9,2.3-3.9,3.4-5.8c0.9-1.5,1.7-3,2.6-4.4C424.1,141.9,424.1,141.8,424.1,141.8z"/>
	<path class="st0" d="M424.1,141.8c0,0.1,0,0.1,0,0.2c-0.9,1.5-1.7,3-2.6,4.4c-1.1,1.9-2.3,3.9-3.4,5.8c-1.1,1.9-2.2,3.8-3.3,5.7
		c-0.9,1.5-1.8,3-2.7,4.6c0,0.1-0.1,0.1-0.1,0.2c-0.2-0.3-0.3-0.5-0.4-0.7c-1-1.6-1.9-3.2-2.8-4.9c-0.2-0.3-0.4-0.6-0.5-0.9
		c-0.6-1-1.2-2-1.8-3c-0.8-1.3-1.5-2.7-2.3-4c-0.8-1.3-1.5-2.7-2.3-4c-0.4-0.7-0.9-1.4-1.2-2.1c-0.2-0.4-0.4-0.8-0.7-1.1
		c0,0,0-0.1-0.1-0.2c2.4,0,4.9,0,7.3,0c0.1,0,0.2,0,0.2,0.1c0.1,0.2,0.2,0.3,0.3,0.5c1,1.7,2,3.4,3,5.1c0.4,0.7,0.8,1.4,1.2,2.1
		c0,0,0.1,0.1,0.1,0.1c0.2-0.3,0.3-0.5,0.5-0.8c0.7-1.2,1.4-2.4,2.1-3.5c0.7-1.2,1.4-2.4,2.1-3.6c0.1-0.1,0.1-0.1,0.2-0.1
		C419.3,141.8,421.7,141.8,424.1,141.8z"/>
</g>
<g>
	<path class="st0" d="M184.3,234.4c0.4,0.1,0.5-0.1,0.7-0.4c1.5-1.6,3.1-3.1,4.6-4.6c0.2,0,0.3,0,0.5,0c0.2,0.3,0.5,0.6,0.7,0.9
		c0.4,0.4,0,1.1,0.4,1.6c0.3,0.4,0,1.1,0.3,1.6c0.3,0.7,0.2,1.5,0.3,2.2c0,0.4,0.2,0.8,0.2,1.1c0,0.4,0.1,0.7,0.2,1
		c0.2,0.7,0.2,1.5,0.3,2.2c0.1,0.8,0.2,1.6,0.4,2.4c0.2,0.5-0.1,1.2,0.3,1.7c0,1.3,0.4,2.7,0.5,4c0.2,1.2,0.2,2.4,0.7,3.5
		c0.2,0.6,0.1,1.2,0.2,2c-0.6,0.4-1.3,0.9-2.1,1.3c-1.3,0.7-2.6,1.5-3.9,2.2c-1.1,0.6-2.2,1.2-3.3,1.8c-1.1,0.6-2.3,1.1-3.3,1.9
		c-0.4,0.3-1,0.5-1.7,0.8c-0.8,0.2-1.7-0.1-2.5-0.6c-0.9-0.6-2-1-2.9-1.6c-0.9-0.6-2-1-2.9-1.7c-0.9-0.6-2-1-2.9-1.5
		c-1.4-0.8-2.9-1.7-4.3-2.5c0-0.3-0.3-0.6,0.2-0.7c0,0.1,0,0.1,0.1,0.3c1.5-1.4,2.9-2.9,4.4-4.2c0.9-0.8,1.6-1.7,2.4-2.5
		c2.9-2.9,5.7-5.9,8.8-8.6c0,0,0.1,0,0.1,0c0.1-0.1,0.2-0.2,0.3-0.3c0.1-0.1,0.2-0.2,0.3-0.3c1-0.9,1.9-1.8,2.9-2.8
		C184.3,234.8,184.3,234.5,184.3,234.4z"/>
	<path class="st6" d="M184.3,234.4c0,0.1,0,0.4-0.1,0.4c-0.9,0.9-1.9,1.8-2.9,2.8c-0.6-0.7-1.1-1.4-1.6-2.2
		c-0.6-0.9-1.2-1.8-1.7-2.7c-0.3-0.5-0.7-0.9-1.2-1.4c-0.5,0.8-1,1.6-1.4,2.3c-0.6,1.2-1.1,2.5-1.8,3.6c-1,1.6-1.7,3.3-2.7,4.8
		c-0.6,1-0.9,2.1-1.5,3.1c-1,1.5-1.6,3.1-2.5,4.6c-0.6,0.9-1.2,1.9-1.5,2.9c0,0.1-0.2,0.2-0.4,0.3c0-0.5,0-1,0.2-1.5
		c0.2-0.4-0.1-1,0.3-1.4c-0.1-0.7,0.2-1.3,0.2-2c0-0.5,0-0.9,0.2-1.4c0.2-0.4-0.1-0.9,0.2-1.2c0.1-0.1,0-0.3,0-0.5
		c0-0.5,0-0.9,0.2-1.4c0.2-0.4,0-0.9,0.2-1.4c0.3-0.7,0.2-1.5,0.3-2.2c0.1-0.8,0.2-1.6,0.4-2.4c0.1-0.3,0-0.7,0-1
		c0-0.3,0.2-0.6,0.2-0.9c0.1-0.8,0-1.6,0.3-2.4c0.4-1.2,0.3-2.5,0.7-3.8c0.2-0.6,0.1-1.3,0.2-2c0.2-1.2,0.6-2.5,0.5-3.7
		c0.4-0.6,0.2-1.2,0.3-1.8c0.2-0.2,0.4-0.4,0.6-0.6c0.2,0,0.4,0,0.6,0c0.1,0,0.2,0,0.2,0.1c0.2,0.3,0.4,0.4,0.5,0.8
		c1.3,2.2,2.5,4.5,3.7,6.7c0.4,0.8,0.9,1.5,1.3,2.4c0.7-1.3,1.3-2.6,2.1-4c0.4-0.1,0.8-0.3,1.3-0.4c0.2,0.4,0.4,0.6,0.6,0.9
		c1.2,2.1,2.3,4.1,3.2,6.2C184.1,234.1,184.2,234.3,184.3,234.4z"/>
	<path class="st7" d="M165,252.9c0.1-0.1,0.4-0.1,0.4-0.3c0.4-1.1,0.9-2,1.5-2.9c0.9-1.5,1.5-3.2,2.5-4.6c0.6-0.9,0.9-2.1,1.5-3.1
		c0.9-1.6,1.7-3.3,2.7-4.8c0.7-1.1,1.2-2.4,1.8-3.6c0.4-0.8,0.9-1.5,1.4-2.3c0.5,0.4,0.9,0.8,1.2,1.4c0.5,0.9,1.2,1.8,1.7,2.7
		c0.5,0.8,1,1.5,1.6,2.2c-0.1,0.1-0.2,0.2-0.3,0.3s-0.2,0.2-0.3,0.3c0,0-0.1,0-0.1,0c-3.1,2.7-5.9,5.6-8.8,8.6
		c-0.8,0.8-1.5,1.8-2.4,2.5c-1.6,1.3-2.9,2.8-4.4,4.2c0-0.1-0.1-0.2-0.1-0.3C165,253.1,165,253,165,252.9z"/>
	<path class="st8" d="M181,237.8c0.1-0.1,0.2-0.2,0.3-0.3C181.2,237.7,181.1,237.8,181,237.8z"/>
	<path class="st8" d="M180.8,238.1c0.1-0.1,0.2-0.2,0.3-0.3C181,237.9,180.9,238,180.8,238.1z"/>
</g>
<g>
	<path class="st0" d="M317.1,149.9c6.9,0,14,0,20.9,0c0.4,0,0.9,0,1.2,0c0.4,0,0.5,0.2,0.5,0.5s0,0.5,0,0.7c0,9.8,0,19.7,0,29.5
		c0,1.2,0,1.2-1.4,1.2c-7.7,0-15.2,0-22.9,0c-6.6,0-13.1,0-19.7,0c-0.4,0-0.7,0-1.1,0c-0.4,0-0.5-0.2-0.5-0.5s0-0.5,0-0.7
		c0-9.8,0-19.7,0-29.5c0-1.2,0-1.2,1.4-1.2C302.8,149.9,310,149.9,317.1,149.9z M303.1,165.8c0,2.5,0,5,0,7.4c0,0.9,0,0.9,0.9,0.9
		c0.6,0,1.2-0.1,1.9-0.1c0-0.6,0-1.1,0.1-1.7c0-1.1,0-2.2,0-3.3c1.2,0,2.5-0.1,3.7-0.1c0.5,0,0.6,0.2,0.5,0.6c0,1.1,0,2.2,0,3.3
		c0,1.4,0,1.4,1.4,1.4c0.1,0,0.2,0,0.4,0c1,0,1.1,0,1.1-1c0-3.6,0-7.1,0-10.7c0-1.4,0-2.7,0-4.1c0-0.4,0-0.6-0.5-0.6
		c-3,0-5.9,0-8.9,0c-0.5,0-0.6,0.2-0.6,0.6C303.1,160.8,303.1,163.3,303.1,165.8z M315.5,165.9c0,2.2,0,4.5,0,6.7
		c0,1.5,0,1.5,1.5,1.5c1.4,0,1.4,0,1.4-1.4c0-0.5,0-1.1,0-1.6c0-1.1,0.1-1.2,1.4-1.2c1.9,0,3.7,0,5.5,0c0.4,0,0.6,0,0.6-0.5
		c0-3.7,0-7.3,0-11c0-0.4,0-0.6-0.5-0.6c-3.1,0-6.3,0-9.4,0c-0.4,0-0.5,0.1-0.5,0.5C315.5,160.8,315.5,163.3,315.5,165.9z
		 M331.3,165.9c0-1.9,0-3.8,0-5.7c0-0.9-0.1-1.6-0.1-2.5c-0.9,0-1.6,0-2.5-0.1c-0.6,0-0.6,0.2-0.6,0.7c0,4.8,0,9.5,0,14.4
		c0,1.1,0.1,1.2,1.4,1.2c0.4,0,0.7,0,1.1,0c0.6,0,0.9,0,0.9-0.7C331.1,170.9,331.3,168.4,331.3,165.9z"/>
	<path class="st0" d="M316.8,147.1c-7.2,0-14.4,0-21.4,0c-1.1,0-1.1,0-1.1-1c0-0.1,0-0.4,0-0.5c0-1,0-1,0.9-1c3.1,0,6.3,0,9.4,0
		c4,0,8.1,0,12,0c0.5,0,1-0.1,1.4-0.5c2.4-2.4,4.7-4.5,7.1-6.8c0.6-0.6,1.2-0.9,2.1-0.9c4,0,7.8,0,11.8,0c0.5,0,0.7,0,0.7,0.6
		c0,3.1,0,6.3,0,9.4c0,0.6-0.2,0.6-0.7,0.6C331.6,147.1,324.2,147.1,316.8,147.1z"/>
	<path class="st0" d="M305.2,141.8c-3.3,0-6.6,0-9.9,0c-1.1,0-1.1,0-1.1-1.1c0-1.2,0-2.4,0-3.6c0-0.6,0.2-0.6,0.7-0.6
		c1.4,0,2.7,0,4.1,0c7.2,0,14.4,0,21.7,0c0.2,0,0.6,0,0.9,0.1c-0.2,0.2-0.4,0.5-0.6,0.7c-1.2,1.4-2.6,2.6-3.8,3.8
		c-0.5,0.5-0.9,0.6-1.5,0.6C312.2,141.8,308.7,141.8,305.2,141.8z"/>
	<path class="st0" d="M310.2,163.3c0,0.9,0,1.6,0,2.5c-0.9,0-1.7,0.1-2.6,0.1c-0.2,0-0.6,0.1-0.9,0c-0.2-0.1-0.6-0.4-0.7-0.6
		s0-0.7,0-1c0-1.1,0-2.4,0.1-3.5c1.2,0,2.5-0.1,3.7-0.1c0.4,0,0.5,0,0.5,0.5C310.2,161.8,310.2,162.6,310.2,163.3L310.2,163.3z"/>
	<path class="st0" d="M318.4,163.8v-0.1c0-1,0.1-2,0.1-3c1,0,2,0,3,0c0.2,0,0.5,0,0.7,0c0.1,0,0.4,0.2,0.4,0.4c0,1.9,0,3.7,0,5.7
		c0,0.1-0.1,0.4-0.2,0.4c-0.2,0-0.5,0-0.7,0c-1.1,0-2.1,0-3.2-0.1C318.5,165.9,318.4,164.8,318.4,163.8L318.4,163.8z"/>
</g>
</svg>
