<?xml version="1.0" encoding="utf-8"?>
<!-- Generator: Adobe Illustrator 23.0.1, SVG Export Plug-In . SVG Version: 6.00 Build 0)  -->
<svg version="1.1" id="Layer_1" xmlns="http://www.w3.org/2000/svg" xmlns:xlink="http://www.w3.org/1999/xlink" x="0px" y="0px"
	 viewBox="0 0 83.9 360" style="enable-background:new 0 0 83.9 360;" xml:space="preserve">
<style type="text/css">
	.st0{fill-rule:evenodd;clip-rule:evenodd;fill:#FF008A;}
	.st1{fill:none;stroke:#5400D5;stroke-linejoin:round;stroke-miterlimit:10;}
	.st2{fill-rule:evenodd;clip-rule:evenodd;fill-opacity:0;}
	.st3{fill:none;stroke:#FF008A;stroke-width:2;stroke-linejoin:round;stroke-miterlimit:10;stroke-dasharray:2,6;}
	.st4{fill:#FF008A;stroke:#FF008A;stroke-width:2;stroke-miterlimit:10;}
	.st5{fill-rule:evenodd;clip-rule:evenodd;fill:#FF008A;stroke:#FF008A;stroke-width:2;stroke-miterlimit:10;}
</style>
<path class="st0" d="M22.2,150.2v60.7l-1.7,1.7h-1.7l0,0v-64.2l0,0h1.7L22.2,150.2z"/>
<path class="st1" d="M81.9,360H67.4V0h14.5"/>
<path class="st1" d="M2,0h14.5v360H2"/>
<path class="st0" d="M61.7,210.9v-60.7l1.7-1.7h1.7l0,0v64.2l0,0h-1.7L61.7,210.9z"/>
<path class="st2" d="M22.2,180.6H42v0.1h19.7"/>
<path class="st3" d="M29.8,180.6H42v0.1h7.7"/>
<path class="st4" d="M29.8,183.8h-6.6v-6.5h6.6V183.8z"/>
<path class="st5" d="M49.7,183.9l9.1-3.3l-9.1-3.3C49.7,177.3,49.7,183.9,49.7,183.9z"/>
</svg>
