<?xml version="1.0" encoding="utf-8"?>
<!-- Generator: Adobe Illustrator 23.0.1, SVG Export Plug-In . SVG Version: 6.00 Build 0)  -->
<svg version="1.1" id="Layer_1" xmlns="http://www.w3.org/2000/svg" xmlns:xlink="http://www.w3.org/1999/xlink" x="0px" y="0px"
	 viewBox="0 0 343 339" style="enable-background:new 0 0 343 339;" xml:space="preserve">
<style type="text/css">
	.st0{fill:none;stroke:#5400D5;stroke-linejoin:round;stroke-miterlimit:10;}
	.st1{fill-rule:evenodd;clip-rule:evenodd;fill-opacity:0;}
	.st2{fill:#FFFFFF;}
	.st3{fill-rule:evenodd;clip-rule:evenodd;fill:#3B0097;}
	.st4{fill:none;stroke:#FF008A;stroke-miterlimit:10;}
	.st5{fill:none;stroke:#FF008A;stroke-miterlimit:10;stroke-dasharray:2.5714,2.5714;}
	.st6{fill:none;stroke:#FF008A;stroke-miterlimit:10;stroke-dasharray:3.1857,3.1857;}
	.st7{fill:none;stroke:#FF008A;stroke-miterlimit:10;stroke-dasharray:2.72,2.72;}
	.st8{fill-rule:evenodd;clip-rule:evenodd;fill:#FF008A;}
	.st9{fill:none;stroke:#FF008A;stroke-miterlimit:10;stroke-dasharray:2.9659,2.9659;}
	.st10{fill:none;stroke:#FF008A;stroke-miterlimit:10;stroke-dasharray:3.3786,3.3786;}
	.st11{fill:none;stroke:#FF008A;stroke-miterlimit:10;stroke-dasharray:2.9303,2.9303;}
	.st12{fill:#FF008A;}
</style>
<path class="st0" d="M6.5,47.4h125.8l11.3,11.3v237.9l0,0H17.8L6.5,285.3C6.5,285.4,6.5,47.4,6.5,47.4z"/>
<path class="st1" d="M0,17.3h125.5v22.1H0V17.3z"/>
<path class="st2" d="M9.6,25.6v-7.7h0.9v3.4h6.1v-3.4h0.9v7.7h-0.9v-3.4h-6.1v3.4C10.5,25.6,9.6,25.6,9.6,25.6z M19.9,25.6
	c-0.4,0-0.7-0.1-0.9-0.4s-0.4-0.6-0.4-0.9v-3.6c0-0.4,0.1-0.7,0.4-0.9c0.2-0.3,0.6-0.4,0.9-0.4h3.7c0.4,0,0.7,0.1,0.9,0.4
	c0.3,0.2,0.4,0.6,0.4,0.9v3.6c0,0.4-0.1,0.7-0.4,0.9c-0.2,0.2-0.6,0.4-0.9,0.4H19.9z M19.9,24.7h3.7c0.1,0,0.2,0,0.3-0.1
	c0.1-0.1,0.1-0.2,0.1-0.3v-3.6c0-0.1,0-0.2-0.1-0.3s-0.2-0.1-0.3-0.1h-3.7c-0.1,0-0.2,0-0.3,0.1c-0.1,0.1-0.1,0.2-0.1,0.3v3.6
	c0,0.1,0,0.2,0.1,0.3C19.7,24.7,19.8,24.7,19.9,24.7z M26,25.6v-6.2h8.2c0.4,0,0.7,0.1,0.9,0.4c0.2,0.2,0.4,0.6,0.4,0.9v4.9h-0.9
	v-4.9c0-0.1,0-0.2-0.1-0.3s-0.2-0.1-0.3-0.1h-2.6c-0.1,0-0.2,0-0.3,0.1c-0.1,0.1-0.1,0.2-0.1,0.3v4.9h-0.9v-4.9c0-0.1,0-0.2-0.1-0.3
	s-0.2-0.1-0.3-0.1h-2.6c-0.1,0-0.2,0-0.3,0.1c-0.1,0.1-0.1,0.2-0.1,0.3v4.9H26L26,25.6z M37.7,25.6c-0.4,0-0.7-0.1-0.9-0.4
	s-0.4-0.6-0.4-0.9v-3.6c0-0.4,0.1-0.7,0.4-0.9c0.2-0.3,0.6-0.4,0.9-0.4h3.7c0.4,0,0.7,0.1,0.9,0.4c0.3,0.2,0.4,0.6,0.4,0.9v2.2h-5.4
	v1.4c0,0.1,0,0.2,0.1,0.3s0.2,0.1,0.3,0.1h5v0.9H37.7z M37.3,22h4.5v-1.4c0-0.1,0-0.2-0.1-0.3s-0.2-0.1-0.3-0.1h-3.7
	c-0.1,0-0.2,0-0.3,0.1s-0.1,0.2-0.1,0.3C37.3,20.6,37.3,22,37.3,22z M46.7,22.9V22h4.2v0.9H46.7z"/>
<path class="st2" d="M9.6,38.6v-7.7h7v0.9h-6.1v2.5h4.9v0.9h-4.9v3.4H9.6L9.6,38.6z M17.2,38.6v-4.9c0-0.4,0.1-0.7,0.4-0.9
	c0.3-0.3,0.6-0.4,0.9-0.4H22v0.9h-3.5c-0.1,0-0.2,0-0.3,0.1c-0.1,0.1-0.1,0.2-0.1,0.3v4.9L17.2,38.6L17.2,38.6z M23.9,38.6
	c-0.4,0-0.7-0.1-0.9-0.4s-0.4-0.6-0.4-0.9v-3.6c0-0.4,0.1-0.7,0.4-0.9c0.2-0.3,0.6-0.4,0.9-0.4h3.7c0.4,0,0.7,0.1,0.9,0.4
	c0.3,0.2,0.4,0.6,0.4,0.9v3.6c0,0.4-0.1,0.7-0.4,0.9c-0.2,0.2-0.6,0.4-0.9,0.4H23.9z M23.9,37.7h3.7c0.1,0,0.2,0,0.3-0.1
	c0.1-0.1,0.1-0.2,0.1-0.3v-3.6c0-0.1,0-0.2-0.1-0.3s-0.2-0.1-0.3-0.1h-3.7c-0.1,0-0.2,0-0.3,0.1c-0.1,0.1-0.1,0.2-0.1,0.3v3.6
	c0,0.1,0,0.2,0.1,0.3S23.8,37.7,23.9,37.7z M29.9,38.6v-6.2h5c0.4,0,0.7,0.1,0.9,0.4c0.3,0.2,0.4,0.6,0.4,0.9v4.9h-0.9v-4.9
	c0-0.1,0-0.2-0.1-0.3s-0.2-0.1-0.3-0.1h-3.7c-0.1,0-0.2,0-0.3,0.1c-0.1,0.1-0.1,0.2-0.1,0.3v4.9L29.9,38.6L29.9,38.6z M38.6,38.6
	c-0.4,0-0.7-0.1-0.9-0.4s-0.4-0.6-0.4-0.9v-6.9h0.9v2h2.7v0.9h-2.7v4c0,0.1,0,0.2,0.1,0.3s0.2,0.1,0.3,0.1h2.2v0.9L38.6,38.6
	L38.6,38.6z M45.8,38.6c-0.4,0-0.7-0.1-0.9-0.4s-0.4-0.6-0.4-0.9V37h0.9v0.3c0,0.1,0,0.2,0.1,0.3s0.2,0.1,0.3,0.1h5.1
	c0.1,0,0.2,0,0.3-0.1s0.1-0.2,0.1-0.3v-1.7c0-0.1,0-0.2-0.1-0.3s-0.2-0.1-0.3-0.1h-5.1c-0.4,0-0.7-0.1-0.9-0.4s-0.4-0.5-0.4-0.9
	v-1.7c0-0.4,0.1-0.7,0.4-0.9s0.6-0.4,0.9-0.4h5.1c0.4,0,0.7,0.1,0.9,0.4s0.4,0.6,0.4,0.9v0.3h-0.9v-0.3c0-0.1,0-0.2-0.1-0.3
	s-0.2-0.1-0.3-0.1h-5.1c-0.1,0-0.2,0-0.3,0.1s-0.1,0.2-0.1,0.3v1.7c0,0.1,0,0.2,0.1,0.3s0.2,0.1,0.3,0.1h5.1c0.4,0,0.7,0.1,0.9,0.4
	s0.4,0.5,0.4,0.9v1.7c0,0.4-0.1,0.7-0.4,0.9s-0.6,0.4-0.9,0.4L45.8,38.6L45.8,38.6z M54.6,38.6c-0.4,0-0.7-0.1-0.9-0.4
	s-0.4-0.6-0.4-0.9v-6.9h0.9v2h2.7v0.9h-2.7v4c0,0.1,0,0.2,0.1,0.3s0.2,0.1,0.3,0.1h2.2v0.9L54.6,38.6L54.6,38.6z M59,38.6
	c-0.4,0-0.7-0.1-0.9-0.4c-0.2-0.2-0.4-0.6-0.4-0.9V35h5.4v-1.4c0-0.1,0-0.2-0.1-0.3s-0.2-0.1-0.3-0.1h-5v-0.9h5
	c0.4,0,0.7,0.1,0.9,0.4c0.3,0.2,0.4,0.6,0.4,0.9v4.9L59,38.6L59,38.6z M59,37.7h4.1v-1.8h-4.5v1.4c0,0.1,0,0.2,0.1,0.3
	C58.7,37.7,58.8,37.7,59,37.7z M66.1,41v-0.9H70c0.1,0,0.2,0,0.3-0.1s0.1-0.2,0.1-0.3v-1.1h-4.2c-0.4,0-0.7-0.1-0.9-0.4
	c-0.2-0.3-0.4-0.6-0.4-0.9v-3.6c0-0.4,0.1-0.7,0.4-0.9c0.2-0.3,0.6-0.4,0.9-0.4h3.7c0.4,0,0.7,0.1,0.9,0.4c0.2,0.2,0.4,0.6,0.4,0.9
	v6c0,0.4-0.1,0.7-0.4,0.9c-0.2,0.2-0.5,0.4-0.9,0.4L66.1,41L66.1,41z M66.2,37.7h3.7c0.1,0,0.2,0,0.3-0.1s0.1-0.2,0.1-0.3v-3.6
	c0-0.1,0-0.2-0.1-0.3s-0.2-0.1-0.3-0.1h-3.7c-0.1,0-0.2,0-0.3,0.1c-0.1,0.1-0.1,0.2-0.1,0.3v3.6c0,0.1,0,0.2,0.1,0.3
	C66,37.7,66.1,37.7,66.2,37.7z M73.5,38.6c-0.4,0-0.7-0.1-0.9-0.4c-0.2-0.3-0.4-0.6-0.4-0.9v-3.6c0-0.4,0.1-0.7,0.4-0.9
	c0.2-0.3,0.6-0.4,0.9-0.4h3.7c0.4,0,0.7,0.1,0.9,0.4c0.3,0.2,0.4,0.6,0.4,0.9v2.2h-5.4v1.4c0,0.1,0,0.2,0.1,0.3s0.2,0.1,0.3,0.1h5
	v0.9H73.5z M73,35h4.5v-1.4c0-0.1,0-0.2-0.1-0.3s-0.2-0.1-0.3-0.1h-3.7c-0.1,0-0.2,0-0.3,0.1S73,33.5,73,33.6V35z"/>
<path class="st3" d="M24.6,96.5h96.6l4.6,4.6v23l0,0H29.2l-4.6-4.6V96.5z"/>
<path class="st0" d="M24.6,96.5h96.6l4.6,4.6v23l0,0H29.2l-4.6-4.6V96.5z"/>
<path class="st2" d="M44.2,114.1v-7h4.6v1.3h-3v1.4h2.6v1.3h-2.6v1.6h3.1v1.3L44.2,114.1C44.2,114,44.2,114.1,44.2,114.1z M50,114.1
	l1.8-2.8l-1.7-2.5h1.7l0.5,0.8c0.1,0.2,0.2,0.3,0.3,0.5c0.1,0.1,0.2,0.3,0.3,0.4l0,0c0.1-0.1,0.1-0.3,0.2-0.5s0.2-0.3,0.2-0.5
	l0.5-0.8h1.6l-1.7,2.7l1.8,2.6h-1.7l-0.6-0.9c-0.1-0.1-0.2-0.3-0.3-0.5s-0.2-0.3-0.3-0.5l0,0c-0.1,0.2-0.2,0.3-0.2,0.5
	c-0.1,0.1-0.2,0.3-0.2,0.5l-0.5,0.9L50,114.1L50,114.1z M56.8,114.1v-7.5h1.6v1.8l-0.1,1l0,0c0.2-0.2,0.4-0.4,0.7-0.5
	c0.3-0.2,0.6-0.2,1-0.2c0.6,0,1,0.2,1.3,0.6s0.4,0.9,0.4,1.6v3.3h-1.5V111c0-0.4-0.1-0.6-0.2-0.8c-0.1-0.2-0.3-0.2-0.6-0.2
	c-0.2,0-0.4,0-0.6,0.1s-0.3,0.2-0.5,0.4v3.5L56.8,114.1C56.8,114,56.8,114.1,56.8,114.1z M65.4,114.1V110h-2.1v-1.2H67v5.3
	L65.4,114.1L65.4,114.1z M65.6,108c-0.3,0-0.6-0.1-0.8-0.2c-0.2-0.2-0.3-0.4-0.3-0.7s0.1-0.5,0.3-0.7c0.2-0.2,0.5-0.3,0.8-0.3
	s0.5,0.1,0.7,0.3s0.3,0.4,0.3,0.7s-0.1,0.5-0.3,0.7C66.2,107.9,65.9,108,65.6,108z M72.4,114.2c-0.2,0-0.5-0.1-0.8-0.2
	c-0.2-0.1-0.5-0.3-0.7-0.5l0,0l-0.1,0.6h-1.2v-7.5h1.6v1.8v0.8l0,0c0.2-0.2,0.4-0.3,0.7-0.4c0.3-0.1,0.5-0.2,0.8-0.2
	s0.6,0.1,0.9,0.2s0.5,0.3,0.7,0.5s0.3,0.5,0.4,0.8s0.2,0.7,0.2,1.1s-0.1,0.9-0.2,1.2c-0.1,0.4-0.3,0.7-0.5,0.9
	c-0.2,0.2-0.5,0.4-0.7,0.5C73,114.1,72.7,114.2,72.4,114.2z M72.1,112.9c0.3,0,0.5-0.1,0.7-0.4c0.2-0.2,0.3-0.6,0.3-1.2
	c0-1-0.3-1.4-1-1.4c-0.3,0-0.7,0.2-1,0.5v2.1c0.2,0.1,0.3,0.2,0.5,0.3S71.9,112.9,72.1,112.9z M78.2,114.1V110h-2.1v-1.2h3.7v5.3
	L78.2,114.1L78.2,114.1z M78.4,108c-0.3,0-0.6-0.1-0.8-0.2c-0.2-0.2-0.3-0.4-0.3-0.7s0.1-0.5,0.3-0.7s0.5-0.3,0.8-0.3
	s0.5,0.1,0.7,0.3s0.3,0.4,0.3,0.7s-0.1,0.5-0.3,0.7C79,107.9,78.7,108,78.4,108z M85.7,114.2c-0.4,0-0.8-0.1-1.1-0.2
	s-0.5-0.3-0.7-0.5s-0.3-0.5-0.4-0.7c-0.1-0.3-0.1-0.6-0.1-0.9V110h-1.3v-1.2l1.4-0.1l0.2-1.6H85v1.6h2.2v1.2H85v1.9
	c0,0.4,0.1,0.7,0.3,0.9c0.2,0.2,0.5,0.2,0.9,0.2c0.2,0,0.4,0,0.5,0c0.2,0,0.3-0.1,0.5-0.2l0.3,1.1c-0.2,0.1-0.5,0.1-0.8,0.2
	C86.4,114.2,86.1,114.2,85.7,114.2z M91,114.1V110h-2.1v-1.2h3.7v5.3L91,114.1L91,114.1z M91.2,108c-0.3,0-0.6-0.1-0.8-0.2
	c-0.2-0.2-0.3-0.4-0.3-0.7s0.1-0.5,0.3-0.7s0.5-0.3,0.8-0.3s0.5,0.1,0.7,0.3s0.3,0.4,0.3,0.7s-0.1,0.5-0.3,0.7
	C91.7,107.9,91.5,108,91.2,108z M97.6,114.2c-0.4,0-0.7-0.1-1-0.2s-0.6-0.3-0.9-0.5c-0.2-0.2-0.5-0.5-0.6-0.9
	c-0.1-0.3-0.2-0.7-0.2-1.2s0.1-0.8,0.2-1.2c0.2-0.4,0.4-0.6,0.6-0.9c0.2-0.2,0.5-0.4,0.9-0.5c0.3-0.1,0.7-0.2,1-0.2s0.7,0.1,1,0.2
	s0.6,0.3,0.9,0.5s0.5,0.5,0.6,0.9c0.1,0.3,0.2,0.7,0.2,1.2s-0.1,0.8-0.2,1.2s-0.3,0.6-0.6,0.9c-0.2,0.2-0.5,0.4-0.9,0.5
	S97.9,114.2,97.6,114.2z M97.6,112.9c0.4,0,0.6-0.1,0.8-0.4s0.3-0.6,0.3-1.1s-0.1-0.8-0.3-1.1c-0.2-0.3-0.4-0.4-0.8-0.4
	s-0.6,0.1-0.8,0.4s-0.3,0.6-0.3,1.1s0.1,0.8,0.3,1.1C97,112.8,97.2,112.9,97.6,112.9z M101.6,114.1v-5.3h1.3l0.1,0.7l0,0
	c0.2-0.2,0.5-0.4,0.8-0.6s0.7-0.2,1-0.2c0.6,0,1,0.2,1.3,0.6s0.4,0.9,0.4,1.6v3.3h-1.6V111c0-0.4-0.1-0.6-0.2-0.8
	c-0.1-0.2-0.3-0.2-0.6-0.2c-0.2,0-0.4,0-0.6,0.1s-0.3,0.2-0.5,0.4v3.5L101.6,114.1L101.6,114.1L101.6,114.1z"/>
<path class="st0" d="M200.7,22.1H330l7.8,7.8v92.6l0,0H208.5l-7.8-7.8V22.1z"/>
<path class="st1" d="M194.2-2.4h78.6v24.5h-78.6L194.2-2.4L194.2-2.4z"/>
<path class="st2" d="M203.8,13.6V6h6.4c0.4,0,0.7,0.1,0.9,0.4s0.4,0.5,0.4,0.9v2.2c0,0.4-0.1,0.7-0.4,0.9s-0.6,0.4-0.9,0.4h-5.5v2.9
	L203.8,13.6L203.8,13.6z M205,9.9h5.1c0.1,0,0.2,0,0.3-0.1s0.1-0.2,0.1-0.3V7.3c0-0.1,0-0.2-0.1-0.3s-0.2-0.1-0.3-0.1H205
	c-0.1,0-0.2,0-0.3,0.1s-0.1,0.2-0.1,0.3v2.2c0,0.1,0,0.2,0.1,0.3C204.8,9.8,204.9,9.9,205,9.9z M212.1,13.6V8.7
	c0-0.4,0.1-0.7,0.4-0.9c0.3-0.3,0.6-0.4,0.9-0.4h3.5v0.9h-3.5c-0.1,0-0.2,0-0.3,0.1C213,8.5,213,8.6,213,8.7v4.9H212.1L212.1,13.6z
	 M218.8,13.6c-0.4,0-0.7-0.1-0.9-0.4s-0.4-0.6-0.4-0.9V8.7c0-0.4,0.1-0.7,0.4-0.9c0.2-0.3,0.6-0.4,0.9-0.4h3.7
	c0.4,0,0.7,0.1,0.9,0.4c0.3,0.2,0.4,0.6,0.4,0.9v3.6c0,0.4-0.1,0.7-0.4,0.9c-0.2,0.2-0.6,0.4-0.9,0.4
	C222.5,13.6,218.8,13.6,218.8,13.6z M218.8,12.7h3.7c0.1,0,0.2,0,0.3-0.1s0.1-0.2,0.1-0.3V8.7c0-0.1,0-0.2-0.1-0.3s-0.2-0.1-0.3-0.1
	h-3.7c-0.1,0-0.2,0-0.3,0.1s-0.1,0.2-0.1,0.3v3.6c0,0.1,0,0.2,0.1,0.3S218.7,12.7,218.8,12.7z M225.9,13.6c-0.4,0-0.7-0.1-0.9-0.4
	s-0.4-0.6-0.4-0.9V8.7c0-0.4,0.1-0.7,0.4-0.9c0.2-0.3,0.6-0.4,0.9-0.4h4.1v-2h0.9v8.2L225.9,13.6L225.9,13.6z M225.9,12.7h3.7
	c0.1,0,0.2,0,0.3-0.1s0.1-0.2,0.1-0.3V8.7c0-0.1,0-0.2-0.1-0.3s-0.2-0.1-0.3-0.1h-3.7c-0.1,0-0.2,0-0.3,0.1s-0.1,0.2-0.1,0.3v3.6
	c0,0.1,0,0.2,0.1,0.3S225.8,12.7,225.9,12.7z M233.1,13.6c-0.4,0-0.7-0.1-0.9-0.4c-0.2-0.2-0.4-0.6-0.4-0.9V7.4h0.9v4.9
	c0,0.1,0,0.2,0.1,0.3s0.2,0.1,0.3,0.1h3.7c0.1,0,0.2,0,0.3-0.1s0.1-0.2,0.1-0.3V7.4h0.9v4.9c0,0.4-0.1,0.7-0.4,0.9s-0.6,0.4-0.9,0.4
	C236.8,13.6,233.1,13.6,233.1,13.6z M240.2,13.6c-0.4,0-0.7-0.1-0.9-0.4s-0.4-0.6-0.4-0.9V8.7c0-0.4,0.1-0.7,0.4-0.9
	c0.2-0.3,0.6-0.4,0.9-0.4h5v0.9h-5c-0.1,0-0.2,0-0.3,0.1s-0.1,0.2-0.1,0.3v3.6c0,0.1,0,0.2,0.1,0.3s0.2,0.1,0.3,0.1h5v0.9
	L240.2,13.6L240.2,13.6z M247.4,13.6c-0.4,0-0.7-0.1-0.9-0.4s-0.4-0.6-0.4-0.9V5.4h0.9v2h2.7v0.9H247v4c0,0.1,0,0.2,0.1,0.3
	s0.2,0.1,0.3,0.1h2.2v0.9H247.4L247.4,13.6z"/>
<path class="st0" d="M24.5,215.3H121l4.6,4.6v23l0,0H29.1l-4.6-4.6V215.3z"/>
<path class="st2" d="M56.5,233c-0.4,0-0.8-0.1-1.2-0.2c-0.4-0.2-0.7-0.4-1-0.7s-0.5-0.7-0.7-1.1s-0.2-1-0.2-1.5
	c0-0.6,0.1-1.1,0.2-1.5c0.2-0.4,0.4-0.8,0.7-1.1s0.7-0.6,1.1-0.7c0.4-0.2,0.8-0.3,1.3-0.2c0.4,0,0.8,0.1,1.2,0.3s0.7,0.4,0.9,0.6
	l-0.9,1c-0.2-0.2-0.3-0.3-0.5-0.4s-0.4-0.1-0.7-0.1c-0.2,0-0.5,0.1-0.7,0.2s-0.4,0.2-0.5,0.4c-0.2,0.2-0.3,0.4-0.4,0.7
	c-0.1,0.3-0.1,0.6-0.1,0.9c0,0.7,0.2,1.3,0.5,1.7s0.8,0.6,1.3,0.6c0.3,0,0.5-0.1,0.7-0.2s0.4-0.3,0.6-0.5l0.9,1
	C58.2,232.7,57.4,233,56.5,233z M62.3,233c-0.4,0-0.7-0.1-1-0.2s-0.6-0.3-0.9-0.5c-0.2-0.2-0.5-0.5-0.6-0.9
	c-0.1-0.3-0.2-0.7-0.2-1.2c0-0.4,0.1-0.8,0.2-1.2c0.2-0.4,0.4-0.6,0.6-0.9c0.2-0.2,0.5-0.4,0.9-0.5c0.3-0.1,0.7-0.2,1-0.2
	s0.7,0.1,1,0.2s0.6,0.3,0.9,0.5c0.3,0.2,0.5,0.5,0.6,0.9c0.1,0.3,0.2,0.7,0.2,1.2c0,0.4-0.1,0.8-0.2,1.2c-0.1,0.3-0.3,0.6-0.6,0.9
	c-0.2,0.2-0.5,0.4-0.9,0.5S62.6,233,62.3,233z M62.3,231.7c0.4,0,0.6-0.1,0.8-0.4c0.2-0.3,0.3-0.6,0.3-1.1s-0.1-0.8-0.3-1.1
	s-0.4-0.4-0.8-0.4s-0.6,0.1-0.8,0.4c-0.2,0.3-0.3,0.6-0.3,1.1s0.1,0.8,0.3,1.1C61.6,231.6,61.9,231.7,62.3,231.7z M66.2,232.9v-5.3
	h1.3l0.1,0.7l0,0c0.2-0.2,0.5-0.4,0.8-0.6s0.7-0.3,1-0.2c0.6,0,1,0.2,1.3,0.6s0.4,0.9,0.4,1.6v3.3h-1.6v-3.1c0-0.4-0.1-0.6-0.2-0.8
	s-0.3-0.3-0.6-0.2c-0.2,0-0.4,0-0.6,0.1s-0.3,0.2-0.5,0.4v3.5H66.2z M76,233c-0.4,0-0.8-0.1-1.1-0.2c-0.3-0.1-0.5-0.3-0.7-0.5
	s-0.3-0.5-0.4-0.7c-0.1-0.3-0.1-0.6-0.1-0.9v-1.9h-1.3v-1.2l1.4-0.1l0.2-1.6h1.3v1.6h2.2v1.2h-2.2v1.9c0,0.4,0.1,0.7,0.3,0.9
	c0.2,0.2,0.5,0.2,0.9,0.2c0.2,0,0.4,0,0.5,0c0.2,0,0.3-0.1,0.5-0.2l0.3,1.1c-0.2,0.1-0.5,0.1-0.8,0.2C76.7,233,76.4,233,76,233z
	 M80.6,233c-0.3,0-0.5,0-0.7-0.1s-0.4-0.2-0.5-0.3s-0.3-0.3-0.3-0.5c-0.1-0.2-0.1-0.4-0.1-0.6c0-0.3,0.1-0.6,0.2-0.8
	s0.3-0.4,0.6-0.6s0.6-0.3,1.1-0.4c0.4-0.1,1-0.2,1.6-0.2c0-0.2-0.1-0.4-0.3-0.6c-0.2-0.1-0.4-0.2-0.8-0.2c-0.2,0-0.5,0-0.8,0.1
	s-0.5,0.2-0.8,0.4l-0.5-1c0.4-0.2,0.8-0.4,1.2-0.5c0.4-0.1,0.9-0.2,1.3-0.2c0.7,0,1.3,0.2,1.8,0.6c0.4,0.4,0.6,1,0.6,1.8v3h-1.3
	l-0.1-0.6l0,0c-0.3,0.2-0.6,0.4-0.9,0.5C81.3,232.9,81,233,80.6,233z M81.1,231.8c0.2,0,0.4,0,0.7-0.1c0.2-0.1,0.4-0.2,0.6-0.4v-0.9
	c-0.4,0-0.7,0.1-1,0.1c-0.2,0-0.5,0.1-0.6,0.2c-0.1,0.1-0.2,0.2-0.3,0.3c-0.1,0.1-0.1,0.2-0.1,0.3c0,0.2,0.1,0.3,0.2,0.4
	C80.7,231.7,80.9,231.8,81.1,231.8z M88.3,233c-0.4,0-0.8-0.1-1.2-0.2s-0.7-0.3-0.9-0.5c-0.3-0.2-0.5-0.5-0.6-0.9
	c-0.1-0.3-0.2-0.7-0.2-1.2c0-0.4,0.1-0.8,0.2-1.2c0.2-0.4,0.4-0.6,0.7-0.9c0.3-0.2,0.6-0.4,1-0.5s0.8-0.2,1.2-0.2s0.8,0.1,1.1,0.2
	s0.6,0.3,0.8,0.5l-0.7,1c-0.4-0.3-0.8-0.4-1.2-0.4c-0.5,0-0.8,0.1-1.1,0.4s-0.4,0.6-0.4,1.1s0.1,0.8,0.4,1.1s0.6,0.4,1.1,0.4
	c0.3,0,0.5,0,0.8-0.1c0.2-0.1,0.4-0.2,0.6-0.4l0.6,1c-0.3,0.3-0.7,0.5-1.1,0.6C89,232.9,88.7,233,88.3,233z M95.2,233
	c-0.4,0-0.8-0.1-1.1-0.2s-0.5-0.3-0.7-0.5s-0.3-0.5-0.4-0.7c-0.1-0.3-0.1-0.6-0.1-0.9v-1.9h-1.3v-1.2l1.4-0.1l0.2-1.6h1.3v1.6h2.2
	v1.2h-2.2v1.9c0,0.4,0.1,0.7,0.3,0.9c0.2,0.2,0.5,0.2,0.9,0.2c0.2,0,0.4,0,0.5,0c0.2,0,0.3-0.1,0.5-0.2l0.3,1.1
	c-0.2,0.1-0.5,0.1-0.8,0.2C95.8,233,95.5,233,95.2,233z"/>
<path class="st3" d="M218.6,39.4h96.6l4.6,4.6v23l0,0h-96.5l-4.6-4.6v-23H218.6z"/>
<path class="st0" d="M218.6,39.4h96.6l4.6,4.6v23l0,0h-96.5l-4.6-4.6v-23H218.6z"/>
<path class="st2" d="M253.2,57.1c-0.5,0-0.9-0.1-1.4-0.2c-0.5-0.2-0.9-0.4-1.2-0.8l0.9-1.1c0.3,0.2,0.5,0.4,0.9,0.5
	c0.3,0.1,0.6,0.2,1,0.2s0.6-0.1,0.8-0.2c0.2-0.1,0.2-0.3,0.2-0.4c0-0.1,0-0.2-0.1-0.3s-0.1-0.2-0.2-0.2c-0.1-0.1-0.2-0.1-0.3-0.2
	c-0.1-0.1-0.3-0.1-0.5-0.2l-0.9-0.4c-0.2-0.1-0.4-0.2-0.6-0.3s-0.3-0.2-0.5-0.4c-0.1-0.2-0.2-0.3-0.3-0.5s-0.1-0.4-0.1-0.7
	s0.1-0.5,0.2-0.8s0.3-0.5,0.5-0.7s0.5-0.3,0.8-0.4c0.3-0.1,0.7-0.2,1-0.2c0.4,0,0.8,0.1,1.2,0.2s0.8,0.4,1.1,0.7l-0.8,1
	c-0.2-0.2-0.5-0.3-0.7-0.4s-0.5-0.1-0.9-0.1c-0.3,0-0.5,0.1-0.6,0.2c-0.2,0.1-0.2,0.3-0.2,0.5s0.1,0.4,0.3,0.5s0.5,0.2,0.8,0.3
	l0.8,0.4c0.5,0.2,0.8,0.4,1.1,0.7s0.4,0.7,0.4,1.2c0,0.3-0.1,0.6-0.2,0.8c-0.1,0.3-0.3,0.5-0.5,0.7s-0.5,0.4-0.8,0.5
	C254,57,253.6,57.1,253.2,57.1z M259.9,57.1c-0.4,0-0.8-0.1-1.2-0.2c-0.4-0.1-0.7-0.3-0.9-0.5c-0.3-0.2-0.5-0.5-0.6-0.9
	c-0.1-0.3-0.2-0.7-0.2-1.2s0.1-0.8,0.2-1.2c0.2-0.3,0.4-0.6,0.6-0.9c0.3-0.2,0.6-0.4,0.9-0.5s0.7-0.2,1-0.2c0.4,0,0.8,0.1,1.1,0.2
	s0.6,0.3,0.8,0.5c0.2,0.2,0.4,0.5,0.5,0.8s0.2,0.6,0.2,1c0,0.1,0,0.3,0,0.4c0,0.1,0,0.2,0,0.3h-3.6c0.1,0.4,0.2,0.7,0.5,0.8
	c0.3,0.2,0.6,0.3,1.1,0.3c0.2,0,0.5,0,0.7-0.1s0.4-0.2,0.7-0.3l0.5,1c-0.3,0.2-0.6,0.3-1,0.5C260.7,57,260.3,57.1,259.9,57.1z
	 M259.8,52.7c-0.3,0-0.6,0.1-0.8,0.2c-0.2,0.2-0.4,0.4-0.4,0.7h2.3C260.8,53,260.4,52.7,259.8,52.7z M265.2,57.1
	c-0.3,0-0.5,0-0.7-0.1s-0.4-0.2-0.5-0.3s-0.3-0.3-0.3-0.5c-0.1-0.2-0.1-0.4-0.1-0.6c0-0.3,0.1-0.6,0.2-0.8s0.3-0.4,0.6-0.6
	s0.6-0.3,1.1-0.4c0.4-0.1,1-0.2,1.6-0.2c0-0.2-0.1-0.4-0.3-0.6c-0.2-0.1-0.4-0.2-0.8-0.2c-0.2,0-0.5,0-0.8,0.1s-0.5,0.2-0.8,0.4
	l-0.5-1c0.4-0.2,0.8-0.4,1.2-0.5c0.4-0.1,0.9-0.2,1.3-0.2c0.7,0,1.3,0.2,1.8,0.6c0.4,0.4,0.6,1,0.6,1.8v3h-1.6l-0.1-0.6l0,0
	c-0.3,0.2-0.6,0.4-0.9,0.5S265.6,57.1,265.2,57.1z M265.7,55.8c0.2,0,0.4,0,0.7-0.1c0.2-0.1,0.4-0.2,0.6-0.4v-0.9
	c-0.4,0-0.7,0.1-1,0.1c-0.2,0-0.5,0.1-0.6,0.2c-0.1,0.1-0.2,0.2-0.3,0.3c-0.1,0.1-0.1,0.2-0.1,0.3c0,0.2,0.1,0.3,0.2,0.4
	C265.3,55.8,265.5,55.8,265.7,55.8z M270.5,56.9v-5.3h1.3l0.1,1.1l0,0c0.3-0.4,0.6-0.7,0.9-1c0.4-0.2,0.8-0.3,1.2-0.3
	c0.2,0,0.4,0,0.6,0s0.3,0.1,0.5,0.2l-0.3,1.3c-0.2-0.1-0.3-0.1-0.4-0.1s-0.3,0-0.5,0c-0.3,0-0.6,0.1-1,0.3c-0.3,0.2-0.6,0.5-0.8,1
	v2.8H270.5z M279.3,57.1c-0.4,0-0.8-0.1-1.2-0.2c-0.4-0.1-0.7-0.3-0.9-0.5c-0.3-0.2-0.5-0.5-0.6-0.9s-0.2-0.7-0.2-1.2
	s0.1-0.8,0.2-1.2c0.2-0.4,0.4-0.6,0.7-0.9c0.3-0.2,0.6-0.4,1-0.5s0.8-0.2,1.2-0.2c0.4,0,0.8,0.1,1.1,0.2c0.3,0.1,0.6,0.3,0.8,0.5
	l-0.7,1c-0.4-0.3-0.8-0.4-1.2-0.4c-0.5,0-0.8,0.1-1.1,0.4c-0.3,0.3-0.4,0.6-0.4,1.1s0.1,0.8,0.4,1.1s0.6,0.4,1.1,0.4
	c0.3,0,0.5,0,0.8-0.1c0.2-0.1,0.4-0.2,0.6-0.4l0.6,1c-0.3,0.3-0.7,0.5-1.1,0.6C280,57,279.6,57.1,279.3,57.1z M282.8,56.9v-7.5h1.6
	v1.8l-0.1,1l0,0c0.2-0.2,0.4-0.4,0.7-0.5c0.3-0.2,0.6-0.2,1-0.2c0.6,0,1,0.2,1.3,0.6c0.3,0.4,0.4,0.9,0.4,1.6V57h-1.5v-3.1
	c0-0.4-0.1-0.6-0.2-0.8s-0.3-0.2-0.6-0.2c-0.2,0-0.4,0-0.6,0.1s-0.3,0.2-0.5,0.4v3.5H282.8L282.8,56.9z"/>
<path class="st3" d="M218.6,77.4h96.6l4.6,4.6v23l0,0h-96.5l-4.6-4.6v-23H218.6z"/>
<path class="st0" d="M218.6,77.4h96.6l4.6,4.6v23l0,0h-96.5l-4.6-4.6v-23H218.6z"/>
<path class="st2" d="M231.7,95v-7h2.5c0.4,0,0.7,0,1,0.1s0.6,0.2,0.9,0.4c0.2,0.2,0.4,0.4,0.6,0.7c0.1,0.3,0.2,0.6,0.2,1.1
	c0,0.4-0.1,0.7-0.2,1s-0.3,0.6-0.6,0.8c-0.2,0.2-0.5,0.3-0.9,0.4c-0.3,0.1-0.7,0.1-1,0.1h-1V95H231.7z M233.2,91.4h0.8
	c0.8,0,1.3-0.4,1.3-1.1c0-0.4-0.1-0.6-0.3-0.8c-0.2-0.2-0.5-0.2-0.9-0.2h-0.9L233.2,91.4L233.2,91.4z M238.5,95v-5.3h1.3l0.1,1.1
	l0,0c0.3-0.4,0.6-0.7,0.9-1c0.4-0.2,0.8-0.3,1.2-0.3c0.2,0,0.4,0,0.6,0c0.1,0,0.3,0.1,0.5,0.2l-0.3,1.3c-0.2-0.1-0.3-0.1-0.4-0.1
	s-0.3,0-0.5,0c-0.3,0-0.6,0.1-1,0.3c-0.3,0.2-0.6,0.5-0.8,1V95H238.5z M246.8,95.1c-0.4,0-0.7-0.1-1-0.2s-0.6-0.3-0.9-0.5
	c-0.2-0.2-0.5-0.5-0.6-0.9c-0.1-0.3-0.2-0.7-0.2-1.2s0.1-0.8,0.2-1.2c0.2-0.4,0.4-0.6,0.6-0.9c0.2-0.2,0.5-0.4,0.9-0.5
	c0.3-0.1,0.7-0.2,1-0.2s0.7,0.1,1,0.2s0.6,0.3,0.9,0.5s0.5,0.5,0.6,0.9c0.1,0.3,0.2,0.7,0.2,1.2s-0.1,0.8-0.2,1.2s-0.3,0.6-0.6,0.9
	c-0.2,0.2-0.5,0.4-0.9,0.5S247.2,95.1,246.8,95.1z M246.8,93.9c0.4,0,0.6-0.1,0.8-0.4s0.3-0.6,0.3-1.1s-0.1-0.8-0.3-1.1
	c-0.2-0.3-0.4-0.4-0.8-0.4s-0.6,0.1-0.8,0.4s-0.3,0.6-0.3,1.1s0.1,0.8,0.3,1.1C246.2,93.7,246.5,93.9,246.8,93.9z M252.8,95.1
	c-0.3,0-0.6-0.1-0.9-0.2c-0.3-0.1-0.5-0.3-0.7-0.5s-0.3-0.5-0.5-0.9c-0.1-0.3-0.2-0.7-0.2-1.2c0-0.4,0.1-0.8,0.2-1.2
	c0.1-0.3,0.3-0.6,0.5-0.9s0.4-0.4,0.7-0.5s0.6-0.2,0.8-0.2s0.5,0,0.8,0.1s0.4,0.2,0.6,0.4l0,0l-0.1-0.8v-1.8h1.6v7.5h-1.3l-0.1-0.5
	l0,0c-0.2,0.2-0.4,0.4-0.7,0.5C253.3,95.1,253,95.1,252.8,95.1z M253.2,93.8c0.2,0,0.3,0,0.5-0.1s0.3-0.2,0.4-0.4v-2.1
	c-0.1-0.1-0.3-0.2-0.4-0.3s-0.3-0.1-0.5-0.1c-0.3,0-0.5,0.1-0.8,0.4c-0.2,0.2-0.3,0.6-0.3,1.1s0.1,0.9,0.3,1.2
	S252.8,93.8,253.2,93.8z M258.8,95.1c-0.6,0-1-0.2-1.3-0.6s-0.4-0.9-0.4-1.6v-3.2h1.6v3c0,0.4,0.1,0.6,0.2,0.8s0.3,0.2,0.6,0.2
	c0.2,0,0.4,0,0.5-0.1c0.2-0.1,0.3-0.2,0.5-0.5v-3.5h1.6v5.3h-1.3l-0.1-0.8l0,0c-0.2,0.3-0.5,0.5-0.8,0.6
	C259.5,95,259.2,95.1,258.8,95.1z M266.5,95.1c-0.4,0-0.8-0.1-1.2-0.2c-0.4-0.1-0.7-0.3-0.9-0.5c-0.3-0.2-0.5-0.5-0.6-0.9
	c-0.1-0.3-0.2-0.7-0.2-1.2s0.1-0.8,0.2-1.2c0.2-0.4,0.4-0.6,0.7-0.9c0.3-0.2,0.6-0.4,1-0.5s0.8-0.2,1.2-0.2c0.4,0,0.8,0.1,1.1,0.2
	c0.3,0.1,0.6,0.3,0.8,0.5l-0.7,1c-0.4-0.3-0.8-0.4-1.2-0.4c-0.5,0-0.8,0.1-1.1,0.4s-0.4,0.6-0.4,1.1s0.1,0.8,0.4,1.1
	s0.6,0.4,1.1,0.4c0.3,0,0.5,0,0.8-0.1c0.2-0.1,0.4-0.2,0.6-0.4l0.6,1c-0.3,0.3-0.7,0.5-1.1,0.6C267.2,95.1,266.8,95.1,266.5,95.1z
	 M273.4,95.1c-0.4,0-0.8-0.1-1.1-0.2s-0.5-0.3-0.7-0.5s-0.3-0.5-0.4-0.7c-0.1-0.3-0.1-0.6-0.1-0.9v-1.9h-1.3v-1.2l1.4-0.1l0.2-1.6
	h1.3v1.6h2.2v1.2h-2.2v1.9c0,0.4,0.1,0.7,0.3,0.9s0.5,0.2,0.9,0.2c0.2,0,0.4,0,0.5,0c0.2,0,0.3-0.1,0.5-0.2l0.3,1.1
	c-0.2,0.1-0.5,0.1-0.8,0.2C274,95.1,273.7,95.1,273.4,95.1z M283.1,95v-7h1.6v5.6h3.1v1.3L283.1,95L283.1,95z M291.4,95v-4.1h-2.2
	v-1.2h3.7V95H291.4z M291.6,88.9c-0.3,0-0.6-0.1-0.8-0.2c-0.2-0.2-0.3-0.4-0.3-0.7s0.1-0.5,0.3-0.7c0.2-0.2,0.5-0.3,0.8-0.3
	s0.5,0.1,0.7,0.3s0.3,0.4,0.3,0.7s-0.1,0.5-0.3,0.7C292.2,88.8,291.9,88.9,291.6,88.9z M298,95.1c-0.5,0-0.9-0.1-1.4-0.2
	c-0.4-0.2-0.8-0.3-1.2-0.6l0.7-1c0.3,0.2,0.7,0.4,1,0.5c0.4,0.1,0.7,0.2,1.1,0.2c0.3,0,0.5,0,0.6-0.1s0.2-0.2,0.2-0.3s0-0.1-0.1-0.2
	c0-0.1-0.1-0.1-0.2-0.2c-0.1,0-0.2-0.1-0.4-0.1c-0.2-0.1-0.4-0.1-0.6-0.2c-0.7-0.2-1.2-0.4-1.5-0.6c-0.3-0.3-0.5-0.6-0.5-1
	c0-0.2,0.1-0.5,0.2-0.7s0.3-0.4,0.5-0.5s0.5-0.3,0.8-0.3c0.3-0.1,0.6-0.1,1-0.1c0.5,0,0.9,0.1,1.3,0.2s0.7,0.3,1,0.5l-0.7,0.9
	c-0.3-0.2-0.6-0.3-0.8-0.4c-0.3-0.1-0.6-0.1-0.9-0.1c-0.2,0-0.4,0-0.6,0.1c-0.1,0.1-0.2,0.2-0.2,0.3c0,0.2,0.1,0.3,0.3,0.3
	c0.2,0.1,0.5,0.1,1,0.2c0.4,0.1,0.7,0.2,1,0.3s0.5,0.2,0.6,0.4c0.2,0.1,0.3,0.3,0.3,0.5c0.1,0.2,0.1,0.4,0.1,0.6s-0.1,0.5-0.2,0.7
	s-0.3,0.4-0.5,0.5s-0.5,0.3-0.8,0.4C298.8,95.1,298.4,95.1,298,95.1z M305.3,95.1c-0.4,0-0.8-0.1-1.1-0.2c-0.3-0.1-0.5-0.3-0.7-0.5
	s-0.3-0.5-0.4-0.7c-0.1-0.3-0.1-0.6-0.1-0.9v-1.9h-1.3v-1.2l1.4-0.1l0.2-1.6h1.3v1.6h2.2v1.2h-2.2v1.9c0,0.4,0.1,0.7,0.3,0.9
	c0.2,0.2,0.5,0.2,0.9,0.2c0.2,0,0.4,0,0.5,0c0.2,0,0.3-0.1,0.5-0.2l0.3,1.1c-0.2,0.1-0.5,0.1-0.8,0.2
	C306,95.1,305.7,95.1,305.3,95.1z"/>
<path class="st0" d="M200.7,150.4h129.8l7.3,7.3v86.6l0,0H208l-7.3-7.3V150.4z"/>
<path class="st1" d="M194.2,125.6h186.9v24.5H194.2V125.6z"/>
<path class="st2" d="M203.8,141.6v-7.7h1.2l3.2,3.8l3.2-3.8h1.2v7.7h-0.9v-6.7l-3.5,4.2l-3.5-4.2v6.7H203.8z M214.9,141.6
	c-0.4,0-0.7-0.1-0.9-0.4c-0.2-0.2-0.4-0.6-0.4-0.9v-2.2h5.4v-1.4c0-0.1,0-0.2-0.1-0.3s-0.2-0.1-0.3-0.1h-5v-0.9h5
	c0.4,0,0.7,0.1,0.9,0.4c0.3,0.2,0.4,0.6,0.4,0.9v4.9H214.9z M214.9,140.7h4.1v-1.8h-4.5v1.4c0,0.1,0,0.2,0.1,0.3
	C214.7,140.7,214.8,140.7,214.9,140.7z M220.9,141.6v-6.2h5c0.4,0,0.7,0.1,0.9,0.4c0.3,0.2,0.4,0.6,0.4,0.9v4.9h-0.9v-4.9
	c0-0.1,0-0.2-0.1-0.3s-0.2-0.1-0.3-0.1h-3.7c-0.1,0-0.2,0-0.3,0.1s-0.1,0.2-0.1,0.3v4.9L220.9,141.6L220.9,141.6z M229.6,141.6
	c-0.4,0-0.7-0.1-0.9-0.4c-0.2-0.2-0.4-0.6-0.4-0.9v-4.9h0.9v4.9c0,0.1,0,0.2,0.1,0.3s0.2,0.1,0.3,0.1h3.7c0.1,0,0.2,0,0.3-0.1
	s0.1-0.2,0.1-0.3v-4.9h0.9v4.9c0,0.4-0.1,0.7-0.4,0.9s-0.6,0.4-0.9,0.4H229.6z M235.6,141.6v-6.9c0-0.4,0.1-0.7,0.4-0.9
	s0.6-0.4,0.9-0.4h2.2v0.9h-2.2c-0.1,0-0.2,0-0.3,0.1s-0.1,0.2-0.1,0.3v0.7h2.7v0.9h-2.7v5.3L235.6,141.6L235.6,141.6z M241.2,141.6
	c-0.4,0-0.7-0.1-0.9-0.4c-0.2-0.2-0.4-0.6-0.4-0.9v-2.2h5.4v-1.4c0-0.1,0-0.2-0.1-0.3s-0.2-0.1-0.3-0.1h-5v-0.9h5
	c0.4,0,0.7,0.1,0.9,0.4c0.3,0.2,0.4,0.6,0.4,0.9v4.9H241.2z M241.2,140.7h4.1v-1.8h-4.5v1.4c0,0.1,0,0.2,0.1,0.3
	C241,140.7,241.1,140.7,241.2,140.7z M248.5,141.6c-0.4,0-0.7-0.1-0.9-0.4s-0.4-0.6-0.4-0.9v-3.6c0-0.4,0.1-0.7,0.4-0.9
	c0.2-0.3,0.6-0.4,0.9-0.4h5v0.9h-5c-0.1,0-0.2,0-0.3,0.1s-0.1,0.2-0.1,0.3v3.6c0,0.1,0,0.2,0.1,0.3s0.2,0.1,0.3,0.1h5v0.9
	L248.5,141.6L248.5,141.6z M255.6,141.6c-0.4,0-0.7-0.1-0.9-0.4s-0.4-0.6-0.4-0.9v-6.9h0.9v2h2.7v0.9h-2.7v4c0,0.1,0,0.2,0.1,0.3
	s0.2,0.1,0.3,0.1h2.2v0.9L255.6,141.6L255.6,141.6z M260,141.6c-0.4,0-0.7-0.1-0.9-0.4c-0.2-0.2-0.4-0.6-0.4-0.9v-4.9h0.9v4.9
	c0,0.1,0,0.2,0.1,0.3s0.2,0.1,0.3,0.1h3.7c0.1,0,0.2,0,0.3-0.1c0.1-0.1,0.1-0.2,0.1-0.3v-4.9h0.9v4.9c0,0.4-0.1,0.7-0.4,0.9
	s-0.6,0.4-0.9,0.4H260z M266.1,141.6v-4.9c0-0.4,0.1-0.7,0.4-0.9c0.3-0.3,0.6-0.4,0.9-0.4h3.5v0.9h-3.5c-0.1,0-0.2,0-0.3,0.1
	c-0.1,0.1-0.1,0.2-0.1,0.3v4.9L266.1,141.6L266.1,141.6z M272.8,141.6c-0.4,0-0.7-0.1-0.9-0.4s-0.4-0.6-0.4-0.9v-3.6
	c0-0.4,0.1-0.7,0.4-0.9c0.2-0.3,0.6-0.4,0.9-0.4h3.7c0.4,0,0.7,0.1,0.9,0.4c0.3,0.2,0.4,0.6,0.4,0.9v2.2h-5.4v1.4
	c0,0.1,0,0.2,0.1,0.3s0.2,0.1,0.3,0.1h5v0.9H272.8z M272.4,138.1h4.5v-1.4c0-0.1,0-0.2-0.1-0.3s-0.2-0.1-0.3-0.1h-3.7
	c-0.1,0-0.2,0-0.3,0.1c-0.1,0.1-0.1,0.2-0.1,0.3V138.1z M283.1,141.6c-0.4,0-0.7-0.1-0.9-0.4c-0.2-0.2-0.4-0.6-0.4-0.9V138
	c0-0.2,0.1-0.3,0.3-0.5c0.2-0.2,0.5-0.2,0.8-0.2c-0.4-0.3-0.6-0.7-0.6-1v-1.1c0-0.4,0.1-0.7,0.4-0.9s0.6-0.4,0.9-0.4h4.4
	c0.3,0,0.6,0.1,0.8,0.3c0.2,0.2,0.4,0.5,0.5,0.7v0.6h-0.9v-0.4c0-0.1,0-0.2-0.1-0.3s-0.2-0.1-0.3-0.1h-4.4c-0.1,0-0.2,0-0.3,0.1
	c-0.1,0.1-0.1,0.2-0.1,0.3v1.5l5.5,2.8V138h0.9v1.8l1.4,0.8v0.8l-1.5-0.8c-0.1,0.3-0.3,0.5-0.5,0.7s-0.5,0.3-0.8,0.3H283.1
	L283.1,141.6z M283.1,140.7h5.2c0.1,0,0.2,0,0.2-0.1c0.1-0.1,0.2-0.2,0.2-0.3l-5.4-2.8h-0.2c-0.1,0-0.2,0-0.3,0.1
	c-0.1,0.1-0.1,0.2-0.1,0.3v2.3c0,0.1,0,0.2,0.1,0.3C282.9,140.7,283,140.7,283.1,140.7z M296,141.6c-0.4,0-0.7-0.1-0.9-0.4
	s-0.4-0.6-0.4-0.9v-5.1c0-0.4,0.1-0.7,0.4-0.9s0.6-0.4,0.9-0.4h5.1c0.4,0,0.7,0.1,0.9,0.4s0.4,0.6,0.4,0.9v5.5h1v0.9H296z
	 M296,140.7h5.1c0.1,0,0.2,0,0.3-0.1c0.1-0.1,0.1-0.2,0.1-0.3v-5.1c0-0.1,0-0.2-0.1-0.3s-0.2-0.1-0.3-0.1H296c-0.1,0-0.2,0-0.3,0.1
	c-0.1,0.1-0.1,0.2-0.1,0.3v5.1c0,0.1,0,0.2,0.1,0.3C295.8,140.7,295.9,140.7,296,140.7z M305.4,141.6c-0.4,0-0.7-0.1-0.9-0.4
	c-0.2-0.2-0.4-0.6-0.4-0.9v-4.9h0.9v4.9c0,0.1,0,0.2,0.1,0.3s0.2,0.1,0.3,0.1h3.7c0.1,0,0.2,0,0.3-0.1c0.1-0.1,0.1-0.2,0.1-0.3v-4.9
	h0.9v4.9c0,0.4-0.1,0.7-0.4,0.9s-0.6,0.4-0.9,0.4H305.4z M312.8,141.6c-0.4,0-0.7-0.1-0.9-0.4c-0.2-0.2-0.4-0.6-0.4-0.9v-2.2h5.4
	v-1.4c0-0.1,0-0.2-0.1-0.3s-0.2-0.1-0.3-0.1h-5v-0.9h5c0.4,0,0.7,0.1,0.9,0.4c0.3,0.2,0.4,0.6,0.4,0.9v4.9H312.8z M312.8,140.7h4.1
	v-1.8h-4.5v1.4c0,0.1,0,0.2,0.1,0.3S312.7,140.7,312.8,140.7z M320.1,141.6c-0.4,0-0.7-0.1-0.9-0.4c-0.2-0.2-0.4-0.6-0.4-0.9v-6.9
	h0.9v6.9c0,0.1,0,0.2,0.1,0.3s0.2,0.1,0.3,0.1h1v0.9L320.1,141.6L320.1,141.6z M322,141.6v-6.2h0.9v6.2H322z M322,134.3v-0.9h0.9
	v0.9H322z M325.6,141.6c-0.4,0-0.7-0.1-0.9-0.4c-0.3-0.2-0.4-0.6-0.4-0.9v-6.9h0.9v2h2.7v0.9h-2.7v4c0,0.1,0,0.2,0.1,0.3
	s0.2,0.1,0.3,0.1h2.2v0.9L325.6,141.6L325.6,141.6z M329.7,144v-0.9h3.9c0.1,0,0.2,0,0.3-0.1c0.1-0.1,0.1-0.2,0.1-0.3v-1.2h-4.1
	c-0.4,0-0.7-0.1-0.9-0.4s-0.4-0.6-0.4-0.9v-4.9h0.9v4.9c0,0.1,0,0.2,0.1,0.3s0.2,0.1,0.3,0.1h3.7c0.1,0,0.2,0,0.3-0.1
	c0.1-0.1,0.1-0.2,0.1-0.3v-4.9h0.9v7.3c0,0.4-0.1,0.7-0.4,0.9c-0.2,0.3-0.6,0.4-0.9,0.4L329.7,144L329.7,144z"/>
<path class="st0" d="M24.1,247.8h96.5l4.6,4.6v23l0,0H28.7l-4.6-4.6V247.8z"/>
<path class="st2" d="M50.3,265.3v-7h1.6v5.6H55v1.3h-4.7V265.3z M57.9,265.5c-0.3,0-0.5,0-0.7-0.1s-0.4-0.2-0.5-0.3
	c-0.1-0.1-0.3-0.3-0.3-0.5c-0.1-0.2-0.1-0.4-0.1-0.6c0-0.3,0.1-0.6,0.2-0.8c0.1-0.2,0.3-0.4,0.6-0.6s0.6-0.3,1.1-0.4
	c0.4-0.1,1-0.2,1.6-0.2c0-0.2-0.1-0.4-0.3-0.6c-0.2-0.1-0.4-0.2-0.8-0.2c-0.2,0-0.5,0-0.8,0.1s-0.5,0.2-0.8,0.4l-0.5-1
	c0.4-0.2,0.8-0.4,1.2-0.5s0.9-0.2,1.3-0.2c0.7,0,1.3,0.2,1.8,0.6c0.4,0.4,0.6,1,0.6,1.8v3h-1.3l-0.1-0.6l0,0
	c-0.3,0.2-0.6,0.4-0.9,0.5C58.6,265.4,58.3,265.5,57.9,265.5z M58.4,264.2c0.2,0,0.4,0,0.7-0.1c0.2-0.1,0.4-0.2,0.6-0.4v-0.9
	c-0.4,0-0.7,0.1-1,0.1c-0.2,0-0.5,0.1-0.6,0.2s-0.2,0.2-0.3,0.3c-0.1,0.1-0.1,0.2-0.1,0.3c0,0.2,0.1,0.3,0.2,0.4
	C58,264.2,58.2,264.2,58.4,264.2z M62.7,265.3V260H64l0.1,0.7l0,0c0.2-0.2,0.5-0.4,0.8-0.6s0.7-0.2,1-0.2c0.6,0,1,0.2,1.3,0.6
	s0.4,0.9,0.4,1.6v3.3H66v-3.1c0-0.4-0.1-0.6-0.2-0.8c-0.1-0.2-0.3-0.2-0.6-0.2c-0.2,0-0.4,0-0.6,0.1s-0.3,0.2-0.5,0.4v3.5H62.7z
	 M71.3,267.6c-0.3,0-0.7,0-1-0.1s-0.5-0.1-0.8-0.2c-0.2-0.1-0.4-0.2-0.5-0.4c-0.1-0.2-0.2-0.4-0.2-0.6c0-0.4,0.3-0.8,0.8-1l0,0
	c-0.1-0.1-0.3-0.2-0.4-0.3c-0.1-0.1-0.2-0.3-0.2-0.6c0-0.2,0.1-0.4,0.2-0.5c0.1-0.2,0.3-0.3,0.5-0.5l0,0c-0.2-0.1-0.3-0.3-0.5-0.5
	c-0.1-0.2-0.2-0.5-0.2-0.8s0.1-0.6,0.2-0.8c0.1-0.2,0.3-0.4,0.5-0.6s0.4-0.3,0.7-0.4c0.3-0.1,0.6-0.1,0.9-0.1s0.6,0,0.9,0.1h2.1v1.1
	h-1.1c0.1,0.1,0.1,0.2,0.2,0.3c0.1,0.1,0.1,0.3,0.1,0.4c0,0.3-0.1,0.6-0.2,0.8c-0.1,0.2-0.3,0.4-0.5,0.5s-0.4,0.3-0.7,0.3
	c-0.3,0.1-0.5,0.1-0.9,0.1c-0.2,0-0.5,0-0.7-0.1c-0.1,0.1-0.1,0.1-0.2,0.2c0,0.1,0,0.1,0,0.2s0.1,0.2,0.2,0.3
	c0.1,0.1,0.4,0.1,0.7,0.1h1c0.7,0,1.2,0.1,1.6,0.3c0.4,0.2,0.5,0.5,0.5,1c0,0.3-0.1,0.5-0.2,0.8c-0.1,0.2-0.4,0.4-0.6,0.6
	c-0.3,0.2-0.6,0.3-1,0.4C72.2,267.5,71.7,267.6,71.3,267.6z M71.3,262.7c0.2,0,0.4-0.1,0.6-0.2s0.2-0.4,0.2-0.7
	c0-0.3-0.1-0.5-0.2-0.6c-0.2-0.2-0.3-0.2-0.6-0.2c-0.2,0-0.4,0.1-0.6,0.2c-0.1,0.1-0.2,0.4-0.2,0.6c0,0.3,0.1,0.5,0.2,0.7
	C70.9,262.6,71.1,262.7,71.3,262.7z M71.5,266.6c0.4,0,0.8-0.1,1-0.2c0.3-0.1,0.4-0.3,0.4-0.4c0-0.2-0.1-0.3-0.2-0.3
	c-0.2,0-0.4-0.1-0.7-0.1h-0.7c-0.2,0-0.3,0-0.5,0c-0.1,0-0.2,0-0.3-0.1c-0.1,0.1-0.2,0.2-0.3,0.2c-0.1,0.1-0.1,0.2-0.1,0.3
	c0,0.2,0.1,0.3,0.4,0.4C70.7,266.5,71.1,266.6,71.5,266.6z M77.1,265.5c-0.6,0-1-0.2-1.3-0.6s-0.4-0.9-0.4-1.6V260H77v3
	c0,0.4,0.1,0.6,0.2,0.8c0.1,0.2,0.3,0.2,0.6,0.2c0.2,0,0.4,0,0.5-0.1c0.2-0.1,0.3-0.2,0.5-0.5V260h1.6v5.3h-1.3l-0.1-0.8l0,0
	c-0.2,0.3-0.5,0.5-0.8,0.6C77.8,265.4,77.5,265.5,77.1,265.5z M83.5,265.5c-0.3,0-0.5,0-0.7-0.1s-0.4-0.2-0.5-0.3
	c-0.1-0.1-0.3-0.3-0.3-0.5c-0.1-0.2-0.1-0.4-0.1-0.6c0-0.3,0.1-0.6,0.2-0.8c0.1-0.2,0.3-0.4,0.6-0.6s0.6-0.3,1.1-0.4
	c0.4-0.1,1-0.2,1.6-0.2c0-0.2-0.1-0.4-0.3-0.6c-0.2-0.1-0.4-0.2-0.8-0.2c-0.2,0-0.5,0-0.8,0.1s-0.5,0.2-0.8,0.4l-0.5-1
	c0.4-0.2,0.7-0.4,1.2-0.5c0.4-0.1,0.9-0.2,1.3-0.2c0.7,0,1.3,0.2,1.8,0.6c0.4,0.4,0.6,1,0.6,1.8v3h-1.3l-0.1-0.6l0,0
	c-0.3,0.2-0.6,0.4-0.9,0.5C84.2,265.4,83.8,265.5,83.5,265.5z M84,264.2c0.2,0,0.4,0,0.7-0.1s0.4-0.2,0.6-0.4v-0.9
	c-0.4,0-0.7,0.1-1,0.1c-0.2,0-0.5,0.1-0.6,0.2s-0.2,0.2-0.3,0.3c-0.1,0.1-0.1,0.2-0.1,0.3c0,0.2,0.1,0.3,0.2,0.4
	C83.6,264.2,83.8,264.2,84,264.2z M90.4,267.6c-0.3,0-0.7,0-1-0.1s-0.5-0.1-0.8-0.2c-0.2-0.1-0.4-0.2-0.5-0.4
	c-0.1-0.2-0.2-0.4-0.2-0.6c0-0.4,0.3-0.8,0.8-1l0,0c-0.1-0.1-0.3-0.2-0.4-0.3c-0.1-0.1-0.2-0.3-0.2-0.6c0-0.2,0.1-0.4,0.2-0.5
	c0.1-0.2,0.3-0.3,0.5-0.5l0,0c-0.2-0.1-0.3-0.3-0.5-0.5c-0.1-0.2-0.2-0.5-0.2-0.8s0.1-0.6,0.2-0.8c0.1-0.2,0.3-0.4,0.5-0.6
	s0.4-0.3,0.7-0.4s0.6-0.1,0.9-0.1s0.6,0,0.9,0.1h2.1v1.1h-1.1c0.1,0.1,0.1,0.2,0.2,0.3c0.1,0.1,0.1,0.3,0.1,0.4
	c0,0.3-0.1,0.6-0.2,0.8s-0.3,0.4-0.5,0.5s-0.4,0.3-0.7,0.3c-0.3,0.1-0.5,0.1-0.9,0.1c-0.2,0-0.5,0-0.7-0.1c-0.1,0.1-0.1,0.1-0.2,0.2
	c0,0.1,0,0.1,0,0.2s0.1,0.2,0.2,0.3c0.1,0.1,0.4,0.1,0.7,0.1h1c0.7,0,1.2,0.1,1.6,0.3c0.4,0.2,0.5,0.5,0.5,1c0,0.3-0.1,0.5-0.2,0.8
	c-0.1,0.2-0.4,0.4-0.6,0.6c-0.3,0.2-0.6,0.3-1,0.4C91.4,267.5,90.9,267.6,90.4,267.6z M90.5,262.7c0.2,0,0.4-0.1,0.6-0.2
	s0.2-0.4,0.2-0.7c0-0.3-0.1-0.5-0.2-0.6c-0.2-0.2-0.3-0.2-0.6-0.2c-0.2,0-0.4,0.1-0.6,0.2c-0.1,0.1-0.2,0.4-0.2,0.6
	c0,0.3,0.1,0.5,0.2,0.7C90.1,262.6,90.3,262.7,90.5,262.7z M90.7,266.6c0.4,0,0.8-0.1,1-0.2c0.3-0.1,0.4-0.3,0.4-0.4
	c0-0.2-0.1-0.3-0.2-0.3c-0.2,0-0.4-0.1-0.7-0.1h-0.7c-0.2,0-0.3,0-0.5,0c-0.1,0-0.2,0-0.3-0.1c-0.1,0.1-0.2,0.2-0.3,0.2
	c-0.1,0.1-0.1,0.2-0.1,0.3c0,0.2,0.1,0.3,0.4,0.4C89.9,266.5,90.2,266.6,90.7,266.6z M97.4,265.5c-0.4,0-0.8-0.1-1.2-0.2
	s-0.7-0.3-0.9-0.5c-0.3-0.2-0.5-0.5-0.6-0.9c-0.1-0.3-0.2-0.7-0.2-1.2s0.1-0.8,0.2-1.2c0.2-0.3,0.4-0.6,0.6-0.9
	c0.3-0.2,0.6-0.4,0.9-0.5s0.7-0.2,1-0.2c0.4,0,0.8,0.1,1.1,0.2s0.6,0.3,0.8,0.5s0.4,0.5,0.5,0.8s0.2,0.6,0.2,1c0,0.1,0,0.3,0,0.4
	s0,0.2,0,0.3h-3.6c0.1,0.4,0.2,0.7,0.5,0.8c0.3,0.2,0.6,0.3,1.1,0.3c0.2,0,0.5,0,0.7-0.1s0.4-0.2,0.7-0.3l0.5,1
	c-0.3,0.2-0.6,0.3-1,0.5C98.1,265.4,97.8,265.5,97.4,265.5z M97.3,261.1c-0.3,0-0.6,0.1-0.8,0.2c-0.2,0.2-0.4,0.4-0.4,0.7h2.3
	C98.2,261.4,97.9,261.1,97.3,261.1z"/>
<path class="st3" d="M218.6,167.3h96.6l4.6,4.6v23l0,0h-96.5l-4.6-4.6v-23H218.6z"/>
<path class="st0" d="M218.6,167.3h96.6l4.6,4.6v23l0,0h-96.5l-4.6-4.6v-23H218.6z"/>
<path class="st2" d="M234.7,184.9v-7h1.6l0.7,2.5l0.2,1l0,0l0.2-1l0.7-2.5h1.6v7h-1.3v-2.2c0-0.2,0-0.4,0-0.7s0-0.6,0.1-0.9
	c0-0.3,0-0.6,0.1-0.9c0-0.3,0.1-0.5,0.1-0.7l0,0l-0.5,1.9l-0.5,1.7h-0.8l-0.5-1.7l-0.5-1.9l0,0c0,0.2,0,0.4,0.1,0.7
	c0,0.3,0,0.6,0.1,0.9c0,0.3,0,0.6,0,0.9s0,0.5,0,0.7v2.2H234.7z M242.8,185c-0.3,0-0.5,0-0.7-0.1s-0.4-0.2-0.5-0.3s-0.3-0.3-0.3-0.5
	c-0.1-0.2-0.1-0.4-0.1-0.6c0-0.3,0.1-0.6,0.2-0.8c0.1-0.2,0.3-0.4,0.6-0.6s0.6-0.3,1.1-0.4c0.4-0.1,1-0.2,1.6-0.2
	c0-0.2-0.1-0.4-0.3-0.6c-0.2-0.1-0.4-0.2-0.8-0.2c-0.2,0-0.5,0-0.8,0.1s-0.5,0.2-0.8,0.4l-0.5-1c0.4-0.2,0.8-0.4,1.2-0.5
	s0.9-0.2,1.3-0.2c0.7,0,1.3,0.2,1.8,0.6c0.4,0.4,0.6,1,0.6,1.8v3h-1.3l-0.1-0.6l0,0c-0.3,0.2-0.6,0.4-0.9,0.5
	C243.5,185,243.2,185,242.8,185z M243.3,183.8c0.2,0,0.4,0,0.7-0.1s0.4-0.2,0.6-0.4v-0.9c-0.4,0-0.7,0.1-1,0.1
	c-0.2,0-0.5,0.1-0.6,0.2s-0.2,0.2-0.3,0.3s-0.1,0.2-0.1,0.3c0,0.2,0.1,0.3,0.2,0.4C242.9,183.8,243.1,183.8,243.3,183.8z
	 M247.6,184.9v-5.3h1.3l0.1,0.7l0,0c0.2-0.2,0.5-0.4,0.8-0.6s0.7-0.2,1-0.2c0.6,0,1,0.2,1.3,0.6s0.4,0.9,0.4,1.6v3.3h-1.6v-3.1
	c0-0.4-0.1-0.6-0.2-0.8c-0.1-0.2-0.3-0.2-0.6-0.2c-0.2,0-0.4,0-0.6,0.1s-0.3,0.2-0.5,0.4v3.5H247.6z M255.6,185
	c-0.6,0-1-0.2-1.3-0.6s-0.4-0.9-0.4-1.6v-3.2h1.6v3c0,0.4,0.1,0.6,0.2,0.8c0.1,0.2,0.3,0.2,0.6,0.2c0.2,0,0.4,0,0.5-0.1
	c0.2-0.1,0.3-0.2,0.5-0.5v-3.5h1.6v5.3h-1.3l-0.1-0.8l0,0c-0.2,0.3-0.5,0.5-0.8,0.6C256.3,185,256,185,255.6,185z M261.9,184.9v-4.1
	h-1.4v-1.2l1.4-0.1v-0.1c0-0.3,0-0.6,0.1-0.8c0.1-0.3,0.2-0.5,0.4-0.7c0.2-0.2,0.4-0.4,0.7-0.5c0.3-0.1,0.7-0.2,1.1-0.2
	c0.3,0,0.6,0,0.8,0.1c0.3,0.1,0.5,0.1,0.8,0.2l-0.3,1.2c-0.4-0.1-0.7-0.2-1.1-0.2c-0.3,0-0.6,0.1-0.8,0.2c-0.2,0.1-0.2,0.4-0.2,0.7
	v0.2h1.8v1.2h-1.8v4.1L261.9,184.9L261.9,184.9z M268.4,185c-0.3,0-0.5,0-0.7-0.1s-0.4-0.2-0.5-0.3s-0.3-0.3-0.3-0.5
	c-0.1-0.2-0.1-0.4-0.1-0.6c0-0.3,0.1-0.6,0.2-0.8s0.3-0.4,0.6-0.6s0.6-0.3,1.1-0.4c0.4-0.1,1-0.2,1.6-0.2c0-0.2-0.1-0.4-0.3-0.6
	c-0.2-0.1-0.4-0.2-0.8-0.2c-0.2,0-0.5,0-0.8,0.1s-0.5,0.2-0.8,0.4l-0.5-1c0.4-0.2,0.8-0.4,1.2-0.5c0.4-0.1,0.9-0.2,1.3-0.2
	c0.7,0,1.3,0.2,1.8,0.6c0.4,0.4,0.6,1,0.6,1.8v3h-1.3l-0.1-0.6l0,0c-0.3,0.2-0.6,0.4-0.9,0.5C269.1,185,268.8,185,268.4,185z
	 M268.9,183.8c0.2,0,0.4,0,0.7-0.1s0.4-0.2,0.6-0.4v-0.9c-0.4,0-0.7,0.1-1,0.1c-0.2,0-0.5,0.1-0.6,0.2s-0.2,0.2-0.3,0.3
	c-0.1,0.1-0.1,0.2-0.1,0.3c0,0.2,0.1,0.3,0.2,0.4C268.5,183.8,268.7,183.8,268.9,183.8z M276.1,185c-0.4,0-0.8-0.1-1.2-0.2
	c-0.4-0.1-0.7-0.3-0.9-0.5c-0.3-0.2-0.5-0.5-0.6-0.9c-0.1-0.3-0.2-0.7-0.2-1.2s0.1-0.8,0.2-1.2c0.2-0.4,0.4-0.6,0.7-0.9
	c0.3-0.2,0.6-0.4,1-0.5s0.8-0.2,1.2-0.2c0.4,0,0.8,0.1,1.1,0.2c0.3,0.1,0.6,0.3,0.8,0.5l-0.7,1c-0.4-0.3-0.8-0.4-1.2-0.4
	c-0.5,0-0.8,0.1-1.1,0.4c-0.3,0.3-0.4,0.6-0.4,1.1s0.1,0.8,0.4,1.1s0.6,0.4,1.1,0.4c0.3,0,0.5,0,0.8-0.1c0.2-0.1,0.4-0.2,0.6-0.4
	l0.6,1c-0.3,0.3-0.7,0.5-1.1,0.6C276.8,185,276.4,185,276.1,185z M283,185c-0.4,0-0.8-0.1-1.1-0.2c-0.3-0.1-0.5-0.3-0.7-0.5
	s-0.3-0.5-0.4-0.7c-0.1-0.3-0.1-0.6-0.1-0.9v-1.9h-1.3v-1.2l1.4-0.1l0.2-1.6h1.3v1.6h2.2v1.2h-2.3v1.9c0,0.4,0.1,0.7,0.3,0.9
	c0.2,0.2,0.5,0.2,0.9,0.2c0.2,0,0.4,0,0.5,0c0.2,0,0.3-0.1,0.5-0.2l0.3,1.1c-0.2,0.1-0.5,0.1-0.8,0.2C283.6,185,283.3,185,283,185z
	 M287.6,185c-0.6,0-1-0.2-1.3-0.6s-0.4-0.9-0.4-1.6v-3.2h1.6v3c0,0.4,0.1,0.6,0.2,0.8s0.3,0.2,0.6,0.2c0.2,0,0.4,0,0.5-0.1
	c0.2-0.1,0.3-0.2,0.5-0.5v-3.5h1.6v5.3h-1.3l-0.1-0.8l0,0c-0.2,0.3-0.5,0.5-0.8,0.6C288.3,185,288,185,287.6,185z M292.8,184.9v-5.3
	h1.3l0.1,1.1l0,0c0.3-0.4,0.6-0.7,0.9-1c0.4-0.2,0.8-0.3,1.2-0.3c0.2,0,0.4,0,0.6,0c0.1,0,0.3,0.1,0.5,0.2l-0.3,1.3
	c-0.2-0.1-0.3-0.1-0.4-0.1s-0.3,0-0.5,0c-0.3,0-0.6,0.1-1,0.3c-0.3,0.2-0.6,0.5-0.8,1v2.8H292.8z M301.5,185c-0.4,0-0.8-0.1-1.2-0.2
	c-0.4-0.1-0.7-0.3-0.9-0.5c-0.3-0.2-0.5-0.5-0.6-0.9c-0.1-0.3-0.2-0.7-0.2-1.2s0.1-0.8,0.2-1.2c0.2-0.3,0.4-0.6,0.6-0.9
	c0.3-0.2,0.6-0.4,0.9-0.5s0.7-0.2,1-0.2c0.4,0,0.8,0.1,1.1,0.2s0.6,0.3,0.8,0.5c0.2,0.2,0.4,0.5,0.5,0.8s0.2,0.6,0.2,1
	c0,0.1,0,0.3,0,0.4s0,0.2,0,0.3h-3.6c0.1,0.4,0.2,0.7,0.5,0.8c0.3,0.2,0.6,0.3,1.1,0.3c0.2,0,0.5,0,0.7-0.1s0.4-0.2,0.7-0.3l0.5,1
	c-0.3,0.2-0.6,0.3-1,0.5C302.2,185,301.9,185,301.5,185z M301.4,180.7c-0.3,0-0.6,0.1-0.8,0.2c-0.2,0.2-0.4,0.4-0.4,0.7h2.3
	C302.3,181,302,180.7,301.4,180.7z"/>
<path class="st3" d="M218.6,200.1h96.6l4.6,4.6v23l0,0h-96.5l-4.6-4.6v-23H218.6z"/>
<path class="st0" d="M218.6,200.1h96.6l4.6,4.6v23l0,0h-96.5l-4.6-4.6v-23H218.6z"/>
<path class="st2" d="M250,210c0.4,0,0.6-0.2,0.8-0.6c0.2-0.4,0.3-1,0.3-1.8c0-0.7-0.1-1.3-0.3-1.7s-0.5-0.6-0.8-0.6
	c-0.4,0-0.7,0.2-0.9,0.6c-0.2,0.4-0.3,0.9-0.3,1.7s0.1,1.4,0.3,1.8C249.4,209.9,249.7,210,250,210z M252,213.1c-0.3,0-0.7,0-0.9-0.1
	c-0.3-0.1-0.5-0.2-0.8-0.4c-0.2-0.2-0.4-0.4-0.6-0.6s-0.3-0.5-0.4-0.7c-0.6-0.2-1.1-0.5-1.5-1.1s-0.5-1.4-0.5-2.4
	c0-0.6,0.1-1.1,0.2-1.5s0.3-0.8,0.6-1.1c0.2-0.3,0.5-0.5,0.9-0.7c0.3-0.2,0.7-0.2,1.1-0.2s0.8,0.1,1.1,0.2c0.3,0.1,0.6,0.4,0.9,0.7
	c0.2,0.3,0.4,0.7,0.6,1.1c0.1,0.4,0.2,1,0.2,1.5c0,1-0.2,1.7-0.5,2.3s-0.8,1-1.4,1.2c0.1,0.2,0.3,0.4,0.5,0.5s0.5,0.1,0.7,0.1
	c0.1,0,0.2,0,0.3,0s0.2-0.1,0.2-0.1l0.3,1.2c-0.1,0.1-0.3,0.1-0.4,0.2C252.5,213.1,252.3,213.1,252,213.1z M255.6,211.3
	c-0.6,0-1-0.2-1.3-0.6s-0.4-0.9-0.4-1.6v-3.2h1.6v3c0,0.4,0.1,0.6,0.2,0.8c0.1,0.2,0.3,0.2,0.6,0.2c0.2,0,0.4,0,0.5-0.1
	c0.2-0.1,0.3-0.2,0.5-0.5v-3.5h1.6v5.3h-1.3l-0.1-0.8l0,0c-0.2,0.3-0.5,0.5-0.8,0.6C256.3,211.2,256,211.3,255.6,211.3z M262,211.3
	c-0.3,0-0.5,0-0.7-0.1s-0.4-0.2-0.5-0.3s-0.3-0.3-0.3-0.5c-0.1-0.2-0.1-0.4-0.1-0.6c0-0.3,0.1-0.6,0.2-0.8s0.3-0.4,0.6-0.6
	s0.6-0.3,1.1-0.4c0.4-0.1,1-0.2,1.6-0.2c0-0.2-0.1-0.4-0.3-0.6c-0.2-0.1-0.4-0.2-0.8-0.2c-0.2,0-0.5,0-0.8,0.1s-0.5,0.2-0.8,0.4
	l-0.5-1c0.4-0.2,0.8-0.4,1.2-0.5c0.4-0.1,0.9-0.2,1.3-0.2c0.7,0,1.3,0.2,1.8,0.6c0.4,0.4,0.6,1,0.6,1.8v3h-1.3l-0.1-0.6l0,0
	c-0.3,0.2-0.6,0.4-0.9,0.5C262.7,211.3,262.4,211.3,262,211.3z M262.5,210.1c0.2,0,0.4,0,0.7-0.1s0.4-0.2,0.6-0.4v-0.9
	c-0.4,0-0.7,0.1-1,0.1c-0.2,0-0.5,0.1-0.6,0.2s-0.2,0.2-0.3,0.3c-0.1,0.1-0.1,0.2-0.1,0.3c0,0.2,0.1,0.3,0.2,0.4
	C262.1,210.1,262.3,210.1,262.5,210.1z M270.2,211.3c-0.7,0-1.2-0.2-1.5-0.6s-0.5-0.9-0.5-1.6V205h-1.7v-1.2h3.2v5.5
	c0,0.2,0,0.3,0.1,0.4s0.1,0.2,0.2,0.3s0.2,0.1,0.3,0.1c0.1,0,0.2,0,0.3,0c0.1,0,0.2,0,0.4,0c0.1,0,0.3-0.1,0.5-0.1l0.3,1.2
	c-0.1,0-0.3,0.1-0.4,0.1s-0.2,0.1-0.4,0.1c-0.1,0-0.2,0-0.4,0C270.5,211.3,270.4,211.3,270.2,211.3z M275.4,211.2v-4.1h-2.1v-1.2
	h3.7v5.3H275.4L275.4,211.2z M275.6,205.1c-0.3,0-0.6-0.1-0.8-0.2c-0.2-0.2-0.3-0.4-0.3-0.7s0.1-0.5,0.3-0.7
	c0.2-0.2,0.5-0.3,0.8-0.3s0.5,0.1,0.7,0.3s0.3,0.4,0.3,0.7s-0.1,0.5-0.3,0.7C276.2,205,275.9,205.1,275.6,205.1z M283,211.3
	c-0.4,0-0.8-0.1-1.1-0.2c-0.3-0.1-0.5-0.3-0.7-0.5s-0.3-0.5-0.4-0.7c-0.1-0.3-0.1-0.6-0.1-0.9v-1.9h-1.3V206l1.4-0.1l0.2-1.6h1.3
	v1.6h2.2v1.2h-2.3v1.9c0,0.4,0.1,0.7,0.3,0.9c0.2,0.2,0.5,0.2,0.9,0.2c0.2,0,0.4,0,0.5,0c0.2,0,0.3-0.1,0.5-0.2l0.3,1.1
	c-0.2,0.1-0.5,0.1-0.8,0.2C283.6,211.3,283.3,211.3,283,211.3z M286.7,213.3c-0.2,0-0.3,0-0.4,0s-0.3,0-0.4-0.1l0.3-1.2
	c0.1,0,0.3,0.1,0.4,0.1c0.3,0,0.5-0.1,0.7-0.2s0.3-0.3,0.4-0.5l0.1-0.3l-2.3-5.1h1.6l0.9,2.3c0.1,0.2,0.2,0.5,0.3,0.8
	c0.1,0.3,0.2,0.5,0.2,0.8l0,0c0.1-0.3,0.2-0.5,0.2-0.8c0.1-0.3,0.2-0.5,0.2-0.8l0.8-2.3h1.5l-2.1,5.3c-0.1,0.3-0.3,0.6-0.4,0.9
	s-0.3,0.5-0.5,0.6c-0.2,0.2-0.4,0.3-0.7,0.4C287.4,213.2,287.1,213.3,286.7,213.3z"/>
<path class="st2" d="M253.2,224.3c-0.5,0-0.9-0.1-1.4-0.2c-0.5-0.2-0.9-0.4-1.2-0.8l0.9-1.1c0.3,0.2,0.5,0.4,0.9,0.5
	c0.3,0.1,0.6,0.2,1,0.2s0.6-0.1,0.8-0.2c0.2-0.1,0.2-0.3,0.2-0.4s0-0.2-0.1-0.3s-0.1-0.2-0.2-0.2c-0.1-0.1-0.2-0.1-0.3-0.2
	c-0.1-0.1-0.3-0.1-0.5-0.2l-0.9-0.4c-0.2-0.1-0.4-0.2-0.6-0.3c-0.2-0.1-0.3-0.2-0.5-0.4c-0.1-0.2-0.2-0.3-0.3-0.5s-0.1-0.4-0.1-0.7
	s0.1-0.5,0.2-0.8s0.3-0.5,0.5-0.7s0.5-0.3,0.8-0.4s0.7-0.2,1-0.2c0.4,0,0.8,0.1,1.2,0.2c0.4,0.2,0.8,0.4,1.1,0.7l-0.8,1
	c-0.2-0.2-0.5-0.3-0.7-0.4s-0.5-0.1-0.9-0.1c-0.3,0-0.5,0.1-0.6,0.2c-0.2,0.1-0.2,0.3-0.2,0.5s0.1,0.4,0.3,0.5s0.5,0.2,0.8,0.3
	l0.8,0.4c0.5,0.2,0.8,0.4,1.1,0.7s0.4,0.7,0.4,1.2c0,0.3-0.1,0.6-0.2,0.8c-0.1,0.3-0.3,0.5-0.5,0.7s-0.5,0.4-0.8,0.5
	C254,224.3,253.6,224.3,253.2,224.3z M258,226.3c-0.2,0-0.3,0-0.4,0s-0.3,0-0.4-0.1l0.3-1.2c0.1,0,0.3,0.1,0.4,0.1
	c0.3,0,0.5-0.1,0.7-0.2s0.3-0.3,0.4-0.5l0.1-0.3l-2.3-5.1h1.6l0.9,2.3c0.1,0.2,0.2,0.5,0.3,0.8c0.1,0.3,0.2,0.5,0.2,0.8l0,0
	c0.1-0.3,0.2-0.5,0.2-0.8c0.1-0.3,0.2-0.5,0.2-0.8l0.8-2.3h1.5l-2.1,5.3c-0.1,0.3-0.3,0.6-0.4,0.9s-0.3,0.5-0.5,0.6
	c-0.2,0.2-0.4,0.3-0.7,0.4C258.6,226.2,258.3,226.3,258,226.3z M266,224.3c-0.5,0-0.9-0.1-1.4-0.2c-0.4-0.2-0.8-0.3-1.2-0.6l0.7-1
	c0.3,0.2,0.7,0.4,1,0.5c0.4,0.1,0.7,0.2,1.1,0.2c0.3,0,0.5,0,0.6-0.1s0.2-0.2,0.2-0.3s0-0.1-0.1-0.2c0-0.1-0.1-0.1-0.2-0.2
	c-0.1,0-0.2-0.1-0.4-0.1c-0.2-0.1-0.4-0.1-0.6-0.2c-0.7-0.2-1.2-0.4-1.5-0.6c-0.3-0.3-0.5-0.6-0.5-1c0-0.2,0.1-0.5,0.2-0.7
	s0.3-0.4,0.5-0.5s0.5-0.3,0.8-0.3c0.3-0.1,0.6-0.1,1-0.1c0.5,0,0.9,0.1,1.3,0.2s0.7,0.3,1,0.5l-0.7,0.9c-0.3-0.2-0.6-0.3-0.8-0.4
	c-0.3-0.1-0.6-0.1-0.9-0.1c-0.2,0-0.4,0-0.6,0.1c-0.1,0.1-0.2,0.2-0.2,0.3c0,0.2,0.1,0.3,0.3,0.3c0.2,0.1,0.5,0.1,1,0.2
	c0.4,0.1,0.7,0.2,1,0.3s0.5,0.2,0.6,0.4c0.2,0.1,0.3,0.3,0.3,0.5c0.1,0.2,0.1,0.4,0.1,0.6s-0.1,0.5-0.2,0.7s-0.3,0.4-0.5,0.5
	s-0.5,0.3-0.8,0.4C266.8,224.3,266.4,224.3,266,224.3z M273.4,224.3c-0.4,0-0.8-0.1-1.1-0.2c-0.3-0.1-0.5-0.3-0.7-0.5
	s-0.3-0.5-0.4-0.7c-0.1-0.3-0.1-0.6-0.1-0.9v-1.9h-1.3V219l1.4-0.1l0.2-1.6h1.3v1.6h2.2v1.2h-2.2v1.9c0,0.4,0.1,0.7,0.3,0.9
	c0.2,0.2,0.5,0.2,0.9,0.2c0.2,0,0.4,0,0.5,0c0.2,0,0.3-0.1,0.5-0.2l0.3,1.1c-0.2,0.1-0.5,0.1-0.8,0.2
	C274,224.3,273.7,224.3,273.4,224.3z M279.1,224.3c-0.4,0-0.8-0.1-1.2-0.2c-0.4-0.1-0.7-0.3-0.9-0.5c-0.3-0.2-0.5-0.5-0.6-0.9
	c-0.1-0.3-0.2-0.7-0.2-1.2s0.1-0.8,0.2-1.2c0.2-0.3,0.4-0.6,0.6-0.9c0.3-0.2,0.6-0.4,0.9-0.5s0.7-0.2,1-0.2c0.4,0,0.8,0.1,1.1,0.2
	s0.6,0.3,0.8,0.5c0.2,0.2,0.4,0.5,0.5,0.8s0.2,0.6,0.2,1c0,0.1,0,0.3,0,0.4s0,0.2,0,0.3h-3.6c0.1,0.4,0.2,0.7,0.5,0.8
	c0.3,0.2,0.6,0.3,1.1,0.3c0.2,0,0.5,0,0.7-0.1s0.4-0.2,0.7-0.3l0.5,1c-0.3,0.2-0.6,0.3-1,0.5C279.8,224.3,279.5,224.3,279.1,224.3z
	 M279,220c-0.3,0-0.6,0.1-0.8,0.2c-0.2,0.2-0.4,0.4-0.4,0.7h2.3C280,220.3,279.6,220,279,220z M282.4,224.2v-5.3h1.2l0.1,0.6l0,0
	c0.1-0.2,0.2-0.4,0.4-0.5c0.2-0.2,0.4-0.2,0.7-0.2c0.2,0,0.4,0.1,0.6,0.2s0.3,0.4,0.3,0.6c0.1-0.2,0.2-0.4,0.4-0.6
	c0.2-0.2,0.4-0.2,0.8-0.2s0.7,0.2,0.9,0.5c0.2,0.3,0.3,0.7,0.3,1.2v3.7h-1.5v-3.6c0-0.2,0-0.3-0.1-0.3c0-0.1-0.1-0.1-0.2-0.1
	s-0.2,0-0.3,0.1c-0.1,0.1-0.1,0.2-0.2,0.4v3.6h-1.2v-3.6c0-0.3-0.1-0.5-0.3-0.5c-0.1,0-0.2,0-0.2,0.1c-0.1,0.1-0.1,0.2-0.2,0.4v3.6
	L282.4,224.2L282.4,224.2L282.4,224.2z"/>
<path class="st3" d="M24.3,64.1h96.5l4.6,4.6v23l0,0H28.9l-4.6-4.6V64.1z"/>
<path class="st0" d="M24.3,64.1h96.5l4.6,4.6v23l0,0H28.9l-4.6-4.6V64.1z"/>
<path class="st2" d="M53.3,75.1v-7h2.5c0.4,0,0.7,0,1,0.1s0.6,0.2,0.9,0.4c0.2,0.2,0.4,0.4,0.6,0.7c0.1,0.3,0.2,0.6,0.2,1.1
	c0,0.4-0.1,0.7-0.2,1S58,72,57.7,72.2c-0.2,0.2-0.5,0.3-0.9,0.4c-0.3,0.1-0.7,0.1-1,0.1h-0.9v2.4H53.3z M54.8,71.5h0.8
	c0.8,0,1.3-0.4,1.3-1.1c0-0.4-0.1-0.6-0.3-0.8c-0.2-0.2-0.5-0.2-0.9-0.2h-0.8L54.8,71.5L54.8,71.5z M60.1,75.1v-5.3h1.3l0.1,1.1l0,0
	c0.3-0.4,0.6-0.7,0.9-1c0.4-0.2,0.8-0.3,1.2-0.3c0.2,0,0.4,0,0.6,0c0.1,0,0.3,0.1,0.5,0.2l-0.3,1.3C64.2,71,64.1,71,64,71
	s-0.3,0-0.5,0c-0.3,0-0.6,0.1-1,0.3c-0.3,0.2-0.6,0.5-0.8,1v2.8C61.7,75.1,60.1,75.1,60.1,75.1z M68.5,75.3c-0.4,0-0.7-0.1-1-0.2
	s-0.6-0.3-0.9-0.5c-0.2-0.2-0.5-0.5-0.6-0.9c-0.1-0.3-0.2-0.7-0.2-1.2s0.1-0.8,0.2-1.2c0.2-0.4,0.4-0.6,0.6-0.9
	c0.2-0.2,0.5-0.4,0.9-0.5c0.3-0.1,0.7-0.2,1-0.2s0.7,0.1,1,0.2s0.6,0.3,0.9,0.5s0.5,0.5,0.6,0.9c0.1,0.3,0.2,0.7,0.2,1.2
	s-0.1,0.8-0.2,1.2c-0.1,0.3-0.3,0.6-0.6,0.9c-0.2,0.2-0.5,0.4-0.9,0.5C69.2,75.2,68.8,75.3,68.5,75.3z M68.5,74
	c0.4,0,0.6-0.1,0.8-0.4c0.2-0.3,0.3-0.6,0.3-1.1s-0.1-0.8-0.3-1.1c-0.2-0.3-0.4-0.4-0.8-0.4s-0.6,0.1-0.8,0.4
	c-0.2,0.3-0.3,0.6-0.3,1.1s0.1,0.8,0.3,1.1C67.8,73.9,68.1,74,68.5,74z M74.4,75.3c-0.3,0-0.6-0.1-0.9-0.2s-0.5-0.3-0.7-0.5
	s-0.3-0.5-0.5-0.9c-0.1-0.3-0.2-0.7-0.2-1.2c0-0.4,0.1-0.8,0.2-1.2c0.1-0.3,0.3-0.6,0.5-0.9c0.2-0.2,0.4-0.4,0.7-0.5
	s0.6-0.2,0.8-0.2c0.3,0,0.5,0,0.8,0.1c0.2,0.1,0.4,0.2,0.6,0.4l0,0l-0.1-0.8v-1.8h1.6v7.5h-1.3l-0.1-0.5l0,0
	c-0.2,0.2-0.4,0.4-0.7,0.5C74.9,75.2,74.7,75.3,74.4,75.3z M74.8,74c0.2,0,0.3,0,0.5-0.1c0.1-0.1,0.3-0.2,0.4-0.4v-2.1
	c-0.1-0.1-0.3-0.2-0.4-0.3C75.2,71,75,71,74.8,71c-0.3,0-0.5,0.1-0.8,0.4c-0.2,0.2-0.3,0.6-0.3,1.1s0.1,0.9,0.3,1.2
	C74.2,73.9,74.5,74,74.8,74z M80.4,75.3c-0.6,0-1-0.2-1.3-0.6s-0.4-0.9-0.4-1.6v-3.2h1.6v3c0,0.4,0.1,0.6,0.2,0.8
	c0.1,0.2,0.3,0.2,0.6,0.2c0.2,0,0.4,0,0.5-0.1c0.2-0.1,0.3-0.2,0.5-0.5v-3.5h1.6v5.3h-1.3l-0.1-0.8l0,0c-0.2,0.3-0.5,0.5-0.8,0.6
	C81.2,75.2,80.8,75.3,80.4,75.3z M88.1,75.3c-0.4,0-0.8-0.1-1.2-0.2c-0.4-0.1-0.7-0.3-0.9-0.5c-0.3-0.2-0.5-0.5-0.6-0.9
	c-0.1-0.3-0.2-0.7-0.2-1.2s0.1-0.8,0.2-1.2c0.2-0.4,0.4-0.6,0.7-0.9c0.3-0.2,0.6-0.4,1-0.5s0.8-0.2,1.2-0.2s0.8,0.1,1.1,0.2
	c0.3,0.1,0.6,0.3,0.8,0.5l-0.7,1c-0.4-0.3-0.8-0.4-1.2-0.4c-0.5,0-0.8,0.1-1.1,0.4s-0.4,0.6-0.4,1.1s0.1,0.8,0.4,1.1
	c0.3,0.3,0.6,0.4,1.1,0.4c0.3,0,0.5,0,0.8-0.1c0.2-0.1,0.4-0.2,0.6-0.4l0.6,1c-0.3,0.3-0.7,0.5-1.1,0.6
	C88.8,75.2,88.5,75.3,88.1,75.3z M95,75.3c-0.4,0-0.8-0.1-1.1-0.2c-0.3-0.1-0.5-0.3-0.7-0.5s-0.3-0.5-0.4-0.7
	c-0.1-0.3-0.1-0.6-0.1-0.9v-1.9h-1.3v-1.2l1.4-0.1l0.2-1.6h1.3v1.6h2.2V71h-2.2v1.9c0,0.4,0.1,0.7,0.3,0.9s0.5,0.2,0.9,0.2
	c0.2,0,0.4,0,0.5,0c0.2,0,0.3-0.1,0.5-0.2l0.3,1.1C96.6,75,96.3,75,96,75.1S95.3,75.3,95,75.3z"/>
<path class="st2" d="M58.9,88.3c-0.5,0-0.9-0.1-1.4-0.2s-0.9-0.4-1.2-0.8l0.9-1.1c0.3,0.2,0.5,0.4,0.9,0.5s0.6,0.2,1,0.2
	s0.6-0.1,0.8-0.2s0.2-0.3,0.2-0.4s0-0.2-0.1-0.3s-0.1-0.2-0.2-0.2c-0.1-0.1-0.2-0.1-0.3-0.2s-0.3-0.1-0.5-0.2L58.1,85
	c-0.2-0.1-0.4-0.2-0.6-0.3s-0.3-0.2-0.5-0.4c-0.1-0.2-0.2-0.3-0.3-0.5s-0.1-0.4-0.1-0.7s0.1-0.5,0.2-0.8s0.3-0.5,0.5-0.7
	s0.5-0.3,0.8-0.4s0.7-0.2,1-0.2c0.4,0,0.8,0.1,1.2,0.2s0.8,0.4,1.1,0.7l-0.8,1c-0.2-0.2-0.5-0.3-0.7-0.4s-0.5-0.1-0.9-0.1
	c-0.3,0-0.5,0.1-0.6,0.2c-0.2,0.1-0.2,0.3-0.2,0.5s0.1,0.4,0.3,0.5s0.5,0.2,0.8,0.3l0.8,0.4c0.5,0.2,0.8,0.4,1.1,0.7
	c0.3,0.3,0.4,0.7,0.4,1.2c0,0.3-0.1,0.6-0.2,0.8c-0.1,0.3-0.3,0.5-0.5,0.7s-0.5,0.4-0.8,0.5S59.3,88.3,58.9,88.3z M65.6,88.3
	c-0.4,0-0.8-0.1-1.2-0.2c-0.4-0.1-0.7-0.3-0.9-0.5c-0.3-0.2-0.5-0.5-0.6-0.9c-0.1-0.3-0.2-0.7-0.2-1.2c0-0.4,0.1-0.8,0.2-1.2
	c0.2-0.3,0.4-0.6,0.6-0.9c0.3-0.2,0.6-0.4,0.9-0.5s0.7-0.2,1-0.2c0.4,0,0.8,0.1,1.1,0.2c0.3,0.1,0.6,0.3,0.8,0.5s0.4,0.5,0.5,0.8
	s0.2,0.6,0.2,1c0,0.1,0,0.3,0,0.4s0,0.2,0,0.3h-3.8c0.1,0.4,0.2,0.7,0.5,0.8c0.3,0.2,0.6,0.3,1.1,0.3c0.2,0,0.5,0,0.7-0.1
	s0.4-0.2,0.7-0.3l0.5,1c-0.3,0.2-0.6,0.3-1,0.5C66.3,88.2,65.9,88.3,65.6,88.3z M65.5,83.9c-0.3,0-0.6,0.1-0.8,0.2
	c-0.2,0.2-0.4,0.4-0.4,0.7h2.3C66.4,84.2,66.1,83.9,65.5,83.9z M70.9,88.3c-0.3,0-0.5,0-0.7-0.1s-0.4-0.2-0.5-0.3
	c-0.1-0.1-0.3-0.3-0.3-0.5c-0.1-0.2-0.1-0.4-0.1-0.6c0-0.3,0.1-0.6,0.2-0.8c0.1-0.2,0.3-0.4,0.6-0.6c0.3-0.2,0.6-0.3,1.1-0.4
	c0.4-0.1,1-0.2,1.6-0.2c0-0.2-0.1-0.4-0.3-0.6c-0.2-0.1-0.4-0.2-0.8-0.2c-0.2,0-0.5,0-0.8,0.1s-0.5,0.2-0.8,0.4l-0.5-1
	c0.4-0.2,0.8-0.4,1.2-0.5c0.4-0.1,0.9-0.2,1.3-0.2c0.7,0,1.3,0.2,1.8,0.6c0.4,0.4,0.6,1,0.6,1.8v3h-1.3l-0.1-0.6l0,0
	c-0.3,0.2-0.6,0.4-0.9,0.5C71.5,88.2,71.2,88.3,70.9,88.3z M71.4,87c0.2,0,0.4,0,0.7-0.1c0.3-0.1,0.4-0.2,0.6-0.4v-0.9
	c-0.4,0-0.7,0.1-1,0.1c-0.2,0-0.5,0.1-0.6,0.2s-0.2,0.2-0.3,0.3c-0.1,0.1-0.1,0.2-0.1,0.3c0,0.2,0.1,0.3,0.2,0.4
	C70.9,87,71.1,87,71.4,87z M76.1,88.1v-5.3h1.3l0.1,1.1l0,0c0.3-0.4,0.6-0.7,0.9-1c0.4-0.2,0.8-0.3,1.2-0.3c0.2,0,0.4,0,0.6,0
	c0.1,0,0.3,0.1,0.5,0.2l-0.3,1.3C80.2,84,80.1,84,80,84s-0.3,0-0.5,0c-0.3,0-0.6,0.1-1,0.3c-0.3,0.2-0.6,0.5-0.8,1v2.8
	C77.7,88.1,76.1,88.1,76.1,88.1z M84.9,88.3c-0.4,0-0.8-0.1-1.2-0.2c-0.4-0.1-0.7-0.3-0.9-0.5c-0.3-0.2-0.5-0.5-0.6-0.9
	C82.1,86.4,82,86,82,85.5s0.1-0.8,0.2-1.2c0.2-0.4,0.4-0.6,0.7-0.9c0.3-0.2,0.6-0.4,1-0.5s0.8-0.2,1.2-0.2s0.8,0.1,1.1,0.2
	c0.3,0.1,0.6,0.3,0.8,0.5l-0.7,1c-0.4-0.3-0.8-0.4-1.2-0.4c-0.5,0-0.8,0.1-1.1,0.4s-0.4,0.6-0.4,1.1s0.1,0.8,0.4,1.1
	s0.6,0.4,1.1,0.4c0.3,0,0.5,0,0.8-0.1c0.2-0.1,0.4-0.2,0.6-0.4l0.6,1c-0.3,0.3-0.7,0.5-1.1,0.6S85.3,88.3,84.9,88.3z M88.4,88.1
	v-7.5H90v1.8l-0.1,1l0,0c0.2-0.2,0.4-0.4,0.7-0.5c0.3-0.2,0.6-0.2,1-0.2c0.6,0,1,0.2,1.3,0.6s0.4,0.9,0.4,1.6v3.3h-1.6v-3.1
	c0-0.4-0.1-0.6-0.2-0.8c-0.1-0.2-0.3-0.2-0.6-0.2c-0.2,0-0.4,0-0.6,0.1s-0.3,0.2-0.5,0.4v3.5L88.4,88.1L88.4,88.1z"/>
<g>
	<g>
		<line class="st4" x1="151.1" y1="172" x2="152.6" y2="172"/>
		<line class="st5" x1="155.2" y1="172" x2="169.3" y2="172"/>
		<polyline class="st4" points="170.6,172 172.1,172 172.1,173.5 		"/>
		<line class="st6" x1="172.1" y1="176.7" x2="172.1" y2="194.2"/>
		<polyline class="st4" points="172.1,195.8 172.1,197.3 173.6,197.3 		"/>
		<line class="st7" x1="176.3" y1="197.3" x2="185.8" y2="197.3"/>
		<line class="st4" x1="187.2" y1="197.3" x2="188.7" y2="197.3"/>
	</g>
</g>
<path class="st8" d="M188.7,200.7l9.1-3.3l-9.1-3.3V200.7z"/>
<path class="st0" d="M200.7,271h133.1l4,4v47.3l0,0H204.7l-4-4V271z"/>
<path class="st1" d="M194.1,245.4h143.6v24.5H194.1V245.4z"/>
<path class="st2" d="M203.8,261.4V255c0-0.4,0.1-0.7,0.4-0.9c0.2-0.2,0.6-0.4,0.9-0.4h5.1c0.4,0,0.7,0.1,0.9,0.4s0.4,0.6,0.4,0.9
	v6.4h-0.9v-2.8h-5.9v2.8H203.8z M204.6,257.7h5.9V255c0-0.1,0-0.2-0.1-0.3s-0.2-0.1-0.3-0.1H205c-0.1,0-0.2,0-0.3,0.1
	s-0.1,0.2-0.1,0.3L204.6,257.7L204.6,257.7z M212.6,261.4v-8.2h0.9v2h4.1c0.4,0,0.7,0.1,0.9,0.4c0.3,0.2,0.4,0.6,0.4,0.9v3.6
	c0,0.4-0.1,0.7-0.4,0.9c-0.2,0.2-0.6,0.4-0.9,0.4H212.6L212.6,261.4z M213.9,260.5h3.7c0.1,0,0.2,0,0.3-0.1s0.1-0.2,0.1-0.3v-3.6
	c0-0.1,0-0.2-0.1-0.3s-0.2-0.1-0.3-0.1h-3.7c-0.1,0-0.2,0-0.3,0.1s-0.1,0.2-0.1,0.3v3.6c0,0.1,0,0.2,0.1,0.3
	S213.8,260.5,213.9,260.5z M221,261.4c-0.4,0-0.7-0.1-0.9-0.4s-0.4-0.6-0.4-0.9v-3.6c0-0.4,0.1-0.7,0.4-0.9c0.2-0.3,0.6-0.4,0.9-0.4
	h3.7c0.4,0,0.7,0.1,0.9,0.4c0.3,0.2,0.4,0.6,0.4,0.9v3.6c0,0.4-0.1,0.7-0.4,0.9c-0.2,0.2-0.6,0.4-0.9,0.4H221z M221,260.5h3.7
	c0.1,0,0.2,0,0.3-0.1s0.1-0.2,0.1-0.3v-3.6c0-0.1,0-0.2-0.1-0.3c-0.1-0.1-0.2-0.1-0.3-0.1H221c-0.1,0-0.2,0-0.3,0.1
	s-0.1,0.2-0.1,0.3v3.6c0,0.1,0,0.2,0.1,0.3C220.8,260.5,220.9,260.5,221,260.5z M228.2,261.4c-0.4,0-0.7-0.1-0.9-0.4
	c-0.2-0.2-0.4-0.6-0.4-0.9v-4.9h0.9v4.9c0,0.1,0,0.2,0.1,0.3c0.1,0.1,0.2,0.1,0.3,0.1h3.7c0.1,0,0.2,0,0.3-0.1s0.1-0.2,0.1-0.3v-4.9
	h0.9v4.9c0,0.4-0.1,0.7-0.4,0.9s-0.6,0.4-0.9,0.4H228.2z M235.4,261.4c-0.4,0-0.7-0.1-0.9-0.4s-0.4-0.6-0.4-0.9v-6.9h0.9v2h2.7v0.9
	H235v4c0,0.1,0,0.2,0.1,0.3c0.1,0.1,0.2,0.1,0.3,0.1h2.2v0.9H235.4z"/>
<path class="st3" d="M225.2,282h96.5l4.6,4.6v23l0,0h-96.5l-4.6-4.6L225.2,282L225.2,282z"/>
<path class="st0" d="M225.2,282h96.5l4.6,4.6v23l0,0h-96.5l-4.6-4.6L225.2,282L225.2,282z"/>
<path class="st2" d="M262.4,289.6l-0.2,0.6h1.5l-0.2-0.6c-0.1-0.3-0.2-0.7-0.3-1.1c-0.1-0.4-0.2-0.8-0.3-1.1l0,0
	c-0.1,0.4-0.2,0.7-0.3,1.1C262.6,288.9,262.5,289.2,262.4,289.6z M259.9,293.1l2.2-7h1.9l2.2,7h-1.7l-0.4-1.7H262l-0.4,1.7H259.9z
	 M269.8,293.2c-0.2,0-0.5-0.1-0.8-0.2c-0.2-0.1-0.5-0.3-0.7-0.5l0,0l-0.1,0.6H267v-7.5h1.6v1.8v0.8l0,0c0.2-0.2,0.4-0.3,0.7-0.4
	c0.3-0.1,0.5-0.2,0.8-0.2s0.6,0.1,0.9,0.2s0.5,0.3,0.7,0.5s0.3,0.5,0.4,0.8s0.2,0.7,0.2,1.1s-0.1,0.9-0.2,1.2
	c-0.1,0.4-0.3,0.7-0.5,0.9c-0.2,0.2-0.5,0.4-0.7,0.5C270.3,293.2,270.1,293.2,269.8,293.2z M269.4,291.9c0.3,0,0.5-0.1,0.7-0.4
	c0.2-0.2,0.3-0.6,0.3-1.2c0-1-0.3-1.4-1-1.4c-0.3,0-0.7,0.2-1,0.5v2.1c0.2,0.1,0.3,0.2,0.5,0.3C269.1,291.9,269.3,291.9,269.4,291.9
	z M275.8,293.2c-0.4,0-0.7-0.1-1-0.2s-0.6-0.3-0.9-0.5c-0.2-0.2-0.5-0.5-0.6-0.9c-0.1-0.3-0.2-0.7-0.2-1.2s0.1-0.8,0.2-1.2
	c0.2-0.4,0.4-0.6,0.6-0.9c0.2-0.2,0.5-0.4,0.9-0.5c0.3-0.1,0.7-0.2,1-0.2s0.7,0.1,1,0.2s0.6,0.3,0.9,0.5s0.5,0.5,0.6,0.9
	c0.1,0.3,0.2,0.7,0.2,1.2s-0.1,0.8-0.2,1.2c-0.1,0.3-0.3,0.6-0.6,0.9c-0.2,0.2-0.5,0.4-0.9,0.5C276.4,293.2,276.1,293.2,275.8,293.2
	z M275.8,292c0.4,0,0.6-0.1,0.8-0.4c0.2-0.3,0.3-0.6,0.3-1.1s-0.1-0.8-0.3-1.1c-0.2-0.3-0.4-0.4-0.8-0.4s-0.6,0.1-0.8,0.4
	c-0.2,0.3-0.3,0.6-0.3,1.1s0.1,0.8,0.3,1.1C275.1,291.8,275.4,292,275.8,292z M281.3,293.2c-0.6,0-1-0.2-1.3-0.6s-0.4-0.9-0.4-1.6
	v-3.2h1.6v3c0,0.4,0.1,0.6,0.2,0.8c0.1,0.2,0.3,0.2,0.6,0.2c0.2,0,0.4,0,0.5-0.1c0.2-0.1,0.3-0.2,0.5-0.5v-3.5h1.6v5.3h-1.3
	l-0.1-0.8l0,0c-0.2,0.3-0.5,0.5-0.8,0.6C282,293.2,281.7,293.2,281.3,293.2z M289.5,293.2c-0.4,0-0.8-0.1-1.1-0.2
	c-0.3-0.1-0.5-0.3-0.7-0.5s-0.3-0.5-0.4-0.7c-0.1-0.3-0.1-0.6-0.1-0.9V289h-1.3v-1.2l1.4-0.1l0.2-1.6h1.3v1.6h2.2v1.2h-2.2v1.9
	c0,0.4,0.1,0.7,0.3,0.9c0.2,0.2,0.5,0.2,0.9,0.2c0.2,0,0.4,0,0.5,0c0.2,0,0.3-0.1,0.5-0.2l0.3,1.1c-0.2,0.1-0.5,0.1-0.8,0.2
	C290.2,293.2,289.8,293.2,289.5,293.2z"/>
<path class="st2" d="M253.4,306.2c-0.5,0-0.9-0.1-1.4-0.2c-0.5-0.2-0.9-0.4-1.2-0.8l0.9-1.1c0.3,0.2,0.5,0.4,0.9,0.5
	c0.3,0.1,0.6,0.2,1,0.2s0.6-0.1,0.8-0.2s0.2-0.3,0.2-0.4s0-0.2-0.1-0.3c-0.1-0.1-0.1-0.2-0.2-0.2c-0.1-0.1-0.2-0.1-0.3-0.2
	s-0.3-0.1-0.5-0.2l-0.9-0.4c-0.2-0.1-0.4-0.2-0.6-0.3c-0.2-0.1-0.3-0.2-0.5-0.4c-0.1-0.2-0.2-0.3-0.3-0.5s-0.1-0.4-0.1-0.7
	c0-0.3,0.1-0.5,0.2-0.8s0.3-0.5,0.5-0.7s0.5-0.3,0.8-0.4s0.7-0.2,1-0.2c0.4,0,0.8,0.1,1.2,0.2c0.4,0.2,0.8,0.4,1.1,0.7l-0.8,1
	c-0.2-0.2-0.5-0.3-0.7-0.4s-0.5-0.1-0.9-0.1c-0.3,0-0.5,0.1-0.6,0.2c-0.2,0.1-0.2,0.3-0.2,0.5s0.1,0.4,0.3,0.5s0.5,0.2,0.8,0.3
	l0.8,0.4c0.5,0.2,0.8,0.4,1.1,0.7c0.3,0.3,0.4,0.7,0.4,1.2c0,0.3-0.1,0.6-0.2,0.8c-0.1,0.3-0.3,0.5-0.5,0.7s-0.5,0.4-0.8,0.5
	C254.2,306.2,253.8,306.2,253.4,306.2z M259.8,306.2c-0.4,0-0.8-0.1-1.1-0.2s-0.6-0.4-0.9-0.7c-0.2-0.3-0.4-0.7-0.6-1.1
	c-0.1-0.5-0.2-1-0.2-1.6s0.1-1.1,0.2-1.5s0.3-0.8,0.6-1.1c0.2-0.3,0.5-0.5,0.9-0.7c0.3-0.2,0.7-0.2,1.1-0.2s0.8,0.1,1.1,0.2
	c0.3,0.1,0.6,0.4,0.9,0.7c0.2,0.3,0.4,0.7,0.6,1.1c0.1,0.4,0.2,1,0.2,1.5c0,0.6-0.1,1.1-0.2,1.6c-0.1,0.4-0.3,0.8-0.6,1.1
	c-0.2,0.3-0.5,0.5-0.9,0.7S260.2,306.2,259.8,306.2z M259.8,304.9c0.4,0,0.6-0.2,0.8-0.6c0.2-0.4,0.3-1,0.3-1.7s-0.1-1.3-0.3-1.7
	c-0.2-0.4-0.5-0.6-0.8-0.6c-0.4,0-0.7,0.2-0.9,0.6c-0.2,0.4-0.3,0.9-0.3,1.7c0,0.8,0.1,1.3,0.3,1.7S259.4,304.9,259.8,304.9z
	 M266.2,306.2c-0.4,0-0.8-0.1-1.1-0.2s-0.6-0.4-0.9-0.7c-0.2-0.3-0.4-0.7-0.6-1.1c-0.1-0.5-0.2-1-0.2-1.6s0.1-1.1,0.2-1.5
	s0.3-0.8,0.6-1.1c0.2-0.3,0.5-0.5,0.9-0.7c0.3-0.2,0.7-0.2,1.1-0.2s0.8,0.1,1.1,0.2c0.3,0.1,0.6,0.4,0.9,0.7
	c0.2,0.3,0.4,0.7,0.6,1.1c0.1,0.4,0.2,1,0.2,1.5c0,0.6-0.1,1.1-0.2,1.6c-0.1,0.4-0.3,0.8-0.6,1.1c-0.2,0.3-0.5,0.5-0.9,0.7
	S266.6,306.2,266.2,306.2z M266.2,304.9c0.4,0,0.6-0.2,0.8-0.6c0.2-0.4,0.3-1,0.3-1.7s-0.1-1.3-0.3-1.7c-0.2-0.4-0.5-0.6-0.8-0.6
	c-0.4,0-0.7,0.2-0.9,0.6c-0.2,0.4-0.3,0.9-0.3,1.7c0,0.8,0.1,1.3,0.3,1.7S265.8,304.9,266.2,304.9z M270.1,306.1v-7h1.6l1.5,3.5
	l0.6,1.5l0,0c0-0.4-0.1-0.8-0.1-1.2c-0.1-0.5-0.1-0.9-0.1-1.3v-2.5h1.5v7h-1.6l-1.5-3.5l-0.6-1.5l0,0c0,0.4,0.1,0.8,0.1,1.2
	c0.1,0.4,0.1,0.9,0.1,1.3v2.5H270.1z M276.6,306.1v-7h2.5c0.4,0,0.7,0,1,0.1s0.6,0.2,0.9,0.4c0.2,0.2,0.4,0.4,0.6,0.7
	c0.1,0.3,0.2,0.6,0.2,1.1c0,0.4-0.1,0.7-0.2,1s-0.3,0.6-0.6,0.8c-0.2,0.2-0.5,0.3-0.9,0.4c-0.3,0.1-0.7,0.1-1,0.1h-0.9v2.4H276.6z
	 M278.1,302.5h0.8c0.8,0,1.3-0.4,1.3-1.1c0-0.4-0.1-0.6-0.3-0.8c-0.2-0.2-0.5-0.2-0.9-0.2h-0.8v2.1H278.1z M285.4,306.2
	c-0.4,0-0.8-0.1-1.1-0.2s-0.6-0.4-0.9-0.7c-0.2-0.3-0.4-0.7-0.6-1.1c-0.1-0.5-0.2-1-0.2-1.6s0.1-1.1,0.2-1.5s0.3-0.8,0.6-1.1
	c0.2-0.3,0.5-0.5,0.9-0.7c0.3-0.2,0.7-0.2,1.1-0.2s0.8,0.1,1.1,0.2c0.3,0.1,0.6,0.4,0.9,0.7c0.2,0.3,0.4,0.7,0.6,1.1
	c0.1,0.4,0.2,1,0.2,1.5c0,0.6-0.1,1.1-0.2,1.6c-0.1,0.4-0.3,0.8-0.6,1.1c-0.2,0.3-0.5,0.5-0.9,0.7S285.8,306.2,285.4,306.2z
	 M285.4,304.9c0.4,0,0.6-0.2,0.8-0.6c0.2-0.4,0.3-1,0.3-1.7s-0.1-1.3-0.3-1.7c-0.2-0.4-0.5-0.6-0.8-0.6c-0.4,0-0.7,0.2-0.9,0.6
	c-0.2,0.4-0.3,0.9-0.3,1.7c0,0.8,0.1,1.3,0.3,1.7S285,304.9,285.4,304.9z M289.3,306.1v-7h2.5c0.4,0,0.7,0,1,0.1s0.6,0.2,0.8,0.4
	c0.2,0.2,0.4,0.4,0.6,0.7c0.1,0.3,0.2,0.6,0.2,1c0,0.5-0.1,0.9-0.3,1.3c-0.2,0.3-0.5,0.6-0.9,0.7l1.6,2.8H293l-1.3-2.5h-0.8v2.5
	H289.3z M290.9,302.4h0.8c0.8,0,1.3-0.3,1.3-1c0-0.3-0.1-0.6-0.3-0.7c-0.2-0.1-0.5-0.2-0.9-0.2H291v1.9L290.9,302.4L290.9,302.4z
	 M297.3,306.1v-5.6h-2.1v-1.3h5.7v1.3h-2.1v5.6H297.3z"/>
<g>
	<g>
		<line class="st4" x1="151.1" y1="172" x2="152.6" y2="172"/>
		<line class="st5" x1="155.2" y1="172" x2="169.3" y2="172"/>
		<polyline class="st4" points="170.6,172 172.1,172 172.1,173.5 		"/>
		<line class="st9" x1="172.1" y1="176.5" x2="172.1" y2="293.6"/>
		<polyline class="st4" points="172.1,295.1 172.1,296.6 173.6,296.6 		"/>
		<line class="st7" x1="176.3" y1="296.6" x2="185.8" y2="296.6"/>
		<line class="st4" x1="187.2" y1="296.6" x2="188.7" y2="296.6"/>
	</g>
</g>
<path class="st8" d="M188.7,300l9.1-3.3l-9.1-3.3V300z"/>
<g>
	<g>
		<line class="st4" x1="144.5" y1="172" x2="146" y2="172"/>
		<line class="st10" x1="149.4" y1="172" x2="168" y2="172"/>
		<polyline class="st4" points="169.6,172 171.1,172 171.1,170.5 		"/>
		<line class="st11" x1="171.1" y1="167.6" x2="171.1" y2="75.3"/>
		<polyline class="st4" points="171.1,73.8 171.1,72.3 172.6,72.3 		"/>
		<line class="st10" x1="176" y1="72.3" x2="194.6" y2="72.3"/>
		<line class="st4" x1="196.3" y1="72.3" x2="197.8" y2="72.3"/>
	</g>
</g>
<path class="st12" d="M151.1,175.3h-6.6v-6.6h6.6V175.3z"/>
<path class="st8" d="M188.7,75.6l9.1-3.3l-9.1-3.3V75.6z"/>
<path class="st3" d="M24.6,130.9h95.3l5.8,5.8v70.4l0,0H30.4l-5.8-5.8C24.6,201.3,24.6,130.9,24.6,130.9z"/>
<path class="st0" d="M24.6,130.9h95.3l5.8,5.8v70.4l0,0H30.4l-5.8-5.8C24.6,201.3,24.6,130.9,24.6,130.9z"/>
<path class="st2" d="M56.7,153.2v-7h1.6l1.5,3.5l0.6,1.5l0,0c0-0.4-0.1-0.8-0.1-1.2c-0.1-0.5-0.1-0.9-0.1-1.3v-2.5h1.5v7h-1.6
	l-1.5-3.5l-0.6-1.5l0,0c0,0.4,0.1,0.8,0.1,1.2c0.1,0.4,0.1,0.9,0.1,1.3v2.5H56.7z M64.8,153.4c-0.3,0-0.5,0-0.7-0.1
	c-0.2-0.1-0.4-0.2-0.5-0.3s-0.3-0.3-0.3-0.5c-0.1-0.2-0.1-0.4-0.1-0.6c0-0.3,0.1-0.6,0.2-0.8c0.1-0.2,0.3-0.4,0.6-0.6
	c0.3-0.2,0.6-0.3,1.1-0.4c0.4-0.1,1-0.2,1.6-0.2c0-0.2-0.1-0.4-0.3-0.6c-0.2-0.1-0.4-0.2-0.8-0.2c-0.2,0-0.5,0-0.8,0.1
	s-0.5,0.2-0.8,0.4l-0.5-1c0.4-0.2,0.8-0.4,1.2-0.5s0.9-0.2,1.3-0.2c0.7,0,1.3,0.2,1.8,0.6c0.4,0.4,0.6,1,0.6,1.8v3h-1.3l-0.1-0.6
	l0,0c-0.3,0.2-0.6,0.4-0.9,0.5C65.5,153.3,65.1,153.4,64.8,153.4z M65.3,152.1c0.2,0,0.4,0,0.7-0.1c0.3-0.1,0.4-0.2,0.6-0.4v-0.9
	c-0.4,0-0.7,0.1-1,0.1c-0.2,0-0.5,0.1-0.6,0.2c-0.1,0.1-0.2,0.2-0.3,0.3c-0.1,0.1-0.1,0.2-0.1,0.3c0,0.2,0.1,0.3,0.2,0.4
	C64.9,152.1,65.1,152.1,65.3,152.1z M71.1,153.2l-2-5.3h1.6l0.8,2.5c0.1,0.3,0.2,0.5,0.2,0.8c0.1,0.3,0.2,0.5,0.2,0.8l0,0
	c0.1-0.3,0.1-0.6,0.2-0.8c0.1-0.3,0.2-0.5,0.2-0.8l0.8-2.5h1.5l-1.9,5.3H71.1z M85.7,153.4c-0.4,0-0.8-0.1-1.1-0.2s-0.5-0.3-0.7-0.5
	s-0.3-0.5-0.4-0.7c-0.1-0.3-0.1-0.6-0.1-0.9v-1.9h-1.3V148l1.4-0.1l0.2-1.6H85v1.6h2.2v1.2H85v1.9c0,0.4,0.1,0.7,0.3,0.9
	c0.2,0.2,0.5,0.2,0.9,0.2c0.2,0,0.4,0,0.5,0c0.2,0,0.3-0.1,0.5-0.2l0.3,1.1c-0.2,0.1-0.5,0.1-0.8,0.2
	C86.4,153.3,86.1,153.4,85.7,153.4z M91.2,153.4c-0.4,0-0.7-0.1-1-0.2s-0.6-0.3-0.9-0.5c-0.2-0.2-0.5-0.5-0.6-0.9
	c-0.1-0.3-0.2-0.7-0.2-1.2s0.1-0.8,0.2-1.2c0.2-0.4,0.4-0.6,0.6-0.9c0.2-0.2,0.5-0.4,0.9-0.5c0.3-0.1,0.7-0.2,1-0.2s0.7,0.1,1,0.2
	s0.6,0.3,0.9,0.5s0.5,0.5,0.6,0.9c0.1,0.3,0.2,0.7,0.2,1.2s-0.1,0.8-0.2,1.2s-0.3,0.6-0.6,0.9c-0.2,0.2-0.5,0.4-0.9,0.5
	S91.5,153.4,91.2,153.4z M91.2,152.1c0.4,0,0.6-0.1,0.8-0.4s0.3-0.6,0.3-1.1s-0.1-0.8-0.3-1.1c-0.2-0.3-0.4-0.4-0.8-0.4
	s-0.6,0.1-0.8,0.4s-0.3,0.6-0.3,1.1s0.1,0.8,0.3,1.1C90.6,152,90.8,152.1,91.2,152.1z"/>
<path class="st2" d="M52.8,165.1c0.4,0,0.6-0.2,0.8-0.6c0.2-0.4,0.3-1,0.3-1.8c0-0.7-0.1-1.3-0.3-1.7s-0.5-0.6-0.8-0.6
	c-0.4,0-0.7,0.2-0.9,0.6c-0.2,0.4-0.3,0.9-0.3,1.7s0.1,1.4,0.3,1.8C52.2,164.9,52.5,165.1,52.8,165.1z M54.8,168.1
	c-0.3,0-0.7,0-0.9-0.1c-0.3-0.1-0.5-0.2-0.8-0.4s-0.4-0.4-0.6-0.6s-0.3-0.5-0.4-0.7c-0.6-0.2-1.1-0.5-1.5-1.1s-0.5-1.4-0.5-2.4
	c0-0.6,0.1-1.1,0.2-1.5s0.3-0.8,0.6-1.1c0.2-0.3,0.5-0.5,0.9-0.7c0.3-0.2,0.7-0.2,1.1-0.2s0.8,0.1,1.1,0.2c0.3,0.1,0.6,0.4,0.9,0.7
	c0.2,0.3,0.4,0.7,0.6,1.1s0.2,1,0.2,1.5c0,1-0.2,1.7-0.5,2.3s-0.8,1-1.4,1.2c0.1,0.2,0.3,0.4,0.5,0.5s0.5,0.1,0.7,0.1
	c0.1,0,0.2,0,0.3,0s0.2-0.1,0.2-0.1l0.3,1.2c-0.1,0.1-0.3,0.1-0.4,0.2S55,168.1,54.8,168.1z M58.4,166.4c-0.6,0-1-0.2-1.3-0.6
	s-0.4-0.9-0.4-1.6V161h1.6v3c0,0.4,0.1,0.6,0.2,0.8c0.1,0.2,0.3,0.2,0.6,0.2c0.2,0,0.4,0,0.5-0.1c0.2-0.1,0.3-0.2,0.5-0.5v-3.5h1.6
	v5.3h-1.3l-0.1-0.8l0,0c-0.2,0.3-0.5,0.5-0.8,0.6C59.1,166.3,58.8,166.4,58.4,166.4z M64.8,166.4c-0.3,0-0.5,0-0.7-0.1
	c-0.2-0.1-0.4-0.2-0.5-0.3s-0.3-0.3-0.3-0.5c-0.1-0.2-0.1-0.4-0.1-0.6c0-0.3,0.1-0.6,0.2-0.8c0.1-0.2,0.3-0.4,0.6-0.6
	c0.3-0.2,0.6-0.3,1.1-0.4c0.4-0.1,1-0.2,1.6-0.2c0-0.2-0.1-0.4-0.3-0.6c-0.2-0.1-0.4-0.2-0.8-0.2c-0.2,0-0.5,0-0.8,0.1
	s-0.5,0.2-0.8,0.4l-0.5-1c0.4-0.2,0.8-0.4,1.2-0.5s0.9-0.2,1.3-0.2c0.7,0,1.3,0.2,1.8,0.6c0.4,0.4,0.6,1,0.6,1.8v3h-1.3l-0.1-0.6
	l0,0c-0.3,0.2-0.6,0.4-0.9,0.5C65.5,166.3,65.1,166.4,64.8,166.4z M65.3,165.1c0.2,0,0.4,0,0.7-0.1c0.3-0.1,0.4-0.2,0.6-0.4v-0.9
	c-0.4,0-0.7,0.1-1,0.1c-0.2,0-0.5,0.1-0.6,0.2c-0.1,0.1-0.2,0.2-0.3,0.3c-0.1,0.1-0.1,0.2-0.1,0.3c0,0.2,0.1,0.3,0.2,0.4
	C64.9,165.1,65.1,165.1,65.3,165.1z M73,166.4c-0.7,0-1.2-0.2-1.5-0.6s-0.5-0.9-0.5-1.6V160h-1.7v-1.2h3.2v5.5c0,0.2,0,0.3,0.1,0.4
	c0.1,0.1,0.1,0.2,0.2,0.3s0.2,0.1,0.3,0.1c0.1,0,0.2,0,0.3,0c0.1,0,0.2,0,0.4,0c0.1,0,0.3-0.1,0.5-0.1l0.3,1.2
	c-0.1,0-0.3,0.1-0.4,0.1s-0.2,0.1-0.4,0.1c-0.1,0-0.2,0-0.4,0C73.3,166.3,73.2,166.4,73,166.4z M78.2,166.2v-4.1h-2.1v-1.2h3.7v5.3
	H78.2L78.2,166.2z M78.4,160.1c-0.3,0-0.6-0.1-0.8-0.2c-0.2-0.2-0.3-0.4-0.3-0.7s0.1-0.5,0.3-0.7s0.5-0.3,0.8-0.3s0.5,0.1,0.7,0.3
	s0.3,0.4,0.3,0.7s-0.1,0.5-0.3,0.7C79,160,78.7,160.1,78.4,160.1z M85.7,166.4c-0.4,0-0.8-0.1-1.1-0.2s-0.5-0.3-0.7-0.5
	s-0.3-0.5-0.4-0.7c-0.1-0.3-0.1-0.6-0.1-0.9v-1.9h-1.3V161l1.4-0.1l0.2-1.6H85v1.6h2.2v1.2H85v1.9c0,0.4,0.1,0.7,0.3,0.9
	c0.2,0.2,0.5,0.2,0.9,0.2c0.2,0,0.4,0,0.5,0c0.2,0,0.3-0.1,0.5-0.2l0.3,1.1c-0.2,0.1-0.5,0.1-0.8,0.2
	C86.4,166.3,86.1,166.4,85.7,166.4z M89.5,168.3c-0.2,0-0.3,0-0.4,0s-0.3,0-0.4-0.1L89,167c0.1,0,0.3,0.1,0.4,0.1
	c0.3,0,0.5-0.1,0.7-0.2s0.3-0.3,0.4-0.5l0.1-0.3l-2.3-5.1h1.6l0.9,2.3c0.1,0.2,0.2,0.5,0.3,0.8s0.2,0.5,0.2,0.8l0,0
	c0.1-0.3,0.2-0.5,0.2-0.8c0.1-0.3,0.2-0.5,0.2-0.8l0.8-2.3H94l-2.1,5.3c-0.1,0.3-0.3,0.6-0.4,0.9c-0.1,0.3-0.3,0.5-0.5,0.6
	c-0.2,0.2-0.4,0.3-0.7,0.4S89.9,168.3,89.5,168.3z M96.7,168.5l-0.4-0.9c0.5-0.2,0.8-0.4,1.1-0.6c0.2-0.3,0.3-0.6,0.3-0.9h-0.1
	c-0.1,0-0.3,0-0.4-0.1s-0.3-0.1-0.4-0.2c-0.1-0.1-0.2-0.2-0.2-0.3s-0.1-0.3-0.1-0.5c0-0.3,0.1-0.6,0.3-0.8c0.2-0.2,0.5-0.3,0.8-0.3
	c0.4,0,0.8,0.2,1,0.5s0.3,0.8,0.3,1.4c0,0.7-0.2,1.2-0.6,1.7C98,168,97.5,168.3,96.7,168.5z"/>
<path class="st2" d="M37.5,179.2v-7h1.6l0.7,2.5l0.2,1l0,0l0.2-1l0.7-2.5h1.6v7h-1.3V177c0-0.2,0-0.4,0-0.7s0-0.6,0.1-0.9
	c0-0.3,0-0.6,0.1-0.9c0-0.3,0.1-0.5,0.1-0.7l0,0l-0.5,1.9l-0.5,1.7h-0.8l-0.5-1.7l-0.5-1.9l0,0c0,0.2,0,0.4,0.1,0.7
	c0,0.3,0,0.6,0.1,0.9c0,0.3,0,0.6,0,0.9s0,0.5,0,0.7v2.2H37.5z M45.6,179.4c-0.3,0-0.5,0-0.7-0.1s-0.4-0.2-0.5-0.3s-0.3-0.3-0.3-0.5
	c-0.1-0.2-0.1-0.4-0.1-0.6c0-0.3,0.1-0.6,0.2-0.8c0.1-0.2,0.3-0.4,0.6-0.6c0.3-0.2,0.6-0.3,1.1-0.4c0.4-0.1,1-0.2,1.6-0.2
	c0-0.2-0.1-0.4-0.3-0.6c-0.2-0.1-0.4-0.2-0.8-0.2c-0.3,0-0.5,0-0.8,0.1s-0.5,0.2-0.8,0.4l-0.5-1c0.4-0.2,0.7-0.4,1.2-0.5
	c0.4-0.1,0.9-0.2,1.3-0.2c0.7,0,1.3,0.2,1.8,0.6c0.4,0.4,0.6,1,0.6,1.8v3h-1.3l-0.1-0.6l0,0c-0.3,0.2-0.6,0.4-0.9,0.5
	C46.3,179.3,46,179.4,45.6,179.4z M46.1,178.1c0.2,0,0.4,0,0.7-0.1c0.2-0.1,0.4-0.2,0.6-0.4v-0.9c-0.4,0-0.7,0.1-1,0.1
	s-0.5,0.1-0.6,0.2s-0.3,0.2-0.3,0.3c-0.1,0.1-0.1,0.2-0.1,0.3c0,0.2,0.1,0.3,0.2,0.4C45.7,178.1,45.9,178.1,46.1,178.1z M50.4,179.2
	v-5.3h1.3l0.1,0.7l0,0c0.2-0.2,0.5-0.4,0.8-0.6s0.7-0.2,1-0.2c0.6,0,1,0.2,1.3,0.6s0.4,0.9,0.4,1.6v3.3h-1.6v-3.1
	c0-0.4-0.1-0.6-0.2-0.8c-0.1-0.2-0.3-0.2-0.6-0.2c-0.2,0-0.4,0-0.6,0.1s-0.3,0.2-0.5,0.4v3.5H50.4z M58.4,179.4
	c-0.6,0-1-0.2-1.3-0.6s-0.4-0.9-0.4-1.6V174h1.6v3c0,0.4,0.1,0.6,0.2,0.8c0.1,0.2,0.3,0.2,0.6,0.2c0.2,0,0.4,0,0.5-0.1
	c0.2-0.1,0.3-0.2,0.5-0.5v-3.5h1.6v5.3h-1.3l-0.1-0.8l0,0c-0.2,0.3-0.5,0.5-0.8,0.6C59.1,179.3,58.8,179.4,58.4,179.4z M64.7,179.2
	v-4.1h-1.4V174l1.4-0.1v-0.1c0-0.3,0-0.6,0.1-0.8c0.1-0.3,0.2-0.5,0.4-0.7s0.4-0.4,0.7-0.5c0.3-0.1,0.7-0.2,1.1-0.2
	c0.3,0,0.6,0,0.8,0.1c0.3,0.1,0.5,0.1,0.8,0.2l-0.3,1.2c-0.4-0.1-0.7-0.2-1.1-0.2c-0.3,0-0.6,0.1-0.8,0.2c-0.2,0.1-0.2,0.4-0.2,0.7
	v0.2H68v1.2h-1.8v4.1L64.7,179.2L64.7,179.2z M71.2,179.4c-0.3,0-0.5,0-0.7-0.1s-0.4-0.2-0.5-0.3s-0.3-0.3-0.3-0.5
	c-0.1-0.2-0.1-0.4-0.1-0.6c0-0.3,0.1-0.6,0.2-0.8s0.3-0.4,0.6-0.6c0.3-0.2,0.6-0.3,1.1-0.4c0.4-0.1,1-0.2,1.6-0.2
	c0-0.2-0.1-0.4-0.3-0.6c-0.2-0.1-0.4-0.2-0.8-0.2c-0.3,0-0.5,0-0.8,0.1s-0.5,0.2-0.8,0.4l-0.5-1c0.4-0.2,0.7-0.4,1.2-0.5
	c0.4-0.1,0.9-0.2,1.3-0.2c0.7,0,1.3,0.2,1.8,0.6c0.4,0.4,0.6,1,0.6,1.8v3h-1.6l-0.1-0.6l0,0c-0.3,0.2-0.6,0.4-0.9,0.5
	C71.9,179.3,71.5,179.4,71.2,179.4z M71.7,178.1c0.2,0,0.4,0,0.7-0.1c0.2-0.1,0.4-0.2,0.6-0.4v-0.9c-0.4,0-0.7,0.1-1,0.1
	s-0.5,0.1-0.6,0.2c-0.1,0.1-0.3,0.2-0.3,0.3c-0.1,0.1-0.1,0.2-0.1,0.3c0,0.2,0.1,0.3,0.2,0.4S71.5,178.1,71.7,178.1z M78.9,179.4
	c-0.4,0-0.8-0.1-1.2-0.2s-0.7-0.3-0.9-0.5c-0.3-0.2-0.5-0.5-0.6-0.9s-0.2-0.7-0.2-1.2s0.1-0.8,0.2-1.2c0.2-0.4,0.4-0.6,0.7-0.9
	c0.3-0.2,0.6-0.4,1-0.5s0.8-0.2,1.2-0.2c0.4,0,0.8,0.1,1.1,0.2s0.6,0.3,0.8,0.5l-0.7,1c-0.4-0.3-0.8-0.4-1.2-0.4
	c-0.5,0-0.8,0.1-1.1,0.4c-0.3,0.3-0.4,0.6-0.4,1.1s0.1,0.8,0.4,1.1s0.6,0.4,1.1,0.4c0.3,0,0.5,0,0.8-0.1c0.2-0.1,0.4-0.2,0.6-0.4
	l0.6,1c-0.3,0.3-0.7,0.5-1.1,0.6C79.6,179.3,79.2,179.4,78.9,179.4z M85.7,179.4c-0.4,0-0.8-0.1-1.1-0.2s-0.5-0.3-0.7-0.5
	s-0.3-0.5-0.4-0.7c-0.1-0.3-0.1-0.6-0.1-0.9v-1.9h-1.3V174l1.4-0.1l0.2-1.6H85v1.6h2.2v1.2H85v1.9c0,0.4,0.1,0.7,0.3,0.9
	c0.2,0.2,0.5,0.2,0.9,0.2c0.2,0,0.4,0,0.5,0c0.2,0,0.3-0.1,0.5-0.2l0.3,1.1c-0.2,0.1-0.5,0.1-0.8,0.2
	C86.4,179.3,86.1,179.4,85.7,179.4z M90.4,179.4c-0.6,0-1-0.2-1.3-0.6s-0.4-0.9-0.4-1.6V174h1.6v3c0,0.4,0.1,0.6,0.2,0.8
	s0.3,0.2,0.6,0.2c0.2,0,0.4,0,0.5-0.1c0.2-0.1,0.3-0.2,0.5-0.5v-3.5h1.6v5.3h-1.3l-0.1-0.8l0,0c-0.2,0.3-0.5,0.5-0.8,0.6
	C91.1,179.3,90.8,179.4,90.4,179.4z M95.6,179.2v-5.3h1.3L97,175l0,0c0.3-0.4,0.6-0.7,0.9-1c0.4-0.2,0.8-0.3,1.2-0.3
	c0.2,0,0.4,0,0.6,0c0.1,0,0.3,0.1,0.5,0.2l-0.3,1.3c-0.2-0.1-0.3-0.1-0.4-0.1s-0.3,0-0.5,0c-0.3,0-0.6,0.1-1,0.3
	c-0.3,0.2-0.6,0.5-0.8,1v2.8H95.6z M104.3,179.4c-0.4,0-0.8-0.1-1.2-0.2s-0.7-0.3-0.9-0.5c-0.3-0.2-0.5-0.5-0.6-0.9
	s-0.2-0.7-0.2-1.2s0.1-0.8,0.2-1.2c0.2-0.3,0.4-0.6,0.6-0.9c0.3-0.2,0.6-0.4,0.9-0.5s0.7-0.2,1-0.2c0.4,0,0.8,0.1,1.1,0.2
	s0.6,0.3,0.8,0.5s0.4,0.5,0.5,0.8s0.2,0.6,0.2,1c0,0.1,0,0.3,0,0.4s0,0.2,0,0.3h-3.6c0.1,0.4,0.2,0.7,0.5,0.8s0.6,0.3,1.1,0.3
	c0.2,0,0.5,0,0.7-0.1s0.4-0.2,0.7-0.3l0.5,1c-0.3,0.2-0.6,0.3-1,0.5C105,179.3,104.6,179.4,104.3,179.4z M104.2,175
	c-0.3,0-0.6,0.1-0.8,0.2c-0.2,0.2-0.4,0.4-0.4,0.7h2.3C105.1,175.3,104.8,175,104.2,175z M109.5,181.5l-0.4-0.9
	c0.5-0.2,0.8-0.4,1.1-0.6c0.2-0.3,0.3-0.6,0.3-0.9h-0.1c-0.1,0-0.3,0-0.4-0.1s-0.3-0.1-0.4-0.2c-0.1-0.1-0.2-0.2-0.2-0.3
	s-0.1-0.3-0.1-0.5c0-0.3,0.1-0.6,0.3-0.8c0.2-0.2,0.5-0.3,0.8-0.3c0.4,0,0.8,0.2,1,0.5s0.3,0.8,0.3,1.4c0,0.7-0.2,1.2-0.6,1.7
	C110.8,181,110.2,181.3,109.5,181.5z"/>
<path class="st2" d="M61.8,188.7l-0.2,0.6h1.5l-0.2-0.6c-0.1-0.3-0.2-0.7-0.3-1.1c-0.1-0.4-0.2-0.8-0.3-1.1l0,0
	c-0.1,0.4-0.2,0.7-0.3,1.1C62,188,61.9,188.4,61.8,188.7z M59.3,192.2l2.2-7h1.9l2.2,7h-1.7l-0.4-1.7h-2.1l-0.4,1.7H59.3z
	 M69.2,192.4c-0.2,0-0.5-0.1-0.8-0.2c-0.2-0.1-0.5-0.3-0.7-0.5l0,0l-0.1,0.6h-1.2v-7.5H68v1.8v0.8l0,0c0.2-0.2,0.4-0.3,0.7-0.4
	c0.3-0.1,0.5-0.2,0.8-0.2s0.6,0.1,0.9,0.2s0.5,0.3,0.7,0.5s0.3,0.5,0.4,0.8s0.2,0.7,0.2,1.1s-0.1,0.9-0.2,1.2
	c-0.1,0.4-0.3,0.7-0.5,0.9s-0.5,0.4-0.7,0.5C69.8,192.3,69.5,192.4,69.2,192.4z M68.9,191.1c0.3,0,0.5-0.1,0.7-0.4
	c0.2-0.2,0.3-0.6,0.3-1.2c0-1-0.3-1.4-1-1.4c-0.3,0-0.7,0.2-1,0.5v2.1c0.2,0.1,0.3,0.2,0.5,0.3S68.7,191.1,68.9,191.1z M75.2,192.4
	c-0.4,0-0.7-0.1-1-0.2s-0.6-0.3-0.9-0.5c-0.2-0.2-0.5-0.5-0.6-0.9c-0.1-0.3-0.2-0.7-0.2-1.2s0.1-0.8,0.2-1.2
	c0.2-0.4,0.4-0.6,0.6-0.9c0.2-0.2,0.5-0.4,0.9-0.5c0.3-0.1,0.7-0.2,1-0.2s0.7,0.1,1,0.2s0.6,0.3,0.9,0.5s0.5,0.5,0.6,0.9
	c0.1,0.3,0.2,0.7,0.2,1.2s-0.1,0.8-0.2,1.2c-0.1,0.3-0.3,0.6-0.6,0.9c-0.2,0.2-0.5,0.4-0.9,0.5C75.9,192.3,75.6,192.4,75.2,192.4z
	 M75.2,191.1c0.4,0,0.6-0.1,0.8-0.4s0.3-0.6,0.3-1.1s-0.1-0.8-0.3-1.1c-0.2-0.3-0.4-0.4-0.8-0.4s-0.6,0.1-0.8,0.4
	c-0.2,0.3-0.3,0.6-0.3,1.1s0.1,0.8,0.3,1.1C74.6,191,74.8,191.1,75.2,191.1z M80.8,192.4c-0.6,0-1-0.2-1.3-0.6s-0.4-0.9-0.4-1.6V187
	h1.6v3c0,0.4,0.1,0.6,0.2,0.8s0.3,0.2,0.6,0.2c0.2,0,0.4,0,0.5-0.1c0.2-0.1,0.3-0.2,0.5-0.5v-3.5h1.6v5.3h-1.3l-0.1-0.8l0,0
	c-0.2,0.3-0.5,0.5-0.8,0.6C81.5,192.3,81.2,192.4,80.8,192.4z M88.9,192.4c-0.4,0-0.8-0.1-1.1-0.2s-0.5-0.3-0.7-0.5
	s-0.3-0.5-0.4-0.7c-0.1-0.3-0.1-0.6-0.1-0.9v-1.9h-1.3V187l1.4-0.1l0.2-1.6h1.3v1.6h2.2v1.2h-2.2v1.9c0,0.4,0.1,0.7,0.3,0.9
	s0.5,0.2,0.9,0.2c0.2,0,0.4,0,0.5,0c0.2,0,0.3-0.1,0.5-0.2l0.3,1.1c-0.2,0.1-0.5,0.1-0.8,0.2C89.6,192.3,89.3,192.4,88.9,192.4z"/>
</svg>
