<?xml version="1.0" encoding="utf-8"?>
<!-- Generator: Adobe Illustrator 23.0.1, SVG Export Plug-In . SVG Version: 6.00 Build 0)  -->
<svg version="1.1" id="Layer_1" xmlns="http://www.w3.org/2000/svg" xmlns:xlink="http://www.w3.org/1999/xlink" x="0px" y="0px"
	 viewBox="0 0 120 120" style="enable-background:new 0 0 120 120;" xml:space="preserve">
<style type="text/css">
	.st0{fill:none;stroke:#EE2A7B;stroke-miterlimit:10;}
	.st1{fill:none;stroke:#EE2A7B;stroke-miterlimit:10;stroke-dasharray:3,3;}
	.st2{opacity:0.32;fill:#3B0097;enable-background:new    ;}
	.st3{fill:none;stroke:#FFFFFF;stroke-width:3;stroke-miterlimit:10;}
	.st4{fill:#FFFFFF;}
	.st5{font-family:'OCRAStd';}
	.st6{font-size:14px;}
	.st7{font-size:7px;}
</style>
<title>problems</title>
<line class="st0" x1="10" y1="0" x2="10" y2="1.5"/>
<line class="st1" x1="10" y1="4.5" x2="10" y2="117"/>
<line class="st0" x1="10" y1="118.5" x2="10" y2="120"/>
<line class="st0" x1="110" y1="0" x2="110" y2="1.5"/>
<line class="st1" x1="110" y1="4.5" x2="110" y2="117"/>
<line class="st0" x1="110" y1="118.5" x2="110" y2="120"/>
<line class="st0" x1="120" y1="10" x2="118.5" y2="10"/>
<line class="st1" x1="115.5" y1="10" x2="3" y2="10"/>
<line class="st0" x1="1.5" y1="10" x2="0" y2="10"/>
<line class="st0" x1="120" y1="110" x2="118.5" y2="110"/>
<line class="st1" x1="115.5" y1="110" x2="3" y2="110"/>
<line class="st0" x1="1.5" y1="110" x2="0" y2="110"/>
<rect id="_.bg" x="15.6" y="15.6" class="st2" width="88.9" height="88.9"/>
<polygon class="st3" points="72.4,28.9 37.6,28.9 37.6,91.2 82.5,91.2 82.5,39.1 "/>
<text transform="matrix(1 0 0 1 44.9306 61.9428)"><tspan x="0" y="0" class="st4 st5 st6">PDF</tspan><tspan x="0" y="8.4" class="st4 st5 st7">Reader</tspan></text>
</svg>
