<?xml version="1.0" encoding="utf-8"?>
<!-- Generator: Adobe Illustrator 23.0.1, SVG Export Plug-In . SVG Version: 6.00 Build 0)  -->
<svg version="1.1" id="Layer_1" xmlns="http://www.w3.org/2000/svg" xmlns:xlink="http://www.w3.org/1999/xlink" x="0px" y="0px"
	 viewBox="0 0 380 400" style="enable-background:new 0 0 380 400;" xml:space="preserve">
<style type="text/css">
	.st0{fill:#5400D5;}
	.st1{fill-opacity:0;}
	.st2{fill-rule:evenodd;clip-rule:evenodd;fill-opacity:0;}
	.st3{fill:#5401D5;}
</style>
<g>
	<path class="st0" d="M52,234.9v-10.4h3.7c0.6,0,1.1,0.1,1.6,0.2c0.5,0.1,0.9,0.3,1.3,0.6c0.4,0.3,0.7,0.6,0.9,1s0.3,1,0.3,1.6
		s-0.1,1.1-0.3,1.6c-0.2,0.4-0.5,0.8-0.9,1.1s-0.8,0.5-1.3,0.6s-1,0.2-1.6,0.2h-1.3v3.5L52,234.9L52,234.9z M54.3,229.4h1.2
		c1.3,0,1.9-0.6,1.9-1.7c0-0.5-0.2-0.9-0.5-1.1c-0.3-0.2-0.8-0.3-1.4-0.3h-1.2V229.4z M63.9,235c-0.4,0-0.8-0.1-1.1-0.2
		c-0.3-0.1-0.6-0.3-0.8-0.5s-0.4-0.5-0.5-0.8s-0.2-0.6-0.2-0.9c0-0.4,0.1-0.8,0.3-1.2c0.2-0.3,0.5-0.6,0.9-0.9
		c0.4-0.2,1-0.4,1.6-0.6c0.7-0.1,1.5-0.2,2.4-0.3c0-0.4-0.2-0.6-0.5-0.8s-0.7-0.3-1.2-0.3c-0.4,0-0.8,0.1-1.2,0.2
		c-0.4,0.1-0.8,0.3-1.2,0.5l-0.8-1.5c0.5-0.3,1.1-0.6,1.8-0.8c0.6-0.2,1.3-0.3,2-0.3c1.1,0,2,0.3,2.6,0.9c0.6,0.6,1,1.5,1,2.7v4.5
		h-2l-0.2-0.9h-0.1c-0.4,0.3-0.8,0.6-1.3,0.8C65,234.9,64.5,235,63.9,235z M64.7,233.2c0.3,0,0.7-0.1,1-0.2c0.3-0.1,0.6-0.3,0.9-0.5
		v-1.3c-0.6,0-1.1,0.1-1.5,0.2c-0.4,0.1-0.7,0.2-0.9,0.3c-0.2,0.1-0.4,0.2-0.5,0.4c-0.1,0.1-0.1,0.3-0.1,0.5c0,0.3,0.1,0.5,0.3,0.6
		C64.1,233.2,64.4,233.2,64.7,233.2z M74.4,234.9v-6.1h-3.2V227h5.5v7.9L74.4,234.9L74.4,234.9z M75.8,225.7c-0.5,0-0.8-0.1-1.1-0.4
		c-0.3-0.3-0.4-0.6-0.4-1s0.1-0.8,0.4-1.1s0.7-0.4,1.1-0.4c0.5,0,0.8,0.1,1.1,0.4c0.3,0.3,0.5,0.6,0.5,1.1c0,0.4-0.2,0.8-0.5,1
		S76.2,225.7,75.8,225.7z M80.7,234.9V227h1.9l0.2,1.1h0.1c0.3-0.3,0.7-0.6,1.2-0.9c0.4-0.3,1-0.4,1.6-0.4c0.9,0,1.6,0.3,2,0.9
		c0.4,0.6,0.6,1.4,0.6,2.4v4.9h-2.4v-4.6c0-0.5-0.1-0.9-0.2-1.2c-0.2-0.3-0.5-0.4-0.9-0.4c-0.3,0-0.6,0.1-0.8,0.2
		c-0.2,0.1-0.5,0.3-0.8,0.6v5.3L80.7,234.9L80.7,234.9z M100,234.9v-10.4h3.7c0.6,0,1.1,0.1,1.6,0.2c0.5,0.1,0.9,0.3,1.3,0.6
		s0.7,0.6,0.9,1c0.2,0.4,0.3,1,0.3,1.6s-0.1,1.1-0.3,1.6c-0.2,0.4-0.5,0.8-0.9,1.1s-0.8,0.5-1.3,0.6s-1,0.2-1.6,0.2h-1.3v3.5
		L100,234.9L100,234.9z M102.3,229.4h1.2c1.3,0,1.9-0.6,1.9-1.7c0-0.5-0.2-0.9-0.5-1.1c-0.3-0.2-0.8-0.3-1.4-0.3h-1.2V229.4z
		 M113.2,235c-0.5,0-1-0.1-1.5-0.3s-0.9-0.5-1.3-0.8c-0.4-0.4-0.7-0.8-0.9-1.3c-0.2-0.5-0.3-1.1-0.3-1.8s0.1-1.2,0.3-1.8
		c0.2-0.5,0.5-1,0.9-1.3c0.4-0.4,0.8-0.6,1.3-0.8s1-0.3,1.5-0.3s1,0.1,1.5,0.3s0.9,0.5,1.3,0.8s0.7,0.8,0.9,1.3
		c0.2,0.5,0.3,1.1,0.3,1.8s-0.1,1.3-0.3,1.8c-0.2,0.5-0.5,0.9-0.9,1.3c-0.4,0.3-0.8,0.6-1.3,0.8S113.7,235,113.2,235z M113.2,233.1
		c0.5,0,0.9-0.2,1.2-0.6c0.3-0.4,0.4-1,0.4-1.7s-0.1-1.2-0.4-1.6c-0.3-0.4-0.7-0.6-1.2-0.6s-0.9,0.2-1.2,0.6
		c-0.3,0.4-0.4,0.9-0.4,1.6c0,0.7,0.1,1.2,0.4,1.7C112.2,232.9,112.6,233.1,113.2,233.1z M122.4,234.9v-6.1h-3.2V227h5.5v7.9
		L122.4,234.9L122.4,234.9z M123.8,225.7c-0.5,0-0.8-0.1-1.1-0.4c-0.3-0.3-0.4-0.6-0.4-1s0.1-0.8,0.4-1.1s0.7-0.4,1.1-0.4
		c0.5,0,0.8,0.1,1.1,0.4c0.3,0.3,0.5,0.6,0.5,1.1c0,0.4-0.2,0.8-0.5,1S124.2,225.7,123.8,225.7z M128.7,234.9V227h1.9l0.2,1.1h0.1
		c0.3-0.3,0.7-0.6,1.2-0.9c0.4-0.3,1-0.4,1.6-0.4c0.9,0,1.6,0.3,2,0.9c0.4,0.6,0.6,1.4,0.6,2.4v4.9h-2.4v-4.6c0-0.5-0.1-0.9-0.2-1.2
		c-0.2-0.3-0.5-0.4-0.9-0.4c-0.3,0-0.6,0.1-0.8,0.2c-0.2,0.1-0.5,0.3-0.8,0.6v5.3L128.7,234.9L128.7,234.9z M143.4,235
		c-0.6,0-1.2-0.1-1.6-0.2c-0.4-0.2-0.8-0.4-1.1-0.7s-0.5-0.7-0.6-1.1c-0.1-0.4-0.2-0.9-0.2-1.4v-2.8h-2V227l2.1-0.1l0.3-2.4h1.9v2.4
		h3.4v1.8h-3.4v2.8c0,0.6,0.1,1,0.4,1.3c0.3,0.2,0.7,0.4,1.3,0.4c0.3,0,0.6,0,0.8-0.1c0.3-0.1,0.5-0.1,0.8-0.2l0.4,1.7
		c-0.4,0.1-0.7,0.2-1.2,0.3C144.4,235,143.9,235,143.4,235z M151.6,230c-0.6,0-1-0.2-1.3-0.5c-0.3-0.4-0.5-0.8-0.5-1.3
		c0-0.3,0-0.5,0.1-0.7s0.2-0.4,0.4-0.6c0.2-0.2,0.4-0.3,0.6-0.4c0.2-0.1,0.5-0.1,0.8-0.1s0.5,0,0.8,0.1c0.2,0.1,0.4,0.2,0.6,0.4
		c0.2,0.2,0.3,0.4,0.4,0.6c0.1,0.2,0.1,0.5,0.1,0.7c0,0.5-0.2,1-0.5,1.3C152.6,229.9,152.1,230,151.6,230z M151.6,235
		c-0.6,0-1-0.2-1.3-0.5c-0.3-0.4-0.5-0.8-0.5-1.3c0-0.3,0-0.5,0.1-0.7s0.2-0.4,0.4-0.6c0.2-0.2,0.4-0.3,0.6-0.4
		c0.2-0.1,0.5-0.1,0.8-0.1s0.5,0,0.8,0.1c0.2,0.1,0.4,0.2,0.6,0.4c0.2,0.2,0.3,0.4,0.4,0.6c0.1,0.2,0.1,0.5,0.1,0.7
		c0,0.5-0.2,1-0.5,1.3C152.6,234.9,152.1,235,151.6,235z"/>
	<path class="st0" d="M54.4,273.8V257H58v16.8H54.4z"/>
	<path d="M66.1,269v-7.9h1.2v3.2h3v-3.2h1.2v7.9h-1.2v-3.6h-3v3.6H66.1z M75.3,269.2c-0.3,0-0.5,0-0.8-0.1c-0.2-0.1-0.4-0.2-0.6-0.3
		c-0.2-0.2-0.3-0.3-0.4-0.5s-0.2-0.4-0.2-0.7c0-0.3,0.1-0.6,0.2-0.9c0.2-0.2,0.4-0.5,0.7-0.6c0.3-0.2,0.8-0.3,1.3-0.4
		s1.2-0.2,1.9-0.3c0-0.4-0.1-0.7-0.3-0.9c-0.2-0.3-0.6-0.4-1.1-0.4c-0.4,0-0.7,0.1-1.1,0.2c-0.3,0.1-0.6,0.3-0.9,0.5l-0.4-0.8
		c0.2-0.1,0.3-0.2,0.5-0.3c0.2-0.1,0.4-0.2,0.6-0.3c0.2-0.1,0.5-0.1,0.7-0.2s0.5-0.1,0.8-0.1c0.8,0,1.4,0.2,1.8,0.7
		c0.4,0.4,0.6,1,0.6,1.8v3.5h-1l-0.1-0.8l0,0c-0.3,0.2-0.7,0.4-1.1,0.6C76.1,269.1,75.7,269.2,75.3,269.2z M75.6,268.2
		c0.3,0,0.6-0.1,0.9-0.2s0.6-0.3,0.9-0.6V266c-0.6,0-1.1,0.1-1.4,0.2c-0.4,0.1-0.7,0.2-0.9,0.3c-0.2,0.1-0.4,0.2-0.5,0.4
		c-0.1,0.1-0.1,0.3-0.1,0.5c0,0.3,0.1,0.5,0.3,0.6C75,268.2,75.3,268.2,75.6,268.2z M82.5,269l-2.4-5.9h1.2l1.2,3.2
		c0.1,0.3,0.2,0.6,0.3,0.9c0.1,0.3,0.2,0.6,0.3,0.9l0,0c0.1-0.3,0.2-0.6,0.3-0.9c0.1-0.3,0.2-0.6,0.3-0.9l1.2-3.2H86l-2.3,5.9H82.5z
		 M90.7,269.2c-0.4,0-0.9-0.1-1.2-0.2c-0.4-0.1-0.7-0.3-1-0.6c-0.3-0.3-0.5-0.6-0.7-1s-0.2-0.8-0.2-1.3s0.1-0.9,0.2-1.3
		c0.2-0.4,0.4-0.7,0.7-1c0.3-0.3,0.6-0.5,1-0.6s0.7-0.2,1.1-0.2s0.8,0.1,1.1,0.2c0.3,0.1,0.6,0.3,0.9,0.6c0.2,0.2,0.4,0.5,0.5,0.9
		c0.1,0.3,0.2,0.7,0.2,1.1c0,0.1,0,0.2,0,0.4c0,0.1,0,0.2,0,0.3h-4.5c0.1,0.6,0.3,1.1,0.7,1.4c0.4,0.3,0.9,0.4,1.5,0.4
		c0.3,0,0.6,0,0.9-0.1s0.5-0.2,0.8-0.4l0.4,0.8c-0.3,0.2-0.6,0.4-1,0.5C91.6,269.1,91.2,269.2,90.7,269.2z M90.6,263.9
		c-0.2,0-0.4,0-0.6,0.1s-0.4,0.2-0.5,0.3c-0.2,0.1-0.3,0.3-0.4,0.5s-0.2,0.4-0.2,0.7h3.4c0-0.5-0.2-0.9-0.5-1.2
		C91.4,264.1,91,263.9,90.6,263.9z M105.9,269.2c-0.4,0-0.8-0.1-1.1-0.2c-0.3-0.1-0.5-0.3-0.7-0.5s-0.3-0.5-0.4-0.8s-0.1-0.6-0.1-1
		v-2.6H102v-0.9l1.7-0.1l0.2-1.9h1v1.9h2.8v1h-2.8v2.6c0,0.5,0.1,0.9,0.3,1.1c0.2,0.2,0.6,0.4,1.1,0.4c0.2,0,0.5,0,0.7-0.1
		s0.4-0.1,0.6-0.2l0.2,0.9c-0.3,0.1-0.5,0.2-0.8,0.2C106.6,269.1,106.3,269.2,105.9,269.2z M112,269.2c-0.4,0-0.7-0.1-1.1-0.2
		s-0.7-0.3-0.9-0.6c-0.3-0.3-0.5-0.6-0.7-1s-0.2-0.8-0.2-1.3s0.1-0.9,0.2-1.3c0.2-0.4,0.4-0.7,0.7-1c0.3-0.3,0.6-0.5,0.9-0.6
		c0.4-0.1,0.7-0.2,1.1-0.2s0.8,0.1,1.1,0.2c0.4,0.1,0.7,0.3,0.9,0.6c0.3,0.3,0.5,0.6,0.6,1c0.2,0.4,0.2,0.8,0.2,1.3
		s-0.1,0.9-0.2,1.3c-0.2,0.4-0.4,0.7-0.6,1c-0.3,0.3-0.6,0.5-0.9,0.6C112.7,269.1,112.3,269.2,112,269.2z M112,268.2
		c0.5,0,0.9-0.2,1.2-0.6c0.3-0.4,0.5-0.9,0.5-1.5s-0.2-1.1-0.5-1.5s-0.7-0.6-1.2-0.6s-0.9,0.2-1.2,0.6c-0.3,0.4-0.5,0.9-0.5,1.5
		s0.2,1.1,0.5,1.5C111,268,111.4,268.2,112,268.2z M124,269l-1.2-5.9h1.2l0.6,3.2c0.1,0.3,0.1,0.6,0.1,0.8c0,0.3,0.1,0.5,0.1,0.8
		l0,0c0-0.3,0.1-0.6,0.1-0.8c0.1-0.3,0.1-0.5,0.2-0.8l0.6-2.8h1l0.6,2.8c0.1,0.3,0.1,0.6,0.2,0.8c0.1,0.3,0.1,0.5,0.2,0.8l0,0
		c0.1-0.3,0.1-0.6,0.1-0.8c0-0.3,0.1-0.5,0.1-0.8l0.6-3.2h1.1l-1.2,5.9h-1.5l-0.6-2.6c-0.1-0.2-0.1-0.5-0.2-0.8c0-0.3-0.1-0.6-0.1-1
		l0,0c0,0.3-0.1,0.6-0.1,0.9s-0.1,0.5-0.1,0.8l-0.6,2.6H124V269z M132.9,269.2c-0.3,0-0.5,0-0.8-0.1c-0.2-0.1-0.4-0.2-0.6-0.3
		c-0.2-0.2-0.3-0.3-0.4-0.5c-0.1-0.2-0.2-0.4-0.2-0.7c0-0.3,0.1-0.6,0.2-0.9c0.2-0.2,0.4-0.5,0.7-0.6c0.3-0.2,0.8-0.3,1.3-0.4
		s1.2-0.2,1.9-0.3c0-0.4-0.1-0.7-0.3-0.9c-0.2-0.3-0.6-0.4-1.1-0.4c-0.4,0-0.7,0.1-1.1,0.2c-0.3,0.1-0.6,0.3-0.9,0.5l-0.4-0.8
		c0.2-0.1,0.3-0.2,0.5-0.3c0.2-0.1,0.4-0.2,0.6-0.3c0.2-0.1,0.5-0.1,0.7-0.2s0.5-0.1,0.8-0.1c0.8,0,1.4,0.2,1.8,0.7
		c0.4,0.4,0.6,1,0.6,1.8v3.5h-1l-0.1-0.8l0,0c-0.3,0.2-0.7,0.4-1.1,0.6C133.7,269.1,133.3,269.2,132.9,269.2z M133.2,268.2
		c0.3,0,0.6-0.1,0.9-0.2c0.3-0.1,0.6-0.3,0.9-0.6V266c-0.6,0-1.1,0.1-1.4,0.2c-0.4,0.1-0.7,0.2-0.9,0.3c-0.2,0.1-0.4,0.2-0.5,0.4
		c-0.1,0.1-0.1,0.3-0.1,0.5c0,0.3,0.1,0.5,0.3,0.6C132.6,268.2,132.9,268.2,133.2,268.2z M140.8,269v-4.9h-2.6v-1h3.8v5.9H140.8z
		 M141.8,262c-0.2,0-0.5-0.1-0.6-0.2c-0.2-0.2-0.2-0.4-0.2-0.6c0-0.3,0.1-0.5,0.2-0.6c0.2-0.2,0.4-0.2,0.6-0.2
		c0.3,0,0.5,0.1,0.6,0.2c0.2,0.2,0.3,0.4,0.2,0.6c0,0.3-0.1,0.5-0.2,0.6C142.2,261.9,142,262,141.8,262z M149.1,269.2
		c-0.4,0-0.8-0.1-1.1-0.2s-0.5-0.3-0.7-0.5s-0.3-0.5-0.4-0.8c-0.1-0.3-0.1-0.6-0.1-1v-2.6h-1.6v-0.9l1.7-0.1l0.2-1.9h1v1.9h2.8v1
		h-2.8v2.6c0,0.5,0.1,0.9,0.3,1.1s0.6,0.4,1.1,0.4c0.2,0,0.5,0,0.7-0.1s0.4-0.1,0.6-0.2l0.2,0.9c-0.3,0.1-0.5,0.2-0.8,0.2
		C149.8,269.1,149.5,269.2,149.1,269.2z"/>
	<path d="M161.3,269v-4.6h-1.6v-1.3l1.6-0.1v-0.2c0-0.3,0.1-0.7,0.2-1c0.1-0.3,0.3-0.6,0.5-0.8c0.2-0.2,0.5-0.4,0.8-0.5
		s0.7-0.2,1.2-0.2c0.3,0,0.7,0,1,0.1s0.6,0.1,0.8,0.2l-0.3,1.3c-0.4-0.1-0.8-0.2-1.2-0.2s-0.7,0.1-0.9,0.2c-0.2,0.2-0.3,0.4-0.3,0.8
		v0.2h2.1v1.4h-2.1v4.6h-1.8V269z M169.6,269.2c-0.4,0-0.8-0.1-1.1-0.2c-0.4-0.1-0.7-0.3-1-0.6c-0.3-0.3-0.5-0.6-0.7-1
		s-0.2-0.8-0.2-1.3s0.1-0.9,0.2-1.3c0.2-0.4,0.4-0.7,0.7-1s0.6-0.5,1-0.6s0.7-0.2,1.1-0.2c0.4,0,0.8,0.1,1.1,0.2
		c0.4,0.1,0.7,0.3,1,0.6c0.3,0.3,0.5,0.6,0.7,1s0.3,0.8,0.3,1.3s-0.1,0.9-0.3,1.3s-0.4,0.7-0.7,1s-0.6,0.5-1,0.6
		C170.3,269.1,170,269.2,169.6,269.2z M169.6,267.7c0.4,0,0.7-0.2,0.9-0.5s0.3-0.7,0.3-1.2s-0.1-0.9-0.3-1.2
		c-0.2-0.3-0.5-0.5-0.9-0.5s-0.7,0.2-0.9,0.5s-0.3,0.7-0.3,1.2s0.1,0.9,0.3,1.2C168.8,267.6,169.2,267.7,169.6,267.7z M174.6,269v-6
		h1.4l0.1,1.3l0,0c0.3-0.5,0.6-0.8,1.1-1.1c0.4-0.2,0.9-0.4,1.3-0.4c0.3,0,0.5,0,0.6,0.1c0.2,0,0.3,0.1,0.5,0.2l-0.4,1.5
		c-0.2-0.1-0.4-0.1-0.5-0.1s-0.3,0-0.6,0c-0.4,0-0.7,0.1-1.1,0.3c-0.4,0.2-0.7,0.6-0.9,1.1v3.1H174.6z M190.6,269.2
		c-0.4,0-0.7-0.1-1-0.2s-0.6-0.4-0.8-0.6c-0.2-0.3-0.4-0.6-0.5-1s-0.2-0.8-0.2-1.3s0.1-0.9,0.2-1.3c0.1-0.4,0.3-0.7,0.6-1
		c0.2-0.3,0.5-0.5,0.8-0.6s0.6-0.2,1-0.2c0.3,0,0.6,0.1,0.8,0.2s0.5,0.3,0.7,0.5l0,0l-0.1-0.9v-2h1.8v8.4h-1.5l-0.1-0.6l0,0
		c-0.2,0.2-0.5,0.4-0.8,0.5C191.2,269.1,190.9,269.2,190.6,269.2z M191.1,267.7c0.2,0,0.4,0,0.5-0.1c0.2-0.1,0.3-0.2,0.5-0.4v-2.4
		c-0.2-0.1-0.3-0.2-0.5-0.3c-0.2-0.1-0.3-0.1-0.5-0.1c-0.3,0-0.6,0.1-0.9,0.4c-0.2,0.3-0.3,0.7-0.3,1.2c0,0.6,0.1,1,0.3,1.3
		C190.4,267.6,190.7,267.7,191.1,267.7z M198.7,269.2c-0.5,0-0.9-0.1-1.3-0.2c-0.4-0.1-0.8-0.3-1.1-0.6c-0.3-0.3-0.5-0.6-0.7-1
		s-0.2-0.8-0.2-1.3s0.1-0.9,0.2-1.3c0.2-0.4,0.4-0.7,0.7-1s0.6-0.5,1-0.6s0.8-0.2,1.2-0.2c0.5,0,0.9,0.1,1.2,0.2
		c0.4,0.1,0.6,0.3,0.9,0.6c0.2,0.2,0.4,0.5,0.5,0.9c0.1,0.3,0.2,0.7,0.2,1.1c0,0.2,0,0.3,0,0.5c0,0.1,0,0.3,0,0.3h-4.1
		c0.1,0.4,0.3,0.8,0.6,1s0.7,0.3,1.2,0.3c0.3,0,0.5,0,0.8-0.1c0.2-0.1,0.5-0.2,0.8-0.3l0.6,1.1c-0.3,0.2-0.7,0.4-1.1,0.5
		S199.1,269.2,198.7,269.2z M198.6,264.3c-0.4,0-0.7,0.1-0.9,0.3c-0.2,0.2-0.4,0.5-0.5,0.8h2.5C199.7,264.6,199.3,264.3,198.6,264.3
		z M204.6,269l-2.2-6h1.8l0.9,2.8c0.1,0.3,0.2,0.6,0.3,0.9s0.2,0.6,0.3,0.9l0,0c0.1-0.3,0.2-0.6,0.2-0.9c0.1-0.3,0.2-0.6,0.3-0.9
		l0.9-2.8h1.7l-2.2,6H204.6z M213.1,269.2c-0.5,0-0.9-0.1-1.3-0.2c-0.4-0.1-0.8-0.3-1.1-0.6c-0.3-0.3-0.5-0.6-0.7-1
		s-0.2-0.8-0.2-1.3s0.1-0.9,0.2-1.3c0.2-0.4,0.4-0.7,0.7-1s0.6-0.5,1-0.6s0.8-0.2,1.2-0.2c0.5,0,0.9,0.1,1.2,0.2
		c0.4,0.1,0.6,0.3,0.9,0.6c0.2,0.2,0.4,0.5,0.5,0.9c0.1,0.3,0.2,0.7,0.2,1.1c0,0.2,0,0.3,0,0.5c0,0.1,0,0.3,0,0.3h-4.1
		c0.1,0.4,0.3,0.8,0.6,1s0.7,0.3,1.2,0.3c0.3,0,0.5,0,0.8-0.1c0.2-0.1,0.5-0.2,0.8-0.3l0.6,1.1c-0.3,0.2-0.7,0.4-1.1,0.5
		S213.5,269.2,213.1,269.2z M213,264.3c-0.4,0-0.7,0.1-0.9,0.3c-0.2,0.2-0.4,0.5-0.5,0.8h2.5C214.1,264.6,213.7,264.3,213,264.3z
		 M221.1,269.2c-0.7,0-1.3-0.2-1.7-0.7c-0.4-0.4-0.6-1.1-0.6-1.8V262H217v-1.4h3.6v6.2c0,0.2,0,0.3,0.1,0.5c0.1,0.1,0.1,0.2,0.2,0.3
		c0.1,0.1,0.2,0.1,0.3,0.2c0.1,0,0.2,0,0.4,0c0.1,0,0.3,0,0.4,0c0.2,0,0.3-0.1,0.5-0.1l0.4,1.3c-0.2,0.1-0.3,0.1-0.5,0.1
		c-0.1,0-0.3,0.1-0.4,0.1c-0.1,0-0.3,0.1-0.4,0.1C221.5,269.1,221.3,269.2,221.1,269.2z M227.2,269.2c-0.4,0-0.8-0.1-1.1-0.2
		c-0.4-0.1-0.7-0.3-1-0.6c-0.3-0.3-0.5-0.6-0.7-1s-0.2-0.8-0.2-1.3s0.1-0.9,0.2-1.3c0.2-0.4,0.4-0.7,0.7-1s0.6-0.5,1-0.6
		s0.7-0.2,1.1-0.2c0.4,0,0.8,0.1,1.1,0.2c0.4,0.1,0.7,0.3,1,0.6c0.3,0.3,0.5,0.6,0.7,1s0.3,0.8,0.3,1.3s-0.1,0.9-0.3,1.3
		s-0.4,0.7-0.7,1s-0.6,0.5-1,0.6C227.9,269.1,227.6,269.2,227.2,269.2z M227.2,267.7c0.4,0,0.7-0.2,0.9-0.5s0.3-0.7,0.3-1.2
		s-0.1-0.9-0.3-1.2c-0.2-0.3-0.5-0.5-0.9-0.5s-0.7,0.2-0.9,0.5s-0.3,0.7-0.3,1.2s0.1,0.9,0.3,1.2
		C226.4,267.6,226.8,267.7,227.2,267.7z M231.6,271.2V263h1.4l0.1,0.6l0,0c0.2-0.2,0.5-0.4,0.8-0.5s0.6-0.2,1-0.2s0.7,0.1,1,0.2
		s0.6,0.3,0.8,0.6c0.2,0.3,0.4,0.6,0.5,1s0.2,0.8,0.2,1.2c0,0.5-0.1,1-0.2,1.4c-0.1,0.4-0.3,0.7-0.6,1c-0.2,0.3-0.5,0.5-0.8,0.6
		s-0.6,0.2-1,0.2c-0.6,0-1-0.2-1.5-0.6l0,0l0.1,1v1.7L231.6,271.2L231.6,271.2z M234.4,267.7c0.3,0,0.6-0.1,0.8-0.4s0.3-0.7,0.3-1.3
		c0-1.1-0.4-1.6-1.1-1.6c-0.4,0-0.7,0.2-1.1,0.5v2.4c0.2,0.1,0.3,0.2,0.5,0.3C234.1,267.7,234.3,267.7,234.4,267.7z M241.9,269.2
		c-0.5,0-0.9-0.1-1.3-0.2c-0.4-0.1-0.8-0.3-1.1-0.6c-0.3-0.3-0.5-0.6-0.7-1s-0.2-0.8-0.2-1.3s0.1-0.9,0.2-1.3c0.2-0.4,0.4-0.7,0.7-1
		s0.6-0.5,1-0.6s0.8-0.2,1.2-0.2c0.5,0,0.9,0.1,1.2,0.2c0.4,0.1,0.6,0.3,0.9,0.6c0.2,0.2,0.4,0.5,0.5,0.9c0.1,0.3,0.2,0.7,0.2,1.1
		c0,0.2,0,0.3,0,0.5c0,0.1,0,0.3,0,0.3h-4.1c0.1,0.4,0.3,0.8,0.6,1s0.7,0.3,1.2,0.3c0.3,0,0.5,0,0.8-0.1c0.2-0.1,0.5-0.2,0.8-0.3
		l0.6,1.1c-0.3,0.2-0.7,0.4-1.1,0.5C242.7,269.1,242.3,269.2,241.9,269.2z M241.8,264.3c-0.4,0-0.7,0.1-0.9,0.3
		c-0.2,0.2-0.4,0.5-0.5,0.8h2.5C242.9,264.6,242.5,264.3,241.8,264.3z M246.6,269v-6h1.4l0.1,1.3l0,0c0.3-0.5,0.6-0.8,1.1-1.1
		c0.4-0.2,0.9-0.4,1.3-0.4c0.3,0,0.5,0,0.6,0.1c0.2,0,0.3,0.1,0.5,0.2l-0.4,1.5c-0.2-0.1-0.4-0.1-0.5-0.1s-0.3,0-0.6,0
		c-0.4,0-0.7,0.1-1.1,0.3c-0.4,0.2-0.7,0.6-0.9,1.1v3.1H246.6z M264.2,269.2c-0.5,0-0.9-0.1-1.2-0.2c-0.3-0.1-0.6-0.3-0.8-0.5
		c-0.2-0.2-0.3-0.5-0.4-0.8s-0.1-0.7-0.1-1.1v-2.1h-1.5v-1.3l1.6-0.1l0.2-1.8h1.5v1.8h2.5v1.4h-2.5v2.1c0,0.5,0.1,0.8,0.3,1
		s0.5,0.3,1,0.3c0.2,0,0.4,0,0.6-0.1c0.2,0,0.4-0.1,0.5-0.2l0.3,1.3c-0.3,0.1-0.6,0.2-0.9,0.2C265,269.1,264.6,269.2,264.2,269.2z
		 M270.4,269.2c-0.4,0-0.8-0.1-1.1-0.2c-0.4-0.1-0.7-0.3-1-0.6c-0.3-0.3-0.5-0.6-0.7-1s-0.2-0.8-0.2-1.3s0.1-0.9,0.2-1.3
		c0.2-0.4,0.4-0.7,0.7-1c0.3-0.3,0.6-0.5,1-0.6s0.7-0.2,1.1-0.2s0.8,0.1,1.1,0.2c0.4,0.1,0.7,0.3,1,0.6c0.3,0.3,0.5,0.6,0.7,1
		s0.3,0.8,0.3,1.3s-0.1,0.9-0.3,1.3c-0.2,0.4-0.4,0.7-0.7,1c-0.3,0.3-0.6,0.5-1,0.6S270.8,269.2,270.4,269.2z M270.4,267.7
		c0.4,0,0.7-0.2,0.9-0.5c0.2-0.3,0.3-0.7,0.3-1.2s-0.1-0.9-0.3-1.2c-0.2-0.3-0.5-0.5-0.9-0.5s-0.7,0.2-0.9,0.5
		c-0.2,0.3-0.3,0.7-0.3,1.2s0.1,0.9,0.3,1.2C269.6,267.6,270,267.7,270.4,267.7z M282,269v-8.4h1.8v2.1l-0.1,1.1l0,0
		c0.2-0.2,0.5-0.4,0.8-0.6s0.7-0.3,1.2-0.3c0.7,0,1.2,0.2,1.5,0.7c0.3,0.4,0.5,1,0.5,1.8v3.7h-1.8v-3.4c0-0.4-0.1-0.7-0.2-0.9
		c-0.1-0.2-0.3-0.3-0.7-0.3c-0.2,0-0.5,0.1-0.6,0.2c-0.2,0.1-0.4,0.3-0.6,0.5v4H282V269z M292.3,269.2c-0.5,0-0.9-0.1-1.3-0.2
		s-0.8-0.3-1.1-0.6c-0.3-0.3-0.5-0.6-0.7-1s-0.2-0.8-0.2-1.3s0.1-0.9,0.2-1.3c0.2-0.4,0.4-0.7,0.7-1c0.3-0.3,0.6-0.5,1-0.6
		s0.8-0.2,1.2-0.2c0.5,0,0.9,0.1,1.2,0.2c0.4,0.1,0.6,0.3,0.9,0.6c0.2,0.2,0.4,0.5,0.5,0.9c0.1,0.3,0.2,0.7,0.2,1.1
		c0,0.2,0,0.3,0,0.5c0,0.1,0,0.3,0,0.3h-4.1c0.1,0.4,0.3,0.8,0.6,1c0.3,0.2,0.7,0.3,1.2,0.3c0.3,0,0.5,0,0.8-0.1
		c0.2-0.1,0.5-0.2,0.8-0.3l0.6,1.1c-0.3,0.2-0.7,0.4-1.1,0.5C293.1,269.1,292.7,269.2,292.3,269.2z M292.2,264.3
		c-0.4,0-0.7,0.1-0.9,0.3c-0.2,0.2-0.4,0.5-0.5,0.8h2.5C293.3,264.6,292.9,264.3,292.2,264.3z M300.3,269.2c-0.8,0-1.3-0.2-1.7-0.7
		c-0.4-0.4-0.6-1.1-0.6-1.8V262h-1.9v-1.4h3.6v6.2c0,0.2,0,0.3,0.1,0.5c0.1,0.1,0.1,0.2,0.2,0.3c0.1,0.1,0.2,0.1,0.3,0.2
		c0.1,0,0.2,0,0.4,0c0.1,0,0.3,0,0.4,0c0.2,0,0.3-0.1,0.5-0.1l0.4,1.3c-0.2,0.1-0.3,0.1-0.5,0.1c-0.1,0-0.3,0.1-0.4,0.1
		s-0.3,0.1-0.4,0.1C300.7,269.1,300.5,269.2,300.3,269.2z M303.6,271.2V263h1.4l0.1,0.6l0,0c0.2-0.2,0.5-0.4,0.8-0.5s0.6-0.2,1-0.2
		s0.7,0.1,1,0.2s0.6,0.3,0.8,0.6c0.2,0.3,0.4,0.6,0.5,1s0.2,0.8,0.2,1.2c0,0.5-0.1,1-0.2,1.4s-0.3,0.7-0.6,1
		c-0.2,0.3-0.5,0.5-0.8,0.6s-0.6,0.2-1,0.2c-0.6,0-1-0.2-1.5-0.6l0,0l0.1,1v1.7L303.6,271.2L303.6,271.2z M306.4,267.7
		c0.3,0,0.6-0.1,0.8-0.4c0.2-0.3,0.3-0.7,0.3-1.3c0-1.1-0.4-1.6-1.1-1.6c-0.4,0-0.7,0.2-1.1,0.5v2.4c0.2,0.1,0.3,0.2,0.5,0.3
		C306.1,267.7,306.3,267.7,306.4,267.7z"/>
	<path d="M67.8,286.2c-0.7,0-1.2-0.2-1.5-0.6s-0.5-1-0.5-1.8v-3.7h1.8v3.4c0,0.4,0.1,0.7,0.2,0.9c0.1,0.2,0.4,0.3,0.7,0.3
		c0.2,0,0.4,0,0.6-0.1s0.4-0.3,0.6-0.5v-3.9h1.8v6H70l-0.1-0.9l0,0c-0.3,0.3-0.6,0.6-0.9,0.7S68.3,286.2,67.8,286.2z M73.2,288.2
		V280h1.4l0.1,0.6l0,0c0.2-0.2,0.5-0.4,0.8-0.5s0.6-0.2,1-0.2s0.7,0.1,1,0.2s0.6,0.3,0.8,0.6c0.2,0.3,0.4,0.6,0.5,1s0.2,0.8,0.2,1.2
		c0,0.5-0.1,1-0.2,1.4s-0.3,0.7-0.6,1c-0.2,0.3-0.5,0.5-0.8,0.6s-0.6,0.2-1,0.2c-0.6,0-1-0.2-1.5-0.6l0,0l0.1,1v1.7L73.2,288.2
		L73.2,288.2z M76,284.7c0.3,0,0.6-0.1,0.8-0.4c0.2-0.3,0.3-0.7,0.3-1.3c0-1.1-0.4-1.6-1.1-1.6c-0.4,0-0.7,0.2-1.1,0.5v2.4
		c0.2,0.1,0.3,0.2,0.5,0.3C75.7,284.7,75.9,284.7,76,284.7z M82.6,286.2c-0.4,0-0.7-0.1-1-0.2s-0.6-0.4-0.8-0.6
		c-0.2-0.3-0.4-0.6-0.5-1s-0.2-0.8-0.2-1.3s0.1-0.9,0.2-1.3s0.3-0.7,0.6-1c0.2-0.3,0.5-0.5,0.8-0.6s0.6-0.2,1-0.2s0.6,0.1,0.8,0.2
		c0.2,0.1,0.5,0.3,0.7,0.5l0,0l-0.1-0.9v-2h1.8v8.4h-1.5l-0.1-0.6l0,0c-0.2,0.2-0.5,0.4-0.8,0.5C83.2,286.1,82.9,286.2,82.6,286.2z
		 M83.1,284.7c0.2,0,0.4,0,0.5-0.1c0.2-0.1,0.3-0.2,0.5-0.4v-2.4c-0.2-0.1-0.3-0.2-0.5-0.3c-0.2-0.1-0.3-0.1-0.5-0.1
		c-0.3,0-0.6,0.1-0.9,0.4c-0.2,0.3-0.3,0.7-0.3,1.2c0,0.6,0.1,1,0.3,1.3S82.7,284.7,83.1,284.7z M89.5,286.2c-0.3,0-0.6,0-0.8-0.1
		c-0.2-0.1-0.4-0.2-0.6-0.4c-0.2-0.2-0.3-0.4-0.4-0.6s-0.1-0.5-0.1-0.7c0-0.3,0.1-0.6,0.2-0.9s0.4-0.5,0.7-0.6
		c0.3-0.2,0.7-0.3,1.2-0.4s1.1-0.2,1.8-0.2c0-0.3-0.2-0.5-0.4-0.6c-0.2-0.2-0.5-0.2-0.9-0.2c-0.3,0-0.6,0.1-0.9,0.2
		s-0.6,0.2-0.9,0.4l-0.6-1.2c0.4-0.2,0.8-0.4,1.3-0.6s1-0.2,1.5-0.2c0.8,0,1.5,0.2,2,0.7s0.7,1.1,0.7,2v3.4h-1.4l-0.1-0.7l0,0
		c-0.3,0.2-0.6,0.4-1,0.6C90.2,286.1,89.8,286.2,89.5,286.2z M90,284.8c0.3,0,0.5-0.1,0.7-0.2s0.5-0.2,0.7-0.4v-1
		c-0.4,0-0.8,0.1-1.1,0.1c-0.3,0.1-0.5,0.1-0.7,0.2s-0.3,0.2-0.4,0.3c-0.1,0.1-0.1,0.2-0.1,0.4c0,0.2,0.1,0.3,0.2,0.4
		C89.6,284.8,89.8,284.8,90,284.8z M98.6,286.2c-0.5,0-0.9-0.1-1.2-0.2c-0.3-0.1-0.6-0.3-0.8-0.5c-0.2-0.2-0.3-0.5-0.4-0.8
		s-0.1-0.7-0.1-1.1v-2.1h-1.5v-1.3l1.6-0.1l0.2-1.8h1.5v1.8h2.5v1.4h-2.5v2.1c0,0.5,0.1,0.8,0.3,1s0.5,0.3,1,0.3
		c0.2,0,0.4,0,0.6-0.1c0.2,0,0.4-0.1,0.5-0.2l0.3,1.3c-0.3,0.1-0.6,0.2-0.9,0.2C99.4,286.1,99,286.2,98.6,286.2z M105.1,286.2
		c-0.5,0-0.9-0.1-1.3-0.2s-0.8-0.3-1.1-0.6c-0.3-0.3-0.5-0.6-0.7-1s-0.3-0.8-0.2-1.3c0-0.5,0.1-0.9,0.2-1.3c0.2-0.4,0.4-0.7,0.7-1
		c0.3-0.3,0.6-0.5,1-0.6s0.8-0.2,1.2-0.2c0.5,0,0.9,0.1,1.2,0.2c0.4,0.1,0.6,0.3,0.9,0.6c0.2,0.2,0.4,0.5,0.5,0.9
		c0.1,0.3,0.2,0.7,0.2,1.1c0,0.2,0,0.3,0,0.5c0,0.1,0,0.3,0,0.3h-4.1c0.1,0.4,0.3,0.8,0.6,1c0.3,0.2,0.7,0.3,1.2,0.3
		c0.3,0,0.5,0,0.8-0.1c0.2-0.1,0.5-0.2,0.8-0.3l0.6,1.1c-0.3,0.2-0.7,0.4-1.1,0.5C105.9,286.1,105.5,286.2,105.1,286.2z M105,281.3
		c-0.4,0-0.7,0.1-0.9,0.3c-0.2,0.2-0.4,0.5-0.5,0.8h2.5C106.1,281.6,105.7,281.3,105,281.3z M120.2,286.2c-0.5,0-0.9-0.1-1.2-0.2
		c-0.3-0.1-0.6-0.3-0.8-0.5c-0.2-0.2-0.3-0.5-0.4-0.8s-0.1-0.7-0.1-1.1v-2.1h-1.5v-1.3l1.6-0.1l0.2-1.8h1.5v1.8h2.5v1.4h-2.5v2.1
		c0,0.5,0.1,0.8,0.3,1c0.2,0.2,0.5,0.3,1,0.3c0.2,0,0.4,0,0.6-0.1c0.2,0,0.4-0.1,0.5-0.2l0.3,1.3c-0.3,0.1-0.6,0.2-0.9,0.2
		C121,286.1,120.6,286.2,120.2,286.2z M123.6,286v-8.4h1.8v2.1l-0.1,1.1l0,0c0.2-0.2,0.5-0.4,0.8-0.6s0.7-0.3,1.2-0.3
		c0.7,0,1.2,0.2,1.5,0.7c0.3,0.4,0.5,1,0.5,1.8v3.7h-1.8v-3.4c0-0.4-0.1-0.7-0.2-0.9c-0.1-0.2-0.3-0.3-0.7-0.3
		c-0.2,0-0.5,0.1-0.6,0.2c-0.2,0.1-0.4,0.3-0.6,0.5v4h-1.8V286z M133.9,286.2c-0.5,0-0.9-0.1-1.3-0.2c-0.4-0.1-0.8-0.3-1.1-0.6
		c-0.3-0.3-0.5-0.6-0.7-1s-0.2-0.8-0.2-1.3s0.1-0.9,0.2-1.3c0.2-0.4,0.4-0.7,0.7-1s0.6-0.5,1-0.6s0.8-0.2,1.2-0.2
		c0.5,0,0.9,0.1,1.2,0.2c0.4,0.1,0.6,0.3,0.9,0.6c0.2,0.2,0.4,0.5,0.5,0.9c0.1,0.3,0.2,0.7,0.2,1.1c0,0.2,0,0.3,0,0.5
		c0,0.1,0,0.3,0,0.3h-4.1c0.1,0.4,0.3,0.8,0.6,1s0.7,0.3,1.2,0.3c0.3,0,0.5,0,0.8-0.1c0.2-0.1,0.5-0.2,0.8-0.3l0.6,1.1
		c-0.3,0.2-0.7,0.4-1.1,0.5C134.7,286.1,134.3,286.2,133.9,286.2z M133.8,281.3c-0.4,0-0.7,0.1-0.9,0.3c-0.2,0.2-0.4,0.5-0.5,0.8
		h2.5C134.9,281.6,134.5,281.3,133.8,281.3z M145.2,286v-6h1.4l0.1,0.8l0,0c0.3-0.3,0.6-0.5,0.9-0.7c0.3-0.2,0.7-0.3,1.2-0.3
		c0.7,0,1.2,0.2,1.5,0.7c0.3,0.4,0.5,1,0.5,1.8v3.7H149v-3.4c0-0.4-0.1-0.7-0.2-0.9c-0.1-0.2-0.3-0.3-0.7-0.3
		c-0.2,0-0.5,0.1-0.6,0.2c-0.2,0.1-0.4,0.3-0.6,0.5v4h-1.7V286z M155.5,286.2c-0.5,0-0.9-0.1-1.3-0.2c-0.4-0.1-0.8-0.3-1.1-0.6
		c-0.3-0.3-0.5-0.6-0.7-1s-0.3-0.8-0.2-1.3c0-0.5,0.1-0.9,0.2-1.3c0.2-0.4,0.4-0.7,0.7-1s0.6-0.5,1-0.6s0.8-0.2,1.2-0.2
		c0.5,0,0.9,0.1,1.2,0.2c0.4,0.1,0.6,0.3,0.9,0.6c0.2,0.2,0.4,0.5,0.5,0.9c0.1,0.3,0.2,0.7,0.2,1.1c0,0.2,0,0.3,0,0.5
		c0,0.1,0,0.3,0,0.3H154c0.1,0.4,0.3,0.8,0.6,1s0.7,0.3,1.2,0.3c0.3,0,0.5,0,0.8-0.1c0.2-0.1,0.5-0.2,0.8-0.3l0.6,1.1
		c-0.3,0.2-0.7,0.4-1.1,0.5C156.3,286.1,155.9,286.2,155.5,286.2z M155.4,281.3c-0.4,0-0.7,0.1-0.9,0.3c-0.2,0.2-0.4,0.5-0.5,0.8
		h2.5C156.5,281.6,156.1,281.3,155.4,281.3z M159.8,286l-1-6h1.7l0.4,2.8c0,0.3,0.1,0.6,0.1,0.9s0.1,0.6,0.1,0.9l0,0
		c0-0.3,0.1-0.6,0.1-0.9s0.1-0.6,0.2-0.9l0.4-2h1.3l0.4,2c0.1,0.3,0.1,0.6,0.2,0.9c0.1,0.3,0.1,0.6,0.1,0.9l0,0
		c0-0.3,0.1-0.6,0.1-0.9s0-0.6,0.1-0.9l0.3-2.8h1.6l-0.9,6h-2.1l-0.3-1.9c0-0.2-0.1-0.5-0.1-0.8s-0.1-0.6-0.1-1l0,0
		c0,0.3-0.1,0.5-0.1,0.8s-0.1,0.6-0.1,1l-0.3,1.9H159.8z M177.3,286.2c-0.5,0-0.9-0.1-1.3-0.2c-0.4-0.1-0.7-0.3-1-0.6
		c-0.3-0.3-0.5-0.6-0.7-1s-0.2-0.8-0.2-1.3s0.1-0.9,0.3-1.3s0.5-0.7,0.8-1s0.7-0.5,1.1-0.6c0.4-0.1,0.9-0.2,1.3-0.2
		c0.5,0,0.9,0.1,1.3,0.2c0.4,0.1,0.7,0.3,1,0.6l-0.8,1.1c-0.4-0.3-0.9-0.5-1.3-0.5c-0.5,0-0.9,0.2-1.2,0.5s-0.5,0.7-0.5,1.2
		s0.2,0.9,0.5,1.2c0.3,0.3,0.7,0.5,1.2,0.5c0.3,0,0.6-0.1,0.9-0.2c0.3-0.1,0.5-0.2,0.7-0.4l0.7,1.1c-0.4,0.3-0.8,0.5-1.2,0.7
		C178.1,286.1,177.7,286.2,177.3,286.2z M184,286.2c-0.4,0-0.8-0.1-1.1-0.2c-0.4-0.1-0.7-0.3-1-0.6c-0.3-0.3-0.5-0.6-0.7-1
		s-0.2-0.8-0.2-1.3s0.1-0.9,0.2-1.3c0.2-0.4,0.4-0.7,0.7-1s0.6-0.5,1-0.6s0.7-0.2,1.1-0.2c0.4,0,0.8,0.1,1.1,0.2
		c0.4,0.1,0.7,0.3,1,0.6c0.3,0.3,0.5,0.6,0.7,1s0.3,0.8,0.3,1.3s-0.1,0.9-0.3,1.3s-0.4,0.7-0.7,1s-0.6,0.5-1,0.6
		C184.7,286.1,184.4,286.2,184,286.2z M184,284.7c0.4,0,0.7-0.2,0.9-0.5s0.3-0.7,0.3-1.2s-0.1-0.9-0.3-1.2c-0.2-0.3-0.5-0.5-0.9-0.5
		s-0.7,0.2-0.9,0.5s-0.3,0.7-0.3,1.2s0.1,0.9,0.3,1.2C183.2,284.6,183.6,284.7,184,284.7z M188.4,286v-6h1.4l0.1,0.8l0,0
		c0.3-0.3,0.6-0.5,0.9-0.7c0.3-0.2,0.7-0.3,1.2-0.3c0.7,0,1.2,0.2,1.5,0.7c0.3,0.4,0.5,1,0.5,1.8v3.7h-1.8v-3.4
		c0-0.4-0.1-0.7-0.2-0.9c-0.1-0.2-0.3-0.3-0.7-0.3c-0.2,0-0.5,0.1-0.6,0.2c-0.2,0.1-0.4,0.3-0.6,0.5v4h-1.7V286z M199.4,286.2
		c-0.5,0-0.9-0.1-1.2-0.2s-0.6-0.3-0.8-0.5s-0.3-0.5-0.4-0.8c-0.1-0.3-0.1-0.7-0.1-1.1v-2.1h-1.5v-1.3l1.6-0.1l0.2-1.8h1.5v1.8h2.5
		v1.4h-2.5v2.1c0,0.5,0.1,0.8,0.3,1s0.5,0.3,1,0.3c0.2,0,0.4,0,0.6-0.1c0.2,0,0.4-0.1,0.5-0.2l0.3,1.3c-0.3,0.1-0.6,0.2-0.9,0.2
		C200.2,286.1,199.8,286.2,199.4,286.2z M205.9,286.2c-0.5,0-0.9-0.1-1.3-0.2c-0.4-0.1-0.8-0.3-1.1-0.6c-0.3-0.3-0.5-0.6-0.7-1
		s-0.3-0.8-0.2-1.3c0-0.5,0.1-0.9,0.2-1.3c0.2-0.4,0.4-0.7,0.7-1s0.6-0.5,1-0.6s0.8-0.2,1.2-0.2c0.5,0,0.9,0.1,1.2,0.2
		c0.4,0.1,0.6,0.3,0.9,0.6c0.2,0.2,0.4,0.5,0.5,0.9c0.1,0.3,0.2,0.7,0.2,1.1c0,0.2,0,0.3,0,0.5c0,0.1,0,0.3,0,0.3h-4.1
		c0.1,0.4,0.3,0.8,0.6,1s0.7,0.3,1.2,0.3c0.3,0,0.5,0,0.8-0.1c0.2-0.1,0.5-0.2,0.8-0.3l0.6,1.1c-0.3,0.2-0.7,0.4-1.1,0.5
		C206.7,286.1,206.3,286.2,205.9,286.2z M205.8,281.3c-0.4,0-0.7,0.1-0.9,0.3c-0.2,0.2-0.4,0.5-0.5,0.8h2.5
		C206.9,281.6,206.5,281.3,205.8,281.3z M210,286v-6h1.4l0.1,0.8l0,0c0.3-0.3,0.6-0.5,0.9-0.7c0.3-0.2,0.7-0.3,1.2-0.3
		c0.7,0,1.2,0.2,1.5,0.7c0.3,0.4,0.5,1,0.5,1.8v3.7h-1.8v-3.4c0-0.4-0.1-0.7-0.2-0.9c-0.1-0.2-0.3-0.3-0.7-0.3
		c-0.2,0-0.5,0.1-0.6,0.2c-0.2,0.1-0.4,0.3-0.6,0.5v4H210V286z M221,286.2c-0.5,0-0.9-0.1-1.2-0.2s-0.6-0.3-0.8-0.5
		s-0.3-0.5-0.4-0.8c-0.1-0.3-0.1-0.7-0.1-1.1v-2.1H217v-1.3l1.6-0.1l0.2-1.8h1.5v1.8h2.5v1.4h-2.5v2.1c0,0.5,0.1,0.8,0.3,1
		s0.5,0.3,1,0.3c0.2,0,0.4,0,0.6-0.1c0.2,0,0.4-0.1,0.5-0.2l0.3,1.3c-0.3,0.1-0.6,0.2-0.9,0.2C221.8,286.1,221.4,286.2,221,286.2z"
		/>
	<path d="M234.4,286.2c-0.4,0-0.7-0.1-1.1-0.2c-0.4-0.1-0.7-0.3-0.9-0.6c-0.3-0.3-0.5-0.6-0.7-1s-0.2-0.8-0.2-1.3s0.1-0.9,0.2-1.3
		c0.2-0.4,0.4-0.7,0.7-1s0.6-0.5,0.9-0.6c0.4-0.1,0.7-0.2,1.1-0.2c0.4,0,0.8,0.1,1.1,0.2c0.4,0.1,0.7,0.3,0.9,0.6
		c0.3,0.3,0.5,0.6,0.6,1c0.2,0.4,0.2,0.8,0.2,1.3s-0.1,0.9-0.2,1.3c-0.2,0.4-0.4,0.7-0.6,1c-0.3,0.3-0.6,0.5-0.9,0.6
		C235.1,286.1,234.7,286.2,234.4,286.2z M234.4,285.2c0.5,0,0.9-0.2,1.2-0.6s0.5-0.9,0.5-1.5s-0.2-1.1-0.5-1.5s-0.7-0.6-1.2-0.6
		s-0.9,0.2-1.2,0.6s-0.5,0.9-0.5,1.5s0.2,1.1,0.5,1.5C233.4,285,233.8,285.2,234.4,285.2z M239,286v-5.9h1l0.1,1l0,0
		c0.3-0.3,0.6-0.6,1-0.8c0.3-0.2,0.7-0.3,1.2-0.3c0.7,0,1.2,0.2,1.5,0.6s0.5,1,0.5,1.8v3.6h-1.2v-3.5c0-0.5-0.1-0.9-0.3-1.1
		s-0.5-0.4-1-0.4c-0.3,0-0.6,0.1-0.8,0.2c-0.2,0.2-0.5,0.4-0.8,0.7v4L239,286L239,286z M253.7,286l-1.2-5.9h1.2l0.6,3.2
		c0.1,0.3,0.1,0.6,0.1,0.8c0,0.3,0.1,0.5,0.1,0.8l0,0c0-0.3,0.1-0.6,0.1-0.8c0.1-0.3,0.1-0.5,0.2-0.8l0.6-2.8h1l0.6,2.8
		c0.1,0.3,0.1,0.6,0.2,0.8c0.1,0.3,0.1,0.5,0.2,0.8l0,0c0.1-0.3,0.1-0.6,0.1-0.8c0-0.3,0.1-0.5,0.1-0.8l0.6-3.2h1.1l-1.2,5.9h-1.5
		l-0.6-2.6c-0.1-0.2-0.1-0.5-0.2-0.8c0-0.3-0.1-0.6-0.1-1l0,0c0,0.3-0.1,0.6-0.1,0.9s-0.1,0.5-0.1,0.8l-0.6,2.6h-1.2V286z
		 M263.5,286.2c-0.4,0-0.9-0.1-1.2-0.2c-0.4-0.1-0.7-0.3-1-0.6c-0.3-0.3-0.5-0.6-0.7-1s-0.2-0.8-0.2-1.3s0.1-0.9,0.2-1.3
		c0.2-0.4,0.4-0.7,0.7-1c0.3-0.3,0.6-0.5,1-0.6s0.7-0.2,1.1-0.2s0.8,0.1,1.1,0.2c0.3,0.1,0.6,0.3,0.9,0.6c0.2,0.2,0.4,0.5,0.5,0.9
		c0.1,0.3,0.2,0.7,0.2,1.1c0,0.1,0,0.2,0,0.4c0,0.1,0,0.2,0,0.3h-4.5c0.1,0.6,0.3,1.1,0.7,1.4c0.4,0.3,0.9,0.4,1.5,0.4
		c0.3,0,0.6,0,0.9-0.1s0.5-0.2,0.8-0.4l0.4,0.8c-0.3,0.2-0.6,0.4-1,0.5C264.4,286.1,264,286.2,263.5,286.2z M263.4,280.9
		c-0.2,0-0.4,0-0.6,0.1s-0.4,0.2-0.5,0.3c-0.2,0.1-0.3,0.3-0.4,0.5s-0.2,0.4-0.2,0.7h3.4c0-0.5-0.2-0.9-0.5-1.2
		C264.2,281.1,263.8,280.9,263.4,280.9z M270.7,286.2c-0.3,0-0.6-0.1-0.9-0.2s-0.6-0.3-0.9-0.6l0,0l-0.1,0.6h-0.9v-8.5h1.2v2.3v1.1
		l0,0c0.3-0.3,0.5-0.5,0.9-0.6c0.3-0.2,0.7-0.2,1-0.2c0.4,0,0.7,0.1,1,0.2s0.6,0.3,0.8,0.6c0.2,0.3,0.4,0.6,0.5,1s0.2,0.8,0.2,1.2
		c0,0.5-0.1,1-0.2,1.4s-0.3,0.7-0.6,1c-0.2,0.3-0.5,0.5-0.8,0.6C271.3,286.1,271,286.2,270.7,286.2z M270.4,285.2
		c0.5,0,0.9-0.2,1.2-0.5c0.3-0.4,0.5-0.9,0.5-1.6c0-0.6-0.1-1.1-0.4-1.5c-0.2-0.4-0.6-0.5-1.1-0.5c-0.2,0-0.5,0.1-0.8,0.2
		s-0.5,0.3-0.8,0.6v2.8c0.2,0.2,0.5,0.4,0.8,0.5C270,285.1,270.3,285.2,270.4,285.2z M277.6,286.2c-0.6,0-1.1-0.1-1.6-0.3
		c-0.5-0.2-0.9-0.4-1.3-0.6l0.5-0.8c0.3,0.2,0.7,0.4,1.1,0.6c0.4,0.1,0.9,0.2,1.4,0.2s0.8-0.1,1-0.2c0.2-0.2,0.3-0.3,0.3-0.6
		c0-0.1,0-0.2-0.1-0.3c0-0.1-0.1-0.2-0.2-0.2c-0.1-0.1-0.3-0.2-0.5-0.2c-0.2-0.1-0.5-0.2-0.9-0.2c-0.8-0.2-1.3-0.4-1.7-0.6
		c-0.4-0.3-0.6-0.6-0.6-1.1c0-0.2,0.1-0.5,0.2-0.7s0.3-0.4,0.5-0.5c0.2-0.2,0.5-0.3,0.8-0.4s0.7-0.1,1.1-0.1c0.5,0,0.9,0.1,1.3,0.2
		s0.8,0.3,1.1,0.5l-0.6,0.8c-0.3-0.2-0.6-0.3-0.9-0.4s-0.7-0.2-1-0.2c-0.4,0-0.8,0.1-0.9,0.2c-0.2,0.1-0.3,0.3-0.3,0.5
		s0.1,0.4,0.4,0.5c0.2,0.1,0.7,0.2,1.2,0.4c0.5,0.1,0.9,0.2,1.2,0.3c0.3,0.1,0.6,0.2,0.7,0.4c0.2,0.1,0.3,0.3,0.4,0.5
		s0.1,0.4,0.1,0.6s-0.1,0.5-0.2,0.7s-0.3,0.4-0.5,0.6s-0.5,0.3-0.8,0.4C278.4,286.1,278.1,286.2,277.6,286.2z M284.8,286v-4.9h-2.6
		v-1h3.8v5.9H284.8z M285.8,279c-0.2,0-0.5-0.1-0.6-0.2c-0.2-0.2-0.2-0.4-0.2-0.6c0-0.3,0.1-0.5,0.2-0.6c0.2-0.2,0.4-0.2,0.6-0.2
		c0.3,0,0.5,0.1,0.6,0.2c0.2,0.2,0.2,0.4,0.2,0.6c0,0.3-0.1,0.5-0.2,0.6C286.2,278.9,286,279,285.8,279z M293.1,286.2
		c-0.4,0-0.8-0.1-1.1-0.2c-0.3-0.1-0.5-0.3-0.7-0.5s-0.3-0.5-0.4-0.8s-0.1-0.6-0.1-1v-2.6h-1.6v-0.9l1.7-0.1l0.2-1.9h1v1.9h2.8v1
		h-2.8v2.6c0,0.5,0.1,0.9,0.3,1.1c0.2,0.2,0.6,0.4,1.1,0.4c0.2,0,0.5,0,0.7-0.1s0.4-0.1,0.6-0.2l0.2,0.9c-0.3,0.1-0.5,0.2-0.8,0.2
		C293.8,286.1,293.5,286.2,293.1,286.2z M299.5,286.2c-0.4,0-0.9-0.1-1.2-0.2c-0.4-0.1-0.7-0.3-1-0.6c-0.3-0.3-0.5-0.6-0.7-1
		s-0.2-0.8-0.2-1.3s0.1-0.9,0.2-1.3c0.2-0.4,0.4-0.7,0.7-1c0.3-0.3,0.6-0.5,1-0.6s0.7-0.2,1.1-0.2s0.8,0.1,1.1,0.2
		c0.3,0.1,0.6,0.3,0.9,0.6c0.2,0.2,0.4,0.5,0.5,0.9c0.1,0.3,0.2,0.7,0.2,1.1c0,0.1,0,0.2,0,0.4c0,0.1,0,0.2,0,0.3h-4.5
		c0.1,0.6,0.3,1.1,0.7,1.4c0.4,0.3,0.9,0.4,1.5,0.4c0.3,0,0.6,0,0.9-0.1s0.5-0.2,0.8-0.4l0.4,0.8c-0.3,0.2-0.6,0.4-1,0.5
		C300.4,286.1,300,286.2,299.5,286.2z M299.4,280.9c-0.2,0-0.4,0-0.6,0.1s-0.4,0.2-0.5,0.3c-0.2,0.1-0.3,0.3-0.4,0.5
		s-0.2,0.4-0.2,0.7h3.4c0-0.5-0.2-0.9-0.5-1.2C300.2,281.1,299.8,280.9,299.4,280.9z M306.4,286.2c-0.3,0-0.6-0.1-0.8-0.3
		c-0.2-0.2-0.3-0.5-0.3-0.8s0.1-0.6,0.3-0.8c0.2-0.2,0.5-0.3,0.8-0.3s0.6,0.1,0.8,0.3c0.2,0.2,0.3,0.5,0.3,0.8s-0.1,0.6-0.3,0.8
		C306.9,286.1,306.7,286.2,306.4,286.2z"/>
	<path class="st0" d="M54.4,324.8V308H58v16.8H54.4z"/>
	<path d="M66.5,320v-7.9h4.9v0.8h-3.9v2.5h3.3v0.9h-3.3v2.8h4v0.9L66.5,320L66.5,320z M73.1,320l2.2-3l-2-2.8h1.1l0.9,1.3
		c0.1,0.2,0.2,0.3,0.3,0.5c0.1,0.2,0.2,0.3,0.4,0.5l0,0c0.1-0.2,0.2-0.3,0.3-0.5c0.1-0.2,0.2-0.3,0.3-0.5l0.9-1.2h1l-2.1,2.9
		l2.2,2.9h-1.1l-1-1.3c-0.1-0.2-0.2-0.3-0.4-0.5c-0.1-0.2-0.3-0.4-0.4-0.5l0,0c-0.1,0.2-0.2,0.4-0.4,0.5c-0.1,0.2-0.2,0.3-0.4,0.5
		l-1,1.3L73.1,320L73.1,320z M83.7,320.2c-0.5,0-0.9-0.1-1.3-0.2s-0.7-0.3-1-0.6c-0.3-0.3-0.5-0.6-0.7-1s-0.2-0.8-0.2-1.3
		s0.1-0.9,0.2-1.3c0.2-0.4,0.4-0.7,0.7-1c0.3-0.3,0.7-0.5,1-0.6c0.4-0.1,0.8-0.2,1.3-0.2s0.9,0.1,1.2,0.2c0.3,0.2,0.6,0.4,0.9,0.6
		l-0.5,0.6c-0.2-0.2-0.5-0.4-0.8-0.5s-0.5-0.2-0.8-0.2s-0.6,0.1-0.9,0.2s-0.5,0.3-0.7,0.5s-0.4,0.4-0.5,0.7
		c-0.1,0.3-0.2,0.6-0.2,0.9s0.1,0.6,0.2,0.9s0.3,0.5,0.5,0.7s0.4,0.3,0.7,0.5c0.3,0.1,0.6,0.2,0.9,0.2c0.4,0,0.7-0.1,1-0.2
		s0.6-0.3,0.8-0.5l0.4,0.6c-0.3,0.3-0.7,0.5-1.1,0.7C84.6,320.1,84.2,320.2,83.7,320.2z M90.7,320.2c-0.4,0-0.8-0.1-1.2-0.2
		c-0.4-0.1-0.7-0.3-1-0.6c-0.3-0.3-0.5-0.6-0.7-1s-0.2-0.8-0.2-1.3s0.1-0.9,0.2-1.3s0.4-0.7,0.7-1c0.3-0.3,0.6-0.5,1-0.6
		s0.7-0.2,1.1-0.2s0.8,0.1,1.1,0.2c0.3,0.1,0.6,0.3,0.8,0.5c0.2,0.2,0.4,0.5,0.5,0.9c0.1,0.3,0.2,0.7,0.2,1.1c0,0.1,0,0.2,0,0.3
		c0,0.1,0,0.2,0,0.3h-4.6c0.1,0.7,0.3,1.2,0.7,1.5c0.4,0.3,0.9,0.5,1.5,0.5c0.4,0,0.7-0.1,1-0.2s0.6-0.2,0.8-0.4l0.4,0.7
		c-0.3,0.2-0.6,0.3-1,0.5S91.2,320.2,90.7,320.2z M90.6,314.8c-0.2,0-0.5,0-0.7,0.1s-0.4,0.2-0.6,0.3c-0.2,0.1-0.3,0.3-0.5,0.6
		c-0.1,0.2-0.2,0.5-0.2,0.8h3.7c0-0.6-0.2-1.1-0.5-1.3C91.5,315,91.1,314.8,90.6,314.8z M95.1,322.5v-8.3h0.8l0.1,0.7l0,0
		c0.3-0.2,0.6-0.5,0.9-0.6c0.4-0.2,0.7-0.2,1.1-0.2s0.7,0.1,1,0.2s0.6,0.3,0.8,0.6c0.2,0.3,0.4,0.6,0.5,0.9c0.1,0.4,0.2,0.8,0.2,1.2
		c0,0.5-0.1,0.9-0.2,1.3s-0.3,0.7-0.6,1c-0.2,0.3-0.5,0.5-0.8,0.6s-0.6,0.2-1,0.2c-0.3,0-0.6-0.1-0.9-0.2s-0.6-0.3-0.8-0.6l0,0v1.1
		v2L95.1,322.5L95.1,322.5z M97.6,319.3c0.5,0,1-0.2,1.3-0.6s0.5-1,0.5-1.7c0-0.3,0-0.6-0.1-0.9s-0.2-0.5-0.3-0.7
		c-0.1-0.2-0.3-0.3-0.5-0.4s-0.5-0.2-0.8-0.2c-0.2,0-0.5,0.1-0.8,0.2s-0.6,0.4-0.9,0.7v2.9c0.3,0.2,0.6,0.4,0.8,0.5
		C97.2,319.3,97.4,319.3,97.6,319.3z M105.9,320.2c-0.4,0-0.8-0.1-1.1-0.2c-0.3-0.1-0.5-0.3-0.7-0.5s-0.3-0.5-0.4-0.8
		s-0.1-0.6-0.1-1V315H102v-0.7l1.7-0.1l0.1-1.9h0.8v1.9h2.9v0.8h-2.9v2.8c0,0.3,0,0.5,0.1,0.7s0.1,0.4,0.2,0.5s0.3,0.2,0.5,0.3
		c0.2,0.1,0.4,0.1,0.7,0.1c0.3,0,0.5,0,0.8-0.1c0.2-0.1,0.4-0.1,0.7-0.2l0.2,0.7c-0.3,0.1-0.5,0.2-0.8,0.2
		C106.6,320.1,106.3,320.2,105.9,320.2z M120.3,320.2c-0.4,0-0.8-0.1-1.1-0.2c-0.3-0.1-0.5-0.3-0.7-0.5s-0.3-0.5-0.4-0.8
		s-0.1-0.6-0.1-1V315h-1.6v-0.7l1.7-0.1l0.1-1.9h0.8v1.9h2.9v0.8H119v2.8c0,0.3,0,0.5,0.1,0.7s0.1,0.4,0.2,0.5s0.3,0.2,0.5,0.3
		c0.2,0.1,0.4,0.1,0.7,0.1s0.5,0,0.8-0.1c0.2-0.1,0.4-0.1,0.7-0.2l0.2,0.7c-0.3,0.1-0.5,0.2-0.8,0.2
		C121,320.1,120.7,320.2,120.3,320.2z M123.9,320v-8.5h1v2.3v1.4l0,0c0.3-0.3,0.6-0.6,1-0.8c0.4-0.2,0.8-0.3,1.2-0.3
		c0.7,0,1.2,0.2,1.5,0.6s0.5,1,0.5,1.8v3.6h-1v-3.5c0-0.6-0.1-1-0.3-1.2c-0.2-0.3-0.6-0.4-1-0.4c-0.2,0-0.3,0-0.5,0.1
		c-0.1,0-0.3,0.1-0.4,0.2s-0.3,0.2-0.4,0.3c-0.1,0.1-0.3,0.3-0.5,0.5v4.1h-1.1V320z M133.9,320.2c-0.4,0-0.8-0.1-1.2-0.2
		s-0.7-0.3-1-0.6c-0.3-0.3-0.5-0.6-0.7-1s-0.2-0.8-0.2-1.3s0.1-0.9,0.2-1.3c0.2-0.4,0.4-0.7,0.7-1s0.6-0.5,1-0.6s0.7-0.2,1.1-0.2
		c0.4,0,0.8,0.1,1.1,0.2s0.6,0.3,0.8,0.5s0.4,0.5,0.5,0.9c0.1,0.3,0.2,0.7,0.2,1.1c0,0.1,0,0.2,0,0.3c0,0.1,0,0.2,0,0.3h-4.6
		c0.1,0.7,0.3,1.2,0.7,1.5s0.9,0.5,1.5,0.5c0.4,0,0.7-0.1,1-0.2s0.6-0.2,0.8-0.4l0.4,0.7c-0.3,0.2-0.6,0.3-1,0.5
		S134.4,320.2,133.9,320.2z M133.8,314.8c-0.2,0-0.5,0-0.7,0.1s-0.4,0.2-0.6,0.3c-0.2,0.1-0.3,0.3-0.5,0.6c-0.1,0.2-0.2,0.5-0.2,0.8
		h3.7c0-0.6-0.2-1.1-0.5-1.3C134.7,315,134.3,314.8,133.8,314.8z M148.3,320.2c-0.4,0-0.8-0.1-1.2-0.2s-0.7-0.3-1-0.6
		c-0.3-0.3-0.5-0.6-0.7-1s-0.2-0.8-0.2-1.3s0.1-0.9,0.2-1.3s0.4-0.7,0.7-1s0.6-0.5,1-0.6s0.7-0.2,1.1-0.2c0.4,0,0.8,0.1,1.1,0.2
		s0.6,0.3,0.8,0.5s0.4,0.5,0.5,0.9c0.1,0.3,0.2,0.7,0.2,1.1c0,0.1,0,0.2,0,0.3c0,0.1,0,0.2,0,0.3h-4.6c0.1,0.7,0.3,1.2,0.7,1.5
		s0.9,0.5,1.5,0.5c0.4,0,0.7-0.1,1-0.2s0.6-0.2,0.8-0.4l0.4,0.7c-0.3,0.2-0.6,0.3-1,0.5C149.2,320.1,148.8,320.2,148.3,320.2z
		 M148.2,314.8c-0.2,0-0.5,0-0.7,0.1s-0.4,0.2-0.6,0.3c-0.2,0.1-0.3,0.3-0.5,0.6c-0.1,0.2-0.2,0.5-0.2,0.8h3.7
		c0-0.6-0.2-1.1-0.5-1.3C149.1,315,148.7,314.8,148.2,314.8z M152.3,320v-5.8h0.8l0.1,0.8l0,0c0.2-0.3,0.3-0.5,0.5-0.7
		s0.5-0.2,0.8-0.2c0.6,0,0.9,0.3,1.1,1c0.2-0.3,0.3-0.6,0.5-0.7c0.2-0.2,0.5-0.3,0.8-0.3c0.4,0,0.7,0.2,1,0.5
		c0.2,0.3,0.3,0.7,0.3,1.3v4.2h-1V316c0-0.7-0.2-1-0.6-1c-0.2,0-0.4,0.1-0.5,0.2s-0.3,0.4-0.4,0.7v4.2h-0.9V316c0-0.3,0-0.6-0.1-0.8
		c-0.1-0.2-0.2-0.3-0.5-0.3c-0.2,0-0.4,0.1-0.5,0.2s-0.3,0.4-0.4,0.7v4.2L152.3,320L152.3,320z M161.7,320.2c-0.3,0-0.5,0-0.8-0.1
		c-0.2-0.1-0.5-0.2-0.6-0.3c-0.2-0.1-0.3-0.3-0.4-0.5c-0.1-0.2-0.2-0.4-0.2-0.7c0-0.3,0.1-0.6,0.2-0.8c0.2-0.2,0.4-0.5,0.7-0.6
		c0.3-0.2,0.8-0.3,1.3-0.4s1.2-0.2,2-0.3c0-0.2,0-0.4-0.1-0.6s-0.1-0.3-0.3-0.5c-0.1-0.1-0.3-0.2-0.5-0.3c-0.2-0.1-0.4-0.1-0.7-0.1
		c-0.4,0-0.7,0.1-1.1,0.2c-0.4,0.1-0.7,0.3-0.9,0.5l-0.4-0.7c0.1-0.1,0.3-0.2,0.5-0.3c0.2-0.1,0.4-0.2,0.6-0.3
		c0.2-0.1,0.5-0.2,0.7-0.2c0.2-0.1,0.5-0.1,0.8-0.1c0.8,0,1.4,0.2,1.8,0.7c0.4,0.4,0.6,1,0.6,1.7v3.6h-0.8l-0.1-0.8l0,0
		c-0.3,0.3-0.7,0.5-1.1,0.7C162.5,320.1,162.1,320.2,161.7,320.2z M162,319.4c0.3,0,0.7-0.1,1-0.2c0.3-0.2,0.7-0.4,1-0.7V317
		c-0.6,0.1-1.2,0.1-1.6,0.2c-0.4,0.1-0.8,0.2-1,0.3s-0.4,0.3-0.5,0.4s-0.2,0.3-0.2,0.5s0,0.3,0.1,0.4s0.2,0.2,0.3,0.3
		c0.1,0.1,0.3,0.1,0.4,0.2C161.7,319.4,161.8,319.4,162,319.4z M169.8,320v-5H167v-0.8h3.7v5.8H169.8z M170.6,313
		c-0.2,0-0.4-0.1-0.6-0.2c-0.1-0.1-0.2-0.3-0.2-0.6c0-0.2,0.1-0.4,0.2-0.5c0.2-0.1,0.3-0.2,0.6-0.2c0.2,0,0.4,0.1,0.6,0.2
		c0.2,0.1,0.2,0.3,0.2,0.5s-0.1,0.4-0.2,0.6C171,312.9,170.8,313,170.6,313z M178.1,320.2c-0.6,0-1.1-0.2-1.4-0.5
		c-0.3-0.4-0.5-0.9-0.5-1.6v-5.8h-2.1v-0.8h3.1v6.7c0,0.4,0.1,0.8,0.3,0.9c0.2,0.2,0.5,0.3,0.8,0.3s0.7-0.1,1.1-0.3l0.2,0.7
		c-0.3,0.1-0.5,0.2-0.8,0.2C178.6,320.1,178.4,320.2,178.1,320.2z M183,322.6l-0.3-0.6c0.5-0.2,0.9-0.5,1.1-0.8
		c0.2-0.3,0.4-0.7,0.4-1.2h-0.1H184c-0.2,0-0.5-0.1-0.7-0.2s-0.3-0.4-0.3-0.7c0-0.3,0.1-0.5,0.3-0.7s0.4-0.2,0.7-0.2
		c0.4,0,0.6,0.1,0.8,0.4s0.3,0.6,0.3,1.1c0,0.7-0.2,1.3-0.6,1.8C184.2,322,183.7,322.3,183,322.6z M195.9,322.5v-8.3h0.8l0.1,0.7
		l0,0c0.3-0.2,0.6-0.5,0.9-0.6c0.4-0.2,0.7-0.2,1.1-0.2c0.4,0,0.7,0.1,1,0.2s0.6,0.3,0.8,0.6c0.2,0.3,0.4,0.6,0.5,0.9
		c0.1,0.4,0.2,0.8,0.2,1.2c0,0.5-0.1,0.9-0.2,1.3c-0.1,0.4-0.3,0.7-0.6,1c-0.2,0.3-0.5,0.5-0.8,0.6s-0.6,0.2-1,0.2
		c-0.3,0-0.6-0.1-0.9-0.2c-0.3-0.1-0.6-0.3-0.8-0.6l0,0v1.1v2L195.9,322.5L195.9,322.5z M198.4,319.3c0.5,0,1-0.2,1.3-0.6
		s0.5-1,0.5-1.7c0-0.3,0-0.6-0.1-0.9s-0.2-0.5-0.3-0.7s-0.3-0.3-0.5-0.4s-0.5-0.2-0.8-0.2c-0.2,0-0.5,0.1-0.8,0.2s-0.6,0.4-0.9,0.7
		v2.9c0.3,0.2,0.6,0.4,0.8,0.5C198,319.3,198.2,319.3,198.4,319.3z M203.1,320v-8.5h1v2.3v1.4l0,0c0.3-0.3,0.6-0.6,1-0.8
		c0.4-0.2,0.8-0.3,1.2-0.3c0.7,0,1.2,0.2,1.5,0.6s0.5,1,0.5,1.8v3.6h-1v-3.5c0-0.6-0.1-1-0.3-1.2c-0.2-0.3-0.6-0.4-1-0.4
		c-0.2,0-0.3,0-0.5,0.1c-0.1,0-0.3,0.1-0.4,0.2c-0.1,0.1-0.3,0.2-0.4,0.3c-0.1,0.1-0.3,0.3-0.5,0.5v4.1h-1.1V320z M212.8,320.2
		c-0.4,0-0.7-0.1-1.1-0.2c-0.3-0.1-0.7-0.3-0.9-0.6c-0.3-0.3-0.5-0.6-0.6-1c-0.2-0.4-0.2-0.8-0.2-1.3s0.1-0.9,0.2-1.3
		c0.2-0.4,0.4-0.7,0.6-1c0.3-0.3,0.6-0.5,0.9-0.6c0.4-0.1,0.7-0.2,1.1-0.2c0.4,0,0.8,0.1,1.1,0.2c0.4,0.1,0.7,0.3,0.9,0.6
		c0.3,0.3,0.5,0.6,0.6,1c0.2,0.4,0.2,0.8,0.2,1.3s-0.1,0.9-0.2,1.3c-0.2,0.4-0.4,0.7-0.6,1c-0.3,0.3-0.6,0.5-0.9,0.6
		C213.5,320.1,213.1,320.2,212.8,320.2z M212.8,319.3c0.3,0,0.5-0.1,0.8-0.2c0.2-0.1,0.4-0.3,0.6-0.5c0.2-0.2,0.3-0.4,0.4-0.7
		c0.1-0.3,0.1-0.6,0.1-0.9s0-0.6-0.1-0.9s-0.2-0.5-0.4-0.7s-0.4-0.4-0.6-0.5c-0.2-0.1-0.5-0.2-0.8-0.2s-0.5,0.1-0.8,0.2
		c-0.2,0.1-0.4,0.3-0.6,0.5c-0.2,0.2-0.3,0.4-0.4,0.7c-0.1,0.3-0.1,0.6-0.1,0.9s0,0.6,0.1,0.9s0.2,0.5,0.4,0.7s0.4,0.3,0.6,0.5
		C212.2,319.3,212.5,319.3,212.8,319.3z M217.5,320v-5.8h0.8l0.1,1l0,0c0.3-0.3,0.6-0.6,1-0.8c0.4-0.2,0.8-0.3,1.2-0.3
		c0.7,0,1.2,0.2,1.5,0.6s0.5,1,0.5,1.8v3.6h-1v-3.5c0-0.6-0.1-1-0.3-1.2c-0.2-0.3-0.6-0.4-1-0.4c-0.2,0-0.3,0-0.5,0.1
		c-0.1,0-0.3,0.1-0.4,0.2c-0.1,0.1-0.3,0.2-0.4,0.3c-0.1,0.1-0.3,0.3-0.5,0.5v4.1h-1V320z M227.5,320.2c-0.4,0-0.8-0.1-1.2-0.2
		s-0.7-0.3-1-0.6c-0.3-0.3-0.5-0.6-0.7-1s-0.2-0.8-0.2-1.3s0.1-0.9,0.2-1.3c0.2-0.4,0.4-0.7,0.7-1s0.6-0.5,1-0.6s0.7-0.2,1.1-0.2
		c0.4,0,0.8,0.1,1.1,0.2s0.6,0.3,0.8,0.5s0.4,0.5,0.5,0.9c0.1,0.3,0.2,0.7,0.2,1.1c0,0.1,0,0.2,0,0.3c0,0.1,0,0.2,0,0.3h-4.6
		c0.1,0.7,0.3,1.2,0.7,1.5s0.9,0.5,1.5,0.5c0.4,0,0.7-0.1,1-0.2s0.6-0.2,0.8-0.4l0.4,0.7c-0.3,0.2-0.6,0.3-1,0.5
		C228.4,320.1,228,320.2,227.5,320.2z M227.4,314.8c-0.2,0-0.5,0-0.7,0.1s-0.4,0.2-0.6,0.3c-0.2,0.1-0.3,0.3-0.5,0.6
		c-0.1,0.2-0.2,0.5-0.2,0.8h3.7c0-0.6-0.2-1.1-0.5-1.3C228.3,315,227.9,314.8,227.4,314.8z M233.4,322.6l-0.3-0.6
		c0.5-0.2,0.9-0.5,1.1-0.8c0.2-0.3,0.4-0.7,0.4-1.2h-0.1h-0.1c-0.2,0-0.5-0.1-0.7-0.2s-0.3-0.4-0.3-0.7c0-0.3,0.1-0.5,0.3-0.7
		s0.4-0.2,0.7-0.2c0.4,0,0.6,0.1,0.8,0.4s0.3,0.6,0.3,1.1c0,0.7-0.2,1.3-0.6,1.8C234.6,322,234.1,322.3,233.4,322.6z M248.8,320.2
		c-0.4,0-0.7-0.1-1.1-0.2c-0.3-0.1-0.7-0.3-0.9-0.6c-0.3-0.3-0.5-0.6-0.6-1c-0.2-0.4-0.2-0.8-0.2-1.3s0.1-0.9,0.2-1.3
		c0.2-0.4,0.4-0.7,0.6-1c0.3-0.3,0.6-0.5,0.9-0.6c0.4-0.1,0.7-0.2,1.1-0.2c0.4,0,0.8,0.1,1.1,0.2c0.4,0.1,0.7,0.3,0.9,0.6
		c0.3,0.3,0.5,0.6,0.6,1c0.2,0.4,0.2,0.8,0.2,1.3s-0.1,0.9-0.2,1.3c-0.2,0.4-0.4,0.7-0.6,1c-0.3,0.3-0.6,0.5-0.9,0.6
		C249.5,320.1,249.1,320.2,248.8,320.2z M248.8,319.3c0.3,0,0.5-0.1,0.8-0.2c0.2-0.1,0.4-0.3,0.6-0.5c0.2-0.2,0.3-0.4,0.4-0.7
		c0.1-0.3,0.1-0.6,0.1-0.9s0-0.6-0.1-0.9s-0.2-0.5-0.4-0.7s-0.4-0.4-0.6-0.5c-0.2-0.1-0.5-0.2-0.8-0.2s-0.5,0.1-0.8,0.2
		c-0.2,0.1-0.4,0.3-0.6,0.5c-0.2,0.2-0.3,0.4-0.4,0.7c-0.1,0.3-0.1,0.6-0.1,0.9s0,0.6,0.1,0.9s0.2,0.5,0.4,0.7s0.4,0.3,0.6,0.5
		C248.2,319.3,248.5,319.3,248.8,319.3z M254.1,320v-5.8h0.8l0.1,1.4l0,0c0.3-0.5,0.7-0.8,1.1-1.1c0.4-0.3,0.9-0.4,1.5-0.4
		c0.2,0,0.4,0,0.6,0s0.4,0.1,0.5,0.2l-0.2,0.8c-0.2-0.1-0.4-0.1-0.5-0.1s-0.3-0.1-0.5-0.1c-0.4,0-0.9,0.1-1.3,0.4
		c-0.4,0.2-0.8,0.7-1.1,1.3v3.4L254.1,320L254.1,320z"/>
	<path d="M69.1,337.2c-0.4,0-0.8-0.1-1.2-0.2c-0.4-0.1-0.7-0.3-1-0.6c-0.3-0.3-0.5-0.6-0.7-1s-0.2-0.8-0.2-1.3s0.1-0.9,0.2-1.3
		c0.2-0.4,0.4-0.7,0.7-1c0.3-0.3,0.6-0.5,1-0.6s0.7-0.2,1.1-0.2s0.8,0.1,1.1,0.2c0.3,0.1,0.6,0.3,0.8,0.5c0.2,0.2,0.4,0.5,0.5,0.9
		c0.1,0.3,0.2,0.7,0.2,1.1c0,0.1,0,0.2,0,0.3c0,0.1,0,0.2,0,0.3H67c0.1,0.7,0.3,1.2,0.7,1.5c0.4,0.3,0.9,0.5,1.5,0.5
		c0.4,0,0.7-0.1,1-0.2s0.6-0.2,0.8-0.4l0.4,0.7c-0.3,0.2-0.6,0.3-1,0.5S69.6,337.2,69.1,337.2z M69,331.8c-0.2,0-0.5,0-0.7,0.1
		s-0.4,0.2-0.6,0.3c-0.2,0.1-0.3,0.3-0.5,0.6c-0.1,0.2-0.2,0.5-0.2,0.8h3.7c0-0.6-0.2-1.1-0.5-1.3C69.9,332,69.5,331.8,69,331.8z
		 M73.1,337l2.2-3l-2-2.8h1.1l0.9,1.3c0.1,0.2,0.2,0.3,0.3,0.5c0.1,0.2,0.2,0.3,0.4,0.5l0,0c0.1-0.2,0.2-0.3,0.3-0.5
		c0.1-0.2,0.2-0.3,0.3-0.5l0.9-1.2h1l-2.1,2.9l2.2,2.9h-1.1l-1-1.3c-0.1-0.2-0.2-0.3-0.4-0.5c-0.1-0.2-0.3-0.4-0.4-0.5l0,0
		c-0.1,0.2-0.2,0.4-0.4,0.5c-0.1,0.2-0.2,0.3-0.4,0.5l-1,1.3L73.1,337L73.1,337z M80.7,337v-8.5h1v2.3v1.4l0,0
		c0.3-0.3,0.6-0.6,1-0.8c0.4-0.2,0.8-0.3,1.2-0.3c0.7,0,1.2,0.2,1.5,0.6s0.5,1,0.5,1.8v3.6h-1v-3.5c0-0.6-0.1-1-0.3-1.2
		c-0.2-0.3-0.6-0.4-1-0.4c-0.2,0-0.3,0-0.5,0.1c-0.1,0-0.3,0.1-0.4,0.2s-0.3,0.2-0.4,0.3c-0.1,0.1-0.3,0.3-0.5,0.5v4.1h-1.1V337z
		 M90.6,337v-5h-2.7v-0.8h3.7v5.8H90.6z M91.4,330c-0.2,0-0.4-0.1-0.6-0.2c-0.1-0.1-0.2-0.3-0.2-0.6c0-0.2,0.1-0.4,0.2-0.5
		c0.2-0.1,0.3-0.2,0.6-0.2c0.2,0,0.4,0.1,0.6,0.2s0.2,0.3,0.2,0.5s-0.1,0.4-0.2,0.6C91.8,329.9,91.6,330,91.4,330z M97.8,337.2
		c-0.3,0-0.6-0.1-0.9-0.2s-0.6-0.3-0.9-0.6l0,0l-0.1,0.6h-0.8v-8.5h1v2.3v1.1l0,0c0.3-0.3,0.6-0.5,0.9-0.6c0.4-0.2,0.7-0.2,1-0.2
		c0.4,0,0.7,0.1,1,0.2s0.6,0.3,0.8,0.6c0.2,0.3,0.4,0.6,0.5,0.9c0.1,0.4,0.2,0.8,0.2,1.2c0,0.5-0.1,0.9-0.2,1.3s-0.3,0.7-0.6,1
		c-0.2,0.3-0.5,0.5-0.8,0.6C98.5,337.1,98.2,337.2,97.8,337.2z M97.7,336.3c0.2,0,0.5-0.1,0.7-0.2s0.4-0.3,0.6-0.5s0.3-0.4,0.4-0.7
		c0.1-0.3,0.1-0.6,0.1-1c0-0.3,0-0.6-0.1-0.9s-0.2-0.5-0.3-0.7c-0.1-0.2-0.3-0.3-0.5-0.4s-0.5-0.2-0.8-0.2c-0.2,0-0.5,0.1-0.8,0.2
		s-0.6,0.4-0.9,0.7v2.9c0.3,0.2,0.6,0.4,0.8,0.5C97.2,336.3,97.4,336.3,97.7,336.3z M105,337v-5h-2.7v-0.8h3.7v5.8H105z M105.8,330
		c-0.2,0-0.4-0.1-0.6-0.2c-0.1-0.1-0.2-0.3-0.2-0.6c0-0.2,0.1-0.4,0.2-0.5c0.2-0.1,0.3-0.2,0.6-0.2c0.2,0,0.4,0.1,0.6,0.2
		s0.2,0.3,0.2,0.5s-0.1,0.4-0.2,0.6C106.2,329.9,106,330,105.8,330z M113.1,337.2c-0.4,0-0.8-0.1-1.1-0.2c-0.3-0.1-0.5-0.3-0.7-0.5
		s-0.3-0.5-0.4-0.8s-0.1-0.6-0.1-1V332h-1.6v-0.7l1.7-0.1l0.1-1.9h0.8v1.9h2.9v0.8h-2.9v2.8c0,0.3,0,0.5,0.1,0.7s0.1,0.4,0.2,0.5
		s0.3,0.2,0.5,0.3c0.2,0.1,0.4,0.1,0.7,0.1s0.5,0,0.8-0.1c0.2-0.1,0.4-0.1,0.7-0.2l0.2,0.7c-0.3,0.1-0.5,0.2-0.8,0.2
		C113.8,337.1,113.5,337.2,113.1,337.2z M119.4,337v-5h-2.7v-0.8h3.7v5.8H119.4z M120.2,330c-0.2,0-0.4-0.1-0.6-0.2
		c-0.1-0.1-0.2-0.3-0.2-0.6c0-0.2,0.1-0.4,0.2-0.5c0.2-0.1,0.3-0.2,0.6-0.2c0.2,0,0.4,0.1,0.6,0.2s0.2,0.3,0.2,0.5s-0.1,0.4-0.2,0.6
		C120.6,329.9,120.4,330,120.2,330z M126.4,337.2c-0.4,0-0.7-0.1-1.1-0.2c-0.3-0.1-0.7-0.3-0.9-0.6c-0.3-0.3-0.5-0.6-0.6-1
		c-0.2-0.4-0.2-0.8-0.2-1.3s0.1-0.9,0.2-1.3c0.2-0.4,0.4-0.7,0.6-1c0.3-0.3,0.6-0.5,0.9-0.6c0.4-0.1,0.7-0.2,1.1-0.2
		s0.8,0.1,1.1,0.2c0.4,0.1,0.7,0.3,0.9,0.6c0.3,0.3,0.5,0.6,0.6,1c0.2,0.4,0.2,0.8,0.2,1.3s-0.1,0.9-0.2,1.3c-0.2,0.4-0.4,0.7-0.6,1
		c-0.3,0.3-0.6,0.5-0.9,0.6C127.1,337.1,126.7,337.2,126.4,337.2z M126.4,336.3c0.3,0,0.5-0.1,0.8-0.2c0.2-0.1,0.4-0.3,0.6-0.5
		s0.3-0.4,0.4-0.7c0.1-0.3,0.1-0.6,0.1-0.9s0-0.6-0.1-0.9s-0.2-0.5-0.4-0.7c-0.2-0.2-0.4-0.4-0.6-0.5s-0.5-0.2-0.8-0.2
		s-0.5,0.1-0.8,0.2c-0.2,0.1-0.4,0.3-0.6,0.5s-0.3,0.4-0.4,0.7c-0.1,0.3-0.1,0.6-0.1,0.9s0,0.6,0.1,0.9s0.2,0.5,0.4,0.7
		c0.2,0.2,0.4,0.3,0.6,0.5C125.8,336.3,126.1,336.3,126.4,336.3z M131.1,337v-5.8h0.8l0.1,1l0,0c0.3-0.3,0.6-0.6,1-0.8
		c0.4-0.2,0.8-0.3,1.2-0.3c0.7,0,1.2,0.2,1.5,0.6s0.5,1,0.5,1.8v3.6h-1v-3.5c0-0.6-0.1-1-0.3-1.2c-0.2-0.3-0.6-0.4-1-0.4
		c-0.2,0-0.3,0-0.5,0.1c-0.1,0-0.3,0.1-0.4,0.2c-0.1,0.1-0.3,0.2-0.4,0.3c-0.1,0.1-0.3,0.3-0.5,0.5v4.1h-1V337z M139.8,339.6
		l-0.3-0.6c0.5-0.2,0.9-0.5,1.1-0.8c0.3-0.3,0.4-0.7,0.4-1.2h-0.1h-0.1c-0.2,0-0.5-0.1-0.7-0.2s-0.3-0.4-0.3-0.7
		c0-0.3,0.1-0.5,0.3-0.7s0.4-0.2,0.7-0.2c0.4,0,0.6,0.1,0.8,0.4s0.3,0.6,0.3,1.1c0,0.7-0.2,1.3-0.6,1.8
		C141,339,140.5,339.3,139.8,339.6z"/>
	<path d="M152.3,337v-6h1.7l0.1,0.7l0,0c0.2-0.2,0.5-0.4,0.8-0.6s0.7-0.3,1.2-0.3c0.7,0,1.2,0.2,1.5,0.7c0.3,0.4,0.5,1,0.5,1.8v3.7
		H156v-3.4c0-0.3-0.1-0.6-0.2-0.7c-0.1-0.2-0.3-0.2-0.5-0.2s-0.4,0-0.5,0.1s-0.3,0.2-0.5,0.3v3.9H152.3z M162.4,337.2
		c-0.4,0-0.8-0.1-1.2-0.2s-0.7-0.3-1-0.6c-0.3-0.3-0.5-0.6-0.7-1s-0.2-0.8-0.2-1.3s0.1-0.9,0.2-1.3c0.2-0.4,0.4-0.7,0.7-1
		s0.6-0.5,1-0.6s0.8-0.2,1.2-0.2s0.8,0.1,1.1,0.2c0.4,0.1,0.7,0.3,1,0.6c0.3,0.3,0.5,0.6,0.7,1s0.3,0.8,0.3,1.3s-0.1,0.9-0.3,1.3
		s-0.4,0.7-0.7,1s-0.6,0.5-1,0.6S162.8,337.2,162.4,337.2z M162.4,335.5c0.4,0,0.6-0.1,0.8-0.4s0.2-0.6,0.2-1.1s-0.1-0.8-0.2-1.1
		c-0.1-0.3-0.4-0.4-0.8-0.4c-0.3,0-0.6,0.1-0.8,0.4s-0.2,0.6-0.2,1.1s0.1,0.8,0.2,1.1C161.8,335.4,162,335.5,162.4,335.5z
		 M174.1,337l-0.9-6h2l0.2,2.5c0,0.3,0.1,0.6,0.1,0.9s0.1,0.6,0.1,0.9l0,0c0-0.3,0.1-0.6,0.1-0.9s0.1-0.6,0.2-0.9l0.2-1.6h1.4
		l0.3,1.6c0.1,0.3,0.1,0.6,0.1,0.9c0.1,0.3,0.1,0.6,0.1,0.9l0,0c0-0.3,0.1-0.6,0.1-0.9s0-0.6,0.1-0.9l0.2-2.5h1.9l-0.8,6h-2.4
		l-0.2-1.6c0-0.3-0.1-0.6-0.1-0.8c0-0.3,0-0.6-0.1-0.9l0,0c0,0.2,0,0.4-0.1,0.7c0,0.3-0.1,0.6-0.1,1.1l-0.2,1.6h-2.2V337z
		 M183,337.2c-0.3,0-0.6,0-0.8-0.1s-0.4-0.2-0.6-0.4c-0.2-0.2-0.3-0.4-0.4-0.6c-0.1-0.2-0.1-0.5-0.1-0.7c0-0.3,0.1-0.6,0.2-0.9
		c0.1-0.3,0.4-0.5,0.7-0.7s0.7-0.3,1.2-0.4s1.1-0.2,1.8-0.2c0-0.2-0.2-0.4-0.4-0.5s-0.5-0.2-0.8-0.2c-0.2,0-0.5,0-0.8,0.1
		s-0.6,0.2-0.9,0.4l-0.7-1.3c0.5-0.2,0.9-0.4,1.4-0.6c0.5-0.1,1-0.2,1.5-0.2c0.4,0,0.8,0.1,1.1,0.2c0.4,0.1,0.7,0.3,0.9,0.5
		s0.4,0.5,0.6,0.9c0.1,0.4,0.2,0.8,0.2,1.2v3.3h-1.7l-0.1-0.6H185c-0.3,0.2-0.6,0.4-1,0.5C183.7,337.1,183.3,337.2,183,337.2z
		 M183.6,335.6c0.2,0,0.5,0,0.6-0.1c0.2-0.1,0.4-0.2,0.5-0.3v-0.8c-0.4,0-0.7,0-0.9,0.1c-0.2,0-0.4,0.1-0.6,0.2
		c-0.1,0.1-0.2,0.2-0.3,0.2c-0.1,0.1-0.1,0.2-0.1,0.3C183,335.4,183.2,335.6,183.6,335.6z M189.3,339.3c-0.2,0-0.4,0-0.5,0
		c-0.2,0-0.3,0-0.5-0.1l0.4-1.6c0.2,0,0.3,0.1,0.4,0.1c0.3,0,0.6-0.1,0.7-0.2c0.2-0.1,0.3-0.2,0.4-0.4l0.1-0.3l-2.5-5.8h2l0.8,2.3
		c0.1,0.3,0.2,0.6,0.3,0.9s0.2,0.6,0.2,0.9l0,0c0.1-0.3,0.2-0.6,0.2-0.9c0.1-0.3,0.2-0.6,0.3-0.9l0.7-2.3h2l-2.2,5.9
		c-0.2,0.4-0.3,0.8-0.5,1c-0.2,0.3-0.4,0.5-0.6,0.7c-0.2,0.2-0.5,0.3-0.8,0.4C190.1,339.2,189.7,339.3,189.3,339.3z M206.6,337.2
		c-0.5,0-0.9-0.1-1.2-0.2s-0.6-0.3-0.8-0.5s-0.4-0.5-0.5-0.8s-0.1-0.7-0.1-1.1v-1.8h-1.4v-1.5l1.5-0.1l0.2-1.8h1.7v1.8h2.4v1.6H206
		v1.8c0,0.4,0.1,0.7,0.3,0.9c0.2,0.2,0.5,0.2,0.9,0.2c0.2,0,0.4,0,0.6,0c0.2,0,0.4-0.1,0.5-0.1l0.4,1.5c-0.3,0.1-0.6,0.1-0.9,0.2
		C207.4,337.1,207,337.2,206.6,337.2z M212.8,337.2c-0.4,0-0.8-0.1-1.2-0.2s-0.7-0.3-1-0.6c-0.3-0.3-0.5-0.6-0.7-1s-0.2-0.8-0.2-1.3
		s0.1-0.9,0.2-1.3c0.2-0.4,0.4-0.7,0.7-1s0.6-0.5,1-0.6s0.8-0.2,1.2-0.2s0.8,0.1,1.1,0.2c0.4,0.1,0.7,0.3,1,0.6
		c0.3,0.3,0.5,0.6,0.7,1s0.3,0.8,0.3,1.3s-0.1,0.9-0.3,1.3s-0.4,0.7-0.7,1s-0.6,0.5-1,0.6C213.5,337.1,213.2,337.2,212.8,337.2z
		 M212.8,335.5c0.4,0,0.6-0.1,0.8-0.4s0.2-0.6,0.2-1.1s-0.1-0.8-0.2-1.1c-0.1-0.3-0.4-0.4-0.8-0.4c-0.3,0-0.6,0.1-0.8,0.4
		s-0.2,0.6-0.2,1.1s0.1,0.8,0.2,1.1C212.2,335.4,212.4,335.5,212.8,335.5z M224.3,337v-8.4h2.1v2l-0.1,1l0,0
		c0.2-0.2,0.4-0.4,0.8-0.5c0.3-0.2,0.7-0.2,1.1-0.2c0.7,0,1.1,0.2,1.4,0.7c0.3,0.4,0.5,1,0.5,1.8v3.7H228v-3.4
		c0-0.3-0.1-0.6-0.2-0.7c-0.1-0.2-0.3-0.2-0.5-0.2s-0.4,0-0.5,0.1s-0.3,0.2-0.5,0.3v3.9L224.3,337L224.3,337z M234.7,337.2
		c-0.5,0-0.9-0.1-1.3-0.2c-0.4-0.1-0.8-0.3-1.1-0.6c-0.3-0.3-0.5-0.6-0.7-1s-0.2-0.8-0.2-1.3s0.1-0.9,0.3-1.3s0.4-0.7,0.7-1
		s0.6-0.5,1-0.6s0.8-0.2,1.2-0.2c0.5,0,0.9,0.1,1.2,0.2c0.4,0.1,0.7,0.4,0.9,0.6c0.2,0.3,0.4,0.6,0.5,0.9s0.2,0.7,0.2,1.1
		c0,0.2,0,0.3,0,0.5s0,0.3,0,0.3h-3.9c0.1,0.3,0.3,0.6,0.5,0.7c0.3,0.1,0.6,0.2,1.1,0.2c0.2,0,0.5,0,0.7-0.1s0.5-0.2,0.7-0.3
		l0.7,1.2c-0.4,0.2-0.8,0.4-1.2,0.5C235.5,337.1,235.1,337.2,234.7,337.2z M234.6,332.4c-0.6,0-1,0.3-1.1,0.9h2.1
		C235.5,332.7,235.1,332.4,234.6,332.4z M240.6,337.2c-0.3,0-0.6,0-0.8-0.1s-0.4-0.2-0.6-0.4c-0.2-0.2-0.3-0.4-0.4-0.6
		c-0.1-0.2-0.1-0.5-0.1-0.7c0-0.3,0.1-0.6,0.2-0.9c0.1-0.3,0.4-0.5,0.7-0.7s0.7-0.3,1.2-0.4s1.1-0.2,1.8-0.2c0-0.2-0.2-0.4-0.4-0.5
		s-0.5-0.2-0.8-0.2c-0.2,0-0.5,0-0.8,0.1s-0.6,0.2-0.9,0.4l-0.7-1.3c0.5-0.2,0.9-0.4,1.4-0.6c0.5-0.1,1-0.2,1.5-0.2
		c0.4,0,0.8,0.1,1.1,0.2c0.4,0.1,0.7,0.3,0.9,0.5s0.4,0.5,0.6,0.9c0.1,0.4,0.2,0.8,0.2,1.2v3.3H243l-0.1-0.6h-0.1
		c-0.3,0.2-0.6,0.4-1,0.5C241.3,337.1,240.9,337.2,240.6,337.2z M241.2,335.6c0.2,0,0.5,0,0.6-0.1c0.2-0.1,0.4-0.2,0.5-0.3v-0.8
		c-0.4,0-0.7,0-0.9,0.1c-0.2,0-0.4,0.1-0.6,0.2c-0.1,0.1-0.2,0.2-0.3,0.2c-0.1,0.1-0.1,0.2-0.1,0.3
		C240.6,335.4,240.8,335.6,241.2,335.6z M246.4,337v-6h1.7l0.2,1.3l0,0c0.3-0.5,0.6-0.8,1-1.1c0.4-0.2,0.8-0.3,1.3-0.3
		c0.3,0,0.5,0,0.7,0.1c0.2,0,0.3,0.1,0.5,0.2l-0.4,1.7c-0.2-0.1-0.4-0.1-0.5-0.1s-0.3,0-0.5,0c-0.3,0-0.7,0.1-1,0.3
		c-0.3,0.2-0.6,0.6-0.8,1.1v3h-2.2V337z M264.2,337.2c-0.5,0-0.9-0.1-1.2-0.2c-0.3-0.1-0.6-0.3-0.8-0.5c-0.2-0.2-0.4-0.5-0.5-0.8
		s-0.1-0.7-0.1-1.1v-1.8h-1.4v-1.5l1.5-0.1l0.2-1.8h1.7v1.8h2.4v1.6h-2.4v1.8c0,0.4,0.1,0.7,0.3,0.9c0.2,0.2,0.5,0.2,0.9,0.2
		c0.2,0,0.4,0,0.6,0s0.4-0.1,0.5-0.1l0.4,1.5c-0.3,0.1-0.6,0.1-0.9,0.2C265,337.1,264.6,337.2,264.2,337.2z M267.5,337v-8.4h2.1v2
		l-0.1,1l0,0c0.2-0.2,0.4-0.4,0.8-0.5c0.3-0.2,0.7-0.2,1.1-0.2c0.7,0,1.1,0.2,1.4,0.7c0.3,0.4,0.5,1,0.5,1.8v3.7h-2.1v-3.4
		c0-0.3-0.1-0.6-0.2-0.7c-0.1-0.2-0.3-0.2-0.5-0.2s-0.4,0-0.5,0.1s-0.3,0.2-0.5,0.3v3.9L267.5,337L267.5,337z M277.9,337.2
		c-0.5,0-0.9-0.1-1.3-0.2s-0.8-0.3-1.1-0.6c-0.3-0.3-0.5-0.6-0.7-1s-0.2-0.8-0.2-1.3s0.1-0.9,0.3-1.3c0.2-0.4,0.4-0.7,0.7-1
		c0.3-0.3,0.6-0.5,1-0.6s0.8-0.2,1.2-0.2c0.5,0,0.9,0.1,1.2,0.2c0.4,0.1,0.7,0.4,0.9,0.6c0.2,0.3,0.4,0.6,0.5,0.9s0.2,0.7,0.2,1.1
		c0,0.2,0,0.3,0,0.5s0,0.3,0,0.3h-3.9c0.1,0.3,0.3,0.6,0.5,0.7c0.3,0.1,0.6,0.2,1.1,0.2c0.2,0,0.5,0,0.7-0.1s0.5-0.2,0.7-0.3
		l0.7,1.2c-0.4,0.2-0.8,0.4-1.2,0.5C278.7,337.1,278.3,337.2,277.9,337.2z M277.8,332.4c-0.6,0-1,0.3-1.1,0.9h2.1
		C278.7,332.7,278.3,332.4,277.8,332.4z"/>
	<path d="M68.8,354.2c-0.4,0-0.8-0.1-1.2-0.2c-0.4-0.1-0.7-0.3-1-0.6c-0.3-0.3-0.5-0.6-0.7-1s-0.2-0.8-0.2-1.3s0.1-0.9,0.2-1.3
		c0.2-0.4,0.4-0.7,0.7-1c0.3-0.3,0.6-0.5,1-0.6s0.8-0.2,1.2-0.2c0.4,0,0.8,0.1,1.1,0.2c0.4,0.1,0.7,0.3,1,0.6c0.3,0.3,0.5,0.6,0.7,1
		s0.3,0.8,0.3,1.3s-0.1,0.9-0.3,1.3c-0.2,0.4-0.4,0.7-0.7,1c-0.3,0.3-0.6,0.5-1,0.6S69.2,354.2,68.8,354.2z M68.8,352.5
		c0.4,0,0.6-0.1,0.8-0.4c0.2-0.3,0.2-0.6,0.2-1.1s-0.1-0.8-0.2-1.1c-0.1-0.3-0.4-0.4-0.8-0.4c-0.3,0-0.6,0.1-0.8,0.4
		c-0.2,0.3-0.2,0.6-0.2,1.1s0.1,0.8,0.2,1.1C68.2,352.4,68.4,352.5,68.8,352.5z M73.1,356.1V348h1.7l0.1,0.5l0,0
		c0.2-0.2,0.5-0.4,0.8-0.5s0.6-0.2,0.9-0.2c0.4,0,0.7,0.1,1,0.2s0.6,0.3,0.8,0.6c0.2,0.3,0.4,0.6,0.5,1s0.2,0.8,0.2,1.3
		s-0.1,1-0.2,1.4s-0.3,0.7-0.6,1c-0.2,0.3-0.5,0.5-0.8,0.6s-0.6,0.2-1,0.2c-0.5,0-1-0.2-1.4-0.6l0,0l0.1,0.9v1.7H73.1z M76,352.5
		c0.1,0,0.3,0,0.4-0.1s0.2-0.1,0.3-0.2c0.1-0.1,0.2-0.3,0.2-0.5c0.1-0.2,0.1-0.4,0.1-0.7c0-0.5-0.1-0.8-0.2-1.1
		c-0.1-0.2-0.4-0.3-0.7-0.3c-0.2,0-0.3,0-0.5,0.1c-0.1,0.1-0.3,0.2-0.4,0.3v2.2c0.1,0.1,0.3,0.2,0.4,0.2
		C75.7,352.5,75.9,352.5,76,352.5z M82.7,354v-4.4h-2.3V348h4.3v6H82.7z M84.2,347.2c-0.4,0-0.7-0.1-0.9-0.3s-0.4-0.5-0.4-0.9
		s0.1-0.7,0.4-0.9c0.2-0.2,0.6-0.3,0.9-0.3c0.4,0,0.7,0.1,1,0.3c0.2,0.2,0.4,0.5,0.4,0.9s-0.1,0.7-0.4,0.9S84.5,347.2,84.2,347.2z
		 M87.5,354v-6h1.7l0.1,0.7l0,0c0.2-0.2,0.5-0.4,0.8-0.6s0.7-0.3,1.2-0.3c0.7,0,1.2,0.2,1.5,0.7c0.3,0.4,0.5,1,0.5,1.8v3.7h-2.1
		v-3.4c0-0.3-0.1-0.6-0.2-0.7c-0.1-0.2-0.3-0.2-0.5-0.2s-0.4,0-0.5,0.1s-0.3,0.2-0.5,0.3v3.9H87.5z M97.1,354v-4.4h-2.3V348h4.3v6
		H97.1z M98.6,347.2c-0.4,0-0.7-0.1-0.9-0.3s-0.4-0.5-0.4-0.9s0.1-0.7,0.4-0.9c0.2-0.2,0.6-0.3,0.9-0.3c0.4,0,0.7,0.1,1,0.3
		c0.2,0.2,0.4,0.5,0.4,0.9s-0.1,0.7-0.4,0.9S98.9,347.2,98.6,347.2z M104.8,354.2c-0.4,0-0.8-0.1-1.2-0.2c-0.4-0.1-0.7-0.3-1-0.6
		c-0.3-0.3-0.5-0.6-0.7-1s-0.3-0.8-0.2-1.3c0-0.5,0.1-0.9,0.2-1.3c0.2-0.4,0.4-0.7,0.7-1c0.3-0.3,0.6-0.5,1-0.6s0.8-0.2,1.2-0.2
		c0.4,0,0.8,0.1,1.1,0.2c0.4,0.1,0.7,0.3,1,0.6c0.3,0.3,0.5,0.6,0.7,1s0.3,0.8,0.3,1.3s-0.1,0.9-0.3,1.3c-0.2,0.4-0.4,0.7-0.7,1
		c-0.3,0.3-0.6,0.5-1,0.6S105.2,354.2,104.8,354.2z M104.8,352.5c0.4,0,0.6-0.1,0.8-0.4c0.2-0.3,0.2-0.6,0.2-1.1s-0.1-0.8-0.2-1.1
		c-0.1-0.3-0.4-0.4-0.8-0.4c-0.3,0-0.6,0.1-0.8,0.4c-0.2,0.3-0.2,0.6-0.2,1.1s0.1,0.8,0.2,1.1C104.2,352.4,104.4,352.5,104.8,352.5z
		 M109.1,354v-6h1.7l0.1,0.7l0,0c0.2-0.2,0.5-0.4,0.8-0.6s0.7-0.3,1.2-0.3c0.7,0,1.2,0.2,1.5,0.7c0.3,0.4,0.5,1,0.5,1.8v3.7h-2.1
		v-3.4c0-0.3-0.1-0.6-0.2-0.7c-0.1-0.2-0.3-0.2-0.5-0.2s-0.4,0-0.5,0.1s-0.3,0.2-0.5,0.3v3.9H109.1z M125.2,354v-4.4h-1.5v-1.5
		l1.5-0.1l0,0c0-0.3,0.1-0.6,0.2-0.9s0.3-0.6,0.5-0.8c0.2-0.2,0.5-0.4,0.9-0.5s0.8-0.2,1.3-0.2c0.4,0,0.7,0,1,0.1s0.6,0.1,0.8,0.2
		l-0.4,1.5c-0.2-0.1-0.4-0.1-0.6-0.2c-0.2,0-0.4-0.1-0.6-0.1c-0.3,0-0.6,0.1-0.7,0.2c-0.2,0.1-0.2,0.3-0.2,0.7l0,0h1.9v1.6h-1.9v4.4
		L125.2,354L125.2,354z M131.2,354v-6h1.7l0.2,1.3l0,0c0.3-0.5,0.6-0.8,1-1.1c0.4-0.2,0.8-0.3,1.3-0.3c0.3,0,0.5,0,0.7,0.1
		c0.2,0,0.3,0.1,0.5,0.2l-0.4,1.7c-0.2-0.1-0.4-0.1-0.5-0.1s-0.3,0-0.5,0c-0.3,0-0.7,0.1-1,0.3c-0.3,0.2-0.6,0.6-0.8,1.1v3h-2.2V354
		z M140.8,354.2c-0.4,0-0.8-0.1-1.2-0.2s-0.7-0.3-1-0.6c-0.3-0.3-0.5-0.6-0.7-1s-0.2-0.8-0.2-1.3s0.1-0.9,0.2-1.3
		c0.2-0.4,0.4-0.7,0.7-1s0.6-0.5,1-0.6s0.8-0.2,1.2-0.2s0.8,0.1,1.1,0.2c0.4,0.1,0.7,0.3,1,0.6c0.3,0.3,0.5,0.6,0.7,1
		s0.3,0.8,0.3,1.3s-0.1,0.9-0.3,1.3s-0.4,0.7-0.7,1s-0.6,0.5-1,0.6C141.5,354.1,141.2,354.2,140.8,354.2z M140.8,352.5
		c0.4,0,0.6-0.1,0.8-0.4s0.2-0.6,0.2-1.1s-0.1-0.8-0.2-1.1c-0.1-0.3-0.4-0.4-0.8-0.4c-0.3,0-0.6,0.1-0.8,0.4s-0.2,0.6-0.2,1.1
		s0.1,0.8,0.2,1.1C140.2,352.4,140.4,352.5,140.8,352.5z M144.7,354v-6h1.5l0.1,0.7h0.1c0.1-0.2,0.2-0.4,0.4-0.6s0.5-0.3,0.8-0.3
		c0.2,0,0.5,0.1,0.6,0.2c0.2,0.2,0.3,0.4,0.4,0.7c0.1-0.2,0.2-0.5,0.5-0.7c0.2-0.2,0.5-0.3,0.8-0.3c0.4,0,0.8,0.2,1,0.5
		c0.2,0.4,0.3,0.8,0.3,1.4v4.2h-1.9v-4c0-0.2-0.1-0.4-0.2-0.4c-0.2,0-0.3,0.2-0.4,0.5v3.9h-1.6v-4c0-0.2-0.1-0.4-0.2-0.4
		c-0.1,0-0.3,0.2-0.4,0.5v3.9h-1.8V354z M162.9,354.2c-0.5,0-0.9-0.1-1.3-0.2c-0.4-0.1-0.8-0.3-1.1-0.6c-0.3-0.3-0.5-0.6-0.7-1
		s-0.2-0.8-0.2-1.3s0.1-0.9,0.3-1.3s0.4-0.7,0.8-1c0.3-0.3,0.7-0.5,1.1-0.6c0.4-0.1,0.9-0.2,1.3-0.2s0.9,0.1,1.3,0.2
		c0.4,0.1,0.7,0.3,1,0.6l-0.9,1.3c-0.2-0.2-0.4-0.3-0.6-0.3c-0.2-0.1-0.4-0.1-0.6-0.1c-0.4,0-0.8,0.1-1.1,0.4s-0.4,0.6-0.4,1.1
		s0.1,0.8,0.4,1.1c0.3,0.3,0.6,0.4,1,0.4c0.3,0,0.6-0.1,0.8-0.2s0.5-0.2,0.7-0.3l0.8,1.3c-0.4,0.3-0.8,0.5-1.2,0.7
		C163.7,354.1,163.3,354.2,162.9,354.2z M168.5,354.2c-0.7,0-1.2-0.2-1.5-0.7c-0.3-0.4-0.4-1-0.4-1.8V348h2.1v3.4
		c0,0.3,0,0.6,0.1,0.7s0.3,0.2,0.5,0.2s0.3,0,0.5-0.1c0.1-0.1,0.3-0.2,0.4-0.4V348h2.1v6h-1.7l-0.1-0.8l0,0
		c-0.3,0.3-0.5,0.5-0.9,0.7C169.3,354.1,169,354.2,168.5,354.2z M176.7,354.2c-0.5,0-1-0.1-1.6-0.3c-0.5-0.2-1-0.4-1.4-0.6l0.9-1.3
		c0.4,0.2,0.8,0.4,1.2,0.5s0.8,0.2,1.2,0.2c0.3,0,0.4,0,0.6-0.1c0.1-0.1,0.2-0.2,0.2-0.3c0-0.1,0-0.1-0.1-0.2c0-0.1-0.1-0.1-0.2-0.1
		c-0.1,0-0.2-0.1-0.4-0.1s-0.4-0.1-0.6-0.1c-0.4-0.1-0.8-0.2-1-0.3s-0.5-0.3-0.7-0.4c-0.2-0.2-0.3-0.3-0.4-0.5
		c-0.1-0.2-0.1-0.4-0.1-0.6c0-0.3,0.1-0.6,0.2-0.8c0.1-0.2,0.3-0.4,0.6-0.6c0.2-0.2,0.5-0.3,0.9-0.4s0.8-0.1,1.2-0.1
		c0.6,0,1.1,0.1,1.5,0.3c0.4,0.2,0.8,0.4,1.2,0.6l-0.9,1.2c-0.3-0.2-0.6-0.3-1-0.4c-0.3-0.1-0.7-0.1-1-0.1c-0.2,0-0.3,0-0.5,0.1
		c-0.1,0.1-0.2,0.1-0.2,0.2s0,0.1,0.1,0.2c0.1,0,0.1,0.1,0.2,0.1c0.1,0,0.2,0.1,0.4,0.1s0.4,0.1,0.6,0.1c0.4,0.1,0.8,0.2,1.1,0.3
		c0.3,0.1,0.5,0.2,0.7,0.4c0.2,0.2,0.3,0.3,0.4,0.5c0.1,0.2,0.1,0.4,0.1,0.7c0,0.3-0.1,0.5-0.2,0.8c-0.1,0.2-0.3,0.5-0.6,0.6
		c-0.3,0.2-0.6,0.3-1,0.4C177.6,354.1,177.2,354.2,176.7,354.2z M185,354.2c-0.5,0-0.9-0.1-1.2-0.2s-0.6-0.3-0.8-0.5
		s-0.4-0.5-0.5-0.8s-0.1-0.7-0.1-1.1v-1.8H181v-1.5l1.5-0.1l0.2-1.8h1.7v1.8h2.4v1.6h-2.4v1.8c0,0.4,0.1,0.7,0.3,0.9
		c0.2,0.2,0.5,0.2,0.9,0.2c0.2,0,0.4,0,0.6,0c0.2,0,0.4-0.1,0.5-0.1l0.4,1.5c-0.3,0.1-0.6,0.1-0.9,0.2
		C185.8,354.1,185.4,354.2,185,354.2z M191.2,354.2c-0.4,0-0.8-0.1-1.2-0.2s-0.7-0.3-1-0.6c-0.3-0.3-0.5-0.6-0.7-1s-0.2-0.8-0.2-1.3
		s0.1-0.9,0.2-1.3c0.2-0.4,0.4-0.7,0.7-1s0.6-0.5,1-0.6s0.8-0.2,1.2-0.2s0.8,0.1,1.1,0.2c0.4,0.1,0.7,0.3,1,0.6
		c0.3,0.3,0.5,0.6,0.7,1s0.3,0.8,0.3,1.3s-0.1,0.9-0.3,1.3s-0.4,0.7-0.7,1s-0.6,0.5-1,0.6C191.9,354.1,191.6,354.2,191.2,354.2z
		 M191.2,352.5c0.4,0,0.6-0.1,0.8-0.4s0.2-0.6,0.2-1.1s-0.1-0.8-0.2-1.1c-0.1-0.3-0.4-0.4-0.8-0.4c-0.3,0-0.6,0.1-0.8,0.4
		s-0.2,0.6-0.2,1.1s0.1,0.8,0.2,1.1C190.6,352.4,190.8,352.5,191.2,352.5z M195.1,354v-6h1.5l0.1,0.7h0.1c0.1-0.2,0.2-0.4,0.4-0.6
		s0.5-0.3,0.8-0.3c0.2,0,0.5,0.1,0.6,0.2c0.2,0.2,0.3,0.4,0.4,0.7c0.1-0.2,0.2-0.5,0.5-0.7c0.2-0.2,0.5-0.3,0.8-0.3
		c0.4,0,0.8,0.2,1,0.5c0.2,0.4,0.3,0.8,0.3,1.4v4.2h-1.9v-4c0-0.2-0.1-0.4-0.2-0.4c-0.2,0-0.3,0.2-0.4,0.5v3.9h-1.6v-4
		c0-0.2-0.1-0.4-0.2-0.4c-0.1,0-0.3,0.2-0.4,0.5v3.9h-1.8V354z M205.9,354.2c-0.5,0-0.9-0.1-1.3-0.2c-0.4-0.1-0.8-0.3-1.1-0.6
		c-0.3-0.3-0.5-0.6-0.7-1s-0.3-0.8-0.2-1.3c0-0.5,0.1-0.9,0.3-1.3s0.4-0.7,0.7-1s0.6-0.5,1-0.6s0.8-0.2,1.2-0.2
		c0.5,0,0.9,0.1,1.2,0.2c0.4,0.1,0.7,0.4,0.9,0.6c0.2,0.3,0.4,0.6,0.5,0.9s0.2,0.7,0.2,1.1c0,0.2,0,0.3,0,0.5s0,0.3,0,0.3h-3.9
		c0.1,0.3,0.3,0.6,0.5,0.7c0.3,0.1,0.6,0.2,1.1,0.2c0.2,0,0.5,0,0.7-0.1s0.5-0.2,0.7-0.3l0.7,1.2c-0.4,0.2-0.8,0.4-1.2,0.5
		C206.7,354.1,206.3,354.2,205.9,354.2z M205.8,349.4c-0.6,0-1,0.3-1.1,0.9h2.1C206.7,349.7,206.3,349.4,205.8,349.4z M210.4,354v-6
		h1.7l0.2,1.3l0,0c0.3-0.5,0.6-0.8,1-1.1c0.4-0.2,0.8-0.3,1.3-0.3c0.3,0,0.5,0,0.7,0.1c0.2,0,0.3,0.1,0.5,0.2l-0.4,1.7
		c-0.2-0.1-0.4-0.1-0.5-0.1s-0.3,0-0.5,0c-0.3,0-0.7,0.1-1,0.3c-0.3,0.2-0.6,0.6-0.8,1.1v3h-2.2V354z M220,354.2
		c-0.2,0-0.4,0-0.6-0.1c-0.2-0.1-0.3-0.2-0.5-0.3c-0.1-0.1-0.2-0.3-0.3-0.5s-0.1-0.4-0.1-0.6s0-0.4,0.1-0.6s0.2-0.3,0.3-0.5
		c0.1-0.1,0.3-0.3,0.5-0.3c0.2-0.1,0.4-0.1,0.6-0.1c0.2,0,0.5,0,0.6,0.1c0.2,0.1,0.4,0.2,0.5,0.3c0.1,0.1,0.2,0.3,0.3,0.5
		s0.1,0.4,0.1,0.6s0,0.4-0.1,0.6s-0.2,0.4-0.3,0.5s-0.3,0.3-0.5,0.3C220.4,354.1,220.2,354.2,220,354.2z"/>
</g>
<path class="st1" d="M-55.7-35.5L-55.7-35.5v20.1l0,0V-35.5z"/>
<g>
	<path class="st2" d="M66.9,25.4h184.2v134.7H66.9V25.4z"/>
	<path d="M79.3,46.1c-0.7,0-1.2-0.1-1.7-0.3s-0.8-0.5-1.1-0.8l0.7-0.9c0.2,0.2,0.5,0.4,0.9,0.6c0.3,0.2,0.7,0.2,1.1,0.2
		c0.5,0,0.9-0.1,1.2-0.3c0.3-0.2,0.5-0.5,0.5-0.9c0-0.2,0-0.4-0.1-0.5c-0.1-0.2-0.2-0.3-0.4-0.4c-0.2-0.1-0.4-0.2-0.8-0.3
		c-0.3-0.1-0.7-0.1-1.2-0.1v-1c0.4,0,0.8,0,1-0.1s0.5-0.1,0.7-0.2c0.2-0.1,0.3-0.2,0.4-0.4s0.1-0.3,0.1-0.5c0-0.3-0.1-0.6-0.4-0.8
		c-0.2-0.2-0.6-0.3-1-0.3c-0.3,0-0.6,0.1-0.9,0.2c-0.3,0.1-0.5,0.3-0.8,0.5L76.8,39c0.4-0.3,0.7-0.5,1.1-0.7s0.9-0.3,1.4-0.3
		c0.4,0,0.8,0,1.1,0.1c0.3,0.1,0.6,0.2,0.8,0.4c0.2,0.2,0.4,0.4,0.5,0.6c0.1,0.2,0.2,0.5,0.2,0.8c0,0.4-0.1,0.8-0.4,1.1
		s-0.6,0.5-1.1,0.7V42c0.2,0.1,0.5,0.1,0.7,0.2c0.2,0.1,0.4,0.2,0.6,0.4s0.3,0.3,0.4,0.5s0.1,0.4,0.1,0.7c0,0.4-0.1,0.7-0.2,0.9
		c-0.2,0.3-0.4,0.5-0.6,0.7s-0.6,0.3-0.9,0.4C80.1,46,79.7,46.1,79.3,46.1z M86.5,42c0.3,0,0.6-0.1,0.8-0.2c0.3-0.1,0.6-0.4,0.8-0.7
		c-0.1-0.7-0.3-1.2-0.6-1.5c-0.3-0.3-0.7-0.5-1.1-0.5c-0.2,0-0.4,0-0.5,0.1c-0.2,0.1-0.3,0.2-0.4,0.3s-0.2,0.3-0.3,0.5
		c-0.1,0.2-0.1,0.4-0.1,0.6c0,0.5,0.1,0.8,0.4,1C85.7,41.9,86,42,86.5,42z M86.2,46.1c-0.5,0-0.9-0.1-1.3-0.2
		c-0.4-0.2-0.7-0.4-1-0.6l0.7-0.8c0.2,0.2,0.4,0.3,0.7,0.4c0.2,0.1,0.5,0.2,0.8,0.2s0.5,0,0.8-0.1c0.2-0.1,0.5-0.2,0.7-0.5
		c0.2-0.2,0.3-0.5,0.5-0.9c0.1-0.4,0.2-0.8,0.2-1.3c-0.3,0.3-0.6,0.5-1,0.7c-0.3,0.2-0.7,0.2-1,0.2s-0.7,0-1-0.1s-0.5-0.2-0.8-0.4
		c-0.2-0.2-0.4-0.4-0.5-0.7s-0.2-0.7-0.2-1c0-0.4,0.1-0.7,0.2-1s0.3-0.6,0.6-0.8c0.2-0.2,0.5-0.4,0.8-0.5s0.7-0.2,1-0.2
		c0.4,0,0.8,0.1,1.2,0.2c0.4,0.1,0.7,0.4,1,0.7s0.5,0.7,0.7,1.2s0.2,1,0.2,1.7c0,0.8-0.1,1.4-0.3,1.9c-0.2,0.5-0.4,1-0.7,1.3
		c-0.3,0.3-0.6,0.6-1,0.8C87,46,86.6,46.1,86.2,46.1z M99.1,48.3c-0.2,0-0.3,0-0.5,0c-0.1,0-0.3-0.1-0.4-0.1l0.3-1.1
		c0.1,0,0.2,0.1,0.2,0.1c0.1,0,0.2,0,0.3,0c0.4,0,0.7-0.1,0.9-0.3c0.2-0.2,0.4-0.4,0.5-0.7l0.2-0.4L98,40h1.4l1.2,2.9
		c0.1,0.3,0.2,0.5,0.3,0.8c0.1,0.3,0.2,0.6,0.3,0.9l0,0c0.1-0.3,0.2-0.6,0.3-0.9c0.1-0.3,0.2-0.6,0.3-0.9l1.1-2.9h1.3l-2.5,6.2
		c-0.1,0.3-0.3,0.6-0.4,0.9c-0.2,0.3-0.3,0.5-0.5,0.7s-0.4,0.3-0.7,0.4C99.8,48.3,99.5,48.3,99.1,48.3z M108.7,46.1
		c-0.4,0-0.9-0.1-1.3-0.2c-0.4-0.1-0.7-0.3-1-0.6s-0.5-0.6-0.7-1s-0.3-0.8-0.2-1.3c0-0.5,0.1-0.9,0.2-1.3c0.2-0.4,0.4-0.7,0.7-1
		c0.3-0.3,0.6-0.5,1-0.6s0.7-0.2,1.1-0.2s0.8,0.1,1.2,0.2c0.3,0.1,0.6,0.3,0.9,0.6c0.2,0.2,0.4,0.5,0.5,0.9c0.1,0.3,0.2,0.7,0.2,1.1
		c0,0.1,0,0.3,0,0.4c0,0.1,0,0.2,0,0.3H107c0.1,0.6,0.3,1,0.7,1.2c0.4,0.3,0.8,0.4,1.4,0.4c0.3,0,0.6,0,0.9-0.1s0.5-0.2,0.8-0.4
		l0.5,0.9c-0.3,0.2-0.7,0.4-1.1,0.5C109.5,46,109.1,46.1,108.7,46.1z M108.5,41c-0.4,0-0.8,0.1-1.1,0.4c-0.3,0.2-0.5,0.6-0.6,1.1
		h3.1c-0.1-0.5-0.2-0.8-0.5-1.1C109.3,41.1,108.9,41,108.5,41z M114.7,46.1c-0.3,0-0.5,0-0.8-0.1c-0.2-0.1-0.4-0.2-0.6-0.3
		c-0.2-0.2-0.3-0.3-0.4-0.5s-0.1-0.5-0.1-0.7c0-0.3,0.1-0.6,0.2-0.9c0.2-0.2,0.4-0.5,0.7-0.6c0.3-0.2,0.8-0.3,1.3-0.4
		c0.5-0.1,1.1-0.2,1.9-0.2c0-0.3-0.1-0.6-0.4-0.8s-0.6-0.3-1-0.3c-0.3,0-0.7,0.1-1,0.2c-0.3,0.1-0.6,0.3-1,0.4L113,41
		c0.4-0.2,0.8-0.4,1.2-0.6c0.5-0.2,1-0.2,1.5-0.2c0.8,0,1.4,0.2,1.9,0.7c0.4,0.4,0.7,1.1,0.7,1.9v3.5h-1.1l-0.1-0.7l0,0
		c-0.3,0.2-0.7,0.4-1,0.6C115.5,46,115.1,46.1,114.7,46.1z M115.1,45c0.3,0,0.6-0.1,0.9-0.2c0.3-0.1,0.6-0.3,0.8-0.5V43
		c-0.5,0-1,0.1-1.3,0.2c-0.3,0.1-0.6,0.1-0.8,0.2c-0.2,0.1-0.4,0.2-0.5,0.4c-0.1,0.1-0.1,0.3-0.1,0.4c0,0.3,0.1,0.5,0.3,0.6
		C114.6,44.9,114.8,45,115.1,45z M120.7,45.9V40h1.1l0.1,1.3l0,0c0.3-0.5,0.7-0.8,1.1-1.1c0.4-0.2,0.9-0.4,1.4-0.4
		c0.2,0,0.4,0,0.6,0.1c0.2,0,0.4,0.1,0.5,0.2l-0.3,1.2c-0.2-0.1-0.4-0.1-0.5-0.1s-0.3,0-0.6,0c-0.4,0-0.8,0.1-1.2,0.4
		c-0.4,0.2-0.7,0.6-1,1.2V46h-1.2V45.9z M129.9,46.1c-0.6,0-1.1-0.1-1.6-0.3s-0.9-0.4-1.3-0.6l0.6-0.9c0.4,0.2,0.7,0.4,1.1,0.5
		s0.8,0.2,1.3,0.2c0.4,0,0.7-0.1,0.9-0.2c0.2-0.1,0.3-0.3,0.3-0.5c0-0.1,0-0.2-0.1-0.2c0-0.1-0.1-0.2-0.2-0.2
		c-0.1-0.1-0.3-0.1-0.5-0.2s-0.5-0.1-0.8-0.2c-0.8-0.2-1.4-0.4-1.7-0.7c-0.4-0.3-0.5-0.7-0.5-1.1c0-0.5,0.2-0.9,0.7-1.3
		c0.4-0.3,1.1-0.5,1.9-0.5c0.5,0,0.9,0.1,1.4,0.2s0.8,0.3,1.1,0.5l-0.6,0.8c-0.3-0.2-0.6-0.3-0.9-0.4c-0.3-0.1-0.7-0.2-1-0.2
		c-0.4,0-0.7,0.1-0.8,0.2c-0.2,0.1-0.2,0.3-0.2,0.5s0.1,0.4,0.4,0.5c0.2,0.1,0.6,0.2,1.2,0.3c0.5,0.1,0.9,0.2,1.2,0.3
		s0.5,0.2,0.7,0.4c0.2,0.1,0.3,0.3,0.4,0.5c0.1,0.2,0.1,0.4,0.1,0.6c0,0.3-0.1,0.5-0.2,0.7c-0.1,0.2-0.3,0.4-0.5,0.6
		c-0.2,0.2-0.5,0.3-0.9,0.4S130.4,46.1,129.9,46.1z M144.3,46.1c-0.4,0-0.7-0.1-1.1-0.2c-0.4-0.1-0.7-0.3-1-0.6s-0.5-0.6-0.7-1
		s-0.2-0.8-0.2-1.3s0.1-0.9,0.2-1.3c0.2-0.4,0.4-0.7,0.7-1s0.6-0.5,1-0.6s0.7-0.2,1.1-0.2c0.4,0,0.8,0.1,1.1,0.2
		c0.4,0.1,0.7,0.3,1,0.6s0.5,0.6,0.7,1s0.2,0.8,0.2,1.3s-0.1,0.9-0.2,1.3c-0.2,0.4-0.4,0.7-0.7,1s-0.6,0.5-1,0.6
		C145,46,144.7,46.1,144.3,46.1z M144.3,44.9c0.5,0,0.9-0.2,1.1-0.5c0.3-0.4,0.4-0.8,0.4-1.4c0-0.6-0.1-1.1-0.4-1.4
		c-0.3-0.4-0.6-0.5-1.1-0.5s-0.9,0.2-1.1,0.5c-0.3,0.4-0.4,0.8-0.4,1.4c0,0.6,0.1,1.1,0.4,1.4C143.4,44.8,143.8,44.9,144.3,44.9z
		 M152.7,46.1c-0.7,0-1.2-0.2-1.6-0.6c-0.4-0.4-0.5-1-0.5-1.7v-5.2h-2v-1.1h3.3v6.4c0,0.4,0.1,0.7,0.3,0.9s0.5,0.2,0.8,0.2
		s0.7-0.1,1-0.2l0.3,1c-0.3,0.1-0.6,0.2-0.8,0.2C153.3,46,153.1,46.1,152.7,46.1z M158.3,46.1c-0.4,0-0.7-0.1-1-0.2
		c-0.3-0.1-0.6-0.3-0.8-0.6s-0.4-0.6-0.5-1s-0.2-0.8-0.2-1.3s0.1-0.9,0.2-1.3c0.1-0.4,0.3-0.7,0.6-1c0.2-0.3,0.5-0.5,0.8-0.6
		s0.6-0.2,1-0.2c0.3,0,0.6,0.1,0.9,0.2c0.3,0.1,0.5,0.3,0.7,0.5l0,0l-0.1-1v-2.1h1.4V46h-1.1l-0.1-0.7l0,0c-0.2,0.2-0.5,0.4-0.8,0.6
		C158.9,46,158.6,46.1,158.3,46.1z M158.6,44.9c0.5,0,0.9-0.2,1.3-0.7v-2.7c-0.2-0.2-0.4-0.3-0.6-0.4c-0.2-0.1-0.4-0.1-0.6-0.1
		c-0.2,0-0.4,0-0.6,0.1c-0.2,0.1-0.3,0.2-0.5,0.4c-0.1,0.2-0.2,0.4-0.3,0.6c-0.1,0.2-0.1,0.5-0.1,0.8c0,0.6,0.1,1.1,0.4,1.5
		C157.8,44.8,158.1,44.9,158.6,44.9z M164.9,48.5l-0.4-0.8c1-0.4,1.5-1,1.5-1.8c0,0-0.1,0-0.2,0c-0.3,0-0.6-0.1-0.8-0.3
		s-0.3-0.5-0.3-0.8s0.1-0.6,0.3-0.8s0.5-0.3,0.8-0.3c0.4,0,0.8,0.2,1,0.5s0.3,0.8,0.3,1.3c0,0.7-0.2,1.4-0.6,1.9
		C166.2,47.9,165.7,48.3,164.9,48.5z M170.3,45.9v-7.8h1.5l0.9,3.1l0.3,1.2l0,0l0.3-1.2l1-3.1h1.5v7.8h-1.2v-3.2c0-0.2,0-0.5,0-0.7
		c0-0.3,0-0.6,0-0.9c0-0.3,0-0.6,0.1-0.9c0-0.3,0.1-0.5,0.1-0.7l0,0l-0.5,1.8l-0.9,2.5h-0.8l-0.9-2.5l-0.5-1.8l0,0
		c0,0.2,0,0.4,0.1,0.7c0,0.3,0.1,0.6,0.1,0.9c0,0.3,0,0.6,0,0.9c0,0.3,0,0.5,0,0.7v3.2H170.3z M179.5,46.1c-0.3,0-0.5,0-0.8-0.1
		c-0.2-0.1-0.4-0.2-0.6-0.3c-0.2-0.2-0.3-0.3-0.4-0.5c-0.1-0.2-0.1-0.5-0.1-0.7c0-0.3,0.1-0.6,0.2-0.9c0.2-0.2,0.4-0.5,0.7-0.6
		c0.3-0.2,0.8-0.3,1.3-0.4c0.5-0.1,1.1-0.2,1.9-0.2c0-0.3-0.1-0.6-0.4-0.8s-0.6-0.3-1-0.3c-0.3,0-0.7,0.1-1,0.2
		c-0.3,0.1-0.6,0.3-1,0.4l-0.5-0.9c0.4-0.2,0.8-0.4,1.2-0.6c0.5-0.2,1-0.2,1.5-0.2c0.8,0,1.4,0.2,1.9,0.7c0.4,0.4,0.7,1.1,0.7,1.9
		v3.5H182l-0.1-0.7l0,0c-0.3,0.2-0.7,0.4-1,0.6C180.3,46,179.9,46.1,179.5,46.1z M179.9,45c0.3,0,0.6-0.1,0.9-0.2
		c0.3-0.1,0.6-0.3,0.8-0.5V43c-0.5,0-1,0.1-1.3,0.2c-0.3,0.1-0.6,0.1-0.8,0.2c-0.2,0.1-0.4,0.2-0.5,0.4c-0.1,0.1-0.1,0.3-0.1,0.4
		c0,0.3,0.1,0.5,0.3,0.6C179.4,44.9,179.6,45,179.9,45z M188.7,46.1c-0.7,0-1.2-0.2-1.6-0.6c-0.4-0.4-0.5-1-0.5-1.7v-5.2h-2v-1.1
		h3.3v6.4c0,0.4,0.1,0.7,0.3,0.9s0.5,0.2,0.8,0.2s0.7-0.1,1-0.2l0.3,1c-0.3,0.1-0.6,0.2-0.8,0.2C189.3,46,189.1,46.1,188.7,46.1z
		 M195.1,46.1c-0.4,0-0.9-0.1-1.3-0.2c-0.4-0.1-0.7-0.3-1-0.6s-0.5-0.6-0.7-1s-0.2-0.8-0.2-1.3s0.1-0.9,0.2-1.3
		c0.2-0.4,0.4-0.7,0.7-1s0.6-0.5,1-0.6s0.7-0.2,1.1-0.2c0.4,0,0.8,0.1,1.2,0.2c0.3,0.1,0.6,0.3,0.9,0.6c0.2,0.2,0.4,0.5,0.5,0.9
		c0.1,0.3,0.2,0.7,0.2,1.1c0,0.1,0,0.3,0,0.4s0,0.2,0,0.3h-4.3c0.1,0.6,0.3,1,0.7,1.2c0.4,0.3,0.8,0.4,1.4,0.4c0.3,0,0.6,0,0.9-0.1
		c0.3-0.1,0.5-0.2,0.8-0.4l0.5,0.9c-0.3,0.2-0.7,0.4-1.1,0.5S195.5,46.1,195.1,46.1z M194.9,41c-0.4,0-0.8,0.1-1.1,0.4
		c-0.3,0.2-0.5,0.6-0.6,1.1h3.1c-0.1-0.5-0.2-0.8-0.5-1.1C195.7,41.1,195.3,41,194.9,41z"/>
	<path d="M80.1,75.1c-0.5,0-0.9-0.1-1.4-0.3c-0.4-0.2-0.8-0.4-1.1-0.8s-0.6-0.8-0.8-1.3c-0.2-0.5-0.3-1.1-0.3-1.7s0.1-1.2,0.3-1.7
		c0.2-0.5,0.4-0.9,0.8-1.3c0.3-0.4,0.7-0.6,1.2-0.8c0.4-0.2,0.9-0.3,1.4-0.3s0.9,0.1,1.3,0.3c0.4,0.2,0.7,0.4,1,0.7l-0.8,0.9
		c-0.2-0.2-0.4-0.4-0.7-0.5c-0.2-0.1-0.5-0.2-0.8-0.2s-0.6,0.1-0.9,0.2s-0.5,0.3-0.7,0.6c-0.2,0.2-0.3,0.5-0.5,0.9
		c0,0.4-0.1,0.7-0.1,1.2c0,0.4,0.1,0.8,0.2,1.2c0.1,0.4,0.3,0.7,0.5,0.9c0.2,0.2,0.4,0.4,0.7,0.6c0.3,0.1,0.6,0.2,0.9,0.2
		s0.6-0.1,0.9-0.2s0.5-0.3,0.7-0.6l0.8,0.8c-0.3,0.4-0.7,0.7-1.1,0.9C81.1,75,80.7,75.1,80.1,75.1z M84.1,74.9v-8.5h1.4v2.2
		l-0.1,1.2l0,0c0.3-0.3,0.6-0.5,0.9-0.7s0.7-0.3,1.2-0.3c0.7,0,1.2,0.2,1.5,0.6s0.5,1,0.5,1.8v3.6h-1.4v-3.5c0-0.5-0.1-0.8-0.2-1
		c-0.2-0.2-0.4-0.3-0.8-0.3c-0.3,0-0.6,0.1-0.8,0.2c-0.2,0.1-0.5,0.3-0.7,0.6v4h-1.5V74.9z M93.9,74.9v-4.8h-2.5V69h3.9v5.9H93.9z
		 M94.9,68c-0.3,0-0.5-0.1-0.7-0.2c-0.2-0.2-0.3-0.4-0.3-0.7s0.1-0.5,0.3-0.7c0.2-0.2,0.4-0.3,0.7-0.3c0.3,0,0.5,0.1,0.7,0.3
		c0.2,0.2,0.3,0.4,0.3,0.7s-0.1,0.5-0.3,0.7C95.4,67.9,95.2,68,94.9,68z M100.3,75.1c-0.3,0-0.5,0-0.8-0.1c-0.2-0.1-0.4-0.2-0.6-0.3
		c-0.2-0.2-0.3-0.3-0.4-0.5s-0.1-0.5-0.1-0.7c0-0.3,0.1-0.6,0.2-0.9c0.2-0.2,0.4-0.5,0.7-0.6c0.3-0.2,0.8-0.3,1.3-0.4
		s1.1-0.2,1.9-0.2c0-0.3-0.1-0.6-0.4-0.8c-0.2-0.2-0.6-0.3-1-0.3c-0.3,0-0.7,0.1-1,0.2s-0.6,0.3-1,0.4L98.6,70
		c0.4-0.2,0.8-0.4,1.2-0.6c0.5-0.2,1-0.2,1.5-0.2c0.8,0,1.4,0.2,1.9,0.7c0.4,0.4,0.7,1.1,0.7,1.9v3.5h-1.1l-0.1-0.7l0,0
		c-0.3,0.2-0.7,0.4-1,0.6C101.1,75,100.7,75.1,100.3,75.1z M100.7,74c0.3,0,0.6-0.1,0.9-0.2s0.6-0.3,0.8-0.5V72
		c-0.5,0-1,0.1-1.3,0.2s-0.6,0.1-0.8,0.2c-0.2,0.1-0.4,0.2-0.5,0.4c-0.1,0.1-0.1,0.3-0.1,0.4c0,0.3,0.1,0.5,0.3,0.6
		C100.2,73.9,100.4,74,100.7,74z M106.3,77.3c-0.2,0-0.3,0-0.5,0c-0.1,0-0.3-0.1-0.4-0.1l0.3-1.1c0.1,0,0.2,0.1,0.2,0.1
		c0.1,0,0.2,0,0.3,0c0.4,0,0.7-0.1,0.9-0.3c0.2-0.2,0.4-0.4,0.5-0.7l0.2-0.4l-2.6-5.8h1.4l1.2,2.9c0.1,0.3,0.2,0.5,0.3,0.8
		c0.1,0.3,0.2,0.6,0.3,0.9l0,0c0.1-0.3,0.2-0.6,0.3-0.9c0.1-0.3,0.2-0.6,0.3-0.9l1.1-2.9h1.3l-2.5,6.2c-0.1,0.3-0.3,0.6-0.4,0.9
		c-0.2,0.3-0.3,0.5-0.5,0.7s-0.4,0.3-0.7,0.4C107,77.3,106.7,77.3,106.3,77.3z M115.5,74.9v-4.8H113V69h3.9v5.9H115.5z M116.5,68
		c-0.3,0-0.5-0.1-0.7-0.2c-0.2-0.2-0.3-0.4-0.3-0.7s0.1-0.5,0.3-0.7c0.2-0.2,0.4-0.3,0.7-0.3c0.3,0,0.5,0.1,0.7,0.3
		c0.2,0.2,0.3,0.4,0.3,0.7s-0.1,0.5-0.3,0.7C117,67.9,116.8,68,116.5,68z M121.7,77.5l-0.4-0.8c1-0.4,1.5-1,1.5-1.8c0,0-0.1,0-0.2,0
		c-0.3,0-0.6-0.1-0.8-0.3c-0.2-0.2-0.3-0.5-0.3-0.8s0.1-0.6,0.3-0.8c0.2-0.2,0.5-0.3,0.8-0.3c0.4,0,0.8,0.2,1,0.5s0.3,0.8,0.3,1.3
		c0,0.7-0.2,1.4-0.6,1.9C123,76.9,122.5,77.3,121.7,77.5z M136.4,74.9v-6.7h-2.5V67h6.3v1.2h-2.5v6.7H136.4z M141.9,74.9l-1.1-7.8
		h1.5l0.4,4.5c0,0.3,0,0.6,0,0.9s0,0.6,0.1,1l0,0c0.1-0.4,0.1-0.7,0.2-1s0.1-0.6,0.2-0.9l0.6-2.5h1l0.6,2.5c0.1,0.3,0.2,0.6,0.2,0.9
		c0.1,0.3,0.1,0.6,0.2,1l0,0c0-0.4,0-0.7,0-1s0-0.6,0.1-0.9l0.4-4.5h1.4l-1,7.8h-1.6l-0.6-2.8c-0.1-0.2-0.1-0.5-0.2-0.7
		c0-0.2-0.1-0.5-0.1-0.7l0,0c0,0.2-0.1,0.5-0.1,0.7s-0.1,0.5-0.1,0.7l-0.6,2.8H141.9z"/>
	<path d="M79.5,104.1c-0.6,0-1.1-0.1-1.6-0.3c-0.5-0.2-0.9-0.5-1.3-0.9l0.8-0.9c0.3,0.3,0.6,0.5,1,0.6s0.8,0.2,1.2,0.2
		c0.5,0,0.8-0.1,1-0.3s0.4-0.4,0.4-0.7c0-0.2,0-0.3-0.1-0.4s-0.2-0.2-0.3-0.3c-0.1-0.1-0.3-0.2-0.4-0.2s-0.3-0.2-0.5-0.2l-1.1-0.5
		c-0.2-0.1-0.4-0.2-0.6-0.3c-0.2-0.1-0.4-0.3-0.5-0.4c-0.2-0.2-0.3-0.4-0.4-0.6S77,98.4,77,98.1s0.1-0.6,0.2-0.9s0.3-0.5,0.6-0.7
		s0.5-0.3,0.9-0.5c0.3-0.1,0.7-0.2,1.1-0.2c0.5,0,0.9,0.1,1.4,0.3s0.8,0.4,1.1,0.7l-0.7,0.9c-0.3-0.2-0.5-0.4-0.8-0.5
		s-0.6-0.2-1-0.2s-0.7,0.1-0.9,0.2c-0.2,0.2-0.3,0.4-0.3,0.7c0,0.2,0,0.3,0.1,0.4s0.2,0.2,0.3,0.3s0.3,0.2,0.4,0.2s0.3,0.1,0.5,0.2
		l1,0.4c0.2,0.1,0.5,0.2,0.7,0.3c0.2,0.1,0.4,0.3,0.5,0.4s0.3,0.4,0.4,0.6s0.1,0.5,0.1,0.8s-0.1,0.6-0.2,0.9s-0.3,0.5-0.6,0.7
		c-0.2,0.2-0.5,0.4-0.9,0.5C80.4,104,80,104.1,79.5,104.1z M86.7,104.1c-0.4,0-0.9-0.1-1.2-0.3c-0.4-0.2-0.7-0.4-1-0.8
		s-0.5-0.8-0.6-1.3s-0.2-1.1-0.2-1.8s0.1-1.2,0.2-1.7c0.2-0.5,0.4-0.9,0.6-1.2c0.3-0.3,0.6-0.6,1-0.8c0.4-0.2,0.8-0.3,1.2-0.3
		c0.5,0,0.9,0.1,1.2,0.3c0.4,0.2,0.7,0.4,1,0.8c0.3,0.3,0.5,0.8,0.6,1.2c0.2,0.5,0.2,1.1,0.2,1.7s-0.1,1.2-0.2,1.8
		c-0.1,0.5-0.4,0.9-0.6,1.3c-0.3,0.3-0.6,0.6-1,0.8C87.6,104,87.2,104.1,86.7,104.1z M86.7,102.9c0.5,0,0.9-0.2,1.2-0.8
		c0.3-0.5,0.5-1.2,0.5-2.1s-0.2-1.6-0.5-2.1s-0.7-0.7-1.2-0.7s-0.9,0.2-1.2,0.7c-0.3,0.5-0.5,1.2-0.5,2.1s0.2,1.6,0.5,2.1
		S86.2,102.9,86.7,102.9z M93.9,104.1c-0.4,0-0.9-0.1-1.2-0.3c-0.4-0.2-0.7-0.4-1-0.8s-0.5-0.8-0.6-1.3s-0.2-1.1-0.2-1.8
		s0.1-1.2,0.2-1.7c0.2-0.5,0.4-0.9,0.6-1.2c0.3-0.3,0.6-0.6,1-0.8c0.4-0.2,0.8-0.3,1.2-0.3c0.5,0,0.9,0.1,1.2,0.3
		c0.4,0.2,0.7,0.4,1,0.8c0.3,0.3,0.5,0.8,0.6,1.2c0.2,0.5,0.2,1.1,0.2,1.7s-0.1,1.2-0.2,1.8c-0.1,0.5-0.4,0.9-0.6,1.3
		c-0.3,0.3-0.6,0.6-1,0.8C94.8,104,94.4,104.1,93.9,104.1z M93.9,102.9c0.5,0,0.9-0.2,1.2-0.8c0.3-0.5,0.5-1.2,0.5-2.1
		s-0.2-1.6-0.5-2.1s-0.7-0.7-1.2-0.7s-0.9,0.2-1.2,0.7c-0.3,0.5-0.5,1.2-0.5,2.1s0.2,1.6,0.5,2.1C93,102.6,93.4,102.9,93.9,102.9z
		 M98.4,103.9v-7.8h1.5l2.1,4.4l0.7,1.7l0,0c0-0.4-0.1-0.8-0.1-1.3s-0.1-0.9-0.1-1.4v-3.4h1.3v7.8h-1.5l-2.1-4.4l-0.7-1.7l0,0
		c0,0.4,0.1,0.9,0.1,1.3c0.1,0.4,0.1,0.9,0.1,1.3v3.4L98.4,103.9L98.4,103.9z M105.8,103.9v-7.8h2.6c0.4,0,0.8,0,1.2,0.1
		c0.4,0.1,0.7,0.2,0.9,0.4c0.3,0.2,0.5,0.4,0.6,0.8c0.2,0.3,0.2,0.7,0.2,1.1s-0.1,0.8-0.2,1.1c-0.1,0.3-0.4,0.6-0.6,0.8
		c-0.3,0.2-0.6,0.4-1,0.5s-0.8,0.2-1.2,0.2h-1.2v2.9L105.8,103.9L105.8,103.9z M107.2,99.9h1.1c1.1,0,1.7-0.5,1.7-1.4
		c0-0.5-0.1-0.8-0.4-1s-0.7-0.3-1.3-0.3h-1.1C107.2,97.2,107.2,99.9,107.2,99.9z M115.5,104.1c-0.4,0-0.9-0.1-1.2-0.3
		c-0.4-0.2-0.7-0.4-1-0.8s-0.5-0.8-0.6-1.3s-0.2-1.1-0.2-1.8s0.1-1.2,0.2-1.7c0.2-0.5,0.4-0.9,0.6-1.2c0.3-0.3,0.6-0.6,1-0.8
		c0.4-0.2,0.8-0.3,1.2-0.3c0.5,0,0.9,0.1,1.2,0.3c0.4,0.2,0.7,0.4,1,0.8c0.3,0.3,0.5,0.8,0.6,1.2c0.2,0.5,0.2,1.1,0.2,1.7
		s-0.1,1.2-0.2,1.8c-0.1,0.5-0.4,0.9-0.6,1.3c-0.3,0.3-0.6,0.6-1,0.8C116.4,104,116,104.1,115.5,104.1z M115.5,102.9
		c0.5,0,0.9-0.2,1.2-0.8c0.3-0.5,0.5-1.2,0.5-2.1s-0.2-1.6-0.5-2.1s-0.7-0.7-1.2-0.7s-0.9,0.2-1.2,0.7c-0.3,0.5-0.5,1.2-0.5,2.1
		s0.2,1.6,0.5,2.1C114.6,102.6,115,102.9,115.5,102.9z M120.1,103.9v-7.8h2.6c0.4,0,0.8,0,1.1,0.1c0.4,0.1,0.7,0.2,0.9,0.4
		c0.3,0.2,0.5,0.4,0.6,0.7c0.1,0.3,0.2,0.7,0.2,1.1c0,0.6-0.1,1.1-0.4,1.5s-0.7,0.6-1.1,0.8l1.9,3.3h-1.6l-1.7-3.1h-1.2v3.1
		L120.1,103.9L120.1,103.9z M121.5,99.8h1.1c0.5,0,1-0.1,1.2-0.3c0.3-0.2,0.4-0.6,0.4-1c0-0.5-0.1-0.8-0.4-1s-0.7-0.3-1.2-0.3h-1.1
		V99.8z M129.2,103.9v-6.7h-2.5V96h6.3v1.2h-2.5v6.7H129.2z M144.3,104.1c-0.6,0-1.1-0.1-1.6-0.3c-0.5-0.2-0.9-0.5-1.3-0.9l0.8-0.9
		c0.3,0.3,0.6,0.5,1,0.6s0.8,0.2,1.2,0.2c0.5,0,0.8-0.1,1-0.3c0.2-0.2,0.4-0.4,0.4-0.7c0-0.2,0-0.3-0.1-0.4s-0.2-0.2-0.3-0.3
		c-0.1-0.1-0.3-0.2-0.4-0.2c-0.2-0.1-0.3-0.2-0.5-0.2l-1.1-0.5c-0.2-0.1-0.4-0.2-0.6-0.3c-0.2-0.1-0.4-0.3-0.5-0.4
		c-0.2-0.2-0.3-0.4-0.4-0.6c-0.1-0.2-0.1-0.5-0.1-0.8s0.1-0.6,0.2-0.9c0.1-0.3,0.3-0.5,0.6-0.7c0.2-0.2,0.5-0.3,0.9-0.5
		c0.3-0.1,0.7-0.2,1.1-0.2c0.5,0,0.9,0.1,1.4,0.3s0.8,0.4,1.1,0.7l-0.7,0.9c-0.3-0.2-0.5-0.4-0.8-0.5s-0.6-0.2-1-0.2
		s-0.7,0.1-0.9,0.2c-0.2,0.2-0.3,0.4-0.3,0.7c0,0.2,0,0.3,0.1,0.4s0.2,0.2,0.3,0.3s0.3,0.2,0.4,0.2c0.2,0.1,0.3,0.1,0.5,0.2l1,0.4
		c0.2,0.1,0.5,0.2,0.7,0.3c0.2,0.1,0.4,0.3,0.5,0.4s0.3,0.4,0.4,0.6c0.1,0.2,0.1,0.5,0.1,0.8s-0.1,0.6-0.2,0.9
		c-0.1,0.3-0.3,0.5-0.6,0.7c-0.2,0.2-0.5,0.4-0.9,0.5C145.2,104,144.8,104.1,144.3,104.1z M150.7,104.1c-0.3,0-0.5,0-0.8-0.1
		c-0.2-0.1-0.4-0.2-0.6-0.3c-0.2-0.2-0.3-0.3-0.4-0.5c-0.1-0.2-0.1-0.5-0.1-0.7c0-0.3,0.1-0.6,0.2-0.9c0.2-0.2,0.4-0.5,0.7-0.6
		c0.3-0.2,0.8-0.3,1.3-0.4s1.1-0.2,1.9-0.2c0-0.3-0.1-0.6-0.4-0.8s-0.6-0.3-1-0.3c-0.3,0-0.7,0.1-1,0.2s-0.6,0.3-1,0.4L149,99
		c0.4-0.2,0.8-0.4,1.2-0.6c0.5-0.2,1-0.2,1.5-0.2c0.8,0,1.4,0.2,1.9,0.7c0.4,0.4,0.7,1.1,0.7,1.9v3.5h-1.1l-0.1-0.7l0,0
		c-0.3,0.2-0.7,0.4-1,0.6C151.5,104,151.1,104.1,150.7,104.1z M151.1,103c0.3,0,0.6-0.1,0.9-0.2c0.3-0.1,0.6-0.3,0.8-0.5V101
		c-0.5,0-1,0.1-1.3,0.2s-0.6,0.1-0.8,0.2s-0.4,0.2-0.5,0.4c-0.1,0.1-0.1,0.3-0.1,0.4c0,0.3,0.1,0.5,0.3,0.6
		C150.6,102.9,150.8,103,151.1,103z M159.9,104.1c-0.7,0-1.2-0.2-1.6-0.6c-0.4-0.4-0.5-1-0.5-1.7v-5.2h-2v-1.1h3.3v6.4
		c0,0.4,0.1,0.7,0.3,0.9c0.2,0.2,0.5,0.2,0.8,0.2s0.7-0.1,1-0.2l0.3,1c-0.3,0.1-0.6,0.2-0.8,0.2C160.5,104,160.3,104.1,159.9,104.1z
		 M166.3,104.1c-0.4,0-0.9-0.1-1.3-0.2c-0.4-0.1-0.7-0.3-1-0.6c-0.3-0.3-0.5-0.6-0.7-1s-0.2-0.8-0.2-1.3s0.1-0.9,0.2-1.3
		c0.2-0.4,0.4-0.7,0.7-1s0.6-0.5,1-0.6s0.7-0.2,1.1-0.2c0.4,0,0.8,0.1,1.2,0.2c0.3,0.1,0.6,0.3,0.9,0.6c0.2,0.2,0.4,0.5,0.5,0.9
		c0.1,0.3,0.2,0.7,0.2,1.1c0,0.1,0,0.3,0,0.4s0,0.2,0,0.3h-4.3c0.1,0.6,0.3,1,0.7,1.2c0.4,0.3,0.8,0.4,1.4,0.4c0.3,0,0.6,0,0.9-0.1
		c0.3-0.1,0.5-0.2,0.8-0.4l0.5,0.9c-0.3,0.2-0.7,0.4-1.1,0.5C167.1,104,166.7,104.1,166.3,104.1z M166.1,99c-0.4,0-0.8,0.1-1.1,0.4
		c-0.3,0.2-0.5,0.6-0.6,1.1h3.1c-0.1-0.5-0.2-0.8-0.5-1.1C166.9,99.1,166.5,99,166.1,99z M173.1,104.1c-0.6,0-1.1-0.1-1.6-0.3
		c-0.5-0.2-0.9-0.4-1.3-0.6l0.6-0.9c0.4,0.2,0.7,0.4,1.1,0.5c0.4,0.1,0.8,0.2,1.3,0.2c0.4,0,0.7-0.1,0.9-0.2s0.3-0.3,0.3-0.5
		c0-0.1,0-0.2-0.1-0.2c0-0.1-0.1-0.2-0.2-0.2c-0.1-0.1-0.3-0.1-0.5-0.2s-0.5-0.1-0.8-0.2c-0.8-0.2-1.4-0.4-1.7-0.7
		c-0.4-0.3-0.5-0.7-0.5-1.1c0-0.5,0.2-0.9,0.7-1.3c0.4-0.3,1.1-0.5,1.9-0.5c0.5,0,0.9,0.1,1.4,0.2c0.4,0.2,0.8,0.3,1.1,0.5l-0.6,0.8
		c-0.3-0.2-0.6-0.3-0.9-0.4c-0.3-0.1-0.7-0.2-1-0.2c-0.4,0-0.7,0.1-0.8,0.2c-0.2,0.1-0.2,0.3-0.2,0.5s0.1,0.4,0.4,0.5
		c0.2,0.1,0.6,0.2,1.2,0.3c0.5,0.1,0.9,0.2,1.2,0.3c0.3,0.1,0.5,0.2,0.7,0.4c0.2,0.1,0.3,0.3,0.4,0.5c0.1,0.2,0.1,0.4,0.1,0.6
		c0,0.3-0.1,0.5-0.2,0.7c-0.1,0.2-0.3,0.4-0.5,0.6s-0.5,0.3-0.9,0.4S173.6,104.1,173.1,104.1z M184.7,103.9v-7.8h1.5l0.9,3.1
		l0.3,1.2l0,0l0.3-1.2l1-3.1h1.5v7.8H189v-3.2c0-0.2,0-0.5,0-0.7c0-0.3,0-0.6,0-0.9s0-0.6,0.1-0.9c0-0.3,0.1-0.5,0.1-0.7l0,0
		l-0.5,1.8l-0.9,2.5H187l-0.9-2.5l-0.5-1.8l0,0c0,0.2,0,0.4,0.1,0.7c0,0.3,0.1,0.6,0.1,0.9s0,0.6,0,0.9s0,0.5,0,0.7v3.2H184.7z
		 M193.9,104.1c-0.3,0-0.5,0-0.8-0.1s-0.4-0.2-0.6-0.3c-0.2-0.2-0.3-0.3-0.4-0.5c-0.1-0.2-0.1-0.5-0.1-0.7c0-0.3,0.1-0.6,0.2-0.9
		c0.2-0.2,0.4-0.5,0.7-0.6c0.3-0.2,0.8-0.3,1.3-0.4s1.1-0.2,1.9-0.2c0-0.3-0.1-0.6-0.4-0.8s-0.6-0.3-1-0.3c-0.3,0-0.7,0.1-1,0.2
		s-0.6,0.3-1,0.4l-0.5-0.9c0.4-0.2,0.8-0.4,1.2-0.6c0.5-0.2,1-0.2,1.5-0.2c0.8,0,1.4,0.2,1.9,0.7c0.4,0.4,0.7,1.1,0.7,1.9v3.5h-1.1
		l-0.1-0.7l0,0c-0.3,0.2-0.7,0.4-1,0.6C194.7,104,194.3,104.1,193.9,104.1z M194.3,103c0.3,0,0.6-0.1,0.9-0.2
		c0.3-0.1,0.6-0.3,0.8-0.5V101c-0.5,0-1,0.1-1.3,0.2s-0.6,0.1-0.8,0.2s-0.4,0.2-0.5,0.4c-0.1,0.1-0.1,0.3-0.1,0.4
		c0,0.3,0.1,0.5,0.3,0.6C193.8,102.9,194,103,194.3,103z M199.3,103.9V98h1.1l0.1,0.9l0,0c0.3-0.3,0.6-0.5,0.9-0.7
		c0.3-0.2,0.7-0.3,1.2-0.3c0.7,0,1.2,0.2,1.5,0.6s0.5,1,0.5,1.8v3.6h-1.4v-3.5c0-0.5-0.1-0.8-0.2-1c-0.2-0.2-0.4-0.3-0.8-0.3
		c-0.3,0-0.6,0.1-0.8,0.2s-0.5,0.3-0.7,0.6v4C200.7,103.9,199.3,103.9,199.3,103.9z M208.3,104.1c-0.3,0-0.5,0-0.8-0.1
		c-0.2-0.1-0.4-0.2-0.6-0.3c-0.2-0.2-0.3-0.3-0.4-0.5c-0.1-0.2-0.1-0.5-0.1-0.7c0-0.3,0.1-0.6,0.2-0.9c0.2-0.2,0.4-0.5,0.7-0.6
		c0.3-0.2,0.8-0.3,1.3-0.4s1.1-0.2,1.9-0.2c0-0.3-0.1-0.6-0.4-0.8s-0.6-0.3-1-0.3c-0.3,0-0.7,0.1-1,0.2s-0.6,0.3-1,0.4l-0.5-0.9
		c0.4-0.2,0.8-0.4,1.2-0.6c0.5-0.2,1-0.2,1.5-0.2c0.8,0,1.4,0.2,1.9,0.7c0.4,0.4,0.7,1.1,0.7,1.9v3.5h-1.1l-0.1-0.7l0,0
		c-0.3,0.2-0.7,0.4-1,0.6C209.1,104,208.7,104.1,208.3,104.1z M208.7,103c0.3,0,0.6-0.1,0.9-0.2c0.3-0.1,0.6-0.3,0.8-0.5V101
		c-0.5,0-1,0.1-1.3,0.2s-0.6,0.1-0.8,0.2s-0.4,0.2-0.5,0.4c-0.1,0.1-0.1,0.3-0.1,0.4c0,0.3,0.1,0.5,0.3,0.6
		C208.2,102.9,208.4,103,208.7,103z M216.1,106.5c-0.4,0-0.8,0-1.1-0.1s-0.6-0.2-0.8-0.3c-0.2-0.1-0.4-0.3-0.5-0.5s-0.2-0.4-0.2-0.7
		c0-0.5,0.3-0.9,0.9-1.2l0,0c-0.2-0.1-0.3-0.2-0.4-0.4c-0.1-0.2-0.2-0.4-0.2-0.6s0.1-0.4,0.2-0.6c0.1-0.2,0.3-0.4,0.5-0.5l0,0
		c-0.2-0.1-0.4-0.3-0.5-0.6c-0.1-0.3-0.2-0.6-0.2-0.9s0.1-0.6,0.2-0.9c0.1-0.3,0.3-0.5,0.5-0.7s0.5-0.3,0.8-0.4s0.6-0.1,0.9-0.1
		c0.3,0,0.6,0,0.9,0.1h2.4v1h-1.4c0.1,0.1,0.2,0.3,0.3,0.4c0.1,0.2,0.1,0.3,0.1,0.5c0,0.3-0.1,0.6-0.2,0.9c-0.1,0.2-0.3,0.5-0.5,0.6
		c-0.2,0.2-0.5,0.3-0.8,0.4s-0.6,0.1-0.9,0.1c-0.3,0-0.6-0.1-0.9-0.2c-0.2,0.1-0.4,0.3-0.4,0.6c0,0.4,0.4,0.5,1.1,0.5h1.2
		c0.8,0,1.3,0.1,1.7,0.3c0.4,0.2,0.6,0.6,0.6,1.1c0,0.3-0.1,0.6-0.2,0.8c-0.2,0.3-0.4,0.5-0.7,0.7s-0.6,0.3-1.1,0.4
		C217.1,106.5,216.7,106.5,216.1,106.5z M216.2,101.2c0.3,0,0.6-0.1,0.8-0.3c0.2-0.2,0.3-0.5,0.3-0.9s-0.1-0.7-0.3-0.9
		c-0.2-0.2-0.5-0.3-0.8-0.3s-0.6,0.1-0.8,0.3c-0.2,0.2-0.3,0.5-0.3,0.9s0.1,0.7,0.3,0.9C215.6,101.1,215.9,101.2,216.2,101.2z
		 M216.3,105.6c0.3,0,0.6,0,0.8-0.1s0.4-0.1,0.6-0.2c0.2-0.1,0.3-0.2,0.4-0.3c0.1-0.1,0.1-0.2,0.1-0.3c0-0.2-0.1-0.4-0.3-0.5
		s-0.5-0.1-0.9-0.1h-0.9c-0.4,0-0.7,0-0.9-0.1c-0.2,0.1-0.4,0.2-0.5,0.4c-0.1,0.1-0.1,0.3-0.1,0.4c0,0.3,0.1,0.5,0.4,0.6
		S215.7,105.6,216.3,105.6z M223.9,104.1c-0.4,0-0.9-0.1-1.3-0.2c-0.4-0.1-0.7-0.3-1-0.6c-0.3-0.3-0.5-0.6-0.7-1s-0.3-0.8-0.2-1.3
		c0-0.5,0.1-0.9,0.2-1.3c0.2-0.4,0.4-0.7,0.7-1s0.6-0.5,1-0.6s0.7-0.2,1.1-0.2c0.4,0,0.8,0.1,1.2,0.2c0.3,0.1,0.6,0.3,0.9,0.6
		c0.2,0.2,0.4,0.5,0.5,0.9c0.1,0.3,0.2,0.7,0.2,1.1c0,0.1,0,0.3,0,0.4s0,0.2,0,0.3H222c0.1,0.6,0.3,1,0.7,1.2
		c0.4,0.3,0.8,0.4,1.4,0.4c0.3,0,0.6,0,0.9-0.1c0.3-0.1,0.5-0.2,0.8-0.4l0.5,0.9c-0.3,0.2-0.7,0.4-1.1,0.5
		C224.7,104,224.3,104.1,223.9,104.1z M223.7,99c-0.4,0-0.8,0.1-1.1,0.4c-0.3,0.2-0.5,0.6-0.6,1.1h3.1c-0.1-0.5-0.2-0.8-0.5-1.1
		C224.5,99.1,224.1,99,223.7,99z M228.7,103.9V98h1.1l0.1,1.3l0,0c0.3-0.5,0.7-0.8,1.1-1.1c0.4-0.2,0.9-0.4,1.4-0.4
		c0.2,0,0.4,0,0.6,0.1c0.2,0,0.4,0.1,0.5,0.2l-0.3,1.2c-0.2-0.1-0.4-0.1-0.5-0.1s-0.3,0-0.6,0c-0.4,0-0.8,0.1-1.2,0.4
		c-0.4,0.2-0.7,0.6-1,1.2v3.2L228.7,103.9L228.7,103.9z"/>
	<path d="M76.9,132.9v-7.8h2.4c0.4,0,0.8,0,1.1,0.1c0.3,0.1,0.6,0.2,0.9,0.3c0.2,0.1,0.4,0.3,0.6,0.6c0.1,0.2,0.2,0.6,0.2,0.9
		c0,0.4-0.1,0.7-0.3,1c-0.2,0.3-0.6,0.5-1,0.7v0.1c0.6,0.1,1,0.3,1.3,0.6s0.5,0.7,0.5,1.3c0,0.4-0.1,0.7-0.2,1s-0.4,0.5-0.6,0.7
		c-0.3,0.2-0.6,0.3-1,0.4s-0.8,0.1-1.2,0.1L76.9,132.9L76.9,132.9z M78.3,128.3h0.9c0.6,0,0.9-0.1,1.2-0.3c0.2-0.2,0.4-0.5,0.4-0.8
		c0-0.4-0.1-0.6-0.4-0.8c-0.2-0.2-0.6-0.2-1.1-0.2h-1V128.3z M78.3,131.8h1.1c0.6,0,1-0.1,1.3-0.3s0.5-0.5,0.5-1
		c0-0.4-0.1-0.7-0.4-0.9s-0.7-0.3-1.3-0.3h-1.1L78.3,131.8L78.3,131.8z M85.9,133.1c-0.7,0-1.2-0.2-1.5-0.6c-0.3-0.4-0.5-1-0.5-1.8
		V127h1.4v3.5c0,0.5,0.1,0.8,0.2,1c0.2,0.2,0.5,0.3,0.9,0.3c0.3,0,0.5-0.1,0.8-0.2s0.5-0.4,0.7-0.7v-4h1.4v5.9h-1.1L88,132l0,0
		c-0.3,0.3-0.6,0.6-0.9,0.8C86.7,133,86.3,133.1,85.9,133.1z M93.9,133.1c-0.6,0-1.1-0.1-1.6-0.3s-0.9-0.4-1.3-0.6l0.6-0.9
		c0.4,0.2,0.7,0.4,1.1,0.5s0.8,0.2,1.3,0.2c0.4,0,0.7-0.1,0.9-0.2c0.2-0.1,0.3-0.3,0.3-0.5c0-0.1,0-0.2-0.1-0.2
		c0-0.1-0.1-0.2-0.2-0.2c-0.1-0.1-0.3-0.1-0.5-0.2c-0.2-0.1-0.5-0.1-0.8-0.2c-0.8-0.2-1.4-0.4-1.7-0.7c-0.4-0.3-0.5-0.7-0.5-1.1
		c0-0.5,0.2-0.9,0.7-1.3c0.4-0.3,1.1-0.5,1.9-0.5c0.5,0,0.9,0.1,1.4,0.2c0.4,0.2,0.8,0.3,1.1,0.5l-0.6,0.8c-0.3-0.2-0.6-0.3-0.9-0.4
		c-0.3-0.1-0.7-0.2-1-0.2c-0.4,0-0.7,0.1-0.8,0.2c-0.2,0.1-0.2,0.3-0.2,0.5s0.1,0.4,0.4,0.5c0.2,0.1,0.6,0.2,1.2,0.3
		c0.5,0.1,0.9,0.2,1.2,0.3c0.3,0.1,0.5,0.2,0.7,0.4c0.2,0.1,0.3,0.3,0.4,0.5s0.1,0.4,0.1,0.6c0,0.3-0.1,0.5-0.2,0.7
		s-0.3,0.4-0.5,0.6c-0.2,0.2-0.5,0.3-0.9,0.4S94.4,133.1,93.9,133.1z M101.1,133.1c-0.6,0-1.1-0.1-1.6-0.3s-0.9-0.4-1.3-0.6l0.6-0.9
		c0.4,0.2,0.7,0.4,1.1,0.5s0.8,0.2,1.3,0.2c0.4,0,0.7-0.1,0.9-0.2c0.2-0.1,0.3-0.3,0.3-0.5c0-0.1,0-0.2-0.1-0.2
		c0-0.1-0.1-0.2-0.2-0.2c-0.1-0.1-0.3-0.1-0.5-0.2c-0.2-0.1-0.5-0.1-0.8-0.2c-0.8-0.2-1.4-0.4-1.7-0.7c-0.4-0.3-0.5-0.7-0.5-1.1
		c0-0.5,0.2-0.9,0.7-1.3c0.4-0.3,1.1-0.5,1.9-0.5c0.5,0,0.9,0.1,1.4,0.2c0.4,0.2,0.8,0.3,1.1,0.5l-0.6,0.8c-0.3-0.2-0.6-0.3-0.9-0.4
		c-0.3-0.1-0.7-0.2-1-0.2c-0.4,0-0.7,0.1-0.8,0.2c-0.2,0.1-0.2,0.3-0.2,0.5s0.1,0.4,0.4,0.5c0.2,0.1,0.6,0.2,1.2,0.3
		c0.5,0.1,0.9,0.2,1.2,0.3c0.3,0.1,0.5,0.2,0.7,0.4c0.2,0.1,0.3,0.3,0.4,0.5s0.1,0.4,0.1,0.6c0,0.3-0.1,0.5-0.2,0.7
		s-0.3,0.4-0.5,0.6c-0.2,0.2-0.5,0.3-0.9,0.4C102,133,101.6,133.1,101.1,133.1z M108.3,132.9v-4.8h-2.5V127h3.9v5.9H108.3z
		 M109.3,126c-0.3,0-0.5-0.1-0.7-0.2c-0.2-0.2-0.3-0.4-0.3-0.7c0-0.3,0.1-0.5,0.3-0.7c0.2-0.2,0.4-0.3,0.7-0.3
		c0.3,0,0.5,0.1,0.7,0.3c0.2,0.2,0.3,0.4,0.3,0.7c0,0.3-0.1,0.5-0.3,0.7C109.8,125.9,109.6,126,109.3,126z M112.9,132.9V127h1.1
		l0.1,0.9l0,0c0.3-0.3,0.6-0.5,0.9-0.7s0.7-0.3,1.2-0.3c0.7,0,1.2,0.2,1.5,0.6s0.5,1,0.5,1.8v3.6h-1.4v-3.5c0-0.5-0.1-0.8-0.2-1
		c-0.2-0.2-0.4-0.3-0.8-0.3c-0.3,0-0.6,0.1-0.8,0.2c-0.2,0.1-0.5,0.3-0.7,0.6v4L112.9,132.9L112.9,132.9z M123.1,133.1
		c-0.4,0-0.9-0.1-1.3-0.2c-0.4-0.1-0.7-0.3-1-0.6s-0.5-0.6-0.7-1s-0.2-0.8-0.2-1.3s0.1-0.9,0.2-1.3c0.2-0.4,0.4-0.7,0.7-1
		c0.3-0.3,0.6-0.5,1-0.6s0.7-0.2,1.1-0.2s0.8,0.1,1.2,0.2c0.3,0.1,0.6,0.3,0.9,0.6c0.2,0.2,0.4,0.5,0.5,0.9c0.1,0.3,0.2,0.7,0.2,1.1
		c0,0.1,0,0.3,0,0.4c0,0.1,0,0.2,0,0.3h-4.3c0.1,0.6,0.3,1,0.7,1.2c0.4,0.3,0.8,0.4,1.4,0.4c0.3,0,0.6,0,0.9-0.1s0.5-0.2,0.8-0.4
		l0.5,0.9c-0.3,0.2-0.7,0.4-1.1,0.5C123.9,133,123.5,133.1,123.1,133.1z M122.9,128c-0.4,0-0.8,0.1-1.1,0.4
		c-0.3,0.2-0.5,0.6-0.6,1.1h3.1c-0.1-0.5-0.2-0.8-0.5-1.1C123.7,128.1,123.3,128,122.9,128z M129.9,133.1c-0.6,0-1.1-0.1-1.6-0.3
		s-0.9-0.4-1.3-0.6l0.6-0.9c0.4,0.2,0.7,0.4,1.1,0.5s0.8,0.2,1.3,0.2c0.4,0,0.7-0.1,0.9-0.2s0.3-0.3,0.3-0.5c0-0.1,0-0.2-0.1-0.2
		c0-0.1-0.1-0.2-0.2-0.2c-0.1-0.1-0.3-0.1-0.5-0.2s-0.5-0.1-0.8-0.2c-0.8-0.2-1.4-0.4-1.7-0.7c-0.4-0.3-0.5-0.7-0.5-1.1
		c0-0.5,0.2-0.9,0.7-1.3c0.4-0.3,1.1-0.5,1.9-0.5c0.5,0,0.9,0.1,1.4,0.2s0.8,0.3,1.1,0.5l-0.6,0.8c-0.3-0.2-0.6-0.3-0.9-0.4
		c-0.3-0.1-0.7-0.2-1-0.2c-0.4,0-0.7,0.1-0.8,0.2c-0.2,0.1-0.2,0.3-0.2,0.5s0.1,0.4,0.4,0.5s0.6,0.2,1.2,0.3
		c0.5,0.1,0.9,0.2,1.2,0.3s0.5,0.2,0.7,0.4c0.2,0.1,0.3,0.3,0.4,0.5c0.1,0.2,0.1,0.4,0.1,0.6c0,0.3-0.1,0.5-0.2,0.7
		c-0.1,0.2-0.3,0.4-0.5,0.6s-0.5,0.3-0.9,0.4S130.4,133.1,129.9,133.1z M137.1,133.1c-0.6,0-1.1-0.1-1.6-0.3s-0.9-0.4-1.3-0.6
		l0.6-0.9c0.4,0.2,0.7,0.4,1.1,0.5c0.4,0.1,0.8,0.2,1.3,0.2c0.4,0,0.7-0.1,0.9-0.2s0.3-0.3,0.3-0.5c0-0.1,0-0.2-0.1-0.2
		c0-0.1-0.1-0.2-0.2-0.2c-0.1-0.1-0.3-0.1-0.5-0.2s-0.5-0.1-0.8-0.2c-0.8-0.2-1.4-0.4-1.7-0.7c-0.4-0.3-0.5-0.7-0.5-1.1
		c0-0.5,0.2-0.9,0.7-1.3c0.4-0.3,1.1-0.5,1.9-0.5c0.5,0,0.9,0.1,1.4,0.2s0.8,0.3,1.1,0.5l-0.6,0.8c-0.3-0.2-0.6-0.3-0.9-0.4
		c-0.3-0.1-0.7-0.2-1-0.2c-0.4,0-0.7,0.1-0.8,0.2c-0.2,0.1-0.2,0.3-0.2,0.5s0.1,0.4,0.4,0.5s0.6,0.2,1.2,0.3
		c0.5,0.1,0.9,0.2,1.2,0.3s0.5,0.2,0.7,0.4c0.2,0.1,0.3,0.3,0.4,0.5c0.1,0.2,0.1,0.4,0.1,0.6c0,0.3-0.1,0.5-0.2,0.7
		c-0.1,0.2-0.3,0.4-0.5,0.6s-0.5,0.3-0.9,0.4S137.6,133.1,137.1,133.1z M143.3,135.5l-0.4-0.8c1-0.4,1.5-1,1.5-1.8c0,0-0.1,0-0.2,0
		c-0.3,0-0.6-0.1-0.8-0.3s-0.3-0.5-0.3-0.8s0.1-0.6,0.3-0.8s0.5-0.3,0.8-0.3c0.4,0,0.8,0.2,1,0.5s0.3,0.8,0.3,1.3
		c0,0.7-0.2,1.4-0.6,1.9C144.6,134.9,144.1,135.3,143.3,135.5z M148.9,132.9v-7.8h2.4c0.4,0,0.8,0,1.1,0.1s0.6,0.2,0.9,0.3
		c0.2,0.1,0.4,0.3,0.6,0.6c0.1,0.2,0.2,0.6,0.2,0.9c0,0.4-0.1,0.7-0.3,1c-0.2,0.3-0.6,0.5-1,0.7v0.1c0.6,0.1,1,0.3,1.3,0.6
		s0.5,0.7,0.5,1.3c0,0.4-0.1,0.7-0.2,1c-0.1,0.3-0.4,0.5-0.6,0.7c-0.3,0.2-0.6,0.3-1,0.4c-0.4,0.1-0.8,0.1-1.2,0.1L148.9,132.9
		L148.9,132.9z M150.3,128.3h0.9c0.6,0,0.9-0.1,1.2-0.3c0.2-0.2,0.4-0.5,0.4-0.8c0-0.4-0.1-0.6-0.4-0.8c-0.2-0.2-0.6-0.2-1.1-0.2h-1
		L150.3,128.3L150.3,128.3z M150.3,131.8h1.1c0.6,0,1-0.1,1.3-0.3s0.5-0.5,0.5-1c0-0.4-0.1-0.7-0.4-0.9c-0.3-0.2-0.7-0.3-1.3-0.3
		h-1.1v2.5H150.3z M157.9,133.1c-0.3,0-0.5,0-0.8-0.1c-0.2-0.1-0.4-0.2-0.6-0.3c-0.2-0.2-0.3-0.3-0.4-0.5c-0.1-0.2-0.1-0.5-0.1-0.7
		c0-0.3,0.1-0.6,0.2-0.9c0.2-0.2,0.4-0.5,0.7-0.6c0.3-0.2,0.8-0.3,1.3-0.4c0.5-0.1,1.1-0.2,1.9-0.2c0-0.3-0.1-0.6-0.4-0.8
		c-0.2-0.2-0.6-0.3-1-0.3c-0.3,0-0.7,0.1-1,0.2c-0.3,0.1-0.6,0.3-1,0.4l-0.5-0.9c0.4-0.2,0.8-0.4,1.2-0.6c0.5-0.2,1-0.2,1.5-0.2
		c0.8,0,1.4,0.2,1.9,0.7c0.4,0.4,0.7,1.1,0.7,1.9v3.5h-1.1l-0.1-0.7l0,0c-0.3,0.2-0.7,0.4-1,0.6C158.7,133,158.3,133.1,157.9,133.1z
		 M158.3,132c0.3,0,0.6-0.1,0.9-0.2c0.3-0.1,0.6-0.3,0.8-0.5V130c-0.5,0-1,0.1-1.3,0.2c-0.3,0.1-0.6,0.1-0.8,0.2
		c-0.2,0.1-0.4,0.2-0.5,0.4c-0.1,0.1-0.1,0.3-0.1,0.4c0,0.3,0.1,0.5,0.3,0.6C157.8,131.9,158,132,158.3,132z M163.9,132.9V127h1.1
		l0.1,1.3l0,0c0.3-0.5,0.7-0.8,1.1-1.1c0.4-0.2,0.9-0.4,1.4-0.4c0.2,0,0.4,0,0.6,0.1c0.2,0,0.4,0.1,0.5,0.2l-0.3,1.2
		c-0.2-0.1-0.4-0.1-0.5-0.1s-0.3,0-0.6,0c-0.4,0-0.8,0.1-1.2,0.4c-0.4,0.2-0.7,0.6-1,1.2v3.2L163.9,132.9L163.9,132.9z M173.6,133.1
		c-0.5,0-0.9-0.1-1.3-0.2c-0.4-0.1-0.7-0.3-1-0.6s-0.5-0.6-0.7-1s-0.2-0.8-0.2-1.3s0.1-0.9,0.3-1.3c0.2-0.4,0.4-0.7,0.7-1
		s0.7-0.5,1.1-0.6c0.4-0.1,0.8-0.2,1.3-0.2s0.9,0.1,1.3,0.2c0.4,0.2,0.7,0.4,0.9,0.6l-0.7,0.9c-0.2-0.2-0.5-0.3-0.7-0.4
		c-0.2-0.1-0.5-0.1-0.8-0.1c-0.6,0-1.1,0.2-1.5,0.5c-0.4,0.4-0.5,0.8-0.5,1.4c0,0.3,0,0.6,0.1,0.8s0.2,0.4,0.4,0.6
		c0.2,0.2,0.4,0.3,0.6,0.4c0.2,0.1,0.5,0.1,0.8,0.1s0.6-0.1,0.9-0.2c0.3-0.1,0.5-0.3,0.8-0.5l0.6,0.9c-0.3,0.3-0.7,0.5-1.1,0.7
		C174.5,133,174.1,133.1,173.6,133.1z M177.7,132.9v-8.5h1.4v2.2l-0.1,1.2l0,0c0.3-0.3,0.6-0.5,0.9-0.7c0.3-0.2,0.7-0.3,1.2-0.3
		c0.7,0,1.2,0.2,1.5,0.6s0.5,1,0.5,1.8v3.6h-1.4v-3.5c0-0.5-0.1-0.8-0.2-1c-0.2-0.2-0.4-0.3-0.8-0.3c-0.3,0-0.6,0.1-0.8,0.2
		c-0.2,0.1-0.5,0.3-0.7,0.6v4h-1.5V132.9z M187.9,133.1c-0.4,0-0.9-0.1-1.3-0.2c-0.4-0.1-0.7-0.3-1-0.6s-0.5-0.6-0.7-1
		s-0.2-0.8-0.2-1.3s0.1-0.9,0.2-1.3c0.2-0.4,0.4-0.7,0.7-1s0.6-0.5,1-0.6s0.7-0.2,1.1-0.2c0.4,0,0.8,0.1,1.2,0.2
		c0.3,0.1,0.6,0.3,0.9,0.6s0.4,0.5,0.5,0.9c0.1,0.3,0.2,0.7,0.2,1.1c0,0.1,0,0.3,0,0.4s0,0.2,0,0.3H186c0.1,0.6,0.3,1,0.7,1.2
		c0.4,0.3,0.8,0.4,1.4,0.4c0.3,0,0.6,0,0.9-0.1c0.3-0.1,0.5-0.2,0.8-0.4l0.5,0.9c-0.3,0.2-0.7,0.4-1.1,0.5S188.3,133.1,187.9,133.1z
		 M187.7,128c-0.4,0-0.8,0.1-1.1,0.4c-0.3,0.2-0.5,0.6-0.6,1.1h3.1c-0.1-0.5-0.2-0.8-0.5-1.1C188.5,128.1,188.1,128,187.7,128z
		 M195.9,133.1c-0.7,0-1.2-0.2-1.6-0.6c-0.4-0.4-0.5-1-0.5-1.7v-5.2h-2v-1.1h3.3v6.4c0,0.4,0.1,0.7,0.3,0.9s0.5,0.2,0.8,0.2
		s0.7-0.1,1-0.2l0.3,1c-0.3,0.1-0.6,0.2-0.8,0.2S196.3,133.1,195.9,133.1z M201.9,133.1c-0.4,0-0.7-0.1-1.1-0.2
		c-0.4-0.1-0.7-0.3-1-0.6s-0.5-0.6-0.7-1s-0.2-0.8-0.2-1.3s0.1-0.9,0.2-1.3c0.2-0.4,0.4-0.7,0.7-1s0.6-0.5,1-0.6s0.7-0.2,1.1-0.2
		c0.4,0,0.8,0.1,1.1,0.2c0.4,0.1,0.7,0.3,1,0.6c0.3,0.3,0.5,0.6,0.7,1s0.2,0.8,0.2,1.3s-0.1,0.9-0.2,1.3c-0.2,0.4-0.4,0.7-0.7,1
		s-0.6,0.5-1,0.6C202.6,133,202.3,133.1,201.9,133.1z M201.9,131.9c0.5,0,0.9-0.2,1.1-0.5c0.3-0.4,0.4-0.8,0.4-1.4
		c0-0.6-0.1-1.1-0.4-1.4c-0.3-0.4-0.6-0.5-1.1-0.5s-0.9,0.2-1.1,0.5c-0.3,0.4-0.4,0.8-0.4,1.4c0,0.6,0.1,1.1,0.4,1.4
		C201,131.8,201.4,131.9,201.9,131.9z M207.1,132.9V127h1.1l0.1,1.3l0,0c0.3-0.5,0.7-0.8,1.1-1.1c0.4-0.2,0.9-0.4,1.4-0.4
		c0.2,0,0.4,0,0.6,0.1c0.2,0,0.4,0.1,0.5,0.2l-0.3,1.2c-0.2-0.1-0.4-0.1-0.5-0.1s-0.3,0-0.6,0c-0.4,0-0.8,0.1-1.2,0.4
		c-0.4,0.2-0.7,0.6-1,1.2v3.2L207.1,132.9L207.1,132.9z"/>
	<path d="M76.7,161.9v-7.8h1.5l0.9,3.1l0.3,1.2l0,0l0.3-1.2l1-3.1h1.5v7.8H81v-3.2c0-0.2,0-0.5,0-0.7c0-0.3,0-0.6,0-0.9
		c0-0.3,0-0.6,0.1-0.9c0-0.3,0.1-0.5,0.1-0.7l0,0l-0.5,1.8l-0.9,2.5H79l-0.9-2.5l-0.5-1.8l0,0c0,0.2,0,0.4,0.1,0.7
		c0,0.3,0.1,0.6,0.1,0.9c0,0.3,0,0.6,0,0.9c0,0.3,0,0.5,0,0.7v3.2H76.7z M85.9,162.1c-0.3,0-0.5,0-0.8-0.1c-0.2-0.1-0.4-0.2-0.6-0.3
		c-0.2-0.2-0.3-0.3-0.4-0.5s-0.1-0.5-0.1-0.7c0-0.3,0.1-0.6,0.2-0.9c0.2-0.2,0.4-0.5,0.7-0.6c0.3-0.2,0.8-0.3,1.3-0.4
		c0.5-0.1,1.1-0.2,1.9-0.2c0-0.3-0.1-0.6-0.4-0.8s-0.6-0.3-1-0.3c-0.3,0-0.7,0.1-1,0.2c-0.3,0.1-0.6,0.3-1,0.4l-0.5-0.9
		c0.4-0.2,0.8-0.4,1.2-0.6c0.5-0.2,1-0.2,1.5-0.2c0.8,0,1.4,0.2,1.9,0.7c0.4,0.4,0.7,1.1,0.7,1.9v3.5h-1.1l-0.1-0.7l0,0
		c-0.3,0.2-0.7,0.4-1,0.6C86.7,162,86.3,162.1,85.9,162.1z M86.3,161c0.3,0,0.6-0.1,0.9-0.2c0.3-0.1,0.6-0.3,0.8-0.5V159
		c-0.5,0-1,0.1-1.3,0.2c-0.3,0.1-0.6,0.1-0.8,0.2c-0.2,0.1-0.4,0.2-0.5,0.4c-0.1,0.1-0.1,0.3-0.1,0.4c0,0.3,0.1,0.5,0.3,0.6
		C85.8,160.9,86,161,86.3,161z M91.9,161.9V156H93l0.1,1.3l0,0c0.3-0.5,0.7-0.8,1.1-1.1c0.4-0.2,0.9-0.4,1.4-0.4
		c0.2,0,0.4,0,0.6,0.1c0.2,0,0.4,0.1,0.5,0.2l-0.3,1.2c-0.2-0.1-0.4-0.1-0.5-0.1s-0.3,0-0.6,0c-0.4,0-0.8,0.1-1.2,0.4
		c-0.4,0.2-0.7,0.6-1,1.2v3.2L91.9,161.9L91.9,161.9z M99.1,161.9V156h1.1l0.1,1.3l0,0c0.3-0.5,0.7-0.8,1.1-1.1
		c0.4-0.2,0.9-0.4,1.4-0.4c0.2,0,0.4,0,0.6,0.1c0.2,0,0.4,0.1,0.5,0.2l-0.3,1.2c-0.2-0.1-0.4-0.1-0.5-0.1s-0.3,0-0.6,0
		c-0.4,0-0.8,0.1-1.2,0.4c-0.4,0.2-0.7,0.6-1,1.2v3.2L99.1,161.9L99.1,161.9z M108.3,161.9v-4.8h-2.5V156h3.9v5.9H108.3z M109.3,155
		c-0.3,0-0.5-0.1-0.7-0.2c-0.2-0.2-0.3-0.4-0.3-0.7s0.1-0.5,0.3-0.7c0.2-0.2,0.4-0.3,0.7-0.3c0.3,0,0.5,0.1,0.7,0.3s0.3,0.4,0.3,0.7
		s-0.1,0.5-0.3,0.7C109.8,154.9,109.6,155,109.3,155z M115.9,162.1c-0.4,0-0.9-0.1-1.3-0.2c-0.4-0.1-0.7-0.3-1-0.6s-0.5-0.6-0.7-1
		s-0.2-0.8-0.2-1.3s0.1-0.9,0.2-1.3c0.2-0.4,0.4-0.7,0.7-1c0.3-0.3,0.6-0.5,1-0.6s0.7-0.2,1.1-0.2s0.8,0.1,1.2,0.2
		c0.3,0.1,0.6,0.3,0.9,0.6c0.2,0.2,0.4,0.5,0.5,0.9c0.1,0.3,0.2,0.7,0.2,1.1c0,0.1,0,0.3,0,0.4c0,0.1,0,0.2,0,0.3H114
		c0.1,0.6,0.3,1,0.7,1.2c0.4,0.3,0.8,0.4,1.4,0.4c0.3,0,0.6,0,0.9-0.1s0.5-0.2,0.8-0.4l0.5,0.9c-0.3,0.2-0.7,0.4-1.1,0.5
		C116.7,162,116.3,162.1,115.9,162.1z M115.7,157c-0.4,0-0.8,0.1-1.1,0.4c-0.3,0.2-0.5,0.6-0.6,1.1h3.1c-0.1-0.5-0.2-0.8-0.5-1.1
		C116.5,157.1,116.1,157,115.7,157z M122.3,162.1c-0.4,0-0.7-0.1-1-0.2c-0.3-0.1-0.6-0.3-0.8-0.6c-0.2-0.3-0.4-0.6-0.5-1
		s-0.2-0.8-0.2-1.3s0.1-0.9,0.2-1.3c0.1-0.4,0.3-0.7,0.6-1c0.2-0.3,0.5-0.5,0.8-0.6s0.6-0.2,1-0.2c0.3,0,0.6,0.1,0.9,0.2
		c0.3,0.1,0.5,0.3,0.7,0.5l0,0l-0.1-1v-2.1h1.4v8.5h-1.1l-0.1-0.7l0,0c-0.2,0.2-0.5,0.4-0.8,0.6C122.9,162,122.6,162.1,122.3,162.1z
		 M122.6,160.9c0.5,0,0.9-0.2,1.3-0.7v-2.7c-0.2-0.2-0.4-0.3-0.6-0.4c-0.2-0.1-0.4-0.1-0.6-0.1s-0.4,0-0.6,0.1s-0.3,0.2-0.5,0.4
		c-0.1,0.2-0.2,0.4-0.3,0.6c-0.1,0.2-0.1,0.5-0.1,0.8c0,0.6,0.1,1.1,0.4,1.5C121.8,160.8,122.1,160.9,122.6,160.9z M128.9,164.5
		l-0.4-0.8c1-0.4,1.5-1,1.5-1.8c0,0-0.1,0-0.2,0c-0.3,0-0.6-0.1-0.8-0.3s-0.3-0.5-0.3-0.8s0.1-0.6,0.3-0.8s0.5-0.3,0.8-0.3
		c0.4,0,0.8,0.2,1,0.5s0.3,0.8,0.3,1.3c0,0.7-0.2,1.4-0.6,1.9C130.2,163.9,129.7,164.3,128.9,164.5z M141.8,161.9v-1.1h2.1v-5h-1.7
		v-0.9c0.2,0,0.5-0.1,0.6-0.1c0.2,0,0.4-0.1,0.5-0.1c0.2-0.1,0.3-0.1,0.5-0.2c0.1-0.1,0.3-0.1,0.4-0.2h1v6.5h1.9v1.1H141.8z
		 M156.2,161.9v-8.5h1.4v5.3l0,0l2.7-2.7h1.5l-2.3,2.3l2.5,3.5h-1.5l-1.9-2.7l-1.1,1.2v1.5L156.2,161.9L156.2,161.9z M165.9,161.9
		v-4.8h-2.5V156h3.9v5.9H165.9z M166.9,155c-0.3,0-0.5-0.1-0.7-0.2c-0.2-0.2-0.3-0.4-0.3-0.7s0.1-0.5,0.3-0.7s0.4-0.3,0.7-0.3
		s0.5,0.1,0.7,0.3s0.3,0.4,0.3,0.7s-0.1,0.5-0.3,0.7C167.4,154.9,167.2,155,166.9,155z M172.7,162.1c-0.4,0-0.7-0.1-1-0.2
		c-0.3-0.1-0.6-0.3-0.8-0.6s-0.4-0.6-0.5-1s-0.2-0.8-0.2-1.3s0.1-0.9,0.2-1.3c0.1-0.4,0.3-0.7,0.6-1c0.2-0.3,0.5-0.5,0.8-0.6
		s0.6-0.2,1-0.2c0.3,0,0.6,0.1,0.9,0.2c0.3,0.1,0.5,0.3,0.7,0.5l0,0l-0.1-1v-2.1h1.4v8.5h-1.1l-0.1-0.7l0,0
		c-0.2,0.2-0.5,0.4-0.8,0.6C173.3,162,173,162.1,172.7,162.1z M173,160.9c0.5,0,0.9-0.2,1.3-0.7v-2.7c-0.2-0.2-0.4-0.3-0.6-0.4
		c-0.2-0.1-0.4-0.1-0.6-0.1c-0.2,0-0.4,0-0.6,0.1c-0.2,0.1-0.3,0.2-0.5,0.4c-0.1,0.2-0.2,0.4-0.3,0.6c-0.1,0.2-0.1,0.5-0.1,0.8
		c0,0.6,0.1,1.1,0.4,1.5C172.2,160.8,172.5,160.9,173,160.9z"/>
	<path class="st3" d="M53.1,127.7C53.1,127.7,53.1,127.7,53.1,127.7c2-1.1,4-2.2,5.9-3.2c0,0,0.1,0,0.1,0c1.9,1.1,3.9,2.1,5.8,3.2
		c0.1,0,0.1,0.1,0.1,0.1c0,1.4,0,2.8,0,4.2c0,0.1,0,0.1-0.1,0.1c-0.3,0-0.6,0-0.9,0c-0.1,0-0.1,0-0.1-0.1c0-1.2,0-2.4,0-3.6
		c0,0,0-0.1,0-0.1c0,0-0.1,0-0.1,0c-1.6,0.9-3.2,1.7-4.8,2.6c0,0-0.1,0-0.1,0c-1.9-1.1-3.9-2.1-5.8-3.2
		C53.1,127.7,53.1,127.7,53.1,127.7z"/>
	<path class="st3" d="M55.2,130c0.2,0.1,0.3,0.2,0.5,0.3c1.1,0.6,2.2,1.2,3.2,1.8c0.1,0,0.1,0,0.1,0c1.2-0.7,2.4-1.3,3.7-2
		c0,0,0,0,0.1,0c0,0,0,0.1,0,0.1c0,0.7,0,1.3,0,2c0,0.1,0,0.1-0.1,0.1c-1.2,0.7-2.4,1.3-3.6,2c-0.1,0-0.1,0-0.2,0
		c-1.2-0.7-2.4-1.3-3.6-2c-0.1,0-0.1-0.1-0.1-0.2C55.2,131.4,55.2,130.7,55.2,130C55.2,130,55.2,130,55.2,130z"/>
	<path class="st3" d="M62.8,75.5c-0.9,0-1.8,0-2.7,0c0,0,0-0.1,0-0.1c0-1,0-2,0-3.1c0-0.1,0-0.1-0.1-0.1c-0.7,0-1.3,0-2,0
		c-0.1,0-0.1,0-0.1,0.1c0,1,0,2,0,3.1c0,0,0,0.1,0,0.1c-0.9,0-1.8,0-2.7,0c0,0,0-0.1,0-0.1c0-1.4,0-2.8,0-4.2c0-0.1,0-0.1-0.1-0.1
		c-0.5,0-0.9,0-1.4,0c0,0-0.1,0-0.1,0c0,0,0,0,0,0c1.8-1.6,3.6-3.2,5.4-4.9c1.8,1.6,3.6,3.2,5.4,4.9c0,0,0,0,0,0c0,0-0.1,0-0.1,0
		c-0.5,0-1,0-1.4,0c-0.1,0-0.1,0-0.1,0.1c0,1.4,0,2.8,0,4.2C62.8,75.5,62.8,75.5,62.8,75.5z"/>
	<path class="st3" d="M59,47.5c-3,0-5.4-2.4-5.4-5.4c0-3,2.4-5.4,5.4-5.4c3,0,5.4,2.5,5.4,5.4C64.5,45.1,62,47.5,59,47.5z M58.9,46
		c0.6,0,1.1-0.1,1.5-0.3c0.8-0.3,1.4-0.8,1.8-1.5c0,0,0,0,0-0.1c0-0.2-0.1-0.3-0.2-0.5c-0.2-0.3-0.5-0.5-0.9-0.6
		c-0.5-0.2-0.9-0.4-1.4-0.4c-0.3,0-0.6-0.1-0.9-0.1c-0.7,0-1.3,0.2-2,0.4c-0.3,0.1-0.6,0.3-0.9,0.5c-0.2,0.2-0.3,0.4-0.4,0.6
		c0,0.1,0,0.1,0,0.2c0.1,0.1,0.2,0.3,0.3,0.4C56.9,45.6,57.9,46,58.9,46z M60.7,39.9c0-0.9-0.7-1.6-1.6-1.6c-0.9,0-1.6,0.7-1.6,1.6
		c0,0.9,0.7,1.6,1.6,1.6C59.9,41.5,60.7,40.8,60.7,39.9z"/>
	<path class="st3" d="M58.8,105c-1.4,0-2.8,0-4.2,0c-0.3,0-0.5-0.1-0.7-0.2c-0.3-0.2-0.4-0.5-0.4-0.9c0-1.3,0-2.5,0-3.8
		c0-0.7,0-1.3,0-2c0-0.4,0.2-0.8,0.6-1c0.1-0.1,0.3-0.1,0.5-0.1c0.7,0,1.3,0,2,0c0.1,0,0.1,0,0.1-0.1c0-0.3,0-0.7,0-1
		c0-0.5,0.4-0.9,0.9-1c0.1,0,0.1,0,0.2,0c0.7,0,1.5,0,2.2,0c0.5,0,1,0.5,1,1c0,0.3,0,0.7,0,1c0,0.1,0,0.1,0.1,0.1c0.7,0,1.3,0,2,0
		c0.3,0,0.5,0.1,0.7,0.3c0.2,0.2,0.3,0.4,0.3,0.7c0,0.9,0,1.8,0,2.7c0,1,0,2.1,0,3.1c0,0.4-0.2,0.7-0.5,0.9
		c-0.2,0.1-0.4,0.1-0.6,0.1C61.6,105,60.2,105,58.8,105z M57.8,96C57.8,96.1,57.8,96.1,57.8,96c0,0.4,0,0.7,0,1c0,0.1,0,0.1,0.1,0.1
		c0.7,0,1.3,0,2,0c0.1,0,0.1,0,0.1-0.1c0-0.3,0-0.6,0-0.9c0-0.1,0-0.1-0.1-0.1C59.1,96,58.5,96,57.8,96C57.8,96,57.8,96,57.8,96z"/>
	<path class="st3" d="M59,154.7C59.1,154.6,59.1,154.6,59,154.7c0.5-0.6,1.2-1,1.9-1.1c1-0.2,2,0.1,2.7,0.9c0.5,0.6,0.8,1.3,0.8,2.1
		c0,0.7-0.2,1.3-0.5,1.8c-0.3,0.5-0.6,1-1,1.4c-0.4,0.5-0.9,1-1.4,1.4c-0.8,0.8-1.7,1.5-2.5,2.3c0,0,0,0,0,0
		c-0.1-0.1-0.1-0.1-0.2-0.2c-0.6-0.5-1.1-1-1.7-1.5c-0.7-0.6-1.3-1.2-1.9-1.9c-0.5-0.6-1-1.2-1.3-1.8c-0.2-0.5-0.4-1.1-0.4-1.6
		c0-0.6,0.2-1.2,0.6-1.7c0.5-0.6,1.1-1,1.9-1.1c1-0.1,1.9,0.2,2.6,0.8c0,0,0.1,0.1,0.1,0.1C58.9,154.6,59,154.6,59,154.7z"/>
</g>
</svg>
