<?xml version="1.0" encoding="utf-8"?>
<!-- Generator: Adobe Illustrator 23.0.1, SVG Export Plug-In . SVG Version: 6.00 Build 0)  -->
<svg version="1.1" id="Layer_1" xmlns="http://www.w3.org/2000/svg" xmlns:xlink="http://www.w3.org/1999/xlink" x="0px" y="0px"
	 viewBox="0 0 713 435.6" style="enable-background:new 0 0 713 435.6;" xml:space="preserve">
<style type="text/css">
	.st0{fill-rule:evenodd;clip-rule:evenodd;fill:#5400D5;fill-opacity:0.1488;}
	.st1{fill:#FFFFFF;}
	.st2{fill:none;stroke:#EFEFEF;stroke-linejoin:round;stroke-miterlimit:10;}
	.st3{fill-rule:evenodd;clip-rule:evenodd;fill-opacity:0;}
	.st4{fill:none;stroke:#EFEFEF;stroke-width:2;stroke-linejoin:round;stroke-miterlimit:10;}
	.st5{fill-rule:evenodd;clip-rule:evenodd;fill:#EFEFEF;stroke:#EFEFEF;stroke-width:2;stroke-miterlimit:10;}
	.st6{fill-rule:evenodd;clip-rule:evenodd;fill:#3B0097;}
	.st7{fill:none;stroke:#5400D5;stroke-linejoin:round;stroke-miterlimit:10;}
	.st8{fill:none;}
	.st9{fill-rule:evenodd;clip-rule:evenodd;fill:#5400D5;stroke:#5400D5;stroke-miterlimit:10;}
	.st10{fill:#5400D5;}
	.st11{fill:none;stroke:#FF008A;stroke-linejoin:round;stroke-miterlimit:10;}
	.st12{fill:#EAEAEA;}
	.st13{fill:#3B0097;}
</style>
<g>
	<path class="st0" d="M0,72.7h119.6l5.3,5.3v26.6l0,0H5.3L0,99.3V72.7z"/>
	<path class="st1" d="M52,92.1V86h1.1v2.5h2.1V86h1.1v6.1h-1.1v-2.7h-2.1v2.7H52z M59.7,92.2c-0.3,0-0.6-0.1-0.9-0.2
		c-0.3-0.1-0.5-0.3-0.7-0.5s-0.4-0.5-0.5-0.8s-0.2-0.6-0.2-1s0.1-0.7,0.2-1s0.3-0.6,0.5-0.8s0.5-0.4,0.7-0.5
		c0.3-0.1,0.6-0.2,0.9-0.2s0.6,0.1,0.9,0.2c0.3,0.1,0.5,0.3,0.7,0.5s0.4,0.4,0.5,0.8c0.1,0.3,0.2,0.6,0.2,1s-0.1,0.7-0.2,1
		s-0.3,0.5-0.5,0.8c-0.2,0.2-0.5,0.4-0.7,0.5C60.3,92.2,60,92.2,59.7,92.2z M59.7,91.4c0.4,0,0.7-0.1,0.9-0.4
		c0.2-0.3,0.3-0.7,0.3-1.1c0-0.5-0.1-0.8-0.3-1.1c-0.2-0.3-0.5-0.4-0.9-0.4s-0.7,0.1-0.9,0.4c-0.2,0.3-0.3,0.6-0.3,1.1
		s0.1,0.8,0.3,1.1C59,91.2,59.3,91.4,59.7,91.4z M62.9,92.1v-4.6h0.8l0.1,0.6l0,0c0.1-0.2,0.2-0.4,0.4-0.5c0.2-0.1,0.4-0.2,0.6-0.2
		c0.4,0,0.7,0.3,0.8,0.8c0.1-0.2,0.2-0.4,0.4-0.5s0.4-0.2,0.7-0.2c0.3,0,0.6,0.1,0.8,0.4c0.2,0.2,0.3,0.6,0.3,1.1v3.2h-1V89
		c0-0.4-0.1-0.6-0.4-0.6c-0.1,0-0.2,0.1-0.3,0.2c-0.1,0.1-0.2,0.2-0.3,0.4v3.2h-0.9V89c0-0.2,0-0.3-0.1-0.5
		c-0.1-0.1-0.1-0.2-0.3-0.2c-0.1,0-0.2,0.1-0.3,0.2c-0.1,0.1-0.2,0.2-0.3,0.4v3.2L62.9,92.1L62.9,92.1z M71.2,92.2
		c-0.3,0-0.7-0.1-1-0.2c-0.3-0.1-0.6-0.3-0.8-0.5c-0.2-0.2-0.4-0.5-0.5-0.8c-0.1-0.3-0.2-0.6-0.2-1s0.1-0.7,0.2-1
		c0.1-0.3,0.3-0.5,0.5-0.8c0.2-0.2,0.5-0.4,0.8-0.5s0.6-0.2,0.9-0.2s0.6,0.1,0.9,0.2c0.3,0.1,0.5,0.2,0.7,0.4s0.3,0.4,0.4,0.7
		c0.1,0.3,0.1,0.6,0.1,0.9c0,0.1,0,0.2,0,0.3s0,0.2,0,0.2h-3.4c0.1,0.4,0.2,0.8,0.5,1s0.6,0.3,1.1,0.3c0.2,0,0.5,0,0.7-0.1
		s0.4-0.2,0.6-0.3l0.4,0.7c-0.2,0.2-0.5,0.3-0.8,0.4C71.8,92.2,71.5,92.2,71.2,92.2z M71,88.3c-0.3,0-0.6,0.1-0.8,0.3
		c-0.2,0.2-0.4,0.5-0.5,0.8h2.4c0-0.4-0.2-0.6-0.4-0.8C71.5,88.4,71.4,88.3,71,88.3z"/>
	<path class="st2" d="M0,126.6h118.7l6.2,6.2V164l0,0H6.3l-6.2-6.2L0,126.6L0,126.6z"/>
	<path class="st1" d="M26.6,143.4c-0.4,0-0.7-0.1-1.1-0.2c-0.3-0.1-0.6-0.3-0.9-0.6c-0.2-0.3-0.4-0.6-0.6-1
		c-0.1-0.4-0.2-0.8-0.2-1.3s0.1-0.9,0.2-1.3c0.1-0.4,0.3-0.7,0.6-1c0.3-0.3,0.6-0.5,0.9-0.6s0.7-0.2,1.1-0.2s0.7,0.1,1,0.2
		c0.3,0.2,0.5,0.3,0.7,0.5l-0.6,0.7c-0.2-0.1-0.3-0.3-0.5-0.3c-0.2-0.1-0.4-0.1-0.6-0.1s-0.5,0.1-0.7,0.2c-0.2,0.1-0.4,0.2-0.5,0.4
		s-0.3,0.4-0.3,0.7c-0.1,0.3-0.1,0.6-0.1,0.9c0,0.4,0,0.7,0.1,1s0.2,0.5,0.3,0.7c0.2,0.2,0.3,0.3,0.5,0.4c0.2,0.1,0.5,0.2,0.7,0.2
		s0.5-0.1,0.7-0.2c0.2-0.1,0.4-0.3,0.6-0.5l0.6,0.7c-0.2,0.3-0.5,0.5-0.9,0.7C27.4,143.3,27,143.4,26.6,143.4z M29.7,143.3v-6.6h1.1
		v1.7l-0.1,1l0,0c0.2-0.2,0.4-0.4,0.7-0.5c0.3-0.2,0.6-0.2,0.9-0.2c0.5,0,0.9,0.2,1.2,0.5c0.2,0.3,0.4,0.8,0.4,1.4v2.8h-1.1v-2.7
		c0-0.4-0.1-0.6-0.2-0.8s-0.3-0.3-0.7-0.3c-0.2,0-0.4,0.1-0.6,0.2c-0.2,0.1-0.4,0.3-0.6,0.5v3.1L29.7,143.3L29.7,143.3z M37.3,143.4
		c-0.3,0-0.6-0.1-0.9-0.2c-0.3-0.1-0.5-0.3-0.7-0.5s-0.4-0.5-0.5-0.8s-0.2-0.6-0.2-1s0.1-0.7,0.2-1s0.3-0.6,0.5-0.8s0.5-0.4,0.7-0.5
		c0.3-0.1,0.6-0.2,0.9-0.2s0.6,0.1,0.9,0.2c0.3,0.1,0.5,0.3,0.7,0.5s0.4,0.4,0.5,0.8c0.1,0.3,0.2,0.6,0.2,1s-0.1,0.7-0.2,1
		s-0.3,0.5-0.5,0.8c-0.2,0.2-0.5,0.4-0.7,0.5C37.9,143.3,37.6,143.4,37.3,143.4z M37.3,142.5c0.4,0,0.7-0.1,0.9-0.4
		c0.2-0.3,0.3-0.7,0.3-1.1c0-0.5-0.1-0.8-0.3-1.1c-0.2-0.3-0.5-0.4-0.9-0.4s-0.7,0.1-0.9,0.4c-0.2,0.3-0.3,0.6-0.3,1.1
		s0.1,0.8,0.3,1.1C36.6,142.4,36.9,142.5,37.3,142.5z M42.9,143.4c-0.3,0-0.6-0.1-0.9-0.2c-0.3-0.1-0.5-0.3-0.7-0.5
		s-0.4-0.5-0.5-0.8s-0.2-0.6-0.2-1s0.1-0.7,0.2-1s0.3-0.6,0.5-0.8s0.5-0.4,0.7-0.5c0.3-0.1,0.6-0.2,0.9-0.2s0.6,0.1,0.9,0.2
		c0.3,0.1,0.5,0.3,0.7,0.5s0.4,0.4,0.5,0.8c0.1,0.3,0.2,0.6,0.2,1s-0.1,0.7-0.2,1s-0.3,0.5-0.5,0.8c-0.2,0.2-0.5,0.4-0.7,0.5
		C43.5,143.3,43.2,143.4,42.9,143.4z M42.9,142.5c0.4,0,0.7-0.1,0.9-0.4c0.2-0.3,0.3-0.7,0.3-1.1c0-0.5-0.1-0.8-0.3-1.1
		c-0.2-0.3-0.5-0.4-0.9-0.4s-0.7,0.1-0.9,0.4c-0.2,0.3-0.3,0.6-0.3,1.1s0.1,0.8,0.3,1.1C42.2,142.4,42.5,142.5,42.9,142.5z
		 M48.5,143.4c-0.4,0-0.8-0.1-1.2-0.2c-0.4-0.1-0.7-0.3-1-0.5l0.5-0.7c0.3,0.2,0.6,0.3,0.9,0.4c0.3,0.1,0.7,0.1,1,0.1
		s0.5-0.1,0.7-0.2c0.2-0.1,0.2-0.2,0.2-0.4c0-0.1,0-0.1,0-0.2s-0.1-0.1-0.2-0.2c-0.1-0.1-0.2-0.1-0.4-0.2c-0.2-0.1-0.4-0.1-0.7-0.2
		c-0.6-0.1-1.1-0.3-1.3-0.5c-0.3-0.2-0.4-0.5-0.4-0.9s0.2-0.7,0.5-1c0.4-0.3,0.9-0.4,1.5-0.4c0.4,0,0.7,0.1,1.1,0.2
		c0.3,0.1,0.6,0.3,0.8,0.4l-0.5,0.7c-0.2-0.1-0.5-0.3-0.7-0.3c-0.2-0.1-0.5-0.1-0.8-0.1s-0.5,0-0.7,0.1c-0.1,0.1-0.2,0.2-0.2,0.4
		s0.1,0.3,0.3,0.4c0.2,0.1,0.5,0.2,0.9,0.3s0.7,0.2,0.9,0.3c0.2,0.1,0.4,0.2,0.6,0.3c0.1,0.1,0.2,0.2,0.3,0.4
		c0.1,0.1,0.1,0.3,0.1,0.5s0,0.4-0.1,0.6c-0.1,0.2-0.2,0.3-0.4,0.5c-0.2,0.1-0.4,0.2-0.7,0.3C49.2,143.3,48.9,143.4,48.5,143.4z
		 M54.4,143.4c-0.3,0-0.7-0.1-1-0.2c-0.3-0.1-0.6-0.3-0.8-0.5c-0.2-0.2-0.4-0.5-0.5-0.8s-0.2-0.6-0.2-1s0.1-0.7,0.2-1
		s0.3-0.5,0.5-0.8c0.2-0.2,0.5-0.4,0.8-0.5s0.6-0.2,0.9-0.2s0.6,0.1,0.9,0.2c0.3,0.1,0.5,0.2,0.7,0.4s0.3,0.4,0.4,0.7
		s0.1,0.6,0.1,0.9c0,0.1,0,0.2,0,0.3s0,0.2,0,0.2H53c0.1,0.4,0.2,0.8,0.5,1s0.6,0.3,1.1,0.3c0.2,0,0.5,0,0.7-0.1s0.4-0.2,0.6-0.3
		l0.4,0.7c-0.2,0.2-0.5,0.3-0.8,0.4C55,143.3,54.7,143.4,54.4,143.4z M54.3,139.4c-0.3,0-0.6,0.1-0.8,0.3c-0.2,0.2-0.4,0.5-0.5,0.8
		h2.4c0-0.4-0.2-0.6-0.4-0.8C54.8,139.5,54.6,139.4,54.3,139.4z M63.3,143.3v-6.1h2c0.3,0,0.6,0,0.9,0.1s0.5,0.2,0.7,0.3
		s0.4,0.3,0.5,0.6c0.1,0.2,0.2,0.5,0.2,0.9c0,0.3-0.1,0.6-0.2,0.9c-0.1,0.2-0.3,0.5-0.5,0.6c-0.2,0.2-0.5,0.3-0.7,0.4
		c-0.3,0.1-0.6,0.1-0.9,0.1h-0.9v2.2H63.3z M64.4,140.2h0.8c0.9,0,1.3-0.4,1.3-1.1c0-0.4-0.1-0.7-0.3-0.8c-0.2-0.1-0.6-0.2-1-0.2
		h-0.8V140.2z M69.3,143.3v-4.6h0.9l0.1,1l0,0c0.2-0.4,0.5-0.7,0.9-0.8c0.3-0.2,0.7-0.3,1.1-0.3c0.2,0,0.3,0,0.5,0
		c0.1,0,0.3,0.1,0.4,0.1l-0.2,0.9c-0.1-0.1-0.3-0.1-0.4-0.1c-0.1,0-0.3,0-0.4,0c-0.3,0-0.6,0.1-0.9,0.3s-0.6,0.5-0.8,0.9v2.5h-1.2
		V143.3z M76.5,143.4c-0.3,0-0.6-0.1-0.9-0.2c-0.3-0.1-0.5-0.3-0.7-0.5s-0.4-0.5-0.5-0.8c-0.1-0.3-0.2-0.6-0.2-1s0.1-0.7,0.2-1
		c0.1-0.3,0.3-0.6,0.5-0.8s0.5-0.4,0.7-0.5c0.3-0.1,0.6-0.2,0.9-0.2s0.6,0.1,0.9,0.2c0.3,0.1,0.5,0.3,0.7,0.5s0.4,0.4,0.5,0.8
		c0.1,0.3,0.2,0.6,0.2,1s-0.1,0.7-0.2,1c-0.1,0.3-0.3,0.5-0.5,0.8c-0.2,0.2-0.5,0.4-0.7,0.5C77.1,143.3,76.8,143.4,76.5,143.4z
		 M76.5,142.5c0.4,0,0.7-0.1,0.9-0.4c0.2-0.3,0.3-0.7,0.3-1.1c0-0.5-0.1-0.8-0.3-1.1s-0.5-0.4-0.9-0.4s-0.7,0.1-0.9,0.4
		c-0.2,0.3-0.3,0.6-0.3,1.1s0.1,0.8,0.3,1.1C75.8,142.4,76.1,142.5,76.5,142.5z M81.7,143.4c-0.3,0-0.6-0.1-0.8-0.2
		c-0.2-0.1-0.4-0.3-0.6-0.5c-0.2-0.2-0.3-0.5-0.4-0.8c-0.1-0.3-0.1-0.6-0.1-1s0.1-0.7,0.2-1c0.1-0.3,0.3-0.6,0.5-0.8
		s0.4-0.4,0.7-0.5c0.2-0.1,0.5-0.2,0.8-0.2s0.5,0,0.7,0.1s0.4,0.2,0.6,0.4l0,0l-0.1-0.8v-1.7h1.1v6.6h-0.9l-0.1-0.5l0,0
		c-0.2,0.2-0.4,0.3-0.6,0.5C82.2,143.3,82,143.4,81.7,143.4z M82,142.5c0.4,0,0.7-0.2,1-0.5v-2.1c-0.2-0.2-0.3-0.3-0.5-0.3
		c-0.2-0.1-0.3-0.1-0.5-0.1s-0.3,0-0.5,0.1c-0.1,0.1-0.3,0.2-0.4,0.3c-0.1,0.1-0.2,0.3-0.2,0.5s-0.1,0.4-0.1,0.6
		c0,0.5,0.1,0.9,0.3,1.1C81.4,142.4,81.6,142.5,82,142.5z M87.1,143.4c-0.5,0-0.9-0.2-1.2-0.5c-0.2-0.3-0.4-0.8-0.4-1.4v-2.8h1.1
		v2.7c0,0.4,0.1,0.7,0.2,0.8c0.1,0.2,0.4,0.2,0.7,0.2c0.2,0,0.4,0,0.6-0.1c0.2-0.1,0.4-0.3,0.6-0.5v-3.1h1.1v4.6h-0.9l-0.1-0.7l0,0
		c-0.2,0.3-0.5,0.5-0.7,0.6C87.7,143.3,87.4,143.4,87.1,143.4z M93.7,143.4c-0.4,0-0.7-0.1-1-0.2c-0.3-0.1-0.6-0.3-0.8-0.5
		s-0.4-0.5-0.5-0.8s-0.2-0.6-0.2-1s0.1-0.7,0.2-1c0.1-0.3,0.3-0.6,0.6-0.8c0.2-0.2,0.5-0.4,0.8-0.5s0.7-0.2,1-0.2
		c0.4,0,0.7,0.1,1,0.2s0.5,0.3,0.7,0.5l-0.5,0.7c-0.2-0.1-0.4-0.3-0.5-0.3c-0.2-0.1-0.4-0.1-0.6-0.1c-0.5,0-0.8,0.1-1.1,0.4
		c-0.3,0.3-0.4,0.6-0.4,1.1c0,0.2,0,0.4,0.1,0.6c0.1,0.2,0.2,0.3,0.3,0.5c0.1,0.1,0.3,0.2,0.5,0.3s0.4,0.1,0.6,0.1
		c0.3,0,0.5,0,0.7-0.1s0.4-0.2,0.6-0.4l0.4,0.7c-0.3,0.2-0.6,0.4-0.9,0.5C94.3,143.3,94,143.4,93.7,143.4z M99.7,143.4
		c-0.3,0-0.6,0-0.9-0.1s-0.4-0.2-0.6-0.4c-0.1-0.2-0.3-0.4-0.3-0.6c-0.1-0.2-0.1-0.5-0.1-0.8v-1.9h-1.2v-0.8h1.3l0.1-1.4h0.9v1.4
		h2.1v0.8h-2.1v1.9c0,0.4,0.1,0.7,0.2,0.8c0.2,0.2,0.4,0.3,0.8,0.3c0.2,0,0.4,0,0.5,0c0.2,0,0.3-0.1,0.5-0.1l0.2,0.8
		c-0.2,0.1-0.4,0.1-0.7,0.2C100.3,143.3,100,143.4,99.7,143.4z"/>
	<path class="st1" d="M37.8,154.4c-0.4,0-0.7-0.1-1.1-0.2c-0.3-0.1-0.6-0.3-0.9-0.6c-0.2-0.3-0.4-0.6-0.6-1
		c-0.1-0.4-0.2-0.8-0.2-1.3s0.1-0.9,0.2-1.3c0.1-0.4,0.3-0.7,0.6-1c0.3-0.3,0.6-0.5,0.9-0.6s0.7-0.2,1.1-0.2s0.7,0.1,1,0.2
		c0.3,0.2,0.5,0.3,0.7,0.5l-0.6,0.7c-0.2-0.1-0.3-0.3-0.5-0.3c-0.2-0.1-0.4-0.1-0.6-0.1s-0.5,0.1-0.7,0.2c-0.2,0.1-0.4,0.2-0.5,0.4
		s-0.3,0.4-0.3,0.7c-0.1,0.3-0.1,0.6-0.1,0.9c0,0.4,0,0.7,0.1,1s0.2,0.5,0.3,0.7c0.2,0.2,0.3,0.3,0.5,0.4c0.2,0.1,0.5,0.2,0.7,0.2
		s0.5-0.1,0.7-0.2c0.2-0.1,0.4-0.3,0.6-0.5l0.6,0.7c-0.2,0.3-0.5,0.5-0.9,0.7C38.6,154.3,38.2,154.4,37.8,154.4z M42.3,154.4
		c-0.2,0-0.4,0-0.6-0.1s-0.3-0.2-0.5-0.3c-0.1-0.1-0.2-0.3-0.3-0.4c-0.1-0.2-0.1-0.3-0.1-0.5s0.1-0.5,0.2-0.7s0.3-0.4,0.6-0.5
		c0.3-0.1,0.6-0.2,1-0.3s0.9-0.2,1.5-0.2c0-0.3-0.1-0.5-0.3-0.7c-0.2-0.2-0.4-0.2-0.8-0.2c-0.3,0-0.5,0.1-0.8,0.2
		c-0.2,0.1-0.5,0.2-0.7,0.3l-0.4-0.7c0.3-0.2,0.6-0.3,1-0.4c0.4-0.1,0.7-0.2,1.1-0.2c0.6,0,1.1,0.2,1.5,0.5c0.3,0.3,0.5,0.8,0.5,1.5
		v2.7h-0.9l-0.1-0.6l0,0c-0.2,0.2-0.5,0.3-0.8,0.5C42.9,154.3,42.6,154.4,42.3,154.4z M42.6,153.5c0.2,0,0.4,0,0.7-0.1
		c0.2-0.1,0.4-0.2,0.7-0.4v-1c-0.4,0-0.8,0.1-1,0.1c-0.3,0.1-0.5,0.1-0.7,0.2c-0.2,0.1-0.3,0.2-0.3,0.3c-0.1,0.1-0.1,0.2-0.1,0.3
		c0,0.2,0.1,0.4,0.2,0.5C42.2,153.5,42.4,153.5,42.6,153.5z M49.3,154.4c-0.3,0-0.6,0-0.9-0.1c-0.2-0.1-0.4-0.2-0.6-0.4
		c-0.1-0.2-0.3-0.4-0.3-0.6c-0.1-0.2-0.1-0.5-0.1-0.8v-1.9h-1.2v-0.8h1.3l0.1-1.4h0.9v1.4h2.1v0.8h-2.1v1.9c0,0.4,0.1,0.7,0.2,0.8
		c0.2,0.2,0.4,0.3,0.8,0.3c0.2,0,0.4,0,0.5,0c0.2,0,0.3-0.1,0.5-0.1l0.2,0.8c-0.2,0.1-0.4,0.1-0.7,0.2
		C49.9,154.3,49.6,154.4,49.3,154.4z M54.4,154.4c-0.3,0-0.7-0.1-1-0.2c-0.3-0.1-0.6-0.3-0.8-0.5c-0.2-0.2-0.4-0.5-0.5-0.8
		s-0.2-0.6-0.2-1s0.1-0.7,0.2-1s0.3-0.5,0.5-0.8c0.2-0.2,0.5-0.4,0.8-0.5s0.6-0.2,0.9-0.2s0.6,0.1,0.9,0.2c0.3,0.1,0.5,0.2,0.7,0.4
		s0.3,0.4,0.4,0.7s0.1,0.6,0.1,0.9c0,0.1,0,0.2,0,0.3s0,0.2,0,0.2H53c0.1,0.4,0.2,0.8,0.5,1s0.6,0.3,1.1,0.3c0.2,0,0.5,0,0.7-0.1
		s0.4-0.2,0.6-0.3l0.4,0.7c-0.2,0.2-0.5,0.3-0.8,0.4C55,154.3,54.7,154.4,54.4,154.4z M54.3,150.4c-0.3,0-0.6,0.1-0.8,0.3
		c-0.2,0.2-0.4,0.5-0.5,0.8h2.4c0-0.4-0.2-0.6-0.4-0.8C54.8,150.5,54.6,150.4,54.3,150.4z M59.6,156.3c-0.3,0-0.6,0-0.9-0.1
		c-0.2-0.1-0.5-0.1-0.7-0.2c-0.2-0.1-0.3-0.2-0.4-0.4c-0.1-0.1-0.1-0.3-0.1-0.5c0-0.4,0.2-0.7,0.7-1l0,0c-0.1-0.1-0.2-0.2-0.3-0.3
		c-0.1-0.1-0.1-0.3-0.1-0.5s0-0.3,0.1-0.5s0.2-0.3,0.4-0.4l0,0c-0.2-0.1-0.3-0.3-0.4-0.5s-0.2-0.4-0.2-0.7s0.1-0.5,0.2-0.7
		s0.2-0.4,0.4-0.5c0.2-0.1,0.4-0.3,0.6-0.3c0.2-0.1,0.5-0.1,0.7-0.1c0.3,0,0.5,0,0.7,0.1h1.9v0.8h-1.1c0.1,0.1,0.2,0.2,0.2,0.3
		c0.1,0.1,0.1,0.3,0.1,0.4c0,0.2-0.1,0.5-0.2,0.7s-0.2,0.3-0.4,0.5c-0.2,0.1-0.4,0.2-0.6,0.3s-0.5,0.1-0.7,0.1s-0.5,0-0.7-0.1
		c-0.2,0.1-0.3,0.3-0.3,0.4c0,0.3,0.3,0.4,0.9,0.4h0.9c0.6,0,1.1,0.1,1.4,0.3s0.5,0.5,0.5,0.9c0,0.2-0.1,0.4-0.2,0.6
		c-0.1,0.2-0.3,0.4-0.5,0.5s-0.5,0.3-0.8,0.3C60.3,156.2,60,156.3,59.6,156.3z M59.6,152.1c0.2,0,0.4-0.1,0.6-0.2
		c0.2-0.2,0.2-0.4,0.2-0.7s-0.1-0.5-0.2-0.7c-0.2-0.2-0.4-0.2-0.6-0.2s-0.4,0.1-0.6,0.2c-0.2,0.2-0.2,0.4-0.2,0.7s0.1,0.5,0.2,0.7
		S59.3,152.1,59.6,152.1z M59.7,155.6c0.2,0,0.4,0,0.6-0.1c0.2,0,0.3-0.1,0.5-0.2c0.1-0.1,0.2-0.1,0.3-0.2c0.1-0.1,0.1-0.2,0.1-0.3
		c0-0.2-0.1-0.3-0.2-0.4c-0.1-0.1-0.4-0.1-0.7-0.1h-0.7c-0.3,0-0.5,0-0.7-0.1c-0.2,0.1-0.3,0.2-0.4,0.3s-0.1,0.2-0.1,0.3
		c0,0.2,0.1,0.4,0.3,0.5C58.9,155.5,59.3,155.6,59.7,155.6z M65.3,154.4c-0.3,0-0.6-0.1-0.9-0.2c-0.3-0.1-0.5-0.3-0.7-0.5
		s-0.4-0.5-0.5-0.8s-0.2-0.6-0.2-1s0.1-0.7,0.2-1s0.3-0.6,0.5-0.8s0.5-0.4,0.7-0.5c0.3-0.1,0.6-0.2,0.9-0.2s0.6,0.1,0.9,0.2
		c0.3,0.1,0.5,0.3,0.7,0.5s0.4,0.4,0.5,0.8c0.1,0.3,0.2,0.6,0.2,1s-0.1,0.7-0.2,1c-0.1,0.3-0.3,0.5-0.5,0.8
		c-0.2,0.2-0.5,0.4-0.7,0.5C65.9,154.3,65.6,154.4,65.3,154.4z M65.3,153.5c0.4,0,0.7-0.1,0.9-0.4c0.2-0.3,0.3-0.7,0.3-1.1
		c0-0.5-0.1-0.8-0.3-1.1c-0.2-0.3-0.5-0.4-0.9-0.4c-0.4,0-0.7,0.1-0.9,0.4c-0.2,0.3-0.3,0.6-0.3,1.1s0.1,0.8,0.3,1.1
		C64.6,153.4,64.9,153.5,65.3,153.5z M69.3,154.3v-4.6h0.9l0.1,1l0,0c0.2-0.4,0.5-0.7,0.9-0.8c0.3-0.2,0.7-0.3,1.1-0.3
		c0.2,0,0.3,0,0.5,0c0.1,0,0.3,0.1,0.4,0.1l-0.2,0.9c-0.1-0.1-0.3-0.1-0.4-0.1c-0.1,0-0.3,0-0.4,0c-0.3,0-0.6,0.1-0.9,0.3
		s-0.6,0.5-0.8,0.9v2.5h-1.2V154.3z M76.4,154.3v-3.7h-2v-0.8h3.1v4.6h-1.1V154.3z M76.5,148.8c-0.2,0-0.4-0.1-0.5-0.2
		c-0.1-0.1-0.2-0.3-0.2-0.5s0.1-0.4,0.2-0.5c0.1-0.1,0.3-0.2,0.5-0.2s0.4,0.1,0.5,0.2c0.1,0.1,0.2,0.3,0.2,0.5s-0.1,0.4-0.2,0.5
		C76.9,148.8,76.7,148.8,76.5,148.8z M82.3,154.4c-0.3,0-0.7-0.1-1-0.2c-0.3-0.1-0.6-0.3-0.8-0.5s-0.4-0.5-0.5-0.8s-0.2-0.6-0.2-1
		s0.1-0.7,0.2-1c0.1-0.3,0.3-0.5,0.5-0.8c0.2-0.2,0.5-0.4,0.8-0.5s0.6-0.2,0.9-0.2c0.3,0,0.6,0.1,0.9,0.2c0.3,0.1,0.5,0.2,0.7,0.4
		s0.3,0.4,0.4,0.7c0.1,0.3,0.1,0.6,0.1,0.9c0,0.1,0,0.2,0,0.3s0,0.2,0,0.2h-3.4c0.1,0.4,0.2,0.8,0.5,1s0.6,0.3,1.1,0.3
		c0.2,0,0.5,0,0.7-0.1s0.4-0.2,0.6-0.3l0.4,0.7c-0.2,0.2-0.5,0.3-0.8,0.4C83,154.3,82.7,154.4,82.3,154.4z M82.2,150.4
		c-0.3,0-0.6,0.1-0.8,0.3s-0.4,0.5-0.5,0.8h2.4c0-0.4-0.2-0.6-0.4-0.8C82.8,150.5,82.6,150.4,82.2,150.4z M87.7,154.4
		c-0.4,0-0.8-0.1-1.2-0.2c-0.4-0.1-0.7-0.3-1-0.5L86,153c0.3,0.2,0.6,0.3,0.9,0.4c0.3,0.1,0.7,0.1,1,0.1s0.5-0.1,0.7-0.2
		c0.2-0.1,0.2-0.2,0.2-0.4c0-0.1,0-0.1,0-0.2s-0.1-0.1-0.2-0.2c-0.1-0.1-0.2-0.1-0.4-0.2c-0.2-0.1-0.4-0.1-0.7-0.2
		c-0.6-0.1-1.1-0.3-1.3-0.5c-0.3-0.2-0.4-0.5-0.4-0.9s0.2-0.7,0.5-1c0.4-0.3,0.9-0.4,1.5-0.4c0.4,0,0.7,0.1,1.1,0.2s0.6,0.3,0.8,0.4
		l-0.5,0.7c-0.2-0.1-0.5-0.3-0.7-0.3c-0.2-0.1-0.5-0.1-0.8-0.1s-0.5,0-0.7,0.1c-0.1,0.1-0.2,0.2-0.2,0.4s0.1,0.3,0.3,0.4
		c0.2,0.1,0.5,0.2,0.9,0.3s0.7,0.2,0.9,0.3s0.4,0.2,0.6,0.3c0.1,0.1,0.2,0.2,0.3,0.4c0.1,0.1,0.1,0.3,0.1,0.5s0,0.4-0.1,0.6
		c-0.1,0.2-0.2,0.3-0.4,0.5c-0.2,0.1-0.4,0.2-0.7,0.3C88.3,154.3,88,154.4,87.7,154.4z"/>
	<path class="st2" d="M151.6,185.9h118.7l6.2,6.2v31.2l0,0H157.8l-6.2-6.2V185.9z"/>
	<path class="st1" d="M195.3,202.5v-6.1h2c0.3,0,0.6,0,0.9,0.1s0.5,0.2,0.7,0.3c0.2,0.1,0.4,0.3,0.5,0.6c0.1,0.2,0.2,0.5,0.2,0.9
		c0,0.3-0.1,0.6-0.2,0.9c-0.1,0.2-0.3,0.5-0.5,0.6c-0.2,0.2-0.5,0.3-0.7,0.4c-0.3,0.1-0.6,0.1-0.9,0.1h-1v2.2H195.3z M196.3,199.4
		h0.8c0.9,0,1.3-0.4,1.3-1.1c0-0.4-0.1-0.7-0.3-0.8s-0.6-0.2-1-0.2h-0.8V199.4z M201.3,202.5v-4.6h0.9l0.1,1l0,0
		c0.2-0.4,0.5-0.7,0.9-0.8c0.3-0.2,0.7-0.3,1.1-0.3c0.2,0,0.3,0,0.5,0c0.1,0,0.3,0.1,0.4,0.1l-0.2,0.9c-0.1-0.1-0.3-0.1-0.4-0.1
		s-0.3,0-0.4,0c-0.3,0-0.6,0.1-0.9,0.3c-0.3,0.2-0.6,0.5-0.8,0.9v2.5h-1.2V202.5z M208.4,202.7c-0.3,0-0.6-0.1-0.9-0.2
		s-0.5-0.3-0.7-0.5s-0.4-0.5-0.5-0.8s-0.2-0.6-0.2-1s0.1-0.7,0.2-1s0.3-0.6,0.5-0.8c0.2-0.2,0.5-0.4,0.7-0.5
		c0.3-0.1,0.6-0.2,0.9-0.2s0.6,0.1,0.9,0.2s0.5,0.3,0.7,0.5s0.4,0.4,0.5,0.8c0.1,0.3,0.2,0.6,0.2,1s-0.1,0.7-0.2,1s-0.3,0.5-0.5,0.8
		c-0.2,0.2-0.5,0.4-0.7,0.5C209,202.6,208.7,202.7,208.4,202.7z M208.4,201.8c0.4,0,0.7-0.1,0.9-0.4c0.2-0.3,0.3-0.7,0.3-1.1
		c0-0.5-0.1-0.8-0.3-1.1c-0.2-0.3-0.5-0.4-0.9-0.4s-0.7,0.1-0.9,0.4c-0.2,0.3-0.3,0.6-0.3,1.1s0.1,0.8,0.3,1.1
		C207.8,201.6,208.1,201.8,208.4,201.8z M213.7,202.7c-0.3,0-0.6-0.1-0.8-0.2c-0.2-0.1-0.4-0.3-0.6-0.5s-0.3-0.5-0.4-0.8
		s-0.1-0.6-0.1-1s0.1-0.7,0.2-1s0.3-0.6,0.5-0.8c0.2-0.2,0.4-0.4,0.7-0.5c0.2-0.1,0.5-0.2,0.8-0.2s0.5,0,0.7,0.1s0.4,0.2,0.6,0.4
		l0,0l-0.1-0.8v-1.7h1.1v6.6h-0.9l-0.1-0.5l0,0c-0.2,0.2-0.4,0.3-0.6,0.5S213.9,202.7,213.7,202.7z M213.9,201.8
		c0.4,0,0.7-0.2,1-0.5v-2.1c-0.2-0.2-0.3-0.3-0.5-0.3c-0.2-0.1-0.3-0.1-0.5-0.1s-0.3,0-0.5,0.1c-0.1,0.1-0.3,0.2-0.4,0.3
		s-0.2,0.3-0.2,0.5s-0.1,0.4-0.1,0.6c0,0.5,0.1,0.9,0.3,1.1C213.3,201.6,213.6,201.8,213.9,201.8z M219,202.7
		c-0.5,0-0.9-0.2-1.2-0.5c-0.2-0.3-0.4-0.8-0.4-1.4V198h1.1v2.7c0,0.4,0.1,0.7,0.2,0.8c0.1,0.2,0.4,0.2,0.7,0.2c0.2,0,0.4,0,0.6-0.1
		s0.4-0.3,0.6-0.5V198h1.1v4.6h-0.9l-0.1-0.7l0,0c-0.2,0.3-0.5,0.5-0.7,0.6C219.7,202.6,219.4,202.7,219,202.7z M225.6,202.7
		c-0.4,0-0.7-0.1-1-0.2s-0.6-0.3-0.8-0.5c-0.2-0.2-0.4-0.5-0.5-0.8s-0.2-0.6-0.2-1s0.1-0.7,0.2-1s0.3-0.6,0.6-0.8
		c0.2-0.2,0.5-0.4,0.8-0.5s0.7-0.2,1-0.2c0.4,0,0.7,0.1,1,0.2s0.5,0.3,0.7,0.5l-0.5,0.7c-0.2-0.1-0.4-0.3-0.5-0.3s-0.4-0.1-0.6-0.1
		c-0.5,0-0.8,0.1-1.1,0.4c-0.3,0.3-0.4,0.6-0.4,1.1c0,0.2,0,0.4,0.1,0.6s0.2,0.3,0.3,0.5c0.1,0.1,0.3,0.2,0.5,0.3
		c0.2,0.1,0.4,0.1,0.6,0.1c0.3,0,0.5,0,0.7-0.1s0.4-0.2,0.6-0.4l0.4,0.7c-0.3,0.2-0.6,0.4-0.9,0.5
		C226.3,202.6,226,202.7,225.6,202.7z M231.7,202.7c-0.3,0-0.6,0-0.9-0.1s-0.4-0.2-0.6-0.4c-0.1-0.2-0.3-0.4-0.3-0.6
		c-0.1-0.2-0.1-0.5-0.1-0.8v-1.9h-1.2v-0.8h1.3l0.1-1.4h0.9v1.4h2.1v0.8h-2.1v1.9c0,0.4,0.1,0.7,0.2,0.8c0.2,0.2,0.4,0.3,0.8,0.3
		c0.2,0,0.4,0,0.5,0c0.2,0,0.3-0.1,0.5-0.1l0.2,0.8c-0.2,0.1-0.4,0.1-0.7,0.2C232.2,202.6,232,202.7,231.7,202.7z"/>
	<path class="st1" d="M189.3,213.7c-0.4,0-0.7-0.1-1.1-0.2c-0.3-0.1-0.6-0.3-0.9-0.6c-0.3-0.3-0.4-0.6-0.6-1
		c-0.1-0.4-0.2-0.8-0.2-1.3s0.1-0.9,0.2-1.3c0.1-0.4,0.3-0.7,0.6-1s0.6-0.5,0.9-0.6c0.3-0.1,0.7-0.2,1.1-0.2c0.4,0,0.7,0.1,1,0.2
		c0.3,0.2,0.5,0.3,0.7,0.5l-0.6,0.7c-0.2-0.1-0.3-0.3-0.5-0.3c-0.2-0.1-0.4-0.1-0.6-0.1c-0.3,0-0.5,0.1-0.7,0.2s-0.4,0.2-0.5,0.4
		c-0.1,0.2-0.3,0.4-0.3,0.7c-0.1,0.3-0.1,0.6-0.1,0.9c0,0.4,0,0.7,0.1,1s0.2,0.5,0.3,0.7c0.2,0.2,0.3,0.3,0.5,0.4s0.5,0.2,0.7,0.2
		s0.5-0.1,0.7-0.2s0.4-0.3,0.6-0.5l0.6,0.7c-0.3,0.3-0.5,0.5-0.9,0.7C190.1,213.6,189.8,213.7,189.3,213.7z M193.8,213.7
		c-0.2,0-0.4,0-0.6-0.1s-0.3-0.2-0.5-0.3c-0.1-0.1-0.2-0.3-0.3-0.4c-0.1-0.2-0.1-0.3-0.1-0.5s0.1-0.5,0.2-0.7
		c0.1-0.2,0.3-0.4,0.6-0.5s0.6-0.2,1-0.3c0.4-0.1,0.9-0.2,1.5-0.2c0-0.3-0.1-0.5-0.3-0.7s-0.4-0.2-0.8-0.2c-0.3,0-0.5,0.1-0.8,0.2
		c-0.2,0.1-0.5,0.2-0.7,0.3l-0.4-0.7c0.3-0.2,0.6-0.3,1-0.4s0.7-0.2,1.1-0.2c0.6,0,1.1,0.2,1.5,0.5c0.3,0.3,0.5,0.8,0.5,1.5v2.7
		h-0.9l-0.1-0.6l0,0c-0.2,0.2-0.5,0.3-0.8,0.5C194.4,213.6,194.1,213.7,193.8,213.7z M194.2,212.8c0.2,0,0.4,0,0.7-0.1
		c0.2-0.1,0.4-0.2,0.7-0.4v-1c-0.4,0-0.8,0.1-1,0.1c-0.3,0.1-0.5,0.1-0.7,0.2s-0.3,0.2-0.3,0.3c-0.1,0.1-0.1,0.2-0.1,0.3
		c0,0.2,0.1,0.4,0.2,0.5C193.7,212.8,193.9,212.8,194.2,212.8z M200.9,213.7c-0.3,0-0.6,0-0.9-0.1s-0.4-0.2-0.6-0.4
		c-0.1-0.2-0.3-0.4-0.3-0.6c-0.1-0.2-0.1-0.5-0.1-0.8v-1.9h-1.2v-0.8h1.3l0.1-1.4h0.9v1.4h2.1v0.8h-2.1v1.9c0,0.4,0.1,0.7,0.2,0.8
		c0.2,0.2,0.4,0.3,0.8,0.3c0.2,0,0.4,0,0.5,0c0.2,0,0.3-0.1,0.5-0.1l0.2,0.8c-0.2,0.1-0.4,0.1-0.7,0.2
		C201.4,213.6,201.2,213.7,200.9,213.7z M205.9,213.7c-0.3,0-0.7-0.1-1-0.2s-0.6-0.3-0.8-0.5c-0.2-0.2-0.4-0.5-0.5-0.8
		s-0.2-0.6-0.2-1s0.1-0.7,0.2-1s0.3-0.5,0.5-0.8c0.2-0.2,0.5-0.4,0.8-0.5s0.6-0.2,0.9-0.2s0.6,0.1,0.9,0.2s0.5,0.2,0.7,0.4
		c0.2,0.2,0.3,0.4,0.4,0.7c0.1,0.3,0.1,0.6,0.1,0.9c0,0.1,0,0.2,0,0.3s0,0.2,0,0.2h-3.4c0.1,0.4,0.2,0.8,0.5,1s0.6,0.3,1.1,0.3
		c0.2,0,0.5,0,0.7-0.1s0.4-0.2,0.6-0.3l0.4,0.7c-0.2,0.2-0.5,0.3-0.8,0.4C206.6,213.6,206.2,213.7,205.9,213.7z M205.8,209.7
		c-0.3,0-0.6,0.1-0.8,0.3s-0.4,0.5-0.5,0.8h2.4c0-0.4-0.2-0.6-0.4-0.8S206.1,209.7,205.8,209.7z M211.1,215.6c-0.3,0-0.6,0-0.9-0.1
		c-0.2-0.1-0.5-0.1-0.7-0.2s-0.3-0.2-0.4-0.4c-0.1-0.1-0.1-0.3-0.1-0.5c0-0.4,0.2-0.7,0.7-1l0,0c-0.1-0.1-0.2-0.2-0.3-0.3
		c-0.1-0.1-0.1-0.3-0.1-0.5s0-0.3,0.1-0.5s0.2-0.3,0.4-0.4l0,0c-0.2-0.1-0.3-0.3-0.4-0.5s-0.2-0.4-0.2-0.7c0-0.3,0.1-0.5,0.2-0.7
		s0.2-0.4,0.4-0.5c0.2-0.1,0.4-0.3,0.6-0.3c0.2-0.1,0.5-0.1,0.7-0.1c0.3,0,0.5,0,0.7,0.1h1.9v0.8h-1.1c0.1,0.1,0.2,0.2,0.2,0.3
		c0.1,0.1,0.1,0.3,0.1,0.4c0,0.2-0.1,0.5-0.2,0.7s-0.2,0.3-0.4,0.5c-0.2,0.1-0.4,0.2-0.6,0.3c-0.2,0.1-0.5,0.1-0.7,0.1
		s-0.5,0-0.7-0.1c-0.2,0.1-0.3,0.3-0.3,0.4c0,0.3,0.3,0.4,0.9,0.4h0.9c0.6,0,1.1,0.1,1.4,0.3c0.3,0.2,0.5,0.5,0.5,0.9
		c0,0.2-0.1,0.4-0.2,0.6s-0.3,0.4-0.5,0.5s-0.5,0.3-0.8,0.3C211.9,215.5,211.5,215.6,211.1,215.6z M211.1,211.4
		c0.2,0,0.4-0.1,0.6-0.2c0.2-0.2,0.2-0.4,0.2-0.7c0-0.3-0.1-0.5-0.2-0.7c-0.2-0.2-0.4-0.2-0.6-0.2s-0.4,0.1-0.6,0.2
		c-0.2,0.2-0.2,0.4-0.2,0.7c0,0.3,0.1,0.5,0.2,0.7C210.7,211.3,210.9,211.4,211.1,211.4z M211.2,214.9c0.2,0,0.4,0,0.6-0.1
		c0.2,0,0.3-0.1,0.5-0.2c0.1-0.1,0.2-0.1,0.3-0.2c0.1-0.1,0.1-0.2,0.1-0.3c0-0.2-0.1-0.3-0.2-0.4s-0.4-0.1-0.7-0.1h-0.7
		c-0.3,0-0.5,0-0.7-0.1c-0.2,0.1-0.3,0.2-0.4,0.3c-0.1,0.1-0.1,0.2-0.1,0.3c0,0.2,0.1,0.4,0.3,0.5
		C210.5,214.8,210.8,214.9,211.2,214.9z M216.8,213.7c-0.3,0-0.6-0.1-0.9-0.2s-0.5-0.3-0.7-0.5s-0.4-0.5-0.5-0.8s-0.2-0.6-0.2-1
		s0.1-0.7,0.2-1s0.3-0.6,0.5-0.8c0.2-0.2,0.5-0.4,0.7-0.5c0.3-0.1,0.6-0.2,0.9-0.2s0.6,0.1,0.9,0.2s0.5,0.3,0.7,0.5s0.4,0.4,0.5,0.8
		c0.1,0.3,0.2,0.6,0.2,1s-0.1,0.7-0.2,1s-0.3,0.5-0.5,0.8c-0.2,0.2-0.5,0.4-0.7,0.5C217.4,213.6,217.1,213.7,216.8,213.7z
		 M216.8,212.8c0.4,0,0.7-0.1,0.9-0.4c0.2-0.3,0.3-0.7,0.3-1.1c0-0.5-0.1-0.8-0.3-1.1c-0.2-0.3-0.5-0.4-0.9-0.4s-0.7,0.1-0.9,0.4
		c-0.2,0.3-0.3,0.6-0.3,1.1s0.1,0.8,0.3,1.1C216.2,212.6,216.4,212.8,216.8,212.8z M220.8,213.5v-4.6h0.9l0.1,1l0,0
		c0.2-0.4,0.5-0.7,0.9-0.8c0.3-0.2,0.7-0.3,1.1-0.3c0.2,0,0.3,0,0.5,0c0.1,0,0.3,0.1,0.4,0.1l-0.2,0.9c-0.1-0.1-0.3-0.1-0.4-0.1
		s-0.3,0-0.4,0c-0.3,0-0.6,0.1-0.9,0.3s-0.6,0.5-0.8,0.9v2.5h-1.2V213.5z M228,213.5v-3.7h-2V209h3.1v4.6H228V213.5z M228,208.1
		c-0.2,0-0.4-0.1-0.5-0.2s-0.2-0.3-0.2-0.5s0.1-0.4,0.2-0.5s0.3-0.2,0.5-0.2s0.4,0.1,0.5,0.2s0.2,0.3,0.2,0.5s-0.1,0.4-0.2,0.5
		C228.4,208.1,228.2,208.1,228,208.1z M233.9,213.7c-0.3,0-0.7-0.1-1-0.2s-0.6-0.3-0.8-0.5c-0.2-0.2-0.4-0.5-0.5-0.8s-0.2-0.6-0.2-1
		s0.1-0.7,0.2-1s0.3-0.5,0.5-0.8c0.2-0.2,0.5-0.4,0.8-0.5s0.6-0.2,0.9-0.2s0.6,0.1,0.9,0.2s0.5,0.2,0.7,0.4c0.2,0.2,0.3,0.4,0.4,0.7
		c0.1,0.3,0.1,0.6,0.1,0.9c0,0.1,0,0.2,0,0.3c0,0.1,0,0.2,0,0.2h-3.4c0.1,0.4,0.2,0.8,0.5,1s0.6,0.3,1.1,0.3c0.2,0,0.5,0,0.7-0.1
		s0.4-0.2,0.6-0.3l0.4,0.7c-0.2,0.2-0.5,0.3-0.8,0.4C234.5,213.6,234.2,213.7,233.9,213.7z M233.8,209.7c-0.3,0-0.6,0.1-0.8,0.3
		c-0.2,0.2-0.4,0.5-0.5,0.8h2.4c0-0.4-0.2-0.6-0.4-0.8C234.4,209.8,234.1,209.7,233.8,209.7z M239.2,213.7c-0.4,0-0.8-0.1-1.2-0.2
		c-0.4-0.1-0.7-0.3-1-0.5l0.5-0.7c0.3,0.2,0.6,0.3,0.9,0.4s0.7,0.1,1,0.1s0.5-0.1,0.7-0.2s0.2-0.2,0.2-0.4c0-0.1,0-0.1,0-0.2
		s-0.1-0.1-0.2-0.2s-0.2-0.1-0.4-0.2c-0.2-0.1-0.4-0.1-0.7-0.2c-0.6-0.1-1.1-0.3-1.3-0.5c-0.3-0.2-0.4-0.5-0.4-0.9s0.2-0.7,0.5-1
		c0.4-0.3,0.9-0.4,1.5-0.4c0.4,0,0.7,0.1,1.1,0.2c0.3,0.1,0.6,0.3,0.8,0.4l-0.5,0.7c-0.2-0.1-0.5-0.3-0.7-0.3
		c-0.2-0.1-0.5-0.1-0.8-0.1s-0.5,0-0.7,0.1c-0.1,0.1-0.2,0.2-0.2,0.4c0,0.2,0.1,0.3,0.3,0.4c0.2,0.1,0.5,0.2,0.9,0.3
		c0.4,0.1,0.7,0.2,0.9,0.3c0.2,0.1,0.4,0.2,0.6,0.3c0.1,0.1,0.2,0.2,0.3,0.4c0.1,0.1,0.1,0.3,0.1,0.5s0,0.4-0.1,0.6
		s-0.2,0.3-0.4,0.5c-0.2,0.1-0.4,0.2-0.7,0.3C239.9,213.6,239.6,213.7,239.2,213.7z"/>
	<path class="st0" d="M151.6,132.1h119.6l5.3,5.3V164l0,0H156.9l-5.3-5.3V132.1z"/>
	<path class="st1" d="M195.3,151.5v-6.1h2c0.3,0,0.6,0,0.9,0.1c0.3,0.1,0.5,0.2,0.7,0.3s0.4,0.3,0.5,0.6c0.1,0.2,0.2,0.5,0.2,0.9
		c0,0.3-0.1,0.6-0.2,0.9c-0.1,0.2-0.3,0.5-0.5,0.6c-0.2,0.2-0.5,0.3-0.7,0.4c-0.3,0.1-0.6,0.1-0.9,0.1h-1v2.2H195.3z M196.3,148.4
		h0.8c0.9,0,1.3-0.4,1.3-1.1c0-0.4-0.1-0.7-0.3-0.8s-0.6-0.2-1-0.2h-0.8V148.4z M201.3,151.5v-4.6h0.9l0.1,1l0,0
		c0.2-0.4,0.5-0.7,0.9-0.8c0.3-0.2,0.7-0.3,1.1-0.3c0.2,0,0.3,0,0.5,0c0.1,0,0.3,0.1,0.4,0.1l-0.2,0.9c-0.1-0.1-0.3-0.1-0.4-0.1
		s-0.3,0-0.4,0c-0.3,0-0.6,0.1-0.9,0.3c-0.3,0.2-0.6,0.5-0.8,0.9v2.5h-1.2V151.5z M208.4,151.6c-0.3,0-0.6-0.1-0.9-0.2
		c-0.3-0.1-0.5-0.3-0.7-0.5s-0.4-0.5-0.5-0.8s-0.2-0.6-0.2-1s0.1-0.7,0.2-1s0.3-0.6,0.5-0.8s0.5-0.4,0.7-0.5
		c0.3-0.1,0.6-0.2,0.9-0.2s0.6,0.1,0.9,0.2c0.3,0.1,0.5,0.3,0.7,0.5s0.4,0.4,0.5,0.8c0.1,0.3,0.2,0.6,0.2,1s-0.1,0.7-0.2,1
		s-0.3,0.5-0.5,0.8c-0.2,0.2-0.5,0.4-0.7,0.5C209,151.6,208.7,151.6,208.4,151.6z M208.4,150.8c0.4,0,0.7-0.1,0.9-0.4
		c0.2-0.3,0.3-0.7,0.3-1.1c0-0.5-0.1-0.8-0.3-1.1c-0.2-0.3-0.5-0.4-0.9-0.4s-0.7,0.1-0.9,0.4c-0.2,0.3-0.3,0.6-0.3,1.1
		s0.1,0.8,0.3,1.1C207.8,150.6,208.1,150.8,208.4,150.8z M213.7,151.6c-0.3,0-0.6-0.1-0.8-0.2c-0.2-0.1-0.4-0.3-0.6-0.5
		s-0.3-0.5-0.4-0.8s-0.1-0.6-0.1-1s0.1-0.7,0.2-1s0.3-0.6,0.5-0.8s0.4-0.4,0.7-0.5c0.2-0.1,0.5-0.2,0.8-0.2s0.5,0,0.7,0.1
		s0.4,0.2,0.6,0.4l0,0l-0.1-0.8v-1.7h1.1v6.6h-0.9l-0.1-0.5l0,0c-0.2,0.2-0.4,0.3-0.6,0.5C214.2,151.6,213.9,151.6,213.7,151.6z
		 M213.9,150.8c0.4,0,0.7-0.2,1-0.5v-2.1c-0.2-0.2-0.3-0.3-0.5-0.3c-0.2-0.1-0.3-0.1-0.5-0.1s-0.3,0-0.5,0.1
		c-0.1,0.1-0.3,0.2-0.4,0.3s-0.2,0.3-0.2,0.5c-0.1,0.2-0.1,0.4-0.1,0.6c0,0.5,0.1,0.9,0.3,1.1C213.3,150.6,213.6,150.8,213.9,150.8z
		 M219,151.6c-0.5,0-0.9-0.2-1.2-0.5c-0.2-0.3-0.4-0.8-0.4-1.4v-2.8h1.1v2.7c0,0.4,0.1,0.7,0.2,0.8c0.1,0.2,0.4,0.2,0.7,0.2
		c0.2,0,0.4,0,0.6-0.1s0.4-0.3,0.6-0.5v-3.1h1.1v4.6h-0.9l-0.1-0.7l0,0c-0.2,0.3-0.5,0.5-0.7,0.6C219.7,151.6,219.4,151.6,219,151.6
		z M225.6,151.6c-0.4,0-0.7-0.1-1-0.2c-0.3-0.1-0.6-0.3-0.8-0.5c-0.2-0.2-0.4-0.5-0.5-0.8s-0.2-0.6-0.2-1s0.1-0.7,0.2-1
		s0.3-0.6,0.6-0.8c0.2-0.2,0.5-0.4,0.8-0.5s0.7-0.2,1-0.2c0.4,0,0.7,0.1,1,0.2c0.3,0.1,0.5,0.3,0.7,0.5l-0.5,0.7
		c-0.2-0.1-0.4-0.3-0.5-0.3c-0.2-0.1-0.4-0.1-0.6-0.1c-0.5,0-0.8,0.1-1.1,0.4c-0.3,0.3-0.4,0.6-0.4,1.1c0,0.2,0,0.4,0.1,0.6
		c0.1,0.2,0.2,0.3,0.3,0.5c0.1,0.1,0.3,0.2,0.5,0.3s0.4,0.1,0.6,0.1c0.3,0,0.5,0,0.7-0.1s0.4-0.2,0.6-0.4l0.4,0.7
		c-0.3,0.2-0.6,0.4-0.9,0.5C226.3,151.6,226,151.6,225.6,151.6z M231.7,151.6c-0.3,0-0.6,0-0.9-0.1c-0.2-0.1-0.4-0.2-0.6-0.4
		c-0.1-0.2-0.3-0.4-0.3-0.6c-0.1-0.2-0.1-0.5-0.1-0.8v-1.9h-1.2V147h1.3l0.1-1.4h0.9v1.4h2.1v0.8h-2.1v1.9c0,0.4,0.1,0.7,0.2,0.8
		c0.2,0.2,0.4,0.3,0.8,0.3c0.2,0,0.4,0,0.5,0c0.2,0,0.3-0.1,0.5-0.1l0.2,0.8c-0.2,0.1-0.4,0.1-0.7,0.2
		C232.2,151.6,232,151.6,231.7,151.6z"/>
	<path class="st3" d="M124.9,88.7H214v43.5"/>
	<path class="st4" d="M124.9,88.7H214v34.5"/>
	<path class="st5" d="M211.8,123.1l2.2,6.1l2.2-6.1H211.8z"/>
	<path class="st3" d="M62.5,104.6v11h0.1v11"/>
	<path class="st4" d="M62.5,104.6v11h0.1v2"/>
	<path class="st5" d="M60.3,117.6l2.2,6.1l2.2-6.1H60.3z"/>
	<path class="st3" d="M214,164v10.9h0.1v10.9"/>
	<path class="st4" d="M214,164v10.9h0.1v1.9"/>
	<path class="st5" d="M211.9,176.9l2.2,6.1l2.2-6.1H211.9z"/>
	<path class="st2" d="M151.6,245.1h118.7l6.2,6.2v31.2l0,0H157.8l-6.2-6.2V245.1z"/>
	<path class="st1" d="M169.3,267.4c-0.4,0-0.8-0.1-1.2-0.2c-0.4-0.2-0.7-0.4-1-0.7l0.6-0.7c0.2,0.2,0.5,0.4,0.8,0.5
		c0.3,0.1,0.6,0.2,0.9,0.2c0.4,0,0.6-0.1,0.8-0.2c0.2-0.1,0.3-0.3,0.3-0.5c0-0.1,0-0.2-0.1-0.3c0-0.1-0.1-0.2-0.2-0.2
		c-0.1-0.1-0.2-0.1-0.3-0.2c-0.1-0.1-0.3-0.1-0.4-0.2l-0.8-0.4c-0.2-0.1-0.3-0.1-0.5-0.2c-0.2-0.1-0.3-0.2-0.4-0.3
		c-0.1-0.1-0.2-0.3-0.3-0.5s-0.1-0.4-0.1-0.6s0.1-0.5,0.2-0.7c0.1-0.2,0.2-0.4,0.4-0.5c0.2-0.1,0.4-0.3,0.7-0.4
		c0.3-0.1,0.5-0.1,0.8-0.1c0.4,0,0.7,0.1,1.1,0.2c0.3,0.1,0.6,0.3,0.9,0.6l-0.6,0.7c-0.2-0.2-0.4-0.3-0.7-0.4
		c-0.2-0.1-0.5-0.1-0.8-0.1s-0.5,0.1-0.7,0.2c-0.2,0.1-0.3,0.3-0.3,0.5c0,0.1,0,0.2,0.1,0.3c0.1,0.1,0.1,0.2,0.2,0.2
		c0.1,0.1,0.2,0.1,0.3,0.2c0.1,0,0.3,0.1,0.4,0.2l0.8,0.3c0.2,0.1,0.4,0.2,0.5,0.3c0.2,0.1,0.3,0.2,0.4,0.3c0.1,0.1,0.2,0.3,0.3,0.5
		s0.1,0.4,0.1,0.6s-0.1,0.5-0.2,0.7c-0.1,0.2-0.3,0.4-0.5,0.6s-0.4,0.3-0.7,0.4C169.8,267.6,169.7,267.4,169.3,267.4z M172.8,267.3
		v-6.6h1.1v1.7l-0.1,1l0,0c0.2-0.2,0.4-0.4,0.7-0.5c0.3-0.2,0.6-0.2,0.9-0.2c0.5,0,0.9,0.2,1.2,0.5c0.2,0.3,0.4,0.8,0.4,1.4v2.8
		h-1.1v-2.7c0-0.4-0.1-0.6-0.2-0.8c-0.1-0.2-0.3-0.3-0.7-0.3c-0.2,0-0.4,0.1-0.6,0.2c-0.2,0.1-0.4,0.3-0.6,0.5v3.1h-1L172.8,267.3
		L172.8,267.3z M180.5,267.4c-0.3,0-0.6-0.1-0.9-0.2c-0.3-0.1-0.5-0.3-0.7-0.5s-0.4-0.5-0.5-0.8s-0.2-0.6-0.2-1c0-0.4,0.1-0.7,0.2-1
		c0.1-0.3,0.3-0.6,0.5-0.8c0.2-0.2,0.5-0.4,0.7-0.5c0.3-0.1,0.6-0.2,0.9-0.2c0.3,0,0.6,0.1,0.9,0.2c0.3,0.1,0.5,0.3,0.7,0.5
		s0.4,0.4,0.5,0.8c0.1,0.3,0.2,0.6,0.2,1c0,0.4-0.1,0.7-0.2,1c-0.1,0.3-0.3,0.5-0.5,0.8c-0.2,0.2-0.5,0.4-0.7,0.5
		C181.1,267.4,180.8,267.4,180.5,267.4z M180.5,266.6c0.4,0,0.7-0.1,0.9-0.4s0.3-0.7,0.3-1.1c0-0.5-0.1-0.8-0.3-1.1
		s-0.5-0.4-0.9-0.4s-0.7,0.1-0.9,0.4s-0.3,0.6-0.3,1.1s0.1,0.8,0.3,1.1C179.8,266.4,180.1,266.6,180.5,266.6z M184.2,267.3l-0.9-4.6
		h1l0.4,2.4c0,0.2,0.1,0.5,0.1,0.7s0.1,0.4,0.1,0.6l0,0c0-0.2,0.1-0.4,0.1-0.7c0-0.3,0.1-0.4,0.1-0.7l0.4-1.9h0.9l0.4,1.9
		c0.1,0.2,0.1,0.5,0.1,0.7c0.1,0.2,0.1,0.4,0.1,0.6l0,0c0-0.2,0.1-0.4,0.1-0.6s0.1-0.4,0.1-0.7l0.4-2.4h1l-0.8,4.6h-1.3l-0.4-1.8
		c-0.1-0.4-0.1-0.8-0.2-1.4l0,0c0,0.2-0.1,0.5-0.1,0.7s-0.1,0.4-0.1,0.7l-0.4,1.8L184.2,267.3L184.2,267.3z M195.3,267.3v-6.1h2
		c0.3,0,0.6,0,0.9,0.1c0.3,0.1,0.5,0.2,0.7,0.3c0.2,0.1,0.4,0.3,0.5,0.6c0.1,0.2,0.2,0.5,0.2,0.9c0,0.3-0.1,0.6-0.2,0.9
		c-0.1,0.2-0.3,0.5-0.5,0.6c-0.2,0.2-0.5,0.3-0.7,0.4c-0.3,0.1-0.6,0.1-0.9,0.1h-0.9v2.2H195.3z M196.4,264.2h0.8
		c0.9,0,1.3-0.4,1.3-1.1c0-0.4-0.1-0.7-0.3-0.8s-0.6-0.2-1-0.2h-0.8V264.2z M201.3,267.3v-4.6h0.9l0.1,1l0,0
		c0.2-0.4,0.5-0.7,0.9-0.8c0.3-0.2,0.7-0.3,1.1-0.3c0.2,0,0.3,0,0.5,0c0.1,0,0.3,0.1,0.4,0.1l-0.2,0.9c-0.1-0.1-0.3-0.1-0.4-0.1
		s-0.3,0-0.4,0c-0.3,0-0.6,0.1-0.9,0.3c-0.3,0.2-0.6,0.5-0.8,0.9v2.5L201.3,267.3L201.3,267.3z M208.5,267.4c-0.3,0-0.6-0.1-0.9-0.2
		c-0.3-0.1-0.5-0.3-0.7-0.5s-0.4-0.5-0.5-0.8s-0.2-0.6-0.2-1c0-0.4,0.1-0.7,0.2-1s0.3-0.6,0.5-0.8c0.2-0.2,0.5-0.4,0.7-0.5
		c0.3-0.1,0.6-0.2,0.9-0.2s0.6,0.1,0.9,0.2c0.3,0.1,0.5,0.3,0.7,0.5s0.4,0.4,0.5,0.8c0.1,0.3,0.2,0.6,0.2,1c0,0.4-0.1,0.7-0.2,1
		s-0.3,0.5-0.5,0.8c-0.2,0.2-0.5,0.4-0.7,0.5C209,267.4,208.8,267.4,208.5,267.4z M208.5,266.6c0.4,0,0.7-0.1,0.9-0.4
		c0.2-0.3,0.3-0.7,0.3-1.1c0-0.5-0.1-0.8-0.3-1.1c-0.2-0.3-0.5-0.4-0.9-0.4s-0.7,0.1-0.9,0.4c-0.2,0.3-0.3,0.6-0.3,1.1
		s0.1,0.8,0.3,1.1C207.8,266.4,208.1,266.6,208.5,266.6z M213.7,267.4c-0.3,0-0.6-0.1-0.8-0.2c-0.2-0.1-0.4-0.3-0.6-0.5
		s-0.3-0.5-0.4-0.8s-0.1-0.6-0.1-1c0-0.4,0.1-0.7,0.2-1s0.3-0.6,0.5-0.8c0.2-0.2,0.4-0.4,0.7-0.5c0.2-0.1,0.5-0.2,0.8-0.2
		s0.5,0,0.7,0.1c0.2,0.1,0.4,0.2,0.6,0.4l0,0l-0.1-0.8v-1.7h1.1v6.6h-0.9l-0.1-0.5l0,0c-0.2,0.2-0.4,0.3-0.6,0.5
		S214,267.4,213.7,267.4z M214,266.5c0.4,0,0.7-0.2,1-0.5v-2.1c-0.2-0.2-0.3-0.3-0.5-0.3c-0.2-0.1-0.3-0.1-0.5-0.1s-0.3,0-0.5,0.1
		c-0.1,0.1-0.3,0.2-0.4,0.3s-0.2,0.3-0.2,0.5s-0.1,0.4-0.1,0.6c0,0.5,0.1,0.9,0.3,1.1C213.3,266.4,213.6,266.5,214,266.5z
		 M219,267.4c-0.5,0-0.9-0.2-1.2-0.5c-0.2-0.3-0.4-0.8-0.4-1.4v-2.8h1.1v2.7c0,0.4,0.1,0.7,0.2,0.8c0.1,0.2,0.4,0.2,0.7,0.2
		c0.2,0,0.4,0,0.6-0.1c0.2-0.1,0.4-0.3,0.6-0.5v-3.1h1.1v4.6h-0.9l-0.1-0.7l0,0c-0.2,0.3-0.5,0.5-0.7,0.6
		C219.7,267.4,219.4,267.4,219,267.4z M225.7,267.4c-0.4,0-0.7-0.1-1-0.2c-0.3-0.1-0.6-0.3-0.8-0.5c-0.2-0.2-0.4-0.5-0.5-0.8
		s-0.2-0.6-0.2-1c0-0.4,0.1-0.7,0.2-1s0.3-0.6,0.6-0.8c0.2-0.2,0.5-0.4,0.8-0.5c0.3-0.1,0.7-0.2,1-0.2c0.4,0,0.7,0.1,1,0.2
		c0.3,0.1,0.5,0.3,0.7,0.5l-0.5,0.7c-0.2-0.1-0.4-0.3-0.5-0.3c-0.2-0.1-0.4-0.1-0.6-0.1c-0.5,0-0.8,0.1-1.1,0.4
		c-0.3,0.3-0.4,0.6-0.4,1.1c0,0.2,0,0.4,0.1,0.6s0.2,0.3,0.3,0.5c0.1,0.1,0.3,0.2,0.5,0.3s0.4,0.1,0.6,0.1c0.3,0,0.5,0,0.7-0.1
		c0.2-0.1,0.4-0.2,0.6-0.4l0.4,0.7c-0.3,0.2-0.6,0.4-0.9,0.5C226.3,267.4,226,267.4,225.7,267.4z M231.7,267.4c-0.3,0-0.6,0-0.9-0.1
		c-0.3-0.1-0.4-0.2-0.6-0.4c-0.1-0.2-0.3-0.4-0.3-0.6c-0.1-0.2-0.1-0.5-0.1-0.8v-1.9h-1.2v-0.8h1.3l0.1-1.4h0.9v1.4h2.1v0.8h-2.1
		v1.9c0,0.4,0.1,0.7,0.2,0.8c0.2,0.2,0.4,0.3,0.8,0.3c0.2,0,0.4,0,0.5,0c0.2,0,0.3-0.1,0.5-0.1l0.2,0.8c-0.2,0.1-0.4,0.1-0.7,0.2
		C232.3,267.4,232,267.4,231.7,267.4z M240.4,267.3v-6.1h1.1v5.2h2.9v0.9H240.4z M247.6,267.3v-3.7h-2v-0.8h3.1v4.6h-1.1V267.3z
		 M247.6,261.9c-0.2,0-0.4-0.1-0.5-0.2c-0.1-0.1-0.2-0.3-0.2-0.5s0.1-0.4,0.2-0.5c0.1-0.1,0.3-0.2,0.5-0.2s0.4,0.1,0.5,0.2
		c0.1,0.1,0.2,0.3,0.2,0.5s-0.1,0.4-0.2,0.5C248,261.8,247.9,261.9,247.6,261.9z M253.3,267.4c-0.4,0-0.8-0.1-1.2-0.2
		c-0.4-0.1-0.7-0.3-1-0.5l0.5-0.7c0.3,0.2,0.6,0.3,0.9,0.4c0.3,0.1,0.7,0.1,1,0.1s0.5-0.1,0.7-0.2c0.2-0.1,0.2-0.2,0.2-0.4
		c0-0.1,0-0.1,0-0.2c0-0.1-0.1-0.1-0.2-0.2c-0.1-0.1-0.2-0.1-0.4-0.2c-0.2-0.1-0.4-0.1-0.7-0.2c-0.6-0.1-1.1-0.3-1.3-0.5
		c-0.3-0.2-0.4-0.5-0.4-0.9c0-0.4,0.2-0.7,0.5-1c0.4-0.3,0.9-0.4,1.5-0.4c0.4,0,0.7,0.1,1.1,0.2c0.4,0.1,0.6,0.3,0.8,0.4l-0.5,0.7
		c-0.2-0.1-0.5-0.3-0.7-0.3c-0.2-0.1-0.5-0.1-0.8-0.1s-0.5,0-0.7,0.1c-0.1,0.1-0.2,0.2-0.2,0.4c0,0.2,0.1,0.3,0.3,0.4
		c0.2,0.1,0.5,0.2,0.9,0.3s0.7,0.2,0.9,0.3s0.4,0.2,0.6,0.3c0.1,0.1,0.2,0.2,0.3,0.4c0.1,0.1,0.1,0.3,0.1,0.5s0,0.4-0.1,0.6
		s-0.2,0.3-0.4,0.5c-0.2,0.1-0.4,0.2-0.7,0.3C253.9,267.4,253.6,267.4,253.3,267.4z M259.7,267.4c-0.3,0-0.6,0-0.9-0.1
		c-0.3-0.1-0.4-0.2-0.6-0.4c-0.1-0.2-0.3-0.4-0.3-0.6c-0.1-0.2-0.1-0.5-0.1-0.8v-1.9h-1.2v-0.8h1.3l0.1-1.4h0.9v1.4h2.1v0.8h-2.1
		v1.9c0,0.4,0.1,0.7,0.2,0.8c0.2,0.2,0.4,0.3,0.8,0.3c0.2,0,0.4,0,0.5,0c0.2,0,0.3-0.1,0.5-0.1l0.2,0.8c-0.2,0.1-0.4,0.1-0.7,0.2
		C260.2,267.4,260,267.4,259.7,267.4z"/>
	<path class="st3" d="M214,223.3v10.9h0.1v10.9"/>
	<path class="st4" d="M214,223.3v10.9h0.1v1.9"/>
	<path class="st5" d="M211.9,236.1l2.2,6.1l2.2-6.1H211.9z"/>
	<path class="st0" d="M151.6,304.4h118.7l6.2,6.2v31.2l0,0H157.8l-6.2-6.2V304.4z"/>
	<path class="st1" d="M175.7,326.6v-6.1h2c0.3,0,0.6,0,0.9,0.1c0.3,0.1,0.5,0.2,0.7,0.3c0.2,0.1,0.4,0.3,0.5,0.6
		c0.1,0.2,0.2,0.5,0.2,0.9c0,0.3-0.1,0.6-0.2,0.9c-0.1,0.2-0.3,0.5-0.5,0.6c-0.2,0.2-0.5,0.3-0.7,0.4c-0.3,0.1-0.6,0.1-0.9,0.1h-0.9
		v2.2H175.7z M176.8,323.5h0.8c0.9,0,1.3-0.4,1.3-1.1c0-0.4-0.1-0.7-0.3-0.8s-0.6-0.2-1-0.2h-0.8V323.5z M181.7,326.6V322h0.9l0.1,1
		l0,0c0.2-0.4,0.5-0.7,0.9-0.8c0.3-0.2,0.7-0.3,1.1-0.3c0.2,0,0.3,0,0.5,0c0.1,0,0.3,0.1,0.4,0.1l-0.2,0.9c-0.1-0.1-0.3-0.1-0.4-0.1
		c-0.1,0-0.3,0-0.4,0c-0.3,0-0.6,0.1-0.9,0.3c-0.3,0.2-0.6,0.5-0.8,0.9v2.5L181.7,326.6L181.7,326.6L181.7,326.6z M188.9,326.7
		c-0.3,0-0.6-0.1-0.9-0.2c-0.3-0.1-0.5-0.3-0.7-0.5s-0.4-0.5-0.5-0.8s-0.2-0.6-0.2-1c0-0.4,0.1-0.7,0.2-1c0.1-0.3,0.3-0.6,0.5-0.8
		c0.2-0.2,0.5-0.4,0.7-0.5c0.3-0.1,0.6-0.2,0.9-0.2c0.3,0,0.6,0.1,0.9,0.2c0.3,0.1,0.5,0.3,0.7,0.5s0.4,0.4,0.5,0.8
		c0.1,0.3,0.2,0.6,0.2,1c0,0.4-0.1,0.7-0.2,1c-0.1,0.3-0.3,0.5-0.5,0.8c-0.2,0.2-0.5,0.4-0.7,0.5
		C189.5,326.7,189.2,326.7,188.9,326.7z M188.9,325.8c0.4,0,0.7-0.1,0.9-0.4s0.3-0.7,0.3-1.1c0-0.5-0.1-0.8-0.3-1.1
		s-0.5-0.4-0.9-0.4s-0.7,0.1-0.9,0.4s-0.3,0.6-0.3,1.1s0.1,0.8,0.3,1.1C188.2,325.7,188.5,325.8,188.9,325.8z M194.1,326.7
		c-0.3,0-0.6-0.1-0.8-0.2c-0.2-0.1-0.4-0.3-0.6-0.5c-0.2-0.2-0.3-0.5-0.4-0.8c-0.1-0.3-0.1-0.6-0.1-1c0-0.4,0.1-0.7,0.2-1
		c0.1-0.3,0.3-0.6,0.5-0.8c0.2-0.2,0.4-0.4,0.7-0.5c0.2-0.1,0.5-0.2,0.8-0.2s0.5,0,0.7,0.1c0.2,0.1,0.4,0.2,0.6,0.4l0,0l-0.1-0.8
		v-1.7h1.1v6.6h-0.9l-0.1-0.5l0,0c-0.2,0.2-0.4,0.3-0.6,0.5C194.6,326.6,194.4,326.7,194.1,326.7z M194.4,325.8c0.4,0,0.7-0.2,1-0.5
		v-2.1c-0.2-0.2-0.3-0.3-0.5-0.3c-0.2-0.1-0.3-0.1-0.5-0.1s-0.3,0-0.5,0.1c-0.1,0.1-0.3,0.2-0.4,0.3c-0.1,0.1-0.2,0.3-0.2,0.5
		s-0.1,0.4-0.1,0.6c0,0.5,0.1,0.9,0.3,1.1C193.8,325.7,194,325.8,194.4,325.8z M199.5,326.7c-0.5,0-0.9-0.2-1.2-0.5
		c-0.2-0.3-0.4-0.8-0.4-1.4V322h1.1v2.7c0,0.4,0.1,0.7,0.2,0.8c0.1,0.2,0.4,0.2,0.7,0.2c0.2,0,0.4,0,0.6-0.1
		c0.2-0.1,0.4-0.3,0.6-0.5V322h1.1v4.6h-0.9l-0.1-0.7l0,0c-0.2,0.3-0.5,0.5-0.7,0.6C200.1,326.6,199.8,326.7,199.5,326.7z
		 M206.1,326.7c-0.4,0-0.7-0.1-1-0.2c-0.3-0.1-0.6-0.3-0.8-0.5c-0.2-0.2-0.4-0.5-0.5-0.8s-0.2-0.6-0.2-1c0-0.4,0.1-0.7,0.2-1
		s0.3-0.6,0.6-0.8c0.2-0.2,0.5-0.4,0.8-0.5c0.3-0.1,0.7-0.2,1-0.2c0.4,0,0.7,0.1,1,0.2c0.3,0.1,0.5,0.3,0.7,0.5l-0.6,0.8
		c-0.2-0.1-0.4-0.3-0.5-0.3c-0.2-0.1-0.4-0.1-0.6-0.1c-0.5,0-0.8,0.1-1.1,0.4c-0.3,0.3-0.4,0.6-0.4,1.1c0,0.2,0,0.4,0.1,0.6
		s0.2,0.3,0.3,0.5c0.1,0.1,0.3,0.2,0.5,0.3s0.4,0.1,0.6,0.1c0.3,0,0.5,0,0.7-0.1c0.2-0.1,0.4-0.2,0.6-0.4l0.4,0.7
		c-0.3,0.2-0.6,0.4-0.9,0.5C206.7,326.7,206.4,326.7,206.1,326.7z M212.1,326.7c-0.3,0-0.6,0-0.9-0.1c-0.2-0.1-0.4-0.2-0.6-0.4
		c-0.1-0.2-0.3-0.4-0.3-0.6c-0.1-0.2-0.1-0.5-0.1-0.8v-1.9H209v-0.8h1.3l0.1-1.4h0.9v1.4h2.1v0.8h-2.1v1.9c0,0.4,0.1,0.7,0.2,0.8
		c0.2,0.2,0.4,0.3,0.8,0.3c0.2,0,0.4,0,0.5,0c0.2,0,0.3-0.1,0.5-0.1l0.2,0.8c-0.2,0.1-0.4,0.1-0.7,0.2
		C212.7,326.7,212.4,326.7,212.1,326.7z M220.4,326.6v-6.1h1.6c0.9,0,1.6,0.2,2.1,0.8c0.5,0.5,0.8,1.3,0.8,2.3
		c0,0.5-0.1,0.9-0.2,1.3c-0.1,0.4-0.3,0.7-0.6,1c-0.2,0.3-0.5,0.5-0.9,0.6c-0.3,0.1-0.7,0.2-1.2,0.2L220.4,326.6L220.4,326.6z
		 M221.5,325.7h0.5c0.6,0,1-0.2,1.3-0.5c0.3-0.4,0.5-0.9,0.5-1.7c0-0.8-0.2-1.3-0.5-1.6c-0.3-0.3-0.8-0.5-1.3-0.5h-0.5V325.7z
		 M228.3,326.7c-0.3,0-0.7-0.1-1-0.2c-0.3-0.1-0.6-0.3-0.8-0.5c-0.2-0.2-0.4-0.5-0.5-0.8s-0.2-0.6-0.2-1c0-0.4,0.1-0.7,0.2-1
		s0.3-0.5,0.5-0.8c0.2-0.2,0.5-0.4,0.8-0.5c0.3-0.1,0.6-0.2,0.9-0.2s0.6,0.1,0.9,0.2c0.3,0.1,0.5,0.2,0.7,0.4
		c0.2,0.2,0.3,0.4,0.4,0.7s0.1,0.6,0.1,0.9c0,0.1,0,0.2,0,0.3s0,0.2,0,0.2h-3.4c0.1,0.4,0.2,0.8,0.5,1s0.6,0.3,1.1,0.3
		c0.2,0,0.5,0,0.7-0.1c0.2-0.1,0.4-0.2,0.6-0.3l0.4,0.7c-0.2,0.2-0.5,0.3-0.8,0.4C229,326.7,228.7,326.7,228.3,326.7z M228.2,322.7
		c-0.3,0-0.6,0.1-0.8,0.3c-0.2,0.2-0.4,0.5-0.5,0.8h2.4c0-0.4-0.2-0.6-0.4-0.8C228.7,322.8,228.5,322.7,228.2,322.7z M234.5,326.7
		c-0.3,0-0.6,0-0.9-0.1c-0.2-0.1-0.4-0.2-0.6-0.4c-0.1-0.2-0.3-0.4-0.3-0.6c-0.1-0.2-0.1-0.5-0.1-0.8v-1.9h-1.2v-0.8h1.3l0.1-1.4
		h0.9v1.4h2.1v0.8h-2.1v1.9c0,0.4,0.1,0.7,0.2,0.8c0.2,0.2,0.4,0.3,0.8,0.3c0.2,0,0.4,0,0.5,0c0.2,0,0.3-0.1,0.5-0.1l0.2,0.8
		c-0.2,0.1-0.4,0.1-0.7,0.2C235.1,326.7,234.8,326.7,234.5,326.7z M238.6,326.7c-0.2,0-0.4,0-0.6-0.1c-0.2-0.1-0.3-0.2-0.5-0.3
		c-0.1-0.1-0.2-0.3-0.3-0.4c-0.1-0.2-0.1-0.3-0.1-0.5s0.1-0.5,0.2-0.7s0.3-0.4,0.6-0.5c0.3-0.1,0.6-0.2,1-0.3
		c0.4-0.1,0.9-0.2,1.5-0.2c0-0.3-0.1-0.5-0.3-0.7c-0.2-0.2-0.4-0.2-0.8-0.2c-0.3,0-0.5,0.1-0.8,0.2c-0.2,0.1-0.5,0.2-0.7,0.3
		l-0.4-0.7c0.3-0.2,0.6-0.3,1-0.4c0.4-0.1,0.7-0.2,1.1-0.2c0.6,0,1.1,0.2,1.5,0.5c0.3,0.3,0.5,0.8,0.5,1.5v2.7h-0.9l-0.1-0.6l0,0
		c-0.2,0.2-0.5,0.3-0.8,0.5C239.2,326.6,238.9,326.7,238.6,326.7z M239,325.9c0.2,0,0.4,0,0.7-0.1c0.2-0.1,0.4-0.2,0.7-0.4v-1
		c-0.4,0-0.8,0.1-1,0.1c-0.3,0.1-0.5,0.1-0.7,0.2c-0.2,0.1-0.3,0.2-0.3,0.3c-0.1,0.1-0.1,0.2-0.1,0.3c0,0.2,0.1,0.4,0.2,0.5
		C238.5,325.8,238.7,325.9,239,325.9z M244.8,326.6v-3.7h-2v-0.8h3.1v4.6h-1.1V326.6z M244.8,321.2c-0.2,0-0.4-0.1-0.5-0.2
		c-0.1-0.1-0.2-0.3-0.2-0.5s0.1-0.4,0.2-0.5c0.1-0.1,0.3-0.2,0.5-0.2s0.4,0.1,0.5,0.2c0.1,0.1,0.2,0.3,0.2,0.5s-0.1,0.4-0.2,0.5
		C245.2,321.1,245.1,321.2,244.8,321.2z M251.4,326.7c-0.5,0-0.9-0.2-1.2-0.5c-0.3-0.3-0.4-0.8-0.4-1.3v-4.1h-1.5V320h2.6v5
		c0,0.3,0.1,0.5,0.2,0.7s0.3,0.2,0.6,0.2c0.2,0,0.5-0.1,0.8-0.2l0.2,0.8c-0.2,0.1-0.4,0.2-0.6,0.2S251.6,326.7,251.4,326.7z"/>
	<path class="st3" d="M214.1,282.6v10.9h0.1v10.9"/>
	<path class="st4" d="M214.1,282.6v10.9h0.1v1.9"/>
	<path class="st5" d="M211.9,295.4l2.2,6.1l2.2-6.1H211.9z"/>
	<path class="st3" d="M62.5,164v40.6h89.1"/>
	<path class="st4" d="M62.5,164v40.6h80.1"/>
	<path class="st5" d="M142.6,206.8l6.1-2.2l-6.1-2.2V206.8z"/>
	<path class="st3" d="M276.5,263.9h25v-59.3h-24.9"/>
	<path class="st4" d="M276.5,263.9h25v-59.3h-15.9"/>
	<path class="st5" d="M285.6,202.4l-6.1,2.2l6.1,2.2V202.4z"/>
</g>
<g>
	<path class="st6" d="M433.6,0h99.9l5.6,5.6v28.2l0,0h-99.8l-5.6-5.6V0H433.6z"/>
	<path class="st7" d="M433.6,0h99.9l5.6,5.6v28.2l0,0h-99.8l-5.6-5.6V0H433.6z"/>
	<path class="st1" d="M474.2,20.6v-7h1.6v2.7h1.9v-2.7h1.6v7h-1.6v-2.9h-1.9v2.9H474.2z M483.2,20.7c-0.4,0-0.7-0.1-1-0.2
		s-0.6-0.3-0.9-0.5c-0.2-0.2-0.5-0.5-0.6-0.9c-0.1-0.3-0.2-0.7-0.2-1.2c0-0.4,0.1-0.8,0.2-1.2c0.2-0.4,0.4-0.6,0.6-0.9
		c0.2-0.2,0.5-0.4,0.9-0.5c0.3-0.1,0.7-0.2,1-0.2s0.7,0.1,1,0.2s0.6,0.3,0.9,0.5c0.3,0.2,0.5,0.5,0.6,0.9c0.1,0.3,0.2,0.7,0.2,1.2
		c0,0.4-0.1,0.8-0.2,1.2c-0.1,0.3-0.3,0.6-0.6,0.9c-0.2,0.2-0.5,0.4-0.9,0.5C483.8,20.7,483.5,20.7,483.2,20.7z M483.2,19.4
		c0.4,0,0.6-0.1,0.8-0.4s0.3-0.6,0.3-1.1s-0.1-0.8-0.3-1.1c-0.2-0.3-0.4-0.4-0.8-0.4c-0.4,0-0.6,0.1-0.8,0.4s-0.3,0.6-0.3,1.1
		s0.1,0.8,0.3,1.1C482.5,19.3,482.8,19.4,483.2,19.4z M486.7,20.6v-5.3h1.2l0.1,0.6l0,0c0.1-0.2,0.2-0.4,0.4-0.5
		c0.2-0.2,0.4-0.2,0.7-0.2c0.2,0,0.4,0.1,0.6,0.2c0.2,0.1,0.3,0.4,0.3,0.6c0.1-0.2,0.2-0.4,0.4-0.6s0.4-0.2,0.8-0.2
		c0.4,0,0.7,0.2,0.9,0.5s0.3,0.7,0.3,1.2v3.7h-1.5V17c0-0.2,0-0.3-0.1-0.3c0-0.1-0.1-0.1-0.2-0.1s-0.2,0-0.3,0.1s-0.1,0.2-0.2,0.4
		v3.6h-1.2v-3.6c0-0.3-0.1-0.5-0.3-0.5c-0.1,0-0.2,0-0.2,0.1s-0.1,0.2-0.2,0.4v3.6L486.7,20.6L486.7,20.6z M496.3,20.7
		c-0.4,0-0.8-0.1-1.2-0.2s-0.7-0.3-0.9-0.5c-0.3-0.2-0.5-0.5-0.6-0.9c-0.1-0.3-0.2-0.7-0.2-1.2c0-0.4,0.1-0.8,0.2-1.2
		c0.2-0.3,0.4-0.6,0.6-0.9c0.3-0.2,0.6-0.4,0.9-0.5c0.3-0.1,0.7-0.2,1-0.2c0.4,0,0.8,0.1,1.1,0.2s0.6,0.3,0.8,0.5s0.4,0.5,0.5,0.8
		s0.2,0.6,0.2,1c0,0.1,0,0.3,0,0.4s0,0.2,0,0.3h-3.6c0.1,0.4,0.2,0.7,0.5,0.8c0.3,0.2,0.6,0.3,1.1,0.3c0.2,0,0.5,0,0.7-0.1
		s0.4-0.2,0.7-0.3l0.5,1c-0.3,0.2-0.6,0.3-1,0.5C497,20.7,496.6,20.7,496.3,20.7z M496.1,16.4c-0.3,0-0.6,0.1-0.8,0.2
		c-0.2,0.2-0.4,0.4-0.4,0.7h2.3C497.1,16.7,496.7,16.4,496.1,16.4z"/>
	<path class="st8" d="M433.6,62.7H530l9.1,9.1v45.5l0,0h-96.4l-9.1-9.1V62.7z"/>
	<path class="st7" d="M433.6,62.7H530l9.1,9.1v45.5l0,0h-96.4l-9.1-9.1V62.7z"/>
	<path class="st1" d="M470.3,87.4c-0.5,0-0.9-0.1-1.4-0.2s-0.9-0.4-1.2-0.8l0.9-1.1c0.3,0.2,0.5,0.4,0.9,0.5s0.6,0.2,1,0.2
		s0.6-0.1,0.8-0.2s0.2-0.3,0.2-0.4c0-0.1,0-0.2-0.1-0.3s-0.1-0.2-0.2-0.2c-0.1-0.1-0.2-0.1-0.3-0.2c-0.1-0.1-0.3-0.1-0.5-0.2
		l-0.9-0.4c-0.2-0.1-0.4-0.2-0.6-0.3c-0.2-0.1-0.3-0.2-0.5-0.4c-0.1-0.2-0.2-0.3-0.3-0.5s-0.1-0.4-0.1-0.7s0.1-0.5,0.2-0.8
		s0.3-0.5,0.5-0.7s0.5-0.3,0.8-0.4c0.3-0.1,0.7-0.2,1-0.2c0.4,0,0.8,0.1,1.2,0.2s0.8,0.4,1.1,0.7l-0.8,1c-0.2-0.2-0.5-0.3-0.7-0.4
		s-0.5-0.1-0.9-0.1c-0.3,0-0.5,0.1-0.6,0.2c-0.2,0.1-0.2,0.3-0.2,0.5s0.1,0.4,0.3,0.5s0.5,0.2,0.8,0.3l0.8,0.4
		c0.5,0.2,0.8,0.4,1.1,0.7s0.4,0.7,0.4,1.2c0,0.3-0.1,0.6-0.2,0.8c-0.1,0.3-0.3,0.5-0.5,0.7s-0.5,0.4-0.8,0.5S470.8,87.4,470.3,87.4
		z M477.1,87.4c-0.4,0-0.8-0.1-1.2-0.2c-0.4-0.1-0.7-0.3-0.9-0.5c-0.3-0.2-0.5-0.5-0.6-0.9s-0.2-0.7-0.2-1.2s0.1-0.8,0.2-1.2
		c0.2-0.3,0.4-0.6,0.6-0.9c0.3-0.2,0.6-0.4,0.9-0.5c0.3-0.1,0.7-0.2,1-0.2c0.4,0,0.8,0.1,1.1,0.2c0.3,0.1,0.6,0.3,0.8,0.5
		s0.4,0.5,0.5,0.8s0.2,0.6,0.2,1c0,0.1,0,0.3,0,0.4c0,0.1,0,0.2,0,0.3h-3.6c0.1,0.4,0.2,0.7,0.5,0.8s0.6,0.3,1.1,0.3
		c0.2,0,0.5,0,0.7-0.1s0.4-0.2,0.7-0.3l0.5,1c-0.3,0.2-0.6,0.3-1,0.5C477.8,87.3,477.4,87.4,477.1,87.4z M476.9,83
		c-0.3,0-0.6,0.1-0.8,0.2c-0.2,0.2-0.4,0.4-0.4,0.7h2.3C477.9,83.4,477.6,83,476.9,83z M482.3,87.4c-0.3,0-0.5,0-0.7-0.1
		s-0.4-0.2-0.5-0.3s-0.3-0.3-0.3-0.5c-0.1-0.2-0.1-0.4-0.1-0.6c0-0.3,0.1-0.6,0.2-0.8c0.1-0.2,0.3-0.4,0.6-0.6s0.6-0.3,1.1-0.4
		c0.4-0.1,1-0.2,1.6-0.2c0-0.2-0.1-0.4-0.3-0.6c-0.2-0.1-0.4-0.2-0.8-0.2c-0.2,0-0.5,0-0.8,0.1s-0.5,0.2-0.8,0.4l-0.5-1
		c0.4-0.2,0.8-0.4,1.2-0.5s0.9-0.2,1.3-0.2c0.7,0,1.3,0.2,1.8,0.6c0.4,0.4,0.6,1,0.6,1.8v3h-1.3l-0.1-0.6l0,0
		c-0.3,0.2-0.6,0.4-0.9,0.5C483,87.3,482.7,87.4,482.3,87.4z M482.8,86.2c0.2,0,0.4,0,0.7-0.1c0.2-0.1,0.4-0.2,0.6-0.4v-0.9
		c-0.4,0-0.7,0.1-1,0.1c-0.2,0-0.5,0.1-0.6,0.2c-0.1,0.1-0.2,0.2-0.3,0.3s-0.1,0.2-0.1,0.3c0,0.2,0.1,0.3,0.2,0.4
		C482.4,86.1,482.6,86.2,482.8,86.2z M487.6,87.3V82h1.3l0.1,1.1l0,0c0.3-0.4,0.6-0.7,0.9-1c0.4-0.2,0.8-0.3,1.2-0.3
		c0.2,0,0.4,0,0.6,0c0.1,0,0.3,0.1,0.5,0.2l-0.3,1.3c-0.2-0.1-0.3-0.1-0.4-0.1c-0.1,0-0.3,0-0.5,0c-0.3,0-0.6,0.1-1,0.3
		c-0.3,0.2-0.6,0.5-0.8,1v2.8H487.6z M496.4,87.4c-0.4,0-0.8-0.1-1.2-0.2c-0.4-0.1-0.7-0.3-0.9-0.5c-0.3-0.2-0.5-0.5-0.6-0.9
		c-0.1-0.3-0.2-0.7-0.2-1.2s0.1-0.8,0.2-1.2c0.2-0.4,0.4-0.6,0.7-0.9c0.3-0.2,0.6-0.4,1-0.5s0.8-0.2,1.2-0.2s0.8,0.1,1.1,0.2
		c0.3,0.1,0.6,0.3,0.8,0.5l-0.7,1c-0.4-0.3-0.8-0.4-1.2-0.4c-0.5,0-0.8,0.1-1.1,0.4s-0.4,0.6-0.4,1.1s0.1,0.8,0.4,1.1
		c0.3,0.3,0.6,0.4,1.1,0.4c0.3,0,0.5,0,0.8-0.1c0.2-0.1,0.4-0.2,0.6-0.4l0.6,1c-0.3,0.3-0.7,0.5-1.1,0.6
		C497.1,87.3,496.8,87.4,496.4,87.4z M499.9,87.3v-7.5h1.6v1.8l-0.1,1l0,0c0.2-0.2,0.4-0.4,0.7-0.5c0.3-0.2,0.6-0.2,1-0.2
		c0.6,0,1,0.2,1.3,0.6c0.3,0.4,0.4,0.9,0.4,1.6v3.3h-1.6v-3.2c0-0.4-0.1-0.6-0.2-0.8c-0.1-0.2-0.3-0.2-0.6-0.2c-0.2,0-0.4,0-0.6,0.1
		c-0.2,0.1-0.3,0.2-0.5,0.4v3.5H500L499.9,87.3L499.9,87.3z"/>
	<path class="st1" d="M464.8,100.3v-7h2.5c0.4,0,0.7,0,1,0.1s0.6,0.2,0.9,0.4c0.2,0.2,0.4,0.4,0.6,0.7c0.1,0.3,0.2,0.6,0.2,1.1
		c0,0.4-0.1,0.7-0.2,1s-0.3,0.6-0.6,0.8c-0.2,0.2-0.5,0.3-0.9,0.4c-0.3,0.1-0.7,0.1-1,0.1h-0.9v2.4H464.8z M466.3,96.6h0.8
		c0.8,0,1.3-0.4,1.3-1.1c0-0.4-0.1-0.6-0.3-0.8s-0.5-0.2-0.9-0.2h-0.8L466.3,96.6L466.3,96.6z M471.6,100.3V95h1.3l0.1,1.1l0,0
		c0.3-0.4,0.6-0.7,0.9-1c0.4-0.2,0.8-0.3,1.2-0.3c0.2,0,0.4,0,0.6,0s0.3,0.1,0.5,0.2l-0.3,1.3c-0.2-0.1-0.3-0.1-0.4-0.1
		s-0.3,0-0.5,0c-0.3,0-0.6,0.1-1,0.3c-0.3,0.2-0.6,0.5-0.8,1v2.8H471.6z M480,100.4c-0.4,0-0.7-0.1-1-0.2s-0.6-0.3-0.9-0.5
		c-0.2-0.2-0.5-0.5-0.6-0.9c-0.1-0.3-0.2-0.7-0.2-1.2s0.1-0.8,0.2-1.2c0.2-0.4,0.4-0.6,0.6-0.9c0.2-0.2,0.5-0.4,0.9-0.5
		c0.3-0.1,0.7-0.2,1-0.2s0.7,0.1,1,0.2c0.3,0.1,0.6,0.3,0.9,0.5c0.3,0.2,0.5,0.5,0.6,0.9c0.1,0.3,0.2,0.7,0.2,1.2s-0.1,0.8-0.2,1.2
		s-0.3,0.6-0.6,0.9c-0.2,0.2-0.5,0.4-0.9,0.5S480.3,100.4,480,100.4z M480,99.1c0.4,0,0.6-0.1,0.8-0.4c0.2-0.3,0.3-0.6,0.3-1.1
		s-0.1-0.8-0.3-1.1s-0.4-0.4-0.8-0.4c-0.4,0-0.6,0.1-0.8,0.4c-0.2,0.3-0.3,0.6-0.3,1.1s0.1,0.8,0.3,1.1
		C479.3,99,479.6,99.1,480,99.1z M485.9,100.4c-0.3,0-0.6-0.1-0.9-0.2c-0.3-0.1-0.5-0.3-0.7-0.5s-0.3-0.5-0.5-0.9
		c-0.1-0.3-0.2-0.7-0.2-1.2c0-0.4,0.1-0.8,0.2-1.2c0.1-0.3,0.3-0.6,0.5-0.9c0.2-0.2,0.4-0.4,0.7-0.5s0.6-0.2,0.8-0.2
		c0.3,0,0.5,0,0.8,0.1c0.2,0.1,0.4,0.2,0.6,0.4l0,0l-0.1-0.8v-1.8h1.6v7.5h-1.2l-0.1-0.5l0,0c-0.2,0.2-0.4,0.4-0.7,0.5
		C486.4,100.3,486.2,100.4,485.9,100.4z M486.3,99.1c0.2,0,0.3,0,0.5-0.1c0.1-0.1,0.3-0.2,0.4-0.4v-2.1c-0.1-0.1-0.3-0.2-0.4-0.3
		c-0.1-0.1-0.3-0.1-0.5-0.1c-0.3,0-0.5,0.1-0.8,0.4c-0.2,0.2-0.3,0.6-0.3,1.1s0.1,0.9,0.3,1.2C485.7,99,486,99.1,486.3,99.1z
		 M493.2,100.4c-0.4,0-0.8-0.1-1.2-0.2c-0.4-0.1-0.7-0.3-0.9-0.5c-0.3-0.2-0.5-0.5-0.6-0.9c-0.1-0.3-0.2-0.7-0.2-1.2
		s0.1-0.8,0.2-1.2c0.2-0.4,0.4-0.6,0.7-0.9c0.3-0.2,0.6-0.4,1-0.5s0.8-0.2,1.2-0.2s0.8,0.1,1.1,0.2c0.3,0.1,0.6,0.3,0.8,0.5l-0.7,1
		c-0.4-0.3-0.8-0.4-1.2-0.4c-0.5,0-0.8,0.1-1.1,0.4s-0.4,0.6-0.4,1.1s0.1,0.8,0.4,1.1c0.3,0.3,0.6,0.4,1.1,0.4c0.3,0,0.5,0,0.8-0.1
		c0.2-0.1,0.4-0.2,0.6-0.4l0.6,1c-0.3,0.3-0.7,0.5-1.1,0.6C493.9,100.3,493.6,100.4,493.2,100.4z M498.3,100.4c-0.6,0-1-0.2-1.3-0.6
		c-0.3-0.4-0.4-0.9-0.4-1.6V95h1.6v3c0,0.4,0.1,0.6,0.2,0.8c0.1,0.2,0.3,0.2,0.6,0.2c0.2,0,0.4,0,0.5-0.1c0.2-0.1,0.3-0.2,0.5-0.5
		v-3.5h1.6v5.3h-1.3l-0.1-0.8l0,0c-0.2,0.3-0.5,0.5-0.8,0.6C499,100.3,498.7,100.4,498.3,100.4z M506.5,100.4
		c-0.4,0-0.8-0.1-1.1-0.2c-0.3-0.1-0.5-0.3-0.7-0.5s-0.3-0.5-0.4-0.7c-0.1-0.3-0.1-0.6-0.1-0.9v-1.9h-1.3V95l1.4-0.1l0.2-1.6h1.3
		v1.6h2.2v1.2h-2.2V98c0,0.4,0.1,0.7,0.3,0.9s0.5,0.2,0.9,0.2c0.2,0,0.4,0,0.5,0c0.2,0,0.3-0.1,0.5-0.2l0.3,1.1
		c-0.2,0.1-0.5,0.1-0.8,0.2C507.1,100.3,506.8,100.4,506.5,100.4z"/>
	<path class="st8" d="M433.6,149h99.9l5.6,5.6v28.2l0,0h-99.8l-5.6-5.6V149H433.6z"/>
	<path class="st7" d="M433.6,149h99.9l5.6,5.6v28.2l0,0h-99.8l-5.6-5.6V149H433.6z"/>
	<path class="st1" d="M463.9,163.3c-0.5,0-0.9-0.1-1.4-0.2c-0.5-0.2-0.9-0.4-1.2-0.8l0.9-1.1c0.3,0.2,0.5,0.4,0.9,0.5
		c0.3,0.1,0.6,0.2,1,0.2s0.6-0.1,0.8-0.2c0.2-0.1,0.2-0.3,0.2-0.4c0-0.1,0-0.2-0.1-0.3s-0.1-0.2-0.2-0.2c-0.1-0.1-0.2-0.1-0.3-0.2
		c-0.1-0.1-0.3-0.1-0.5-0.2l-0.9-0.4c-0.2-0.1-0.4-0.2-0.6-0.3c-0.2-0.1-0.3-0.2-0.5-0.4c-0.1-0.2-0.2-0.3-0.3-0.5s-0.1-0.4-0.1-0.7
		s0.1-0.5,0.2-0.8s0.3-0.5,0.5-0.7s0.5-0.3,0.8-0.4c0.3-0.1,0.7-0.2,1-0.2c0.4,0,0.8,0.1,1.2,0.2s0.8,0.4,1.1,0.7l-0.8,1
		c-0.2-0.2-0.5-0.3-0.7-0.4s-0.5-0.1-0.9-0.1c-0.3,0-0.5,0.1-0.6,0.2c-0.2,0.1-0.2,0.3-0.2,0.5s0.1,0.4,0.3,0.5s0.5,0.2,0.8,0.3
		l0.8,0.4c0.5,0.2,0.8,0.4,1.1,0.7s0.4,0.7,0.4,1.2c0,0.3-0.1,0.6-0.2,0.8c-0.1,0.3-0.3,0.5-0.5,0.7s-0.5,0.4-0.8,0.5
		C464.8,163.2,464.4,163.3,463.9,163.3z M467.9,165.1v-7.2h1.3l0.1,0.5l0,0c0.2-0.2,0.5-0.4,0.7-0.5c0.3-0.1,0.6-0.2,0.8-0.2
		c0.3,0,0.6,0.1,0.9,0.2s0.5,0.3,0.7,0.5s0.3,0.5,0.4,0.8c0.1,0.3,0.1,0.7,0.1,1.1c0,0.5-0.1,0.9-0.2,1.2c-0.1,0.4-0.3,0.7-0.5,0.9
		s-0.5,0.4-0.7,0.5c-0.3,0.1-0.6,0.2-0.8,0.2c-0.5,0-0.9-0.2-1.3-0.6l0,0l0.1,0.9v1.5h-1.6V165.1z M470.4,162c0.3,0,0.6-0.1,0.8-0.4
		c0.2-0.2,0.3-0.6,0.3-1.2c0-1-0.3-1.4-1-1.4c-0.3,0-0.7,0.2-1,0.5v2.1c0.2,0.1,0.3,0.2,0.5,0.3C470.1,162,470.3,162,470.4,162z
		 M476.5,163.1V159h-2.1v-1.2h3.7v5.3H476.5z M476.8,157c-0.3,0-0.6-0.1-0.8-0.2c-0.2-0.2-0.3-0.4-0.3-0.7s0.1-0.5,0.3-0.7
		s0.5-0.3,0.8-0.3s0.5,0.1,0.7,0.3s0.3,0.4,0.3,0.7s-0.1,0.5-0.3,0.7C477.3,156.9,477.1,157,476.8,157z M483.6,163.3
		c-0.4,0-0.8-0.1-1.2-0.2c-0.4-0.1-0.7-0.3-0.9-0.5c-0.3-0.2-0.5-0.5-0.6-0.9c-0.1-0.3-0.2-0.7-0.2-1.2c0-0.4,0.1-0.8,0.2-1.2
		c0.2-0.4,0.4-0.6,0.7-0.9c0.3-0.2,0.6-0.4,1-0.5s0.8-0.2,1.2-0.2s0.8,0.1,1.1,0.2c0.3,0.1,0.6,0.3,0.8,0.5l-0.7,1
		c-0.4-0.3-0.8-0.4-1.2-0.4c-0.5,0-0.8,0.1-1.1,0.4c-0.3,0.3-0.4,0.6-0.4,1.1s0.1,0.8,0.4,1.1c0.3,0.3,0.6,0.4,1.1,0.4
		c0.3,0,0.5,0,0.8-0.1c0.2-0.1,0.4-0.2,0.6-0.4l0.6,1c-0.3,0.3-0.7,0.5-1.1,0.6C484.3,163.2,484,163.3,483.6,163.3z M489.3,163.1
		V159h-2.1v-1.2h3.7v5.3H489.3z M489.5,157c-0.3,0-0.6-0.1-0.8-0.2c-0.2-0.2-0.3-0.4-0.3-0.7s0.1-0.5,0.3-0.7s0.5-0.3,0.8-0.3
		s0.5,0.1,0.7,0.3s0.3,0.4,0.3,0.7s-0.1,0.5-0.3,0.7C490.1,156.9,489.8,157,489.5,157z M495,163.1V159h-1.4v-1.2l1.4-0.1v-0.1
		c0-0.3,0-0.6,0.1-0.8c0.1-0.3,0.2-0.5,0.4-0.7s0.4-0.4,0.7-0.5s0.7-0.2,1.1-0.2c0.3,0,0.6,0,0.8,0.1c0.3,0.1,0.5,0.1,0.8,0.2
		l-0.3,1.2c-0.4-0.1-0.7-0.2-1.1-0.2c-0.3,0-0.6,0.1-0.8,0.2c-0.2,0.1-0.2,0.4-0.2,0.7v0.2h1.8v1.2h-1.8v4.1L495,163.1L495,163.1z
		 M502.1,163.1V159H500v-1.2h3.7v5.3H502.1z M502.3,157c-0.3,0-0.6-0.1-0.8-0.2c-0.2-0.2-0.3-0.4-0.3-0.7s0.1-0.5,0.3-0.7
		s0.5-0.3,0.8-0.3s0.5,0.1,0.7,0.3s0.3,0.4,0.3,0.7s-0.1,0.5-0.3,0.7C502.9,156.9,502.6,157,502.3,157z M509.2,163.3
		c-0.4,0-0.8-0.1-1.2-0.2c-0.4-0.1-0.7-0.3-0.9-0.5c-0.3-0.2-0.5-0.5-0.6-0.9c-0.1-0.3-0.2-0.7-0.2-1.2s0.1-0.8,0.2-1.2
		c0.2-0.4,0.4-0.6,0.7-0.9c0.3-0.2,0.6-0.4,1-0.5s0.8-0.2,1.2-0.2s0.8,0.1,1.1,0.2c0.3,0.1,0.6,0.3,0.8,0.5l-0.7,1
		c-0.4-0.3-0.8-0.4-1.2-0.4c-0.5,0-0.8,0.1-1.1,0.4c-0.3,0.3-0.4,0.6-0.4,1.1s0.1,0.8,0.4,1.1c0.3,0.3,0.6,0.4,1.1,0.4
		c0.3,0,0.5,0,0.8-0.1c0.2-0.1,0.4-0.2,0.6-0.4l0.6,1c-0.3,0.3-0.7,0.5-1.1,0.6C509.9,163.2,509.5,163.3,509.2,163.3z"/>
	<path class="st1" d="M464.8,176.1v-7h2.5c0.4,0,0.7,0,1,0.1s0.6,0.2,0.9,0.4c0.2,0.2,0.4,0.4,0.6,0.7c0.1,0.3,0.2,0.6,0.2,1.1
		c0,0.4-0.1,0.7-0.2,1c-0.1,0.3-0.3,0.6-0.6,0.8c-0.2,0.2-0.5,0.3-0.9,0.4c-0.3,0.1-0.7,0.1-1,0.1h-0.9v2.4H464.8z M466.3,172.5h0.8
		c0.8,0,1.3-0.4,1.3-1.1c0-0.4-0.1-0.6-0.3-0.8s-0.5-0.2-0.9-0.2h-0.8L466.3,172.5L466.3,172.5z M471.6,176.1v-5.3h1.3l0.1,1.1l0,0
		c0.3-0.4,0.6-0.7,0.9-1c0.4-0.2,0.8-0.3,1.2-0.3c0.2,0,0.4,0,0.6,0s0.3,0.1,0.5,0.2l-0.3,1.3c-0.2-0.1-0.3-0.1-0.4-0.1
		c-0.1,0-0.3,0-0.5,0c-0.3,0-0.6,0.1-1,0.3c-0.3,0.2-0.6,0.5-0.8,1v2.8H471.6z M480,176.3c-0.4,0-0.7-0.1-1-0.2s-0.6-0.3-0.9-0.5
		c-0.2-0.2-0.5-0.5-0.6-0.9c-0.1-0.3-0.2-0.7-0.2-1.2s0.1-0.8,0.2-1.2c0.2-0.4,0.4-0.6,0.6-0.9c0.2-0.2,0.5-0.4,0.9-0.5
		c0.3-0.1,0.7-0.2,1-0.2s0.7,0.1,1,0.2c0.3,0.1,0.6,0.3,0.9,0.5c0.3,0.2,0.5,0.5,0.6,0.9c0.1,0.3,0.2,0.7,0.2,1.2s-0.1,0.8-0.2,1.2
		s-0.3,0.6-0.6,0.9c-0.2,0.2-0.5,0.4-0.9,0.5S480.3,176.3,480,176.3z M480,175c0.4,0,0.6-0.1,0.8-0.4c0.2-0.3,0.3-0.6,0.3-1.1
		s-0.1-0.8-0.3-1.1s-0.4-0.4-0.8-0.4c-0.4,0-0.6,0.1-0.8,0.4c-0.2,0.3-0.3,0.6-0.3,1.1s0.1,0.8,0.3,1.1
		C479.3,174.9,479.6,175,480,175z M485.9,176.3c-0.3,0-0.6-0.1-0.9-0.2c-0.3-0.1-0.5-0.3-0.7-0.5s-0.3-0.5-0.5-0.9
		c-0.1-0.3-0.2-0.7-0.2-1.2c0-0.4,0.1-0.8,0.2-1.2c0.1-0.3,0.3-0.6,0.5-0.9c0.2-0.2,0.4-0.4,0.7-0.5s0.6-0.2,0.8-0.2s0.5,0,0.8,0.1
		s0.4,0.2,0.6,0.4l0,0l-0.1-0.8v-1.8h1.6v7.5h-1.2l-0.1-0.5l0,0c-0.2,0.2-0.4,0.4-0.7,0.5C486.4,176.2,486.2,176.3,485.9,176.3z
		 M486.3,175c0.2,0,0.3,0,0.5-0.1c0.1-0.1,0.3-0.2,0.4-0.4v-2.1c-0.1-0.1-0.3-0.2-0.4-0.3c-0.1-0.1-0.3-0.1-0.5-0.1
		c-0.3,0-0.5,0.1-0.8,0.4c-0.2,0.2-0.3,0.6-0.3,1.1s0.1,0.9,0.3,1.2C485.7,174.9,486,175,486.3,175z M491.9,176.3
		c-0.6,0-1-0.2-1.3-0.6c-0.3-0.4-0.4-0.9-0.4-1.6v-3.2h1.6v3c0,0.4,0.1,0.6,0.2,0.8c0.1,0.2,0.3,0.2,0.6,0.2c0.2,0,0.4,0,0.5-0.1
		c0.2-0.1,0.3-0.2,0.5-0.5v-3.5h1.6v5.3h-1.3l-0.1-0.8l0,0c-0.2,0.3-0.5,0.5-0.8,0.6C492.6,176.2,492.3,176.3,491.9,176.3z
		 M499.6,176.3c-0.4,0-0.8-0.1-1.2-0.2c-0.4-0.1-0.7-0.3-0.9-0.5c-0.3-0.2-0.5-0.5-0.6-0.9c-0.1-0.3-0.2-0.7-0.2-1.2
		s0.1-0.8,0.2-1.2c0.2-0.4,0.4-0.6,0.7-0.9c0.3-0.2,0.6-0.4,1-0.5s0.8-0.2,1.2-0.2s0.8,0.1,1.1,0.2c0.3,0.1,0.6,0.3,0.8,0.5l-0.7,1
		c-0.4-0.3-0.8-0.4-1.2-0.4c-0.5,0-0.8,0.1-1.1,0.4c-0.3,0.3-0.4,0.6-0.4,1.1s0.1,0.8,0.4,1.1c0.3,0.3,0.6,0.4,1.1,0.4
		c0.3,0,0.5,0,0.8-0.1c0.2-0.1,0.4-0.2,0.6-0.4l0.6,1c-0.3,0.3-0.7,0.5-1.1,0.6C500.3,176.2,500,176.3,499.6,176.3z M506.5,176.3
		c-0.4,0-0.8-0.1-1.1-0.2c-0.3-0.1-0.5-0.3-0.7-0.5s-0.3-0.5-0.4-0.7c-0.1-0.3-0.1-0.6-0.1-0.9v-1.9h-1.3v-1.2l1.4-0.1l0.2-1.6h1.3
		v1.6h2.2v1.2h-2.2v1.9c0,0.4,0.1,0.7,0.3,0.9s0.5,0.2,0.9,0.2c0.2,0,0.4,0,0.5,0c0.2,0,0.3-0.1,0.5-0.2l0.3,1.1
		c-0.2,0.1-0.5,0.1-0.8,0.2C507.1,176.2,506.8,176.3,506.5,176.3z"/>
	<path class="st3" d="M433.6,165.9h-25V90h25.1"/>
	<path class="st7" d="M433.6,165.9h-25V90h19.1"/>
	<path class="st9" d="M427.7,91.7l4.5-1.7l-4.5-1.7V91.7z"/>
	<path class="st3" d="M486.3,33.7v14.5h0.1v14.5"/>
	<path class="st7" d="M486.3,33.7v14.5h0.1v8.5"/>
	<path class="st9" d="M484.8,56.7l1.7,4.5l1.7-4.5H484.8z"/>
	<path class="st3" d="M486.3,117.3v15.8h0.1v15.8"/>
	<path class="st7" d="M486.3,117.3v15.8h0.1v9.8"/>
	<path class="st9" d="M484.8,143l1.7,4.5l1.7-4.5H484.8z"/>
	<path class="st3" d="M379.7,179.7v-107h51.1v107H379.7z"/>
	<path class="st10" d="M400.4,143.6c0,0.5-0.1,0.9-0.3,1.4c-0.2,0.4-0.4,0.8-0.8,1.1c-0.4,0.3-0.8,0.6-1.3,0.7
		c-0.5,0.2-1.1,0.3-1.7,0.3s-1.2-0.1-1.7-0.3s-0.9-0.4-1.3-0.7c-0.4-0.3-0.6-0.7-0.8-1.1s-0.3-0.9-0.3-1.4s0.1-0.9,0.3-1.3
		c0.2-0.4,0.4-0.7,0.7-0.9l0.8,0.7c-0.2,0.2-0.4,0.4-0.5,0.7c-0.1,0.2-0.2,0.5-0.2,0.9c0,0.3,0.1,0.7,0.2,1c0.1,0.3,0.3,0.5,0.6,0.8
		c0.3,0.2,0.6,0.4,1,0.5s0.8,0.2,1.2,0.2c0.5,0,0.9-0.1,1.3-0.2c0.4-0.1,0.7-0.3,1-0.5s0.5-0.5,0.6-0.7c0.1-0.3,0.2-0.6,0.2-1
		c0-0.3-0.1-0.7-0.2-0.9c-0.1-0.3-0.4-0.5-0.6-0.8l0.7-0.7c0.4,0.3,0.7,0.7,0.9,1.1C400.3,142.6,400.4,143,400.4,143.6z
		 M400.2,139.5h-8.5v-1.2h2.3l1.3,0.1l0,0c-0.3-0.3-0.6-0.6-0.8-0.9c-0.2-0.3-0.3-0.7-0.3-1.2c0-0.7,0.2-1.2,0.6-1.5
		c0.4-0.3,1-0.5,1.8-0.5h3.6v1.2h-3.5c-0.5,0-0.9,0.1-1.1,0.3c-0.2,0.2-0.4,0.5-0.4,1c0,0.3,0.1,0.6,0.2,0.8
		c0.2,0.2,0.4,0.5,0.7,0.8h4v1.1L400.2,139.5L400.2,139.5z M400.4,130.5c0,0.3,0,0.5-0.1,0.8c-0.1,0.2-0.2,0.4-0.3,0.6
		c-0.2,0.2-0.3,0.3-0.5,0.4c-0.2,0.1-0.4,0.2-0.7,0.2s-0.6-0.1-0.9-0.2c-0.2-0.2-0.5-0.4-0.6-0.7c-0.2-0.3-0.3-0.8-0.4-1.3
		c-0.1-0.5-0.2-1.2-0.3-1.9c-0.4,0-0.7,0.1-0.9,0.3s-0.4,0.6-0.4,1.1c0,0.4,0.1,0.7,0.2,1.1c0.1,0.3,0.3,0.6,0.5,0.9l-0.8,0.4
		c-0.1-0.2-0.2-0.3-0.3-0.5s-0.2-0.4-0.3-0.6c-0.1-0.2-0.1-0.5-0.2-0.7c-0.1-0.2-0.1-0.5-0.1-0.8c0-0.8,0.2-1.4,0.7-1.8
		c0.4-0.4,1-0.6,1.8-0.6h3.5v1h-0.8l0,0c0.2,0.3,0.4,0.7,0.6,1.1C400.3,129.7,400.4,130.1,400.4,130.5z M399.5,130.2
		c0-0.3-0.1-0.6-0.2-0.9c-0.1-0.3-0.3-0.6-0.6-0.9h-1.4c0,0.6,0.1,1.1,0.2,1.4c0.1,0.4,0.2,0.7,0.3,0.9s0.2,0.4,0.4,0.5
		c0.1,0.1,0.3,0.1,0.5,0.1c0.3,0,0.5-0.1,0.6-0.3C399.4,130.8,399.5,130.5,399.5,130.2z M400.2,125.1h-5.9v-1l1-0.1l0,0
		c-0.3-0.3-0.6-0.6-0.8-1c-0.2-0.3-0.3-0.7-0.3-1.2c0-0.7,0.2-1.2,0.6-1.5c0.4-0.3,1-0.5,1.8-0.5h3.6v1.2h-3.5
		c-0.5,0-0.9,0.1-1.1,0.3c-0.2,0.2-0.4,0.5-0.4,1c0,0.3,0.1,0.6,0.2,0.8c0.2,0.2,0.4,0.5,0.7,0.8h4v1.2H400.2z M402.9,115.5
		c0,0.8-0.1,1.5-0.4,2c-0.3,0.5-0.7,0.7-1.2,0.7s-0.9-0.3-1.3-1l0,0c-0.1,0.2-0.2,0.3-0.4,0.4c-0.2,0.1-0.4,0.2-0.6,0.2
		c-0.2,0-0.4-0.1-0.6-0.2c-0.2-0.1-0.4-0.3-0.5-0.5l0,0c-0.1,0.2-0.3,0.4-0.6,0.5s-0.6,0.2-0.9,0.2c-0.3,0-0.6-0.1-0.9-0.2
		c-0.3-0.1-0.5-0.3-0.7-0.5s-0.3-0.5-0.4-0.8c-0.1-0.3-0.2-0.6-0.2-0.9c0-0.3,0-0.6,0.1-0.9v-2.3h0.9v1.4c0.1-0.1,0.3-0.2,0.5-0.3
		s0.4-0.1,0.6-0.1c0.3,0,0.6,0.1,0.8,0.2c0.2,0.1,0.5,0.3,0.6,0.5c0.2,0.2,0.3,0.5,0.4,0.7c0.1,0.3,0.1,0.6,0.1,0.9
		c0,0.1,0,0.3,0,0.5s-0.1,0.3-0.1,0.5c0.2,0.3,0.4,0.4,0.6,0.4c0.4,0,0.6-0.4,0.6-1.2v-1.2c0-0.8,0.1-1.3,0.3-1.7s0.6-0.6,1.1-0.6
		c0.3,0,0.6,0.1,0.8,0.2s0.5,0.4,0.7,0.7s0.3,0.6,0.4,1C402.8,114.5,402.9,115,402.9,115.5z M397.6,115.5c0-0.3-0.1-0.6-0.3-0.9
		c-0.2-0.2-0.5-0.4-1-0.4c-0.4,0-0.7,0.1-0.9,0.4c-0.2,0.2-0.4,0.5-0.4,0.9c0,0.3,0.1,0.6,0.4,0.9c0.2,0.2,0.5,0.4,0.9,0.4
		s0.7-0.1,1-0.4C397.5,116.1,397.6,115.9,397.6,115.5z M402.1,115.4c0-0.3,0-0.6-0.1-0.8c-0.1-0.3-0.1-0.5-0.2-0.6
		c-0.1-0.2-0.2-0.3-0.3-0.4c-0.1-0.1-0.3-0.2-0.4-0.2c-0.3,0-0.4,0.1-0.5,0.3s-0.1,0.5-0.1,0.9v1c0,0.2,0,0.4,0,0.5s0,0.3-0.1,0.4
		c0.1,0.2,0.3,0.4,0.4,0.5c0.2,0.1,0.3,0.1,0.5,0.1c0.3,0,0.5-0.2,0.7-0.5S402.1,116,402.1,115.4z M400.4,107.8
		c0,0.4-0.1,0.9-0.2,1.2c-0.1,0.4-0.3,0.7-0.6,1s-0.6,0.5-1,0.7s-0.8,0.2-1.3,0.2s-0.9-0.1-1.3-0.2c-0.4-0.2-0.7-0.4-1-0.7
		s-0.5-0.6-0.6-1s-0.2-0.7-0.2-1.1c0-0.4,0.1-0.8,0.2-1.1c0.1-0.3,0.3-0.6,0.6-0.9c0.2-0.2,0.5-0.4,0.9-0.5c0.3-0.1,0.7-0.2,1.1-0.2
		c0.1,0,0.2,0,0.4,0c0.1,0,0.2,0,0.3,0v4.5c0.6-0.1,1.1-0.3,1.4-0.7c0.3-0.4,0.4-0.9,0.4-1.5c0-0.3,0-0.6-0.1-0.9
		c-0.1-0.3-0.2-0.5-0.4-0.8l0.8-0.4c0.2,0.3,0.4,0.6,0.5,1C400.3,107,400.4,107.4,400.4,107.8z M395.2,108c0,0.2,0,0.4,0.1,0.6
		c0.1,0.2,0.2,0.4,0.3,0.5c0.1,0.2,0.3,0.3,0.5,0.4c0.2,0.1,0.4,0.2,0.7,0.2v-3.4c-0.5,0-0.9,0.2-1.2,0.5
		C395.3,107.2,395.2,107.5,395.2,108z"/>
	<path class="st10" d="M422.4,144.2c0,0.6-0.1,1.1-0.3,1.6s-0.5,0.9-0.9,1.3l-0.8-0.7c0.3-0.3,0.5-0.6,0.7-1s0.2-0.8,0.2-1.2
		c0-0.5-0.1-0.9-0.3-1.2s-0.5-0.4-0.8-0.4c-0.2,0-0.4,0-0.5,0.1s-0.2,0.2-0.3,0.3s-0.2,0.3-0.3,0.4c-0.1,0.2-0.2,0.3-0.2,0.5
		l-0.5,1.1c-0.1,0.2-0.2,0.4-0.3,0.6c-0.1,0.2-0.3,0.4-0.4,0.5s-0.4,0.3-0.6,0.4c-0.2,0.1-0.5,0.2-0.8,0.2s-0.6-0.1-0.8-0.2
		c-0.3-0.1-0.5-0.3-0.7-0.5s-0.3-0.5-0.5-0.8c-0.1-0.3-0.2-0.7-0.2-1.1c0-0.5,0.1-0.9,0.3-1.4c0.2-0.4,0.4-0.8,0.7-1.1l0.8,0.6
		c-0.2,0.3-0.4,0.5-0.5,0.8s-0.2,0.7-0.2,1.1c0,0.4,0.1,0.8,0.3,1s0.4,0.4,0.8,0.4c0.2,0,0.3,0,0.4-0.1c0.1-0.1,0.2-0.2,0.3-0.3
		s0.2-0.3,0.2-0.4c0.1-0.2,0.1-0.3,0.2-0.5l0.5-1.1c0.1-0.2,0.2-0.5,0.3-0.7s0.3-0.4,0.4-0.5s0.4-0.3,0.6-0.4
		c0.2-0.1,0.5-0.1,0.8-0.1s0.6,0.1,0.9,0.2s0.5,0.3,0.7,0.6s0.4,0.6,0.5,0.9C422.3,143.3,422.4,143.7,422.4,144.2z M422.4,136.6
		c0,0.4-0.1,0.9-0.2,1.2c-0.1,0.4-0.3,0.7-0.6,1s-0.6,0.5-1,0.7s-0.8,0.2-1.3,0.2s-0.9-0.1-1.3-0.2c-0.4-0.2-0.7-0.4-1-0.7
		s-0.5-0.6-0.6-1s-0.2-0.7-0.2-1.1c0-0.4,0.1-0.8,0.2-1.1c0.1-0.3,0.3-0.6,0.6-0.9c0.2-0.2,0.5-0.4,0.9-0.5c0.3-0.1,0.7-0.2,1.1-0.2
		c0.1,0,0.2,0,0.4,0c0.1,0,0.2,0,0.3,0v4.5c0.6-0.1,1.1-0.3,1.4-0.7c0.3-0.4,0.4-0.9,0.4-1.5c0-0.3,0-0.6-0.1-0.9
		c-0.1-0.3-0.2-0.5-0.4-0.8l0.8-0.4c0.2,0.3,0.4,0.6,0.5,1C422.3,135.8,422.4,136.2,422.4,136.6z M417.2,136.8c0,0.2,0,0.4,0.1,0.6
		c0.1,0.2,0.2,0.4,0.3,0.5c0.1,0.2,0.3,0.3,0.5,0.4c0.2,0.1,0.4,0.2,0.7,0.2v-3.3c-0.5,0-0.9,0.2-1.2,0.5S417.2,136.3,417.2,136.8z
		 M422.4,130.5c0,0.3,0,0.5-0.1,0.8c-0.1,0.2-0.2,0.4-0.3,0.6c-0.2,0.2-0.3,0.3-0.5,0.4c-0.2,0.1-0.4,0.2-0.7,0.2s-0.6-0.1-0.9-0.2
		c-0.2-0.2-0.5-0.4-0.6-0.7c-0.2-0.3-0.3-0.8-0.4-1.3c-0.1-0.5-0.2-1.2-0.3-1.9c-0.4,0-0.7,0.1-0.9,0.3s-0.4,0.6-0.4,1.1
		c0,0.4,0.1,0.7,0.2,1.1c0.1,0.3,0.3,0.6,0.5,0.9l-0.8,0.4c-0.1-0.2-0.2-0.3-0.3-0.5s-0.2-0.4-0.3-0.6c-0.1-0.2-0.1-0.5-0.2-0.7
		c-0.1-0.2-0.1-0.5-0.1-0.8c0-0.8,0.2-1.4,0.7-1.8c0.4-0.4,1-0.6,1.8-0.6h3.5v1h-0.8l0,0c0.2,0.3,0.4,0.7,0.6,1.1
		C422.3,129.7,422.4,130.1,422.4,130.5z M421.5,130.2c0-0.3-0.1-0.6-0.2-0.9c-0.1-0.3-0.3-0.6-0.6-0.9h-1.4c0,0.6,0.1,1.1,0.2,1.4
		c0.1,0.4,0.2,0.7,0.3,0.9s0.2,0.4,0.4,0.5c0.1,0.1,0.3,0.1,0.5,0.1c0.3,0,0.5-0.1,0.6-0.3C421.4,130.8,421.5,130.5,421.5,130.2z
		 M422.2,124.5h-5.9v-1l1.4-0.1l0,0c-0.5-0.3-0.8-0.7-1.1-1.1c-0.3-0.4-0.4-0.9-0.4-1.5c0-0.2,0-0.4,0.1-0.6c0-0.2,0.1-0.4,0.2-0.5
		l1,0.3c-0.1,0.2-0.1,0.4-0.1,0.5s0,0.3,0,0.6c0,0.4,0.1,0.8,0.4,1.2c0.2,0.4,0.7,0.7,1.2,1.1h3.3v1.1H422.2z M422.4,114.9
		c0,0.5-0.1,0.9-0.2,1.3c-0.1,0.4-0.3,0.7-0.6,1s-0.6,0.5-1,0.7s-0.8,0.2-1.3,0.2s-0.9-0.1-1.3-0.3c-0.4-0.2-0.7-0.4-1-0.7
		s-0.5-0.7-0.6-1.1c-0.1-0.4-0.2-0.8-0.2-1.3s0.1-0.9,0.2-1.2c0.2-0.4,0.4-0.7,0.6-0.9l0.8,0.6c-0.2,0.2-0.3,0.5-0.4,0.7
		c-0.1,0.2-0.2,0.5-0.2,0.8s0.1,0.6,0.2,0.9c0.1,0.3,0.2,0.5,0.4,0.7s0.4,0.3,0.7,0.4c0.3,0.1,0.5,0.2,0.9,0.2s0.6,0,0.9-0.1
		c0.2-0.1,0.5-0.2,0.7-0.4s0.3-0.4,0.4-0.7c0.1-0.3,0.1-0.5,0.1-0.9s-0.1-0.7-0.2-1s-0.3-0.5-0.5-0.8l0.8-0.5
		c0.3,0.3,0.5,0.7,0.7,1.1C422.3,114,422.4,114.4,422.4,114.9z M422.2,110.7h-8.5v-1.2h2.3l1.3,0.1l0,0c-0.3-0.3-0.6-0.6-0.8-0.9
		c-0.2-0.3-0.3-0.7-0.3-1.2c0-0.7,0.2-1.2,0.6-1.5c0.4-0.3,1-0.5,1.8-0.5h3.6v1.2h-3.5c-0.5,0-0.9,0.1-1.1,0.3
		c-0.2,0.2-0.4,0.5-0.4,1c0,0.3,0.1,0.6,0.2,0.8c0.2,0.2,0.4,0.5,0.7,0.8h4v1.1L422.2,110.7L422.2,110.7z"/>
	<path class="st6" d="M565.8,62.7h99.8l5.6,5.6v28.2l0,0h-99.8l-5.6-5.6V62.7z"/>
	<path class="st7" d="M565.8,62.7h99.8l5.6,5.6v28.2l0,0h-99.8l-5.6-5.6V62.7z"/>
	<path class="st1" d="M596.8,83.4v-7h2.5c0.4,0,0.7,0,1,0.1s0.6,0.2,0.9,0.4c0.2,0.2,0.4,0.4,0.6,0.7c0.1,0.3,0.2,0.6,0.2,1.1
		c0,0.4-0.1,0.7-0.2,1c-0.1,0.3-0.3,0.6-0.6,0.8c-0.2,0.2-0.5,0.3-0.9,0.4c-0.3,0.1-0.7,0.1-1,0.1h-0.9v2.4H596.8z M598.5,79.7h0.8
		c0.8,0,1.3-0.4,1.3-1.1c0-0.4-0.1-0.6-0.3-0.8s-0.5-0.2-0.9-0.2h-0.8L598.5,79.7L598.5,79.7z M603.8,83.4v-5.3h1.3l0.1,1.1l0,0
		c0.3-0.4,0.6-0.7,0.9-1c0.4-0.2,0.8-0.3,1.2-0.3c0.2,0,0.4,0,0.6,0c0.1,0,0.3,0.1,0.5,0.2l-0.3,1.3c-0.2-0.1-0.3-0.1-0.4-0.1
		c-0.1,0-0.3,0-0.5,0c-0.3,0-0.6,0.1-1,0.3c-0.3,0.2-0.6,0.5-0.8,1v2.8H603.8z M612,83.5c-0.4,0-0.7-0.1-1-0.2
		c-0.3-0.1-0.6-0.3-0.9-0.5c-0.2-0.2-0.5-0.5-0.6-0.9c-0.1-0.3-0.2-0.7-0.2-1.2s0.1-0.8,0.2-1.2c0.2-0.4,0.4-0.6,0.6-0.9
		c0.2-0.2,0.5-0.4,0.9-0.5c0.3-0.1,0.7-0.2,1-0.2s0.7,0.1,1,0.2c0.3,0.1,0.6,0.3,0.9,0.5c0.3,0.2,0.5,0.5,0.6,0.9
		c0.1,0.3,0.2,0.7,0.2,1.2s-0.1,0.8-0.2,1.2c-0.1,0.3-0.3,0.6-0.6,0.9c-0.2,0.2-0.5,0.4-0.9,0.5C612.8,83.4,612.5,83.5,612,83.5z
		 M612,82.2c0.4,0,0.6-0.1,0.8-0.4c0.2-0.3,0.3-0.6,0.3-1.1s-0.1-0.8-0.3-1.1s-0.4-0.4-0.8-0.4c-0.4,0-0.6,0.1-0.8,0.4
		c-0.2,0.3-0.3,0.6-0.3,1.1s0.1,0.8,0.3,1.1C611.5,82.1,611.8,82.2,612,82.2z M618,83.5c-0.3,0-0.6-0.1-0.9-0.2
		c-0.3-0.1-0.5-0.3-0.7-0.5s-0.3-0.5-0.5-0.9c-0.1-0.3-0.2-0.7-0.2-1.2c0-0.4,0.1-0.8,0.2-1.2c0.1-0.3,0.3-0.6,0.5-0.9
		c0.2-0.2,0.4-0.4,0.7-0.5s0.6-0.2,0.8-0.2c0.3,0,0.5,0,0.8,0.1c0.2,0.1,0.4,0.2,0.6,0.4l0,0l-0.1-0.8v-1.8h1.6v7.5h-1.3l-0.1-0.5
		l0,0c-0.2,0.2-0.4,0.4-0.7,0.5C618.5,83.4,618.2,83.5,618,83.5z M618.5,82.2c0.2,0,0.3,0,0.5-0.1c0.1-0.1,0.3-0.2,0.4-0.4v-2.1
		c-0.1-0.1-0.3-0.2-0.4-0.3c-0.1-0.1-0.3-0.1-0.5-0.1c-0.3,0-0.5,0.1-0.8,0.4c-0.2,0.2-0.3,0.6-0.3,1.1s0.1,0.9,0.3,1.2
		C617.8,82.1,618,82.2,618.5,82.2z M624,83.5c-0.6,0-1-0.2-1.3-0.6c-0.3-0.4-0.4-0.9-0.4-1.6v-3.2h1.6v3c0,0.4,0.1,0.6,0.2,0.8
		c0.1,0.2,0.3,0.2,0.6,0.2c0.2,0,0.4,0,0.5-0.1c0.2-0.1,0.3-0.2,0.5-0.5V78h1.6v5.3H626l-0.1-0.8l0,0c-0.2,0.3-0.5,0.5-0.8,0.6
		C624.8,83.4,624.5,83.5,624,83.5z M631.8,83.5c-0.4,0-0.8-0.1-1.2-0.2c-0.4-0.1-0.7-0.3-0.9-0.5c-0.3-0.2-0.5-0.5-0.6-0.9
		c-0.1-0.3-0.2-0.7-0.2-1.2c0-0.4,0.1-0.8,0.2-1.2c0.2-0.4,0.4-0.6,0.7-0.9c0.3-0.2,0.6-0.4,1-0.5s0.8-0.2,1.2-0.2s0.8,0.1,1.1,0.2
		c0.3,0.1,0.6,0.3,0.8,0.5l-0.7,1c-0.4-0.3-0.8-0.4-1.2-0.4c-0.5,0-0.8,0.1-1.1,0.4c-0.3,0.3-0.4,0.6-0.4,1.1s0.1,0.8,0.4,1.1
		c0.3,0.3,0.6,0.4,1.1,0.4c0.3,0,0.5,0,0.8-0.1c0.2-0.1,0.4-0.2,0.6-0.4l0.6,1c-0.3,0.3-0.7,0.5-1.1,0.6
		C632.5,83.4,632,83.5,631.8,83.5z M638.5,83.5c-0.4,0-0.8-0.1-1.1-0.2c-0.3-0.1-0.5-0.3-0.7-0.5s-0.3-0.5-0.4-0.7
		c-0.1-0.3-0.1-0.6-0.1-0.9v-1.9H635v-1.2l1.4-0.1l0.2-1.6h1.3V78h2.2v1.2h-2.2v1.9c0,0.4,0.1,0.7,0.3,0.9s0.5,0.2,0.9,0.2
		c0.2,0,0.4,0,0.5,0c0.2,0,0.3-0.1,0.5-0.2l0.3,1.1c-0.2,0.1-0.5,0.1-0.8,0.2C639.2,83.5,639,83.5,638.5,83.5z"/>
	<path class="st6" d="M556,277.1h118.7l6.2,6.2v31.2l0,0H562.2l-6.2-6.2V277.1z"/>
	<path class="st7" d="M556,277.1h118.7l6.2,6.2v31.2l0,0H562.2l-6.2-6.2V277.1z"/>
	<path class="st1" d="M574.5,299.6v-7h2.5c0.4,0,0.7,0,1,0.1c0.3,0.1,0.6,0.2,0.9,0.4c0.2,0.2,0.4,0.4,0.6,0.7
		c0.1,0.3,0.2,0.6,0.2,1.1c0,0.4-0.1,0.7-0.2,1c-0.1,0.3-0.3,0.6-0.6,0.8c-0.2,0.2-0.5,0.3-0.9,0.4c-0.3,0.1-0.7,0.1-1,0.1h-0.9v2.4
		H574.5z M576,296h0.8c0.8,0,1.3-0.4,1.3-1.1c0-0.4-0.1-0.6-0.3-0.8s-0.5-0.2-0.9-0.2h-0.8L576,296L576,296z M581.3,299.6v-5.3h1.3
		l0.1,1.1l0,0c0.3-0.4,0.6-0.7,0.9-1c0.4-0.2,0.8-0.3,1.2-0.3c0.2,0,0.4,0,0.6,0c0.1,0,0.3,0.1,0.5,0.2l-0.3,1.3
		c-0.2-0.1-0.3-0.1-0.4-0.1c-0.1,0-0.3,0-0.5,0c-0.3,0-0.6,0.1-1,0.3c-0.3,0.2-0.6,0.5-0.8,1v2.8H581.3z M589.8,299.7
		c-0.4,0-0.7-0.1-1-0.2c-0.3-0.1-0.6-0.3-0.9-0.5c-0.3-0.2-0.5-0.5-0.6-0.9c-0.1-0.3-0.2-0.7-0.2-1.2c0-0.4,0.1-0.8,0.2-1.2
		c0.2-0.4,0.4-0.6,0.6-0.9c0.2-0.2,0.5-0.4,0.9-0.5c0.3-0.1,0.7-0.2,1-0.2s0.7,0.1,1,0.2c0.3,0.1,0.6,0.3,0.9,0.5
		c0.3,0.2,0.5,0.5,0.6,0.9c0.1,0.3,0.2,0.7,0.2,1.2c0,0.4-0.1,0.8-0.2,1.2c-0.1,0.3-0.3,0.6-0.6,0.9c-0.3,0.2-0.5,0.4-0.9,0.5
		C590.3,299.7,590,299.7,589.8,299.7z M589.8,298.5c0.4,0,0.6-0.1,0.8-0.4s0.3-0.6,0.3-1.1s-0.1-0.8-0.3-1.1
		c-0.2-0.3-0.4-0.4-0.8-0.4c-0.4,0-0.6,0.1-0.8,0.4s-0.3,0.6-0.3,1.1s0.1,0.8,0.3,1.1C589,298.3,589.3,298.5,589.8,298.5z
		 M595.6,299.7c-0.3,0-0.6-0.1-0.9-0.2c-0.3-0.1-0.5-0.3-0.7-0.5s-0.3-0.5-0.5-0.9c-0.1-0.3-0.2-0.7-0.2-1.2c0-0.4,0.1-0.8,0.2-1.2
		c0.1-0.3,0.3-0.6,0.5-0.9c0.2-0.2,0.4-0.4,0.7-0.5c0.3-0.1,0.6-0.2,0.8-0.2c0.3,0,0.5,0,0.8,0.1c0.2,0.1,0.4,0.2,0.6,0.4l0,0
		l-0.1-0.8V292h1.6v7.5h-1.3L597,299l0,0c-0.2,0.2-0.4,0.4-0.7,0.5C596.1,299.7,595.8,299.7,595.6,299.7z M596,298.4
		c0.2,0,0.3,0,0.5-0.1c0.1-0.1,0.3-0.2,0.4-0.4v-2.1c-0.1-0.1-0.3-0.2-0.4-0.3c-0.1-0.1-0.3-0.1-0.5-0.1c-0.3,0-0.5,0.1-0.8,0.4
		c-0.2,0.2-0.3,0.6-0.3,1.1s0.1,0.9,0.3,1.2C595.5,298.3,595.8,298.4,596,298.4z M601.6,299.7c-0.6,0-1-0.2-1.3-0.6
		c-0.3-0.4-0.4-0.9-0.4-1.6v-3.2h1.6v3c0,0.4,0.1,0.6,0.2,0.8c0.1,0.2,0.3,0.2,0.6,0.2c0.2,0,0.4,0,0.5-0.1c0.2-0.1,0.3-0.2,0.5-0.5
		v-3.5h1.6v5.3h-1.4l-0.1-0.8l0,0c-0.2,0.3-0.5,0.5-0.8,0.6C602.3,299.6,602,299.7,601.6,299.7z M609.3,299.7
		c-0.4,0-0.8-0.1-1.2-0.2c-0.4-0.1-0.7-0.3-0.9-0.5c-0.3-0.2-0.5-0.5-0.6-0.9c-0.1-0.3-0.2-0.7-0.2-1.2c0-0.4,0.1-0.8,0.2-1.2
		c0.2-0.4,0.4-0.6,0.7-0.9c0.3-0.2,0.6-0.4,1-0.5c0.4-0.1,0.8-0.2,1.2-0.2s0.8,0.1,1.1,0.2c0.3,0.1,0.6,0.3,0.8,0.5l-0.7,1
		c-0.4-0.3-0.8-0.4-1.2-0.4c-0.5,0-0.8,0.1-1.1,0.4s-0.4,0.6-0.4,1.1s0.1,0.8,0.4,1.1c0.3,0.3,0.6,0.4,1.1,0.4c0.3,0,0.5,0,0.8-0.1
		c0.2-0.1,0.4-0.2,0.6-0.4l0.6,1c-0.3,0.3-0.7,0.5-1.1,0.6C610,299.7,609.8,299.7,609.3,299.7z M616.2,299.7c-0.4,0-0.8-0.1-1.1-0.2
		c-0.3-0.1-0.5-0.3-0.7-0.5s-0.3-0.5-0.4-0.7c-0.1-0.3-0.1-0.6-0.1-0.9v-1.9h-1.4v-1.2l1.4-0.1l0.2-1.6h1.3v1.6h2.2v1.2h-2.2v1.9
		c0,0.4,0.1,0.7,0.3,0.9c0.2,0.2,0.5,0.2,0.9,0.2c0.2,0,0.4,0,0.5,0c0.2,0,0.3-0.1,0.5-0.2l0.3,1.1c-0.2,0.1-0.5,0.1-0.8,0.2
		C616.8,299.7,616.5,299.7,616.2,299.7z M625.6,299.6v-7h1.9c0.5,0,1,0.1,1.4,0.2c0.4,0.1,0.8,0.3,1.1,0.6c0.3,0.3,0.5,0.6,0.7,1.1
		c0.2,0.4,0.2,0.9,0.2,1.5c0,0.6-0.1,1.1-0.2,1.5c-0.1,0.4-0.4,0.8-0.7,1.1c-0.3,0.3-0.6,0.5-1,0.7c-0.4,0.1-0.8,0.2-1.3,0.2
		L625.6,299.6L625.6,299.6z M627.1,298.3h0.2c0.3,0,0.5,0,0.7-0.1c0.2-0.1,0.4-0.2,0.6-0.4c0.2-0.2,0.3-0.4,0.4-0.7
		c0.1-0.3,0.1-0.6,0.1-1c0-0.4,0-0.8-0.1-1c-0.1-0.3-0.2-0.5-0.4-0.7s-0.3-0.3-0.6-0.4c-0.2-0.1-0.5-0.1-0.7-0.1h-0.2V298.3z
		 M634.8,299.7c-0.4,0-0.8-0.1-1.2-0.2c-0.4-0.1-0.7-0.3-0.9-0.5c-0.3-0.2-0.5-0.5-0.6-0.9c-0.1-0.3-0.2-0.7-0.2-1.2
		s0.1-0.8,0.2-1.2c0.2-0.3,0.4-0.6,0.6-0.9c0.3-0.2,0.6-0.4,0.9-0.5c0.3-0.1,0.7-0.2,1-0.2c0.4,0,0.8,0.1,1.1,0.2
		c0.3,0.1,0.6,0.3,0.8,0.5s0.4,0.5,0.5,0.8s0.2,0.6,0.2,1c0,0.1,0,0.3,0,0.4c0,0.1,0,0.2,0,0.3h-3.6c0.1,0.4,0.2,0.7,0.5,0.8
		c0.3,0.2,0.6,0.3,1.1,0.3c0.2,0,0.5,0,0.7-0.1c0.2-0.1,0.4-0.2,0.7-0.3l0.5,1c-0.3,0.2-0.6,0.3-1,0.5
		C635.5,299.7,635.1,299.7,634.8,299.7z M634.6,295.4c-0.3,0-0.6,0.1-0.8,0.2c-0.2,0.2-0.4,0.4-0.4,0.7h2.3
		C635.6,295.7,635.2,295.4,634.6,295.4z M641.8,299.7c-0.4,0-0.8-0.1-1.1-0.2c-0.3-0.1-0.5-0.3-0.7-0.5s-0.3-0.5-0.4-0.7
		c-0.1-0.3-0.1-0.6-0.1-0.9v-1.9h-1.3v-1.2l1.4-0.1l0.2-1.6h1.3v1.6h2.2v1.2h-2.2v1.9c0,0.4,0.1,0.7,0.3,0.9
		c0.2,0.2,0.5,0.2,0.9,0.2c0.2,0,0.4,0,0.5,0c0.2,0,0.3-0.1,0.5-0.2l0.3,1.1c-0.2,0.1-0.5,0.1-0.8,0.2
		C642.5,299.7,642.1,299.7,641.8,299.7z M646.5,299.7c-0.3,0-0.5,0-0.7-0.1c-0.2-0.1-0.4-0.2-0.5-0.3s-0.3-0.3-0.3-0.5
		c-0.1-0.2-0.1-0.4-0.1-0.6c0-0.3,0.1-0.6,0.2-0.8c0.1-0.2,0.3-0.4,0.6-0.6s0.6-0.3,1.1-0.4c0.4-0.1,1-0.2,1.6-0.2
		c0-0.2-0.1-0.4-0.3-0.6c-0.2-0.1-0.4-0.2-0.8-0.2c-0.2,0-0.5,0-0.8,0.1c-0.3,0.1-0.5,0.2-0.8,0.4l-0.5-1c0.4-0.2,0.8-0.4,1.2-0.5
		c0.4-0.1,0.9-0.2,1.3-0.2c0.7,0,1.3,0.2,1.8,0.6c0.4,0.4,0.6,1,0.6,1.8v3h-1.3l-0.1-0.6l0,0c-0.3,0.2-0.6,0.4-0.9,0.5
		C647.1,299.7,646.8,299.7,646.5,299.7z M647,298.5c0.2,0,0.4,0,0.7-0.1c0.3-0.1,0.4-0.2,0.6-0.4v-0.9c-0.4,0-0.7,0.1-1,0.1
		c-0.2,0-0.5,0.1-0.6,0.2c-0.1,0.1-0.2,0.2-0.3,0.3s-0.1,0.2-0.1,0.3c0,0.2,0.1,0.3,0.2,0.4C646.5,298.5,646.8,298.5,647,298.5z
		 M653.5,299.6v-4.1h-2.1v-1.2h3.7v5.3H653.5L653.5,299.6z M653.6,293.5c-0.3,0-0.6-0.1-0.8-0.2c-0.2-0.2-0.3-0.4-0.3-0.7
		c0-0.3,0.1-0.5,0.3-0.7s0.5-0.3,0.8-0.3s0.5,0.1,0.7,0.3s0.3,0.4,0.3,0.7c0,0.3-0.1,0.5-0.3,0.7C654.1,293.4,654,293.5,653.6,293.5
		z M661,299.7c-0.7,0-1.2-0.2-1.5-0.6c-0.3-0.4-0.5-0.9-0.5-1.6v-4.2h-1.7v-1.2h3.2v5.5c0,0.2,0,0.3,0.1,0.4
		c0.1,0.1,0.1,0.2,0.2,0.3c0.1,0.1,0.2,0.1,0.3,0.1s0.2,0,0.3,0s0.2,0,0.4,0c0.1,0,0.3-0.1,0.5-0.1l0.3,1.2c-0.1,0-0.3,0.1-0.4,0.1
		c-0.1,0-0.2,0.1-0.4,0.1c-0.1,0-0.2,0-0.4,0C661.3,299.7,661.2,299.7,661,299.7z"/>
	<path class="st6" d="M556,346.1h118.7l6.2,6.2v31.2l0,0H562.2l-6.2-6.2V346.1z"/>
	<path class="st7" d="M556,346.1h118.7l6.2,6.2v31.2l0,0H562.2l-6.2-6.2V346.1z"/>
	<path class="st1" d="M599.8,362.2c-0.4,0-0.8-0.1-1.2-0.2c-0.4-0.2-0.7-0.4-1-0.7s-0.5-0.7-0.7-1.1c-0.2-0.4-0.2-1-0.2-1.5
		c0-0.6,0.1-1.1,0.2-1.5c0.2-0.4,0.4-0.8,0.7-1.1s0.7-0.6,1.1-0.7c0.4-0.1,0.8-0.2,1.3-0.2c0.4,0,0.8,0.1,1.2,0.3s0.7,0.4,0.9,0.6
		l-0.9,1c-0.2-0.2-0.3-0.3-0.5-0.4c-0.2-0.1-0.4-0.1-0.7-0.1s-0.5,0.1-0.7,0.2c-0.2,0.1-0.4,0.2-0.5,0.4c-0.1,0.2-0.3,0.4-0.4,0.7
		c-0.1,0.3-0.1,0.6-0.1,0.9c0,0.7,0.2,1.3,0.5,1.7s0.8,0.6,1.3,0.6c0.2,0,0.5-0.1,0.7-0.2c0.2-0.1,0.4-0.3,0.6-0.5l0.9,1
		C601.5,361.9,600.8,362.2,599.8,362.2z M605.6,362.2c-0.4,0-0.7-0.1-1-0.2c-0.3-0.1-0.6-0.3-0.9-0.5c-0.2-0.2-0.5-0.5-0.6-0.9
		c-0.1-0.3-0.2-0.7-0.2-1.2s0.1-0.8,0.2-1.2c0.2-0.4,0.4-0.6,0.6-0.9c0.2-0.2,0.5-0.4,0.9-0.5c0.3-0.1,0.7-0.2,1-0.2s0.7,0.1,1,0.2
		c0.3,0.1,0.6,0.3,0.9,0.5c0.3,0.2,0.5,0.5,0.6,0.9c0.1,0.3,0.2,0.7,0.2,1.2s-0.1,0.8-0.2,1.2s-0.3,0.6-0.6,0.9
		c-0.2,0.2-0.5,0.4-0.9,0.5C606.2,362.1,606,362.2,605.6,362.2z M605.6,361c0.4,0,0.6-0.1,0.8-0.4s0.3-0.6,0.3-1.1s-0.1-0.8-0.3-1.1
		c-0.2-0.3-0.4-0.4-0.8-0.4c-0.4,0-0.6,0.1-0.8,0.4s-0.3,0.6-0.3,1.1s0.1,0.8,0.3,1.1C605,360.8,605.3,361,605.6,361z M609.6,362.1
		v-5.3h1.3l0.1,0.7l0,0c0.2-0.2,0.5-0.4,0.8-0.6s0.7-0.2,1-0.2c0.6,0,1,0.2,1.3,0.6c0.3,0.4,0.4,0.9,0.4,1.6v3.3h-1.6v-3.1
		c0-0.4-0.1-0.6-0.2-0.8c-0.1-0.2-0.3-0.2-0.6-0.2c-0.2,0-0.4,0-0.6,0.1c-0.2,0.1-0.3,0.2-0.5,0.4v3.5H609.6z M619.5,362.2
		c-0.4,0-0.8-0.1-1.1-0.2c-0.3-0.1-0.5-0.3-0.7-0.5s-0.3-0.5-0.4-0.7c-0.1-0.3-0.1-0.6-0.1-0.9V358h-1.3v-1.2l1.4-0.1l0.2-1.6h1.3
		v1.6h2.2v1.2h-2.2v1.9c0,0.4,0.1,0.7,0.3,0.9c0.2,0.2,0.5,0.2,0.9,0.2c0.2,0,0.4,0,0.5,0c0.2,0,0.3-0.1,0.5-0.2l0.3,1.1
		c-0.2,0.1-0.5,0.1-0.8,0.2C620,362.2,619.8,362.2,619.5,362.2z M624,362.2c-0.3,0-0.5,0-0.7-0.1c-0.2-0.1-0.4-0.2-0.5-0.3
		s-0.3-0.3-0.3-0.5c-0.1-0.2-0.1-0.4-0.1-0.6c0-0.3,0.1-0.6,0.2-0.8c0.1-0.2,0.3-0.4,0.6-0.6s0.6-0.3,1.1-0.4c0.4-0.1,1-0.2,1.6-0.2
		c0-0.2-0.1-0.4-0.3-0.6c-0.2-0.1-0.4-0.2-0.8-0.2c-0.2,0-0.5,0-0.8,0.1c-0.3,0.1-0.5,0.2-0.8,0.4l-0.5-1c0.4-0.2,0.8-0.4,1.2-0.5
		c0.4-0.1,0.9-0.2,1.3-0.2c0.7,0,1.3,0.2,1.8,0.6c0.4,0.4,0.6,1,0.6,1.8v3h-1.3l-0.1-0.6l0,0c-0.3,0.2-0.6,0.4-0.9,0.5
		C624.8,362.2,624.3,362.2,624,362.2z M624.5,361c0.2,0,0.4,0,0.7-0.1c0.2-0.1,0.4-0.2,0.6-0.4v-0.9c-0.4,0-0.7,0.1-1,0.1
		c-0.2,0-0.5,0.1-0.6,0.2c-0.1,0.1-0.2,0.2-0.3,0.3s-0.1,0.2-0.1,0.3c0,0.2,0.1,0.3,0.2,0.4C624.1,361,624.3,361,624.5,361z
		 M631.8,362.2c-0.4,0-0.8-0.1-1.2-0.2c-0.4-0.1-0.7-0.3-0.9-0.5c-0.3-0.2-0.5-0.5-0.6-0.9c-0.1-0.3-0.2-0.7-0.2-1.2
		s0.1-0.8,0.2-1.2c0.2-0.4,0.4-0.6,0.7-0.9c0.3-0.2,0.6-0.4,1-0.5c0.4-0.1,0.8-0.2,1.2-0.2s0.8,0.1,1.1,0.2c0.3,0.1,0.6,0.3,0.8,0.5
		l-0.7,1c-0.4-0.3-0.8-0.4-1.2-0.4c-0.5,0-0.8,0.1-1.1,0.4s-0.4,0.6-0.4,1.1s0.1,0.8,0.4,1.1c0.3,0.3,0.6,0.4,1.1,0.4
		c0.3,0,0.5,0,0.8-0.1c0.2-0.1,0.4-0.2,0.6-0.4l0.6,1c-0.3,0.3-0.7,0.5-1.1,0.6C632.5,362.2,632,362.2,631.8,362.2z M638.5,362.2
		c-0.4,0-0.8-0.1-1.1-0.2c-0.3-0.1-0.5-0.3-0.7-0.5s-0.3-0.5-0.4-0.7c-0.1-0.3-0.1-0.6-0.1-0.9V358H635v-1.2l1.4-0.1l0.2-1.6h1.3
		v1.6h2.2v1.2h-2.2v1.9c0,0.4,0.1,0.7,0.3,0.9c0.2,0.2,0.5,0.2,0.9,0.2c0.2,0,0.4,0,0.5,0c0.2,0,0.3-0.1,0.5-0.2l0.3,1.1
		c-0.2,0.1-0.5,0.1-0.8,0.2C639.2,362.2,639,362.2,638.5,362.2z"/>
	<path class="st1" d="M596,375.2c-0.5,0-0.9-0.1-1.4-0.2c-0.5-0.2-0.9-0.4-1.2-0.8l0.9-1.1c0.3,0.2,0.5,0.4,0.9,0.5
		c0.3,0.1,0.6,0.2,1,0.2c0.3,0,0.6-0.1,0.8-0.2c0.2-0.1,0.2-0.3,0.2-0.4c0-0.1,0-0.2-0.1-0.3c-0.1-0.1-0.1-0.2-0.2-0.2
		c-0.1-0.1-0.2-0.1-0.3-0.2c-0.1-0.1-0.3-0.1-0.5-0.2l-0.9-0.4c-0.2-0.1-0.4-0.2-0.6-0.3c-0.2-0.1-0.3-0.2-0.5-0.4
		c-0.1-0.2-0.2-0.3-0.3-0.5s-0.1-0.4-0.1-0.7s0.1-0.5,0.2-0.8c0.1-0.2,0.3-0.5,0.5-0.7s0.5-0.3,0.8-0.4c0.3-0.1,0.7-0.2,1-0.2
		c0.4,0,0.8,0.1,1.2,0.2c0.4,0.2,0.8,0.4,1.1,0.7l-0.8,1c-0.2-0.2-0.5-0.3-0.7-0.4c-0.2-0.1-0.5-0.1-0.9-0.1c-0.3,0-0.5,0.1-0.6,0.2
		c-0.2,0.1-0.2,0.3-0.2,0.5s0.1,0.4,0.3,0.5c0.2,0.1,0.5,0.2,0.8,0.3l0.8,0.4c0.5,0.2,0.8,0.4,1.1,0.7c0.3,0.3,0.4,0.7,0.4,1.2
		c0,0.3-0.1,0.6-0.2,0.8c-0.1,0.3-0.3,0.5-0.5,0.7s-0.5,0.4-0.8,0.5C596.8,375.2,596.5,375.2,596,375.2z M602.5,375.2
		c-0.4,0-0.7-0.1-1-0.2c-0.3-0.1-0.6-0.3-0.9-0.5c-0.3-0.2-0.5-0.5-0.6-0.9c-0.1-0.3-0.2-0.7-0.2-1.2c0-0.4,0.1-0.8,0.2-1.2
		c0.2-0.4,0.4-0.6,0.6-0.9c0.2-0.2,0.5-0.4,0.9-0.5c0.3-0.1,0.7-0.2,1-0.2s0.7,0.1,1,0.2c0.3,0.1,0.6,0.3,0.9,0.5
		c0.3,0.2,0.5,0.5,0.6,0.9c0.1,0.3,0.2,0.7,0.2,1.2c0,0.4-0.1,0.8-0.2,1.2c-0.1,0.3-0.3,0.6-0.6,0.9c-0.3,0.2-0.5,0.4-0.9,0.5
		C603.1,375.2,602.8,375.2,602.5,375.2z M602.5,374c0.4,0,0.6-0.1,0.8-0.4s0.3-0.6,0.3-1.1s-0.1-0.8-0.3-1.1
		c-0.2-0.3-0.4-0.4-0.8-0.4c-0.4,0-0.6,0.1-0.8,0.4s-0.3,0.6-0.3,1.1s0.1,0.8,0.3,1.1C601.8,373.8,602.1,374,602.5,374z
		 M608.8,375.2c-0.4,0-0.7-0.1-1-0.2c-0.3-0.1-0.6-0.3-0.9-0.5c-0.2-0.2-0.5-0.5-0.6-0.9c-0.1-0.3-0.2-0.7-0.2-1.2
		c0-0.4,0.1-0.8,0.2-1.2c0.2-0.4,0.4-0.6,0.6-0.9c0.3-0.2,0.5-0.4,0.9-0.5c0.3-0.1,0.7-0.2,1-0.2s0.7,0.1,1,0.2
		c0.3,0.1,0.6,0.3,0.9,0.5c0.3,0.2,0.5,0.5,0.6,0.9c0.1,0.3,0.2,0.7,0.2,1.2c0,0.4-0.1,0.8-0.2,1.2c-0.1,0.3-0.3,0.6-0.6,0.9
		c-0.2,0.2-0.5,0.4-0.9,0.5C609.5,375.2,609.2,375.2,608.8,375.2z M608.8,374c0.4,0,0.6-0.1,0.8-0.4s0.3-0.6,0.3-1.1
		s-0.1-0.8-0.3-1.1c-0.2-0.3-0.4-0.4-0.8-0.4c-0.4,0-0.6,0.1-0.8,0.4s-0.3,0.6-0.3,1.1s0.1,0.8,0.3,1.1
		C608.2,373.8,608.5,374,608.8,374z M612.8,375.1v-5.3h1.3l0.1,0.7l0,0c0.2-0.2,0.5-0.4,0.8-0.6s0.7-0.2,1-0.2c0.6,0,1,0.2,1.3,0.6
		c0.3,0.4,0.4,0.9,0.4,1.6v3.3h-1.6v-3.1c0-0.4-0.1-0.6-0.2-0.8c-0.1-0.2-0.3-0.2-0.6-0.2c-0.2,0-0.4,0-0.6,0.1
		c-0.2,0.1-0.3,0.2-0.5,0.4v3.5H612.8z M619.2,377.1v-7.2h1.3l0.1,0.5l0,0c0.2-0.2,0.5-0.4,0.7-0.5c0.3-0.1,0.6-0.2,0.8-0.2
		c0.3,0,0.6,0.1,0.9,0.2c0.3,0.1,0.5,0.3,0.7,0.5s0.3,0.5,0.4,0.8s0.1,0.7,0.1,1.1c0,0.5-0.1,0.9-0.2,1.2c-0.1,0.3-0.3,0.7-0.5,0.9
		c-0.2,0.2-0.5,0.4-0.7,0.5c-0.3,0.1-0.6,0.2-0.8,0.2c-0.5,0-0.9-0.2-1.3-0.6l0,0l0.1,0.9v1.5h-1.6V377.1z M621.8,373.9
		c0.3,0,0.6-0.1,0.8-0.4c0.2-0.2,0.3-0.6,0.3-1.2c0-1-0.3-1.4-1-1.4c-0.3,0-0.7,0.2-1,0.5v2.1c0.2,0.1,0.3,0.2,0.5,0.3
		S621.5,373.9,621.8,373.9z M628,375.2c-0.4,0-0.7-0.1-1-0.2c-0.3-0.1-0.6-0.3-0.9-0.5c-0.2-0.2-0.5-0.5-0.6-0.9
		c-0.1-0.3-0.2-0.7-0.2-1.2s0.1-0.8,0.2-1.2c0.2-0.4,0.4-0.6,0.6-0.9c0.2-0.2,0.5-0.4,0.9-0.5c0.3-0.1,0.7-0.2,1-0.2s0.7,0.1,1,0.2
		c0.3,0.1,0.6,0.3,0.9,0.5c0.3,0.2,0.5,0.5,0.6,0.9c0.1,0.3,0.2,0.7,0.2,1.2s-0.1,0.8-0.2,1.2c-0.1,0.3-0.3,0.6-0.6,0.9
		c-0.2,0.2-0.5,0.4-0.9,0.5C628.8,375.2,628.5,375.2,628,375.2z M628,374c0.4,0,0.6-0.1,0.8-0.4s0.3-0.6,0.3-1.1s-0.1-0.8-0.3-1.1
		c-0.2-0.3-0.4-0.4-0.8-0.4c-0.4,0-0.6,0.1-0.8,0.4s-0.3,0.6-0.3,1.1s0.1,0.8,0.3,1.1C627.5,373.8,627.8,374,628,374z M632.5,375.1
		v-5.3h1.3l0.1,1.1l0,0c0.3-0.4,0.6-0.7,0.9-1c0.4-0.2,0.8-0.3,1.2-0.3c0.2,0,0.4,0,0.6,0c0.1,0,0.3,0.1,0.5,0.2l-0.3,1.3
		c-0.2-0.1-0.3-0.1-0.4-0.1c-0.1,0-0.3,0-0.5,0c-0.3,0-0.6,0.1-1,0.3c-0.3,0.2-0.6,0.5-0.8,1v2.8H632.5z M641.8,375.2
		c-0.4,0-0.8-0.1-1.1-0.2c-0.3-0.1-0.5-0.3-0.7-0.5s-0.3-0.5-0.4-0.7c-0.1-0.3-0.1-0.6-0.1-0.9V371h-1.3v-1.2l1.4-0.1l0.2-1.6h1.3
		v1.6h2.2v1.2h-2.2v1.9c0,0.4,0.1,0.7,0.3,0.9c0.2,0.2,0.5,0.2,0.9,0.2c0.2,0,0.4,0,0.5,0c0.2,0,0.3-0.1,0.5-0.2l0.3,1.1
		c-0.2,0.1-0.5,0.1-0.8,0.2C642.5,375.2,642.1,375.2,641.8,375.2z"/>
	<path class="st8" d="M565.8,138.6h96.4l9.1,9.1v45.5l0,0h-96.4l-9.1-9.1V138.6z"/>
	<path class="st7" d="M565.8,138.6h96.4l9.1,9.1v45.5l0,0h-96.4l-9.1-9.1V138.6z"/>
	<path class="st1" d="M602.5,163.3c-0.5,0-0.9-0.1-1.4-0.2c-0.5-0.2-0.9-0.4-1.2-0.8l0.9-1.1c0.3,0.2,0.5,0.4,0.9,0.5
		c0.3,0.1,0.6,0.2,1,0.2c0.3,0,0.6-0.1,0.8-0.2c0.2-0.1,0.2-0.3,0.2-0.4c0-0.1,0-0.2-0.1-0.3s-0.1-0.2-0.2-0.2
		c-0.1-0.1-0.2-0.1-0.3-0.2c-0.1-0.1-0.3-0.1-0.5-0.2l-0.9-0.4c-0.2-0.1-0.4-0.2-0.6-0.3c-0.2-0.1-0.3-0.2-0.5-0.4
		c-0.1-0.2-0.2-0.3-0.3-0.5s-0.1-0.4-0.1-0.7s0.1-0.5,0.2-0.8c0.1-0.2,0.3-0.5,0.5-0.7s0.5-0.3,0.8-0.4c0.3-0.1,0.7-0.2,1-0.2
		c0.4,0,0.8,0.1,1.2,0.2c0.4,0.2,0.8,0.4,1.1,0.7l-0.8,1c-0.3-0.2-0.5-0.3-0.7-0.4c-0.2-0.1-0.5-0.1-0.9-0.1c-0.3,0-0.5,0.1-0.6,0.2
		c-0.2,0.1-0.2,0.3-0.2,0.5s0.1,0.4,0.3,0.5s0.5,0.2,0.8,0.3l0.8,0.4c0.5,0.2,0.8,0.4,1.1,0.7s0.4,0.7,0.4,1.2
		c0,0.3-0.1,0.6-0.2,0.8c-0.1,0.3-0.3,0.5-0.5,0.7s-0.5,0.4-0.8,0.5C603.2,163.2,602.8,163.3,602.5,163.3z M609.1,163.3
		c-0.4,0-0.8-0.1-1.2-0.2c-0.4-0.1-0.7-0.3-0.9-0.5c-0.3-0.2-0.5-0.5-0.6-0.9c-0.1-0.3-0.2-0.7-0.2-1.2c0-0.4,0.1-0.8,0.2-1.2
		c0.2-0.3,0.4-0.6,0.6-0.9c0.3-0.2,0.6-0.4,0.9-0.5c0.3-0.1,0.7-0.2,1-0.2c0.4,0,0.8,0.1,1.1,0.2c0.3,0.1,0.6,0.3,0.8,0.5
		s0.4,0.5,0.5,0.8s0.2,0.6,0.2,1c0,0.1,0,0.3,0,0.4c0,0.1,0,0.2,0,0.3h-3.6c0.1,0.4,0.2,0.7,0.5,0.8c0.3,0.2,0.6,0.3,1.1,0.3
		c0.2,0,0.5,0,0.7-0.1s0.4-0.2,0.7-0.3l0.5,1c-0.3,0.2-0.6,0.3-1,0.5C610,163.2,609.5,163.3,609.1,163.3z M609,158.9
		c-0.3,0-0.6,0.1-0.8,0.2c-0.2,0.2-0.4,0.4-0.4,0.7h2.3C610,159.2,609.6,158.9,609,158.9z M614.5,163.3c-0.3,0-0.5,0-0.7-0.1
		s-0.4-0.2-0.5-0.3s-0.3-0.3-0.3-0.5c-0.1-0.2-0.1-0.4-0.1-0.6c0-0.3,0.1-0.6,0.2-0.8c0.1-0.2,0.3-0.4,0.6-0.6s0.6-0.3,1.1-0.4
		c0.4-0.1,1-0.2,1.6-0.2c0-0.2-0.1-0.4-0.3-0.6c-0.2-0.1-0.4-0.2-0.8-0.2c-0.2,0-0.5,0-0.8,0.1s-0.5,0.2-0.8,0.4l-0.5-1
		c0.4-0.2,0.8-0.4,1.2-0.5s0.9-0.2,1.3-0.2c0.7,0,1.3,0.2,1.8,0.6c0.4,0.4,0.6,1,0.6,1.8v3h-1.3l-0.1-0.6l0,0
		c-0.3,0.2-0.6,0.4-0.9,0.5C615.1,163.2,614.8,163.3,614.5,163.3z M615,162c0.2,0,0.4,0,0.7-0.1c0.2-0.1,0.4-0.2,0.6-0.4v-0.9
		c-0.4,0-0.7,0.1-1,0.1c-0.2,0-0.5,0.1-0.6,0.2c-0.1,0.1-0.2,0.2-0.3,0.3s-0.1,0.2-0.1,0.3c0,0.2,0.1,0.3,0.2,0.4
		C614.5,162,614.8,162,615,162z M619.8,163.1v-5.3h1.3l0.1,1.1l0,0c0.3-0.4,0.6-0.7,0.9-1c0.4-0.2,0.8-0.3,1.2-0.3
		c0.2,0,0.4,0,0.6,0c0.1,0,0.3,0.1,0.5,0.2l-0.3,1.3c-0.2-0.1-0.3-0.1-0.4-0.1c-0.1,0-0.3,0-0.5,0c-0.3,0-0.6,0.1-1,0.3
		c-0.3,0.2-0.6,0.5-0.8,1v2.8H619.8z M628.5,163.3c-0.4,0-0.8-0.1-1.2-0.2c-0.4-0.1-0.7-0.3-0.9-0.5c-0.3-0.2-0.5-0.5-0.6-0.9
		c-0.1-0.3-0.2-0.7-0.2-1.2s0.1-0.8,0.2-1.2c0.2-0.4,0.4-0.6,0.7-0.9c0.3-0.2,0.6-0.4,1-0.5s0.8-0.2,1.2-0.2s0.8,0.1,1.1,0.2
		c0.3,0.1,0.6,0.3,0.8,0.5l-0.7,1c-0.4-0.3-0.8-0.4-1.2-0.4c-0.5,0-0.8,0.1-1.1,0.4c-0.3,0.3-0.4,0.6-0.4,1.1s0.1,0.8,0.4,1.1
		c0.3,0.3,0.6,0.4,1.1,0.4c0.3,0,0.5,0,0.8-0.1c0.2-0.1,0.4-0.2,0.6-0.4l0.6,1c-0.3,0.3-0.7,0.5-1.1,0.6
		C629.2,163.2,628.8,163.3,628.5,163.3z M632,163.1v-7.5h1.6v1.8l-0.1,1l0,0c0.2-0.2,0.4-0.4,0.7-0.5c0.3-0.2,0.6-0.2,1-0.2
		c0.6,0,1,0.2,1.3,0.6c0.3,0.4,0.4,0.9,0.4,1.6v3.3h-1.6v-3.1c0-0.4-0.1-0.6-0.2-0.8c-0.1-0.2-0.3-0.2-0.6-0.2c-0.2,0-0.4,0-0.6,0.1
		c-0.2,0.1-0.3,0.2-0.5,0.4v3.5L632,163.1L632,163.1z"/>
	<path class="st1" d="M596.8,176.1v-7h2.5c0.4,0,0.7,0,1,0.1s0.6,0.2,0.9,0.4c0.2,0.2,0.4,0.4,0.6,0.7c0.1,0.3,0.2,0.6,0.2,1.1
		c0,0.4-0.1,0.7-0.2,1c-0.1,0.3-0.3,0.6-0.6,0.8c-0.2,0.2-0.5,0.3-0.9,0.4c-0.3,0.1-0.7,0.1-1,0.1h-0.9v2.4H596.8z M598.5,172.5h0.8
		c0.8,0,1.3-0.4,1.3-1.1c0-0.4-0.1-0.6-0.3-0.8s-0.5-0.2-0.9-0.2h-0.8L598.5,172.5L598.5,172.5z M603.8,176.1v-5.3h1.3l0.1,1.1l0,0
		c0.3-0.4,0.6-0.7,0.9-1c0.4-0.2,0.8-0.3,1.2-0.3c0.2,0,0.4,0,0.6,0s0.3,0.1,0.5,0.2l-0.3,1.3c-0.2-0.1-0.3-0.1-0.4-0.1
		c-0.1,0-0.3,0-0.5,0c-0.3,0-0.6,0.1-1,0.3c-0.3,0.2-0.6,0.5-0.8,1v2.8H603.8z M612,176.3c-0.4,0-0.7-0.1-1-0.2
		c-0.3-0.1-0.6-0.3-0.9-0.5c-0.2-0.2-0.5-0.5-0.6-0.9c-0.1-0.3-0.2-0.7-0.2-1.2s0.1-0.8,0.2-1.2c0.2-0.4,0.4-0.6,0.6-0.9
		c0.2-0.2,0.5-0.4,0.9-0.5c0.3-0.1,0.7-0.2,1-0.2s0.7,0.1,1,0.2c0.3,0.1,0.6,0.3,0.9,0.5c0.3,0.2,0.5,0.5,0.6,0.9
		c0.1,0.3,0.2,0.7,0.2,1.2s-0.1,0.8-0.2,1.2c-0.1,0.3-0.3,0.6-0.6,0.9c-0.2,0.2-0.5,0.4-0.9,0.5C612.8,176.2,612.5,176.3,612,176.3z
		 M612,175c0.4,0,0.6-0.1,0.8-0.4c0.2-0.3,0.3-0.6,0.3-1.1s-0.1-0.8-0.3-1.1s-0.4-0.4-0.8-0.4c-0.4,0-0.6,0.1-0.8,0.4
		c-0.2,0.3-0.3,0.6-0.3,1.1s0.1,0.8,0.3,1.1C611.5,174.9,611.8,175,612,175z M618,176.3c-0.3,0-0.6-0.1-0.9-0.2
		c-0.3-0.1-0.5-0.3-0.7-0.5s-0.3-0.5-0.5-0.9c-0.1-0.3-0.2-0.7-0.2-1.2c0-0.4,0.1-0.8,0.2-1.2c0.1-0.3,0.3-0.6,0.5-0.9
		c0.2-0.2,0.4-0.4,0.7-0.5s0.6-0.2,0.8-0.2c0.3,0,0.5,0,0.8,0.1c0.2,0.1,0.4,0.2,0.6,0.4l0,0l-0.1-0.8v-1.8h1.6v7.5h-1.3l-0.1-0.5
		l0,0c-0.2,0.2-0.4,0.4-0.7,0.5C618.5,176.2,618.2,176.3,618,176.3z M618.5,175c0.2,0,0.3,0,0.5-0.1c0.1-0.1,0.3-0.2,0.4-0.4v-2.1
		c-0.1-0.1-0.3-0.2-0.4-0.3c-0.1-0.1-0.3-0.1-0.5-0.1c-0.3,0-0.5,0.1-0.8,0.4c-0.2,0.2-0.3,0.6-0.3,1.1s0.1,0.9,0.3,1.2
		C617.8,174.9,618,175,618.5,175z M625.3,176.3c-0.4,0-0.8-0.1-1.2-0.2c-0.4-0.1-0.7-0.3-0.9-0.5c-0.3-0.2-0.5-0.5-0.6-0.9
		c-0.1-0.3-0.2-0.7-0.2-1.2s0.1-0.8,0.2-1.2c0.2-0.4,0.4-0.6,0.7-0.9c0.3-0.2,0.6-0.4,1-0.5s0.8-0.2,1.2-0.2s0.8,0.1,1.1,0.2
		c0.3,0.1,0.6,0.3,0.8,0.5l-0.7,1c-0.4-0.3-0.8-0.4-1.2-0.4c-0.5,0-0.8,0.1-1.1,0.4c-0.3,0.3-0.4,0.6-0.4,1.1s0.1,0.8,0.4,1.1
		c0.3,0.3,0.6,0.4,1.1,0.4c0.3,0,0.5,0,0.8-0.1c0.2-0.1,0.4-0.2,0.6-0.4l0.6,1c-0.3,0.3-0.7,0.5-1.1,0.6
		C626,176.2,625.6,176.3,625.3,176.3z M630.5,176.3c-0.6,0-1-0.2-1.3-0.6c-0.3-0.4-0.4-0.9-0.4-1.6v-3.2h1.6v3
		c0,0.4,0.1,0.6,0.2,0.8c0.1,0.2,0.3,0.2,0.6,0.2c0.2,0,0.4,0,0.5-0.1c0.2-0.1,0.3-0.2,0.5-0.5v-3.5h1.6v5.3h-1.3l-0.1-0.8l0,0
		c-0.2,0.3-0.5,0.5-0.8,0.6C631.1,176.2,630.8,176.3,630.5,176.3z M638.5,176.3c-0.4,0-0.8-0.1-1.1-0.2c-0.3-0.1-0.5-0.3-0.7-0.5
		s-0.3-0.5-0.4-0.7c-0.1-0.3-0.1-0.6-0.1-0.9v-1.9H635v-1.2l1.4-0.1l0.2-1.6h1.3v1.6h2.2v1.2h-2.2v1.9c0,0.4,0.1,0.7,0.3,0.9
		s0.5,0.2,0.9,0.2c0.2,0,0.4,0,0.5,0c0.2,0,0.3-0.1,0.5-0.2l0.3,1.1c-0.2,0.1-0.5,0.1-0.8,0.2C639.2,176.2,639,176.3,638.5,176.3z"
		/>
	<path class="st3" d="M486.3,182.8v113.1h69.6"/>
	<path class="st7" d="M486.3,182.8v113.1h63.6"/>
	<path class="st9" d="M550,297.5l4.5-1.7l-4.5-1.7V297.5z"/>
	<path class="st8" d="M565.8,214.3h99.8l5.6,5.6v28.2l0,0h-99.8l-5.6-5.6V214.3z"/>
	<path class="st7" d="M565.8,214.3h99.8l5.6,5.6v28.2l0,0h-99.8l-5.6-5.6V214.3z"/>
	<path class="st1" d="M596,228.5c-0.5,0-0.9-0.1-1.4-0.2c-0.5-0.2-0.9-0.4-1.2-0.8l0.9-1.1c0.3,0.2,0.5,0.4,0.9,0.5
		c0.3,0.1,0.6,0.2,1,0.2c0.3,0,0.6-0.1,0.8-0.2s0.2-0.3,0.2-0.4s0-0.2-0.1-0.3c-0.1-0.1-0.1-0.2-0.2-0.2c-0.1-0.1-0.2-0.1-0.3-0.2
		s-0.3-0.1-0.5-0.2l-0.9-0.4c-0.2-0.1-0.4-0.2-0.6-0.3c-0.2-0.1-0.3-0.2-0.5-0.4c-0.1-0.2-0.2-0.3-0.3-0.5s-0.1-0.4-0.1-0.7
		c0-0.3,0.1-0.5,0.2-0.8c0.1-0.2,0.3-0.5,0.5-0.7s0.5-0.3,0.8-0.4s0.7-0.2,1-0.2c0.4,0,0.8,0.1,1.2,0.2c0.4,0.2,0.8,0.4,1.1,0.7
		l-0.8,1c-0.2-0.2-0.5-0.3-0.7-0.4s-0.5-0.1-0.9-0.1c-0.3,0-0.5,0.1-0.6,0.2c-0.2,0.1-0.2,0.3-0.2,0.5s0.1,0.4,0.3,0.5
		s0.5,0.2,0.8,0.3l0.8,0.4c0.5,0.2,0.8,0.4,1.1,0.7c0.3,0.3,0.4,0.7,0.4,1.2c0,0.3-0.1,0.6-0.2,0.8c-0.1,0.3-0.3,0.5-0.5,0.7
		s-0.5,0.4-0.8,0.5C596.8,228.5,596.5,228.5,596,228.5z M600,230.4v-7.2h1.3l0.1,0.5l0,0c0.2-0.2,0.5-0.4,0.7-0.5
		c0.3-0.1,0.6-0.2,0.8-0.2c0.3,0,0.6,0.1,0.9,0.2c0.3,0.1,0.5,0.3,0.7,0.5s0.3,0.5,0.4,0.8c0.1,0.3,0.1,0.7,0.1,1.1
		c0,0.5-0.1,0.9-0.2,1.2c-0.1,0.4-0.3,0.7-0.5,0.9c-0.2,0.2-0.5,0.4-0.7,0.5c-0.3,0.1-0.6,0.2-0.8,0.2c-0.5,0-0.9-0.2-1.3-0.6l0,0
		l0.1,0.9v1.5H600V230.4z M602.5,227.2c0.3,0,0.6-0.1,0.8-0.4c0.2-0.2,0.3-0.6,0.3-1.2c0-1-0.3-1.4-1-1.4c-0.3,0-0.7,0.2-1,0.5v2.1
		c0.2,0.1,0.3,0.2,0.5,0.3C602.2,227.2,602.3,227.2,602.5,227.2z M608.6,228.4v-4.1h-2.1v-1.2h3.7v5.3L608.6,228.4L608.6,228.4z
		 M608.8,222.3c-0.3,0-0.6-0.1-0.8-0.2c-0.2-0.2-0.3-0.4-0.3-0.7c0-0.3,0.1-0.5,0.3-0.7s0.5-0.3,0.8-0.3s0.5,0.1,0.7,0.3
		c0.2,0.2,0.3,0.4,0.3,0.7c0,0.3-0.1,0.5-0.3,0.7C609.5,222.2,609.1,222.3,608.8,222.3z M615.8,228.5c-0.4,0-0.8-0.1-1.2-0.2
		s-0.7-0.3-0.9-0.5c-0.3-0.2-0.5-0.5-0.6-0.9c-0.1-0.3-0.2-0.7-0.2-1.2c0-0.4,0.1-0.8,0.2-1.2c0.2-0.4,0.4-0.6,0.7-0.9
		c0.3-0.2,0.6-0.4,1-0.5s0.8-0.2,1.2-0.2s0.8,0.1,1.1,0.2s0.6,0.3,0.8,0.5l-0.7,1c-0.4-0.3-0.8-0.4-1.2-0.4c-0.5,0-0.8,0.1-1.1,0.4
		s-0.4,0.6-0.4,1.1s0.1,0.8,0.4,1.1c0.3,0.3,0.6,0.4,1.1,0.4c0.3,0,0.5,0,0.8-0.1c0.2-0.1,0.4-0.2,0.6-0.4l0.6,1
		c-0.3,0.3-0.7,0.5-1.1,0.6C616.5,228.5,616,228.5,615.8,228.5z M621.5,228.4v-4.1h-2.1v-1.2h3.7v5.3L621.5,228.4L621.5,228.4z
		 M621.6,222.3c-0.3,0-0.6-0.1-0.8-0.2c-0.2-0.2-0.3-0.4-0.3-0.7s0.1-0.5,0.3-0.7s0.5-0.3,0.8-0.3s0.5,0.1,0.7,0.3
		c0.2,0.2,0.3,0.4,0.3,0.7s-0.1,0.5-0.3,0.7C622.2,222.2,622,222.3,621.6,222.3z M627.1,228.4v-4.1h-1.4v-1.1l1.4-0.1V223
		c0-0.3,0-0.6,0.1-0.8c0.1-0.3,0.2-0.5,0.4-0.7s0.4-0.4,0.7-0.5s0.7-0.2,1.1-0.2c0.3,0,0.6,0,0.8,0.1c0.3,0.1,0.5,0.1,0.8,0.2
		l-0.3,1.2c-0.4-0.1-0.7-0.2-1.1-0.2c-0.3,0-0.6,0.1-0.8,0.2s-0.2,0.4-0.2,0.7v0.2h1.8v1.2h-1.8v4.1h-1.5V228.4z M634.2,228.4v-4.1
		h-2.1v-1.2h3.7v5.3L634.2,228.4L634.2,228.4z M634.5,222.3c-0.3,0-0.6-0.1-0.8-0.2c-0.2-0.2-0.3-0.4-0.3-0.7s0.1-0.5,0.3-0.7
		s0.5-0.3,0.8-0.3s0.5,0.1,0.7,0.3c0.2,0.2,0.3,0.4,0.3,0.7s-0.1,0.5-0.3,0.7C635,222.2,634.8,222.3,634.5,222.3z M641.3,228.5
		c-0.4,0-0.8-0.1-1.2-0.2s-0.7-0.3-0.9-0.5c-0.3-0.2-0.5-0.5-0.6-0.9c-0.1-0.3-0.2-0.7-0.2-1.2s0.1-0.8,0.2-1.2
		c0.2-0.4,0.4-0.6,0.7-0.9c0.3-0.2,0.6-0.4,1-0.5s0.8-0.2,1.2-0.2s0.8,0.1,1.1,0.2s0.6,0.3,0.8,0.5l-0.7,1c-0.4-0.3-0.8-0.4-1.2-0.4
		c-0.5,0-0.8,0.1-1.1,0.4s-0.4,0.6-0.4,1.1s0.1,0.8,0.4,1.1c0.3,0.3,0.6,0.4,1.1,0.4c0.3,0,0.5,0,0.8-0.1c0.2-0.1,0.4-0.2,0.6-0.4
		l0.6,1c-0.3,0.3-0.7,0.5-1.1,0.6C642,228.5,641.6,228.5,641.3,228.5z"/>
	<path class="st1" d="M596.8,241.4v-7h2.5c0.4,0,0.7,0,1,0.1s0.6,0.2,0.9,0.4c0.2,0.2,0.4,0.4,0.6,0.7c0.1,0.3,0.2,0.6,0.2,1.1
		c0,0.4-0.1,0.7-0.2,1s-0.3,0.6-0.6,0.8c-0.2,0.2-0.5,0.3-0.9,0.4c-0.3,0.1-0.7,0.1-1,0.1h-0.9v2.4H596.8z M598.5,237.8h0.8
		c0.8,0,1.3-0.4,1.3-1.1c0-0.4-0.1-0.6-0.3-0.8c-0.2-0.2-0.5-0.2-0.9-0.2h-0.8L598.5,237.8L598.5,237.8z M603.8,241.4v-5.3h1.3
		l0.1,1.1l0,0c0.3-0.4,0.6-0.7,0.9-1c0.4-0.2,0.8-0.3,1.2-0.3c0.2,0,0.4,0,0.6,0s0.3,0.1,0.5,0.2l-0.3,1.3c-0.2-0.1-0.3-0.1-0.4-0.1
		s-0.3,0-0.5,0c-0.3,0-0.6,0.1-1,0.3c-0.3,0.2-0.6,0.5-0.8,1v2.8H603.8z M612,241.5c-0.4,0-0.7-0.1-1-0.2s-0.6-0.3-0.9-0.5
		c-0.2-0.2-0.5-0.5-0.6-0.9c-0.1-0.3-0.2-0.7-0.2-1.2s0.1-0.8,0.2-1.2c0.2-0.4,0.4-0.6,0.6-0.9c0.2-0.2,0.5-0.4,0.9-0.5
		c0.3-0.1,0.7-0.2,1-0.2s0.7,0.1,1,0.2s0.6,0.3,0.9,0.5c0.3,0.2,0.5,0.5,0.6,0.9c0.1,0.3,0.2,0.7,0.2,1.2s-0.1,0.8-0.2,1.2
		s-0.3,0.6-0.6,0.9c-0.2,0.2-0.5,0.4-0.9,0.5S612.5,241.5,612,241.5z M612,240.3c0.4,0,0.6-0.1,0.8-0.4s0.3-0.6,0.3-1.1
		s-0.1-0.8-0.3-1.1c-0.2-0.3-0.4-0.4-0.8-0.4c-0.4,0-0.6,0.1-0.8,0.4s-0.3,0.6-0.3,1.1s0.1,0.8,0.3,1.1
		C611.5,240.1,611.8,240.3,612,240.3z M618,241.5c-0.3,0-0.6-0.1-0.9-0.2c-0.3-0.1-0.5-0.3-0.7-0.5s-0.3-0.5-0.5-0.9
		c-0.1-0.3-0.2-0.7-0.2-1.2c0-0.4,0.1-0.8,0.2-1.2c0.1-0.3,0.3-0.6,0.5-0.9c0.2-0.2,0.4-0.4,0.7-0.5s0.6-0.2,0.8-0.2
		c0.3,0,0.5,0,0.8,0.1c0.2,0.1,0.4,0.2,0.6,0.4l0,0l-0.1-0.8v-1.8h1.6v7.5h-1.3l-0.1-0.5l0,0c-0.2,0.2-0.4,0.4-0.7,0.5
		C618.5,241.5,618.2,241.5,618,241.5z M618.5,240.2c0.2,0,0.3,0,0.5-0.1c0.1-0.1,0.3-0.2,0.4-0.4v-2.1c-0.1-0.1-0.3-0.2-0.4-0.3
		c-0.1-0.1-0.3-0.1-0.5-0.1c-0.3,0-0.5,0.1-0.8,0.4c-0.2,0.2-0.3,0.6-0.3,1.1s0.1,0.9,0.3,1.2C617.8,240.1,618,240.2,618.5,240.2z
		 M624,241.5c-0.6,0-1-0.2-1.3-0.6s-0.4-0.9-0.4-1.6v-3.2h1.6v3c0,0.4,0.1,0.6,0.2,0.8c0.1,0.2,0.3,0.2,0.6,0.2c0.2,0,0.4,0,0.5-0.1
		c0.2-0.1,0.3-0.2,0.5-0.5V236h1.6v5.3H626l-0.1-0.8l0,0c-0.2,0.3-0.5,0.5-0.8,0.6C624.8,241.4,624.5,241.5,624,241.5z M631.8,241.5
		c-0.4,0-0.8-0.1-1.2-0.2s-0.7-0.3-0.9-0.5c-0.3-0.2-0.5-0.5-0.6-0.9c-0.1-0.3-0.2-0.7-0.2-1.2s0.1-0.8,0.2-1.2
		c0.2-0.4,0.4-0.6,0.7-0.9c0.3-0.2,0.6-0.4,1-0.5s0.8-0.2,1.2-0.2s0.8,0.1,1.1,0.2s0.6,0.3,0.8,0.5l-0.7,1c-0.4-0.3-0.8-0.4-1.2-0.4
		c-0.5,0-0.8,0.1-1.1,0.4s-0.4,0.6-0.4,1.1s0.1,0.8,0.4,1.1c0.3,0.3,0.6,0.4,1.1,0.4c0.3,0,0.5,0,0.8-0.1c0.2-0.1,0.4-0.2,0.6-0.4
		l0.6,1c-0.3,0.3-0.7,0.5-1.1,0.6C632.5,241.5,632,241.5,631.8,241.5z M638.5,241.5c-0.4,0-0.8-0.1-1.1-0.2s-0.5-0.3-0.7-0.5
		s-0.3-0.5-0.4-0.7c-0.1-0.3-0.1-0.6-0.1-0.9v-1.9H635v-1.1l1.4-0.1l0.2-1.6h1.3v1.6h2.2v1.2h-2.2v1.9c0,0.4,0.1,0.7,0.3,0.9
		c0.2,0.2,0.5,0.2,0.9,0.2c0.2,0,0.4,0,0.5,0c0.2,0,0.3-0.1,0.5-0.2l0.3,1.1c-0.2,0.1-0.5,0.1-0.8,0.2
		C639.2,241.5,639,241.5,638.5,241.5z"/>
	<path class="st3" d="M671.2,231.2h25v-65.3h-24.9"/>
	<path class="st7" d="M671.2,231.2h25v-65.3h-18.9"/>
	<path class="st9" d="M677.2,164.2l-4.5,1.7l4.5,1.7V164.2z"/>
	<path class="st3" d="M618.5,96.5v21h0.1v21"/>
	<path class="st7" d="M618.5,96.5v21h0.1v15"/>
	<path class="st9" d="M616.8,132.6l1.7,4.5l1.7-4.5H616.8z"/>
	<path class="st3" d="M618.5,193.2v10.5h0.1v10.5"/>
	<path class="st7" d="M618.5,193.2v10.5h0.1v4.5"/>
	<path class="st9" d="M616.8,208.3l1.7,4.5l1.7-4.5H616.8z"/>
	<path class="st3" d="M618.5,248.1v14.5h0.1v14.5"/>
	<path class="st7" d="M618.5,254.1v8.5h0.1v8.5"/>
	<path class="st9" d="M620.1,254.1l-1.7-4.5l-1.7,4.5H620.1z"/>
	<path class="st9" d="M616.8,271.1l1.7,4.5l1.7-4.5H616.8z"/>
	<path class="st3" d="M618.5,314.6v15.8h0.1v15.8"/>
	<path class="st7" d="M618.5,314.6v15.8h0.1v9.8"/>
	<path class="st9" d="M616.8,340.1l1.7,4.5l1.7-4.5H616.8z"/>
	<path class="st3" d="M725,142.2v107h-51.1v-107H725z"/>
	<path class="st10" d="M704.2,178.3c0-0.5,0.1-0.9,0.3-1.4c0.2-0.4,0.4-0.8,0.8-1.1c0.4-0.3,0.8-0.6,1.3-0.7s1.1-0.3,1.7-0.3
		c0.6,0,1.2,0.1,1.7,0.3s0.9,0.4,1.3,0.7c0.4,0.3,0.6,0.7,0.8,1.1s0.3,0.9,0.3,1.4s-0.1,0.9-0.3,1.3c-0.2,0.4-0.4,0.7-0.7,0.9
		l-0.8-0.7c0.2-0.2,0.4-0.4,0.5-0.7c0.1-0.2,0.2-0.5,0.2-0.9c0-0.3-0.1-0.7-0.2-1c-0.1-0.3-0.3-0.5-0.6-0.8c-0.3-0.2-0.6-0.4-1-0.5
		s-0.8-0.2-1.2-0.2c-0.5,0-0.9,0.1-1.3,0.2c-0.4,0.1-0.7,0.3-1,0.5s-0.5,0.5-0.6,0.7c-0.1,0.3-0.2,0.6-0.2,1c0,0.3,0.1,0.7,0.2,0.9
		c0.1,0.3,0.4,0.5,0.6,0.8l-0.7,0.7c-0.4-0.3-0.7-0.7-0.9-1.1C704.3,179.3,704.2,178.9,704.2,178.3z M704.5,182.4h8.5v1.2h-2.3
		l-1.3-0.1l0,0c0.3,0.3,0.6,0.6,0.8,0.9c0.2,0.3,0.3,0.7,0.3,1.2c0,0.7-0.2,1.2-0.6,1.5c-0.4,0.3-1,0.5-1.8,0.5h-3.6v-1.2h3.5
		c0.5,0,0.9-0.1,1.1-0.3c0.2-0.2,0.4-0.5,0.4-1c0-0.3-0.1-0.6-0.2-0.8c-0.2-0.2-0.4-0.5-0.7-0.8h-4v-1.1L704.5,182.4L704.5,182.4z
		 M704.2,191.4c0-0.3,0-0.5,0.1-0.8c0.1-0.2,0.2-0.4,0.3-0.6c0.2-0.2,0.3-0.3,0.5-0.4s0.4-0.2,0.7-0.2s0.6,0.1,0.9,0.2
		c0.2,0.2,0.5,0.4,0.6,0.7c0.2,0.3,0.3,0.8,0.4,1.3c0.1,0.5,0.2,1.2,0.3,1.9c0.4,0,0.7-0.1,0.9-0.3c0.3-0.2,0.4-0.6,0.4-1.1
		c0-0.4-0.1-0.7-0.2-1.1c-0.1-0.3-0.3-0.6-0.5-0.9l0.8-0.4c0.1,0.2,0.2,0.3,0.3,0.5s0.2,0.4,0.3,0.6s0.1,0.5,0.2,0.7
		c0.1,0.2,0.1,0.5,0.1,0.8c0,0.8-0.2,1.4-0.7,1.8c-0.4,0.4-1,0.6-1.8,0.6h-3.5v-1l0.8-0.1l0,0c-0.2-0.3-0.4-0.7-0.6-1.1
		C704.3,192.2,704.2,191.8,704.2,191.4z M705.2,191.7c0,0.3,0.1,0.6,0.2,0.9c0.1,0.3,0.3,0.6,0.6,0.9h1.4c0-0.6-0.1-1.1-0.2-1.4
		c-0.1-0.4-0.2-0.7-0.3-0.9c-0.1-0.2-0.2-0.4-0.4-0.5c-0.1-0.1-0.3-0.1-0.5-0.1c-0.3,0-0.5,0.1-0.6,0.3
		C705.2,191.1,705.2,191.4,705.2,191.7z M704.5,196.8h5.9v1l-1,0.1l0,0c0.3,0.3,0.6,0.6,0.8,1c0.2,0.3,0.3,0.7,0.3,1.2
		c0,0.7-0.2,1.2-0.6,1.5c-0.4,0.3-1,0.5-1.8,0.5h-3.6v-1.2h3.5c0.5,0,0.9-0.1,1.1-0.3c0.2-0.2,0.4-0.5,0.4-1c0-0.3-0.1-0.6-0.2-0.8
		c-0.2-0.2-0.4-0.5-0.7-0.8h-4v-1.2L704.5,196.8L704.5,196.8z M701.8,206.4c0-0.8,0.1-1.5,0.4-2c0.3-0.5,0.7-0.7,1.2-0.7
		s0.9,0.3,1.3,1l0,0c0.1-0.2,0.2-0.3,0.4-0.4s0.4-0.2,0.6-0.2c0.2,0,0.4,0.1,0.6,0.2c0.2,0.1,0.4,0.3,0.5,0.5l0,0
		c0.1-0.2,0.3-0.4,0.6-0.5s0.6-0.2,0.9-0.2c0.3,0,0.6,0.1,0.9,0.2c0.3,0.1,0.5,0.3,0.7,0.5s0.3,0.5,0.4,0.8c0.1,0.3,0.2,0.6,0.2,0.9
		s0,0.6-0.1,0.9v2.4h-0.9v-1.4c-0.1,0.1-0.3,0.2-0.5,0.3c-0.2,0.1-0.4,0.1-0.6,0.1c-0.3,0-0.6-0.1-0.8-0.2s-0.5-0.3-0.6-0.5
		c-0.2-0.2-0.3-0.5-0.4-0.7c-0.1-0.3-0.1-0.6-0.1-0.9c0-0.1,0-0.3,0-0.5s0.1-0.3,0.1-0.5c-0.2-0.3-0.4-0.4-0.6-0.4
		c-0.4,0-0.6,0.4-0.6,1.2v1.2c0,0.8-0.1,1.3-0.3,1.7c-0.2,0.4-0.6,0.6-1.1,0.6c-0.3,0-0.6-0.1-0.8-0.2s-0.5-0.4-0.7-0.7
		c-0.2-0.3-0.3-0.6-0.4-1C701.8,207.4,701.8,206.9,701.8,206.4z M707,206.4c0,0.3,0.1,0.6,0.3,0.9c0.2,0.2,0.5,0.4,1,0.4
		c0.4,0,0.7-0.1,0.9-0.4c0.2-0.2,0.4-0.5,0.4-0.9c0-0.3-0.1-0.6-0.4-0.9c-0.2-0.2-0.5-0.4-0.9-0.4s-0.7,0.1-1,0.4
		C707.1,205.8,707,206,707,206.4z M702.5,206.5c0,0.3,0,0.6,0.1,0.8c0.1,0.3,0.1,0.5,0.2,0.6c0.1,0.2,0.2,0.3,0.3,0.4
		s0.3,0.2,0.4,0.2c0.3,0,0.4-0.1,0.5-0.3c0.1-0.2,0.1-0.5,0.1-0.9v-1c0-0.2,0-0.4,0-0.5s0-0.3,0.1-0.4c-0.1-0.2-0.3-0.4-0.4-0.5
		c-0.2-0.1-0.3-0.1-0.5-0.1c-0.3,0-0.5,0.2-0.7,0.5C702.6,205.5,702.5,205.9,702.5,206.5z M704.2,214.1c0-0.4,0.1-0.9,0.2-1.2
		c0.1-0.4,0.3-0.7,0.6-1s0.6-0.5,1-0.7s0.8-0.2,1.3-0.2s0.9,0.1,1.3,0.2c0.4,0.2,0.7,0.4,1,0.7c0.3,0.3,0.5,0.6,0.6,1
		s0.2,0.7,0.2,1.1s-0.1,0.8-0.2,1.1c-0.1,0.3-0.3,0.6-0.6,0.9c-0.2,0.2-0.5,0.4-0.9,0.5c-0.3,0.1-0.7,0.2-1.1,0.2
		c-0.1,0-0.2,0-0.4,0c-0.1,0-0.2,0-0.3,0v-4.5c-0.6,0.1-1.1,0.3-1.4,0.7c-0.3,0.4-0.4,0.9-0.4,1.5c0,0.3,0,0.6,0.1,0.9
		s0.2,0.5,0.4,0.8l-0.8,0.4c-0.2-0.3-0.4-0.6-0.5-1C704.3,214.9,704.2,214.5,704.2,214.1z M709.5,213.9c0-0.2,0-0.4-0.1-0.6
		s-0.2-0.4-0.3-0.5c-0.1-0.2-0.3-0.3-0.5-0.4s-0.4-0.2-0.7-0.2v3.4c0.5,0,0.9-0.2,1.2-0.5C709.3,214.7,709.5,214.4,709.5,213.9z"/>
	<path class="st10" d="M682.2,177.7c0-0.6,0.1-1.1,0.3-1.6s0.5-0.9,0.9-1.3l0.8,0.7c-0.3,0.3-0.5,0.6-0.7,1s-0.2,0.8-0.2,1.2
		c0,0.5,0.1,0.9,0.3,1.2s0.5,0.4,0.8,0.4c0.2,0,0.4,0,0.5-0.1s0.2-0.2,0.3-0.3s0.2-0.3,0.3-0.4c0.1-0.2,0.2-0.3,0.2-0.5l0.5-1.1
		c0.1-0.2,0.2-0.4,0.3-0.6c0.1-0.2,0.3-0.4,0.4-0.5c0.2-0.2,0.4-0.3,0.6-0.4s0.5-0.2,0.8-0.2s0.6,0.1,0.8,0.2
		c0.3,0.1,0.5,0.3,0.7,0.5s0.3,0.5,0.5,0.8c0.1,0.3,0.2,0.7,0.2,1.1c0,0.5-0.1,0.9-0.3,1.4c-0.2,0.4-0.4,0.8-0.7,1.1l-0.8-0.6
		c0.2-0.3,0.4-0.5,0.5-0.8s0.2-0.7,0.2-1.1c0-0.4-0.1-0.8-0.3-1s-0.4-0.4-0.8-0.4c-0.2,0-0.3,0-0.4,0.1c-0.1,0.1-0.2,0.2-0.3,0.3
		s-0.2,0.3-0.2,0.4c-0.1,0.2-0.1,0.3-0.2,0.5l-0.5,1.1c-0.1,0.2-0.2,0.5-0.3,0.7s-0.3,0.4-0.4,0.5c-0.2,0.2-0.4,0.3-0.6,0.4
		s-0.5,0.1-0.8,0.1s-0.6-0.1-0.9-0.2s-0.5-0.3-0.7-0.6c-0.2-0.2-0.4-0.6-0.5-0.9C682.3,178.6,682.2,178.2,682.2,177.7z M682.2,185.3
		c0-0.4,0.1-0.9,0.2-1.2c0.1-0.4,0.3-0.7,0.6-1s0.6-0.5,1-0.7s0.8-0.2,1.3-0.2s0.9,0.1,1.3,0.2c0.4,0.2,0.7,0.4,1,0.7s0.5,0.6,0.6,1
		s0.2,0.7,0.2,1.1c0,0.4-0.1,0.8-0.2,1.1c-0.1,0.3-0.3,0.6-0.6,0.9c-0.2,0.2-0.5,0.4-0.9,0.5c-0.3,0.1-0.7,0.2-1.1,0.2
		c-0.1,0-0.2,0-0.4,0c-0.1,0-0.2,0-0.3,0v-4.5c-0.6,0.1-1.1,0.3-1.4,0.7c-0.3,0.4-0.4,0.9-0.4,1.5c0,0.3,0,0.6,0.1,0.9
		c0.1,0.3,0.2,0.5,0.4,0.8l-0.8,0.4c-0.2-0.3-0.4-0.6-0.5-1C682.3,186.1,682.2,185.7,682.2,185.3z M687.5,185.1c0-0.2,0-0.4-0.1-0.6
		c-0.1-0.2-0.2-0.4-0.3-0.5c-0.1-0.2-0.3-0.3-0.5-0.4c-0.2-0.1-0.4-0.2-0.7-0.2v3.4c0.5,0,0.9-0.2,1.2-0.5
		C687.3,185.9,687.5,185.6,687.5,185.1z M682.2,191.4c0-0.3,0-0.5,0.1-0.8c0.1-0.2,0.2-0.4,0.3-0.6c0.2-0.2,0.3-0.3,0.5-0.4
		s0.4-0.2,0.7-0.2s0.6,0.1,0.9,0.2c0.2,0.2,0.5,0.4,0.6,0.7c0.2,0.3,0.3,0.8,0.4,1.3c0.1,0.5,0.2,1.2,0.3,1.9c0.4,0,0.7-0.1,0.9-0.3
		c0.3-0.2,0.4-0.6,0.4-1.1c0-0.4-0.1-0.7-0.2-1.1c-0.1-0.3-0.3-0.6-0.5-0.9l0.8-0.4c0.1,0.2,0.2,0.3,0.3,0.5s0.2,0.4,0.3,0.6
		s0.1,0.5,0.2,0.7c0.1,0.2,0.1,0.5,0.1,0.8c0,0.8-0.2,1.4-0.7,1.8c-0.4,0.4-1,0.6-1.8,0.6h-3.5v-1l0.8-0.1l0,0
		c-0.2-0.3-0.4-0.7-0.6-1.1C682.3,192.2,682.2,191.8,682.2,191.4z M683.2,191.7c0,0.3,0.1,0.6,0.2,0.9c0.1,0.3,0.3,0.6,0.6,0.9h1.4
		c0-0.6-0.1-1.1-0.2-1.4c-0.1-0.4-0.2-0.7-0.3-0.9c-0.1-0.2-0.2-0.4-0.4-0.5c-0.1-0.1-0.3-0.1-0.5-0.1c-0.3,0-0.5,0.1-0.6,0.3
		C683.2,191.1,683.2,191.4,683.2,191.7z M682.5,197.4h5.9v1l-1.4,0.1l0,0c0.5,0.3,0.8,0.7,1.1,1.1s0.4,0.9,0.4,1.5
		c0,0.2,0,0.4-0.1,0.6c0,0.2-0.1,0.4-0.2,0.5l-1-0.3c0.1-0.2,0.1-0.4,0.1-0.5s0-0.3,0-0.6c0-0.4-0.1-0.8-0.4-1.2
		c-0.2-0.4-0.7-0.7-1.2-1.1h-3.3v-1.1H682.5z M682.2,207c0-0.5,0.1-0.9,0.2-1.3c0.1-0.4,0.3-0.7,0.6-1s0.6-0.5,1-0.7
		s0.8-0.2,1.3-0.2s0.9,0.1,1.3,0.3c0.4,0.2,0.7,0.4,1,0.7c0.3,0.3,0.5,0.7,0.6,1.1s0.2,0.8,0.2,1.3s-0.1,0.9-0.2,1.2
		c-0.2,0.4-0.4,0.7-0.6,0.9l-0.8-0.6c0.2-0.2,0.3-0.5,0.4-0.7c0.1-0.2,0.2-0.5,0.2-0.8s-0.1-0.6-0.2-0.9c-0.1-0.3-0.2-0.5-0.4-0.7
		s-0.4-0.3-0.7-0.4s-0.5-0.2-0.9-0.2s-0.6,0-0.9,0.1c-0.2,0.1-0.5,0.2-0.7,0.4s-0.3,0.4-0.4,0.7c-0.1,0.3-0.1,0.5-0.1,0.9
		s0.1,0.7,0.2,1c0.1,0.3,0.3,0.5,0.5,0.8l-0.8,0.5c-0.3-0.3-0.5-0.7-0.7-1.1C682.3,207.9,682.2,207.5,682.2,207z M682.5,211.2h8.5
		v1.2h-2.3l-1.3-0.1l0,0c0.3,0.3,0.6,0.6,0.8,0.9s0.3,0.7,0.3,1.2c0,0.7-0.2,1.2-0.6,1.5c-0.4,0.3-1,0.5-1.8,0.5h-3.6v-1.2h3.5
		c0.5,0,0.9-0.1,1.1-0.3c0.2-0.2,0.4-0.5,0.4-1c0-0.3-0.1-0.6-0.2-0.8c-0.2-0.2-0.4-0.5-0.7-0.8h-4v-1.1H682.5z"/>
	<path class="st3" d="M430.8,95v14.9l10.3,10.3h12.7"/>
	<path class="st11" d="M430.8,95v14.9l10.3,10.3h12.7"/>
	<path class="st3" d="M542.1,85.4V70.5l-10.3-10.3h-12.7"/>
	<path class="st11" d="M542.1,85.4V70.5l-10.3-10.3h-12.7"/>
	<path class="st3" d="M562.8,170.7v14.9l10.3,10.3h12.7"/>
	<path class="st11" d="M562.8,170.7v14.9l10.3,10.3h12.7"/>
	<path class="st3" d="M674.1,161.1v-14.9l-10.3-10.3h-12.7"/>
	<path class="st11" d="M674.1,161.1v-14.9l-10.3-10.3h-12.7"/>
</g>
<path class="st12" d="M81.3,435.4c-1,0-1.9-0.3-2.6-1s-1-1.5-1-2.6v-12.6c0-1,0.3-1.9,1-2.6c0.7-0.7,1.5-1,2.6-1h12.6
	c1,0,1.9,0.3,2.6,1c0.7,0.7,1,1.5,1,2.6v12.6c0,1-0.3,1.9-1,2.6s-1.5,1-2.6,1H81.3z M81.6,432.5h11.7c0.3,0,0.7,0,0.9-0.2
	s0.2-0.3,0.2-0.9v-11.7c0-0.3,0-0.7-0.2-0.9c-0.2-0.2-0.3-0.2-0.9-0.2H81.6c-0.3,0-0.7,0-0.9,0.2c-0.2,0.2-0.2,0.3-0.2,0.9v11.7
	c0,0.3,0,0.7,0.2,0.9C80.9,432.4,81.3,432.5,81.6,432.5z M103.7,435.4c-1,0-1.9-0.3-2.6-1s-1-1.5-1-2.6v-17.4h2.9v17
	c0,0.3,0,0.7,0.2,0.9s0.3,0.2,0.9,0.2h2.6v2.9L103.7,435.4L103.7,435.4z M111.9,435.4c-1,0-1.9-0.3-2.6-1c-0.7-0.7-1-1.5-1-2.6v-8.7
	c0-1,0.3-1.9,1-2.6c0.7-0.7,1.5-1,2.6-1h9.5v-5.1h2.9v20.9L111.9,435.4L111.9,435.4z M112.4,432.5h8.2c0.3,0,0.7,0,0.9-0.2
	c0.2-0.2,0.2-0.3,0.2-0.9v-7.8c0-0.3,0-0.7-0.2-0.9c-0.2-0.2-0.3-0.2-0.9-0.2h-8.2c-0.3,0-0.7,0-0.9,0.2c-0.2,0.2-0.2,0.3-0.2,0.9
	v7.8c0,0.3,0,0.7,0.2,0.9C111.7,432.4,111.9,432.5,112.4,432.5z M135.4,435.4v-19.6h18v2.9h-15v5.4h12.1v3.1h-12.1v8.3h-3.1
	L135.4,435.4L135.4,435.4z M158.3,435.4c-1,0-1.9-0.3-2.6-1s-1-1.5-1-2.6v-17.4h2.9v17c0,0.3,0,0.7,0.2,0.9s0.3,0.2,0.9,0.2h2.6v2.9
	L158.3,435.4L158.3,435.4z M166.8,435.4c-1,0-1.9-0.3-2.6-1s-1-1.5-1-2.6v-8.7c0-1,0.3-1.9,1-2.6c0.7-0.7,1.5-1,2.6-1h9
	c1,0,1.9,0.3,2.6,1c0.7,0.7,1,1.5,1,2.6v8.7c0,1-0.3,1.9-1,2.6c-0.7,0.7-1.5,1-2.6,1H166.8z M167.4,432.5h8.2c0.3,0,0.7,0,0.9-0.2
	s0.2-0.3,0.2-0.9v-7.8c0-0.3,0-0.7-0.2-0.9s-0.3-0.2-0.9-0.2h-8.2c-0.3,0-0.7,0-0.9,0.2c-0.2,0.2-0.2,0.3-0.2,0.9v7.8
	c0,0.3,0,0.7,0.2,0.9C166.7,432.4,166.8,432.5,167.4,432.5z M186.6,435.4l-6.1-15.8h3.1l4.3,10.4l4.6-10.4h3.4l4.8,10.5l3.9-10.5
	h3.1l-6,15.8h-2.2l-5.3-11.7l-5.1,11.7H186.6z"/>
<path class="st10" d="M487.9,435.6V416h3.9l12.1,14.3V416h3.6v19.6h-3.9l-12.1-14.3v14.3H487.9z M514.1,435.6c-1,0-1.9-0.3-2.7-1
	c-0.7-0.7-1-1.7-1-2.7v-8.3c0-1,0.3-1.9,1-2.6c0.7-0.7,1.7-1.2,2.7-1.2h8.5c1,0,1.9,0.3,2.6,1.2c0.7,0.7,1.2,1.5,1.2,2.6v6h-12.4
	v1.5c0,0.5,0,0.9,0.2,0.9c0,0,0.3,0,0.9,0h11.6v3.6h-12.4V435.6z M513.8,426.3h8.8v-2c0-0.5,0-0.9-0.2-0.9c0,0-0.3-0.2-0.9-0.2h-7
	c-0.5,0-0.9,0-0.9,0.2c0,0-0.2,0.3-0.2,0.9L513.8,426.3L513.8,426.3z M533.8,435.6l-6.1-15.8h3.7l3.9,9.4l4.1-9.4h3.7l4.3,9.4
	l3.6-9.4h3.7l-6,15.8h-2.7l-4.8-10.5l-4.6,10.5H533.8z M565.5,435.6V416h18v3.6h-14.5v4.4h11.6v3.6h-11.6v8L565.5,435.6L565.5,435.6
	z M588.8,435.6c-1,0-1.9-0.3-2.7-1c-0.7-0.7-1-1.7-1-2.7v-17.2h3.6v16.5c0,0.5,0,0.9,0.2,0.9c0,0,0.3,0,0.9,0h2.4v3.6H588.8z
	 M597.6,435.6c-1,0-1.9-0.3-2.7-1c-0.7-0.7-1-1.7-1-2.7v-8.3c0-1,0.3-1.9,1-2.6c0.7-0.7,1.7-1.2,2.7-1.2h8.5c1,0,1.9,0.3,2.6,1.2
	c0.7,0.7,1.2,1.5,1.2,2.6v8.3c0,1-0.3,1.9-1.2,2.7c-0.7,0.7-1.5,1-2.6,1H597.6z M598.5,432h7c0.5,0,0.9,0,0.9,0s0.2-0.3,0.2-0.9
	v-6.8c0-0.5,0-0.9-0.2-0.9c0,0-0.3-0.2-0.9-0.2h-7c-0.5,0-0.9,0-0.9,0.2c0,0-0.2,0.3-0.2,0.9v6.8c0,0.5,0,0.9,0.2,0.9
	C597.6,432,598,432,598.5,432z M616.9,435.6l-6.1-15.8h3.7l3.9,9.4l4.1-9.4h3.7l4.3,9.4l3.6-9.4h3.7l-6,15.8h-2.7l-4.8-10.5
	l-4.6,10.5H616.9z"/>
<g>
	<path class="st13" d="M345,216.7c-0.1-0.1-0.2-0.1-0.2-0.1c-2.1-2.1-4.2-4.2-6.3-6.3c-0.8-0.8-0.8-1.8,0-2.5c0.5-0.5,1-1,1.5-1.5
		c0.6-0.6,1.6-0.6,2.3,0.1c0.3,0.3,0.6,0.6,0.8,0.8c2.8,2.8,5.5,5.5,8.3,8.3c0.3,0.3,0.5,0.6,0.6,1c0.1,0.6-0.1,1.1-0.6,1.4
		c-0.9,0.9-1.8,1.8-2.8,2.8c-2.1,2.1-4.2,4.2-6.4,6.4c-0.4,0.4-0.7,0.6-1.3,0.6c-0.4,0-0.8-0.2-1.1-0.6c-0.5-0.5-1-1-1.5-1.5
		c-0.6-0.6-0.6-1.6-0.1-2.2c0.1-0.1,0.1-0.1,0.2-0.2C340.7,221,342.8,218.9,345,216.7C344.8,216.9,344.9,216.8,345,216.7z"/>
	<path class="st13" d="M358.1,216.7c-0.1-0.1-0.1-0.1-0.1-0.1c-2.1-2.1-4.2-4.2-6.4-6.4c-0.4-0.4-0.6-0.9-0.5-1.6
		c0-0.3,0.2-0.5,0.4-0.7c0.6-0.6,1.1-1.1,1.7-1.7c0.6-0.6,1.6-0.6,2.1,0c0.1,0.1,0.1,0.1,0.1,0.1c3,3,6.1,6.1,9.1,9.1
		c0.5,0.5,0.7,1,0.5,1.6c-0.1,0.2-0.2,0.5-0.4,0.6c-3.1,3.1-6.3,6.3-9.4,9.4c-0.6,0.6-1.6,0.6-2.1,0c-0.6-0.6-1.1-1.1-1.7-1.7
		c-0.6-0.6-0.6-1.6,0-2.3c0.3-0.3,0.5-0.5,0.8-0.8c1.9-1.9,3.8-3.8,5.7-5.7C358,216.9,358.1,216.8,358.1,216.7z"/>
</g>
</svg>
