<?xml version="1.0" encoding="utf-8"?>
<!-- Generator: Adobe Illustrator 23.0.1, SVG Export Plug-In . SVG Version: 6.00 Build 0)  -->
<svg version="1.1" id="Layer_1" xmlns="http://www.w3.org/2000/svg" xmlns:xlink="http://www.w3.org/1999/xlink" x="0px" y="0px"
	 viewBox="0 0 700.8 441.5" style="enable-background:new 0 0 700.8 441.5;" xml:space="preserve">
<style type="text/css">
	.st0{fill-rule:evenodd;clip-rule:evenodd;fill:#5400D5;fill-opacity:0.1488;}
	.st1{fill:#FFFFFF;}
	.st2{fill:none;stroke:#EFEFEF;stroke-linejoin:round;stroke-miterlimit:10;}
	.st3{fill-rule:evenodd;clip-rule:evenodd;fill-opacity:0;}
	.st4{opacity:0.5;fill:none;stroke:#FFFFFF;stroke-width:2;stroke-linejoin:round;stroke-miterlimit:10;enable-background:new    ;}
	
		.st5{opacity:0.5;fill-rule:evenodd;clip-rule:evenodd;fill:#FFFFFF;stroke:#FFFFFF;stroke-width:2;stroke-miterlimit:10;enable-background:new    ;}
	
		.st6{opacity:0.5;fill-rule:evenodd;clip-rule:evenodd;fill:#FFFFFF;fill-opacity:0;stroke:#FFFFFF;stroke-miterlimit:10;enable-background:new    ;}
	
		.st7{opacity:0.5;fill:#FFFFFF;stroke:#FFFFFF;stroke-width:2;stroke-linejoin:round;stroke-miterlimit:10;enable-background:new    ;}
	.st8{fill-rule:evenodd;clip-rule:evenodd;fill:#3B0097;}
	.st9{fill:none;stroke:#5400D5;stroke-linejoin:round;stroke-miterlimit:10;}
	.st10{fill:none;}
	.st11{fill-rule:evenodd;clip-rule:evenodd;fill:#5400D5;stroke:#5400D5;stroke-miterlimit:10;}
	.st12{fill:#5400D5;}
	.st13{fill:none;stroke:#FF008A;stroke-linejoin:round;stroke-miterlimit:10;}
	.st14{fill:#EAEAEA;}
	.st15{fill:#3B0097;}
</style>
<g>
	<path class="st0" d="M4.3,118.1h119.6l5.3,5.3V150l0,0H9.6l-5.3-5.3V118.1z"/>
	<path class="st1" d="M56.3,137.5v-6.1h1.1v2.5h2.1v-2.5h1.1v6.1h-1.1v-2.7h-2.1v2.7H56.3z M64,137.6c-0.3,0-0.6-0.1-0.9-0.2
		c-0.3-0.1-0.5-0.3-0.7-0.5s-0.4-0.5-0.5-0.8s-0.2-0.6-0.2-1s0.1-0.7,0.2-1s0.3-0.6,0.5-0.8s0.5-0.4,0.7-0.5
		c0.3-0.1,0.6-0.2,0.9-0.2s0.6,0.1,0.9,0.2c0.3,0.1,0.5,0.3,0.7,0.5s0.4,0.4,0.5,0.8c0.1,0.3,0.2,0.6,0.2,1s-0.1,0.7-0.2,1
		s-0.3,0.5-0.5,0.8c-0.2,0.2-0.5,0.4-0.7,0.5C64.6,137.6,64.3,137.6,64,137.6z M64,136.8c0.4,0,0.7-0.1,0.9-0.4
		c0.2-0.3,0.3-0.7,0.3-1.1c0-0.5-0.1-0.8-0.3-1.1c-0.2-0.3-0.5-0.4-0.9-0.4s-0.7,0.1-0.9,0.4s-0.3,0.6-0.3,1.1s0.1,0.8,0.3,1.1
		C63.3,136.6,63.6,136.8,64,136.8z M67.2,137.5v-4.6H68l0.1,0.6l0,0c0.1-0.2,0.2-0.4,0.4-0.5c0.2-0.1,0.4-0.2,0.6-0.2
		c0.4,0,0.7,0.3,0.8,0.8c0.1-0.2,0.2-0.4,0.4-0.5c0.2-0.1,0.4-0.2,0.7-0.2c0.3,0,0.6,0.1,0.8,0.4c0.2,0.2,0.3,0.6,0.3,1.1v3.2h-1
		v-3.2c0-0.4-0.1-0.6-0.4-0.6c-0.1,0-0.2,0.1-0.3,0.2c-0.1,0.1-0.2,0.2-0.3,0.4v3.2h-0.9v-3.2c0-0.2,0-0.3-0.1-0.5
		c-0.1-0.1-0.1-0.2-0.3-0.2c-0.1,0-0.2,0.1-0.3,0.2c-0.1,0.1-0.2,0.2-0.3,0.4v3.2L67.2,137.5L67.2,137.5z M75.5,137.6
		c-0.3,0-0.7-0.1-1-0.2c-0.3-0.1-0.6-0.3-0.8-0.5c-0.2-0.2-0.4-0.5-0.5-0.8s-0.2-0.6-0.2-1s0.1-0.7,0.2-1s0.3-0.5,0.5-0.8
		c0.2-0.2,0.5-0.4,0.8-0.5s0.6-0.2,0.9-0.2s0.6,0.1,0.9,0.2c0.3,0.1,0.5,0.2,0.7,0.4s0.3,0.4,0.4,0.7s0.1,0.6,0.1,0.9
		c0,0.1,0,0.2,0,0.3s0,0.2,0,0.2h-3.4c0.1,0.4,0.2,0.8,0.5,1s0.6,0.3,1.1,0.3c0.2,0,0.5,0,0.7-0.1s0.4-0.2,0.6-0.3l0.4,0.7
		c-0.2,0.2-0.5,0.3-0.8,0.4C76.1,137.6,75.8,137.6,75.5,137.6z M75.3,133.7c-0.3,0-0.6,0.1-0.8,0.3c-0.2,0.2-0.4,0.5-0.5,0.8h2.4
		c0-0.4-0.2-0.6-0.4-0.8C75.8,133.8,75.7,133.7,75.3,133.7z"/>
	<path class="st2" d="M4.3,172H123l6.2,6.2v31.2l0,0H10.6l-6.2-6.2L4.3,172L4.3,172z"/>
	<path class="st1" d="M30.9,188.8c-0.4,0-0.7-0.1-1.1-0.2c-0.3-0.1-0.6-0.3-0.9-0.6c-0.2-0.3-0.4-0.6-0.6-1
		c-0.1-0.4-0.2-0.8-0.2-1.3s0.1-0.9,0.2-1.3c0.1-0.4,0.3-0.7,0.6-1c0.3-0.3,0.6-0.5,0.9-0.6s0.7-0.2,1.1-0.2s0.7,0.1,1,0.2
		c0.3,0.2,0.5,0.3,0.7,0.5L32,184c-0.2-0.1-0.3-0.3-0.5-0.3c-0.2-0.1-0.4-0.1-0.6-0.1s-0.5,0.1-0.7,0.2c-0.2,0.1-0.4,0.2-0.5,0.4
		s-0.3,0.4-0.3,0.7c-0.1,0.3-0.1,0.6-0.1,0.9c0,0.4,0,0.7,0.1,1s0.2,0.5,0.3,0.7c0.2,0.2,0.3,0.3,0.5,0.4c0.2,0.1,0.5,0.2,0.7,0.2
		s0.5-0.1,0.7-0.2c0.2-0.1,0.4-0.3,0.6-0.5l0.6,0.7c-0.2,0.3-0.5,0.5-0.9,0.7C31.7,188.7,31.3,188.8,30.9,188.8z M34,188.7v-6.6h1.1
		v1.7l-0.1,1l0,0c0.2-0.2,0.4-0.4,0.7-0.5c0.3-0.2,0.6-0.2,0.9-0.2c0.5,0,0.9,0.2,1.2,0.5c0.2,0.3,0.4,0.8,0.4,1.4v2.8h-1.1v-2.7
		c0-0.4-0.1-0.6-0.2-0.8s-0.3-0.3-0.7-0.3c-0.2,0-0.4,0.1-0.6,0.2c-0.2,0.1-0.4,0.3-0.6,0.5v3.1L34,188.7L34,188.7z M41.6,188.8
		c-0.3,0-0.6-0.1-0.9-0.2c-0.3-0.1-0.5-0.3-0.7-0.5s-0.4-0.5-0.5-0.8s-0.2-0.6-0.2-1s0.1-0.7,0.2-1s0.3-0.6,0.5-0.8s0.5-0.4,0.7-0.5
		c0.3-0.1,0.6-0.2,0.9-0.2s0.6,0.1,0.9,0.2c0.3,0.1,0.5,0.3,0.7,0.5s0.4,0.4,0.5,0.8c0.1,0.3,0.2,0.6,0.2,1s-0.1,0.7-0.2,1
		s-0.3,0.5-0.5,0.8c-0.2,0.2-0.5,0.4-0.7,0.5C42.2,188.7,41.9,188.8,41.6,188.8z M41.6,187.9c0.4,0,0.7-0.1,0.9-0.4
		c0.2-0.3,0.3-0.7,0.3-1.1c0-0.5-0.1-0.8-0.3-1.1s-0.5-0.4-0.9-0.4s-0.7,0.1-0.9,0.4c-0.2,0.3-0.3,0.6-0.3,1.1s0.1,0.8,0.3,1.1
		C40.9,187.8,41.2,187.9,41.6,187.9z M47.2,188.8c-0.3,0-0.6-0.1-0.9-0.2c-0.3-0.1-0.5-0.3-0.7-0.5s-0.4-0.5-0.5-0.8s-0.2-0.6-0.2-1
		s0.1-0.7,0.2-1s0.3-0.6,0.5-0.8s0.5-0.4,0.7-0.5c0.3-0.1,0.6-0.2,0.9-0.2s0.6,0.1,0.9,0.2c0.3,0.1,0.5,0.3,0.7,0.5s0.4,0.4,0.5,0.8
		c0.1,0.3,0.2,0.6,0.2,1s-0.1,0.7-0.2,1s-0.3,0.5-0.5,0.8c-0.2,0.2-0.5,0.4-0.7,0.5C47.8,188.7,47.5,188.8,47.2,188.8z M47.2,187.9
		c0.4,0,0.7-0.1,0.9-0.4c0.2-0.3,0.3-0.7,0.3-1.1c0-0.5-0.1-0.8-0.3-1.1s-0.5-0.4-0.9-0.4s-0.7,0.1-0.9,0.4
		c-0.2,0.3-0.3,0.6-0.3,1.1s0.1,0.8,0.3,1.1S46.8,187.9,47.2,187.9z M52.8,188.8c-0.4,0-0.8-0.1-1.2-0.2c-0.4-0.1-0.7-0.3-1-0.5
		l0.5-0.7c0.3,0.2,0.6,0.3,0.9,0.4c0.3,0.1,0.7,0.1,1,0.1s0.5-0.1,0.7-0.2c0.2-0.1,0.2-0.2,0.2-0.4c0-0.1,0-0.1,0-0.2
		s-0.1-0.1-0.2-0.2c-0.1-0.1-0.2-0.1-0.4-0.2c-0.2-0.1-0.4-0.1-0.7-0.2c-0.6-0.1-1.1-0.3-1.3-0.5c-0.3-0.2-0.4-0.5-0.4-0.9
		s0.2-0.7,0.5-1c0.4-0.3,0.9-0.4,1.5-0.4c0.4,0,0.7,0.1,1.1,0.2c0.3,0.1,0.6,0.3,0.8,0.4l-0.5,0.7c-0.2-0.1-0.5-0.3-0.7-0.3
		c-0.2-0.1-0.5-0.1-0.8-0.1s-0.5,0-0.7,0.1c-0.1,0.1-0.2,0.2-0.2,0.4s0.1,0.3,0.3,0.4c0.2,0.1,0.5,0.2,0.9,0.3s0.7,0.2,0.9,0.3
		s0.4,0.2,0.6,0.3c0.1,0.1,0.2,0.2,0.3,0.4c0.1,0.1,0.1,0.3,0.1,0.5s0,0.4-0.1,0.6c-0.1,0.2-0.2,0.3-0.4,0.5
		c-0.2,0.1-0.4,0.2-0.7,0.3C53.5,188.7,53.2,188.8,52.8,188.8z M58.7,188.8c-0.3,0-0.7-0.1-1-0.2c-0.3-0.1-0.6-0.3-0.8-0.5
		s-0.4-0.5-0.5-0.8s-0.2-0.6-0.2-1s0.1-0.7,0.2-1s0.3-0.5,0.5-0.8c0.2-0.2,0.5-0.4,0.8-0.5s0.6-0.2,0.9-0.2s0.6,0.1,0.9,0.2
		c0.3,0.1,0.5,0.2,0.7,0.4s0.3,0.4,0.4,0.7s0.1,0.6,0.1,0.9c0,0.1,0,0.2,0,0.3s0,0.2,0,0.2h-3.4c0.1,0.4,0.2,0.8,0.5,1
		s0.6,0.3,1.1,0.3c0.2,0,0.5,0,0.7-0.1s0.4-0.2,0.6-0.3l0.4,0.7c-0.2,0.2-0.5,0.3-0.8,0.4C59.3,188.7,59,188.8,58.7,188.8z
		 M58.6,184.8c-0.3,0-0.6,0.1-0.8,0.3s-0.4,0.5-0.5,0.8h2.4c0-0.4-0.2-0.6-0.4-0.8S58.9,184.8,58.6,184.8z M67.6,188.7v-6.1h2
		c0.3,0,0.6,0,0.9,0.1s0.5,0.2,0.7,0.3s0.4,0.3,0.5,0.6c0.1,0.2,0.2,0.5,0.2,0.9c0,0.3-0.1,0.6-0.2,0.9c-0.1,0.2-0.3,0.5-0.5,0.6
		c-0.2,0.2-0.5,0.3-0.7,0.4c-0.3,0.1-0.6,0.1-0.9,0.1h-0.9v2.2H67.6z M68.7,185.6h0.8c0.9,0,1.3-0.4,1.3-1.1c0-0.4-0.1-0.7-0.3-0.8
		c-0.2-0.1-0.6-0.2-1-0.2h-0.8V185.6z M73.6,188.7v-4.6h0.9l0.1,1l0,0c0.2-0.4,0.5-0.7,0.9-0.8c0.3-0.2,0.7-0.3,1.1-0.3
		c0.2,0,0.3,0,0.5,0c0.1,0,0.3,0.1,0.4,0.1l-0.2,0.9c-0.1-0.1-0.3-0.1-0.4-0.1s-0.3,0-0.4,0c-0.3,0-0.6,0.1-0.9,0.3
		s-0.6,0.5-0.8,0.9v2.5h-1.2V188.7z M80.8,188.8c-0.3,0-0.6-0.1-0.9-0.2c-0.3-0.1-0.5-0.3-0.7-0.5s-0.4-0.5-0.5-0.8s-0.2-0.6-0.2-1
		s0.1-0.7,0.2-1s0.3-0.6,0.5-0.8s0.5-0.4,0.7-0.5c0.3-0.1,0.6-0.2,0.9-0.2s0.6,0.1,0.9,0.2c0.3,0.1,0.5,0.3,0.7,0.5s0.4,0.4,0.5,0.8
		c0.1,0.3,0.2,0.6,0.2,1s-0.1,0.7-0.2,1s-0.3,0.5-0.5,0.8c-0.2,0.2-0.5,0.4-0.7,0.5C81.4,188.7,81.1,188.8,80.8,188.8z M80.8,187.9
		c0.4,0,0.7-0.1,0.9-0.4c0.2-0.3,0.3-0.7,0.3-1.1c0-0.5-0.1-0.8-0.3-1.1s-0.5-0.4-0.9-0.4s-0.7,0.1-0.9,0.4
		c-0.2,0.3-0.3,0.6-0.3,1.1s0.1,0.8,0.3,1.1C80.1,187.8,80.4,187.9,80.8,187.9z M86,188.8c-0.3,0-0.6-0.1-0.8-0.2
		c-0.2-0.1-0.4-0.3-0.6-0.5s-0.3-0.5-0.4-0.8s-0.1-0.6-0.1-1s0.1-0.7,0.2-1s0.3-0.6,0.5-0.8s0.4-0.4,0.7-0.5
		c0.2-0.1,0.5-0.2,0.8-0.2s0.5,0,0.7,0.1s0.4,0.2,0.6,0.4l0,0l-0.1-0.8v-1.7h1.1v6.6h-0.9l-0.1-0.5l0,0c-0.2,0.2-0.4,0.3-0.6,0.5
		C86.5,188.7,86.3,188.8,86,188.8z M86.3,187.9c0.4,0,0.7-0.2,1-0.5v-2.1c-0.2-0.2-0.3-0.3-0.5-0.3c-0.2-0.1-0.3-0.1-0.5-0.1
		s-0.3,0-0.5,0.1c-0.1,0.1-0.3,0.2-0.4,0.3s-0.2,0.3-0.2,0.5s-0.1,0.4-0.1,0.6c0,0.5,0.1,0.9,0.3,1.1
		C85.7,187.8,85.9,187.9,86.3,187.9z M91.4,188.8c-0.5,0-0.9-0.2-1.2-0.5c-0.2-0.3-0.4-0.8-0.4-1.4v-2.8h1.1v2.7
		c0,0.4,0.1,0.7,0.2,0.8c0.1,0.2,0.4,0.2,0.7,0.2c0.2,0,0.4,0,0.6-0.1s0.4-0.3,0.6-0.5v-3.1h1.1v4.6h-0.9l-0.1-0.7l0,0
		c-0.2,0.3-0.5,0.5-0.7,0.6C92,188.7,91.7,188.8,91.4,188.8z M98,188.8c-0.4,0-0.7-0.1-1-0.2c-0.3-0.1-0.6-0.3-0.8-0.5
		s-0.4-0.5-0.5-0.8s-0.2-0.6-0.2-1s0.1-0.7,0.2-1s0.3-0.6,0.6-0.8c0.2-0.2,0.5-0.4,0.8-0.5s0.7-0.2,1-0.2c0.4,0,0.7,0.1,1,0.2
		s0.5,0.3,0.7,0.5l-0.5,0.7c-0.2-0.1-0.4-0.3-0.5-0.3c-0.2-0.1-0.4-0.1-0.6-0.1c-0.5,0-0.8,0.1-1.1,0.4c-0.3,0.3-0.4,0.6-0.4,1.1
		c0,0.2,0,0.4,0.1,0.6c0.1,0.2,0.2,0.3,0.3,0.5c0.1,0.1,0.3,0.2,0.5,0.3s0.4,0.1,0.6,0.1c0.3,0,0.5,0,0.7-0.1s0.4-0.2,0.6-0.4
		l0.4,0.7c-0.3,0.2-0.6,0.4-0.9,0.5C98.6,188.7,98.3,188.8,98,188.8z M104,188.8c-0.3,0-0.6,0-0.9-0.1s-0.4-0.2-0.6-0.4
		c-0.1-0.2-0.3-0.4-0.3-0.6c-0.1-0.2-0.1-0.5-0.1-0.8V185h-1.2v-0.8h1.3l0.1-1.4h0.9v1.4h2.1v0.8h-2.1v1.9c0,0.4,0.1,0.7,0.2,0.8
		c0.2,0.2,0.4,0.3,0.8,0.3c0.2,0,0.4,0,0.5,0c0.2,0,0.3-0.1,0.5-0.1l0.2,0.8c-0.2,0.1-0.4,0.1-0.7,0.2
		C104.6,188.7,104.3,188.8,104,188.8z"/>
	<path class="st1" d="M42.1,199.8c-0.4,0-0.7-0.1-1.1-0.2c-0.3-0.1-0.6-0.3-0.9-0.6c-0.2-0.3-0.4-0.6-0.6-1
		c-0.1-0.4-0.2-0.8-0.2-1.3s0.1-0.9,0.2-1.3c0.1-0.4,0.3-0.7,0.6-1s0.6-0.5,0.9-0.6s0.7-0.2,1.1-0.2s0.7,0.1,1,0.2
		c0.3,0.2,0.5,0.3,0.7,0.5l-0.6,0.7c-0.2-0.1-0.3-0.3-0.5-0.3c-0.2-0.1-0.4-0.1-0.6-0.1s-0.5,0.1-0.7,0.2c-0.2,0.1-0.4,0.2-0.5,0.4
		s-0.3,0.4-0.3,0.7c-0.1,0.3-0.1,0.6-0.1,0.9c0,0.4,0,0.7,0.1,1s0.2,0.5,0.3,0.7c0.2,0.2,0.3,0.3,0.5,0.4c0.2,0.1,0.5,0.2,0.7,0.2
		s0.5-0.1,0.7-0.2c0.2-0.1,0.4-0.3,0.6-0.5l0.6,0.7c-0.2,0.3-0.5,0.5-0.9,0.7C42.9,199.7,42.5,199.8,42.1,199.8z M46.6,199.8
		c-0.2,0-0.4,0-0.6-0.1s-0.3-0.2-0.5-0.3c-0.1-0.1-0.2-0.3-0.3-0.4c-0.1-0.2-0.1-0.3-0.1-0.5s0.1-0.5,0.2-0.7s0.3-0.4,0.6-0.5
		s0.6-0.2,1-0.3s0.9-0.2,1.5-0.2c0-0.3-0.1-0.5-0.3-0.7s-0.4-0.2-0.8-0.2c-0.3,0-0.5,0.1-0.8,0.2c-0.2,0.1-0.5,0.2-0.7,0.3l-0.4-0.7
		c0.3-0.2,0.6-0.3,1-0.4c0.4-0.1,0.7-0.2,1.1-0.2c0.6,0,1.1,0.2,1.5,0.5c0.3,0.3,0.5,0.8,0.5,1.5v2.7h-0.9l-0.1-0.6l0,0
		c-0.2,0.2-0.5,0.3-0.8,0.5C47.2,199.7,46.9,199.8,46.6,199.8z M46.9,198.9c0.2,0,0.4,0,0.7-0.1c0.2-0.1,0.4-0.2,0.7-0.4v-1
		c-0.4,0-0.8,0.1-1,0.1c-0.3,0.1-0.5,0.1-0.7,0.2c-0.2,0.1-0.3,0.2-0.3,0.3c-0.1,0.1-0.1,0.2-0.1,0.3c0,0.2,0.1,0.4,0.2,0.5
		C46.5,198.9,46.7,198.9,46.9,198.9z M53.6,199.8c-0.3,0-0.6,0-0.9-0.1c-0.2-0.1-0.4-0.2-0.6-0.4c-0.1-0.2-0.3-0.4-0.3-0.6
		c-0.1-0.2-0.1-0.5-0.1-0.8V196h-1.2v-0.8h1.3l0.1-1.4h0.9v1.4h2.1v0.8h-2.1v1.9c0,0.4,0.1,0.7,0.2,0.8c0.2,0.2,0.4,0.3,0.8,0.3
		c0.2,0,0.4,0,0.5,0c0.2,0,0.3-0.1,0.5-0.1l0.2,0.8c-0.2,0.1-0.4,0.1-0.7,0.2C54.2,199.7,53.9,199.8,53.6,199.8z M58.7,199.8
		c-0.3,0-0.7-0.1-1-0.2c-0.3-0.1-0.6-0.3-0.8-0.5s-0.4-0.5-0.5-0.8s-0.2-0.6-0.2-1s0.1-0.7,0.2-1s0.3-0.5,0.5-0.8
		c0.2-0.2,0.5-0.4,0.8-0.5s0.6-0.2,0.9-0.2s0.6,0.1,0.9,0.2c0.3,0.1,0.5,0.2,0.7,0.4s0.3,0.4,0.4,0.7s0.1,0.6,0.1,0.9
		c0,0.1,0,0.2,0,0.3s0,0.2,0,0.2h-3.4c0.1,0.4,0.2,0.8,0.5,1s0.6,0.3,1.1,0.3c0.2,0,0.5,0,0.7-0.1s0.4-0.2,0.6-0.3l0.4,0.7
		c-0.2,0.2-0.5,0.3-0.8,0.4C59.3,199.7,59,199.8,58.7,199.8z M58.6,195.8c-0.3,0-0.6,0.1-0.8,0.3s-0.4,0.5-0.5,0.8h2.4
		c0-0.4-0.2-0.6-0.4-0.8S58.9,195.8,58.6,195.8z M63.9,201.7c-0.3,0-0.6,0-0.9-0.1c-0.2-0.1-0.5-0.1-0.7-0.2
		c-0.2-0.1-0.3-0.2-0.4-0.4c-0.1-0.1-0.1-0.3-0.1-0.5c0-0.4,0.2-0.7,0.7-1l0,0c-0.1-0.1-0.2-0.2-0.3-0.3s-0.1-0.3-0.1-0.5
		s0-0.3,0.1-0.5s0.2-0.3,0.4-0.4l0,0c-0.2-0.1-0.3-0.3-0.4-0.5s-0.2-0.4-0.2-0.7s0.1-0.5,0.2-0.7s0.2-0.4,0.4-0.5s0.4-0.3,0.6-0.3
		c0.2-0.1,0.5-0.1,0.7-0.1c0.3,0,0.5,0,0.7,0.1h1.9v0.8h-1.1c0.1,0.1,0.2,0.2,0.2,0.3c0.1,0.1,0.1,0.3,0.1,0.4
		c0,0.2-0.1,0.5-0.2,0.7s-0.2,0.3-0.4,0.5c-0.2,0.1-0.4,0.2-0.6,0.3s-0.5,0.1-0.7,0.1s-0.5,0-0.7-0.1c-0.2,0.1-0.3,0.3-0.3,0.4
		c0,0.3,0.3,0.4,0.9,0.4h0.9c0.6,0,1.1,0.1,1.4,0.3s0.5,0.5,0.5,0.9c0,0.2-0.1,0.4-0.2,0.6c-0.1,0.2-0.3,0.4-0.5,0.5
		s-0.5,0.3-0.8,0.3C64.6,201.6,64.3,201.7,63.9,201.7z M63.9,197.5c0.2,0,0.4-0.1,0.6-0.2c0.2-0.2,0.2-0.4,0.2-0.7s-0.1-0.5-0.2-0.7
		c-0.2-0.2-0.4-0.2-0.6-0.2c-0.2,0-0.4,0.1-0.6,0.2c-0.2,0.2-0.2,0.4-0.2,0.7s0.1,0.5,0.2,0.7S63.6,197.5,63.9,197.5z M64,201
		c0.2,0,0.4,0,0.6-0.1c0.2,0,0.3-0.1,0.5-0.2c0.1-0.1,0.2-0.1,0.3-0.2c0.1-0.1,0.1-0.2,0.1-0.3c0-0.2-0.1-0.3-0.2-0.4
		c-0.1-0.1-0.4-0.1-0.7-0.1h-0.7c-0.3,0-0.5,0-0.7-0.1c-0.2,0.1-0.3,0.2-0.4,0.3s-0.1,0.2-0.1,0.3c0,0.2,0.1,0.4,0.3,0.5
		C63.2,200.9,63.6,201,64,201z M69.6,199.8c-0.3,0-0.6-0.1-0.9-0.2c-0.3-0.1-0.5-0.3-0.7-0.5s-0.4-0.5-0.5-0.8s-0.2-0.6-0.2-1
		s0.1-0.7,0.2-1s0.3-0.6,0.5-0.8s0.5-0.4,0.7-0.5c0.3-0.1,0.6-0.2,0.9-0.2s0.6,0.1,0.9,0.2c0.3,0.1,0.5,0.3,0.7,0.5s0.4,0.4,0.5,0.8
		c0.1,0.3,0.2,0.6,0.2,1s-0.1,0.7-0.2,1s-0.3,0.5-0.5,0.8c-0.2,0.2-0.5,0.4-0.7,0.5C70.2,199.7,69.9,199.8,69.6,199.8z M69.6,198.9
		c0.4,0,0.7-0.1,0.9-0.4c0.2-0.3,0.3-0.7,0.3-1.1c0-0.5-0.1-0.8-0.3-1.1c-0.2-0.3-0.5-0.4-0.9-0.4s-0.7,0.1-0.9,0.4
		c-0.2,0.3-0.3,0.6-0.3,1.1s0.1,0.8,0.3,1.1S69.2,198.9,69.6,198.9z M73.6,199.7v-4.6h0.9l0.1,1l0,0c0.2-0.4,0.5-0.7,0.9-0.8
		c0.3-0.2,0.7-0.3,1.1-0.3c0.2,0,0.3,0,0.5,0c0.1,0,0.3,0.1,0.4,0.1l-0.2,0.9c-0.1-0.1-0.3-0.1-0.4-0.1s-0.3,0-0.4,0
		c-0.3,0-0.6,0.1-0.9,0.3s-0.6,0.5-0.8,0.9v2.5h-1.2V199.7z M80.7,199.7V196h-2v-0.8h3.1v4.6h-1.1V199.7z M80.8,194.2
		c-0.2,0-0.4-0.1-0.5-0.2c-0.1-0.1-0.2-0.3-0.2-0.5s0.1-0.4,0.2-0.5s0.3-0.2,0.5-0.2s0.4,0.1,0.5,0.2c0.1,0.1,0.2,0.3,0.2,0.5
		s-0.1,0.4-0.2,0.5C81.2,194.2,81,194.2,80.8,194.2z M86.6,199.8c-0.3,0-0.7-0.1-1-0.2c-0.3-0.1-0.6-0.3-0.8-0.5s-0.4-0.5-0.5-0.8
		s-0.2-0.6-0.2-1s0.1-0.7,0.2-1s0.3-0.5,0.5-0.8c0.2-0.2,0.5-0.4,0.8-0.5s0.6-0.2,0.9-0.2s0.6,0.1,0.9,0.2c0.3,0.1,0.5,0.2,0.7,0.4
		s0.3,0.4,0.4,0.7s0.1,0.6,0.1,0.9c0,0.1,0,0.2,0,0.3s0,0.2,0,0.2h-3.4c0.1,0.4,0.2,0.8,0.5,1s0.6,0.3,1.1,0.3c0.2,0,0.5,0,0.7-0.1
		s0.4-0.2,0.6-0.3l0.4,0.7c-0.2,0.2-0.5,0.3-0.8,0.4C87.3,199.7,87,199.8,86.6,199.8z M86.5,195.8c-0.3,0-0.6,0.1-0.8,0.3
		s-0.4,0.5-0.5,0.8h2.4c0-0.4-0.2-0.6-0.4-0.8C87.1,195.9,86.9,195.8,86.5,195.8z M92,199.8c-0.4,0-0.8-0.1-1.2-0.2
		c-0.4-0.1-0.7-0.3-1-0.5l0.5-0.7c0.3,0.2,0.6,0.3,0.9,0.4c0.3,0.1,0.7,0.1,1,0.1s0.5-0.1,0.7-0.2c0.2-0.1,0.2-0.2,0.2-0.4
		c0-0.1,0-0.1,0-0.2s-0.1-0.1-0.2-0.2c-0.1-0.1-0.2-0.1-0.4-0.2c-0.2-0.1-0.4-0.1-0.7-0.2c-0.6-0.1-1.1-0.3-1.3-0.5
		c-0.3-0.2-0.4-0.5-0.4-0.9s0.2-0.7,0.5-1c0.4-0.3,0.9-0.4,1.5-0.4c0.4,0,0.7,0.1,1.1,0.2s0.6,0.3,0.8,0.4l-0.5,0.7
		c-0.2-0.1-0.5-0.3-0.7-0.3c-0.2-0.1-0.5-0.1-0.8-0.1s-0.5,0-0.7,0.1c-0.1,0.1-0.2,0.2-0.2,0.4s0.1,0.3,0.3,0.4
		c0.2,0.1,0.5,0.2,0.9,0.3s0.7,0.2,0.9,0.3s0.4,0.2,0.6,0.3c0.1,0.1,0.2,0.2,0.3,0.4c0.1,0.1,0.1,0.3,0.1,0.5s0,0.4-0.1,0.6
		c-0.1,0.2-0.2,0.3-0.4,0.5c-0.2,0.1-0.4,0.2-0.7,0.3C92.6,199.7,92.3,199.8,92,199.8z"/>
	<path class="st2" d="M155.9,231.3h118.7l6.2,6.2v31.2l0,0H162.1l-6.2-6.2L155.9,231.3L155.9,231.3z"/>
	<path class="st1" d="M199.6,247.9v-6.1h2c0.3,0,0.6,0,0.9,0.1s0.5,0.2,0.7,0.3s0.4,0.3,0.5,0.6c0.1,0.2,0.2,0.5,0.2,0.9
		c0,0.3-0.1,0.6-0.2,0.9c-0.1,0.2-0.3,0.5-0.5,0.6c-0.2,0.2-0.5,0.3-0.7,0.4c-0.3,0.1-0.6,0.1-0.9,0.1h-1v2.2H199.6z M200.6,244.8
		h0.8c0.9,0,1.3-0.4,1.3-1.1c0-0.4-0.1-0.7-0.3-0.8s-0.6-0.2-1-0.2h-0.8V244.8z M205.6,247.9v-4.6h0.9l0.1,1l0,0
		c0.2-0.4,0.5-0.7,0.9-0.8c0.3-0.2,0.7-0.3,1.1-0.3c0.2,0,0.3,0,0.5,0c0.1,0,0.3,0.1,0.4,0.1l-0.2,0.9c-0.1-0.1-0.3-0.1-0.4-0.1
		s-0.3,0-0.4,0c-0.3,0-0.6,0.1-0.9,0.3c-0.3,0.2-0.6,0.5-0.8,0.9v2.5h-1.2L205.6,247.9L205.6,247.9z M212.7,248.1
		c-0.3,0-0.6-0.1-0.9-0.2s-0.5-0.3-0.7-0.5s-0.4-0.5-0.5-0.8s-0.2-0.6-0.2-1s0.1-0.7,0.2-1s0.3-0.6,0.5-0.8s0.5-0.4,0.7-0.5
		c0.3-0.1,0.6-0.2,0.9-0.2s0.6,0.1,0.9,0.2s0.5,0.3,0.7,0.5s0.4,0.4,0.5,0.8c0.1,0.3,0.2,0.6,0.2,1s-0.1,0.7-0.2,1s-0.3,0.5-0.5,0.8
		c-0.2,0.2-0.5,0.4-0.7,0.5C213.3,248,213,248.1,212.7,248.1z M212.7,247.2c0.4,0,0.7-0.1,0.9-0.4c0.2-0.3,0.3-0.7,0.3-1.1
		c0-0.5-0.1-0.8-0.3-1.1s-0.5-0.4-0.9-0.4s-0.7,0.1-0.9,0.4c-0.2,0.3-0.3,0.6-0.3,1.1s0.1,0.8,0.3,1.1
		C212.1,247,212.4,247.2,212.7,247.2z M218,248.1c-0.3,0-0.6-0.1-0.8-0.2c-0.2-0.1-0.4-0.3-0.6-0.5s-0.3-0.5-0.4-0.8s-0.1-0.6-0.1-1
		s0.1-0.7,0.2-1s0.3-0.6,0.5-0.8s0.4-0.4,0.7-0.5c0.2-0.1,0.5-0.2,0.8-0.2s0.5,0,0.7,0.1s0.4,0.2,0.6,0.4l0,0l-0.1-0.8v-1.7h1.1v6.6
		h-0.9l-0.1-0.5l0,0c-0.2,0.2-0.4,0.3-0.6,0.5S218.2,248.1,218,248.1z M218.2,247.2c0.4,0,0.7-0.2,1-0.5v-2.1
		c-0.2-0.2-0.3-0.3-0.5-0.3c-0.2-0.1-0.3-0.1-0.5-0.1s-0.3,0-0.5,0.1c-0.1,0.1-0.3,0.2-0.4,0.3s-0.2,0.3-0.2,0.5s-0.1,0.4-0.1,0.6
		c0,0.5,0.1,0.9,0.3,1.1C217.6,247,217.9,247.2,218.2,247.2z M223.3,248.1c-0.5,0-0.9-0.2-1.2-0.5c-0.2-0.3-0.4-0.8-0.4-1.4v-2.8
		h1.1v2.7c0,0.4,0.1,0.7,0.2,0.8c0.1,0.2,0.4,0.2,0.7,0.2c0.2,0,0.4,0,0.6-0.1s0.4-0.3,0.6-0.5v-3.1h1.1v4.6h-0.9l-0.1-0.7l0,0
		c-0.2,0.3-0.5,0.5-0.7,0.6C224,248,223.7,248.1,223.3,248.1z M229.9,248.1c-0.4,0-0.7-0.1-1-0.2s-0.6-0.3-0.8-0.5s-0.4-0.5-0.5-0.8
		s-0.2-0.6-0.2-1s0.1-0.7,0.2-1s0.3-0.6,0.6-0.8c0.2-0.2,0.5-0.4,0.8-0.5s0.7-0.2,1-0.2c0.4,0,0.7,0.1,1,0.2s0.5,0.3,0.7,0.5
		l-0.5,0.7c-0.2-0.1-0.4-0.3-0.5-0.3s-0.4-0.1-0.6-0.1c-0.5,0-0.8,0.1-1.1,0.4c-0.3,0.3-0.4,0.6-0.4,1.1c0,0.2,0,0.4,0.1,0.6
		s0.2,0.3,0.3,0.5c0.1,0.1,0.3,0.2,0.5,0.3s0.4,0.1,0.6,0.1c0.3,0,0.5,0,0.7-0.1s0.4-0.2,0.6-0.4l0.4,0.7c-0.3,0.2-0.6,0.4-0.9,0.5
		C230.6,248,230.3,248.1,229.9,248.1z M236,248.1c-0.3,0-0.6,0-0.9-0.1s-0.4-0.2-0.6-0.4c-0.1-0.2-0.3-0.4-0.3-0.6
		c-0.1-0.2-0.1-0.5-0.1-0.8v-1.9h-1.2v-0.8h1.3l0.1-1.4h0.9v1.4h2.1v0.8h-2.1v1.9c0,0.4,0.1,0.7,0.2,0.8c0.2,0.2,0.4,0.3,0.8,0.3
		c0.2,0,0.4,0,0.5,0c0.2,0,0.3-0.1,0.5-0.1l0.2,0.8c-0.2,0.1-0.4,0.1-0.7,0.2C236.5,248,236.3,248.1,236,248.1z"/>
	<path class="st1" d="M193.6,259.1c-0.4,0-0.7-0.1-1.1-0.2c-0.3-0.1-0.6-0.3-0.9-0.6c-0.3-0.3-0.4-0.6-0.6-1
		c-0.1-0.4-0.2-0.8-0.2-1.3s0.1-0.9,0.2-1.3c0.1-0.4,0.3-0.7,0.6-1s0.6-0.5,0.9-0.6c0.3-0.1,0.7-0.2,1.1-0.2c0.4,0,0.7,0.1,1,0.2
		c0.3,0.2,0.5,0.3,0.7,0.5l-0.6,0.7c-0.2-0.1-0.3-0.3-0.5-0.3c-0.2-0.1-0.4-0.1-0.6-0.1c-0.3,0-0.5,0.1-0.7,0.2s-0.4,0.2-0.5,0.4
		s-0.3,0.4-0.3,0.7c-0.1,0.3-0.1,0.6-0.1,0.9c0,0.4,0,0.7,0.1,1s0.2,0.5,0.3,0.7c0.2,0.2,0.3,0.3,0.5,0.4s0.5,0.2,0.7,0.2
		s0.5-0.1,0.7-0.2s0.4-0.3,0.6-0.5l0.6,0.7c-0.3,0.3-0.5,0.5-0.9,0.7C194.4,259,194.1,259.1,193.6,259.1z M198.1,259.1
		c-0.2,0-0.4,0-0.6-0.1s-0.3-0.2-0.5-0.3c-0.1-0.1-0.2-0.3-0.3-0.4c-0.1-0.2-0.1-0.3-0.1-0.5s0.1-0.5,0.2-0.7
		c0.1-0.2,0.3-0.4,0.6-0.5s0.6-0.2,1-0.3s0.9-0.2,1.5-0.2c0-0.3-0.1-0.5-0.3-0.7s-0.4-0.2-0.8-0.2c-0.3,0-0.5,0.1-0.8,0.2
		c-0.2,0.1-0.5,0.2-0.7,0.3l-0.4-0.7c0.3-0.2,0.6-0.3,1-0.4s0.7-0.2,1.1-0.2c0.6,0,1.1,0.2,1.5,0.5c0.3,0.3,0.5,0.8,0.5,1.5v2.7
		h-0.9l-0.1-0.6l0,0c-0.2,0.2-0.5,0.3-0.8,0.5C198.7,259,198.4,259.1,198.1,259.1z M198.5,258.2c0.2,0,0.4,0,0.7-0.1
		c0.2-0.1,0.4-0.2,0.7-0.4v-1c-0.4,0-0.8,0.1-1,0.1c-0.3,0.1-0.5,0.1-0.7,0.2s-0.3,0.2-0.3,0.3c-0.1,0.1-0.1,0.2-0.1,0.3
		c0,0.2,0.1,0.4,0.2,0.5C198,258.2,198.2,258.2,198.5,258.2z M205.2,259.1c-0.3,0-0.6,0-0.9-0.1s-0.4-0.2-0.6-0.4
		c-0.1-0.2-0.3-0.4-0.3-0.6c-0.1-0.2-0.1-0.5-0.1-0.8v-1.9h-1.2v-0.8h1.3l0.1-1.4h0.9v1.4h2.1v0.8h-2.1v1.9c0,0.4,0.1,0.7,0.2,0.8
		c0.2,0.2,0.4,0.3,0.8,0.3c0.2,0,0.4,0,0.5,0c0.2,0,0.3-0.1,0.5-0.1l0.2,0.8c-0.2,0.1-0.4,0.1-0.7,0.2
		C205.7,259,205.5,259.1,205.2,259.1z M210.2,259.1c-0.3,0-0.7-0.1-1-0.2s-0.6-0.3-0.8-0.5s-0.4-0.5-0.5-0.8s-0.2-0.6-0.2-1
		s0.1-0.7,0.2-1s0.3-0.5,0.5-0.8c0.2-0.2,0.5-0.4,0.8-0.5s0.6-0.2,0.9-0.2s0.6,0.1,0.9,0.2s0.5,0.2,0.7,0.4s0.3,0.4,0.4,0.7
		c0.1,0.3,0.1,0.6,0.1,0.9c0,0.1,0,0.2,0,0.3s0,0.2,0,0.2h-3.4c0.1,0.4,0.2,0.8,0.5,1s0.6,0.3,1.1,0.3c0.2,0,0.5,0,0.7-0.1
		s0.4-0.2,0.6-0.3l0.4,0.7c-0.2,0.2-0.5,0.3-0.8,0.4C210.9,259,210.5,259.1,210.2,259.1z M210.1,255.1c-0.3,0-0.6,0.1-0.8,0.3
		s-0.4,0.5-0.5,0.8h2.4c0-0.4-0.2-0.6-0.4-0.8S210.4,255.1,210.1,255.1z M215.4,261c-0.3,0-0.6,0-0.9-0.1c-0.2-0.1-0.5-0.1-0.7-0.2
		s-0.3-0.2-0.4-0.4c-0.1-0.1-0.1-0.3-0.1-0.5c0-0.4,0.2-0.7,0.7-1l0,0c-0.1-0.1-0.2-0.2-0.3-0.3s-0.1-0.3-0.1-0.5s0-0.3,0.1-0.5
		s0.2-0.3,0.4-0.4l0,0c-0.2-0.1-0.3-0.3-0.4-0.5c-0.1-0.2-0.2-0.4-0.2-0.7s0.1-0.5,0.2-0.7s0.2-0.4,0.4-0.5s0.4-0.3,0.6-0.3
		c0.2-0.1,0.5-0.1,0.7-0.1c0.3,0,0.5,0,0.7,0.1h1.9v0.8h-1.1c0.1,0.1,0.2,0.2,0.2,0.3c0.1,0.1,0.1,0.3,0.1,0.4
		c0,0.2-0.1,0.5-0.2,0.7c-0.1,0.2-0.2,0.3-0.4,0.5c-0.2,0.1-0.4,0.2-0.6,0.3c-0.2,0.1-0.5,0.1-0.7,0.1s-0.5,0-0.7-0.1
		c-0.2,0.1-0.3,0.3-0.3,0.4c0,0.3,0.3,0.4,0.9,0.4h0.9c0.6,0,1.1,0.1,1.4,0.3c0.3,0.2,0.5,0.5,0.5,0.9c0,0.2-0.1,0.4-0.2,0.6
		s-0.3,0.4-0.5,0.5s-0.5,0.3-0.8,0.3C216.2,260.9,215.8,261,215.4,261z M215.4,256.8c0.2,0,0.4-0.1,0.6-0.2c0.2-0.2,0.2-0.4,0.2-0.7
		s-0.1-0.5-0.2-0.7c-0.2-0.2-0.4-0.2-0.6-0.2s-0.4,0.1-0.6,0.2c-0.2,0.2-0.2,0.4-0.2,0.7s0.1,0.5,0.2,0.7
		C215,256.7,215.2,256.8,215.4,256.8z M215.5,260.3c0.2,0,0.4,0,0.6-0.1c0.2,0,0.3-0.1,0.5-0.2c0.1-0.1,0.2-0.1,0.3-0.2
		s0.1-0.2,0.1-0.3c0-0.2-0.1-0.3-0.2-0.4c-0.1-0.1-0.4-0.1-0.7-0.1h-0.7c-0.3,0-0.5,0-0.7-0.1c-0.2,0.1-0.3,0.2-0.4,0.3
		c-0.1,0.1-0.1,0.2-0.1,0.3c0,0.2,0.1,0.4,0.3,0.5C214.8,260.2,215.1,260.3,215.5,260.3z M221.1,259.1c-0.3,0-0.6-0.1-0.9-0.2
		c-0.3-0.1-0.5-0.3-0.7-0.5s-0.4-0.5-0.5-0.8s-0.2-0.6-0.2-1s0.1-0.7,0.2-1s0.3-0.6,0.5-0.8s0.5-0.4,0.7-0.5
		c0.3-0.1,0.6-0.2,0.9-0.2s0.6,0.1,0.9,0.2s0.5,0.3,0.7,0.5s0.4,0.4,0.5,0.8c0.1,0.3,0.2,0.6,0.2,1s-0.1,0.7-0.2,1
		c-0.1,0.3-0.3,0.5-0.5,0.8c-0.2,0.2-0.5,0.4-0.7,0.5C221.7,259,221.4,259.1,221.1,259.1z M221.1,258.2c0.4,0,0.7-0.1,0.9-0.4
		s0.3-0.7,0.3-1.1c0-0.5-0.1-0.8-0.3-1.1s-0.5-0.4-0.9-0.4s-0.7,0.1-0.9,0.4c-0.2,0.3-0.3,0.6-0.3,1.1s0.1,0.8,0.3,1.1
		C220.5,258,220.7,258.2,221.1,258.2z M225.1,258.9v-4.6h0.9l0.1,1l0,0c0.2-0.4,0.5-0.7,0.9-0.8c0.3-0.2,0.7-0.3,1.1-0.3
		c0.2,0,0.3,0,0.5,0c0.1,0,0.3,0.1,0.4,0.1l-0.2,0.9c-0.1-0.1-0.3-0.1-0.4-0.1s-0.3,0-0.4,0c-0.3,0-0.6,0.1-0.9,0.3
		s-0.6,0.5-0.8,0.9v2.5h-1.2L225.1,258.9L225.1,258.9z M232.3,258.9v-3.7h-2v-0.8h3.1v4.6h-1.1V258.9z M232.3,253.5
		c-0.2,0-0.4-0.1-0.5-0.2s-0.2-0.3-0.2-0.5s0.1-0.4,0.2-0.5s0.3-0.2,0.5-0.2s0.4,0.1,0.5,0.2s0.2,0.3,0.2,0.5s-0.1,0.4-0.2,0.5
		C232.7,253.5,232.5,253.5,232.3,253.5z M238.2,259.1c-0.3,0-0.7-0.1-1-0.2s-0.6-0.3-0.8-0.5s-0.4-0.5-0.5-0.8s-0.2-0.6-0.2-1
		s0.1-0.7,0.2-1s0.3-0.5,0.5-0.8c0.2-0.2,0.5-0.4,0.8-0.5s0.6-0.2,0.9-0.2s0.6,0.1,0.9,0.2s0.5,0.2,0.7,0.4s0.3,0.4,0.4,0.7
		c0.1,0.3,0.1,0.6,0.1,0.9c0,0.1,0,0.2,0,0.3s0,0.2,0,0.2h-3.4c0.1,0.4,0.2,0.8,0.5,1s0.6,0.3,1.1,0.3c0.2,0,0.5,0,0.7-0.1
		s0.4-0.2,0.6-0.3l0.4,0.7c-0.2,0.2-0.5,0.3-0.8,0.4C238.8,259,238.5,259.1,238.2,259.1z M238.1,255.1c-0.3,0-0.6,0.1-0.8,0.3
		s-0.4,0.5-0.5,0.8h2.4c0-0.4-0.2-0.6-0.4-0.8C238.7,255.2,238.4,255.1,238.1,255.1z M243.5,259.1c-0.4,0-0.8-0.1-1.2-0.2
		s-0.7-0.3-1-0.5l0.5-0.7c0.3,0.2,0.6,0.3,0.9,0.4c0.3,0.1,0.7,0.1,1,0.1s0.5-0.1,0.7-0.2s0.2-0.2,0.2-0.4c0-0.1,0-0.1,0-0.2
		s-0.1-0.1-0.2-0.2c-0.1-0.1-0.2-0.1-0.4-0.2s-0.4-0.1-0.7-0.2c-0.6-0.1-1.1-0.3-1.3-0.5c-0.3-0.2-0.4-0.5-0.4-0.9s0.2-0.7,0.5-1
		c0.4-0.3,0.9-0.4,1.5-0.4c0.4,0,0.7,0.1,1.1,0.2c0.3,0.1,0.6,0.3,0.8,0.4l-0.5,0.7c-0.2-0.1-0.5-0.3-0.7-0.3
		c-0.2-0.1-0.5-0.1-0.8-0.1s-0.5,0-0.7,0.1c-0.1,0.1-0.2,0.2-0.2,0.4s0.1,0.3,0.3,0.4c0.2,0.1,0.5,0.2,0.9,0.3s0.7,0.2,0.9,0.3
		s0.4,0.2,0.6,0.3c0.1,0.1,0.2,0.2,0.3,0.4c0.1,0.1,0.1,0.3,0.1,0.5s0,0.4-0.1,0.6s-0.2,0.3-0.4,0.5c-0.2,0.1-0.4,0.2-0.7,0.3
		C244.2,259,243.9,259.1,243.5,259.1z"/>
	<path class="st0" d="M155.9,177.5h119.6l5.3,5.3v26.6l0,0H161.2l-5.3-5.3V177.5L155.9,177.5z"/>
	<path class="st1" d="M199.6,196.9v-6.1h2c0.3,0,0.6,0,0.9,0.1c0.3,0.1,0.5,0.2,0.7,0.3s0.4,0.3,0.5,0.6c0.1,0.2,0.2,0.5,0.2,0.9
		c0,0.3-0.1,0.6-0.2,0.9c-0.1,0.2-0.3,0.5-0.5,0.6c-0.2,0.2-0.5,0.3-0.7,0.4c-0.3,0.1-0.6,0.1-0.9,0.1h-1v2.2H199.6z M200.6,193.8
		h0.8c0.9,0,1.3-0.4,1.3-1.1c0-0.4-0.1-0.7-0.3-0.8s-0.6-0.2-1-0.2h-0.8V193.8z M205.6,196.9v-4.6h0.9l0.1,1l0,0
		c0.2-0.4,0.5-0.7,0.9-0.8c0.3-0.2,0.7-0.3,1.1-0.3c0.2,0,0.3,0,0.5,0c0.1,0,0.3,0.1,0.4,0.1l-0.2,0.9c-0.1-0.1-0.3-0.1-0.4-0.1
		s-0.3,0-0.4,0c-0.3,0-0.6,0.1-0.9,0.3c-0.3,0.2-0.6,0.5-0.8,0.9v2.5h-1.2L205.6,196.9L205.6,196.9z M212.7,197
		c-0.3,0-0.6-0.1-0.9-0.2c-0.3-0.1-0.5-0.3-0.7-0.5s-0.4-0.5-0.5-0.8s-0.2-0.6-0.2-1s0.1-0.7,0.2-1s0.3-0.6,0.5-0.8s0.5-0.4,0.7-0.5
		c0.3-0.1,0.6-0.2,0.9-0.2s0.6,0.1,0.9,0.2c0.3,0.1,0.5,0.3,0.7,0.5s0.4,0.4,0.5,0.8c0.1,0.3,0.2,0.6,0.2,1s-0.1,0.7-0.2,1
		s-0.3,0.5-0.5,0.8c-0.2,0.2-0.5,0.4-0.7,0.5C213.3,197,213,197,212.7,197z M212.7,196.2c0.4,0,0.7-0.1,0.9-0.4
		c0.2-0.3,0.3-0.7,0.3-1.1c0-0.5-0.1-0.8-0.3-1.1s-0.5-0.4-0.9-0.4s-0.7,0.1-0.9,0.4c-0.2,0.3-0.3,0.6-0.3,1.1s0.1,0.8,0.3,1.1
		C212.1,196,212.4,196.2,212.7,196.2z M218,197c-0.3,0-0.6-0.1-0.8-0.2c-0.2-0.1-0.4-0.3-0.6-0.5s-0.3-0.5-0.4-0.8s-0.1-0.6-0.1-1
		s0.1-0.7,0.2-1s0.3-0.6,0.5-0.8s0.4-0.4,0.7-0.5c0.2-0.1,0.5-0.2,0.8-0.2s0.5,0,0.7,0.1s0.4,0.2,0.6,0.4l0,0l-0.1-0.8V190h1.1v6.6
		h-0.9l-0.1-0.5l0,0c-0.2,0.2-0.4,0.3-0.6,0.5C218.5,197,218.2,197,218,197z M218.2,196.2c0.4,0,0.7-0.2,1-0.5v-2.1
		c-0.2-0.2-0.3-0.3-0.5-0.3c-0.2-0.1-0.3-0.1-0.5-0.1s-0.3,0-0.5,0.1c-0.1,0.1-0.3,0.2-0.4,0.3s-0.2,0.3-0.2,0.5
		c-0.1,0.2-0.1,0.4-0.1,0.6c0,0.5,0.1,0.9,0.3,1.1C217.6,196,217.9,196.2,218.2,196.2z M223.3,197c-0.5,0-0.9-0.2-1.2-0.5
		c-0.2-0.3-0.4-0.8-0.4-1.4v-2.8h1.1v2.7c0,0.4,0.1,0.7,0.2,0.8c0.1,0.2,0.4,0.2,0.7,0.2c0.2,0,0.4,0,0.6-0.1s0.4-0.3,0.6-0.5v-3.1
		h1.1v4.6h-0.9l-0.1-0.7l0,0c-0.2,0.3-0.5,0.5-0.7,0.6C224,197,223.7,197,223.3,197z M229.9,197c-0.4,0-0.7-0.1-1-0.2
		c-0.3-0.1-0.6-0.3-0.8-0.5s-0.4-0.5-0.5-0.8s-0.2-0.6-0.2-1s0.1-0.7,0.2-1s0.3-0.6,0.6-0.8c0.2-0.2,0.5-0.4,0.8-0.5s0.7-0.2,1-0.2
		c0.4,0,0.7,0.1,1,0.2c0.3,0.1,0.5,0.3,0.7,0.5l-0.5,0.7c-0.2-0.1-0.4-0.3-0.5-0.3c-0.2-0.1-0.4-0.1-0.6-0.1c-0.5,0-0.8,0.1-1.1,0.4
		c-0.3,0.3-0.4,0.6-0.4,1.1c0,0.2,0,0.4,0.1,0.6c0.1,0.2,0.2,0.3,0.3,0.5c0.1,0.1,0.3,0.2,0.5,0.3s0.4,0.1,0.6,0.1
		c0.3,0,0.5,0,0.7-0.1s0.4-0.2,0.6-0.4l0.4,0.7c-0.3,0.2-0.6,0.4-0.9,0.5C230.6,197,230.3,197,229.9,197z M236,197
		c-0.3,0-0.6,0-0.9-0.1c-0.2-0.1-0.4-0.2-0.6-0.4c-0.1-0.2-0.3-0.4-0.3-0.6c-0.1-0.2-0.1-0.5-0.1-0.8v-1.9h-1.2v-0.8h1.3l0.1-1.4
		h0.9v1.4h2.1v0.8h-2.1v1.9c0,0.4,0.1,0.7,0.2,0.8c0.2,0.2,0.4,0.3,0.8,0.3c0.2,0,0.4,0,0.5,0c0.2,0,0.3-0.1,0.5-0.1l0.2,0.8
		c-0.2,0.1-0.4,0.1-0.7,0.2C236.5,197,236.3,197,236,197z"/>
	<path class="st3" d="M129.2,134.1h89.1v43.5"/>
	<path class="st4" d="M129.2,134.1h89.1v34.5"/>
	<path class="st5" d="M216.1,168.5l2.2,6.1l2.2-6.1H216.1z"/>
	<path class="st6" d="M66.8,150v11h0.1v11"/>
	<path class="st7" d="M66.8,150v11h0.1v2"/>
	<path class="st5" d="M64.6,163l2.2,6.1L69,163H64.6z"/>
	<path class="st3" d="M218.3,209.4v10.9h0.1v10.9"/>
	<path class="st7" d="M218.3,209.4v10.9h0.1v1.9"/>
	<path class="st5" d="M216.2,222.3l2.2,6.1l2.2-6.1H216.2z"/>
	<path class="st2" d="M155.9,290.5h118.7l6.2,6.2v31.2l0,0H162.1l-6.2-6.2L155.9,290.5L155.9,290.5z"/>
	<path class="st1" d="M173.6,312.8c-0.4,0-0.8-0.1-1.2-0.2c-0.4-0.2-0.7-0.4-1-0.7l0.6-0.7c0.2,0.2,0.5,0.4,0.8,0.5s0.6,0.2,0.9,0.2
		c0.4,0,0.6-0.1,0.8-0.2s0.3-0.3,0.3-0.5c0-0.1,0-0.2-0.1-0.3c0-0.1-0.1-0.2-0.2-0.2c-0.1-0.1-0.2-0.1-0.3-0.2s-0.3-0.1-0.4-0.2
		l-0.8-0.4c-0.2-0.1-0.3-0.1-0.5-0.2s-0.3-0.2-0.4-0.3c-0.1-0.1-0.2-0.3-0.3-0.5s-0.1-0.4-0.1-0.6s0.1-0.5,0.2-0.7
		c0.1-0.2,0.2-0.4,0.4-0.5s0.4-0.3,0.7-0.4s0.5-0.1,0.8-0.1c0.4,0,0.7,0.1,1.1,0.2c0.3,0.1,0.6,0.3,0.9,0.6l-0.6,0.7
		c-0.2-0.2-0.4-0.3-0.7-0.4c-0.2-0.1-0.5-0.1-0.8-0.1s-0.5,0.1-0.7,0.2s-0.3,0.3-0.3,0.5c0,0.1,0,0.2,0.1,0.3
		c0.1,0.1,0.1,0.2,0.2,0.2c0.1,0.1,0.2,0.1,0.3,0.2c0.1,0,0.3,0.1,0.4,0.2l0.8,0.3c0.2,0.1,0.4,0.2,0.5,0.3c0.2,0.1,0.3,0.2,0.4,0.3
		c0.1,0.1,0.2,0.3,0.3,0.5s0.1,0.4,0.1,0.6s-0.1,0.5-0.2,0.7c-0.1,0.2-0.3,0.4-0.5,0.6s-0.4,0.3-0.7,0.4
		C174.1,313,174,312.8,173.6,312.8z M177.1,312.7v-6.6h1.1v1.7l-0.1,1l0,0c0.2-0.2,0.4-0.4,0.7-0.5c0.3-0.2,0.6-0.2,0.9-0.2
		c0.5,0,0.9,0.2,1.2,0.5c0.2,0.3,0.4,0.8,0.4,1.4v2.8h-1.1v-2.7c0-0.4-0.1-0.6-0.2-0.8c-0.1-0.2-0.3-0.3-0.7-0.3
		c-0.2,0-0.4,0.1-0.6,0.2c-0.2,0.1-0.4,0.3-0.6,0.5v3.1h-1L177.1,312.7L177.1,312.7z M184.8,312.8c-0.3,0-0.6-0.1-0.9-0.2
		c-0.3-0.1-0.5-0.3-0.7-0.5s-0.4-0.5-0.5-0.8s-0.2-0.6-0.2-1s0.1-0.7,0.2-1c0.1-0.3,0.3-0.6,0.5-0.8c0.2-0.2,0.5-0.4,0.7-0.5
		c0.3-0.1,0.6-0.2,0.9-0.2c0.3,0,0.6,0.1,0.9,0.2c0.3,0.1,0.5,0.3,0.7,0.5s0.4,0.4,0.5,0.8c0.1,0.3,0.2,0.6,0.2,1s-0.1,0.7-0.2,1
		c-0.1,0.3-0.3,0.5-0.5,0.8c-0.2,0.2-0.5,0.4-0.7,0.5C185.4,312.8,185.1,312.8,184.8,312.8z M184.8,312c0.4,0,0.7-0.1,0.9-0.4
		s0.3-0.7,0.3-1.1c0-0.5-0.1-0.8-0.3-1.1s-0.5-0.4-0.9-0.4s-0.7,0.1-0.9,0.4s-0.3,0.6-0.3,1.1s0.1,0.8,0.3,1.1
		C184.1,311.8,184.4,312,184.8,312z M188.5,312.7l-0.9-4.6h1l0.4,2.4c0,0.2,0.1,0.5,0.1,0.7s0.1,0.4,0.1,0.6l0,0
		c0-0.2,0.1-0.4,0.1-0.7c0-0.3,0.1-0.4,0.1-0.7l0.4-1.9h0.9l0.4,1.9c0.1,0.2,0.1,0.5,0.1,0.7c0.1,0.2,0.1,0.4,0.1,0.6l0,0
		c0-0.2,0.1-0.4,0.1-0.6s0.1-0.4,0.1-0.7l0.4-2.4h1l-0.8,4.6h-1.3l-0.4-1.8c-0.1-0.4-0.1-0.8-0.2-1.4l0,0c0,0.2-0.1,0.5-0.1,0.7
		s-0.1,0.4-0.1,0.7l-0.4,1.8L188.5,312.7L188.5,312.7z M199.6,312.7v-6.1h2c0.3,0,0.6,0,0.9,0.1c0.3,0.1,0.5,0.2,0.7,0.3
		c0.2,0.1,0.4,0.3,0.5,0.6c0.1,0.2,0.2,0.5,0.2,0.9c0,0.3-0.1,0.6-0.2,0.9c-0.1,0.2-0.3,0.5-0.5,0.6c-0.2,0.2-0.5,0.3-0.7,0.4
		c-0.3,0.1-0.6,0.1-0.9,0.1h-0.9v2.2H199.6z M200.7,309.6h0.8c0.9,0,1.3-0.4,1.3-1.1c0-0.4-0.1-0.7-0.3-0.8s-0.6-0.2-1-0.2h-0.8
		V309.6z M205.6,312.7v-4.6h0.9l0.1,1l0,0c0.2-0.4,0.5-0.7,0.9-0.8c0.3-0.2,0.7-0.3,1.1-0.3c0.2,0,0.3,0,0.5,0
		c0.1,0,0.3,0.1,0.4,0.1l-0.2,0.9c-0.1-0.1-0.3-0.1-0.4-0.1s-0.3,0-0.4,0c-0.3,0-0.6,0.1-0.9,0.3c-0.3,0.2-0.6,0.5-0.8,0.9v2.5
		L205.6,312.7L205.6,312.7z M212.8,312.8c-0.3,0-0.6-0.1-0.9-0.2c-0.3-0.1-0.5-0.3-0.7-0.5s-0.4-0.5-0.5-0.8s-0.2-0.6-0.2-1
		s0.1-0.7,0.2-1s0.3-0.6,0.5-0.8c0.2-0.2,0.5-0.4,0.7-0.5c0.3-0.1,0.6-0.2,0.9-0.2s0.6,0.1,0.9,0.2c0.3,0.1,0.5,0.3,0.7,0.5
		s0.4,0.4,0.5,0.8c0.1,0.3,0.2,0.6,0.2,1s-0.1,0.7-0.2,1s-0.3,0.5-0.5,0.8c-0.2,0.2-0.5,0.4-0.7,0.5
		C213.3,312.8,213.1,312.8,212.8,312.8z M212.8,312c0.4,0,0.7-0.1,0.9-0.4s0.3-0.7,0.3-1.1c0-0.5-0.1-0.8-0.3-1.1
		c-0.2-0.3-0.5-0.4-0.9-0.4s-0.7,0.1-0.9,0.4s-0.3,0.6-0.3,1.1s0.1,0.8,0.3,1.1C212.1,311.8,212.4,312,212.8,312z M218,312.8
		c-0.3,0-0.6-0.1-0.8-0.2s-0.4-0.3-0.6-0.5s-0.3-0.5-0.4-0.8s-0.1-0.6-0.1-1s0.1-0.7,0.2-1s0.3-0.6,0.5-0.8c0.2-0.2,0.4-0.4,0.7-0.5
		c0.2-0.1,0.5-0.2,0.8-0.2s0.5,0,0.7,0.1s0.4,0.2,0.6,0.4l0,0l-0.1-0.8v-1.7h1.1v6.6h-0.9l-0.1-0.5l0,0c-0.2,0.2-0.4,0.3-0.6,0.5
		S218.3,312.8,218,312.8z M218.3,311.9c0.4,0,0.7-0.2,1-0.5v-2.1c-0.2-0.2-0.3-0.3-0.5-0.3c-0.2-0.1-0.3-0.1-0.5-0.1s-0.3,0-0.5,0.1
		c-0.1,0.1-0.3,0.2-0.4,0.3s-0.2,0.3-0.2,0.5s-0.1,0.4-0.1,0.6c0,0.5,0.1,0.9,0.3,1.1C217.6,311.8,217.9,311.9,218.3,311.9z
		 M223.3,312.8c-0.5,0-0.9-0.2-1.2-0.5c-0.2-0.3-0.4-0.8-0.4-1.4v-2.8h1.1v2.7c0,0.4,0.1,0.7,0.2,0.8c0.1,0.2,0.4,0.2,0.7,0.2
		c0.2,0,0.4,0,0.6-0.1c0.2-0.1,0.4-0.3,0.6-0.5v-3.1h1.1v4.6h-0.9L225,312l0,0c-0.2,0.3-0.5,0.5-0.7,0.6
		C224,312.8,223.7,312.8,223.3,312.8z M230,312.8c-0.4,0-0.7-0.1-1-0.2s-0.6-0.3-0.8-0.5s-0.4-0.5-0.5-0.8s-0.2-0.6-0.2-1
		s0.1-0.7,0.2-1s0.3-0.6,0.6-0.8c0.2-0.2,0.5-0.4,0.8-0.5s0.7-0.2,1-0.2c0.4,0,0.7,0.1,1,0.2s0.5,0.3,0.7,0.5l-0.5,0.7
		c-0.2-0.1-0.4-0.3-0.5-0.3c-0.2-0.1-0.4-0.1-0.6-0.1c-0.5,0-0.8,0.1-1.1,0.4s-0.4,0.6-0.4,1.1c0,0.2,0,0.4,0.1,0.6s0.2,0.3,0.3,0.5
		c0.1,0.1,0.3,0.2,0.5,0.3s0.4,0.1,0.6,0.1c0.3,0,0.5,0,0.7-0.1s0.4-0.2,0.6-0.4l0.4,0.7c-0.3,0.2-0.6,0.4-0.9,0.5
		C230.6,312.8,230.3,312.8,230,312.8z M236,312.8c-0.3,0-0.6,0-0.9-0.1c-0.3-0.1-0.4-0.2-0.6-0.4c-0.1-0.2-0.3-0.4-0.3-0.6
		c-0.1-0.2-0.1-0.5-0.1-0.8V309h-1.2v-0.8h1.3l0.1-1.4h0.9v1.4h2.1v0.8h-2.1v1.9c0,0.4,0.1,0.7,0.2,0.8c0.2,0.2,0.4,0.3,0.8,0.3
		c0.2,0,0.4,0,0.5,0c0.2,0,0.3-0.1,0.5-0.1l0.2,0.8c-0.2,0.1-0.4,0.1-0.7,0.2C236.6,312.8,236.3,312.8,236,312.8z M244.7,312.7v-6.1
		h1.1v5.2h2.9v0.9H244.7z M251.9,312.7V309h-2v-0.8h3.1v4.6h-1.1V312.7z M251.9,307.3c-0.2,0-0.4-0.1-0.5-0.2s-0.2-0.3-0.2-0.5
		s0.1-0.4,0.2-0.5c0.1-0.1,0.3-0.2,0.5-0.2s0.4,0.1,0.5,0.2s0.2,0.3,0.2,0.5s-0.1,0.4-0.2,0.5C252.3,307.2,252.2,307.3,251.9,307.3z
		 M257.6,312.8c-0.4,0-0.8-0.1-1.2-0.2s-0.7-0.3-1-0.5l0.5-0.7c0.3,0.2,0.6,0.3,0.9,0.4s0.7,0.1,1,0.1s0.5-0.1,0.7-0.2
		s0.2-0.2,0.2-0.4c0-0.1,0-0.1,0-0.2s-0.1-0.1-0.2-0.2s-0.2-0.1-0.4-0.2c-0.2-0.1-0.4-0.1-0.7-0.2c-0.6-0.1-1.1-0.3-1.3-0.5
		c-0.3-0.2-0.4-0.5-0.4-0.9s0.2-0.7,0.5-1c0.4-0.3,0.9-0.4,1.5-0.4c0.4,0,0.7,0.1,1.1,0.2s0.6,0.3,0.8,0.4l-0.5,0.7
		c-0.2-0.1-0.5-0.3-0.7-0.3c-0.2-0.1-0.5-0.1-0.8-0.1s-0.5,0-0.7,0.1c-0.1,0.1-0.2,0.2-0.2,0.4c0,0.2,0.1,0.3,0.3,0.4
		c0.2,0.1,0.5,0.2,0.9,0.3s0.7,0.2,0.9,0.3c0.2,0.1,0.4,0.2,0.6,0.3c0.1,0.1,0.2,0.2,0.3,0.4c0.1,0.1,0.1,0.3,0.1,0.5s0,0.4-0.1,0.6
		s-0.2,0.3-0.4,0.5c-0.2,0.1-0.4,0.2-0.7,0.3C258.2,312.8,257.9,312.8,257.6,312.8z M264,312.8c-0.3,0-0.6,0-0.9-0.1
		s-0.4-0.2-0.6-0.4c-0.1-0.2-0.3-0.4-0.3-0.6c-0.1-0.2-0.1-0.5-0.1-0.8V309h-1.2v-0.8h1.3l0.1-1.4h0.9v1.4h2.1v0.8h-2.1v1.9
		c0,0.4,0.1,0.7,0.2,0.8c0.2,0.2,0.4,0.3,0.8,0.3c0.2,0,0.4,0,0.5,0c0.2,0,0.3-0.1,0.5-0.1l0.2,0.8c-0.2,0.1-0.4,0.1-0.7,0.2
		C264.5,312.8,264.3,312.8,264,312.8z"/>
	<path class="st6" d="M218.3,268.7v10.9h0.1v10.9"/>
	<path class="st7" d="M218.3,268.7v10.9h0.1v1.9"/>
	<path class="st5" d="M216.2,281.5l2.2,6.1l2.2-6.1H216.2z"/>
	<path class="st0" d="M155.9,349.8h118.7l6.2,6.2v31.2l0,0H162.1l-6.2-6.2L155.9,349.8L155.9,349.8z"/>
	<path class="st1" d="M180,372v-6.1h2c0.3,0,0.6,0,0.9,0.1c0.3,0.1,0.5,0.2,0.7,0.3c0.2,0.1,0.4,0.3,0.5,0.6
		c0.1,0.2,0.2,0.5,0.2,0.9c0,0.3-0.1,0.6-0.2,0.9c-0.1,0.2-0.3,0.5-0.5,0.6c-0.2,0.2-0.5,0.3-0.7,0.4c-0.3,0.1-0.6,0.1-0.9,0.1h-0.9
		v2.2H180z M181.1,368.9h0.8c0.9,0,1.3-0.4,1.3-1.1c0-0.4-0.1-0.7-0.3-0.8s-0.6-0.2-1-0.2h-0.8V368.9z M186,372v-4.6h0.9l0.1,1l0,0
		c0.2-0.4,0.5-0.7,0.9-0.8c0.3-0.2,0.7-0.3,1.1-0.3c0.2,0,0.3,0,0.5,0c0.1,0,0.3,0.1,0.4,0.1l-0.2,0.9c-0.1-0.1-0.3-0.1-0.4-0.1
		c-0.1,0-0.3,0-0.4,0c-0.3,0-0.6,0.1-0.9,0.3c-0.3,0.2-0.6,0.5-0.8,0.9v2.5L186,372L186,372L186,372z M193.2,372.1
		c-0.3,0-0.6-0.1-0.9-0.2c-0.3-0.1-0.5-0.3-0.7-0.5s-0.4-0.5-0.5-0.8s-0.2-0.6-0.2-1s0.1-0.7,0.2-1c0.1-0.3,0.3-0.6,0.5-0.8
		c0.2-0.2,0.5-0.4,0.7-0.5c0.3-0.1,0.6-0.2,0.9-0.2c0.3,0,0.6,0.1,0.9,0.2c0.3,0.1,0.5,0.3,0.7,0.5s0.4,0.4,0.5,0.8
		c0.1,0.3,0.2,0.6,0.2,1s-0.1,0.7-0.2,1c-0.1,0.3-0.3,0.5-0.5,0.8c-0.2,0.2-0.5,0.4-0.7,0.5C193.8,372.1,193.5,372.1,193.2,372.1z
		 M193.2,371.2c0.4,0,0.7-0.1,0.9-0.4s0.3-0.7,0.3-1.1c0-0.5-0.1-0.8-0.3-1.1s-0.5-0.4-0.9-0.4s-0.7,0.1-0.9,0.4s-0.3,0.6-0.3,1.1
		s0.1,0.8,0.3,1.1S192.8,371.2,193.2,371.2z M198.4,372.1c-0.3,0-0.6-0.1-0.8-0.2s-0.4-0.3-0.6-0.5c-0.2-0.2-0.3-0.5-0.4-0.8
		c-0.1-0.3-0.1-0.6-0.1-1s0.1-0.7,0.2-1c0.1-0.3,0.3-0.6,0.5-0.8c0.2-0.2,0.4-0.4,0.7-0.5c0.2-0.1,0.5-0.2,0.8-0.2s0.5,0,0.7,0.1
		s0.4,0.2,0.6,0.4l0,0l-0.1-0.8v-1.7h1.1v6.6h-0.9l-0.1-0.5l0,0c-0.2,0.2-0.4,0.3-0.6,0.5C198.9,372,198.7,372.1,198.4,372.1z
		 M198.7,371.2c0.4,0,0.7-0.2,1-0.5v-2.1c-0.2-0.2-0.3-0.3-0.5-0.3c-0.2-0.1-0.3-0.1-0.5-0.1s-0.3,0-0.5,0.1
		c-0.1,0.1-0.3,0.2-0.4,0.3c-0.1,0.1-0.2,0.3-0.2,0.5s-0.1,0.4-0.1,0.6c0,0.5,0.1,0.9,0.3,1.1C198.1,371.1,198.3,371.2,198.7,371.2z
		 M203.8,372.1c-0.5,0-0.9-0.2-1.2-0.5c-0.2-0.3-0.4-0.8-0.4-1.4v-2.8h1.1v2.7c0,0.4,0.1,0.7,0.2,0.8c0.1,0.2,0.4,0.2,0.7,0.2
		c0.2,0,0.4,0,0.6-0.1c0.2-0.1,0.4-0.3,0.6-0.5v-3.1h1.1v4.6h-0.9l-0.1-0.7l0,0c-0.2,0.3-0.5,0.5-0.7,0.6
		C204.4,372,204.1,372.1,203.8,372.1z M210.4,372.1c-0.4,0-0.7-0.1-1-0.2s-0.6-0.3-0.8-0.5s-0.4-0.5-0.5-0.8s-0.2-0.6-0.2-1
		s0.1-0.7,0.2-1s0.3-0.6,0.6-0.8c0.2-0.2,0.5-0.4,0.8-0.5s0.7-0.2,1-0.2c0.4,0,0.7,0.1,1,0.2s0.5,0.3,0.7,0.5l-0.6,0.8
		c-0.2-0.1-0.4-0.3-0.5-0.3c-0.2-0.1-0.4-0.1-0.6-0.1c-0.5,0-0.8,0.1-1.1,0.4s-0.4,0.6-0.4,1.1c0,0.2,0,0.4,0.1,0.6s0.2,0.3,0.3,0.5
		c0.1,0.1,0.3,0.2,0.5,0.3s0.4,0.1,0.6,0.1c0.3,0,0.5,0,0.7-0.1s0.4-0.2,0.6-0.4l0.4,0.7c-0.3,0.2-0.6,0.4-0.9,0.5
		C211,372.1,210.7,372.1,210.4,372.1z M216.4,372.1c-0.3,0-0.6,0-0.9-0.1c-0.2-0.1-0.4-0.2-0.6-0.4c-0.1-0.2-0.3-0.4-0.3-0.6
		c-0.1-0.2-0.1-0.5-0.1-0.8v-1.9h-1.2v-0.8h1.3l0.1-1.4h0.9v1.4h2.1v0.8h-2.1v1.9c0,0.4,0.1,0.7,0.2,0.8c0.2,0.2,0.4,0.3,0.8,0.3
		c0.2,0,0.4,0,0.5,0c0.2,0,0.3-0.1,0.5-0.1l0.2,0.8c-0.2,0.1-0.4,0.1-0.7,0.2C217,372.1,216.7,372.1,216.4,372.1z M224.7,372v-6.1
		h1.6c0.9,0,1.6,0.2,2.1,0.8c0.5,0.5,0.8,1.3,0.8,2.3c0,0.5-0.1,0.9-0.2,1.3c-0.1,0.4-0.3,0.7-0.6,1c-0.2,0.3-0.5,0.5-0.9,0.6
		c-0.3,0.1-0.7,0.2-1.2,0.2L224.7,372L224.7,372z M225.8,371.1h0.5c0.6,0,1-0.2,1.3-0.5c0.3-0.4,0.5-0.9,0.5-1.7
		c0-0.8-0.2-1.3-0.5-1.6c-0.3-0.3-0.8-0.5-1.3-0.5h-0.5V371.1z M232.6,372.1c-0.3,0-0.7-0.1-1-0.2s-0.6-0.3-0.8-0.5
		s-0.4-0.5-0.5-0.8s-0.2-0.6-0.2-1s0.1-0.7,0.2-1s0.3-0.5,0.5-0.8c0.2-0.2,0.5-0.4,0.8-0.5s0.6-0.2,0.9-0.2s0.6,0.1,0.9,0.2
		c0.3,0.1,0.5,0.2,0.7,0.4c0.2,0.2,0.3,0.4,0.4,0.7s0.1,0.6,0.1,0.9c0,0.1,0,0.2,0,0.3s0,0.2,0,0.2h-3.4c0.1,0.4,0.2,0.8,0.5,1
		s0.6,0.3,1.1,0.3c0.2,0,0.5,0,0.7-0.1s0.4-0.2,0.6-0.3l0.4,0.7c-0.2,0.2-0.5,0.3-0.8,0.4C233.3,372.1,233,372.1,232.6,372.1z
		 M232.5,368.1c-0.3,0-0.6,0.1-0.8,0.3c-0.2,0.2-0.4,0.5-0.5,0.8h2.4c0-0.4-0.2-0.6-0.4-0.8S232.8,368.1,232.5,368.1z M238.8,372.1
		c-0.3,0-0.6,0-0.9-0.1c-0.2-0.1-0.4-0.2-0.6-0.4c-0.1-0.2-0.3-0.4-0.3-0.6c-0.1-0.2-0.1-0.5-0.1-0.8v-1.9h-1.2v-0.8h1.3l0.1-1.4
		h0.9v1.4h2.1v0.8H238v1.9c0,0.4,0.1,0.7,0.2,0.8c0.2,0.2,0.4,0.3,0.8,0.3c0.2,0,0.4,0,0.5,0c0.2,0,0.3-0.1,0.5-0.1l0.2,0.8
		c-0.2,0.1-0.4,0.1-0.7,0.2C239.4,372.1,239.1,372.1,238.8,372.1z M242.9,372.1c-0.2,0-0.4,0-0.6-0.1c-0.2-0.1-0.3-0.2-0.5-0.3
		c-0.1-0.1-0.2-0.3-0.3-0.4c-0.1-0.2-0.1-0.3-0.1-0.5s0.1-0.5,0.2-0.7s0.3-0.4,0.6-0.5s0.6-0.2,1-0.3c0.4-0.1,0.9-0.2,1.5-0.2
		c0-0.3-0.1-0.5-0.3-0.7s-0.4-0.2-0.8-0.2c-0.3,0-0.5,0.1-0.8,0.2c-0.2,0.1-0.5,0.2-0.7,0.3l-0.4-0.7c0.3-0.2,0.6-0.3,1-0.4
		s0.7-0.2,1.1-0.2c0.6,0,1.1,0.2,1.5,0.5c0.3,0.3,0.5,0.8,0.5,1.5v2.7h-0.9l-0.1-0.6l0,0c-0.2,0.2-0.5,0.3-0.8,0.5
		C243.5,372,243.2,372.1,242.9,372.1z M243.3,371.3c0.2,0,0.4,0,0.7-0.1c0.2-0.1,0.4-0.2,0.7-0.4v-1c-0.4,0-0.8,0.1-1,0.1
		c-0.3,0.1-0.5,0.1-0.7,0.2s-0.3,0.2-0.3,0.3c-0.1,0.1-0.1,0.2-0.1,0.3c0,0.2,0.1,0.4,0.2,0.5C242.8,371.2,243,371.3,243.3,371.3z
		 M249.1,372v-3.7h-2v-0.8h3.1v4.6h-1.1V372z M249.1,366.6c-0.2,0-0.4-0.1-0.5-0.2s-0.2-0.3-0.2-0.5s0.1-0.4,0.2-0.5
		c0.1-0.1,0.3-0.2,0.5-0.2s0.4,0.1,0.5,0.2s0.2,0.3,0.2,0.5s-0.1,0.4-0.2,0.5C249.5,366.5,249.4,366.6,249.1,366.6z M255.7,372.1
		c-0.5,0-0.9-0.2-1.2-0.5s-0.4-0.8-0.4-1.3v-4.1h-1.5v-0.8h2.6v5c0,0.3,0.1,0.5,0.2,0.7s0.3,0.2,0.6,0.2c0.2,0,0.5-0.1,0.8-0.2
		l0.2,0.8c-0.2,0.1-0.4,0.2-0.6,0.2S255.9,372.1,255.7,372.1z"/>
	<path class="st6" d="M218.4,328v10.9h0.1v10.9"/>
	<path class="st7" d="M218.4,328v10.9h0.1v1.9"/>
	<path class="st5" d="M216.2,340.8l2.2,6.1l2.2-6.1H216.2z"/>
	<path class="st3" d="M66.8,209.4V250h89.1"/>
	<path class="st4" d="M66.8,209.4V250h80.1"/>
	<path class="st5" d="M146.9,252.2l6.1-2.2l-6.1-2.2V252.2z"/>
	<path class="st6" d="M280.8,309.3h25V250h-24.9"/>
	<path class="st4" d="M280.8,309.3h25V250h-15.9"/>
	<path class="st5" d="M289.9,247.8l-6.1,2.2l6.1,2.2V247.8z"/>
</g>
<g>
	<path class="st8" d="M409.4,45.4h99.9l5.6,5.6v28.2l0,0h-99.8l-5.6-5.6L409.4,45.4L409.4,45.4z"/>
	<path class="st9" d="M409.4,45.4h99.9l5.6,5.6v28.2l0,0h-99.8l-5.6-5.6L409.4,45.4L409.4,45.4z"/>
	<path class="st1" d="M450,66v-7h1.6v2.7h1.9V59h1.6v7h-1.6v-2.9h-1.9V66H450z M459,66.1c-0.4,0-0.7-0.1-1-0.2s-0.6-0.3-0.9-0.5
		c-0.2-0.2-0.5-0.5-0.6-0.9c-0.1-0.3-0.2-0.7-0.2-1.2c0-0.4,0.1-0.8,0.2-1.2c0.2-0.4,0.4-0.6,0.6-0.9c0.2-0.2,0.5-0.4,0.9-0.5
		c0.3-0.1,0.7-0.2,1-0.2s0.7,0.1,1,0.2c0.3,0.1,0.6,0.3,0.9,0.5s0.5,0.5,0.6,0.9c0.1,0.3,0.2,0.7,0.2,1.2c0,0.4-0.1,0.8-0.2,1.2
		c-0.1,0.3-0.3,0.6-0.6,0.9c-0.2,0.2-0.5,0.4-0.9,0.5C459.6,66.1,459.3,66.1,459,66.1z M459,64.8c0.4,0,0.6-0.1,0.8-0.4
		c0.2-0.3,0.3-0.6,0.3-1.1s-0.1-0.8-0.3-1.1c-0.2-0.3-0.4-0.4-0.8-0.4s-0.6,0.1-0.8,0.4s-0.3,0.6-0.3,1.1s0.1,0.8,0.3,1.1
		C458.3,64.7,458.6,64.8,459,64.8z M462.5,66v-5.3h1.2l0.1,0.6l0,0c0.1-0.2,0.2-0.4,0.4-0.5c0.2-0.2,0.4-0.2,0.7-0.2
		c0.2,0,0.4,0.1,0.6,0.2c0.2,0.1,0.3,0.4,0.3,0.6c0.1-0.2,0.2-0.4,0.4-0.6s0.4-0.2,0.8-0.2s0.7,0.2,0.9,0.5c0.2,0.3,0.3,0.7,0.3,1.2
		V66h-1.5v-3.6c0-0.2,0-0.3-0.1-0.3c0-0.1-0.1-0.1-0.2-0.1s-0.2,0-0.3,0.1c-0.1,0.1-0.1,0.2-0.2,0.4v3.6h-1.2v-3.6
		c0-0.3-0.1-0.5-0.3-0.5c-0.1,0-0.2,0-0.2,0.1s-0.1,0.2-0.2,0.4v3.6L462.5,66L462.5,66z M472.1,66.1c-0.4,0-0.8-0.1-1.2-0.2
		s-0.7-0.3-0.9-0.5c-0.3-0.2-0.5-0.5-0.6-0.9c-0.1-0.3-0.2-0.7-0.2-1.2c0-0.4,0.1-0.8,0.2-1.2c0.2-0.3,0.4-0.6,0.6-0.9
		c0.3-0.2,0.6-0.4,0.9-0.5s0.7-0.2,1-0.2c0.4,0,0.8,0.1,1.1,0.2c0.3,0.1,0.6,0.3,0.8,0.5c0.2,0.2,0.4,0.5,0.5,0.8s0.2,0.6,0.2,1
		c0,0.1,0,0.3,0,0.4c0,0.1,0,0.2,0,0.3h-3.6c0.1,0.4,0.2,0.7,0.5,0.8c0.3,0.2,0.6,0.3,1.1,0.3c0.2,0,0.5,0,0.7-0.1s0.4-0.2,0.7-0.3
		l0.5,1c-0.3,0.2-0.6,0.3-1,0.5C472.8,66.1,472.4,66.1,472.1,66.1z M471.9,61.8c-0.3,0-0.6,0.1-0.8,0.2c-0.2,0.2-0.4,0.4-0.4,0.7
		h2.3C472.9,62.1,472.5,61.8,471.9,61.8z"/>
	<path class="st10" d="M409.4,108.1h96.4l9.1,9.1v45.5l0,0h-96.4l-9.1-9.1L409.4,108.1L409.4,108.1z"/>
	<path class="st9" d="M409.4,108.1h96.4l9.1,9.1v45.5l0,0h-96.4l-9.1-9.1L409.4,108.1L409.4,108.1z"/>
	<path class="st1" d="M446.1,132.8c-0.5,0-0.9-0.1-1.4-0.2c-0.5-0.1-0.9-0.4-1.2-0.8l0.9-1.1c0.3,0.2,0.5,0.4,0.9,0.5s0.6,0.2,1,0.2
		s0.6-0.1,0.8-0.2c0.2-0.1,0.2-0.3,0.2-0.4c0-0.1,0-0.2-0.1-0.3s-0.1-0.2-0.2-0.2c-0.1-0.1-0.2-0.1-0.3-0.2
		c-0.1-0.1-0.3-0.1-0.5-0.2l-0.9-0.4c-0.2-0.1-0.4-0.2-0.6-0.3s-0.3-0.2-0.5-0.4c-0.1-0.2-0.2-0.3-0.3-0.5s-0.1-0.4-0.1-0.7
		s0.1-0.5,0.2-0.8s0.3-0.5,0.5-0.7s0.5-0.3,0.8-0.4s0.7-0.2,1-0.2c0.4,0,0.8,0.1,1.2,0.2s0.8,0.4,1.1,0.7l-0.8,1
		c-0.2-0.2-0.5-0.3-0.7-0.4s-0.5-0.1-0.9-0.1c-0.3,0-0.5,0.1-0.6,0.2c-0.2,0.1-0.2,0.3-0.2,0.5s0.1,0.4,0.3,0.5
		c0.2,0.1,0.5,0.2,0.8,0.3l0.8,0.4c0.5,0.2,0.8,0.4,1.1,0.7c0.3,0.3,0.4,0.7,0.4,1.2c0,0.3-0.1,0.6-0.2,0.8
		c-0.1,0.3-0.3,0.5-0.5,0.7s-0.5,0.4-0.8,0.5C447,132.8,446.6,132.8,446.1,132.8z M452.9,132.8c-0.4,0-0.8-0.1-1.2-0.2
		c-0.4-0.1-0.7-0.3-0.9-0.5c-0.3-0.2-0.5-0.5-0.6-0.9s-0.2-0.7-0.2-1.2s0.1-0.8,0.2-1.2c0.2-0.3,0.4-0.6,0.6-0.9
		c0.3-0.2,0.6-0.4,0.9-0.5s0.7-0.2,1-0.2c0.4,0,0.8,0.1,1.1,0.2c0.3,0.1,0.6,0.3,0.8,0.5c0.2,0.2,0.4,0.5,0.5,0.8s0.2,0.6,0.2,1
		c0,0.1,0,0.3,0,0.4c0,0.1,0,0.2,0,0.3h-3.6c0.1,0.4,0.2,0.7,0.5,0.8s0.6,0.3,1.1,0.3c0.2,0,0.5,0,0.7-0.1s0.4-0.2,0.7-0.3l0.5,1
		c-0.3,0.2-0.6,0.3-1,0.5C453.6,132.7,453.2,132.8,452.9,132.8z M452.7,128.4c-0.3,0-0.6,0.1-0.8,0.2c-0.2,0.2-0.4,0.4-0.4,0.7h2.3
		C453.7,128.8,453.4,128.4,452.7,128.4z M458.1,132.8c-0.3,0-0.5,0-0.7-0.1s-0.4-0.2-0.5-0.3s-0.3-0.3-0.3-0.5
		c-0.1-0.2-0.1-0.4-0.1-0.6c0-0.3,0.1-0.6,0.2-0.8s0.3-0.4,0.6-0.6s0.6-0.3,1.1-0.4c0.4-0.1,1-0.2,1.6-0.2c0-0.2-0.1-0.4-0.3-0.6
		c-0.2-0.1-0.4-0.2-0.8-0.2c-0.2,0-0.5,0-0.8,0.1s-0.5,0.2-0.8,0.4l-0.5-1c0.4-0.2,0.8-0.4,1.2-0.5s0.9-0.2,1.3-0.2
		c0.7,0,1.3,0.2,1.8,0.6c0.4,0.4,0.6,1,0.6,1.8v3h-1.3l-0.1-0.6l0,0c-0.3,0.2-0.6,0.4-0.9,0.5C458.8,132.7,458.5,132.8,458.1,132.8z
		 M458.6,131.6c0.2,0,0.4,0,0.7-0.1c0.2-0.1,0.4-0.2,0.6-0.4v-0.9c-0.4,0-0.7,0.1-1,0.1c-0.2,0-0.5,0.1-0.6,0.2
		c-0.1,0.1-0.2,0.2-0.3,0.3s-0.1,0.2-0.1,0.3c0,0.2,0.1,0.3,0.2,0.4C458.2,131.5,458.4,131.6,458.6,131.6z M463.4,132.7v-5.3h1.3
		l0.1,1.1l0,0c0.3-0.4,0.6-0.7,0.9-1c0.4-0.2,0.8-0.3,1.2-0.3c0.2,0,0.4,0,0.6,0c0.1,0,0.3,0.1,0.5,0.2l-0.3,1.3
		c-0.2-0.1-0.3-0.1-0.4-0.1s-0.3,0-0.5,0c-0.3,0-0.6,0.1-1,0.3c-0.3,0.2-0.6,0.5-0.8,1v2.8H463.4z M472.2,132.8
		c-0.4,0-0.8-0.1-1.2-0.2c-0.4-0.1-0.7-0.3-0.9-0.5c-0.3-0.2-0.5-0.5-0.6-0.9c-0.1-0.3-0.2-0.7-0.2-1.2s0.1-0.8,0.2-1.2
		c0.2-0.4,0.4-0.6,0.7-0.9c0.3-0.2,0.6-0.4,1-0.5s0.8-0.2,1.2-0.2s0.8,0.1,1.1,0.2c0.3,0.1,0.6,0.3,0.8,0.5l-0.7,1
		c-0.4-0.3-0.8-0.4-1.2-0.4c-0.5,0-0.8,0.1-1.1,0.4s-0.4,0.6-0.4,1.1s0.1,0.8,0.4,1.1s0.6,0.4,1.1,0.4c0.3,0,0.5,0,0.8-0.1
		c0.2-0.1,0.4-0.2,0.6-0.4l0.6,1c-0.3,0.3-0.7,0.5-1.1,0.6C472.9,132.7,472.6,132.8,472.2,132.8z M475.7,132.7v-7.5h1.6v1.8l-0.1,1
		l0,0c0.2-0.2,0.4-0.4,0.7-0.5c0.3-0.2,0.6-0.2,1-0.2c0.6,0,1,0.2,1.3,0.6s0.4,0.9,0.4,1.6v3.3H479v-3.2c0-0.4-0.1-0.6-0.2-0.8
		s-0.3-0.2-0.6-0.2c-0.2,0-0.4,0-0.6,0.1s-0.3,0.2-0.5,0.4v3.5L475.7,132.7L475.7,132.7L475.7,132.7z"/>
	<path class="st1" d="M440.6,145.7v-7h2.5c0.4,0,0.7,0,1,0.1s0.6,0.2,0.9,0.4c0.2,0.2,0.4,0.4,0.6,0.7c0.1,0.3,0.2,0.6,0.2,1.1
		c0,0.4-0.1,0.7-0.2,1s-0.3,0.6-0.6,0.8c-0.2,0.2-0.5,0.3-0.9,0.4c-0.3,0.1-0.7,0.1-1,0.1h-0.9v2.4H440.6z M442.1,142h0.8
		c0.8,0,1.3-0.4,1.3-1.1c0-0.4-0.1-0.6-0.3-0.8c-0.2-0.2-0.5-0.2-0.9-0.2h-0.8L442.1,142L442.1,142z M447.4,145.7v-5.3h1.3l0.1,1.1
		l0,0c0.3-0.4,0.6-0.7,0.9-1c0.4-0.2,0.8-0.3,1.2-0.3c0.2,0,0.4,0,0.6,0s0.3,0.1,0.5,0.2l-0.3,1.3c-0.2-0.1-0.3-0.1-0.4-0.1
		s-0.3,0-0.5,0c-0.3,0-0.6,0.1-1,0.3c-0.3,0.2-0.6,0.5-0.8,1v2.8H447.4z M455.8,145.8c-0.4,0-0.7-0.1-1-0.2
		c-0.3-0.1-0.6-0.3-0.9-0.5c-0.2-0.2-0.5-0.5-0.6-0.9c-0.1-0.3-0.2-0.7-0.2-1.2s0.1-0.8,0.2-1.2c0.2-0.4,0.4-0.6,0.6-0.9
		c0.2-0.2,0.5-0.4,0.9-0.5c0.3-0.1,0.7-0.2,1-0.2s0.7,0.1,1,0.2c0.3,0.1,0.6,0.3,0.9,0.5s0.5,0.5,0.6,0.9c0.1,0.3,0.2,0.7,0.2,1.2
		s-0.1,0.8-0.2,1.2s-0.3,0.6-0.6,0.9c-0.2,0.2-0.5,0.4-0.9,0.5C456.4,145.7,456.1,145.8,455.8,145.8z M455.8,144.5
		c0.4,0,0.6-0.1,0.8-0.4c0.2-0.3,0.3-0.6,0.3-1.1s-0.1-0.8-0.3-1.1c-0.2-0.3-0.4-0.4-0.8-0.4s-0.6,0.1-0.8,0.4
		c-0.2,0.3-0.3,0.6-0.3,1.1s0.1,0.8,0.3,1.1C455.1,144.4,455.4,144.5,455.8,144.5z M461.7,145.8c-0.3,0-0.6-0.1-0.9-0.2
		c-0.3-0.1-0.5-0.3-0.7-0.5s-0.3-0.5-0.5-0.9c-0.1-0.3-0.2-0.7-0.2-1.2c0-0.4,0.1-0.8,0.2-1.2c0.1-0.3,0.3-0.6,0.5-0.9
		c0.2-0.2,0.4-0.4,0.7-0.5c0.3-0.1,0.6-0.2,0.8-0.2c0.3,0,0.5,0,0.8,0.1c0.2,0.1,0.4,0.2,0.6,0.4l0,0l-0.1-0.8v-1.8h1.6v7.5h-1.2
		l-0.1-0.5l0,0c-0.2,0.2-0.4,0.4-0.7,0.5C462.2,145.7,462,145.8,461.7,145.8z M462.1,144.5c0.2,0,0.3,0,0.5-0.1
		c0.1-0.1,0.3-0.2,0.4-0.4v-2.1c-0.1-0.1-0.3-0.2-0.4-0.3s-0.3-0.1-0.5-0.1c-0.3,0-0.5,0.1-0.8,0.4c-0.2,0.2-0.3,0.6-0.3,1.1
		s0.1,0.9,0.3,1.2C461.5,144.4,461.8,144.5,462.1,144.5z M469,145.8c-0.4,0-0.8-0.1-1.2-0.2c-0.4-0.1-0.7-0.3-0.9-0.5
		c-0.3-0.2-0.5-0.5-0.6-0.9c-0.1-0.3-0.2-0.7-0.2-1.2s0.1-0.8,0.2-1.2c0.2-0.4,0.4-0.6,0.7-0.9c0.3-0.2,0.6-0.4,1-0.5
		s0.8-0.2,1.2-0.2s0.8,0.1,1.1,0.2c0.3,0.1,0.6,0.3,0.8,0.5l-0.7,1c-0.4-0.3-0.8-0.4-1.2-0.4c-0.5,0-0.8,0.1-1.1,0.4
		s-0.4,0.6-0.4,1.1s0.1,0.8,0.4,1.1s0.6,0.4,1.1,0.4c0.3,0,0.5,0,0.8-0.1c0.2-0.1,0.4-0.2,0.6-0.4l0.6,1c-0.3,0.3-0.7,0.5-1.1,0.6
		C469.7,145.7,469.4,145.8,469,145.8z M474.1,145.8c-0.6,0-1-0.2-1.3-0.6c-0.3-0.4-0.4-0.9-0.4-1.6v-3.2h1.6v3
		c0,0.4,0.1,0.6,0.2,0.8s0.3,0.2,0.6,0.2c0.2,0,0.4,0,0.5-0.1c0.2-0.1,0.3-0.2,0.5-0.5v-3.5h1.6v5.3h-1.3l-0.1-0.8l0,0
		c-0.2,0.3-0.5,0.5-0.8,0.6C474.8,145.7,474.5,145.8,474.1,145.8z M482.3,145.8c-0.4,0-0.8-0.1-1.1-0.2c-0.3-0.1-0.5-0.3-0.7-0.5
		s-0.3-0.5-0.4-0.7c-0.1-0.3-0.1-0.6-0.1-0.9v-1.9h-1.3v-1.2l1.4-0.1l0.2-1.6h1.3v1.6h2.2v1.2h-2.2v1.9c0,0.4,0.1,0.7,0.3,0.9
		c0.2,0.2,0.5,0.2,0.9,0.2c0.2,0,0.4,0,0.5,0c0.2,0,0.3-0.1,0.5-0.2l0.3,1.1c-0.2,0.1-0.5,0.1-0.8,0.2
		C482.9,145.7,482.6,145.8,482.3,145.8z"/>
	<path class="st10" d="M409.4,194.4h99.9l5.6,5.6v28.2l0,0h-99.8l-5.6-5.6L409.4,194.4L409.4,194.4z"/>
	<path class="st9" d="M409.4,194.4h99.9l5.6,5.6v28.2l0,0h-99.8l-5.6-5.6L409.4,194.4L409.4,194.4z"/>
	<path class="st1" d="M439.7,208.7c-0.5,0-0.9-0.1-1.4-0.2c-0.5-0.2-0.9-0.4-1.2-0.8l0.9-1.1c0.3,0.2,0.5,0.4,0.9,0.5
		c0.3,0.1,0.6,0.2,1,0.2s0.6-0.1,0.8-0.2c0.2-0.1,0.2-0.3,0.2-0.4c0-0.1,0-0.2-0.1-0.3s-0.1-0.2-0.2-0.2c-0.1-0.1-0.2-0.1-0.3-0.2
		c-0.1-0.1-0.3-0.1-0.5-0.2l-0.9-0.4c-0.2-0.1-0.4-0.2-0.6-0.3s-0.3-0.2-0.5-0.4c-0.1-0.2-0.2-0.3-0.3-0.5s-0.1-0.4-0.1-0.7
		s0.1-0.5,0.2-0.8s0.3-0.5,0.5-0.7s0.5-0.3,0.8-0.4c0.3-0.1,0.7-0.2,1-0.2c0.4,0,0.8,0.1,1.2,0.2s0.8,0.4,1.1,0.7l-0.8,1
		c-0.2-0.2-0.5-0.3-0.7-0.4s-0.5-0.1-0.9-0.1c-0.3,0-0.5,0.1-0.6,0.2c-0.2,0.1-0.2,0.3-0.2,0.5s0.1,0.4,0.3,0.5s0.5,0.2,0.8,0.3
		l0.8,0.4c0.5,0.2,0.8,0.4,1.1,0.7s0.4,0.7,0.4,1.2c0,0.3-0.1,0.6-0.2,0.8c-0.1,0.3-0.3,0.5-0.5,0.7s-0.5,0.4-0.8,0.5
		C440.6,208.6,440.2,208.7,439.7,208.7z M443.7,210.5v-7.2h1.3l0.1,0.5l0,0c0.2-0.2,0.5-0.4,0.7-0.5c0.3-0.1,0.6-0.2,0.8-0.2
		c0.3,0,0.6,0.1,0.9,0.2s0.5,0.3,0.7,0.5s0.3,0.5,0.4,0.8s0.1,0.7,0.1,1.1c0,0.5-0.1,0.9-0.2,1.2c-0.1,0.4-0.3,0.7-0.5,0.9
		s-0.5,0.4-0.7,0.5c-0.3,0.1-0.6,0.2-0.8,0.2c-0.5,0-0.9-0.2-1.3-0.6l0,0l0.1,0.9v1.5h-1.6V210.5z M446.2,207.4
		c0.3,0,0.6-0.1,0.8-0.4c0.2-0.2,0.3-0.6,0.3-1.2c0-1-0.3-1.4-1-1.4c-0.3,0-0.7,0.2-1,0.5v2.1c0.2,0.1,0.3,0.2,0.5,0.3
		C445.9,207.4,446.1,207.4,446.2,207.4z M452.3,208.5v-4.1h-2.1v-1.2h3.7v5.3H452.3z M452.6,202.4c-0.3,0-0.6-0.1-0.8-0.2
		c-0.2-0.2-0.3-0.4-0.3-0.7s0.1-0.5,0.3-0.7s0.5-0.3,0.8-0.3s0.5,0.1,0.7,0.3s0.3,0.4,0.3,0.7s-0.1,0.5-0.3,0.7
		C453.1,202.3,452.9,202.4,452.6,202.4z M459.4,208.7c-0.4,0-0.8-0.1-1.2-0.2c-0.4-0.1-0.7-0.3-0.9-0.5c-0.3-0.2-0.5-0.5-0.6-0.9
		c-0.1-0.3-0.2-0.7-0.2-1.2c0-0.4,0.1-0.8,0.2-1.2c0.2-0.4,0.4-0.6,0.7-0.9c0.3-0.2,0.6-0.4,1-0.5s0.8-0.2,1.2-0.2s0.8,0.1,1.1,0.2
		c0.3,0.1,0.6,0.3,0.8,0.5l-0.7,1c-0.4-0.3-0.8-0.4-1.2-0.4c-0.5,0-0.8,0.1-1.1,0.4c-0.3,0.3-0.4,0.6-0.4,1.1s0.1,0.8,0.4,1.1
		s0.6,0.4,1.1,0.4c0.3,0,0.5,0,0.8-0.1c0.2-0.1,0.4-0.2,0.6-0.4l0.6,1c-0.3,0.3-0.7,0.5-1.1,0.6
		C460.1,208.6,459.8,208.7,459.4,208.7z M465.1,208.5v-4.1H463v-1.2h3.7v5.3H465.1z M465.3,202.4c-0.3,0-0.6-0.1-0.8-0.2
		c-0.2-0.2-0.3-0.4-0.3-0.7s0.1-0.5,0.3-0.7s0.5-0.3,0.8-0.3s0.5,0.1,0.7,0.3s0.3,0.4,0.3,0.7s-0.1,0.5-0.3,0.7
		C465.9,202.3,465.6,202.4,465.3,202.4z M470.8,208.5v-4.1h-1.4v-1.2l1.4-0.1V203c0-0.3,0-0.6,0.1-0.8c0.1-0.3,0.2-0.5,0.4-0.7
		s0.4-0.4,0.7-0.5s0.7-0.2,1.1-0.2c0.3,0,0.6,0,0.8,0.1c0.3,0.1,0.5,0.1,0.8,0.2l-0.3,1.2c-0.4-0.1-0.7-0.2-1.1-0.2
		c-0.3,0-0.6,0.1-0.8,0.2c-0.2,0.1-0.2,0.4-0.2,0.7v0.2h1.8v1.2h-1.8v4.1H470.8L470.8,208.5z M477.9,208.5v-4.1h-2.1v-1.2h3.7v5.3
		H477.9z M478.1,202.4c-0.3,0-0.6-0.1-0.8-0.2c-0.2-0.2-0.3-0.4-0.3-0.7s0.1-0.5,0.3-0.7s0.5-0.3,0.8-0.3s0.5,0.1,0.7,0.3
		s0.3,0.4,0.3,0.7s-0.1,0.5-0.3,0.7C478.7,202.3,478.4,202.4,478.1,202.4z M485,208.7c-0.4,0-0.8-0.1-1.2-0.2
		c-0.4-0.1-0.7-0.3-0.9-0.5c-0.3-0.2-0.5-0.5-0.6-0.9c-0.1-0.3-0.2-0.7-0.2-1.2s0.1-0.8,0.2-1.2c0.2-0.4,0.4-0.6,0.7-0.9
		c0.3-0.2,0.6-0.4,1-0.5s0.8-0.2,1.2-0.2s0.8,0.1,1.1,0.2c0.3,0.1,0.6,0.3,0.8,0.5l-0.7,1c-0.4-0.3-0.8-0.4-1.2-0.4
		c-0.5,0-0.8,0.1-1.1,0.4c-0.3,0.3-0.4,0.6-0.4,1.1s0.1,0.8,0.4,1.1s0.6,0.4,1.1,0.4c0.3,0,0.5,0,0.8-0.1c0.2-0.1,0.4-0.2,0.6-0.4
		l0.6,1c-0.3,0.3-0.7,0.5-1.1,0.6C485.7,208.6,485.3,208.7,485,208.7z"/>
	<path class="st1" d="M440.6,221.5v-7h2.5c0.4,0,0.7,0,1,0.1s0.6,0.2,0.9,0.4c0.2,0.2,0.4,0.4,0.6,0.7c0.1,0.3,0.2,0.6,0.2,1.1
		c0,0.4-0.1,0.7-0.2,1s-0.3,0.6-0.6,0.8c-0.2,0.2-0.5,0.3-0.9,0.4c-0.3,0.1-0.7,0.1-1,0.1h-0.9v2.4H440.6z M442.1,217.9h0.8
		c0.8,0,1.3-0.4,1.3-1.1c0-0.4-0.1-0.6-0.3-0.8s-0.5-0.2-0.9-0.2h-0.8L442.1,217.9L442.1,217.9z M447.4,221.5v-5.3h1.3l0.1,1.1l0,0
		c0.3-0.4,0.6-0.7,0.9-1c0.4-0.2,0.8-0.3,1.2-0.3c0.2,0,0.4,0,0.6,0s0.3,0.1,0.5,0.2l-0.3,1.3c-0.2-0.1-0.3-0.1-0.4-0.1
		s-0.3,0-0.5,0c-0.3,0-0.6,0.1-1,0.3c-0.3,0.2-0.6,0.5-0.8,1v2.8H447.4z M455.8,221.7c-0.4,0-0.7-0.1-1-0.2s-0.6-0.3-0.9-0.5
		c-0.2-0.2-0.5-0.5-0.6-0.9c-0.1-0.3-0.2-0.7-0.2-1.2s0.1-0.8,0.2-1.2c0.2-0.4,0.4-0.6,0.6-0.9c0.2-0.2,0.5-0.4,0.9-0.5
		c0.3-0.1,0.7-0.2,1-0.2s0.7,0.1,1,0.2c0.3,0.1,0.6,0.3,0.9,0.5s0.5,0.5,0.6,0.9c0.1,0.3,0.2,0.7,0.2,1.2s-0.1,0.8-0.2,1.2
		s-0.3,0.6-0.6,0.9c-0.2,0.2-0.5,0.4-0.9,0.5S456.1,221.7,455.8,221.7z M455.8,220.4c0.4,0,0.6-0.1,0.8-0.4c0.2-0.3,0.3-0.6,0.3-1.1
		s-0.1-0.8-0.3-1.1s-0.4-0.4-0.8-0.4s-0.6,0.1-0.8,0.4c-0.2,0.3-0.3,0.6-0.3,1.1s0.1,0.8,0.3,1.1
		C455.1,220.3,455.4,220.4,455.8,220.4z M461.7,221.7c-0.3,0-0.6-0.1-0.9-0.2c-0.3-0.1-0.5-0.3-0.7-0.5s-0.3-0.5-0.5-0.9
		c-0.1-0.3-0.2-0.7-0.2-1.2c0-0.4,0.1-0.8,0.2-1.2c0.1-0.3,0.3-0.6,0.5-0.9c0.2-0.2,0.4-0.4,0.7-0.5s0.6-0.2,0.8-0.2s0.5,0,0.8,0.1
		s0.4,0.2,0.6,0.4l0,0l-0.1-0.8V214h1.6v7.5h-1.2l-0.1-0.5l0,0c-0.2,0.2-0.4,0.4-0.7,0.5C462.2,221.6,462,221.7,461.7,221.7z
		 M462.1,220.4c0.2,0,0.3,0,0.5-0.1c0.1-0.1,0.3-0.2,0.4-0.4v-2.1c-0.1-0.1-0.3-0.2-0.4-0.3s-0.3-0.1-0.5-0.1
		c-0.3,0-0.5,0.1-0.8,0.4c-0.2,0.2-0.3,0.6-0.3,1.1s0.1,0.9,0.3,1.2C461.5,220.3,461.8,220.4,462.1,220.4z M467.7,221.7
		c-0.6,0-1-0.2-1.3-0.6c-0.3-0.4-0.4-0.9-0.4-1.6v-3.2h1.6v3c0,0.4,0.1,0.6,0.2,0.8s0.3,0.2,0.6,0.2c0.2,0,0.4,0,0.5-0.1
		c0.2-0.1,0.3-0.2,0.5-0.5v-3.5h1.6v5.3h-1.3l-0.1-0.8l0,0c-0.2,0.3-0.5,0.5-0.8,0.6C468.4,221.6,468.1,221.7,467.7,221.7z
		 M475.4,221.7c-0.4,0-0.8-0.1-1.2-0.2c-0.4-0.1-0.7-0.3-0.9-0.5c-0.3-0.2-0.5-0.5-0.6-0.9c-0.1-0.3-0.2-0.7-0.2-1.2
		s0.1-0.8,0.2-1.2c0.2-0.4,0.4-0.6,0.7-0.9c0.3-0.2,0.6-0.4,1-0.5s0.8-0.2,1.2-0.2s0.8,0.1,1.1,0.2c0.3,0.1,0.6,0.3,0.8,0.5l-0.7,1
		c-0.4-0.3-0.8-0.4-1.2-0.4c-0.5,0-0.8,0.1-1.1,0.4c-0.3,0.3-0.4,0.6-0.4,1.1s0.1,0.8,0.4,1.1s0.6,0.4,1.1,0.4c0.3,0,0.5,0,0.8-0.1
		c0.2-0.1,0.4-0.2,0.6-0.4l0.6,1c-0.3,0.3-0.7,0.5-1.1,0.6C476.1,221.6,475.8,221.7,475.4,221.7z M482.3,221.7
		c-0.4,0-0.8-0.1-1.1-0.2c-0.3-0.1-0.5-0.3-0.7-0.5s-0.3-0.5-0.4-0.7c-0.1-0.3-0.1-0.6-0.1-0.9v-1.9h-1.3v-1.2l1.4-0.1l0.2-1.6h1.3
		v1.6h2.2v1.2h-2.2v1.9c0,0.4,0.1,0.7,0.3,0.9s0.5,0.2,0.9,0.2c0.2,0,0.4,0,0.5,0c0.2,0,0.3-0.1,0.5-0.2l0.3,1.1
		c-0.2,0.1-0.5,0.1-0.8,0.2C482.9,221.6,482.6,221.7,482.3,221.7z"/>
	<path class="st3" d="M409.4,211.3h-25v-75.9h25.1"/>
	<path class="st9" d="M409.4,211.3h-25v-75.9h19.1"/>
	<path class="st11" d="M403.5,137.1l4.5-1.7l-4.5-1.7V137.1z"/>
	<path class="st3" d="M462.1,79.1v14.5h0.1v14.5"/>
	<path class="st9" d="M462.1,79.1v14.5h0.1v8.5"/>
	<path class="st11" d="M460.6,102.1l1.7,4.5l1.7-4.5H460.6z"/>
	<path class="st3" d="M462.1,162.7v15.8h0.1v15.8"/>
	<path class="st9" d="M462.1,162.7v15.8h0.1v9.8"/>
	<path class="st11" d="M460.6,188.4l1.7,4.5l1.7-4.5H460.6z"/>
	<path class="st3" d="M355.5,225.1v-107h51.1v107H355.5z"/>
	<path class="st12" d="M376.2,189c0,0.5-0.1,0.9-0.3,1.4c-0.2,0.4-0.4,0.8-0.8,1.1s-0.8,0.6-1.3,0.7c-0.5,0.2-1.1,0.3-1.7,0.3
		s-1.2-0.1-1.7-0.3s-0.9-0.4-1.3-0.7s-0.6-0.7-0.8-1.1s-0.3-0.9-0.3-1.4s0.1-0.9,0.3-1.3c0.2-0.4,0.4-0.7,0.7-0.9l0.8,0.7
		c-0.2,0.2-0.4,0.4-0.5,0.7c-0.1,0.2-0.2,0.5-0.2,0.9c0,0.3,0.1,0.7,0.2,1s0.3,0.5,0.6,0.8c0.3,0.2,0.6,0.4,1,0.5s0.8,0.2,1.2,0.2
		c0.5,0,0.9-0.1,1.3-0.2c0.4-0.1,0.7-0.3,1-0.5s0.5-0.5,0.6-0.7c0.1-0.3,0.2-0.6,0.2-1c0-0.3-0.1-0.7-0.2-0.9
		c-0.1-0.3-0.4-0.5-0.6-0.8l0.7-0.7c0.4,0.3,0.7,0.7,0.9,1.1C376.1,188,376.2,188.4,376.2,189z M376,184.9h-8.5v-1.2h2.3l1.3,0.1
		l0,0c-0.3-0.3-0.6-0.6-0.8-0.9c-0.2-0.3-0.3-0.7-0.3-1.2c0-0.7,0.2-1.2,0.6-1.5s1-0.5,1.8-0.5h3.6v1.2h-3.5c-0.5,0-0.9,0.1-1.1,0.3
		s-0.4,0.5-0.4,1c0,0.3,0.1,0.6,0.2,0.8c0.2,0.2,0.4,0.5,0.7,0.8h4L376,184.9L376,184.9L376,184.9z M376.2,175.9
		c0,0.3,0,0.5-0.1,0.8c-0.1,0.2-0.2,0.4-0.3,0.6c-0.2,0.2-0.3,0.3-0.5,0.4c-0.2,0.1-0.4,0.2-0.7,0.2s-0.6-0.1-0.9-0.2
		c-0.2-0.2-0.5-0.4-0.6-0.7c-0.2-0.3-0.3-0.8-0.4-1.3s-0.2-1.2-0.3-1.9c-0.4,0-0.7,0.1-0.9,0.3s-0.4,0.6-0.4,1.1
		c0,0.4,0.1,0.7,0.2,1.1c0.1,0.3,0.3,0.6,0.5,0.9l-0.8,0.4c-0.1-0.2-0.2-0.3-0.3-0.5s-0.2-0.4-0.3-0.6c-0.1-0.2-0.1-0.5-0.2-0.7
		s-0.1-0.5-0.1-0.8c0-0.8,0.2-1.4,0.7-1.8c0.4-0.4,1-0.6,1.8-0.6h3.5v1h-0.8l0,0c0.2,0.3,0.4,0.7,0.6,1.1
		C376.1,175.1,376.2,175.5,376.2,175.9z M375.3,175.6c0-0.3-0.1-0.6-0.2-0.9c-0.1-0.3-0.3-0.6-0.6-0.9h-1.4c0,0.6,0.1,1.1,0.2,1.4
		c0.1,0.4,0.2,0.7,0.3,0.9s0.2,0.4,0.4,0.5c0.1,0.1,0.3,0.1,0.5,0.1c0.3,0,0.5-0.1,0.6-0.3S375.3,175.9,375.3,175.6z M376,170.5
		h-5.9v-1l1-0.1l0,0c-0.3-0.3-0.6-0.6-0.8-1c-0.2-0.3-0.3-0.7-0.3-1.2c0-0.7,0.2-1.2,0.6-1.5s1-0.5,1.8-0.5h3.6v1.2h-3.5
		c-0.5,0-0.9,0.1-1.1,0.3s-0.4,0.5-0.4,1c0,0.3,0.1,0.6,0.2,0.8c0.2,0.2,0.4,0.5,0.7,0.8h4L376,170.5
		C375.9,170.5,376,170.5,376,170.5z M378.7,160.9c0,0.8-0.1,1.5-0.4,2s-0.7,0.7-1.2,0.7s-0.9-0.3-1.3-1l0,0
		c-0.1,0.2-0.2,0.3-0.4,0.4c-0.2,0.1-0.4,0.2-0.6,0.2s-0.4-0.1-0.6-0.2c-0.2-0.1-0.4-0.3-0.5-0.5l0,0c-0.1,0.2-0.3,0.4-0.6,0.5
		c-0.3,0.1-0.6,0.2-0.9,0.2s-0.6-0.1-0.9-0.2c-0.3-0.1-0.5-0.3-0.7-0.5s-0.3-0.5-0.4-0.8s-0.2-0.6-0.2-0.9s0-0.6,0.1-0.9v-2.3h0.9
		v1.4c0.1-0.1,0.3-0.2,0.5-0.3s0.4-0.1,0.6-0.1c0.3,0,0.6,0.1,0.8,0.2c0.2,0.1,0.5,0.3,0.6,0.5c0.2,0.2,0.3,0.5,0.4,0.7
		c0.1,0.3,0.1,0.6,0.1,0.9c0,0.1,0,0.3,0,0.5s-0.1,0.3-0.1,0.5c0.2,0.3,0.4,0.4,0.6,0.4c0.4,0,0.6-0.4,0.6-1.2v-1.2
		c0-0.8,0.1-1.3,0.3-1.7s0.6-0.6,1.1-0.6c0.3,0,0.6,0.1,0.8,0.2c0.2,0.1,0.5,0.4,0.7,0.7s0.3,0.6,0.4,1
		C378.6,159.9,378.7,160.4,378.7,160.9z M373.4,160.9c0-0.3-0.1-0.6-0.3-0.9c-0.2-0.2-0.5-0.4-1-0.4c-0.4,0-0.7,0.1-0.9,0.4
		c-0.2,0.2-0.4,0.5-0.4,0.9c0,0.3,0.1,0.6,0.4,0.9c0.2,0.2,0.5,0.4,0.9,0.4s0.7-0.1,1-0.4C373.3,161.5,373.4,161.3,373.4,160.9z
		 M377.9,160.8c0-0.3,0-0.6-0.1-0.8c-0.1-0.3-0.1-0.5-0.2-0.6c-0.1-0.2-0.2-0.3-0.3-0.4c-0.1-0.1-0.3-0.2-0.4-0.2
		c-0.3,0-0.4,0.1-0.5,0.3s-0.1,0.5-0.1,0.9v1c0,0.2,0,0.4,0,0.5s0,0.3-0.1,0.4c0.1,0.2,0.3,0.4,0.4,0.5c0.2,0.1,0.3,0.1,0.5,0.1
		c0.3,0,0.5-0.2,0.7-0.5S377.9,161.4,377.9,160.8z M376.2,153.2c0,0.4-0.1,0.9-0.2,1.2c-0.1,0.4-0.3,0.7-0.6,1s-0.6,0.5-1,0.7
		s-0.8,0.2-1.3,0.2s-0.9-0.1-1.3-0.2c-0.4-0.2-0.7-0.4-1-0.7s-0.5-0.6-0.6-1s-0.2-0.7-0.2-1.1c0-0.4,0.1-0.8,0.2-1.1
		s0.3-0.6,0.6-0.9c0.2-0.2,0.5-0.4,0.9-0.5c0.3-0.1,0.7-0.2,1.1-0.2c0.1,0,0.2,0,0.4,0c0.1,0,0.2,0,0.3,0v4.5
		c0.6-0.1,1.1-0.3,1.4-0.7s0.4-0.9,0.4-1.5c0-0.3,0-0.6-0.1-0.9s-0.2-0.5-0.4-0.8l0.8-0.4c0.2,0.3,0.4,0.6,0.5,1
		C376.1,152.4,376.2,152.8,376.2,153.2z M371,153.4c0,0.2,0,0.4,0.1,0.6s0.2,0.4,0.3,0.5c0.1,0.2,0.3,0.3,0.5,0.4
		c0.2,0.1,0.4,0.2,0.7,0.2v-3.4c-0.5,0-0.9,0.2-1.2,0.5C371.1,152.6,371,152.9,371,153.4z"/>
	<path class="st12" d="M398.2,189.6c0,0.6-0.1,1.1-0.3,1.6s-0.5,0.9-0.9,1.3l-0.8-0.7c0.3-0.3,0.5-0.6,0.7-1s0.2-0.8,0.2-1.2
		c0-0.5-0.1-0.9-0.3-1.2s-0.5-0.4-0.8-0.4c-0.2,0-0.4,0-0.5,0.1s-0.2,0.2-0.3,0.3s-0.2,0.3-0.3,0.4c-0.1,0.2-0.2,0.3-0.2,0.5
		l-0.5,1.1c-0.1,0.2-0.2,0.4-0.3,0.6c-0.1,0.2-0.3,0.4-0.4,0.5s-0.4,0.3-0.6,0.4c-0.2,0.1-0.5,0.2-0.8,0.2s-0.6-0.1-0.8-0.2
		c-0.3-0.1-0.5-0.3-0.7-0.5s-0.3-0.5-0.5-0.8c-0.1-0.3-0.2-0.7-0.2-1.1c0-0.5,0.1-0.9,0.3-1.4c0.2-0.4,0.4-0.8,0.7-1.1l0.8,0.6
		c-0.2,0.3-0.4,0.5-0.5,0.8s-0.2,0.7-0.2,1.1c0,0.4,0.1,0.8,0.3,1s0.4,0.4,0.8,0.4c0.2,0,0.3,0,0.4-0.1s0.2-0.2,0.3-0.3
		s0.2-0.3,0.2-0.4c0.1-0.2,0.1-0.3,0.2-0.5l0.5-1.1c0.1-0.2,0.2-0.5,0.3-0.7s0.3-0.4,0.4-0.5s0.4-0.3,0.6-0.4
		c0.2-0.1,0.5-0.1,0.8-0.1s0.6,0.1,0.9,0.2s0.5,0.3,0.7,0.6s0.4,0.6,0.5,0.9C398.1,188.7,398.2,189.1,398.2,189.6z M398.2,182
		c0,0.4-0.1,0.9-0.2,1.2c-0.1,0.4-0.3,0.7-0.6,1s-0.6,0.5-1,0.7s-0.8,0.2-1.3,0.2s-0.9-0.1-1.3-0.2c-0.4-0.2-0.7-0.4-1-0.7
		s-0.5-0.6-0.6-1s-0.2-0.7-0.2-1.1c0-0.4,0.1-0.8,0.2-1.1s0.3-0.6,0.6-0.9c0.2-0.2,0.5-0.4,0.9-0.5c0.3-0.1,0.7-0.2,1.1-0.2
		c0.1,0,0.2,0,0.4,0c0.1,0,0.2,0,0.3,0v4.5c0.6-0.1,1.1-0.3,1.4-0.7s0.4-0.9,0.4-1.5c0-0.3,0-0.6-0.1-0.9c-0.1-0.3-0.2-0.5-0.4-0.8
		l0.8-0.4c0.2,0.3,0.4,0.6,0.5,1C398.1,181.2,398.2,181.6,398.2,182z M393,182.2c0,0.2,0,0.4,0.1,0.6c0.1,0.2,0.2,0.4,0.3,0.5
		c0.1,0.2,0.3,0.3,0.5,0.4c0.2,0.1,0.4,0.2,0.7,0.2v-3.3c-0.5,0-0.9,0.2-1.2,0.5S393,181.7,393,182.2z M398.2,175.9
		c0,0.3,0,0.5-0.1,0.8c-0.1,0.2-0.2,0.4-0.3,0.6c-0.2,0.2-0.3,0.3-0.5,0.4c-0.2,0.1-0.4,0.2-0.7,0.2s-0.6-0.1-0.9-0.2
		c-0.2-0.2-0.5-0.4-0.6-0.7c-0.2-0.3-0.3-0.8-0.4-1.3s-0.2-1.2-0.3-1.9c-0.4,0-0.7,0.1-0.9,0.3s-0.4,0.6-0.4,1.1
		c0,0.4,0.1,0.7,0.2,1.1c0.1,0.3,0.3,0.6,0.5,0.9l-0.8,0.4c-0.1-0.2-0.2-0.3-0.3-0.5s-0.2-0.4-0.3-0.6c-0.1-0.2-0.1-0.5-0.2-0.7
		s-0.1-0.5-0.1-0.8c0-0.8,0.2-1.4,0.7-1.8c0.4-0.4,1-0.6,1.8-0.6h3.5v1h-0.8l0,0c0.2,0.3,0.4,0.7,0.6,1.1
		C398.1,175.1,398.2,175.5,398.2,175.9z M397.3,175.6c0-0.3-0.1-0.6-0.2-0.9c-0.1-0.3-0.3-0.6-0.6-0.9h-1.4c0,0.6,0.1,1.1,0.2,1.4
		c0.1,0.4,0.2,0.7,0.3,0.9s0.2,0.4,0.4,0.5c0.1,0.1,0.3,0.1,0.5,0.1c0.3,0,0.5-0.1,0.6-0.3S397.3,175.9,397.3,175.6z M398,169.9
		h-5.9v-1l1.4-0.1l0,0c-0.5-0.3-0.8-0.7-1.1-1.1c-0.3-0.4-0.4-0.9-0.4-1.5c0-0.2,0-0.4,0.1-0.6c0-0.2,0.1-0.4,0.2-0.5l1,0.3
		c-0.1,0.2-0.1,0.4-0.1,0.5s0,0.3,0,0.6c0,0.4,0.1,0.8,0.4,1.2c0.2,0.4,0.7,0.7,1.2,1.1h3.3v1.1H398z M398.2,160.3
		c0,0.5-0.1,0.9-0.2,1.3c-0.1,0.4-0.3,0.7-0.6,1s-0.6,0.5-1,0.7s-0.8,0.2-1.3,0.2s-0.9-0.1-1.3-0.3s-0.7-0.4-1-0.7s-0.5-0.7-0.6-1.1
		c-0.1-0.4-0.2-0.8-0.2-1.3s0.1-0.9,0.2-1.2c0.2-0.4,0.4-0.7,0.6-0.9l0.8,0.6c-0.2,0.2-0.3,0.5-0.4,0.7s-0.2,0.5-0.2,0.8
		s0.1,0.6,0.2,0.9s0.2,0.5,0.4,0.7s0.4,0.3,0.7,0.4c0.3,0.1,0.5,0.2,0.9,0.2s0.6,0,0.9-0.1c0.2-0.1,0.5-0.2,0.7-0.4s0.3-0.4,0.4-0.7
		s0.1-0.5,0.1-0.9s-0.1-0.7-0.2-1s-0.3-0.5-0.5-0.8l0.8-0.5c0.3,0.3,0.5,0.7,0.7,1.1C398.1,159.4,398.2,159.8,398.2,160.3z
		 M398,156.1h-8.5v-1.2h2.3l1.3,0.1l0,0c-0.3-0.3-0.6-0.6-0.8-0.9c-0.2-0.3-0.3-0.7-0.3-1.2c0-0.7,0.2-1.2,0.6-1.5s1-0.5,1.8-0.5
		h3.6v1.2h-3.5c-0.5,0-0.9,0.1-1.1,0.3s-0.4,0.5-0.4,1c0,0.3,0.1,0.6,0.2,0.8c0.2,0.2,0.4,0.5,0.7,0.8h4L398,156.1L398,156.1
		L398,156.1z"/>
	<path class="st8" d="M541.6,108.1h99.8l5.6,5.6v28.2l0,0h-99.8l-5.6-5.6V108.1z"/>
	<path class="st9" d="M541.6,108.1h99.8l5.6,5.6v28.2l0,0h-99.8l-5.6-5.6V108.1z"/>
	<path class="st1" d="M572.6,128.8v-7h2.5c0.4,0,0.7,0,1,0.1s0.6,0.2,0.9,0.4c0.2,0.2,0.4,0.4,0.6,0.7c0.1,0.3,0.2,0.6,0.2,1.1
		c0,0.4-0.1,0.7-0.2,1c-0.1,0.3-0.3,0.6-0.6,0.8c-0.2,0.2-0.5,0.3-0.9,0.4c-0.3,0.1-0.7,0.1-1,0.1h-0.9v2.4H572.6z M574.3,125.1h0.8
		c0.8,0,1.3-0.4,1.3-1.1c0-0.4-0.1-0.6-0.3-0.8s-0.5-0.2-0.9-0.2h-0.8L574.3,125.1L574.3,125.1z M579.6,128.8v-5.3h1.3l0.1,1.1l0,0
		c0.3-0.4,0.6-0.7,0.9-1c0.4-0.2,0.8-0.3,1.2-0.3c0.2,0,0.4,0,0.6,0c0.1,0,0.3,0.1,0.5,0.2l-0.3,1.3c-0.2-0.1-0.3-0.1-0.4-0.1
		c-0.1,0-0.3,0-0.5,0c-0.3,0-0.6,0.1-1,0.3c-0.3,0.2-0.6,0.5-0.8,1v2.8H579.6z M587.8,128.9c-0.4,0-0.7-0.1-1-0.2
		c-0.3-0.1-0.6-0.3-0.9-0.5c-0.2-0.2-0.5-0.5-0.6-0.9c-0.1-0.3-0.2-0.7-0.2-1.2s0.1-0.8,0.2-1.2c0.2-0.4,0.4-0.6,0.6-0.9
		c0.2-0.2,0.5-0.4,0.9-0.5c0.3-0.1,0.7-0.2,1-0.2s0.7,0.1,1,0.2s0.6,0.3,0.9,0.5c0.3,0.2,0.5,0.5,0.6,0.9c0.1,0.3,0.2,0.7,0.2,1.2
		s-0.1,0.8-0.2,1.2c-0.1,0.3-0.3,0.6-0.6,0.9c-0.2,0.2-0.5,0.4-0.9,0.5C588.6,128.8,588.3,128.9,587.8,128.9z M587.8,127.6
		c0.4,0,0.6-0.1,0.8-0.4s0.3-0.6,0.3-1.1s-0.1-0.8-0.3-1.1s-0.4-0.4-0.8-0.4c-0.4,0-0.6,0.1-0.8,0.4s-0.3,0.6-0.3,1.1
		s0.1,0.8,0.3,1.1C587.3,127.5,587.6,127.6,587.8,127.6z M593.8,128.9c-0.3,0-0.6-0.1-0.9-0.2c-0.3-0.1-0.5-0.3-0.7-0.5
		s-0.3-0.5-0.5-0.9c-0.1-0.3-0.2-0.7-0.2-1.2c0-0.4,0.1-0.8,0.2-1.2c0.1-0.3,0.3-0.6,0.5-0.9c0.2-0.2,0.4-0.4,0.7-0.5
		s0.6-0.2,0.8-0.2c0.3,0,0.5,0,0.8,0.1c0.2,0.1,0.4,0.2,0.6,0.4l0,0L595,123v-1.8h1.6v7.5h-1.3l-0.1-0.5l0,0
		c-0.2,0.2-0.4,0.4-0.7,0.5C594.3,128.8,594,128.9,593.8,128.9z M594.3,127.6c0.2,0,0.3,0,0.5-0.1c0.1-0.1,0.3-0.2,0.4-0.4V125
		c-0.1-0.1-0.3-0.2-0.4-0.3c-0.1-0.1-0.3-0.1-0.5-0.1c-0.3,0-0.5,0.1-0.8,0.4c-0.2,0.2-0.3,0.6-0.3,1.1s0.1,0.9,0.3,1.2
		C593.6,127.5,593.8,127.6,594.3,127.6z M599.8,128.9c-0.6,0-1-0.2-1.3-0.6c-0.3-0.4-0.4-0.9-0.4-1.6v-3.2h1.6v3
		c0,0.4,0.1,0.6,0.2,0.8c0.1,0.2,0.3,0.2,0.6,0.2c0.2,0,0.4,0,0.5-0.1c0.2-0.1,0.3-0.2,0.5-0.5v-3.5h1.6v5.3h-1.3l-0.1-0.8l0,0
		c-0.2,0.3-0.5,0.5-0.8,0.6C600.6,128.8,600.3,128.9,599.8,128.9z M607.6,128.9c-0.4,0-0.8-0.1-1.2-0.2c-0.4-0.1-0.7-0.3-0.9-0.5
		c-0.3-0.2-0.5-0.5-0.6-0.9c-0.1-0.3-0.2-0.7-0.2-1.2c0-0.4,0.1-0.8,0.2-1.2c0.2-0.4,0.4-0.6,0.7-0.9c0.3-0.2,0.6-0.4,1-0.5
		s0.8-0.2,1.2-0.2s0.8,0.1,1.1,0.2s0.6,0.3,0.8,0.5l-0.7,1c-0.4-0.3-0.8-0.4-1.2-0.4c-0.5,0-0.8,0.1-1.1,0.4s-0.4,0.6-0.4,1.1
		s0.1,0.8,0.4,1.1c0.3,0.3,0.6,0.4,1.1,0.4c0.3,0,0.5,0,0.8-0.1c0.2-0.1,0.4-0.2,0.6-0.4l0.6,1c-0.3,0.3-0.7,0.5-1.1,0.6
		C608.3,128.8,607.8,128.9,607.6,128.9z M614.3,128.9c-0.4,0-0.8-0.1-1.1-0.2c-0.3-0.1-0.5-0.3-0.7-0.5s-0.3-0.5-0.4-0.7
		c-0.1-0.3-0.1-0.6-0.1-0.9v-1.9h-1.2v-1.2l1.4-0.1l0.2-1.6h1.3v1.6h2.2v1.2h-2.2v1.9c0,0.4,0.1,0.7,0.3,0.9s0.5,0.2,0.9,0.2
		c0.2,0,0.4,0,0.5,0c0.2,0,0.3-0.1,0.5-0.2l0.3,1.1c-0.2,0.1-0.5,0.1-0.8,0.2C615,128.9,614.8,128.9,614.3,128.9z"/>
	<path class="st8" d="M531.8,322.5h118.7l6.2,6.2v31.2l0,0H538l-6.2-6.2V322.5z"/>
	<path class="st9" d="M531.8,322.5h118.7l6.2,6.2v31.2l0,0H538l-6.2-6.2V322.5z"/>
	<path class="st1" d="M550.3,345v-7h2.5c0.4,0,0.7,0,1,0.1s0.6,0.2,0.9,0.4c0.2,0.2,0.4,0.4,0.6,0.7c0.1,0.3,0.2,0.6,0.2,1.1
		c0,0.4-0.1,0.7-0.2,1c-0.1,0.3-0.3,0.6-0.6,0.8c-0.2,0.2-0.5,0.3-0.9,0.4c-0.3,0.1-0.7,0.1-1,0.1h-0.9v2.4H550.3z M551.8,341.4h0.8
		c0.8,0,1.3-0.4,1.3-1.1c0-0.4-0.1-0.6-0.3-0.8s-0.5-0.2-0.9-0.2h-0.8L551.8,341.4L551.8,341.4z M557.1,345v-5.3h1.3l0.1,1.1l0,0
		c0.3-0.4,0.6-0.7,0.9-1c0.4-0.2,0.8-0.3,1.2-0.3c0.2,0,0.4,0,0.6,0c0.1,0,0.3,0.1,0.5,0.2l-0.3,1.3c-0.2-0.1-0.3-0.1-0.4-0.1
		c-0.1,0-0.3,0-0.5,0c-0.3,0-0.6,0.1-1,0.3c-0.3,0.2-0.6,0.5-0.8,1v2.8H557.1z M565.6,345.1c-0.4,0-0.7-0.1-1-0.2s-0.6-0.3-0.9-0.5
		c-0.3-0.2-0.5-0.5-0.6-0.9c-0.1-0.3-0.2-0.7-0.2-1.2c0-0.4,0.1-0.8,0.2-1.2c0.2-0.4,0.4-0.6,0.6-0.9c0.2-0.2,0.5-0.4,0.9-0.5
		c0.3-0.1,0.7-0.2,1-0.2s0.7,0.1,1,0.2s0.6,0.3,0.9,0.5c0.3,0.2,0.5,0.5,0.6,0.9c0.1,0.3,0.2,0.7,0.2,1.2c0,0.4-0.1,0.8-0.2,1.2
		c-0.1,0.3-0.3,0.6-0.6,0.9c-0.3,0.2-0.5,0.4-0.9,0.5C566.1,345.1,565.8,345.1,565.6,345.1z M565.6,343.9c0.4,0,0.6-0.1,0.8-0.4
		s0.3-0.6,0.3-1.1s-0.1-0.8-0.3-1.1c-0.2-0.3-0.4-0.4-0.8-0.4c-0.4,0-0.6,0.1-0.8,0.4s-0.3,0.6-0.3,1.1s0.1,0.8,0.3,1.1
		C564.8,343.7,565.1,343.9,565.6,343.9z M571.4,345.1c-0.3,0-0.6-0.1-0.9-0.2c-0.3-0.1-0.5-0.3-0.7-0.5s-0.3-0.5-0.5-0.9
		c-0.1-0.3-0.2-0.7-0.2-1.2c0-0.4,0.1-0.8,0.2-1.2c0.1-0.3,0.3-0.6,0.5-0.9c0.2-0.2,0.4-0.4,0.7-0.5s0.6-0.2,0.8-0.2
		c0.3,0,0.5,0,0.8,0.1c0.2,0.1,0.4,0.2,0.6,0.4l0,0l-0.1-0.8v-1.8h1.6v7.5h-1.3l-0.1-0.5l0,0c-0.2,0.2-0.4,0.4-0.7,0.5
		C571.9,345.1,571.6,345.1,571.4,345.1z M571.8,343.8c0.2,0,0.3,0,0.5-0.1c0.1-0.1,0.3-0.2,0.4-0.4v-2.1c-0.1-0.1-0.3-0.2-0.4-0.3
		c-0.1-0.1-0.3-0.1-0.5-0.1c-0.3,0-0.5,0.1-0.8,0.4c-0.2,0.2-0.3,0.6-0.3,1.1s0.1,0.9,0.3,1.2C571.3,343.7,571.6,343.8,571.8,343.8z
		 M577.4,345.1c-0.6,0-1-0.2-1.3-0.6s-0.4-0.9-0.4-1.6v-3.2h1.6v3c0,0.4,0.1,0.6,0.2,0.8c0.1,0.2,0.3,0.2,0.6,0.2
		c0.2,0,0.4,0,0.5-0.1c0.2-0.1,0.3-0.2,0.5-0.5v-3.5h1.6v5.3h-1.4l-0.1-0.8l0,0c-0.2,0.3-0.5,0.5-0.8,0.6
		C578.1,345,577.8,345.1,577.4,345.1z M585.1,345.1c-0.4,0-0.8-0.1-1.2-0.2s-0.7-0.3-0.9-0.5c-0.3-0.2-0.5-0.5-0.6-0.9
		c-0.1-0.3-0.2-0.7-0.2-1.2c0-0.4,0.1-0.8,0.2-1.2c0.2-0.4,0.4-0.6,0.7-0.9c0.3-0.2,0.6-0.4,1-0.5s0.8-0.2,1.2-0.2s0.8,0.1,1.1,0.2
		s0.6,0.3,0.8,0.5l-0.7,1c-0.4-0.3-0.8-0.4-1.2-0.4c-0.5,0-0.8,0.1-1.1,0.4s-0.4,0.6-0.4,1.1s0.1,0.8,0.4,1.1
		c0.3,0.3,0.6,0.4,1.1,0.4c0.3,0,0.5,0,0.8-0.1c0.2-0.1,0.4-0.2,0.6-0.4l0.6,1c-0.3,0.3-0.7,0.5-1.1,0.6
		C585.8,345.1,585.6,345.1,585.1,345.1z M592,345.1c-0.4,0-0.8-0.1-1.1-0.2s-0.5-0.3-0.7-0.5s-0.3-0.5-0.4-0.7
		c-0.1-0.3-0.1-0.6-0.1-0.9v-1.9h-1.4v-1.2l1.4-0.1l0.2-1.6h1.3v1.6h2.2v1.2h-2.2v1.9c0,0.4,0.1,0.7,0.3,0.9
		c0.2,0.2,0.5,0.2,0.9,0.2c0.2,0,0.4,0,0.5,0c0.2,0,0.3-0.1,0.5-0.2l0.3,1.1c-0.2,0.1-0.5,0.1-0.8,0.2
		C592.6,345.1,592.3,345.1,592,345.1z M601.4,345v-7h1.9c0.5,0,1,0.1,1.4,0.2s0.8,0.3,1.1,0.6c0.3,0.3,0.5,0.6,0.7,1.1
		c0.2,0.4,0.2,0.9,0.2,1.5s-0.1,1.1-0.2,1.5c-0.1,0.4-0.4,0.8-0.7,1.1c-0.3,0.3-0.6,0.5-1,0.7c-0.4,0.1-0.8,0.2-1.3,0.2L601.4,345
		L601.4,345z M602.9,343.7h0.2c0.3,0,0.5,0,0.7-0.1s0.4-0.2,0.6-0.4c0.2-0.2,0.3-0.4,0.4-0.7c0.1-0.3,0.1-0.6,0.1-1s0-0.8-0.1-1
		c-0.1-0.3-0.2-0.5-0.4-0.7s-0.3-0.3-0.6-0.4c-0.2-0.1-0.5-0.1-0.7-0.1h-0.2V343.7z M610.6,345.1c-0.4,0-0.8-0.1-1.2-0.2
		s-0.7-0.3-0.9-0.5c-0.3-0.2-0.5-0.5-0.6-0.9c-0.1-0.3-0.2-0.7-0.2-1.2s0.1-0.8,0.2-1.2c0.2-0.3,0.4-0.6,0.6-0.9
		c0.3-0.2,0.6-0.4,0.9-0.5c0.3-0.1,0.7-0.2,1-0.2c0.4,0,0.8,0.1,1.1,0.2s0.6,0.3,0.8,0.5s0.4,0.5,0.5,0.8s0.2,0.6,0.2,1
		c0,0.1,0,0.3,0,0.4s0,0.2,0,0.3h-3.6c0.1,0.4,0.2,0.7,0.5,0.8c0.3,0.2,0.6,0.3,1.1,0.3c0.2,0,0.5,0,0.7-0.1s0.4-0.2,0.7-0.3l0.5,1
		c-0.3,0.2-0.6,0.3-1,0.5C611.3,345.1,610.9,345.1,610.6,345.1z M610.4,340.8c-0.3,0-0.6,0.1-0.8,0.2c-0.2,0.2-0.4,0.4-0.4,0.7h2.3
		C611.4,341.1,611,340.8,610.4,340.8z M617.6,345.1c-0.4,0-0.8-0.1-1.1-0.2s-0.5-0.3-0.7-0.5s-0.3-0.5-0.4-0.7
		c-0.1-0.3-0.1-0.6-0.1-0.9v-1.9H614v-1.2l1.4-0.1l0.2-1.6h1.3v1.6h2.2v1.2h-2.2v1.9c0,0.4,0.1,0.7,0.3,0.9c0.2,0.2,0.5,0.2,0.9,0.2
		c0.2,0,0.4,0,0.5,0c0.2,0,0.3-0.1,0.5-0.2l0.3,1.1c-0.2,0.1-0.5,0.1-0.8,0.2C618.3,345.1,617.9,345.1,617.6,345.1z M622.3,345.1
		c-0.3,0-0.5,0-0.7-0.1s-0.4-0.2-0.5-0.3s-0.3-0.3-0.3-0.5c-0.1-0.2-0.1-0.4-0.1-0.6c0-0.3,0.1-0.6,0.2-0.8c0.1-0.2,0.3-0.4,0.6-0.6
		s0.6-0.3,1.1-0.4c0.4-0.1,1-0.2,1.6-0.2c0-0.2-0.1-0.4-0.3-0.6c-0.2-0.1-0.4-0.2-0.8-0.2c-0.2,0-0.5,0-0.8,0.1s-0.5,0.2-0.8,0.4
		l-0.5-1c0.4-0.2,0.8-0.4,1.2-0.5s0.9-0.2,1.3-0.2c0.7,0,1.3,0.2,1.8,0.6c0.4,0.4,0.6,1,0.6,1.8v3h-1.3l-0.1-0.6l0,0
		c-0.3,0.2-0.6,0.4-0.9,0.5C622.9,345.1,622.6,345.1,622.3,345.1z M622.8,343.9c0.2,0,0.4,0,0.7-0.1s0.4-0.2,0.6-0.4v-0.9
		c-0.4,0-0.7,0.1-1,0.1c-0.2,0-0.5,0.1-0.6,0.2s-0.2,0.2-0.3,0.3s-0.1,0.2-0.1,0.3c0,0.2,0.1,0.3,0.2,0.4
		C622.3,343.9,622.6,343.9,622.8,343.9z M629.3,345v-4.1h-2.1v-1.2h3.7v5.3L629.3,345L629.3,345z M629.4,338.9
		c-0.3,0-0.6-0.1-0.8-0.2c-0.2-0.2-0.3-0.4-0.3-0.7c0-0.3,0.1-0.5,0.3-0.7s0.5-0.3,0.8-0.3s0.5,0.1,0.7,0.3s0.3,0.4,0.3,0.7
		c0,0.3-0.1,0.5-0.3,0.7C629.9,338.8,629.8,338.9,629.4,338.9z M636.8,345.1c-0.7,0-1.2-0.2-1.5-0.6s-0.5-0.9-0.5-1.6v-4.2h-1.7
		v-1.2h3.2v5.5c0,0.2,0,0.3,0.1,0.4s0.1,0.2,0.2,0.3c0.1,0.1,0.2,0.1,0.3,0.1s0.2,0,0.3,0s0.2,0,0.4,0c0.1,0,0.3-0.1,0.5-0.1
		l0.3,1.2c-0.1,0-0.3,0.1-0.4,0.1c-0.1,0-0.2,0.1-0.4,0.1c-0.1,0-0.2,0-0.4,0C637.1,345.1,637,345.1,636.8,345.1z"/>
	<path class="st8" d="M531.8,391.5h118.7l6.2,6.2v31.2l0,0H538l-6.2-6.2V391.5z"/>
	<path class="st9" d="M531.8,391.5h118.7l6.2,6.2v31.2l0,0H538l-6.2-6.2V391.5z"/>
	<path class="st1" d="M575.6,407.6c-0.4,0-0.8-0.1-1.2-0.2c-0.4-0.2-0.7-0.4-1-0.7s-0.5-0.7-0.7-1.1s-0.2-1-0.2-1.5
		c0-0.6,0.1-1.1,0.2-1.5c0.2-0.4,0.4-0.8,0.7-1.1s0.7-0.6,1.1-0.7c0.4-0.1,0.8-0.2,1.3-0.2c0.4,0,0.8,0.1,1.2,0.3s0.7,0.4,0.9,0.6
		l-0.9,1c-0.2-0.2-0.3-0.3-0.5-0.4s-0.4-0.1-0.7-0.1s-0.5,0.1-0.7,0.2s-0.4,0.2-0.5,0.4c-0.1,0.2-0.3,0.4-0.4,0.7
		c-0.1,0.3-0.1,0.6-0.1,0.9c0,0.7,0.2,1.3,0.5,1.7s0.8,0.6,1.3,0.6c0.2,0,0.5-0.1,0.7-0.2s0.4-0.3,0.6-0.5l0.9,1
		C577.3,407.3,576.6,407.6,575.6,407.6z M581.4,407.6c-0.4,0-0.7-0.1-1-0.2s-0.6-0.3-0.9-0.5c-0.2-0.2-0.5-0.5-0.6-0.9
		c-0.1-0.3-0.2-0.7-0.2-1.2s0.1-0.8,0.2-1.2c0.2-0.4,0.4-0.6,0.6-0.9c0.2-0.2,0.5-0.4,0.9-0.5c0.3-0.1,0.7-0.2,1-0.2s0.7,0.1,1,0.2
		s0.6,0.3,0.9,0.5c0.3,0.2,0.5,0.5,0.6,0.9c0.1,0.3,0.2,0.7,0.2,1.2s-0.1,0.8-0.2,1.2s-0.3,0.6-0.6,0.9c-0.2,0.2-0.5,0.4-0.9,0.5
		S581.8,407.6,581.4,407.6z M581.4,406.4c0.4,0,0.6-0.1,0.8-0.4s0.3-0.6,0.3-1.1s-0.1-0.8-0.3-1.1c-0.2-0.3-0.4-0.4-0.8-0.4
		c-0.4,0-0.6,0.1-0.8,0.4s-0.3,0.6-0.3,1.1s0.1,0.8,0.3,1.1C580.8,406.2,581.1,406.4,581.4,406.4z M585.4,407.5v-5.3h1.3l0.1,0.7
		l0,0c0.2-0.2,0.5-0.4,0.8-0.6s0.7-0.2,1-0.2c0.6,0,1,0.2,1.3,0.6s0.4,0.9,0.4,1.6v3.3h-1.6v-3.1c0-0.4-0.1-0.6-0.2-0.8
		c-0.1-0.2-0.3-0.2-0.6-0.2c-0.2,0-0.4,0-0.6,0.1c-0.2,0.1-0.3,0.2-0.5,0.4v3.5H585.4z M595.3,407.6c-0.4,0-0.8-0.1-1.1-0.2
		s-0.5-0.3-0.7-0.5s-0.3-0.5-0.4-0.7c-0.1-0.3-0.1-0.6-0.1-0.9v-1.9h-1.3v-1.2l1.4-0.1l0.2-1.6h1.3v1.6h2.2v1.2h-2.2v1.9
		c0,0.4,0.1,0.7,0.3,0.9c0.2,0.2,0.5,0.2,0.9,0.2c0.2,0,0.4,0,0.5,0c0.2,0,0.3-0.1,0.5-0.2l0.3,1.1c-0.2,0.1-0.5,0.1-0.8,0.2
		C595.8,407.6,595.6,407.6,595.3,407.6z M599.8,407.6c-0.3,0-0.5,0-0.7-0.1s-0.4-0.2-0.5-0.3s-0.3-0.3-0.3-0.5
		c-0.1-0.2-0.1-0.4-0.1-0.6c0-0.3,0.1-0.6,0.2-0.8c0.1-0.2,0.3-0.4,0.6-0.6s0.6-0.3,1.1-0.4c0.4-0.1,1-0.2,1.6-0.2
		c0-0.2-0.1-0.4-0.3-0.6c-0.2-0.1-0.4-0.2-0.8-0.2c-0.2,0-0.5,0-0.8,0.1s-0.5,0.2-0.8,0.4l-0.5-1c0.4-0.2,0.8-0.4,1.2-0.5
		s0.9-0.2,1.3-0.2c0.7,0,1.3,0.2,1.8,0.6c0.4,0.4,0.6,1,0.6,1.8v3h-1.3l-0.1-0.6l0,0c-0.3,0.2-0.6,0.4-0.9,0.5
		C600.6,407.6,600.1,407.6,599.8,407.6z M600.3,406.4c0.2,0,0.4,0,0.7-0.1c0.2-0.1,0.4-0.2,0.6-0.4V405c-0.4,0-0.7,0.1-1,0.1
		c-0.2,0-0.5,0.1-0.6,0.2s-0.2,0.2-0.3,0.3s-0.1,0.2-0.1,0.3c0,0.2,0.1,0.3,0.2,0.4C599.9,406.4,600.1,406.4,600.3,406.4z
		 M607.6,407.6c-0.4,0-0.8-0.1-1.2-0.2s-0.7-0.3-0.9-0.5c-0.3-0.2-0.5-0.5-0.6-0.9c-0.1-0.3-0.2-0.7-0.2-1.2s0.1-0.8,0.2-1.2
		c0.2-0.4,0.4-0.6,0.7-0.9c0.3-0.2,0.6-0.4,1-0.5s0.8-0.2,1.2-0.2s0.8,0.1,1.1,0.2s0.6,0.3,0.8,0.5l-0.7,1c-0.4-0.3-0.8-0.4-1.2-0.4
		c-0.5,0-0.8,0.1-1.1,0.4s-0.4,0.6-0.4,1.1s0.1,0.8,0.4,1.1c0.3,0.3,0.6,0.4,1.1,0.4c0.3,0,0.5,0,0.8-0.1c0.2-0.1,0.4-0.2,0.6-0.4
		l0.6,1c-0.3,0.3-0.7,0.5-1.1,0.6C608.3,407.6,607.8,407.6,607.6,407.6z M614.3,407.6c-0.4,0-0.8-0.1-1.1-0.2s-0.5-0.3-0.7-0.5
		s-0.3-0.5-0.4-0.7c-0.1-0.3-0.1-0.6-0.1-0.9v-1.9h-1.2v-1.2l1.4-0.1l0.2-1.6h1.3v1.6h2.2v1.2h-2.2v1.9c0,0.4,0.1,0.7,0.3,0.9
		c0.2,0.2,0.5,0.2,0.9,0.2c0.2,0,0.4,0,0.5,0c0.2,0,0.3-0.1,0.5-0.2l0.3,1.1c-0.2,0.1-0.5,0.1-0.8,0.2
		C615,407.6,614.8,407.6,614.3,407.6z"/>
	<path class="st1" d="M571.8,420.6c-0.5,0-0.9-0.1-1.4-0.2c-0.5-0.2-0.9-0.4-1.2-0.8l0.9-1.1c0.3,0.2,0.5,0.4,0.9,0.5
		c0.3,0.1,0.6,0.2,1,0.2c0.3,0,0.6-0.1,0.8-0.2s0.2-0.3,0.2-0.4s0-0.2-0.1-0.3c-0.1-0.1-0.1-0.2-0.2-0.2c-0.1-0.1-0.2-0.1-0.3-0.2
		s-0.3-0.1-0.5-0.2l-0.9-0.4c-0.2-0.1-0.4-0.2-0.6-0.3c-0.2-0.1-0.3-0.2-0.5-0.4c-0.1-0.2-0.2-0.3-0.3-0.5s-0.1-0.4-0.1-0.7
		s0.1-0.5,0.2-0.8c0.1-0.2,0.3-0.5,0.5-0.7s0.5-0.3,0.8-0.4s0.7-0.2,1-0.2c0.4,0,0.8,0.1,1.2,0.2c0.4,0.2,0.8,0.4,1.1,0.7l-0.8,1
		c-0.2-0.2-0.5-0.3-0.7-0.4s-0.5-0.1-0.9-0.1c-0.3,0-0.5,0.1-0.6,0.2c-0.2,0.1-0.2,0.3-0.2,0.5s0.1,0.4,0.3,0.5s0.5,0.2,0.8,0.3
		l0.8,0.4c0.5,0.2,0.8,0.4,1.1,0.7c0.3,0.3,0.4,0.7,0.4,1.2c0,0.3-0.1,0.6-0.2,0.8c-0.1,0.3-0.3,0.5-0.5,0.7s-0.5,0.4-0.8,0.5
		C572.6,420.6,572.3,420.6,571.8,420.6z M578.3,420.6c-0.4,0-0.7-0.1-1-0.2s-0.6-0.3-0.9-0.5c-0.3-0.2-0.5-0.5-0.6-0.9
		c-0.1-0.3-0.2-0.7-0.2-1.2c0-0.4,0.1-0.8,0.2-1.2c0.2-0.4,0.4-0.6,0.6-0.9c0.2-0.2,0.5-0.4,0.9-0.5c0.3-0.1,0.7-0.2,1-0.2
		s0.7,0.1,1,0.2s0.6,0.3,0.9,0.5c0.3,0.2,0.5,0.5,0.6,0.9c0.1,0.3,0.2,0.7,0.2,1.2c0,0.4-0.1,0.8-0.2,1.2c-0.1,0.3-0.3,0.6-0.6,0.9
		c-0.3,0.2-0.5,0.4-0.9,0.5C578.9,420.6,578.6,420.6,578.3,420.6z M578.3,419.4c0.4,0,0.6-0.1,0.8-0.4s0.3-0.6,0.3-1.1
		s-0.1-0.8-0.3-1.1c-0.2-0.3-0.4-0.4-0.8-0.4c-0.4,0-0.6,0.1-0.8,0.4s-0.3,0.6-0.3,1.1s0.1,0.8,0.3,1.1
		C577.6,419.2,577.9,419.4,578.3,419.4z M584.6,420.6c-0.4,0-0.7-0.1-1-0.2s-0.6-0.3-0.9-0.5c-0.2-0.2-0.5-0.5-0.6-0.9
		c-0.1-0.3-0.2-0.7-0.2-1.2c0-0.4,0.1-0.8,0.2-1.2c0.2-0.4,0.4-0.6,0.6-0.9c0.3-0.2,0.5-0.4,0.9-0.5c0.3-0.1,0.7-0.2,1-0.2
		s0.7,0.1,1,0.2s0.6,0.3,0.9,0.5c0.3,0.2,0.5,0.5,0.6,0.9c0.1,0.3,0.2,0.7,0.2,1.2c0,0.4-0.1,0.8-0.2,1.2c-0.1,0.3-0.3,0.6-0.6,0.9
		c-0.2,0.2-0.5,0.4-0.9,0.5C585.3,420.6,585,420.6,584.6,420.6z M584.6,419.4c0.4,0,0.6-0.1,0.8-0.4s0.3-0.6,0.3-1.1
		s-0.1-0.8-0.3-1.1c-0.2-0.3-0.4-0.4-0.8-0.4c-0.4,0-0.6,0.1-0.8,0.4s-0.3,0.6-0.3,1.1s0.1,0.8,0.3,1.1
		C584,419.2,584.3,419.4,584.6,419.4z M588.6,420.5v-5.3h1.3l0.1,0.7l0,0c0.2-0.2,0.5-0.4,0.8-0.6s0.7-0.2,1-0.2
		c0.6,0,1,0.2,1.3,0.6s0.4,0.9,0.4,1.6v3.3h-1.6v-3.1c0-0.4-0.1-0.6-0.2-0.8c-0.1-0.2-0.3-0.2-0.6-0.2c-0.2,0-0.4,0-0.6,0.1
		c-0.2,0.1-0.3,0.2-0.5,0.4v3.5H588.6z M595,422.5v-7.2h1.3l0.1,0.5l0,0c0.2-0.2,0.5-0.4,0.7-0.5c0.3-0.1,0.6-0.2,0.8-0.2
		c0.3,0,0.6,0.1,0.9,0.2c0.3,0.1,0.5,0.3,0.7,0.5s0.3,0.5,0.4,0.8s0.1,0.7,0.1,1.1c0,0.5-0.1,0.9-0.2,1.2c-0.1,0.3-0.3,0.7-0.5,0.9
		c-0.2,0.2-0.5,0.4-0.7,0.5c-0.3,0.1-0.6,0.2-0.8,0.2c-0.5,0-0.9-0.2-1.3-0.6l0,0l0.1,0.9v1.5H595V422.5z M597.6,419.3
		c0.3,0,0.6-0.1,0.8-0.4c0.2-0.2,0.3-0.6,0.3-1.2c0-1-0.3-1.4-1-1.4c-0.3,0-0.7,0.2-1,0.5v2.1c0.2,0.1,0.3,0.2,0.5,0.3
		S597.3,419.3,597.6,419.3z M603.8,420.6c-0.4,0-0.7-0.1-1-0.2s-0.6-0.3-0.9-0.5c-0.2-0.2-0.5-0.5-0.6-0.9c-0.1-0.3-0.2-0.7-0.2-1.2
		s0.1-0.8,0.2-1.2c0.2-0.4,0.4-0.6,0.6-0.9c0.2-0.2,0.5-0.4,0.9-0.5c0.3-0.1,0.7-0.2,1-0.2s0.7,0.1,1,0.2s0.6,0.3,0.9,0.5
		c0.3,0.2,0.5,0.5,0.6,0.9c0.1,0.3,0.2,0.7,0.2,1.2s-0.1,0.8-0.2,1.2c-0.1,0.3-0.3,0.6-0.6,0.9c-0.2,0.2-0.5,0.4-0.9,0.5
		C604.6,420.6,604.3,420.6,603.8,420.6z M603.8,419.4c0.4,0,0.6-0.1,0.8-0.4s0.3-0.6,0.3-1.1s-0.1-0.8-0.3-1.1
		c-0.2-0.3-0.4-0.4-0.8-0.4c-0.4,0-0.6,0.1-0.8,0.4s-0.3,0.6-0.3,1.1s0.1,0.8,0.3,1.1C603.3,419.2,603.6,419.4,603.8,419.4z
		 M608.3,420.5v-5.3h1.3l0.1,1.1l0,0c0.3-0.4,0.6-0.7,0.9-1c0.4-0.2,0.8-0.3,1.2-0.3c0.2,0,0.4,0,0.6,0c0.1,0,0.3,0.1,0.5,0.2
		l-0.3,1.3c-0.2-0.1-0.3-0.1-0.4-0.1c-0.1,0-0.3,0-0.5,0c-0.3,0-0.6,0.1-1,0.3c-0.3,0.2-0.6,0.5-0.8,1v2.8H608.3z M617.6,420.6
		c-0.4,0-0.8-0.1-1.1-0.2s-0.5-0.3-0.7-0.5s-0.3-0.5-0.4-0.7c-0.1-0.3-0.1-0.6-0.1-0.9v-1.9H614v-1.2l1.4-0.1l0.2-1.6h1.3v1.6h2.2
		v1.2h-2.2v1.9c0,0.4,0.1,0.7,0.3,0.9c0.2,0.2,0.5,0.2,0.9,0.2c0.2,0,0.4,0,0.5,0c0.2,0,0.3-0.1,0.5-0.2l0.3,1.1
		c-0.2,0.1-0.5,0.1-0.8,0.2C618.3,420.6,617.9,420.6,617.6,420.6z"/>
	<path class="st10" d="M541.6,184H638l9.1,9.1v45.5l0,0h-96.4l-9.1-9.1V184z"/>
	<path class="st9" d="M541.6,184H638l9.1,9.1v45.5l0,0h-96.4l-9.1-9.1V184z"/>
	<path class="st1" d="M578.3,208.7c-0.5,0-0.9-0.1-1.4-0.2c-0.5-0.2-0.9-0.4-1.2-0.8l0.9-1.1c0.3,0.2,0.5,0.4,0.9,0.5
		c0.3,0.1,0.6,0.2,1,0.2c0.3,0,0.6-0.1,0.8-0.2c0.2-0.1,0.2-0.3,0.2-0.4c0-0.1,0-0.2-0.1-0.3s-0.1-0.2-0.2-0.2
		c-0.1-0.1-0.2-0.1-0.3-0.2c-0.1-0.1-0.3-0.1-0.5-0.2l-0.9-0.4c-0.2-0.1-0.4-0.2-0.6-0.3c-0.2-0.1-0.3-0.2-0.5-0.4
		c-0.1-0.2-0.2-0.3-0.3-0.5s-0.1-0.4-0.1-0.7s0.1-0.5,0.2-0.8c0.1-0.2,0.3-0.5,0.5-0.7s0.5-0.3,0.8-0.4c0.3-0.1,0.7-0.2,1-0.2
		c0.4,0,0.8,0.1,1.2,0.2c0.4,0.2,0.8,0.4,1.1,0.7l-0.8,1c-0.3-0.2-0.5-0.3-0.7-0.4c-0.2-0.1-0.5-0.1-0.9-0.1c-0.3,0-0.5,0.1-0.6,0.2
		c-0.2,0.1-0.2,0.3-0.2,0.5s0.1,0.4,0.3,0.5s0.5,0.2,0.8,0.3l0.8,0.4c0.5,0.2,0.8,0.4,1.1,0.7s0.4,0.7,0.4,1.2
		c0,0.3-0.1,0.6-0.2,0.8c-0.1,0.3-0.3,0.5-0.5,0.7s-0.5,0.4-0.8,0.5C579,208.6,578.6,208.7,578.3,208.7z M584.9,208.7
		c-0.4,0-0.8-0.1-1.2-0.2c-0.4-0.1-0.7-0.3-0.9-0.5c-0.3-0.2-0.5-0.5-0.6-0.9c-0.1-0.3-0.2-0.7-0.2-1.2c0-0.4,0.1-0.8,0.2-1.2
		c0.2-0.3,0.4-0.6,0.6-0.9c0.3-0.2,0.6-0.4,0.9-0.5c0.3-0.1,0.7-0.2,1-0.2c0.4,0,0.8,0.1,1.1,0.2c0.3,0.1,0.6,0.3,0.8,0.5
		s0.4,0.5,0.5,0.8s0.2,0.6,0.2,1c0,0.1,0,0.3,0,0.4c0,0.1,0,0.2,0,0.3h-3.6c0.1,0.4,0.2,0.7,0.5,0.8c0.3,0.2,0.6,0.3,1.1,0.3
		c0.2,0,0.5,0,0.7-0.1s0.4-0.2,0.7-0.3l0.5,1c-0.3,0.2-0.6,0.3-1,0.5C585.8,208.6,585.3,208.7,584.9,208.7z M584.8,204.3
		c-0.3,0-0.6,0.1-0.8,0.2c-0.2,0.2-0.4,0.4-0.4,0.7h2.3C585.8,204.6,585.4,204.3,584.8,204.3z M590.3,208.7c-0.3,0-0.5,0-0.7-0.1
		s-0.4-0.2-0.5-0.3s-0.3-0.3-0.3-0.5c-0.1-0.2-0.1-0.4-0.1-0.6c0-0.3,0.1-0.6,0.2-0.8c0.1-0.2,0.3-0.4,0.6-0.6s0.6-0.3,1.1-0.4
		c0.4-0.1,1-0.2,1.6-0.2c0-0.2-0.1-0.4-0.3-0.6c-0.2-0.1-0.4-0.2-0.8-0.2c-0.2,0-0.5,0-0.8,0.1s-0.5,0.2-0.8,0.4l-0.5-1
		c0.4-0.2,0.8-0.4,1.2-0.5s0.9-0.2,1.3-0.2c0.7,0,1.3,0.2,1.8,0.6c0.4,0.4,0.6,1,0.6,1.8v3h-1.3l-0.1-0.6l0,0
		c-0.3,0.2-0.6,0.4-0.9,0.5C590.9,208.6,590.6,208.7,590.3,208.7z M590.8,207.4c0.2,0,0.4,0,0.7-0.1c0.2-0.1,0.4-0.2,0.6-0.4V206
		c-0.4,0-0.7,0.1-1,0.1c-0.2,0-0.5,0.1-0.6,0.2c-0.1,0.1-0.2,0.2-0.3,0.3s-0.1,0.2-0.1,0.3c0,0.2,0.1,0.3,0.2,0.4
		C590.3,207.4,590.6,207.4,590.8,207.4z M595.6,208.5v-5.3h1.3l0.1,1.1l0,0c0.3-0.4,0.6-0.7,0.9-1c0.4-0.2,0.8-0.3,1.2-0.3
		c0.2,0,0.4,0,0.6,0c0.1,0,0.3,0.1,0.5,0.2l-0.3,1.3c-0.2-0.1-0.3-0.1-0.4-0.1c-0.1,0-0.3,0-0.5,0c-0.3,0-0.6,0.1-1,0.3
		c-0.3,0.2-0.6,0.5-0.8,1v2.8H595.6z M604.3,208.7c-0.4,0-0.8-0.1-1.2-0.2c-0.4-0.1-0.7-0.3-0.9-0.5c-0.3-0.2-0.5-0.5-0.6-0.9
		c-0.1-0.3-0.2-0.7-0.2-1.2s0.1-0.8,0.2-1.2c0.2-0.4,0.4-0.6,0.7-0.9c0.3-0.2,0.6-0.4,1-0.5s0.8-0.2,1.2-0.2s0.8,0.1,1.1,0.2
		c0.3,0.1,0.6,0.3,0.8,0.5l-0.7,1c-0.4-0.3-0.8-0.4-1.2-0.4c-0.5,0-0.8,0.1-1.1,0.4c-0.3,0.3-0.4,0.6-0.4,1.1s0.1,0.8,0.4,1.1
		c0.3,0.3,0.6,0.4,1.1,0.4c0.3,0,0.5,0,0.8-0.1c0.2-0.1,0.4-0.2,0.6-0.4l0.6,1c-0.3,0.3-0.7,0.5-1.1,0.6
		C605,208.6,604.6,208.7,604.3,208.7z M607.8,208.5V201h1.6v1.8l-0.1,1l0,0c0.2-0.2,0.4-0.4,0.7-0.5c0.3-0.2,0.6-0.2,1-0.2
		c0.6,0,1,0.2,1.3,0.6c0.3,0.4,0.4,0.9,0.4,1.6v3.3h-1.6v-3.1c0-0.4-0.1-0.6-0.2-0.8c-0.1-0.2-0.3-0.2-0.6-0.2c-0.2,0-0.4,0-0.6,0.1
		c-0.2,0.1-0.3,0.2-0.5,0.4v3.5L607.8,208.5L607.8,208.5z"/>
	<path class="st1" d="M572.6,221.5v-7h2.5c0.4,0,0.7,0,1,0.1s0.6,0.2,0.9,0.4c0.2,0.2,0.4,0.4,0.6,0.7c0.1,0.3,0.2,0.6,0.2,1.1
		c0,0.4-0.1,0.7-0.2,1c-0.1,0.3-0.3,0.6-0.6,0.8c-0.2,0.2-0.5,0.3-0.9,0.4c-0.3,0.1-0.7,0.1-1,0.1h-0.9v2.4H572.6z M574.3,217.9h0.8
		c0.8,0,1.3-0.4,1.3-1.1c0-0.4-0.1-0.6-0.3-0.8s-0.5-0.2-0.9-0.2h-0.8L574.3,217.9L574.3,217.9z M579.6,221.5v-5.3h1.3l0.1,1.1l0,0
		c0.3-0.4,0.6-0.7,0.9-1c0.4-0.2,0.8-0.3,1.2-0.3c0.2,0,0.4,0,0.6,0s0.3,0.1,0.5,0.2l-0.3,1.3c-0.2-0.1-0.3-0.1-0.4-0.1
		c-0.1,0-0.3,0-0.5,0c-0.3,0-0.6,0.1-1,0.3c-0.3,0.2-0.6,0.5-0.8,1v2.8H579.6z M587.8,221.7c-0.4,0-0.7-0.1-1-0.2
		c-0.3-0.1-0.6-0.3-0.9-0.5c-0.2-0.2-0.5-0.5-0.6-0.9c-0.1-0.3-0.2-0.7-0.2-1.2s0.1-0.8,0.2-1.2c0.2-0.4,0.4-0.6,0.6-0.9
		c0.2-0.2,0.5-0.4,0.9-0.5c0.3-0.1,0.7-0.2,1-0.2s0.7,0.1,1,0.2c0.3,0.1,0.6,0.3,0.9,0.5c0.3,0.2,0.5,0.5,0.6,0.9
		c0.1,0.3,0.2,0.7,0.2,1.2s-0.1,0.8-0.2,1.2c-0.1,0.3-0.3,0.6-0.6,0.9c-0.2,0.2-0.5,0.4-0.9,0.5
		C588.6,221.6,588.3,221.7,587.8,221.7z M587.8,220.4c0.4,0,0.6-0.1,0.8-0.4c0.2-0.3,0.3-0.6,0.3-1.1s-0.1-0.8-0.3-1.1
		s-0.4-0.4-0.8-0.4c-0.4,0-0.6,0.1-0.8,0.4c-0.2,0.3-0.3,0.6-0.3,1.1s0.1,0.8,0.3,1.1C587.3,220.3,587.6,220.4,587.8,220.4z
		 M593.8,221.7c-0.3,0-0.6-0.1-0.9-0.2c-0.3-0.1-0.5-0.3-0.7-0.5s-0.3-0.5-0.5-0.9c-0.1-0.3-0.2-0.7-0.2-1.2c0-0.4,0.1-0.8,0.2-1.2
		c0.1-0.3,0.3-0.6,0.5-0.9c0.2-0.2,0.4-0.4,0.7-0.5s0.6-0.2,0.8-0.2c0.3,0,0.5,0,0.8,0.1c0.2,0.1,0.4,0.2,0.6,0.4l0,0l-0.1-0.8V214
		h1.6v7.5h-1.3l-0.1-0.5l0,0c-0.2,0.2-0.4,0.4-0.7,0.5C594.3,221.6,594,221.7,593.8,221.7z M594.3,220.4c0.2,0,0.3,0,0.5-0.1
		c0.1-0.1,0.3-0.2,0.4-0.4v-2.1c-0.1-0.1-0.3-0.2-0.4-0.3c-0.1-0.1-0.3-0.1-0.5-0.1c-0.3,0-0.5,0.1-0.8,0.4
		c-0.2,0.2-0.3,0.6-0.3,1.1s0.1,0.9,0.3,1.2C593.6,220.3,593.8,220.4,594.3,220.4z M601.1,221.7c-0.4,0-0.8-0.1-1.2-0.2
		c-0.4-0.1-0.7-0.3-0.9-0.5c-0.3-0.2-0.5-0.5-0.6-0.9c-0.1-0.3-0.2-0.7-0.2-1.2s0.1-0.8,0.2-1.2c0.2-0.4,0.4-0.6,0.7-0.9
		c0.3-0.2,0.6-0.4,1-0.5s0.8-0.2,1.2-0.2s0.8,0.1,1.1,0.2c0.3,0.1,0.6,0.3,0.8,0.5l-0.7,1c-0.4-0.3-0.8-0.4-1.2-0.4
		c-0.5,0-0.8,0.1-1.1,0.4c-0.3,0.3-0.4,0.6-0.4,1.1s0.1,0.8,0.4,1.1c0.3,0.3,0.6,0.4,1.1,0.4c0.3,0,0.5,0,0.8-0.1
		c0.2-0.1,0.4-0.2,0.6-0.4l0.6,1c-0.3,0.3-0.7,0.5-1.1,0.6C601.8,221.6,601.4,221.7,601.1,221.7z M606.3,221.7c-0.6,0-1-0.2-1.3-0.6
		c-0.3-0.4-0.4-0.9-0.4-1.6v-3.2h1.6v3c0,0.4,0.1,0.6,0.2,0.8c0.1,0.2,0.3,0.2,0.6,0.2c0.2,0,0.4,0,0.5-0.1c0.2-0.1,0.3-0.2,0.5-0.5
		v-3.5h1.6v5.3h-1.3l-0.1-0.8l0,0c-0.2,0.3-0.5,0.5-0.8,0.6C606.9,221.6,606.6,221.7,606.3,221.7z M614.3,221.7
		c-0.4,0-0.8-0.1-1.1-0.2c-0.3-0.1-0.5-0.3-0.7-0.5s-0.3-0.5-0.4-0.7c-0.1-0.3-0.1-0.6-0.1-0.9v-1.9h-1.2v-1.2l1.4-0.1l0.2-1.6h1.3
		v1.6h2.2v1.2h-2.2v1.9c0,0.4,0.1,0.7,0.3,0.9s0.5,0.2,0.9,0.2c0.2,0,0.4,0,0.5,0c0.2,0,0.3-0.1,0.5-0.2l0.3,1.1
		c-0.2,0.1-0.5,0.1-0.8,0.2C615,221.6,614.8,221.7,614.3,221.7z"/>
	<path class="st3" d="M462.1,228.2v113.1h69.6"/>
	<path class="st9" d="M462.1,228.2v113.1h63.6"/>
	<path class="st11" d="M525.8,342.9l4.5-1.7l-4.5-1.7V342.9z"/>
	<path class="st10" d="M541.6,259.7h99.8l5.6,5.6v28.2l0,0h-99.8l-5.6-5.6V259.7z"/>
	<path class="st9" d="M541.6,259.7h99.8l5.6,5.6v28.2l0,0h-99.8l-5.6-5.6V259.7z"/>
	<path class="st1" d="M571.8,273.9c-0.5,0-0.9-0.1-1.4-0.2c-0.5-0.2-0.9-0.4-1.2-0.8l0.9-1.1c0.3,0.2,0.5,0.4,0.9,0.5
		c0.3,0.1,0.6,0.2,1,0.2c0.3,0,0.6-0.1,0.8-0.2s0.2-0.3,0.2-0.4s0-0.2-0.1-0.3s-0.1-0.2-0.2-0.2c-0.1-0.1-0.2-0.1-0.3-0.2
		s-0.3-0.1-0.5-0.2l-0.9-0.4c-0.2-0.1-0.4-0.2-0.6-0.3c-0.2-0.1-0.3-0.2-0.5-0.4c-0.1-0.2-0.2-0.3-0.3-0.5s-0.1-0.4-0.1-0.7
		c0-0.3,0.1-0.5,0.2-0.8c0.1-0.2,0.3-0.5,0.5-0.7s0.5-0.3,0.8-0.4s0.7-0.2,1-0.2c0.4,0,0.8,0.1,1.2,0.2c0.4,0.2,0.8,0.4,1.1,0.7
		l-0.8,1c-0.2-0.2-0.5-0.3-0.7-0.4s-0.5-0.1-0.9-0.1c-0.3,0-0.5,0.1-0.6,0.2c-0.2,0.1-0.2,0.3-0.2,0.5s0.1,0.4,0.3,0.5
		s0.5,0.2,0.8,0.3l0.8,0.4c0.5,0.2,0.8,0.4,1.1,0.7c0.3,0.3,0.4,0.7,0.4,1.2c0,0.3-0.1,0.6-0.2,0.8c-0.1,0.3-0.3,0.5-0.5,0.7
		s-0.5,0.4-0.8,0.5C572.6,273.9,572.3,273.9,571.8,273.9z M575.8,275.8v-7.2h1.3l0.1,0.5l0,0c0.2-0.2,0.5-0.4,0.7-0.5
		c0.3-0.1,0.6-0.2,0.8-0.2c0.3,0,0.6,0.1,0.9,0.2c0.3,0.1,0.5,0.3,0.7,0.5s0.3,0.5,0.4,0.8c0.1,0.3,0.1,0.7,0.1,1.1
		c0,0.5-0.1,0.9-0.2,1.2c-0.1,0.4-0.3,0.7-0.5,0.9c-0.2,0.2-0.5,0.4-0.7,0.5c-0.3,0.1-0.6,0.2-0.8,0.2c-0.5,0-0.9-0.2-1.3-0.6l0,0
		l0.1,0.9v1.5h-1.6V275.8z M578.3,272.6c0.3,0,0.6-0.1,0.8-0.4c0.2-0.2,0.3-0.6,0.3-1.2c0-1-0.3-1.4-1-1.4c-0.3,0-0.7,0.2-1,0.5v2.1
		c0.2,0.1,0.3,0.2,0.5,0.3C578,272.6,578.1,272.6,578.3,272.6z M584.4,273.8v-4.1h-2.1v-1.2h3.7v5.3L584.4,273.8L584.4,273.8z
		 M584.6,267.7c-0.3,0-0.6-0.1-0.8-0.2c-0.2-0.2-0.3-0.4-0.3-0.7c0-0.3,0.1-0.5,0.3-0.7s0.5-0.3,0.8-0.3s0.5,0.1,0.7,0.3
		c0.2,0.2,0.3,0.4,0.3,0.7c0,0.3-0.1,0.5-0.3,0.7C585.3,267.6,584.9,267.7,584.6,267.7z M591.6,273.9c-0.4,0-0.8-0.1-1.2-0.2
		s-0.7-0.3-0.9-0.5c-0.3-0.2-0.5-0.5-0.6-0.9c-0.1-0.3-0.2-0.7-0.2-1.2c0-0.4,0.1-0.8,0.2-1.2c0.2-0.4,0.4-0.6,0.7-0.9
		c0.3-0.2,0.6-0.4,1-0.5s0.8-0.2,1.2-0.2s0.8,0.1,1.1,0.2s0.6,0.3,0.8,0.5l-0.7,1c-0.4-0.3-0.8-0.4-1.2-0.4c-0.5,0-0.8,0.1-1.1,0.4
		s-0.4,0.6-0.4,1.1s0.1,0.8,0.4,1.1c0.3,0.3,0.6,0.4,1.1,0.4c0.3,0,0.5,0,0.8-0.1c0.2-0.1,0.4-0.2,0.6-0.4l0.6,1
		c-0.3,0.3-0.7,0.5-1.1,0.6C592.3,273.9,591.8,273.9,591.6,273.9z M597.3,273.8v-4.1h-2.1v-1.2h3.7v5.3L597.3,273.8L597.3,273.8z
		 M597.4,267.7c-0.3,0-0.6-0.1-0.8-0.2c-0.2-0.2-0.3-0.4-0.3-0.7c0-0.3,0.1-0.5,0.3-0.7s0.5-0.3,0.8-0.3s0.5,0.1,0.7,0.3
		c0.2,0.2,0.3,0.4,0.3,0.7c0,0.3-0.1,0.5-0.3,0.7C598,267.6,597.8,267.7,597.4,267.7z M602.9,273.8v-4.1h-1.4v-1.1l1.4-0.1v-0.1
		c0-0.3,0-0.6,0.1-0.8c0.1-0.3,0.2-0.5,0.4-0.7s0.4-0.4,0.7-0.5s0.7-0.2,1.1-0.2c0.3,0,0.6,0,0.8,0.1c0.3,0.1,0.5,0.1,0.8,0.2
		l-0.3,1.2c-0.4-0.1-0.7-0.2-1.1-0.2c-0.3,0-0.6,0.1-0.8,0.2s-0.2,0.4-0.2,0.7v0.2h1.8v1.2h-1.8v4.1h-1.5V273.8z M610,273.8v-4.1
		h-2.1v-1.2h3.7v5.3L610,273.8L610,273.8z M610.3,267.7c-0.3,0-0.6-0.1-0.8-0.2c-0.2-0.2-0.3-0.4-0.3-0.7c0-0.3,0.1-0.5,0.3-0.7
		s0.5-0.3,0.8-0.3s0.5,0.1,0.7,0.3c0.2,0.2,0.3,0.4,0.3,0.7c0,0.3-0.1,0.5-0.3,0.7C610.8,267.6,610.6,267.7,610.3,267.7z
		 M617.1,273.9c-0.4,0-0.8-0.1-1.2-0.2s-0.7-0.3-0.9-0.5c-0.3-0.2-0.5-0.5-0.6-0.9c-0.1-0.3-0.2-0.7-0.2-1.2s0.1-0.8,0.2-1.2
		c0.2-0.4,0.4-0.6,0.7-0.9c0.3-0.2,0.6-0.4,1-0.5s0.8-0.2,1.2-0.2s0.8,0.1,1.1,0.2s0.6,0.3,0.8,0.5l-0.7,1c-0.4-0.3-0.8-0.4-1.2-0.4
		c-0.5,0-0.8,0.1-1.1,0.4s-0.4,0.6-0.4,1.1s0.1,0.8,0.4,1.1c0.3,0.3,0.6,0.4,1.1,0.4c0.3,0,0.5,0,0.8-0.1c0.2-0.1,0.4-0.2,0.6-0.4
		l0.6,1c-0.3,0.3-0.7,0.5-1.1,0.6C617.8,273.9,617.4,273.9,617.1,273.9z"/>
	<path class="st1" d="M572.6,286.8v-7h2.5c0.4,0,0.7,0,1,0.1s0.6,0.2,0.9,0.4c0.2,0.2,0.4,0.4,0.6,0.7c0.1,0.3,0.2,0.6,0.2,1.1
		c0,0.4-0.1,0.7-0.2,1c-0.1,0.3-0.3,0.6-0.6,0.8c-0.2,0.2-0.5,0.3-0.9,0.4c-0.3,0.1-0.7,0.1-1,0.1h-0.9v2.4H572.6z M574.3,283.2h0.8
		c0.8,0,1.3-0.4,1.3-1.1c0-0.4-0.1-0.6-0.3-0.8c-0.2-0.2-0.5-0.2-0.9-0.2h-0.8L574.3,283.2L574.3,283.2z M579.6,286.8v-5.3h1.3
		l0.1,1.1l0,0c0.3-0.4,0.6-0.7,0.9-1c0.4-0.2,0.8-0.3,1.2-0.3c0.2,0,0.4,0,0.6,0s0.3,0.1,0.5,0.2l-0.3,1.3c-0.2-0.1-0.3-0.1-0.4-0.1
		s-0.3,0-0.5,0c-0.3,0-0.6,0.1-1,0.3c-0.3,0.2-0.6,0.5-0.8,1v2.8H579.6z M587.8,286.9c-0.4,0-0.7-0.1-1-0.2s-0.6-0.3-0.9-0.5
		c-0.2-0.2-0.5-0.5-0.6-0.9c-0.1-0.3-0.2-0.7-0.2-1.2s0.1-0.8,0.2-1.2c0.2-0.4,0.4-0.6,0.6-0.9c0.2-0.2,0.5-0.4,0.9-0.5
		c0.3-0.1,0.7-0.2,1-0.2s0.7,0.1,1,0.2s0.6,0.3,0.9,0.5c0.3,0.2,0.5,0.5,0.6,0.9c0.1,0.3,0.2,0.7,0.2,1.2s-0.1,0.8-0.2,1.2
		s-0.3,0.6-0.6,0.9c-0.2,0.2-0.5,0.4-0.9,0.5S588.3,286.9,587.8,286.9z M587.8,285.7c0.4,0,0.6-0.1,0.8-0.4s0.3-0.6,0.3-1.1
		s-0.1-0.8-0.3-1.1c-0.2-0.3-0.4-0.4-0.8-0.4c-0.4,0-0.6,0.1-0.8,0.4s-0.3,0.6-0.3,1.1s0.1,0.8,0.3,1.1
		C587.3,285.5,587.6,285.7,587.8,285.7z M593.8,286.9c-0.3,0-0.6-0.1-0.9-0.2c-0.3-0.1-0.5-0.3-0.7-0.5s-0.3-0.5-0.5-0.9
		c-0.1-0.3-0.2-0.7-0.2-1.2c0-0.4,0.1-0.8,0.2-1.2c0.1-0.3,0.3-0.6,0.5-0.9c0.2-0.2,0.4-0.4,0.7-0.5s0.6-0.2,0.8-0.2
		c0.3,0,0.5,0,0.8,0.1c0.2,0.1,0.4,0.2,0.6,0.4l0,0L595,281v-1.8h1.6v7.5h-1.3l-0.1-0.5l0,0c-0.2,0.2-0.4,0.4-0.7,0.5
		C594.3,286.9,594,286.9,593.8,286.9z M594.3,285.6c0.2,0,0.3,0,0.5-0.1c0.1-0.1,0.3-0.2,0.4-0.4V283c-0.1-0.1-0.3-0.2-0.4-0.3
		c-0.1-0.1-0.3-0.1-0.5-0.1c-0.3,0-0.5,0.1-0.8,0.4c-0.2,0.2-0.3,0.6-0.3,1.1s0.1,0.9,0.3,1.2C593.6,285.5,593.8,285.6,594.3,285.6z
		 M599.8,286.9c-0.6,0-1-0.2-1.3-0.6s-0.4-0.9-0.4-1.6v-3.2h1.6v3c0,0.4,0.1,0.6,0.2,0.8c0.1,0.2,0.3,0.2,0.6,0.2
		c0.2,0,0.4,0,0.5-0.1c0.2-0.1,0.3-0.2,0.5-0.5v-3.5h1.6v5.3h-1.3l-0.1-0.8l0,0c-0.2,0.3-0.5,0.5-0.8,0.6
		C600.6,286.8,600.3,286.9,599.8,286.9z M607.6,286.9c-0.4,0-0.8-0.1-1.2-0.2s-0.7-0.3-0.9-0.5c-0.3-0.2-0.5-0.5-0.6-0.9
		c-0.1-0.3-0.2-0.7-0.2-1.2s0.1-0.8,0.2-1.2c0.2-0.4,0.4-0.6,0.7-0.9c0.3-0.2,0.6-0.4,1-0.5s0.8-0.2,1.2-0.2s0.8,0.1,1.1,0.2
		s0.6,0.3,0.8,0.5l-0.7,1c-0.4-0.3-0.8-0.4-1.2-0.4c-0.5,0-0.8,0.1-1.1,0.4s-0.4,0.6-0.4,1.1s0.1,0.8,0.4,1.1
		c0.3,0.3,0.6,0.4,1.1,0.4c0.3,0,0.5,0,0.8-0.1c0.2-0.1,0.4-0.2,0.6-0.4l0.6,1c-0.3,0.3-0.7,0.5-1.1,0.6
		C608.3,286.9,607.8,286.9,607.6,286.9z M614.3,286.9c-0.4,0-0.8-0.1-1.1-0.2s-0.5-0.3-0.7-0.5s-0.3-0.5-0.4-0.7
		c-0.1-0.3-0.1-0.6-0.1-0.9v-1.9h-1.2v-1.1l1.4-0.1l0.2-1.6h1.3v1.6h2.2v1.2h-2.2v1.9c0,0.4,0.1,0.7,0.3,0.9
		c0.2,0.2,0.5,0.2,0.9,0.2c0.2,0,0.4,0,0.5,0c0.2,0,0.3-0.1,0.5-0.2l0.3,1.1c-0.2,0.1-0.5,0.1-0.8,0.2
		C615,286.9,614.8,286.9,614.3,286.9z"/>
	<path class="st3" d="M647,276.6h25v-65.3h-24.9"/>
	<path class="st9" d="M647,276.6h25v-65.3h-18.9"/>
	<path class="st11" d="M653,209.6l-4.5,1.7l4.5,1.7V209.6z"/>
	<path class="st3" d="M594.3,141.9v21h0.1v21"/>
	<path class="st9" d="M594.3,141.9v21h0.1v15"/>
	<path class="st11" d="M592.6,178l1.7,4.5l1.7-4.5H592.6z"/>
	<path class="st3" d="M594.3,238.6v10.5h0.1v10.5"/>
	<path class="st9" d="M594.3,238.6v10.5h0.1v4.5"/>
	<path class="st11" d="M592.6,253.7l1.7,4.5l1.7-4.5L592.6,253.7L592.6,253.7z"/>
	<path class="st3" d="M594.3,293.5V308h0.1v14.5"/>
	<path class="st9" d="M594.3,299.5v8.5h0.1v8.5"/>
	<path class="st11" d="M595.9,299.5l-1.7-4.5l-1.7,4.5H595.9z"/>
	<path class="st11" d="M592.6,316.5l1.7,4.5l1.7-4.5H592.6z"/>
	<path class="st3" d="M594.3,360v15.8h0.1v15.8"/>
	<path class="st9" d="M594.3,360v15.8h0.1v9.8"/>
	<path class="st11" d="M592.6,385.5l1.7,4.5l1.7-4.5H592.6z"/>
	<path class="st3" d="M700.8,187.6v107h-51.1v-107H700.8z"/>
	<path class="st12" d="M680,223.7c0-0.5,0.1-0.9,0.3-1.4c0.2-0.4,0.4-0.8,0.8-1.1c0.4-0.3,0.8-0.6,1.3-0.7s1.1-0.3,1.7-0.3
		c0.6,0,1.2,0.1,1.7,0.3s0.9,0.4,1.3,0.7c0.4,0.3,0.6,0.7,0.8,1.1s0.3,0.9,0.3,1.4s-0.1,0.9-0.3,1.3c-0.2,0.4-0.4,0.7-0.7,0.9
		l-0.8-0.7c0.2-0.2,0.4-0.4,0.5-0.7c0.1-0.2,0.2-0.5,0.2-0.9c0-0.3-0.1-0.7-0.2-1c-0.1-0.3-0.3-0.5-0.6-0.8c-0.3-0.2-0.6-0.4-1-0.5
		s-0.8-0.2-1.2-0.2c-0.5,0-0.9,0.1-1.3,0.2c-0.4,0.1-0.7,0.3-1,0.5s-0.5,0.5-0.6,0.7c-0.1,0.3-0.2,0.6-0.2,1c0,0.3,0.1,0.7,0.2,0.9
		c0.1,0.3,0.4,0.5,0.6,0.8l-0.7,0.7c-0.4-0.3-0.7-0.7-0.9-1.1C680.1,224.7,680,224.3,680,223.7z M680.3,227.8h8.5v1.2h-2.3l-1.3-0.1
		l0,0c0.3,0.3,0.6,0.6,0.8,0.9c0.2,0.3,0.3,0.7,0.3,1.2c0,0.7-0.2,1.2-0.6,1.5c-0.4,0.3-1,0.5-1.8,0.5h-3.6v-1.2h3.5
		c0.5,0,0.9-0.1,1.1-0.3c0.2-0.2,0.4-0.5,0.4-1c0-0.3-0.1-0.6-0.2-0.8c-0.2-0.2-0.4-0.5-0.7-0.8h-4v-1.1L680.3,227.8L680.3,227.8z
		 M680,236.8c0-0.3,0-0.5,0.1-0.8c0.1-0.2,0.2-0.4,0.3-0.6c0.2-0.2,0.3-0.3,0.5-0.4s0.4-0.2,0.7-0.2s0.6,0.1,0.9,0.2
		c0.2,0.2,0.5,0.4,0.6,0.7c0.2,0.3,0.3,0.8,0.4,1.3c0.1,0.5,0.2,1.2,0.3,1.9c0.4,0,0.7-0.1,0.9-0.3c0.3-0.2,0.4-0.6,0.4-1.1
		c0-0.4-0.1-0.7-0.2-1.1c-0.1-0.3-0.3-0.6-0.5-0.9l0.8-0.4c0.1,0.2,0.2,0.3,0.3,0.5s0.2,0.4,0.3,0.6s0.1,0.5,0.2,0.7
		c0.1,0.2,0.1,0.5,0.1,0.8c0,0.8-0.2,1.4-0.7,1.8c-0.4,0.4-1,0.6-1.8,0.6h-3.5v-1l0.8-0.1l0,0c-0.2-0.3-0.4-0.7-0.6-1.1
		C680.1,237.6,680,237.2,680,236.8z M681,237.1c0,0.3,0.1,0.6,0.2,0.9c0.1,0.3,0.3,0.6,0.6,0.9h1.4c0-0.6-0.1-1.1-0.2-1.4
		c-0.1-0.4-0.2-0.7-0.3-0.9s-0.2-0.4-0.4-0.5c-0.1-0.1-0.3-0.1-0.5-0.1c-0.3,0-0.5,0.1-0.6,0.3C681,236.5,681,236.8,681,237.1z
		 M680.3,242.2h5.9v1l-1,0.1l0,0c0.3,0.3,0.6,0.6,0.8,1c0.2,0.3,0.3,0.7,0.3,1.2c0,0.7-0.2,1.2-0.6,1.5c-0.4,0.3-1,0.5-1.8,0.5h-3.6
		v-1.2h3.5c0.5,0,0.9-0.1,1.1-0.3c0.2-0.2,0.4-0.5,0.4-1c0-0.3-0.1-0.6-0.2-0.8c-0.2-0.2-0.4-0.5-0.7-0.8h-4v-1.2H680.3L680.3,242.2
		z M677.6,251.8c0-0.8,0.1-1.5,0.4-2c0.3-0.5,0.7-0.7,1.2-0.7s0.9,0.3,1.3,1l0,0c0.1-0.2,0.2-0.3,0.4-0.4s0.4-0.2,0.6-0.2
		c0.2,0,0.4,0.1,0.6,0.2c0.2,0.1,0.4,0.3,0.5,0.5l0,0c0.1-0.2,0.3-0.4,0.6-0.5s0.6-0.2,0.9-0.2c0.3,0,0.6,0.1,0.9,0.2
		c0.3,0.1,0.5,0.3,0.7,0.5s0.3,0.5,0.4,0.8c0.1,0.3,0.2,0.6,0.2,0.9s0,0.6-0.1,0.9v2.4h-0.9v-1.4c-0.1,0.1-0.3,0.2-0.5,0.3
		s-0.4,0.1-0.6,0.1c-0.3,0-0.6-0.1-0.8-0.2s-0.5-0.3-0.6-0.5c-0.2-0.2-0.3-0.5-0.4-0.7c-0.1-0.3-0.1-0.6-0.1-0.9c0-0.1,0-0.3,0-0.5
		s0.1-0.3,0.1-0.5c-0.2-0.3-0.4-0.4-0.6-0.4c-0.4,0-0.6,0.4-0.6,1.2v1.2c0,0.8-0.1,1.3-0.3,1.7s-0.6,0.6-1.1,0.6
		c-0.3,0-0.6-0.1-0.8-0.2s-0.5-0.4-0.7-0.7s-0.3-0.6-0.4-1C677.6,252.8,677.6,252.3,677.6,251.8z M682.8,251.8
		c0,0.3,0.1,0.6,0.3,0.9c0.2,0.2,0.5,0.4,1,0.4c0.4,0,0.7-0.1,0.9-0.4c0.2-0.2,0.4-0.5,0.4-0.9c0-0.3-0.1-0.6-0.4-0.9
		c-0.2-0.2-0.5-0.4-0.9-0.4s-0.7,0.1-1,0.4C682.9,251.2,682.8,251.4,682.8,251.8z M678.3,251.9c0,0.3,0,0.6,0.1,0.8
		c0.1,0.3,0.1,0.5,0.2,0.6c0.1,0.2,0.2,0.3,0.3,0.4s0.3,0.2,0.4,0.2c0.3,0,0.4-0.1,0.5-0.3s0.1-0.5,0.1-0.9v-1c0-0.2,0-0.4,0-0.5
		s0-0.3,0.1-0.4c-0.1-0.2-0.3-0.4-0.4-0.5c-0.2-0.1-0.3-0.1-0.5-0.1c-0.3,0-0.5,0.2-0.7,0.5C678.4,250.9,678.3,251.3,678.3,251.9z
		 M680,259.5c0-0.4,0.1-0.9,0.2-1.2c0.1-0.4,0.3-0.7,0.6-1s0.6-0.5,1-0.7s0.8-0.2,1.3-0.2s0.9,0.1,1.3,0.2c0.4,0.2,0.7,0.4,1,0.7
		c0.3,0.3,0.5,0.6,0.6,1s0.2,0.7,0.2,1.1s-0.1,0.8-0.2,1.1c-0.1,0.3-0.3,0.6-0.6,0.9c-0.2,0.2-0.5,0.4-0.9,0.5
		c-0.3,0.1-0.7,0.2-1.1,0.2c-0.1,0-0.2,0-0.4,0c-0.1,0-0.2,0-0.3,0v-4.5c-0.6,0.1-1.1,0.3-1.4,0.7c-0.3,0.4-0.4,0.9-0.4,1.5
		c0,0.3,0,0.6,0.1,0.9s0.2,0.5,0.4,0.8l-0.8,0.4c-0.2-0.3-0.4-0.6-0.5-1C680.1,260.3,680,259.9,680,259.5z M685.3,259.3
		c0-0.2,0-0.4-0.1-0.6s-0.2-0.4-0.3-0.5c-0.1-0.2-0.3-0.3-0.5-0.4s-0.4-0.2-0.7-0.2v3.4c0.5,0,0.9-0.2,1.2-0.5
		C685.1,260.1,685.3,259.8,685.3,259.3z"/>
	<path class="st12" d="M658,223.1c0-0.6,0.1-1.1,0.3-1.6s0.5-0.9,0.9-1.3l0.8,0.7c-0.3,0.3-0.5,0.6-0.7,1s-0.2,0.8-0.2,1.2
		c0,0.5,0.1,0.9,0.3,1.2s0.5,0.4,0.8,0.4c0.2,0,0.4,0,0.5-0.1s0.2-0.2,0.3-0.3s0.2-0.3,0.3-0.4c0.1-0.2,0.2-0.3,0.2-0.5l0.5-1.1
		c0.1-0.2,0.2-0.4,0.3-0.6c0.1-0.2,0.3-0.4,0.4-0.5c0.2-0.2,0.4-0.3,0.6-0.4s0.5-0.2,0.8-0.2s0.6,0.1,0.8,0.2
		c0.3,0.1,0.5,0.3,0.7,0.5s0.3,0.5,0.5,0.8c0.1,0.3,0.2,0.7,0.2,1.1c0,0.5-0.1,0.9-0.3,1.4c-0.2,0.4-0.4,0.8-0.7,1.1l-0.8-0.6
		c0.2-0.3,0.4-0.5,0.5-0.8s0.2-0.7,0.2-1.1c0-0.4-0.1-0.8-0.3-1s-0.4-0.4-0.8-0.4c-0.2,0-0.3,0-0.4,0.1c-0.1,0.1-0.2,0.2-0.3,0.3
		s-0.2,0.3-0.2,0.4c-0.1,0.2-0.1,0.3-0.2,0.5l-0.5,1.1c-0.1,0.2-0.2,0.5-0.3,0.7s-0.3,0.4-0.4,0.5c-0.2,0.2-0.4,0.3-0.6,0.4
		s-0.5,0.1-0.8,0.1s-0.6-0.1-0.9-0.2s-0.5-0.3-0.7-0.6c-0.2-0.2-0.4-0.6-0.5-0.9C658.1,224,658,223.6,658,223.1z M658,230.7
		c0-0.4,0.1-0.9,0.2-1.2c0.1-0.4,0.3-0.7,0.6-1s0.6-0.5,1-0.7s0.8-0.2,1.3-0.2s0.9,0.1,1.3,0.2c0.4,0.2,0.7,0.4,1,0.7s0.5,0.6,0.6,1
		s0.2,0.7,0.2,1.1c0,0.4-0.1,0.8-0.2,1.1c-0.1,0.3-0.3,0.6-0.6,0.9c-0.2,0.2-0.5,0.4-0.9,0.5c-0.3,0.1-0.7,0.2-1.1,0.2
		c-0.1,0-0.2,0-0.4,0c-0.1,0-0.2,0-0.3,0v-4.5c-0.6,0.1-1.1,0.3-1.4,0.7c-0.3,0.4-0.4,0.9-0.4,1.5c0,0.3,0,0.6,0.1,0.9
		c0.1,0.3,0.2,0.5,0.4,0.8l-0.8,0.4c-0.2-0.3-0.4-0.6-0.5-1C658.1,231.5,658,231.1,658,230.7z M663.3,230.5c0-0.2,0-0.4-0.1-0.6
		c-0.1-0.2-0.2-0.4-0.3-0.5c-0.1-0.2-0.3-0.3-0.5-0.4c-0.2-0.1-0.4-0.2-0.7-0.2v3.4c0.5,0,0.9-0.2,1.2-0.5
		C663.1,231.3,663.3,231,663.3,230.5z M658,236.8c0-0.3,0-0.5,0.1-0.8c0.1-0.2,0.2-0.4,0.3-0.6c0.2-0.2,0.3-0.3,0.5-0.4
		s0.4-0.2,0.7-0.2s0.6,0.1,0.9,0.2c0.2,0.2,0.5,0.4,0.6,0.7c0.2,0.3,0.3,0.8,0.4,1.3c0.1,0.5,0.2,1.2,0.3,1.9c0.4,0,0.7-0.1,0.9-0.3
		c0.3-0.2,0.4-0.6,0.4-1.1c0-0.4-0.1-0.7-0.2-1.1c-0.1-0.3-0.3-0.6-0.5-0.9l0.8-0.4c0.1,0.2,0.2,0.3,0.3,0.5s0.2,0.4,0.3,0.6
		s0.1,0.5,0.2,0.7c0.1,0.2,0.1,0.5,0.1,0.8c0,0.8-0.2,1.4-0.7,1.8c-0.4,0.4-1,0.6-1.8,0.6h-3.5v-1l0.8-0.1l0,0
		c-0.2-0.3-0.4-0.7-0.6-1.1C658.1,237.6,658,237.2,658,236.8z M659,237.1c0,0.3,0.1,0.6,0.2,0.9c0.1,0.3,0.3,0.6,0.6,0.9h1.4
		c0-0.6-0.1-1.1-0.2-1.4c-0.1-0.4-0.2-0.7-0.3-0.9s-0.2-0.4-0.4-0.5c-0.1-0.1-0.3-0.1-0.5-0.1c-0.3,0-0.5,0.1-0.6,0.3
		C659,236.5,659,236.8,659,237.1z M658.3,242.8h5.9v1l-1.4,0.1l0,0c0.5,0.3,0.8,0.7,1.1,1.1s0.4,0.9,0.4,1.5c0,0.2,0,0.4-0.1,0.6
		c0,0.2-0.1,0.4-0.2,0.5l-1-0.3c0.1-0.2,0.1-0.4,0.1-0.5s0-0.3,0-0.6c0-0.4-0.1-0.8-0.4-1.2c-0.2-0.4-0.7-0.7-1.2-1.1h-3.3v-1.1
		H658.3z M658,252.4c0-0.5,0.1-0.9,0.2-1.3c0.1-0.4,0.3-0.7,0.6-1s0.6-0.5,1-0.7s0.8-0.2,1.3-0.2s0.9,0.1,1.3,0.3
		c0.4,0.2,0.7,0.4,1,0.7s0.5,0.7,0.6,1.1s0.2,0.8,0.2,1.3s-0.1,0.9-0.2,1.2c-0.2,0.4-0.4,0.7-0.6,0.9l-0.8-0.6
		c0.2-0.2,0.3-0.5,0.4-0.7c0.1-0.2,0.2-0.5,0.2-0.8s-0.1-0.6-0.2-0.9c-0.1-0.3-0.2-0.5-0.4-0.7s-0.4-0.3-0.7-0.4s-0.5-0.2-0.9-0.2
		s-0.6,0-0.9,0.1c-0.2,0.1-0.5,0.2-0.7,0.4s-0.3,0.4-0.4,0.7c-0.1,0.3-0.1,0.5-0.1,0.9s0.1,0.7,0.2,1c0.1,0.3,0.3,0.5,0.5,0.8
		l-0.8,0.5c-0.3-0.3-0.5-0.7-0.7-1.1C658.1,253.3,658,252.9,658,252.4z M658.3,256.6h8.5v1.2h-2.3l-1.3-0.1l0,0
		c0.3,0.3,0.6,0.6,0.8,0.9s0.3,0.7,0.3,1.2c0,0.7-0.2,1.2-0.6,1.5c-0.4,0.3-1,0.5-1.8,0.5h-3.6v-1.2h3.5c0.5,0,0.9-0.1,1.1-0.3
		c0.2-0.2,0.4-0.5,0.4-1c0-0.3-0.1-0.6-0.2-0.8c-0.2-0.2-0.4-0.5-0.7-0.8h-4v-1.1L658.3,256.6L658.3,256.6z"/>
	<path class="st3" d="M406.6,140.4v14.9l10.3,10.3h12.7"/>
	<path class="st13" d="M406.6,140.4v14.9l10.3,10.3h12.7"/>
	<path class="st3" d="M517.9,130.8v-14.9l-10.3-10.3h-12.7"/>
	<path class="st13" d="M517.9,130.8v-14.9l-10.3-10.3h-12.7"/>
	<path class="st3" d="M538.6,216.1V231l10.3,10.3h12.7"/>
	<path class="st13" d="M538.6,216.1V231l10.3,10.3h12.7"/>
	<path class="st3" d="M649.9,206.5v-14.9l-10.3-10.3h-12.7"/>
	<path class="st13" d="M649.9,206.5v-14.9l-10.3-10.3h-12.7"/>
</g>
<path class="st14" d="M120.2,77.8c-0.6,0-1.1-0.2-1.5-0.6c-0.4-0.4-0.6-0.9-0.6-1.5v-7.2c0-0.6,0.2-1.1,0.6-1.5s0.9-0.6,1.5-0.6h7.2
	c0.6,0,1.1,0.2,1.5,0.6s0.6,0.9,0.6,1.5v7.2c0,0.6-0.2,1.1-0.6,1.5c-0.4,0.4-0.9,0.6-1.5,0.6H120.2z M120.4,76.1h6.6
	c0.2,0,0.4,0,0.5-0.1c0.1-0.1,0.1-0.2,0.1-0.5v-6.6c0-0.2,0-0.4-0.1-0.5s-0.2-0.1-0.5-0.1h-6.6c-0.2,0-0.4,0-0.5,0.1
	s-0.1,0.2-0.1,0.5v6.6c0,0.2,0,0.4,0.1,0.5C120,76.1,120.2,76.1,120.4,76.1z M132.9,77.8c-0.6,0-1.1-0.2-1.5-0.6
	c-0.4-0.4-0.6-0.9-0.6-1.5v-9.9h1.6v9.7c0,0.2,0,0.4,0.1,0.5s0.2,0.1,0.5,0.1h1.5v1.6L132.9,77.8L132.9,77.8z M137.6,77.8
	c-0.6,0-1.1-0.2-1.5-0.6c-0.4-0.4-0.6-0.9-0.6-1.5v-4.9c0-0.6,0.2-1.1,0.6-1.5c0.4-0.4,0.9-0.6,1.5-0.6h5.4v-2.9h1.6v11.9
	L137.6,77.8L137.6,77.8z M137.9,76.1h4.7c0.2,0,0.4,0,0.5-0.1c0.1-0.1,0.1-0.2,0.1-0.5v-4.4c0-0.2,0-0.4-0.1-0.5
	c-0.1-0.1-0.2-0.1-0.5-0.1h-4.7c-0.2,0-0.4,0-0.5,0.1c-0.1,0.1-0.1,0.2-0.1,0.5v4.4c0,0.2,0,0.4,0.1,0.5
	C137.5,76.1,137.6,76.1,137.9,76.1z M150.9,77.8V66.6h10.2v1.6h-8.5v3.2h6.9v1.8h-6.9v4.7L150.9,77.8L150.9,77.8L150.9,77.8z
	 M163.9,77.8c-0.6,0-1.1-0.2-1.5-0.6c-0.4-0.4-0.6-0.9-0.6-1.5v-9.9h1.6v9.7c0,0.2,0,0.4,0.1,0.5s0.2,0.1,0.5,0.1h1.5v1.6
	L163.9,77.8L163.9,77.8z M168.8,77.8c-0.6,0-1.1-0.2-1.5-0.6c-0.4-0.4-0.6-0.9-0.6-1.5v-4.9c0-0.6,0.2-1.1,0.6-1.5
	c0.4-0.4,0.9-0.6,1.5-0.6h5.1c0.6,0,1.1,0.2,1.5,0.6s0.6,0.9,0.6,1.5v4.9c0,0.6-0.2,1.1-0.6,1.5c-0.4,0.4-0.9,0.6-1.5,0.6H168.8z
	 M169.1,76.1h4.7c0.2,0,0.4,0,0.5-0.1c0.1-0.1,0.1-0.2,0.1-0.5v-4.4c0-0.2,0-0.4-0.1-0.5c-0.1-0.1-0.2-0.1-0.5-0.1h-4.7
	c-0.2,0-0.4,0-0.5,0.1c-0.1,0.1-0.1,0.2-0.1,0.5v4.4c0,0.2,0,0.4,0.1,0.5C168.7,76.1,168.8,76.1,169.1,76.1z M180,77.8l-3.5-9h1.8
	l2.4,5.9l2.6-5.9h1.9l2.7,6l2.2-6h1.8l-3.4,9h-1.2l-3-6.6l-2.9,6.6H180z"/>
<path class="st12" d="M485.5,25.5V14.4h2.2l6.9,8.1v-8.1h2v11.1h-2.2l-6.9-8.1v8.1H485.5z M500.4,25.5c-0.6,0-1.1-0.2-1.5-0.6
	s-0.6-1-0.6-1.5v-4.7c0-0.6,0.2-1.1,0.6-1.5s1-0.7,1.5-0.7h4.8c0.6,0,1.1,0.2,1.5,0.7c0.4,0.4,0.7,0.9,0.7,1.5v3.4h-7V23
	c0,0.3,0,0.5,0.1,0.5c0,0,0.2,0,0.5,0h6.6v2h-7l0,0H500.4z M500.3,20.2h5v-1.1c0-0.3,0-0.5-0.1-0.5c0,0-0.2-0.1-0.5-0.1h-4
	c-0.3,0-0.5,0-0.5,0.1c0,0-0.1,0.2-0.1,0.5L500.3,20.2L500.3,20.2z M511.6,25.5l-3.5-9h2.1l2.2,5.3l2.3-5.3h2.1l2.4,5.3l2-5.3h2.1
	l-3.4,9h-1.5l-2.7-6l-2.6,6H511.6z M529.6,25.5V14.4h10.2v2h-8.2v2.5h6.6v2h-6.6v4.5h-2V25.5z M542.9,25.5c-0.6,0-1.1-0.2-1.5-0.6
	s-0.6-1-0.6-1.5v-9.8h2V23c0,0.3,0,0.5,0.1,0.5c0,0,0.2,0,0.5,0h1.4v2H542.9L542.9,25.5z M547.9,25.5c-0.6,0-1.1-0.2-1.5-0.6
	s-0.6-1-0.6-1.5v-4.7c0-0.6,0.2-1.1,0.6-1.5c0.4-0.4,1-0.7,1.5-0.7h4.8c0.6,0,1.1,0.2,1.5,0.7c0.4,0.4,0.7,0.9,0.7,1.5v4.7
	c0,0.6-0.2,1.1-0.7,1.5c-0.4,0.4-0.9,0.6-1.5,0.6C552.7,25.5,547.9,25.5,547.9,25.5z M548.4,23.4h4c0.3,0,0.5,0,0.5,0
	s0.1-0.2,0.1-0.5V19c0-0.3,0-0.5-0.1-0.5c0,0-0.2-0.1-0.5-0.1h-4c-0.3,0-0.5,0-0.5,0.1c0,0-0.1,0.2-0.1,0.5v3.9c0,0.3,0,0.5,0.1,0.5
	C547.9,23.4,548.1,23.4,548.4,23.4z M558.8,25.5l-3.5-9h2.1l2.2,5.3l2.3-5.3h2.1l2.4,5.3l2-5.3h2.1l-3.4,9h-1.5l-2.7-6l-2.6,6H558.8
	z"/>
<g>
	<path class="st15" d="M339.3,262.1c-0.1-0.1-0.2-0.1-0.2-0.1c-2.1-2.1-4.2-4.2-6.3-6.3c-0.8-0.8-0.8-1.8,0-2.5c0.5-0.5,1-1,1.5-1.5
		c0.6-0.6,1.6-0.6,2.3,0.1c0.3,0.3,0.6,0.6,0.8,0.8c2.8,2.8,5.5,5.5,8.3,8.3c0.3,0.3,0.5,0.6,0.6,1c0.1,0.6-0.1,1.1-0.6,1.4
		c-0.9,0.9-1.8,1.8-2.8,2.8c-2.1,2.1-4.2,4.2-6.4,6.4c-0.4,0.4-0.7,0.6-1.3,0.6c-0.4,0-0.8-0.2-1.1-0.6c-0.5-0.5-1-1-1.5-1.5
		c-0.6-0.6-0.6-1.6-0.1-2.2c0.1-0.1,0.1-0.1,0.2-0.2C335,266.4,337.1,264.3,339.3,262.1C339.1,262.3,339.2,262.2,339.3,262.1z"/>
	<path class="st15" d="M352.4,262.1c-0.1-0.1-0.1-0.1-0.1-0.1c-2.1-2.1-4.2-4.2-6.4-6.4c-0.4-0.4-0.6-0.9-0.5-1.6
		c0-0.3,0.2-0.5,0.4-0.7c0.6-0.6,1.1-1.1,1.7-1.7c0.6-0.6,1.6-0.6,2.1,0c0.1,0.1,0.1,0.1,0.1,0.1c3,3,6.1,6.1,9.1,9.1
		c0.5,0.5,0.7,1,0.5,1.6c-0.1,0.2-0.2,0.5-0.4,0.6c-3.1,3.1-6.3,6.3-9.4,9.4c-0.6,0.6-1.6,0.6-2.1,0c-0.6-0.6-1.1-1.1-1.7-1.7
		s-0.6-1.6,0-2.3c0.3-0.3,0.5-0.5,0.8-0.8c1.9-1.9,3.8-3.8,5.7-5.7C352.3,262.3,352.4,262.2,352.4,262.1z"/>
</g>
</svg>
