<?xml version="1.0" encoding="utf-8"?>
<!-- Generator: Adobe Illustrator 23.0.1, SVG Export Plug-In . SVG Version: 6.00 Build 0)  -->
<svg version="1.1" id="Layer_1" xmlns="http://www.w3.org/2000/svg" xmlns:xlink="http://www.w3.org/1999/xlink" x="0px" y="0px"
	 viewBox="0 0 829.3 404" style="enable-background:new 0 0 829.3 404;" xml:space="preserve">
<style type="text/css">
	.st0{fill:#FF008A;}
	.st1{opacity:0.5;fill:#FF008A;}
	.st2{opacity:0.4;fill:#FF008A;}
	.st3{opacity:0.6;fill:#FF008A;}
	.st4{fill:#8B8B8B;}
	.st5{fill-rule:evenodd;clip-rule:evenodd;fill-opacity:0;}
	.st6{fill:#5400D5;}
	.st7{fill-rule:evenodd;clip-rule:evenodd;fill:#5400D5;}
	.st8{fill:#FFFFFF;}
</style>
<g>
	<path class="st0" d="M517.7,197c12.1,0,24.3,0,36.4,0c0.7,0,1.5,0,2.2,0c0.7,0,0.8,0.4,0.8,1c0,0.4,0,0.8,0,1.2
		c0,17.2,0,34.4,0,51.6c0,2.2,0,2.2-2.3,2.2c-14,0-28,0-42,0c-10.7,0-21.4,0-32,0c-0.6,0-1.2,0-1.9,0c-0.7,0-0.8-0.4-0.8-1
		c0-0.4,0-0.8,0-1.2c0-17.2,0-34.4,0-51.6c0-2.2,0-2.2,2.3-2.2C492.8,197,505.3,197,517.7,197z M486.8,225c0,3.6,0.1,7.2,0,10.9
		c-0.1,3.9,0.6,3.5,3.6,3.4c0.1,0,0.2,0,0.3,0c0.8,0.1,1.1-0.1,1.1-1c-0.1-1.8,0-3.5,0-5.3c0-0.9,0.2-1.2,1.2-1.2
		c3.3,0.1,6.6,0,9.9,0c1,0,1.4-0.1,1.4-1.3c-0.1-6.2-0.1-12.4,0-18.6c0-1.3-0.5-1.3-1.5-1.3c-4.6,0-9.1,0-13.7,0
		c-2.2,0-2.3,0.2-2.4,2.5C486.7,217.1,486.8,221.1,486.8,225z M531,224.8c0,4.4,0,8.9,0,13.3c0,1,0.3,1.3,1.2,1.2
		c0.8-0.1,1.7,0,2.5,0c0.3,0,0.7-0.5,0.7-0.7c0.1-1.7,0-3.3,0-5c0-1.3,0.5-1.7,1.9-1.8c3.3,0,6.6,0,9.9,0c0.8,0,1.3,0,1.3-1.1
		c-0.1-6,0-12,0-18c0-1.7-0.4-2.1-2.2-2.1c-4.7,0-9.3,0.1-14,0c-1.3,0-1.3,0.5-1.3,1.4C531,216.3,531,220.6,531,224.8z M526,225.1
		c0-4,0-8.1,0-12.1c0-2.3,0-2.3-2.3-2.3c-2.1,0-2.1,0-2.1,2.1c0,1,0,2.1,0,3.1c0,2.2-0.1,4.3-0.2,6.5c-2.2,0-4.3,0.1-6.5,0.1
		c-0.2,0-0.4,0-0.6,0c-0.7,0.1-0.8-0.3-0.8-0.9c0-3.3,0-6.6,0-10c0-0.6-0.1-1-0.8-0.9c-0.6,0-1.2,0-1.9,0c-1.7,0-1.7,0-1.7,1.6
		c0,8.3,0,16.6,0,24.9c0,2.1,0,2.1,2.1,2.1c2.2,0,2.2,0,2.3-2.3c0-0.9,0-1.9,0-2.8c0-2.2,0-4.3,0.1-6.5c2.4-0.1,4.7-0.1,7.1-0.3
		c0.9-0.1,1,0.4,1,1.1c0,2.7,0,5.4,0,8.1c0,2.7,0,2.7,2.8,2.6c0.1,0,0.2,0,0.3,0c0.9,0.1,1.3-0.1,1.2-1.1
		C525.9,233.8,526,229.5,526,225.1z"/>
	<path class="st0" d="M517.6,192c-12.4,0-24.9,0-37.3,0c-2.2,0-2.2,0-2.2-2.3c0-0.3,0-0.6,0-0.9c-0.2-1.1,0.5-1.1,1.3-1.1
		c5.1,0,10.2,0,15.2,0c7.4,0,14.7,0,22.1,0c1.1,0,1.9-0.3,2.7-1.1c4-4.1,8.1-8.1,12.1-12.1c0.8-0.8,1.5-1.1,2.7-1.1
		c7.2,0.1,14.3,0,21.5,0c1.6,0,1.6,0,1.6,1.4c0,5.3,0,10.6,0,15.9c0,1.4,0,1.4-1.6,1.4C542.9,192,530.2,192,517.6,192z"/>
	<path class="st0" d="M497.5,182.7c-6,0-12,0-18,0c-0.9,0-1.6,0.1-1.5-1.3c0.2-2.7,0.2-5.3,0.3-8c2.6,0,5.2-0.1,7.7-0.1
		c12.1,0,24.2,0,36.4,0c0.7,0,1.5,0,2.2,0c0.3,0,0.5,0.2,0.8,0.3c-0.1,0.4-0.3,0.7-0.4,1.1c0,0.1-0.1,0.1-0.2,0.2
		c-2.3,2.3-4.6,4.5-6.8,6.8c-0.7,0.7-1.4,1-2.4,0.9C509.5,182.7,503.5,182.7,497.5,182.7z"/>
	<path class="st0" d="M491.7,221.2c0-0.2,0-0.4,0-0.6c0.1-1.6,0.1-3.2,0.2-4.9c1.6,0,3.3-0.1,4.9-0.1c0.5,0,1,0,1.5,0
		c0.8,0,1.4,0.5,1.4,1.3c0.1,3.1,0.1,6.2,0,9.3c0,0.8-0.6,1.3-1.4,1.3c-1.8,0-3.5,0.1-5.3,0c-0.8,0-1.4-0.6-1.4-1.6
		C491.8,224.3,491.7,222.8,491.7,221.2z"/>
	<path class="st0" d="M543.4,221.2c0,1.4,0,2.9,0,4.3c0,1.5-0.5,1.9-2,1.9c-1.4,0-2.9,0-4.3,0c-1.2,0-1.7-0.5-1.7-1.6
		c0-2.9,0-5.8,0-8.7c0-1,0.6-1.4,1.4-1.6c0.3-0.1,0.6,0,0.9,0c1.8,0,3.7,0.1,5.5,0.1c0.1,0,0.2,0.1,0.2,0.2
		C543.4,217.7,543.4,219.5,543.4,221.2C543.4,221.2,543.4,221.2,543.4,221.2z"/>
</g>
<g>
	<path class="st1" d="M645.7,57.5c8.2,0,16.5,0,24.9,0c-20.7,35.4-41.3,70.7-61.9,106.1c-0.2-0.3-0.3-0.4-0.4-0.6
		c-3.8-6.5-7.6-13.1-11.4-19.6c-6-10.2-11.9-20.4-17.9-30.6c-0.7-1.3-1.5-2.5-2.2-3.8c-4.3-7.4-8.6-14.8-13-22.2
		c-2.5-4.3-5-8.7-7.6-13.1c-3-5.2-6.1-10.4-9.1-15.6c-0.1-0.2-0.2-0.3-0.3-0.6c8.4,0,16.6,0,24.9,0c0.1,0.2,0.1,0.3,0.2,0.5
		c0.7,1.2,1.3,2.3,2,3.5c1.3,2.1,2.6,4.2,3.8,6.4c2.4,4.1,4.8,8.2,7.1,12.3c2.4,4.1,4.7,8.1,7.1,12.2c1.8,3,3.6,6,5.4,9
		c0.5,0.9,1.1,1.9,1.6,2.8c2.9,4.9,5.7,9.9,8.6,14.8c0.4,0.7,0.8,1.3,1.2,2.1c0.2-0.3,0.3-0.5,0.4-0.6c2.7-4.7,5.5-9.3,8.2-14
		c3.4-5.8,6.7-11.5,10-17.3c3.4-5.9,6.9-11.8,10.4-17.7c2.6-4.5,5.2-9,7.9-13.5C645.6,57.9,645.6,57.7,645.7,57.5z"/>
	<path class="st0" d="M645.7,57.5c0,0.2,0,0.3-0.1,0.5c-2.6,4.5-5.2,9-7.9,13.5c-3.5,5.9-6.9,11.8-10.4,17.7
		c-3.4,5.8-6.7,11.5-10,17.3c-2.7,4.7-5.5,9.3-8.2,14c-0.1,0.2-0.2,0.4-0.4,0.6c-0.5-0.8-0.8-1.4-1.2-2.1c-2.9-4.9-5.7-9.9-8.6-14.8
		c-0.5-0.9-1.1-1.9-1.6-2.8c-1.8-3-3.6-6-5.4-9c-2.4-4.1-4.7-8.1-7.1-12.2c-2.4-4.1-4.7-8.2-7.1-12.3c-1.3-2.1-2.6-4.3-3.8-6.4
		c-0.7-1.1-1.3-2.3-2-3.5c-0.1-0.1-0.1-0.3-0.2-0.5c7.4,0,14.9,0,22.3,0c0.3,0,0.5,0.1,0.7,0.4c0.3,0.5,0.6,1,0.8,1.5
		c3.1,5.2,6.2,10.5,9.2,15.7c1.3,2.1,2.5,4.3,3.7,6.4c0.1,0.1,0.2,0.2,0.3,0.4c0.5-0.8,1-1.6,1.4-2.4c2.1-3.6,4.2-7.2,6.3-10.8
		c2.1-3.6,4.3-7.3,6.4-10.9c0.2-0.3,0.3-0.4,0.7-0.4C630.8,57.5,638.2,57.5,645.7,57.5z"/>
</g>
<path class="st0" d="M683.4,281.2c0.8,0.2,1.2-0.3,1.6-0.8c3.4-3.5,6.9-6.9,10.3-10.3c0.4,0,0.6,0,1.1,0c0.5,0.6,1.1,1.4,1.6,2.1
	c0.8,1,0,2.4,0.8,3.7c0.6,1,0.1,2.4,0.6,3.6c0.6,1.5,0.4,3.3,0.7,5c0.1,0.9,0.4,1.7,0.5,2.5c0.1,0.8,0.2,1.5,0.5,2.3
	c0.5,1.6,0.4,3.3,0.7,5c0.3,1.8,0.5,3.6,1,5.4c0.4,1.2-0.2,2.7,0.7,3.9c0,3,0.8,6,1.2,8.9c0.4,2.6,0.5,5.3,1.5,7.9
	c0.5,1.3,0.3,2.8,0.5,4.4c-1.4,0.9-3,2-4.7,2.9c-3,1.5-5.8,3.3-8.8,4.9c-2.5,1.3-5,2.7-7.4,4.1c-2.5,1.4-5.1,2.5-7.4,4.2
	c-1,0.7-2.3,1.1-3.8,1.9c-1.9,0.4-3.8-0.3-5.6-1.4c-2.1-1.3-4.5-2.2-6.5-3.6c-2.1-1.4-4.4-2.3-6.5-3.8c-2-1.4-4.4-2.2-6.6-3.4
	c-3.2-1.8-6.4-3.8-9.6-5.6c0-0.6-0.6-1.3,0.4-1.5c0.1,0.2,0.1,0.3,0.2,0.6c3.3-3.2,6.4-6.5,9.9-9.4c2-1.7,3.6-3.9,5.4-5.7
	c6.4-6.6,12.8-13.2,19.7-19.2c0.1,0,0.2,0,0.3,0c0.2-0.2,0.4-0.4,0.6-0.6s0.4-0.4,0.6-0.6c2.2-2.1,4.3-4.1,6.4-6.2
	C683.4,282,683.4,281.5,683.4,281.2z"/>
<path class="st2" d="M683.4,281.2c-0.1,0.3,0,0.8-0.2,1c-2.1,2.1-4.3,4.1-6.4,6.2c-1.3-1.5-2.4-3.2-3.5-4.9c-1.3-2-2.7-4-3.9-6.1
	c-0.7-1.2-1.5-2.1-2.8-3.1c-1.1,1.9-2.2,3.5-3.1,5.2c-1.4,2.6-2.4,5.5-4,8c-2.2,3.5-3.9,7.3-6,10.8c-1.3,2.2-2,4.8-3.4,6.9
	c-2.2,3.3-3.6,7-5.7,10.4c-1.3,2.1-2.6,4.2-3.4,6.6c-0.1,0.3-0.5,0.4-0.8,0.6c0-1.2,0-2.3,0.5-3.4c0.4-0.9-0.3-2.2,0.6-3.1
	c-0.3-1.6,0.4-3,0.5-4.5c0.1-1.1,0-2.1,0.5-3.1c0.4-0.8-0.3-2,0.5-2.8c0.2-0.2,0-0.7,0.1-1.1c0-1.1-0.1-2.1,0.5-3.1
	c0.5-0.9,0-2,0.5-3.1c0.6-1.5,0.4-3.3,0.7-5c0.3-1.8,0.4-3.6,1-5.4c0.2-0.7,0-1.5,0.1-2.2c0.1-0.7,0.4-1.3,0.5-2
	c0.2-1.8,0.1-3.6,0.6-5.3c0.9-2.8,0.7-5.7,1.5-8.5c0.4-1.4,0.3-3,0.5-4.5c0.4-2.8,1.3-5.5,1.2-8.4c1-1.3,0.4-2.8,0.6-4.1
	c0.5-0.5,0.9-0.9,1.4-1.4c0.4,0,0.9,0,1.4,0c0.2,0.1,0.4,0.1,0.5,0.2c0.4,0.6,0.9,1,1.2,1.7c2.9,5,5.5,10.1,8.3,15.1
	c0.9,1.7,2,3.4,3,5.3c1.6-3,3-5.8,4.7-8.9c0.8-0.3,1.9-0.6,3-1c0.5,0.8,1,1.4,1.4,2.1c2.6,4.6,5.1,9.1,7.2,13.9
	C683,280.6,683.3,280.9,683.4,281.2z"/>
<path class="st3" d="M640.2,322.7c0.3-0.2,0.8-0.3,0.8-0.6c0.8-2.4,2.1-4.5,3.4-6.6c2-3.4,3.4-7.1,5.7-10.4c1.4-2.1,2.1-4.7,3.4-6.9
	c2.1-3.5,3.8-7.3,6-10.8c1.6-2.5,2.6-5.4,4-8c0.9-1.7,2-3.4,3.1-5.2c1.2,1,2.1,1.9,2.8,3.1c1.2,2.1,2.6,4.1,3.9,6.1
	c1.1,1.7,2.2,3.4,3.5,4.9c-0.2,0.2-0.4,0.4-0.6,0.6s-0.4,0.4-0.6,0.6c-0.1,0-0.2,0-0.3,0c-6.9,6.1-13.3,12.6-19.7,19.2
	c-1.8,1.9-3.4,4.1-5.4,5.7c-3.5,2.9-6.6,6.2-9.9,9.4c-0.1-0.3-0.2-0.4-0.2-0.6C640.2,323.1,640.2,322.9,640.2,322.7z"/>
<path class="st4" d="M676.2,288.9c0.2-0.2,0.4-0.4,0.6-0.6C676.6,288.6,676.4,288.8,676.2,288.9z"/>
<path class="st4" d="M675.7,289.5c0.2-0.2,0.4-0.4,0.6-0.6C676.1,289.1,675.9,289.3,675.7,289.5z"/>
<path class="st1" d="M727.5,169.7c1.2,0.1,2.3,0.1,3.8,0.2c-11.1,19.2-22.1,38.1-33.2,57.4c-11.1-19.2-22.1-38.1-33.1-57.2
	c1.5-0.2,2.8-0.4,4.1-0.6c1.3,0.1,2.7,0.2,4,0.3c1.3,0,2.6-0.1,3.8,0.1c0.6,0.1,1.4,0.5,1.8,1c1.1,1.6,2.1,3.4,3,5.1
	c5.1,8.9,10.3,17.8,15.4,26.7c0.2,0.4,0.6,0.8,1.1,1.3c0.4-0.6,0.7-1.1,0.9-1.5c1-1.7,1.9-3.4,2.9-5.1c4.9-8.5,9.9-17,14.8-25.6
	c0.9-1.5,1.8-2.4,3.6-2.1c0.7,0.1,1.5,0,2.3,0C724.4,169.7,726,169.7,727.5,169.7z"/>
<path class="st0" d="M728.2,160c0.5-0.9,1-1.8,1.6-2.8c-21.2,0-42.1,0-63.3,0c1.7,2.9,3.2,5.7,4.9,8.7c-1.6,0-2.8,0-4.4,0
	c0.5,0.7,0.7,1.2,1,1.6c0.4,0.7,0.7,1.4,1.1,2c1.3,0.1,2.7,0.2,4,0.3c1.3,0,2.6-0.1,3.8,0.1c0.6,0.1,1.4,0.5,1.8,1
	c1.1,1.6,2.1,3.4,3,5.1c5.1,8.9,10.3,17.8,15.4,26.7c0.2,0.4,0.6,0.8,1.1,1.3c0.4-0.6,0.7-1.1,0.9-1.5c1-1.7,1.9-3.4,2.9-5.1
	c4.9-8.5,9.9-17,14.8-25.6c0.9-1.5,1.8-2.4,3.6-2.1c0.7,0.1,1.5,0,2.3,0c1.6,0,3.2,0,4.8,0c0.7-1.2,1.3-2.4,2.1-3.8
	c-1.7,0-3.2,0-4.6,0C726.1,163.9,727.2,162,728.2,160z M703.9,185.6c-2.2,0.4-4.5,0.4-6.7,0.5c-2,0.1-4.1,0-6.1,0
	c-0.9,0-1.2-0.3-1.2-1.2c0-6.8,0-13.5,0-20.3c0-0.9,0.3-1.2,1.2-1.2c3.4,0,6.8,0,10.2,0c0.9,0,1.8,0.2,2.6,0.5
	c2,0.6,3.4,1.9,3.7,4.1c0.3,2.3-0.3,4.2-2.4,5.5c-0.1,0.1-0.2,0.2-0.3,0.2c0,0,0,0.1-0.1,0.3c2,0.7,3.3,2.1,3.7,4.2
	C709.3,181.7,707.5,184.9,703.9,185.6z"/>
<path class="st0" d="M698.2,175.8c1.1,0,2.3-0.1,3.4,0c2,0.2,3.1,1.4,3.1,3.4c0,2-1,3.3-3,3.5c-2.3,0.1-4.6,0.1-6.9,0
	c-0.3,0-0.8-0.5-0.9-0.8c-0.1-1.8-0.1-3.5,0-5.3c0-0.3,0.6-0.8,0.9-0.9C696,175.7,697.1,175.8,698.2,175.8
	C698.2,175.8,698.2,175.8,698.2,175.8z"/>
<path class="st0" d="M697.7,172.9c-1,0-2,0.1-2.9,0c-0.4,0-0.9-0.6-0.9-0.9c-0.1-1.5-0.1-2.9,0-4.4c0-0.3,0.6-0.9,0.9-0.9
	c2-0.1,4.1-0.1,6.1,0c1.9,0.1,2.7,1.1,2.8,2.9c0,1.8-1,3.1-2.8,3.3C699.9,173,698.8,172.9,697.7,172.9
	C697.7,172.9,697.7,172.9,697.7,172.9z"/>
<path class="st0" d="M534.5,308.1c-0.5-0.4-0.8-0.7-1.2-1c-1.8-1.3-3.6-2.5-5.3-3.9c-1.3-1-2.4-2.3-3.4-3.6
	c-1.6-2.1-1.8-4.5-0.6-6.9c1.3-2.7,3.2-4.9,5.6-6.7c5-3.9,10.5-6.7,16.8-7.8c3.2-0.6,6.4-0.5,9.5,0.8c3.4,1.4,4.9,4.4,4.1,7.9
	c-0.7,3.2-2.5,5.7-5.1,7.6c-4.1,3-8.8,4.1-13.9,3.3c-1.6-0.2-2.9-1-3.8-2.4c-0.2-0.4-0.3-0.8-0.4-1.2c0.1-0.1,0.2-0.1,0.3-0.2
	c0.2,0.1,0.5,0.2,0.6,0.3c1.7,1.4,3.6,1.7,5.7,1.5c4.5-0.5,8.4-2.1,11.3-5.6c0.9-1.1,1.6-2.4,2.1-3.8c0.7-1.9-0.2-3.5-2.1-4.3
	c-2.1-0.9-4.3-0.9-6.4-0.6c-7,1-13,4.1-18,9.1c-1.9,1.9-3.2,4.3-2.1,7.1c0.6,1.4,1.7,2.7,2.8,3.8c1.7,1.6,3.6,3,5.5,4.5
	c0.2,0.2,0.8,0.2,1.1,0.1c2.2-1.3,4.7-2.2,6.5-4.3c0.7-0.8,1.9-1.4,2.9-1.8c1.6-0.6,2.7,0.2,2.8,2c0,0.4,0,0.8,0.1,1.2
	c1.9,0.4,2,0.6,1.5,2.4c-0.4,1.5-0.7,2.9-1.1,4.4c-0.1,0.4-0.1,0.9,0.2,1.4c0.2-0.3,0.4-0.7,0.5-1c1.7-3.9,3.4-7.8,5-11.7
	c0.4-0.9,2.9-1.5,3.5-0.6c0.2,0.3,0.1,0.9,0,1.3c-0.5,1.8-0.6,3.6,0.6,5.6c0.5-0.9,1-1.5,1.3-2.3c0.8-1.8,1.7-3.6,2.4-5.4
	c0.5-1.1,2.6-1.9,3.6-1c0.2,0.2,0.2,0.9,0.1,1.3c-0.5,1.9-0.6,3.7,0.3,5.5c0.4,0.8,0.8,1,1.6,0.7c2.7-1,5.4-1.1,8-0.1
	c2.4,0.9,3.9,2.6,4.3,5.2c0.2,1.7-0.8,3.5-2.4,4.1c-0.2,0.1-0.5,0.1-1,0.1c0.2-0.4,0.3-0.6,0.5-0.8c2-1.8,2-4.1-0.3-5.7
	c-2.1-1.5-4.6-1.7-7.1-1.5c-0.2,0-0.4,0.1-0.7,0.1c-1.6,0.3-1.7,0.3-1.4,2c0.3,2.2-0.9,3.5-2.5,4.5c-0.7,0.5-1.6,0.8-2.4,1
	c-1.1,0.3-1.9-0.3-2-1.5c0-1.8,0.9-3.2,2.1-4.3c1-0.9,1.2-1.7,0.5-2.8c-0.4-0.7-0.6-1.6-0.9-2.6c-1.1,1.8-2.1,3.5-3.1,5.3
	c-0.1,0.3,0,0.7,0.1,1.1c1.1,3.9-2.1,7.5-6.2,6.8c-1.1-0.2-1.4-1-0.7-2c0.9-1.2,1.8-2.3,2.8-3.4c0.9-1,1.1-1.8,0.4-3
	c-0.5-0.8-0.7-1.8-1.1-2.9c-0.2,0.3-0.3,0.6-0.4,0.8c-1.5,3.1-3,6.2-4.6,9.3c-0.3,0.6-0.7,1.1-1.2,1.5c-1.1,1-2.3,0.6-2.7-0.8
	c-0.1-0.6-0.2-1.2-0.3-2.1c-0.6,1.1-1,1.9-1.5,2.7c-0.5,0.9-1.2,1.6-2.4,1.5c-1.2-0.1-1.7-0.9-2.1-1.8c-1-2-1-4.2-0.6-6.4
	c0.1-0.4,0.2-0.8,0.3-1.5c-1,0.6-1.8,1-2.6,1.5c-0.2,0.1-0.1,0.7,0,1.1c1.6,5.5-1.9,11.3-7.5,12.3c-1.8,0.3-3.8,0.5-5-1.3
	c-1.3-1.9-1-4,0.2-5.8c0.9-1.3,2.2-2.4,3.4-3.4c1.2-0.9,2.6-1.6,3.9-2.4C533.8,308.5,534.1,308.3,534.5,308.1z M536,309.5
	c-2.6,1.6-5.1,3-6.6,5.7c-0.2,0.5-0.4,1-0.5,1.5c-0.2,1.3,0.5,1.9,1.8,1.8C534.3,318,537.3,313.2,536,309.5z M544,312.7
	c0.1,0,0.3,0,0.4,0c0.3-0.4,0.6-0.8,0.8-1.3c0.9-2.3,1.8-4.6,2.7-6.9c0.2-0.6,0-1.2,0-1.9c-0.6,0.3-1.3,0.5-1.7,0.9
	c-1.8,2.1-2.7,4.6-2.6,7.3C543.6,311.5,543.8,312.1,544,312.7z M564.5,310.6c0.1,0.1,0.2,0.2,0.3,0.2c1.6-0.4,2.4-1.9,1.7-3.6
	C565.8,308.4,565.2,309.5,564.5,310.6z M556.8,312.5c1.1-0.4,1.9-1.1,2-2.3C558.1,311,557.4,311.8,556.8,312.5z"/>
<g>
	<path class="st0" d="M601.6,219.7c5.6,0,11.3,0,16.9,0c0.3,0,0.7,0,1,0c0.3,0,0.4,0.2,0.4,0.4c0,0.2,0,0.4,0,0.6
		c0,7.9,0,15.9,0,23.8c0,1,0,1-1.1,1c-6.2,0-12.3,0-18.5,0c-5.3,0-10.6,0-15.9,0c-0.3,0-0.6,0-0.9,0c-0.3,0-0.4-0.2-0.4-0.4
		c0-0.2,0-0.4,0-0.6c0-7.9,0-15.9,0-23.8c0-1,0-1,1.1-1C590,219.7,595.8,219.7,601.6,219.7z M590.3,232.5c0,2,0,4,0,6
		c0,0.7,0,0.7,0.7,0.7c0.5,0,1-0.1,1.5-0.1c0-0.5,0-0.9,0.1-1.4c0-0.9,0-1.8,0-2.7c1,0,2-0.1,3-0.1c0.4,0,0.5,0.2,0.4,0.5
		c0,0.9,0,1.8,0,2.7c0,1.1,0,1.1,1.1,1.1c0.1,0,0.2,0,0.3,0c0.8,0,0.9,0,0.9-0.8c0-2.9,0-5.7,0-8.6c0-1.1,0-2.2,0-3.3
		c0-0.3,0-0.5-0.4-0.5c-2.4,0-4.8,0-7.2,0c-0.4,0-0.5,0.2-0.5,0.5C590.3,228.5,590.3,230.5,590.3,232.5z M600.3,232.6
		c0,1.8,0,3.6,0,5.4c0,1.2,0,1.2,1.2,1.2c1.1,0,1.1,0,1.1-1.1c0-0.4,0-0.9,0-1.3c0-0.9,0.1-1,1.1-1c1.5,0,3,0,4.4,0
		c0.3,0,0.5,0,0.5-0.4c0-3,0-5.9,0-8.9c0-0.3,0-0.5-0.4-0.5c-2.5,0-5.1,0-7.6,0c-0.3,0-0.4,0.1-0.4,0.4
		C600.3,228.5,600.3,230.5,600.3,232.6z M613,232.6c0-1.5,0-3.1,0-4.6c0-0.7-0.1-1.3-0.1-2c-0.7,0-1.3,0-2-0.1
		c-0.5,0-0.5,0.2-0.5,0.6c0,3.9,0,7.7,0,11.6c0,0.9,0.1,1,1.1,1c0.3,0,0.6,0,0.9,0c0.5,0,0.7,0,0.7-0.6
		C612.9,236.6,613,234.6,613,232.6z"/>
	<path class="st0" d="M601.3,217.4c-5.8,0-11.6,0-17.3,0c-0.9,0-0.9,0-0.9-0.8c0-0.1,0-0.3,0-0.4c0-0.8,0-0.8,0.7-0.8
		c2.5,0,5.1,0,7.6,0c3.2,0,6.5,0,9.7,0c0.4,0,0.8-0.1,1.1-0.4c1.9-1.9,3.8-3.6,5.7-5.5c0.5-0.5,1-0.7,1.7-0.7c3.2,0,6.3,0,9.5,0
		c0.4,0,0.6,0,0.6,0.5c0,2.5,0,5.1,0,7.6c0,0.5-0.2,0.5-0.6,0.5C613.3,217.4,607.3,217.4,601.3,217.4z"/>
	<path class="st0" d="M592,213.1c-2.7,0-5.3,0-8,0c-0.9,0-0.9,0-0.9-0.9c0-1,0-1.9,0-2.9c0-0.5,0.2-0.5,0.6-0.5c1.1,0,2.2,0,3.3,0
		c5.8,0,11.6,0,17.5,0c0.2,0,0.5,0,0.7,0.1c-0.2,0.2-0.3,0.4-0.5,0.6c-1,1.1-2.1,2.1-3.1,3.1c-0.4,0.4-0.7,0.5-1.2,0.5
		C597.6,213.1,594.8,213.1,592,213.1z"/>
	<path class="st0" d="M596,230.5c0,0.7,0,1.3,0,2c-0.7,0-1.4,0.1-2.1,0.1c-0.2,0-0.5,0.1-0.7,0c-0.2-0.1-0.5-0.3-0.6-0.5
		c-0.1-0.2,0-0.6,0-0.8c0-0.9,0-1.9,0.1-2.8c1,0,2-0.1,3-0.1c0.3,0,0.4,0,0.4,0.4C596,229.3,596,229.9,596,230.5
		C596,230.5,596,230.5,596,230.5z"/>
	<path class="st0" d="M602.6,230.9c0,0,0-0.1,0-0.1c0-0.8,0.1-1.6,0.1-2.4c0.8,0,1.6,0,2.4,0c0.2,0,0.4,0,0.6,0
		c0.1,0,0.3,0.2,0.3,0.3c0,1.5,0,3,0,4.6c0,0.1-0.1,0.3-0.2,0.3c-0.2,0-0.4,0-0.6,0c-0.9,0-1.7,0-2.6-0.1
		C602.7,232.6,602.6,231.7,602.6,230.9C602.6,230.9,602.6,230.9,602.6,230.9z"/>
</g>
<g>
	<path class="st5" d="M785.8,108.5v207.4h-19.4V108.5H785.8z"/>
	<path class="st6" d="M785.8,108H774v1h11.3v206.4H774v1h11.8c0.3,0,0.5-0.2,0.5-0.5V108.5C786.3,108.2,786.1,108,785.8,108z"/>
	<path class="st7" d="M793.1,148.2v127.9l-2.3,2.3h-2.3l0,0V145.9l0,0h2.3L793.1,148.2z"/>
	<path class="st7" d="M774,102.6h9.8l1.7,1.7v1.7H774V102.6z"/>
	<path class="st7" d="M774,321.9h9.8l1.7-1.7v-1.7H774V321.9z"/>
</g>
<g>
	<path class="st5" d="M429.5,316V108.6h19.4V316H429.5z"/>
	<path class="st6" d="M429.5,316.5h11.8v-1H430V109.1h11.3v-1h-11.8c-0.3,0-0.5,0.2-0.5,0.5V316C429,316.3,429.3,316.5,429.5,316.5z
		"/>
	<path class="st7" d="M422.2,276.3V148.4l2.3-2.3h2.3l0,0v132.5l0,0h-2.3L422.2,276.3z"/>
	<path class="st7" d="M441.3,321.9h-9.8l-1.7-1.7v-1.7h11.5V321.9z"/>
	<path class="st7" d="M441.3,102.6h-9.8l-1.7,1.7v1.7h11.5V102.6z"/>
</g>
<path class="st0" d="M24.9,62.5V43.1h5.8v19.4H24.9z"/>
<path class="st0" d="M36.4,57.6V46.1H47V48h-8.6v2.8h7v2h-7v4.8H36.4z M47.9,57.6v-7.1c0-0.6,0.2-1.1,0.6-1.5
	c0.4-0.4,0.9-0.6,1.5-0.6h5.2v1.9h-4.8c-0.3,0-0.4,0-0.5,0.1s-0.1,0.2-0.1,0.5v6.8h-1.9V57.6z M58.3,57.6c-0.6,0-1.1-0.2-1.5-0.6
	c-0.4-0.4-0.6-0.9-0.6-1.5v-5c0-0.6,0.2-1.1,0.6-1.5c0.4-0.4,0.9-0.6,1.5-0.6h5.1c0.6,0,1.1,0.2,1.5,0.6c0.4,0.4,0.6,0.9,0.6,1.5v5
	c0,0.6-0.2,1.1-0.6,1.5s-0.9,0.6-1.5,0.6H58.3z M58.7,55.7h4.5c0.3,0,0.4,0,0.5-0.1s0.1-0.2,0.1-0.5v-4.3c0-0.3,0-0.4-0.1-0.5
	s-0.2-0.1-0.5-0.1h-4.5c-0.3,0-0.4,0-0.5,0.1s-0.1,0.2-0.1,0.5v4.3c0,0.3,0,0.4,0.1,0.5C58.2,55.7,58.4,55.7,58.7,55.7z M67,57.6
	v-9.3h7.3c0.6,0,1.1,0.2,1.5,0.6c0.4,0.4,0.6,0.9,0.6,1.5v7.1h-1.9v-6.8c0-0.3,0-0.4-0.1-0.5s-0.2-0.1-0.5-0.1h-4.5
	c-0.3,0-0.4,0-0.5,0.1s-0.1,0.2-0.1,0.5v6.8H67V57.6z M80.2,57.6c-0.6,0-1.1-0.2-1.5-0.6c-0.4-0.4-0.6-0.9-0.6-1.5v-10H80v2.9h3.7
	v1.9H80v4.9c0,0.3,0,0.4,0.1,0.5s0.2,0.1,0.5,0.1h3.1v1.9h-3.5V57.6z M91.9,57.6c-0.6,0-1.1-0.2-1.5-0.6c-0.4-0.4-0.6-0.9-0.6-1.5
	v-0.8h1.9v0.4c0,0.3,0,0.4,0.1,0.5s0.2,0.1,0.5,0.1h6.5c0.3,0,0.4,0,0.5-0.1s0.1-0.2,0.1-0.5v-1.7c0-0.3,0-0.4-0.1-0.5
	s-0.2-0.1-0.5-0.1h-6.9c-0.6,0-1.1-0.2-1.5-0.6c-0.4-0.4-0.6-0.9-0.6-1.5v-2.4c0-0.6,0.2-1.1,0.6-1.5s0.9-0.6,1.5-0.6h7.2
	c0.6,0,1.1,0.2,1.5,0.6c0.4,0.4,0.6,0.9,0.6,1.5V49h-1.9v-0.4c0-0.3,0-0.4-0.1-0.5c0,0-0.2-0.1-0.4-0.1h-6.5c-0.3,0-0.4,0-0.5,0.1
	s-0.1,0.2-0.1,0.5v1.7c0,0.3,0,0.4,0.1,0.5s0.2,0.1,0.5,0.1h6.9c0.6,0,1.1,0.2,1.5,0.6c0.4,0.4,0.6,0.9,0.6,1.5v2.4
	c0,0.6-0.2,1.1-0.6,1.5s-0.9,0.6-1.5,0.6h-7.3C91.9,57.5,91.9,57.6,91.9,57.6z M105.1,57.6c-0.6,0-1.1-0.2-1.5-0.6
	c-0.4-0.4-0.6-0.9-0.6-1.5v-10h1.9v2.9h3.7v1.9h-3.7v4.9c0,0.3,0,0.4,0.1,0.5s0.2,0.1,0.5,0.1h3.1v1.9h-3.5V57.6z M112.2,57.6
	c-0.6,0-1.1-0.2-1.5-0.6c-0.4-0.4-0.6-0.9-0.6-1.5V52h7.5v-1.2c0-0.3,0-0.4-0.1-0.5s-0.2-0.1-0.5-0.1h-7v-1.9h7.3
	c0.6,0,1.1,0.2,1.5,0.6c0.4,0.4,0.6,0.9,0.6,1.5v7.1h-7.2C112.2,57.5,112.2,57.6,112.2,57.6z M112.6,55.7h5v-2H112v1.4
	c0,0.3,0,0.4,0.1,0.5S112.3,55.7,112.6,55.7z M122.5,61.3v-1.9h5.4c0.3,0,0.4,0,0.5-0.1c0.1-0.1,0.1-0.2,0.1-0.5v-1.2h-5.4
	c-0.6,0-1.1-0.2-1.5-0.6c-0.4-0.4-0.6-0.9-0.6-1.5v-5c0-0.6,0.2-1.1,0.6-1.5s0.9-0.6,1.5-0.6h5.2c0.6,0,1.1,0.2,1.5,0.6
	c0.4,0.4,0.6,0.9,0.6,1.5v8.7c0,0.6-0.2,1.1-0.6,1.5c-0.4,0.4-0.9,0.6-1.5,0.6H122.5z M123.4,55.7h4.5c0.3,0,0.4,0,0.5-0.1
	c0.1-0.1,0.1-0.2,0.1-0.5v-4.3c0-0.3,0-0.4-0.1-0.5s-0.2-0.1-0.5-0.1h-4.5c-0.3,0-0.4,0-0.5,0.1s-0.1,0.2-0.1,0.5v4.3
	c0,0.3,0,0.4,0.1,0.5C123,55.7,123.2,55.7,123.4,55.7z M133.9,57.6c-0.6,0-1.1-0.2-1.5-0.6c-0.4-0.4-0.6-0.9-0.6-1.5v-5
	c0-0.6,0.2-1.1,0.6-1.5c0.4-0.4,0.9-0.6,1.5-0.6h5.1c0.6,0,1.1,0.2,1.5,0.6c0.4,0.4,0.6,0.9,0.6,1.5V54h-7.5v1.2
	c0,0.3,0,0.4,0.1,0.5s0.2,0.1,0.5,0.1h6.9v1.9h-7.2L133.9,57.6L133.9,57.6z M133.6,52.2h5.6v-1.4c0-0.3,0-0.4-0.1-0.5
	s-0.2-0.1-0.5-0.1h-4.5c-0.3,0-0.4,0-0.5,0.1s-0.1,0.2-0.1,0.5v1.4H133.6z"/>
<path class="st0" d="M24.9,172.4V153h5.8v19.4H24.9z"/>
<path class="st0" d="M36.4,167.5V156h8.9c0.6,0,1.1,0.2,1.5,0.6c0.4,0.4,0.6,0.9,0.6,1.5v2.3c0,0.2,0,0.3,0,0.4
	c0,0.1-0.1,0.2-0.1,0.4c0.2,0.3,0.3,0.5,0.5,0.8s0.2,0.5,0.2,0.8v2.5c0,0.6-0.2,1.1-0.6,1.5c-0.4,0.4-0.9,0.6-1.5,0.6L36.4,167.5
	L36.4,167.5z M38.9,165.6h6.5c0.3,0,0.4,0,0.5-0.1s0.1-0.2,0.1-0.5v-1.8c0-0.3,0-0.4-0.1-0.5s-0.2-0.1-0.5-0.1h-6.5
	c-0.3,0-0.4,0-0.5,0.1s-0.1,0.2-0.1,0.5v1.8c0,0.3,0,0.4,0.1,0.5S38.7,165.6,38.9,165.6z M38.9,160.7h6c0.3,0,0.4,0,0.5-0.1
	s0.1-0.2,0.1-0.5v-1.6c0-0.3,0-0.4-0.1-0.5s-0.1,0-0.4,0h-6c-0.3,0-0.4,0-0.5,0.1s-0.1,0.2-0.1,0.5v1.6c0,0.3,0,0.4,0.1,0.5
	S38.7,160.7,38.9,160.7z M51.8,167.5c-0.6,0-1.1-0.2-1.5-0.6c-0.4-0.4-0.6-0.9-0.6-1.5v-3.5h7.5v-1.2c0-0.3,0-0.4-0.1-0.5
	s-0.2-0.1-0.5-0.1h-7v-1.9h7.3c0.6,0,1.1,0.2,1.5,0.6c0.4,0.4,0.6,0.9,0.6,1.5v7.1L51.8,167.5L51.8,167.5z M52.1,165.6h5v-2h-5.6
	v1.4c0,0.3,0,0.4,0.1,0.5C51.7,165.6,51.9,165.6,52.1,165.6z M62.5,167.5c-0.6,0-1.1-0.2-1.5-0.6c-0.4-0.4-0.6-0.9-0.6-1.5v-5
	c0-0.6,0.2-1.1,0.6-1.5c0.4-0.4,0.9-0.6,1.5-0.6h7.3v1.9h-6.9c-0.3,0-0.4,0-0.5,0.1s-0.1,0.2-0.1,0.5v4.3c0,0.3,0,0.4,0.1,0.5
	s0.2,0.1,0.5,0.1h6.9v1.9L62.5,167.5L62.5,167.5z M71.1,167.5v-12.3H73v6.7h1.9l3.4-3.7h2.1v0.5l-3.8,4.2l3.8,4.2v0.5h-2.1l-3.4-3.7
	H73v3.7L71.1,167.5L71.1,167.5z M88.4,167.5c-0.6,0-1.1-0.2-1.5-0.6c-0.4-0.4-0.6-0.9-0.6-1.5v-0.8h1.9v0.4c0,0.3,0,0.4,0.1,0.5
	s0.2,0.1,0.5,0.1h6.5c0.3,0,0.4,0,0.5-0.1s0.1-0.2,0.1-0.5v-1.7c0-0.3,0-0.4-0.1-0.5s-0.2-0.1-0.5-0.1h-6.9c-0.6,0-1.1-0.2-1.5-0.6
	c-0.4-0.4-0.6-0.9-0.6-1.5v-2.4c0-0.6,0.2-1.1,0.6-1.5s0.9-0.6,1.5-0.6h7.2c0.6,0,1.1,0.2,1.5,0.6c0.4,0.4,0.6,0.9,0.6,1.5v0.8h-1.9
	v-0.4c0-0.3,0-0.4-0.1-0.5s-0.2-0.1-0.5-0.1h-6.5c-0.3,0-0.4,0-0.5,0.1s-0.1,0.2-0.1,0.5v1.7c0,0.3,0,0.4,0.1,0.5s0.2,0.1,0.5,0.1
	h6.9c0.6,0,1.1,0.2,1.5,0.6s0.6,0.9,0.6,1.5v2.4c0,0.6-0.2,1.1-0.6,1.5s-0.9,0.6-1.5,0.6H88.4z M101.6,167.5c-0.6,0-1.1-0.2-1.5-0.6
	c-0.4-0.4-0.6-0.9-0.6-1.5v-10h1.9v2.9h3.7v1.9h-3.7v4.9c0,0.3,0,0.4,0.1,0.5s0.2,0.1,0.5,0.1h3.1v1.9L101.6,167.5L101.6,167.5z
	 M108.7,167.5c-0.6,0-1.1-0.2-1.5-0.6c-0.4-0.4-0.6-0.9-0.6-1.5v-3.5h7.5v-1.2c0-0.3,0-0.4-0.1-0.5s-0.2-0.1-0.5-0.1h-7v-1.9h7.3
	c0.6,0,1.1,0.2,1.5,0.6c0.4,0.4,0.6,0.9,0.6,1.5v7.1L108.7,167.5L108.7,167.5z M109.1,165.6h5v-2h-5.6v1.4c0,0.3,0,0.4,0.1,0.5
	C108.6,165.6,108.8,165.6,109.1,165.6z M119,171.2v-1.9h5.4c0.3,0,0.4,0,0.5-0.1s0.1-0.2,0.1-0.5v-1.2h-5.4c-0.6,0-1.1-0.2-1.5-0.6
	c-0.4-0.4-0.6-0.9-0.6-1.5v-5c0-0.6,0.2-1.1,0.6-1.5s0.9-0.6,1.5-0.6h5.2c0.6,0,1.1,0.2,1.5,0.6c0.4,0.4,0.6,0.9,0.6,1.5v8.7
	c0,0.6-0.2,1.1-0.6,1.5s-0.9,0.6-1.5,0.6H119z M119.9,165.6h4.5c0.3,0,0.4,0,0.5-0.1s0.1-0.2,0.1-0.5v-4.3c0-0.3,0-0.4-0.1-0.5
	s-0.2-0.1-0.5-0.1h-4.5c-0.3,0-0.4,0-0.5,0.1s-0.1,0.2-0.1,0.5v4.3c0,0.3,0,0.4,0.1,0.5S119.6,165.6,119.9,165.6z M130.3,167.5
	c-0.6,0-1.1-0.2-1.5-0.6c-0.4-0.4-0.6-0.9-0.6-1.5v-5c0-0.6,0.2-1.1,0.6-1.5c0.4-0.4,0.9-0.6,1.5-0.6h5.1c0.6,0,1.1,0.2,1.5,0.6
	c0.4,0.4,0.6,0.9,0.6,1.5v3.5H130v1.2c0,0.3,0,0.4,0.1,0.5s0.2,0.1,0.5,0.1h6.9v1.9L130.3,167.5L130.3,167.5z M130.1,162.1h5.6v-1.4
	c0-0.3,0-0.4-0.1-0.5s-0.2-0.1-0.5-0.1h-4.5c-0.3,0-0.4,0-0.5,0.1s-0.1,0.2-0.1,0.5v1.4H130.1z"/>
<path class="st0" d="M25.4,294.8v-21h6.3v21H25.4z"/>
<path class="st0" d="M37.9,289.5V277H48c0.6,0,1.2,0.2,1.7,0.7c0.5,0.4,0.7,1,0.7,1.6v7.8c0,0.6-0.2,1.2-0.7,1.7s-1,0.7-1.7,0.7
	L37.9,289.5L37.9,289.5z M40.6,287.4h7.1c0.3,0,0.5,0,0.5-0.1c0.1-0.1,0.1-0.2,0.1-0.5v-7.1c0-0.3,0-0.5-0.1-0.5
	c-0.1-0.1-0.2-0.1-0.5-0.1h-7.1c-0.3,0-0.5,0-0.5,0.1c-0.1,0.1-0.1,0.2-0.1,0.5v7.1c0,0.3,0,0.5,0.1,0.5
	C40.1,287.4,40.3,287.4,40.6,287.4z M54.5,289.5c-0.6,0-1.2-0.2-1.6-0.7c-0.4-0.5-0.7-1-0.7-1.6v-3.7h8.1v-1.3c0-0.3,0-0.5-0.1-0.5
	c-0.1-0.1-0.2-0.1-0.5-0.1h-7.5v-2.1h7.9c0.6,0,1.2,0.2,1.6,0.7c0.5,0.4,0.7,1,0.7,1.6v7.7H54.5z M54.9,287.5h5.5v-2.1h-6.1v1.5
	c0,0.3,0,0.5,0.1,0.5C54.4,287.4,54.6,287.5,54.9,287.5z M66.6,289.5c-0.6,0-1.2-0.2-1.6-0.7s-0.7-1-0.7-1.6v-10.9h2.1v3.1h4v2.1h-4
	v5.3c0,0.3,0,0.5,0.1,0.5s0.2,0.1,0.5,0.1h3.4v2.1H66.6z M74.3,289.5c-0.6,0-1.2-0.2-1.6-0.7s-0.7-1-0.7-1.6v-3.7h8.1v-1.3
	c0-0.3,0-0.5-0.1-0.5s-0.2-0.1-0.5-0.1H72v-2.1h7.9c0.6,0,1.2,0.2,1.6,0.7c0.5,0.4,0.7,1,0.7,1.6v7.7H74.3z M74.7,287.5h5.5v-2.1
	h-6.1v1.5c0,0.3,0,0.5,0.1,0.5S74.4,287.5,74.7,287.5z M83.6,289.5v-13.3h2.1v3.3h5.8c0.6,0,1.2,0.2,1.6,0.7c0.4,0.4,0.7,1,0.7,1.6
	v5.4c0,0.6-0.2,1.2-0.7,1.6s-1,0.7-1.6,0.7L83.6,289.5L83.6,289.5z M86.3,287.5h4.8c0.3,0,0.5,0,0.5-0.1s0.1-0.2,0.1-0.5v-4.7
	c0-0.3,0-0.5-0.1-0.5s-0.2-0.1-0.5-0.1h-4.8c-0.3,0-0.5,0-0.5,0.1c-0.1,0.1-0.1,0.2-0.1,0.5v4.7c0,0.3,0,0.5,0.1,0.5
	C85.8,287.4,86,287.5,86.3,287.5z M97.3,289.5c-0.6,0-1.2-0.2-1.6-0.7s-0.7-1-0.7-1.6v-3.7h8.1v-1.3c0-0.3,0-0.5-0.1-0.5
	s-0.2-0.1-0.5-0.1H95v-2.1h7.9c0.6,0,1.2,0.2,1.6,0.7c0.5,0.4,0.7,1,0.7,1.6v7.7H97.3z M97.7,287.5h5.5v-2.1h-6.1v1.5
	c0,0.3,0,0.5,0.1,0.5S97.4,287.5,97.7,287.5z M108.9,289.5c-0.6,0-1.2-0.2-1.6-0.7c-0.5-0.5-0.7-1-0.7-1.6v-0.3h2.1v0.1
	c0,0.2,0,0.3,0.1,0.4s0.2,0.1,0.4,0.1h5.2c0.2,0,0.3,0,0.4-0.1s0.1-0.2,0.1-0.4v-1c0-0.2,0-0.3-0.1-0.4s-0.2-0.1-0.4-0.1H109
	c-0.6,0-1.2-0.2-1.6-0.7c-0.5-0.5-0.7-1-0.7-1.6v-1.4c0-0.6,0.2-1.2,0.7-1.6c0.5-0.5,1-0.7,1.6-0.7h5.6c0.6,0,1.2,0.2,1.7,0.7
	c0.5,0.4,0.7,1,0.7,1.6v0.3h-2.1V282c0-0.2,0-0.3-0.1-0.4s-0.2-0.1-0.4-0.1h-5.2c-0.2,0-0.3,0-0.4,0.1s-0.1,0.2-0.1,0.4v1
	c0,0.2,0,0.3,0.1,0.4s0.2,0.1,0.4,0.1h5.4c0.6,0,1.2,0.2,1.7,0.7c0.5,0.4,0.7,1,0.7,1.6v1.4c0,0.6-0.2,1.2-0.7,1.6
	c-0.5,0.5-1,0.7-1.7,0.7L108.9,289.5L108.9,289.5z M120.5,289.5c-0.6,0-1.2-0.2-1.6-0.7s-0.7-1-0.7-1.6v-5.4c0-0.6,0.2-1.2,0.7-1.6
	c0.5-0.5,1-0.7,1.6-0.7h5.6c0.6,0,1.2,0.2,1.6,0.7c0.5,0.4,0.7,1,0.7,1.6v3.8h-8.1v1.3c0,0.3,0,0.5,0.1,0.5s0.2,0.1,0.5,0.1h7.5v2.1
	L120.5,289.5L120.5,289.5z M120.3,283.6h6.1v-1.5c0-0.3,0-0.5-0.1-0.5s-0.2-0.1-0.5-0.1H121c-0.3,0-0.5,0-0.5,0.1s-0.1,0.2-0.1,0.5
	L120.3,283.6L120.3,283.6z M137.7,289.5c-0.6,0-1.2-0.2-1.6-0.7c-0.4-0.5-0.7-1-0.7-1.7v-3.4c0-0.3,0.1-0.5,0.3-0.8s0.5-0.4,0.9-0.5
	c-0.3-0.3-0.5-0.8-0.5-1.3v-1.8c0-0.7,0.2-1.2,0.7-1.6s1-0.7,1.6-0.7h6.6c0.6,0,1,0.2,1.5,0.6c0.4,0.4,0.7,0.8,0.8,1.3v1.2h-2.1
	v-0.5c0-0.3,0-0.5-0.1-0.5c-0.1-0.1-0.2-0.1-0.5-0.1h-5.8c-0.3,0-0.5,0-0.5,0.1c-0.1,0.1-0.1,0.2-0.1,0.5v1.8l7.6,3.8v-2h2.1v2.8
	l2.1,1.3v2l-2.4-1.4c-0.2,0.4-0.5,0.7-0.9,1c-0.4,0.2-0.8,0.4-1.2,0.4h-7.8L137.7,289.5L137.7,289.5z M138.1,287.5h6.3
	c0.2,0,0.3,0,0.4-0.1c0-0.1,0.2-0.1,0.3-0.2l-7-3.5l-0.3-0.1c-0.1,0-0.2,0-0.2,0.1c-0.1,0.1-0.1,0.3-0.1,0.6v2.5
	c0,0.3,0,0.5,0.1,0.6C137.6,287.4,137.8,287.5,138.1,287.5z M159.1,289.5c-0.6,0-1.2-0.2-1.6-0.7c-0.4-0.5-0.7-1-0.7-1.7v-0.8h2.1
	v0.5c0,0.3,0,0.5,0.1,0.5c0.1,0.1,0.2,0.1,0.5,0.1h7.1c0.3,0,0.5,0,0.5-0.1c0.1-0.1,0.1-0.2,0.1-0.5v-1.9c0-0.3,0-0.5-0.1-0.5
	s-0.2-0.1-0.5-0.1h-7.4c-0.6,0-1.2-0.2-1.6-0.7c-0.4-0.5-0.7-1-0.7-1.6v-2.6c0-0.6,0.2-1.2,0.7-1.6c0.5-0.5,1-0.7,1.6-0.7h7.8
	c0.6,0,1.2,0.2,1.6,0.7c0.5,0.4,0.7,1,0.7,1.6v0.8h-2.1v-0.5c0-0.3,0-0.5-0.1-0.5c-0.1-0.1-0.2-0.1-0.5-0.1h-7.1
	c-0.3,0-0.5,0-0.5,0.1c-0.1,0.1-0.1,0.2-0.1,0.5v1.9c0,0.3,0,0.5,0.1,0.5c0.1,0.1,0.2,0.1,0.5,0.1h7.5c0.6,0,1.2,0.2,1.6,0.7
	c0.5,0.5,0.7,1,0.7,1.6v2.6c0,0.6-0.2,1.2-0.7,1.7s-1,0.7-1.6,0.7H159.1z M173.4,289.5c-0.6,0-1.2-0.2-1.6-0.7
	c-0.4-0.5-0.7-1-0.7-1.6v-10.9h2.1v3.1h4v2.1h-4v5.3c0,0.3,0,0.5,0.1,0.5c0.1,0.1,0.2,0.1,0.5,0.1h3.4v2.1H173.4z M180.9,289.5
	c-0.6,0-1.2-0.2-1.6-0.7c-0.4-0.5-0.7-1-0.7-1.6v-5.4c0-0.6,0.2-1.2,0.7-1.6c0.5-0.5,1-0.7,1.6-0.7h5.6c0.6,0,1.2,0.2,1.6,0.7
	c0.5,0.4,0.7,1,0.7,1.6v5.4c0,0.6-0.2,1.2-0.7,1.6c-0.4,0.5-1,0.7-1.6,0.7H180.9z M181.3,287.5h4.8c0.3,0,0.5,0,0.5-0.1
	s0.1-0.2,0.1-0.5v-4.7c0-0.3,0-0.5-0.1-0.5s-0.2-0.1-0.5-0.1h-4.8c-0.3,0-0.5,0-0.5,0.1s-0.1,0.2-0.1,0.5v4.7c0,0.3,0,0.5,0.1,0.5
	S181,287.5,181.3,287.5z M190.3,289.5v-7.7c0-0.6,0.2-1.2,0.7-1.6c0.5-0.5,1-0.7,1.6-0.7h5.6v2.1H193c-0.3,0-0.5,0-0.5,0.1
	s-0.1,0.2-0.1,0.5v7.4L190.3,289.5L190.3,289.5z M201.8,289.5c-0.6,0-1.2-0.2-1.6-0.7c-0.4-0.5-0.7-1-0.7-1.6v-3.7h8.1v-1.3
	c0-0.3,0-0.5-0.1-0.5s-0.2-0.1-0.5-0.1h-7.5v-2.1h7.9c0.6,0,1.2,0.2,1.6,0.7c0.5,0.4,0.7,1,0.7,1.6v7.7H201.8z M202.1,287.5h5.5
	v-2.1h-6.1v1.5c0,0.3,0,0.5,0.1,0.5S201.8,287.5,202.1,287.5z M212.9,293.5v-2.1h5.8c0.3,0,0.5,0,0.5-0.1c0.1-0.1,0.1-0.2,0.1-0.5
	v-1.3h-5.8c-0.6,0-1.2-0.2-1.6-0.7c-0.5-0.5-0.7-1-0.7-1.6v-5.4c0-0.6,0.2-1.2,0.7-1.6c0.5-0.5,1-0.7,1.6-0.7h5.6
	c0.6,0,1.2,0.2,1.6,0.7c0.4,0.4,0.7,1,0.7,1.6v9.4c0,0.6-0.2,1.2-0.7,1.6c-0.4,0.5-1,0.7-1.6,0.7H212.9z M213.9,287.5h4.8
	c0.3,0,0.5,0,0.5-0.1c0.1-0.1,0.1-0.2,0.1-0.5v-4.7c0-0.3,0-0.5-0.1-0.5c-0.1-0.1-0.2-0.1-0.5-0.1h-4.8c-0.3,0-0.5,0-0.5,0.1
	c-0.1,0.1-0.1,0.2-0.1,0.5v4.7c0,0.3,0,0.5,0.1,0.5C213.4,287.4,213.6,287.5,213.9,287.5z M225.2,289.5c-0.6,0-1.2-0.2-1.6-0.7
	c-0.4-0.5-0.7-1-0.7-1.6v-5.4c0-0.6,0.2-1.2,0.7-1.6c0.5-0.5,1-0.7,1.6-0.7h5.6c0.6,0,1.2,0.2,1.6,0.7c0.5,0.4,0.7,1,0.7,1.6v3.8
	H225v1.3c0,0.3,0,0.5,0.1,0.5s0.2,0.1,0.5,0.1h7.5v2.1L225.2,289.5L225.2,289.5z M224.9,283.6h6.1v-1.5c0-0.3,0-0.5-0.1-0.5
	s-0.2-0.1-0.5-0.1h-4.8c-0.3,0-0.5,0-0.5,0.1s-0.1,0.2-0.1,0.5L224.9,283.6L224.9,283.6z"/>
<path class="st8" d="M36.7,323.1v-8.7h5.8v1.7h-3.8v2h3.2v1.7h-3.2v3.4h-2V323.1z M47,323.1V318h-2.7v-1.5h4.6v6.6H47z M48.3,315.5
	c-0.4,0-0.7-0.1-1-0.3c-0.2-0.2-0.4-0.5-0.4-0.9s0.1-0.7,0.4-0.9c0.2-0.2,0.6-0.3,1-0.3s0.7,0.1,0.9,0.3c0.2,0.2,0.4,0.5,0.4,0.9
	s-0.1,0.7-0.4,0.9C49,315.4,48.7,315.5,48.3,315.5z M52.8,323.1v-6.6h1.6l0.2,1.4l0,0c0.3-0.5,0.7-0.9,1.2-1.2
	c0.5-0.3,1-0.4,1.5-0.4c0.3,0,0.5,0,0.7,0.1c0.2,0,0.4,0.1,0.6,0.2l-0.4,1.6c-0.2-0.1-0.4-0.1-0.6-0.1c-0.2,0-0.4,0-0.6,0
	c-0.4,0-0.8,0.1-1.2,0.4c-0.4,0.2-0.7,0.7-1,1.2v3.4H52.8z M63.7,323.3c-0.5,0-1-0.1-1.4-0.2c-0.4-0.2-0.8-0.4-1.2-0.7
	c-0.3-0.3-0.6-0.7-0.8-1.1s-0.3-0.9-0.3-1.5c0-0.5,0.1-1,0.3-1.5c0.2-0.4,0.5-0.8,0.8-1.1c0.3-0.3,0.7-0.5,1.1-0.7
	c0.4-0.2,0.8-0.2,1.3-0.2s1,0.1,1.3,0.2c0.4,0.2,0.7,0.4,1,0.7c0.3,0.3,0.5,0.6,0.6,1s0.2,0.8,0.2,1.3c0,0.2,0,0.3,0,0.5
	s0,0.3,0,0.4h-4.5c0.1,0.5,0.3,0.8,0.7,1.1c0.3,0.2,0.8,0.3,1.3,0.3c0.3,0,0.6,0,0.9-0.1s0.6-0.2,0.8-0.3l0.7,1.2
	c-0.4,0.2-0.8,0.4-1.3,0.6C64.6,323.2,64.1,323.3,63.7,323.3z M63.5,317.8c-0.4,0-0.7,0.1-1,0.3c-0.3,0.2-0.4,0.5-0.5,0.9h2.8
	C64.7,318.3,64.3,317.8,63.5,317.8z M71.8,323.3c-0.3,0-0.6-0.1-0.9-0.2c-0.3-0.2-0.6-0.4-0.9-0.7l0,0l-0.2,0.7h-1.5v-9.3h2v2.3
	l-0.1,1l0,0c0.2-0.2,0.5-0.4,0.8-0.5s0.6-0.2,1-0.2s0.8,0.1,1.1,0.2c0.3,0.2,0.6,0.4,0.8,0.7c0.2,0.3,0.4,0.6,0.5,1.1
	c0.1,0.4,0.2,0.9,0.2,1.4c0,0.6-0.1,1.1-0.2,1.5c-0.2,0.4-0.4,0.8-0.6,1.1c-0.3,0.3-0.6,0.5-0.9,0.7
	C72.5,323.2,72.1,323.3,71.8,323.3z M71.3,321.7c0.4,0,0.7-0.2,0.9-0.5c0.2-0.3,0.4-0.8,0.4-1.5c0-1.2-0.4-1.8-1.2-1.8
	c-0.4,0-0.8,0.2-1.2,0.6v2.7c0.2,0.2,0.4,0.3,0.6,0.3C71,321.7,71.1,321.7,71.3,321.7z M78.2,323.3c-0.3,0-0.6-0.1-0.9-0.2
	s-0.5-0.2-0.7-0.4c-0.2-0.2-0.3-0.4-0.4-0.6s-0.2-0.5-0.2-0.8c0-0.4,0.1-0.7,0.2-1c0.2-0.3,0.4-0.5,0.8-0.7s0.8-0.4,1.4-0.5
	s1.2-0.2,2-0.2c0-0.3-0.2-0.5-0.4-0.7c-0.2-0.2-0.6-0.3-1-0.3c-0.3,0-0.6,0.1-1,0.2c-0.3,0.1-0.7,0.3-1,0.5l-0.7-1.3
	c0.5-0.3,0.9-0.5,1.5-0.6c0.5-0.2,1.1-0.2,1.6-0.2c0.9,0,1.7,0.2,2.2,0.7s0.8,1.2,0.8,2.2v3.8h-1.6l-0.1-0.8h-0.1
	c-0.3,0.3-0.7,0.5-1.1,0.7C79.1,323.2,78.7,323.3,78.2,323.3z M78.9,321.8c0.3,0,0.6-0.1,0.8-0.2c0.3-0.1,0.5-0.3,0.7-0.5V320
	c-0.5,0-0.9,0.1-1.2,0.1c-0.3,0.1-0.6,0.1-0.8,0.2c-0.2,0.1-0.3,0.2-0.4,0.3c-0.1,0.1-0.1,0.3-0.1,0.4c0,0.2,0.1,0.4,0.2,0.5
	C78.4,321.7,78.6,321.8,78.9,321.8z M87.2,323.3c-0.6,0-1.2-0.1-1.8-0.3c-0.6-0.2-1.1-0.4-1.5-0.7l0.8-1.2c0.4,0.3,0.8,0.5,1.3,0.6
	c0.4,0.1,0.9,0.2,1.4,0.2c0.4,0,0.6-0.1,0.8-0.2c0.2-0.1,0.2-0.2,0.2-0.4c0-0.1,0-0.2-0.1-0.2c0-0.1-0.1-0.1-0.2-0.2
	s-0.3-0.1-0.5-0.2s-0.5-0.1-0.8-0.2c-0.9-0.2-1.5-0.5-1.9-0.8s-0.6-0.8-0.6-1.3c0-0.3,0.1-0.6,0.2-0.8c0.1-0.3,0.3-0.5,0.6-0.7
	c0.3-0.2,0.6-0.3,1-0.4s0.8-0.2,1.3-0.2c0.6,0,1.1,0.1,1.6,0.3c0.5,0.2,0.9,0.4,1.3,0.6l-0.9,1.2c-0.3-0.2-0.7-0.4-1-0.5
	c-0.4-0.1-0.7-0.2-1.1-0.2c-0.3,0-0.5,0-0.7,0.1c-0.1,0.1-0.2,0.2-0.2,0.4c0,0.2,0.1,0.3,0.3,0.4c0.2,0.1,0.6,0.2,1.2,0.3
	c0.5,0.1,0.9,0.2,1.3,0.4c0.3,0.1,0.6,0.3,0.8,0.5c0.2,0.2,0.3,0.4,0.4,0.6s0.1,0.4,0.1,0.7c0,0.3-0.1,0.6-0.2,0.8
	c-0.1,0.3-0.4,0.5-0.6,0.7c-0.3,0.2-0.6,0.3-1,0.5C88.2,323.2,87.7,323.3,87.2,323.3z M95.6,323.3c-0.5,0-1-0.1-1.4-0.2
	c-0.4-0.2-0.8-0.4-1.2-0.7c-0.3-0.3-0.6-0.7-0.8-1.1c-0.2-0.4-0.3-0.9-0.3-1.5c0-0.5,0.1-1,0.3-1.5c0.2-0.4,0.5-0.8,0.8-1.1
	c0.3-0.3,0.7-0.5,1.1-0.7s0.8-0.2,1.3-0.2s1,0.1,1.3,0.2c0.4,0.2,0.7,0.4,1,0.7c0.3,0.3,0.5,0.6,0.6,1s0.2,0.8,0.2,1.3
	c0,0.2,0,0.3,0,0.5s0,0.3,0,0.4H94c0.1,0.5,0.3,0.8,0.7,1.1c0.3,0.2,0.8,0.3,1.3,0.3c0.3,0,0.6,0,0.9-0.1s0.6-0.2,0.8-0.3l0.7,1.2
	c-0.4,0.2-0.8,0.4-1.3,0.6C96.5,323.2,96.1,323.3,95.6,323.3z M95.5,317.8c-0.4,0-0.7,0.1-1,0.3c-0.3,0.2-0.4,0.5-0.5,0.9h2.8
	C96.7,318.3,96.3,317.8,95.5,317.8z"/>
<path class="st8" d="M36.7,341.1v-8.7h5.8v1.7h-3.8v2h3.2v1.7h-3.2v3.4h-2V341.1z M47,341.1V336h-2.7v-1.5h4.6v6.6H47z M48.3,333.5
	c-0.4,0-0.7-0.1-1-0.3c-0.2-0.2-0.4-0.5-0.4-0.9s0.1-0.7,0.4-0.9c0.2-0.2,0.6-0.3,1-0.3s0.7,0.1,0.9,0.3c0.2,0.2,0.4,0.5,0.4,0.9
	s-0.1,0.7-0.4,0.9C49,333.4,48.7,333.5,48.3,333.5z M52.8,341.1v-6.6h1.6l0.2,1.4l0,0c0.3-0.5,0.7-0.9,1.2-1.2
	c0.5-0.3,1-0.4,1.5-0.4c0.3,0,0.5,0,0.7,0.1c0.2,0,0.4,0.1,0.6,0.2l-0.4,1.6c-0.2-0.1-0.4-0.1-0.6-0.1c-0.2,0-0.4,0-0.6,0
	c-0.4,0-0.8,0.1-1.2,0.4c-0.4,0.2-0.7,0.7-1,1.2v3.4H52.8z M63.7,341.3c-0.5,0-1-0.1-1.4-0.2c-0.4-0.2-0.8-0.4-1.2-0.7
	c-0.3-0.3-0.6-0.7-0.8-1.1s-0.3-0.9-0.3-1.5c0-0.5,0.1-1,0.3-1.5c0.2-0.4,0.5-0.8,0.8-1.1c0.3-0.3,0.7-0.5,1.1-0.7
	c0.4-0.2,0.8-0.2,1.3-0.2s1,0.1,1.3,0.2c0.4,0.2,0.7,0.4,1,0.7c0.3,0.3,0.5,0.6,0.6,1s0.2,0.8,0.2,1.3c0,0.2,0,0.3,0,0.5
	s0,0.3,0,0.4h-4.5c0.1,0.5,0.3,0.8,0.7,1.1c0.3,0.2,0.8,0.3,1.3,0.3c0.3,0,0.6,0,0.9-0.1s0.6-0.2,0.8-0.3l0.7,1.2
	c-0.4,0.2-0.8,0.4-1.3,0.6C64.6,341.2,64.1,341.3,63.7,341.3z M63.5,335.8c-0.4,0-0.7,0.1-1,0.3c-0.3,0.2-0.4,0.5-0.5,0.9h2.8
	C64.7,336.3,64.3,335.8,63.5,335.8z M71.2,341.3c-0.6,0-1.2-0.1-1.8-0.3c-0.6-0.2-1.1-0.4-1.5-0.7l0.8-1.2c0.4,0.3,0.8,0.5,1.3,0.6
	c0.4,0.1,0.9,0.2,1.4,0.2c0.4,0,0.6-0.1,0.8-0.2c0.2-0.1,0.2-0.2,0.2-0.4c0-0.1,0-0.2-0.1-0.2c0-0.1-0.1-0.1-0.2-0.2
	s-0.3-0.1-0.5-0.2s-0.5-0.1-0.8-0.2c-0.9-0.2-1.5-0.5-1.9-0.8s-0.6-0.8-0.6-1.3c0-0.3,0.1-0.6,0.2-0.8c0.1-0.3,0.3-0.5,0.6-0.7
	c0.3-0.2,0.6-0.3,1-0.4s0.8-0.2,1.3-0.2c0.6,0,1.1,0.1,1.6,0.3c0.5,0.2,0.9,0.4,1.3,0.6l-0.9,1.2c-0.3-0.2-0.7-0.4-1-0.5
	c-0.4-0.1-0.7-0.2-1.1-0.2c-0.3,0-0.5,0-0.7,0.1c-0.1,0.1-0.2,0.2-0.2,0.4c0,0.2,0.1,0.3,0.3,0.4c0.2,0.1,0.6,0.2,1.2,0.3
	c0.5,0.1,0.9,0.2,1.3,0.4c0.3,0.1,0.6,0.3,0.8,0.5c0.2,0.2,0.3,0.4,0.4,0.6s0.1,0.4,0.1,0.7c0,0.3-0.1,0.6-0.2,0.8
	c-0.1,0.3-0.4,0.5-0.6,0.7c-0.3,0.2-0.6,0.3-1,0.5C72.2,341.2,71.7,341.3,71.2,341.3z M80.4,341.3c-0.5,0-1-0.1-1.3-0.2
	c-0.4-0.1-0.7-0.3-0.9-0.6c-0.2-0.3-0.4-0.6-0.5-0.9c-0.1-0.4-0.1-0.7-0.1-1.2V336h-1.7v-1.5l1.8-0.1l0.3-2h1.6v2h2.8v1.5h-2.8v2.3
	c0,0.5,0.1,0.9,0.3,1.1c0.2,0.2,0.6,0.3,1.1,0.3c0.2,0,0.5,0,0.7-0.1c0.2,0,0.4-0.1,0.6-0.2l0.3,1.4c-0.3,0.1-0.6,0.2-1,0.2
	C81.3,341.2,80.9,341.3,80.4,341.3z M87.3,341.3c-0.4,0-0.9-0.1-1.3-0.2c-0.4-0.2-0.8-0.4-1.1-0.7c-0.3-0.3-0.6-0.7-0.8-1.1
	c-0.2-0.4-0.3-0.9-0.3-1.5c0-0.5,0.1-1,0.3-1.5c0.2-0.4,0.4-0.8,0.8-1.1c0.3-0.3,0.7-0.5,1.1-0.7s0.8-0.2,1.3-0.2
	c0.4,0,0.9,0.1,1.2,0.2c0.4,0.2,0.8,0.4,1.1,0.7c0.3,0.3,0.6,0.7,0.8,1.1c0.2,0.4,0.3,0.9,0.3,1.5s-0.1,1-0.3,1.5
	c-0.2,0.4-0.4,0.8-0.8,1.1c-0.3,0.3-0.7,0.5-1.1,0.7C88.1,341.2,87.7,341.3,87.3,341.3z M87.3,339.7c0.4,0,0.8-0.2,1-0.5
	s0.3-0.8,0.3-1.4s-0.1-1-0.3-1.4c-0.2-0.3-0.6-0.5-1-0.5c-0.5,0-0.8,0.2-1,0.5s-0.3,0.8-0.3,1.4s0.1,1,0.3,1.4
	C86.4,339.5,86.8,339.7,87.3,339.7z M92.8,341.1v-6.6h1.6l0.2,1.4l0,0c0.3-0.5,0.7-0.9,1.2-1.2c0.5-0.3,1-0.4,1.5-0.4
	c0.3,0,0.5,0,0.7,0.1c0.2,0,0.4,0.1,0.6,0.2l-0.4,1.6c-0.2-0.1-0.4-0.1-0.6-0.1s-0.4,0-0.6,0c-0.4,0-0.8,0.1-1.2,0.4
	c-0.4,0.2-0.7,0.7-1,1.2v3.4H92.8z M102.2,341.3c-0.3,0-0.6-0.1-0.9-0.2s-0.5-0.2-0.7-0.4c-0.2-0.2-0.3-0.4-0.4-0.6
	s-0.2-0.5-0.2-0.8c0-0.4,0.1-0.7,0.2-1c0.2-0.3,0.4-0.5,0.8-0.7s0.8-0.4,1.4-0.5s1.2-0.2,2-0.2c0-0.3-0.2-0.5-0.4-0.7
	c-0.2-0.2-0.6-0.3-1-0.3c-0.3,0-0.6,0.1-1,0.2c-0.3,0.1-0.7,0.3-1,0.5l-0.7-1.3c0.5-0.3,0.9-0.5,1.5-0.6c0.5-0.2,1.1-0.2,1.6-0.2
	c0.9,0,1.7,0.2,2.2,0.7s0.8,1.2,0.8,2.2v3.8h-1.6l-0.1-0.8h-0.1c-0.3,0.3-0.7,0.5-1.1,0.7C103.1,341.2,102.7,341.3,102.2,341.3z
	 M102.9,339.8c0.3,0,0.6-0.1,0.8-0.2c0.3-0.1,0.5-0.3,0.7-0.5V338c-0.5,0-0.9,0.1-1.2,0.1c-0.3,0.1-0.6,0.1-0.8,0.2
	c-0.2,0.1-0.3,0.2-0.4,0.3c-0.1,0.1-0.1,0.3-0.1,0.4c0,0.2,0.1,0.4,0.2,0.5C102.3,339.7,102.6,339.8,102.9,339.8z M110.9,343.9
	c-0.4,0-0.8,0-1.2-0.1c-0.4-0.1-0.7-0.2-1-0.3c-0.3-0.1-0.5-0.3-0.6-0.5s-0.2-0.5-0.2-0.8c0-0.5,0.3-1,1-1.3l0,0
	c-0.2-0.1-0.3-0.3-0.5-0.4c-0.1-0.2-0.2-0.4-0.2-0.7c0-0.2,0.1-0.4,0.2-0.7c0.2-0.2,0.3-0.4,0.6-0.6l0,0c-0.2-0.2-0.4-0.4-0.6-0.7
	c-0.2-0.3-0.2-0.6-0.2-1s0.1-0.7,0.2-1c0.2-0.3,0.4-0.6,0.6-0.8c0.3-0.2,0.6-0.4,0.9-0.5s0.7-0.2,1.1-0.2s0.8,0.1,1.1,0.2h2.7v1.4
	h-1.3c0.1,0.1,0.1,0.2,0.2,0.4c0.1,0.2,0.1,0.3,0.1,0.5c0,0.4-0.1,0.7-0.2,1s-0.3,0.5-0.6,0.7c-0.2,0.2-0.5,0.3-0.9,0.4
	c-0.3,0.1-0.7,0.1-1.1,0.1c-0.3,0-0.6,0-0.9-0.1c-0.1,0.1-0.2,0.1-0.2,0.2c-0.1,0.1-0.1,0.2-0.1,0.3c0,0.2,0.1,0.3,0.3,0.4
	c0.2,0.1,0.5,0.1,0.9,0.1h1.2c0.9,0,1.5,0.1,2,0.4s0.7,0.7,0.7,1.3c0,0.4-0.1,0.7-0.3,1c-0.2,0.3-0.5,0.5-0.8,0.8
	c-0.3,0.2-0.7,0.4-1.2,0.5C112.1,343.9,111.5,343.9,110.9,343.9z M111,337.8c0.3,0,0.5-0.1,0.7-0.3c0.2-0.2,0.3-0.5,0.3-0.8
	s-0.1-0.6-0.3-0.8c-0.2-0.2-0.4-0.3-0.7-0.3c-0.3,0-0.5,0.1-0.7,0.3c-0.2,0.2-0.3,0.5-0.3,0.8c0,0.4,0.1,0.6,0.3,0.8
	C110.5,337.8,110.8,337.8,111,337.8z M111.2,342.7c0.5,0,1-0.1,1.3-0.2s0.5-0.3,0.5-0.6c0-0.2-0.1-0.3-0.3-0.4
	c-0.2-0.1-0.5-0.1-0.9-0.1H111c-0.2,0-0.4,0-0.6,0c-0.1,0-0.3,0-0.4-0.1c-0.2,0.1-0.3,0.2-0.4,0.3c-0.1,0.1-0.1,0.2-0.1,0.3
	c0,0.3,0.1,0.4,0.4,0.6C110.3,342.6,110.7,342.7,111.2,342.7z M119.6,341.3c-0.5,0-1-0.1-1.4-0.2c-0.4-0.2-0.8-0.4-1.2-0.7
	c-0.3-0.3-0.6-0.7-0.8-1.1c-0.2-0.4-0.3-0.9-0.3-1.5c0-0.5,0.1-1,0.3-1.5c0.2-0.4,0.5-0.8,0.8-1.1c0.3-0.3,0.7-0.5,1.1-0.7
	s0.8-0.2,1.3-0.2s1,0.1,1.3,0.2c0.4,0.2,0.7,0.4,1,0.7c0.3,0.3,0.5,0.6,0.6,1s0.2,0.8,0.2,1.3c0,0.2,0,0.3,0,0.5s0,0.3,0,0.4H118
	c0.1,0.5,0.3,0.8,0.7,1.1c0.3,0.2,0.8,0.3,1.3,0.3c0.3,0,0.6,0,0.9-0.1s0.6-0.2,0.8-0.3l0.7,1.2c-0.4,0.2-0.8,0.4-1.3,0.6
	C120.5,341.2,120.1,341.3,119.6,341.3z M119.5,335.8c-0.4,0-0.7,0.1-1,0.3c-0.3,0.2-0.4,0.5-0.5,0.9h2.8
	C120.7,336.3,120.2,335.8,119.5,335.8z"/>
<path class="st8" d="M39.2,359.3c-0.6,0-1.2-0.1-1.7-0.3c-0.6-0.2-1.1-0.5-1.6-0.9l1.1-1.3c0.3,0.3,0.7,0.5,1.1,0.7
	c0.4,0.2,0.8,0.3,1.2,0.2c0.4,0,0.7-0.1,0.9-0.2s0.3-0.3,0.3-0.6c0-0.1,0-0.3-0.1-0.4s-0.2-0.2-0.3-0.3c-0.1-0.1-0.3-0.2-0.4-0.2
	c-0.2-0.1-0.4-0.2-0.6-0.2l-1.1-0.5c-0.2-0.1-0.5-0.2-0.7-0.3c-0.2-0.1-0.4-0.3-0.6-0.5c-0.2-0.2-0.3-0.4-0.4-0.7
	c-0.1-0.2-0.1-0.5-0.1-0.9s0.1-0.7,0.2-1c0.2-0.3,0.4-0.6,0.6-0.8c0.3-0.2,0.6-0.4,1-0.5s0.8-0.2,1.3-0.2s1,0.1,1.5,0.3
	c0.5,0.2,1,0.5,1.4,0.8l-1,1.2c-0.3-0.2-0.6-0.4-0.9-0.5c-0.3-0.1-0.7-0.2-1.1-0.2c-0.3,0-0.6,0.1-0.8,0.2s-0.3,0.3-0.3,0.6
	c0,0.3,0.1,0.5,0.4,0.6c0.3,0.1,0.6,0.3,1,0.4l1.1,0.5c0.6,0.2,1,0.5,1.4,0.9c0.3,0.4,0.5,0.9,0.5,1.5c0,0.4-0.1,0.7-0.2,1
	c-0.1,0.3-0.4,0.6-0.7,0.9c-0.3,0.2-0.6,0.4-1,0.6C40.3,359.2,39.8,359.3,39.2,359.3z M47.3,359.3c-0.5,0-1-0.1-1.4-0.3
	c-0.4-0.2-0.8-0.5-1.1-0.9s-0.5-0.9-0.7-1.4c-0.2-0.6-0.2-1.2-0.2-2c0-0.7,0.1-1.4,0.2-1.9c0.2-0.6,0.4-1,0.7-1.4s0.7-0.7,1.1-0.9
	c0.4-0.2,0.9-0.3,1.4-0.3s1,0.1,1.4,0.3c0.4,0.2,0.8,0.5,1.1,0.9s0.6,0.8,0.7,1.4c0.2,0.6,0.2,1.2,0.2,1.9c0,0.8-0.1,1.4-0.2,2
	c-0.2,0.6-0.4,1-0.7,1.4s-0.7,0.7-1.1,0.9C48.2,359.2,47.8,359.3,47.3,359.3z M47.3,357.6c0.4,0,0.8-0.2,1.1-0.7s0.4-1.2,0.4-2.1
	s-0.1-1.6-0.4-2.1c-0.3-0.5-0.6-0.7-1.1-0.7s-0.8,0.2-1.1,0.7s-0.4,1.2-0.4,2.1s0.1,1.7,0.4,2.1C46.4,357.4,46.8,357.6,47.3,357.6z
	 M55.3,359.3c-0.5,0-1-0.1-1.4-0.3c-0.4-0.2-0.8-0.5-1.1-0.9s-0.5-0.9-0.7-1.4c-0.2-0.6-0.2-1.2-0.2-2c0-0.7,0.1-1.4,0.2-1.9
	c0.2-0.6,0.4-1,0.7-1.4s0.7-0.7,1.1-0.9c0.4-0.2,0.9-0.3,1.4-0.3s1,0.1,1.4,0.3c0.4,0.2,0.8,0.5,1.1,0.9s0.6,0.8,0.7,1.4
	c0.2,0.6,0.3,1.2,0.2,1.9c0,0.8-0.1,1.4-0.2,2c-0.2,0.6-0.4,1-0.7,1.4s-0.7,0.7-1.1,0.9C56.2,359.2,55.8,359.3,55.3,359.3z
	 M55.3,357.6c0.4,0,0.8-0.2,1.1-0.7s0.4-1.2,0.4-2.1s-0.1-1.6-0.4-2.1c-0.3-0.5-0.6-0.7-1.1-0.7s-0.8,0.2-1.1,0.7s-0.4,1.2-0.4,2.1
	s0.1,1.7,0.4,2.1C54.4,357.4,54.8,357.6,55.3,357.6z M60.1,359.1v-8.7h2l1.8,4.3l0.7,1.9l0,0c0-0.5-0.1-1-0.2-1.5
	c-0.1-0.6-0.1-1.1-0.1-1.6v-3.1h1.9v8.7h-2l-1.8-4.3l-0.8-1.9l0,0c0,0.5,0.1,1,0.2,1.5C62,355,62,355.5,62,356v3.1H60.1z
	 M68.3,359.1v-8.7h3.1c0.5,0,0.9,0,1.3,0.1s0.8,0.3,1.1,0.5c0.3,0.2,0.5,0.5,0.7,0.9s0.3,0.8,0.3,1.3s-0.1,1-0.3,1.3
	c-0.2,0.4-0.4,0.7-0.7,0.9c-0.3,0.2-0.7,0.4-1.1,0.5s-0.8,0.2-1.3,0.2h-1.1v3L68.3,359.1L68.3,359.1z M70.2,354.6h1
	c1.1,0,1.6-0.5,1.6-1.4c0-0.5-0.1-0.8-0.4-1s-0.7-0.3-1.2-0.3h-1V354.6z M79.3,359.3c-0.5,0-1-0.1-1.4-0.3c-0.4-0.2-0.8-0.5-1.1-0.9
	c-0.3-0.4-0.5-0.9-0.7-1.4c-0.2-0.6-0.2-1.2-0.2-2c0-0.7,0.1-1.4,0.2-1.9c0.2-0.6,0.4-1,0.7-1.4c0.3-0.4,0.7-0.7,1.1-0.9
	c0.4-0.2,0.9-0.3,1.4-0.3s1,0.1,1.4,0.3c0.4,0.2,0.8,0.5,1.1,0.9c0.3,0.4,0.6,0.8,0.7,1.4c0.2,0.6,0.2,1.2,0.2,1.9
	c0,0.8-0.1,1.4-0.2,2c-0.2,0.6-0.4,1-0.7,1.4c-0.3,0.4-0.7,0.7-1.1,0.9C80.2,359.2,79.8,359.3,79.3,359.3z M79.3,357.6
	c0.4,0,0.8-0.2,1.1-0.7c0.3-0.5,0.4-1.2,0.4-2.1s-0.1-1.6-0.4-2.1s-0.6-0.7-1.1-0.7s-0.8,0.2-1.1,0.7c-0.3,0.5-0.4,1.2-0.4,2.1
	s0.1,1.7,0.4,2.1C78.4,357.4,78.8,357.6,79.3,357.6z M84.2,359.1v-8.7h3.1c0.5,0,0.9,0,1.3,0.1s0.8,0.2,1.1,0.4
	c0.3,0.2,0.6,0.5,0.7,0.8c0.2,0.3,0.3,0.8,0.3,1.3c0,0.6-0.1,1.2-0.4,1.6s-0.7,0.7-1.1,0.9l2,3.5H89l-1.7-3.1h-1v3.1h-2.1
	C84.2,359,84.2,359.1,84.2,359.1z M86.1,354.4h1c1.1,0,1.6-0.4,1.6-1.3c0-0.4-0.1-0.7-0.4-0.9c-0.3-0.2-0.7-0.2-1.2-0.2h-1V354.4z
	 M94.3,359.1v-7h-2.6v-1.7h7.2v1.7h-2.6v7H94.3z M108.7,359.1v-8.7h2v7h3.9v1.7H108.7z M119.2,359.3c-0.4,0-0.9-0.1-1.3-0.2
	c-0.4-0.2-0.8-0.4-1.1-0.7c-0.3-0.3-0.6-0.7-0.8-1.1c-0.2-0.4-0.3-0.9-0.3-1.5c0-0.5,0.1-1,0.3-1.5c0.2-0.4,0.4-0.8,0.8-1.1
	c0.3-0.3,0.7-0.5,1.1-0.7s0.8-0.2,1.3-0.2c0.4,0,0.9,0.1,1.2,0.2c0.4,0.2,0.8,0.4,1.1,0.7c0.3,0.3,0.6,0.7,0.8,1.1
	c0.2,0.4,0.3,0.9,0.3,1.5s-0.1,1-0.3,1.5c-0.2,0.4-0.4,0.8-0.8,1.1c-0.3,0.3-0.7,0.5-1.1,0.7C120.1,359.2,119.7,359.3,119.2,359.3z
	 M119.2,357.7c0.4,0,0.8-0.2,1-0.5s0.3-0.8,0.3-1.4s-0.1-1-0.3-1.4c-0.2-0.3-0.6-0.5-1-0.5c-0.5,0-0.8,0.2-1,0.5s-0.3,0.8-0.3,1.4
	s0.1,1,0.3,1.4C118.4,357.5,118.8,357.7,119.2,357.7z M127.8,359.3c-0.5,0-1-0.1-1.5-0.2c-0.4-0.2-0.8-0.4-1.2-0.7
	c-0.3-0.3-0.6-0.7-0.8-1.1c-0.2-0.4-0.3-0.9-0.3-1.5c0-0.5,0.1-1,0.3-1.5c0.2-0.4,0.5-0.8,0.8-1.1c0.4-0.3,0.8-0.5,1.2-0.7
	c0.5-0.2,0.9-0.2,1.5-0.2c0.5,0,1,0.1,1.4,0.2c0.4,0.2,0.8,0.4,1.1,0.6l-0.9,1.2c-0.5-0.3-1-0.5-1.5-0.5c-0.6,0-1,0.2-1.4,0.5
	s-0.5,0.8-0.5,1.4s0.2,1,0.5,1.4c0.3,0.3,0.8,0.5,1.3,0.5c0.3,0,0.7-0.1,0.9-0.2c0.3-0.1,0.6-0.3,0.8-0.4l0.8,1.2
	c-0.4,0.3-0.8,0.6-1.3,0.7C128.7,359.2,128.3,359.3,127.8,359.3z M134.2,359.3c-0.3,0-0.6-0.1-0.9-0.2c-0.3-0.1-0.5-0.2-0.7-0.4
	c-0.2-0.2-0.3-0.4-0.4-0.6c-0.1-0.2-0.2-0.5-0.2-0.8c0-0.4,0.1-0.7,0.2-1c0.2-0.3,0.4-0.5,0.8-0.7c0.4-0.2,0.8-0.4,1.4-0.5
	c0.6-0.1,1.2-0.2,2-0.2c0-0.3-0.2-0.5-0.4-0.7s-0.6-0.3-1-0.3c-0.3,0-0.6,0.1-1,0.2c-0.3,0.1-0.7,0.3-1,0.5l-0.7-1.3
	c0.5-0.3,0.9-0.5,1.5-0.6c0.5-0.2,1.1-0.2,1.6-0.2c0.9,0,1.7,0.2,2.2,0.7s0.8,1.2,0.8,2.2v3.8h-1.6l-0.1-0.8h-0.1
	c-0.3,0.3-0.7,0.5-1.1,0.7C135.1,359.2,134.6,359.3,134.2,359.3z M134.8,357.8c0.3,0,0.6-0.1,0.8-0.2c0.3-0.1,0.5-0.3,0.7-0.5V356
	c-0.5,0-0.9,0.1-1.2,0.1c-0.3,0.1-0.6,0.1-0.8,0.2s-0.3,0.2-0.4,0.3c-0.1,0.1-0.1,0.3-0.1,0.4c0,0.2,0.1,0.4,0.2,0.5
	C134.3,357.7,134.6,357.8,134.8,357.8z M144.5,359.3c-0.8,0-1.5-0.2-1.9-0.7s-0.6-1.2-0.6-2v-5.2h-2.1v-1.5h4v6.8
	c0,0.2,0,0.4,0.1,0.5s0.1,0.2,0.2,0.3c0.1,0.1,0.2,0.1,0.3,0.2c0.1,0,0.3,0,0.4,0c0.2,0,0.3,0,0.5,0s0.4-0.1,0.6-0.2l0.4,1.4
	c-0.2,0.1-0.3,0.1-0.5,0.2c-0.1,0-0.3,0.1-0.5,0.1c-0.1,0-0.3,0.1-0.5,0.1C144.9,359.3,144.7,359.3,144.5,359.3z M159.2,359.3
	c-0.6,0-1.2-0.1-1.7-0.3c-0.6-0.2-1.1-0.5-1.6-0.9l1.1-1.3c0.3,0.3,0.7,0.5,1.1,0.7c0.4,0.2,0.8,0.3,1.2,0.2c0.4,0,0.7-0.1,0.9-0.2
	s0.3-0.3,0.3-0.6c0-0.1,0-0.3-0.1-0.4s-0.2-0.2-0.3-0.3c-0.1-0.1-0.3-0.2-0.4-0.2c-0.2-0.1-0.4-0.2-0.6-0.2l-1.1-0.5
	c-0.2-0.1-0.5-0.2-0.7-0.3c-0.2-0.1-0.4-0.3-0.6-0.5c-0.2-0.2-0.3-0.4-0.4-0.7c-0.1-0.2-0.1-0.5-0.1-0.9s0.1-0.7,0.2-1
	c0.2-0.3,0.4-0.6,0.6-0.8c0.3-0.2,0.6-0.4,1-0.5s0.8-0.2,1.3-0.2s1,0.1,1.5,0.3c0.5,0.2,1,0.5,1.4,0.8l-1,1.2
	c-0.3-0.2-0.6-0.4-0.9-0.5c-0.3-0.1-0.7-0.2-1.1-0.2c-0.3,0-0.6,0.1-0.8,0.2s-0.3,0.3-0.3,0.6c0,0.3,0.1,0.5,0.4,0.6
	c0.3,0.1,0.6,0.3,1,0.4l1.1,0.5c0.6,0.2,1,0.5,1.4,0.9c0.3,0.4,0.5,0.9,0.5,1.5c0,0.4-0.1,0.7-0.2,1c-0.1,0.3-0.4,0.6-0.7,0.9
	c-0.3,0.2-0.6,0.4-1,0.6C160.2,359.2,159.7,359.3,159.2,359.3z M167.6,359.3c-0.5,0-1-0.1-1.4-0.2c-0.4-0.2-0.8-0.4-1.2-0.7
	c-0.3-0.3-0.6-0.7-0.8-1.1s-0.3-0.9-0.3-1.5c0-0.5,0.1-1,0.3-1.5c0.2-0.4,0.5-0.8,0.8-1.1c0.3-0.3,0.7-0.5,1.1-0.7
	c0.4-0.2,0.8-0.2,1.3-0.2s1,0.1,1.3,0.2c0.4,0.2,0.7,0.4,1,0.7c0.3,0.3,0.5,0.6,0.6,1s0.2,0.8,0.2,1.3c0,0.2,0,0.3,0,0.5
	s0,0.3,0,0.4H166c0.1,0.5,0.3,0.8,0.7,1.1c0.3,0.2,0.8,0.3,1.3,0.3c0.3,0,0.6,0,0.9-0.1c0.3-0.1,0.6-0.2,0.8-0.3l0.7,1.2
	c-0.4,0.2-0.8,0.4-1.3,0.6C168.5,359.2,168.1,359.3,167.6,359.3z M167.5,353.8c-0.4,0-0.7,0.1-1,0.3c-0.3,0.2-0.4,0.5-0.5,0.9h2.8
	C168.7,354.3,168.2,353.8,167.5,353.8z M172.8,359.1v-6.6h1.6l0.2,1.4l0,0c0.3-0.5,0.7-0.9,1.2-1.2c0.5-0.3,1-0.4,1.5-0.4
	c0.3,0,0.5,0,0.7,0.1c0.2,0,0.4,0.1,0.6,0.2l-0.4,1.6c-0.2-0.1-0.4-0.1-0.6-0.1c-0.2,0-0.4,0-0.6,0c-0.4,0-0.8,0.1-1.2,0.4
	c-0.4,0.2-0.7,0.7-1,1.2v3.4H172.8z M182.1,359.1l-2.5-6.6h2l1,3.1c0.1,0.3,0.2,0.7,0.3,1s0.2,0.7,0.3,1l0,0c0.1-0.3,0.2-0.7,0.3-1
	s0.2-0.7,0.3-1l1-3.1h1.9l-2.4,6.6H182.1z M191.6,359.3c-0.5,0-1-0.1-1.4-0.2c-0.4-0.2-0.8-0.4-1.2-0.7c-0.3-0.3-0.6-0.7-0.8-1.1
	s-0.3-0.9-0.3-1.5c0-0.5,0.1-1,0.3-1.5c0.2-0.4,0.5-0.8,0.8-1.1c0.3-0.3,0.7-0.5,1.1-0.7c0.4-0.2,0.8-0.2,1.3-0.2s1,0.1,1.3,0.2
	c0.4,0.2,0.7,0.4,1,0.7c0.3,0.3,0.5,0.6,0.6,1s0.2,0.8,0.2,1.3c0,0.2,0,0.3,0,0.5s0,0.3,0,0.4H190c0.1,0.5,0.3,0.8,0.7,1.1
	c0.3,0.2,0.8,0.3,1.3,0.3c0.3,0,0.6,0,0.9-0.1c0.3-0.1,0.6-0.2,0.8-0.3l0.7,1.2c-0.4,0.2-0.8,0.4-1.3,0.6
	C192.5,359.2,192,359.3,191.6,359.3z M191.4,353.8c-0.4,0-0.7,0.1-1,0.3c-0.3,0.2-0.4,0.5-0.5,0.9h2.8
	C192.7,354.3,192.2,353.8,191.4,353.8z M196.8,359.1v-6.6h1.6l0.2,1.4l0,0c0.3-0.5,0.7-0.9,1.2-1.2c0.5-0.3,1-0.4,1.5-0.4
	c0.3,0,0.5,0,0.7,0.1c0.2,0,0.4,0.1,0.6,0.2l-0.4,1.6c-0.2-0.1-0.4-0.1-0.6-0.1c-0.2,0-0.4,0-0.6,0c-0.4,0-0.8,0.1-1.2,0.4
	c-0.4,0.2-0.7,0.7-1,1.2v3.4H196.8z"/>
<path class="st8" d="M38.1,89.7L35.5,81h2.1l1,4c0.1,0.5,0.3,0.9,0.4,1.4c0.1,0.4,0.2,0.9,0.3,1.4l0,0c0.1-0.5,0.3-0.9,0.4-1.4
	c0.1-0.4,0.2-0.9,0.3-1.4l1-4h2l-2.6,8.7H38.1z M46.2,89.8c-0.8,0-1.3-0.2-1.6-0.7s-0.5-1.1-0.5-2V83h2v3.8c0,0.4,0.1,0.8,0.2,1
	c0.1,0.2,0.4,0.3,0.8,0.3c0.2,0,0.5-0.1,0.7-0.2s0.4-0.3,0.6-0.6V83h2v6.6h-1.6l-0.1-1l0,0c-0.3,0.3-0.6,0.6-1,0.8
	C47.1,89.7,46.7,89.8,46.2,89.8z M55.7,89.8c-0.5,0-1-0.1-1.4-0.2c-0.4-0.2-0.8-0.4-1.2-0.7c-0.3-0.3-0.6-0.7-0.8-1.1
	S52,86.9,52,86.3c0-0.5,0.1-1,0.3-1.5c0.2-0.4,0.5-0.8,0.8-1.1c0.3-0.3,0.7-0.5,1.1-0.7c0.4-0.2,0.8-0.2,1.3-0.2s1,0.1,1.3,0.2
	c0.4,0.2,0.7,0.4,1,0.7c0.3,0.3,0.5,0.6,0.6,1s0.2,0.8,0.2,1.3c0,0.2,0,0.3,0,0.5s0,0.3,0,0.4H54c0.1,0.5,0.3,0.8,0.7,1.1
	c0.3,0.2,0.8,0.3,1.3,0.3c0.3,0,0.6,0,0.9-0.1c0.3-0.1,0.6-0.2,0.8-0.3l0.7,1.2c-0.4,0.2-0.8,0.4-1.3,0.6
	C56.6,89.8,56.1,89.8,55.7,89.8z M55.5,84.4c-0.4,0-0.7,0.1-1,0.3c-0.3,0.2-0.4,0.5-0.5,0.9h2.8C56.7,84.8,56.3,84.4,55.5,84.4z
	 M63.3,89.8c-0.5,0-0.8-0.1-1.1-0.4s-0.4-0.7-0.4-1.1c0-0.2,0-0.4,0.1-0.6s0.2-0.4,0.3-0.5s0.3-0.3,0.5-0.3c0.2-0.1,0.4-0.1,0.6-0.1
	c0.2,0,0.4,0,0.6,0.1s0.4,0.2,0.5,0.3c0.1,0.1,0.2,0.3,0.3,0.5c0.1,0.2,0.1,0.4,0.1,0.6c0,0.4-0.1,0.8-0.4,1.1
	C64.1,89.7,63.7,89.8,63.3,89.8z M69.9,92.3c-0.4,0-0.8,0-1.1-0.1c-0.3-0.1-0.6-0.2-0.9-0.3l0.6-1.4c0.3,0.1,0.5,0.2,0.7,0.2
	s0.4,0.1,0.6,0.1c0.5,0,0.8-0.1,1-0.3c0.2-0.2,0.3-0.6,0.3-1v-4.8h-2.7v-1.5H73v6.2c0,0.4,0,0.8-0.1,1.2c-0.1,0.4-0.3,0.7-0.5,1
	s-0.6,0.5-1,0.7C70.9,92.2,70.4,92.3,69.9,92.3z M72.3,82c-0.4,0-0.7-0.1-1-0.3c-0.2-0.2-0.4-0.5-0.4-0.9s0.1-0.7,0.4-0.9
	c0.2-0.2,0.6-0.3,1-0.3s0.7,0.1,0.9,0.3c0.2,0.2,0.4,0.5,0.4,0.9s-0.1,0.7-0.4,0.9C73,81.9,72.6,82,72.3,82z M79.2,89.8
	c-0.6,0-1.2-0.1-1.8-0.3c-0.6-0.2-1.1-0.4-1.5-0.7l0.8-1.2c0.4,0.3,0.8,0.5,1.3,0.6c0.4,0.1,0.9,0.2,1.4,0.2c0.4,0,0.6-0.1,0.8-0.2
	c0.2-0.1,0.2-0.2,0.2-0.4c0-0.1,0-0.2-0.1-0.2c0-0.1-0.1-0.1-0.2-0.2s-0.3-0.1-0.5-0.2s-0.5-0.1-0.8-0.2c-0.9-0.2-1.5-0.5-1.9-0.8
	s-0.6-0.8-0.6-1.3c0-0.3,0.1-0.6,0.2-0.8c0.1-0.3,0.3-0.5,0.6-0.7c0.3-0.2,0.6-0.3,1-0.4s0.8-0.2,1.3-0.2c0.6,0,1.1,0.1,1.6,0.3
	c0.5,0.2,0.9,0.4,1.3,0.6L81.4,85c-0.3-0.2-0.7-0.4-1-0.5c-0.4-0.1-0.7-0.2-1.1-0.2c-0.3,0-0.5,0-0.7,0.1c-0.1,0.1-0.2,0.2-0.2,0.4
	c0,0.2,0.1,0.3,0.3,0.4c0.2,0.1,0.6,0.2,1.2,0.3c0.5,0.1,0.9,0.2,1.3,0.4c0.3,0.1,0.6,0.3,0.8,0.5c0.2,0.2,0.3,0.4,0.4,0.6
	s0.1,0.4,0.1,0.7c0,0.3-0.1,0.6-0.2,0.8c-0.1,0.2-0.4,0.5-0.6,0.7c-0.3,0.2-0.6,0.3-1,0.5C80.2,89.8,79.7,89.8,79.2,89.8z"/>
<path class="st8" d="M39.2,107.8c-0.6,0-1.2-0.1-1.7-0.3c-0.6-0.2-1.1-0.5-1.6-0.9l1.1-1.3c0.3,0.3,0.7,0.5,1.1,0.7
	c0.4,0.2,0.8,0.2,1.2,0.2s0.7-0.1,0.9-0.2s0.3-0.3,0.3-0.6c0-0.1,0-0.3-0.1-0.4s-0.2-0.2-0.3-0.3c-0.1-0.1-0.3-0.2-0.4-0.2
	c-0.2-0.1-0.4-0.2-0.6-0.2l-1.1-0.5c-0.2-0.1-0.5-0.2-0.7-0.3c-0.2-0.1-0.4-0.3-0.6-0.5c-0.2-0.2-0.3-0.4-0.4-0.7
	c-0.1-0.3-0.1-0.5-0.1-0.9s0.1-0.7,0.2-1c0.2-0.3,0.4-0.6,0.6-0.8c0.3-0.2,0.6-0.4,1-0.5s0.8-0.2,1.3-0.2s1,0.1,1.5,0.3
	c0.5,0.2,1,0.5,1.4,0.8l-1,1.2c-0.3-0.2-0.6-0.4-0.9-0.5c-0.3-0.1-0.7-0.2-1.1-0.2c-0.3,0-0.6,0.1-0.8,0.2s-0.3,0.3-0.3,0.6
	c0,0.3,0.1,0.5,0.4,0.6c0.3,0.1,0.6,0.3,1,0.4l1.1,0.5c0.6,0.2,1,0.5,1.4,0.9c0.3,0.4,0.5,0.9,0.5,1.5c0,0.4-0.1,0.7-0.2,1
	c-0.1,0.3-0.4,0.6-0.7,0.9c-0.3,0.2-0.6,0.4-1,0.6C40.3,107.8,39.8,107.8,39.2,107.8z M48,107.8c-0.5,0-1.1-0.1-1.5-0.3
	c-0.5-0.2-0.9-0.5-1.3-0.8c-0.4-0.4-0.7-0.8-0.9-1.4s-0.3-1.2-0.3-1.9c0-0.7,0.1-1.4,0.3-1.9c0.2-0.6,0.5-1,0.9-1.4s0.8-0.7,1.3-0.9
	c0.5-0.2,1.1-0.3,1.6-0.3c0.6,0,1.1,0.1,1.5,0.3c0.4,0.2,0.8,0.5,1.1,0.8l-1.1,1.2c-0.2-0.2-0.4-0.3-0.7-0.5
	c-0.2-0.1-0.5-0.2-0.8-0.2s-0.6,0.1-0.9,0.2c-0.2,0.1-0.5,0.3-0.7,0.5s-0.3,0.5-0.4,0.9c-0.1,0.3-0.2,0.7-0.2,1.2
	c0,0.9,0.2,1.6,0.6,2.1c0.4,0.5,0.9,0.7,1.6,0.7c0.3,0,0.6-0.1,0.9-0.2c0.3-0.1,0.5-0.3,0.7-0.6l1.1,1.2
	C50.1,107.4,49.2,107.8,48,107.8z M55.2,107.8c-0.6,0-1.2-0.1-1.7-0.3c-0.6-0.2-1.1-0.5-1.6-0.9l1.1-1.3c0.3,0.3,0.7,0.5,1.1,0.7
	c0.4,0.2,0.8,0.2,1.2,0.2s0.7-0.1,0.9-0.2s0.3-0.3,0.3-0.6c0-0.1,0-0.3-0.1-0.4s-0.2-0.2-0.3-0.3c-0.1-0.1-0.3-0.2-0.4-0.2
	c-0.2-0.1-0.4-0.2-0.6-0.2l-1.1-0.5c-0.2-0.1-0.5-0.2-0.7-0.3c-0.2-0.1-0.4-0.3-0.6-0.5c-0.2-0.2-0.3-0.4-0.4-0.7
	c-0.1-0.3-0.1-0.5-0.1-0.9s0.1-0.7,0.2-1c0.2-0.3,0.4-0.6,0.6-0.8c0.3-0.2,0.6-0.4,1-0.5s0.8-0.2,1.3-0.2s1,0.1,1.5,0.3
	c0.5,0.2,1,0.5,1.4,0.8l-1,1.2c-0.3-0.2-0.6-0.4-0.9-0.5c-0.3-0.1-0.7-0.2-1.1-0.2c-0.3,0-0.6,0.1-0.8,0.2s-0.3,0.3-0.3,0.6
	c0,0.3,0.1,0.5,0.4,0.6c0.3,0.1,0.6,0.3,1,0.4l1.1,0.5c0.6,0.2,1,0.5,1.4,0.9c0.3,0.4,0.5,0.9,0.5,1.5c0,0.4-0.1,0.7-0.2,1
	c-0.1,0.3-0.4,0.6-0.7,0.9c-0.3,0.2-0.6,0.4-1,0.6C56.3,107.8,55.8,107.8,55.2,107.8z M63.2,107.8c-0.6,0-1.2-0.1-1.7-0.3
	c-0.6-0.2-1.1-0.5-1.6-0.9l1.1-1.3c0.3,0.3,0.7,0.5,1.1,0.7c0.4,0.2,0.8,0.2,1.2,0.2s0.7-0.1,0.9-0.2s0.3-0.3,0.3-0.6
	c0-0.1,0-0.3-0.1-0.4s-0.2-0.2-0.3-0.3c-0.1-0.1-0.3-0.2-0.4-0.2c-0.2-0.1-0.4-0.2-0.6-0.2l-1.1-0.5c-0.2-0.1-0.5-0.2-0.7-0.3
	c-0.2-0.1-0.4-0.3-0.6-0.5c-0.2-0.2-0.3-0.4-0.4-0.7c-0.1-0.3-0.1-0.5-0.1-0.9s0.1-0.7,0.2-1c0.2-0.3,0.4-0.6,0.6-0.8
	c0.3-0.2,0.6-0.4,1-0.5s0.8-0.2,1.3-0.2s1,0.1,1.5,0.3c0.5,0.2,1,0.5,1.4,0.8l-1,1.2c-0.3-0.2-0.6-0.4-0.9-0.5s-0.7-0.2-1.1-0.2
	c-0.3,0-0.6,0.1-0.8,0.2s-0.3,0.3-0.3,0.6c0,0.3,0.1,0.5,0.4,0.6c0.3,0.1,0.6,0.3,1,0.4l1.1,0.5c0.6,0.2,1,0.5,1.4,0.9
	c0.3,0.4,0.5,0.9,0.5,1.5c0,0.4-0.1,0.7-0.2,1s-0.4,0.6-0.7,0.9c-0.3,0.2-0.6,0.4-1,0.6C64.3,107.8,63.8,107.8,63.2,107.8z"/>
<path class="st8" d="M36.3,125.7V117h3.1c0.5,0,0.9,0,1.3,0.1c0.4,0.1,0.8,0.2,1.1,0.5c0.3,0.2,0.5,0.5,0.7,0.9s0.3,0.8,0.3,1.3
	s-0.1,1-0.3,1.3c-0.2,0.4-0.4,0.7-0.7,0.9c-0.3,0.2-0.7,0.4-1.1,0.5c-0.4,0.1-0.8,0.2-1.3,0.2h-1.1v3
	C38.3,125.7,36.3,125.7,36.3,125.7z M38.2,121.2h1c1.1,0,1.6-0.5,1.6-1.4c0-0.5-0.1-0.8-0.4-1c-0.3-0.2-0.7-0.3-1.2-0.3h-1
	C38.2,118.5,38.2,121.2,38.2,121.2z M44.1,125.7V117h2v3.3h2.4V117h2v8.7h-2v-3.6h-2.4v3.6H44.1z M52.3,125.7V117h3.1
	c0.5,0,0.9,0,1.3,0.1c0.4,0.1,0.8,0.2,1.1,0.5c0.3,0.2,0.5,0.5,0.7,0.9s0.3,0.8,0.3,1.3s-0.1,1-0.3,1.3c-0.2,0.4-0.4,0.7-0.7,0.9
	c-0.3,0.2-0.7,0.4-1.1,0.5c-0.4,0.1-0.8,0.2-1.3,0.2h-1.1v3C54.3,125.7,52.3,125.7,52.3,125.7z M54.2,121.2h1c1.1,0,1.6-0.5,1.6-1.4
	c0-0.5-0.1-0.8-0.4-1c-0.3-0.2-0.7-0.3-1.2-0.3h-1C54.2,118.5,54.2,121.2,54.2,121.2z"/>
<path class="st8" d="M149.2,85.3l-0.2,0.8h1.8l-0.2-0.8c-0.1-0.4-0.2-0.9-0.4-1.4c-0.1-0.5-0.2-1-0.3-1.4l0,0
	c-0.1,0.5-0.2,0.9-0.3,1.4S149.4,84.9,149.2,85.3z M146.1,89.7l2.7-8.7h2.3l2.7,8.7h-2.1l-0.5-2.1h-2.6l-0.5,2.1H146.1z M154.2,89.7
	l2.5-4.5l-2.4-4.2h2.2l0.8,1.6c0.1,0.2,0.2,0.4,0.3,0.6s0.2,0.5,0.4,0.8l0,0c0.1-0.3,0.2-0.5,0.3-0.8c0.1-0.2,0.2-0.4,0.3-0.6
	l0.8-1.6h2.1l-2.4,4.3l2.5,4.4h-2.2l-1-1.8c-0.1-0.2-0.2-0.5-0.3-0.7s-0.2-0.5-0.3-0.8h-0.1c-0.1,0.3-0.2,0.5-0.3,0.8
	c-0.1,0.2-0.2,0.4-0.3,0.7l-0.9,1.8C156.2,89.7,154.2,89.7,154.2,89.7z M163,89.7V88h2v-5.4h-2V81h6v1.7h-2V88h2v1.7H163z M174,89.8
	c-0.5,0-1-0.1-1.4-0.3c-0.4-0.2-0.8-0.5-1.1-0.9s-0.5-0.9-0.7-1.4c-0.2-0.6-0.2-1.2-0.2-2c0-0.7,0.1-1.4,0.2-1.9
	c0.2-0.6,0.4-1,0.7-1.4s0.7-0.7,1.1-0.9c0.4-0.2,0.9-0.3,1.4-0.3s1,0.1,1.4,0.3c0.4,0.2,0.8,0.5,1.1,0.9s0.6,0.8,0.7,1.4
	c0.2,0.6,0.2,1.2,0.2,1.9c0,0.7-0.1,1.4-0.2,2c-0.2,0.6-0.4,1-0.7,1.4s-0.7,0.7-1.1,0.9C175,89.8,174.5,89.8,174,89.8z M174,88.2
	c0.4,0,0.8-0.2,1.1-0.7s0.4-1.2,0.4-2.1s-0.1-1.6-0.4-2.1c-0.3-0.5-0.6-0.7-1.1-0.7s-0.8,0.2-1.1,0.7s-0.4,1.2-0.4,2.1
	s0.1,1.7,0.4,2.1C173.2,87.9,173.5,88.2,174,88.2z M181.9,89.8c-0.6,0-1.2-0.1-1.7-0.3c-0.6-0.2-1.1-0.5-1.6-0.9l1.1-1.3
	c0.3,0.3,0.7,0.5,1.1,0.7c0.4,0.2,0.8,0.2,1.2,0.2s0.7-0.1,0.9-0.2s0.3-0.3,0.3-0.6c0-0.1,0-0.3-0.1-0.4s-0.2-0.2-0.3-0.3
	c-0.1-0.1-0.3-0.2-0.4-0.2c-0.2-0.1-0.4-0.2-0.6-0.2l-1.1-0.5c-0.2-0.1-0.5-0.2-0.7-0.3c-0.2-0.1-0.4-0.3-0.6-0.5
	c-0.2-0.2-0.3-0.4-0.4-0.7c-0.1-0.3-0.1-0.5-0.1-0.9s0.1-0.7,0.2-1c0.2-0.3,0.4-0.6,0.6-0.8c0.3-0.2,0.6-0.4,1-0.5s0.8-0.2,1.3-0.2
	s1,0.1,1.5,0.3c0.5,0.2,1,0.5,1.4,0.8l-1,1.2c-0.3-0.2-0.6-0.4-0.9-0.5c-0.3-0.1-0.7-0.2-1.1-0.2c-0.3,0-0.6,0.1-0.8,0.2
	s-0.3,0.3-0.3,0.6c0,0.3,0.1,0.5,0.4,0.6c0.3,0.1,0.6,0.3,1,0.4l1.1,0.5c0.6,0.2,1,0.5,1.4,0.9c0.3,0.4,0.5,0.9,0.5,1.5
	c0,0.4-0.1,0.7-0.2,1c-0.1,0.3-0.4,0.6-0.7,0.9c-0.3,0.2-0.6,0.4-1,0.6C183,89.8,182.5,89.8,181.9,89.8z"/>
<path class="st8" d="M150.6,107.8c-0.6,0-1.1-0.1-1.6-0.3c-0.5-0.2-0.9-0.5-1.3-0.8c-0.4-0.4-0.6-0.8-0.8-1.4s-0.3-1.2-0.3-1.9
	c0-0.7,0.1-1.4,0.3-1.9c0.2-0.6,0.5-1,0.8-1.4c0.4-0.4,0.8-0.7,1.3-0.9c0.5-0.2,1-0.3,1.6-0.3s1.1,0.1,1.5,0.3
	c0.4,0.2,0.8,0.5,1,0.8l-1.1,1.2c-0.2-0.2-0.4-0.3-0.6-0.5c-0.2-0.1-0.5-0.2-0.9-0.2c-0.3,0-0.5,0.1-0.8,0.2
	c-0.2,0.1-0.4,0.3-0.6,0.5c-0.2,0.2-0.3,0.5-0.4,0.9c-0.1,0.3-0.2,0.7-0.2,1.2c0,0.9,0.2,1.6,0.5,2.1s0.9,0.7,1.5,0.7
	c0.2,0,0.3,0,0.5-0.1s0.3-0.1,0.4-0.2v-1.5h-1.3v-1.6h3v4c-0.3,0.3-0.7,0.5-1.2,0.7C151.6,107.7,151.1,107.8,150.6,107.8z
	 M158,107.8c-0.5,0-1-0.1-1.4-0.3c-0.4-0.2-0.8-0.5-1.1-0.9s-0.5-0.9-0.7-1.4c-0.2-0.6-0.2-1.2-0.2-2c0-0.7,0.1-1.4,0.2-1.9
	c0.2-0.6,0.4-1,0.7-1.4s0.7-0.7,1.1-0.9c0.4-0.2,0.9-0.3,1.4-0.3s1,0.1,1.4,0.3c0.4,0.2,0.8,0.5,1.1,0.9s0.6,0.8,0.7,1.4
	c0.2,0.6,0.2,1.2,0.2,1.9c0,0.7-0.1,1.4-0.2,2c-0.2,0.6-0.4,1-0.7,1.4s-0.7,0.7-1.1,0.9C159,107.8,158.5,107.8,158,107.8z
	 M158,106.2c0.4,0,0.8-0.2,1.1-0.7s0.4-1.2,0.4-2.1s-0.1-1.6-0.4-2.1c-0.3-0.5-0.6-0.7-1.1-0.7s-0.8,0.2-1.1,0.7s-0.4,1.2-0.4,2.1
	s0.1,1.7,0.4,2.1C157.2,105.9,157.5,106.2,158,106.2z M166,107.8c-0.5,0-1-0.1-1.4-0.3c-0.4-0.2-0.8-0.5-1.1-0.9s-0.5-0.9-0.7-1.4
	c-0.2-0.6-0.2-1.2-0.2-2c0-0.7,0.1-1.4,0.2-1.9c0.2-0.6,0.4-1,0.7-1.4s0.7-0.7,1.1-0.9c0.4-0.2,0.9-0.3,1.4-0.3s1,0.1,1.4,0.3
	c0.4,0.2,0.8,0.5,1.1,0.9s0.6,0.8,0.7,1.4c0.2,0.6,0.2,1.2,0.2,1.9c0,0.7-0.1,1.4-0.2,2c-0.2,0.6-0.4,1-0.7,1.4s-0.7,0.7-1.1,0.9
	C167,107.8,166.5,107.8,166,107.8z M166,106.2c0.4,0,0.8-0.2,1.1-0.7s0.4-1.2,0.4-2.1s-0.1-1.6-0.4-2.1c-0.3-0.5-0.6-0.7-1.1-0.7
	s-0.8,0.2-1.1,0.7s-0.4,1.2-0.4,2.1s0.1,1.7,0.4,2.1C165.2,105.9,165.5,106.2,166,106.2z M174.6,107.8c-0.6,0-1.1-0.1-1.6-0.3
	c-0.5-0.2-0.9-0.5-1.3-0.8c-0.4-0.4-0.6-0.8-0.8-1.4s-0.3-1.2-0.3-1.9c0-0.7,0.1-1.4,0.3-1.9c0.2-0.6,0.5-1,0.8-1.4
	c0.4-0.4,0.8-0.7,1.3-0.9c0.5-0.2,1-0.3,1.6-0.3s1.1,0.1,1.5,0.3c0.4,0.2,0.8,0.5,1,0.8l-1.1,1.2c-0.2-0.2-0.4-0.3-0.6-0.5
	c-0.2-0.1-0.5-0.2-0.9-0.2c-0.3,0-0.5,0.1-0.8,0.2c-0.2,0.1-0.4,0.3-0.6,0.5c-0.2,0.2-0.3,0.5-0.4,0.9c-0.1,0.3-0.2,0.7-0.2,1.2
	c0,0.9,0.2,1.6,0.5,2.1s0.9,0.7,1.5,0.7c0.2,0,0.3,0,0.5-0.1s0.3-0.1,0.4-0.2v-1.5h-1.3v-1.6h3v4c-0.3,0.3-0.7,0.5-1.2,0.7
	C175.6,107.7,175.1,107.8,174.6,107.8z M179.4,107.7V99h2v7h3.9v1.7H179.4z M187.2,107.7V99h5.8v1.7h-3.8v1.7h3.2v1.6h-3.2v2h3.9
	v1.7C193.1,107.7,187.2,107.7,187.2,107.7z M202.7,107.7V99h2.1l0.8,3.1l0.3,1.2h0.1l0.3-1.2l0.9-3.1h2v8.7h-1.6V105
	c0-0.2,0-0.5,0-0.9s0-0.7,0.1-1.1c0-0.4,0.1-0.8,0.1-1.1c0-0.4,0.1-0.7,0.1-0.9l0,0l-0.7,2.3l-0.7,2.1h-1l-0.7-2.1l-0.6-2.3l0,0
	c0,0.2,0.1,0.5,0.1,0.9s0.1,0.7,0.1,1.1s0.1,0.8,0.1,1.1c0,0.4,0,0.7,0,0.9v2.7H202.7z M213.2,103.3l-0.2,0.8h1.8l-0.2-0.8
	c-0.1-0.4-0.2-0.9-0.4-1.4c-0.1-0.5-0.2-1-0.3-1.4l0,0c-0.1,0.5-0.2,0.9-0.3,1.4C213.4,102.4,213.3,102.9,213.2,103.3z M210.1,107.7
	l2.7-8.7h2.3l2.7,8.7h-2.1l-0.5-2.1h-2.6l-0.5,2.1H210.1z M219,107.7V99h3.1c0.5,0,0.9,0,1.3,0.1c0.4,0.1,0.8,0.2,1.1,0.5
	c0.3,0.2,0.5,0.5,0.7,0.9s0.3,0.8,0.3,1.3s-0.1,1-0.3,1.3c-0.2,0.4-0.4,0.7-0.7,0.9c-0.3,0.2-0.7,0.4-1.1,0.5
	c-0.4,0.1-0.8,0.2-1.3,0.2H221v3C221,107.7,219,107.7,219,107.7z M220.9,103.2h1c1.1,0,1.6-0.5,1.6-1.4c0-0.5-0.1-0.8-0.4-1
	c-0.3-0.2-0.7-0.3-1.2-0.3h-1L220.9,103.2L220.9,103.2z M237.2,103.3l-0.2,0.8h1.8l-0.2-0.8c-0.1-0.4-0.2-0.9-0.4-1.4
	c-0.1-0.5-0.2-1-0.3-1.4l0,0c-0.1,0.5-0.2,0.9-0.3,1.4C237.4,102.4,237.3,102.9,237.2,103.3z M234.1,107.7l2.7-8.7h2.3l2.7,8.7h-2.1
	l-0.5-2.1h-2.6l-0.5,2.1H234.1z M242.9,107.7V99h3.1c0.5,0,0.9,0,1.3,0.1c0.4,0.1,0.8,0.2,1.1,0.5c0.3,0.2,0.5,0.5,0.7,0.9
	s0.3,0.8,0.3,1.3s-0.1,1-0.3,1.3c-0.2,0.4-0.4,0.7-0.7,0.9c-0.3,0.2-0.7,0.4-1.1,0.5c-0.4,0.1-0.8,0.2-1.3,0.2h-1.1v3
	C244.9,107.7,242.9,107.7,242.9,107.7z M244.9,103.2h1c1.1,0,1.6-0.5,1.6-1.4c0-0.5-0.1-0.8-0.4-1c-0.3-0.2-0.7-0.3-1.2-0.3h-1
	L244.9,103.2L244.9,103.2z M250.9,107.7V106h2v-5.4h-2V99h6v1.7h-2v5.4h2v1.7L250.9,107.7L250.9,107.7z"/>
<path class="st8" d="M38.1,198.4l-2.6-8.7h2.1l1,4c0.1,0.5,0.3,0.9,0.4,1.4c0.1,0.4,0.2,0.9,0.3,1.4l0,0c0.1-0.5,0.3-0.9,0.4-1.4
	c0.1-0.4,0.2-0.9,0.3-1.4l1-4h2l-2.6,8.7H38.1z M46.2,198.6c-0.8,0-1.3-0.2-1.6-0.7s-0.5-1.1-0.5-2v-4.1h2v3.8c0,0.4,0.1,0.8,0.2,1
	s0.4,0.3,0.8,0.3c0.2,0,0.5-0.1,0.7-0.2c0.2-0.1,0.4-0.3,0.6-0.6v-4.3h2v6.6h-1.6l-0.1-1l0,0c-0.3,0.3-0.6,0.6-1,0.8
	C47.1,198.5,46.7,198.6,46.2,198.6z M55.7,198.6c-0.5,0-1-0.1-1.4-0.2c-0.4-0.2-0.8-0.4-1.2-0.7c-0.3-0.3-0.6-0.7-0.8-1.1
	c-0.2-0.4-0.3-0.9-0.3-1.5c0-0.5,0.1-1,0.3-1.5c0.2-0.4,0.5-0.8,0.8-1.1s0.7-0.5,1.1-0.7c0.4-0.2,0.8-0.2,1.3-0.2s1,0.1,1.3,0.2
	c0.4,0.2,0.7,0.4,1,0.7s0.5,0.6,0.6,1s0.2,0.8,0.2,1.3c0,0.2,0,0.3,0,0.5s0,0.3,0,0.4H54c0.1,0.5,0.3,0.8,0.7,1.1
	c0.3,0.2,0.8,0.3,1.3,0.3c0.3,0,0.6,0,0.9-0.1c0.3-0.1,0.6-0.2,0.8-0.3l0.7,1.2c-0.4,0.2-0.8,0.4-1.3,0.6
	C56.6,198.5,56.1,198.6,55.7,198.6z M55.5,193.1c-0.4,0-0.7,0.1-1,0.3s-0.4,0.5-0.5,0.9h2.8C56.7,193.5,56.3,193.1,55.5,193.1z
	 M63.3,198.6c-0.5,0-0.8-0.1-1.1-0.4c-0.3-0.3-0.4-0.7-0.4-1.1c0-0.2,0-0.4,0.1-0.6c0.1-0.2,0.2-0.4,0.3-0.5s0.3-0.3,0.5-0.3
	c0.2-0.1,0.4-0.1,0.6-0.1s0.4,0,0.6,0.1s0.4,0.2,0.5,0.3s0.2,0.3,0.3,0.5c0.1,0.2,0.1,0.4,0.1,0.6c0,0.4-0.1,0.8-0.4,1.1
	C64.1,198.4,63.7,198.6,63.3,198.6z M69.9,201c-0.4,0-0.8,0-1.1-0.1c-0.3-0.1-0.6-0.2-0.9-0.3l0.6-1.4c0.3,0.1,0.5,0.2,0.7,0.2
	s0.4,0.1,0.6,0.1c0.5,0,0.8-0.1,1-0.3s0.3-0.6,0.3-1v-4.8h-2.7v-1.5H73v6.2c0,0.4,0,0.8-0.1,1.2s-0.3,0.7-0.5,1s-0.6,0.5-1,0.7
	C70.9,200.9,70.4,201,69.9,201z M72.3,190.8c-0.4,0-0.7-0.1-1-0.3c-0.2-0.2-0.4-0.5-0.4-0.9s0.1-0.7,0.4-0.9c0.2-0.2,0.6-0.3,1-0.3
	s0.7,0.1,0.9,0.3c0.2,0.2,0.4,0.5,0.4,0.9s-0.1,0.7-0.4,0.9C73,190.6,72.6,190.8,72.3,190.8z M79.2,198.6c-0.6,0-1.2-0.1-1.8-0.3
	c-0.6-0.2-1.1-0.4-1.5-0.7l0.8-1.2c0.4,0.3,0.8,0.5,1.3,0.6c0.4,0.1,0.9,0.2,1.4,0.2c0.4,0,0.6-0.1,0.8-0.2s0.2-0.2,0.2-0.4
	c0-0.1,0-0.2-0.1-0.2c0-0.1-0.1-0.1-0.2-0.2c-0.1-0.1-0.3-0.1-0.5-0.2c-0.2-0.1-0.5-0.1-0.8-0.2c-0.9-0.2-1.5-0.5-1.9-0.8
	s-0.6-0.8-0.6-1.3c0-0.3,0.1-0.6,0.2-0.8c0.1-0.3,0.3-0.5,0.6-0.7s0.6-0.3,1-0.4c0.4-0.1,0.8-0.2,1.3-0.2c0.6,0,1.1,0.1,1.6,0.3
	s0.9,0.4,1.3,0.6l-0.9,1.2c-0.3-0.2-0.7-0.4-1-0.5s-0.7-0.2-1.1-0.2c-0.3,0-0.5,0-0.7,0.1c-0.1,0.1-0.2,0.2-0.2,0.4s0.1,0.3,0.3,0.4
	c0.2,0.1,0.6,0.2,1.2,0.3c0.5,0.1,0.9,0.2,1.3,0.4c0.3,0.1,0.6,0.3,0.8,0.5c0.2,0.2,0.3,0.4,0.4,0.6c0.1,0.2,0.1,0.4,0.1,0.7
	s-0.1,0.6-0.2,0.8s-0.4,0.5-0.6,0.7c-0.3,0.2-0.6,0.3-1,0.5C80.2,198.5,79.7,198.6,79.2,198.6z"/>
<path class="st8" d="M36.3,216.4v-8.7h2.9c0.4,0,0.9,0,1.2,0.1c0.4,0.1,0.7,0.2,1,0.3c0.3,0.2,0.5,0.4,0.7,0.7s0.2,0.6,0.2,1
	c0,0.2,0,0.4-0.1,0.6c-0.1,0.2-0.1,0.4-0.3,0.5c-0.1,0.2-0.3,0.3-0.5,0.5c-0.2,0.1-0.4,0.2-0.7,0.3v0.1c0.6,0.1,1.1,0.3,1.4,0.7
	c0.3,0.3,0.5,0.8,0.5,1.4c0,0.4-0.1,0.8-0.2,1.2c-0.2,0.3-0.4,0.6-0.7,0.8s-0.7,0.4-1.1,0.5c-0.4,0.1-0.8,0.2-1.3,0.2h-3
	C36.3,216.6,36.3,216.4,36.3,216.4z M38.2,211.2h0.9c0.5,0,0.8-0.1,1-0.3s0.3-0.5,0.3-0.8s-0.1-0.6-0.3-0.7c-0.2-0.1-0.6-0.2-1-0.2
	h-0.9V211.2z M38.2,214.9h1c1.1,0,1.6-0.4,1.6-1.2c0-0.4-0.1-0.7-0.4-0.8c-0.3-0.2-0.6-0.2-1.2-0.2h-1
	C38.2,212.7,38.2,214.9,38.2,214.9z M47.3,216.6c-0.4,0-0.9-0.1-1.3-0.2s-0.8-0.4-1.1-0.7s-0.6-0.7-0.8-1.1
	c-0.2-0.4-0.3-0.9-0.3-1.5c0-0.5,0.1-1,0.3-1.5c0.2-0.4,0.4-0.8,0.8-1.1s0.7-0.5,1.1-0.7s0.8-0.2,1.3-0.2s0.9,0.1,1.2,0.2
	c0.4,0.2,0.8,0.4,1.1,0.7s0.6,0.7,0.8,1.1c0.2,0.4,0.3,0.9,0.3,1.5s-0.1,1-0.3,1.5c-0.2,0.4-0.4,0.8-0.8,1.1
	c-0.3,0.3-0.7,0.5-1.1,0.7C48.1,216.5,47.7,216.6,47.3,216.6z M47.3,215c0.4,0,0.8-0.2,1-0.5s0.3-0.8,0.3-1.4c0-0.6-0.1-1-0.3-1.4
	c-0.2-0.3-0.6-0.5-1-0.5c-0.5,0-0.8,0.2-1,0.5s-0.3,0.8-0.3,1.4c0,0.6,0.1,1,0.3,1.4C46.5,214.8,46.8,215,47.3,215z M55.3,216.6
	c-0.4,0-0.9-0.1-1.3-0.2c-0.4-0.2-0.8-0.4-1.1-0.7s-0.6-0.7-0.8-1.1c-0.2-0.4-0.3-0.9-0.3-1.5c0-0.5,0.1-1,0.3-1.5
	c0.2-0.4,0.4-0.8,0.8-1.1c0.3-0.3,0.7-0.5,1.1-0.7c0.4-0.2,0.8-0.2,1.3-0.2c0.4,0,0.9,0.1,1.2,0.2c0.4,0.2,0.8,0.4,1.1,0.7
	s0.6,0.7,0.8,1.1c0.2,0.4,0.3,0.9,0.3,1.5s-0.1,1-0.3,1.5c-0.2,0.4-0.4,0.8-0.8,1.1c-0.3,0.3-0.7,0.5-1.1,0.7
	C56.1,216.5,55.7,216.6,55.3,216.6z M55.3,215c0.4,0,0.8-0.2,1-0.5s0.3-0.8,0.3-1.4c0-0.6-0.1-1-0.3-1.4c-0.2-0.3-0.6-0.5-1-0.5
	c-0.5,0-0.8,0.2-1,0.5s-0.3,0.8-0.3,1.4c0,0.6,0.1,1,0.3,1.4C54.5,214.8,54.8,215,55.3,215z M64.4,216.6c-0.5,0-1-0.1-1.3-0.2
	c-0.4-0.1-0.7-0.3-0.9-0.6s-0.4-0.6-0.5-0.9c-0.1-0.4-0.1-0.8-0.1-1.2v-2.3h-1.7v-1.5l1.8-0.1l0.3-2h1.6v2h2.8v1.5h-2.8v2.3
	c0,0.5,0.1,0.9,0.3,1.1c0.2,0.2,0.6,0.3,1.1,0.3c0.2,0,0.5,0,0.7-0.1s0.4-0.1,0.6-0.2l0.3,1.4c-0.3,0.1-0.6,0.2-1,0.2
	C65.3,216.5,64.9,216.6,64.4,216.6z M71.2,216.6c-0.6,0-1.2-0.1-1.7-0.3c-0.6-0.2-1.1-0.5-1.6-0.9l1.1-1.3c0.3,0.3,0.7,0.5,1.1,0.7
	s0.8,0.2,1.2,0.2c0.4,0,0.7-0.1,0.9-0.2c0.2-0.1,0.3-0.3,0.3-0.6c0-0.1,0-0.3-0.1-0.4c-0.1-0.1-0.2-0.2-0.3-0.3
	c-0.1-0.1-0.3-0.2-0.4-0.2c-0.2-0.1-0.4-0.2-0.6-0.2l-1.1-0.5c-0.2-0.1-0.5-0.2-0.7-0.3s-0.4-0.3-0.6-0.5s-0.3-0.4-0.4-0.7
	c-0.1-0.2-0.1-0.5-0.1-0.9s0.1-0.7,0.2-1c0.2-0.3,0.4-0.6,0.6-0.8c0.3-0.2,0.6-0.4,1-0.5s0.8-0.2,1.3-0.2s1,0.1,1.5,0.3
	s1,0.5,1.4,0.8l-1,1.2c-0.3-0.2-0.6-0.4-0.9-0.5s-0.7-0.2-1.1-0.2c-0.3,0-0.6,0.1-0.8,0.2c-0.2,0.1-0.3,0.3-0.3,0.6s0.1,0.5,0.4,0.6
	s0.6,0.3,1,0.4l1.1,0.5c0.6,0.2,1,0.5,1.4,0.9c0.3,0.4,0.5,0.9,0.5,1.5c0,0.4-0.1,0.7-0.2,1s-0.4,0.6-0.7,0.9
	c-0.3,0.2-0.6,0.4-1,0.6C72.2,216.5,71.8,216.6,71.2,216.6z M80.4,216.6c-0.5,0-1-0.1-1.3-0.2c-0.4-0.1-0.7-0.3-0.9-0.6
	c-0.2-0.3-0.4-0.6-0.5-0.9c-0.1-0.4-0.1-0.8-0.1-1.2v-2.3h-1.7v-1.5l1.8-0.1l0.3-2h1.6v2h2.8v1.5h-2.8v2.3c0,0.5,0.1,0.9,0.3,1.1
	s0.6,0.3,1.1,0.3c0.2,0,0.5,0,0.7-0.1s0.4-0.1,0.6-0.2l0.3,1.4c-0.3,0.1-0.6,0.2-1,0.2C81.3,216.5,80.9,216.6,80.4,216.6z
	 M84.8,216.4v-6.6h1.6l0.2,1.4l0,0c0.3-0.5,0.7-0.9,1.2-1.2s1-0.4,1.5-0.4c0.3,0,0.5,0,0.7,0.1c0.2,0,0.4,0.1,0.6,0.2l-0.4,1.6
	c-0.2-0.1-0.4-0.1-0.6-0.1s-0.4,0-0.6,0c-0.4,0-0.8,0.1-1.2,0.4c-0.4,0.2-0.7,0.7-1,1.2v3.4L84.8,216.4L84.8,216.4z M94.2,216.6
	c-0.3,0-0.6-0.1-0.9-0.2c-0.3-0.1-0.5-0.2-0.7-0.4s-0.3-0.4-0.4-0.6s-0.2-0.5-0.2-0.8c0-0.4,0.1-0.7,0.2-1c0.2-0.3,0.4-0.5,0.8-0.7
	s0.8-0.4,1.4-0.5s1.2-0.2,2-0.2c0-0.3-0.2-0.5-0.4-0.7c-0.2-0.2-0.6-0.3-1-0.3c-0.3,0-0.6,0.1-1,0.2s-0.7,0.3-1,0.5l-0.7-1.3
	c0.5-0.3,0.9-0.5,1.5-0.6s1.1-0.2,1.6-0.2c0.9,0,1.7,0.2,2.2,0.7s0.8,1.2,0.8,2.2v3.8h-1.6l-0.1-0.8h-0.1c-0.3,0.3-0.7,0.5-1.1,0.7
	C95.1,216.5,94.7,216.6,94.2,216.6z M94.9,215c0.3,0,0.6-0.1,0.8-0.2c0.3-0.1,0.5-0.3,0.7-0.5v-1.1c-0.5,0-0.9,0.1-1.2,0.1
	c-0.3,0.1-0.6,0.1-0.8,0.2s-0.3,0.2-0.4,0.3s-0.1,0.3-0.1,0.4c0,0.2,0.1,0.4,0.2,0.5S94.6,215,94.9,215z M100.2,218.9v-9.1h1.6
	l0.1,0.7l0,0c0.3-0.2,0.6-0.4,0.9-0.6c0.4-0.2,0.7-0.2,1.1-0.2s0.8,0.1,1.1,0.2c0.3,0.2,0.6,0.4,0.8,0.7c0.2,0.3,0.4,0.6,0.5,1.1
	c0.1,0.4,0.2,0.9,0.2,1.4c0,0.6-0.1,1.1-0.2,1.5c-0.2,0.4-0.4,0.8-0.6,1.1c-0.3,0.3-0.6,0.5-0.9,0.7s-0.7,0.2-1.1,0.2
	c-0.6,0-1.1-0.2-1.6-0.7l0,0l0.1,1.1v1.9L100.2,218.9L100.2,218.9z M103.3,215c0.4,0,0.7-0.2,0.9-0.5c0.2-0.3,0.4-0.8,0.4-1.5
	c0-1.2-0.4-1.8-1.2-1.8c-0.4,0-0.8,0.2-1.2,0.6v2.7c0.2,0.2,0.4,0.3,0.6,0.3C102.9,214.9,103.1,215,103.3,215z M108.2,212.7v-1.4
	h6.1v1.4H108.2z M118.1,216.4l-2.6-8.7h2.1l1,4c0.1,0.5,0.3,0.9,0.4,1.4c0.1,0.4,0.2,0.9,0.3,1.4l0,0c0.1-0.5,0.3-0.9,0.4-1.4
	c0.1-0.4,0.2-0.9,0.3-1.4l1-4h2l-2.6,8.7H118.1z M126.2,216.6c-0.8,0-1.3-0.2-1.6-0.7c-0.3-0.5-0.5-1.1-0.5-2v-4.1h2v3.8
	c0,0.4,0.1,0.8,0.2,1s0.4,0.3,0.8,0.3c0.2,0,0.5-0.1,0.7-0.2c0.2-0.1,0.4-0.3,0.6-0.6v-4.3h2v6.6h-1.6l-0.1-1l0,0
	c-0.3,0.3-0.6,0.6-1,0.8C127.1,216.5,126.7,216.6,126.2,216.6z M135.6,216.6c-0.5,0-1-0.1-1.4-0.2c-0.4-0.2-0.8-0.4-1.2-0.7
	c-0.3-0.3-0.6-0.7-0.8-1.1c-0.2-0.4-0.3-0.9-0.3-1.5c0-0.5,0.1-1,0.3-1.5c0.2-0.4,0.5-0.8,0.8-1.1s0.7-0.5,1.1-0.7
	c0.4-0.2,0.8-0.2,1.3-0.2s1,0.1,1.3,0.2c0.4,0.2,0.7,0.4,1,0.7s0.5,0.6,0.6,1s0.2,0.8,0.2,1.3c0,0.2,0,0.3,0,0.5s0,0.3,0,0.4H134
	c0.1,0.5,0.3,0.8,0.7,1.1c0.3,0.2,0.8,0.3,1.3,0.3c0.3,0,0.6,0,0.9-0.1c0.3-0.1,0.6-0.2,0.8-0.3l0.7,1.2c-0.4,0.2-0.8,0.4-1.3,0.6
	C136.5,216.5,136.1,216.6,135.6,216.6z M135.5,211.1c-0.4,0-0.7,0.1-1,0.3s-0.4,0.5-0.5,0.9h2.8
	C136.7,211.5,136.2,211.1,135.5,211.1z"/>
<path class="st8" d="M36.3,234.4v-8.7h3.1c0.5,0,0.9,0,1.3,0.1c0.4,0.1,0.8,0.3,1.1,0.5s0.5,0.5,0.7,0.9s0.3,0.8,0.3,1.3
	s-0.1,1-0.3,1.3c-0.2,0.4-0.4,0.7-0.7,0.9s-0.7,0.4-1.1,0.5c-0.4,0.1-0.8,0.2-1.3,0.2h-1.1v3H36.3z M38.2,229.9h1
	c1.1,0,1.6-0.5,1.6-1.4c0-0.5-0.1-0.8-0.4-1c-0.3-0.2-0.7-0.3-1.2-0.3h-1C38.2,227.2,38.2,229.9,38.2,229.9z M44.1,234.4v-8.7h2v3.3
	h2.4v-3.3h2v8.7h-2v-3.6h-2.4v3.6H44.1z M52.3,234.4v-8.7h3.1c0.5,0,0.9,0,1.3,0.1c0.4,0.1,0.8,0.3,1.1,0.5s0.5,0.5,0.7,0.9
	s0.3,0.8,0.3,1.3s-0.1,1-0.3,1.3c-0.2,0.4-0.4,0.7-0.7,0.9s-0.7,0.4-1.1,0.5c-0.4,0.1-0.8,0.2-1.3,0.2h-1.1v3H52.3z M54.2,229.9h1
	c1.1,0,1.6-0.5,1.6-1.4c0-0.5-0.1-0.8-0.4-1c-0.3-0.2-0.7-0.3-1.2-0.3h-1C54.2,227.2,54.2,229.9,54.2,229.9z"/>
<path class="st8" d="M197.2,194l-0.2,0.8h1.8l-0.2-0.8c-0.1-0.4-0.2-0.9-0.4-1.4c-0.1-0.5-0.2-1-0.3-1.4l0,0
	c-0.1,0.5-0.2,0.9-0.3,1.4S197.4,193.6,197.2,194z M194.1,198.4l2.7-8.7h2.3l2.7,8.7h-2.1l-0.5-2.1h-2.6l-0.5,2.1H194.1z
	 M202.2,198.4l2.5-4.5l-2.4-4.2h2.2l0.8,1.6c0.1,0.2,0.2,0.4,0.3,0.6c0.1,0.2,0.2,0.5,0.4,0.8l0,0c0.1-0.3,0.2-0.5,0.3-0.8
	c0.1-0.2,0.2-0.4,0.3-0.6l0.8-1.6h2.1l-2.4,4.3l2.5,4.4h-2.2l-1-1.8c-0.1-0.2-0.2-0.5-0.3-0.7s-0.2-0.5-0.3-0.8h-0.1
	c-0.1,0.3-0.2,0.5-0.3,0.8c-0.1,0.2-0.2,0.4-0.3,0.7l-0.9,1.8H202.2z M211,198.4v-1.7h2v-5.4h-2v-1.7h6v1.7h-2v5.4h2v1.7H211z
	 M222,198.6c-0.5,0-1-0.1-1.4-0.3s-0.8-0.5-1.1-0.9s-0.5-0.9-0.7-1.4c-0.2-0.6-0.2-1.2-0.2-2c0-0.7,0.1-1.4,0.2-1.9
	c0.2-0.6,0.4-1,0.7-1.4s0.7-0.7,1.1-0.9s0.9-0.3,1.4-0.3s1,0.1,1.4,0.3s0.8,0.5,1.1,0.9s0.6,0.8,0.7,1.4s0.2,1.2,0.2,1.9
	c0,0.8-0.1,1.4-0.2,2s-0.4,1-0.7,1.4s-0.7,0.7-1.1,0.9C223,198.5,222.5,198.6,222,198.6z M222,196.9c0.4,0,0.8-0.2,1.1-0.7
	s0.4-1.2,0.4-2.1c0-0.9-0.1-1.6-0.4-2.1s-0.6-0.7-1.1-0.7s-0.8,0.2-1.1,0.7s-0.4,1.2-0.4,2.1c0,0.9,0.1,1.7,0.4,2.1
	C221.2,196.6,221.5,196.9,222,196.9z M229.9,198.6c-0.6,0-1.2-0.1-1.7-0.3c-0.6-0.2-1.1-0.5-1.6-0.9l1.1-1.3
	c0.3,0.3,0.7,0.5,1.1,0.7c0.4,0.2,0.8,0.2,1.2,0.2s0.7-0.1,0.9-0.2c0.2-0.1,0.3-0.3,0.3-0.6c0-0.1,0-0.3-0.1-0.4s-0.2-0.2-0.3-0.3
	s-0.3-0.2-0.4-0.2c-0.2-0.1-0.4-0.2-0.6-0.2l-1.1-0.5c-0.2-0.1-0.5-0.2-0.7-0.3s-0.4-0.3-0.6-0.5c-0.2-0.2-0.3-0.4-0.4-0.7
	c-0.1-0.2-0.1-0.5-0.1-0.9s0.1-0.7,0.2-1c0.2-0.3,0.4-0.6,0.6-0.8c0.3-0.2,0.6-0.4,1-0.5s0.8-0.2,1.3-0.2s1,0.1,1.5,0.3
	s1,0.5,1.4,0.8l-1,1.2c-0.3-0.2-0.6-0.4-0.9-0.5c-0.3-0.1-0.7-0.2-1.1-0.2c-0.3,0-0.6,0.1-0.8,0.2c-0.2,0.1-0.3,0.3-0.3,0.6
	s0.1,0.5,0.4,0.6c0.3,0.1,0.6,0.3,1,0.4l1.1,0.5c0.6,0.2,1,0.5,1.4,0.9c0.3,0.4,0.5,0.9,0.5,1.5c0,0.4-0.1,0.7-0.2,1
	c-0.1,0.3-0.4,0.6-0.7,0.9c-0.3,0.2-0.6,0.4-1,0.6C231,198.5,230.5,198.6,229.9,198.6z"/>
<path class="st8" d="M198.6,216.6c-0.6,0-1.1-0.1-1.6-0.3s-0.9-0.5-1.3-0.8c-0.4-0.4-0.6-0.8-0.8-1.4c-0.2-0.6-0.3-1.2-0.3-1.9
	s0.1-1.4,0.3-1.9c0.2-0.6,0.5-1,0.8-1.4c0.4-0.4,0.8-0.7,1.3-0.9s1-0.3,1.6-0.3s1.1,0.1,1.5,0.3s0.8,0.5,1,0.8L200,210
	c-0.2-0.2-0.4-0.3-0.6-0.5c-0.2-0.1-0.5-0.2-0.9-0.2c-0.3,0-0.5,0.1-0.8,0.2c-0.2,0.1-0.4,0.3-0.6,0.5c-0.2,0.2-0.3,0.5-0.4,0.9
	c-0.1,0.3-0.2,0.7-0.2,1.2c0,0.9,0.2,1.6,0.5,2.1s0.9,0.7,1.5,0.7c0.2,0,0.3,0,0.5-0.1s0.3-0.1,0.4-0.2v-1.5h-1.3v-1.6h3v4
	c-0.3,0.3-0.7,0.5-1.2,0.7C199.6,216.5,199.1,216.6,198.6,216.6z M206,216.6c-0.5,0-1-0.1-1.4-0.3s-0.8-0.5-1.1-0.9
	s-0.5-0.9-0.7-1.4c-0.2-0.6-0.2-1.2-0.2-2c0-0.7,0.1-1.4,0.2-1.9c0.2-0.6,0.4-1,0.7-1.4s0.7-0.7,1.1-0.9c0.4-0.2,0.9-0.3,1.4-0.3
	s1,0.1,1.4,0.3s0.8,0.5,1.1,0.9s0.6,0.8,0.7,1.4c0.2,0.6,0.2,1.2,0.2,1.9c0,0.8-0.1,1.4-0.2,2c-0.2,0.6-0.4,1-0.7,1.4
	s-0.7,0.7-1.1,0.9C207,216.5,206.5,216.6,206,216.6z M206,214.9c0.4,0,0.8-0.2,1.1-0.7s0.4-1.2,0.4-2.1c0-0.9-0.1-1.6-0.4-2.1
	c-0.3-0.5-0.6-0.7-1.1-0.7s-0.8,0.2-1.1,0.7s-0.4,1.2-0.4,2.1c0,0.9,0.1,1.7,0.4,2.1C205.2,214.6,205.5,214.9,206,214.9z M214,216.6
	c-0.5,0-1-0.1-1.4-0.3s-0.8-0.5-1.1-0.9s-0.5-0.9-0.7-1.4c-0.2-0.6-0.2-1.2-0.2-2c0-0.7,0.1-1.4,0.2-1.9c0.2-0.6,0.4-1,0.7-1.4
	s0.7-0.7,1.1-0.9s0.9-0.3,1.4-0.3s1,0.1,1.4,0.3s0.8,0.5,1.1,0.9s0.6,0.8,0.7,1.4s0.2,1.2,0.2,1.9c0,0.8-0.1,1.4-0.2,2
	s-0.4,1-0.7,1.4s-0.7,0.7-1.1,0.9C215,216.5,214.5,216.6,214,216.6z M214,214.9c0.4,0,0.8-0.2,1.1-0.7s0.4-1.2,0.4-2.1
	c0-0.9-0.1-1.6-0.4-2.1s-0.6-0.7-1.1-0.7s-0.8,0.2-1.1,0.7s-0.4,1.2-0.4,2.1c0,0.9,0.1,1.7,0.4,2.1
	C213.2,214.6,213.5,214.9,214,214.9z M222.6,216.6c-0.6,0-1.1-0.1-1.6-0.3s-0.9-0.5-1.3-0.8c-0.4-0.4-0.6-0.8-0.8-1.4
	c-0.2-0.6-0.3-1.2-0.3-1.9s0.1-1.4,0.3-1.9s0.5-1,0.8-1.4c0.4-0.4,0.8-0.7,1.3-0.9s1-0.3,1.6-0.3s1.1,0.1,1.5,0.3s0.8,0.5,1,0.8
	L224,210c-0.2-0.2-0.4-0.3-0.6-0.5s-0.5-0.2-0.9-0.2c-0.3,0-0.5,0.1-0.8,0.2c-0.2,0.1-0.4,0.3-0.6,0.5s-0.3,0.5-0.4,0.9
	s-0.2,0.7-0.2,1.2c0,0.9,0.2,1.6,0.5,2.1s0.9,0.7,1.5,0.7c0.2,0,0.3,0,0.5-0.1s0.3-0.1,0.4-0.2v-1.5h-1.3v-1.6h3v4
	c-0.3,0.3-0.7,0.5-1.2,0.7C223.6,216.5,223.1,216.6,222.6,216.6z M227.4,216.4v-8.7h2v7h3.9v1.7H227.4z M235.2,216.4v-8.7h5.8v1.7
	h-3.8v1.7h3.2v1.6h-3.2v2h3.9v1.7H235.2z M250.7,216.4v-8.7h2.1l0.8,3.1l0.3,1.2h0.1l0.3-1.2l0.9-3.1h2v8.7h-1.6v-2.7
	c0-0.2,0-0.5,0-0.9s0-0.7,0.1-1.1c0-0.4,0.1-0.8,0.1-1.1c0-0.4,0.1-0.7,0.1-0.9l0,0l-0.7,2.3l-0.7,2.1h-1l-0.7-2.1l-0.6-2.3l0,0
	c0,0.2,0.1,0.5,0.1,0.9s0.1,0.7,0.1,1.1c0,0.4,0.1,0.8,0.1,1.1s0,0.7,0,0.9v2.7H250.7z M261.2,212l-0.2,0.8h1.8l-0.2-0.8
	c-0.1-0.4-0.2-0.9-0.4-1.4c-0.1-0.5-0.2-1-0.3-1.4l0,0c-0.1,0.5-0.2,0.9-0.3,1.4C261.4,211.1,261.3,211.6,261.2,212z M258.1,216.4
	l2.7-8.7h2.3l2.7,8.7h-2.1l-0.5-2.1h-2.6l-0.5,2.1H258.1z M267,216.4v-8.7h3.1c0.5,0,0.9,0,1.3,0.1s0.8,0.2,1.1,0.5
	c0.3,0.2,0.5,0.5,0.7,0.9s0.3,0.8,0.3,1.3s-0.1,1-0.3,1.3c-0.2,0.4-0.4,0.7-0.7,0.9s-0.7,0.4-1.1,0.5s-0.8,0.2-1.3,0.2H269v3H267z
	 M268.9,211.9h1c1.1,0,1.6-0.5,1.6-1.4c0-0.5-0.1-0.8-0.4-1s-0.7-0.3-1.2-0.3h-1V211.9z M285.2,212l-0.2,0.8h1.8l-0.2-0.8
	c-0.1-0.4-0.2-0.9-0.4-1.4c-0.1-0.5-0.2-1-0.3-1.4l0,0c-0.1,0.5-0.2,0.9-0.3,1.4C285.4,211.1,285.3,211.6,285.2,212z M282.1,216.4
	l2.7-8.7h2.3l2.7,8.7h-2.1l-0.5-2.1h-2.6l-0.5,2.1H282.1z M290.9,216.4v-8.7h3.1c0.5,0,0.9,0,1.3,0.1s0.8,0.2,1.1,0.5
	c0.3,0.2,0.5,0.5,0.7,0.9s0.3,0.8,0.3,1.3s-0.1,1-0.3,1.3c-0.2,0.4-0.4,0.7-0.7,0.9s-0.7,0.4-1.1,0.5s-0.8,0.2-1.3,0.2h-1.1v3H290.9
	z M292.9,211.9h1c1.1,0,1.6-0.5,1.6-1.4c0-0.5-0.1-0.8-0.4-1s-0.7-0.3-1.2-0.3h-1V211.9z M298.9,216.4v-1.7h2v-5.4h-2v-1.7h6v1.7h-2
	v5.4h2v1.7H298.9z"/>
<path class="st8" d="M195.4,234.4v-8.7h5.8v1.7h-3.8v2h3.2v1.7h-3.2v3.4L195.4,234.4L195.4,234.4z M205.7,234.4v-5.1H203v-1.5h4.6
	v6.6H205.7z M207,226.8c-0.4,0-0.7-0.1-1-0.3c-0.2-0.2-0.4-0.5-0.4-0.9s0.1-0.7,0.4-0.9c0.2-0.2,0.6-0.3,1-0.3s0.7,0.1,0.9,0.3
	s0.4,0.5,0.4,0.9s-0.1,0.7-0.4,0.9C207.7,226.6,207.4,226.8,207,226.8z M211.5,234.4v-6.6h1.6l0.2,1.4l0,0c0.3-0.5,0.7-0.9,1.2-1.2
	s1-0.4,1.5-0.4c0.3,0,0.5,0,0.7,0.1c0.2,0,0.4,0.1,0.6,0.2l-0.4,1.6c-0.2-0.1-0.4-0.1-0.6-0.1c-0.2,0-0.4,0-0.6,0
	c-0.4,0-0.8,0.1-1.2,0.4c-0.4,0.2-0.7,0.7-1,1.2v3.4L211.5,234.4L211.5,234.4z M222.4,234.6c-0.5,0-1-0.1-1.4-0.2
	c-0.4-0.2-0.8-0.4-1.2-0.7c-0.3-0.3-0.6-0.7-0.8-1.1c-0.2-0.4-0.3-0.9-0.3-1.5c0-0.5,0.1-1,0.3-1.5c0.2-0.4,0.5-0.8,0.8-1.1
	s0.7-0.5,1.1-0.7c0.4-0.2,0.8-0.2,1.3-0.2s1,0.1,1.3,0.2c0.4,0.2,0.7,0.4,1,0.7s0.5,0.6,0.6,1s0.2,0.8,0.2,1.3c0,0.2,0,0.3,0,0.5
	s0,0.3,0,0.4h-4.5c0.1,0.5,0.3,0.8,0.7,1.1c0.3,0.2,0.8,0.3,1.3,0.3c0.3,0,0.6,0,0.9-0.1c0.3-0.1,0.6-0.2,0.8-0.3l0.7,1.2
	c-0.4,0.2-0.8,0.4-1.3,0.6C223.3,234.5,222.8,234.6,222.4,234.6z M222.2,229.1c-0.4,0-0.7,0.1-1,0.3s-0.4,0.5-0.5,0.9h2.8
	C223.4,229.5,223,229.1,222.2,229.1z M230.5,234.6c-0.3,0-0.6-0.1-0.9-0.2c-0.3-0.2-0.6-0.4-0.9-0.7l0,0l-0.2,0.7H227v-9.3h2v2.3
	l-0.1,1l0,0c0.2-0.2,0.5-0.4,0.8-0.5s0.6-0.2,1-0.2s0.8,0.1,1.1,0.2c0.3,0.2,0.6,0.4,0.8,0.7s0.4,0.6,0.5,1.1
	c0.1,0.4,0.2,0.9,0.2,1.4c0,0.6-0.1,1.1-0.2,1.5c-0.2,0.4-0.4,0.8-0.6,1.1c-0.3,0.3-0.6,0.5-0.9,0.7
	C231.2,234.5,230.8,234.6,230.5,234.6z M230,233c0.4,0,0.7-0.2,0.9-0.5s0.4-0.8,0.4-1.5c0-1.2-0.4-1.8-1.2-1.8
	c-0.4,0-0.8,0.2-1.2,0.6v2.7c0.2,0.2,0.4,0.3,0.6,0.3C229.7,232.9,229.9,233,230,233z M237,234.6c-0.3,0-0.6-0.1-0.9-0.2
	c-0.3-0.1-0.5-0.2-0.7-0.4s-0.3-0.4-0.4-0.6c-0.1-0.2-0.2-0.5-0.2-0.8c0-0.4,0.1-0.7,0.2-1c0.2-0.3,0.4-0.5,0.8-0.7
	c0.4-0.2,0.8-0.4,1.4-0.5c0.6-0.1,1.2-0.2,2-0.2c0-0.3-0.2-0.5-0.4-0.7s-0.6-0.3-1-0.3c-0.3,0-0.6,0.1-1,0.2c-0.3,0.1-0.7,0.3-1,0.5
	l-0.7-1.3c0.5-0.3,0.9-0.5,1.5-0.6c0.5-0.2,1.1-0.2,1.6-0.2c0.9,0,1.7,0.2,2.2,0.7s0.8,1.2,0.8,2.2v3.8h-1.6l-0.1-0.8h-0.1
	c-0.3,0.3-0.7,0.5-1.1,0.7C237.8,234.5,237.4,234.6,237,234.6z M237.6,233c0.3,0,0.6-0.1,0.8-0.2c0.3-0.1,0.5-0.3,0.7-0.5v-1.1
	c-0.5,0-0.9,0.1-1.2,0.1c-0.3,0.1-0.6,0.1-0.8,0.2c-0.2,0.1-0.3,0.2-0.4,0.3c-0.1,0.1-0.1,0.3-0.1,0.4c0,0.2,0.1,0.4,0.2,0.5
	C237.1,233,237.3,233,237.6,233z M245.9,234.6c-0.6,0-1.2-0.1-1.8-0.3s-1.1-0.4-1.5-0.7l0.8-1.2c0.4,0.3,0.8,0.5,1.3,0.6
	c0.4,0.1,0.9,0.2,1.4,0.2c0.4,0,0.6-0.1,0.8-0.2c0.2-0.1,0.2-0.2,0.2-0.4c0-0.1,0-0.2-0.1-0.2c0-0.1-0.1-0.1-0.2-0.2
	c-0.1-0.1-0.3-0.1-0.5-0.2c-0.2-0.1-0.5-0.1-0.8-0.2c-0.9-0.2-1.5-0.5-1.9-0.8s-0.6-0.8-0.6-1.3c0-0.3,0.1-0.6,0.2-0.8
	c0.1-0.3,0.3-0.5,0.6-0.7s0.6-0.3,1-0.4c0.4-0.1,0.8-0.2,1.3-0.2c0.6,0,1.1,0.1,1.6,0.3s0.9,0.4,1.3,0.6l-0.9,1.2
	c-0.3-0.2-0.7-0.4-1-0.5c-0.4-0.1-0.7-0.2-1.1-0.2c-0.3,0-0.5,0-0.7,0.1c-0.1,0.1-0.2,0.2-0.2,0.4s0.1,0.3,0.3,0.4
	c0.2,0.1,0.6,0.2,1.2,0.3c0.5,0.1,0.9,0.2,1.3,0.4c0.3,0.1,0.6,0.3,0.8,0.5s0.3,0.4,0.4,0.6c0.1,0.2,0.1,0.4,0.1,0.7
	s-0.1,0.6-0.2,0.8c-0.1,0.3-0.4,0.5-0.6,0.7c-0.3,0.2-0.6,0.3-1,0.5C246.9,234.5,246.4,234.6,245.9,234.6z M254.4,234.6
	c-0.5,0-1-0.1-1.4-0.2c-0.4-0.2-0.8-0.4-1.2-0.7c-0.3-0.3-0.6-0.7-0.8-1.1c-0.2-0.4-0.3-0.9-0.3-1.5c0-0.5,0.1-1,0.3-1.5
	c0.2-0.4,0.5-0.8,0.8-1.1s0.7-0.5,1.1-0.7c0.4-0.2,0.8-0.2,1.3-0.2s1,0.1,1.3,0.2c0.4,0.2,0.7,0.4,1,0.7s0.5,0.6,0.6,1
	s0.2,0.8,0.2,1.3c0,0.2,0,0.3,0,0.5s0,0.3,0,0.4h-4.5c0.1,0.5,0.3,0.8,0.7,1.1c0.3,0.2,0.8,0.3,1.3,0.3c0.3,0,0.6,0,0.9-0.1
	s0.6-0.2,0.8-0.3l0.7,1.2c-0.4,0.2-0.8,0.4-1.3,0.6C255.3,234.5,254.8,234.6,254.4,234.6z M254.2,229.1c-0.4,0-0.7,0.1-1,0.3
	s-0.4,0.5-0.5,0.9h2.8C255.4,229.5,255,229.1,254.2,229.1z M269.2,230l-0.2,0.8h1.8l-0.2-0.8c-0.1-0.4-0.2-0.9-0.4-1.4
	c-0.1-0.5-0.2-1-0.3-1.4l0,0c-0.1,0.5-0.2,0.9-0.3,1.4C269.4,229.1,269.3,229.6,269.2,230z M266.1,234.4l2.7-8.7h2.3l2.7,8.7h-2.1
	l-0.5-2.1h-2.6l-0.5,2.1H266.1z M275,234.4v-8.7h3.1c0.5,0,0.9,0,1.3,0.1s0.8,0.3,1.1,0.5c0.3,0.2,0.5,0.5,0.7,0.9s0.3,0.8,0.3,1.3
	s-0.1,1-0.3,1.3c-0.2,0.4-0.4,0.7-0.7,0.9c-0.3,0.2-0.7,0.4-1.1,0.5s-0.8,0.2-1.3,0.2H277v3H275z M276.9,229.9h1
	c1.1,0,1.6-0.5,1.6-1.4c0-0.5-0.1-0.8-0.4-1s-0.7-0.3-1.2-0.3h-1V229.9z M282.9,234.4v-1.7h2v-5.4h-2v-1.7h6v1.7h-2v5.4h2v1.7H282.9
	z"/>
</svg>
