<?xml version="1.0" encoding="utf-8"?>
<!-- Generator: Adobe Illustrator 23.0.1, SVG Export Plug-In . SVG Version: 6.00 Build 0)  -->
<svg version="1.1" id="Layer_1" xmlns="http://www.w3.org/2000/svg" xmlns:xlink="http://www.w3.org/1999/xlink" x="0px" y="0px"
	 viewBox="0 0 120 120" style="enable-background:new 0 0 120 120;" xml:space="preserve">
<style type="text/css">
	.st0{fill:#E601A2;}
</style>
<title>user_icon</title>
<path class="st0" d="M91.9,40.2L77.2,27.9l-4.1,4.9l14.7,12.3L91.9,40.2z M46.9,32.8l-4.1-4.9L28.1,40.2l4.1,4.9L46.9,32.8z
	 M61.6,47.5h-4.8v19.1L72,75.7l2.4-3.9l-12.8-7.6V47.5z M60,34.7c-15.8,0-28.7,12.8-28.7,28.7S44.2,92.1,60,92.1
	s28.7-12.8,28.7-28.7c0,0,0,0,0,0C88.7,47.6,75.8,34.7,60,34.7z M60,85.7c-12.3,0-22.3-10-22.3-22.3s10-22.3,22.3-22.3
	s22.3,10,22.3,22.3l0,0C82.3,75.7,72.4,85.7,60,85.7C60,85.7,60,85.7,60,85.7z"/>
</svg>
