<?xml version="1.0" encoding="utf-8"?>
<!-- Generator: Adobe Illustrator 23.0.1, SVG Export Plug-In . SVG Version: 6.00 Build 0)  -->
<svg version="1.1" id="Layer_1" xmlns="http://www.w3.org/2000/svg" xmlns:xlink="http://www.w3.org/1999/xlink" x="0px" y="0px"
	 viewBox="0 0 120 120" style="enable-background:new 0 0 120 120;" xml:space="preserve">
<style type="text/css">
	.st0{fill:#E601A2;}
</style>
<title>user_icon</title>
<path class="st0" d="M60,47.6c2.7,0,4.9-2.2,4.9-4.9l0,0c0-0.9-0.2-1.8-0.7-2.5L60,32.8l-4.2,7.3c-0.5,0.8-0.7,1.6-0.7,2.5
	C55.1,45.4,57.3,47.6,60,47.6z M71.4,72.3l-2.6-2.6l-2.7,2.6c-3.4,3.2-8.7,3.2-12.1,0l-2.7-2.6l-2.7,2.6c-1.6,1.6-3.7,2.5-6,2.5
	c-1.7,0-3.4-0.5-4.8-1.5v11.4c0,1.4,1.1,2.5,2.5,2.5h39.5c1.4,0,2.5-1.1,2.5-2.5V73.3c-1.4,1-3.1,1.5-4.8,1.5
	C75.1,74.8,73,73.9,71.4,72.3z M74.8,55.1H62.5v-5h-4.9v5H45.2c-4.1,0-7.4,3.3-7.4,7.4c0,0,0,0,0,0v3.8c0,2.7,2.2,4.8,4.8,4.8
	c1.3,0,2.5-0.5,3.4-1.4l5.3-5.3l5.3,5.3c1.9,1.8,4.9,1.8,6.8,0l5.3-5.3l5.3,5.3c0.9,0.9,2.1,1.4,3.4,1.4c2.7,0,4.8-2.2,4.8-4.8v-3.8
	c0-4.1-3.2-7.4-7.3-7.4C74.9,55.1,74.9,55.1,74.8,55.1z"/>
</svg>
