<?xml version="1.0" encoding="utf-8"?>
<!-- Generator: Adobe Illustrator 23.0.1, SVG Export Plug-In . SVG Version: 6.00 Build 0)  -->
<svg version="1.1" id="Layer_1" xmlns="http://www.w3.org/2000/svg" xmlns:xlink="http://www.w3.org/1999/xlink" x="0px" y="0px"
	 viewBox="0 0 120 120" style="enable-background:new 0 0 120 120;" xml:space="preserve">
<style type="text/css">
	.st0{fill:#E601A2;}
</style>
<title>user_icon</title>
<path class="st0" d="M87.6,94.8c1.6-1.6,1.5-2.1-0.4-2.8l-5.2-2c-2.3-0.9-2.6-0.8-4.2,0.9c-0.8,0.9-0.7,1.6,0.4,2
	c2.1,0.8,4.2,1.6,6.3,2.5C85.7,95.9,86.8,95.8,87.6,94.8z M92.1,90.2c1.6-1.6,1.5-2.1-0.5-2.8c-1.8-0.7-3.6-1.3-5.3-2.1
	c-1.4-0.8-3.1-0.4-4,0.9c-0.9,1.1-0.9,1.7,0.5,2.2c2,0.8,4.1,1.5,6.1,2.4C90.2,91.4,91.3,91.3,92.1,90.2z M83.1,99.2
	c1.5-1.5,1.4-2-0.4-2.7l-5.3-2.1c-2.3-0.9-2.6-0.9-4.2,0.9c-0.9,0.9-0.7,1.6,0.5,2.1c2.1,0.8,4.2,1.5,6.2,2.4
	C81.2,100.5,82.2,100.3,83.1,99.2L83.1,99.2z"/>
<path class="st0" d="M104.7,74.1c1.1,1.5,2.3,3,3.3,4.5c0.6,0.9,1.1,1.9,1.5,2.8c0.5,1.2-1.1,3.6-2.4,3.5c-0.5-0.1-1-0.4-1.4-0.8
	c-0.5-0.6-1.2-0.8-1.9-0.5c-2,0.6-4.1,1.2-6.2,1.8c-0.4,0.1-0.7,0.2-1.1,0.4c-1,1-2,0.8-3.2,0.3c-2-0.8-4-1.6-6-2.4
	c-1.3-0.5-1.6-1.3-0.4-2.2c2.1-1.7,3.4-4,3.9-6.7c0.3-1.2,0.6-2.3,1-3.4c0.2-0.6,0.1-1.3-0.5-1.8c-1.2-1.2-1.2-1.7,0-2.8
	c1.5-1.5,1.9-1.7,3.8-0.6s3.5,2.3,5.2,3.5c0.4,0.2,0.7,0.5,1.1,0.8L104.7,74.1z"/>
<path class="st0" d="M69.5,105.2c0-1.7,0-3.4,0.1-5.2s0.7-2,2.2-1.4c2.3,0.9,4.6,1.8,6.8,2.7c1.2,0.5,1.3,1.1,0.4,2
	c-0.5,0.6-1,1.1-1.6,1.6c-0.7,0.5-1.5,0.8-2.3,1c-1.6,0.2-3.2,0.1-4.9,0.1L69.5,105.2z"/>
<path class="st0" d="M87.6,94.8c-0.8,1.1-1.9,1.2-3.2,0.6c-2.1-0.9-4.2-1.7-6.3-2.5c-1.1-0.4-1.3-1.1-0.4-2c1.6-1.8,2-1.8,4.2-0.9
	l5.2,2C89,92.7,89.1,93.2,87.6,94.8z"/>
<path class="st0" d="M92.1,90.2c-0.8,1.1-1.9,1.2-3.2,0.6c-2-0.9-4.1-1.6-6.1-2.4c-1.3-0.5-1.4-1.1-0.5-2.2c0.9-1.3,2.6-1.7,4-0.9
	c1.7,0.8,3.5,1.4,5.3,2.1C93.6,88.2,93.7,88.6,92.1,90.2z"/>
<path class="st0" d="M83.1,99.3c-0.8,1.1-1.9,1.2-3.3,0.6c-2-0.9-4.1-1.6-6.2-2.4c-1.2-0.5-1.3-1.2-0.5-2.1c1.7-1.8,2-1.8,4.2-0.9
	l5.3,2.1C84.5,97.3,84.6,97.8,83.1,99.3z"/>
<path class="st0" d="M32.1,45.4h4.2v-2.1h2.1c1.2,0,2.1-0.9,2.1-2.1v-6.3c0-1.2-0.9-2.1-2.1-2.1h-6.3v-2.1h8.4v-4.2h-4.2v-2.1h-4.2
	v2.1H30c-1.2,0-2.1,0.9-2.1,2.1v6.3c0,1.2,0.9,2.1,2.1,2.1h6.3V39h-8.4v4.2h4.2V45.4z M51.1,18H17.4c-2.3,0-4.2,1.9-4.2,4.2
	c0,0,0,0,0,0.1v25.3c0,2.3,1.9,4.2,4.2,4.2c0,0,0,0,0,0h33.7c2.3,0,4.2-1.9,4.2-4.2c0,0,0,0,0,0V22.2C55.3,19.9,53.4,18,51.1,18
	C51.1,18,51.1,18,51.1,18L51.1,18z M51.1,47.5H17.4V22.2h33.7L51.1,47.5z"/>
<rect x="60.5" y="60.2" transform="matrix(0.7071 -0.7071 0.7071 0.7071 -30.5521 64.8021)" class="st0" width="4.9" height="18.2"/>
<rect x="53.9" y="66.8" transform="matrix(0.7071 -0.7071 0.7071 0.7071 -30.5488 64.8026)" class="st0" width="18.2" height="4.9"/>
</svg>
