<?xml version="1.0" encoding="utf-8"?>
<!-- Generator: Adobe Illustrator 25.0.0, SVG Export Plug-In . SVG Version: 6.00 Build 0)  -->
<svg version="1.1" id="Layer_1" xmlns="http://www.w3.org/2000/svg" xmlns:xlink="http://www.w3.org/1999/xlink" x="0px" y="0px"
	 viewBox="0 0 262.1 164.61" style="enable-background:new 0 0 262.1 164.61;" xml:space="preserve">
<style type="text/css">
	.st0{fill:#A97BD3;}
	.st1{fill:#6E8BF6;}
	.st2{fill:#636362;}
	.st3{fill:#FF7262;}
	.st4{fill:#A259FF;}
	.st5{fill:#0ACF83;}
	.st6{fill:#1ABCFE;}
	.st7{fill:#FF9B8F;}
	.st8{fill:#F47A56;}
	.st9{fill:#F89C82;}
	.st10{fill:#4BDCA4;}
	.st11{fill:#78E4B9;}
	.st12{fill:#FFC4BD;}
	.st13{fill:#94E0FF;}
	.st14{fill:#95E0FF;}
	.st15{fill:#74E4BB;}
	.st16{fill:#F8AE98;}
	.st17{fill:#9DECCE;}
	.st18{fill:#A7BFFF;}
	.st19{fill:#F24E1E;}
	.st20{fill:#E58FB9;}
	.st21{fill:#A8BEFF;}
	.st22{fill:#8A8A8A;}
	.st23{fill:#FFFFFF;}
	.st24{fill:none;}
	.st25{opacity:0.4013;fill:#FFFFFF;enable-background:new    ;}
	.st26{fill:#FF737F;}
	.st27{opacity:0.4;fill:#FF737F;enable-background:new    ;}
	.st28{fill:#AA78D5;}
	.st29{opacity:0.3982;fill:#AA78D5;enable-background:new    ;}
</style>
<desc>Created with Sketch.</desc>
<path class="st0" d="M109.93,118.8h13.2l-2.9,2.9c-0.4,0.4-0.4,1,0,1.4c0.4,0.4,1,0.4,1.4,0l4.6-4.6c0.4-0.4,0.4-1,0-1.4l-4.6-4.6
	c-0.4-0.4-1-0.4-1.4,0c-0.4,0.4-0.4,1,0,1.4l2.9,2.9h-13.2c-0.5,0-1,0.4-1,1C108.93,118.4,109.43,118.8,109.93,118.8z"/>
<path class="st1" d="M146.4,124.8c0,1.1,0.9,2,2,2h8c1.1,0,2-0.9,2-2v-12h-12V124.8z M159.4,109.8h-3.5l-1-1h-5l-1,1h-3.5v2h14
	V109.8z"/>
<path class="st0" d="M89.36,117h-5.5v-5.5c0-0.4-0.4-0.8-0.8-0.8s-0.8,0.4-0.8,0.8v5.5h-5.5c-0.4,0-0.8,0.4-0.8,0.8
	c0,0.4,0.4,0.8,0.8,0.8h5.5v5.5c0,0.4,0.4,0.8,0.8,0.8s0.8-0.4,0.8-0.8v-5.5h5.5c0.4,0,0.8-0.4,0.8-0.8
	C90.16,117.4,89.86,117,89.36,117z"/>
<path class="st2" d="M56.18,116.79H43.01l2.88-2.88c0.39-0.39,0.39-1.02,0-1.41s-1.02-0.39-1.41,0l-4.59,4.59
	c-0.39,0.39-0.39,1.02,0,1.41l4.59,4.59c0.39,0.39,1.02,0.39,1.41,0s0.39-1.02,0-1.41l-2.88-2.89h13.17c0.55,0,1-0.45,1-1
	S56.73,116.79,56.18,116.79z"/>
<path class="st1" d="M191.66,115.3h-1.6v-5c0-0.5-0.4-1-1-1h-4c-0.6,0-1,0.4-1,1v5h-1.6c-0.9,0-1.3,1.1-0.7,1.7l4.6,4.6
	c0.4,0.4,1,0.4,1.4,0l4.6-4.6C192.96,116.4,192.56,115.3,191.66,115.3z M180.06,125.3c0,0.5,0.4,1,1,1h12c0.5,0,1-0.5,1-1
	s-0.5-1-1-1h-12C180.46,124.3,180.06,124.7,180.06,125.3z"/>
<g>
	<path class="st3" d="M71.4,40c0,0.1,0,0.1,0,0.2v0.1c0,0.2,0,0.3,0,0.5s0,0.4-0.1,0.7c-0.1,0.7-0.3,1.4-0.6,2.1
		c-0.5,1-1.1,1.9-2,2.6c-0.7,0.6-1.5,1.1-2.3,1.4c-0.6,0.2-1.1,0.4-1.7,0.5c-0.3,0-0.5,0.1-0.8,0.1c-0.4,0-0.9,0-1.3,0
		c0,0,0,0-0.1,0c-2.3,0-4.6,0-6.9,0c-0.1,0-0.1,0-0.2,0c0-0.1,0-0.2,0-0.3c0-5.1,0-10.3,0-15.4c0-0.1,0-0.2,0-0.2l0,0
		c0.1,0,0.2,0,0.2,0c2.6,0,5.1,0,7.7,0c0.2,0,0.3,0,0.5,0s0.4,0,0.5,0c0.4,0,0.8,0.1,1.2,0.2c1.5,0.4,2.8,1.2,3.8,2.4
		c0.9,1,1.5,2.2,1.8,3.5c0.1,0.4,0.2,0.8,0.2,1.1C71.4,39.5,71.4,39.7,71.4,40C71.4,39.9,71.4,39.9,71.4,40z"/>
	<path class="st4" d="M55.4,57.1c0,0.3,0,0.6,0,0.9c0,1.9,0,3.9,0,5.8c0,0.1,0,0.1,0,0.2h-0.1c-2.7,0-5.3,0-8,0c-0.1,0-0.3,0-0.4,0
		c-0.3,0-0.6-0.1-0.9-0.1c-0.7-0.1-1.4-0.3-2.1-0.7c-0.9-0.4-1.7-1-2.4-1.7s-1.2-1.5-1.6-2.4c-0.3-0.8-0.5-1.7-0.6-2.5
		c0-0.1,0-0.2-0.1-0.3c0-0.2,0-0.4,0-0.6c0-0.1,0.1-0.2,0.1-0.3c0-0.2,0-0.4,0.1-0.7c0.1-0.6,0.2-1.2,0.5-1.7
		c0.6-1.5,1.6-2.7,2.9-3.6c1.2-0.8,2.6-1.3,4-1.4h0.1c2.7,0,5.4,0,8.2,0c0.1,0,0.1,0,0.2,0c0,2,0,4.1,0,6.1c0,0.3,0,0.5,0,0.8
		c0,0.2,0,0.3,0,0.5c0,0.1,0,0.2,0,0.3c0,0.2,0,0.3,0,0.5C55.4,56.6,55.4,56.8,55.4,57.1z"/>
	<path class="st5" d="M55.4,64.1c0,0.1,0,0.1,0,0.2c0,2.6,0,5.2,0,7.8c0,1.8-0.5,3.4-1.6,4.8c-1.2,1.6-2.8,2.6-4.7,3
		C48.9,80,48.6,80,48.4,80c-0.1,0-0.1,0-0.2,0c-0.2,0-0.4,0-0.6,0c-0.2,0-0.3,0-0.5,0c-0.1,0-0.2,0-0.3,0c-0.3,0-0.7-0.1-1-0.1
		c-1.5-0.3-2.9-1-4-2.1c-1.5-1.4-2.2-3.2-2.4-5.2c0-0.1,0-0.2,0-0.2s0-0.1-0.1-0.1c0,0,0,0,0-0.1c0-0.1,0-0.1,0-0.2
		c0,0,0.1,0,0.1-0.1c0-0.1,0-0.2,0-0.3c0-0.5,0.1-1.1,0.3-1.6c0.4-1.6,1.3-2.9,2.5-4c1-0.8,2.1-1.4,3.3-1.7c0.5-0.1,0.9-0.2,1.4-0.2
		c0.2,0,0.3,0,0.5,0c2.6,0,5.2,0,7.8,0C55.3,64,55.3,64.1,55.4,64.1z"/>
	<path class="st6" d="M55.4,56.3c0-0.2,0-0.3,0-0.5c0-0.1,0-0.2,0-0.3s0-0.3,0-0.4c0.1-0.4,0.1-0.8,0.2-1.2c0.5-1.6,1.3-2.9,2.6-4
		c0.9-0.7,1.9-1.2,3-1.5c0.4-0.1,0.8-0.2,1.2-0.2c0.1,0,0.3,0,0.4,0c0.3,0,0.6,0,0.9,0c0,0,0,0,0.1,0c0.5,0,0.9,0.1,1.4,0.2
		c1.7,0.4,3,1.3,4.2,2.5c0.8,0.9,1.3,1.9,1.7,3.1c0.1,0.5,0.2,0.9,0.2,1.4c0,0.2,0,0.3,0,0.5V56c0,0.1,0,0.1,0,0.2v0.1
		c0,0.2,0,0.4,0,0.5c0,0.4-0.1,0.8-0.2,1.2c-0.3,1.3-1,2.5-1.9,3.5c-1,1.1-2.2,1.8-3.6,2.2c-0.5,0.1-0.9,0.2-1.4,0.3
		c-0.3,0-0.6,0.1-0.9,0.1c-1.9,0-3.6-0.6-5-1.8c-1.2-1-2.1-2.3-2.6-3.8c-0.1-0.4-0.2-0.9-0.3-1.3C55.5,56.8,55.5,56.6,55.4,56.3
		L55.4,56.3z"/>
	<path class="st7" d="M63.8,32.1L63.8,32.1c-0.2,0-0.3,0-0.5,0c-2.6,0-5.1,0-7.7,0c-0.1,0-0.2,0-0.2,0l0,0
		C58.2,32.1,61,32.1,63.8,32.1z"/>
	<path class="st8" d="M55.4,32.1L55.4,32.1L55.4,32.1c-0.1,0-0.2,0-0.3,0c-2.5,0-5.1,0-7.6,0c-0.1,0-0.2,0-0.2,0l0,0
		C50,32.1,52.7,32.1,55.4,32.1z"/>
	<path class="st9" d="M39.4,39.6L39.4,39.6c0.1,0.1,0.1,0.2,0,0.3c0,0.1,0,0.2,0,0.3s0,0.2,0,0.4c0,0,0,0-0.1,0
		C39.4,40.2,39.4,39.9,39.4,39.6z"/>
	<path class="st10" d="M47.1,80c0.2,0,0.3,0,0.5,0s0.4,0,0.6,0c0.1,0,0.1,0,0.2,0c-0.1,0-0.2,0-0.3,0H48C47.7,80,47.4,80,47.1,80
		L47.1,80z"/>
	<path class="st11" d="M39.4,71.6L39.4,71.6c0.1,0.1,0.1,0.2,0.1,0.3c0,0,0,0.1-0.1,0.1l0,0C39.4,71.8,39.4,71.7,39.4,71.6z"/>
	<path class="st12" d="M71.4,39.3C71.4,39.4,71.4,39.4,71.4,39.3c0,0.2,0,0.4,0,0.6v-0.1C71.4,39.7,71.4,39.5,71.4,39.3z"/>
	<path class="st13" d="M71.4,56.8c0-0.2,0-0.4,0-0.5v-0.1C71.4,56.4,71.4,56.6,71.4,56.8L71.4,56.8L71.4,56.8z"/>
	<path class="st12" d="M71.4,40.8L71.4,40.8c0-0.2,0-0.3,0-0.5v-0.1C71.4,40.4,71.4,40.6,71.4,40.8z"/>
	<path class="st14" d="M71.4,55.4L71.4,55.4c0,0.2,0,0.4,0,0.6v-0.1C71.4,55.7,71.4,55.5,71.4,55.4z"/>
	<path class="st15" d="M39.5,72.5C39.4,72.5,39.4,72.5,39.5,72.5c-0.1-0.1-0.1-0.2-0.1-0.3c0,0,0.1,0,0.1,0.1
		C39.5,72.3,39.5,72.4,39.5,72.5z"/>
	<path class="st16" d="M47.3,32.1L47.3,32.1c-0.2,0-0.3,0-0.4,0l0,0C47,32.1,47.2,32.1,47.3,32.1z"/>
	<path class="st17" d="M47.1,80L47.1,80c-0.1,0-0.2,0-0.3,0l0,0C46.9,80,47,80,47.1,80z"/>
	<path class="st15" d="M39.4,71.9L39.4,71.9c0,0.1,0,0.1,0,0.2C39.4,72,39.4,72,39.4,71.9z"/>
	<path class="st18" d="M47,64C47,64,46.9,64,47,64s0.2,0,0.4,0c2.7,0,5.3,0,8,0h0.1l0,0c-0.1,0-0.1,0-0.2,0c-2.6,0-5.2,0-7.8,0
		C47.3,64,47.1,64,47,64z"/>
	<path class="st18" d="M55.4,56.3L55.4,56.3c0,0.3,0,0.5,0.1,0.7c0,0,0,0-0.1,0C55.4,56.8,55.4,56.6,55.4,56.3z"/>
	<path class="st19" d="M46.9,32.1c0.1,0,0.3,0,0.4,0c0.1,0,0.2,0,0.2,0c2.5,0,5.1,0,7.6,0c0.1,0,0.2,0,0.3,0c0,0.1,0,0.2,0,0.2
		c0,5.1,0,10.3,0,15.4c0,0.1,0,0.2,0,0.3l0,0c-0.1,0-0.2,0-0.2,0c-2.5,0-5.1,0-7.6,0c-0.2,0-0.4,0-0.6,0c-1.9-0.1-3.5-0.8-4.9-2.1
		c-1.2-1.1-2-2.5-2.4-4.1c-0.1-0.4-0.2-0.8-0.2-1.3c0-0.1,0-0.2,0-0.4c0-0.1,0-0.2,0-0.3s0-0.2,0-0.3c0.1-1.8,0.7-3.4,1.9-4.7
		c1-1.2,2.3-2.1,3.9-2.5C45.8,32.2,46.3,32.1,46.9,32.1z"/>
	<path class="st20" d="M62.6,48.1C62.5,48.1,62.5,48.1,62.6,48.1C62.5,48,62.5,48,62.6,48.1C63,48,63.5,48,63.9,48l0,0
		c-0.3,0-0.6,0-0.9,0C62.9,48.1,62.7,48.1,62.6,48.1z"/>
	<path class="st20" d="M55.4,48.1L55.4,48.1c-0.1,0-0.1,0-0.2,0c-2.7,0-5.4,0-8.2,0h-0.1l0,0c0.2,0,0.4,0,0.6,0c2.5,0,5.1,0,7.6,0
		C55.3,48,55.3,48.1,55.4,48.1z"/>
	<path class="st21" d="M55.4,55C55.4,55,55.5,55.1,55.4,55c0,0.2,0,0.3,0,0.5l0,0C55.4,55.4,55.4,55.2,55.4,55z"/>
	<path class="st18" d="M55.4,55.5L55.4,55.5c0,0.1,0,0.2,0,0.3C55.4,55.7,55.4,55.6,55.4,55.5z"/>
</g>
<g id="High-Fidelity">
	<g id="minimized-side-menu" transform="translate(-42.000000, -522.000000)">
		<g id="Group">
			<g id="Menu-Icon" transform="translate(42.000000, 522.000000)">
				<g id="Icon">
					<g id="Setting-Icon">
						<g id="Setting">
							<path id="Path" class="st22" d="M221.84,46.2c0.72,0,1.37,0.4,1.73,0.99c0.17,0.28,0.29,0.64,0.26,1.01
								c-0.02,0.28,0.07,0.57,0.22,0.84c0.5,0.81,1.59,1.11,2.45,0.66c0.96-0.55,2.17-0.22,2.73,0.72l0.65,1.12
								c0.56,0.94,0.25,2.15-0.72,2.69c-0.83,0.48-1.12,1.56-0.62,2.38c0.16,0.26,0.33,0.48,0.6,0.61c0.34,0.18,0.6,0.47,0.79,0.75
								c0.36,0.59,0.33,1.31-0.02,1.95l-0.68,1.14c-0.36,0.61-1.03,0.99-1.72,0.99c-0.34,0-0.72-0.1-1.03-0.28
								c-0.25-0.16-0.54-0.22-0.85-0.22c-0.96,0-1.77,0.79-1.8,1.73c0,1.09-0.89,1.95-2.01,1.95h-1.32c-1.13,0-2.02-0.86-2.02-1.95
								c-0.02-0.94-0.83-1.73-1.79-1.73c-0.32,0-0.61,0.06-0.85,0.22c-0.31,0.19-0.7,0.28-1.03,0.28c-0.7,0-1.37-0.38-1.73-0.99
								l-0.67-1.14c-0.36-0.62-0.38-1.36-0.02-1.95c0.16-0.28,0.45-0.57,0.78-0.75c0.27-0.13,0.45-0.35,0.61-0.61
								c0.49-0.82,0.19-1.89-0.63-2.38c-0.96-0.54-1.27-1.75-0.72-2.69l0.65-1.12c0.56-0.94,1.77-1.27,2.74-0.72
								c0.84,0.46,1.94,0.15,2.44-0.66c0.16-0.27,0.24-0.55,0.22-0.84c-0.02-0.37,0.09-0.72,0.27-1.01
								c0.36-0.59,1.01-0.97,1.72-0.99H221.84z"/>
							<path id="Path_1_" class="st23" d="M221.17,53.02c-1.52,0-2.76,1.2-2.76,2.69s1.23,2.68,2.76,2.68s2.73-1.19,2.73-2.68
								S222.7,53.02,221.17,53.02z"/>
						</g>
					</g>
					<rect id="Rectangle" x="211.66" y="46.2" class="st24" width="19" height="19"/>
				</g>
			</g>
		</g>
	</g>
</g>
<g id="High-Fidelity_1_">
	<g id="minimized-side-menu_1_" transform="translate(-42.000000, -345.000000)">
		<g id="Group_1_">
			<g id="Menu-Icon_1_" transform="translate(42.000000, 345.000000)">
				<g id="Icon_1_">
					<g id="Analytics-Icon">
						<g>
							<path id="Combined-Shape" class="st1" d="M190.66,46.2c3.23,0,5.05,1.83,5.06,5.06v8.87c0,3.23-1.83,5.06-5.06,5.06h-8.87
								c-3.23,0-5.06-1.83-5.06-5.06v-8.87c0-3.23,1.83-5.06,5.06-5.06H190.66z M186.7,50.12c-0.27-0.16-0.59-0.16-0.85,0
								c-0.26,0.16-0.4,0.46-0.37,0.75v9.68c0.05,0.41,0.39,0.71,0.79,0.71c0.41,0,0.75-0.3,0.79-0.71v-9.68
								C187.1,50.58,186.95,50.28,186.7,50.12z M182.26,53.24c-0.26-0.16-0.58-0.16-0.84,0c-0.26,0.16-0.4,0.46-0.37,0.75v6.56
								c0.04,0.41,0.38,0.71,0.79,0.71c0.41,0,0.75-0.3,0.79-0.71v-6.56C182.66,53.69,182.52,53.4,182.26,53.24z"/>
							<path id="Path_2_" class="st25" d="M191.06,56.69c-0.26-0.16-0.58-0.16-0.84,0c-0.26,0.16-0.4,0.45-0.36,0.75v3.12
								c0.04,0.41,0.38,0.71,0.79,0.71c0.4,0,0.74-0.3,0.79-0.71v-3.12C191.46,57.13,191.31,56.85,191.06,56.69z"/>
						</g>
					</g>
					<rect id="Rectangle_1_" x="176.72" y="46.2" class="st24" width="19" height="19"/>
				</g>
			</g>
		</g>
	</g>
</g>
<g id="High-Fidelity_2_">
	<g id="minimized-side-menu_2_" transform="translate(-42.000000, -227.000000)">
		<g id="Group_2_">
			<g id="Menu-Icon_2_" transform="translate(42.000000, 227.000000)">
				<g id="Icon_2_">
					<g id="dashboard">
						<g id="Graph">
							<path id="Path_4_" class="st26" d="M145.13,47.61c0.47-0.09,0.93,0.15,1.14,0.57c0.05,0.08,0.09,0.16,0.12,0.24
								c0.13,1.99,0.27,3.95,0.4,5.91c0,0.2,0.03,0.41,0.09,0.6c0.15,0.38,0.54,0.62,0.95,0.6l6.32-0.41l0.04,0.02l0.12,0.01
								c0.23,0.03,0.44,0.13,0.6,0.3c0.19,0.19,0.29,0.45,0.29,0.72c-0.25,3.63-2.91,6.66-6.53,7.45c-3.62,0.78-7.34-0.88-9.12-4.07
								c-0.52-0.92-0.85-1.93-0.97-2.98c-0.05-0.31-0.07-0.62-0.06-0.94C138.54,51.76,141.28,48.43,145.13,47.61z"/>
							<path id="Path_3_" class="st27" d="M148.89,44.8c4.34,0.13,7.97,3.28,8.63,7.5c0,0.03,0,0.05,0,0.08l0,0.12
								c-0.01,0.16-0.08,0.31-0.19,0.43c-0.13,0.15-0.32,0.24-0.53,0.26l-7.3,0.48l-0.12,0c-0.2-0.01-0.39-0.09-0.54-0.22
								c-0.18-0.16-0.28-0.39-0.28-0.63l-0.49-7.17v-0.12c0.01-0.2,0.1-0.39,0.25-0.53S148.68,44.79,148.89,44.8z"/>
						</g>
					</g>
					<rect id="Rectangle_2_" x="138.52" y="44.8" class="st24" width="19" height="19"/>
				</g>
			</g>
		</g>
	</g>
</g>
<g id="High-Fidelity_3_">
	<g id="minimized-side-menu_3_" transform="translate(-42.000000, -286.000000)">
		<g id="Group_3_">
			<g id="Menu-Icon_3_" transform="translate(42.000000, 286.000000)">
				<g id="Icon_3_">
					<g id="Project-Icon">
						<g id="Path_5_">
							<path class="st28" d="M105.95,57.09c1.34,0,2.41,1.08,2.41,2.43v3.24c0,1.34-1.07,2.43-2.41,2.43h-3.21
								c-1.33,0-2.41-1.09-2.41-2.43v-3.24c0-1.35,1.08-2.43,2.41-2.43H105.95z"/>
							<path class="st28" d="M116.91,57.09c1.33,0,2.41,1.08,2.41,2.43v3.24c0,1.34-1.08,2.43-2.41,2.43h-3.21
								c-1.34,0-2.41-1.09-2.41-2.43v-3.24c0-1.35,1.07-2.43,2.41-2.43H116.91z"/>
							<path class="st28" d="M105.95,46.2c1.34,0,2.41,1.09,2.41,2.43v3.24c0,1.35-1.07,2.43-2.41,2.43h-3.21
								c-1.33,0-2.41-1.08-2.41-2.43v-3.24c0-1.34,1.08-2.43,2.41-2.43H105.95z"/>
							<path class="st29" d="M116.91,46.2c1.33,0,2.41,1.09,2.41,2.43v3.24c0,1.35-1.08,2.43-2.41,2.43h-3.21
								c-1.34,0-2.41-1.08-2.41-2.43v-3.24c0-1.34,1.07-2.43,2.41-2.43H116.91z"/>
						</g>
					</g>
					<rect id="Rectangle_3_" x="100.32" y="46.2" class="st24" width="19" height="19"/>
				</g>
			</g>
		</g>
	</g>
</g>
</svg>
