<?xml version="1.0" encoding="UTF-8"?>
<svg width="103px" height="25px" viewBox="0 0 103 25" version="1.1" xmlns="http://www.w3.org/2000/svg" xmlns:xlink="http://www.w3.org/1999/xlink">
    <!-- Generator: Sketch 52.2 (67145) - http://www.bohemiancoding.com/sketch -->
    <title>logo</title>
    <desc>Created with Sketch.</desc>
    <defs>
        <polygon id="path-1" points="0 0.110216561 24.1639968 0.110216561 24.1639968 24.2738854 0 24.2738854"></polygon>
        <polygon id="path-3" points="0.375195541 0.14433121 11.3319682 0.14433121 11.3319682 11.715758 0.375195541 11.715758"></polygon>
    </defs>
    <g id="Symbols" stroke="none" stroke-width="1" fill="none" fill-rule="evenodd">
        <g id="header" transform="translate(-42.000000, -21.000000)">
            <g id="logo" transform="translate(42.000000, 21.000000)">
                <g id="Group-19">
                    <g id="logo-mark" transform="translate(0.000000, 0.546097)">
                        <g id="Group">
                            <g id="logo-Mark">
                                <g id="Group-3">
                                    <mask id="mask-2" fill="white">
                                        <use xlink:href="#path-1"></use>
                                    </mask>
                                    <g id="Clip-2"></g>
                                    <path d="M24.1639968,12.1915917 C24.1639968,5.51889745 18.7548567,0.109757325 12.0815064,0.109757325 C5.40946815,0.109757325 -0.000328025478,5.51889745 -0.000328025478,12.1915917 C-0.000328025478,18.864942 5.40946815,24.2740822 12.0815064,24.2740822 C18.7548567,24.2740822 24.1639968,18.864942 24.1639968,12.1915917" id="Fill-1" fill="#43B1FE" mask="url(#mask-2)"></path>
                                </g>
                            </g>
                            <path d="M16.9532096,8.46673121 L16.9532096,16.0782344 C16.9532096,16.5072917 16.7117828,16.7618395 16.3234006,16.7618395 L7.84066178,16.7618395 C7.45227962,16.7618395 7.21085287,16.5072917 7.21085287,16.0913554 L7.21085287,8.4936293 C7.21085287,7.99765478 7.5060758,7.62239363 8.04206943,7.62239363 C8.36353439,7.62239363 8.6443242,7.78312611 8.85950892,8.13148917 L12.1017127,13.3444701 L15.3183306,8.14526624 C15.5322032,7.8100242 15.8143051,7.62239363 16.1626682,7.62239363 C16.6717637,7.62239363 16.9532096,7.98453376 16.9532096,8.46673121" id="Fill-4" fill="#FEFEFE"></path>
                        </g>
                    </g>
                    <g id="Metrix" transform="translate(35.332871, 4.543809)">
                        <path d="M17.1675414,15.0425268 C17.1675414,15.7982975 16.7424204,16.2463803 16.0575032,16.2463803 C15.3496242,16.2463803 14.9245032,15.7982975 14.9245032,15.0425268 L14.9245032,4.20325287 L14.8772675,4.20325287 L9.68134395,12.4681828 C9.39858599,12.9169217 9.02070064,13.1294822 8.59557962,13.1294822 C8.14684076,13.1294822 7.76895541,12.9169217 7.50915924,12.4924567 L2.24303822,4.10878153 L2.19580255,4.10878153 L2.19580255,15.0654885 C2.19580255,15.7982975 1.79429936,16.2463803 1.10938217,16.2463803 C0.424464968,16.2463803 6.69686528e-13,15.7982975 6.69686528e-13,15.0654885 L6.69686528e-13,1.67614459 C6.69686528e-13,0.802284713 0.519592357,0.14098535 1.46364968,0.14098535 C2.03047771,0.14098535 2.52645223,0.425055414 2.90433758,1.03911911 L8.61919745,10.2251446 L14.2868217,1.06273694 C14.664707,0.471635032 15.1600255,0.14098535 15.7740892,0.14098535 C16.6715669,0.14098535 17.1675414,0.77932293 17.1675414,1.62890892 L17.1675414,15.0425268 Z" id="Fill-6" fill="#4D4D4D"></path>
                        <path d="M21.9164975,9.42207261 L29.4735484,9.42207261 C29.0720452,7.62777325 27.6549752,6.44688153 25.6946949,6.44688153 C23.7344146,6.44688153 22.3180006,7.62777325 21.9164975,9.42207261 Z M31.4804083,9.9652828 C31.4804083,10.791907 30.9844338,11.2642637 30.1584656,11.2642637 L21.8692618,11.2642637 C22.1999115,13.2009261 23.6642172,14.4756331 25.8127841,14.4756331 C27.2062363,14.4756331 28.2926567,13.9324229 28.9775739,13.1294166 C29.1894783,12.8932382 29.4492745,12.7515312 29.7799242,12.7515312 C30.3703701,12.7515312 30.7725293,13.1530344 30.7725293,13.7198624 C30.7725293,13.9324229 30.7010197,14.1449834 30.5593127,14.3339261 C29.4971662,15.6092892 27.8203,16.3886777 25.8127841,16.3886777 C22.129058,16.3886777 19.696421,14.0032764 19.696421,10.4612573 C19.696421,6.94285605 22.129058,4.53383694 25.6946949,4.53383694 C29.0241535,4.53383694 31.4804083,6.89496433 31.4804083,9.91804713 L31.4804083,9.9652828 Z" id="Fill-8" fill="#4D4D4D"></path>
                        <path d="M41.424107,14.3341229 C40.7628076,15.7039573 39.4165911,16.3888745 37.6459096,16.3888745 C35.0007121,16.3888745 33.3953554,14.7120083 33.3953554,11.901486 L33.3953554,2.07777898 C33.3953554,1.39286178 33.7968586,0.967740764 34.4345401,0.967740764 C35.0715656,0.967740764 35.449451,1.39286178 35.449451,2.07777898 L35.449451,4.81679172 L39.9361834,4.81679172 C40.573865,4.81679172 40.9517503,5.19467707 40.9517503,5.78577898 C40.9517503,6.37556879 40.573865,6.72983631 39.9361834,6.72983631 L35.449451,6.72983631 L35.449451,11.9723395 C35.449451,13.5547344 36.299693,14.4758299 37.7403809,14.4758299 C38.7087121,14.4758299 39.3221197,14.0500529 39.7951325,13.2949382 C39.9604573,13.0587599 40.1959796,12.8704732 40.5974828,12.8704732 C41.140693,12.8704732 41.5421962,13.2713204 41.5421962,13.8617662 C41.5421962,14.0270911 41.4949605,14.1924159 41.424107,14.3341229" id="Fill-10" fill="#4D4D4D"></path>
                        <path d="M50.3278994,5.64400637 C50.3278994,6.2816879 49.9027783,6.6589172 49.2893707,6.6589172 C46.8094981,6.6589172 45.392428,8.0996051 45.392428,11.1699236 L45.392428,15.1370637 C45.392428,15.8219809 45.0145427,16.2464459 44.3532433,16.2464459 C43.7155618,16.2464459 43.3383325,15.8219809 43.3383325,15.1370637 L43.3383325,5.80933121 C43.3383325,5.10079618 43.7155618,4.67501911 44.3532433,4.67501911 C45.0145427,4.67501911 45.392428,5.10079618 45.392428,5.80933121 L45.392428,6.63595541 L45.4396637,6.63595541 C46.2190522,5.31335669 47.4944153,4.60482166 49.2893707,4.60482166 C49.9027783,4.60482166 50.3278994,4.98205096 50.3278994,5.64400637" id="Fill-12" fill="#4D4D4D"></path>
                        <path d="M54.0838567,5.80933121 L54.0838567,15.1370637 C54.0838567,15.8219809 53.7059713,16.2464459 53.044672,16.2464459 C52.4069904,16.2464459 52.0297611,15.8219809 52.0297611,15.1370637 L52.0297611,5.80933121 C52.0297611,5.10079618 52.4069904,4.67501911 53.044672,4.67501911 C53.7059713,4.67501911 54.0838567,5.10079618 54.0838567,5.80933121 M51.769965,1.29832484 C51.769965,0.543210191 52.2659395,0 53.044672,0 C53.8476783,0 54.3436529,0.543210191 54.3436529,1.29832484 C54.3436529,2.05409554 53.8476783,2.59730573 53.044672,2.59730573 C52.2659395,2.59730573 51.769965,2.05409554 51.769965,1.29832484" id="Fill-14" fill="#4D4D4D"></path>
                        <g id="Group-18" transform="translate(55.858212, 4.530950)">
                            <mask id="mask-4" fill="white">
                                <use xlink:href="#path-3"></use>
                            </mask>
                            <g id="Clip-17"></g>
                            <path d="M10.9782911,9.8506051 C11.2144694,10.1104013 11.3325586,10.3465796 11.3325586,10.6772293 C11.3325586,11.2906369 10.8838197,11.715758 10.2697561,11.715758 C9.91548854,11.715758 9.70292803,11.574051 9.44313185,11.2906369 L5.83025924,7.15817197 L2.21738662,11.3142548 C1.95759045,11.5976688 1.74502994,11.715758 1.36714459,11.715758 C0.776698726,11.715758 0.375195541,11.2906369 0.375195541,10.7001911 C0.375195541,10.4167771 0.469666879,10.1812548 0.682227389,9.94507643 L4.46042484,5.90642675 L0.847552229,2.01014013 C0.611373885,1.75034395 0.493284713,1.51416561 0.493284713,1.18351592 C0.493284713,0.57010828 0.942023567,0.14433121 1.55608726,0.14433121 C1.91035478,0.14433121 2.12225924,0.286038217 2.38205541,0.57010828 L5.85387707,4.58448408 L9.37227834,0.545834395 C9.63207452,0.263076433 9.84463503,0.14433121 10.2225204,0.14433121 C10.8129662,0.14433121 11.2144694,0.57010828 11.2144694,1.15989809 C11.2144694,1.44396815 11.1199981,1.67949045 10.9074376,1.91566879 L7.22305541,5.85919108 L10.9782911,9.8506051 Z" id="Fill-16" fill="#4D4D4D" mask="url(#mask-4)"></path>
                        </g>
                    </g>
                </g>
            </g>
        </g>
    </g>
</svg>