<?xml version="1.0" encoding="utf-8"?>
<!-- Generator: Adobe Illustrator 25.0.0, SVG Export Plug-In . SVG Version: 6.00 Build 0)  -->
<svg version="1.1" id="Layer_1" xmlns="http://www.w3.org/2000/svg" xmlns:xlink="http://www.w3.org/1999/xlink" x="0px" y="0px"
	 viewBox="0 0 205.43 97.12" style="enable-background:new 0 0 205.43 97.12;" xml:space="preserve">
<style type="text/css">
	.st0{filter:url(#Adobe_OpacityMaskFilter);}
	.st1{fill-rule:evenodd;clip-rule:evenodd;fill:#FFFFFF;}
	.st2{mask:url(#mask-2_1_);fill-rule:evenodd;clip-rule:evenodd;fill:#43B1FE;}
	.st3{fill-rule:evenodd;clip-rule:evenodd;fill:#FEFEFE;}
	.st4{fill-rule:evenodd;clip-rule:evenodd;fill:#4D4D4D;}
	.st5{filter:url(#Adobe_OpacityMaskFilter_1_);}
	.st6{mask:url(#mask-4_1_);fill-rule:evenodd;clip-rule:evenodd;fill:#4D4D4D;}
	.st7{filter:url(#Adobe_OpacityMaskFilter_2_);}
	.st8{mask:url(#mask-2_2_);fill-rule:evenodd;clip-rule:evenodd;fill:#FEFEFE;}
	.st9{filter:url(#Adobe_OpacityMaskFilter_3_);}
	.st10{mask:url(#mask-4_2_);fill-rule:evenodd;clip-rule:evenodd;fill:#4D4D4D;}
	.st11{fill-rule:evenodd;clip-rule:evenodd;fill:#43B1FE;}
	.st12{filter:url(#Adobe_OpacityMaskFilter_4_);}
	.st13{mask:url(#mask-2_4_);fill-rule:evenodd;clip-rule:evenodd;fill:#43B1FE;}
	.st14{filter:url(#Adobe_OpacityMaskFilter_5_);}
	.st15{mask:url(#mask-2_3_);fill-rule:evenodd;clip-rule:evenodd;fill:#FEFEFE;}
</style>
<desc>Created with Sketch.</desc>
<g id="Group">
	<g id="logo-Mark">
		<g id="Group-3">
			<g id="Clip-2">
			</g>
			<defs>
				<filter id="Adobe_OpacityMaskFilter" filterUnits="userSpaceOnUse" x="84.54" y="16.73" width="24.16" height="24.16">
					<feColorMatrix  type="matrix" values="1 0 0 0 0  0 1 0 0 0  0 0 1 0 0  0 0 0 1 0"/>
				</filter>
			</defs>
			<mask maskUnits="userSpaceOnUse" x="84.54" y="16.73" width="24.16" height="24.16" id="mask-2_1_">
				<g class="st0">
					<polygon id="path-1_1_" class="st1" points="84.54,16.73 108.71,16.73 108.71,40.9 84.54,40.9 					"/>
				</g>
			</mask>
			<path id="Fill-1" class="st2" d="M108.71,28.82c0-6.67-5.41-12.08-12.08-12.08c-6.67,0-12.08,5.41-12.08,12.08
				c0,6.67,5.41,12.08,12.08,12.08C103.3,40.9,108.71,35.49,108.71,28.82"/>
		</g>
	</g>
	<path id="Fill-4" class="st3" d="M101.5,25.09v7.61c0,0.43-0.24,0.68-0.63,0.68h-8.48c-0.39,0-0.63-0.25-0.63-0.67v-7.6
		c0-0.5,0.3-0.87,0.83-0.87c0.32,0,0.6,0.16,0.82,0.51l3.24,5.21l3.22-5.2c0.21-0.34,0.5-0.52,0.84-0.52
		C101.21,24.25,101.5,24.61,101.5,25.09"/>
</g>
<path id="Fill-6" class="st4" d="M137.04,35.66c0,0.76-0.43,1.2-1.11,1.2c-0.71,0-1.13-0.45-1.13-1.2V24.83h-0.05l-5.2,8.26
	c-0.28,0.45-0.66,0.66-1.09,0.66c-0.45,0-0.83-0.21-1.09-0.64l-5.27-8.38h-0.05v10.96c0,0.73-0.4,1.18-1.09,1.18
	c-0.68,0-1.11-0.45-1.11-1.18V22.3c0-0.87,0.52-1.54,1.46-1.54c0.57,0,1.06,0.28,1.44,0.9l5.71,9.19l5.67-9.16
	c0.38-0.59,0.87-0.92,1.49-0.92c0.9,0,1.39,0.64,1.39,1.49V35.66z"/>
<path id="Fill-8" class="st4" d="M141.79,30.04h7.56c-0.4-1.79-1.82-2.98-3.78-2.98S142.19,28.25,141.79,30.04z M151.36,30.59
	c0,0.83-0.5,1.3-1.32,1.3h-8.29c0.33,1.94,1.79,3.21,3.94,3.21c1.39,0,2.48-0.54,3.16-1.35c0.21-0.24,0.47-0.38,0.8-0.38
	c0.59,0,0.99,0.4,0.99,0.97c0,0.21-0.07,0.43-0.21,0.61c-1.06,1.28-2.74,2.05-4.75,2.05c-3.68,0-6.12-2.39-6.12-5.93
	c0-3.52,2.43-5.93,6-5.93c3.33,0,5.79,2.36,5.79,5.38V30.59z"/>
<path id="Fill-10" class="st4" d="M161.3,34.96c-0.66,1.37-2.01,2.05-3.78,2.05c-2.65,0-4.25-1.68-4.25-4.49V22.7
	c0-0.68,0.4-1.11,1.04-1.11c0.64,0,1.01,0.43,1.01,1.11v2.74h4.49c0.64,0,1.02,0.38,1.02,0.97c0,0.59-0.38,0.94-1.02,0.94h-4.49
	v5.24c0,1.58,0.85,2.5,2.29,2.5c0.97,0,1.58-0.43,2.05-1.18c0.17-0.24,0.4-0.42,0.8-0.42c0.54,0,0.94,0.4,0.94,0.99
	C161.42,34.65,161.37,34.81,161.3,34.96"/>
<path id="Fill-12" class="st4" d="M170.2,26.27c0,0.64-0.43,1.01-1.04,1.01c-2.48,0-3.9,1.44-3.9,4.51v3.97
	c0,0.68-0.38,1.11-1.04,1.11c-0.64,0-1.01-0.42-1.01-1.11v-9.33c0-0.71,0.38-1.13,1.01-1.13c0.66,0,1.04,0.43,1.04,1.13v0.83h0.05
	c0.78-1.32,2.05-2.03,3.85-2.03C169.78,25.23,170.2,25.6,170.2,26.27"/>
<path id="Fill-14" class="st4" d="M173.96,26.43v9.33c0,0.68-0.38,1.11-1.04,1.11c-0.64,0-1.01-0.42-1.01-1.11v-9.33
	c0-0.71,0.38-1.13,1.01-1.13C173.58,25.3,173.96,25.72,173.96,26.43 M171.64,21.92c0-0.76,0.5-1.3,1.27-1.3c0.8,0,1.3,0.54,1.3,1.3
	c0,0.76-0.5,1.3-1.3,1.3C172.14,23.22,171.64,22.68,171.64,21.92"/>
<g id="Group-18" transform="translate(55.858212, 4.530950)">
	<g id="Clip-17">
	</g>
	<defs>
		<filter id="Adobe_OpacityMaskFilter_1_" filterUnits="userSpaceOnUse" x="120.25" y="20.77" width="10.96" height="11.57">
			<feColorMatrix  type="matrix" values="1 0 0 0 0  0 1 0 0 0  0 0 1 0 0  0 0 0 1 0"/>
		</filter>
	</defs>
	<mask maskUnits="userSpaceOnUse" x="120.25" y="20.77" width="10.96" height="11.57" id="mask-4_1_">
		<g class="st5">
			<polygon id="path-3_1_" class="st1" points="120.25,20.77 131.21,20.77 131.21,32.34 120.25,32.34 			"/>
		</g>
	</mask>
	<path id="Fill-16" class="st6" d="M130.85,30.47c0.24,0.26,0.35,0.5,0.35,0.83c0,0.61-0.45,1.04-1.06,1.04
		c-0.35,0-0.57-0.14-0.83-0.43l-3.61-4.13l-3.61,4.16c-0.26,0.28-0.47,0.4-0.85,0.4c-0.59,0-0.99-0.43-0.99-1.02
		c0-0.28,0.09-0.52,0.31-0.76l3.78-4.04l-3.61-3.9c-0.24-0.26-0.35-0.5-0.35-0.83c0-0.61,0.45-1.04,1.06-1.04
		c0.35,0,0.57,0.14,0.83,0.43l3.47,4.01l3.52-4.04c0.26-0.28,0.47-0.4,0.85-0.4c0.59,0,0.99,0.43,0.99,1.02
		c0,0.28-0.09,0.52-0.31,0.76l-3.68,3.94L130.85,30.47z"/>
</g>
<desc>Created with Sketch.</desc>
<g id="Group-3_1_">
	<g id="Clip-2_1_">
	</g>
	<defs>
		<filter id="Adobe_OpacityMaskFilter_2_" filterUnits="userSpaceOnUse" x="84.54" y="56.22" width="24.16" height="24.16">
			<feColorMatrix  type="matrix" values="1 0 0 0 0  0 1 0 0 0  0 0 1 0 0  0 0 0 1 0"/>
		</filter>
	</defs>
	<mask maskUnits="userSpaceOnUse" x="84.54" y="56.22" width="24.16" height="24.16" id="mask-2_2_">
		<g class="st7">
			<polygon id="path-1_2_" class="st1" points="84.54,56.22 108.71,56.22 108.71,80.39 84.54,80.39 			"/>
		</g>
	</mask>
	<path id="Fill-1_1_" class="st8" d="M108.71,68.3c0-6.67-5.41-12.08-12.08-12.08c-6.67,0-12.08,5.41-12.08,12.08
		c0,6.67,5.41,12.08,12.08,12.08C103.3,80.39,108.71,74.98,108.71,68.3"/>
</g>
<path id="Fill-6_1_" class="st4" d="M137.04,75.15c0,0.76-0.43,1.2-1.11,1.2c-0.71,0-1.13-0.45-1.13-1.2V64.31h-0.05l-5.2,8.26
	c-0.28,0.45-0.66,0.66-1.09,0.66c-0.45,0-0.83-0.21-1.09-0.64l-5.27-8.38h-0.05v10.96c0,0.73-0.4,1.18-1.09,1.18
	c-0.68,0-1.11-0.45-1.11-1.18V61.79c0-0.87,0.52-1.54,1.46-1.54c0.57,0,1.06,0.28,1.44,0.9l5.71,9.19l5.67-9.16
	c0.38-0.59,0.87-0.92,1.49-0.92c0.9,0,1.39,0.64,1.39,1.49V75.15z"/>
<path id="Fill-8_1_" class="st4" d="M141.79,69.53h7.56c-0.4-1.79-1.82-2.98-3.78-2.98S142.19,67.74,141.79,69.53z M151.36,70.08
	c0,0.83-0.5,1.3-1.32,1.3h-8.29c0.33,1.94,1.79,3.21,3.94,3.21c1.39,0,2.48-0.54,3.16-1.35c0.21-0.24,0.47-0.38,0.8-0.38
	c0.59,0,0.99,0.4,0.99,0.97c0,0.21-0.07,0.43-0.21,0.61c-1.06,1.28-2.74,2.05-4.75,2.05c-3.68,0-6.12-2.39-6.12-5.93
	c0-3.52,2.43-5.93,6-5.93c3.33,0,5.79,2.36,5.79,5.38V70.08z"/>
<path id="Fill-10_1_" class="st4" d="M161.3,74.45c-0.66,1.37-2.01,2.05-3.78,2.05c-2.65,0-4.25-1.68-4.25-4.49v-9.82
	c0-0.68,0.4-1.11,1.04-1.11c0.64,0,1.01,0.43,1.01,1.11v2.74h4.49c0.64,0,1.02,0.38,1.02,0.97c0,0.59-0.38,0.94-1.02,0.94h-4.49
	v5.24c0,1.58,0.85,2.5,2.29,2.5c0.97,0,1.58-0.43,2.05-1.18c0.17-0.24,0.4-0.42,0.8-0.42c0.54,0,0.94,0.4,0.94,0.99
	C161.42,74.14,161.37,74.3,161.3,74.45"/>
<path id="Fill-12_1_" class="st4" d="M170.2,65.76c0,0.64-0.43,1.01-1.04,1.01c-2.48,0-3.9,1.44-3.9,4.51v3.97
	c0,0.68-0.38,1.11-1.04,1.11c-0.64,0-1.01-0.42-1.01-1.11v-9.33c0-0.71,0.38-1.13,1.01-1.13c0.66,0,1.04,0.43,1.04,1.13v0.83h0.05
	c0.78-1.32,2.05-2.03,3.85-2.03C169.78,64.72,170.2,65.09,170.2,65.76"/>
<path id="Fill-14_1_" class="st4" d="M173.96,65.92v9.33c0,0.68-0.38,1.11-1.04,1.11c-0.64,0-1.01-0.42-1.01-1.11v-9.33
	c0-0.71,0.38-1.13,1.01-1.13C173.58,64.79,173.96,65.21,173.96,65.92 M171.64,61.41c0-0.76,0.5-1.3,1.27-1.3c0.8,0,1.3,0.54,1.3,1.3
	c0,0.76-0.5,1.3-1.3,1.3C172.14,62.71,171.64,62.17,171.64,61.41"/>
<defs>
	<filter id="Adobe_OpacityMaskFilter_3_" filterUnits="userSpaceOnUse" x="176.11" y="64.79" width="10.96" height="11.57">
		<feColorMatrix  type="matrix" values="1 0 0 0 0  0 1 0 0 0  0 0 1 0 0  0 0 0 1 0"/>
	</filter>
</defs>
<mask maskUnits="userSpaceOnUse" x="176.11" y="64.79" width="10.96" height="11.57" id="mask-4_2_">
	<g class="st9">
		<polygon id="path-3_2_" class="st1" points="176.11,64.79 187.06,64.79 187.06,76.36 176.11,76.36 		"/>
	</g>
</mask>
<path id="Fill-16_1_" class="st10" d="M186.71,74.49c0.24,0.26,0.35,0.5,0.35,0.83c0,0.61-0.45,1.04-1.06,1.04
	c-0.35,0-0.57-0.14-0.83-0.43l-3.61-4.13l-3.61,4.16c-0.26,0.28-0.47,0.4-0.85,0.4c-0.59,0-0.99-0.43-0.99-1.02
	c0-0.28,0.09-0.52,0.31-0.76l3.78-4.04l-3.61-3.9c-0.24-0.26-0.35-0.5-0.35-0.83c0-0.61,0.45-1.04,1.06-1.04
	c0.35,0,0.57,0.14,0.83,0.43l3.47,4.01l3.52-4.04c0.26-0.28,0.47-0.4,0.85-0.4c0.59,0,0.99,0.43,0.99,1.02
	c0,0.28-0.09,0.52-0.31,0.76l-3.68,3.94L186.71,74.49z"/>
<path id="Fill-4_1_" class="st11" d="M101.5,64.58v7.61c0,0.43-0.24,0.68-0.63,0.68h-8.48c-0.39,0-0.63-0.25-0.63-0.67v-7.6
	c0-0.5,0.3-0.87,0.83-0.87c0.32,0,0.6,0.16,0.82,0.51l3.24,5.21l3.22-5.2c0.21-0.34,0.5-0.52,0.84-0.52
	C101.21,63.74,101.5,64.1,101.5,64.58"/>
<g id="Group_1_">
	<g id="logo-Mark_1_">
		<g id="Group-3_3_">
			<g id="Clip-2_3_">
			</g>
			<defs>
				<filter id="Adobe_OpacityMaskFilter_4_" filterUnits="userSpaceOnUse" x="26.18" y="16.73" width="24.16" height="24.16">
					<feColorMatrix  type="matrix" values="1 0 0 0 0  0 1 0 0 0  0 0 1 0 0  0 0 0 1 0"/>
				</filter>
			</defs>
			<mask maskUnits="userSpaceOnUse" x="26.18" y="16.73" width="24.16" height="24.16" id="mask-2_4_">
				<g class="st12">
					<polygon id="path-1_4_" class="st1" points="26.18,16.73 50.35,16.73 50.35,40.9 26.18,40.9 					"/>
				</g>
			</mask>
			<path id="Fill-1_3_" class="st13" d="M50.35,28.82c0-6.67-5.41-12.08-12.08-12.08c-6.67,0-12.08,5.41-12.08,12.08
				c0,6.67,5.41,12.08,12.08,12.08C44.94,40.9,50.35,35.49,50.35,28.82"/>
		</g>
	</g>
	<path id="Fill-4_3_" class="st3" d="M43.14,25.09v7.61c0,0.43-0.24,0.68-0.63,0.68h-8.48c-0.39,0-0.63-0.25-0.63-0.67v-7.6
		c0-0.5,0.3-0.87,0.83-0.87c0.32,0,0.6,0.16,0.82,0.51l3.24,5.21l3.22-5.2c0.21-0.34,0.5-0.52,0.84-0.52
		C42.85,24.25,43.14,24.61,43.14,25.09"/>
</g>
<g id="Group-3_2_">
	<g id="Clip-2_2_">
	</g>
	<defs>
		<filter id="Adobe_OpacityMaskFilter_5_" filterUnits="userSpaceOnUse" x="26.18" y="56.22" width="24.16" height="24.16">
			<feColorMatrix  type="matrix" values="1 0 0 0 0  0 1 0 0 0  0 0 1 0 0  0 0 0 1 0"/>
		</filter>
	</defs>
	<mask maskUnits="userSpaceOnUse" x="26.18" y="56.22" width="24.16" height="24.16" id="mask-2_3_">
		<g class="st14">
			<polygon id="path-1_3_" class="st1" points="26.18,56.22 50.35,56.22 50.35,80.39 26.18,80.39 			"/>
		</g>
	</mask>
	<path id="Fill-1_2_" class="st15" d="M50.35,68.3c0-6.67-5.41-12.08-12.08-12.08c-6.67,0-12.08,5.41-12.08,12.08
		c0,6.67,5.41,12.08,12.08,12.08C44.94,80.39,50.35,74.98,50.35,68.3"/>
</g>
<path id="Fill-4_2_" class="st11" d="M43.14,64.58v7.61c0,0.43-0.24,0.68-0.63,0.68h-8.48c-0.39,0-0.63-0.25-0.63-0.67v-7.6
	c0-0.5,0.3-0.87,0.83-0.87c0.32,0,0.6,0.16,0.82,0.51l3.24,5.21l3.22-5.2c0.21-0.34,0.5-0.52,0.84-0.52
	C42.85,63.74,43.14,64.1,43.14,64.58"/>
</svg>
