<?xml version="1.0" encoding="utf-8"?>
<!-- Generator: Adobe Illustrator 25.0.0, SVG Export Plug-In . SVG Version: 6.00 Build 0)  -->
<svg version="1.1" id="Layer_1" xmlns="http://www.w3.org/2000/svg" xmlns:xlink="http://www.w3.org/1999/xlink" x="0px" y="0px"
	 viewBox="0 0 261.34 77.91" style="enable-background:new 0 0 261.34 77.91;" xml:space="preserve">
<style type="text/css">
	.st0{fill:#D73092;}
	.st1{fill:#56489D;}
</style>
<g>
	<path class="st0" d="M91.84,38.86c0.56-0.18,1.13-0.35,1.69-0.53c2.12-0.65,4.25-1.3,6.37-1.94c2.26-0.69,4.52-1.37,6.78-2.05
		c2.09-0.64,4.18-1.28,6.26-1.92c0.25-0.08,0.51-0.15,0.77-0.22c0.28-0.08,0.37-0.19,0.21-0.49c-1.68-3.17-3.35-6.34-5.02-9.51
		c-1.78-3.37-3.55-6.75-5.33-10.12c-0.06-0.11-0.1-0.22-0.2-0.44c0.28,0.12,0.45,0.18,0.61,0.27c6.08,3.2,12.15,6.41,18.23,9.62
		c0.42,0.22,0.84,0.43,1.24,0.66c0.25,0.15,0.38,0.08,0.45-0.17c0.37-1.22,0.73-2.43,1.1-3.65c0.58-1.91,1.16-3.82,1.74-5.72
		c0.59-1.94,1.18-3.89,1.77-5.83c0.53-1.75,1.07-3.5,1.6-5.25c0.14-0.45,0.27-0.9,0.41-1.35c0.02-0.05,0.07-0.09,0.17-0.21
		c0.15,0.47,0.28,0.87,0.41,1.27c0.6,1.96,1.2,3.91,1.79,5.87c0.63,2.09,1.26,4.18,1.9,6.27c0.58,1.91,1.16,3.81,1.75,5.72
		c0.28,0.92,0.56,1.85,0.84,2.77c0.12,0.41,0.17,0.44,0.54,0.22c6.04-3.64,12.08-7.29,18.11-10.93c1.84-1.11,3.68-2.21,5.52-3.32
		c0.05-0.03,0.11-0.06,0.24-0.04c-0.06,0.12-0.12,0.25-0.19,0.36c-4.7,7.8-9.39,15.59-14.09,23.39c-0.03,0.05-0.06,0.12-0.09,0.17
		c-0.17,0.22-0.12,0.35,0.14,0.45c1.93,0.71,3.86,1.42,5.79,2.13c2.45,0.9,4.91,1.81,7.36,2.71c1.56,0.57,3.12,1.15,4.68,1.72
		c0.09,0.03,0.16,0.08,0.36,0.18c-0.43,0.17-0.75,0.3-1.07,0.42c-3.16,1.16-6.31,2.33-9.47,3.49c-2.51,0.93-5.03,1.85-7.54,2.77
		c-0.43,0.16-0.44,0.18-0.16,0.57c2.75,3.93,5.49,7.86,8.24,11.79c4.52,6.46,9.03,12.93,13.54,19.39c0.09,0.13,0.17,0.27,0.2,0.45
		c-0.13-0.08-0.25-0.15-0.37-0.23c-7.5-5.25-15-10.49-22.5-15.74c-2.9-2.03-5.79-4.05-8.69-6.08c-0.39-0.27-0.42-0.26-0.56,0.22
		c-0.63,2.09-1.28,4.18-1.91,6.27c-0.69,2.26-1.37,4.52-2.06,6.78c-0.58,1.92-1.17,3.84-1.76,5.76c-0.28,0.91-0.55,1.82-0.83,2.73
		c-0.02,0.08-0.07,0.15-0.15,0.35c-0.12-0.32-0.21-0.52-0.28-0.74c-0.96-3.16-1.93-6.32-2.88-9.48c-0.89-2.93-1.77-5.86-2.66-8.79
		c-0.31-1.01-0.62-2.02-0.92-3.03c-0.1-0.33-0.24-0.3-0.5-0.15c-4.35,2.48-8.7,4.95-13.05,7.43c-2.8,1.59-5.61,3.19-8.41,4.79
		c-0.13,0.07-0.26,0.13-0.47,0.13c0.06-0.13,0.12-0.26,0.19-0.38c2.35-4.14,4.71-8.29,7.06-12.43c1.71-3.02,3.43-6.03,5.14-9.05
		c0.21-0.38,0.18-0.42-0.22-0.54c-2.1-0.64-4.2-1.28-6.3-1.92c-1.93-0.59-3.86-1.17-5.79-1.75c-1.91-0.58-3.81-1.16-5.72-1.75
		c-1.25-0.38-2.5-0.76-3.75-1.15c-0.09-0.03-0.17-0.07-0.26-0.11C91.84,38.94,91.84,38.9,91.84,38.86z"/>
	<polygon class="st1" points="70.72,38.95 41.81,9.83 41.81,24.39 0,24.39 0,38.95 0,53.52 41.81,53.52 41.81,68.08 	"/>
	<polygon class="st1" points="190.62,38.95 219.52,68.08 219.52,53.52 261.34,53.52 261.34,38.95 261.34,24.39 219.52,24.39 
		219.52,9.83 	"/>
</g>
</svg>
