<?xml version="1.0" encoding="utf-8"?>
<!-- Generator: Adobe Illustrator 25.0.0, SVG Export Plug-In . SVG Version: 6.00 Build 0)  -->
<svg version="1.1" id="Layer_1" xmlns="http://www.w3.org/2000/svg" xmlns:xlink="http://www.w3.org/1999/xlink" x="0px" y="0px"
	 viewBox="0 0 120 120" style="enable-background:new 0 0 120 120;" xml:space="preserve">
<style type="text/css">
	.st0{fill:none;stroke:#EE2A7B;stroke-miterlimit:10;}
	.st1{fill:none;stroke:#EE2A7B;stroke-miterlimit:10;stroke-dasharray:3,3;}
	.st2{opacity:0.32;fill:#3B0097;enable-background:new    ;}
	.st3{fill:#EE2A7B;}
</style>
<line class="st0" x1="10" y1="0" x2="10" y2="1.5"/>
<line class="st1" x1="10" y1="4.5" x2="10" y2="117"/>
<line class="st0" x1="10" y1="118.5" x2="10" y2="120"/>
<line class="st0" x1="110" y1="0" x2="110" y2="1.5"/>
<line class="st1" x1="110" y1="4.5" x2="110" y2="117"/>
<line class="st0" x1="110" y1="118.5" x2="110" y2="120"/>
<line class="st0" x1="120" y1="10" x2="118.5" y2="10"/>
<line class="st1" x1="115.5" y1="10" x2="3" y2="10"/>
<line class="st0" x1="1.5" y1="10" x2="0" y2="10"/>
<line class="st0" x1="120" y1="110" x2="118.5" y2="110"/>
<line class="st1" x1="115.5" y1="110" x2="3" y2="110"/>
<line class="st0" x1="1.5" y1="110" x2="0" y2="110"/>
<rect id="_.bg" x="15.6" y="15.6" class="st2" width="88.9" height="88.9"/>
<g>
	<circle class="st3" cx="60" cy="32.7" r="3.2"/>
	<circle class="st3" cx="60" cy="42.4" r="3.2"/>
	<circle class="st3" cx="60" cy="52" r="3.2"/>
	<circle class="st3" cx="60" cy="61.7" r="3.2"/>
	<circle class="st3" cx="60" cy="71.3" r="3.2"/>
	<circle class="st3" cx="60" cy="81" r="3.2"/>
	<line class="st0" x1="31.7" y1="32.7" x2="53.5" y2="32.7"/>
	<path class="st0" d="M66.5,42.4h18.8l0,0c2.6-0.1,4.6-2.2,4.6-4.8c0-2.7-2.2-4.8-4.8-4.8H66.5"/>
	<path class="st0" d="M53.6,42.4H34.8l0,0c-2.6,0.1-4.6,2.2-4.6,4.8c0,2.7,2.2,4.8,4.8,4.8h18.6"/>
	<path class="st0" d="M66.5,61.7h18.8l0,0c2.6-0.1,4.6-2.2,4.6-4.8c0-2.7-2.2-4.8-4.8-4.8H66.5"/>
	<path class="st0" d="M53.6,61.7H34.8l0,0c-2.6,0.1-4.6,2.2-4.6,4.8c0,2.7,2.2,4.8,4.8,4.8h18.6"/>
	<path class="st0" d="M66.5,81h18.8l0,0c2.6-0.1,4.6-2.2,4.6-4.8c0-2.7-2.2-4.8-4.8-4.8H66.5"/>
	<g>
		<g>
			<path class="st0" d="M53.6,81H34.8l0,0c-2.6,0.1-4.6,2.2-4.6,4.8c0,2.7,2.2,4.8,4.8,4.8h53.9"/>
			<g>
				<polygon class="st3" points="85.6,94.7 84.9,94 88.5,90.6 84.9,87.3 85.6,86.5 90,90.6 				"/>
			</g>
		</g>
	</g>
</g>
</svg>
