<?xml version="1.0" encoding="utf-8"?>
<!-- Generator: Adobe Illustrator 25.0.0, SVG Export Plug-In . SVG Version: 6.00 Build 0)  -->
<svg version="1.1" id="Layer_1" xmlns="http://www.w3.org/2000/svg" xmlns:xlink="http://www.w3.org/1999/xlink" x="0px" y="0px"
	 viewBox="0 0 120 120" style="enable-background:new 0 0 120 120;" xml:space="preserve">
<style type="text/css">
	.st0{fill:none;stroke:#EE2A7B;stroke-miterlimit:10;}
	.st1{fill:none;stroke:#EE2A7B;stroke-miterlimit:10;stroke-dasharray:3,3;}
	.st2{opacity:0.32;fill:#3B0097;enable-background:new    ;}
	.st3{fill:none;}
	.st4{fill:#EE2A7B;}
</style>
<line class="st0" x1="10" y1="0" x2="10" y2="1.5"/>
<line class="st1" x1="10" y1="4.5" x2="10" y2="117"/>
<line class="st0" x1="10" y1="118.5" x2="10" y2="120"/>
<line class="st0" x1="110" y1="0" x2="110" y2="1.5"/>
<line class="st1" x1="110" y1="4.5" x2="110" y2="117"/>
<line class="st0" x1="110" y1="118.5" x2="110" y2="120"/>
<line class="st0" x1="120" y1="10" x2="118.5" y2="10"/>
<line class="st1" x1="115.5" y1="10" x2="3" y2="10"/>
<line class="st0" x1="1.5" y1="10" x2="0" y2="10"/>
<line class="st0" x1="120" y1="110" x2="118.5" y2="110"/>
<line class="st1" x1="115.5" y1="110" x2="3" y2="110"/>
<line class="st0" x1="1.5" y1="110" x2="0" y2="110"/>
<rect id="_.bg" x="15.6" y="15.6" class="st2" width="88.9" height="88.9"/>
<rect x="48" y="47.9" class="st3" width="47.5" height="47.5"/>
<path class="st4" d="M79.5,61.5l-1.6-1.2c0-0.2,0-0.3,0-0.4l1.6-1.2c0.3-0.2,0.4-0.7,0.2-1L78,54.6c-0.1-0.3-0.4-0.4-0.7-0.4
	c-0.1,0-0.2,0-0.3,0.1l-1.9,0.8c-0.2-0.1-0.2-0.1-0.4-0.2l-0.3-2c-0.1-0.4-0.4-0.7-0.8-0.7h-3.4c-0.4,0-0.7,0.3-0.8,0.7l-0.3,2
	c-0.1,0-0.1,0.1-0.2,0.1c-0.1,0-0.1,0.1-0.2,0.1L67,54.3c-0.1,0-0.2-0.1-0.3-0.1c-0.3,0-0.5,0.1-0.7,0.4l-1.7,2.9
	c-0.2,0.3-0.1,0.8,0.2,1l1.6,1.2c0,0.2,0,0.3,0,0.5l-1.6,1.2c-0.3,0.2-0.4,0.7-0.2,1l1.7,2.9c0.1,0.3,0.4,0.4,0.7,0.4
	c0.1,0,0.2,0,0.3-0.1l1.9-0.7c0.2,0.1,0.2,0.1,0.4,0.2l0.3,2c0.1,0.4,0.4,0.7,0.8,0.7h3.4c0.4,0,0.7-0.3,0.8-0.7l0.3-2
	c0.1,0,0.1-0.1,0.2-0.1s0.1-0.1,0.2-0.1l1.9,0.8c0.1,0,0.2,0.1,0.3,0.1c0.3,0,0.5-0.1,0.7-0.4l1.7-2.9
	C79.9,62.2,79.8,61.8,79.5,61.5z M72,63c-1.6,0-3-1.3-3-3c0-1.6,1.3-3,3-3s3,1.3,3,3C75,61.7,73.6,63,72,63z M70,69.9h4v7.9
	c0,2.2-1.8,4-4,4H50.2c-2.2,0-4-1.8-4-4V42.2c0-2.2,1.8-4,4-4H70c2.2,0,4,1.8,4,4v7.9h-4v-2H50.2v23.8H70V69.9z"/>
</svg>
