<?xml version="1.0" encoding="utf-8"?>
<!-- Generator: Adobe Illustrator 25.0.0, SVG Export Plug-In . SVG Version: 6.00 Build 0)  -->
<svg version="1.1" id="Layer_1" xmlns="http://www.w3.org/2000/svg" xmlns:xlink="http://www.w3.org/1999/xlink" x="0px" y="0px"
	 viewBox="0 0 120 120" style="enable-background:new 0 0 120 120;" xml:space="preserve">
<style type="text/css">
	.st0{fill:none;stroke:#EE2A7B;stroke-miterlimit:10;}
	.st1{fill:none;stroke:#EE2A7B;stroke-miterlimit:10;stroke-dasharray:3,3;}
	.st2{opacity:0.32;fill:#3B0097;enable-background:new    ;}
	.st3{fill:none;}
	.st4{fill:#FFFFFF;}
	.st5{fill:#E20000;}
	.st6{fill:#0068FF;}
	.st7{fill:#FFA300;}
	.st8{fill:#80C900;}
</style>
<line class="st0" x1="10" y1="0" x2="10" y2="1.5"/>
<line class="st1" x1="10" y1="4.5" x2="10" y2="117"/>
<line class="st0" x1="10" y1="118.5" x2="10" y2="120"/>
<line class="st0" x1="110" y1="0" x2="110" y2="1.5"/>
<line class="st1" x1="110" y1="4.5" x2="110" y2="117"/>
<line class="st0" x1="110" y1="118.5" x2="110" y2="120"/>
<line class="st0" x1="120" y1="10" x2="118.5" y2="10"/>
<line class="st1" x1="115.5" y1="10" x2="3" y2="10"/>
<line class="st0" x1="1.5" y1="10" x2="0" y2="10"/>
<line class="st0" x1="120" y1="110" x2="118.5" y2="110"/>
<line class="st1" x1="115.5" y1="110" x2="3" y2="110"/>
<line class="st0" x1="1.5" y1="110" x2="0" y2="110"/>
<rect id="_.bg" x="15.6" y="15.6" class="st2" width="88.9" height="88.9"/>
<rect x="48" y="47.9" class="st3" width="47.5" height="47.5"/>
<path class="st4" d="M62.2,41.9C51.1,41.9,42,51,42,62.1s9,20.2,20.2,20.2c1.9,0,3.4-1.5,3.4-3.4c0-0.9-0.3-1.7-0.9-2.3
	c-0.5-0.6-0.9-1.4-0.9-2.2c0-1.9,1.5-3.4,3.4-3.4h4c6.2,0,11.2-5,11.2-11.2C82.4,49.9,73.3,41.9,62.2,41.9z"/>
<circle class="st5" cx="49.9" cy="58.7" r="3.4"/>
<circle class="st6" cx="56.6" cy="49.8" r="3.4"/>
<circle class="st7" cx="67.8" cy="49.8" r="3.4"/>
<circle class="st8" cx="74.5" cy="58.7" r="3.4"/>
</svg>
