<?xml version="1.0" encoding="utf-8"?>
<!-- Generator: Adobe Illustrator 25.0.0, SVG Export Plug-In . SVG Version: 6.00 Build 0)  -->
<svg version="1.1" id="Layer_1" xmlns="http://www.w3.org/2000/svg" xmlns:xlink="http://www.w3.org/1999/xlink" x="0px" y="0px"
	 viewBox="0 0 120 120" style="enable-background:new 0 0 120 120;" xml:space="preserve">
<style type="text/css">
	.st0{fill:none;stroke:#EE2A7B;stroke-miterlimit:10;}
	.st1{fill:none;stroke:#EE2A7B;stroke-miterlimit:10;stroke-dasharray:3,3;}
	.st2{opacity:0.32;fill:#3B0097;enable-background:new    ;}
	.st3{fill:#EE2A7B;}
	.st4{opacity:0.4;fill:#EE2A7B;}
</style>
<line class="st0" x1="10" y1="0" x2="10" y2="1.5"/>
<line class="st1" x1="10" y1="4.5" x2="10" y2="117"/>
<line class="st0" x1="10" y1="118.5" x2="10" y2="120"/>
<line class="st0" x1="110" y1="0" x2="110" y2="1.5"/>
<line class="st1" x1="110" y1="4.5" x2="110" y2="117"/>
<line class="st0" x1="110" y1="118.5" x2="110" y2="120"/>
<line class="st0" x1="120" y1="10" x2="118.5" y2="10"/>
<line class="st1" x1="115.5" y1="10" x2="3" y2="10"/>
<line class="st0" x1="1.5" y1="10" x2="0" y2="10"/>
<line class="st0" x1="120" y1="110" x2="118.5" y2="110"/>
<line class="st1" x1="115.5" y1="110" x2="3" y2="110"/>
<line class="st0" x1="1.5" y1="110" x2="0" y2="110"/>
<rect id="_.bg" x="15.6" y="15.6" class="st2" width="88.9" height="88.9"/>
<g>
	<path class="st3" d="M56.3,71.7L53.1,75c-1.5-1.6-3-3.6-4-6.6l4.4-1.1C54.2,69.2,55.2,70.6,56.3,71.7z M57.2,58.2l-6.3-6.3
		c-0.5-0.5-1.2-0.5-1.6,0L43,58.2c-0.7,0.7-0.2,1.9,0.8,1.9h4.1c0,1.8,0.2,3.5,0.4,4.9l4.4-1.1c-0.2-1.1-0.3-2.4-0.3-3.8h4
		C57.4,60.1,57.9,58.9,57.2,58.2z M79.7,58.2l-6.3-6.3c-0.5-0.5-1.2-0.5-1.6,0l-6.3,6.3c-0.7,0.7-0.2,1.9,0.8,1.9h4
		c-0.2,8.3-2.9,10.7-5.7,13.3c-1.1,1-2.3,2.1-3.3,3.5c-0.8-1.1-1.6-2-2.5-2.8l-3.2,3.2c2.1,1.9,3.5,3.5,3.5,7.7l0,0l0,0v9
		c0,1.2,1,2.3,2.3,2.3l0,0c1.2,0,2.3-1,2.3-2.3v-9l0,0c0-4.6,1.6-6,4-8.2c3.1-2.8,6.9-6.3,7.2-16.6h4.1
		C79.9,60.1,80.4,58.9,79.7,58.2z"/>
</g>
<path class="st3" d="M96.8,47.2L90,31.4c-0.4-0.9-1.3-1.5-2.2-1.5s-1.9,0.6-2.2,1.5l-6.8,15.8c-0.3,0.7-0.2,1.4,0.2,2
	c0.4,0.6,1.1,1,1.8,1c0.9,0,1.6-0.5,2-1.3l1-2.5h8.2l1,2.5c0.3,0.8,1.1,1.3,2,1.3c0.7,0,1.4-0.4,1.8-1
	C97.1,48.6,97.1,47.8,96.8,47.2z M90.4,42.2h-5.3l2.7-7.1L90.4,42.2z"/>
<path class="st4" d="M37.6,40.8c1.4-1,2.4-2.5,2.4-4c0-3.2-2.5-5.7-5.7-5.7h-7.5c-0.8,0-1.4,0.6-1.4,1.4v17.2c0,0.8,0.6,1.4,1.4,1.4
	h8.3c3,0,5.7-2.4,5.7-5.4C40.6,43.5,39.4,41.6,37.6,40.8z M29.5,34.6h4.3c1.2,0,2.2,1,2.2,2.2s-1,2.2-2.2,2.2h-4.3V34.6z M34.5,47.5
	h-5v-4.3h5c1.2,0,2.2,1,2.2,2.2S35.7,47.5,34.5,47.5z"/>
</svg>
