<?xml version="1.0" encoding="utf-8"?>
<!-- Generator: Adobe Illustrator 25.0.0, SVG Export Plug-In . SVG Version: 6.00 Build 0)  -->
<svg version="1.1" id="Layer_1" xmlns="http://www.w3.org/2000/svg" xmlns:xlink="http://www.w3.org/1999/xlink" x="0px" y="0px"
	 viewBox="0 0 120 120" style="enable-background:new 0 0 120 120;" xml:space="preserve">
<style type="text/css">
	.st0{fill:none;stroke:#EE2A7B;stroke-miterlimit:10;}
	.st1{fill:none;stroke:#EE2A7B;stroke-miterlimit:10;stroke-dasharray:3,3;}
	.st2{opacity:0.32;fill:#3B0097;enable-background:new    ;}
	.st3{fill:#FF7262;}
	.st4{fill:#A259FF;}
	.st5{fill:#0ACF83;}
	.st6{fill:#1ABCFE;}
	.st7{fill:#FF9B8F;}
	.st8{fill:#F47A56;}
	.st9{fill:#F89C82;}
	.st10{fill:#4BDCA4;}
	.st11{fill:#78E4B9;}
	.st12{fill:#FFC4BD;}
	.st13{fill:#94E0FF;}
	.st14{fill:#95E0FF;}
	.st15{fill:#74E4BB;}
	.st16{fill:#F8AE98;}
	.st17{fill:#9DECCE;}
	.st18{fill:#A7BFFF;}
	.st19{fill:#F24E1E;}
	.st20{fill:#E58FB9;}
	.st21{fill:#A8BEFF;}
</style>
<line class="st0" x1="10" y1="0" x2="10" y2="1.5"/>
<line class="st1" x1="10" y1="4.5" x2="10" y2="117"/>
<line class="st0" x1="10" y1="118.5" x2="10" y2="120"/>
<line class="st0" x1="110" y1="0" x2="110" y2="1.5"/>
<line class="st1" x1="110" y1="4.5" x2="110" y2="117"/>
<line class="st0" x1="110" y1="118.5" x2="110" y2="120"/>
<line class="st0" x1="120" y1="10" x2="118.5" y2="10"/>
<line class="st1" x1="115.5" y1="10" x2="3" y2="10"/>
<line class="st0" x1="1.5" y1="10" x2="0" y2="10"/>
<line class="st0" x1="120" y1="110" x2="118.5" y2="110"/>
<line class="st1" x1="115.5" y1="110" x2="3" y2="110"/>
<line class="st0" x1="1.5" y1="110" x2="0" y2="110"/>
<rect id="_.bg" x="15.6" y="15.6" class="st2" width="88.9" height="88.9"/>
<g>
	<path class="st3" d="M76,44.7c0,0.1,0,0.1,0,0.2c0,0,0,0.1,0,0.1c0,0.2,0,0.3,0,0.5c0,0.2,0,0.4-0.1,0.7c-0.1,0.7-0.3,1.4-0.6,2.1
		c-0.5,1-1.1,1.9-2,2.6c-0.7,0.6-1.5,1.1-2.3,1.4c-0.6,0.2-1.1,0.4-1.7,0.5c-0.3,0-0.5,0.1-0.8,0.1c-0.4,0-0.9,0-1.3,0
		c0,0,0,0-0.1,0c-2.3,0-4.6,0-6.9,0c-0.1,0-0.1,0-0.2,0c0-0.1,0-0.2,0-0.3c0-5.1,0-10.3,0-15.4c0-0.1,0-0.2,0-0.2c0,0,0,0,0,0
		c0.1,0,0.2,0,0.2,0c2.6,0,5.1,0,7.7,0c0.2,0,0.3,0,0.5,0c0.2,0,0.4,0,0.5,0c0.4,0,0.8,0.1,1.2,0.2c1.5,0.4,2.8,1.2,3.8,2.4
		c0.9,1,1.5,2.2,1.8,3.5c0.1,0.4,0.2,0.8,0.2,1.1C76,44.2,76,44.4,76,44.7C76,44.6,76,44.6,76,44.7z"/>
	<path class="st4" d="M60,61.8c0,0.3,0,0.6,0,0.9c0,1.9,0,3.9,0,5.8c0,0.1,0,0.1,0,0.2c0,0-0.1,0-0.1,0c-2.7,0-5.3,0-8,0
		c-0.1,0-0.3,0-0.4,0c-0.3,0-0.6-0.1-0.9-0.1c-0.7-0.1-1.4-0.3-2.1-0.7c-0.9-0.4-1.7-1-2.4-1.7c-0.7-0.7-1.2-1.5-1.6-2.4
		c-0.3-0.8-0.5-1.7-0.6-2.5c0-0.1,0-0.2-0.1-0.3c0-0.2,0-0.4,0-0.6c0-0.1,0.1-0.2,0.1-0.3c0-0.2,0-0.4,0.1-0.7
		c0.1-0.6,0.2-1.2,0.5-1.7c0.6-1.5,1.6-2.7,2.9-3.6c1.2-0.8,2.6-1.3,4-1.4c0,0,0.1,0,0.1,0c2.7,0,5.4,0,8.2,0c0.1,0,0.1,0,0.2,0
		c0,2,0,4.1,0,6.1c0,0.3,0,0.5,0,0.8c0,0.2,0,0.3,0,0.5c0,0.1,0,0.2,0,0.3c0,0.2,0,0.3,0,0.5C60,61.3,60,61.5,60,61.8z"/>
	<path class="st5" d="M60,68.8c0,0.1,0,0.1,0,0.2c0,2.6,0,5.2,0,7.8c0,1.8-0.5,3.4-1.6,4.8c-1.2,1.6-2.8,2.6-4.7,3
		c-0.2,0.1-0.5,0.1-0.7,0.1c-0.1,0-0.1,0-0.2,0c-0.2,0-0.4,0-0.6,0c-0.2,0-0.3,0-0.5,0c-0.1,0-0.2,0-0.3,0c-0.3,0-0.7-0.1-1-0.1
		c-1.5-0.3-2.9-1-4-2.1c-1.5-1.4-2.2-3.2-2.4-5.2c0-0.1,0-0.2,0-0.2c0,0,0-0.1-0.1-0.1c0,0,0,0,0-0.1c0-0.1,0-0.1,0-0.2
		c0,0,0.1,0,0.1-0.1c0-0.1,0-0.2,0-0.3c0-0.5,0.1-1.1,0.3-1.6c0.4-1.6,1.3-2.9,2.5-4c1-0.8,2.1-1.4,3.3-1.7c0.5-0.1,0.9-0.2,1.4-0.2
		c0.2,0,0.3,0,0.5,0c2.6,0,5.2,0,7.8,0C59.9,68.7,59.9,68.8,60,68.8z"/>
	<path class="st6" d="M60,61c0-0.2,0-0.3,0-0.5c0-0.1,0-0.2,0-0.3c0-0.1,0-0.3,0-0.4c0.1-0.4,0.1-0.8,0.2-1.2c0.5-1.6,1.3-2.9,2.6-4
		c0.9-0.7,1.9-1.2,3-1.5c0.4-0.1,0.8-0.2,1.2-0.2c0.1,0,0.3,0,0.4,0c0.3,0,0.6,0,0.9,0c0,0,0,0,0.1,0c0.5,0,0.9,0.1,1.4,0.2
		c1.7,0.4,3,1.3,4.2,2.5c0.8,0.9,1.3,1.9,1.7,3.1c0.1,0.5,0.2,0.9,0.2,1.4c0,0.2,0,0.3,0,0.5c0,0,0,0.1,0,0.1c0,0.1,0,0.1,0,0.2
		c0,0,0,0.1,0,0.1c0,0.2,0,0.4,0,0.5c0,0.4-0.1,0.8-0.2,1.2c-0.3,1.3-1,2.5-1.9,3.5c-1,1.1-2.2,1.8-3.6,2.2
		c-0.5,0.1-0.9,0.2-1.4,0.3c-0.3,0-0.6,0.1-0.9,0.1c-1.9,0-3.6-0.6-5-1.8c-1.2-1-2.1-2.3-2.6-3.8c-0.1-0.4-0.2-0.9-0.3-1.3
		C60.1,61.5,60.1,61.3,60,61C60,61,60,61,60,61z"/>
	<path class="st7" d="M68.4,36.8C68.4,36.8,68.4,36.8,68.4,36.8c-0.2,0-0.3,0-0.5,0c-2.6,0-5.1,0-7.7,0c-0.1,0-0.2,0-0.2,0
		c0,0,0,0,0,0C62.8,36.8,65.6,36.8,68.4,36.8z"/>
	<path class="st8" d="M60,36.8C60,36.8,60,36.8,60,36.8C60,36.8,60,36.8,60,36.8c-0.1,0-0.2,0-0.3,0c-2.5,0-5.1,0-7.6,0
		c-0.1,0-0.2,0-0.2,0c0,0,0,0,0,0C54.6,36.8,57.3,36.8,60,36.8z"/>
	<path class="st9" d="M44,44.3C44,44.3,44,44.3,44,44.3c0.1,0.1,0.1,0.2,0,0.3c0,0.1,0,0.2,0,0.3c0,0.1,0,0.2,0,0.4c0,0,0,0-0.1,0
		C44,44.9,44,44.6,44,44.3z"/>
	<path class="st10" d="M51.7,84.7c0.2,0,0.3,0,0.5,0c0.2,0,0.4,0,0.6,0c0.1,0,0.1,0,0.2,0c-0.1,0-0.2,0-0.3,0c0,0-0.1,0-0.1,0
		C52.3,84.7,52,84.7,51.7,84.7C51.7,84.7,51.7,84.7,51.7,84.7z"/>
	<path class="st11" d="M44,76.3C44,76.3,44,76.3,44,76.3c0.1,0.1,0.1,0.2,0.1,0.3c0,0,0,0.1-0.1,0.1c0,0,0,0,0,0
		C44,76.5,44,76.4,44,76.3z"/>
	<path class="st12" d="M76,44C76,44.1,76,44.1,76,44c0,0.2,0,0.4,0,0.6c0,0,0-0.1,0-0.1C76,44.4,76,44.2,76,44z"/>
	<path class="st13" d="M76,61.5c0-0.2,0-0.4,0-0.5c0,0,0-0.1,0-0.1C76,61.1,76,61.3,76,61.5L76,61.5L76,61.5z"/>
	<path class="st12" d="M76,45.5C76,45.5,76,45.5,76,45.5c0-0.2,0-0.3,0-0.5c0,0,0-0.1,0-0.1C76,45.1,76,45.3,76,45.5z"/>
	<path class="st14" d="M76,60.1C76,60.1,76,60.1,76,60.1c0,0.2,0,0.4,0,0.6c0,0,0-0.1,0-0.1C76,60.4,76,60.2,76,60.1z"/>
	<path class="st15" d="M44.1,77.2C44,77.2,44,77.2,44.1,77.2C44,77.1,44,77,44,76.9c0,0,0.1,0,0.1,0.1C44.1,77,44.1,77.1,44.1,77.2z
		"/>
	<path class="st16" d="M51.9,36.8C51.9,36.8,51.9,36.8,51.9,36.8c-0.2,0-0.3,0-0.4,0c0,0,0,0,0,0C51.6,36.8,51.8,36.8,51.9,36.8z"/>
	<path class="st17" d="M51.7,84.7C51.7,84.7,51.7,84.7,51.7,84.7c-0.1,0-0.2,0-0.3,0c0,0,0,0,0,0C51.5,84.7,51.6,84.7,51.7,84.7z"/>
	<path class="st15" d="M44,76.6C44,76.6,44,76.6,44,76.6c0,0.1,0,0.1,0,0.2C44,76.7,44,76.7,44,76.6z"/>
	<path class="st18" d="M51.6,68.7C51.6,68.7,51.5,68.7,51.6,68.7c0.1,0,0.2,0,0.4,0c2.7,0,5.3,0,8,0c0,0,0.1,0,0.1,0c0,0,0,0,0,0
		c-0.1,0-0.1,0-0.2,0c-2.6,0-5.2,0-7.8,0C51.9,68.7,51.7,68.7,51.6,68.7z"/>
	<path class="st18" d="M60,61C60,61,60,61,60,61c0,0.3,0,0.5,0.1,0.7c0,0,0,0-0.1,0C60,61.5,60,61.3,60,61z"/>
	<path class="st19" d="M51.5,36.8c0.1,0,0.3,0,0.4,0c0.1,0,0.2,0,0.2,0c2.5,0,5.1,0,7.6,0c0.1,0,0.2,0,0.3,0c0,0.1,0,0.2,0,0.2
		c0,5.1,0,10.3,0,15.4c0,0.1,0,0.2,0,0.3c0,0,0,0,0,0c-0.1,0-0.2,0-0.2,0c-2.5,0-5.1,0-7.6,0c-0.2,0-0.4,0-0.6,0
		c-1.9-0.1-3.5-0.8-4.9-2.1c-1.2-1.1-2-2.5-2.4-4.1c-0.1-0.4-0.2-0.8-0.2-1.3c0-0.1,0-0.2,0-0.4c0-0.1,0-0.2,0-0.3
		c0-0.1,0-0.2,0-0.3c0.1-1.8,0.7-3.4,1.9-4.7c1-1.2,2.3-2.1,3.9-2.5C50.4,36.9,50.9,36.8,51.5,36.8z"/>
	<path class="st20" d="M67.2,52.8C67.1,52.8,67.1,52.8,67.2,52.8C67.1,52.7,67.1,52.7,67.2,52.8c0.4-0.1,0.9-0.1,1.3-0.1
		c0,0,0,0,0,0c-0.3,0-0.6,0-0.9,0C67.5,52.8,67.3,52.8,67.2,52.8z"/>
	<path class="st20" d="M60,52.8C60,52.8,60,52.8,60,52.8c-0.1,0-0.1,0-0.2,0c-2.7,0-5.4,0-8.2,0c0,0-0.1,0-0.1,0c0,0,0,0,0,0
		c0.2,0,0.4,0,0.6,0c2.5,0,5.1,0,7.6,0C59.9,52.7,59.9,52.8,60,52.8z"/>
	<path class="st21" d="M60,59.7C60,59.7,60.1,59.8,60,59.7c0,0.2,0,0.3,0,0.5c0,0,0,0,0,0C60,60.1,60,59.9,60,59.7z"/>
	<path class="st18" d="M60,60.2C60,60.2,60,60.2,60,60.2c0,0.1,0,0.2,0,0.3C60,60.4,60,60.3,60,60.2z"/>
</g>
</svg>
