<?xml version="1.0" encoding="utf-8"?>
<!-- Generator: Adobe Illustrator 25.0.0, SVG Export Plug-In . SVG Version: 6.00 Build 0)  -->
<svg version="1.1" id="Layer_1" xmlns="http://www.w3.org/2000/svg" xmlns:xlink="http://www.w3.org/1999/xlink" x="0px" y="0px"
	 viewBox="0 0 120 120" style="enable-background:new 0 0 120 120;" xml:space="preserve">
<style type="text/css">
	.st0{fill:none;stroke:#EE2A7B;stroke-miterlimit:10;}
	.st1{fill:none;stroke:#EE2A7B;stroke-miterlimit:10;stroke-dasharray:3,3;}
	.st2{opacity:0.32;fill:#3B0097;enable-background:new    ;}
	.st3{fill:#EE2A7B;}
</style>
<line class="st0" x1="10" y1="0" x2="10" y2="1.5"/>
<line class="st1" x1="10" y1="4.5" x2="10" y2="117"/>
<line class="st0" x1="10" y1="118.5" x2="10" y2="120"/>
<line class="st0" x1="110" y1="0" x2="110" y2="1.5"/>
<line class="st1" x1="110" y1="4.5" x2="110" y2="117"/>
<line class="st0" x1="110" y1="118.5" x2="110" y2="120"/>
<line class="st0" x1="120" y1="10" x2="118.5" y2="10"/>
<line class="st1" x1="115.5" y1="10" x2="3" y2="10"/>
<line class="st0" x1="1.5" y1="10" x2="0" y2="10"/>
<line class="st0" x1="120" y1="110" x2="118.5" y2="110"/>
<line class="st1" x1="115.5" y1="110" x2="3" y2="110"/>
<line class="st0" x1="1.5" y1="110" x2="0" y2="110"/>
<rect id="_.bg" x="15.6" y="15.6" class="st2" width="88.9" height="88.9"/>
<g>
	<path class="st3" d="M75.3,40.5H44.8c-2.4,0-4.3,2-4.3,4.3v30.4c0,2.4,2,4.3,4.3,4.3h30.4c2.4,0,4.3-2,4.3-4.3V44.8
		C79.6,42.5,77.6,40.5,75.3,40.5z M51.4,70.9L51.4,70.9c-1.2,0-2.2-1-2.2-2.2v-6.5c0-1.2,1-2.2,2.2-2.2s2.2,1,2.2,2.2v6.5
		C53.5,69.9,52.6,70.9,51.4,70.9z M60,70.9L60,70.9c-1.2,0-2.2-1-2.2-2.2v-2.2c0-1.2,1-2.2,2.2-2.2s2.2,1,2.2,2.2v2.2
		C62.2,69.9,61.2,70.9,60,70.9z M60,60c-1.2,0-2.2-1-2.2-2.2c0-1.2,1-2.2,2.2-2.2s2.2,1,2.2,2.2C62.2,59.1,61.2,60,60,60z
		 M68.7,70.9L68.7,70.9c-1.2,0-2.2-1-2.2-2.2V51.4c0-1.2,1-2.2,2.2-2.2c1.2,0,2.2,1,2.2,2.2v17.4C70.9,69.9,69.9,70.9,68.7,70.9z"/>
</g>
</svg>
