<?xml version="1.0" encoding="utf-8"?>
<!-- Generator: Adobe Illustrator 25.0.0, SVG Export Plug-In . SVG Version: 6.00 Build 0)  -->
<svg version="1.1" id="Layer_1" xmlns="http://www.w3.org/2000/svg" xmlns:xlink="http://www.w3.org/1999/xlink" x="0px" y="0px"
	 viewBox="0 0 120 120" style="enable-background:new 0 0 120 120;" xml:space="preserve">
<style type="text/css">
	.st0{fill:none;stroke:#EE2A7B;stroke-miterlimit:10;}
	.st1{fill:none;stroke:#EE2A7B;stroke-miterlimit:10;stroke-dasharray:3,3;}
	.st2{opacity:0.32;fill:#3B0097;enable-background:new    ;}
	.st3{fill:#EE2A7B;}
</style>
<line class="st0" x1="10" y1="0" x2="10" y2="1.5"/>
<line class="st1" x1="10" y1="4.5" x2="10" y2="117"/>
<line class="st0" x1="10" y1="118.5" x2="10" y2="120"/>
<line class="st0" x1="110" y1="0" x2="110" y2="1.5"/>
<line class="st1" x1="110" y1="4.5" x2="110" y2="117"/>
<line class="st0" x1="110" y1="118.5" x2="110" y2="120"/>
<line class="st0" x1="120" y1="10" x2="118.5" y2="10"/>
<line class="st1" x1="115.5" y1="10" x2="3" y2="10"/>
<line class="st0" x1="1.5" y1="10" x2="0" y2="10"/>
<line class="st0" x1="120" y1="110" x2="118.5" y2="110"/>
<line class="st1" x1="115.5" y1="110" x2="3" y2="110"/>
<line class="st0" x1="1.5" y1="110" x2="0" y2="110"/>
<rect id="_.bg" x="15.6" y="15.6" class="st2" width="88.9" height="88.9"/>
<g>
	<path class="st3" d="M88.6,57.3l-3-0.5c-0.3-1.3-0.9-2.5-1.5-3.6l1.8-2.5c0.3-0.4,0.3-1-0.1-1.4l-2.2-2.2c-0.4-0.4-1-0.4-1.4-0.1
		L79.6,49c-1.1-0.6-2.2-1.1-3.5-1.4l-0.5-3.2c-0.1-0.5-0.5-0.9-1.1-0.9h-3.2c-0.5,0-1,0.4-1.1,0.9l-0.5,3.2
		c-1.2,0.3-2.4,0.8-3.5,1.4l-2.5-1.9c-0.4-0.3-1-0.3-1.4,0.1l-2.2,2.2c-0.4,0.4-0.4,1-0.1,1.4l1.8,2.4c-0.7,1.1-1.2,2.3-1.6,3.6
		l-2.9,0.4c-0.5,0.1-0.9,0.5-0.9,1.1v3.2c0,0.5,0.4,1,0.9,1.1l2.8,0.4c0.3,1.4,0.8,2.7,1.5,3.9l-1.6,2.2c-0.3,0.4-0.3,1,0.1,1.4
		l2.2,2.2c0.4,0.4,1,0.4,1.4,0.1l2.1-1.6c1.2,0.8,2.5,1.3,4,1.7l0.4,2.6c0.1,0.5,0.5,0.9,1.1,0.9h3.2c0.5,0,1-0.4,1.1-0.9L76,73
		c1.4-0.3,2.7-0.9,3.9-1.7l2.2,1.6c0.4,0.3,1,0.3,1.4-0.1l2.2-2.2c0.4-0.4,0.4-1,0.1-1.4l-1.7-2.3c0.7-1.2,1.2-2.4,1.5-3.8l2.9-0.4
		c0.5-0.1,0.9-0.5,0.9-1.1v-3.2C89.5,57.9,89.1,57.4,88.6,57.3z M67.8,60.2c0-2.8,2.3-5.2,5.2-5.2c2.8,0,5.2,2.3,5.2,5.2
		c0,2.8-2.3,5.2-5.2,5.2C70.1,65.4,67.8,63.1,67.8,60.2z"/>
	<path class="st3" d="M57.1,43.1L55,43.4c-0.5-0.8-1.1-1.5-1.7-2.1l0.8-2.1c0.1-0.4,0-0.7-0.3-0.9l-1.9-1.1c-0.3-0.2-0.7-0.1-1,0.2
		l-1.4,1.8c-0.8-0.2-1.7-0.3-2.6-0.3l-0.9-2c-0.2-0.3-0.5-0.5-0.9-0.4l-2.1,0.6c-0.4,0.1-0.6,0.5-0.5,0.8l0.3,2.2
		c-0.8,0.4-1.5,1-2.1,1.6l-2.1-0.8c-0.4-0.1-0.7,0-0.9,0.3l-1.1,1.9c-0.2,0.3-0.1,0.7,0.2,1l1.7,1.3c-0.3,0.9-0.4,1.8-0.4,2.8
		L36,49.3c-0.3,0.2-0.5,0.5-0.4,0.9l0.6,2.1c0.1,0.4,0.5,0.6,0.8,0.5l2-0.3c0.5,0.9,1.1,1.7,1.8,2.3l-0.7,1.8
		c-0.1,0.4,0,0.7,0.3,0.9l1.9,1.1c0.3,0.2,0.7,0.1,1-0.2l1.1-1.5c1,0.3,2,0.4,3,0.3l0.8,1.7c0.2,0.3,0.5,0.5,0.9,0.4l2.1-0.6
		c0.4-0.1,0.6-0.5,0.5-0.8l-0.2-1.9c0.9-0.5,1.7-1.2,2.3-1.9l1.8,0.7c0.4,0.1,0.7,0,0.9-0.3l1.1-1.9c0.2-0.3,0.1-0.7-0.2-1L56,50.4
		c0.2-0.9,0.3-1.9,0.3-2.9l1.8-0.9c0.3-0.2,0.5-0.5,0.4-0.9l-0.6-2.1C57.8,43.3,57.5,43.1,57.1,43.1z M43.6,49.2
		c-0.6-1.9,0.5-3.9,2.5-4.5c1.9-0.6,3.9,0.5,4.5,2.5c0.6,1.9-0.5,3.9-2.5,4.5C46.2,52.2,44.2,51.1,43.6,49.2z"/>
	<path class="st3" d="M58.6,72.3l-2.4-0.6c-0.2-1-0.5-2-1-3l1.7-1.9c0.3-0.3,0.3-0.8,0-1.1l-1.6-1.9c-0.3-0.3-0.8-0.4-1.1-0.2
		l-2.2,1.3c-0.8-0.6-1.7-1-2.7-1.4L49.1,61c0-0.4-0.4-0.8-0.8-0.8l-2.5-0.2c-0.4,0-0.8,0.2-0.9,0.7l-0.6,2.5c-1,0.2-2,0.5-2.9,0.9
		l-1.9-1.7c-0.3-0.3-0.8-0.3-1.1,0l-1.9,1.6c-0.3,0.3-0.4,0.8-0.2,1.1l1.3,2.1c-0.6,0.8-1.2,1.8-1.5,2.8L33.6,70
		c-0.4,0-0.8,0.4-0.8,0.8l-0.2,2.5c0,0.4,0.2,0.8,0.7,0.9l2.2,0.5c0.1,1.1,0.5,2.2,1,3.2l-1.5,1.7c-0.3,0.3-0.3,0.8,0,1.1l1.6,1.9
		c0.3,0.3,0.8,0.4,1.1,0.2l1.8-1.1c0.9,0.7,1.9,1.2,3.1,1.6l0.1,2.1c0,0.4,0.4,0.8,0.8,0.8l2.5,0.2c0.4,0,0.8-0.2,0.9-0.7l0.5-2.1
		c1.2-0.2,2.3-0.5,3.3-1.1l1.6,1.4c0.3,0.3,0.8,0.3,1.1,0l1.9-1.6c0.3-0.3,0.4-0.8,0.2-1.1l-1.2-1.9c0.6-0.9,1.1-1.9,1.5-2.9
		l2.3-0.1c0.4,0,0.8-0.4,0.8-0.8l0.2-2.5C59.3,72.7,59,72.4,58.6,72.3z M41.7,73.1c0.2-2.3,2.2-4,4.5-3.7c2.3,0.2,4,2.2,3.7,4.5
		c-0.2,2.3-2.2,4-4.5,3.7C43.2,77.4,41.5,75.4,41.7,73.1z"/>
</g>
</svg>
