<?xml version="1.0" encoding="utf-8"?>
<!-- Generator: Adobe Illustrator 25.0.0, SVG Export Plug-In . SVG Version: 6.00 Build 0)  -->
<svg version="1.1" id="Layer_1" xmlns="http://www.w3.org/2000/svg" xmlns:xlink="http://www.w3.org/1999/xlink" x="0px" y="0px"
	 viewBox="0 0 103 25" style="enable-background:new 0 0 103 25;" xml:space="preserve">
<style type="text/css">
	.st0{filter:url(#Adobe_OpacityMaskFilter);}
	.st1{fill-rule:evenodd;clip-rule:evenodd;fill:#FFFFFF;}
	.st2{mask:url(#mask-2_1_);fill-rule:evenodd;clip-rule:evenodd;fill:#FFFFFF;}
	.st3{fill-rule:evenodd;clip-rule:evenodd;fill:#43B1FE;}
	.st4{filter:url(#Adobe_OpacityMaskFilter_1_);}
	.st5{mask:url(#mask-4_1_);fill-rule:evenodd;clip-rule:evenodd;fill:#FFFFFF;}
</style>
<desc>Created with Sketch.</desc>
<g id="Group-3">
	<g id="Clip-2">
	</g>
	<defs>
		<filter id="Adobe_OpacityMaskFilter" filterUnits="userSpaceOnUse" x="0" y="0.7" width="24.2" height="24.2">
			<feColorMatrix  type="matrix" values="1 0 0 0 0  0 1 0 0 0  0 0 1 0 0  0 0 0 1 0"/>
		</filter>
	</defs>
	<mask maskUnits="userSpaceOnUse" x="0" y="0.7" width="24.2" height="24.2" id="mask-2_1_">
		<g class="st0">
			<polygon id="path-1_1_" class="st1" points="0,0.7 24.2,0.7 24.2,24.8 0,24.8 			"/>
		</g>
	</mask>
	<path id="Fill-1" class="st2" d="M24.2,12.7c0-6.7-5.4-12.1-12.1-12.1C5.4,0.7,0,6.1,0,12.7c0,6.7,5.4,12.1,12.1,12.1
		C18.8,24.8,24.2,19.4,24.2,12.7"/>
</g>
<path id="Fill-4" class="st3" d="M17,9v7.6c0,0.4-0.2,0.7-0.6,0.7H7.8c-0.4,0-0.6-0.3-0.6-0.7V9c0-0.5,0.3-0.9,0.8-0.9
	c0.3,0,0.6,0.2,0.8,0.5l3.2,5.2l3.2-5.2c0.2-0.3,0.5-0.5,0.8-0.5C16.7,8.2,17,8.5,17,9"/>
<path id="Fill-6" class="st1" d="M52.5,19.6c0,0.8-0.4,1.2-1.1,1.2c-0.7,0-1.1-0.4-1.1-1.2V8.7h0L45,17c-0.3,0.4-0.7,0.7-1.1,0.7
	c-0.4,0-0.8-0.2-1.1-0.6l-5.3-8.4h0v11c0,0.7-0.4,1.2-1.1,1.2s-1.1-0.4-1.1-1.2V6.2c0-0.9,0.5-1.5,1.5-1.5c0.6,0,1.1,0.3,1.4,0.9
	l5.7,9.2l5.7-9.2C50,5,50.5,4.7,51.1,4.7c0.9,0,1.4,0.6,1.4,1.5V19.6z"/>
<path id="Fill-8" class="st1" d="M57.2,14h7.6c-0.4-1.8-1.8-3-3.8-3S57.7,12.2,57.2,14z M66.8,14.5c0,0.8-0.5,1.3-1.3,1.3h-8.3
	c0.3,1.9,1.8,3.2,3.9,3.2c1.4,0,2.5-0.5,3.2-1.3c0.2-0.2,0.5-0.4,0.8-0.4c0.6,0,1,0.4,1,1c0,0.2-0.1,0.4-0.2,0.6
	c-1.1,1.3-2.7,2.1-4.7,2.1c-3.7,0-6.1-2.4-6.1-5.9c0-3.5,2.4-5.9,6-5.9C64.4,9.1,66.8,11.4,66.8,14.5L66.8,14.5z"/>
<path id="Fill-10" class="st1" d="M76.8,18.9c-0.7,1.4-2,2.1-3.8,2.1c-2.6,0-4.3-1.7-4.3-4.5V6.6c0-0.7,0.4-1.1,1-1.1
	c0.6,0,1,0.4,1,1.1v2.7h4.5c0.6,0,1,0.4,1,1c0,0.6-0.4,0.9-1,0.9h-4.5v5.2c0,1.6,0.9,2.5,2.3,2.5c1,0,1.6-0.4,2.1-1.2
	c0.2-0.2,0.4-0.4,0.8-0.4c0.5,0,0.9,0.4,0.9,1C76.9,18.6,76.8,18.7,76.8,18.9"/>
<path id="Fill-12" class="st1" d="M85.7,10.2c0,0.6-0.4,1-1,1c-2.5,0-3.9,1.4-3.9,4.5v4c0,0.7-0.4,1.1-1,1.1c-0.6,0-1-0.4-1-1.1
	v-9.3c0-0.7,0.4-1.1,1-1.1c0.7,0,1,0.4,1,1.1v0.8h0c0.8-1.3,2.1-2,3.8-2C85.2,9.1,85.7,9.5,85.7,10.2"/>
<path id="Fill-14" class="st1" d="M89.4,10.4v9.3c0,0.7-0.4,1.1-1,1.1c-0.6,0-1-0.4-1-1.1v-9.3c0-0.7,0.4-1.1,1-1.1
	C89,9.2,89.4,9.6,89.4,10.4 M87.1,5.8c0-0.8,0.5-1.3,1.3-1.3c0.8,0,1.3,0.5,1.3,1.3c0,0.8-0.5,1.3-1.3,1.3
	C87.6,7.1,87.1,6.6,87.1,5.8"/>
<defs>
	<filter id="Adobe_OpacityMaskFilter_1_" filterUnits="userSpaceOnUse" x="91.6" y="9.2" width="11" height="11.6">
		<feColorMatrix  type="matrix" values="1 0 0 0 0  0 1 0 0 0  0 0 1 0 0  0 0 0 1 0"/>
	</filter>
</defs>
<mask maskUnits="userSpaceOnUse" x="91.6" y="9.2" width="11" height="11.6" id="mask-4_1_">
	<g class="st4">
		<polygon id="path-3_1_" class="st1" points="91.6,9.2 102.5,9.2 102.5,20.8 91.6,20.8 		"/>
	</g>
</mask>
<path id="Fill-16" class="st5" d="M102.2,18.9c0.2,0.3,0.4,0.5,0.4,0.8c0,0.6-0.4,1-1.1,1c-0.4,0-0.6-0.1-0.8-0.4L97,16.2l-3.6,4.2
	c-0.3,0.3-0.5,0.4-0.9,0.4c-0.6,0-1-0.4-1-1c0-0.3,0.1-0.5,0.3-0.8l3.8-4L92,11.1c-0.2-0.3-0.4-0.5-0.4-0.8c0-0.6,0.4-1,1.1-1
	c0.4,0,0.6,0.1,0.8,0.4l3.5,4l3.5-4c0.3-0.3,0.5-0.4,0.9-0.4c0.6,0,1,0.4,1,1c0,0.3-0.1,0.5-0.3,0.8l-3.7,3.9L102.2,18.9z"/>
</svg>
