<svg id="Layer_1" data-name="Layer 1" xmlns="http://www.w3.org/2000/svg" xmlns:xlink="http://www.w3.org/1999/xlink" viewBox="0 0 738.27 327.79"><defs><style>.cls-1,.cls-4{fill:#fff;}.cls-1,.cls-7{fill-rule:evenodd;}.cls-2{fill:#e601a2;}.cls-3{fill:#5400d5;}.cls-5{fill:#d8dff0;}.cls-6{mask:url(#mask);}.cls-7{fill:#43b1fe;}</style><mask id="mask" x="343.74" y="114.99" width="78.37" height="78.37" maskUnits="userSpaceOnUse"><g id="mask-2"><polygon id="path-1" class="cls-1" points="343.74 115 422.11 115 422.11 193.36 343.74 193.36 343.74 115"/></g></mask></defs><path class="cls-2" d="M370.48,61.66,343.3,40.3l31-24.37A138.43,138.43,0,0,0,245.1,149.24v9.88a137.7,137.7,0,0,0,27.65,78.08h68.36a93.46,93.46,0,0,1-50.85-78.08v-9.88A93.45,93.45,0,0,1,370.48,61.66Z"/><path class="cls-2" d="M576.93,310.61V292.35H436.68a148,148,0,0,0,53.68-35.79c2.93-3.05,5.7-6.2,8.34-9.46h78.23V230l51.27,40.3Z"/><path class="cls-3" d="M410.55,17.92V0L359.28,40.3l51.27,40.3V64.72a93.49,93.49,0,0,1,65.94,84.52l0,9.88a93.45,93.45,0,0,1-66.81,84.32,92.15,92.15,0,0,1-26,3.57l-109.19.09L304,270.31l-29.53,21.9H389.58a138.39,138.39,0,0,0,132-133.09l0-9.88C519.53,83.69,473,29.67,410.55,17.92Z"/><polygon class="cls-4" points="286.99 270.31 235.72 230.01 235.72 247.1 138.55 247.1 138.55 292.34 235.64 292.34 235.72 292.34 235.72 310.61 286.99 270.31"/><path class="cls-5" d="M310.29,58.21a2,2,0,0,0-1.17.38L287,40.23a8,8,0,0,0-5.11-1.84H221.54a.5.5,0,0,0,0,1h60a8,8,0,0,1,5.11,1.84l21.88,18.14a2,2,0,0,0-.19.84,2,2,0,1,0,2-2Z"/><path class="cls-5" d="M598.42,155.7H532a8,8,0,0,0-5.1,1.84l-30.83,25.54a2,2,0,0,0-1.16-.38,2,2,0,1,0,2,2,2,2,0,0,0-.2-.85l30.55-25.31a8,8,0,0,1,5.1-1.84h66.06a.5.5,0,0,0,0-1Z"/><path class="cls-5" d="M537.92,62.21H504.61a8,8,0,0,0-5.1,1.84L477.35,82.42a2,2,0,0,0-1.17-.39A2,2,0,1,0,478,83.19l21.88-18.14A8,8,0,0,1,505,63.21h32.94a.5.5,0,0,0,.5-.5A.5.5,0,0,0,537.92,62.21Z"/><g class="cls-6"><path id="Fill-1" class="cls-1" d="M422.11,154.18a39.19,39.19,0,1,0-39.19,39.18,39.2,39.2,0,0,0,39.19-39.18"/></g><path id="Fill-4" class="cls-7" d="M398.72,142.1v24.68a2,2,0,0,1-2,2.22H369.17a2,2,0,0,1-2.05-2.18V142.18a2.59,2.59,0,0,1,2.7-2.82,3.05,3.05,0,0,1,2.65,1.65L383,157.92l10.43-16.87a3.21,3.21,0,0,1,2.74-1.69,2.49,2.49,0,0,1,2.56,2.74"/><path class="cls-4" d="M15,314.19a1.84,1.84,0,0,1,.49,1.16,1.58,1.58,0,0,1-1.76,1.59H10.67a2.07,2.07,0,0,1-1.42-.45,1.76,1.76,0,0,1-.66-1.3.75.75,0,0,1,.74-.84.67.67,0,0,1,.66.71c0,.42.23.48.62.48h3c.11,0,.46,0,.46-.17s-.19-.32-.25-.41l-4.81-6.18a1.66,1.66,0,0,1-.46-1.14,1.58,1.58,0,0,1,.74-1.35A1.92,1.92,0,0,1,10.5,306h3a2,2,0,0,1,1.38.46,1.88,1.88,0,0,1,.66,1.33.71.71,0,0,1-.73.81.61.61,0,0,1-.67-.65c0-.48-.24-.55-.67-.55h-3c-.15,0-.48,0-.48.2s.16.29.21.37Z"/><path class="cls-4" d="M18.84,311.89a1.82,1.82,0,0,1,.85-1.75,2.43,2.43,0,0,1,1.91-.75h1.06a2.43,2.43,0,0,1,1.91.75,1.82,1.82,0,0,1,.85,1.75v2.54a2,2,0,0,1-.92,1.81,2.27,2.27,0,0,1-1.84.7H21.6a2.29,2.29,0,0,1-1.84-.7,2,2,0,0,1-.92-1.81Zm1.35,2.54c0,.28.09.46.49.8a1.21,1.21,0,0,0,.92.36h1.06a1.25,1.25,0,0,0,.93-.36c.39-.34.49-.52.49-.8v-2.54c0-.28-.1-.46-.49-.79a1.22,1.22,0,0,0-.93-.37H21.6a1.19,1.19,0,0,0-.92.37c-.4.33-.49.51-.49.79Z"/><path class="cls-4" d="M32.88,311.64V316c0,.46-.09.93-.67.93s-.67-.47-.67-.93v-4.49c0-.23,0-.65-.32-.65-.16,0-.25.13-.37.23l-.58.54V316c0,.46-.1.93-.68.93s-.67-.47-.67-.93v-5.67c0-.48.13-.95.7-.95a.66.66,0,0,1,.65.53l.11-.08a1.43,1.43,0,0,1,2.25.22l.11-.11a1.34,1.34,0,0,1,1.18-.56,1.37,1.37,0,0,1,1.12.54,2,2,0,0,1,.32,1.35l.14,4.65c0,.47,0,1-.65,1s-.66-.47-.68-.91L34,311.59c0-.24.06-.72-.3-.72-.2,0-.45.34-.57.46Z"/><path class="cls-4" d="M41.47,316.94a1.42,1.42,0,0,1-1.21-.37l-.57-.5a1.67,1.67,0,0,1-.69-1.51V312a1.78,1.78,0,0,1,.66-1.61l.47-.4a1.81,1.81,0,0,1,1.49-.56h1.23a1.94,1.94,0,0,1,1.49.49l.54.43a1.9,1.9,0,0,1,.7,1.75v1.08c0,.77-.12,1-.92,1H40.34v.44a.67.67,0,0,0,.2.4l.34.36c.18.2.45.25.89.25h2.89c.45,0,.92.1.92.67s-.53.68-.92.68Zm-1.13-4.15h3.9V312a.76.76,0,0,0-.17-.63l-.52-.45a1,1,0,0,0-.64-.17H41.77a1,1,0,0,0-.68.16l-.47.33a.64.64,0,0,0-.28.62Z"/><path class="cls-4" d="M59.16,312.51a1.87,1.87,0,0,1,.8-1.76l1-.83a2.14,2.14,0,0,1,1.74-.53h2.13c.45,0,.92.09.92.67s-.53.67-.92.67H62.45a1.27,1.27,0,0,0-.77.34l-.81.68c-.21.17-.37.31-.37.58V314c0,.26.16.4.37.57l.81.69a1.31,1.31,0,0,0,.77.33h2.37c.39,0,.92.09.92.67s-.47.68-.92.68H62.69A2.15,2.15,0,0,1,61,316.4l-1-.82a1.89,1.89,0,0,1-.8-1.77Z"/><path class="cls-4" d="M69.24,311.89a1.82,1.82,0,0,1,.85-1.75,2.43,2.43,0,0,1,1.91-.75h1.06a2.43,2.43,0,0,1,1.91.75,1.82,1.82,0,0,1,.85,1.75v2.54a2,2,0,0,1-.92,1.81,2.27,2.27,0,0,1-1.84.7H72a2.27,2.27,0,0,1-1.84-.7,2,2,0,0,1-.92-1.81Zm1.34,2.54c0,.28.1.46.49.8a1.25,1.25,0,0,0,.93.36h1.06a1.25,1.25,0,0,0,.93-.36c.39-.34.49-.52.49-.8v-2.54c0-.28-.1-.46-.49-.79a1.22,1.22,0,0,0-.93-.37H72a1.22,1.22,0,0,0-.93.37c-.39.33-.49.51-.49.79Z"/><path class="cls-4" d="M79.32,311.89a1.82,1.82,0,0,1,.85-1.75,2.43,2.43,0,0,1,1.91-.75h1.06a2.43,2.43,0,0,1,1.91.75,1.82,1.82,0,0,1,.85,1.75v2.54a2,2,0,0,1-.92,1.81,2.27,2.27,0,0,1-1.84.7H82.08a2.27,2.27,0,0,1-1.84-.7,2,2,0,0,1-.92-1.81Zm1.34,2.54c0,.28.1.46.49.8a1.25,1.25,0,0,0,.93.36h1.06a1.25,1.25,0,0,0,.93-.36c.39-.34.49-.52.49-.8v-2.54c0-.28-.1-.46-.49-.79a1.22,1.22,0,0,0-.93-.37H82.08a1.22,1.22,0,0,0-.93.37c-.39.33-.49.51-.49.79Z"/><path class="cls-4" d="M93.39,315.59h1c.45,0,.92.1.92.67s-.53.68-.92.68H91c-.39,0-.92-.09-.92-.68s.47-.67.92-.67h1.07V308H91c-.39,0-.92-.09-.92-.67s.47-.68.92-.68H92.4c.77,0,1,.14,1,.94Z"/><path class="cls-4" d="M113.55,315.59h1c.45,0,.92.1.92.67s-.53.68-.92.68h-3.42c-.39,0-.92-.09-.92-.68s.47-.67.92-.67h1.07v-4.86h-1.07c-.39,0-.92-.08-.92-.67s.47-.67.92-.67h1.42c.77,0,1,.14,1,.94Zm-2-8.92a.56.56,0,0,1,.63-.63h.77a.56.56,0,0,1,.63.63v.64a.56.56,0,0,1-.63.63h-.77a.56.56,0,0,1-.63-.63Z"/><path class="cls-4" d="M123.32,309.39a1.92,1.92,0,0,1,1.33.74l.23.24v-2.83c0-.46.1-.93.67-.93s.67.47.67.93V316c0,.46-.1.94-.67.94s-.67-.45-.67-.9V316l-.3.29a2.15,2.15,0,0,1-1.29.69H122a2.07,2.07,0,0,1-1.15-.48l-.46-.39a1.75,1.75,0,0,1-.74-1.56v-2.7a1.73,1.73,0,0,1,.74-1.55l.46-.4a1.7,1.7,0,0,1,1.29-.47ZM121,314c0,.38,0,.86.21,1l.41.33a.9.9,0,0,0,.5.26h1a1.13,1.13,0,0,0,.65-.33l.78-.66c.19-.17.39-.34.39-.59v-1.7c0-.25-.2-.42-.39-.58l-.78-.66a1.1,1.1,0,0,0-.65-.34h-1a.92.92,0,0,0-.5.27l-.41.32c-.21.17-.21.64-.21,1Z"/><path class="cls-4" d="M132.18,316.94a1.41,1.41,0,0,1-1.2-.37l-.58-.5a1.68,1.68,0,0,1-.68-1.51V312a1.78,1.78,0,0,1,.66-1.61l.47-.4a1.8,1.8,0,0,1,1.49-.56h1.23a1.94,1.94,0,0,1,1.49.49l.54.43a1.9,1.9,0,0,1,.7,1.75v1.08c0,.77-.12,1-.92,1h-4.32v.44a.67.67,0,0,0,.2.4l.34.36c.18.2.44.25.89.25h2.89c.45,0,.92.1.92.67s-.53.68-.92.68Zm-1.12-4.15H135V312a.76.76,0,0,0-.17-.63l-.52-.45a1,1,0,0,0-.64-.17h-1.14a1,1,0,0,0-.68.16l-.47.33a.62.62,0,0,0-.28.62Z"/><path class="cls-4" d="M142.05,310.73c-.39,0-.92-.08-.92-.67s.48-.67.92-.67h1.85a2.13,2.13,0,0,1,1.74.6,1.92,1.92,0,0,1,.6,1.6l.14,4.56a.67.67,0,0,1-.63.79.7.7,0,0,1-.69-.68l-.92.48a1.2,1.2,0,0,1-.83.2H142a2.09,2.09,0,0,1-1.53-.48,1.87,1.87,0,0,1-.7-1.65v-.59a1.75,1.75,0,0,1,.66-1.5,2.18,2.18,0,0,1,1.57-.5h2.88v-.31c0-1-.22-1.18-1.19-1.18Zm0,2.83c-.36,0-.9.1-.9.59v.9c0,.44.55.54.87.54h1.49l1.48-.77v-.29c0-.74-.21-1-.95-1Z"/><path class="cls-4" d="M152.18,310.73c-.28,0-.76-.05-.76.38,0,.22.17.31.36.39l3.36,1.53a1.91,1.91,0,0,1,1.32,1.9,1.94,1.94,0,0,1-2.21,2h-2.07a2.44,2.44,0,0,1-1.69-.42c-.25-.2-.61-.45-.61-.79a.68.68,0,0,1,.7-.67.66.66,0,0,1,.52.24,1.42,1.42,0,0,0,1.08.29H154c.47,0,1.12,0,1.12-.74,0-.32-.4-.53-.7-.67l-3.17-1.45a1.65,1.65,0,0,1-1.18-1.63,1.71,1.71,0,0,1,1.85-1.71h2.3a1.93,1.93,0,0,1,1.55.46c.26.21.54.38.54.76a.69.69,0,0,1-.69.67.71.71,0,0,1-.57-.28,1,1,0,0,0-.83-.27Z"/><path class="cls-4" d="M541.38,315.44h-.52c-.46,0-.85-.17-.85-.7s.37-.7.81-.7h2.34a2.1,2.1,0,0,1,2.11,1.4l1.24,2.46a3.23,3.23,0,0,1,0,3.17l-1.28,2.55a2.13,2.13,0,0,1-2.21,1.32h-2.32a.7.7,0,1,1,0-1.4h.67Zm1.4,8.1h.27c.58,0,.72-.07,1-.59l1.23-2.5a2,2,0,0,0,.26-.91,2.35,2.35,0,0,0-.35-1.15L544,316c-.29-.6-.42-.59-1.06-.59h-.17Z"/><path class="cls-4" d="M552.72,324.94a1.43,1.43,0,0,1-1.21-.37l-.57-.5a1.69,1.69,0,0,1-.69-1.51V320a1.78,1.78,0,0,1,.66-1.61l.48-.4a1.79,1.79,0,0,1,1.48-.56h1.24a1.93,1.93,0,0,1,1.48.49l.55.43a1.92,1.92,0,0,1,.7,1.75v1.08c0,.77-.13,1-.93,1H551.6v.44a.71.71,0,0,0,.19.4l.34.36c.18.2.45.25.9.25h2.88c.45,0,.93.1.93.67s-.53.68-.93.68Zm-1.12-4.15h3.89V320c0-.25,0-.46-.17-.63l-.51-.45a1,1,0,0,0-.65-.17H553a1,1,0,0,0-.69.16l-.46.33a.62.62,0,0,0-.28.62Z"/><path class="cls-4" d="M562.63,318.73c-.28,0-.76-.05-.76.38,0,.22.17.31.37.39L565.6,321a1.91,1.91,0,0,1,1.32,1.9,2,2,0,0,1-2.22,2h-2.07a2.42,2.42,0,0,1-1.68-.42c-.25-.2-.62-.45-.62-.79a.69.69,0,0,1,.7-.67.64.64,0,0,1,.52.24,1.45,1.45,0,0,0,1.08.29h1.82c.48,0,1.12,0,1.12-.74,0-.32-.39-.53-.7-.67l-3.16-1.45a1.64,1.64,0,0,1-1.18-1.63,1.71,1.71,0,0,1,1.85-1.71h2.3a1.93,1.93,0,0,1,1.55.46c.25.21.53.38.53.76a.69.69,0,0,1-.68.67.72.72,0,0,1-.58-.28,1,1,0,0,0-.82-.27Z"/><path class="cls-4" d="M574.41,323.59h1c.45,0,.93.1.93.67s-.53.68-.93.68H572c-.4,0-.93-.09-.93-.68s.48-.67.93-.67h1.06v-4.86H572c-.4,0-.93-.08-.93-.67s.48-.67.93-.67h1.41c.77,0,1,.14,1,.94Zm-2-8.92A.56.56,0,0,1,573,314h.77a.56.56,0,0,1,.64.63v.64a.56.56,0,0,1-.64.63H573a.56.56,0,0,1-.63-.63Z"/><path class="cls-4" d="M580.49,319.89a1.9,1.9,0,0,1,.47-1.41l1-.77a1.17,1.17,0,0,1,.84-.32h1.3a2.48,2.48,0,0,1,1.32.67l.33.27v-.16a.7.7,0,0,1,.69-.78c.59,0,.66.49.66.94v6.56c0,1.22-.1,1.48-.66,1.95l-.45.38a2.12,2.12,0,0,1-1.68.57h-2.23c-.39,0-.92-.08-.92-.67s.47-.67.92-.67h2.47a1,1,0,0,0,.67-.31l.34-.31a.8.8,0,0,0,.19-.56v-1.85l-.28.28a1.9,1.9,0,0,1-1.1.66h-1.59a1.39,1.39,0,0,1-1-.4l-.84-.76a1.45,1.45,0,0,1-.42-1.26Zm1.35,1.85c0,.28,0,.58.17.7l.56.45a.53.53,0,0,0,.39.13h1c.17,0,.36-.14.62-.35l1-.86a.59.59,0,0,0,.14-.45v-1a.58.58,0,0,0-.14-.44l-1-.86c-.26-.21-.45-.35-.62-.35h-1a.53.53,0,0,0-.39.13l-.56.45c-.16.12-.17.42-.17.7Z"/><path class="cls-4" d="M591.92,320.1V324c0,.46-.1.93-.67.93s-.68-.47-.68-.93v-5.63c0-.49.06-1,.68-1s.67.5.67,1v.18l1.09-.71a2.17,2.17,0,0,1,1.16-.45h1a1.67,1.67,0,0,1,1.24.49c.61.51.58,1.09.61,1.82l.14,4.23c0,.47-.06,1-.66,1s-.66-.47-.67-.91l-.14-4.15c0-.83-.1-1.15-.92-1.15h-.44a.76.76,0,0,0-.42.13Z"/><path class="cls-4" d="M616.56,323l.31.32c.21.21.61.61.61.94a.66.66,0,0,1-.67.7.79.79,0,0,1-.59-.31l-.71-.74-.88.74a.93.93,0,0,1-.8.31h-1.28a1.83,1.83,0,0,1-2-2v-.89c0-.49,0-.54.4-.88l1.13-1-1.32-1.42a.76.76,0,0,1-.21-.66v-1a1.85,1.85,0,0,1,2-1.93h1.55a1.85,1.85,0,0,1,2,1.93v1c0,.54-.09.56-.49.91l-1.5,1.29,1.5,1.59.26-.23c.24-.19.56-.55.9-.55a.73.73,0,0,1,.71.73.85.85,0,0,1-.36.61Zm-1.86-5v-.49c0-.6.08-.88-.62-.88h-1.55c-.66,0-.56.34-.56.88V318l1.19,1.32ZM613,321.24l-1.07.95V323c0,.35-.07.56.67.56h1.13l.79-.68Z"/><path class="cls-4" d="M632.1,315.44h-.52c-.46,0-.86-.17-.86-.7s.38-.7.82-.7h2.34a2.1,2.1,0,0,1,2.11,1.4l1.23,2.46a3.27,3.27,0,0,1,0,3.17L636,323.62a2.13,2.13,0,0,1-2.21,1.32h-2.33a.7.7,0,0,1,0-1.4h.68Zm1.4,8.1h.26c.59,0,.73-.07,1-.59l1.24-2.5a2,2,0,0,0,.26-.91,2.35,2.35,0,0,0-.35-1.15L634.73,316c-.29-.6-.42-.59-1.06-.59h-.17Z"/><path class="cls-4" d="M643.44,324.94a1.43,1.43,0,0,1-1.21-.37l-.57-.5a1.69,1.69,0,0,1-.69-1.51V320a1.78,1.78,0,0,1,.66-1.61l.48-.4a1.79,1.79,0,0,1,1.48-.56h1.23a1.94,1.94,0,0,1,1.49.49l.54.43a1.9,1.9,0,0,1,.71,1.75v1.08c0,.77-.13,1-.93,1h-4.31v.44a.65.65,0,0,0,.19.4l.34.36c.18.2.45.25.9.25h2.88c.45,0,.93.1.93.67s-.54.68-.93.68Zm-1.12-4.15h3.89V320c0-.25,0-.46-.17-.63l-.52-.45a1,1,0,0,0-.64-.17h-1.13a1,1,0,0,0-.69.16l-.46.33a.62.62,0,0,0-.28.62Z"/><path class="cls-4" d="M656.29,319.07v-.69c0-.48.08-1,.69-1s.66.37.66.81v.95a1.1,1.1,0,0,1-.16.55l-2,4.4c-.13.28-.37.84-.7.84h-.87c-.34,0-.57-.56-.7-.84l-2-4.4a1.1,1.1,0,0,1-.16-.55v-.95c0-.44.18-.81.66-.81s.69.51.69,1v.69l1.94,4.47Z"/><path class="cls-4" d="M663.6,324.94a1.43,1.43,0,0,1-1.21-.37l-.57-.5a1.69,1.69,0,0,1-.69-1.51V320a1.78,1.78,0,0,1,.66-1.61l.48-.4a1.78,1.78,0,0,1,1.48-.56H665a1.94,1.94,0,0,1,1.49.49l.55.43a1.92,1.92,0,0,1,.7,1.75v1.08c0,.77-.13,1-.93,1h-4.31v.44a.65.65,0,0,0,.19.4l.34.36c.18.2.45.25.89.25h2.89c.45,0,.93.1.93.67s-.54.68-.93.68Zm-1.12-4.15h3.89V320a.76.76,0,0,0-.17-.63l-.52-.45a1,1,0,0,0-.64-.17H663.9a1,1,0,0,0-.68.16l-.46.33a.62.62,0,0,0-.28.62Z"/><path class="cls-4" d="M675.2,323.59h1c.45,0,.93.1.93.67s-.54.68-.93.68h-3.42c-.39,0-.92-.09-.92-.68s.48-.67.92-.67h1.07V316h-1.07c-.39,0-.92-.09-.92-.67s.48-.68.92-.68h1.42c.77,0,1,.14,1,.94Z"/><path class="cls-4" d="M681.29,319.89a1.81,1.81,0,0,1,.86-1.75,2.4,2.4,0,0,1,1.9-.75h1.07a2.42,2.42,0,0,1,1.9.75,1.82,1.82,0,0,1,.85,1.75v2.54a2,2,0,0,1-.92,1.81,2.26,2.26,0,0,1-1.83.7h-1.07a2.26,2.26,0,0,1-1.83-.7,2,2,0,0,1-.93-1.81Zm1.35,2.54c0,.28.09.46.49.8a1.21,1.21,0,0,0,.92.36h1.07a1.21,1.21,0,0,0,.92-.36c.39-.34.49-.52.49-.8v-2.54c0-.28-.1-.46-.49-.79a1.19,1.19,0,0,0-.92-.37h-1.07a1.19,1.19,0,0,0-.92.37c-.4.33-.49.51-.49.79Z"/><path class="cls-4" d="M698,322a1.91,1.91,0,0,1-.85,2l-.81.64a2.18,2.18,0,0,1-1.08.61h-.91c-.6,0-.88-.4-1.32-.8l-.26-.25v2.7c0,.46-.1.92-.68.92s-.67-.46-.67-.92v-8.49c0-.48.06-1,.67-1s.68.43.68.88v.17l.26-.24c.35-.31.88-.81,1.26-.81h.93a2.46,2.46,0,0,1,1.12.61l.81.63a1.92,1.92,0,0,1,.85,1.95Zm-1.34-1.62a.69.69,0,0,0-.28-.59l-1-.84a.74.74,0,0,0-.46-.24h-.35c-.2,0-.44.25-.57.39l-.85.8a.87.87,0,0,0-.37.72V322a.83.83,0,0,0,.19.58l1,1c.19.2.4.38.57.38h.35a.69.69,0,0,0,.46-.24l1-.84a.67.67,0,0,0,.28-.58Z"/><path class="cls-4" d="M705.41,319.64V324c0,.46-.09.93-.67.93s-.67-.47-.67-.93v-4.49c0-.23,0-.65-.32-.65-.16,0-.25.13-.37.23l-.58.54V324c0,.46-.1.93-.68.93s-.67-.47-.67-.93v-5.67c0-.48.13-.95.7-.95a.66.66,0,0,1,.65.53l.11-.08a1.43,1.43,0,0,1,2.25.22l.11-.11a1.34,1.34,0,0,1,1.18-.56,1.37,1.37,0,0,1,1.12.54,2,2,0,0,1,.32,1.35l.14,4.65c0,.47,0,1-.65,1s-.66-.47-.68-.91l-.14-4.44c0-.24.06-.72-.3-.72-.2,0-.45.34-.57.46Z"/><path class="cls-4" d="M714,324.94a1.43,1.43,0,0,1-1.21-.37l-.57-.5a1.67,1.67,0,0,1-.69-1.51V320a1.78,1.78,0,0,1,.66-1.61l.48-.4a1.78,1.78,0,0,1,1.48-.56h1.23a1.94,1.94,0,0,1,1.49.49l.54.43a1.9,1.9,0,0,1,.7,1.75v1.08c0,.77-.12,1-.92,1h-4.31v.44a.65.65,0,0,0,.19.4l.34.36c.18.2.45.25.89.25h2.89c.45,0,.92.1.92.67s-.53.68-.92.68Zm-1.12-4.15h3.89V320a.76.76,0,0,0-.17-.63l-.52-.45a1,1,0,0,0-.64-.17H714.3a1,1,0,0,0-.68.16l-.46.33a.62.62,0,0,0-.28.62Z"/><path class="cls-4" d="M723,320.1V324c0,.46-.1.93-.68.93s-.67-.47-.67-.93v-5.63c0-.49.06-1,.67-1s.68.5.68,1v.18l1.09-.71a2.17,2.17,0,0,1,1.16-.45h1a1.69,1.69,0,0,1,1.25.49,2.09,2.09,0,0,1,.6,1.82l.14,4.23c0,.47-.05,1-.65,1s-.66-.47-.68-.91l-.14-4.15c0-.83-.09-1.15-.91-1.15h-.45a.76.76,0,0,0-.42.13Z"/><path class="cls-4" d="M734.39,322.4c0,.76,0,1.19.9,1.19H736c.54,0,.79,0,.93-.59a.7.7,0,0,1,.68-.54.67.67,0,0,1,.68.67,2,2,0,0,1-.46,1.12,2.17,2.17,0,0,1-1.85.69h-.68a2.19,2.19,0,0,1-1.74-.68,2.39,2.39,0,0,1-.49-1.87v-3.66h-.44c-.39,0-.92-.08-.92-.67s.48-.67.92-.67h.44V316c0-.46.1-.92.67-.92s.67.46.67.92v1.38h2.26c.45,0,.92.09.92.67s-.53.67-.92.67h-2.26Z"/><path class="cls-4" d="M617.69,161.27a.61.61,0,0,1-.7.7c-.51,0-.7-.25-.7-.7v-10.2H621a2.12,2.12,0,0,1,2.21,2v1a2,2,0,0,1-2.21,2h-1.29l3.15,4.51a1.45,1.45,0,0,1,.35.74.67.67,0,0,1-.72.66.73.73,0,0,1-.61-.39L618,156.06h-.32Zm0-6.61h3.11c.39,0,1,0,1-.59v-1c0-.56-.58-.63-1-.63h-3.12Z"/><path class="cls-4" d="M626.54,156.93a1.8,1.8,0,0,1,.85-1.75,2.41,2.41,0,0,1,1.91-.76h1.06a2.41,2.41,0,0,1,1.91.76,1.8,1.8,0,0,1,.85,1.75v2.53a2,2,0,0,1-.92,1.81,2.25,2.25,0,0,1-1.84.7H629.3a2.24,2.24,0,0,1-1.84-.7,2,2,0,0,1-.92-1.81Zm1.34,2.53c0,.28.1.47.49.8a1.26,1.26,0,0,0,.93.37h1.06a1.22,1.22,0,0,0,.92-.37c.4-.33.49-.52.49-.8v-2.53c0-.28-.09-.46-.49-.8a1.22,1.22,0,0,0-.92-.37H629.3a1.26,1.26,0,0,0-.93.37c-.39.34-.49.52-.49.8Z"/><path class="cls-4" d="M643.2,161c0,.3.06,1-.66,1-.57,0-.67-.48-.67-.94v-.22l-1.09.71a2.24,2.24,0,0,1-1.17.45h-1a1.87,1.87,0,0,1-1.25-.49,2.11,2.11,0,0,1-.61-1.82l-.14-4.23c0-.49,0-1,.67-1s.64.49.66.92l.14,4.14a2.27,2.27,0,0,0,.14.87,1,1,0,0,0,.78.28h.45a.8.8,0,0,0,.42-.13l2-1.25v-3.91c0-.46.1-.92.68-.92s.67.46.67.92Z"/><path class="cls-4" d="M646.7,156.93a1.94,1.94,0,0,1,.46-1.42l1-.77a1.21,1.21,0,0,1,.84-.32h1.3a2.52,2.52,0,0,1,1.32.67l.34.27v-.16a.69.69,0,0,1,.68-.78c.59,0,.66.49.66.94v6.57c0,1.22-.1,1.47-.66,1.95l-.45.37a2.13,2.13,0,0,1-1.68.58h-2.22c-.4,0-.93-.09-.93-.67s.48-.68.93-.68h2.46a1,1,0,0,0,.67-.3l.34-.31a.82.82,0,0,0,.2-.56v-1.85l-.29.28a1.84,1.84,0,0,1-1.1.66H649a1.39,1.39,0,0,1-1-.41l-.84-.76a1.42,1.42,0,0,1-.42-1.26Zm1.34,1.85a1,1,0,0,0,.17.7l.56.45a.59.59,0,0,0,.39.12h1a1.17,1.17,0,0,0,.62-.35l1-.85a.63.63,0,0,0,.15-.45v-1a.61.61,0,0,0-.15-.45l-1-.86a1.17,1.17,0,0,0-.62-.35h-1a.59.59,0,0,0-.39.13l-.56.45a1,1,0,0,0-.17.7Z"/><path class="cls-4" d="M660.53,155.76a.86.86,0,0,0-.42.13l-2,1.25v3.91c0,.46-.1.92-.67.92s-.67-.46-.67-.92v-8.48c0-.46.09-.92.67-.92s.67.46.67.92v3l1.09-.71a2.27,2.27,0,0,1,1.21-.45h.89a1.8,1.8,0,0,1,1.31.49c.6.52.57,1.09.6,1.82l.14,4.23c0,.48-.06,1-.66,1s-.66-.46-.67-.91l-.14-4.15c0-.64,0-1.15-.74-1.15Z"/><path class="cls-4" d="M680.62,154.42a1.92,1.92,0,0,1,1.33.74l.22.24v-2.83c0-.46.1-.92.68-.92s.67.46.67.92V161c0,.46-.1.94-.67.94s-.68-.45-.68-.9V161l-.29.29a2.1,2.1,0,0,1-1.29.69h-1.3a2.07,2.07,0,0,1-1.15-.48l-.46-.39a1.73,1.73,0,0,1-.74-1.55v-2.71a1.73,1.73,0,0,1,.74-1.55l.46-.39a1.67,1.67,0,0,1,1.29-.48ZM678.28,159c0,.38,0,.86.21,1l.41.32a.86.86,0,0,0,.5.27h1a1.15,1.15,0,0,0,.66-.34l.77-.66c.2-.17.39-.34.39-.59v-1.69c0-.25-.19-.42-.39-.59l-.77-.66a1.15,1.15,0,0,0-.66-.34h-1a.86.86,0,0,0-.5.27l-.41.32c-.21.17-.21.65-.21,1Z"/><path class="cls-4" d="M689.48,162a1.43,1.43,0,0,1-1.2-.36l-.58-.51a1.66,1.66,0,0,1-.68-1.51V157a1.75,1.75,0,0,1,.65-1.61l.48-.41a1.8,1.8,0,0,1,1.49-.56h1.23a1.91,1.91,0,0,1,1.48.49l.55.43a1.91,1.91,0,0,1,.7,1.76v1.07c0,.77-.13,1-.93,1h-4.31v.45a.67.67,0,0,0,.2.39l.33.36a1.12,1.12,0,0,0,.9.26h2.88c.45,0,.93.09.93.67s-.53.67-.93.67Zm-1.12-4.15h3.89V157c0-.25,0-.46-.16-.63l-.52-.45a1,1,0,0,0-.65-.17h-1.13a1.07,1.07,0,0,0-.69.16l-.46.34c-.17.12-.28.22-.28.61Z"/><path class="cls-4" d="M699.39,155.76c-.28,0-.75,0-.75.38,0,.23.16.31.36.4l3.36,1.52a1.91,1.91,0,0,1,1.32,1.91,1.94,1.94,0,0,1-2.21,2h-2.08a2.43,2.43,0,0,1-1.68-.42c-.25-.2-.61-.45-.61-.79a.69.69,0,0,1,.7-.67.62.62,0,0,1,.51.24,1.41,1.41,0,0,0,1.08.3h1.82c.48,0,1.12,0,1.12-.75,0-.32-.39-.53-.7-.67l-3.16-1.44a1.67,1.67,0,0,1-1.18-1.64,1.71,1.71,0,0,1,1.85-1.71h2.3a1.93,1.93,0,0,1,1.55.46c.25.21.53.38.53.76a.68.68,0,0,1-.68.67.74.74,0,0,1-.58-.28,1,1,0,0,0-.82-.27Z"/><path class="cls-4" d="M711.17,160.63h1c.44,0,.92.09.92.67s-.53.67-.92.67h-3.42c-.39,0-.93-.08-.93-.67s.48-.67.93-.67h1.06v-4.87h-1.06c-.39,0-.93-.08-.93-.67s.48-.67.93-.67h1.41c.77,0,1,.14,1,.94Zm-2-8.93a.56.56,0,0,1,.63-.63h.77a.56.56,0,0,1,.63.63v.65a.56.56,0,0,1-.63.63h-.77a.56.56,0,0,1-.63-.63Z"/><path class="cls-4" d="M717.25,156.93a1.94,1.94,0,0,1,.47-1.42l1-.77a1.21,1.21,0,0,1,.84-.32h1.3a2.56,2.56,0,0,1,1.32.67l.33.27v-.16a.7.7,0,0,1,.69-.78c.59,0,.66.49.66.94v6.57c0,1.22-.1,1.47-.66,1.95l-.45.37a2.13,2.13,0,0,1-1.68.58h-2.23c-.39,0-.92-.09-.92-.67s.48-.68.92-.68h2.47a1,1,0,0,0,.67-.3l.34-.31a.82.82,0,0,0,.19-.56v-1.85l-.28.28a1.9,1.9,0,0,1-1.1.66h-1.59a1.37,1.37,0,0,1-1-.41l-.84-.76a1.42,1.42,0,0,1-.43-1.26Zm1.35,1.85c0,.28,0,.57.17.7l.56.45a.59.59,0,0,0,.39.12h1c.17,0,.36-.14.62-.35l1-.85a.62.62,0,0,0,.14-.45v-1a.61.61,0,0,0-.14-.45l-1-.86c-.26-.21-.45-.35-.62-.35h-1a.59.59,0,0,0-.39.13l-.56.45c-.16.13-.17.42-.17.7Z"/><path class="cls-4" d="M728.68,157.14v3.91c0,.46-.1.92-.67.92s-.68-.46-.68-.92v-5.64c0-.49.06-1,.68-1s.67.5.67,1v.18l1.09-.71a2.17,2.17,0,0,1,1.17-.45h1a1.71,1.71,0,0,1,1.25.49c.6.52.57,1.09.6,1.82l.14,4.23c0,.48-.06,1-.66,1s-.66-.46-.67-.91l-.14-4.15c0-.82-.1-1.15-.91-1.15h-.45a.86.86,0,0,0-.42.13Z"/><path class="cls-4" d="M559.51,57.88v.51a.61.61,0,0,1-.7.7c-.51,0-.7-.25-.7-.7V56.48H565v1.91a.61.61,0,0,1-.7.7c-.51,0-.7-.25-.7-.7v-.51h-1.36v8.8a.61.61,0,0,1-.7.7c-.51,0-.7-.25-.7-.7v-8.8Z"/><path class="cls-4" d="M570.82,67.38a1.43,1.43,0,0,1-1.2-.36l-.58-.51a1.66,1.66,0,0,1-.68-1.51V62.41A1.75,1.75,0,0,1,569,60.8l.48-.41a1.83,1.83,0,0,1,1.49-.56h1.23a1.91,1.91,0,0,1,1.48.49l.55.44a1.91,1.91,0,0,1,.7,1.75v1.08c0,.77-.13,1-.92,1H569.7V65a.67.67,0,0,0,.2.39l.33.36a1.12,1.12,0,0,0,.9.26H574c.44,0,.92.09.92.67s-.53.67-.92.67Zm-1.12-4.15h3.89v-.81c0-.25,0-.46-.16-.63l-.52-.45a1,1,0,0,0-.65-.16h-1.13a1.13,1.13,0,0,0-.69.15l-.46.34c-.17.12-.28.22-.28.61Z"/><path class="cls-4" d="M580.73,61.18c-.28,0-.75-.06-.75.37,0,.23.17.31.36.4l3.36,1.52A1.92,1.92,0,0,1,585,65.38c0,1.36-.92,2-2.21,2h-2.08a2.43,2.43,0,0,1-1.68-.42c-.25-.2-.61-.45-.61-.78a.69.69,0,0,1,.7-.68.62.62,0,0,1,.51.24,1.41,1.41,0,0,0,1.08.3h1.82c.48,0,1.12,0,1.12-.75,0-.32-.39-.53-.7-.67l-3.16-1.44a1.67,1.67,0,0,1-1.18-1.64,1.72,1.72,0,0,1,1.85-1.71h2.3a1.93,1.93,0,0,1,1.55.46c.26.21.54.38.54.76a.69.69,0,0,1-.69.67.74.74,0,0,1-.58-.28,1,1,0,0,0-.82-.26Z"/><path class="cls-4" d="M591.22,64.85c0,.75,0,1.19.9,1.19h.68c.55,0,.8-.05.94-.59a.69.69,0,0,1,.67-.55.68.68,0,0,1,.69.67,2,2,0,0,1-.46,1.12,2.18,2.18,0,0,1-1.85.69h-.69a2.2,2.2,0,0,1-1.74-.67,2.47,2.47,0,0,1-.49-1.88V61.18h-.43c-.39,0-.92-.09-.92-.68s.47-.67.92-.67h.43V58.46c0-.46.1-.93.68-.93s.67.47.67.93v1.37h2.25c.45,0,.93.1.93.67s-.53.68-.93.68h-2.25Z"/><path class="cls-4" d="M602.59,66h1c.44,0,.92.09.92.67s-.53.67-.92.67h-3.42c-.39,0-.93-.08-.93-.67s.48-.67.93-.67h1.06V61.18h-1.06c-.39,0-.93-.09-.93-.68s.48-.67.93-.67h1.41c.77,0,1,.14,1,.94Zm-2-8.93a.56.56,0,0,1,.63-.63H602a.56.56,0,0,1,.63.63v.65a.56.56,0,0,1-.63.63h-.77a.56.56,0,0,1-.63-.63Z"/><path class="cls-4" d="M610,62.55v3.91c0,.46-.1.92-.67.92s-.67-.46-.67-.92V60.83c0-.49.05-1,.67-1s.67.51.67,1V61l1.09-.71a2.17,2.17,0,0,1,1.16-.45h1a1.71,1.71,0,0,1,1.25.49c.6.52.57,1.09.6,1.82l.14,4.23c0,.48-.06,1-.66,1s-.66-.46-.67-.91l-.14-4.15c0-.82-.1-1.14-.91-1.14h-.45a.84.84,0,0,0-.42.12Z"/><path class="cls-4" d="M618.76,62.34a1.94,1.94,0,0,1,.46-1.42l1-.77a1.21,1.21,0,0,1,.84-.32h1.3a2.52,2.52,0,0,1,1.32.67l.33.27v-.15a.71.71,0,0,1,.69-.79c.59,0,.66.49.66.94v6.57c0,1.22-.1,1.47-.66,2l-.45.37a2.13,2.13,0,0,1-1.68.58h-2.23c-.39,0-.92-.09-.92-.67s.48-.68.92-.68h2.47a1,1,0,0,0,.67-.3l.34-.31a.8.8,0,0,0,.19-.56V65.87l-.28.28a1.84,1.84,0,0,1-1.1.66H621a1.37,1.37,0,0,1-1-.41l-.84-.76a1.42,1.42,0,0,1-.42-1.26Zm1.34,1.85c0,.28,0,.57.17.7l.56.45a.59.59,0,0,0,.39.12h1c.17,0,.36-.14.62-.35l1-.85a.62.62,0,0,0,.14-.45v-1a.61.61,0,0,0-.14-.45l-1-.85c-.26-.21-.45-.35-.62-.35h-1a.59.59,0,0,0-.39.12l-.56.45c-.16.13-.17.42-.17.7Z"/><path class="cls-4" d="M642.88,62.09v4.37c0,.46-.1.92-.67.92s-.68-.46-.68-.92V62c0-.22,0-.64-.32-.64-.15,0-.25.12-.36.22l-.59.55v4.37c0,.46-.1.92-.67.92s-.68-.46-.68-.92V60.78c0-.47.13-1,.7-1a.66.66,0,0,1,.65.53l.11-.08a1.48,1.48,0,0,1,1-.45,1.5,1.5,0,0,1,1.24.67l.11-.11a1.34,1.34,0,0,1,1.17-.56,1.41,1.41,0,0,1,1.13.55,2,2,0,0,1,.32,1.34l.14,4.65c0,.48-.06,1-.66,1s-.66-.46-.67-.91L644,62c0-.24.05-.71-.31-.71-.2,0-.45.33-.56.46Z"/><path class="cls-4" d="M649,62.34a1.81,1.81,0,0,1,.86-1.75,2.39,2.39,0,0,1,1.9-.76h1.07a2.39,2.39,0,0,1,1.9.76,1.79,1.79,0,0,1,.86,1.75v2.53a2,2,0,0,1-.93,1.81,2.23,2.23,0,0,1-1.83.7h-1.07a2.23,2.23,0,0,1-1.83-.7,2,2,0,0,1-.93-1.81Zm1.35,2.53c0,.28.1.47.49.8a1.22,1.22,0,0,0,.92.37h1.07a1.22,1.22,0,0,0,.92-.37c.4-.33.49-.52.49-.8V62.34c0-.28-.09-.46-.49-.8a1.21,1.21,0,0,0-.92-.36h-1.07a1.21,1.21,0,0,0-.92.36c-.39.34-.49.52-.49.8Z"/><path class="cls-4" d="M662.76,59.83a1.92,1.92,0,0,1,1.33.74l.22.24V58c0-.46.1-.92.67-.92s.68.46.68.92v8.46c0,.46-.1.94-.68.94s-.67-.45-.67-.9V66.4l-.29.29a2.1,2.1,0,0,1-1.29.69h-1.3a2.07,2.07,0,0,1-1.15-.48l-.46-.39a1.74,1.74,0,0,1-.75-1.55V62.25a1.75,1.75,0,0,1,.75-1.55l.46-.39a1.67,1.67,0,0,1,1.29-.48Zm-2.34,4.6c0,.37,0,.85.21,1l.4.32a.91.91,0,0,0,.51.27h1a1.15,1.15,0,0,0,.66-.34l.77-.66c.2-.17.39-.33.39-.59V62.76c0-.25-.19-.42-.39-.59l-.77-.66a1.13,1.13,0,0,0-.66-.33h-1a.89.89,0,0,0-.51.26l-.4.32c-.21.17-.21.65-.21,1Z"/><path class="cls-4" d="M671.62,67.38a1.45,1.45,0,0,1-1.21-.36l-.57-.51a1.67,1.67,0,0,1-.69-1.51V62.41a1.76,1.76,0,0,1,.66-1.61l.48-.41a1.83,1.83,0,0,1,1.48-.56H673a1.93,1.93,0,0,1,1.48.49l.55.44a1.91,1.91,0,0,1,.7,1.75v1.08c0,.77-.13,1-.93,1H670.5V65a.72.72,0,0,0,.19.39l.34.36a1.12,1.12,0,0,0,.9.26h2.88c.45,0,.93.09.93.67s-.53.67-.93.67Zm-1.12-4.15h3.89v-.81c0-.25,0-.46-.16-.63l-.52-.45a1,1,0,0,0-.65-.16h-1.13a1.13,1.13,0,0,0-.69.15l-.46.34c-.17.12-.28.22-.28.61Z"/><path class="cls-4" d="M683.23,66h1c.45,0,.93.09.93.67s-.53.67-.93.67h-3.41c-.4,0-.93-.08-.93-.67s.48-.67.93-.67h1.06V58.4h-1.06c-.4,0-.93-.08-.93-.67s.48-.67.93-.67h1.41c.77,0,1,.14,1,.94Z"/><path class="cls-4" d="M562,76.63a1.92,1.92,0,0,1,1.33.74l.23.24V74.78c0-.46.09-.92.67-.92s.67.46.67.92v8.46c0,.46-.1.94-.67.94s-.67-.45-.67-.9V83.2l-.3.29a2.1,2.1,0,0,1-1.29.69h-1.3a2.07,2.07,0,0,1-1.15-.48l-.46-.39a1.73,1.73,0,0,1-.74-1.55V79.05A1.74,1.74,0,0,1,559,77.5l.46-.39a1.67,1.67,0,0,1,1.29-.48Zm-2.34,4.59c0,.38,0,.86.21,1l.41.32a.86.86,0,0,0,.5.27h1a1.15,1.15,0,0,0,.66-.34l.77-.66c.2-.17.4-.33.4-.59V79.56c0-.25-.2-.42-.4-.59l-.77-.66a1.13,1.13,0,0,0-.66-.33h-1a.84.84,0,0,0-.5.26l-.41.32c-.21.17-.21.65-.21,1Z"/><path class="cls-4" d="M570.82,84.18a1.43,1.43,0,0,1-1.2-.36l-.58-.51a1.66,1.66,0,0,1-.68-1.51V79.21A1.75,1.75,0,0,1,569,77.6l.48-.41a1.8,1.8,0,0,1,1.49-.56h1.23a1.91,1.91,0,0,1,1.48.49l.55.43a1.94,1.94,0,0,1,.7,1.76v1.08c0,.77-.13,1-.92,1H569.7v.45a.67.67,0,0,0,.2.39l.33.36a1.12,1.12,0,0,0,.9.26H574c.44,0,.92.09.92.67s-.53.67-.92.67ZM569.7,80h3.89v-.81c0-.25,0-.46-.16-.63l-.52-.45a1,1,0,0,0-.65-.16h-1.13a1.13,1.13,0,0,0-.69.15l-.46.34c-.17.12-.28.22-.28.61Z"/><path class="cls-4" d="M583.67,78.31v-.68c0-.48.09-1,.69-1s.66.38.66.81v1a1.19,1.19,0,0,1-.15.54l-2,4.4c-.12.28-.36.84-.7.84h-.87c-.33,0-.57-.56-.7-.84l-2-4.4a1.08,1.08,0,0,1-.15-.54v-1c0-.43.18-.81.65-.81s.69.52.69,1v.68l2,4.47Z"/><path class="cls-4" d="M591,84.18a1.43,1.43,0,0,1-1.2-.36l-.58-.51a1.66,1.66,0,0,1-.68-1.51V79.21a1.75,1.75,0,0,1,.65-1.61l.48-.41a1.8,1.8,0,0,1,1.49-.56h1.23a1.91,1.91,0,0,1,1.48.49l.55.43a1.91,1.91,0,0,1,.7,1.76v1.08c0,.77-.13,1-.93,1h-4.31v.45a.67.67,0,0,0,.2.39l.33.36a1.12,1.12,0,0,0,.9.26h2.88c.45,0,.93.09.93.67s-.53.67-.93.67ZM589.86,80h3.89v-.81c0-.25,0-.46-.16-.63l-.52-.45a1,1,0,0,0-.65-.16h-1.13a1.13,1.13,0,0,0-.69.15l-.46.34c-.17.12-.28.22-.28.61Z"/><path class="cls-4" d="M602.59,82.84h1c.44,0,.92.09.92.67s-.53.67-.92.67h-3.42c-.39,0-.93-.08-.93-.67s.48-.67.93-.67h1.06V75.2h-1.06c-.39,0-.93-.08-.93-.67s.48-.67.93-.67h1.41c.77,0,1,.14,1,.94Z"/><path class="cls-4" d="M608.68,79.14a1.8,1.8,0,0,1,.85-1.75,2.4,2.4,0,0,1,1.9-.76h1.07a2.37,2.37,0,0,1,1.9.76,1.79,1.79,0,0,1,.86,1.75v2.53a2,2,0,0,1-.93,1.81,2.23,2.23,0,0,1-1.83.7h-1.07a2.23,2.23,0,0,1-1.83-.7,2,2,0,0,1-.92-1.81ZM610,81.67c0,.28.1.47.49.8a1.22,1.22,0,0,0,.92.37h1.07a1.22,1.22,0,0,0,.92-.37c.4-.33.49-.52.49-.8V79.14c0-.28-.09-.46-.49-.8a1.21,1.21,0,0,0-.92-.36h-1.07a1.21,1.21,0,0,0-.92.36c-.39.34-.49.52-.49.8Z"/><path class="cls-4" d="M625.34,81.27a1.9,1.9,0,0,1-.86,1.94l-.81.65c-.28.22-.71.6-1.08.6h-.91c-.6,0-.88-.39-1.31-.8l-.27-.25v2.7c0,.47-.1.93-.67.93s-.67-.46-.67-.93V77.63c0-.48,0-1,.67-1s.67.43.67.88v.17l.27-.24c.35-.3.88-.81,1.26-.81h.92a2.44,2.44,0,0,1,1.12.62l.81.63a1.91,1.91,0,0,1,.86,1.94ZM624,79.64a.7.7,0,0,0-.28-.59l-1-.84a.75.75,0,0,0-.47-.23h-.35c-.19,0-.43.25-.57.39l-.84.8a.87.87,0,0,0-.38.71V81.2a.81.81,0,0,0,.2.57l1,1c.19.19.41.38.57.38h.35a.76.76,0,0,0,.47-.24l1-.84a.69.69,0,0,0,.28-.59Z"/><path class="cls-4" d="M632.8,78.89v4.37c0,.46-.1.92-.67.92s-.68-.46-.68-.92v-4.5c0-.22,0-.64-.32-.64-.15,0-.25.12-.36.22l-.59.55v4.37c0,.46-.1.92-.67.92s-.68-.46-.68-.92V77.58c0-.47.13-1,.7-1a.66.66,0,0,1,.65.53l.11-.08a1.48,1.48,0,0,1,1-.45,1.5,1.5,0,0,1,1.24.67l.11-.11a1.34,1.34,0,0,1,1.18-.56,1.41,1.41,0,0,1,1.12.55,2,2,0,0,1,.32,1.34l.14,4.65c0,.48-.06,1-.66,1s-.66-.46-.67-.91L634,78.83c0-.24,0-.71-.31-.71-.2,0-.45.33-.56.46Z"/><path class="cls-4" d="M641.38,84.18a1.43,1.43,0,0,1-1.2-.36l-.58-.51a1.67,1.67,0,0,1-.69-1.51V79.21a1.76,1.76,0,0,1,.66-1.61l.48-.41a1.79,1.79,0,0,1,1.48-.56h1.24a1.93,1.93,0,0,1,1.48.49l.55.43a1.94,1.94,0,0,1,.7,1.76v1.08c0,.77-.13,1-.93,1h-4.31v.45a.67.67,0,0,0,.2.39l.33.36a1.12,1.12,0,0,0,.9.26h2.88c.45,0,.93.09.93.67s-.53.67-.93.67ZM640.26,80h3.89v-.81c0-.25,0-.46-.17-.63l-.51-.45a1,1,0,0,0-.65-.16h-1.13a1.13,1.13,0,0,0-.69.15l-.46.34c-.17.12-.28.22-.28.61Z"/><path class="cls-4" d="M650.34,79.35v3.91c0,.46-.1.92-.67.92s-.68-.46-.68-.92V77.63c0-.49.06-1,.68-1s.67.51.67,1v.18l1.09-.71a2.17,2.17,0,0,1,1.16-.45h1a1.71,1.71,0,0,1,1.25.49c.6.52.57,1.09.6,1.82l.14,4.23c0,.48-.06,1-.66,1s-.66-.46-.67-.91l-.14-4.15c0-.82-.1-1.14-.91-1.14h-.45a.84.84,0,0,0-.42.12Z"/><path class="cls-4" d="M661.78,81.65c0,.75,0,1.19.89,1.19h.69c.55,0,.8,0,.94-.59a.69.69,0,0,1,.67-.55.68.68,0,0,1,.69.67,2,2,0,0,1-.47,1.12,2.16,2.16,0,0,1-1.84.69h-.69a2.2,2.2,0,0,1-1.74-.67,2.43,2.43,0,0,1-.49-1.88V78H660c-.39,0-.93-.09-.93-.68s.48-.67.93-.67h.43V75.26c0-.46.1-.93.67-.93s.68.47.68.93v1.37H664c.45,0,.93.1.93.67s-.53.68-.93.68h-2.25Z"/><path class="cls-5" d="M205.87,152.91h33.31a8.06,8.06,0,0,1,5.11,1.84l22.16,18.37a2,2,0,0,1,1.16-.38,2,2,0,1,1-1.8,1.15l-21.88-18.14a8.09,8.09,0,0,0-5.11-1.84H205.87a.5.5,0,0,1-.5-.5A.51.51,0,0,1,205.87,152.91Z"/><path class="cls-4" d="M57.75,157.38a.61.61,0,0,1-.7.7c-.51,0-.7-.25-.7-.7V147.19h4.7a2.12,2.12,0,0,1,2.22,2v1a2,2,0,0,1-2.22,2H59.76l3.16,4.51a1.45,1.45,0,0,1,.35.75.67.67,0,0,1-.72.65.71.71,0,0,1-.61-.39l-3.87-5.52h-.32Zm0-6.61h3.11c.39,0,1,0,1-.59v-1c0-.56-.58-.63-1-.63H57.75Z"/><path class="cls-4" d="M69.06,158.08a1.43,1.43,0,0,1-1.2-.36l-.58-.5a1.7,1.7,0,0,1-.69-1.52v-2.59a1.78,1.78,0,0,1,.66-1.61l.48-.41a1.83,1.83,0,0,1,1.48-.56h1.24a1.93,1.93,0,0,1,1.48.49l.55.44a1.92,1.92,0,0,1,.7,1.75v1.08c0,.77-.13,1-.93,1H67.94v.45a.64.64,0,0,0,.2.39l.33.37a1.16,1.16,0,0,0,.9.25h2.88c.45,0,.93.1.93.67s-.53.67-.93.67Zm-1.12-4.14h3.89v-.82c0-.25,0-.46-.16-.63l-.52-.44a.94.94,0,0,0-.65-.17H69.37a1.13,1.13,0,0,0-.69.15l-.46.34c-.17.12-.28.22-.28.61Z"/><path class="cls-4" d="M81.91,152.21v-.68c0-.48.09-1,.69-1s.66.38.66.82v1a1.09,1.09,0,0,1-.16.54l-2,4.4c-.12.28-.36.84-.7.84h-.87c-.33,0-.57-.56-.7-.84l-2-4.4a1.09,1.09,0,0,1-.16-.54v-1c0-.44.19-.82.66-.82s.69.52.69,1v.68l2,4.47Z"/><path class="cls-4" d="M90.75,156.74h1c.45,0,.93.1.93.67s-.53.67-.93.67H88.34c-.4,0-.93-.08-.93-.67s.48-.67.93-.67H89.4v-4.86H88.34c-.4,0-.93-.09-.93-.67s.48-.68.93-.68h1.41c.77,0,1,.14,1,.94Zm-2-8.92a.55.55,0,0,1,.63-.63h.77a.56.56,0,0,1,.63.63v.64a.56.56,0,0,1-.63.63h-.77a.55.55,0,0,1-.63-.63Z"/><path class="cls-4" d="M99.3,158.08a1.43,1.43,0,0,1-1.2-.36l-.58-.5a1.7,1.7,0,0,1-.69-1.52v-2.59a1.78,1.78,0,0,1,.66-1.61l.48-.41a1.83,1.83,0,0,1,1.48-.56h1.24a1.93,1.93,0,0,1,1.48.49l.55.44a1.92,1.92,0,0,1,.7,1.75v1.08c0,.77-.13,1-.93,1H98.18v.45a.64.64,0,0,0,.2.39l.33.37a1.16,1.16,0,0,0,.9.25h2.88c.45,0,.93.1.93.67s-.53.67-.93.67Zm-1.12-4.14h3.89v-.82c0-.25,0-.46-.16-.63l-.52-.44a.94.94,0,0,0-.65-.17H99.61a1.13,1.13,0,0,0-.69.15l-.46.34c-.17.12-.28.22-.28.61Z"/><path class="cls-4" d="M110.88,155l.73,1.25L112,155l.14-3.47c0-.46.1-1,.67-1s.67.51.66,1l-.14,3.74-.66,2c-.14.41-.21.85-.69.85h-.52c-.23,0-.43-.25-.56-.43l-.72-1.09-.73,1.09c-.13.18-.32.43-.56.43h-.52c-.48,0-.55-.44-.69-.85l-.66-2-.14-3.74c0-.46.07-1,.66-1s.66.51.67,1l.14,3.47.43,1.25.72-1.25v-1.23c0-.46.1-.94.68-.94s.67.48.67.94Z"/><path class="cls-4" d="M127.07,151.53c0-.49.06-1,.68-1s.67.45.67.9V152l1.05-.87a2,2,0,0,1,1.19-.58h1.08a1.74,1.74,0,0,1,1.31.54,2,2,0,0,1,.61,1.52c0,.46-.09.94-.66.94s-.69-.39-.69-.83a.86.86,0,0,0-.14-.58c-.17-.24-.49-.24-.81-.24H131a1,1,0,0,0-.67.32l-1.88,1.56v3.4c0,.46-.1.92-.67.92s-.68-.46-.68-.92Z"/><path class="cls-4" d="M139.62,158.08a1.45,1.45,0,0,1-1.21-.36l-.57-.5a1.7,1.7,0,0,1-.69-1.52v-2.59a1.78,1.78,0,0,1,.66-1.61l.48-.41a1.83,1.83,0,0,1,1.48-.56H141a1.93,1.93,0,0,1,1.48.49l.55.44a1.92,1.92,0,0,1,.7,1.75v1.08c0,.77-.13,1-.93,1H138.5v.45a.68.68,0,0,0,.19.39l.34.37a1.16,1.16,0,0,0,.9.25h2.88c.45,0,.93.1.93.67s-.54.67-.93.67Zm-1.12-4.14h3.89v-.82c0-.25,0-.46-.17-.63l-.51-.44a.94.94,0,0,0-.65-.17h-1.13a1.1,1.1,0,0,0-.69.15l-.46.34c-.17.12-.28.22-.28.61Z"/><path class="cls-4" d="M149.53,151.88c-.28,0-.76-.06-.76.38,0,.22.17.3.37.39l3.36,1.53a1.9,1.9,0,0,1,1.32,1.9c0,1.36-.93,2-2.22,2h-2.07a2.42,2.42,0,0,1-1.68-.42c-.25-.19-.62-.44-.62-.78a.69.69,0,0,1,.7-.67.66.66,0,0,1,.52.23,1.41,1.41,0,0,0,1.08.3h1.82c.48,0,1.12,0,1.12-.74,0-.33-.39-.54-.7-.68l-3.16-1.44a1.65,1.65,0,0,1-1.18-1.64,1.72,1.72,0,0,1,1.85-1.71h2.3a1.94,1.94,0,0,1,1.55.47c.25.21.53.37.53.75a.68.68,0,0,1-.68.67.7.7,0,0,1-.58-.28,1,1,0,0,0-.82-.26Z"/><path class="cls-4" d="M163.9,157.09c0,.31,0,1-.66,1s-.67-.47-.67-.94v-.22l-1.1.72a2.19,2.19,0,0,1-1.16.44h-1a1.87,1.87,0,0,1-1.25-.49,2.14,2.14,0,0,1-.62-1.82l-.14-4.23c0-.49.06-1,.68-1s.64.49.65.93l.14,4.13a2.44,2.44,0,0,0,.14.87,1,1,0,0,0,.79.28h.45a.72.72,0,0,0,.42-.13l2-1.24v-3.91c0-.46.1-.93.67-.93s.68.47.68.93Z"/><path class="cls-4" d="M171.39,156.74h1c.45,0,.93.1.93.67s-.53.67-.93.67H169c-.4,0-.93-.08-.93-.67s.48-.67.93-.67H170V149.1H169c-.4,0-.93-.08-.93-.67s.48-.67.93-.67h1.41c.77,0,1,.14,1,.94Z"/><path class="cls-4" d="M180.18,155.55c0,.75,0,1.19.89,1.19h.69c.55,0,.8,0,.94-.59a.69.69,0,0,1,1.36.13,2,2,0,0,1-.47,1.12,2.16,2.16,0,0,1-1.84.68h-.69a2.2,2.2,0,0,1-1.74-.67,2.42,2.42,0,0,1-.49-1.88v-3.65h-.43c-.4,0-.93-.09-.93-.67s.48-.68.93-.68h.43v-1.37c0-.46.1-.92.67-.92s.68.46.68.92v1.37h2.25c.45,0,.93.1.93.68s-.54.67-.93.67h-2.25Z"/><path class="cls-4" d="M43.51,42.16h2.06a.7.7,0,1,1,0,1.4H40.05a.7.7,0,0,1,0-1.4h2.06v-8.1H40.05a.7.7,0,0,1,0-1.4h5.52a.7.7,0,1,1,0,1.4H43.51Z"/><path class="cls-4" d="M53.28,36a1.92,1.92,0,0,1,1.33.74l.22.24V34.16c0-.46.1-.92.68-.92s.67.46.67.92v8.46c0,.46-.1.94-.67.94s-.68-.45-.68-.9v-.08l-.29.29a2.1,2.1,0,0,1-1.29.69H52a2.07,2.07,0,0,1-1.15-.48l-.46-.39a1.75,1.75,0,0,1-.75-1.55V38.43a1.74,1.74,0,0,1,.75-1.55l.46-.39A1.67,1.67,0,0,1,52.09,36ZM50.94,40.6c0,.38,0,.86.21,1l.41.32a.84.84,0,0,0,.5.26H53a1.13,1.13,0,0,0,.66-.33l.77-.66c.2-.17.39-.34.39-.59V38.94c0-.26-.19-.42-.39-.59l-.77-.66a1.15,1.15,0,0,0-.66-.34h-.95a.86.86,0,0,0-.5.27l-.41.32c-.21.17-.21.65-.21,1Z"/><path class="cls-4" d="M62.14,43.56a1.43,1.43,0,0,1-1.2-.36l-.58-.51a1.68,1.68,0,0,1-.69-1.51V38.59A1.76,1.76,0,0,1,60.33,37l.48-.41A1.79,1.79,0,0,1,62.29,36h1.24A1.91,1.91,0,0,1,65,36.5l.55.43a1.92,1.92,0,0,1,.7,1.75v1.08c0,.77-.13,1-.93,1H61v.45a.67.67,0,0,0,.2.39l.33.36c.18.2.45.25.9.25h2.88c.45,0,.93.1.93.68s-.53.67-.93.67ZM61,39.41h3.89V38.6c0-.25,0-.46-.16-.63l-.52-.45a1,1,0,0,0-.65-.17H62.45a1.07,1.07,0,0,0-.69.16l-.46.33a.62.62,0,0,0-.28.62Z"/><path class="cls-4" d="M72,37.35c-.39,0-.93-.08-.93-.67S71.56,36,72,36h1.85a2.14,2.14,0,0,1,1.74.6,2,2,0,0,1,.6,1.6l.14,4.57c0,.39-.18.78-.63.78a.69.69,0,0,1-.69-.67l-.92.47a1.22,1.22,0,0,1-.83.2H72a2.1,2.1,0,0,1-1.53-.48,1.87,1.87,0,0,1-.7-1.65v-.59a1.78,1.78,0,0,1,.66-1.5,2.25,2.25,0,0,1,1.57-.5h2.89v-.31c0-1-.23-1.18-1.19-1.18Zm0,2.83c-.37,0-.9.1-.9.59v.9c0,.45.55.54.87.54h1.48l1.49-.77v-.29c0-.74-.21-1-1-1Z"/><path class="cls-4" d="M95.15,37.69V37c0-.47.09-1,.69-1s.66.38.66.81v1a1.1,1.1,0,0,1-.16.55l-2,4.4c-.13.28-.36.84-.7.84h-.87c-.33,0-.57-.56-.7-.84l-2-4.4a1.1,1.1,0,0,1-.16-.55v-1c0-.43.19-.81.66-.81s.69.52.69,1v.69l1.95,4.47Z"/><path class="cls-4" d="M102.46,43.56a1.45,1.45,0,0,1-1.21-.36l-.57-.51a1.68,1.68,0,0,1-.69-1.51V38.59a1.76,1.76,0,0,1,.66-1.61l.48-.41a1.79,1.79,0,0,1,1.48-.56h1.24a1.93,1.93,0,0,1,1.48.49l.55.43a1.92,1.92,0,0,1,.7,1.75v1.08c0,.77-.13,1-.93,1h-4.31v.45a.67.67,0,0,0,.2.39l.33.36c.18.2.45.25.9.25h2.88c.45,0,.93.1.93.68s-.53.67-.93.67Zm-1.12-4.15h3.89V38.6c0-.25,0-.46-.17-.63l-.51-.45a1,1,0,0,0-.65-.17h-1.13a1.07,1.07,0,0,0-.69.16l-.46.33a.62.62,0,0,0-.28.62Z"/><path class="cls-4" d="M110.07,37c0-.49.06-1,.68-1s.67.45.67.9v.54l1-.87a2.06,2.06,0,0,1,1.19-.57h1.08a1.76,1.76,0,0,1,1.31.53,2,2,0,0,1,.61,1.53c0,.46-.09.94-.66.94s-.69-.39-.69-.83a.9.9,0,0,0-.14-.59c-.17-.24-.49-.24-.81-.24H114a1,1,0,0,0-.67.33l-1.88,1.55v3.4c0,.47-.1.93-.67.93s-.68-.46-.68-.93Z"/><path class="cls-4" d="M124.15,42.21h1c.45,0,.93.1.93.68s-.53.67-.93.67h-3.41c-.4,0-.93-.08-.93-.67s.48-.68.93-.68h1.06V37.35h-1.06c-.4,0-.93-.08-.93-.67s.48-.67.93-.67h1.41c.77,0,1,.14,1,.94Zm-2-8.92a.56.56,0,0,1,.63-.63h.78a.56.56,0,0,1,.63.63v.65a.56.56,0,0,1-.63.63h-.78a.56.56,0,0,1-.63-.63Z"/><path class="cls-4" d="M132.21,37.35h-.38c-.39,0-.92-.08-.92-.67s.47-.67.92-.67h.38v-.18a2.3,2.3,0,0,1,.64-1.92,2.59,2.59,0,0,1,2.08-.67h.91c.46,0,1,0,1,.67s-.47.67-.93.67h-1c-.91,0-1.29.18-1.29,1.16V36h1.19c.45,0,.93.1.93.67s-.53.67-.93.67h-1.19v5.28c0,.47-.09.93-.67.93s-.67-.46-.67-.93Z"/><path class="cls-4" d="M144.31,42.21h1c.45,0,.93.1.93.68s-.53.67-.93.67H141.9c-.4,0-.93-.08-.93-.67s.48-.68.93-.68H143V37.35H141.9c-.4,0-.93-.08-.93-.67s.48-.67.93-.67h1.41c.77,0,1,.14,1,.94Zm-2-8.92a.56.56,0,0,1,.63-.63h.77a.56.56,0,0,1,.64.63v.65a.56.56,0,0,1-.64.63h-.77a.56.56,0,0,1-.63-.63Z"/><path class="cls-4" d="M150.39,39.13a1.9,1.9,0,0,1,.8-1.76l1-.83a2.12,2.12,0,0,1,1.73-.53h2.13c.45,0,.93.1.93.67s-.54.67-.93.67h-2.37a1.27,1.27,0,0,0-.77.34l-.81.69a.69.69,0,0,0-.36.57v1.67c0,.26.15.4.36.57l.81.69a1.31,1.31,0,0,0,.77.33h2.37c.39,0,.93.09.93.68s-.48.67-.93.67h-2.13a2.12,2.12,0,0,1-1.73-.53l-1-.83a1.9,1.9,0,0,1-.8-1.76Z"/><path class="cls-4" d="M162.73,37.35c-.39,0-.93-.08-.93-.67s.48-.67.93-.67h1.85a2.11,2.11,0,0,1,1.73.6,2,2,0,0,1,.61,1.6l.14,4.57c0,.39-.19.78-.63.78a.69.69,0,0,1-.69-.67l-.93.47a1.18,1.18,0,0,1-.82.2H162.7a2.1,2.1,0,0,1-1.53-.48,1.87,1.87,0,0,1-.7-1.65v-.59a1.78,1.78,0,0,1,.66-1.5,2.23,2.23,0,0,1,1.57-.5h2.89v-.31c0-1-.23-1.18-1.2-1.18Zm0,2.83c-.36,0-.89.1-.89.59v.9c0,.45.54.54.87.54h1.48l1.49-.77v-.29c0-.74-.21-1-1-1Z"/><path class="cls-4" d="M173.26,41c0,.76,0,1.19.89,1.19h.69c.55,0,.8,0,.94-.58a.69.69,0,0,1,1.36.12,2,2,0,0,1-.47,1.12,2.16,2.16,0,0,1-1.84.69h-.69a2.2,2.2,0,0,1-1.74-.67,2.43,2.43,0,0,1-.49-1.88V37.35h-.43c-.4,0-.93-.08-.93-.67s.48-.67.93-.67h.43V34.64c0-.47.1-.93.67-.93s.68.46.68.93V36h2.25c.45,0,.93.1.93.67s-.54.67-.93.67h-2.25Z"/><path class="cls-4" d="M184.62,42.21h1c.45,0,.93.1.93.68s-.53.67-.93.67h-3.41c-.4,0-.93-.08-.93-.67s.48-.68.93-.68h1.06V37.35h-1.06c-.4,0-.93-.08-.93-.67s.48-.67.93-.67h1.41c.77,0,1,.14,1,.94Zm-2-8.92a.56.56,0,0,1,.63-.63H184a.56.56,0,0,1,.63.63v.65a.56.56,0,0,1-.63.63h-.77a.56.56,0,0,1-.63-.63Z"/><path class="cls-4" d="M190.71,38.52a1.79,1.79,0,0,1,.86-1.75,2.39,2.39,0,0,1,1.9-.76h1.07a2.39,2.39,0,0,1,1.9.76,1.81,1.81,0,0,1,.86,1.75v2.53a2,2,0,0,1-.93,1.81,2.23,2.23,0,0,1-1.83.7h-1.07a2.23,2.23,0,0,1-1.83-.7,2,2,0,0,1-.93-1.81Zm1.35,2.53c0,.28.1.46.49.8a1.21,1.21,0,0,0,.92.36h1.07a1.21,1.21,0,0,0,.92-.36c.39-.34.49-.52.49-.8V38.52c0-.28-.1-.47-.49-.8a1.22,1.22,0,0,0-.92-.37h-1.07a1.22,1.22,0,0,0-.92.37c-.39.33-.49.52-.49.8Z"/><path class="cls-4" d="M202.14,38.73v3.9c0,.47-.1.93-.68.93s-.67-.46-.67-.93V37c0-.49.06-1,.67-1s.68.5.68,1v.18l1.09-.71a2.17,2.17,0,0,1,1.16-.45h1a1.69,1.69,0,0,1,1.24.49c.61.52.58,1.09.61,1.82l.14,4.23c0,.48-.06,1-.66,1s-.66-.46-.68-.91l-.14-4.15c0-.82-.09-1.15-.91-1.15h-.44a.86.86,0,0,0-.42.13Z"/><path class="cls-4" d="M43.48,57.25l.73,1.25.42-1.25.14-3.47c0-.47.1-1,.67-1s.67.5.66,1L46,57.52l-.66,2c-.14.41-.21.86-.69.86H44.1c-.24,0-.44-.25-.56-.44l-.73-1.09-.73,1.09c-.13.19-.32.44-.56.44H41c-.48,0-.55-.45-.69-.86l-.65-2-.14-3.74c0-.47.06-1,.65-1s.66.5.68,1L41,57.25l.42,1.25.72-1.25V56c0-.47.1-.94.68-.94s.67.47.67.94Z"/><path class="cls-4" d="M53.59,59h1c.44,0,.92.1.92.68s-.53.67-.92.67H51.18c-.39,0-.93-.08-.93-.67s.48-.68.93-.68h1.06V54.15H51.18c-.39,0-.93-.08-.93-.67s.48-.67.93-.67h1.41c.77,0,1,.14,1,.94Zm-2-8.92a.56.56,0,0,1,.63-.63H53a.56.56,0,0,1,.63.63v.65a.56.56,0,0,1-.63.63h-.77a.56.56,0,0,1-.63-.63Z"/><path class="cls-4" d="M62.38,57.82c0,.76,0,1.19.89,1.19H64c.55,0,.8,0,.94-.58a.68.68,0,0,1,.67-.55.67.67,0,0,1,.69.67,2,2,0,0,1-.46,1.12,2.18,2.18,0,0,1-1.85.69h-.69a2.23,2.23,0,0,1-1.74-.67A2.47,2.47,0,0,1,61,57.81V54.15H60.6c-.39,0-.93-.08-.93-.67s.48-.67.93-.67H61V51.44c0-.47.1-.93.68-.93s.67.46.67.93v1.37h2.25c.45,0,.93.1.93.67s-.53.67-.93.67H62.38Z"/><path class="cls-4" d="M73.51,54.15a.86.86,0,0,0-.42.13l-2,1.25v3.9c0,.47-.1.93-.67.93s-.68-.46-.68-.93V51c0-.46.1-.92.68-.92s.67.46.67.92v3l1.09-.71a2.27,2.27,0,0,1,1.21-.45h.89a1.8,1.8,0,0,1,1.31.49c.6.52.57,1.09.6,1.82l.14,4.23c0,.48-.06,1-.66,1S75,59.9,75,59.45l-.14-4.15c0-.64,0-1.15-.75-1.15Z"/><path class="cls-4" d="M93.88,55.06v4.37c0,.47-.1.93-.67.93s-.68-.46-.68-.93V54.94c0-.23,0-.65-.32-.65-.15,0-.25.13-.36.23l-.59.54v4.37c0,.47-.1.93-.67.93s-.68-.46-.68-.93V53.76c0-.48.13-.95.7-.95a.66.66,0,0,1,.65.53l.11-.08a1.48,1.48,0,0,1,1-.45,1.5,1.5,0,0,1,1.24.67l.11-.11a1.34,1.34,0,0,1,1.17-.56,1.41,1.41,0,0,1,1.13.55,2,2,0,0,1,.32,1.34l.14,4.65c0,.48-.06,1-.66,1s-.66-.46-.67-.91L95,55c0-.24,0-.72-.31-.72-.2,0-.45.34-.56.47Z"/><path class="cls-4" d="M100,55.32a1.81,1.81,0,0,1,.86-1.75,2.39,2.39,0,0,1,1.9-.76h1.07a2.39,2.39,0,0,1,1.9.76,1.79,1.79,0,0,1,.86,1.75v2.53a2,2,0,0,1-.93,1.81,2.23,2.23,0,0,1-1.83.7h-1.07a2.23,2.23,0,0,1-1.83-.7,2,2,0,0,1-.93-1.81Zm1.35,2.53c0,.28.1.46.49.8a1.21,1.21,0,0,0,.92.36h1.07a1.21,1.21,0,0,0,.92-.36c.39-.34.49-.52.49-.8V55.32c0-.28-.1-.47-.49-.8a1.22,1.22,0,0,0-.92-.37h-1.07a1.22,1.22,0,0,0-.92.37c-.39.33-.49.52-.49.8Z"/><path class="cls-4" d="M113.76,52.81a1.92,1.92,0,0,1,1.33.74l.22.24V51c0-.46.1-.92.67-.92s.68.46.68.92v8.46c0,.46-.1.94-.68.94s-.67-.45-.67-.9v-.08l-.29.29a2.1,2.1,0,0,1-1.29.69h-1.3a2,2,0,0,1-1.15-.48l-.46-.39a1.75,1.75,0,0,1-.75-1.55V55.23a1.74,1.74,0,0,1,.75-1.55l.46-.4a1.7,1.7,0,0,1,1.29-.47Zm-2.34,4.59c0,.38,0,.86.21,1l.4.32a.89.89,0,0,0,.51.26h.95a1.13,1.13,0,0,0,.66-.33l.77-.66c.2-.17.39-.34.39-.59V55.74c0-.26-.19-.42-.39-.59l-.77-.66a1.15,1.15,0,0,0-.66-.34h-.95a.91.91,0,0,0-.51.27l-.4.32c-.21.17-.21.65-.21,1Z"/><path class="cls-4" d="M122.62,60.36a1.43,1.43,0,0,1-1.21-.37l-.57-.5a1.68,1.68,0,0,1-.69-1.51V55.39a1.76,1.76,0,0,1,.66-1.61l.48-.41a1.79,1.79,0,0,1,1.48-.56H124a1.93,1.93,0,0,1,1.48.49l.55.43a1.92,1.92,0,0,1,.7,1.75v1.08c0,.77-.13,1-.93,1H121.5V58a.72.72,0,0,0,.19.39l.34.36c.18.2.45.25.9.25h2.88c.45,0,.93.1.93.68s-.54.67-.93.67Zm-1.12-4.15h3.89V55.4c0-.25,0-.46-.17-.63l-.51-.45a1,1,0,0,0-.65-.17h-1.13a1,1,0,0,0-.69.16l-.46.33a.62.62,0,0,0-.28.62Z"/><path class="cls-4" d="M134.23,59h1c.45,0,.93.1.93.68s-.53.67-.93.67h-3.41c-.4,0-.93-.08-.93-.67s.48-.68.93-.68h1.06V51.38h-1.06c-.4,0-.93-.08-.93-.67s.48-.67.93-.67h1.41c.77,0,1,.14,1,.93Z"/><path class="cls-5" d="M171.92,313.24h30.66a3.48,3.48,0,0,0,3.48-3.48V285.91a2,2,0,1,0-1,0v23.67a2.66,2.66,0,0,1-2.66,2.66H171.92a.5.5,0,0,0-.5.5A.51.51,0,0,0,171.92,313.24Z"/><path class="cls-5" d="M523.87,321.24H493.21a3.47,3.47,0,0,1-3.47-3.48V285.91a2,2,0,0,1-1.44-2.43,2,2,0,0,1,1.49-1.45,2,2,0,0,1,.95,3.88v31.67a2.66,2.66,0,0,0,2.65,2.66h30.48a.5.5,0,0,1,.5.5A.5.5,0,0,1,523.87,321.24Z"/></svg>