<?xml version="1.0" encoding="utf-8"?>
<!-- Generator: Adobe Illustrator 25.0.0, SVG Export Plug-In . SVG Version: 6.00 Build 0)  -->
<svg version="1.1" id="Layer_1" xmlns="http://www.w3.org/2000/svg" xmlns:xlink="http://www.w3.org/1999/xlink" x="0px" y="0px"
	 viewBox="0 0 580.8 311.4" style="enable-background:new 0 0 580.8 311.4;" xml:space="preserve">
<style type="text/css">
	.st0{fill-rule:evenodd;clip-rule:evenodd;fill-opacity:0;}
	.st1{fill-rule:evenodd;clip-rule:evenodd;fill:#5400D5;}
	.st2{fill:none;stroke:#5400D5;stroke-linejoin:round;stroke-miterlimit:10;}
	.st3{fill:#FFFFFF;}
	.st4{fill:none;stroke:#FF008A;stroke-linejoin:round;stroke-miterlimit:10;stroke-dasharray:1,3;}
	.st5{fill:#FF008A;stroke:#FF008A;stroke-miterlimit:10;}
	.st6{fill-rule:evenodd;clip-rule:evenodd;fill:#FF008A;stroke:#FF008A;stroke-miterlimit:10;}
	.st7{fill:#FF7262;}
	.st8{fill:#A259FF;}
	.st9{fill:#0ACF83;}
	.st10{fill:#1ABCFE;}
	.st11{fill:#FF9B8F;}
	.st12{fill:#F47A56;}
	.st13{fill:#F89C82;}
	.st14{fill:#4BDCA4;}
	.st15{fill:#78E4B9;}
	.st16{fill:#FFC4BD;}
	.st17{fill:#94E0FF;}
	.st18{fill:#95E0FF;}
	.st19{fill:#74E4BB;}
	.st20{fill:#F8AE98;}
	.st21{fill:#9DECCE;}
	.st22{fill:#A7BFFF;}
	.st23{fill:#F24E1E;}
	.st24{fill:#E58FB9;}
	.st25{fill:#A8BEFF;}
</style>
<path class="st0" d="M450.7,94.3h25v125.6H236"/>
<path class="st1" d="M116.8,65.5h112.8l6.4,6.4v31.8l0,0H123.2l-6.4-6.4V65.5z"/>
<path class="st2" d="M116.8,65.5h112.8l6.4,6.4v31.8l0,0H123.2l-6.4-6.4V65.5z"/>
<path class="st3" d="M148.5,82.1v-7.8h2.8c0.4,0,0.8,0,1.2,0.1c0.4,0.1,0.7,0.2,1,0.4c0.3,0.2,0.5,0.5,0.7,0.8
	c0.2,0.3,0.2,0.7,0.2,1.2c0,0.4-0.1,0.8-0.2,1.2c-0.2,0.3-0.4,0.6-0.7,0.8c-0.3,0.2-0.6,0.4-1,0.5c-0.4,0.1-0.8,0.2-1.2,0.2h-1v2.7
	L148.5,82.1L148.5,82.1z M150.2,78.1h0.9c1,0,1.4-0.4,1.4-1.2c0-0.4-0.1-0.7-0.4-0.9c-0.2-0.2-0.6-0.2-1.1-0.2h-0.9L150.2,78.1
	L150.2,78.1z M156.2,82.1v-6h1.4l0.1,1.3l0,0c0.3-0.5,0.6-0.8,1.1-1.1c0.4-0.2,0.9-0.4,1.3-0.4c0.3,0,0.5,0,0.6,0.1
	c0.2,0,0.3,0.1,0.5,0.2l-0.4,1.5c-0.2-0.1-0.4-0.1-0.5-0.1c-0.1,0-0.3,0-0.6,0c-0.4,0-0.7,0.1-1.1,0.3c-0.4,0.2-0.7,0.6-0.9,1.1v3.1
	H156.2z M165.6,82.3c-0.4,0-0.8-0.1-1.1-0.2c-0.4-0.1-0.7-0.3-1-0.6c-0.3-0.3-0.5-0.6-0.7-1s-0.2-0.8-0.2-1.3s0.1-0.9,0.2-1.3
	c0.2-0.4,0.4-0.7,0.7-1c0.3-0.3,0.6-0.5,1-0.6c0.4-0.1,0.7-0.2,1.1-0.2s0.8,0.1,1.1,0.2c0.4,0.1,0.7,0.3,1,0.6
	c0.3,0.3,0.5,0.6,0.7,1c0.2,0.4,0.3,0.8,0.3,1.3s-0.1,0.9-0.3,1.3c-0.2,0.4-0.4,0.7-0.7,1s-0.6,0.5-1,0.6
	C166.4,82.2,166,82.3,165.6,82.3z M165.6,80.8c0.4,0,0.7-0.2,0.9-0.5c0.2-0.3,0.3-0.7,0.3-1.2s-0.1-0.9-0.3-1.2
	c-0.2-0.3-0.5-0.5-0.9-0.5c-0.4,0-0.7,0.2-0.9,0.5s-0.3,0.7-0.3,1.2s0.1,0.9,0.3,1.2C164.9,80.7,165.2,80.8,165.6,80.8z M171.5,84.5
	c-0.4,0-0.7,0-1-0.1c-0.3-0.1-0.6-0.2-0.8-0.3l0.5-1.2c0.2,0.1,0.5,0.2,0.7,0.2s0.4,0.1,0.6,0.1c0.4,0,0.7-0.1,0.9-0.3
	c0.2-0.2,0.2-0.5,0.2-0.9v-4.3h-2.4v-1.4h4.1v5.6c0,0.4,0,0.7-0.1,1c-0.1,0.3-0.2,0.6-0.4,0.9c-0.2,0.2-0.5,0.4-0.9,0.6
	C172.5,84.4,172.1,84.5,171.5,84.5z M173.8,75.2c-0.3,0-0.6-0.1-0.8-0.3c-0.2-0.2-0.3-0.5-0.3-0.8s0.1-0.6,0.3-0.8
	c0.2-0.2,0.5-0.3,0.8-0.3s0.6,0.1,0.8,0.3c0.2,0.2,0.3,0.5,0.3,0.8s-0.1,0.6-0.3,0.8C174.4,75.1,174.1,75.2,173.8,75.2z M180.3,82.3
	c-0.5,0-0.9-0.1-1.3-0.2s-0.8-0.3-1.1-0.6c-0.3-0.3-0.5-0.6-0.7-1c-0.2-0.4-0.3-0.8-0.2-1.3c0-0.5,0.1-0.9,0.2-1.3
	c0.2-0.4,0.4-0.7,0.7-1s0.6-0.5,1-0.6c0.4-0.1,0.8-0.2,1.2-0.2c0.5,0,0.9,0.1,1.2,0.2c0.4,0.1,0.6,0.3,0.9,0.6
	c0.2,0.2,0.4,0.5,0.5,0.9c0.1,0.3,0.2,0.7,0.2,1.1c0,0.2,0,0.3,0,0.5c0,0.1,0,0.3,0,0.3h-4.1c0.1,0.4,0.3,0.8,0.6,1
	c0.3,0.2,0.7,0.3,1.2,0.3c0.3,0,0.5,0,0.8-0.1c0.2-0.1,0.5-0.2,0.8-0.3l0.6,1.1c-0.3,0.2-0.7,0.4-1.1,0.5
	C181.2,82.2,180.7,82.3,180.3,82.3z M180.2,77.4c-0.4,0-0.7,0.1-0.9,0.3s-0.4,0.5-0.5,0.8h2.5C181.3,77.7,180.9,77.4,180.2,77.4z
	 M187.7,82.3c-0.5,0-0.9-0.1-1.3-0.2c-0.4-0.1-0.7-0.3-1-0.6c-0.3-0.3-0.5-0.6-0.7-1c-0.2-0.4-0.2-0.8-0.2-1.3s0.1-0.9,0.3-1.3
	c0.2-0.4,0.5-0.7,0.8-1c0.3-0.3,0.7-0.5,1.1-0.6s0.9-0.2,1.3-0.2c0.5,0,0.9,0.1,1.3,0.2s0.7,0.3,1,0.6l-0.8,1.1
	c-0.4-0.3-0.9-0.5-1.3-0.5c-0.5,0-0.9,0.2-1.2,0.5c-0.3,0.3-0.5,0.7-0.5,1.2s0.2,0.9,0.5,1.2c0.3,0.3,0.7,0.5,1.2,0.5
	c0.3,0,0.6-0.1,0.9-0.2c0.3-0.1,0.5-0.2,0.7-0.4l0.7,1.1c-0.4,0.3-0.8,0.5-1.2,0.7C188.5,82.2,188.1,82.3,187.7,82.3z M195.4,82.3
	c-0.5,0-0.9-0.1-1.2-0.2c-0.3-0.1-0.6-0.3-0.8-0.5c-0.2-0.2-0.3-0.5-0.4-0.8s-0.1-0.7-0.1-1.1v-2.1h-1.5v-1.3l1.6-0.1l0.2-1.8h1.5
	v1.8h2.5v1.4h-2.5v2.1c0,0.5,0.1,0.8,0.3,1c0.2,0.2,0.5,0.3,1,0.3c0.2,0,0.4,0,0.6-0.1c0.2,0,0.4-0.1,0.5-0.2l0.3,1.3
	c-0.3,0.1-0.6,0.2-0.9,0.2C196.2,82.2,195.8,82.3,195.4,82.3z M201.5,82.3c-0.5,0-1.1-0.1-1.6-0.3c-0.5-0.2-1-0.4-1.3-0.6l0.8-1.1
	c0.4,0.2,0.7,0.4,1.1,0.5s0.8,0.2,1.3,0.2c0.3,0,0.6,0,0.7-0.1c0.2-0.1,0.2-0.2,0.2-0.4c0-0.1,0-0.1-0.1-0.2c0-0.1-0.1-0.1-0.2-0.2
	c-0.1-0.1-0.2-0.1-0.4-0.2c-0.2-0.1-0.4-0.1-0.7-0.2c-0.8-0.2-1.4-0.4-1.8-0.7c-0.3-0.3-0.5-0.7-0.5-1.1c0-0.3,0.1-0.5,0.2-0.8
	c0.1-0.2,0.3-0.4,0.5-0.6s0.5-0.3,0.9-0.4c0.3-0.1,0.7-0.1,1.2-0.1s1,0.1,1.5,0.3c0.4,0.2,0.8,0.3,1.1,0.5l-0.8,1.1
	c-0.3-0.2-0.6-0.3-1-0.4c-0.3-0.1-0.7-0.1-1-0.1c-0.3,0-0.5,0-0.6,0.1s-0.2,0.2-0.2,0.3c0,0.2,0.1,0.3,0.3,0.4
	c0.2,0.1,0.6,0.2,1.1,0.3s0.8,0.2,1.1,0.3c0.3,0.1,0.5,0.2,0.7,0.4c0.2,0.1,0.3,0.3,0.4,0.5c0.1,0.2,0.1,0.4,0.1,0.6
	c0,0.3-0.1,0.5-0.2,0.8c-0.1,0.2-0.3,0.4-0.6,0.6c-0.2,0.2-0.5,0.3-0.9,0.4S202,82.3,201.5,82.3z"/>
<path class="st3" d="M141.1,96.1v-7.8h1.8l0.8,2.8l0.3,1.1l0,0l0.3-1.1l0.8-2.8h1.8v7.8h-1.5v-2.4c0-0.2,0-0.5,0-0.8s0-0.7,0.1-1
	c0-0.3,0.1-0.7,0.1-1s0.1-0.6,0.1-0.8l0,0l-0.6,2.1l-0.7,1.8h-0.9l-0.6-1.9l-0.6-2.1l0,0c0,0.2,0,0.5,0.1,0.8c0,0.3,0.1,0.7,0.1,1
	s0,0.7,0,1s0,0.6,0,0.8V96L141.1,96.1C141.1,96,141.1,96.1,141.1,96.1z M150.3,96.3c-0.3,0-0.6,0-0.8-0.1c-0.2-0.1-0.4-0.2-0.6-0.4
	c-0.2-0.2-0.3-0.4-0.4-0.6s-0.2-0.5-0.2-0.7c0-0.3,0.1-0.6,0.2-0.9s0.4-0.5,0.7-0.6c0.3-0.2,0.7-0.3,1.2-0.4s1.1-0.2,1.8-0.2
	c0-0.3-0.2-0.5-0.4-0.6c-0.2-0.2-0.5-0.2-0.9-0.2c-0.3,0-0.6,0.1-0.9,0.2s-0.6,0.2-0.9,0.4l-0.6-1.2c0.4-0.2,0.8-0.4,1.3-0.6
	s1-0.2,1.5-0.2c0.8,0,1.5,0.2,2,0.7s0.7,1.1,0.7,2v3.4h-1.4l-0.1-0.7l0,0c-0.3,0.2-0.6,0.4-1,0.6C151,96.2,150.7,96.3,150.3,96.3z
	 M150.8,94.9c0.3,0,0.5-0.1,0.7-0.2c0.2-0.1,0.5-0.2,0.7-0.4v-1c-0.4,0-0.8,0.1-1.1,0.1c-0.3,0.1-0.5,0.1-0.7,0.2s-0.3,0.2-0.4,0.3
	c-0.1,0.1-0.1,0.2-0.1,0.4c0,0.2,0.1,0.3,0.2,0.4C150.4,94.9,150.6,94.9,150.8,94.9z M155.6,96.1v-6h1.4l0.1,0.8l0,0
	c0.3-0.3,0.6-0.5,0.9-0.7s0.7-0.3,1.2-0.3c0.7,0,1.2,0.2,1.5,0.7c0.3,0.4,0.5,1,0.5,1.8v3.7h-1.8v-3.4c0-0.4-0.1-0.7-0.2-0.9
	c-0.1-0.2-0.3-0.3-0.7-0.3c-0.2,0-0.5,0.1-0.6,0.2c-0.2,0.1-0.4,0.3-0.6,0.5v4L155.6,96.1C155.6,96.2,155.6,96.1,155.6,96.1z
	 M164.7,96.3c-0.3,0-0.6,0-0.8-0.1s-0.4-0.2-0.6-0.4s-0.3-0.4-0.4-0.6c-0.1-0.2-0.1-0.5-0.1-0.7c0-0.3,0.1-0.6,0.2-0.9
	s0.4-0.5,0.7-0.6c0.3-0.2,0.7-0.3,1.2-0.4s1.1-0.2,1.8-0.2c0-0.3-0.2-0.5-0.4-0.6c-0.2-0.2-0.5-0.2-0.9-0.2c-0.3,0-0.6,0.1-0.9,0.2
	s-0.6,0.2-0.9,0.4L163,91c0.4-0.2,0.8-0.4,1.3-0.6s1-0.2,1.5-0.2c0.8,0,1.5,0.2,2,0.7s0.7,1.1,0.7,2v3.4h-1.4l-0.1-0.7l0,0
	c-0.3,0.2-0.6,0.4-1,0.6C165.4,96.2,165.1,96.3,164.7,96.3z M165.2,94.9c0.3,0,0.5-0.1,0.7-0.2s0.5-0.2,0.7-0.4v-1
	c-0.4,0-0.8,0.1-1.1,0.1c-0.3,0.1-0.5,0.1-0.7,0.2s-0.3,0.2-0.4,0.3c-0.1,0.1-0.1,0.2-0.1,0.4c0,0.2,0.1,0.3,0.2,0.4
	C164.8,94.9,165,94.9,165.2,94.9z M172.5,98.7c-0.4,0-0.7,0-1.1-0.1c-0.3-0.1-0.6-0.1-0.9-0.3c-0.2-0.1-0.4-0.3-0.6-0.5
	c-0.1-0.2-0.2-0.4-0.2-0.7c0-0.5,0.3-0.9,0.9-1.2l0,0c-0.2-0.1-0.3-0.2-0.4-0.4c-0.1-0.2-0.2-0.4-0.2-0.6s0.1-0.4,0.2-0.6
	c0.1-0.2,0.3-0.4,0.5-0.5l0,0c-0.2-0.1-0.4-0.3-0.6-0.6c-0.1-0.3-0.2-0.6-0.2-0.9c0-0.4,0.1-0.7,0.2-0.9c0.1-0.3,0.3-0.5,0.6-0.7
	c0.2-0.2,0.5-0.3,0.8-0.4c0.3-0.1,0.6-0.1,1-0.1c0.4,0,0.7,0,1,0.1h2.4v1.3h-1.2c0.1,0.1,0.1,0.2,0.2,0.3c0.1,0.1,0.1,0.3,0.1,0.4
	c0,0.3-0.1,0.6-0.2,0.9c-0.1,0.3-0.3,0.5-0.5,0.6c-0.2,0.2-0.5,0.3-0.8,0.4c-0.3,0.1-0.6,0.1-1,0.1c-0.3,0-0.5,0-0.8-0.1
	c-0.1,0.1-0.2,0.1-0.2,0.2s-0.1,0.1-0.1,0.2c0,0.2,0.1,0.3,0.2,0.4c0.2,0.1,0.4,0.1,0.8,0.1h1.1c0.8,0,1.4,0.1,1.8,0.3
	c0.4,0.2,0.6,0.6,0.6,1.2c0,0.3-0.1,0.6-0.2,0.9c-0.2,0.3-0.4,0.5-0.7,0.7s-0.7,0.3-1.1,0.4C173.5,98.6,173,98.7,172.5,98.7z
	 M172.6,93.2c0.2,0,0.5-0.1,0.6-0.2c0.2-0.2,0.3-0.4,0.3-0.8c0-0.3-0.1-0.6-0.3-0.7c-0.2-0.2-0.4-0.2-0.6-0.2s-0.5,0.1-0.6,0.2
	c-0.2,0.2-0.2,0.4-0.2,0.7s0.1,0.6,0.2,0.8C172.1,93.1,172.4,93.2,172.6,93.2z M172.8,97.5c0.5,0,0.9-0.1,1.2-0.2
	c0.3-0.1,0.5-0.3,0.5-0.5s-0.1-0.3-0.3-0.4c-0.2-0.1-0.4-0.1-0.8-0.1h-0.8c-0.2,0-0.4,0-0.5,0s-0.3,0-0.4-0.1
	c-0.2,0.1-0.3,0.2-0.3,0.3s-0.1,0.3-0.1,0.4c0,0.2,0.1,0.4,0.4,0.5C171.9,97.5,172.3,97.5,172.8,97.5z M180.3,96.3
	c-0.5,0-0.9-0.1-1.3-0.2s-0.8-0.3-1.1-0.6c-0.3-0.3-0.5-0.6-0.7-1c-0.2-0.4-0.3-0.8-0.2-1.3c0-0.5,0.1-0.9,0.2-1.3
	c0.2-0.4,0.4-0.7,0.7-1s0.6-0.5,1-0.6c0.4-0.1,0.8-0.2,1.2-0.2c0.5,0,0.9,0.1,1.2,0.2c0.4,0.1,0.6,0.3,0.9,0.6
	c0.2,0.2,0.4,0.5,0.5,0.9c0.1,0.3,0.2,0.7,0.2,1.1c0,0.2,0,0.3,0,0.5c0,0.1,0,0.3,0,0.3h-4.1c0.1,0.4,0.3,0.8,0.6,1
	c0.3,0.2,0.7,0.3,1.2,0.3c0.3,0,0.5,0,0.8-0.1c0.2-0.1,0.5-0.2,0.8-0.3l0.6,1.1c-0.3,0.2-0.7,0.4-1.1,0.5
	C181.2,96.2,180.7,96.3,180.3,96.3z M180.2,91.4c-0.4,0-0.7,0.1-0.9,0.3s-0.4,0.5-0.5,0.8h2.5C181.3,91.7,180.9,91.4,180.2,91.4z
	 M184,96.1v-6h1.3l0.1,0.7l0,0c0.1-0.2,0.3-0.4,0.5-0.6c0.2-0.2,0.5-0.3,0.8-0.3c0.3,0,0.5,0.1,0.7,0.2c0.2,0.2,0.3,0.4,0.4,0.7
	c0.1-0.3,0.3-0.5,0.5-0.7s0.5-0.3,0.8-0.3c0.4,0,0.8,0.2,1,0.5s0.3,0.8,0.3,1.4v4.2h-1.7v-4.1c0-0.2,0-0.3-0.1-0.4
	c0-0.1-0.1-0.1-0.2-0.1c-0.1,0-0.2,0-0.3,0.1c-0.1,0.1-0.2,0.2-0.2,0.4v4h-1.4v-4.1c0-0.4-0.1-0.5-0.3-0.5c-0.1,0-0.2,0-0.3,0.1
	c-0.1,0.1-0.2,0.2-0.2,0.4v4H184L184,96.1L184,96.1z M194.7,96.3c-0.5,0-0.9-0.1-1.3-0.2c-0.4-0.1-0.8-0.3-1.1-0.6
	c-0.3-0.3-0.5-0.6-0.7-1s-0.2-0.8-0.2-1.3s0.1-0.9,0.2-1.3c0.2-0.4,0.4-0.7,0.7-1s0.6-0.5,1-0.6s0.8-0.2,1.2-0.2
	c0.5,0,0.9,0.1,1.2,0.2c0.4,0.1,0.6,0.3,0.9,0.6c0.2,0.2,0.4,0.5,0.5,0.9c0.1,0.3,0.2,0.7,0.2,1.1c0,0.2,0,0.3,0,0.5
	c0,0.1,0,0.3,0,0.3h-4.1c0.1,0.4,0.3,0.8,0.6,1c0.3,0.2,0.7,0.3,1.2,0.3c0.3,0,0.5,0,0.8-0.1c0.2-0.1,0.5-0.2,0.8-0.3l0.6,1.1
	c-0.3,0.2-0.7,0.4-1.1,0.5C195.7,96.3,195.2,96.3,194.7,96.3z M194.6,91.4c-0.4,0-0.7,0.1-0.9,0.3c-0.2,0.2-0.4,0.5-0.5,0.8h2.5
	C195.7,91.7,195.3,91.4,194.6,91.4z M198.9,96.1v-6h1.4l0.1,0.8l0,0c0.3-0.3,0.6-0.5,0.9-0.7s0.7-0.3,1.2-0.3c0.7,0,1.2,0.2,1.5,0.7
	c0.3,0.4,0.5,1,0.5,1.8v3.7h-1.8v-3.4c0-0.4-0.1-0.7-0.2-0.9c-0.1-0.2-0.3-0.3-0.7-0.3c-0.2,0-0.5,0.1-0.6,0.2
	c-0.2,0.1-0.4,0.3-0.6,0.5v4L198.9,96.1C198.9,96.2,198.9,96.1,198.9,96.1z M209.8,96.3c-0.5,0-0.9-0.1-1.2-0.2
	c-0.3-0.1-0.6-0.3-0.8-0.5s-0.3-0.5-0.4-0.8c-0.1-0.4-0.1-0.8-0.1-1.1v-2.1h-1.5v-1.3l1.6-0.1l0.2-1.8h1.5v1.8h2.5v1.4h-2.5v2.1
	c0,0.5,0.1,0.8,0.3,1c0.2,0.2,0.5,0.3,1,0.3c0.2,0,0.4,0,0.6-0.1c0.2,0,0.4-0.1,0.5-0.2l0.3,1.3c-0.3,0.1-0.6,0.2-0.9,0.2
	C210.6,96.2,210.2,96.3,209.8,96.3z"/>
<path class="st2" d="M287.4,65.5H441l9.6,9.6V123l0,0H297l-9.6-9.6L287.4,65.5L287.4,65.5z"/>
<path class="st3" d="M312.2,91.8V84h2.2c0.6,0,1.1,0.1,1.5,0.2c0.5,0.1,0.9,0.4,1.2,0.7c0.3,0.3,0.6,0.7,0.8,1.2s0.3,1.1,0.3,1.7
	c0,0.7-0.1,1.3-0.3,1.8s-0.4,0.9-0.8,1.2c-0.3,0.3-0.7,0.6-1.2,0.7c-0.4,0.2-0.9,0.2-1.5,0.2L312.2,91.8L312.2,91.8z M314.1,90.4
	h0.3c0.3,0,0.6,0,0.8-0.1s0.5-0.2,0.6-0.4c0.2-0.2,0.3-0.5,0.4-0.8c0.1-0.3,0.2-0.7,0.2-1.2s-0.1-0.8-0.2-1.2
	c-0.1-0.3-0.2-0.6-0.4-0.8c-0.2-0.2-0.4-0.3-0.6-0.4s-0.5-0.1-0.8-0.1h-0.3V90.4z M322.2,91.9c-0.4,0-0.8-0.1-1.1-0.2
	c-0.4-0.1-0.7-0.3-1-0.6c-0.3-0.3-0.5-0.6-0.7-1s-0.2-0.8-0.2-1.3s0.1-0.9,0.2-1.3c0.2-0.4,0.4-0.7,0.7-1c0.3-0.3,0.6-0.5,1-0.6
	c0.4-0.1,0.7-0.2,1.1-0.2c0.4,0,0.8,0.1,1.1,0.2c0.4,0.1,0.7,0.3,1,0.6c0.3,0.3,0.5,0.6,0.7,1s0.3,0.8,0.3,1.3s-0.1,0.9-0.3,1.3
	s-0.4,0.7-0.7,1c-0.3,0.3-0.6,0.5-1,0.6C323,91.8,322.6,91.9,322.2,91.9z M322.2,90.5c0.4,0,0.7-0.2,0.9-0.5
	c0.2-0.3,0.3-0.7,0.3-1.2s-0.1-0.9-0.3-1.2c-0.2-0.3-0.5-0.5-0.9-0.5c-0.4,0-0.7,0.2-0.9,0.5c-0.2,0.3-0.3,0.7-0.3,1.2
	s0.1,0.9,0.3,1.2C321.5,90.3,321.8,90.5,322.2,90.5z M326.9,91.8l-1-6h1.7l0.4,2.8c0,0.3,0.1,0.6,0.1,0.9s0.1,0.6,0.1,0.9l0,0
	c0-0.3,0.1-0.6,0.1-0.9s0.1-0.6,0.2-0.9l0.4-2h1.3l0.4,2c0.1,0.3,0.1,0.6,0.2,0.9c0.1,0.3,0.1,0.6,0.1,0.9l0,0
	c0-0.3,0.1-0.6,0.1-0.9s0-0.6,0.1-0.9l0.3-2.8h1.6l-0.9,6H330l-0.3-1.9c0-0.2-0.1-0.5-0.1-0.8s-0.1-0.6-0.1-1l0,0
	c0,0.3-0.1,0.5-0.1,0.8s-0.1,0.6-0.1,1l-0.3,1.9H326.9z M333.9,91.8v-6h1.4l0.1,0.8l0,0c0.3-0.3,0.6-0.5,0.9-0.7
	c0.3-0.2,0.7-0.3,1.2-0.3c0.7,0,1.2,0.2,1.5,0.7c0.3,0.4,0.5,1,0.5,1.8v3.7h-1.8v-3.4c0-0.4-0.1-0.7-0.2-0.9
	c-0.1-0.2-0.3-0.3-0.7-0.3c-0.2,0-0.5,0.1-0.6,0.2c-0.2,0.1-0.4,0.3-0.6,0.5v4L333.9,91.8L333.9,91.8L333.9,91.8z M345,91.9
	c-0.8,0-1.3-0.2-1.7-0.7c-0.4-0.4-0.6-1.1-0.6-1.8v-4.7h-1.9v-1.4h3.6v6.2c0,0.2,0,0.3,0.1,0.5c0.1,0.1,0.1,0.2,0.2,0.3
	c0.1,0.1,0.2,0.1,0.3,0.2c0.1,0,0.2,0,0.4,0c0.1,0,0.3,0,0.4,0c0.2,0,0.3-0.1,0.5-0.1l0.4,1.3c-0.2,0.1-0.3,0.1-0.5,0.1
	c-0.1,0-0.3,0.1-0.4,0.1c-0.1,0-0.3,0.1-0.4,0.1C345.2,91.9,345.2,91.9,345,91.9z M351,91.9c-0.4,0-0.8-0.1-1.1-0.2
	c-0.4-0.1-0.7-0.3-1-0.6c-0.3-0.3-0.5-0.6-0.7-1c-0.2-0.4-0.2-0.8-0.2-1.3s0.1-0.9,0.2-1.3c0.2-0.4,0.4-0.7,0.7-1s0.6-0.5,1-0.6
	s0.7-0.2,1.1-0.2c0.4,0,0.8,0.1,1.1,0.2c0.4,0.1,0.7,0.3,1,0.6c0.3,0.3,0.5,0.6,0.7,1c0.2,0.4,0.3,0.8,0.3,1.3s-0.1,0.9-0.3,1.3
	c-0.2,0.4-0.4,0.7-0.7,1s-0.6,0.5-1,0.6C351.8,91.8,351.4,91.9,351,91.9z M351,90.5c0.4,0,0.7-0.2,0.9-0.5s0.3-0.7,0.3-1.2
	s-0.1-0.9-0.3-1.2c-0.2-0.3-0.5-0.5-0.9-0.5s-0.7,0.2-0.9,0.5s-0.3,0.7-0.3,1.2s0.1,0.9,0.3,1.2C350.2,90.3,350.6,90.5,351,90.5z
	 M357.2,91.9c-0.3,0-0.6,0-0.8-0.1s-0.4-0.2-0.6-0.4c-0.2-0.2-0.3-0.4-0.4-0.6c-0.1-0.2-0.1-0.5-0.1-0.7c0-0.3,0.1-0.6,0.2-0.9
	c0.1-0.3,0.4-0.5,0.7-0.6c0.3-0.2,0.7-0.3,1.2-0.4s1.1-0.2,1.8-0.2c0-0.3-0.2-0.5-0.4-0.6c-0.2-0.2-0.5-0.2-0.9-0.2
	c-0.3,0-0.6,0.1-0.9,0.2c-0.3,0.1-0.6,0.2-0.9,0.4l-0.6-1.2c0.4-0.2,0.8-0.4,1.3-0.6s1-0.2,1.5-0.2c0.8,0,1.5,0.2,2,0.7
	c0.5,0.4,0.7,1.1,0.7,2v3.4h-1.4l-0.1-0.7l0,0c-0.3,0.2-0.6,0.4-1,0.6C358.1,91.8,357.7,91.9,357.2,91.9z M357.9,90.6
	c0.3,0,0.5-0.1,0.7-0.2s0.5-0.2,0.7-0.4v-1c-0.4,0-0.8,0.1-1.1,0.1c-0.3,0.1-0.5,0.1-0.7,0.2s-0.3,0.2-0.4,0.3
	c-0.1,0.1-0.1,0.2-0.1,0.4c0,0.2,0.1,0.3,0.2,0.4C357.4,90.5,357.6,90.6,357.9,90.6z M364.9,91.9c-0.4,0-0.7-0.1-1-0.2
	c-0.3-0.1-0.6-0.4-0.8-0.6c-0.2-0.3-0.4-0.6-0.5-1s-0.2-0.8-0.2-1.3s0.1-0.9,0.2-1.3s0.3-0.7,0.6-1c0.2-0.3,0.5-0.5,0.8-0.6
	c0.3-0.1,0.6-0.2,1-0.2c0.4,0,0.6,0.1,0.8,0.2s0.5,0.3,0.7,0.5l0,0l-0.1-0.9v-2h1.8v8.4h-1.5l-0.1-0.6l0,0c-0.2,0.2-0.5,0.4-0.8,0.5
	C365.5,91.8,365.2,91.9,364.9,91.9z M365.4,90.5c0.2,0,0.4,0,0.5-0.1c0.2-0.1,0.3-0.2,0.5-0.4v-2.4c-0.2-0.1-0.3-0.2-0.5-0.3
	c-0.2-0.1-0.3-0.1-0.5-0.1c-0.3,0-0.6,0.1-0.9,0.4c-0.2,0.3-0.3,0.7-0.3,1.2c0,0.6,0.1,1,0.3,1.3C364.7,90.3,365,90.5,365.4,90.5z
	 M377.2,91.8V84h2.8c0.4,0,0.8,0,1.2,0.1c0.4,0.1,0.7,0.2,1,0.4c0.3,0.2,0.5,0.5,0.7,0.8s0.2,0.7,0.2,1.2c0,0.4-0.1,0.8-0.2,1.2
	c-0.2,0.3-0.4,0.6-0.7,0.8c-0.3,0.2-0.6,0.4-1,0.5c-0.4,0.1-0.8,0.2-1.2,0.2h-1v2.7L377.2,91.8L377.2,91.8z M378.9,87.7h0.9
	c1,0,1.4-0.4,1.4-1.2c0-0.4-0.1-0.7-0.4-0.9c-0.2-0.2-0.6-0.2-1.1-0.2h-0.9v2.3C378.8,87.7,378.9,87.7,378.9,87.7z M384.8,91.8v-6
	h1.4l0.1,1.3l0,0c0.3-0.5,0.6-0.8,1.1-1.1c0.4-0.2,0.9-0.4,1.3-0.4c0.3,0,0.5,0,0.6,0.1c0.2,0,0.3,0.1,0.5,0.2l-0.4,1.5
	c-0.2-0.1-0.4-0.1-0.5-0.1c-0.1,0-0.3,0-0.6,0c-0.4,0-0.7,0.1-1.1,0.3c-0.4,0.2-0.7,0.6-0.9,1.1v3.1H384.8z M394.2,91.9
	c-0.4,0-0.8-0.1-1.1-0.2c-0.4-0.1-0.7-0.3-1-0.6c-0.3-0.3-0.5-0.6-0.7-1s-0.3-0.8-0.2-1.3c0-0.5,0.1-0.9,0.2-1.3
	c0.2-0.4,0.4-0.7,0.7-1s0.6-0.5,1-0.6c0.4-0.1,0.7-0.2,1.1-0.2c0.4,0,0.8,0.1,1.1,0.2c0.4,0.1,0.7,0.3,1,0.6c0.3,0.3,0.5,0.6,0.7,1
	s0.3,0.8,0.3,1.3s-0.1,0.9-0.3,1.3s-0.4,0.7-0.7,1c-0.3,0.3-0.6,0.5-1,0.6C395,91.8,394.5,91.9,394.2,91.9z M394.2,90.5
	c0.4,0,0.7-0.2,0.9-0.5c0.2-0.3,0.3-0.7,0.3-1.2s-0.1-0.9-0.3-1.2c-0.2-0.3-0.5-0.5-0.9-0.5c-0.4,0-0.7,0.2-0.9,0.5
	s-0.3,0.7-0.3,1.2s0.1,0.9,0.3,1.2C393.5,90.3,393.8,90.5,394.2,90.5z M400.2,94.1c-0.4,0-0.7,0-1-0.1s-0.6-0.2-0.8-0.3l0.5-1.2
	c0.2,0.1,0.5,0.2,0.7,0.2s0.4,0.1,0.6,0.1c0.4,0,0.7-0.1,0.9-0.3c0.2-0.2,0.2-0.5,0.2-0.9v-4.3h-2.4v-1.4h4.1v5.6c0,0.4,0,0.7-0.1,1
	c-0.1,0.3-0.2,0.6-0.4,0.9c-0.2,0.2-0.5,0.4-0.9,0.6C401.2,94.1,400.7,94.1,400.2,94.1z M402.4,84.9c-0.3,0-0.6-0.1-0.8-0.3
	c-0.2-0.2-0.3-0.5-0.3-0.8s0.1-0.6,0.3-0.8c0.2-0.2,0.5-0.3,0.8-0.3s0.6,0.1,0.8,0.3c0.2,0.2,0.3,0.5,0.3,0.8s-0.1,0.6-0.3,0.8
	C403,84.8,402.8,84.9,402.4,84.9z M409,91.9c-0.5,0-0.9-0.1-1.3-0.2c-0.4-0.1-0.8-0.3-1.1-0.6c-0.3-0.3-0.5-0.6-0.7-1
	s-0.2-0.8-0.2-1.3s0.1-0.9,0.2-1.3c0.2-0.4,0.4-0.7,0.7-1c0.3-0.3,0.6-0.5,1-0.6c0.4-0.1,0.8-0.2,1.2-0.2c0.5,0,0.9,0.1,1.2,0.2
	c0.4,0.1,0.6,0.3,0.9,0.6c0.2,0.2,0.4,0.5,0.5,0.9c0.1,0.3,0.2,0.7,0.2,1.1c0,0.2,0,0.3,0,0.5c0,0.1,0,0.3,0,0.3h-4.1
	c0.1,0.4,0.3,0.8,0.6,1s0.7,0.3,1.2,0.3c0.3,0,0.5,0,0.8-0.1c0.2-0.1,0.5-0.2,0.8-0.3l0.6,1.1c-0.3,0.2-0.7,0.4-1.1,0.5
	C409.8,91.9,409.4,91.9,409,91.9z M408.9,87c-0.4,0-0.7,0.1-0.9,0.3c-0.2,0.2-0.4,0.5-0.5,0.8h2.5C410,87.4,409.5,87,408.9,87z
	 M416.4,91.9c-0.5,0-0.9-0.1-1.3-0.2c-0.4-0.1-0.7-0.3-1-0.6c-0.3-0.3-0.5-0.6-0.7-1s-0.2-0.8-0.2-1.3s0.1-0.9,0.3-1.3
	s0.5-0.7,0.8-1s0.7-0.5,1.1-0.6c0.4-0.1,0.9-0.2,1.3-0.2c0.5,0,0.9,0.1,1.3,0.2c0.4,0.1,0.7,0.3,1,0.6l-0.8,1.1
	c-0.4-0.3-0.9-0.5-1.3-0.5c-0.5,0-0.9,0.2-1.2,0.5c-0.3,0.3-0.5,0.7-0.5,1.2s0.2,0.9,0.5,1.2c0.3,0.3,0.7,0.5,1.2,0.5
	c0.3,0,0.6-0.1,0.9-0.2s0.5-0.2,0.7-0.4l0.7,1.1c-0.4,0.3-0.8,0.5-1.2,0.7C417.2,91.8,416.8,91.9,416.4,91.9z M424,91.9
	c-0.5,0-0.9-0.1-1.2-0.2c-0.3-0.1-0.6-0.3-0.8-0.5s-0.3-0.5-0.4-0.8c-0.1-0.3-0.1-0.7-0.1-1.1v-2.1H420v-1.3l1.6-0.1l0.2-1.8h1.5
	v1.8h2.5v1.4h-2.6v2.1c0,0.5,0.1,0.8,0.3,1c0.2,0.2,0.5,0.3,1,0.3c0.2,0,0.4,0,0.6-0.1c0.2,0,0.4-0.1,0.5-0.2l0.3,1.3
	c-0.3,0.1-0.6,0.2-0.9,0.2C424.9,91.9,424.5,91.9,424,91.9z"/>
<path class="st3" d="M335.6,105.8v-4.6H334v-1.3l1.6-0.1v-0.2c0-0.3,0.1-0.7,0.2-1c0.1-0.3,0.3-0.6,0.5-0.8c0.2-0.2,0.5-0.4,0.8-0.5
	s0.7-0.2,1.2-0.2c0.3,0,0.7,0,1,0.1c0.3,0.1,0.6,0.1,0.8,0.2l-0.3,1.3c-0.4-0.1-0.8-0.2-1.2-0.2s-0.7,0.1-0.9,0.2
	c-0.2,0.2-0.3,0.4-0.3,0.8v0.2h2.1v1.4h-2.1v4.6L335.6,105.8L335.6,105.8z M341.6,105.8v-6h1.4l0.1,1.3l0,0c0.3-0.5,0.6-0.8,1.1-1.1
	c0.4-0.2,0.9-0.4,1.3-0.4c0.3,0,0.5,0,0.6,0.1c0.2,0,0.3,0.1,0.5,0.2l-0.4,1.5c-0.2-0.1-0.4-0.1-0.5-0.1c-0.1,0-0.3,0-0.6,0
	c-0.4,0-0.7,0.1-1.1,0.3c-0.4,0.2-0.7,0.6-0.9,1.1v3.1C343.1,105.8,341.6,105.8,341.6,105.8z M351,105.9c-0.4,0-0.8-0.1-1.1-0.2
	c-0.4-0.1-0.7-0.3-1-0.6c-0.3-0.3-0.5-0.6-0.7-1c-0.2-0.4-0.2-0.8-0.2-1.3s0.1-0.9,0.2-1.3c0.2-0.4,0.4-0.7,0.7-1s0.6-0.5,1-0.6
	s0.7-0.2,1.1-0.2c0.4,0,0.8,0.1,1.1,0.2c0.4,0.1,0.7,0.3,1,0.6c0.3,0.3,0.5,0.6,0.7,1c0.2,0.4,0.3,0.8,0.3,1.3s-0.1,0.9-0.3,1.3
	c-0.2,0.4-0.4,0.7-0.7,1s-0.6,0.5-1,0.6C351.8,105.8,351.4,105.9,351,105.9z M351,104.5c0.4,0,0.7-0.2,0.9-0.5s0.3-0.7,0.3-1.2
	s-0.1-0.9-0.3-1.2c-0.2-0.3-0.5-0.5-0.9-0.5s-0.7,0.2-0.9,0.5s-0.3,0.7-0.3,1.2s0.1,0.9,0.3,1.2C350.2,104.3,350.6,104.5,351,104.5z
	 M355.1,105.8v-6h1.3l0.1,0.7l0,0c0.1-0.2,0.3-0.4,0.5-0.6c0.2-0.2,0.5-0.3,0.8-0.3s0.5,0.1,0.7,0.2c0.2,0.2,0.3,0.4,0.4,0.7
	c0.1-0.3,0.3-0.5,0.5-0.7c0.2-0.2,0.5-0.3,0.8-0.3c0.4,0,0.8,0.2,1,0.5s0.3,0.8,0.3,1.4v4.2h-1.7v-4.1c0-0.2,0-0.3-0.1-0.4
	c0-0.1-0.1-0.1-0.2-0.1c-0.1,0-0.2,0-0.3,0.1s-0.2,0.2-0.2,0.4v4h-1.4v-4.1c0-0.4-0.1-0.5-0.3-0.5c-0.1,0-0.2,0-0.3,0.1
	c-0.1,0.1-0.2,0.2-0.2,0.4v4h-1.7L355.1,105.8L355.1,105.8z M371.6,105.8v-4.6H370v-1.3l1.6-0.1v-0.2c0-0.3,0.1-0.7,0.2-1
	c0.1-0.3,0.3-0.6,0.5-0.8c0.2-0.2,0.5-0.4,0.8-0.5s0.7-0.2,1.2-0.2c0.3,0,0.7,0,1,0.1s0.6,0.1,0.8,0.2l-0.3,1.3
	c-0.4-0.1-0.8-0.2-1.2-0.2c-0.4,0-0.7,0.1-0.9,0.2c-0.2,0.2-0.3,0.4-0.3,0.8v0.2h2.1v1.4h-2.1v4.6L371.6,105.8L371.6,105.8z
	 M379.5,105.8v-4.6h-2.4v-1.4h4.1v6H379.5z M380.8,98.9c-0.3,0-0.6-0.1-0.8-0.3c-0.2-0.2-0.3-0.5-0.3-0.8s0.1-0.6,0.3-0.8
	c0.2-0.2,0.5-0.3,0.8-0.3s0.6,0.1,0.8,0.3c0.2,0.2,0.3,0.5,0.3,0.8s-0.1,0.6-0.3,0.8C381.5,98.8,381.2,98.9,380.8,98.9z
	 M386.8,108.3c-0.4,0-0.7,0-1.1-0.1c-0.3-0.1-0.6-0.1-0.9-0.3c-0.2-0.1-0.4-0.3-0.6-0.5c-0.1-0.2-0.2-0.4-0.2-0.7
	c0-0.5,0.3-0.9,0.9-1.2l0,0c-0.2-0.1-0.3-0.2-0.4-0.4c-0.1-0.2-0.2-0.4-0.2-0.6s0.1-0.4,0.2-0.6c0.1-0.2,0.3-0.4,0.5-0.5l0,0
	c-0.2-0.1-0.4-0.3-0.6-0.6c-0.1-0.3-0.2-0.6-0.2-0.9c0-0.4,0.1-0.7,0.2-0.9c0.1-0.3,0.3-0.5,0.6-0.7c0.2-0.2,0.5-0.3,0.8-0.4
	s0.6-0.1,1-0.1c0.4,0,0.7,0,1,0.1h2.4v1.3h-1.2c0.1,0.1,0.1,0.2,0.2,0.3c0.1,0.1,0.1,0.3,0.1,0.4c0,0.3-0.1,0.6-0.2,0.9
	c-0.1,0.3-0.3,0.5-0.5,0.6c-0.2,0.2-0.5,0.3-0.8,0.4s-0.6,0.1-1,0.1c-0.3,0-0.5,0-0.8-0.1c-0.1,0.1-0.2,0.1-0.2,0.2
	s-0.1,0.1-0.1,0.2c0,0.2,0.1,0.3,0.2,0.4c0.2,0.1,0.4,0.1,0.8,0.1h1.1c0.8,0,1.4,0.1,1.8,0.3c0.4,0.2,0.6,0.6,0.6,1.2
	c0,0.3-0.1,0.6-0.2,0.9c-0.2,0.3-0.4,0.5-0.7,0.7c-0.3,0.2-0.7,0.3-1.1,0.4C387.8,108.2,387.2,108.3,386.8,108.3z M386.9,102.8
	c0.2,0,0.5-0.1,0.6-0.2c0.2-0.2,0.3-0.4,0.3-0.8c0-0.3-0.1-0.6-0.3-0.7c-0.2-0.2-0.4-0.2-0.6-0.2s-0.5,0.1-0.6,0.2
	c-0.2,0.2-0.2,0.4-0.2,0.7c0,0.3,0.1,0.6,0.2,0.8C386.4,102.7,386.5,102.8,386.9,102.8z M387,107.2c0.5,0,0.9-0.1,1.2-0.2
	s0.5-0.3,0.5-0.5s-0.1-0.3-0.3-0.4s-0.4-0.1-0.8-0.1h-0.8c-0.2,0-0.4,0-0.5,0c-0.1,0-0.3,0-0.4-0.1c-0.2,0.1-0.3,0.2-0.3,0.3
	s-0.1,0.2-0.1,0.3c0,0.2,0.1,0.4,0.4,0.5C386.2,107.1,386.5,107.2,387,107.2z M391,105.8v-6h1.3l0.1,0.7l0,0
	c0.1-0.2,0.3-0.4,0.5-0.6s0.5-0.3,0.8-0.3s0.5,0.1,0.7,0.2c0.2,0.2,0.3,0.4,0.4,0.7c0.1-0.3,0.3-0.5,0.5-0.7s0.5-0.3,0.8-0.3
	c0.4,0,0.8,0.2,1,0.5s0.3,0.8,0.3,1.4v4.2h-1.7v-4.1c0-0.2,0-0.3-0.1-0.4c0-0.1-0.1-0.1-0.2-0.1c-0.1,0-0.2,0-0.3,0.1
	c-0.1,0.1-0.2,0.2-0.2,0.4v4h-1.4v-4.1c0-0.4-0.1-0.5-0.3-0.5c-0.1,0-0.2,0-0.3,0.1s-0.2,0.2-0.2,0.4v4H391L391,105.8L391,105.8z
	 M400.5,105.9c-0.3,0-0.6,0-0.8-0.1s-0.4-0.2-0.6-0.4c-0.2-0.2-0.3-0.4-0.4-0.6c-0.1-0.2-0.1-0.5-0.1-0.7c0-0.3,0.1-0.6,0.2-0.9
	c0.1-0.3,0.4-0.5,0.7-0.6c0.3-0.2,0.7-0.3,1.2-0.4s1.1-0.2,1.8-0.2c0-0.3-0.2-0.5-0.4-0.6c-0.2-0.2-0.5-0.2-0.9-0.2
	c-0.3,0-0.6,0.1-0.9,0.2s-0.6,0.2-0.9,0.4l-0.6-1.2c0.4-0.2,0.8-0.4,1.3-0.6s1-0.2,1.5-0.2c0.8,0,1.5,0.2,2,0.7
	c0.5,0.4,0.7,1.1,0.7,2v3.4h-1.4l-0.1-0.7l0,0c-0.3,0.2-0.6,0.4-1,0.6C401.2,105.8,400.9,105.9,400.5,105.9z M401,104.6
	c0.3,0,0.5-0.1,0.7-0.2s0.5-0.2,0.7-0.4v-1c-0.4,0-0.8,0.1-1.1,0.1c-0.3,0.1-0.5,0.1-0.7,0.2s-0.3,0.2-0.4,0.3
	c-0.1,0.1-0.1,0.2-0.1,0.4c0,0.2,0.1,0.3,0.2,0.4C400.5,104.5,400.8,104.6,401,104.6z"/>
<path class="st2" d="M116.8,200.7h112.8l6.4,6.4v31.8l0,0H123.2l-6.4-6.4V200.7z"/>
<path class="st3" d="M134.1,224.4v-7.8h2.8c0.4,0,0.8,0,1.2,0.1c0.4,0.1,0.7,0.2,1,0.4c0.3,0.2,0.5,0.5,0.7,0.8s0.2,0.7,0.2,1.2
	c0,0.4-0.1,0.8-0.2,1.2c-0.2,0.3-0.4,0.6-0.7,0.8s-0.6,0.4-1,0.5c-0.4,0.1-0.8,0.2-1.2,0.2h-1v2.7L134.1,224.4L134.1,224.4z
	 M135.8,220.3h0.9c1,0,1.4-0.4,1.4-1.2c0-0.4-0.1-0.7-0.4-0.9c-0.2-0.2-0.6-0.2-1.1-0.2h-0.9v2.3L135.8,220.3L135.8,220.3z
	 M141.8,224.4v-6h1.4l0.1,1.3l0,0c0.3-0.5,0.6-0.8,1.1-1.1c0.4-0.2,0.9-0.4,1.3-0.4c0.3,0,0.5,0,0.6,0.1c0.2,0,0.3,0.1,0.5,0.2
	l-0.4,1.5c-0.2-0.1-0.4-0.1-0.5-0.1c-0.1,0-0.3,0-0.6,0c-0.4,0-0.7,0.1-1.1,0.3c-0.4,0.2-0.7,0.6-0.9,1.1v3.1L141.8,224.4
	L141.8,224.4z M151.2,224.5c-0.4,0-0.8-0.1-1.1-0.2c-0.4-0.1-0.7-0.3-1-0.6s-0.5-0.6-0.7-1s-0.2-0.8-0.2-1.3s0.1-0.9,0.2-1.3
	c0.2-0.4,0.4-0.7,0.7-1s0.6-0.5,1-0.6s0.7-0.2,1.1-0.2c0.4,0,0.8,0.1,1.1,0.2c0.4,0.1,0.7,0.3,1,0.6s0.5,0.6,0.7,1
	c0.2,0.4,0.3,0.8,0.3,1.3s-0.1,0.9-0.3,1.3c-0.2,0.4-0.4,0.7-0.7,1s-0.6,0.5-1,0.6C152,224.4,151.6,224.5,151.2,224.5z M151.2,223.1
	c0.4,0,0.7-0.2,0.9-0.5s0.3-0.7,0.3-1.2s-0.1-0.9-0.3-1.2s-0.5-0.5-0.9-0.5c-0.4,0-0.7,0.2-0.9,0.5s-0.3,0.7-0.3,1.2
	s0.1,0.9,0.3,1.2C150.5,222.9,150.8,223.1,151.2,223.1z M157.1,226.7c-0.4,0-0.7,0-1-0.1c-0.3-0.1-0.6-0.2-0.8-0.3l0.5-1.2
	c0.2,0.1,0.5,0.2,0.7,0.2c0.2,0,0.4,0.1,0.6,0.1c0.4,0,0.7-0.1,0.9-0.3c0.2-0.2,0.2-0.5,0.2-0.9v-4.3h-2.4v-1.4h4.1v5.6
	c0,0.4,0,0.7-0.1,1s-0.2,0.6-0.4,0.9c-0.2,0.2-0.5,0.4-0.9,0.6C158.1,226.6,157.7,226.7,157.1,226.7z M159.4,217.5
	c-0.3,0-0.6-0.1-0.8-0.3c-0.2-0.2-0.3-0.5-0.3-0.8s0.1-0.6,0.3-0.8c0.2-0.2,0.5-0.3,0.8-0.3c0.3,0,0.6,0.1,0.8,0.3s0.3,0.5,0.3,0.8
	s-0.1,0.6-0.3,0.8S159.7,217.5,159.4,217.5z M165.9,224.5c-0.5,0-0.9-0.1-1.3-0.2c-0.4-0.1-0.8-0.3-1.1-0.6c-0.3-0.3-0.5-0.6-0.7-1
	s-0.2-0.8-0.2-1.3s0.1-0.9,0.2-1.3c0.2-0.4,0.4-0.7,0.7-1c0.3-0.3,0.6-0.5,1-0.6c0.4-0.1,0.8-0.2,1.2-0.2c0.5,0,0.9,0.1,1.2,0.2
	s0.6,0.3,0.9,0.6c0.2,0.2,0.4,0.5,0.5,0.9c0.1,0.3,0.2,0.7,0.2,1.1c0,0.2,0,0.3,0,0.5s0,0.3,0,0.3h-4.1c0.1,0.4,0.3,0.8,0.6,1
	c0.3,0.2,0.7,0.3,1.2,0.3c0.3,0,0.5,0,0.8-0.1c0.2-0.1,0.5-0.2,0.8-0.3l0.6,1.1c-0.3,0.2-0.7,0.4-1.1,0.5
	C166.9,224.5,166.3,224.5,165.9,224.5z M165.8,219.6c-0.4,0-0.7,0.1-0.9,0.3c-0.2,0.2-0.4,0.5-0.5,0.8h2.5
	C166.9,220,166.5,219.6,165.8,219.6z M173.3,224.5c-0.5,0-0.9-0.1-1.3-0.2c-0.4-0.1-0.7-0.3-1-0.6c-0.3-0.3-0.5-0.6-0.7-1
	s-0.2-0.8-0.2-1.3s0.1-0.9,0.3-1.3c0.2-0.4,0.5-0.7,0.8-1s0.7-0.5,1.1-0.6c0.4-0.1,0.9-0.2,1.3-0.2c0.5,0,0.9,0.1,1.3,0.2
	c0.4,0.1,0.7,0.3,1,0.6l-0.8,1.1c-0.4-0.3-0.9-0.5-1.3-0.5c-0.5,0-0.9,0.2-1.2,0.5c-0.3,0.3-0.5,0.7-0.5,1.2s0.2,0.9,0.5,1.2
	c0.3,0.3,0.7,0.5,1.2,0.5c0.3,0,0.6-0.1,0.9-0.2c0.3-0.1,0.5-0.2,0.7-0.4l0.7,1.1c-0.4,0.3-0.8,0.5-1.2,0.7
	C174.1,224.4,173.7,224.5,173.3,224.5z M181,224.5c-0.5,0-0.9-0.1-1.2-0.2c-0.3-0.1-0.6-0.3-0.8-0.5s-0.3-0.5-0.4-0.8
	c-0.1-0.3-0.1-0.7-0.1-1.1v-2.1H177v-1.3l1.6-0.1l0.2-1.8h1.5v1.8h2.5v1.4h-2.5v2.1c0,0.5,0.1,0.8,0.3,1c0.2,0.2,0.5,0.3,1,0.3
	c0.2,0,0.4,0,0.6-0.1c0.2,0,0.4-0.1,0.5-0.2l0.3,1.3c-0.3,0.1-0.6,0.2-0.9,0.2C181.8,224.5,181.4,224.5,181,224.5z M192.1,224.4
	v-7.8h1.8v6.3h3.4v1.5H192.1z M201.3,224.4v-4.6h-2.4v-1.4h4.1v6H201.3z M202.6,217.5c-0.3,0-0.6-0.1-0.8-0.3s-0.3-0.5-0.3-0.8
	s0.1-0.6,0.3-0.8s0.5-0.3,0.8-0.3s0.6,0.1,0.8,0.3s0.3,0.5,0.3,0.8s-0.1,0.6-0.3,0.8S202.9,217.5,202.6,217.5z M208.7,224.5
	c-0.5,0-1.1-0.1-1.6-0.3s-1-0.4-1.3-0.6l0.8-1.1c0.4,0.2,0.7,0.4,1.1,0.5c0.4,0.1,0.8,0.2,1.3,0.2c0.3,0,0.6,0,0.7-0.1
	c0.2-0.1,0.2-0.2,0.2-0.4c0-0.1,0-0.1-0.1-0.2c0-0.1-0.1-0.1-0.2-0.2c-0.1-0.1-0.3-0.1-0.5-0.1c-0.2-0.1-0.4-0.1-0.7-0.2
	c-0.8-0.2-1.4-0.4-1.8-0.7c-0.3-0.3-0.5-0.7-0.5-1.1c0-0.3,0.1-0.5,0.2-0.8c0.1-0.2,0.3-0.4,0.5-0.6c0.2-0.2,0.5-0.3,0.9-0.4
	c0.3-0.1,0.7-0.1,1.2-0.1s1,0.1,1.5,0.3c0.4,0.2,0.8,0.3,1.1,0.5l-0.8,1.1c-0.3-0.2-0.6-0.3-1-0.4c-0.3-0.1-0.7-0.1-1-0.1
	s-0.5,0-0.6,0.1c-0.1,0.1-0.2,0.2-0.2,0.3c0,0.2,0.1,0.3,0.3,0.4c0.2,0.1,0.6,0.2,1.1,0.3s0.8,0.2,1.1,0.3c0.3,0.1,0.5,0.2,0.7,0.4
	c0.2,0.1,0.3,0.3,0.4,0.5s0.1,0.4,0.1,0.6c0,0.3-0.1,0.5-0.2,0.8c-0.1,0.2-0.3,0.4-0.6,0.6c-0.2,0.2-0.5,0.3-0.9,0.4
	C209.6,224.4,209.2,224.5,208.7,224.5z M217,224.5c-0.5,0-0.9-0.1-1.2-0.2c-0.3-0.1-0.6-0.3-0.8-0.5c-0.2-0.2-0.3-0.5-0.4-0.8
	c-0.1-0.3-0.1-0.7-0.1-1.1v-2.1H213v-1.3l1.6-0.1l0.2-1.8h1.5v1.8h2.5v1.4h-2.5v2.1c0,0.5,0.1,0.8,0.3,1c0.2,0.2,0.5,0.3,1,0.3
	c0.2,0,0.4,0,0.6-0.1c0.2-0.1,0.4-0.1,0.5-0.2l0.3,1.3c-0.3,0.1-0.6,0.2-0.9,0.2C217.8,224.5,217.4,224.5,217,224.5z"/>
<path class="st2" d="M116.8,272.7h112.8l6.4,6.4v31.8l0,0H123.2l-6.4-6.4V272.7z"/>
<path class="st3" d="M156.1,289.3v-7.8h5.2v1.5h-3.4v1.8h2.9v1.5h-2.9v3H156.1z M163.4,289.3v-6h1.4l0.1,1.3l0,0
	c0.3-0.5,0.6-0.8,1.1-1.1c0.4-0.2,0.9-0.4,1.3-0.4c0.3,0,0.5,0,0.6,0.1c0.2,0,0.3,0.1,0.5,0.2l-0.4,1.5c-0.2-0.1-0.4-0.1-0.5-0.1
	c-0.1,0-0.3,0-0.6,0c-0.4,0-0.7,0.1-1.1,0.3c-0.4,0.2-0.7,0.6-0.9,1.1v3.1H163.4L163.4,289.3z M171.9,289.4c-0.3,0-0.6,0-0.8-0.1
	c-0.2-0.1-0.4-0.2-0.6-0.4c-0.2-0.2-0.3-0.4-0.4-0.6s-0.1-0.5-0.1-0.7c0-0.3,0.1-0.6,0.2-0.9c0.1-0.3,0.4-0.5,0.7-0.6
	c0.3-0.2,0.7-0.3,1.2-0.4s1.1-0.2,1.8-0.2c0-0.3-0.2-0.5-0.4-0.6c-0.2-0.2-0.5-0.2-0.9-0.2c-0.3,0-0.6,0.1-0.9,0.2s-0.6,0.2-0.9,0.4
	l-0.6-1.2c0.4-0.2,0.8-0.4,1.3-0.6s1-0.2,1.5-0.2c0.8,0,1.5,0.2,2,0.7c0.5,0.4,0.7,1.1,0.7,2v3.4h-1.4l-0.1-0.7l0,0
	c-0.3,0.2-0.6,0.4-1,0.6C172.6,289.4,172.3,289.4,171.9,289.4z M172.4,288.1c0.3,0,0.5-0.1,0.7-0.2c0.2-0.1,0.5-0.3,0.7-0.4v-1
	c-0.4,0-0.8,0.1-1.1,0.1c-0.3,0.1-0.5,0.1-0.7,0.2c-0.2,0.1-0.3,0.2-0.4,0.3c-0.1,0.1-0.1,0.2-0.1,0.4c0,0.2,0.1,0.3,0.2,0.4
	C172,288,172.2,288.1,172.4,288.1z M176.8,289.3v-6h1.3l0.1,0.7l0,0c0.1-0.2,0.3-0.4,0.5-0.6s0.5-0.3,0.8-0.3s0.5,0.1,0.7,0.2
	c0.2,0.2,0.3,0.4,0.4,0.7c0.1-0.3,0.3-0.5,0.5-0.7c0.2-0.2,0.5-0.3,0.8-0.3c0.4,0,0.8,0.2,1,0.5c0.2,0.3,0.3,0.8,0.3,1.4v4.2h-1.7
	V285c0-0.2,0-0.3-0.1-0.4c0-0.1-0.1-0.1-0.2-0.1s-0.2,0-0.3,0.1c-0.1,0.1-0.2,0.2-0.2,0.4v4h-1.4v-4.1c0-0.4-0.1-0.5-0.3-0.5
	c-0.1,0-0.2,0-0.3,0.1c-0.1,0.1-0.2,0.2-0.2,0.4v4h-1.7V289.3z M187.5,289.4c-0.5,0-0.9-0.1-1.3-0.2s-0.8-0.3-1.1-0.6
	c-0.3-0.3-0.5-0.6-0.7-1c-0.2-0.4-0.2-0.8-0.2-1.3s0.1-0.9,0.2-1.3c0.2-0.4,0.4-0.7,0.7-1c0.3-0.3,0.6-0.5,1-0.6
	c0.4-0.1,0.8-0.2,1.2-0.2c0.5,0,0.9,0.1,1.2,0.2c0.4,0.1,0.6,0.3,0.9,0.6c0.2,0.2,0.4,0.5,0.5,0.9c0.1,0.3,0.2,0.7,0.2,1.1
	c0,0.2,0,0.3,0,0.5c0,0.1,0,0.3,0,0.3H186c0.1,0.4,0.3,0.8,0.6,1s0.7,0.3,1.2,0.3c0.3,0,0.5,0,0.8-0.1c0.2-0.1,0.5-0.2,0.8-0.3
	l0.6,1.1c-0.3,0.2-0.7,0.4-1.1,0.5C188.4,289.4,187.9,289.4,187.5,289.4z M187.4,284.6c-0.4,0-0.7,0.1-0.9,0.3
	c-0.2,0.2-0.4,0.5-0.5,0.8h2.5C188.5,284.9,188.1,284.6,187.4,284.6z M194.3,289.4c-0.5,0-1.1-0.1-1.6-0.3c-0.5-0.2-1-0.4-1.3-0.6
	l0.8-1.1c0.4,0.2,0.7,0.4,1.1,0.5s0.8,0.2,1.3,0.2c0.3,0,0.6,0,0.7-0.1c0.2-0.1,0.2-0.2,0.2-0.4c0-0.1,0-0.1-0.1-0.2
	c0-0.1-0.1-0.1-0.2-0.2c-0.1-0.1-0.3-0.1-0.5-0.1c-0.2-0.1-0.4-0.1-0.7-0.2c-0.8-0.2-1.4-0.4-1.8-0.7c-0.3-0.3-0.5-0.7-0.5-1.1
	c0-0.3,0.1-0.5,0.2-0.8c0.1-0.2,0.3-0.4,0.5-0.6c0.2-0.2,0.5-0.3,0.9-0.4c0.3-0.1,0.7-0.1,1.2-0.1s1,0.1,1.5,0.3
	c0.4,0.2,0.8,0.3,1.1,0.5l-0.8,1.1c-0.3-0.2-0.6-0.3-1-0.4c-0.3-0.1-0.7-0.1-1-0.1c-0.3,0-0.5,0-0.6,0.1s-0.2,0.2-0.2,0.3
	c0,0.2,0.1,0.3,0.3,0.4s0.6,0.2,1.1,0.3s0.8,0.2,1.1,0.3c0.3,0.1,0.5,0.2,0.7,0.4c0.2,0.1,0.3,0.3,0.4,0.5c0.1,0.2,0.1,0.4,0.1,0.6
	c0,0.3-0.1,0.5-0.2,0.8c-0.1,0.2-0.3,0.4-0.6,0.6c-0.2,0.2-0.5,0.3-0.9,0.4C195.2,289.4,194.8,289.4,194.3,289.4z"/>
<path class="st3" d="M152,303.3v-7.8h2.2c0.6,0,1.1,0.1,1.5,0.2c0.5,0.1,0.9,0.4,1.2,0.7c0.3,0.3,0.6,0.7,0.8,1.2
	c0.2,0.5,0.3,1.1,0.3,1.7c0,0.7-0.1,1.3-0.3,1.8c-0.2,0.5-0.4,0.9-0.8,1.2c-0.3,0.3-0.7,0.6-1.2,0.7c-0.4,0.2-0.9,0.2-1.5,0.2
	L152,303.3L152,303.3z M153.8,301.9h0.3c0.3,0,0.6,0,0.8-0.1c0.2-0.1,0.5-0.2,0.6-0.4c0.2-0.2,0.3-0.5,0.4-0.8
	c0.1-0.3,0.2-0.7,0.2-1.2s-0.1-0.8-0.2-1.2c-0.1-0.3-0.2-0.6-0.4-0.8c-0.2-0.2-0.4-0.3-0.6-0.4c-0.2-0.1-0.5-0.1-0.8-0.1h-0.3V301.9
	z M162.3,303.4c-0.5,0-0.9-0.1-1.3-0.2s-0.8-0.3-1.1-0.6c-0.3-0.3-0.5-0.6-0.7-1c-0.2-0.4-0.2-0.8-0.2-1.3s0.1-0.9,0.2-1.3
	c0.2-0.4,0.4-0.7,0.7-1s0.6-0.5,1-0.6c0.4-0.1,0.8-0.2,1.2-0.2c0.5,0,0.9,0.1,1.2,0.2c0.4,0.1,0.6,0.3,0.9,0.6
	c0.2,0.2,0.4,0.5,0.5,0.9c0.1,0.3,0.2,0.7,0.2,1.1c0,0.2,0,0.3,0,0.5c0,0.1,0,0.3,0,0.3h-4.1c0.1,0.4,0.3,0.8,0.6,1s0.7,0.3,1.2,0.3
	c0.3,0,0.5,0,0.8-0.1c0.2-0.1,0.5-0.2,0.8-0.3l0.6,1.1c-0.3,0.2-0.7,0.4-1.1,0.5C163.2,303.4,162.7,303.4,162.3,303.4z M162.2,298.6
	c-0.4,0-0.7,0.1-0.9,0.3c-0.2,0.2-0.4,0.5-0.5,0.8h2.5C163.3,298.9,162.9,298.6,162.2,298.6z M170.2,303.4c-0.5,0-0.9-0.1-1.2-0.2
	c-0.3-0.1-0.6-0.3-0.8-0.5c-0.2-0.2-0.3-0.5-0.4-0.8c-0.1-0.3-0.1-0.7-0.1-1.1v-2.1h-1.5v-1.3l1.6-0.1l0.2-1.8h1.5v1.8h2.5v1.4h-2.5
	v2.1c0,0.5,0.1,0.8,0.3,1s0.5,0.3,1,0.3c0.2,0,0.4,0,0.6-0.1c0.2,0,0.4-0.1,0.5-0.2l0.3,1.3c-0.3,0.1-0.6,0.2-0.9,0.2
	C171,303.4,170.6,303.4,170.2,303.4z M175.5,303.4c-0.3,0-0.6,0-0.8-0.1c-0.2-0.1-0.4-0.2-0.6-0.4c-0.2-0.2-0.3-0.4-0.4-0.6
	c-0.1-0.2-0.1-0.5-0.1-0.7c0-0.3,0.1-0.6,0.2-0.9c0.1-0.3,0.4-0.5,0.7-0.6c0.3-0.2,0.7-0.3,1.2-0.4s1.1-0.2,1.8-0.2
	c0-0.3-0.2-0.5-0.4-0.6c-0.2-0.2-0.5-0.2-0.9-0.2c-0.3,0-0.6,0.1-0.9,0.2s-0.6,0.2-0.9,0.4l-0.6-1.2c0.4-0.2,0.8-0.4,1.3-0.6
	s1-0.2,1.5-0.2c0.8,0,1.5,0.2,2,0.7c0.5,0.4,0.7,1.1,0.7,2v3.4h-1.4l-0.1-0.7l0,0c-0.3,0.2-0.6,0.4-1,0.6
	C176.2,303.4,175.9,303.4,175.5,303.4z M176,302.1c0.3,0,0.5-0.1,0.7-0.2c0.2-0.1,0.5-0.3,0.7-0.4v-1c-0.4,0-0.8,0.1-1.1,0.1
	c-0.3,0.1-0.5,0.1-0.7,0.2s-0.3,0.2-0.4,0.3c-0.1,0.1-0.1,0.2-0.1,0.4c0,0.2,0.1,0.3,0.2,0.4C175.6,302,175.8,302.1,176,302.1z
	 M183.3,303.3v-4.6h-2.4v-1.4h4.1v6H183.3z M184.6,296.4c-0.3,0-0.6-0.1-0.8-0.3c-0.2-0.2-0.3-0.5-0.3-0.8s0.1-0.6,0.3-0.8
	c0.2-0.2,0.5-0.3,0.8-0.3s0.6,0.1,0.8,0.3c0.2,0.2,0.3,0.5,0.3,0.8s-0.1,0.6-0.3,0.8S184.9,296.4,184.6,296.4z M191.9,303.4
	c-0.8,0-1.3-0.2-1.7-0.7c-0.4-0.4-0.6-1.1-0.6-1.8v-4.7h-1.9v-1.4h3.6v6.2c0,0.2,0,0.3,0.1,0.5c0.1,0.1,0.1,0.2,0.2,0.3
	c0.1,0.1,0.2,0.1,0.3,0.2c0.1,0,0.2,0,0.4,0c0.1,0,0.3,0,0.4,0c0.2,0,0.3-0.1,0.5-0.1l0.4,1.3c-0.2,0.1-0.3,0.1-0.5,0.1
	c-0.1,0-0.3,0.1-0.4,0.1c-0.1,0-0.3,0.1-0.4,0.1C192.3,303.4,192.1,303.4,191.9,303.4z M197.9,303.4c-0.5,0-1.1-0.1-1.6-0.3
	c-0.5-0.2-1-0.4-1.3-0.6l0.8-1.1c0.4,0.2,0.7,0.4,1.1,0.5c0.4,0.1,0.8,0.2,1.3,0.2c0.3,0,0.6,0,0.7-0.1c0.2-0.1,0.2-0.2,0.2-0.4
	c0-0.1,0-0.1-0.1-0.2c0-0.1-0.1-0.1-0.2-0.2s-0.3-0.1-0.5-0.1c-0.2-0.1-0.4-0.1-0.7-0.2c-0.8-0.2-1.4-0.4-1.8-0.7
	c-0.3-0.3-0.5-0.7-0.5-1.1c0-0.3,0.1-0.5,0.2-0.8c0.1-0.2,0.3-0.4,0.5-0.6s0.5-0.3,0.9-0.4c0.3-0.1,0.7-0.1,1.2-0.1s1,0.1,1.5,0.3
	c0.4,0.2,0.8,0.3,1.1,0.5l-0.8,1.1c-0.3-0.2-0.6-0.3-1-0.4c-0.3-0.1-0.7-0.1-1-0.1s-0.5,0-0.6,0.1c-0.1,0.1-0.2,0.2-0.2,0.3
	c0,0.2,0.1,0.3,0.3,0.4c0.2,0.1,0.6,0.2,1.1,0.3s0.8,0.2,1.1,0.3c0.3,0.1,0.5,0.2,0.7,0.4c0.2,0.1,0.3,0.3,0.4,0.5s0.1,0.4,0.1,0.6
	c0,0.3-0.1,0.5-0.2,0.8c-0.1,0.2-0.3,0.4-0.6,0.6c-0.2,0.2-0.5,0.3-0.9,0.4C198.8,303.4,198.4,303.4,197.9,303.4z"/>
<path class="st0" d="M236,84.6h25.7v9.6h25.7"/>
<path class="st4" d="M239.8,84.6h21.9v9.6h19.7"/>
<path class="st5" d="M239.8,86.2h-3.3V83h3.3V86.2z"/>
<path class="st6" d="M281.4,95.9l4.5-1.7l-4.5-1.7V95.9z"/>
<path class="st0" d="M176.4,103.7v48.5h0.1v48.5"/>
<path class="st4" d="M176.4,107.5v44.7h0.1v42.5"/>
<path class="st5" d="M174.7,107.5v-3.3h3.3v3.3H174.7z"/>
<path class="st6" d="M174.8,194.7l1.7,4.5l1.7-4.5H174.8z"/>
<path class="st0" d="M176.4,238.9v16.9h0.1v16.9"/>
<path class="st4" d="M176.4,242.7v13.1h0.1v10.9"/>
<path class="st5" d="M174.7,242.7v-3.3h3.3v3.3H174.7z"/>
<path class="st6" d="M174.8,266.7l1.7,4.5l1.7-4.5H174.8z"/>
<path class="st2" d="M287.4,135.2H441l9.6,9.6v47.9l0,0H297l-9.6-9.6L287.4,135.2L287.4,135.2z"/>
<path class="st3" d="M322.2,161.6c-1,0-1.7-0.3-2.2-0.8s-0.7-1.3-0.7-2.4v-4.8h1.8v5c0,0.5,0.1,0.8,0.3,1.1c0.2,0.2,0.5,0.4,0.8,0.4
	s0.7-0.1,0.8-0.4c0.2-0.2,0.3-0.6,0.3-1.1v-5h1.7v4.8c0,1-0.2,1.8-0.7,2.4S323.2,161.6,322.2,161.6z M326.7,163.7v-8.2h1.4l0.1,0.6
	l0,0c0.2-0.2,0.5-0.4,0.8-0.5s0.6-0.2,1-0.2s0.7,0.1,1,0.2c0.3,0.1,0.6,0.3,0.8,0.6c0.2,0.3,0.4,0.6,0.5,1c0.1,0.4,0.2,0.8,0.2,1.2
	c0,0.5-0.1,1-0.2,1.4c-0.1,0.4-0.3,0.7-0.6,1c-0.2,0.3-0.5,0.5-0.8,0.6s-0.6,0.2-1,0.2c-0.6,0-1-0.2-1.5-0.6l0,0l0.1,1v1.7H326.7z
	 M329.5,160.2c0.3,0,0.6-0.1,0.8-0.4c0.2-0.3,0.3-0.7,0.3-1.3c0-1.1-0.4-1.6-1.1-1.6c-0.4,0-0.7,0.2-1.1,0.5v2.4
	c0.2,0.1,0.3,0.2,0.5,0.3C329.2,160.2,329.2,160.2,329.5,160.2z M336.1,161.6c-0.4,0-0.7-0.1-1-0.2c-0.3-0.1-0.6-0.4-0.8-0.6
	c-0.2-0.3-0.4-0.6-0.5-1c-0.1-0.4-0.2-0.8-0.2-1.3s0.1-0.9,0.2-1.3c0.1-0.4,0.3-0.7,0.6-1c0.2-0.3,0.5-0.5,0.8-0.6s0.6-0.2,1-0.2
	c0.3,0,0.6,0.1,0.8,0.2c0.2,0.1,0.5,0.3,0.7,0.5l0,0l-0.1-0.9v-2h1.8v8.4h-1.5l-0.1-0.6l0,0c-0.2,0.2-0.5,0.4-0.8,0.5
	C336.7,161.6,336.4,161.6,336.1,161.6z M336.6,160.2c0.2,0,0.4,0,0.5-0.1c0.2-0.1,0.3-0.2,0.5-0.4v-2.4c-0.2-0.1-0.3-0.2-0.5-0.3
	s-0.3-0.1-0.5-0.1c-0.3,0-0.6,0.1-0.9,0.4c-0.2,0.3-0.3,0.7-0.3,1.2c0,0.6,0.1,1,0.3,1.3S336.2,160.2,336.6,160.2z M342.9,161.6
	c-0.3,0-0.6,0-0.8-0.1s-0.4-0.2-0.6-0.4s-0.3-0.4-0.4-0.6c-0.1-0.2-0.1-0.5-0.1-0.7c0-0.3,0.1-0.6,0.2-0.9c0.1-0.3,0.4-0.5,0.7-0.6
	c0.3-0.2,0.7-0.3,1.2-0.4c0.5-0.1,1.1-0.2,1.8-0.2c0-0.3-0.2-0.5-0.4-0.6c-0.2-0.2-0.5-0.2-0.9-0.2c-0.3,0-0.6,0.1-0.9,0.2
	c-0.3,0.1-0.6,0.2-0.9,0.4l-0.6-1.2c0.4-0.2,0.8-0.4,1.3-0.6s1-0.2,1.5-0.2c0.8,0,1.5,0.2,2,0.7c0.5,0.4,0.7,1.1,0.7,2v3.4h-1.4
	l-0.1-0.7l0,0c-0.3,0.2-0.6,0.4-1,0.6C343.7,161.6,343.2,161.6,342.9,161.6z M343.5,160.3c0.3,0,0.5-0.1,0.7-0.2
	c0.2-0.1,0.5-0.2,0.7-0.4v-1c-0.4,0-0.8,0.1-1.1,0.1c-0.3,0.1-0.5,0.1-0.7,0.2c-0.2,0.1-0.3,0.2-0.4,0.3c-0.1,0.1-0.1,0.2-0.1,0.4
	s0.1,0.3,0.2,0.4C343,160.2,343.2,160.3,343.5,160.3z M352.1,161.6c-0.5,0-0.9-0.1-1.2-0.2c-0.3-0.1-0.6-0.3-0.8-0.5
	s-0.3-0.5-0.4-0.8c-0.1-0.3-0.1-0.7-0.1-1.1v-2.1h-1.5v-1.3l1.6-0.1l0.2-1.8h1.5v1.8h2.5v1.4h-2.6v2.1c0,0.5,0.1,0.8,0.3,1
	s0.5,0.3,1,0.3c0.2,0,0.4,0,0.6-0.1c0.2,0,0.4-0.1,0.5-0.2l0.3,1.3c-0.3,0.1-0.6,0.2-0.9,0.2C352.9,161.6,352.5,161.6,352.1,161.6z
	 M358.6,161.6c-0.5,0-0.9-0.1-1.3-0.2c-0.4-0.1-0.8-0.3-1.1-0.6c-0.3-0.3-0.5-0.6-0.7-1s-0.2-0.8-0.2-1.3s0.1-0.9,0.2-1.3
	c0.2-0.4,0.4-0.7,0.7-1c0.3-0.3,0.6-0.5,1-0.6c0.4-0.1,0.8-0.2,1.2-0.2c0.5,0,0.9,0.1,1.2,0.2c0.4,0.1,0.6,0.3,0.9,0.6
	c0.2,0.2,0.4,0.5,0.5,0.9c0.1,0.3,0.2,0.7,0.2,1.1c0,0.2,0,0.3,0,0.5c0,0.1,0,0.3,0,0.3H357c0.1,0.4,0.3,0.8,0.6,1s0.7,0.3,1.2,0.3
	c0.3,0,0.5,0,0.8-0.1c0.2-0.1,0.5-0.2,0.8-0.3l0.6,1.1c-0.3,0.2-0.7,0.4-1.1,0.5C359.4,161.6,359,161.6,358.6,161.6z M358.5,156.7
	c-0.4,0-0.7,0.1-0.9,0.3s-0.4,0.5-0.5,0.8h2.5C359.6,157.1,359.2,156.7,358.5,156.7z M370,161.5v-7.8h2.8c0.4,0,0.8,0,1.2,0.1
	s0.7,0.2,1,0.4s0.5,0.5,0.7,0.8s0.2,0.7,0.2,1.2c0,0.4-0.1,0.8-0.2,1.2c-0.2,0.3-0.4,0.6-0.7,0.8c-0.3,0.2-0.6,0.4-1,0.5
	c-0.4,0.1-0.8,0.2-1.2,0.2h-1v2.7L370,161.5L370,161.5z M371.7,157.4h0.9c1,0,1.4-0.4,1.4-1.2c0-0.4-0.1-0.7-0.4-0.9
	c-0.2-0.2-0.6-0.2-1.1-0.2h-0.9v2.3C371.6,157.4,371.7,157.4,371.7,157.4z M377.5,161.5v-6h1.4l0.1,1.3l0,0c0.3-0.5,0.6-0.8,1.1-1.1
	c0.4-0.2,0.9-0.4,1.3-0.4c0.3,0,0.5,0,0.6,0.1c0.2,0,0.3,0.1,0.5,0.2l-0.4,1.5c-0.2-0.1-0.4-0.1-0.5-0.1c-0.1,0-0.3,0-0.6,0
	c-0.4,0-0.7,0.1-1.1,0.3c-0.4,0.2-0.7,0.6-0.9,1.1v3.1L377.5,161.5L377.5,161.5z M387,161.6c-0.4,0-0.8-0.1-1.1-0.2
	c-0.4-0.1-0.7-0.3-1-0.6s-0.5-0.6-0.7-1s-0.2-0.8-0.2-1.3s0.1-0.9,0.2-1.3c0.2-0.4,0.4-0.7,0.7-1c0.3-0.3,0.6-0.5,1-0.6
	c0.4-0.1,0.7-0.2,1.1-0.2c0.4,0,0.8,0.1,1.1,0.2c0.4,0.1,0.7,0.3,1,0.6s0.5,0.6,0.7,1s0.3,0.8,0.3,1.3s-0.1,0.9-0.3,1.3
	c-0.2,0.4-0.4,0.7-0.7,1s-0.6,0.5-1,0.6C387.8,161.6,387.4,161.6,387,161.6z M387,160.2c0.4,0,0.7-0.2,0.9-0.5s0.3-0.7,0.3-1.2
	s-0.1-0.9-0.3-1.2c-0.2-0.3-0.5-0.5-0.9-0.5c-0.4,0-0.7,0.2-0.9,0.5c-0.2,0.3-0.3,0.7-0.3,1.2s0.1,0.9,0.3,1.2
	C386.2,160.1,386.5,160.2,387,160.2z M393,163.9c-0.4,0-0.7,0-1-0.1s-0.6-0.2-0.8-0.3l0.5-1.2c0.2,0.1,0.5,0.2,0.7,0.2
	s0.4,0.1,0.6,0.1c0.4,0,0.7-0.1,0.9-0.3c0.2-0.2,0.2-0.5,0.2-0.9v-4.3h-2.4v-1.4h4.1v5.6c0,0.4,0,0.7-0.1,1
	c-0.1,0.3-0.2,0.6-0.4,0.9c-0.2,0.2-0.5,0.4-0.9,0.6C394,163.8,393.5,163.9,393,163.9z M395.2,154.6c-0.3,0-0.6-0.1-0.8-0.3
	c-0.2-0.2-0.3-0.5-0.3-0.8s0.1-0.6,0.3-0.8s0.5-0.3,0.8-0.3s0.6,0.1,0.8,0.3s0.3,0.5,0.3,0.8s-0.1,0.6-0.3,0.8
	C395.9,154.5,395.5,154.6,395.2,154.6z M401.8,161.6c-0.5,0-0.9-0.1-1.3-0.2c-0.4-0.1-0.8-0.3-1.1-0.6s-0.5-0.6-0.7-1
	s-0.2-0.8-0.2-1.3s0.1-0.9,0.2-1.3c0.2-0.4,0.4-0.7,0.7-1c0.3-0.3,0.6-0.5,1-0.6c0.4-0.1,0.8-0.2,1.2-0.2c0.5,0,0.9,0.1,1.2,0.2
	c0.4,0.1,0.6,0.3,0.9,0.6c0.2,0.2,0.4,0.5,0.5,0.9c0.1,0.3,0.2,0.7,0.2,1.1c0,0.2,0,0.3,0,0.5c0,0.1,0,0.3,0,0.3h-4.1
	c0.1,0.4,0.3,0.8,0.6,1c0.3,0.2,0.7,0.3,1.2,0.3c0.3,0,0.5,0,0.8-0.1s0.5-0.2,0.8-0.3l0.6,1.1c-0.3,0.2-0.7,0.4-1.1,0.5
	C402.5,161.6,402.2,161.6,401.8,161.6z M401.7,156.7c-0.4,0-0.7,0.1-0.9,0.3s-0.4,0.5-0.5,0.8h2.5
	C402.8,157.1,402.4,156.7,401.7,156.7z M409.2,161.6c-0.5,0-0.9-0.1-1.3-0.2c-0.4-0.1-0.7-0.3-1-0.6s-0.5-0.6-0.7-1
	s-0.2-0.8-0.2-1.3s0.1-0.9,0.3-1.3c0.2-0.4,0.5-0.7,0.8-1s0.7-0.5,1.1-0.6c0.4-0.1,0.9-0.2,1.3-0.2c0.5,0,0.9,0.1,1.3,0.2
	c0.4,0.1,0.7,0.3,1,0.6l-0.8,1.1c-0.4-0.3-0.9-0.5-1.3-0.5c-0.5,0-0.9,0.2-1.2,0.5c-0.3,0.3-0.5,0.7-0.5,1.2s0.2,0.9,0.5,1.2
	s0.7,0.5,1.2,0.5c0.3,0,0.6-0.1,0.9-0.2c0.3-0.1,0.5-0.2,0.7-0.4l0.7,1.1c-0.4,0.3-0.8,0.5-1.2,0.7
	C410,161.6,409.5,161.6,409.2,161.6z M416.9,161.6c-0.5,0-0.9-0.1-1.2-0.2c-0.3-0.1-0.6-0.3-0.8-0.5c-0.2-0.2-0.3-0.5-0.4-0.8
	c-0.1-0.3-0.1-0.7-0.1-1.1v-2.1h-1.5v-1.3l1.6-0.1l0.2-1.8h1.5v1.8h2.5v1.4h-2.5v2.1c0,0.5,0.1,0.8,0.3,1c0.2,0.2,0.5,0.3,1,0.3
	c0.2,0,0.4,0,0.6-0.1c0.2,0,0.4-0.1,0.5-0.2l0.3,1.3c-0.3,0.1-0.6,0.2-0.9,0.2C417.7,161.6,417.2,161.6,416.9,161.6z"/>
<path class="st3" d="M335.6,175.5v-4.6H334v-1.3l1.6-0.1v-0.2c0-0.3,0.1-0.7,0.2-1c0.1-0.3,0.3-0.6,0.5-0.8c0.2-0.2,0.5-0.4,0.8-0.5
	s0.7-0.2,1.2-0.2c0.3,0,0.7,0,1,0.1c0.3,0.1,0.6,0.1,0.8,0.2l-0.3,1.3c-0.4-0.1-0.8-0.2-1.2-0.2s-0.7,0.1-0.9,0.2
	c-0.2,0.2-0.3,0.4-0.3,0.8v0.2h2.1v1.4h-2.1v4.6L335.6,175.5L335.6,175.5z M341.6,175.5v-6h1.4l0.1,1.3l0,0c0.3-0.5,0.6-0.8,1.1-1.1
	c0.4-0.2,0.9-0.4,1.3-0.4c0.3,0,0.5,0,0.6,0.1c0.2,0,0.3,0.1,0.5,0.2l-0.4,1.5c-0.2-0.1-0.4-0.1-0.5-0.1c-0.1,0-0.3,0-0.6,0
	c-0.4,0-0.7,0.1-1.1,0.3c-0.4,0.2-0.7,0.6-0.9,1.1v3.1L341.6,175.5L341.6,175.5z M351,175.6c-0.4,0-0.8-0.1-1.1-0.2
	c-0.4-0.1-0.7-0.3-1-0.6s-0.5-0.6-0.7-1c-0.2-0.4-0.2-0.8-0.2-1.3s0.1-0.9,0.2-1.3c0.2-0.4,0.4-0.7,0.7-1s0.6-0.5,1-0.6
	s0.7-0.2,1.1-0.2c0.4,0,0.8,0.1,1.1,0.2c0.4,0.1,0.7,0.3,1,0.6s0.5,0.6,0.7,1c0.2,0.4,0.3,0.8,0.3,1.3s-0.1,0.9-0.3,1.3
	c-0.2,0.4-0.4,0.7-0.7,1s-0.6,0.5-1,0.6C351.8,175.6,351.4,175.6,351,175.6z M351,174.2c0.4,0,0.7-0.2,0.9-0.5s0.3-0.7,0.3-1.2
	s-0.1-0.9-0.3-1.2s-0.5-0.5-0.9-0.5s-0.7,0.2-0.9,0.5s-0.3,0.7-0.3,1.2s0.1,0.9,0.3,1.2C350.2,174.1,350.6,174.2,351,174.2z
	 M355.1,175.5v-6h1.3l0.1,0.7l0,0c0.1-0.2,0.3-0.4,0.5-0.6c0.2-0.2,0.5-0.3,0.8-0.3s0.5,0.1,0.7,0.2c0.2,0.2,0.3,0.4,0.4,0.7
	c0.1-0.3,0.3-0.5,0.5-0.7c0.2-0.2,0.5-0.3,0.8-0.3c0.4,0,0.8,0.2,1,0.5s0.3,0.8,0.3,1.4v4.2h-1.7v-4.1c0-0.2,0-0.3-0.1-0.4
	c0-0.1-0.1-0.1-0.2-0.1c-0.1,0-0.2,0-0.3,0.1s-0.2,0.2-0.2,0.4v4h-1.4v-4.1c0-0.4-0.1-0.5-0.3-0.5c-0.1,0-0.2,0-0.3,0.1
	c-0.1,0.1-0.2,0.2-0.2,0.4v4h-1.7L355.1,175.5L355.1,175.5z M371.6,175.5v-4.6H370v-1.3l1.6-0.1v-0.2c0-0.3,0.1-0.7,0.2-1
	c0.1-0.3,0.3-0.6,0.5-0.8c0.2-0.2,0.5-0.4,0.8-0.5s0.7-0.2,1.2-0.2c0.3,0,0.7,0,1,0.1s0.6,0.1,0.8,0.2l-0.3,1.3
	c-0.4-0.1-0.8-0.2-1.2-0.2c-0.4,0-0.7,0.1-0.9,0.2c-0.2,0.2-0.3,0.4-0.3,0.8v0.2h2.1v1.4h-2.1v4.6L371.6,175.5L371.6,175.5z
	 M379.5,175.5v-4.6h-2.4v-1.4h4.1v6H379.5z M380.8,168.6c-0.3,0-0.6-0.1-0.8-0.3s-0.3-0.5-0.3-0.8s0.1-0.6,0.3-0.8
	c0.2-0.2,0.5-0.3,0.8-0.3s0.6,0.1,0.8,0.3c0.2,0.2,0.3,0.5,0.3,0.8s-0.1,0.6-0.3,0.8C381.5,168.5,381.2,168.6,380.8,168.6z
	 M386.8,178c-0.4,0-0.7,0-1.1-0.1c-0.3-0.1-0.6-0.1-0.9-0.3c-0.2-0.1-0.4-0.3-0.6-0.5c-0.1-0.2-0.2-0.4-0.2-0.7
	c0-0.5,0.3-0.9,0.9-1.2l0,0c-0.2-0.1-0.3-0.2-0.4-0.4c-0.1-0.2-0.2-0.4-0.2-0.6s0.1-0.4,0.2-0.6c0.1-0.2,0.3-0.4,0.5-0.5l0,0
	c-0.2-0.1-0.4-0.3-0.6-0.6c-0.1-0.3-0.2-0.6-0.2-0.9c0-0.4,0.1-0.7,0.2-0.9c0.1-0.3,0.3-0.5,0.6-0.7c0.2-0.2,0.5-0.3,0.8-0.4
	c0.3-0.1,0.6-0.1,1-0.1c0.4,0,0.7,0,1,0.1h2.4v1.3h-1.2c0.1,0.1,0.1,0.2,0.2,0.3c0.1,0.1,0.1,0.3,0.1,0.4c0,0.3-0.1,0.6-0.2,0.9
	c-0.1,0.3-0.3,0.5-0.5,0.6c-0.2,0.2-0.5,0.3-0.8,0.4c-0.3,0.1-0.6,0.1-1,0.1c-0.3,0-0.5,0-0.8-0.1c-0.1,0.1-0.2,0.1-0.2,0.2
	c0,0.1-0.1,0.1-0.1,0.2c0,0.2,0.1,0.3,0.2,0.4c0.2,0.1,0.4,0.1,0.8,0.1h1.1c0.8,0,1.4,0.1,1.8,0.3c0.4,0.2,0.6,0.6,0.6,1.2
	c0,0.3-0.1,0.6-0.2,0.9c-0.2,0.3-0.4,0.5-0.7,0.7c-0.3,0.2-0.7,0.3-1.1,0.4C387.8,178,387.2,178,386.8,178z M386.9,172.5
	c0.2,0,0.5-0.1,0.6-0.2c0.2-0.2,0.3-0.4,0.3-0.8c0-0.3-0.1-0.6-0.3-0.7c-0.2-0.2-0.4-0.2-0.6-0.2s-0.5,0.1-0.6,0.2
	c-0.2,0.2-0.2,0.4-0.2,0.7s0.1,0.6,0.2,0.8C386.4,172.5,386.5,172.5,386.9,172.5z M387,176.9c0.5,0,0.9-0.1,1.2-0.2
	c0.3-0.1,0.5-0.3,0.5-0.5s-0.1-0.3-0.3-0.4c-0.2-0.1-0.4-0.1-0.8-0.1h-0.8c-0.2,0-0.4,0-0.5,0c-0.1,0-0.3,0-0.4-0.1
	c-0.2,0.1-0.3,0.2-0.3,0.3s-0.1,0.2-0.1,0.3c0,0.2,0.1,0.4,0.4,0.5C386.2,176.9,386.5,176.9,387,176.9z M391,175.5v-6h1.3l0.1,0.7
	l0,0c0.1-0.2,0.3-0.4,0.5-0.6s0.5-0.3,0.8-0.3s0.5,0.1,0.7,0.2c0.2,0.2,0.3,0.4,0.4,0.7c0.1-0.3,0.3-0.5,0.5-0.7s0.5-0.3,0.8-0.3
	c0.4,0,0.8,0.2,1,0.5s0.3,0.8,0.3,1.4v4.2h-1.7v-4.1c0-0.2,0-0.3-0.1-0.4c0-0.1-0.1-0.1-0.2-0.1c-0.1,0-0.2,0-0.3,0.1
	c-0.1,0.1-0.2,0.2-0.2,0.4v4h-1.4v-4.1c0-0.4-0.1-0.5-0.3-0.5c-0.1,0-0.2,0-0.3,0.1s-0.2,0.2-0.2,0.4v4H391L391,175.5L391,175.5z
	 M400.5,175.6c-0.3,0-0.6,0-0.8-0.1s-0.4-0.2-0.6-0.4s-0.3-0.4-0.4-0.6c-0.1-0.2-0.1-0.5-0.1-0.7c0-0.3,0.1-0.6,0.2-0.9
	c0.1-0.3,0.4-0.5,0.7-0.6c0.3-0.2,0.7-0.3,1.2-0.4c0.5-0.1,1.1-0.2,1.8-0.2c0-0.3-0.2-0.5-0.4-0.6c-0.2-0.2-0.5-0.2-0.9-0.2
	c-0.3,0-0.6,0.1-0.9,0.2c-0.3,0.1-0.6,0.2-0.9,0.4l-0.6-1.2c0.4-0.2,0.8-0.4,1.3-0.6s1-0.2,1.5-0.2c0.8,0,1.5,0.2,2,0.7
	c0.5,0.4,0.7,1.1,0.7,2v3.4h-1.4l-0.1-0.7l0,0c-0.3,0.2-0.6,0.4-1,0.6C401.2,175.6,400.9,175.6,400.5,175.6z M401,174.3
	c0.3,0,0.5-0.1,0.7-0.2c0.2-0.1,0.5-0.2,0.7-0.4v-1c-0.4,0-0.8,0.1-1.1,0.1c-0.3,0.1-0.5,0.1-0.7,0.2c-0.2,0.1-0.3,0.2-0.4,0.3
	c-0.1,0.1-0.1,0.2-0.1,0.4s0.1,0.3,0.2,0.4C400.5,174.2,400.8,174.3,401,174.3z"/>
<path class="st0" d="M236,84.6h25.7V164h25.7"/>
<path class="st4" d="M239.8,84.6h21.9V164h19.7"/>
<path class="st5" d="M239.8,86.2h-3.3V83h3.3V86.2z"/>
<path class="st6" d="M281.4,165.6l4.5-1.7l-4.5-1.7V165.6z"/>
<path class="st4" d="M454.4,94.3h21.2v125.6H242"/>
<path class="st5" d="M454.4,95.9h-3.3v-3.3h3.3V95.9z"/>
<path class="st6" d="M242,218.2l-4.5,1.7l4.5,1.7V218.2z"/>
<path class="st0" d="M450.7,164h25v55.8H236"/>
<path class="st4" d="M454.4,164h21.2v55.8H242"/>
<path class="st5" d="M454.4,165.6h-3.3v-3.3h3.3V165.6z"/>
<path class="st6" d="M242,218.2l-4.5,1.7l4.5,1.7V218.2z"/>
<g>
	<path class="st7" d="M385,7.9c0,0.1,0,0.1,0,0.2v0.1c0,0.2,0,0.3,0,0.5s0,0.4-0.1,0.7c-0.1,0.7-0.3,1.4-0.6,2.1
		c-0.5,1-1.1,1.9-2,2.6c-0.7,0.6-1.5,1.1-2.3,1.4c-0.6,0.2-1.1,0.4-1.7,0.5c-0.3,0-0.5,0.1-0.8,0.1c-0.4,0-0.9,0-1.3,0
		c0,0,0,0-0.1,0c-2.3,0-4.6,0-6.9,0c-0.1,0-0.1,0-0.2,0c0-0.1,0-0.2,0-0.3c0-5.1,0-10.3,0-15.4c0-0.1,0-0.2,0-0.2l0,0
		c0.1,0,0.2,0,0.2,0c2.6,0,5.1,0,7.7,0c0.2,0,0.3,0,0.5,0s0.4,0,0.5,0c0.4,0,0.8,0.1,1.2,0.2c1.5,0.4,2.8,1.2,3.8,2.4
		c0.9,1,1.5,2.2,1.8,3.5c0.1,0.4,0.2,0.8,0.2,1.1C385,7.4,385,7.6,385,7.9C385,7.8,385,7.8,385,7.9z"/>
	<path class="st8" d="M369.1,25c0,0.3,0,0.6,0,0.9c0,1.9,0,3.9,0,5.8c0,0.1,0,0.1,0,0.2H369c-2.7,0-5.3,0-8,0c-0.1,0-0.3,0-0.4,0
		c-0.3,0-0.6-0.1-0.9-0.1c-0.7-0.1-1.4-0.3-2.1-0.7c-0.9-0.4-1.7-1-2.4-1.7s-1.2-1.5-1.6-2.4c-0.3-0.8-0.5-1.7-0.6-2.5
		c0-0.1,0-0.2-0.1-0.3c0-0.2,0-0.4,0-0.6c0-0.1,0.1-0.2,0.1-0.3c0-0.2,0-0.4,0.1-0.7c0.1-0.6,0.2-1.2,0.5-1.7
		c0.6-1.5,1.6-2.7,2.9-3.6c1.2-0.8,2.6-1.3,4-1.4h0.1c2.7,0,5.4,0,8.2,0c0.1,0,0.1,0,0.2,0c0,2,0,4.1,0,6.1c0,0.3,0,0.5,0,0.8
		c0,0.2,0,0.3,0,0.5c0,0.1,0,0.2,0,0.3c0,0.2,0,0.3,0,0.5C369.1,24.5,369.1,24.7,369.1,25z"/>
	<path class="st9" d="M369.1,32c0,0.1,0,0.1,0,0.2c0,2.6,0,5.2,0,7.8c0,1.8-0.5,3.4-1.6,4.8c-1.2,1.6-2.8,2.6-4.7,3
		c-0.2,0.1-0.5,0.1-0.7,0.1c-0.1,0-0.1,0-0.2,0c-0.2,0-0.4,0-0.6,0s-0.3,0-0.5,0c-0.1,0-0.2,0-0.3,0c-0.3,0-0.7-0.1-1-0.1
		c-1.5-0.3-2.9-1-4-2.1c-1.5-1.4-2.2-3.2-2.4-5.2c0-0.1,0-0.2,0-0.2s0-0.1-0.1-0.1c0,0,0,0,0-0.1s0-0.1,0-0.2c0,0,0.1,0,0.1-0.1
		s0-0.2,0-0.3c0-0.5,0.1-1.1,0.3-1.6c0.4-1.6,1.3-2.9,2.5-4c1-0.8,2.1-1.4,3.3-1.7c0.5-0.1,0.9-0.2,1.4-0.2c0.2,0,0.3,0,0.5,0
		c2.6,0,5.2,0,7.8,0C369,31.9,369,32,369.1,32z"/>
	<path class="st10" d="M369.1,24.2c0-0.2,0-0.3,0-0.5c0-0.1,0-0.2,0-0.3s0-0.3,0-0.4c0.1-0.4,0.1-0.8,0.2-1.2c0.5-1.6,1.3-2.9,2.6-4
		c0.9-0.7,1.9-1.2,3-1.5c0.4-0.1,0.8-0.2,1.2-0.2c0.1,0,0.3,0,0.4,0c0.3,0,0.6,0,0.9,0c0,0,0,0,0.1,0c0.5,0,0.9,0.1,1.4,0.2
		c1.7,0.4,3,1.3,4.2,2.5c0.8,0.9,1.3,1.9,1.7,3.1c0.1,0.5,0.2,0.9,0.2,1.4c0,0.2,0,0.3,0,0.5v0.1c0,0.1,0,0.1,0,0.2v0.1
		c0,0.2,0,0.4,0,0.5c0,0.4-0.1,0.8-0.2,1.2c-0.3,1.3-1,2.5-1.9,3.5c-1,1.1-2.2,1.8-3.6,2.2c-0.5,0.1-0.9,0.2-1.4,0.3
		c-0.3,0-0.6,0.1-0.9,0.1c-1.9,0-3.6-0.6-5-1.8c-1.2-1-2.1-2.3-2.6-3.8c-0.1-0.4-0.2-0.9-0.3-1.3C369.2,24.7,369.2,24.5,369.1,24.2
		L369.1,24.2z"/>
	<path class="st11" d="M377.5,0L377.5,0c-0.2,0-0.3,0-0.5,0c-2.6,0-5.1,0-7.7,0c-0.1,0-0.2,0-0.2,0l0,0C371.9,0,374.7,0,377.5,0z"/>
	<path class="st12" d="M369.1,0L369.1,0L369.1,0c-0.1,0-0.2,0-0.3,0c-2.5,0-5.1,0-7.6,0C361,0,361,0,361,0l0,0
		C363.7,0,366.4,0,369.1,0z"/>
	<path class="st13" d="M353.1,7.5L353.1,7.5c0.1,0.1,0.1,0.2,0,0.3c0,0.1,0,0.2,0,0.3c0,0.1,0,0.2,0,0.4c0,0,0,0-0.1,0
		C353.1,8.1,353.1,7.8,353.1,7.5z"/>
	<path class="st14" d="M360.8,47.9c0.2,0,0.3,0,0.5,0c0.2,0,0.4,0,0.6,0c0.1,0,0.1,0,0.2,0c-0.1,0-0.2,0-0.3,0h-0.1
		C361.4,47.9,361.1,47.9,360.8,47.9L360.8,47.9z"/>
	<path class="st15" d="M353.1,39.5L353.1,39.5c0.1,0.1,0.1,0.2,0.1,0.3c0,0,0,0.1-0.1,0.1l0,0C353.1,39.7,353.1,39.6,353.1,39.5z"/>
	<path class="st16" d="M385,7.2C385,7.3,385,7.3,385,7.2c0,0.2,0,0.4,0,0.6V7.7C385,7.6,385,7.4,385,7.2z"/>
	<path class="st17" d="M385,24.7c0-0.2,0-0.4,0-0.5v-0.1C385,24.3,385,24.5,385,24.7L385,24.7L385,24.7z"/>
	<path class="st16" d="M385,8.7L385,8.7c0-0.2,0-0.3,0-0.5V8.1C385,8.3,385,8.5,385,8.7z"/>
	<path class="st18" d="M385,23.3L385,23.3c0,0.2,0,0.4,0,0.6v-0.1C385,23.6,385,23.4,385,23.3z"/>
	<path class="st19" d="M353.2,40.4C353.1,40.4,353.1,40.4,353.2,40.4c-0.1-0.1-0.1-0.2-0.1-0.3c0,0,0.1,0,0.1,0.1
		C353.2,40.2,353.2,40.3,353.2,40.4z"/>
	<path class="st20" d="M361,0L361,0c-0.2,0-0.3,0-0.4,0l0,0C360.7,0,360.9,0,361,0z"/>
	<path class="st21" d="M360.8,47.9L360.8,47.9c-0.1,0-0.2,0-0.3,0l0,0C360.6,47.9,360.7,47.9,360.8,47.9z"/>
	<path class="st19" d="M353.1,39.8L353.1,39.8c0,0.1,0,0.1,0,0.2C353.1,39.9,353.1,39.9,353.1,39.8z"/>
	<path class="st22" d="M360.7,31.9C360.7,31.9,360.6,31.9,360.7,31.9c0.1,0,0.2,0,0.4,0c2.7,0,5.3,0,8,0h0.1l0,0c-0.1,0-0.1,0-0.2,0
		c-2.6,0-5.2,0-7.8,0C361,31.9,360.8,31.9,360.7,31.9z"/>
	<path class="st22" d="M369.1,24.2L369.1,24.2c0,0.3,0,0.5,0.1,0.7c0,0,0,0-0.1,0C369.1,24.7,369.1,24.5,369.1,24.2z"/>
	<path class="st23" d="M360.6,0c0.1,0,0.3,0,0.4,0c0.1,0,0.2,0,0.2,0c2.5,0,5.1,0,7.6,0c0.1,0,0.2,0,0.3,0c0,0.1,0,0.2,0,0.2
		c0,5.1,0,10.3,0,15.4c0,0.1,0,0.2,0,0.3l0,0c-0.1,0-0.2,0-0.2,0c-2.5,0-5.1,0-7.6,0c-0.2,0-0.4,0-0.6,0c-1.9-0.1-3.5-0.8-4.9-2.1
		c-1.2-1.1-2-2.5-2.4-4.1c-0.1-0.4-0.2-0.8-0.2-1.3c0-0.1,0-0.2,0-0.4c0-0.1,0-0.2,0-0.3s0-0.2,0-0.3c0.1-1.8,0.7-3.4,1.9-4.7
		c1-1.2,2.3-2.1,3.9-2.5C359.5,0.1,360,0,360.6,0z"/>
	<path class="st24" d="M376.2,16C376.2,16,376.2,16,376.2,16C376.2,15.9,376.2,15.9,376.2,16c0.4-0.1,0.9-0.1,1.3-0.1l0,0
		c-0.3,0-0.6,0-0.9,0C376.5,16,376.4,16,376.2,16z"/>
	<path class="st24" d="M369.1,16L369.1,16c-0.1,0-0.1,0-0.2,0c-2.7,0-5.4,0-8.2,0h-0.1l0,0c0.2,0,0.4,0,0.6,0c2.5,0,5.1,0,7.6,0
		C369,15.9,369,16,369.1,16z"/>
	<path class="st25" d="M369.1,22.9C369.1,22.9,369.2,23,369.1,22.9c0,0.2,0,0.3,0,0.5l0,0C369.1,23.3,369.1,23.1,369.1,22.9z"/>
	<path class="st22" d="M369.1,23.4L369.1,23.4c0,0.1,0,0.2,0,0.3C369.1,23.6,369.1,23.5,369.1,23.4z"/>
</g>
</svg>
