<svg id="Layer_1" data-name="Layer 1" xmlns="http://www.w3.org/2000/svg" viewBox="0 0 783.72 415.84"><defs><style>.cls-1{fill-opacity:0;}.cls-1,.cls-3,.cls-4{fill-rule:evenodd;}.cls-2,.cls-5{fill:none;stroke-linejoin:round;}.cls-2{stroke:#ff008a;}.cls-3,.cls-6{fill:#ff008a;}.cls-4{fill:#5400d5;}.cls-5{stroke:#5400d5;}.cls-7{fill:#fff;}</style></defs><path class="cls-1" d="M57.54,42.71H236.3V205.3H57.54Z"/><path class="cls-1" d="M236.3,61.83H415.05v330H236.3Z"/><path class="cls-1" d="M0,207.42l235.72-.09v12.36h229.5"/><path class="cls-2" d="M0,207.42l235.72-.09v12.36h229.5"/><path class="cls-2" d="M236,0V415.84"/><path class="cls-3" d="M238.54,9.73h8.12V61.27h-8.12Z"/><path class="cls-3" d="M78.64,209.51h8.13v28H78.64Z"/><path class="cls-4" d="M21.62,200.17H62.21v4.44H21.62Z"/><path class="cls-3" d="M67.73,209.51h8.12v6.09H67.73Z"/><path class="cls-3" d="M56.81,209.51h8.13V219.7H56.81Z"/><path class="cls-3" d="M45.89,209.51H54V214H45.89Z"/><path class="cls-4" d="M238.26,321.67h34.32v28H238.26Z"/><path class="cls-3" d="M199.12,362.57h34.32v10.19H199.12Z"/><path class="cls-4" d="M238.48,381.58h13.43v10.2H238.48Z"/><path class="cls-4" d="M391.76,221.71h34.31V231.9H391.76Z"/><path class="cls-1" d="M52.37,21.64H220.56V184.22H52.37Z"/><path class="cls-5" d="M52.37,21.64H220.56V184.22H52.37Z"/><path class="cls-6" d="M277.28,267.15V264a3.31,3.31,0,0,1,1-2.37,4.66,4.66,0,0,1,2.5-1.33v6.83Zm5.44,0v-3.1a3.34,3.34,0,0,1,1-2.4,4.5,4.5,0,0,1,2.5-1.31v6.81Zm6.43,12.19V260.13h3.51v15.68h15.69v3.54Zm20.64,0V263.9h3.48v15.45Zm0-17v-3.53h3.48v3.53Zm13.72,17L315,263.9h4l6.11,11.22,6.08-11.22h4l-8.53,15.45Zm13.58,0V263.9h3.48v15.45Zm0-17v-3.53h3.48v3.53Zm6.57,17V263.9h12a3.69,3.69,0,0,1,3.68,3.67v11.78h-3.5v-11c0-.5,0-.78-.1-.84s-.33-.1-.83-.1h-6.85c-.49,0-.77,0-.83.1s-.1.34-.1.84v11Zm20.6,6.11v-3.53H373a1.82,1.82,0,0,0,.81-.09c.07-.06.1-.33.1-.83v-1.66h-8.53a3.55,3.55,0,0,1-2.6-1.08,3.5,3.5,0,0,1-1.07-2.59v-8.11a3.67,3.67,0,0,1,3.67-3.67h8.37a3.49,3.49,0,0,1,2.58,1.08,3.53,3.53,0,0,1,1.08,2.59v14.2a3.55,3.55,0,0,1-1.08,2.6,3.46,3.46,0,0,1-2.58,1.09Zm1.85-9.59H373c.48,0,.75,0,.81-.1s.1-.34.1-.84v-6.61c0-.5,0-.78-.1-.84s-.33-.1-.81-.1h-6.87a1.79,1.79,0,0,0-.85.1,1.93,1.93,0,0,0-.09.84v6.61a1.93,1.93,0,0,0,.09.84A1.79,1.79,0,0,0,366.11,275.87Zm22.24,3.48V263.9h3.48v15.45Zm0-17v-3.53h3.48v3.53Zm6.57,17V263.9h12a3.69,3.69,0,0,1,3.68,3.67v11.78h-3.5v-11c0-.5,0-.78-.1-.84s-.33-.1-.83-.1h-6.85c-.49,0-.77,0-.83.1s-.1.34-.1.84v11Zm30.37,0a3.59,3.59,0,0,1-2.61-1.08,3.51,3.51,0,0,1-1.08-2.59V259.15h3.5v4.75h6v3.48h-6v7.55c0,.5,0,.78.1.84s.34.1.84.1h5.08v3.48Zm8.42,0V258.82h3.5v5.08h8.53a3.55,3.55,0,0,1,2.58,1.08,3.5,3.5,0,0,1,1.09,2.59v11.78h-3.5v-11a1.93,1.93,0,0,0-.09-.84c-.05-.07-.33-.1-.83-.1h-6.86c-.49,0-.77,0-.83.1a1.93,1.93,0,0,0-.09.84v11Zm21.37,0a3.69,3.69,0,0,1-3.67-3.67v-8.11a3.69,3.69,0,0,1,3.67-3.67h8.35a3.69,3.69,0,0,1,3.68,3.67v5.81H454.89v1.55a1.86,1.86,0,0,0,.1.84c.06.07.34.1.84.1h11.28v3.48Zm-.19-9.11h8.72v-1.92a1.93,1.93,0,0,0-.09-.84c-.06-.07-.34-.1-.83-.1h-6.86c-.5,0-.78,0-.84.1a1.86,1.86,0,0,0-.1.84Zm23.26,9.11V260.16H482l7,8.29,6.93-8.29h3.89v19.19h-3.54V265.27L489,274l-7.3-8.64v14Zm28.27,0a3.69,3.69,0,0,1-3.67-3.67v-8.11a3.69,3.69,0,0,1,3.67-3.67h8.34a3.69,3.69,0,0,1,3.69,3.67v8.11a3.69,3.69,0,0,1-3.69,3.67Zm.75-3.48H514c.49,0,.77,0,.83-.1a1.93,1.93,0,0,0,.09-.84v-6.61a1.93,1.93,0,0,0-.09-.84c-.06-.07-.34-.1-.83-.1h-6.86c-.5,0-.78,0-.84.1s-.1.34-.1.84v6.61c0,.5,0,.78.1.84S506.67,275.87,507.17,275.87Zm14.1,3.48V263.9h19.18a3.69,3.69,0,0,1,3.67,3.67v11.78h-3.47v-11c0-.5,0-.78-.11-.84s-.33-.1-.81-.1H535.4c-.49,0-.77,0-.83.1a1.93,1.93,0,0,0-.09.84v11H531v-11a1.86,1.86,0,0,0-.1-.84c-.06-.07-.34-.1-.83-.1H525.7c-.49,0-.77,0-.83.1s-.1.34-.1.84v11Zm28.92,0a3.69,3.69,0,0,1-3.67-3.67v-8.11a3.69,3.69,0,0,1,3.67-3.67h8.34a3.69,3.69,0,0,1,3.69,3.67v5.81H550v1.55c0,.5,0,.78.1.84s.34.1.84.1h11.28v3.48Zm-.19-9.11h8.72v-1.92a1.93,1.93,0,0,0-.09-.84c-.06-.07-.34-.1-.83-.1h-6.86c-.5,0-.78,0-.84.1s-.1.34-.1.84Zm15,9.11V263.9h12a3.69,3.69,0,0,1,3.68,3.67v11.78h-3.5v-11a1.86,1.86,0,0,0-.1-.84c0-.07-.33-.1-.83-.1h-6.86c-.49,0-.76,0-.82.1s-.1.34-.1.84v11Zm22.21,0a3.59,3.59,0,0,1-2.61-1.08,3.51,3.51,0,0,1-1.08-2.59V259.15h3.5v4.75h6v3.48h-6v7.55a1.86,1.86,0,0,0,.1.84c.06.07.34.1.84.1h5.08v3.48Zm8-12.15v-6.8h3.52v3.12a3.25,3.25,0,0,1-1,2.36A4.71,4.71,0,0,1,595.27,267.2Zm5.44,0v-6.8h3.5v3.12a3.3,3.3,0,0,1-1,2.36A4.71,4.71,0,0,1,600.71,267.2Z"/><path class="cls-7" d="M451.65,327.2v-9.57h6.14v1.42h-4.45v2.45h3.76v1.44h-3.76v2.83h4.59v1.43Zm8,0,2.61-3.73L459.85,320h1.83l.93,1.38c.13.18.26.39.39.61l.41.61h.06c.11-.2.22-.41.35-.63s.24-.42.36-.61L465,320h1.78l-2.45,3.64L467,327.2h-1.82l-1-1.42-.44-.62c-.14-.23-.29-.45-.44-.66h-.06l-.39.64q-.16.32-.39.66l-.94,1.4Zm13.77.18a4,4,0,0,1-1.39-.22,2.35,2.35,0,0,1-.9-.61,2.44,2.44,0,0,1-.5-1,4.53,4.53,0,0,1-.16-1.26v-2.95h-1.92v-1.27l2-.08.22-2.25h1.39V320h3.28v1.35h-3.28v2.95a1.93,1.93,0,0,0,.37,1.31,1.69,1.69,0,0,0,1.3.42,3.6,3.6,0,0,0,.83-.08,4.12,4.12,0,0,0,.73-.21l.33,1.23c-.32.1-.67.2-1.05.28A5.78,5.78,0,0,1,473.45,327.38Zm7.91,0a4.89,4.89,0,0,1-1.55-.25,4.1,4.1,0,0,1-1.25-.74,3.56,3.56,0,0,1-.84-1.19,3.91,3.91,0,0,1-.32-1.6,3.73,3.73,0,0,1,.32-1.57,3.49,3.49,0,0,1,.83-1.18,3.21,3.21,0,0,1,1.18-.75,3.7,3.7,0,0,1,1.39-.27,3.51,3.51,0,0,1,1.43.27,2.81,2.81,0,0,1,1,.7,2.77,2.77,0,0,1,.64,1.08,4,4,0,0,1,.22,1.37c0,.17,0,.33,0,.49a2.84,2.84,0,0,1-.05.36h-5.3a2.17,2.17,0,0,0,.8,1.5,2.84,2.84,0,0,0,1.69.48,3.19,3.19,0,0,0,1-.16,5,5,0,0,0,1-.45l.58,1.06a5.1,5.1,0,0,1-1.31.61A4.71,4.71,0,0,1,481.36,327.38Zm-.19-6.24a2.07,2.07,0,0,0-1.31.44,2,2,0,0,0-.72,1.31H483a2,2,0,0,0-.57-1.31A1.7,1.7,0,0,0,481.17,321.14Zm5.34,6.06V320h1.39l.13,1.1h.06a5.52,5.52,0,0,1,1.14-.9,2.77,2.77,0,0,1,1.45-.37,2.11,2.11,0,0,1,1.83.77,3.36,3.36,0,0,1,.6,2.15v4.45H491.4V323a2.26,2.26,0,0,0-.29-1.28,1.23,1.23,0,0,0-1.05-.41,1.81,1.81,0,0,0-.94.25,5.1,5.1,0,0,0-.91.77v4.9Zm11.45.18a3.22,3.22,0,0,1-1.26-.25,2.93,2.93,0,0,1-1-.74,3.61,3.61,0,0,1-.61-1.19,5.5,5.5,0,0,1-.22-1.59,4.89,4.89,0,0,1,.25-1.58,3.56,3.56,0,0,1,.72-1.18,3.06,3.06,0,0,1,1-.75,2.76,2.76,0,0,1,1.19-.27,2.5,2.5,0,0,1,1.09.22,3.07,3.07,0,0,1,.89.64h0l-.1-1.22v-2.61h1.71V327.2h-1.39l-.15-.82h0a4.33,4.33,0,0,1-1,.72A2.65,2.65,0,0,1,498,327.38Zm.41-1.39a2.13,2.13,0,0,0,1.62-.86v-3.24a2,2,0,0,0-.76-.51,1.9,1.9,0,0,0-.77-.16,1.59,1.59,0,0,0-.72.17,1.82,1.82,0,0,0-.58.46,2.21,2.21,0,0,0-.4.75,3.06,3.06,0,0,0-.14,1,3,3,0,0,0,.45,1.78A1.54,1.54,0,0,0,498.37,326Zm8.89,1.21v-5.85h-3.13V320h4.8v7.2Zm1-8.51a1.29,1.29,0,0,1-.86-.3,1.06,1.06,0,0,1-.35-.83,1,1,0,0,1,.35-.82,1.25,1.25,0,0,1,.86-.32,1.24,1.24,0,0,1,.86.32,1.07,1.07,0,0,1,.34.82,1.09,1.09,0,0,1-.34.83A1.27,1.27,0,0,1,508.29,318.69Zm4.6,8.51V320h1.39l.13,1.1h.06a5.52,5.52,0,0,1,1.14-.9,2.77,2.77,0,0,1,1.45-.37,2.11,2.11,0,0,1,1.83.77,3.36,3.36,0,0,1,.6,2.15v4.45h-1.71V323a2.26,2.26,0,0,0-.29-1.28,1.23,1.23,0,0,0-1-.41,1.83,1.83,0,0,0-.94.25,4.75,4.75,0,0,0-.9.77v4.9Zm11.78,3.19a6.74,6.74,0,0,1-1.34-.12,3.56,3.56,0,0,1-1-.36,1.82,1.82,0,0,1-.68-.6,1.55,1.55,0,0,1-.23-.84,1.8,1.8,0,0,1,1.14-1.52v-.06a2,2,0,0,1-.52-.45,1.28,1.28,0,0,1-.21-.75,1.24,1.24,0,0,1,.23-.7,2.06,2.06,0,0,1,.64-.64v-.07a2.13,2.13,0,0,1-.66-.73,2.39,2.39,0,0,1-.26-1.13,2.56,2.56,0,0,1,.23-1.09,2.7,2.7,0,0,1,.64-.81,2.83,2.83,0,0,1,.94-.5,3.41,3.41,0,0,1,1.14-.19,3.62,3.62,0,0,1,1.13.17h2.95v1.3h-1.66a1.73,1.73,0,0,1,.33.51,1.56,1.56,0,0,1,.14.68,2.43,2.43,0,0,1-.23,1.06,2.16,2.16,0,0,1-.61.76,3,3,0,0,1-.92.47,3.72,3.72,0,0,1-1.13.16,3,3,0,0,1-1.09-.22.8.8,0,0,0-.44.69c0,.45.45.67,1.36.67H526a4.32,4.32,0,0,1,2.11.41,1.39,1.39,0,0,1,.72,1.34,1.83,1.83,0,0,1-.3,1,2.68,2.68,0,0,1-.83.81,4.53,4.53,0,0,1-1.31.55A6.94,6.94,0,0,1,524.67,330.39Zm0-6.53a1.34,1.34,0,0,0,1-.37,1.39,1.39,0,0,0,.4-1.07,1.34,1.34,0,0,0-.4-1,1.36,1.36,0,0,0-1.91,0,1.35,1.35,0,0,0-.41,1,1.39,1.39,0,0,0,.41,1.07A1.35,1.35,0,0,0,524.7,323.86Zm.17,5.41a4,4,0,0,0,1-.1,2.59,2.59,0,0,0,.73-.26,1.41,1.41,0,0,0,.47-.36.7.7,0,0,0,.17-.44.54.54,0,0,0-.36-.56,3,3,0,0,0-1.09-.14h-1.14a4.66,4.66,0,0,1-1.11-.1,1.88,1.88,0,0,0-.55.46.85.85,0,0,0-.15.48.82.82,0,0,0,.53.75A3.54,3.54,0,0,0,524.87,329.27Zm18.94-1.89a4,4,0,0,1-1.4-.22,2.35,2.35,0,0,1-.9-.61,2.44,2.44,0,0,1-.5-1,4.53,4.53,0,0,1-.16-1.26v-2.95h-1.92v-1.27l2-.08.22-2.25h1.39V320h3.28v1.35h-3.28v2.95a1.93,1.93,0,0,0,.37,1.31,1.69,1.69,0,0,0,1.3.42A3.6,3.6,0,0,0,545,326a4.12,4.12,0,0,0,.73-.21l.33,1.23c-.32.1-.67.2-1,.28A5.93,5.93,0,0,1,543.81,327.38Zm4.26-.18V316.86h1.7v2.66l-.11,1.54h.05a4.81,4.81,0,0,1,1.08-.86,2.74,2.74,0,0,1,1.45-.37,2.13,2.13,0,0,1,1.83.77,3.42,3.42,0,0,1,.59,2.15v4.45H553V323a2.18,2.18,0,0,0-.3-1.28,1.23,1.23,0,0,0-1-.41,1.8,1.8,0,0,0-.93.25,4.77,4.77,0,0,0-.91.77v4.9Zm12.43.18a4.78,4.78,0,0,1-1.54-.25,4,4,0,0,1-1.25-.74,3.45,3.45,0,0,1-.85-1.19,3.9,3.9,0,0,1-.31-1.6,3.73,3.73,0,0,1,.31-1.57,3.64,3.64,0,0,1,.83-1.18,3.17,3.17,0,0,1,1.19-.75,3.7,3.7,0,0,1,1.39-.27,3.49,3.49,0,0,1,1.42.27,2.77,2.77,0,0,1,1,.7,2.9,2.9,0,0,1,.64,1.08,4.23,4.23,0,0,1,.22,1.37c0,.17,0,.33,0,.49a2.84,2.84,0,0,1-.05.36h-5.29a2.16,2.16,0,0,0,.79,1.5,2.84,2.84,0,0,0,1.69.48,3.25,3.25,0,0,0,1-.16,5.58,5.58,0,0,0,1-.45l.57,1.06a5.1,5.1,0,0,1-1.31.61A4.71,4.71,0,0,1,560.5,327.38Zm-.19-6.24a2,2,0,0,0-2,1.75h3.83a2,2,0,0,0-.56-1.31A1.71,1.71,0,0,0,560.31,321.14Zm16.36,6.24a2.16,2.16,0,0,1-1.83-.75,3.52,3.52,0,0,1-.56-2.16V320H576v4.25a2.18,2.18,0,0,0,.3,1.28,1.25,1.25,0,0,0,1,.39,1.68,1.68,0,0,0,.9-.23,3.48,3.48,0,0,0,.9-.83V320h1.68v7.2h-1.37l-.14-1.14h0a4.29,4.29,0,0,1-1.14,1A2.75,2.75,0,0,1,576.67,327.38Zm6.57-.18V320h1.39l.13,1.1h.06a5.52,5.52,0,0,1,1.14-.9,2.77,2.77,0,0,1,1.45-.37,2.11,2.11,0,0,1,1.83.77,3.36,3.36,0,0,1,.6,2.15v4.45h-1.71V323a2.26,2.26,0,0,0-.29-1.28,1.23,1.23,0,0,0-1.05-.41,1.83,1.83,0,0,0-.94.25,4.75,4.75,0,0,0-.9.77v4.9Zm12,0v-5.85h-3.12V320h4.79v7.2Zm1-8.51a1.31,1.31,0,0,1-.86-.3,1.09,1.09,0,0,1-.34-.83,1.07,1.07,0,0,1,.34-.82,1.27,1.27,0,0,1,.86-.32,1.22,1.22,0,0,1,.86.32,1,1,0,0,1,.35.82,1.06,1.06,0,0,1-.35.83A1.25,1.25,0,0,1,596.22,318.69Zm9.3,11.36v-2.38l.09-1.25h-.05a3.32,3.32,0,0,1-.95.69,2.5,2.5,0,0,1-1.12.27,3.31,3.31,0,0,1-1.27-.25,3,3,0,0,1-1-.74,3.43,3.43,0,0,1-.61-1.19,5.18,5.18,0,0,1-.22-1.59,4.64,4.64,0,0,1,.25-1.58,3.56,3.56,0,0,1,.72-1.18,3.13,3.13,0,0,1,1-.75,2.79,2.79,0,0,1,1.19-.27,2.73,2.73,0,0,1,1.14.23,3.44,3.44,0,0,1,1,.71h0l.15-.77h1.33v10.05ZM603.89,326a2.13,2.13,0,0,0,1.63-.86v-3.24a2.06,2.06,0,0,0-.77-.51,1.85,1.85,0,0,0-.76-.16,1.59,1.59,0,0,0-.72.17,1.82,1.82,0,0,0-.58.46,2.22,2.22,0,0,0-.41.75,3.35,3.35,0,0,0-.14,1,2.91,2.91,0,0,0,.46,1.78A1.52,1.52,0,0,0,603.89,326Zm8,1.39a2.18,2.18,0,0,1-1.83-.75,3.59,3.59,0,0,1-.56-2.16V320h1.69v4.25a2.18,2.18,0,0,0,.3,1.28,1.21,1.21,0,0,0,1,.39,1.69,1.69,0,0,0,.91-.23,3.47,3.47,0,0,0,.89-.83V320H616v7.2h-1.38l-.14-1.14h0a4.49,4.49,0,0,1-1.15,1A2.72,2.72,0,0,1,611.84,327.38Zm10.22,0a4.89,4.89,0,0,1-1.55-.25,4.1,4.1,0,0,1-1.25-.74,3.56,3.56,0,0,1-.84-1.19,3.9,3.9,0,0,1-.31-1.6,3.73,3.73,0,0,1,.31-1.57,3.49,3.49,0,0,1,.83-1.18,3.21,3.21,0,0,1,1.18-.75,3.7,3.7,0,0,1,1.39-.27,3.51,3.51,0,0,1,1.43.27,2.81,2.81,0,0,1,1,.7,2.77,2.77,0,0,1,.64,1.08,4,4,0,0,1,.22,1.37c0,.17,0,.33,0,.49a2.84,2.84,0,0,1,0,.36h-5.3a2.17,2.17,0,0,0,.8,1.5,2.84,2.84,0,0,0,1.69.48,3.19,3.19,0,0,0,1-.16,5,5,0,0,0,1-.45l.58,1.06a5.1,5.1,0,0,1-1.31.61A4.71,4.71,0,0,1,622.06,327.38Zm-.19-6.24a2.07,2.07,0,0,0-1.31.44,2,2,0,0,0-.72,1.31h3.83a2,2,0,0,0-.56-1.31A1.74,1.74,0,0,0,621.87,321.14Zm18.67,6.24a3.93,3.93,0,0,1-1.39-.22,2.32,2.32,0,0,1-.91-.61,2.44,2.44,0,0,1-.5-1,4.93,4.93,0,0,1-.16-1.26v-2.95h-1.92v-1.27l2-.08.22-2.25h1.39V320h3.28v1.35h-3.28v2.95a1.93,1.93,0,0,0,.38,1.31,1.67,1.67,0,0,0,1.29.42,3.54,3.54,0,0,0,.83-.08,4.23,4.23,0,0,0,.74-.21l.32,1.23c-.32.1-.67.2-1,.28A5.85,5.85,0,0,1,640.54,327.38Zm4.26-.18V316.86h1.7v2.66l-.11,1.54h.05a4.81,4.81,0,0,1,1.08-.86,2.74,2.74,0,0,1,1.45-.37,2.13,2.13,0,0,1,1.83.77,3.36,3.36,0,0,1,.59,2.15v4.45h-1.7V323a2.18,2.18,0,0,0-.3-1.28,1.19,1.19,0,0,0-1-.41,1.81,1.81,0,0,0-.94.25,5.1,5.1,0,0,0-.91.77v4.9Zm9.5,0V320h1.39l.14,1.64h0a4,4,0,0,1,1.35-1.34,3.29,3.29,0,0,1,1.72-.47,3.25,3.25,0,0,1,.75.08,2.21,2.21,0,0,1,.64.22l-.35,1.42a3.42,3.42,0,0,0-1.31-.22,2.78,2.78,0,0,0-1.44.42,3.65,3.65,0,0,0-1.23,1.49v4Zm11.24,0v-5.85h-3.12V320h4.79v7.2Zm1-8.51a1.31,1.31,0,0,1-.86-.3,1.09,1.09,0,0,1-.34-.83,1.07,1.07,0,0,1,.34-.82,1.27,1.27,0,0,1,.86-.32,1.22,1.22,0,0,1,.86.32,1,1,0,0,1,.35.82,1.06,1.06,0,0,1-.35.83A1.25,1.25,0,0,1,666.57,318.69Zm9.28,8.69a2.45,2.45,0,0,1-1.92-.74,3,3,0,0,1-.64-2.06v-6.39h-2.41v-1.33H675v7.81a1.23,1.23,0,0,0,.37,1,1.4,1.4,0,0,0,.91.3,3.07,3.07,0,0,0,1.23-.28l.41,1.25a6.44,6.44,0,0,1-1,.3A4.54,4.54,0,0,1,675.85,327.38Zm8.8,0a2.46,2.46,0,0,1-1.93-.74,3.06,3.06,0,0,1-.64-2.06v-6.39h-2.4v-1.33h4.09v7.81a1.23,1.23,0,0,0,.38,1,1.4,1.4,0,0,0,.9.3,3.11,3.11,0,0,0,1.24-.28l.4,1.25a6.69,6.69,0,0,1-1,.3A4.6,4.6,0,0,1,684.65,327.38Zm7.27-.18v-5.85H688.8V320h4.8v7.2Zm1-8.51a1.29,1.29,0,0,1-.86-.3,1.06,1.06,0,0,1-.35-.83,1,1,0,0,1,.35-.82,1.25,1.25,0,0,1,.86-.32,1.2,1.2,0,0,1,.85.32,1,1,0,0,1,.35.82,1.06,1.06,0,0,1-.35.83A1.23,1.23,0,0,1,693,318.69Zm4.6,8.51V320H699l.13,1.1h.06a5.52,5.52,0,0,1,1.14-.9,2.77,2.77,0,0,1,1.45-.37,2.11,2.11,0,0,1,1.83.77,3.36,3.36,0,0,1,.6,2.15v4.45h-1.71V323a2.26,2.26,0,0,0-.29-1.28,1.23,1.23,0,0,0-1-.41,1.81,1.81,0,0,0-.94.25,4.75,4.75,0,0,0-.9.77v4.9Zm11.78,3.19a6.74,6.74,0,0,1-1.34-.12,3.56,3.56,0,0,1-1-.36,1.82,1.82,0,0,1-.68-.6,1.55,1.55,0,0,1-.23-.84A1.8,1.8,0,0,1,707.2,327v-.06a2,2,0,0,1-.52-.45,1.28,1.28,0,0,1-.21-.75,1.24,1.24,0,0,1,.23-.7,2.06,2.06,0,0,1,.64-.64v-.07a2.13,2.13,0,0,1-.66-.73,2.39,2.39,0,0,1-.26-1.13,2.56,2.56,0,0,1,.23-1.09,2.7,2.7,0,0,1,.64-.81,2.83,2.83,0,0,1,.94-.5,3.41,3.41,0,0,1,1.14-.19,3.62,3.62,0,0,1,1.13.17h3v1.3h-1.66a1.73,1.73,0,0,1,.33.51,1.56,1.56,0,0,1,.14.68,2.43,2.43,0,0,1-.23,1.06,2.16,2.16,0,0,1-.61.76,3,3,0,0,1-.92.47,3.72,3.72,0,0,1-1.13.16,3,3,0,0,1-1.09-.22.8.8,0,0,0-.44.69c0,.45.45.67,1.36.67h1.47a4.32,4.32,0,0,1,2.11.41,1.39,1.39,0,0,1,.72,1.34,1.83,1.83,0,0,1-.3,1,2.68,2.68,0,0,1-.83.81,4.53,4.53,0,0,1-1.31.55A6.94,6.94,0,0,1,709.34,330.39Zm0-6.53a1.3,1.3,0,0,0,1-.37,1.36,1.36,0,0,0,.41-1.07,1.31,1.31,0,0,0-.41-1,1.28,1.28,0,0,0-1-.39,1.33,1.33,0,0,0-1,.39,1.35,1.35,0,0,0-.41,1,1.39,1.39,0,0,0,.41,1.07A1.35,1.35,0,0,0,709.37,323.86Zm.17,5.41a4,4,0,0,0,1-.1,2.59,2.59,0,0,0,.73-.26,1.41,1.41,0,0,0,.47-.36.7.7,0,0,0,.17-.44.54.54,0,0,0-.36-.56,3,3,0,0,0-1.09-.14h-1.14a4.66,4.66,0,0,1-1.11-.1,1.88,1.88,0,0,0-.55.46.85.85,0,0,0-.15.48.82.82,0,0,0,.53.75A3.54,3.54,0,0,0,709.54,329.27Z"/><path class="cls-7" d="M455,347.38a4.84,4.84,0,0,1-1.55-.25,4,4,0,0,1-1.25-.74,3.42,3.42,0,0,1-.84-1.19,3.91,3.91,0,0,1-.32-1.6,3.73,3.73,0,0,1,.32-1.57,3.47,3.47,0,0,1,.82-1.18,3.25,3.25,0,0,1,1.19-.75,3.7,3.7,0,0,1,1.39-.27,3.46,3.46,0,0,1,1.42.27,2.83,2.83,0,0,1,1.69,1.78,4,4,0,0,1,.22,1.37,3.93,3.93,0,0,1,0,.49,3,3,0,0,1,0,.36h-5.3a2.14,2.14,0,0,0,.8,1.5,2.84,2.84,0,0,0,1.69.48,3.19,3.19,0,0,0,1-.16,5,5,0,0,0,1-.45l.58,1.06a5.26,5.26,0,0,1-1.31.61A4.71,4.71,0,0,1,455,347.38Zm-.19-6.24a2.07,2.07,0,0,0-1.31.44,2,2,0,0,0-.72,1.31h3.83a2,2,0,0,0-.57-1.31A1.7,1.7,0,0,0,454.79,341.14Zm4.89,6.06,2.61-3.73L459.85,340h1.83l.93,1.38c.13.18.26.39.39.61l.41.61h.06c.11-.2.22-.41.35-.63s.24-.42.36-.61L465,340h1.78l-2.45,3.64L467,347.2h-1.82l-1-1.42-.44-.62c-.14-.23-.29-.45-.44-.66h-.06l-.39.64q-.16.32-.39.66l-.94,1.4Zm9.24,2.85V340h1.39l.13.83h.05a4.12,4.12,0,0,1,1.07-.7,2.86,2.86,0,0,1,2.49,0,2.41,2.41,0,0,1,.92.73,3.21,3.21,0,0,1,.56,1.16,5,5,0,0,1,.21,1.51,4.78,4.78,0,0,1-.27,1.66,3.55,3.55,0,0,1-.72,1.2,3.21,3.21,0,0,1-1,.75,2.64,2.64,0,0,1-2.22.05,3.1,3.1,0,0,1-.94-.63h-.05l.1,1.27v2.25Zm3.27-4.06a1.56,1.56,0,0,0,1.28-.63,2.86,2.86,0,0,0,.52-1.84,3.08,3.08,0,0,0-.39-1.69,1.39,1.39,0,0,0-1.27-.61,1.76,1.76,0,0,0-.84.22,2.75,2.75,0,0,0-.86.66v3.23a2.59,2.59,0,0,0,.81.52A2.51,2.51,0,0,0,472.19,346Zm9.17,1.39a4.89,4.89,0,0,1-1.55-.25,4.1,4.1,0,0,1-1.25-.74,3.56,3.56,0,0,1-.84-1.19,3.91,3.91,0,0,1-.32-1.6,3.73,3.73,0,0,1,.32-1.57,3.49,3.49,0,0,1,.83-1.18,3.21,3.21,0,0,1,1.18-.75,3.7,3.7,0,0,1,1.39-.27,3.51,3.51,0,0,1,1.43.27,2.81,2.81,0,0,1,1,.7,2.77,2.77,0,0,1,.64,1.08,4,4,0,0,1,.22,1.37c0,.17,0,.33,0,.49a2.84,2.84,0,0,1-.05.36h-5.3a2.17,2.17,0,0,0,.8,1.5,2.84,2.84,0,0,0,1.69.48,3.19,3.19,0,0,0,1-.16,5,5,0,0,0,1-.45l.58,1.06a5.1,5.1,0,0,1-1.31.61A4.71,4.71,0,0,1,481.36,347.38Zm-.19-6.24a2.07,2.07,0,0,0-1.31.44,2,2,0,0,0-.72,1.31H483a2,2,0,0,0-.57-1.31A1.7,1.7,0,0,0,481.17,341.14Zm6,6.06V340h1.4l.14,1.64h0a4,4,0,0,1,1.35-1.34,3.29,3.29,0,0,1,1.72-.47,3.25,3.25,0,0,1,.75.08,2.32,2.32,0,0,1,.64.22l-.35,1.42a4.6,4.6,0,0,0-.62-.17,4.25,4.25,0,0,0-.69-.05,2.78,2.78,0,0,0-1.44.42,3.58,3.58,0,0,0-1.23,1.49v4Zm11.25,0v-5.85h-3.12V340h4.79v7.2Zm1-8.51a1.31,1.31,0,0,1-.86-.3,1.06,1.06,0,0,1-.34-.83,1,1,0,0,1,.34-.82,1.27,1.27,0,0,1,.86-.32,1.22,1.22,0,0,1,.86.32,1,1,0,0,1,.35.82,1.06,1.06,0,0,1-.35.83A1.25,1.25,0,0,1,499.49,338.69Zm8.25,8.69a4.89,4.89,0,0,1-1.55-.25,4.1,4.1,0,0,1-1.25-.74,3.56,3.56,0,0,1-.84-1.19,3.9,3.9,0,0,1-.31-1.6,3.73,3.73,0,0,1,.31-1.57,3.49,3.49,0,0,1,.83-1.18,3.21,3.21,0,0,1,1.18-.75,3.75,3.75,0,0,1,1.4-.27,3.49,3.49,0,0,1,1.42.27,2.81,2.81,0,0,1,1,.7,2.66,2.66,0,0,1,.64,1.08,4,4,0,0,1,.22,1.37c0,.17,0,.33,0,.49a2.84,2.84,0,0,1-.05.36h-5.3a2.17,2.17,0,0,0,.8,1.5,2.84,2.84,0,0,0,1.69.48,3.3,3.3,0,0,0,1.05-.16,5.18,5.18,0,0,0,1-.45l.58,1.06a5.1,5.1,0,0,1-1.31.61A4.71,4.71,0,0,1,507.74,347.38Zm-.19-6.24a2.07,2.07,0,0,0-1.31.44,2,2,0,0,0-.72,1.31h3.83a2,2,0,0,0-.56-1.31A1.74,1.74,0,0,0,507.55,341.14Zm5.34,6.06V340h1.39l.13,1.1h.06a5.52,5.52,0,0,1,1.14-.9,2.77,2.77,0,0,1,1.45-.37,2.11,2.11,0,0,1,1.83.77,3.36,3.36,0,0,1,.6,2.15v4.45h-1.71V343a2.26,2.26,0,0,0-.29-1.28,1.23,1.23,0,0,0-1-.41,1.83,1.83,0,0,0-.94.25,4.75,4.75,0,0,0-.9.77v4.9Zm12.64.18a5.09,5.09,0,0,1-1.59-.25,3.49,3.49,0,0,1-1.25-.74,3.45,3.45,0,0,1-.85-1.19,4,4,0,0,1-.29-1.59,3.55,3.55,0,0,1,2.53-3.51,4.57,4.57,0,0,1,1.56-.27,3.79,3.79,0,0,1,1.55.3,3.72,3.72,0,0,1,1.12.72l-.81,1a3.62,3.62,0,0,0-.86-.5,2.28,2.28,0,0,0-.91-.19,2.4,2.4,0,0,0-1.76.66,2.33,2.33,0,0,0-.67,1.75,2.61,2.61,0,0,0,.17,1,2.45,2.45,0,0,0,.5.76,2.27,2.27,0,0,0,.75.49,3,3,0,0,0,1,.15,2.72,2.72,0,0,0,1.11-.23,4.82,4.82,0,0,0,.93-.57l.71,1.1a4.33,4.33,0,0,1-1.39.81A4.47,4.47,0,0,1,525.53,347.38Zm8.59,0a4.89,4.89,0,0,1-1.55-.25,4.1,4.1,0,0,1-1.25-.74,3.56,3.56,0,0,1-.84-1.19,3.9,3.9,0,0,1-.31-1.6,3.73,3.73,0,0,1,.31-1.57,3.49,3.49,0,0,1,.83-1.18,3.17,3.17,0,0,1,1.19-.75,3.66,3.66,0,0,1,1.39-.27,3.49,3.49,0,0,1,1.42.27,2.93,2.93,0,0,1,1.05.7,2.9,2.9,0,0,1,.64,1.08,4.24,4.24,0,0,1,.21,1.37c0,.17,0,.33,0,.49a2.84,2.84,0,0,1-.05.36h-5.29a2.13,2.13,0,0,0,.79,1.5,2.84,2.84,0,0,0,1.69.48,3.3,3.3,0,0,0,1-.16,5.58,5.58,0,0,0,1-.45l.57,1.06a5.1,5.1,0,0,1-1.31.61A4.71,4.71,0,0,1,534.12,347.38Zm-.19-6.24a2,2,0,0,0-2,1.75h3.83a2,2,0,0,0-.56-1.31A1.72,1.72,0,0,0,533.93,341.14Zm16.37,6.24a3.56,3.56,0,0,1-1.25-.21,3.15,3.15,0,0,1-.94-.57,2.45,2.45,0,0,1-.57-.85,2.8,2.8,0,0,1-.07-1.94,3.54,3.54,0,0,1,.36-.7,3.77,3.77,0,0,1,.53-.59A5.49,5.49,0,0,1,549,342a6.71,6.71,0,0,1-.47-1.14,3.54,3.54,0,0,1-.16-1,2.51,2.51,0,0,1,.16-.92,2,2,0,0,1,.45-.75,2.24,2.24,0,0,1,.7-.52,2.11,2.11,0,0,1,.92-.2,1.9,1.9,0,0,1,2.08,2.05,1.91,1.91,0,0,1-.17.84,2.74,2.74,0,0,1-.44.72,4.54,4.54,0,0,1-.62.62l-.7.57a12.32,12.32,0,0,0,.93,1.15,10.55,10.55,0,0,0,1.1,1,8,8,0,0,0,1-2.5h1.54a12,12,0,0,1-.61,1.75,10.28,10.28,0,0,1-.82,1.58l.78.48a3.44,3.44,0,0,0,.72.28l-.43,1.38a6.92,6.92,0,0,1-2-1,3.91,3.91,0,0,1-1.17.73A3.85,3.85,0,0,1,550.3,347.38Zm-.51-7.57a3.23,3.23,0,0,0,.36,1.39,4.65,4.65,0,0,0,.87-.76,1.37,1.37,0,0,0,.36-.94,1.18,1.18,0,0,0-.17-.65.62.62,0,0,0-.58-.27.71.71,0,0,0-.61.34A1.53,1.53,0,0,0,549.79,339.81Zm.73,6.27a1.75,1.75,0,0,0,.67-.14,3.34,3.34,0,0,0,.66-.42,15.6,15.6,0,0,1-1.17-1.13,10.25,10.25,0,0,1-1-1.28,3,3,0,0,0-.53.69,1.52,1.52,0,0,0-.21.78,1.45,1.45,0,0,0,.44,1.09A1.64,1.64,0,0,0,550.52,346.08Zm18.78,1.3a4.84,4.84,0,0,1-1.55-.25,4,4,0,0,1-1.25-.74,3.3,3.3,0,0,1-.84-1.19,3.91,3.91,0,0,1-.32-1.6,3.73,3.73,0,0,1,.32-1.57,3.47,3.47,0,0,1,.82-1.18,3.25,3.25,0,0,1,1.19-.75,3.7,3.7,0,0,1,1.39-.27,3.46,3.46,0,0,1,1.42.27,2.83,2.83,0,0,1,1.69,1.78,4,4,0,0,1,.22,1.37c0,.17,0,.33,0,.49a3,3,0,0,1,0,.36H567a2.14,2.14,0,0,0,.8,1.5,2.83,2.83,0,0,0,1.68.48,3.21,3.21,0,0,0,1-.16,5.26,5.26,0,0,0,1-.45l.58,1.06a5.26,5.26,0,0,1-1.31.61A4.71,4.71,0,0,1,569.3,347.38Zm-.19-6.24a2.07,2.07,0,0,0-1.31.44,2,2,0,0,0-.72,1.31h3.83a2,2,0,0,0-.57-1.31A1.7,1.7,0,0,0,569.11,341.14Zm5.34,6.06V340h1.39l.12,1.1H576a5.52,5.52,0,0,1,1.14-.9,2.74,2.74,0,0,1,1.45-.37,2.13,2.13,0,0,1,1.83.77,3.42,3.42,0,0,1,.59,2.15v4.45h-1.7V343a2.18,2.18,0,0,0-.3-1.28,1.21,1.21,0,0,0-1-.41,1.81,1.81,0,0,0-.94.25,5.1,5.1,0,0,0-.91.77v4.9Zm13.32.18a4,4,0,0,1-1.39-.22,2.35,2.35,0,0,1-.9-.61,2.44,2.44,0,0,1-.5-1,4.53,4.53,0,0,1-.16-1.26v-2.95H582.9v-1.27l2-.08.22-2.25h1.39V340h3.28v1.35h-3.28v2.95a1.93,1.93,0,0,0,.37,1.31,1.69,1.69,0,0,0,1.3.42A3.6,3.6,0,0,0,589,346a4.12,4.12,0,0,0,.73-.21l.33,1.23c-.32.1-.67.2-1.05.28A5.78,5.78,0,0,1,587.77,347.38Zm4.27-.18V336.86h1.7v2.66l-.11,1.54h0a4.81,4.81,0,0,1,1.08-.86,2.74,2.74,0,0,1,1.45-.37,2.13,2.13,0,0,1,1.83.77,3.42,3.42,0,0,1,.59,2.15v4.45h-1.7V343a2.18,2.18,0,0,0-.3-1.28,1.23,1.23,0,0,0-1-.41,1.8,1.8,0,0,0-.93.25,4.77,4.77,0,0,0-.91.77v4.9Zm11,.18a2.18,2.18,0,0,1-1.83-.75,3.59,3.59,0,0,1-.56-2.16V340h1.69v4.25a2.18,2.18,0,0,0,.29,1.28,1.25,1.25,0,0,0,1.05.39,1.71,1.71,0,0,0,.91-.23,3.63,3.63,0,0,0,.89-.83V340h1.68v7.2H605.8l-.14-1.14h0a4.29,4.29,0,0,1-1.14,1A2.75,2.75,0,0,1,603.05,347.38Zm9.81,0a5.73,5.73,0,0,1-1.94-.33,7.36,7.36,0,0,1-1.59-.78l.73-1.08a6.21,6.21,0,0,0,1.39.69,5.63,5.63,0,0,0,1.63.23,1.94,1.94,0,0,0,1.11-.25.74.74,0,0,0,.36-.62.69.69,0,0,0-.08-.32.65.65,0,0,0-.28-.26,2.08,2.08,0,0,0-.61-.25,7.61,7.61,0,0,0-1-.25,5.31,5.31,0,0,1-2.12-.81,1.67,1.67,0,0,1-.68-1.36,1.84,1.84,0,0,1,.82-1.55,3.9,3.9,0,0,1,2.36-.61,4.62,4.62,0,0,1,1.67.3,6.59,6.59,0,0,1,1.33.65l-.78,1.05a4.18,4.18,0,0,0-1.13-.53,4,4,0,0,0-1.23-.19,1.75,1.75,0,0,0-1,.24.65.65,0,0,0-.31.54.62.62,0,0,0,.44.58,8.52,8.52,0,0,0,1.44.41,7.41,7.41,0,0,1,1.42.42,3.48,3.48,0,0,1,.89.48,1.37,1.37,0,0,1,.45.61,1.86,1.86,0,0,1,.14.77,1.76,1.76,0,0,1-.22.87,2.16,2.16,0,0,1-.65.71,3.39,3.39,0,0,1-1.05.46A5.27,5.27,0,0,1,612.86,347.38Zm8.71-.18v-5.85h-3.12V340h4.8v7.2Zm1-8.51a1.29,1.29,0,0,1-.86-.3,1.06,1.06,0,0,1-.35-.83,1,1,0,0,1,.35-.82,1.25,1.25,0,0,1,.86-.32,1.2,1.2,0,0,1,.85.32,1,1,0,0,1,.35.82,1.06,1.06,0,0,1-.35.83A1.23,1.23,0,0,1,622.61,338.69Zm6.84,8.69a3,3,0,0,1-1-.16,2.14,2.14,0,0,1-.77-.42,1.88,1.88,0,0,1-.48-.67,2,2,0,0,1-.17-.86,2,2,0,0,1,.26-1,2.3,2.3,0,0,1,.88-.8,6,6,0,0,1,1.54-.53,17.13,17.13,0,0,1,2.28-.29,1.48,1.48,0,0,0-.45-1,1.65,1.65,0,0,0-1.26-.41,3.39,3.39,0,0,0-1.22.23A8.48,8.48,0,0,0,628,342l-.63-1.12a10.79,10.79,0,0,1,1.52-.69,5,5,0,0,1,1.78-.31,3.06,3.06,0,0,1,2.28.8,3.13,3.13,0,0,1,.8,2.31v4.26h-1.38l-.12-.89h-.05a5.81,5.81,0,0,1-1.28.75A3.38,3.38,0,0,1,629.45,347.38Zm.51-1.32a2.37,2.37,0,0,0,1-.23,5.87,5.87,0,0,0,1-.64v-1.53a16.24,16.24,0,0,0-1.62.2,4.39,4.39,0,0,0-1,.31,1.26,1.26,0,0,0-.53.44.9.9,0,0,0-.16.53.76.76,0,0,0,.38.71A1.81,1.81,0,0,0,630,346.06Zm9.28,1.32a5.73,5.73,0,0,1-1.94-.33,7.36,7.36,0,0,1-1.59-.78l.73-1.08a6.21,6.21,0,0,0,1.39.69,5.68,5.68,0,0,0,1.63.23,1.94,1.94,0,0,0,1.11-.25.74.74,0,0,0,.36-.62.69.69,0,0,0-.08-.32.65.65,0,0,0-.28-.26,2.08,2.08,0,0,0-.61-.25,7.61,7.61,0,0,0-1-.25,5.38,5.38,0,0,1-2.12-.81,1.66,1.66,0,0,1-.67-1.36,1.83,1.83,0,0,1,.81-1.55,3.9,3.9,0,0,1,2.36-.61,4.62,4.62,0,0,1,1.67.3,6.59,6.59,0,0,1,1.33.65l-.78,1.05a4.18,4.18,0,0,0-1.13-.53,3.91,3.91,0,0,0-1.23-.19,1.7,1.7,0,0,0-1,.24.63.63,0,0,0-.32.54.62.62,0,0,0,.44.58,8.52,8.52,0,0,0,1.44.41,7.2,7.2,0,0,1,1.42.42,3.32,3.32,0,0,1,.89.48,1.37,1.37,0,0,1,.45.61,2,2,0,0,1-.07,1.64,2.31,2.31,0,0,1-.66.71,3.39,3.39,0,0,1-1,.46A5.22,5.22,0,0,1,639.24,347.38Zm5-.18V340h1.31l.13.92h0a2.62,2.62,0,0,1,.6-.78,1.5,1.5,0,0,1,1-.31c.67,0,1.11.4,1.31,1.2a2.68,2.68,0,0,1,.62-.86,1.45,1.45,0,0,1,1-.34,1.36,1.36,0,0,1,1.17.59,2.91,2.91,0,0,1,.42,1.69v5.09h-1.62v-5c0-.64-.19-1-.58-1a.66.66,0,0,0-.5.23,3.31,3.31,0,0,0-.41.67v5h-1.4v-5a1.41,1.41,0,0,0-.14-.7.45.45,0,0,0-.44-.25.65.65,0,0,0-.49.23,2.61,2.61,0,0,0-.4.67v5Zm18.37,0-1.36-7.2h1.65l.64,3.75c.06.35.1.69.14,1s.09.68.15,1h0c0-.35.1-.7.16-1s.13-.69.22-1l.65-3.05h1.39l.66,3.05c.07.35.15.69.22,1s.13.68.19,1h.06l.12-1c0-.34.09-.68.13-1l.62-3.75h1.57l-1.32,7.2h-2.06l-.59-2.87c-.11-.56-.21-1.27-.31-2.13h-.05c0,.38-.11.74-.16,1.08s-.09.7-.14,1.05l-.59,2.87Zm11.7,0v-5.85h-3.13V340H676v7.2Zm1-8.51a1.29,1.29,0,0,1-.86-.3,1.06,1.06,0,0,1-.35-.83,1,1,0,0,1,.35-.82,1.25,1.25,0,0,1,.86-.32,1.24,1.24,0,0,1,.86.32,1,1,0,0,1,.34.82,1.06,1.06,0,0,1-.34.83A1.27,1.27,0,0,1,675.37,338.69Zm9.14,8.69a4,4,0,0,1-1.4-.22,2.35,2.35,0,0,1-.9-.61,2.44,2.44,0,0,1-.5-1,4.53,4.53,0,0,1-.16-1.26v-2.95h-1.92v-1.27l2-.08.22-2.25h1.39V340h3.28v1.35h-3.28v2.95a1.93,1.93,0,0,0,.37,1.31,1.69,1.69,0,0,0,1.3.42,3.6,3.6,0,0,0,.83-.08,3.89,3.89,0,0,0,.73-.21l.33,1.23c-.32.1-.67.2-1,.28A5.93,5.93,0,0,1,684.51,347.38Zm4.26-.18V336.86h1.7v2.66l-.11,1.54h0a4.81,4.81,0,0,1,1.08-.86,2.74,2.74,0,0,1,1.45-.37,2.13,2.13,0,0,1,1.83.77,3.42,3.42,0,0,1,.59,2.15v4.45h-1.7V343a2.18,2.18,0,0,0-.3-1.28,1.21,1.21,0,0,0-1.05-.41,1.8,1.8,0,0,0-.93.25,4.77,4.77,0,0,0-.91.77v4.9Zm19.8.18a2.14,2.14,0,0,1-1.82-.75,3.52,3.52,0,0,1-.57-2.16V340h1.69v4.25a2.18,2.18,0,0,0,.3,1.28,1.25,1.25,0,0,0,1.05.39,1.68,1.68,0,0,0,.9-.23,3.47,3.47,0,0,0,.89-.83V340h1.69v7.2h-1.38l-.14-1.14h0a4.62,4.62,0,0,1-1.14,1A2.76,2.76,0,0,1,708.57,347.38Zm9.81,0a5.67,5.67,0,0,1-1.93-.33,7.22,7.22,0,0,1-1.6-.78l.74-1.08a6,6,0,0,0,1.39.69,5.61,5.61,0,0,0,1.62.23,1.94,1.94,0,0,0,1.11-.25.74.74,0,0,0,.36-.62.59.59,0,0,0-.08-.32.6.6,0,0,0-.28-.26,2,2,0,0,0-.61-.25,7.81,7.81,0,0,0-1-.25,5.43,5.43,0,0,1-2.13-.81,1.66,1.66,0,0,1-.67-1.36,1.83,1.83,0,0,1,.81-1.55,3.9,3.9,0,0,1,2.36-.61,4.59,4.59,0,0,1,1.67.3,6.34,6.34,0,0,1,1.33.65l-.78,1.05a4.11,4.11,0,0,0-1.12-.53,4,4,0,0,0-1.24-.19,1.72,1.72,0,0,0-1,.24.62.62,0,0,0-.31.54.6.6,0,0,0,.44.58,8.64,8.64,0,0,0,1.43.41,7,7,0,0,1,1.42.42,3.4,3.4,0,0,1,.9.48,1.54,1.54,0,0,1,.45.61,2,2,0,0,1,.14.77,1.76,1.76,0,0,1-.22.87,2.2,2.2,0,0,1-.66.71,3.44,3.44,0,0,1-1,.46A5.3,5.3,0,0,1,718.38,347.38Zm7.56,3-.43-1a2.52,2.52,0,0,0,1.87-2.27l-.2,0a1.52,1.52,0,0,1-1-.33,1.18,1.18,0,0,1-.41-1,1.14,1.14,0,0,1,.42-.95,1.49,1.49,0,0,1,1-.36,1.32,1.32,0,0,1,1.19.59,2.91,2.91,0,0,1,.39,1.61,3.59,3.59,0,0,1-.74,2.28A4.15,4.15,0,0,1,725.94,350.36Zm19.23-3a4.89,4.89,0,0,1-1.55-.25,4.22,4.22,0,0,1-1.25-.74,3.56,3.56,0,0,1-.84-1.19,3.9,3.9,0,0,1-.31-1.6,3.73,3.73,0,0,1,.31-1.57,3.64,3.64,0,0,1,.83-1.18,3.17,3.17,0,0,1,1.19-.75,3.66,3.66,0,0,1,1.39-.27,3.49,3.49,0,0,1,1.42.27,2.85,2.85,0,0,1,1,.7,2.9,2.9,0,0,1,.64,1.08,4.23,4.23,0,0,1,.22,1.37c0,.17,0,.33,0,.49a2.84,2.84,0,0,1,0,.36h-5.29a2.16,2.16,0,0,0,.79,1.5,2.84,2.84,0,0,0,1.69.48,3.25,3.25,0,0,0,1.05-.16,5.58,5.58,0,0,0,1-.45l.57,1.06a5.1,5.1,0,0,1-1.31.61A4.71,4.71,0,0,1,745.17,347.38Zm-.19-6.24a2,2,0,0,0-2,1.75h3.83a2,2,0,0,0-.56-1.31A1.72,1.72,0,0,0,745,341.14Zm5.34,6.06V340h1.4l.12,1.1h.06a6.1,6.1,0,0,1,1.14-.9,2.78,2.78,0,0,1,1.46-.37,2.1,2.1,0,0,1,1.82.77,3.36,3.36,0,0,1,.6,2.15v4.45h-1.7V343a2.18,2.18,0,0,0-.3-1.28,1.23,1.23,0,0,0-1-.41,1.83,1.83,0,0,0-.94.25,4.75,4.75,0,0,0-.9.77v4.9Zm10.45,3a4.93,4.93,0,0,1-1.17-.14,6.49,6.49,0,0,1-1-.34l.52-1.22a3.33,3.33,0,0,0,.8.28,3.23,3.23,0,0,0,.73.09,1.45,1.45,0,0,0,1.25-.44,2,2,0,0,0,.34-1.29v-5.81h-3.12V340H764v7.08a4.73,4.73,0,0,1-.16,1.22,2.3,2.3,0,0,1-1.48,1.67A4,4,0,0,1,760.77,350.22Zm2.54-11.53a1.29,1.29,0,0,1-.86-.3,1.06,1.06,0,0,1-.35-.83,1,1,0,0,1,.35-.82,1.25,1.25,0,0,1,.86-.32,1.24,1.24,0,0,1,.86.32,1.07,1.07,0,0,1,.34.82,1.09,1.09,0,0,1-.34.83A1.27,1.27,0,0,1,763.31,338.69Zm7.79,8.69a4,4,0,0,1-1.36-.25,3.38,3.38,0,0,1-1.16-.74,3.59,3.59,0,0,1-.79-1.19,4.36,4.36,0,0,1,0-3.18,3.59,3.59,0,0,1,.79-1.19,3.35,3.35,0,0,1,1.16-.73,3.56,3.56,0,0,1,2.72,0,3.22,3.22,0,0,1,1.17.73,3.61,3.61,0,0,1,.8,1.19,4.5,4.5,0,0,1,0,3.18,3.61,3.61,0,0,1-.8,1.19,3.24,3.24,0,0,1-1.17.74A4,4,0,0,1,771.1,347.38Zm0-1.38a1.61,1.61,0,0,0,1.37-.64,3.31,3.31,0,0,0,0-3.5,1.6,1.6,0,0,0-1.37-.66,1.65,1.65,0,0,0-1.38.66,3.31,3.31,0,0,0,0,3.5A1.66,1.66,0,0,0,771.1,346Zm6.42,4.16a4.86,4.86,0,0,1-.56,0,1.91,1.91,0,0,1-.47-.11l.31-1.32.3.07a1.55,1.55,0,0,0,.31,0,1.62,1.62,0,0,0,1.09-.35,2,2,0,0,0,.64-.89l.18-.45L776.1,340h1.67l1.48,3.53c.14.33.27.67.39,1l.41,1.1h.06c.11-.35.22-.7.35-1.06s.24-.72.36-1.07l1.31-3.53h1.59l-3,7.53a6.24,6.24,0,0,1-.53,1.1,3.39,3.39,0,0,1-.66.82,2.4,2.4,0,0,1-.87.52A3.1,3.1,0,0,1,777.52,350.16Z"/><path class="cls-7" d="M455.87,367.38a4,4,0,0,1-1.39-.22,2.32,2.32,0,0,1-.91-.61,2.44,2.44,0,0,1-.5-1,4.93,4.93,0,0,1-.16-1.26v-2.95H451v-1.27l2-.08.22-2.25h1.39V360h3.28v1.35H454.6v2.95a1.93,1.93,0,0,0,.38,1.31,1.67,1.67,0,0,0,1.29.42,3.54,3.54,0,0,0,.83-.08,4.23,4.23,0,0,0,.74-.21l.32,1.23c-.32.1-.67.2-1,.28A5.85,5.85,0,0,1,455.87,367.38Zm4.26-.18V356.86h1.7v2.66l-.11,1.54h0a4.81,4.81,0,0,1,1.08-.86,2.77,2.77,0,0,1,1.45-.37,2.12,2.12,0,0,1,1.83.77,3.36,3.36,0,0,1,.59,2.15v4.45H465V363a2.18,2.18,0,0,0-.3-1.28,1.19,1.19,0,0,0-1-.41,1.81,1.81,0,0,0-.94.25,5.1,5.1,0,0,0-.91.77v4.9Zm12.43.18a4.83,4.83,0,0,1-1.54-.25,4,4,0,0,1-1.25-.74,3.45,3.45,0,0,1-.85-1.19,4.08,4.08,0,0,1-.31-1.6,3.89,3.89,0,0,1,.31-1.57,3.64,3.64,0,0,1,.83-1.18,3.25,3.25,0,0,1,1.19-.75,3.7,3.7,0,0,1,1.39-.27,3.46,3.46,0,0,1,1.42.27,2.77,2.77,0,0,1,1.05.7,2.9,2.9,0,0,1,.64,1.08,4,4,0,0,1,.22,1.37c0,.17,0,.33,0,.49a3,3,0,0,1,0,.36h-5.3a2.14,2.14,0,0,0,.8,1.5,2.8,2.8,0,0,0,1.68.48,3.21,3.21,0,0,0,1.05-.16,5.26,5.26,0,0,0,1-.45l.58,1.06a5.33,5.33,0,0,1-1.32.61A4.62,4.62,0,0,1,472.56,367.38Zm-.18-6.24a2.12,2.12,0,0,0-1.32.44,2,2,0,0,0-.71,1.31h3.82a2,2,0,0,0-.56-1.31A1.7,1.7,0,0,0,472.38,361.14Zm17.76,6.24a2.73,2.73,0,0,1-1.08-.25,3.43,3.43,0,0,1-1-.72h0l-.16.79h-1.33V356.86h1.7v2.66l-.07,1.26h0a3.48,3.48,0,0,1,1-.68,2.78,2.78,0,0,1,1.18-.27,2.65,2.65,0,0,1,1.23.27,2.34,2.34,0,0,1,.92.73,2.93,2.93,0,0,1,.58,1.14,5.09,5.09,0,0,1,.2,1.52,4.76,4.76,0,0,1-.26,1.65,3.75,3.75,0,0,1-.72,1.22,3.14,3.14,0,0,1-1,.75A2.75,2.75,0,0,1,490.14,367.38Zm-.35-1.39a1.57,1.57,0,0,0,1.27-.63,2.86,2.86,0,0,0,.51-1.84,3.08,3.08,0,0,0-.39-1.69,1.38,1.38,0,0,0-1.26-.61,1.82,1.82,0,0,0-.85.22,3,3,0,0,0-.86.66v3.23a2.63,2.63,0,0,0,.82.52A2.51,2.51,0,0,0,489.79,366Zm8.67,1.21v-5.85h-3.12V360h4.79v7.2Zm1-8.51a1.31,1.31,0,0,1-.86-.3,1.06,1.06,0,0,1-.34-.83,1,1,0,0,1,.34-.82,1.27,1.27,0,0,1,.86-.32,1.22,1.22,0,0,1,.86.32,1,1,0,0,1,.35.82,1.06,1.06,0,0,1-.35.83A1.25,1.25,0,0,1,499.49,358.69Zm7.59,11.7a6.81,6.81,0,0,1-1.34-.12,3.56,3.56,0,0,1-1-.36,1.79,1.79,0,0,1-.67-.6,1.48,1.48,0,0,1-.24-.84,1.8,1.8,0,0,1,1.14-1.52v-.06a1.94,1.94,0,0,1-.51-.45,1.21,1.21,0,0,1-.22-.75,1.32,1.32,0,0,1,.23-.7,2.06,2.06,0,0,1,.64-.64v-.07a2,2,0,0,1-.65-.73,2.28,2.28,0,0,1-.27-1.13,2.42,2.42,0,0,1,.24-1.09,2.56,2.56,0,0,1,.64-.81,2.78,2.78,0,0,1,.93-.5,3.41,3.41,0,0,1,1.14-.19,3.58,3.58,0,0,1,1.13.17h2.95v1.3h-1.65a1.94,1.94,0,0,1,.32.51,1.57,1.57,0,0,1,.15.68,2.3,2.3,0,0,1-.24,1.06,2.16,2.16,0,0,1-.61.76,3,3,0,0,1-.92.47,3.67,3.67,0,0,1-1.13.16,3,3,0,0,1-1.09-.22.8.8,0,0,0-.44.69c0,.45.46.67,1.36.67h1.47a4.32,4.32,0,0,1,2.11.41,1.39,1.39,0,0,1,.72,1.34,1.83,1.83,0,0,1-.3,1,2.68,2.68,0,0,1-.83.81,4.53,4.53,0,0,1-1.31.55A6.94,6.94,0,0,1,507.08,370.39Zm0-6.53a1.33,1.33,0,0,0,1-.37,1.39,1.39,0,0,0,.4-1.07,1.34,1.34,0,0,0-.4-1,1.3,1.3,0,0,0-1-.39,1.35,1.35,0,0,0-1.35,1.42,1.39,1.39,0,0,0,.4,1.07A1.35,1.35,0,0,0,507.11,363.86Zm.18,5.41a4,4,0,0,0,.95-.1,2.48,2.48,0,0,0,.73-.26,1.41,1.41,0,0,0,.47-.36.64.64,0,0,0,.17-.44.55.55,0,0,0-.35-.56,3.08,3.08,0,0,0-1.1-.14H507a4.66,4.66,0,0,1-1.11-.1,1.88,1.88,0,0,0-.55.46.85.85,0,0,0-.15.48.83.83,0,0,0,.53.75A3.56,3.56,0,0,0,507.29,369.27Zm16.63-1.89a3.56,3.56,0,0,1-1.25-.21,3.15,3.15,0,0,1-.94-.57,2.45,2.45,0,0,1-.57-.85,2.8,2.8,0,0,1-.07-1.94,3.54,3.54,0,0,1,.36-.7,3.77,3.77,0,0,1,.53-.59,5.38,5.38,0,0,1,.64-.52,7.56,7.56,0,0,1-.46-1.14,3.54,3.54,0,0,1-.16-1,2.51,2.51,0,0,1,.16-.92,2,2,0,0,1,.45-.75,2.24,2.24,0,0,1,.7-.52,2.11,2.11,0,0,1,.92-.2,1.92,1.92,0,0,1,2.08,2.05,2.07,2.07,0,0,1-.17.84,2.74,2.74,0,0,1-.44.72,5.19,5.19,0,0,1-.62.62l-.71.57a14.32,14.32,0,0,0,.94,1.15,10.55,10.55,0,0,0,1.1,1,8,8,0,0,0,1-2.5H529a12,12,0,0,1-.61,1.75,9.52,9.52,0,0,1-.83,1.58l.79.48a3.59,3.59,0,0,0,.71.28l-.42,1.38a6.92,6.92,0,0,1-2-1,3.91,3.91,0,0,1-1.17.73A3.85,3.85,0,0,1,523.92,367.38Zm-.51-7.57a3.2,3.2,0,0,0,.35,1.39,4.42,4.42,0,0,0,.88-.76,1.37,1.37,0,0,0,.36-.94,1.18,1.18,0,0,0-.17-.65.62.62,0,0,0-.58-.27.71.71,0,0,0-.61.34A1.53,1.53,0,0,0,523.41,359.81Zm.73,6.27a1.75,1.75,0,0,0,.67-.14,3.34,3.34,0,0,0,.66-.42,15.6,15.6,0,0,1-1.17-1.13,10.25,10.25,0,0,1-1-1.28,3.41,3.41,0,0,0-.54.69,1.62,1.62,0,0,0-.2.78,1.45,1.45,0,0,0,.44,1.09A1.64,1.64,0,0,0,524.14,366.08Zm18.77,1.3a4.83,4.83,0,0,1-1.54-.25,4,4,0,0,1-1.25-.74,3.45,3.45,0,0,1-.85-1.19,4.08,4.08,0,0,1-.31-1.6,3.89,3.89,0,0,1,.31-1.57,3.64,3.64,0,0,1,.83-1.18,3.25,3.25,0,0,1,1.19-.75,3.7,3.7,0,0,1,1.39-.27,3.46,3.46,0,0,1,1.42.27,2.77,2.77,0,0,1,1,.7,2.9,2.9,0,0,1,.64,1.08,4,4,0,0,1,.22,1.37c0,.17,0,.33,0,.49a3,3,0,0,1,0,.36h-5.3a2.14,2.14,0,0,0,.8,1.5,2.8,2.8,0,0,0,1.68.48,3.21,3.21,0,0,0,1-.16,5.26,5.26,0,0,0,1-.45l.58,1.06a5.33,5.33,0,0,1-1.32.61A4.62,4.62,0,0,1,542.91,367.38Zm-.18-6.24a2.12,2.12,0,0,0-1.32.44,2,2,0,0,0-.71,1.31h3.82a2,2,0,0,0-.56-1.31A1.7,1.7,0,0,0,542.73,361.14Zm4.88,6.06,2.61-3.73L547.79,360h1.82l.94,1.38c.13.18.26.39.39.61l.41.61h.06c.11-.2.22-.41.35-.63s.24-.42.35-.61L553,360h1.78l-2.45,3.64,2.62,3.56h-1.83l-1-1.42-.44-.62c-.15-.23-.29-.45-.44-.66h-.06c-.14.22-.27.43-.39.64l-.39.66-.94,1.4Zm13.78.18a4,4,0,0,1-1.39-.22,2.35,2.35,0,0,1-.9-.61,2.44,2.44,0,0,1-.5-1,4.53,4.53,0,0,1-.16-1.26v-2.95h-1.92v-1.27l2-.08.22-2.25h1.39V360h3.28v1.35h-3.28v2.95a1.93,1.93,0,0,0,.37,1.31,1.68,1.68,0,0,0,1.3.42,3.6,3.6,0,0,0,.83-.08,4.12,4.12,0,0,0,.73-.21l.33,1.23c-.32.1-.67.2-1.05.28A5.78,5.78,0,0,1,561.39,367.38Zm5-.18V360h1.39l.14,1.64h.05a3.9,3.9,0,0,1,1.34-1.34,3.29,3.29,0,0,1,1.72-.47,3.25,3.25,0,0,1,.75.08,2.21,2.21,0,0,1,.64.22l-.34,1.42a4.33,4.33,0,0,0-.63-.17,4.25,4.25,0,0,0-.69-.05,2.72,2.72,0,0,0-1.43.42,3.66,3.66,0,0,0-1.24,1.49v4Zm11.73.18a4.89,4.89,0,0,1-1.55-.25,4.1,4.1,0,0,1-1.25-.74,3.56,3.56,0,0,1-.84-1.19,3.9,3.9,0,0,1-.31-1.6,3.73,3.73,0,0,1,.31-1.57,3.49,3.49,0,0,1,.83-1.18,3.21,3.21,0,0,1,1.18-.75,3.75,3.75,0,0,1,1.4-.27,3.49,3.49,0,0,1,1.42.27,2.81,2.81,0,0,1,1,.7,2.66,2.66,0,0,1,.64,1.08,4,4,0,0,1,.22,1.37c0,.17,0,.33,0,.49a2.84,2.84,0,0,1,0,.36h-5.3a2.17,2.17,0,0,0,.8,1.5,2.84,2.84,0,0,0,1.69.48,3.3,3.3,0,0,0,1.05-.16,5.18,5.18,0,0,0,1-.45l.58,1.06a5.1,5.1,0,0,1-1.31.61A4.71,4.71,0,0,1,578.09,367.38Zm-.19-6.24a2.07,2.07,0,0,0-1.31.44,2,2,0,0,0-.72,1.31h3.83a2,2,0,0,0-.56-1.31A1.74,1.74,0,0,0,577.9,361.14Zm4.81,6.06V360H584l.13.92h.05a2.44,2.44,0,0,1,.59-.78,1.5,1.5,0,0,1,1-.31c.68,0,1.11.4,1.31,1.2a2.7,2.7,0,0,1,.63-.86,1.44,1.44,0,0,1,1-.34,1.36,1.36,0,0,1,1.17.59,2.83,2.83,0,0,1,.43,1.69v5.09h-1.63v-5c0-.64-.19-1-.58-1a.67.67,0,0,0-.5.23,3.35,3.35,0,0,0-.4.67v5h-1.41v-5a1.41,1.41,0,0,0-.14-.7.44.44,0,0,0-.44-.25.63.63,0,0,0-.48.23,2.6,2.6,0,0,0-.41.67v5Zm13,.18a4.89,4.89,0,0,1-1.55-.25,4,4,0,0,1-1.25-.74,3.42,3.42,0,0,1-.84-1.19,3.91,3.91,0,0,1-.32-1.6A3.73,3.73,0,0,1,592,362a3.47,3.47,0,0,1,.82-1.18,3.25,3.25,0,0,1,1.19-.75,3.7,3.7,0,0,1,1.39-.27,3.46,3.46,0,0,1,1.42.27,2.83,2.83,0,0,1,1.69,1.78,4,4,0,0,1,.22,1.37c0,.17,0,.33,0,.49s0,.26,0,.36h-5.3a2.17,2.17,0,0,0,.8,1.5,2.84,2.84,0,0,0,1.69.48,3.19,3.19,0,0,0,1-.16,5,5,0,0,0,1-.45l.58,1.06a5.26,5.26,0,0,1-1.31.61A4.71,4.71,0,0,1,595.68,367.38Zm-.19-6.24a2.07,2.07,0,0,0-1.31.44,2,2,0,0,0-.72,1.31h3.83a2,2,0,0,0-.57-1.31A1.7,1.7,0,0,0,595.49,361.14Zm13.6,6.06V360h1.32l.12.92h.05a2.44,2.44,0,0,1,.59-.78,1.5,1.5,0,0,1,1-.31c.68,0,1.12.4,1.31,1.2a2.7,2.7,0,0,1,.63-.86,1.44,1.44,0,0,1,1-.34,1.39,1.39,0,0,1,1.18.59,2.91,2.91,0,0,1,.42,1.69v5.09h-1.63v-5c0-.64-.19-1-.58-1a.67.67,0,0,0-.5.23,3.35,3.35,0,0,0-.4.67v5H612.2v-5a1.31,1.31,0,0,0-.14-.7.44.44,0,0,0-.44-.25.65.65,0,0,0-.48.23,2.6,2.6,0,0,0-.41.67v5Zm12.52.18a3.9,3.9,0,0,1-1.36-.25,3.29,3.29,0,0,1-1.16-.74,3.61,3.61,0,0,1-.8-1.19,4.5,4.5,0,0,1,0-3.18,3.61,3.61,0,0,1,.8-1.19,3.26,3.26,0,0,1,1.16-.73,3.54,3.54,0,0,1,2.71,0,3.35,3.35,0,0,1,1.18.73,3.44,3.44,0,0,1,.79,1.19,4.36,4.36,0,0,1,0,3.18,3.44,3.44,0,0,1-.79,1.19,3.37,3.37,0,0,1-1.18.74A3.89,3.89,0,0,1,621.61,367.38Zm0-1.38a1.61,1.61,0,0,0,1.37-.64,3.31,3.31,0,0,0,0-3.5,1.6,1.6,0,0,0-1.37-.66,1.63,1.63,0,0,0-1.38.66,3.31,3.31,0,0,0,0,3.5A1.64,1.64,0,0,0,621.61,366Zm5.07,1.2V360H628l.13.92h0a2.62,2.62,0,0,1,.6-.78,1.5,1.5,0,0,1,1-.31c.68,0,1.11.4,1.31,1.2a2.7,2.7,0,0,1,.63-.86,1.42,1.42,0,0,1,1-.34,1.36,1.36,0,0,1,1.17.59,2.91,2.91,0,0,1,.43,1.69v5.09h-1.63v-5c0-.64-.19-1-.58-1a.66.66,0,0,0-.5.23,3.35,3.35,0,0,0-.4.67v5h-1.41v-5a1.41,1.41,0,0,0-.14-.7.44.44,0,0,0-.44-.25.62.62,0,0,0-.48.23,2.6,2.6,0,0,0-.41.67v5Zm13,.18a4.84,4.84,0,0,1-1.55-.25,4,4,0,0,1-1.25-.74,3.42,3.42,0,0,1-.84-1.19,3.91,3.91,0,0,1-.32-1.6A3.73,3.73,0,0,1,636,362a3.47,3.47,0,0,1,.82-1.18,3.25,3.25,0,0,1,1.19-.75,3.7,3.7,0,0,1,1.39-.27,3.46,3.46,0,0,1,1.42.27,2.83,2.83,0,0,1,1.69,1.78,4,4,0,0,1,.22,1.37c0,.17,0,.33,0,.49a3,3,0,0,1,0,.36h-5.3a2.14,2.14,0,0,0,.8,1.5,2.83,2.83,0,0,0,1.68.48,3.21,3.21,0,0,0,1-.16,5.26,5.26,0,0,0,1-.45l.58,1.06a5.26,5.26,0,0,1-1.31.61A4.71,4.71,0,0,1,639.65,367.38Zm-.19-6.24a2.07,2.07,0,0,0-1.31.44,2,2,0,0,0-.72,1.31h3.83a2,2,0,0,0-.57-1.31A1.7,1.7,0,0,0,639.46,361.14Zm5.34,6.06V360h1.39l.12,1.1h.07a5.52,5.52,0,0,1,1.14-.9,2.74,2.74,0,0,1,1.45-.37,2.13,2.13,0,0,1,1.83.77,3.36,3.36,0,0,1,.59,2.15v4.45h-1.7V363a2.18,2.18,0,0,0-.3-1.28,1.19,1.19,0,0,0-1-.41,1.81,1.81,0,0,0-.94.25,5.1,5.1,0,0,0-.91.77v4.9Zm13.32.18a4,4,0,0,1-1.39-.22,2.35,2.35,0,0,1-.9-.61,2.44,2.44,0,0,1-.5-1,4.53,4.53,0,0,1-.16-1.26v-2.95h-1.92v-1.27l2-.08.22-2.25h1.39V360h3.28v1.35h-3.28v2.95a1.93,1.93,0,0,0,.37,1.31,1.69,1.69,0,0,0,1.3.42,3.6,3.6,0,0,0,.83-.08,4.12,4.12,0,0,0,.73-.21l.33,1.23c-.32.1-.67.2-1,.28A5.78,5.78,0,0,1,658.12,367.38Zm16.22-.18v-5.85h-3.13V360H676v7.2Zm1-8.51a1.29,1.29,0,0,1-.86-.3,1.06,1.06,0,0,1-.35-.83,1,1,0,0,1,.35-.82,1.25,1.25,0,0,1,.86-.32,1.24,1.24,0,0,1,.86.32,1,1,0,0,1,.34.82,1.06,1.06,0,0,1-.34.83A1.27,1.27,0,0,1,675.37,358.69Zm4.6,8.51V360h1.39l.13,1.1h.06a6.1,6.1,0,0,1,1.14-.9,2.78,2.78,0,0,1,1.46-.37,2.1,2.1,0,0,1,1.82.77,3.36,3.36,0,0,1,.6,2.15v4.45h-1.71V363a2.18,2.18,0,0,0-.29-1.28,1.23,1.23,0,0,0-1.05-.41,1.83,1.83,0,0,0-.94.25,4.75,4.75,0,0,0-.9.77v4.9Zm18.4,3a5.12,5.12,0,0,1-.56,0,2,2,0,0,1-.47-.11l.32-1.32.29.07a1.73,1.73,0,0,0,.32,0,1.64,1.64,0,0,0,1.09-.35,2.11,2.11,0,0,0,.64-.89l.17-.45L697,360h1.67l1.49,3.53c.13.33.26.67.39,1s.27.73.41,1.1H701c.1-.35.22-.7.34-1.06s.25-.72.36-1.07L703,360h1.6l-3,7.53a8,8,0,0,1-.53,1.1,3.39,3.39,0,0,1-.66.82,2.4,2.4,0,0,1-.87.52A3.19,3.19,0,0,1,698.37,370.16Zm11.17-2.78a4,4,0,0,1-1.36-.25,3.34,3.34,0,0,1-1.15-.74,3.46,3.46,0,0,1-.8-1.19,4.36,4.36,0,0,1,0-3.18,3.46,3.46,0,0,1,.8-1.19,3.31,3.31,0,0,1,1.15-.73,3.55,3.55,0,0,1,1.36-.27,3.51,3.51,0,0,1,1.36.27,3.22,3.22,0,0,1,1.17.73,3.46,3.46,0,0,1,.8,1.19,4.36,4.36,0,0,1,0,3.18,3.46,3.46,0,0,1-.8,1.19,3.24,3.24,0,0,1-1.17.74A3.9,3.9,0,0,1,709.54,367.38Zm0-1.38a1.61,1.61,0,0,0,1.38-.64,3.31,3.31,0,0,0,0-3.5,1.6,1.6,0,0,0-1.38-.66,1.62,1.62,0,0,0-1.37.66,3.31,3.31,0,0,0,0,3.5A1.63,1.63,0,0,0,709.54,366Zm7.83,1.38a2.16,2.16,0,0,1-1.83-.75,3.59,3.59,0,0,1-.56-2.16V360h1.69v4.25a2.18,2.18,0,0,0,.29,1.28,1.25,1.25,0,0,0,1,.39,1.74,1.74,0,0,0,.91-.23,3.63,3.63,0,0,0,.89-.83V360h1.68v7.2h-1.37l-.14-1.14h-.05a4.29,4.29,0,0,1-1.14,1A2.75,2.75,0,0,1,717.37,367.38Zm7.28-.18V360H726l.14,1.64h0a4,4,0,0,1,1.35-1.34,3.29,3.29,0,0,1,1.72-.47,3.25,3.25,0,0,1,.75.08,2.21,2.21,0,0,1,.64.22l-.35,1.42a3.42,3.42,0,0,0-1.31-.22,2.78,2.78,0,0,0-1.44.42,3.65,3.65,0,0,0-1.23,1.49v4Zm21.55.18a2.45,2.45,0,0,1-1.92-.74,3,3,0,0,1-.64-2.06v-6.39h-2.41v-1.33h4.1v7.81a1.23,1.23,0,0,0,.37,1,1.4,1.4,0,0,0,.91.3,3.07,3.07,0,0,0,1.23-.28l.41,1.25a6.69,6.69,0,0,1-1,.3A4.7,4.7,0,0,1,746.2,367.38Zm7.28-.18v-5.85h-3.12V360h4.79v7.2Zm1-8.51a1.31,1.31,0,0,1-.86-.3,1.06,1.06,0,0,1-.34-.83,1,1,0,0,1,.34-.82,1.27,1.27,0,0,1,.86-.32,1.22,1.22,0,0,1,.86.32,1,1,0,0,1,.35.82,1.06,1.06,0,0,1-.35.83A1.25,1.25,0,0,1,754.51,358.69Zm6.75,8.51v-5.85h-2v-1.27l2-.08v-.39a4,4,0,0,1,.17-1.17,2.24,2.24,0,0,1,.55-.92,2.51,2.51,0,0,1,.95-.61,3.81,3.81,0,0,1,1.38-.22,5.8,5.8,0,0,1,1.11.11,5,5,0,0,1,1,.28l-.36,1.25a3.36,3.36,0,0,0-.77-.23,3.48,3.48,0,0,0-.81-.08,1.57,1.57,0,0,0-1.2.4,1.62,1.62,0,0,0-.38,1.16V360h2.74v1.35h-2.74v5.85Zm10.29.18a4.83,4.83,0,0,1-1.54-.25,4,4,0,0,1-1.25-.74,3.45,3.45,0,0,1-.85-1.19,3.9,3.9,0,0,1-.31-1.6,3.73,3.73,0,0,1,.31-1.57,3.64,3.64,0,0,1,.83-1.18,3.17,3.17,0,0,1,1.19-.75,3.7,3.7,0,0,1,1.39-.27,3.49,3.49,0,0,1,1.42.27,2.77,2.77,0,0,1,1,.7,2.9,2.9,0,0,1,.64,1.08,4.23,4.23,0,0,1,.22,1.37c0,.17,0,.33,0,.49a2.84,2.84,0,0,1,0,.36h-5.29a2.16,2.16,0,0,0,.79,1.5,2.84,2.84,0,0,0,1.69.48,3.21,3.21,0,0,0,1.05-.16,5.58,5.58,0,0,0,1-.45l.58,1.06a5.33,5.33,0,0,1-1.32.61A4.71,4.71,0,0,1,771.55,367.38Zm-.18-6.24a2.12,2.12,0,0,0-1.32.44,2.09,2.09,0,0,0-.72,1.31h3.83a2,2,0,0,0-.56-1.31A1.7,1.7,0,0,0,771.37,361.14Zm8.52,6.24a1.41,1.41,0,0,1-1-.41,1.47,1.47,0,0,1-.4-1.06,1.42,1.42,0,0,1,.4-1.06,1.35,1.35,0,0,1,1-.43,1.37,1.37,0,0,1,1.05.43,1.43,1.43,0,0,1,.41,1.06,1.48,1.48,0,0,1-.41,1.06A1.42,1.42,0,0,1,779.89,367.38Z"/><path class="cls-1" d="M57.54,210.09H236.3V372.67H57.54Z"/></svg>