<svg id="Layer_1" data-name="Layer 1" xmlns="http://www.w3.org/2000/svg" viewBox="0 0 426.92 110.56"><defs><style>.cls-1{fill:#fff;}</style></defs><title>Graphics</title><path class="cls-1" d="M65.19,110.56a1.68,1.68,0,0,1-.25-1.25V85.89H86.61a7.49,7.49,0,0,1,4.49,1.63,5.85,5.85,0,0,1,1.76,3A10.25,10.25,0,0,1,93,94.1,4.62,4.62,0,0,1,91.71,97a3.91,3.91,0,0,1-.62.39,5,5,0,0,1,1.73,1.68,7.46,7.46,0,0,1,.77,2,8.77,8.77,0,0,1,.2,2.74,8.89,8.89,0,0,1-.72,3,5.8,5.8,0,0,1-5,3.47c-.07,0-.13.15-.19.23Zm6.45-5.43H74c3.37,0,6.74.06,10.11,0,1.19,0,2.48-.15,3-1.71v-1.6L86,100.69a6.83,6.83,0,0,0-3-.24c-3.45,0-6.91,0-10.36,0h-1ZM85.29,91.35H71.66v3.91H83.53a3.66,3.66,0,0,0,2.9-.73,3.65,3.65,0,0,0,.44-1.1,5,5,0,0,0-.27-1.37Z"/><path class="cls-1" d="M8.44,110.56c-.11-.08-.21-.23-.32-.23-.53,0-1.07,0-1.6,0a8.54,8.54,0,0,1-3-.74A5.44,5.44,0,0,1,.54,105.7a14.86,14.86,0,0,1-.28-2.11,6.5,6.5,0,0,1-.17-1.88H6.71a11.83,11.83,0,0,1,0,1.19,1.52,1.52,0,0,0,.46,1.28,2.9,2.9,0,0,0,1.16.45,2.07,2.07,0,0,0,.61,0c4.11,0,8.22,0,12.34,0a14.33,14.33,0,0,0,1.91-.26l.37-.62.19.11c0-.16-.07-.36,0-.45.51-.64.06-1.21-.16-1.72s-1-.68-1.52-.73c-1.73-.14-3.47-.22-5.2-.26a45.34,45.34,0,0,0-5.21-.27c-.12,0-.27-.13-.41-.2l-.19.17c-.47-.07-.89-.16-1.31-.19a8.22,8.22,0,0,0-1.11,0,14.42,14.42,0,0,1-4.1-.53A6.25,6.25,0,0,1,1.67,98a6.27,6.27,0,0,1-1.4-2.75,8.5,8.5,0,0,1-.18-3.36,5.8,5.8,0,0,1,2.39-4.24,14,14,0,0,1,1.9-1.06c.63-.32,1.37-.26,2-.66.06,0,.16,0,.24,0,1.32-.08,2.64-.22,4-.24q4.8,0,9.62,0a27.54,27.54,0,0,1,4,.27,6.18,6.18,0,0,1,2.8,1,12.34,12.34,0,0,1,1.6,1.47,2.56,2.56,0,0,1,.4.81c.14.35.27.71.5,1.29a5.61,5.61,0,0,0,.2,1.5,6.46,6.46,0,0,1,0,1.77H23V92.2l-.88-.89c-4-.49-8.09-.18-12.16-.2a6.26,6.26,0,0,0-2.75.46,4.31,4.31,0,0,0-.52.32A5,5,0,0,0,7,94.13a3.49,3.49,0,0,0,1.42.42c1.45.36,2.92,0,4.34.26,1.7.29,3.41,0,5.08.25a27.84,27.84,0,0,0,4,.18c.3,0,.58.39.89.06.33.39.76.17,1.15.2a5.69,5.69,0,0,1,1.1,0,8.21,8.21,0,0,1,3.29,1.6,5.85,5.85,0,0,1,1.92,4.13c0,.25.4.38.15.71-.1.13.14.47.12.71a9.92,9.92,0,0,1-1.24,4.66,6.13,6.13,0,0,1-3.84,2.74,14.51,14.51,0,0,1-3.35.24c-.18,0-.44-.1-.44.24Z"/><path class="cls-1" d="M129.09,110.56V85.93c.31,0,.62,0,.93,0q10.48,0,21,0a6.48,6.48,0,0,1,3.52,1,6.18,6.18,0,0,1,2.71,3.73,10.64,10.64,0,0,1,.21,4,5.94,5.94,0,0,1-1.59,3.64,9.08,9.08,0,0,1-.79.63,4.76,4.76,0,0,1,2.18,2.62,6.24,6.24,0,0,1,.47,3.13,24.61,24.61,0,0,0,.26,3v3H151.3c0-1.27-.07-2.55,0-3.82s-.37-2.46-.28-3.59l-1.23-1.33c-.82,0-1.74-.13-2.65-.13-3.57,0-7.15,0-10.72,0-.31,0-.63,0-.93,0v8.84ZM135.53,96h13.79c.27-.1.45-.16.62-.24a1.74,1.74,0,0,0,1.12-1.86c0-.41,0-.82,0-1.22a2.54,2.54,0,0,0-2.5-1.37h-13Z"/><path class="cls-1" d="M39.28,110.56c-.11-.08-.21-.24-.32-.23a5.9,5.9,0,0,1-2.9-.76,6.22,6.22,0,0,1-3.22-4.25,11.09,11.09,0,0,1-.22-2.36v-17H39v1c0,4.8,0,9.61,0,14.42a6,6,0,0,0,.3,1.61,2,2,0,0,0,1.52,1.4c1.22-.18,2.59.35,4,.27a34.29,34.29,0,0,1,4.18,0c1.59.1,3.12-.47,4.66-.24a1.49,1.49,0,0,1,.13-.13,2,2,0,0,0,1.26-2.17c0-5,0-10,0-14.92V85.93h6.66v3c0,4.77,0,9.54,0,14.3a8.49,8.49,0,0,1-1.24,4.41,6,6,0,0,1-3.23,2.45,2.83,2.83,0,0,1-1.5.26c-.17,0-.44-.1-.44.24Z"/><path class="cls-1" d="M93.56,110.56a16.3,16.3,0,0,1,1.4-3,12,12,0,0,1,.61-1.11c1-1.52,1.77-3.13,2.64-4.71s1.69-3.07,2.5-4.62a29.08,29.08,0,0,1,1.9-3.41,13.65,13.65,0,0,0,.72-1.43l3-5.43c.17-.3.3-.62.45-1h7.44c.79,1.52,1.55,3,2.34,4.49,1.16,2.15,2.38,4.26,3.5,6.44.85,1.66,1.75,3.31,2.7,4.92a37.53,37.53,0,0,0,2.11,3.7,8.54,8.54,0,0,1,.63,1.33c.6,1.11,1.22,2.21,1.82,3.32a1.64,1.64,0,0,1,.1.45H120c-.16-.26-.35-.51-.49-.78l-1.84-3.62H103l-.34.66a29,29,0,0,1-2,3.74ZM115,100.9a9.12,9.12,0,0,1-.72-1.07c-.77-1.57-1.5-3.16-2.27-4.72-.48-1-1-1.89-1.59-3l-4.59,8.8Z"/><path class="cls-1" d="M167.09,110.56c0-.41-.37-.24-.56-.24a5.44,5.44,0,0,1-2.35-.58,6.51,6.51,0,0,1-3.45-4.2,3.87,3.87,0,0,1-.06-.84,1.48,1.48,0,0,0,0-.47c0-.1-.14-.18-.1-.14.06-.56.15-1,.15-1.4q0-5.18,0-10.35V85.92h6.41V101a3.59,3.59,0,0,0,.72,2.88l.71.49c1.54-.11,3.12.37,4.75.27s3.2,0,4.8,0c1.16,0,2.31-.2,3.6-.31l1.14-.91c.56-2.28.28-4.51.31-6.73,0-3.57,0-7.14,0-10.79h6.41v19.24c-.08.07-.22.12-.23.2A6.28,6.28,0,0,1,187,109.1a6.73,6.73,0,0,1-3.16,1.22c-.23.05-.6-.23-.68.24Z"/><path class="cls-1" d="M24.72,38V36.77a22,22,0,0,1,.67-4,22.85,22.85,0,0,1,1.46-4.09,16.37,16.37,0,0,1,1.29-2.31,37.14,37.14,0,0,1,3-4.06,25.94,25.94,0,0,1,3.28-3.42A59.58,59.58,0,0,1,39.38,15a63.08,63.08,0,0,1,10.39-5.9c2.21-1,4.47-1.91,6.77-2.73C57.76,6,59,5.5,60.2,5.14S62.93,4.37,64.28,4s3-.72,4.45-1.17c.51-.15,1.07-.19,1.61-.3s1.26,0,1.72-.3,1.13-.12,1.69-.4A9.75,9.75,0,0,1,76,1.49,12.36,12.36,0,0,0,78.61,1a.93.93,0,0,1,.24,0A18,18,0,0,0,81.7.73c1.08-.25,2.19,0,3.23-.25s2.26,0,3.35-.24A34.13,34.13,0,0,1,94,0q2.9-.06,5.79,0a40.89,40.89,0,0,1,5.2.29,25.08,25.08,0,0,0,3.11.19c.52,0,1,.35,1.51.27a3.72,3.72,0,0,1,1.5.19,17.37,17.37,0,0,0,2.61.29c.38.05.75.17,1.13.24s.69-.08,1,.19.63,0,1,.07.59.17.89.23a14.58,14.58,0,0,1,3.39.75A40.69,40.69,0,0,1,126.88,4c1.67.35,3.26,1.06,4.91,1.53,1,.3,2,.78,3,1s2,.79,3,1.12a21,21,0,0,1,3.31,1.52c.55.29,1.17.37,1.69.7,2,1.24,4.09,2.26,6.07,3.52,1.47.94,2.86,2,4.32,2.94A16.49,16.49,0,0,1,155.12,18c.63.56,1.23,1.14,1.87,1.69a19.68,19.68,0,0,1,2.63,2.84c.74.92,1.39,1.89,2.11,2.83a8.57,8.57,0,0,1,.91,1.47,23.69,23.69,0,0,1,2,4.73c.17.7.45,1.37.68,2.06a.87.87,0,0,1,.05.22c.09,1.08.2,2.15.24,3.23a14.86,14.86,0,0,1,0,3.2,17.94,17.94,0,0,1-.53,3.1c-.35.93-.74,1.84-1,2.78-.7,2.24-2.17,4-3.34,6a9.31,9.31,0,0,1-1.38,1.64c-1.41,1.44-2.77,2.95-4.3,4.25A18.86,18.86,0,0,1,151.14,61c-.95,1.09-2.31,1.59-3.46,2.4a35.58,35.58,0,0,1-4.23,2.25c-1.09.56-2.16,1.14-3.28,1.62-1.29.55-2.59,1.1-3.9,1.61-2.41,1-4.88,1.72-7.35,2.51-1.09.35-2.2.66-3.31.93s-2.32.57-3.45.91a7.23,7.23,0,0,0-1.49.28c-.54.26-1.3.06-1.83.33s-1.29,0-1.79.45c-.74-.18-1.4.27-2.12.26a8,8,0,0,0-1.26.23c-.42.07-.9-.18-1.25.25,0,0-.08,0-.12,0-1,.08-2.08.15-3.11.25-.63.06-1.25.17-1.87.24s-1.29-.18-1.88.24c-.08.06-.24,0-.36,0-1.46-.17-2.89.28-4.34.25s-2.88,0-4.32,0c-2.1,0-4.19,0-6.29,0-1.54,0-3-.42-4.59-.25-.8-.39-1.68-.1-2.48-.27s-1.85-.09-2.73-.26c-.59-.12-1.21-.07-1.75-.24s-1.21-.08-1.75-.25-1.1-.11-1.63-.24-1-.11-1.5-.25a29.94,29.94,0,0,0-2.93-.62c-1-.18-2-.48-3-.61s-2.23-.58-3.35-.83c-2-.42-3.81-1.17-5.74-1.65-1.2-.3-2.35-.86-3.54-1.27-.65-.22-1.29-.46-1.93-.7S52,68,51.37,67.74c-1.75-.75-3.48-1.55-5.16-2.44q-3.36-1.78-6.54-3.86c-1.32-.86-2.46-2-3.73-2.93a34.58,34.58,0,0,1-4.57-4.4,22,22,0,0,1-3.44-4.73c-.34-.64-.68-1.28-1-1.91a32.06,32.06,0,0,1-1.63-4.14A4.88,4.88,0,0,1,25,41.85a15.46,15.46,0,0,1-.3-1.87C24.75,39.32,24.72,38.66,24.72,38Zm135.76.13a9.71,9.71,0,0,0-.19-2.05c-.22-.69-.08-1.38-.31-2.09a38.16,38.16,0,0,0-2.22-5.5,26.18,26.18,0,0,0-3.31-4.66A30.35,30.35,0,0,0,151,20.55q-2.1-1.74-4.33-3.28a51.21,51.21,0,0,0-5.34-3.19,54,54,0,0,0-7.52-3.28c-.93-.32-1.79-.88-2.74-1.12a22.72,22.72,0,0,0-2.88-.83c-.68-.09-1.33-.57-2-.67s-1.35-.65-2.14-.51c-.36-.44-1-.19-1.41-.46a5,5,0,0,0-1.48-.28,12.66,12.66,0,0,1-1.49-.3c-.46-.17-1,0-1.42-.44-1.42-.19-2.84-.42-4.26-.72-1.15-.24-2.34-.21-3.49-.49-.47-.12-1.09.15-1.45-.06a2.44,2.44,0,0,0-1.41-.19c-.48,0-1-.26-1.37-.23-1.71.09-3.39-.3-5.08-.28-.62,0-1.24,0-1.85,0A3.19,3.19,0,0,1,97.59,4c-.55.44-1.18.11-1.77.19a8.18,8.18,0,0,1-1,0c-.37,0-.84.14-1.08,0s-.55.05-.81.05c-1.11,0-2.22,0-3.33,0a27.54,27.54,0,0,0-3,.27,9.13,9.13,0,0,0-2.75.21c-.65.24-1.39,0-2.12.23s-1.4,0-2.12.27c-.5.16-1.07.05-1.62.24s-1.15,0-1.75.25-1.41.13-2.1.29-1.36.3-2,.43a9.36,9.36,0,0,1-1.49.3c-.51,0-1,.3-1.51.28s-.92.35-1.4.44a57.93,57.93,0,0,0-6.19,1.72,79,79,0,0,0-10.22,3.94,43.75,43.75,0,0,0-4.47,2.29c-.62.38-1.28.7-1.89,1.1a62,62,0,0,0-7.3,5.6A24.26,24.26,0,0,0,34.93,25a21.17,21.17,0,0,0-2.17,3.17,37.4,37.4,0,0,0-1.67,3.5,37.09,37.09,0,0,0-1.17,4.7,15.46,15.46,0,0,0,.28,4.92c.23.48.09.94.27,1.38a33.89,33.89,0,0,0,2.36,5.44A26.39,26.39,0,0,0,36,52.33a38.08,38.08,0,0,0,6,5.38,57,57,0,0,0,5.67,3.6A67.92,67.92,0,0,0,55,64.77c2.17.85,4.36,1.6,6.55,2.35,1.16.4,2.35.69,3.54,1a32.36,32.36,0,0,0,4.27,1,7.93,7.93,0,0,0,1.14.23,4.49,4.49,0,0,1,1.12.28,4.88,4.88,0,0,0,1,.2c.68,0,1.31.4,2,.25,1.1.57,2.36.39,3.53.71.62.16,1.32.07,2,.24s1.32.1,2,.24,1.65.1,2.49.25c1.09.18,2.23.13,3.35.24,2.34.24,4.7-.08,7,.25,1.55.22,3.12-.29,4.71-.24a16.15,16.15,0,0,0,4.1-.17c1.11-.24,2.31,0,3.47-.27a13.11,13.11,0,0,0,2.12-.24c.58-.21,1.23,0,1.88-.23a7,7,0,0,1,1.86-.23,13.19,13.19,0,0,0,2.22-.36,10.79,10.79,0,0,0,2.17-.41,6.38,6.38,0,0,1,1.61-.28,4.34,4.34,0,0,0,1.46-.34c.51-.31,1.15.12,1.56-.4a31,31,0,0,0,3-.72c1-.24,2-.56,3-.81s1.87-.64,2.81-.94,1.94-.69,2.89-1.06c1.63-.61,3.22-1.35,4.82-2a55.42,55.42,0,0,0,6.35-3.43,46.31,46.31,0,0,0,6.52-4.79,26.44,26.44,0,0,0,4-4.26,13.3,13.3,0,0,0,.86-1.12A27.24,27.24,0,0,0,159,45.05a36.49,36.49,0,0,0,1.15-3.59A22.91,22.91,0,0,0,160.48,38.13Z"/><path class="cls-1" d="M75.35,7.32l.92.34c0,1,.55,1.88.51,2.83a6.45,6.45,0,0,1,.69,2.3c.39,1.36.8,2.71,1.2,4.07a25,25,0,0,0,1.8,4.57,6.5,6.5,0,0,0,3.83,3.26c1.17.39,2.42.53,3.62.8.8.18,1.67,0,2.4.44.06,0,.17,0,.25,0a5.12,5.12,0,0,1,1.76.21c.51.22,1.19-.12,1.74.28.05,0,.16,0,.24,0a5.62,5.62,0,0,1,1.89.2c.53.24,1.27-.09,1.85.29h.13c1.19.08,2.4.15,3.59.25a12.84,12.84,0,0,1,1.38.24c.46.09,1-.21,1.39.23.06.06.24,0,.36,0a22.89,22.89,0,0,1,3.1.28,19.31,19.31,0,0,1,2.11.26,16,16,0,0,0,2,.21,26.48,26.48,0,0,0,3.75.46c1.26.11,2.55,0,3.82.05a14.21,14.21,0,0,0,1.63-.29c.5,0,1.06.25,1.5-.23,0,0,.16,0,.24,0,1-.08,2.08-.15,3.11-.26.42,0,.83-.18,1.25-.23a7.73,7.73,0,0,0,1.15-.21c.62-.17,1.31-.11,2-.26a3.8,3.8,0,0,0,3.24-3.32c.1-.52.33-1,.48-1.52.27-.87.53-1.75.78-2.59h.62c.8,1.86,1,3.93,2.08,6.06a6,6,0,0,0,1.59,1.17c.52.25,1,.11,1.58.36a7.52,7.52,0,0,0,2.21.31c.43.06.84.21,1.26.23a6.43,6.43,0,0,1,1.38.24c.43.1,1-.13,1.34.05.63.33,1.34,0,1.85.28s1.21,0,1.89.27l.27.76a4.81,4.81,0,0,1-2.16.4,5.53,5.53,0,0,0-1.13.23c-.35.08-.74-.17-1,.19a.44.44,0,0,1-.22.06c-.87.08-1.75.13-2.61.25-1.46.22-2.92.48-4.38.75a4.07,4.07,0,0,0-.72.3,5,5,0,0,0-1.68,2.72c-.49,1.38-.66,2.84-1.17,4.2a2.63,2.63,0,0,0,0,.8l-.85.75a10.42,10.42,0,0,1-.61-1.94,43.63,43.63,0,0,0-1.26-4.91c-.16-.69-.78-1.09-1.27-1.61a18.74,18.74,0,0,0-4.43-.82c-.47,0-.87-.33-1.38-.26a1.47,1.47,0,0,1-1.26-.22c-.07-.06-.24,0-.36,0a5.32,5.32,0,0,1-1.76-.22c-.5-.18-1.11.09-1.62-.26-.15-.1-.41,0-.61,0s-.66,0-1,0a2.82,2.82,0,0,1-1.06-.1c-.36-.17-.53.26-.83.11a3.19,3.19,0,0,0-.58-.17c-.47.06-.89.13-1.31.16a26.78,26.78,0,0,0-3.71.3c-.69.15-1.34.11-2,.21a7.29,7.29,0,0,1-1.62.25,2.49,2.49,0,0,0-1.63.22c-.12.07-.33,0-.49,0a23,23,0,0,0-3.34.29c-.68.15-1.38,0-2,.24a8.2,8.2,0,0,1-2,.22c-.42,0-.84.16-1.26.24s-.82-.17-1.13.24c0,0-.16,0-.24,0a21.14,21.14,0,0,0-3.1.27,23.47,23.47,0,0,0-3.9.71,6.47,6.47,0,0,0-2.23.26,11.13,11.13,0,0,0-4,1.12,5.57,5.57,0,0,0-2.9,3.19,25.19,25.19,0,0,0-.84,2.63,21.73,21.73,0,0,1-.72,2.65c-.31,1.11-.63,2.22-.86,3.33s-.44,2-.63,3a20.12,20.12,0,0,1-.66,3,10.07,10.07,0,0,0-.32,2.2c-.37.43-.74.48-1.12,0s.11-.86-.24-1.26.08-.84-.26-1.25,0-.82-.25-1.26a3.85,3.85,0,0,1-.26-1.47c-.12-.94-.42-1.82-.6-2.73a25.3,25.3,0,0,0-.67-2.8c-.36-1.09-.59-2.22-.9-3.32a23.76,23.76,0,0,0-1.07-2.89,6.82,6.82,0,0,0-2.81-3.12,6.64,6.64,0,0,0-2.12-.8,13,13,0,0,0-2.63-.53,11.13,11.13,0,0,1-1.26-.23,7.05,7.05,0,0,1-1.26-.21,13,13,0,0,0-2.35-.29c-.47-.06-.92-.16-1.38-.25s-1,.23-1.38-.24c0,0-.08,0-.12,0a27.14,27.14,0,0,1-2.86-.27,12.76,12.76,0,0,1-3-.47h-.12c-1.16-.08-2.32-.15-3.47-.25-.55-.05-1.09-.15-1.63-.25s-1.14.26-1.63-.23c-.06-.06-.24,0-.36,0a14.42,14.42,0,0,1-3.47-.3c-.87-.08-1.74-.16-2.62-.21a4.81,4.81,0,0,1-1-.32v-.57l.34-.34c1.15.17,2.27-.41,3.45-.24a5.88,5.88,0,0,1,2.36-.25c.51,0,1-.33,1.5-.26a1.55,1.55,0,0,0,1.39-.22s.15,0,.24,0c1.24-.08,2.48-.15,3.72-.25a11,11,0,0,0,1.25-.24c.38-.07.82.18,1.14-.24.05-.06.24,0,.36,0,1.18.17,2.31-.32,3.48-.27a8,8,0,0,0,1.25-.22A7.73,7.73,0,0,0,57,26.47a10,10,0,0,1,2-.25,36.06,36.06,0,0,1,4-.54c.58-.51,1.37-.09,2-.46a11.5,11.5,0,0,1,2-.53,6.24,6.24,0,0,0,3.89-3.33,12.31,12.31,0,0,0,1.18-2.59A10.28,10.28,0,0,0,72.84,16c.67-1.43.86-3,1.4-4.47a10.17,10.17,0,0,0,.54-2.24C74.87,8.61,75.27,8.08,75.35,7.32Z"/><path class="cls-1" d="M93.48,68.9c-.29-.65-.64-1.07-.63-1.48,0-1-.57-2-.55-3a4.07,4.07,0,0,0-.47-1.4,12.19,12.19,0,0,0-1-2.17,2.8,2.8,0,0,0-2.12-1.09A18.12,18.12,0,0,0,85,59.24c-.67-.42-1.48,0-2.1-.28-1-.4-2,.1-2.9-.46,0,0-.08,0-.12,0a11.63,11.63,0,0,1-3.08-.42l-.61-.21A1.84,1.84,0,0,1,77.78,57c1.15-.12,2.31-.16,3.47-.26a6.2,6.2,0,0,1,1.5-.26,2,2,0,0,0,1.5-.23A7,7,0,0,0,86.86,56c.75-.13,1.52-.21,2.28-.41A3.31,3.31,0,0,0,91.27,54a10.46,10.46,0,0,0,1.07-2.89c.19-.82.47-1.61.74-2.41a3.47,3.47,0,0,1,.38-.6c.6.24.71.74.84,1.22a41.16,41.16,0,0,0,1.25,4.05,7.15,7.15,0,0,0,.8,1.39c.1.15.32.21.48.32a6.71,6.71,0,0,0,2.4.78,30.69,30.69,0,0,1,3.91.66,8.65,8.65,0,0,0,2,.23,17.86,17.86,0,0,0,3.72.31,1.49,1.49,0,0,1,.61.17l1.28-.18c.63-.09,1.28.14,1.91-.18s1.29.19,1.84-.31c.73.17,1.39-.26,2.12-.26a6.71,6.71,0,0,0,1.13-.24,5.41,5.41,0,0,0,1.15-.19c.51-.21,1.15-.08,1.73-.29a2.65,2.65,0,0,0,1.7-1.5,24.85,24.85,0,0,0,1.11-3.49c.07-.29.15-.59.25-.88.15-.46.16-.47.87-.53.63,1.56.86,3.25,1.59,4.77A3.42,3.42,0,0,0,129,55.8a8.5,8.5,0,0,1,2.39.46.93.93,0,0,0,.24,0c1,.08,1.91.18,2.86.24.51,0,.95.36,1.51.27a3.74,3.74,0,0,1,1.5.19,8.27,8.27,0,0,0,2.05,0l.33.33v.57l-.28.28a21.48,21.48,0,0,0-3.37.35c-.6.15-1.19.09-1.76.21a35.68,35.68,0,0,1-4.11.48c-.65.47-1.44.22-2.16.44a2.8,2.8,0,0,0-1.88,1.41,19.39,19.39,0,0,0-1.22,3.45,3.14,3.14,0,0,1-.95,1.92c-.16-.17-.43-.33-.5-.54-.16-.56-.22-1.15-.36-1.71s-.29-1-.44-1.55a9.18,9.18,0,0,0-.72-1.79,3.22,3.22,0,0,0-2.24-1.36c-.49-.12-1-.09-1.51-.23-.79-.22-1.66-.13-2.47-.31-.63-.14-1.28-.1-1.86-.27s-1.22,0-1.76-.22c-1.4-.48-2.82-.12-4.22-.21a7.25,7.25,0,0,0-1.26.22c-.38,0-.76.13-1.14.21a12.41,12.41,0,0,1-2.11.25c-1.39,0-2.71.59-4.11.54-.37.33-.84.15-1.25.26a3.46,3.46,0,0,0-2.49,2.16c-.63,1.5-.87,3.09-1.38,4.61-.17.48-.17,1.07-.32,1.6C94,68.32,93.79,68.48,93.48,68.9Z"/><path class="cls-1" d="M143.51,35.2l.46.89L144,36c.24.77.47,1.54.71,2.31.12.36.28.71.38,1.07a3.25,3.25,0,0,0,3,2.37,7.2,7.2,0,0,0,2.36.27c.44.52,1.19,0,1.66.48.05.06.23,0,.35,0,1,.08,1.91.14,2.86.26a9.67,9.67,0,0,1,1.3.34v.82a12.54,12.54,0,0,1-2.37.33,5.57,5.57,0,0,0-1.25.22c-.38.07-.79-.13-1.16.23-.12.12-.47,0-.71,0a2.15,2.15,0,0,0-1.14.23c-.3.16-.67,0-1.05.17a4.79,4.79,0,0,1-1.58.34,2.36,2.36,0,0,0-1.81,1.31,10.74,10.74,0,0,0-1,2.93c-.27,1-.51,1.93-.78,3L143,52.4c-.23-1.07-.41-2-.65-2.95-.19-.74-.46-1.46-.68-2.18a2.38,2.38,0,0,0-2-1.85,3.11,3.11,0,0,1-1.33-.33c-.45-.35-1,.07-1.37-.31s-.88,0-1.36-.29-1.05-.14-1.6-.26a20.28,20.28,0,0,0-3.22-.28,6.44,6.44,0,0,0-2.13.21c-.63.2-1.36-.17-2,.28a7.75,7.75,0,0,0-2.49.27,28.71,28.71,0,0,0-4.6.78,3.07,3.07,0,0,0-2,.91,9,9,0,0,0-.83,1c-.5,1.45-.75,3-1.22,4.43a11.31,11.31,0,0,0-.28,1.85l-.6.62-.53-.53a59.19,59.19,0,0,0-1.71-6.65c-.17-.18-.51-.48-.81-.82a3.27,3.27,0,0,0-1.86-.86c-.81-.18-1.68-.09-2.47-.31s-1.31,0-1.87-.25-1.3,0-1.87-.24c-.8-.29-1.63,0-2.36-.26a8.62,8.62,0,0,0-1.4-.21c-.46-.06-.91-.16-1.37-.23a2.69,2.69,0,0,0-.49,0l-.5-.46c.18-.19.32-.47.5-.5.65-.14,1.32-.18,2-.27s1.16-.18,1.74-.24,1.22.16,1.75-.25c0,0,.08,0,.13,0,1-.08,2.06-.18,3.1-.23.48,0,.87-.42,1.38-.26s.84-.15,1.25-.24.93-.14,1.38-.26a3.15,3.15,0,0,0,2.14-2.1c.17-.71.48-1.37.65-2.08s.42-1.31.6-2a2.9,2.9,0,0,0,0-.74,2.19,2.19,0,0,1,.82-.23c.24,0,.35.33.44.63.43,1.35.76,2.72,1.18,4.07a3.61,3.61,0,0,0,3.12,2.65,20.56,20.56,0,0,0,3.49.52c.58.51,1.43,0,2,.49.9-.18,1.73.29,2.62.27a14.78,14.78,0,0,1,1.74.22c.58,0,1.15,0,1.73,0a3.87,3.87,0,0,0,1.64-.21c.48-.22,1.13.19,1.61-.28,1.09.17,2.06-.44,3.12-.51a22.58,22.58,0,0,0,2.39-.5,2.34,2.34,0,0,0,1.49-1.23,13.28,13.28,0,0,0,1.23-3.32c.17-.55.37-1.08.56-1.61Z"/><polygon class="cls-1" points="426.92 83.36 414.17 83.36 396.84 52.3 379.02 83.36 366.35 83.36 390.63 41.26 385.32 31.62 355.48 83.44 343.14 83.44 385.89 9.39 426.92 83.36"/><rect class="cls-1" x="343.06" y="90.47" width="83.86" height="10.71"/><rect class="cls-1" x="267.63" y="26.48" width="7.35" height="43.18" transform="translate(113.45 -177.76) rotate(45)"/><rect class="cls-1" x="267.63" y="26.48" width="7.35" height="43.18" transform="translate(45.47 205.92) rotate(-45)"/></svg>