<?xml version="1.0" encoding="utf-8"?>
<!-- Generator: Adobe Illustrator 23.0.1, SVG Export Plug-In . SVG Version: 6.00 Build 0)  -->
<svg version="1.1" id="Layer_1" xmlns="http://www.w3.org/2000/svg" xmlns:xlink="http://www.w3.org/1999/xlink" x="0px" y="0px"
	 viewBox="0 0 426.9 110.6" style="enable-background:new 0 0 426.9 110.6;" xml:space="preserve">
<style type="text/css">
	.st0{fill:#160C4E;}
</style>
<title>Graphics</title>
<path class="st0" d="M65.2,110.6c-0.2-0.4-0.3-0.8-0.2-1.2V85.9h21.7c1.6,0,3.2,0.6,4.5,1.6c0.9,0.8,1.5,1.8,1.8,3
	c0.3,1.2,0.3,2.4,0.1,3.6c-0.1,1.1-0.5,2.1-1.3,2.9c-0.2,0.1-0.4,0.3-0.6,0.4c0.7,0.4,1.3,1,1.7,1.7c0.4,0.6,0.6,1.3,0.8,2
	c0.2,0.9,0.3,1.8,0.2,2.7c-0.1,1-0.3,2-0.7,3c-0.9,2-2.8,3.4-5,3.5c-0.1,0-0.1,0.2-0.2,0.2L65.2,110.6z M71.6,105.1H74
	c3.4,0,6.7,0.1,10.1,0c1.2,0,2.5-0.2,3-1.7v-1.6l-1.1-1.1c-1-0.3-2-0.4-3-0.2c-3.4,0-6.9,0-10.4,0h-1V105.1z M85.3,91.3H71.7v3.9
	h11.9c1,0.2,2.1-0.1,2.9-0.7c0.2-0.3,0.4-0.7,0.4-1.1c0-0.5-0.1-0.9-0.3-1.4L85.3,91.3z"/>
<path class="st0" d="M8.4,110.6c-0.1-0.1-0.2-0.2-0.3-0.2c-0.5,0-1.1,0-1.6,0c-1-0.1-2.1-0.3-3-0.7c-1.6-0.8-2.7-2.2-3-3.9
	c-0.1-0.7-0.2-1.4-0.3-2.1c-0.1-0.6-0.2-1.2-0.2-1.9h6.6c0,0.4,0,0.8,0,1.2c-0.1,0.5,0.1,0.9,0.5,1.3c0.3,0.2,0.7,0.4,1.2,0.4
	c0.2,0,0.4,0,0.6,0c4.1,0,8.2,0,12.3,0c0.6,0,1.3-0.1,1.9-0.3l0.4-0.6l0.2,0.1c0-0.2-0.1-0.4,0-0.4c0.5-0.6,0.1-1.2-0.2-1.7
	s-1-0.7-1.5-0.7c-1.7-0.1-3.5-0.2-5.2-0.3c-1.7-0.2-3.5-0.3-5.2-0.3c-0.1,0-0.3-0.1-0.4-0.2l-0.2,0.2c-0.5-0.1-0.9-0.2-1.3-0.2
	c-0.4,0-0.7,0-1.1,0c-1.4,0-2.8-0.2-4.1-0.5c-1.1-0.3-2.1-0.9-2.9-1.7c-0.7-0.8-1.2-1.7-1.4-2.8C0,94.2-0.1,93,0.1,91.9
	c0.1-1.7,1-3.2,2.4-4.2c0.6-0.4,1.2-0.8,1.9-1.1c0.6-0.3,1.4-0.3,2-0.7c0.1,0,0.2,0,0.2,0c1.3-0.1,2.6-0.2,4-0.2c3.2,0,6.4,0,9.6,0
	c1.3,0,2.7,0.1,4,0.3c1,0.1,2,0.4,2.8,1c0.6,0.4,1.1,0.9,1.6,1.5c0.2,0.2,0.3,0.5,0.4,0.8c0.1,0.3,0.3,0.7,0.5,1.3
	c0,0.5,0.1,1,0.2,1.5c0.1,0.6,0.1,1.2,0,1.8H23v-1.6l-0.9-0.9c-4-0.5-8.1-0.2-12.2-0.2c-0.9-0.1-1.9,0.1-2.8,0.5
	c-0.2,0.1-0.4,0.2-0.5,0.3c-0.1,0.8,0,1.5,0.3,2.2c0.4,0.2,0.9,0.4,1.4,0.4c1.4,0.4,2.9,0,4.3,0.3c1.7,0.3,3.4,0,5.1,0.2
	c1.3,0.2,2.7,0.2,4,0.2c0.3,0,0.6,0.4,0.9,0.1c0.3,0.4,0.8,0.2,1.1,0.2c0.4,0,0.7,0,1.1,0c1.2,0.3,2.3,0.8,3.3,1.6
	c1.2,1.1,1.9,2.6,1.9,4.1c0,0.2,0.4,0.4,0.1,0.7c-0.1,0.1,0.1,0.5,0.1,0.7c0,1.6-0.4,3.2-1.2,4.7c-0.9,1.4-2.2,2.4-3.8,2.7
	c-1.1,0.2-2.2,0.3-3.4,0.2c-0.2,0-0.4-0.1-0.4,0.2L8.4,110.6z"/>
<path class="st0" d="M129.1,110.6V85.9c0.3,0,0.6,0,0.9,0c7,0,14,0,21,0c1.2,0,2.5,0.3,3.5,1c1.4,0.8,2.3,2.2,2.7,3.7
	c0.3,1.3,0.4,2.7,0.2,4c-0.1,1.4-0.7,2.6-1.6,3.6c-0.3,0.2-0.5,0.4-0.8,0.6c1,0.6,1.8,1.5,2.2,2.6c0.4,1,0.6,2.1,0.5,3.1
	c0,1,0.1,2,0.3,3v3h-6.7c0-1.3-0.1-2.6,0-3.8s-0.4-2.5-0.3-3.6l-1.2-1.3c-0.8,0-1.7-0.1-2.6-0.1c-3.6,0-7.1,0-10.7,0
	c-0.3,0-0.6,0-0.9,0v8.8L129.1,110.6z M135.5,96h13.8c0.3-0.1,0.4-0.2,0.6-0.2c0.8-0.3,1.2-1.1,1.1-1.9c0-0.4,0-0.8,0-1.2
	c-0.5-0.9-1.5-1.5-2.5-1.4h-13L135.5,96z"/>
<path class="st0" d="M39.3,110.6c-0.1-0.1-0.2-0.2-0.3-0.2c-1,0-2-0.3-2.9-0.8c-1.7-0.9-2.8-2.4-3.2-4.2c-0.2-0.8-0.2-1.6-0.2-2.4
	V86H39v1c0,4.8,0,9.6,0,14.4c0,0.5,0.1,1.1,0.3,1.6c0.2,0.7,0.8,1.3,1.5,1.4c1.2-0.2,2.6,0.3,4,0.3c1.4-0.1,2.8-0.1,4.2,0
	c1.6,0.1,3.1-0.5,4.7-0.2c0,0,0.1-0.1,0.1-0.1c0.9-0.3,1.4-1.2,1.3-2.2c0-5,0-10,0-14.9v-1.3h6.7v3c0,4.8,0,9.5,0,14.3
	c0,1.6-0.4,3.1-1.2,4.4c-0.8,1.2-1.9,2-3.2,2.4c-0.5,0.2-1,0.3-1.5,0.3c-0.2,0-0.4-0.1-0.4,0.2L39.3,110.6z"/>
<path class="st0" d="M93.6,110.6c0.4-1,0.8-2.1,1.4-3c0.2-0.4,0.4-0.8,0.6-1.1c1-1.5,1.8-3.1,2.6-4.7s1.7-3.1,2.5-4.6
	c0.6-1.2,1.2-2.3,1.9-3.4c0.3-0.5,0.5-0.9,0.7-1.4l3-5.4c0.2-0.3,0.3-0.6,0.4-1h7.4c0.8,1.5,1.6,3,2.3,4.5c1.2,2.2,2.4,4.3,3.5,6.4
	c0.8,1.7,1.8,3.3,2.7,4.9c0.6,1.3,1.3,2.5,2.1,3.7c0.2,0.4,0.5,0.9,0.6,1.3c0.6,1.1,1.2,2.2,1.8,3.3c0.1,0.1,0.1,0.3,0.1,0.4H120
	c-0.2-0.3-0.3-0.5-0.5-0.8l-1.8-3.6H103l-0.3,0.7c-0.6,1.3-1.2,2.5-2,3.7L93.6,110.6z M115,100.9c-0.3-0.3-0.5-0.7-0.7-1.1
	c-0.8-1.6-1.5-3.2-2.3-4.7c-0.5-1-1-1.9-1.6-3l-4.6,8.8L115,100.9z"/>
<path class="st0" d="M167.1,110.6c0-0.4-0.4-0.2-0.6-0.2c-0.8,0-1.6-0.2-2.4-0.6c-1.7-0.8-3-2.4-3.4-4.2c-0.1-0.3-0.1-0.6-0.1-0.8
	c0-0.2,0-0.3,0-0.5c0-0.1-0.1-0.2-0.1-0.1c0.1-0.6,0.1-1,0.1-1.4c0-3.5,0-6.9,0-10.3v-6.4h6.4V101c-0.2,1,0.1,2.1,0.7,2.9l0.7,0.5
	c1.5-0.1,3.1,0.4,4.8,0.3s3.2,0,4.8,0c1.2,0,2.3-0.2,3.6-0.3l1.1-0.9c0.6-2.3,0.3-4.5,0.3-6.7c0-3.6,0-7.1,0-10.8h6.4v19.2
	c-0.1,0.1-0.2,0.1-0.2,0.2c-0.3,1.5-1.1,2.8-2.3,3.8c-0.9,0.7-2,1.1-3.2,1.2c-0.2,0.1-0.6-0.2-0.7,0.2H167.1z"/>
<path class="st0" d="M24.7,38v-1.2c0.1-1.4,0.3-2.7,0.7-4c0.4-1.4,0.8-2.8,1.5-4.1c0.4-0.8,0.8-1.6,1.3-2.3c0.9-1.4,1.9-2.8,3-4.1
	c1-1.2,2.1-2.4,3.3-3.4c1.6-1.4,3.2-2.7,5-3.9c3.3-2.3,6.7-4.3,10.4-5.9c2.2-1,4.5-1.9,6.8-2.7C57.8,6,59,5.5,60.2,5.1
	s2.7-0.8,4.1-1.1s3-0.7,4.4-1.2c0.5-0.2,1.1-0.2,1.6-0.3s1.3,0,1.7-0.3s1.1-0.1,1.7-0.4c0.7-0.2,1.5-0.3,2.2-0.3
	c0.9-0.1,1.8-0.2,2.6-0.5c0.1,0,0.2,0,0.2,0c1,0,1.9-0.1,2.8-0.3c1.1-0.2,2.2,0,3.2-0.2s2.3,0,3.3-0.2C90.2,0,92.1-0.1,94,0
	c1.9,0,3.9,0,5.8,0c1.7,0,3.5,0.1,5.2,0.3c1,0.1,2.1,0.2,3.1,0.2c0.5,0,1,0.3,1.5,0.3c0.5,0,1,0,1.5,0.2c0.9,0.2,1.7,0.3,2.6,0.3
	c0.4,0,0.8,0.2,1.1,0.2s0.7-0.1,1,0.2s0.6,0,1,0.1s0.6,0.2,0.9,0.2c1.2,0.1,2.3,0.4,3.4,0.7c1.9,0.3,3.9,0.7,5.8,1.3
	c1.7,0.3,3.3,1.1,4.9,1.5c1,0.3,2,0.8,3,1s2,0.8,3,1.1c1.1,0.4,2.3,0.9,3.3,1.5c0.6,0.3,1.2,0.4,1.7,0.7c2,1.2,4.1,2.3,6.1,3.5
	c1.5,0.9,2.9,2,4.3,2.9c0.7,0.5,1.3,1.1,1.9,1.7c0.6,0.6,1.2,1.1,1.9,1.7c1,0.9,1.8,1.8,2.6,2.8c0.7,0.9,1.4,1.9,2.1,2.8
	c0.4,0.5,0.7,1,0.9,1.5c0.8,1.5,1.5,3.1,2,4.7c0.2,0.7,0.4,1.4,0.7,2.1c0,0.1,0,0.1,0.1,0.2c0.1,1.1,0.2,2.2,0.2,3.2
	c0.1,1.1,0.1,2.1,0,3.2c-0.1,1-0.3,2.1-0.5,3.1c-0.4,0.9-0.7,1.8-1,2.8c-0.7,2.2-2.2,4-3.3,6c-0.4,0.6-0.9,1.1-1.4,1.6
	c-1.4,1.4-2.8,3-4.3,4.2c-1.2,1.2-2.5,2.1-3.9,3c-0.9,1.1-2.3,1.6-3.5,2.4c-1.4,0.8-2.8,1.6-4.2,2.2c-1.1,0.6-2.2,1.1-3.3,1.6
	c-1.3,0.6-2.6,1.1-3.9,1.6c-2.4,1-4.9,1.7-7.4,2.5c-1.1,0.3-2.2,0.7-3.3,0.9s-2.3,0.6-3.4,0.9c-0.5,0-1,0.1-1.5,0.3
	c-0.5,0.3-1.3,0.1-1.8,0.3s-1.3,0-1.8,0.4c-0.7-0.2-1.4,0.3-2.1,0.3c-0.4,0-0.8,0.1-1.3,0.2c-0.4,0.1-0.9-0.2-1.2,0.2
	c0,0-0.1,0-0.1,0c-1,0.1-2.1,0.2-3.1,0.2c-0.6,0.1-1.2,0.2-1.9,0.2s-1.3-0.2-1.9,0.2c-0.1,0.1-0.2,0-0.4,0c-1.5-0.2-2.9,0.3-4.3,0.2
	s-2.9,0-4.3,0c-2.1,0-4.2,0-6.3,0c-1.5,0-3-0.4-4.6-0.2c-0.8-0.4-1.7-0.1-2.5-0.3s-1.8-0.1-2.7-0.3c-0.6-0.1-1.2-0.1-1.8-0.2
	s-1.2-0.1-1.8-0.2s-1.1-0.1-1.6-0.2s-1-0.1-1.5-0.2c-1-0.3-1.9-0.5-2.9-0.6c-1-0.2-2-0.5-3-0.6s-2.2-0.6-3.3-0.8
	c-2-0.4-3.8-1.2-5.7-1.7c-1.2-0.3-2.3-0.9-3.5-1.3c-0.7-0.2-1.3-0.5-1.9-0.7S52,68,51.4,67.7c-1.8-0.8-3.5-1.6-5.2-2.4
	c-2.2-1.2-4.4-2.5-6.5-3.9c-1.3-0.9-2.5-2-3.7-2.9c-1.7-1.3-3.2-2.8-4.6-4.4c-1.4-1.4-2.5-3-3.4-4.7c-0.3-0.6-0.7-1.3-1-1.9
	c-0.6-1.3-1.2-2.7-1.6-4.1c-0.2-0.5-0.3-1-0.3-1.5c-0.1-0.6-0.2-1.2-0.3-1.9C24.8,39.3,24.7,38.7,24.7,38z M160.5,38.1
	c0-0.7-0.1-1.4-0.2-2c-0.2-0.7-0.1-1.4-0.3-2.1c-0.6-1.9-1.3-3.7-2.2-5.5c-0.9-1.7-2-3.2-3.3-4.7c-1.1-1.2-2.2-2.3-3.4-3.3
	c-1.4-1.2-2.8-2.3-4.3-3.3c-1.7-1.2-3.5-2.2-5.3-3.2c-2.4-1.3-4.9-2.4-7.5-3.3c-0.9-0.3-1.8-0.9-2.7-1.1c-0.9-0.3-1.9-0.6-2.9-0.8
	c-0.7-0.1-1.3-0.6-2-0.7s-1.3-0.7-2.1-0.5c-0.4-0.4-1-0.2-1.4-0.5c-0.5-0.2-1-0.3-1.5-0.3c-0.5-0.1-1-0.2-1.5-0.3
	c-0.5-0.2-1,0-1.4-0.4c-1.4-0.2-2.8-0.4-4.3-0.7c-1.2-0.2-2.3-0.2-3.5-0.5c-0.5-0.1-1.1,0.2-1.4-0.1c-0.4-0.2-0.9-0.3-1.4-0.2
	c-0.5,0-1-0.3-1.4-0.2c-1.7,0.1-3.4-0.3-5.1-0.3c-0.6,0-1.2,0-1.8,0c-0.6,0.1-1.2,0-1.7-0.2c-0.6,0.4-1.2,0.1-1.8,0.2
	c-0.3,0-0.7,0-1,0c-0.4,0-0.8,0.1-1.1,0s-0.6,0.1-0.8,0.1c-1.1,0-2.2,0-3.3,0c-1,0-2,0.1-3,0.3c-0.9-0.1-1.8,0-2.8,0.2
	c-0.7,0.2-1.4,0-2.1,0.2s-1.4,0-2.1,0.3c-0.5,0.2-1.1,0.1-1.6,0.2s-1.2,0-1.8,0.2S74.8,5.8,74.1,6s-1.4,0.3-2,0.4
	c-0.5,0.1-1,0.2-1.5,0.3c-0.5,0-1,0.3-1.5,0.3s-0.9,0.3-1.4,0.4c-2.1,0.5-4.2,1-6.2,1.7c-3.5,1.1-6.9,2.4-10.2,3.9
	c-1.5,0.7-3,1.4-4.5,2.3c-0.6,0.4-1.3,0.7-1.9,1.1c-2.6,1.7-5,3.6-7.3,5.6c-1,0.9-1.9,1.9-2.7,2.9c-0.8,1-1.5,2-2.2,3.2
	c-0.6,1.1-1.2,2.3-1.7,3.5c-0.5,1.5-0.9,3.1-1.2,4.7c-0.2,1.6-0.1,3.3,0.3,4.9c0.2,0.5,0.1,0.9,0.3,1.4c0.6,1.9,1.4,3.7,2.4,5.4
	c0.9,1.5,2,2.9,3.2,4.2c1.8,2,3.8,3.8,6,5.4c1.8,1.3,3.7,2.5,5.7,3.6c2.4,1.3,4.8,2.5,7.3,3.5c2.2,0.8,4.4,1.6,6.5,2.3
	c1.2,0.4,2.3,0.7,3.5,1c1.4,0.4,2.8,0.8,4.3,1c0.4,0.1,0.8,0.2,1.1,0.2c0.4,0,0.8,0.1,1.1,0.3c0.3,0.1,0.7,0.2,1,0.2
	c0.7,0,1.3,0.4,2,0.2c1.1,0.6,2.4,0.4,3.5,0.7c0.6,0.2,1.3,0.1,2,0.2s1.3,0.1,2,0.2s1.7,0.1,2.5,0.2c1.1,0.2,2.2,0.1,3.3,0.2
	c2.3,0.2,4.7-0.1,7,0.2c1.6,0.2,3.1-0.3,4.7-0.2c1.4,0.1,2.7,0.1,4.1-0.2c1.1-0.2,2.3,0,3.5-0.3c0.7,0,1.4-0.1,2.1-0.2
	c0.6-0.2,1.2,0,1.9-0.2c0.6-0.2,1.2-0.2,1.9-0.2c0.7-0.1,1.5-0.2,2.2-0.4c0.7-0.1,1.5-0.2,2.2-0.4c0.5-0.2,1.1-0.3,1.6-0.3
	c0.5,0,1-0.1,1.5-0.3c0.5-0.3,1.2,0.1,1.6-0.4c1-0.2,2-0.4,3-0.7c1-0.2,2-0.6,3-0.8c1-0.2,1.9-0.6,2.8-0.9s1.9-0.7,2.9-1.1
	c1.6-0.6,3.2-1.3,4.8-2c2.2-1,4.3-2.1,6.4-3.4c2.3-1.4,4.5-3,6.5-4.8c1.5-1.3,2.8-2.7,4-4.3c0.3-0.4,0.6-0.7,0.9-1.1
	c1-1.5,1.9-3,2.6-4.7c0.4-1.2,0.8-2.4,1.1-3.6C160.3,40.4,160.5,39.2,160.5,38.1z"/>
<path class="st0" d="M75.3,7.3l0.9,0.3c0,1,0.6,1.9,0.5,2.8c0.4,0.7,0.6,1.5,0.7,2.3c0.4,1.4,0.8,2.7,1.2,4.1
	c0.4,1.6,1.1,3.1,1.8,4.6c0.8,1.6,2.2,2.7,3.8,3.3c1.2,0.4,2.4,0.5,3.6,0.8c0.8,0.2,1.7,0,2.4,0.4c0.1,0,0.2,0,0.2,0
	c0.6,0,1.2,0,1.8,0.2c0.5,0.2,1.2-0.1,1.7,0.3c0.1,0,0.2,0,0.2,0c0.6,0,1.3,0,1.9,0.2c0.5,0.2,1.3-0.1,1.8,0.3h0.1
	c1.2,0.1,2.4,0.1,3.6,0.2c0.5,0.1,0.9,0.1,1.4,0.2c0.5,0.1,1-0.2,1.4,0.2c0.1,0.1,0.2,0,0.4,0c1,0,2.1,0.1,3.1,0.3
	c0.7,0,1.4,0.1,2.1,0.3c0.7,0.1,1.3,0.2,2,0.2c1.2,0.2,2.5,0.4,3.8,0.5c1.3,0.1,2.6,0,3.8,0c0.5-0.1,1.1-0.2,1.6-0.3
	c0.5,0,1.1,0.2,1.5-0.2c0,0,0.2,0,0.2,0c1-0.1,2.1-0.1,3.1-0.3c0.4,0,0.8-0.2,1.2-0.2c0.4,0,0.8-0.1,1.1-0.2c0.6-0.2,1.3-0.1,2-0.3
	c1.7-0.2,3-1.6,3.2-3.3c0.1-0.5,0.3-1,0.5-1.5c0.3-0.9,0.5-1.8,0.8-2.6h0.6c0.8,1.9,1,3.9,2.1,6.1c0.5,0.5,1,0.9,1.6,1.2
	c0.5,0.2,1,0.1,1.6,0.4c0.7,0.2,1.5,0.3,2.2,0.3c0.4,0.1,0.8,0.2,1.3,0.2c0.5,0,0.9,0.1,1.4,0.2c0.4,0.1,1-0.1,1.3,0
	c0.6,0.3,1.3,0,1.9,0.3s1.2,0,1.9,0.3l0.3,0.8c-0.7,0.3-1.4,0.4-2.2,0.4c-0.4,0-0.8,0.1-1.1,0.2c-0.4,0.1-0.7-0.2-1,0.2
	c-0.1,0-0.1,0.1-0.2,0.1c-0.9,0.1-1.8,0.1-2.6,0.2c-1.5,0.2-2.9,0.5-4.4,0.8c-0.2,0.1-0.5,0.2-0.7,0.3c-0.8,0.7-1.4,1.7-1.7,2.7
	c-0.5,1.4-0.7,2.8-1.2,4.2c0,0.3,0,0.5,0,0.8l-0.9,0.8c-0.3-0.6-0.5-1.3-0.6-1.9c-0.3-1.7-0.7-3.3-1.3-4.9c-0.2-0.7-0.8-1.1-1.3-1.6
	c-1.4-0.5-2.9-0.7-4.4-0.8c-0.5,0-0.9-0.3-1.4-0.3c-0.4,0.1-0.9,0-1.3-0.2c-0.1-0.1-0.2,0-0.4,0c-0.6,0-1.2,0-1.8-0.2
	c-0.5-0.2-1.1,0.1-1.6-0.3c-0.2-0.1-0.4,0-0.6,0s-0.7,0-1,0c-0.4,0-0.7,0-1.1-0.1c-0.4-0.2-0.5,0.3-0.8,0.1
	c-0.2-0.1-0.4-0.1-0.6-0.2c-0.5,0.1-0.9,0.1-1.3,0.2c-1.2,0-2.5,0.1-3.7,0.3c-0.7,0.1-1.3,0.1-2,0.2c-0.5,0.1-1.1,0.2-1.6,0.2
	c-0.6-0.1-1.1,0-1.6,0.2c-0.1,0.1-0.3,0-0.5,0c-1.1,0-2.2,0.1-3.3,0.3c-0.7,0.1-1.4,0-2,0.2c-0.7,0.2-1.3,0.2-2,0.2
	c-0.4,0-0.8,0.2-1.3,0.2s-0.8-0.2-1.1,0.2c0,0-0.2,0-0.2,0c-1,0-2.1,0.1-3.1,0.3c-1.3,0.1-2.6,0.4-3.9,0.7c-0.8,0-1.5,0-2.2,0.3
	c-1.4,0.1-2.7,0.5-4,1.1c-1.4,0.6-2.4,1.8-2.9,3.2c-0.3,0.9-0.6,1.7-0.8,2.6c-0.2,0.9-0.4,1.8-0.7,2.7c-0.3,1.1-0.6,2.2-0.9,3.3
	s-0.4,2-0.6,3c-0.1,1-0.4,2-0.7,3c-0.2,0.7-0.3,1.5-0.3,2.2c-0.4,0.4-0.7,0.5-1.1,0s0.1-0.9-0.2-1.3s0.1-0.8-0.3-1.2s0-0.8-0.2-1.3
	c-0.2-0.5-0.3-1-0.3-1.5c-0.1-0.9-0.4-1.8-0.6-2.7c-0.2-0.9-0.4-1.9-0.7-2.8c-0.4-1.1-0.6-2.2-0.9-3.3c-0.3-1-0.7-2-1.1-2.9
	c-0.6-1.3-1.6-2.4-2.8-3.1c-0.7-0.4-1.4-0.7-2.1-0.8c-0.9-0.3-1.7-0.4-2.6-0.5c-0.4-0.1-0.8-0.1-1.3-0.2c-0.4,0-0.8-0.1-1.3-0.2
	c-0.8-0.2-1.6-0.3-2.3-0.3c-0.5-0.1-0.9-0.2-1.4-0.2s-1,0.2-1.4-0.2c0,0-0.1,0-0.1,0c-1,0-1.9-0.1-2.9-0.3c-1,0-2-0.2-3-0.5h-0.1
	c-1.2-0.1-2.3-0.1-3.5-0.2c-0.5,0-1.1-0.1-1.6-0.2s-1.1,0.3-1.6-0.2c-0.1-0.1-0.2,0-0.4,0c-1.2,0-2.3-0.1-3.5-0.3
	c-0.9-0.1-1.7-0.2-2.6-0.2c-0.3-0.1-0.7-0.2-1-0.3v-0.6l0.3-0.3c1.2,0.2,2.3-0.4,3.5-0.2c0.8-0.2,1.6-0.3,2.4-0.2
	c0.5,0,1-0.3,1.5-0.3c0.5,0.2,1,0.1,1.4-0.2c0,0,0.2,0,0.2,0c1.2-0.1,2.5-0.1,3.7-0.2c0.4-0.1,0.8-0.1,1.2-0.2
	c0.4-0.1,0.8,0.2,1.1-0.2c0-0.1,0.2,0,0.4,0c1.2,0.2,2.3-0.3,3.5-0.3c0.4,0,0.8-0.1,1.2-0.2c0.4,0,0.7-0.1,1.1-0.2
	c0.7-0.2,1.3-0.2,2-0.2c1.3-0.3,2.7-0.4,4-0.5c0.6-0.5,1.4-0.1,2-0.5c0.6-0.2,1.3-0.4,2-0.5c1.7-0.5,3.1-1.7,3.9-3.3
	c0.5-0.8,0.9-1.7,1.2-2.6c0.4-0.9,0.6-1.8,0.8-2.8c0.7-1.4,0.9-3,1.4-4.5c0.3-0.7,0.4-1.5,0.5-2.2C74.9,8.6,75.3,8.1,75.3,7.3z"/>
<path class="st0" d="M93.5,68.9c-0.3-0.7-0.6-1.1-0.6-1.5c0-1-0.6-2-0.6-3c-0.1-0.5-0.2-1-0.5-1.4c-0.3-0.8-0.6-1.5-1-2.2
	c-0.5-0.7-1.3-1.1-2.1-1.1c-1.2-0.3-2.5-0.5-3.7-0.5c-0.7-0.4-1.5,0-2.1-0.3c-1-0.4-2,0.1-2.9-0.5c0,0-0.1,0-0.1,0
	c-1,0-2.1-0.1-3.1-0.4l-0.6-0.2c0.3-0.5,0.9-0.9,1.6-0.9c1.2-0.1,2.3-0.2,3.5-0.3c0.5-0.1,1-0.2,1.5-0.3c0.5,0.1,1,0,1.5-0.2
	c0.9,0.1,1.8,0,2.6-0.3c0.8-0.1,1.5-0.2,2.3-0.4c0.9-0.2,1.7-0.8,2.1-1.6c0.5-0.9,0.9-1.9,1.1-2.9c0.2-0.8,0.5-1.6,0.7-2.4
	c0.1-0.2,0.2-0.4,0.4-0.6c0.6,0.2,0.7,0.7,0.8,1.2c0.3,1.4,0.8,2.7,1.2,4c0.2,0.5,0.5,1,0.8,1.4c0.1,0.2,0.3,0.2,0.5,0.3
	c0.7,0.4,1.6,0.7,2.4,0.8c1.3,0.1,2.6,0.4,3.9,0.7c0.7,0.2,1.3,0.2,2,0.2c1.2,0.2,2.5,0.3,3.7,0.3c0.2,0,0.4,0.1,0.6,0.2l1.3-0.2
	c0.6-0.1,1.3,0.1,1.9-0.2s1.3,0.2,1.8-0.3c0.7,0.2,1.4-0.3,2.1-0.3c0.4,0,0.8-0.1,1.1-0.2c0.4,0,0.8-0.1,1.2-0.2
	c0.5-0.2,1.2-0.1,1.7-0.3c0.8-0.2,1.4-0.8,1.7-1.5c0.5-1.1,0.8-2.3,1.1-3.5c0.1-0.3,0.2-0.6,0.2-0.9c0.2-0.5,0.2-0.5,0.9-0.5
	c0.6,1.6,0.9,3.2,1.6,4.8c0.6,1.1,1.6,1.8,2.8,1.9c0.8,0,1.6,0.2,2.4,0.5c0.1,0,0.2,0,0.2,0c1,0.1,1.9,0.2,2.9,0.2
	c0.5,0,0.9,0.4,1.5,0.3c0.5,0,1,0,1.5,0.2c0.7,0.1,1.4,0.1,2.1,0l0.3,0.3v0.6l-0.3,0.3c-1.1,0-2.3,0.1-3.4,0.3
	c-0.6,0.2-1.2,0.1-1.8,0.2c-1.4,0.2-2.7,0.4-4.1,0.5c-0.6,0.5-1.4,0.2-2.2,0.4c-0.8,0.2-1.5,0.7-1.9,1.4c-0.5,1.1-0.9,2.3-1.2,3.5
	c-0.1,0.7-0.4,1.4-0.9,1.9c-0.2-0.2-0.4-0.3-0.5-0.5c-0.2-0.6-0.2-1.2-0.4-1.7s-0.3-1-0.4-1.5c-0.2-0.6-0.4-1.2-0.7-1.8
	c-0.5-0.8-1.3-1.2-2.2-1.4c-0.5-0.1-1-0.1-1.5-0.2c-0.8-0.2-1.7-0.1-2.5-0.3c-0.6-0.1-1.3-0.1-1.9-0.3s-1.2,0-1.8-0.2
	c-1.4-0.5-2.8-0.1-4.2-0.2c-0.4,0-0.8,0.1-1.3,0.2c-0.4,0-0.8,0.1-1.1,0.2c-0.7,0.1-1.4,0.2-2.1,0.2c-1.4,0-2.7,0.6-4.1,0.5
	c-0.4,0.3-0.8,0.2-1.2,0.3c-1.1,0.3-2.1,1.1-2.5,2.2c-0.6,1.5-0.9,3.1-1.4,4.6c-0.2,0.5-0.2,1.1-0.3,1.6
	C94,68.3,93.8,68.5,93.5,68.9z"/>
<path class="st0" d="M143.5,35.2l0.5,0.9l0-0.1c0.2,0.8,0.5,1.5,0.7,2.3c0.1,0.4,0.3,0.7,0.4,1.1c0.4,1.4,1.6,2.3,3,2.4
	c0.8,0.2,1.6,0.3,2.4,0.3c0.4,0.5,1.2,0,1.7,0.5c0.1,0.1,0.2,0,0.4,0c1,0.1,1.9,0.1,2.9,0.3c0.4,0.1,0.9,0.2,1.3,0.3v0.8
	c-0.8,0.2-1.6,0.3-2.4,0.3c-0.4,0-0.8,0.1-1.2,0.2c-0.4,0.1-0.8-0.1-1.2,0.2c-0.1,0.1-0.5,0-0.7,0c-0.4,0-0.8,0.1-1.1,0.2
	c-0.3,0.2-0.7,0-1.1,0.2c-0.5,0.2-1,0.3-1.6,0.3c-0.8,0.1-1.5,0.6-1.8,1.3c-0.5,0.9-0.8,1.9-1,2.9c-0.3,1-0.5,1.9-0.8,3l-0.8-0.3
	c-0.2-1.1-0.4-2-0.6-3c-0.2-0.7-0.5-1.5-0.7-2.2c-0.2-1-1-1.7-2-1.8c-0.5,0-0.9-0.1-1.3-0.3c-0.4-0.3-1,0.1-1.4-0.3s-0.9,0-1.4-0.3
	s-1.1-0.1-1.6-0.3c-1.1-0.2-2.1-0.3-3.2-0.3c-0.7,0-1.4,0-2.1,0.2c-0.6,0.2-1.4-0.2-2,0.3c-0.8,0-1.7,0-2.5,0.3
	c-1.6,0.1-3.1,0.4-4.6,0.8c-0.8,0-1.5,0.4-2,0.9c-0.3,0.3-0.6,0.6-0.8,1c-0.5,1.5-0.8,3-1.2,4.4c-0.1,0.6-0.2,1.2-0.3,1.8l-0.6,0.6
	l-0.5-0.5c-0.4-2.2-1-4.5-1.7-6.7c-0.2-0.2-0.5-0.5-0.8-0.8c-0.5-0.5-1.2-0.8-1.9-0.9c-0.8-0.2-1.7-0.1-2.5-0.3s-1.3,0-1.9-0.2
	s-1.3,0-1.9-0.2c-0.8-0.3-1.6,0-2.4-0.3c-0.5-0.1-0.9-0.2-1.4-0.2c-0.5-0.1-0.9-0.2-1.4-0.2c-0.2,0-0.3,0-0.5,0l-0.5-0.5
	c0.2-0.2,0.3-0.5,0.5-0.5c0.7-0.1,1.3-0.2,2-0.3s1.2-0.2,1.7-0.2s1.2,0.2,1.8-0.2c0,0,0.1,0,0.1,0c1-0.1,2.1-0.2,3.1-0.2
	c0.5,0,0.9-0.4,1.4-0.3s0.8-0.2,1.2-0.2s0.9-0.1,1.4-0.3c1-0.3,1.8-1.1,2.1-2.1c0.2-0.7,0.5-1.4,0.7-2.1s0.4-1.3,0.6-2
	c0-0.2,0-0.5,0-0.7c0.3-0.1,0.5-0.2,0.8-0.2c0.2,0,0.3,0.3,0.4,0.6c0.4,1.3,0.8,2.7,1.2,4.1c0.4,1.4,1.6,2.5,3.1,2.7
	c1.1,0.3,2.3,0.4,3.5,0.5c0.6,0.5,1.4,0,2,0.5c0.9-0.2,1.7,0.3,2.6,0.3c0.6,0,1.2,0.1,1.7,0.2c0.6,0,1.1,0,1.7,0
	c0.6,0,1.1,0,1.6-0.2c0.5-0.2,1.1,0.2,1.6-0.3c1.1,0.2,2.1-0.4,3.1-0.5c0.8-0.1,1.6-0.3,2.4-0.5c0.7-0.2,1.2-0.6,1.5-1.2
	c0.6-1,1-2.2,1.2-3.3c0.2-0.5,0.4-1.1,0.6-1.6L143.5,35.2z"/>
<polygon class="st0" points="426.9,83.4 414.2,83.4 396.8,52.3 379,83.4 366.4,83.4 390.6,41.3 385.3,31.6 355.5,83.4 343.1,83.4 
	385.9,9.4 "/>
<rect x="343.1" y="90.5" class="st0" width="83.9" height="10.7"/>
<rect x="249.7" y="44.4" transform="matrix(0.7071 -0.7071 0.7071 0.7071 45.47 205.9188)" class="st0" width="43.2" height="7.4"/>
<rect x="267.6" y="26.5" transform="matrix(0.7071 -0.7071 0.7071 0.7071 45.4727 205.9187)" class="st0" width="7.4" height="43.2"/>
</svg>
