<?xml version="1.0" encoding="utf-8"?>
<!-- Generator: Adobe Illustrator 25.0.0, SVG Export Plug-In . SVG Version: 6.00 Build 0)  -->
<svg version="1.1" id="Layer_1" xmlns="http://www.w3.org/2000/svg" xmlns:xlink="http://www.w3.org/1999/xlink" x="0px" y="0px"
	 viewBox="0 0 283 480.5" style="enable-background:new 0 0 283 480.5;" xml:space="preserve">
<style type="text/css">
	.st0{fill:#5400D5;}
</style>
<g>
	<path d="M87.1,37.5v-0.8c0.6-0.5,1.1-1,1.6-1.4c0.5-0.4,0.9-0.8,1.2-1.2c0.3-0.4,0.6-0.7,0.8-1c0.2-0.3,0.3-0.6,0.3-0.9
		c0-0.4-0.1-0.7-0.4-1c-0.2-0.2-0.6-0.4-1.1-0.4c-0.3,0-0.6,0.1-0.9,0.2c-0.3,0.2-0.5,0.4-0.8,0.6L87,30.8c0.4-0.4,0.8-0.7,1.2-0.9
		c0.4-0.2,0.9-0.3,1.5-0.3c0.4,0,0.7,0.1,1.1,0.2c0.3,0.1,0.6,0.3,0.8,0.5c0.2,0.2,0.4,0.4,0.5,0.7c0.1,0.3,0.2,0.6,0.2,1
		c0,0.3-0.1,0.7-0.2,1c-0.2,0.3-0.4,0.7-0.7,1.1c-0.3,0.4-0.6,0.7-1,1.1c-0.4,0.4-0.8,0.8-1.2,1.2c0.2,0,0.5,0,0.7,0
		c0.2,0,0.5,0,0.7,0h2.2v1.2h-5.7V37.5z M94.3,37.5v-0.8c0.6-0.5,1.1-1,1.6-1.4c0.5-0.4,0.9-0.8,1.2-1.2c0.3-0.4,0.6-0.7,0.8-1
		c0.2-0.3,0.3-0.6,0.3-0.9c0-0.4-0.1-0.7-0.4-1c-0.2-0.2-0.6-0.4-1.1-0.4c-0.3,0-0.6,0.1-0.9,0.2c-0.3,0.2-0.5,0.4-0.8,0.6l-0.8-0.8
		c0.4-0.4,0.8-0.7,1.2-0.9c0.4-0.2,0.9-0.3,1.5-0.3c0.4,0,0.7,0.1,1.1,0.2c0.3,0.1,0.6,0.3,0.8,0.5c0.2,0.2,0.4,0.4,0.5,0.7
		c0.1,0.3,0.2,0.6,0.2,1c0,0.3-0.1,0.7-0.2,1c-0.2,0.3-0.4,0.7-0.7,1.1c-0.3,0.4-0.6,0.7-1,1.1c-0.4,0.4-0.8,0.8-1.2,1.2
		c0.2,0,0.5,0,0.7,0c0.2,0,0.5,0,0.7,0h2.2v1.2h-5.7V37.5z M109.5,39.9c-0.2,0-0.3,0-0.5,0c-0.1,0-0.3-0.1-0.4-0.1l0.3-1.1
		c0.1,0,0.2,0.1,0.2,0.1c0.1,0,0.2,0,0.3,0c0.4,0,0.7-0.1,0.9-0.3c0.2-0.2,0.4-0.4,0.5-0.7l0.2-0.4l-2.6-5.8h1.4l1.2,2.9
		c0.1,0.3,0.2,0.5,0.3,0.8c0.1,0.3,0.2,0.6,0.3,0.9l0,0c0.1-0.3,0.2-0.6,0.3-0.9c0.1-0.3,0.2-0.6,0.3-0.9l1.1-2.9h1.3l-2.5,6.2
		c-0.1,0.3-0.3,0.6-0.4,0.9c-0.2,0.3-0.3,0.5-0.5,0.7s-0.4,0.3-0.7,0.4C110.2,39.9,109.9,39.9,109.5,39.9z M119,37.7
		c-0.4,0-0.9-0.1-1.3-0.2c-0.4-0.1-0.7-0.3-1-0.6s-0.5-0.6-0.7-1c-0.2-0.4-0.3-0.8-0.2-1.3c0-0.5,0.1-0.9,0.2-1.3
		c0.2-0.4,0.4-0.7,0.7-1c0.3-0.3,0.6-0.5,1-0.6s0.7-0.2,1.1-0.2s0.8,0.1,1.2,0.2c0.3,0.1,0.6,0.3,0.9,0.6c0.2,0.2,0.4,0.5,0.5,0.9
		c0.1,0.3,0.2,0.7,0.2,1.1c0,0.1,0,0.3,0,0.4c0,0.1,0,0.2,0,0.3h-4.3c0.1,0.6,0.3,1,0.7,1.2c0.4,0.3,0.8,0.4,1.4,0.4
		c0.3,0,0.6,0,0.9-0.1s0.5-0.2,0.8-0.4l0.5,0.9c-0.3,0.2-0.7,0.4-1.1,0.5C119.9,37.6,119.5,37.7,119,37.7z M118.9,32.5
		c-0.4,0-0.8,0.1-1.1,0.4c-0.3,0.2-0.5,0.6-0.6,1.1h3.2c-0.1-0.5-0.2-0.8-0.5-1.1C119.7,32.7,119.3,32.5,118.9,32.5z M125.1,37.7
		c-0.3,0-0.5,0-0.8-0.1c-0.2-0.1-0.4-0.2-0.6-0.3c-0.2-0.2-0.3-0.3-0.4-0.5s-0.1-0.5-0.1-0.7c0-0.3,0.1-0.6,0.2-0.9
		c0.2-0.2,0.4-0.5,0.7-0.6c0.3-0.2,0.8-0.3,1.3-0.4c0.5-0.1,1.1-0.2,1.9-0.2c0-0.3-0.1-0.6-0.4-0.8c-0.3-0.2-0.6-0.3-1-0.3
		c-0.3,0-0.7,0.1-1,0.2c-0.3,0.1-0.6,0.3-1,0.4l-0.5-1.2c0.4-0.2,0.8-0.4,1.2-0.6c0.5-0.2,1-0.2,1.5-0.2c0.8,0,1.4,0.2,1.9,0.7
		c0.4,0.4,0.7,1.1,0.7,1.9v3.5h-1.1l-0.1-0.7l0,0c-0.3,0.2-0.7,0.4-1,0.6C125.9,37.6,125.5,37.7,125.1,37.7z M125.5,36.6
		c0.3,0,0.6-0.1,0.9-0.2c0.3-0.1,0.6-0.3,0.8-0.5v-1.2c-0.5,0-1,0.1-1.3,0.2c-0.3,0.1-0.6,0.1-0.8,0.2c-0.2,0.1-0.4,0.2-0.5,0.4
		c-0.1,0.1-0.1,0.3-0.1,0.4c0,0.3,0.1,0.5,0.3,0.6C125,36.5,125.2,36.6,125.5,36.6z M131,37.5v-5.9h1.1l0.1,1.3l0,0
		c0.3-0.5,0.7-0.8,1.1-1.1c0.4-0.2,0.9-0.4,1.4-0.4c0.2,0,0.4,0,0.6,0.1c0.2,0,0.4,0.1,0.5,0.2l-0.3,1.2c-0.2-0.1-0.4-0.1-0.5-0.1
		c-0.1,0-0.3,0-0.6,0c-0.4,0-0.8,0.1-1.2,0.4c-0.4,0.2-0.7,0.6-1,1.2v3.3H131V37.5z M140.3,37.7c-0.6,0-1.1-0.1-1.6-0.3
		s-0.9-0.4-1.3-0.6l0.6-0.9c0.4,0.2,0.7,0.4,1.1,0.5c0.4,0.1,0.8,0.2,1.3,0.2c0.4,0,0.7-0.1,0.9-0.2c0.2-0.1,0.3-0.3,0.3-0.5
		c0-0.1,0-0.2-0.1-0.2c0-0.1-0.1-0.2-0.2-0.2c-0.1-0.1-0.3-0.1-0.5-0.2c-0.2-0.1-0.5-0.1-0.8-0.2c-0.8-0.2-1.4-0.4-1.7-0.7
		c-0.4-0.3-0.5-0.7-0.5-1.1c0-0.5,0.2-0.9,0.7-1.3c0.4-0.3,1.1-0.5,1.9-0.5c0.5,0,0.9,0.1,1.4,0.2s0.8,0.3,1.1,0.5l-0.6,0.8
		c-0.3-0.2-0.6-0.3-0.9-0.4c-0.3-0.1-0.7-0.2-1-0.2c-0.4,0-0.7,0.1-0.8,0.2c-0.2,0.1-0.2,0.3-0.2,0.5s0.1,0.4,0.4,0.5
		c0.2,0.1,0.6,0.2,1.2,0.3c0.5,0.1,0.9,0.2,1.2,0.3c0.3,0.1,0.5,0.2,0.7,0.4c0.2,0.1,0.3,0.3,0.4,0.5c0.1,0.2,0.1,0.4,0.1,0.6
		c0,0.3-0.1,0.5-0.2,0.7c-0.1,0.2-0.3,0.4-0.5,0.6c-0.2,0.2-0.5,0.3-0.9,0.4C141.4,37.5,140.8,37.7,140.3,37.7z M154.7,37.7
		c-0.4,0-0.7-0.1-1.1-0.2c-0.4-0.1-0.7-0.3-1-0.6s-0.5-0.6-0.7-1c-0.2-0.4-0.2-0.8-0.2-1.3s0.1-0.9,0.2-1.3c0.2-0.4,0.4-0.7,0.7-1
		c0.3-0.3,0.6-0.5,1-0.6c0.4-0.1,0.7-0.2,1.1-0.2c0.4,0,0.8,0.1,1.1,0.2c0.4,0.1,0.7,0.3,1,0.6c0.3,0.3,0.5,0.6,0.7,1
		c0.2,0.4,0.2,0.8,0.2,1.3s-0.1,0.9-0.2,1.3c-0.2,0.4-0.4,0.7-0.7,1s-0.6,0.5-1,0.6C155.4,37.6,155.1,37.7,154.7,37.7z M154.7,36.5
		c0.5,0,0.9-0.2,1.1-0.5c0.3-0.4,0.4-0.8,0.4-1.4c0-0.6-0.1-1.1-0.4-1.4c-0.3-0.4-0.6-0.5-1.1-0.5s-0.9,0.2-1.1,0.5
		c-0.3,0.4-0.4,0.8-0.4,1.4c0,0.6,0.1,1.1,0.4,1.4C153.8,36.4,154.2,36.5,154.7,36.5z M163.1,37.7c-0.7,0-1.2-0.2-1.6-0.6
		c-0.4-0.4-0.5-1-0.5-1.7v-5.2h-2v-1.1h3.3v6.4c0,0.4,0.1,0.7,0.3,0.9s0.5,0.2,0.8,0.2s0.7-0.1,1-0.2l0.3,1
		c-0.3,0.1-0.6,0.2-0.8,0.2C163.7,37.6,163.4,37.7,163.1,37.7z M168.6,37.7c-0.4,0-0.7-0.1-1-0.2c-0.3-0.1-0.6-0.3-0.8-0.6
		s-0.4-0.6-0.5-1c-0.1-0.4-0.2-0.8-0.2-1.3s0.1-0.9,0.2-1.3c0.1-0.4,0.3-0.7,0.6-1c0.2-0.3,0.5-0.5,0.8-0.6s0.6-0.2,1-0.2
		c0.3,0,0.6,0.1,0.9,0.2c0.3,0.1,0.5,0.3,0.7,0.5l0,0l-0.1-1v-2.1h1.4v8.5h-1.1l-0.1-0.7l0,0c-0.2,0.2-0.5,0.4-0.8,0.6
		C169.3,37.6,169,37.7,168.6,37.7z M169,36.5c0.5,0,0.9-0.2,1.3-0.7v-2.7c-0.2-0.2-0.4-0.3-0.6-0.4c-0.2-0.1-0.4-0.1-0.6-0.1
		c-0.2,0-0.4,0-0.6,0.1c-0.2,0.1-0.3,0.2-0.5,0.4c-0.1,0.2-0.2,0.4-0.3,0.6s-0.1,0.5-0.1,0.8c0,0.6,0.1,1.1,0.4,1.5
		C168.2,36.4,168.5,36.5,169,36.5z M175.3,40.1l-0.4-0.8c1-0.4,1.5-1,1.5-1.8c0,0-0.1,0-0.2,0c-0.3,0-0.6-0.1-0.8-0.3
		s-0.3-0.5-0.3-0.8s0.1-0.6,0.3-0.8s0.5-0.3,0.8-0.3c0.4,0,0.8,0.2,1,0.5s0.3,0.8,0.3,1.3c0,0.7-0.2,1.4-0.6,1.9
		C176.6,39.5,176.1,39.8,175.3,40.1z M188.5,37.5v-7.8h5v1.2h-3.6v2.2h3.1v1.2h-3.1v3.3h-1.4V37.5z M198.2,37.7
		c-0.4,0-0.9-0.1-1.3-0.2c-0.4-0.1-0.7-0.3-1-0.6s-0.5-0.6-0.7-1c-0.2-0.4-0.2-0.8-0.2-1.3s0.1-0.9,0.2-1.3c0.2-0.4,0.4-0.7,0.7-1
		s0.6-0.5,1-0.6s0.7-0.2,1.1-0.2c0.4,0,0.8,0.1,1.2,0.2c0.3,0.1,0.6,0.3,0.9,0.6c0.2,0.2,0.4,0.5,0.5,0.9c0.1,0.3,0.2,0.7,0.2,1.1
		c0,0.1,0,0.3,0,0.4c0,0.1,0,0.2,0,0.3h-4.4c0.1,0.6,0.3,1,0.7,1.2c0.4,0.3,0.8,0.4,1.4,0.4c0.3,0,0.6,0,0.9-0.1
		c0.3-0.1,0.5-0.2,0.8-0.4l0.5,0.9c-0.3,0.2-0.7,0.4-1.1,0.5S198.7,37.7,198.2,37.7z M198.1,32.5c-0.4,0-0.8,0.1-1.1,0.4
		c-0.3,0.2-0.5,0.6-0.6,1.1h3.1c-0.1-0.5-0.2-0.8-0.5-1.1C198.9,32.7,198.5,32.5,198.1,32.5z M202,37.5v-5.9h1.1l0.1,0.8l0,0
		c0.1-0.3,0.3-0.5,0.5-0.6c0.2-0.2,0.5-0.2,0.8-0.2c0.6,0,0.9,0.3,1.1,1c0.1-0.3,0.3-0.5,0.5-0.7s0.5-0.3,0.8-0.3
		c0.4,0,0.7,0.2,1,0.5c0.2,0.3,0.3,0.8,0.3,1.4v4.2h-1.3v-4.1c0-0.5-0.2-0.8-0.5-0.8c-0.2,0-0.3,0.1-0.4,0.2
		c-0.1,0.1-0.2,0.3-0.3,0.6v4.1h-1.2v-4.1c0-0.3,0-0.5-0.1-0.6c-0.1-0.1-0.2-0.2-0.4-0.2s-0.3,0.1-0.4,0.2c-0.1,0.1-0.2,0.3-0.3,0.6
		v4.1H202V37.5z M211.5,37.7c-0.3,0-0.5,0-0.8-0.1c-0.2-0.1-0.4-0.2-0.6-0.3c-0.2-0.2-0.3-0.3-0.4-0.5c-0.1-0.2-0.1-0.5-0.1-0.7
		c0-0.3,0.1-0.6,0.2-0.9c0.2-0.2,0.4-0.5,0.7-0.6c0.3-0.2,0.8-0.3,1.3-0.4c0.5-0.1,1.1-0.2,1.9-0.2c0-0.3-0.1-0.6-0.4-0.8
		c-0.3-0.2-0.6-0.3-1-0.3c-0.3,0-0.7,0.1-1,0.2c-0.3,0.1-0.6,0.3-1,0.4l-0.5-0.9c0.4-0.2,0.8-0.4,1.2-0.6c0.5-0.2,1-0.2,1.5-0.2
		c0.8,0,1.4,0.2,1.9,0.7c0.4,0.4,0.7,1.1,0.7,1.9v3.5H214l-0.1-0.7l0,0c-0.3,0.2-0.7,0.4-1,0.6C212.3,37.6,211.9,37.7,211.5,37.7z
		 M211.9,36.6c0.3,0,0.6-0.1,0.9-0.2c0.3-0.1,0.6-0.3,0.8-0.5v-1.2c-0.5,0-1,0.1-1.3,0.2c-0.3,0.1-0.6,0.1-0.8,0.2
		c-0.2,0.1-0.4,0.2-0.5,0.4c-0.1,0.1-0.1,0.3-0.1,0.4c0,0.3,0.1,0.5,0.3,0.6C211.4,36.5,211.6,36.6,211.9,36.6z M220.7,37.7
		c-0.7,0-1.2-0.2-1.6-0.6c-0.4-0.4-0.5-1-0.5-1.7v-5.2h-2v-1.1h3.3v6.4c0,0.4,0.1,0.7,0.3,0.9s0.5,0.2,0.8,0.2s0.7-0.1,1-0.2l0.3,1
		c-0.3,0.1-0.6,0.2-0.8,0.2C221.3,37.6,221,37.7,220.7,37.7z M227,37.7c-0.4,0-0.9-0.1-1.3-0.2c-0.4-0.1-0.7-0.3-1-0.6
		s-0.5-0.6-0.7-1c-0.2-0.4-0.2-0.8-0.2-1.3s0.1-0.9,0.2-1.3c0.2-0.4,0.4-0.7,0.7-1s0.6-0.5,1-0.6s0.7-0.2,1.1-0.2
		c0.4,0,0.8,0.1,1.2,0.2c0.3,0.1,0.6,0.3,0.9,0.6c0.2,0.2,0.4,0.5,0.5,0.9c0.1,0.3,0.2,0.7,0.2,1.1c0,0.1,0,0.3,0,0.4
		c0,0.1,0,0.2,0,0.3h-4.3c0.1,0.6,0.3,1,0.7,1.2c0.4,0.3,0.8,0.4,1.4,0.4c0.3,0,0.6,0,0.9-0.1c0.3-0.1,0.5-0.2,0.8-0.4l0.5,0.9
		c-0.3,0.2-0.7,0.4-1.1,0.5C227.9,37.6,227.5,37.7,227,37.7z M226.9,32.5c-0.4,0-0.8,0.1-1.1,0.4c-0.3,0.2-0.5,0.6-0.6,1.1h3.1
		c-0.1-0.5-0.2-0.8-0.5-1.1C227.7,32.7,227.3,32.5,226.9,32.5z"/>
	<path d="M89.9,66.7c-0.6,0-1.1-0.1-1.6-0.3c-0.5-0.2-0.9-0.5-1.3-0.9l0.8-0.9c0.3,0.3,0.6,0.5,1,0.6c0.4,0.2,0.8,0.2,1.2,0.2
		c0.5,0,0.8-0.1,1-0.3c0.2-0.2,0.4-0.4,0.4-0.7c0-0.2,0-0.3-0.1-0.4c-0.1-0.1-0.2-0.2-0.3-0.3s-0.3-0.2-0.4-0.2
		c-0.2-0.1-0.3-0.2-0.5-0.2L89,62.8c-0.2-0.1-0.4-0.2-0.6-0.3c-0.2-0.1-0.4-0.3-0.5-0.4c-0.2-0.2-0.3-0.4-0.4-0.6
		c-0.1-0.2-0.1-0.5-0.1-0.8s0.1-0.6,0.2-0.9c0.1-0.3,0.3-0.5,0.6-0.7c0.2-0.2,0.5-0.3,0.9-0.5c0.3-0.1,0.7-0.2,1.1-0.2
		c0.5,0,0.9,0.1,1.4,0.3c0.4,0.2,0.8,0.4,1.1,0.7L92,60.3c-0.3-0.2-0.5-0.4-0.8-0.5c-0.3-0.1-0.6-0.2-1-0.2s-0.7,0.1-0.9,0.2
		C89.1,60,89,60.2,89,60.5c0,0.2,0,0.3,0.1,0.4c0.1,0.1,0.2,0.2,0.3,0.3s0.3,0.2,0.4,0.2c0.1,0,0.3,0.1,0.5,0.2l1,0.4
		c0.2,0.1,0.5,0.2,0.7,0.3c0.2,0.1,0.4,0.3,0.5,0.4c0.2,0.2,0.3,0.4,0.4,0.6c0.1,0.2,0.1,0.5,0.1,0.8c0,0.3-0.1,0.6-0.2,0.9
		c-0.1,0.3-0.3,0.5-0.6,0.7c-0.2,0.2-0.5,0.4-0.9,0.5C90.8,66.6,90.4,66.7,89.9,66.7z M96.3,66.7c-0.3,0-0.5,0-0.8-0.1
		c-0.2-0.1-0.4-0.2-0.6-0.3c-0.2-0.2-0.3-0.3-0.4-0.5c-0.1-0.2-0.1-0.5-0.1-0.7c0-0.3,0.1-0.6,0.2-0.9c0.2-0.2,0.4-0.5,0.7-0.6
		c0.3-0.2,0.8-0.3,1.3-0.4c0.5-0.1,1.1-0.2,1.9-0.2c0-0.3-0.1-0.6-0.4-0.8s-0.6-0.3-1-0.3c-0.3,0-0.7,0.1-1,0.2
		c-0.3,0.1-0.6,0.3-1,0.4l-0.5-1.2c0.4-0.2,0.8-0.4,1.2-0.6c0.5-0.2,1-0.2,1.5-0.2c0.8,0,1.4,0.2,1.9,0.7c0.4,0.4,0.7,1.1,0.7,1.9
		v3.5h-1.1l-0.1-0.7l0,0c-0.3,0.2-0.7,0.4-1,0.6C97.1,66.6,96.7,66.7,96.3,66.7z M96.7,65.6c0.3,0,0.6-0.1,0.9-0.2
		c0.3-0.1,0.6-0.3,0.8-0.5v-1.2c-0.5,0-1,0.1-1.3,0.2c-0.3,0.1-0.6,0.1-0.8,0.2c-0.2,0.1-0.4,0.2-0.5,0.4c-0.1,0.1-0.1,0.3-0.1,0.4
		c0,0.3,0.1,0.5,0.3,0.6C96.2,65.5,96.4,65.6,96.7,65.6z M101.7,66.5v-5.9h1.1l0.1,0.9l0,0c0.3-0.3,0.6-0.5,0.9-0.7s0.7-0.3,1.2-0.3
		c0.7,0,1.2,0.2,1.5,0.6c0.3,0.4,0.5,1,0.5,1.8v3.6h-1.4V63c0-0.5-0.1-0.8-0.2-1c-0.2-0.2-0.4-0.3-0.8-0.3c-0.3,0-0.6,0.1-0.8,0.2
		c-0.2,0.1-0.5,0.3-0.7,0.6v4C103.1,66.5,101.7,66.5,101.7,66.5z M116.5,66.5v-7.8h5v1.2h-3.6v2.2h3.1v1.2h-3.1v3.3L116.5,66.5
		L116.5,66.5z M123.8,66.5v-5.9h1.1l0.1,1.3l0,0c0.3-0.5,0.7-0.8,1.1-1.1c0.4-0.2,0.9-0.4,1.4-0.4c0.2,0,0.4,0,0.6,0.1
		c0.2,0,0.4,0.1,0.5,0.2l-0.3,1.2c-0.2-0.1-0.4-0.1-0.5-0.1s-0.3,0-0.6,0c-0.4,0-0.8,0.1-1.2,0.4c-0.4,0.2-0.7,0.6-1,1.2v3.2
		L123.8,66.5L123.8,66.5z M132.3,66.7c-0.3,0-0.5,0-0.8-0.1c-0.2-0.1-0.4-0.2-0.6-0.3c-0.2-0.2-0.3-0.3-0.4-0.5
		c-0.1-0.2-0.1-0.5-0.1-0.7c0-0.3,0.1-0.6,0.2-0.9c0.2-0.2,0.4-0.5,0.7-0.6c0.3-0.2,0.8-0.3,1.3-0.4c0.5-0.1,1.1-0.2,1.9-0.2
		c0-0.3-0.1-0.6-0.4-0.8s-0.6-0.3-1-0.3c-0.3,0-0.7,0.1-1,0.2c-0.3,0.1-0.6,0.3-1,0.4l-0.5-1.2c0.4-0.2,0.8-0.4,1.2-0.6
		c0.5-0.2,1-0.2,1.5-0.2c0.8,0,1.4,0.2,1.9,0.7c0.4,0.4,0.7,1.1,0.7,1.9v3.5h-1.1l-0.1-0.7l0,0c-0.3,0.2-0.7,0.4-1,0.6
		C133.1,66.6,132.7,66.7,132.3,66.7z M132.7,65.6c0.3,0,0.6-0.1,0.9-0.2c0.3-0.1,0.6-0.3,0.8-0.5v-1.2c-0.5,0-1,0.1-1.3,0.2
		c-0.3,0.1-0.6,0.1-0.8,0.2c-0.2,0.1-0.4,0.2-0.5,0.4c-0.1,0.1-0.1,0.3-0.1,0.4c0,0.3,0.1,0.5,0.3,0.6
		C132.2,65.5,132.4,65.6,132.7,65.6z M137.7,66.5v-5.9h1.1l0.1,0.9l0,0c0.3-0.3,0.6-0.5,0.9-0.7s0.7-0.3,1.2-0.3
		c0.7,0,1.2,0.2,1.5,0.6c0.3,0.4,0.5,1,0.5,1.8v3.6h-1.4V63c0-0.5-0.1-0.8-0.2-1c-0.2-0.2-0.4-0.3-0.8-0.3c-0.3,0-0.6,0.1-0.8,0.2
		c-0.2,0.1-0.5,0.3-0.7,0.6v4C139.1,66.5,137.7,66.5,137.7,66.5z M148,66.7c-0.5,0-0.9-0.1-1.3-0.2c-0.4-0.1-0.7-0.3-1-0.6
		c-0.3-0.3-0.5-0.6-0.7-1s-0.2-0.8-0.2-1.3s0.1-0.9,0.3-1.3c0.2-0.4,0.4-0.7,0.7-1c0.3-0.3,0.7-0.5,1.1-0.6c0.4-0.1,0.8-0.2,1.3-0.2
		s0.9,0.1,1.3,0.2c0.4,0.1,0.7,0.4,0.9,0.6l-0.7,0.9c-0.2-0.2-0.5-0.3-0.7-0.4s-0.5-0.1-0.8-0.1c-0.6,0-1.1,0.2-1.5,0.5
		c-0.4,0.4-0.5,0.8-0.5,1.4c0,0.3,0,0.6,0.1,0.8c0.1,0.2,0.2,0.4,0.4,0.6c0.2,0.2,0.4,0.3,0.6,0.4c0.2,0.1,0.5,0.1,0.8,0.1
		s0.6-0.1,0.9-0.2s0.5-0.3,0.8-0.5l0.6,0.9c-0.3,0.3-0.7,0.5-1.1,0.7S148.4,66.7,148,66.7z M154.6,66.5v-4.8h-2.5v-1.1h3.9v5.9
		C156,66.5,154.6,66.5,154.6,66.5z M155.7,59.5c-0.3,0-0.5-0.1-0.7-0.2c-0.2-0.2-0.3-0.4-0.3-0.7s0.1-0.5,0.3-0.7
		c0.2-0.2,0.4-0.3,0.7-0.3s0.5,0.1,0.7,0.3s0.3,0.4,0.3,0.7s-0.1,0.5-0.3,0.7S156,59.5,155.7,59.5z M161.9,66.7
		c-0.6,0-1.1-0.1-1.6-0.3c-0.5-0.2-0.9-0.4-1.3-0.6l0.6-0.9c0.4,0.2,0.7,0.4,1.1,0.5c0.4,0.1,0.8,0.2,1.3,0.2c0.4,0,0.7-0.1,0.9-0.2
		c0.2-0.1,0.3-0.3,0.3-0.5c0-0.1,0-0.2-0.1-0.2c0-0.1-0.1-0.2-0.2-0.2c-0.1-0.1-0.3-0.1-0.5-0.2c-0.2-0.1-0.5-0.1-0.8-0.2
		c-0.8-0.2-1.4-0.4-1.7-0.7c-0.4-0.3-0.5-0.7-0.5-1.1c0-0.5,0.2-0.9,0.7-1.3c0.4-0.3,1.1-0.5,1.9-0.5c0.5,0,0.9,0.1,1.4,0.2
		c0.4,0.2,0.8,0.3,1.1,0.5l-0.6,0.8c-0.3-0.2-0.6-0.3-0.9-0.4c-0.3-0.1-0.7-0.2-1-0.2c-0.4,0-0.7,0.1-0.8,0.2
		c-0.2,0.1-0.2,0.3-0.2,0.5s0.1,0.4,0.4,0.5c0.2,0.1,0.6,0.2,1.2,0.3c0.5,0.1,0.9,0.2,1.2,0.3c0.3,0.1,0.5,0.2,0.7,0.4
		c0.2,0.1,0.3,0.3,0.4,0.5c0.1,0.2,0.1,0.4,0.1,0.6c0,0.3-0.1,0.5-0.2,0.7c-0.1,0.2-0.3,0.4-0.5,0.6c-0.2,0.2-0.5,0.3-0.9,0.4
		C163,66.5,162.4,66.7,161.9,66.7z M169.6,66.7c-0.5,0-0.9-0.1-1.3-0.2s-0.7-0.3-1-0.6c-0.3-0.3-0.5-0.6-0.7-1s-0.3-0.8-0.2-1.3
		c0-0.5,0.1-0.9,0.3-1.3c0.2-0.4,0.4-0.7,0.7-1s0.7-0.5,1.1-0.6c0.4-0.1,0.8-0.2,1.3-0.2s0.9,0.1,1.3,0.2c0.4,0.2,0.7,0.4,0.9,0.6
		l-0.7,0.9c-0.2-0.2-0.5-0.3-0.7-0.4c-0.2-0.1-0.5-0.1-0.8-0.1c-0.6,0-1.1,0.2-1.5,0.5c-0.4,0.4-0.5,0.8-0.5,1.4
		c0,0.3,0,0.6,0.1,0.8c0.1,0.2,0.2,0.4,0.4,0.6c0.2,0.2,0.4,0.3,0.6,0.4c0.2,0.1,0.5,0.1,0.8,0.1s0.6-0.1,0.9-0.2
		c0.3-0.1,0.5-0.3,0.8-0.5l0.6,0.9c-0.3,0.3-0.7,0.5-1.1,0.7S170,66.7,169.6,66.7z M176.3,66.7c-0.4,0-0.7-0.1-1.1-0.2
		c-0.4-0.1-0.7-0.3-1-0.6c-0.3-0.3-0.5-0.6-0.7-1s-0.2-0.8-0.2-1.3s0.1-0.9,0.2-1.3c0.2-0.4,0.4-0.7,0.7-1s0.6-0.5,1-0.6
		s0.7-0.2,1.1-0.2c0.4,0,0.8,0.1,1.1,0.2c0.4,0.1,0.7,0.3,1,0.6s0.5,0.6,0.7,1s0.3,0.8,0.2,1.3c0,0.5-0.1,0.9-0.2,1.3
		c-0.2,0.4-0.4,0.7-0.7,1c-0.3,0.3-0.6,0.5-1,0.6S176.7,66.7,176.3,66.7z M176.3,65.5c0.5,0,0.9-0.2,1.1-0.5
		c0.3-0.4,0.4-0.8,0.4-1.4c0-0.6-0.1-1.1-0.4-1.4c-0.3-0.4-0.6-0.5-1.1-0.5s-0.9,0.2-1.1,0.5c-0.3,0.4-0.4,0.8-0.4,1.4
		s0.1,1.1,0.4,1.4C175.4,65.4,175.8,65.5,176.3,65.5z M182.5,69.1l-0.4-0.8c1-0.4,1.5-1,1.5-1.8c0,0-0.1,0-0.2,0
		c-0.3,0-0.6-0.1-0.8-0.3c-0.2-0.2-0.3-0.5-0.3-0.8c0-0.3,0.1-0.6,0.3-0.8c0.2-0.2,0.5-0.3,0.8-0.3c0.4,0,0.8,0.2,1,0.5
		c0.2,0.3,0.3,0.8,0.3,1.3c0,0.7-0.2,1.4-0.6,1.9C183.8,68.5,183.3,68.8,182.5,69.1z M198.5,66.7c-0.5,0-0.9-0.1-1.4-0.3
		c-0.4-0.2-0.8-0.4-1.1-0.8c-0.3-0.4-0.6-0.8-0.8-1.3c-0.2-0.5-0.3-1.1-0.3-1.7c0-0.6,0.1-1.2,0.3-1.7s0.4-0.9,0.8-1.3
		c0.3-0.4,0.7-0.6,1.2-0.8c0.4-0.2,0.9-0.3,1.4-0.3s0.9,0.1,1.3,0.3c0.4,0.2,0.7,0.4,1,0.7l-0.8,0.9c-0.2-0.2-0.4-0.4-0.7-0.5
		c-0.2-0.1-0.5-0.2-0.8-0.2s-0.6,0.1-0.9,0.2c-0.3,0.1-0.5,0.3-0.7,0.6c-0.2,0.2-0.3,0.5-0.5,0.9c-0.1,0.4-0.2,0.8-0.2,1.2
		s0.1,0.8,0.2,1.2c0.1,0.4,0.3,0.7,0.5,0.9c0.2,0.2,0.4,0.4,0.7,0.6c0.3,0.1,0.6,0.2,0.9,0.2c0.3,0,0.6-0.1,0.9-0.2
		c0.3-0.1,0.5-0.3,0.7-0.6l0.8,0.8c-0.3,0.4-0.7,0.7-1.1,0.9C199.5,66.6,199.1,66.7,198.5,66.7z M204.3,62.3l-0.3,1h2l-0.3-1
		c-0.1-0.4-0.2-0.8-0.4-1.3c-0.1-0.4-0.2-0.9-0.3-1.3l0,0c-0.1,0.4-0.2,0.9-0.3,1.3C204.6,61.5,204.5,61.9,204.3,62.3z M201.7,66.5
		l2.5-7.8h1.6l2.5,7.8h-1.5l-0.6-2.1h-2.6l-0.6,2.1H201.7z"/>
	<path d="M87.2,95.5v-7.8h2.1c1.2,0,2.1,0.3,2.7,1c0.6,0.7,1,1.6,1,2.9c0,0.6-0.1,1.2-0.3,1.7c-0.2,0.5-0.4,0.9-0.7,1.2
		c-0.3,0.3-0.7,0.6-1.1,0.8c-0.4,0.2-0.9,0.2-1.5,0.2C89.4,95.5,87.2,95.5,87.2,95.5z M88.6,94.4h0.6c0.8,0,1.3-0.2,1.7-0.7
		s0.6-1.2,0.6-2.1c0-1-0.2-1.7-0.6-2.1c-0.4-0.4-1-0.7-1.7-0.7h-0.6V94.4z M97.4,95.7c-0.4,0-0.9-0.1-1.3-0.2s-0.7-0.3-1-0.6
		c-0.3-0.3-0.5-0.6-0.7-1c-0.2-0.4-0.2-0.8-0.2-1.3s0.1-0.9,0.2-1.3c0.2-0.4,0.4-0.7,0.7-1c0.3-0.3,0.6-0.5,1-0.6s0.7-0.2,1.1-0.2
		c0.4,0,0.8,0.1,1.2,0.2c0.3,0.1,0.6,0.3,0.9,0.6c0.2,0.2,0.4,0.5,0.5,0.9c0.1,0.3,0.2,0.7,0.2,1.1c0,0.1,0,0.3,0,0.4s0,0.2,0,0.3
		h-4.3c0.1,0.6,0.3,1,0.7,1.2c0.4,0.3,0.8,0.4,1.4,0.4c0.3,0,0.6,0,0.9-0.1s0.5-0.2,0.8-0.4L100,95c-0.3,0.2-0.7,0.4-1.1,0.5
		C98.3,95.6,97.9,95.7,97.4,95.7z M97.3,90.5c-0.4,0-0.8,0.1-1.1,0.4c-0.3,0.2-0.5,0.6-0.6,1.1h3.1c-0.1-0.5-0.2-0.8-0.5-1.1
		C97.9,90.6,97.7,90.5,97.3,90.5z M104.3,95.7c-0.6,0-1.1-0.1-1.6-0.3c-0.5-0.2-0.9-0.4-1.3-0.6l0.6-0.9c0.4,0.2,0.7,0.4,1.1,0.5
		c0.4,0.1,0.8,0.2,1.3,0.2c0.4,0,0.7-0.1,0.9-0.2c0.2-0.1,0.3-0.3,0.3-0.5c0-0.1,0-0.2-0.1-0.2c0-0.1-0.1-0.2-0.2-0.2
		c-0.1-0.1-0.3-0.1-0.5-0.2s-0.5-0.1-0.8-0.2c-0.8-0.2-1.4-0.4-1.7-0.7c-0.4-0.3-0.5-0.7-0.5-1.1c0-0.5,0.2-0.9,0.7-1.3
		c0.4-0.3,1.1-0.5,1.9-0.5c0.5,0,0.9,0.1,1.4,0.2c0.4,0.2,0.8,0.3,1.1,0.5l-0.6,0.8c-0.3-0.2-0.6-0.3-0.9-0.4s-0.7-0.2-1-0.2
		c-0.4,0-0.7,0.1-0.8,0.2c-0.2,0.1-0.2,0.3-0.2,0.5s0.1,0.4,0.4,0.5c0.2,0.1,0.6,0.2,1.2,0.3c0.5,0.1,0.9,0.2,1.2,0.3
		c0.3,0.1,0.5,0.2,0.7,0.4c0.2,0.1,0.3,0.3,0.4,0.5s0.1,0.4,0.1,0.6c0,0.3-0.1,0.5-0.2,0.7s-0.3,0.4-0.5,0.6s-0.5,0.3-0.9,0.4
		S104.8,95.7,104.3,95.7z M111.4,95.5v-4.8h-2.5v-1.1h3.9v5.9H111.4z M112.5,88.5c-0.3,0-0.5-0.1-0.7-0.2c-0.2-0.2-0.3-0.4-0.3-0.7
		c0-0.3,0.1-0.5,0.3-0.7c0.2-0.2,0.4-0.3,0.7-0.3c0.3,0,0.5,0.1,0.7,0.3c0.2,0.2,0.3,0.4,0.3,0.7c0,0.3-0.1,0.5-0.3,0.7
		C113,88.5,112.8,88.5,112.5,88.5z M118.5,98.1c-0.4,0-0.8,0-1.1-0.1c-0.3-0.1-0.6-0.2-0.8-0.3c-0.2-0.1-0.4-0.3-0.5-0.5
		s-0.2-0.4-0.2-0.7c0-0.5,0.3-0.9,0.9-1.2l0,0c-0.2-0.1-0.3-0.2-0.4-0.4c-0.1-0.2-0.2-0.4-0.2-0.6s0.1-0.4,0.2-0.6s0.3-0.4,0.5-0.5
		l0,0c-0.2-0.1-0.4-0.3-0.5-0.6c-0.1-0.3-0.2-0.6-0.2-0.9s0.1-0.6,0.2-0.9s0.3-0.5,0.5-0.7s0.5-0.3,0.8-0.4s0.6-0.1,0.9-0.1
		s0.6,0,0.9,0.1h2.4v1h-1.4c0.1,0.1,0.2,0.3,0.3,0.4c0.1,0.2,0.1,0.3,0.1,0.5c0,0.3-0.1,0.6-0.2,0.9c-0.1,0.2-0.3,0.5-0.5,0.6
		c-0.2,0.2-0.5,0.3-0.8,0.4s-0.6,0.1-0.9,0.1s-0.6-0.1-0.9-0.2c-0.2,0.1-0.4,0.3-0.4,0.6c0,0.4,0.4,0.5,1.1,0.5h1.2
		c0.8,0,1.3,0.1,1.7,0.3c0.4,0.2,0.6,0.6,0.6,1.1c0,0.3-0.1,0.6-0.2,0.8c-0.2,0.3-0.4,0.5-0.7,0.7c-0.3,0.2-0.6,0.3-1.1,0.4
		C119.5,98.1,119,98.1,118.5,98.1z M118.5,92.8c0.3,0,0.6-0.1,0.8-0.3c0.2-0.2,0.3-0.5,0.3-0.9s-0.1-0.7-0.3-0.9
		c-0.2-0.2-0.5-0.3-0.8-0.3s-0.6,0.1-0.8,0.3c-0.2,0.2-0.3,0.5-0.3,0.9s0.1,0.7,0.3,0.9C118,92.7,118.2,92.8,118.5,92.8z
		 M118.7,97.2c0.3,0,0.6,0,0.8-0.1c0.2-0.1,0.4-0.1,0.6-0.2s0.3-0.2,0.4-0.3c0.1-0.1,0.1-0.2,0.1-0.3c0-0.2-0.1-0.4-0.3-0.5
		c-0.2-0.1-0.5-0.1-0.9-0.1h-0.9c-0.4,0-0.7,0-0.9-0.1c-0.2,0.1-0.4,0.2-0.5,0.4c-0.1,0.1-0.1,0.3-0.1,0.4c0,0.3,0.1,0.5,0.4,0.6
		S118.1,97.2,118.7,97.2z M123.3,95.5v-5.9h1.1l0.1,0.9l0,0c0.3-0.3,0.6-0.5,0.9-0.7s0.7-0.3,1.2-0.3c0.7,0,1.2,0.2,1.5,0.6
		s0.5,1,0.5,1.8v3.6h-1.4V92c0-0.5-0.1-0.8-0.2-1c-0.2-0.2-0.4-0.3-0.8-0.3c-0.3,0-0.6,0.1-0.8,0.2c-0.2,0.1-0.5,0.3-0.7,0.6v4
		C124.7,95.5,123.3,95.5,123.3,95.5z M133.4,95.7c-0.4,0-0.9-0.1-1.3-0.2c-0.4-0.1-0.7-0.3-1-0.6c-0.3-0.3-0.5-0.6-0.7-1
		s-0.2-0.8-0.2-1.3s0.1-0.9,0.2-1.3c0.2-0.4,0.4-0.7,0.7-1s0.6-0.5,1-0.6c0.4-0.1,0.7-0.2,1.1-0.2c0.4,0,0.8,0.1,1.2,0.2
		c0.3,0.1,0.6,0.3,0.9,0.6c0.2,0.2,0.4,0.5,0.5,0.9c0.1,0.3,0.2,0.7,0.2,1.1c0,0.1,0,0.3,0,0.4s0,0.2,0,0.3h-4.3
		c0.1,0.6,0.3,1,0.7,1.2c0.4,0.3,0.8,0.4,1.4,0.4c0.3,0,0.6,0,0.9-0.1s0.5-0.2,0.8-0.4L136,95c-0.3,0.2-0.7,0.4-1.1,0.5
		C134.3,95.6,133.9,95.7,133.4,95.7z M133.3,90.5c-0.4,0-0.8,0.1-1.1,0.4c-0.3,0.2-0.5,0.6-0.6,1.1h3.1c-0.1-0.5-0.2-0.8-0.5-1.1
		S133.7,90.5,133.3,90.5z M138.2,95.5v-5.9h1.2l0.1,1.3l0,0c0.3-0.5,0.7-0.8,1.1-1.1c0.4-0.3,0.9-0.4,1.4-0.4c0.2,0,0.4,0,0.6,0.1
		c0.2,0,0.4,0.1,0.5,0.2l-0.3,1.2c-0.2-0.1-0.4-0.1-0.5-0.1c-0.1,0-0.3,0-0.6,0c-0.4,0-0.8,0.1-1.2,0.4c-0.4,0.2-0.7,0.6-1,1.2v3.2
		L138.2,95.5L138.2,95.5z"/>
	<path d="M90.4,124.7c-0.5,0-1-0.1-1.4-0.3c-0.4-0.2-0.8-0.4-1.1-0.8c-0.3-0.4-0.6-0.8-0.7-1.3c-0.1-0.5-0.3-1.1-0.3-1.7
		s0.1-1.2,0.3-1.7c0.2-0.5,0.4-0.9,0.7-1.3c0.3-0.4,0.7-0.6,1.1-0.8c0.4-0.2,0.9-0.3,1.4-0.3s1,0.1,1.3,0.3c0.4,0.2,0.7,0.4,0.9,0.7
		l-0.8,0.9c-0.2-0.2-0.4-0.3-0.6-0.5c-0.2-0.1-0.5-0.2-0.8-0.2c-0.3,0-0.6,0.1-0.9,0.2c-0.3,0.1-0.5,0.3-0.7,0.6
		c-0.2,0.2-0.3,0.5-0.4,0.9c-0.1,0.4-0.2,0.8-0.2,1.2c0,0.9,0.2,1.6,0.5,2.1c0.3,0.5,0.9,0.8,1.6,0.8c0.2,0,0.4,0,0.6-0.1
		c0.2-0.1,0.4-0.2,0.5-0.3v-1.7H90v-1.1h2.6v3.5c-0.3,0.3-0.6,0.5-1,0.7C91.3,124.6,90.9,124.7,90.4,124.7z M95,124.5v-5.9h1.1
		l0.1,1.3l0,0c0.3-0.5,0.7-0.8,1.1-1.1c0.4-0.2,0.9-0.4,1.4-0.4c0.2,0,0.4,0,0.6,0.1c0.2,0,0.4,0.1,0.5,0.2l-0.3,1.2
		c-0.2-0.1-0.4-0.1-0.5-0.1s-0.3,0-0.6,0c-0.4,0-0.8,0.1-1.2,0.4c-0.4,0.2-0.7,0.6-1,1.2v3.2L95,124.5L95,124.5z M103.5,124.7
		c-0.3,0-0.5,0-0.8-0.1c-0.2-0.1-0.4-0.2-0.6-0.3c-0.2-0.2-0.3-0.3-0.4-0.5c-0.1-0.2-0.1-0.5-0.1-0.7c0-0.3,0.1-0.6,0.2-0.9
		c0.2-0.2,0.4-0.5,0.7-0.6c0.3-0.2,0.8-0.3,1.3-0.4s1.1-0.2,1.9-0.2c0-0.3-0.1-0.6-0.4-0.8s-0.6-0.3-1-0.3c-0.3,0-0.7,0.1-1,0.2
		c-0.3,0.1-0.6,0.3-1,0.4l-0.5-0.9c0.4-0.2,0.8-0.4,1.2-0.6c0.5-0.2,1-0.2,1.5-0.2c0.8,0,1.4,0.2,1.9,0.7c0.4,0.4,0.7,1.1,0.7,1.9
		v3.5H106l-0.1-0.7l0,0c-0.3,0.2-0.7,0.4-1,0.6C104.3,124.6,103.9,124.7,103.5,124.7z M103.9,123.6c0.3,0,0.6-0.1,0.9-0.2
		s0.6-0.3,0.8-0.5v-1.2c-0.5,0-1,0.1-1.3,0.2c-0.3,0.1-0.6,0.1-0.8,0.2c-0.2,0.1-0.4,0.2-0.5,0.4c-0.1,0.1-0.1,0.3-0.1,0.4
		c0,0.3,0.1,0.5,0.3,0.6C103.4,123.5,103.6,123.6,103.9,123.6z M108.9,126.8v-8.2h1.1l0.1,0.7l0,0c0.3-0.2,0.6-0.4,0.9-0.6
		s0.7-0.2,1-0.2c0.4,0,0.7,0.1,1,0.2s0.6,0.3,0.8,0.6c0.2,0.3,0.4,0.6,0.5,1s0.2,0.8,0.2,1.2c0,0.5-0.1,0.9-0.2,1.3s-0.3,0.7-0.6,1
		c-0.2,0.3-0.5,0.5-0.8,0.6s-0.6,0.2-1,0.2c-0.3,0-0.6-0.1-0.8-0.2c-0.3-0.1-0.5-0.3-0.8-0.5l0,0l0.1,1v1.8L108.9,126.8L108.9,126.8
		z M111.5,123.5c0.4,0,0.8-0.2,1.1-0.5c0.3-0.3,0.4-0.9,0.4-1.5s-0.1-1-0.3-1.4c-0.2-0.3-0.6-0.5-1-0.5c-0.2,0-0.4,0.1-0.7,0.2
		c-0.2,0.1-0.5,0.3-0.7,0.5v2.7c0.2,0.2,0.4,0.3,0.7,0.4C111.2,123.5,111.4,123.5,111.5,123.5z M116.1,124.5V116h1.4v2.2l-0.1,1.2
		l0,0c0.3-0.3,0.6-0.5,0.9-0.7s0.7-0.3,1.2-0.3c0.7,0,1.2,0.2,1.5,0.6s0.5,1,0.5,1.8v3.6h-1.4v-3.5c0-0.5-0.1-0.8-0.2-1
		c-0.2-0.2-0.4-0.3-0.8-0.3c-0.3,0-0.6,0.1-0.8,0.2c-0.2,0.1-0.5,0.3-0.7,0.6v4h-1.5V124.5z M125.8,124.5v-4.8h-2.5v-1.1h3.9v5.9
		H125.8z M126.9,117.5c-0.3,0-0.5-0.1-0.7-0.2c-0.2-0.2-0.3-0.4-0.3-0.7s0.1-0.5,0.3-0.7c0.2-0.2,0.4-0.3,0.7-0.3
		c0.3,0,0.5,0.1,0.7,0.3c0.2,0.2,0.3,0.4,0.3,0.7s-0.1,0.5-0.3,0.7S127.2,117.5,126.9,117.5z M133.6,124.7c-0.5,0-0.9-0.1-1.3-0.2
		c-0.4-0.1-0.7-0.3-1-0.6c-0.3-0.3-0.5-0.6-0.7-1s-0.2-0.8-0.2-1.3s0.1-0.9,0.3-1.3c0.2-0.4,0.4-0.7,0.7-1s0.7-0.5,1.1-0.6
		c0.4-0.1,0.8-0.2,1.3-0.2s0.9,0.1,1.3,0.2c0.4,0.2,0.7,0.4,0.9,0.6l-0.7,0.9c-0.2-0.2-0.5-0.3-0.7-0.4s-0.5-0.1-0.8-0.1
		c-0.6,0-1.1,0.2-1.5,0.5c-0.4,0.4-0.5,0.8-0.5,1.4c0,0.3,0,0.6,0.1,0.8c0.1,0.2,0.2,0.4,0.4,0.6c0.2,0.2,0.4,0.3,0.6,0.4
		s0.5,0.1,0.8,0.1s0.6-0.1,0.9-0.2s0.5-0.3,0.8-0.5l0.6,0.9c-0.3,0.3-0.7,0.5-1.1,0.7C134.5,124.6,134,124.7,133.6,124.7z
		 M144.8,124.5v-7.8h2.1c1.2,0,2.1,0.3,2.7,1c0.6,0.7,1,1.6,1,2.9c0,0.6-0.1,1.2-0.3,1.7s-0.4,0.9-0.7,1.2c-0.3,0.3-0.7,0.6-1.1,0.8
		c-0.4,0.2-0.9,0.2-1.5,0.2C147,124.5,144.8,124.5,144.8,124.5z M146.2,123.4h0.6c0.8,0,1.3-0.2,1.7-0.7c0.4-0.5,0.6-1.2,0.6-2.1
		c0-1-0.2-1.7-0.6-2.1c-0.4-0.4-1-0.7-1.7-0.7h-0.6V123.4z M155,124.7c-0.4,0-0.9-0.1-1.3-0.2c-0.4-0.1-0.7-0.3-1-0.6
		c-0.3-0.3-0.5-0.6-0.7-1s-0.2-0.8-0.2-1.3s0.1-0.9,0.2-1.3c0.2-0.4,0.4-0.7,0.7-1c0.3-0.3,0.6-0.5,1-0.6c0.4-0.1,0.7-0.2,1.1-0.2
		c0.4,0,0.8,0.1,1.2,0.2c0.3,0.1,0.6,0.3,0.9,0.6c0.2,0.2,0.4,0.5,0.5,0.9c0.1,0.3,0.2,0.7,0.2,1.1c0,0.1,0,0.3,0,0.4s0,0.2,0,0.3
		h-4.3c0.1,0.6,0.3,1,0.7,1.2c0.4,0.3,0.8,0.4,1.4,0.4c0.3,0,0.6,0,0.9-0.1s0.5-0.2,0.8-0.4l0.5,0.9c-0.3,0.2-0.7,0.4-1.1,0.5
		C155.9,124.6,155.5,124.7,155,124.7z M154.9,119.5c-0.4,0-0.8,0.1-1.1,0.4c-0.3,0.2-0.5,0.6-0.6,1.1h3.1c-0.1-0.5-0.2-0.8-0.5-1.1
		C155.7,119.7,155.3,119.5,154.9,119.5z M161.9,124.7c-0.6,0-1.1-0.1-1.6-0.3c-0.5-0.2-0.9-0.4-1.3-0.6l0.6-0.9
		c0.4,0.2,0.7,0.4,1.1,0.5c0.4,0.1,0.8,0.2,1.3,0.2c0.4,0,0.7-0.1,0.9-0.2c0.2-0.1,0.3-0.3,0.3-0.5c0-0.1,0-0.2-0.1-0.2
		c0-0.1-0.1-0.2-0.2-0.2c-0.1-0.1-0.3-0.1-0.5-0.2s-0.5-0.1-0.8-0.2c-0.8-0.2-1.4-0.4-1.7-0.7c-0.4-0.3-0.5-0.7-0.5-1.1
		c0-0.5,0.2-0.9,0.7-1.3c0.4-0.3,1.1-0.5,1.9-0.5c0.5,0,0.9,0.1,1.4,0.2c0.4,0.2,0.8,0.3,1.1,0.5l-0.6,0.8c-0.3-0.2-0.6-0.3-0.9-0.4
		s-0.7-0.2-1-0.2c-0.4,0-0.7,0.1-0.8,0.2c-0.2,0.1-0.2,0.3-0.2,0.5s0.1,0.4,0.4,0.5c0.2,0.1,0.6,0.2,1.2,0.3
		c0.5,0.1,0.9,0.2,1.2,0.3c0.3,0.1,0.5,0.2,0.7,0.4c0.2,0.1,0.3,0.3,0.4,0.5c0.1,0.2,0.1,0.4,0.1,0.6c0,0.3-0.1,0.5-0.2,0.7
		c-0.1,0.2-0.3,0.4-0.5,0.6s-0.5,0.3-0.9,0.4C163,124.5,162.4,124.7,161.9,124.7z M169,124.5v-4.8h-2.5v-1.1h3.9v5.9H169z
		 M170.1,117.5c-0.3,0-0.5-0.1-0.7-0.2c-0.2-0.2-0.3-0.4-0.3-0.7c0-0.3,0.1-0.5,0.3-0.7s0.4-0.3,0.7-0.3s0.5,0.1,0.7,0.3
		c0.2,0.2,0.3,0.4,0.3,0.7c0,0.3-0.1,0.5-0.3,0.7S170.4,117.5,170.1,117.5z M176.1,127.1c-0.4,0-0.8,0-1.1-0.1s-0.6-0.2-0.8-0.3
		c-0.2-0.1-0.4-0.3-0.5-0.5s-0.2-0.4-0.2-0.7c0-0.5,0.3-0.9,0.9-1.2l0,0c-0.2-0.1-0.3-0.2-0.4-0.4c-0.1-0.2-0.2-0.4-0.2-0.6
		s0.1-0.4,0.2-0.6c0.1-0.2,0.3-0.4,0.5-0.5l0,0c-0.2-0.1-0.4-0.3-0.5-0.6c-0.1-0.3-0.2-0.6-0.2-0.9s0.1-0.6,0.2-0.9
		c0.1-0.3,0.3-0.5,0.5-0.7s0.5-0.3,0.8-0.4s0.6-0.1,0.9-0.1c0.3,0,0.6,0,0.9,0.1h2.4v1h-1.4c0.1,0.1,0.2,0.3,0.3,0.4
		c0.1,0.2,0.1,0.3,0.1,0.5c0,0.3-0.1,0.6-0.2,0.9c-0.1,0.2-0.3,0.5-0.5,0.6c-0.2,0.2-0.5,0.3-0.8,0.4s-0.6,0.1-0.9,0.1
		c-0.3,0-0.6-0.1-0.9-0.2c-0.2,0.1-0.4,0.3-0.4,0.6c0,0.4,0.4,0.5,1.1,0.5h1.2c0.8,0,1.3,0.1,1.7,0.3c0.4,0.2,0.6,0.6,0.6,1.1
		c0,0.3-0.1,0.6-0.2,0.8c-0.2,0.3-0.4,0.5-0.7,0.7s-0.6,0.3-1.1,0.4C177.1,127.1,176.6,127.1,176.1,127.1z M176.1,121.8
		c0.3,0,0.6-0.1,0.8-0.3c0.2-0.2,0.3-0.5,0.3-0.9s-0.1-0.7-0.3-0.9c-0.2-0.2-0.5-0.3-0.8-0.3s-0.6,0.1-0.8,0.3
		c-0.2,0.2-0.3,0.5-0.3,0.9s0.1,0.7,0.3,0.9C175.6,121.7,175.8,121.8,176.1,121.8z M176.3,126.2c0.3,0,0.6,0,0.8-0.1
		s0.4-0.1,0.6-0.2c0.2-0.1,0.3-0.2,0.4-0.3c0.1-0.1,0.1-0.2,0.1-0.3c0-0.2-0.1-0.4-0.3-0.5s-0.5-0.1-0.9-0.1h-0.9
		c-0.4,0-0.7,0-0.9-0.1c-0.2,0.1-0.4,0.2-0.5,0.4c-0.1,0.1-0.1,0.3-0.1,0.4c0,0.3,0.1,0.5,0.4,0.6S175.7,126.2,176.3,126.2z
		 M180.9,124.5v-5.9h1.1l0.1,0.9l0,0c0.3-0.3,0.6-0.5,0.9-0.7c0.3-0.2,0.7-0.3,1.2-0.3c0.7,0,1.2,0.2,1.5,0.6s0.5,1,0.5,1.8v3.6
		h-1.4V121c0-0.5-0.1-0.8-0.2-1c-0.2-0.2-0.4-0.3-0.8-0.3c-0.3,0-0.6,0.1-0.8,0.2s-0.5,0.3-0.7,0.6v4
		C182.3,124.5,180.9,124.5,180.9,124.5z M189.7,127.1l-0.3-0.8c1-0.4,1.5-1,1.5-1.8c0,0-0.1,0-0.2,0c-0.3,0-0.6-0.1-0.8-0.3
		c-0.2-0.2-0.3-0.5-0.3-0.8s0.1-0.6,0.3-0.8c0.2-0.2,0.5-0.3,0.8-0.3c0.4,0,0.8,0.2,1,0.5s0.3,0.8,0.3,1.3c0,0.7-0.2,1.4-0.6,1.9
		C191,126.5,190.5,126.8,189.7,127.1z M202.5,124.5v-7.8h2.4c0.4,0,0.8,0,1.1,0.1s0.6,0.2,0.9,0.3c0.2,0.1,0.4,0.3,0.6,0.6
		c0.1,0.2,0.2,0.6,0.2,0.9c0,0.4-0.1,0.7-0.3,1s-0.6,0.5-1,0.7v0.1c0.6,0.1,1,0.3,1.3,0.6s0.5,0.7,0.5,1.3c0,0.4-0.1,0.7-0.2,1
		c-0.1,0.3-0.4,0.5-0.6,0.7c-0.3,0.2-0.6,0.3-1,0.4s-0.8,0.1-1.2,0.1C205.2,124.5,202.5,124.5,202.5,124.5z M203.9,119.9h0.9
		c0.6,0,0.9-0.1,1.2-0.3c0.2-0.2,0.4-0.5,0.4-0.8c0-0.4-0.1-0.6-0.4-0.8c-0.2-0.2-0.6-0.2-1.1-0.2h-1L203.9,119.9L203.9,119.9z
		 M203.9,123.4h1.1c0.6,0,1-0.1,1.3-0.3s0.5-0.5,0.5-1c0-0.4-0.1-0.7-0.4-0.9s-0.7-0.3-1.3-0.3H204v2.5H203.9z M211.5,124.7
		c-0.3,0-0.5,0-0.8-0.1c-0.2-0.1-0.4-0.2-0.6-0.3c-0.2-0.2-0.3-0.3-0.4-0.5c-0.1-0.2-0.1-0.5-0.1-0.7c0-0.3,0.1-0.6,0.2-0.9
		c0.2-0.2,0.4-0.5,0.7-0.6c0.3-0.2,0.8-0.3,1.3-0.4s1.1-0.2,1.9-0.2c0-0.3-0.1-0.6-0.4-0.8s-0.6-0.3-1-0.3c-0.3,0-0.7,0.1-1,0.2
		s-0.6,0.3-1,0.4l-0.5-0.9c0.4-0.2,0.8-0.4,1.2-0.6c0.5-0.2,1-0.2,1.5-0.2c0.8,0,1.4,0.2,1.9,0.7c0.4,0.4,0.7,1.1,0.7,1.9v3.5H214
		l-0.1-0.7l0,0c-0.3,0.2-0.7,0.4-1,0.6C212.3,124.6,211.9,124.7,211.5,124.7z M211.9,123.6c0.3,0,0.6-0.1,0.9-0.2
		c0.3-0.1,0.6-0.3,0.8-0.5v-1.2c-0.5,0-1,0.1-1.3,0.2s-0.6,0.1-0.8,0.2s-0.4,0.2-0.5,0.4c-0.1,0.1-0.1,0.3-0.1,0.4
		c0,0.3,0.1,0.5,0.3,0.6C211.4,123.5,211.6,123.6,211.9,123.6z M217.5,124.5v-5.9h1.1l0.1,1.3l0,0c0.3-0.5,0.7-0.8,1.1-1.1
		c0.4-0.2,0.9-0.4,1.4-0.4c0.2,0,0.4,0,0.6,0.1c0.2,0,0.4,0.1,0.5,0.2l-0.3,1.2c-0.2-0.1-0.4-0.1-0.5-0.1s-0.3,0-0.6,0
		c-0.4,0-0.8,0.1-1.2,0.4c-0.4,0.2-0.7,0.6-1,1.2v3.2L217.5,124.5L217.5,124.5z M227.2,124.7c-0.5,0-0.9-0.1-1.3-0.2
		c-0.4-0.1-0.7-0.3-1-0.6c-0.3-0.3-0.5-0.6-0.7-1s-0.2-0.8-0.2-1.3s0.1-0.9,0.3-1.3s0.4-0.7,0.7-1s0.7-0.5,1.1-0.6
		c0.4-0.1,0.8-0.2,1.3-0.2s0.9,0.1,1.3,0.2c0.4,0.2,0.7,0.4,0.9,0.6l-0.7,0.9c-0.2-0.2-0.5-0.3-0.7-0.4s-0.5-0.1-0.8-0.1
		c-0.6,0-1.1,0.2-1.5,0.5c-0.4,0.4-0.5,0.8-0.5,1.4c0,0.3,0,0.6,0.1,0.8c0.1,0.2,0.2,0.4,0.4,0.6s0.4,0.3,0.6,0.4
		c0.2,0.1,0.5,0.1,0.8,0.1s0.6-0.1,0.9-0.2c0.3-0.1,0.5-0.3,0.8-0.5l0.6,0.9c-0.3,0.3-0.7,0.5-1.1,0.7
		C228.1,124.6,227.6,124.7,227.2,124.7z M231.3,124.5V116h1.4v2.2l-0.1,1.2l0,0c0.3-0.3,0.6-0.5,0.9-0.7c0.3-0.2,0.7-0.3,1.2-0.3
		c0.7,0,1.2,0.2,1.5,0.6s0.5,1,0.5,1.8v3.6h-1.4v-3.5c0-0.5-0.1-0.8-0.2-1c-0.2-0.2-0.4-0.3-0.8-0.3c-0.3,0-0.6,0.1-0.8,0.2
		s-0.5,0.3-0.7,0.6v4h-1.5V124.5z M241.4,124.7c-0.4,0-0.9-0.1-1.3-0.2c-0.4-0.1-0.7-0.3-1-0.6c-0.3-0.3-0.5-0.6-0.7-1
		s-0.2-0.8-0.2-1.3s0.1-0.9,0.2-1.3c0.2-0.4,0.4-0.7,0.7-1s0.6-0.5,1-0.6s0.7-0.2,1.1-0.2c0.4,0,0.8,0.1,1.2,0.2
		c0.3,0.1,0.6,0.3,0.9,0.6c0.2,0.2,0.4,0.5,0.5,0.9c0.1,0.3,0.2,0.7,0.2,1.1c0,0.1,0,0.3,0,0.4s0,0.2,0,0.3h-4.3
		c0.1,0.6,0.3,1,0.7,1.2c0.4,0.3,0.8,0.4,1.4,0.4c0.3,0,0.6,0,0.9-0.1c0.3-0.1,0.5-0.2,0.8-0.4l0.5,0.9c-0.3,0.2-0.7,0.4-1.1,0.5
		C242.3,124.6,241.9,124.7,241.4,124.7z M241.3,119.5c-0.4,0-0.8,0.1-1.1,0.4c-0.3,0.2-0.5,0.6-0.6,1.1h3.1
		c-0.1-0.5-0.2-0.8-0.5-1.1C242.1,119.7,241.7,119.5,241.3,119.5z M249.5,124.7c-0.7,0-1.2-0.2-1.6-0.6c-0.4-0.4-0.5-1-0.5-1.7v-5.2
		h-2v-1.1h3.3v6.4c0,0.4,0.1,0.7,0.3,0.9c0.2,0.2,0.5,0.2,0.8,0.2s0.7-0.1,1-0.2l0.3,1c-0.3,0.1-0.6,0.2-0.8,0.2
		C250.1,124.6,249.8,124.7,249.5,124.7z M255.5,124.7c-0.4,0-0.7-0.1-1.1-0.2s-0.7-0.3-1-0.6c-0.3-0.3-0.5-0.6-0.7-1
		s-0.2-0.8-0.2-1.3s0.1-0.9,0.2-1.3c0.2-0.4,0.4-0.7,0.7-1s0.6-0.5,1-0.6s0.7-0.2,1.1-0.2c0.4,0,0.8,0.1,1.1,0.2
		c0.4,0.1,0.7,0.3,1,0.6c0.3,0.3,0.5,0.6,0.7,1c0.2,0.4,0.2,0.8,0.2,1.3s-0.1,0.9-0.2,1.3c-0.2,0.4-0.4,0.7-0.7,1
		c-0.3,0.3-0.6,0.5-1,0.6S255.9,124.7,255.5,124.7z M255.5,123.5c0.5,0,0.9-0.2,1.1-0.5c0.3-0.4,0.4-0.8,0.4-1.4s-0.1-1.1-0.4-1.4
		c-0.3-0.4-0.6-0.5-1.1-0.5c-0.5,0-0.9,0.2-1.1,0.5c-0.3,0.4-0.4,0.8-0.4,1.4s0.1,1.1,0.4,1.4S255,123.5,255.5,123.5z M260.7,124.5
		v-5.9h1.1l0.1,1.3l0,0c0.3-0.5,0.7-0.8,1.1-1.1c0.4-0.3,0.9-0.4,1.4-0.4c0.2,0,0.4,0,0.6,0.1c0.2,0,0.4,0.1,0.5,0.2l-0.3,1.2
		c-0.2-0.1-0.4-0.1-0.5-0.1s-0.3,0-0.6,0c-0.4,0-0.8,0.1-1.2,0.4c-0.4,0.2-0.7,0.6-1,1.2v3.2L260.7,124.5L260.7,124.5z"/>
	<path d="M89.9,153.7c-0.6,0-1.1-0.1-1.6-0.3s-0.9-0.5-1.3-0.9l0.8-0.9c0.3,0.3,0.6,0.5,1,0.6c0.4,0.2,0.8,0.2,1.2,0.2
		c0.5,0,0.8-0.1,1-0.3c0.2-0.2,0.4-0.4,0.4-0.7c0-0.2,0-0.3-0.1-0.4c-0.1-0.1-0.2-0.2-0.3-0.3s-0.3-0.2-0.4-0.2
		c-0.2-0.1-0.3-0.2-0.5-0.2l-1.1-0.5c-0.2-0.1-0.4-0.2-0.6-0.3c-0.2-0.1-0.4-0.3-0.5-0.4c-0.2-0.2-0.3-0.4-0.4-0.6
		c-0.1-0.2-0.1-0.5-0.1-0.8s0.1-0.6,0.2-0.9c0.1-0.3,0.3-0.5,0.6-0.7c0.2-0.2,0.5-0.3,0.9-0.5c0.3-0.1,0.7-0.2,1.1-0.2
		c0.5,0,0.9,0.1,1.4,0.3c0.4,0.2,0.8,0.4,1.1,0.7l-0.7,0.9c-0.3-0.2-0.5-0.4-0.8-0.5c-0.3-0.1-0.6-0.2-1-0.2s-0.7,0.1-0.9,0.2
		c-0.2,0.2-0.3,0.4-0.3,0.7c0,0.2,0,0.3,0.1,0.4c0.1,0.1,0.2,0.2,0.3,0.3s0.3,0.2,0.4,0.2c0.1,0,0.3,0.1,0.5,0.2l1,0.4
		c0.2,0.1,0.5,0.2,0.7,0.3c0.2,0.1,0.4,0.3,0.5,0.4c0.2,0.2,0.3,0.4,0.4,0.6c0.1,0.2,0.1,0.5,0.1,0.8s-0.1,0.6-0.2,0.9
		c-0.1,0.3-0.3,0.5-0.6,0.7c-0.2,0.2-0.5,0.4-0.9,0.5C90.8,153.6,90.4,153.7,89.9,153.7z M97,153.5v-4.8h-2.5v-1.1h3.9v5.9L97,153.5
		L97,153.5z M98.1,146.5c-0.3,0-0.5-0.1-0.7-0.2c-0.2-0.2-0.3-0.4-0.3-0.7s0.1-0.5,0.3-0.7c0.2-0.2,0.4-0.3,0.7-0.3
		c0.3,0,0.5,0.1,0.7,0.3c0.2,0.2,0.3,0.4,0.3,0.7s-0.1,0.5-0.3,0.7C98.6,146.5,98.4,146.5,98.1,146.5z M101.7,153.5v-5.9h1.1
		l0.1,0.9l0,0c0.3-0.3,0.6-0.5,0.9-0.7s0.7-0.3,1.2-0.3c0.7,0,1.2,0.2,1.5,0.6c0.3,0.4,0.5,1,0.5,1.8v3.6h-1.4V150
		c0-0.5-0.1-0.8-0.2-1c-0.2-0.2-0.4-0.3-0.8-0.3c-0.3,0-0.6,0.1-0.8,0.2c-0.2,0.1-0.5,0.3-0.7,0.6v4L101.7,153.5L101.7,153.5z
		 M111.3,156.1c-0.4,0-0.8,0-1.1-0.1c-0.3-0.1-0.6-0.2-0.8-0.3c-0.2-0.1-0.4-0.3-0.5-0.5s-0.2-0.4-0.2-0.7c0-0.5,0.3-0.9,0.9-1.2
		l0,0c-0.2-0.1-0.3-0.2-0.4-0.4s-0.2-0.4-0.2-0.6c0-0.2,0.1-0.4,0.2-0.6c0.1-0.2,0.3-0.4,0.5-0.5l0,0c-0.2-0.1-0.4-0.3-0.5-0.6
		s-0.2-0.6-0.2-0.9c0-0.3,0.1-0.6,0.2-0.9c0.1-0.3,0.3-0.5,0.5-0.7s0.5-0.3,0.8-0.4c0.3-0.1,0.6-0.1,0.9-0.1s0.6,0,0.9,0.1h2.4v1
		h-1.4c0.1,0.1,0.2,0.3,0.3,0.4c0.1,0.2,0.1,0.3,0.1,0.5c0,0.3-0.1,0.6-0.2,0.9c-0.1,0.2-0.3,0.5-0.5,0.6c-0.2,0.2-0.5,0.3-0.8,0.4
		c-0.3,0.1-0.6,0.1-0.9,0.1s-0.6-0.1-0.9-0.2c-0.2,0.1-0.4,0.3-0.4,0.6c0,0.4,0.4,0.5,1.1,0.5h1.3c0.8,0,1.3,0.1,1.7,0.3
		c0.4,0.2,0.6,0.6,0.6,1.1c0,0.3-0.1,0.6-0.2,0.8c-0.2,0.3-0.4,0.5-0.7,0.7c-0.3,0.2-0.6,0.3-1.1,0.4
		C112.3,156.1,111.8,156.1,111.3,156.1z M111.3,150.8c0.3,0,0.6-0.1,0.8-0.3c0.2-0.2,0.3-0.5,0.3-0.9s-0.1-0.7-0.3-0.9
		c-0.2-0.2-0.5-0.3-0.8-0.3s-0.6,0.1-0.8,0.3c-0.2,0.2-0.3,0.5-0.3,0.9s0.1,0.7,0.3,0.9C110.8,150.7,111,150.8,111.3,150.8z
		 M111.5,155.2c0.3,0,0.6,0,0.8-0.1c0.2-0.1,0.4-0.1,0.6-0.2c0.2-0.1,0.3-0.2,0.4-0.3s0.1-0.2,0.1-0.3c0-0.2-0.1-0.4-0.3-0.5
		c-0.2-0.1-0.5-0.1-0.9-0.1h-0.9c-0.4,0-0.7,0-0.9-0.1c-0.2,0.1-0.4,0.2-0.5,0.4c-0.1,0.1-0.1,0.3-0.1,0.4c0,0.3,0.1,0.5,0.4,0.6
		C110.5,155.1,110.9,155.2,111.5,155.2z M119.9,153.7c-0.7,0-1.2-0.2-1.6-0.6c-0.4-0.4-0.5-1-0.5-1.7v-5.2h-2v-1.1h3.3v6.4
		c0,0.4,0.1,0.7,0.3,0.9c0.2,0.2,0.5,0.2,0.8,0.2s0.7-0.1,1-0.2l0.3,1c-0.3,0.1-0.6,0.2-0.8,0.2
		C120.5,153.6,120.2,153.7,119.9,153.7z M126.2,153.7c-0.4,0-0.9-0.1-1.3-0.2c-0.4-0.1-0.7-0.3-1-0.6s-0.5-0.6-0.7-1
		s-0.2-0.8-0.2-1.3s0.1-0.9,0.2-1.3c0.2-0.4,0.4-0.7,0.7-1c0.3-0.3,0.6-0.5,1-0.6s0.7-0.2,1.1-0.2s0.8,0.1,1.2,0.2
		c0.3,0.1,0.6,0.3,0.9,0.6c0.2,0.2,0.4,0.5,0.5,0.9c0.1,0.3,0.2,0.7,0.2,1.1c0,0.1,0,0.3,0,0.4c0,0.1,0,0.2,0,0.3h-4.4
		c0.1,0.6,0.3,1,0.7,1.2c0.4,0.3,0.8,0.4,1.4,0.4c0.3,0,0.6,0,0.9-0.1s0.5-0.2,0.8-0.4l0.5,0.9c-0.3,0.2-0.7,0.4-1.1,0.5
		C127.1,153.6,126.7,153.7,126.2,153.7z M126.1,148.5c-0.4,0-0.8,0.1-1.1,0.4c-0.3,0.2-0.5,0.6-0.6,1.1h3.1
		c-0.1-0.5-0.2-0.8-0.5-1.1C126.9,148.7,126.5,148.5,126.1,148.5z"/>
	<path d="M87.3,182.5v-7.8h2.6c0.4,0,0.8,0,1.2,0.1s0.7,0.2,0.9,0.4c0.3,0.2,0.5,0.4,0.6,0.8c0.2,0.3,0.2,0.7,0.2,1.1
		c0,0.4-0.1,0.8-0.2,1.1c-0.1,0.3-0.4,0.6-0.6,0.8c-0.3,0.2-0.6,0.4-1,0.5s-0.8,0.2-1.2,0.2h-1.2v2.9h-1.3V182.5z M88.7,178.5h1.1
		c1.1,0,1.7-0.5,1.7-1.4c0-0.5-0.1-0.8-0.4-1s-0.7-0.3-1.3-0.3h-1.1V178.5z M97.4,182.7c-0.4,0-0.9-0.1-1.3-0.2
		c-0.4-0.1-0.7-0.3-1-0.6c-0.3-0.3-0.5-0.6-0.7-1c-0.2-0.4-0.2-0.8-0.2-1.3s0.1-0.9,0.2-1.3c0.2-0.4,0.4-0.7,0.7-1
		c0.3-0.3,0.6-0.5,1-0.6s0.7-0.2,1.1-0.2c0.4,0,0.8,0.1,1.2,0.2c0.3,0.1,0.6,0.3,0.9,0.6c0.2,0.2,0.4,0.5,0.5,0.9
		c0.1,0.3,0.2,0.7,0.2,1.1c0,0.1,0,0.3,0,0.4c0,0.1,0,0.2,0,0.3h-4.3c0.1,0.6,0.3,1,0.7,1.2c0.4,0.3,0.8,0.4,1.4,0.4
		c0.3,0,0.6,0,0.9-0.1s0.5-0.2,0.8-0.4l0.5,0.9c-0.3,0.2-0.7,0.4-1.1,0.5C98.3,182.6,97.9,182.7,97.4,182.7z M97.3,177.5
		c-0.4,0-0.8,0.1-1.1,0.4c-0.3,0.2-0.5,0.6-0.6,1.1h3.1c-0.1-0.5-0.2-0.8-0.5-1.1C98.1,177.7,97.7,177.5,97.3,177.5z M105.4,182.7
		c-0.4,0-0.8-0.1-1.1-0.2c-0.3-0.1-0.5-0.3-0.7-0.5c-0.2-0.2-0.3-0.5-0.4-0.8c-0.1-0.3-0.1-0.7-0.1-1v-2.4h-1.7v-1l1.6-0.1l0.2-1.8
		h1.1v1.8h2.7v1.1h-2.7v2.4c0,0.5,0.1,0.8,0.3,1.1c0.2,0.2,0.6,0.3,1.1,0.3c0.2,0,0.5,0,0.7-0.1s0.4-0.1,0.6-0.2l0.3,1
		c-0.3,0.1-0.5,0.2-0.9,0.2C106.1,182.6,105.8,182.7,105.4,182.7z M117.9,182.7c-0.3,0-0.5,0-0.8-0.1c-0.2-0.1-0.4-0.2-0.6-0.3
		c-0.2-0.2-0.3-0.3-0.4-0.5s-0.1-0.5-0.1-0.7c0-0.3,0.1-0.6,0.2-0.9c0.2-0.2,0.4-0.5,0.7-0.6c0.3-0.2,0.8-0.3,1.3-0.4
		c0.5-0.1,1.1-0.2,1.9-0.2c0-0.3-0.1-0.6-0.4-0.8c-0.2-0.2-0.6-0.3-1-0.3c-0.3,0-0.7,0.1-1,0.2c-0.3,0.1-0.6,0.3-1,0.4l-0.5-0.9
		c0.4-0.2,0.8-0.4,1.2-0.6c0.5-0.2,1-0.2,1.5-0.2c0.8,0,1.4,0.2,1.9,0.7c0.4,0.4,0.7,1.1,0.7,1.9v3.5h-1.1l-0.1-0.7l0,0
		c-0.3,0.2-0.7,0.4-1,0.6C118.7,182.6,118.3,182.7,117.9,182.7z M118.3,181.6c0.3,0,0.6-0.1,0.9-0.2c0.3-0.1,0.6-0.3,0.8-0.5v-1.2
		c-0.5,0-1,0.1-1.3,0.2c-0.3,0.1-0.6,0.1-0.8,0.2c-0.2,0.1-0.4,0.2-0.5,0.4c-0.1,0.1-0.1,0.3-0.1,0.4c0,0.3,0.1,0.5,0.3,0.6
		C117.8,181.5,118,181.6,118.3,181.6z M132.6,182.7c-0.4,0-0.7-0.1-1-0.2c-0.3-0.1-0.6-0.3-0.8-0.6s-0.4-0.6-0.5-1
		c-0.1-0.4-0.2-0.8-0.2-1.3s0.1-0.9,0.2-1.3c0.1-0.4,0.3-0.7,0.6-1c0.2-0.3,0.5-0.5,0.8-0.6s0.6-0.2,1-0.2c0.3,0,0.6,0.1,0.9,0.2
		c0.3,0.1,0.5,0.3,0.7,0.5l0,0l-0.1-1v-2.1h1.4v8.5h-1.1l-0.1-0.7l0,0c-0.2,0.2-0.5,0.4-0.8,0.6C133.3,182.6,133,182.7,132.6,182.7z
		 M133,181.5c0.5,0,0.9-0.2,1.3-0.7v-2.7c-0.2-0.2-0.4-0.3-0.6-0.4c-0.2-0.1-0.4-0.1-0.6-0.1s-0.4,0-0.6,0.1s-0.3,0.2-0.5,0.4
		c-0.1,0.2-0.2,0.4-0.3,0.6c-0.1,0.2-0.1,0.5-0.1,0.8c0,0.6,0.1,1.1,0.4,1.5C132.2,181.4,132.5,181.5,133,181.5z M140.3,182.7
		c-0.4,0-0.7-0.1-1.1-0.2c-0.4-0.1-0.7-0.3-1-0.6s-0.5-0.6-0.7-1s-0.2-0.8-0.2-1.3s0.1-0.9,0.2-1.3c0.2-0.4,0.4-0.7,0.7-1
		s0.6-0.5,1-0.6c0.4-0.1,0.7-0.2,1.1-0.2c0.4,0,0.8,0.1,1.1,0.2c0.4,0.1,0.7,0.3,1,0.6s0.5,0.6,0.7,1s0.2,0.8,0.2,1.3
		s-0.1,0.9-0.2,1.3c-0.2,0.4-0.4,0.7-0.7,1c-0.3,0.3-0.6,0.5-1,0.6C141,182.6,140.7,182.7,140.3,182.7z M140.3,181.5
		c0.5,0,0.9-0.2,1.1-0.5c0.3-0.4,0.4-0.8,0.4-1.4c0-0.6-0.1-1.1-0.4-1.4c-0.3-0.4-0.6-0.5-1.1-0.5s-0.9,0.2-1.1,0.5
		c-0.3,0.4-0.4,0.8-0.4,1.4c0,0.6,0.1,1.1,0.4,1.4C139.4,181.4,139.8,181.5,140.3,181.5z M147.3,185.1c-0.4,0-0.8,0-1.1-0.1
		c-0.3-0.1-0.6-0.2-0.8-0.3s-0.4-0.3-0.5-0.5c-0.1-0.2-0.2-0.4-0.2-0.7c0-0.5,0.3-0.9,0.9-1.2l0,0c-0.2-0.1-0.3-0.2-0.4-0.4
		c-0.1-0.2-0.2-0.4-0.2-0.6c0-0.2,0.1-0.4,0.2-0.6c0.1-0.2,0.3-0.4,0.5-0.5l0,0c-0.2-0.1-0.4-0.3-0.5-0.6c-0.1-0.3-0.2-0.6-0.2-0.9
		s0.1-0.6,0.2-0.9c0.1-0.3,0.3-0.5,0.5-0.7s0.5-0.3,0.8-0.4s0.6-0.1,0.9-0.1s0.6,0,0.9,0.1h2.4v1h-1.4c0.1,0.1,0.2,0.3,0.3,0.4
		c0.1,0.2,0.1,0.3,0.1,0.5c0,0.3-0.1,0.6-0.2,0.9c-0.1,0.2-0.3,0.5-0.5,0.6c-0.2,0.2-0.5,0.3-0.8,0.4c-0.3,0.1-0.6,0.1-0.9,0.1
		s-0.6-0.1-0.9-0.2c-0.2,0.1-0.4,0.3-0.4,0.6c0,0.4,0.4,0.5,1.1,0.5h1.2c0.8,0,1.3,0.1,1.7,0.3c0.4,0.2,0.6,0.6,0.6,1.1
		c0,0.3-0.1,0.6-0.2,0.8c-0.2,0.3-0.4,0.5-0.7,0.7c-0.3,0.2-0.6,0.3-1.1,0.4C148.3,185.1,147.8,185.1,147.3,185.1z M147.3,179.8
		c0.3,0,0.6-0.1,0.8-0.3s0.3-0.5,0.3-0.9s-0.1-0.7-0.3-0.9c-0.2-0.2-0.5-0.3-0.8-0.3s-0.6,0.1-0.8,0.3c-0.2,0.2-0.3,0.5-0.3,0.9
		s0.1,0.7,0.3,0.9C146.8,179.7,147,179.8,147.3,179.8z M147.5,184.2c0.3,0,0.6,0,0.8-0.1s0.4-0.1,0.6-0.2c0.2-0.1,0.3-0.2,0.4-0.3
		c0.1-0.1,0.1-0.2,0.1-0.3c0-0.2-0.1-0.4-0.3-0.5s-0.5-0.1-0.9-0.1h-0.9c-0.4,0-0.7,0-0.9-0.1c-0.2,0.1-0.4,0.2-0.5,0.4
		c-0.1,0.1-0.1,0.3-0.1,0.4c0,0.3,0.1,0.5,0.4,0.6C146.5,184.1,146.9,184.2,147.5,184.2z"/>
	<path class="st0" d="M63.1,119.3C63.1,119.2,63.2,119.2,63.1,119.3c2.1-1.2,4.2-2.3,6.2-3.4h0.1c2.1,1.1,4.1,2.2,6.2,3.4
		c0.1,0,0.1,0.1,0.1,0.1c0,1.5,0,2.9,0,4.4v0.1c-0.4,0-0.8,0-1.1,0c0-1.3,0-2.6,0-3.9h-0.1c-1.7,0.9-3.4,1.8-5,2.7h-0.1
		C67.3,121.6,65.2,120.4,63.1,119.3C63.2,119.3,63.1,119.3,63.1,119.3z"/>
	<path class="st0" d="M65.4,121.7c0.3,0.2,0.6,0.3,0.9,0.5c1,0.6,2.1,1.1,3.1,1.7c0.1,0,0.1,0,0.1,0c1.3-0.7,2.6-1.4,3.9-2.1
		c0,0,0,0,0.1,0c0,0,0,0,0,0.1c0,0.7,0,1.4,0,2.1c0,0.1,0,0.1-0.1,0.1c-1.3,0.7-2.6,1.4-3.9,2.1c-0.1,0-0.1,0-0.2,0
		c-1.3-0.7-2.6-1.4-3.8-2.1c-0.1,0-0.1-0.1-0.1-0.2C65.4,123.2,65.4,122.5,65.4,121.7L65.4,121.7z"/>
	<path class="st0" d="M68.3,67.5c-1,0-1.9,0-2.9,0c0-1.5,0-3.1,0-4.6c-0.6,0-1.1,0-1.7,0l0,0c1.9-1.7,3.8-3.4,5.7-5.1
		c1.9,1.7,3.8,3.4,5.7,5.1l0,0H75c-0.5,0-1,0-1.5,0c-0.1,0-0.1,0-0.1,0.1c0,1.5,0,2.9,0,4.4v0.1c-1,0-1.9,0-2.9,0c0-1.1,0-2.3,0-3.4
		c-0.8,0-1.5,0-2.3,0C68.3,65.2,68.3,66.3,68.3,67.5z"/>
	<path class="st0" d="M69.4,39.6c-3.1,0-5.7-2.5-5.7-5.7s2.6-5.7,5.7-5.7c3.2,0,5.7,2.6,5.7,5.7S72.6,39.6,69.4,39.6z M69.4,38
		c0.2,0,0.4,0,0.7-0.1c1.1-0.2,2-0.8,2.7-1.7v-0.1c0-0.2-0.1-0.3-0.2-0.5c-0.2-0.3-0.6-0.5-0.9-0.7c-0.5-0.2-1-0.4-1.5-0.5
		c-0.4-0.1-0.9-0.1-1.3-0.1c-0.6,0.1-1.1,0.2-1.7,0.4c-0.3,0.1-0.6,0.3-0.9,0.5c-0.2,0.2-0.3,0.4-0.4,0.6c0,0.1,0,0.2,0,0.2
		c0.1,0.1,0.1,0.2,0.2,0.2C67,37.4,68.1,37.9,69.4,38z M71.1,31.6c0-1-0.8-1.7-1.7-1.7c-1,0-1.7,0.8-1.7,1.7s0.8,1.7,1.7,1.7
		C70.4,33.3,71.1,32.5,71.1,31.6z"/>
	<path class="st0" d="M71.3,88.5h0.1c0.7,0,1.4,0,2.2,0c0.3,0,0.6,0.1,0.8,0.3c0.2,0.2,0.4,0.5,0.4,0.8c0,0.6,0,1.2,0,1.8
		c0,1.5,0,3,0,4.6c0,0.3-0.1,0.6-0.3,0.8c-0.2,0.3-0.5,0.4-0.9,0.4s-0.7,0-1.1,0c-2.7,0-5.3,0-8,0c-0.3,0-0.6-0.1-0.9-0.3
		c-0.2-0.2-0.3-0.5-0.3-0.7v-0.1c0-2.1,0-4.2,0-6.2c0-0.5,0.2-0.8,0.7-1.1c0.2-0.1,0.3-0.1,0.5-0.1c0.7,0,1.4,0,2.2,0h0.1v-0.1
		c0-0.4,0-0.7,0-1.1c0-0.6,0.4-1,1-1.1c0.1,0,0.1,0,0.2,0c0.8,0,1.6,0,2.4,0c0.6,0,1,0.5,1.1,1c0,0.4,0,0.8,0,1.1
		C71.3,88.4,71.3,88.5,71.3,88.5z M70.2,87.4c-0.8,0-1.5,0-2.3,0c0,0.4,0,0.8,0,1.1c0.8,0,1.5,0,2.3,0
		C70.2,88.1,70.2,87.7,70.2,87.4z"/>
	<path class="st0" d="M70.2,87.4c0,0.4,0,0.8,0,1.1c-0.8,0-1.5,0-2.3,0c0-0.4,0-0.8,0-1.1C68.7,87.4,69.4,87.4,70.2,87.4z"/>
	<path class="st0" d="M69.4,155.4c-0.2-0.2-0.3-0.3-0.5-0.5c-0.7-0.6-1.3-1.2-2-1.8c-0.6-0.6-1.2-1.2-1.8-1.8
		c-0.4-0.5-0.8-1.1-1.1-1.7c-0.2-0.4-0.3-0.8-0.3-1.2c-0.1-1.1,0.2-2,1-2.7c0.6-0.6,1.3-0.8,2.2-0.8c1,0,1.8,0.4,2.5,1.1
		c0,0,0,0,0.1,0.1c0,0,0,0,0-0.1c0.5-0.6,1.2-1,2-1.1c1.1-0.2,2.1,0.1,2.8,0.9c0.5,0.5,0.7,1.1,0.8,1.8c0.1,0.8-0.1,1.6-0.5,2.3
		c-0.3,0.5-0.7,1-1.1,1.5s-0.9,1-1.4,1.4C71.2,153.7,70.3,154.5,69.4,155.4L69.4,155.4z"/>
	<path class="st0" d="M72.1,169.2c0.1,0.4,0.2,0.7,0.4,1.1c0.1,0,0.1,0,0.2,0c0.2-0.1,0.5-0.3,0.7-0.4c0.1,0.3,0.1,0.5,0.3,0.8
		c0.1,0.2,0.2,0.4,0.4,0.6c0.1,0.1,0.3,0.2,0.3,0.3c0.3,0.8,1.1,1,1.7,1.2c0.5,0.2,0.5,0.5,0.2,0.9c-0.6,1-1.6,1.4-2.7,1.4
		c0,0.2,0,0.4,0,0.6c0,1.6,0,3.3,0,4.9c0,0.3,0.1,0.7,0.3,1c0.5,0.9,1.1,1.8,1.7,2.7c0.3,0.5,0.2,0.7-0.4,0.7
		c-0.9,0.1-1.5-0.2-1.9-1c-0.4-0.9-1.1-1.6-1.7-2.6c-0.1,0.6-0.3,1.1-0.3,1.4c0.5,0.5,1,0.8,1.2,1.3c0.3,0.5,0.1,0.8-0.5,0.8
		c-2.2,0-4.4,0-6.6,0c-1.6,0-2.9-0.8-3.8-2.2c-0.1-0.2,0-0.5,0-0.7c0.2,0.1,0.4,0.2,0.5,0.4c0.8,1.3,2,1.9,3.5,1.9
		c0-0.1,0-0.2,0-0.2c-1.2-1.6-1.2-3.2-0.4-5c0.7-1.7,2-2.7,3.7-3.4c0.3-0.1,0.5-0.4,0.6-0.6c0.6-1.7,1.2-3.4,1.9-5.1
		c0.1-0.3,0.2-0.6,0.4-0.8C71.8,169.2,72,169.2,72.1,169.2z"/>
</g>
<path class="st0" d="M65.5,251c-0.7,0-1.3-0.1-1.9-0.3s-1.1-0.6-1.5-1c-0.4-0.4-0.8-1-1-1.7c-0.2-0.7-0.4-1.4-0.4-2.3
	c0-0.9,0.1-1.7,0.4-2.3c0.3-0.6,0.6-1.2,1-1.7c0.4-0.5,0.9-0.8,1.5-1.1c0.6-0.2,1.2-0.4,1.9-0.4s1.3,0.1,1.8,0.4
	c0.5,0.3,0.9,0.6,1.3,0.9l-1.3,1.5c-0.2-0.2-0.5-0.4-0.8-0.5s-0.6-0.2-1-0.2c-0.3,0-0.6,0.1-0.9,0.2c-0.3,0.2-0.5,0.4-0.8,0.7
	c-0.2,0.3-0.4,0.6-0.5,1c-0.1,0.4-0.2,0.9-0.2,1.4c0,1.1,0.2,1.9,0.6,2.5s1,0.9,1.9,0.9c0.2,0,0.4,0,0.6-0.1
	c0.2-0.1,0.3-0.1,0.5-0.2v-1.8h-1.5V245h3.6v4.8c-0.4,0.3-0.8,0.6-1.4,0.9C66.8,250.8,66.2,251,65.5,251z M74.4,251
	c-0.5,0-1-0.1-1.5-0.3s-0.9-0.5-1.3-0.8c-0.4-0.4-0.7-0.8-0.9-1.3c-0.2-0.5-0.3-1.1-0.3-1.8s0.1-1.2,0.3-1.8c0.2-0.5,0.5-1,0.9-1.3
	c0.4-0.4,0.8-0.6,1.3-0.8s1-0.3,1.5-0.3s1,0.1,1.5,0.3s0.9,0.5,1.3,0.8c0.4,0.3,0.7,0.8,0.9,1.3c0.2,0.5,0.3,1.1,0.3,1.8
	s-0.1,1.3-0.3,1.8c-0.2,0.5-0.5,0.9-0.9,1.3c-0.4,0.3-0.8,0.6-1.3,0.8C75.5,250.9,75,251,74.4,251z M74.4,249.1
	c0.5,0,0.9-0.2,1.2-0.6c0.3-0.4,0.4-1,0.4-1.7s-0.1-1.2-0.4-1.6c-0.3-0.4-0.7-0.6-1.2-0.6s-0.9,0.2-1.2,0.6
	c-0.3,0.4-0.4,0.9-0.4,1.6c0,0.7,0.1,1.2,0.4,1.7C73.5,248.9,73.9,249.1,74.4,249.1z M82.8,251c-0.4,0-0.8-0.1-1.1-0.2
	c-0.3-0.1-0.6-0.3-0.8-0.5c-0.2-0.2-0.4-0.5-0.5-0.8s-0.2-0.6-0.2-0.9c0-0.4,0.1-0.8,0.3-1.2c0.2-0.3,0.5-0.6,0.9-0.9
	c0.4-0.2,1-0.4,1.6-0.6c0.7-0.1,1.5-0.2,2.4-0.3c0-0.4-0.2-0.6-0.5-0.8c-0.3-0.2-0.7-0.3-1.2-0.3c-0.4,0-0.8,0.1-1.2,0.2
	c-0.4,0.1-0.8,0.3-1.2,0.5l-0.8-1.5c0.5-0.3,1.1-0.6,1.8-0.8c0.6-0.2,1.3-0.3,2-0.3c1.1,0,2,0.3,2.6,0.9c0.6,0.6,1,1.5,1,2.7v4.5H86
	l-0.2-0.9h-0.1c-0.4,0.3-0.8,0.6-1.3,0.8C83.8,250.9,83.3,251,82.8,251z M83.6,249.2c0.3,0,0.7-0.1,1-0.2c0.3-0.1,0.6-0.3,0.9-0.5
	v-1.3c-0.6,0-1.1,0.1-1.5,0.2c-0.4,0.1-0.7,0.2-0.9,0.3c-0.2,0.1-0.4,0.2-0.5,0.4c-0.1,0.1-0.1,0.3-0.1,0.5c0,0.3,0.1,0.5,0.3,0.6
	C83,249.1,83.2,249.2,83.6,249.2z M95.2,251c-1,0-1.8-0.3-2.3-0.9c-0.5-0.6-0.8-1.4-0.8-2.4v-6.2h-2.5v-1.9h4.8v8.2
	c0,0.2,0,0.5,0.1,0.6c0.1,0.2,0.2,0.3,0.3,0.4c0.1,0.1,0.3,0.2,0.4,0.2c0.2,0,0.3,0.1,0.5,0.1c0.2,0,0.4,0,0.6,0
	c0.2,0,0.4-0.1,0.7-0.2l0.5,1.7c-0.2,0.1-0.4,0.1-0.6,0.2c-0.2,0.1-0.4,0.1-0.5,0.1c-0.2,0-0.4,0.1-0.6,0.1
	C95.6,251,95.4,251,95.2,251z M103.2,251c-0.7,0-1.4-0.1-2.1-0.3s-1.3-0.5-1.8-0.9l1-1.5c0.5,0.3,1,0.6,1.5,0.7
	c0.5,0.2,1.1,0.2,1.7,0.2c0.4,0,0.8-0.1,1-0.2c0.2-0.1,0.3-0.3,0.3-0.5c0-0.1,0-0.2-0.1-0.3s-0.2-0.2-0.3-0.2
	c-0.1-0.1-0.3-0.1-0.6-0.2c-0.3-0.1-0.6-0.2-1-0.2c-1.1-0.2-1.9-0.5-2.3-0.9c-0.5-0.4-0.7-0.9-0.7-1.5c0-0.4,0.1-0.7,0.2-1
	c0.2-0.3,0.4-0.6,0.7-0.8c0.3-0.2,0.7-0.4,1.1-0.5c0.4-0.1,1-0.2,1.5-0.2c0.7,0,1.4,0.1,2,0.3s1.1,0.5,1.5,0.7l-1.1,1.4
	c-0.4-0.2-0.8-0.4-1.3-0.6c-0.4-0.1-0.9-0.2-1.3-0.2s-0.7,0.1-0.8,0.2c-0.2,0.1-0.3,0.3-0.3,0.4c0,0.2,0.1,0.4,0.4,0.5
	s0.8,0.2,1.4,0.4c0.6,0.1,1.1,0.3,1.5,0.5s0.7,0.3,1,0.5c0.2,0.2,0.4,0.4,0.5,0.7c0.1,0.2,0.1,0.5,0.1,0.8c0,0.4-0.1,0.7-0.3,1
	c-0.2,0.3-0.4,0.6-0.7,0.8c-0.3,0.2-0.7,0.4-1.2,0.5C104.4,250.9,103.8,251,103.2,251z M112.8,246c-0.6,0-1-0.2-1.3-0.5
	c-0.3-0.4-0.5-0.8-0.5-1.3c0-0.3,0-0.5,0.1-0.7s0.2-0.4,0.4-0.6c0.2-0.2,0.4-0.3,0.6-0.4c0.2-0.1,0.5-0.1,0.8-0.1s0.5,0,0.8,0.1
	c0.2,0.1,0.4,0.2,0.6,0.4s0.3,0.4,0.4,0.6c0.1,0.2,0.1,0.5,0.1,0.7c0,0.5-0.2,1-0.5,1.3C113.8,245.8,113.4,246,112.8,246z
	 M112.8,251c-0.6,0-1-0.2-1.3-0.5c-0.3-0.4-0.5-0.8-0.5-1.3c0-0.3,0-0.5,0.1-0.7s0.2-0.4,0.4-0.6c0.2-0.2,0.4-0.3,0.6-0.4
	c0.2-0.1,0.5-0.1,0.8-0.1s0.5,0,0.8,0.1c0.2,0.1,0.4,0.2,0.6,0.4s0.3,0.4,0.4,0.6c0.1,0.2,0.1,0.5,0.1,0.7c0,0.5-0.2,1-0.5,1.3
	C113.8,250.8,113.4,251,112.8,251z"/>
<path class="st0" d="M63.6,289.7v-16.8h3.6v16.8H63.6z"/>
<path class="st0" d="M61.3,379.4V369H65c0.6,0,1.1,0.1,1.6,0.2s0.9,0.3,1.3,0.6c0.4,0.3,0.7,0.6,0.9,1s0.3,1,0.3,1.6
	s-0.1,1.1-0.3,1.6c-0.2,0.4-0.5,0.8-0.9,1.1c-0.4,0.3-0.8,0.5-1.3,0.6s-1,0.2-1.6,0.2h-1.3v3.5L61.3,379.4L61.3,379.4z M63.6,374
	h1.2c1.3,0,1.9-0.6,1.9-1.7c0-0.5-0.2-0.9-0.5-1.1c-0.3-0.2-0.8-0.3-1.4-0.3h-1.2V374z M73.2,379.6c-0.4,0-0.8-0.1-1.1-0.2
	c-0.3-0.1-0.6-0.3-0.8-0.5c-0.2-0.2-0.4-0.5-0.5-0.8c-0.1-0.3-0.2-0.6-0.2-0.9c0-0.4,0.1-0.8,0.3-1.2c0.2-0.3,0.5-0.6,0.9-0.9
	c0.4-0.2,1-0.4,1.6-0.6c0.7-0.1,1.5-0.2,2.4-0.3c0-0.4-0.2-0.6-0.5-0.8c-0.3-0.2-0.7-0.3-1.2-0.3c-0.4,0-0.8,0.1-1.2,0.2
	s-0.8,0.3-1.2,0.5l-0.8-1.5c0.5-0.3,1.1-0.6,1.8-0.8c0.6-0.2,1.3-0.3,2-0.3c1.1,0,2,0.3,2.6,0.9s1,1.5,1,2.7v4.5h-1.9l-0.2-0.9h-0.1
	c-0.4,0.3-0.8,0.6-1.3,0.8C74.2,379.5,73.7,379.6,73.2,379.6z M74,377.8c0.3,0,0.7-0.1,1-0.2c0.3-0.1,0.6-0.3,0.9-0.5v-1.3
	c-0.6,0-1.1,0.1-1.5,0.2s-0.7,0.2-0.9,0.3c-0.2,0.1-0.4,0.2-0.5,0.4c-0.1,0.1-0.1,0.3-0.1,0.5c0,0.3,0.1,0.5,0.3,0.6
	C73.4,377.8,73.6,377.8,74,377.8z M83.7,379.4v-6.1h-3.2v-1.8H86v7.9H83.7z M85,370.3c-0.5,0-0.8-0.1-1.1-0.4
	c-0.3-0.3-0.4-0.6-0.4-1s0.1-0.8,0.4-1.1c0.3-0.3,0.7-0.4,1.1-0.4c0.5,0,0.8,0.1,1.1,0.4c0.3,0.3,0.5,0.6,0.5,1.1
	c0,0.4-0.2,0.8-0.5,1C85.9,370.1,85.5,370.3,85,370.3z M90,379.4v-7.9h1.9l0.2,1.1h0.1c0.3-0.3,0.7-0.6,1.2-0.9
	c0.4-0.3,1-0.4,1.6-0.4c0.9,0,1.6,0.3,2,0.9s0.6,1.4,0.6,2.4v4.9h-2.5v-4.6c0-0.5-0.1-0.9-0.2-1.2c-0.2-0.3-0.5-0.4-0.9-0.4
	c-0.3,0-0.6,0.1-0.8,0.2c-0.2,0.1-0.5,0.3-0.8,0.6v5.3H90z M109.3,379.4V369h3.7c0.6,0,1.1,0.1,1.6,0.2s0.9,0.3,1.3,0.6
	c0.4,0.3,0.7,0.6,0.9,1c0.2,0.4,0.3,1,0.3,1.6s-0.1,1.1-0.3,1.6c-0.2,0.4-0.5,0.8-0.9,1.1c-0.4,0.3-0.8,0.5-1.3,0.6s-1,0.2-1.6,0.2
	h-1.3v3.5L109.3,379.4L109.3,379.4z M111.6,374h1.2c1.3,0,1.9-0.6,1.9-1.7c0-0.5-0.2-0.9-0.5-1.1s-0.8-0.3-1.4-0.3h-1.2V374z
	 M122.4,379.6c-0.5,0-1-0.1-1.5-0.3c-0.5-0.2-0.9-0.5-1.3-0.8c-0.4-0.4-0.7-0.8-0.9-1.3c-0.2-0.5-0.3-1.1-0.3-1.8
	c0-0.7,0.1-1.2,0.3-1.8c0.2-0.5,0.5-1,0.9-1.3c0.4-0.4,0.8-0.6,1.3-0.8c0.5-0.2,1-0.3,1.5-0.3s1,0.1,1.5,0.3
	c0.5,0.2,0.9,0.5,1.3,0.8s0.7,0.8,0.9,1.3c0.2,0.5,0.3,1.1,0.3,1.8c0,0.7-0.1,1.3-0.3,1.8c-0.2,0.5-0.5,0.9-0.9,1.3
	c-0.4,0.3-0.8,0.6-1.3,0.8C123.5,379.5,123,379.6,122.4,379.6z M122.4,377.7c0.5,0,0.9-0.2,1.2-0.6c0.3-0.4,0.4-1,0.4-1.7
	s-0.1-1.2-0.4-1.6s-0.7-0.6-1.2-0.6s-0.9,0.2-1.2,0.6c-0.3,0.4-0.4,0.9-0.4,1.6s0.1,1.2,0.4,1.7
	C121.5,377.5,121.9,377.7,122.4,377.7z M131.7,379.4v-6.1h-3.2v-1.8h5.5v7.9H131.7z M133,370.3c-0.5,0-0.8-0.1-1.1-0.4
	c-0.3-0.3-0.4-0.6-0.4-1s0.1-0.8,0.4-1.1c0.3-0.3,0.7-0.4,1.1-0.4c0.5,0,0.8,0.1,1.1,0.4s0.5,0.6,0.5,1.1c0,0.4-0.2,0.8-0.5,1
	C133.9,370.1,133.5,370.3,133,370.3z M138,379.4v-7.9h1.9l0.2,1.1h0.1c0.3-0.3,0.7-0.6,1.2-0.9c0.4-0.3,1-0.4,1.6-0.4
	c0.9,0,1.6,0.3,2,0.9c0.4,0.6,0.6,1.4,0.6,2.4v4.9h-2.5v-4.6c0-0.5-0.1-0.9-0.2-1.2c-0.2-0.3-0.5-0.4-0.9-0.4
	c-0.3,0-0.6,0.1-0.8,0.2c-0.2,0.1-0.5,0.3-0.8,0.6v5.3H138z M152.7,379.6c-0.6,0-1.2-0.1-1.6-0.2c-0.4-0.2-0.8-0.4-1.1-0.7
	c-0.3-0.3-0.5-0.7-0.6-1.1c-0.1-0.4-0.2-0.9-0.2-1.4v-2.8h-2v-1.8l2.1-0.1l0.3-2.4h1.9v2.4h3.4v1.8h-3.4v2.8c0,0.6,0.1,1,0.4,1.3
	c0.3,0.2,0.7,0.4,1.3,0.4c0.3,0,0.6,0,0.8-0.1c0.3-0.1,0.5-0.1,0.8-0.2l0.4,1.7c-0.4,0.1-0.7,0.2-1.2,0.3
	C153.7,379.6,153.2,379.6,152.7,379.6z M160.8,379.6c-0.7,0-1.4-0.1-2.1-0.3c-0.7-0.2-1.3-0.5-1.8-0.9l1-1.5c0.5,0.3,1,0.6,1.5,0.7
	c0.5,0.2,1.1,0.2,1.7,0.2c0.4,0,0.8-0.1,1-0.2s0.3-0.3,0.3-0.5c0-0.1,0-0.2-0.1-0.3c-0.1-0.1-0.2-0.2-0.3-0.2
	c-0.1-0.1-0.3-0.1-0.6-0.2s-0.6-0.2-1-0.2c-1.1-0.2-1.9-0.5-2.3-0.9c-0.5-0.4-0.7-0.9-0.7-1.5c0-0.4,0.1-0.7,0.2-1
	c0.2-0.3,0.4-0.6,0.7-0.8c0.3-0.2,0.7-0.4,1.1-0.5c0.4-0.1,1-0.2,1.5-0.2c0.7,0,1.4,0.1,2,0.3c0.6,0.2,1.1,0.5,1.5,0.7l-1.1,1.4
	c-0.4-0.3-0.8-0.4-1.3-0.6c-0.4-0.1-0.9-0.2-1.3-0.2c-0.4,0-0.7,0.1-0.8,0.2c-0.2,0.1-0.3,0.3-0.3,0.4c0,0.2,0.1,0.4,0.4,0.5
	s0.8,0.2,1.4,0.4c0.6,0.1,1.1,0.3,1.5,0.5c0.4,0.2,0.7,0.3,1,0.5c0.2,0.2,0.4,0.4,0.5,0.7c0.1,0.2,0.1,0.5,0.1,0.8
	c0,0.4-0.1,0.7-0.3,1s-0.4,0.6-0.7,0.8c-0.3,0.2-0.7,0.4-1.2,0.5C162,379.6,161.4,379.6,160.8,379.6z M170.4,374.6
	c-0.6,0-1-0.2-1.3-0.5c-0.3-0.4-0.5-0.8-0.5-1.3c0-0.3,0-0.5,0.1-0.7s0.2-0.4,0.4-0.6s0.4-0.3,0.6-0.4c0.2-0.1,0.5-0.1,0.8-0.1
	s0.5,0,0.8,0.1c0.2,0.1,0.4,0.2,0.6,0.4c0.2,0.2,0.3,0.4,0.4,0.6c0.1,0.2,0.1,0.5,0.1,0.7c0,0.5-0.2,1-0.5,1.3
	C171.4,374.5,171,374.6,170.4,374.6z M170.4,379.6c-0.6,0-1-0.2-1.3-0.5c-0.3-0.4-0.5-0.8-0.5-1.3c0-0.3,0-0.5,0.1-0.7
	s0.2-0.4,0.4-0.6s0.4-0.3,0.6-0.4c0.2-0.1,0.5-0.1,0.8-0.1s0.5,0,0.8,0.1c0.2,0.1,0.4,0.2,0.6,0.4c0.2,0.2,0.3,0.4,0.4,0.6
	c0.1,0.2,0.1,0.5,0.1,0.7c0,0.5-0.2,1-0.5,1.3C171.4,379.5,171,379.6,170.4,379.6z"/>
<path class="st0" d="M63.6,418.4v-16.8h3.6v16.8H63.6z"/>
<g>
	<g>
		<path d="M75.6,405.7h5.3v1.7h-3.3v1.5h2.8v1.7h-2.8v2.9h-2.1V405.7z"/>
		<path d="M82.2,410.5c0-2,1.5-3.1,3.1-3.1c1.9,0,2.9,1.3,2.9,2.9c0,0.4-0.1,0.7-0.1,0.9h-4.4v-1.3h2.9l-0.3,0.4
			c0-0.8-0.3-1.2-1-1.2c-0.8,0-1.2,0.5-1.2,1.6c0,1.1,0.6,1.6,1.7,1.6c0.5,0,0.9-0.1,1.4-0.4L88,413c-0.7,0.5-1.7,0.7-2.4,0.7
			C83.7,413.7,82.2,412.5,82.2,410.5z"/>
		<path d="M89.4,410.5c0-2,1.5-3.1,3.1-3.1c1.9,0,2.9,1.3,2.9,2.9c0,0.4-0.1,0.7-0.1,0.9H91v-1.3h2.9l-0.3,0.4c0-0.8-0.3-1.2-1-1.2
			c-0.8,0-1.2,0.5-1.2,1.6c0,1.1,0.6,1.6,1.7,1.6c0.5,0,0.9-0.1,1.4-0.4l0.7,1.2c-0.7,0.5-1.7,0.7-2.4,0.7
			C90.9,413.7,89.4,412.5,89.4,410.5z"/>
		<path d="M98.3,411.1v-4.3h-1.8v-1.6h3.9v5.9c0,0.7,0.5,0.9,0.9,0.9c0.3,0,0.5,0,0.9-0.2l0.4,1.5c-0.6,0.2-1.1,0.3-1.9,0.3
			C99.1,413.7,98.3,412.6,98.3,411.1z"/>
		<path d="M111.2,405.2h2.1v1.9l-0.1,1.1h0c0.4-0.4,1-0.8,1.9-0.8c1.3,0,1.9,1,1.9,2.4v3.7h-2.1v-3.4c0-0.7-0.2-1-0.7-1
			c-0.4,0-0.6,0.2-1,0.5v3.9h-2.1V405.2z"/>
		<path d="M118.2,410.5c0-2,1.5-3.1,3.1-3.1c1.9,0,2.9,1.3,2.9,2.9c0,0.4-0.1,0.7-0.1,0.9h-4.4v-1.3h2.9l-0.3,0.4
			c0-0.8-0.3-1.2-1-1.2c-0.8,0-1.2,0.5-1.2,1.6c0,1.1,0.6,1.6,1.7,1.6c0.5,0,0.9-0.1,1.4-0.4l0.7,1.2c-0.7,0.5-1.7,0.7-2.4,0.7
			C119.7,413.7,118.2,412.5,118.2,410.5z"/>
		<path d="M125.4,412.8l0.9-1.3c0.8,0.4,1.6,0.7,2.4,0.7c0.5,0,0.7-0.1,0.7-0.4c0-0.3-0.3-0.3-1.3-0.6c-1.7-0.4-2.3-1-2.3-1.9
			c0-1.2,1.1-1.9,2.9-1.9c1.1,0,2,0.4,2.7,0.8l-0.9,1.2c-0.6-0.4-1.3-0.6-1.9-0.6c-0.4,0-0.6,0.1-0.6,0.3c0,0.3,0.3,0.3,1.2,0.5
			c1.8,0.4,2.3,0.9,2.3,1.9c0,1.1-1.1,2-3.1,2C127.3,413.7,126.2,413.3,125.4,412.8z"/>
		<path d="M135.2,409.1h-2.3v-1.6h4.3v6h-2.1V409.1z M134.9,405.5c0-0.7,0.6-1.2,1.3-1.2s1.3,0.5,1.3,1.2s-0.6,1.2-1.3,1.2
			S134.9,406.2,134.9,405.5z"/>
		<path d="M141.2,411v-1.8h-1.4v-1.5l1.5-0.1l0.3-1.8h1.7v1.8h2.4v1.6h-2.4v1.8c0,0.9,0.4,1.1,1.2,1.1c0.4,0,0.8-0.1,1.1-0.2
			l0.4,1.5c-0.5,0.1-1.2,0.3-2,0.3C141.9,413.7,141.2,412.6,141.2,411z"/>
		<path d="M147.1,411.8c0-1.3,1.1-2,3.8-2.2c-0.1-0.4-0.5-0.6-1.2-0.6c-0.5,0-1,0.2-1.7,0.5l-0.7-1.3c0.9-0.5,1.8-0.8,2.9-0.8
			c1.7,0,2.8,0.8,2.8,2.8v3.3h-1.7l-0.1-0.6h0c-0.6,0.4-1.3,0.8-2,0.8C147.8,413.7,147.1,412.8,147.1,411.8z M150.9,411.6v-0.8
			c-1.5,0-1.8,0.4-1.8,0.8c0,0.3,0.2,0.4,0.6,0.4C150.2,412.1,150.6,411.9,150.9,411.6z"/>
		<path d="M155.6,411v-1.8h-1.4v-1.5l1.5-0.1l0.3-1.8h1.7v1.8h2.4v1.6h-2.4v1.8c0,0.9,0.4,1.1,1.2,1.1c0.4,0,0.8-0.1,1.1-0.2
			l0.4,1.5c-0.5,0.1-1.2,0.3-2,0.3C156.3,413.7,155.6,412.6,155.6,411z"/>
		<path d="M161.4,410.5c0-2,1.5-3.1,3.1-3.1c1.9,0,2.9,1.3,2.9,2.9c0,0.4-0.1,0.7-0.1,0.9H163v-1.3h2.9l-0.3,0.4
			c0-0.8-0.3-1.2-1-1.2c-0.8,0-1.2,0.5-1.2,1.6c0,1.1,0.6,1.6,1.7,1.6c0.5,0,0.9-0.1,1.4-0.4l0.7,1.2c-0.7,0.5-1.7,0.7-2.4,0.7
			C162.9,413.7,161.4,412.5,161.4,410.5z"/>
		<path d="M175.9,411.8c0-1.3,1.1-2,3.8-2.2c-0.1-0.4-0.5-0.6-1.2-0.6c-0.5,0-1,0.2-1.7,0.5l-0.7-1.3c0.9-0.5,1.8-0.8,2.9-0.8
			c1.7,0,2.8,0.8,2.8,2.8v3.3h-1.7l-0.1-0.6h0c-0.6,0.4-1.3,0.8-2,0.8C176.6,413.7,175.9,412.8,175.9,411.8z M179.7,411.6v-0.8
			c-1.5,0-1.8,0.4-1.8,0.8c0,0.3,0.2,0.4,0.6,0.4C179,412.1,179.4,411.9,179.7,411.6z"/>
		<path d="M183.2,407.5h1.7l0.1,0.7h0c0.5-0.5,1.1-0.9,2-0.9c1.3,0,1.9,1,1.9,2.4v3.7h-2.1v-3.4c0-0.7-0.2-1-0.7-1
			c-0.4,0-0.6,0.2-1,0.5v3.9h-2.1V407.5z"/>
		<path d="M190.2,410.5c0-2,1.2-3.1,2.5-3.1c0.6,0,1,0.2,1.4,0.6h0l-0.1-0.9v-1.9h2.1v8.3h-1.7l-0.1-0.6h0c-0.4,0.4-1,0.7-1.5,0.7
			C191.1,413.7,190.2,412.5,190.2,410.5z M194,411.6v-2.2c-0.2-0.2-0.5-0.3-0.8-0.3c-0.5,0-1,0.4-1,1.4c0,1.1,0.3,1.5,0.9,1.5
			C193.5,412,193.8,411.9,194,411.6z"/>
		<path d="M204.9,407.6l1.6-0.1h3.9v1.6h-5.5V407.6z M206.5,407.5c0-1.3,0.8-2.5,2.8-2.5c0.7,0,1.4,0.2,1.8,0.3l-0.4,1.5
			c-0.3-0.1-0.8-0.2-1.2-0.2c-0.6,0-1,0.2-1,0.9v6h-2.1V407.5z"/>
		<path d="M211.8,410.5c0-2,1.5-3.1,3.1-3.1c1.9,0,2.9,1.3,2.9,2.9c0,0.4-0.1,0.7-0.1,0.9h-4.4v-1.3h2.9l-0.3,0.4
			c0-0.8-0.3-1.2-1-1.2c-0.8,0-1.2,0.5-1.2,1.6c0,1.1,0.6,1.6,1.7,1.6c0.5,0,0.9-0.1,1.4-0.4l0.7,1.2c-0.7,0.5-1.7,0.7-2.4,0.7
			C213.3,413.7,211.8,412.5,211.8,410.5z"/>
		<path d="M219.1,411.8c0-1.3,1.1-2,3.8-2.2c-0.1-0.4-0.5-0.6-1.2-0.6c-0.5,0-1,0.2-1.7,0.5l-0.7-1.3c0.9-0.5,1.8-0.8,2.9-0.8
			c1.7,0,2.8,0.8,2.8,2.8v3.3h-1.7l-0.1-0.6h0c-0.6,0.4-1.3,0.8-2,0.8C219.8,413.7,219.1,412.8,219.1,411.8z M222.9,411.6v-0.8
			c-1.5,0-1.8,0.4-1.8,0.8c0,0.3,0.2,0.4,0.6,0.4C222.2,412.1,222.6,411.9,222.9,411.6z"/>
		<path d="M226.9,407.5h1.7l0.2,1.3h0c0.6-1,1.4-1.4,2.3-1.4c0.6,0,0.8,0.1,1.1,0.2l-0.4,1.7c-0.4-0.1-0.6-0.2-1-0.2
			c-0.7,0-1.4,0.4-1.9,1.4v3h-2.1V407.5z"/>
		<path d="M241.2,407.7l1.7-0.1h3.6v1.1h-5.2V407.7z M242.8,407.3c0-1.4,0.8-2.4,2.5-2.4c0.6,0,1.2,0.1,1.7,0.3l-0.3,1
			c-0.4-0.2-0.8-0.3-1.3-0.3c-0.9,0-1.3,0.5-1.3,1.3v6.2h-1.4V407.3z"/>
		<path d="M247.9,410.6c0-2,1.4-3.1,3-3.1s3,1.1,3,3.1c0,2-1.4,3.1-3,3.1S247.9,412.5,247.9,410.6z M252.4,410.6c0-1.2-0.6-2-1.5-2
			c-1,0-1.5,0.8-1.5,2c0,1.2,0.6,2,1.5,2C251.8,412.5,252.4,411.8,252.4,410.6z"/>
		<path d="M256,407.6h1.1l0.1,1.3h0c0.6-1,1.5-1.5,2.5-1.5c0.5,0,0.8,0.1,1.1,0.2l-0.3,1.2c-0.4-0.1-0.6-0.2-1.1-0.2
			c-0.8,0-1.6,0.4-2.2,1.6v3.2H256V407.6z"/>
		<path d="M75.2,425c0-1.9,1.5-3.1,3-3.1c1.8,0,2.7,1.2,2.7,2.8c0,0.3,0,0.5-0.1,0.7h-4.7v-1H80l-0.3,0.3c0-1.2-0.5-1.8-1.5-1.8
			c-1,0-1.7,0.7-1.7,2c0,1.4,0.8,2,2,2c0.6,0,1.1-0.2,1.7-0.5l0.5,0.9c-0.6,0.4-1.4,0.7-2.3,0.7C76.6,428.1,75.2,426.9,75.2,425z"/>
		<path d="M84.4,424.9l-2-2.8h1.5l0.8,1.1c0.2,0.3,0.4,0.7,0.6,1h0c0.2-0.3,0.4-0.7,0.6-1l0.7-1.1h1.5l-2,3l2.1,2.9h-1.5l-0.8-1.2
			c-0.2-0.3-0.5-0.7-0.7-1h0c-0.2,0.3-0.4,0.7-0.6,1.1l-0.8,1.2h-1.5L84.4,424.9z"/>
		<path d="M91.1,425.6v-2.4h-1.6v-1l1.6-0.1l0.2-1.8h1.1v1.8h2.7v1.1h-2.7v2.4c0,1,0.4,1.4,1.4,1.4c0.5,0,0.9-0.1,1.3-0.2l0.3,1
			c-0.5,0.2-1.1,0.3-1.9,0.3C91.7,428.1,91.1,427.1,91.1,425.6z"/>
		<path d="M97.6,422h1.1l0.1,1.3h0c0.6-1,1.5-1.5,2.5-1.5c0.5,0,0.8,0.1,1.1,0.2l-0.3,1.2c-0.4-0.1-0.6-0.2-1.1-0.2
			c-0.8,0-1.6,0.4-2.2,1.6v3.2h-1.4V422z"/>
		<path d="M104,425c0-1.9,1.5-3.1,3-3.1c1.8,0,2.7,1.2,2.7,2.8c0,0.3,0,0.5-0.1,0.7H105v-1h3.8l-0.3,0.3c0-1.2-0.5-1.8-1.5-1.8
			c-1,0-1.7,0.7-1.7,2c0,1.4,0.8,2,2,2c0.6,0,1.1-0.2,1.7-0.5l0.5,0.9c-0.6,0.4-1.4,0.7-2.3,0.7C105.4,428.1,104,426.9,104,425z"/>
		<path d="M111,422h1.1l0.1,0.8h0c0.3-0.5,0.6-0.9,1.3-0.9c0.5,0,0.9,0.3,1.1,1c0.3-0.6,0.7-1,1.3-1c0.8,0,1.3,0.7,1.3,1.9v4.2h-1.3
			v-4.1c0-0.5-0.1-0.8-0.5-0.8c-0.3,0-0.5,0.2-0.7,0.7v4.1h-1.1v-4.1c0-0.5-0.1-0.8-0.5-0.8c-0.3,0-0.5,0.2-0.7,0.7v4.1H111V422z"/>
		<path d="M118.4,425c0-1.9,1.5-3.1,3-3.1c1.8,0,2.7,1.2,2.7,2.8c0,0.3,0,0.5-0.1,0.7h-4.7v-1h3.8l-0.3,0.3c0-1.2-0.5-1.8-1.5-1.8
			c-1,0-1.7,0.7-1.7,2c0,1.4,0.8,2,2,2c0.6,0,1.1-0.2,1.7-0.5l0.5,0.9c-0.6,0.4-1.4,0.7-2.3,0.7C119.8,428.1,118.4,426.9,118.4,425z
			"/>
		<path d="M132.8,427.2l0.6-0.9c0.7,0.5,1.5,0.7,2.5,0.7c0.8,0,1.2-0.3,1.2-0.7c0-0.4-0.3-0.6-1.6-0.9c-1.6-0.3-2.3-0.9-2.3-1.8
			c0-1,0.9-1.8,2.6-1.8c1,0,1.9,0.4,2.5,0.8l-0.6,0.9c-0.6-0.4-1.3-0.6-2-0.6c-0.8,0-1.1,0.3-1.1,0.7c0,0.4,0.4,0.6,1.5,0.8
			c1.9,0.4,2.4,0.9,2.4,1.9c0,1-1,1.8-2.8,1.8C134.6,428.1,133.5,427.7,132.8,427.2z"/>
		<path d="M140.2,422h1.1l0.1,0.7h0c0.5-0.5,1.2-0.8,1.9-0.8c1.5,0,2.4,1.2,2.4,3c0,2-1.2,3.2-2.6,3.2c-0.5,0-1.1-0.3-1.6-0.7h0
			l0.1,1v1.9h-1.4V422z M144.4,424.9c0-1.2-0.4-1.9-1.4-1.9c-0.4,0-0.9,0.2-1.4,0.7v2.6c0.4,0.4,0.9,0.5,1.3,0.5
			C143.7,426.9,144.4,426.2,144.4,424.9z"/>
		<path d="M147.1,425c0-2,1.4-3.1,3-3.1s3,1.1,3,3.1c0,2-1.4,3.1-3,3.1S147.1,426.9,147.1,425z M151.6,425c0-1.2-0.6-2-1.5-2
			c-1,0-1.5,0.8-1.5,2c0,1.2,0.6,2,1.5,2C151,426.9,151.6,426.2,151.6,425z"/>
		<path d="M155.2,422h1.1l0.1,1.3h0c0.6-1,1.5-1.5,2.5-1.5c0.5,0,0.8,0.1,1.1,0.2l-0.3,1.2c-0.4-0.1-0.6-0.2-1.1-0.2
			c-0.8,0-1.6,0.4-2.2,1.6v3.2h-1.4V422z"/>
		<path d="M163.1,425.6v-2.4h-1.6v-1l1.6-0.1l0.2-1.8h1.1v1.8h2.7v1.1h-2.7v2.4c0,1,0.4,1.4,1.4,1.4c0.5,0,0.9-0.1,1.3-0.2l0.3,1
			c-0.5,0.2-1.1,0.3-1.9,0.3C163.7,428.1,163.1,427.1,163.1,425.6z"/>
		<path d="M177.5,427.3L177.5,427.3l-0.2,0.6h-1.1v-8.5h1.4v2.2l-0.1,1h0c0.5-0.5,1.2-0.8,1.8-0.8c1.5,0,2.4,1.2,2.4,3
			c0,2-1.2,3.2-2.6,3.2C178.6,428.1,178,427.8,177.5,427.3z M180.4,424.9c0-1.2-0.4-1.9-1.4-1.9c-0.4,0-0.9,0.2-1.4,0.7v2.6
			c0.4,0.4,0.9,0.5,1.3,0.5C179.7,426.9,180.4,426.2,180.4,424.9z"/>
		<path d="M183.3,425.7V422h1.4v3.5c0,0.9,0.3,1.4,1.1,1.4c0.6,0,1-0.2,1.5-0.9v-4h1.4v5.9h-1.1l-0.1-0.9h0
			c-0.6,0.6-1.2,1.1-2.1,1.1C183.9,428.1,183.3,427.2,183.3,425.7z"/>
		<path d="M191.9,425.6v-2.4h-1.6v-1l1.6-0.1l0.2-1.8h1.1v1.8h2.7v1.1h-2.7v2.4c0,1,0.4,1.4,1.4,1.4c0.5,0,0.9-0.1,1.3-0.2l0.3,1
			c-0.5,0.2-1.1,0.3-1.9,0.3C192.5,428.1,191.9,427.1,191.9,425.6z"/>
		<path d="M204.8,427.2l0.6-0.9c0.7,0.5,1.5,0.7,2.5,0.7c0.8,0,1.2-0.3,1.2-0.7c0-0.4-0.3-0.6-1.6-0.9c-1.6-0.3-2.3-0.9-2.3-1.8
			c0-1,0.9-1.8,2.6-1.8c1,0,1.9,0.4,2.5,0.8l-0.6,0.9c-0.6-0.4-1.3-0.6-2-0.6c-0.8,0-1.1,0.3-1.1,0.7c0,0.4,0.4,0.6,1.5,0.8
			c1.9,0.4,2.4,0.9,2.4,1.9c0,1-1,1.8-2.8,1.8C206.6,428.1,205.5,427.7,204.8,427.2z"/>
		<path d="M213.5,425.6v-2.4H212v-1l1.6-0.1l0.2-1.8h1.1v1.8h2.7v1.1h-2.7v2.4c0,1,0.4,1.4,1.4,1.4c0.5,0,0.9-0.1,1.3-0.2l0.3,1
			c-0.5,0.2-1.1,0.3-1.9,0.3C214.1,428.1,213.5,427.1,213.5,425.6z"/>
		<path d="M222,423.1h-2.5V422h3.9v5.9H222V423.1z M221.6,420c0-0.6,0.4-0.9,1-0.9s1,0.4,1,0.9c0,0.6-0.4,0.9-1,0.9
			S221.6,420.6,221.6,420z"/>
		<path d="M228.4,425.8v-5.2h-2v-1.1h3.4v6.4c0,0.8,0.5,1.1,1.1,1.1c0.3,0,0.6-0.1,1-0.2l0.3,1c-0.6,0.2-1,0.3-1.7,0.3
			C229.1,428.1,228.4,427.2,228.4,425.8z"/>
		<path d="M235.6,425.8v-5.2h-2v-1.1h3.4v6.4c0,0.8,0.5,1.1,1.1,1.1c0.3,0,0.6-0.1,1-0.2l0.3,1c-0.6,0.2-1,0.3-1.7,0.3
			C236.3,428.1,235.6,427.2,235.6,425.8z"/>
		<path d="M74.5,436.4h1.4l0.5,3.1c0.1,0.6,0.2,1.1,0.2,1.7h0c0.1-0.6,0.2-1.1,0.3-1.7l0.5-2.5h1.1l0.5,2.5c0.1,0.6,0.3,1.1,0.3,1.7
			h0c0.1-0.6,0.1-1.1,0.2-1.7l0.5-3.1h1.3l-1.1,5.9h-1.7l-0.5-2.4c-0.1-0.5-0.2-1-0.3-1.7h0c-0.1,0.6-0.1,1.2-0.2,1.7l-0.5,2.4h-1.7
			L74.5,436.4z"/>
		<path d="M82.5,440.7c0-1.3,1.2-2,4.1-2.2c0-0.7-0.4-1.2-1.4-1.2c-0.7,0-1.3,0.3-1.9,0.6l-0.5-0.9c0.7-0.4,1.7-0.8,2.7-0.8
			c1.6,0,2.5,0.9,2.5,2.5v3.5h-1.1l-0.1-0.7h0c-0.6,0.5-1.4,0.9-2.2,0.9C83.3,442.5,82.5,441.8,82.5,440.7z M86.6,440.7v-1.2
			c-2.1,0.1-2.7,0.6-2.7,1.2c0,0.5,0.5,0.7,1,0.7C85.5,441.4,86,441.1,86.6,440.7z"/>
		<path d="M89.8,436.4H91l0.1,0.9h0c0.6-0.6,1.2-1,2.1-1c1.4,0,2,0.9,2,2.4v3.6h-1.4v-3.5c0-0.9-0.3-1.4-1.1-1.4
			c-0.6,0-1,0.3-1.5,0.8v4h-1.4V436.4z"/>
		<path d="M98.3,440v-2.4h-1.6v-1l1.6-0.1l0.2-1.8h1.1v1.8h2.7v1.1h-2.7v2.4c0,1,0.4,1.4,1.4,1.4c0.5,0,0.9-0.1,1.3-0.2l0.3,1
			c-0.5,0.2-1.1,0.3-1.9,0.3C98.9,442.5,98.3,441.5,98.3,440z"/>
		<path d="M112.7,440v-2.4h-1.6v-1l1.6-0.1l0.2-1.8h1.1v1.8h2.7v1.1h-2.7v2.4c0,1,0.4,1.4,1.4,1.4c0.5,0,0.9-0.1,1.3-0.2l0.3,1
			c-0.5,0.2-1.1,0.3-1.9,0.3C113.3,442.5,112.7,441.5,112.7,440z"/>
		<path d="M118.3,439.4c0-2,1.4-3.1,3-3.1s3,1.1,3,3.1c0,2-1.4,3.1-3,3.1S118.3,441.3,118.3,439.4z M122.8,439.4c0-1.2-0.6-2-1.5-2
			s-1.5,0.8-1.5,2c0,1.2,0.6,2,1.5,2S122.8,440.6,122.8,439.4z"/>
		<path d="M134.3,440v-2.4h-1.6v-1l1.6-0.1l0.2-1.8h1.1v1.8h2.7v1.1h-2.7v2.4c0,1,0.4,1.4,1.4,1.4c0.5,0,0.9-0.1,1.3-0.2l0.3,1
			c-0.5,0.2-1.1,0.3-1.9,0.3C134.9,442.5,134.3,441.5,134.3,440z"/>
		<path d="M140.8,436.4h1.1l0.1,1.3h0c0.6-1,1.5-1.5,2.5-1.5c0.5,0,0.8,0.1,1.1,0.2l-0.3,1.2c-0.4-0.1-0.6-0.2-1.1-0.2
			c-0.8,0-1.6,0.4-2.2,1.6v3.2h-1.4V436.4z"/>
		<path d="M147.3,444.6l0.3-1.1c0.2,0,0.3,0.1,0.5,0.1c0.7,0,1.2-0.4,1.4-1l0.1-0.4l-2.6-5.8h1.4l1.2,2.9c0.2,0.5,0.4,1.1,0.7,1.7h0
			c0.2-0.6,0.4-1.2,0.6-1.7l1.1-2.9h1.3l-2.5,6.2c-0.5,1.3-1.2,2.1-2.6,2.1C147.8,444.7,147.5,444.7,147.3,444.6z"/>
		<path d="M156.1,441.3c0-0.7,0.5-1.2,1.2-1.2c0.7,0,1.2,0.5,1.2,1.2c0,0.7-0.5,1.2-1.2,1.2C156.6,442.5,156.1,442,156.1,441.3z"/>
	</g>
</g>
<g>
	<g>
		<path d="M75,280.8c0-2.6,1.5-4.1,3.6-4.1c1,0,1.8,0.5,2.2,1l-0.8,0.9c-0.4-0.4-0.8-0.6-1.4-0.6c-1.2,0-2.1,1.1-2.1,2.8
			c0,1.8,0.8,2.9,2.1,2.9c0.4,0,0.8-0.1,1.1-0.3v-1.7h-1.3v-1.1h2.6v3.5c-0.5,0.5-1.4,0.9-2.4,0.9C76.5,284.9,75,283.4,75,280.8z"/>
		<path d="M82.2,281.8c0-2,1.4-3.1,3-3.1s3,1.1,3,3.1c0,2-1.4,3.1-3,3.1S82.2,283.7,82.2,281.8z M86.7,281.8c0-1.2-0.6-2-1.5-2
			s-1.5,0.8-1.5,2c0,1.2,0.6,2,1.5,2S86.7,283,86.7,281.8z"/>
		<path d="M98.3,282.4v-2.4h-1.6v-1l1.6-0.1l0.2-1.8h1.1v1.8h2.7v1.1h-2.7v2.4c0,1,0.4,1.4,1.4,1.4c0.5,0,0.9-0.1,1.3-0.2l0.3,1
			c-0.5,0.2-1.1,0.3-1.9,0.3C98.9,284.9,98.3,283.9,98.3,282.4z"/>
		<path d="M103.8,281.8c0-2,1.4-3.1,3-3.1s3,1.1,3,3.1c0,2-1.4,3.1-3,3.1S103.8,283.7,103.8,281.8z M108.3,281.8c0-1.2-0.6-2-1.5-2
			s-1.5,0.8-1.5,2c0,1.2,0.6,2,1.5,2S108.3,283,108.3,281.8z"/>
		<path d="M118.5,278.8l1.6-0.1h3.9v1.6h-5.5V278.8z M120,278.7c0-1.3,0.8-2.5,2.8-2.5c0.7,0,1.4,0.2,1.8,0.3l-0.4,1.5
			c-0.3-0.1-0.8-0.2-1.2-0.2c-0.6,0-1,0.2-1,0.9v6H120V278.7z"/>
		<path d="M128,280.3h-2.3v-1.6h4.3v6H128V280.3z M127.6,276.7c0-0.7,0.6-1.2,1.3-1.2s1.3,0.5,1.3,1.2s-0.6,1.2-1.3,1.2
			S127.6,277.4,127.6,276.7z"/>
		<path d="M132.8,278.7h1.7l0.1,0.7h0c0.5-0.5,1.1-0.9,2-0.9c1.3,0,1.9,1,1.9,2.4v3.7h-2.1v-3.4c0-0.7-0.2-1-0.7-1
			c-0.4,0-0.6,0.2-1,0.5v3.9h-2.1V278.7z"/>
		<path d="M139.7,281.7c0-2,1.2-3.1,2.5-3.1c0.6,0,1,0.2,1.4,0.6h0l-0.1-0.9v-1.9h2.1v8.3h-1.7l-0.1-0.6h0c-0.4,0.4-1,0.7-1.5,0.7
			C140.7,284.9,139.7,283.7,139.7,281.7z M143.6,282.8v-2.2c-0.2-0.2-0.5-0.3-0.8-0.3c-0.5,0-1,0.4-1,1.4c0,1.1,0.3,1.5,0.9,1.5
			C143.1,283.2,143.3,283.1,143.6,282.8z"/>
		<path d="M153.9,278.7h1.5l0.1,0.7h0c0.2-0.5,0.6-0.9,1.3-0.9c0.5,0,0.9,0.3,1,1c0.2-0.5,0.6-1,1.3-1c0.9,0,1.3,0.8,1.3,2v4.2h-1.9
			v-4c0-0.3,0-0.4-0.2-0.4c-0.2,0-0.3,0.1-0.4,0.5v3.9h-1.6v-4c0-0.3-0.1-0.4-0.2-0.4c-0.1,0-0.3,0.1-0.4,0.5v3.9h-1.9V278.7z"/>
		<path d="M161.3,281.7c0-2,1.5-3.1,3.1-3.1s3.1,1.2,3.1,3.1c0,2-1.5,3.1-3.1,3.1S161.3,283.7,161.3,281.7z M165.4,281.7
			c0-0.9-0.3-1.5-1-1.5c-0.7,0-1,0.6-1,1.5c0,0.9,0.3,1.5,1,1.5C165.1,283.2,165.4,282.6,165.4,281.7z"/>
		<path d="M169.2,278.7h1.7l0.2,1.3h0c0.6-1,1.4-1.4,2.3-1.4c0.6,0,0.8,0.1,1.1,0.2l-0.4,1.7c-0.4-0.1-0.6-0.2-1-0.2
			c-0.7,0-1.4,0.4-1.9,1.4v3h-2.1V278.7z"/>
		<path d="M175.8,281.7c0-2,1.5-3.1,3.1-3.1c1.9,0,2.9,1.3,2.9,2.9c0,0.4-0.1,0.7-0.1,0.9h-4.4V281h2.9l-0.3,0.4
			c0-0.8-0.3-1.2-1-1.2c-0.8,0-1.2,0.5-1.2,1.6c0,1.1,0.6,1.6,1.7,1.6c0.5,0,0.9-0.1,1.4-0.4l0.7,1.2c-0.7,0.5-1.7,0.7-2.4,0.7
			C177.3,284.9,175.8,283.7,175.8,281.7z"/>
		<path d="M190.2,281.7c0-2,1.5-3.1,3.1-3.1c1.9,0,2.9,1.3,2.9,2.9c0,0.4-0.1,0.7-0.1,0.9h-4.4V281h2.9l-0.3,0.4
			c0-0.8-0.3-1.2-1-1.2c-0.8,0-1.2,0.5-1.2,1.6c0,1.1,0.6,1.6,1.7,1.6c0.5,0,0.9-0.1,1.4-0.4l0.7,1.2c-0.7,0.5-1.7,0.7-2.4,0.7
			C191.7,284.9,190.2,283.7,190.2,281.7z"/>
		<path d="M199.1,281.6l-1.9-2.9h2.2l0.5,0.8c0.2,0.3,0.4,0.7,0.6,1h0c0.1-0.3,0.3-0.7,0.4-1l0.4-0.8h2.1l-1.9,3.1l2,2.9h-2.2
			l-0.6-0.8c-0.2-0.3-0.4-0.7-0.6-1h0c-0.2,0.3-0.3,0.7-0.5,1l-0.4,0.8h-2.1L199.1,281.6z"/>
		<path d="M204.7,281.7c0-2,1.7-3.1,3.5-3.1c0.9,0,1.8,0.3,2.3,0.8l-0.9,1.3c-0.4-0.3-0.8-0.4-1.2-0.4c-0.9,0-1.5,0.6-1.5,1.5
			c0,0.9,0.6,1.5,1.5,1.5c0.6,0,1.1-0.3,1.5-0.5l0.8,1.3c-0.7,0.6-1.7,0.9-2.5,0.9C206.2,284.9,204.7,283.7,204.7,281.7z"/>
		<path d="M214.4,280.3h-2.3v-1.6h4.3v6h-2.1V280.3z M214,276.7c0-0.7,0.6-1.2,1.3-1.2s1.3,0.5,1.3,1.2s-0.6,1.2-1.3,1.2
			S214,277.4,214,276.7z"/>
		<path d="M220.3,282.2v-1.8h-1.4v-1.5l1.5-0.1l0.3-1.8h1.7v1.8h2.4v1.6h-2.4v1.8c0,0.9,0.4,1.1,1.2,1.1c0.4,0,0.8-0.1,1.1-0.2
			l0.4,1.5c-0.5,0.1-1.2,0.3-2,0.3C221.1,284.9,220.3,283.8,220.3,282.2z"/>
		<path d="M228.8,280.3h-2.3v-1.6h4.3v6h-2.1V280.3z M228.4,276.7c0-0.7,0.6-1.2,1.3-1.2s1.3,0.5,1.3,1.2s-0.6,1.2-1.3,1.2
			S228.4,277.4,228.4,276.7z"/>
		<path d="M233.6,278.7h1.7l0.1,0.7h0c0.5-0.5,1.1-0.9,2-0.9c1.3,0,1.9,1,1.9,2.4v3.7h-2.1v-3.4c0-0.7-0.2-1-0.7-1
			c-0.4,0-0.6,0.2-1,0.5v3.9h-2.1V278.7z"/>
		<path d="M240.5,285.7c0-0.5,0.3-0.9,0.9-1.2v0c-0.3-0.2-0.6-0.5-0.6-1c0-0.4,0.3-0.8,0.7-1.1v0c-0.5-0.3-0.8-0.8-0.8-1.5
			c0-1.5,1.3-2.2,2.7-2.2c0.4,0,0.7,0,1,0.1h2.4v1.5h-1.1c0.1,0.1,0.2,0.4,0.2,0.6c0,1.4-1.1,2-2.5,2c-0.2,0-0.5,0-0.8-0.1
			c-0.1,0.1-0.2,0.2-0.2,0.3c0,0.3,0.3,0.4,0.9,0.4h1c1.6,0,2.5,0.5,2.5,1.6c0,1.3-1.4,2.2-3.7,2.2
			C241.7,287.2,240.5,286.8,240.5,285.7z M244.9,285.4c0-0.3-0.3-0.4-0.9-0.4h-0.6c-0.5,0-0.7,0-0.9-0.1c-0.2,0.1-0.3,0.3-0.3,0.4
			c0,0.4,0.6,0.6,1.4,0.6S244.9,285.7,244.9,285.4z M244.1,280.8c0-0.6-0.3-0.8-0.7-0.8c-0.4,0-0.7,0.3-0.7,0.8
			c0,0.6,0.3,0.8,0.7,0.8C243.8,281.6,244.1,281.3,244.1,280.8z"/>
		<path d="M74.7,293.1h1.5l0.1,0.7h0c0.2-0.5,0.6-0.9,1.3-0.9c0.5,0,0.9,0.3,1,1c0.2-0.5,0.6-1,1.3-1c0.9,0,1.3,0.8,1.3,2v4.2h-1.9
			v-4c0-0.3,0-0.4-0.2-0.4c-0.2,0-0.3,0.1-0.4,0.5v3.9h-1.6v-4c0-0.3-0.1-0.4-0.2-0.4c-0.1,0-0.3,0.1-0.4,0.5v3.9h-1.9V293.1z"/>
		<path d="M82.1,296.1c0-2,1.5-3.1,3.1-3.1s3.1,1.2,3.1,3.1c0,2-1.5,3.1-3.1,3.1S82.1,298.1,82.1,296.1z M86.2,296.1
			c0-0.9-0.3-1.5-1-1.5c-0.7,0-1,0.6-1,1.5c0,0.9,0.3,1.5,1,1.5C85.9,297.6,86.2,297,86.2,296.1z"/>
		<path d="M89.1,293.1h1.5l0.1,0.7h0c0.2-0.5,0.6-0.9,1.3-0.9c0.5,0,0.9,0.3,1,1c0.2-0.5,0.6-1,1.3-1c0.9,0,1.3,0.8,1.3,2v4.2h-1.9
			v-4c0-0.3,0-0.4-0.2-0.4c-0.2,0-0.3,0.1-0.4,0.5v3.9h-1.6v-4c0-0.3-0.1-0.4-0.2-0.4c-0.1,0-0.3,0.1-0.4,0.5v3.9h-1.9V293.1z"/>
		<path d="M96.6,296.1c0-2,1.5-3.1,3.1-3.1c1.9,0,2.9,1.3,2.9,2.9c0,0.4-0.1,0.7-0.1,0.9h-4.4v-1.3h2.9l-0.3,0.4
			c0-0.8-0.3-1.2-1-1.2c-0.8,0-1.2,0.5-1.2,1.6c0,1.1,0.6,1.6,1.7,1.6c0.5,0,0.9-0.1,1.4-0.4l0.7,1.2c-0.7,0.5-1.7,0.7-2.4,0.7
			C98.1,299.3,96.6,298.1,96.6,296.1z"/>
		<path d="M104,293.1h1.7l0.1,0.7h0c0.5-0.5,1.1-0.9,2-0.9c1.3,0,1.9,1,1.9,2.4v3.7h-2.1v-3.4c0-0.7-0.2-1-0.7-1
			c-0.4,0-0.6,0.2-1,0.5v3.9H104V293.1z"/>
		<path d="M112.3,296.6v-1.8h-1.4v-1.5l1.5-0.1l0.3-1.8h1.7v1.8h2.4v1.6h-2.4v1.8c0,0.9,0.4,1.1,1.2,1.1c0.4,0,0.8-0.1,1.1-0.2
			l0.4,1.5c-0.5,0.1-1.2,0.3-2,0.3C113.1,299.3,112.3,298.2,112.3,296.6z"/>
		<path d="M128.4,294.3h-2.5v-1.1h3.9v5.9h-1.4V294.3z M128,291.2c0-0.6,0.4-0.9,1-0.9c0.6,0,1,0.4,1,0.9c0,0.6-0.4,0.9-1,0.9
			C128.4,292.2,128,291.8,128,291.2z"/>
		<path d="M133,293.2h1.1l0.1,0.9h0c0.6-0.6,1.2-1,2.1-1c1.4,0,2,0.9,2,2.4v3.6H137v-3.5c0-0.9-0.3-1.4-1.1-1.4
			c-0.6,0-1,0.3-1.5,0.8v4H133V293.2z"/>
		<path d="M147.4,290.7h1.4v2.2l-0.1,1.3h0c0.5-0.6,1.2-1,2.1-1c1.4,0,2,0.9,2,2.4v3.6h-1.4v-3.5c0-0.9-0.3-1.4-1.1-1.4
			c-0.6,0-1,0.3-1.5,0.8v4h-1.4V290.7z"/>
		<path d="M154.3,296.2c0-1.9,1.5-3.1,3-3.1c1.8,0,2.7,1.2,2.7,2.8c0,0.3,0,0.5-0.1,0.7h-4.7v-1h3.8l-0.3,0.3c0-1.2-0.5-1.8-1.5-1.8
			c-1,0-1.7,0.7-1.7,2c0,1.4,0.8,2,2,2c0.6,0,1.1-0.2,1.7-0.5l0.5,0.9c-0.6,0.4-1.4,0.7-2.3,0.7
			C155.8,299.3,154.3,298.1,154.3,296.2z"/>
		<path d="M162.4,293.2h1.1l0.1,1.3h0c0.6-1,1.5-1.5,2.5-1.5c0.5,0,0.8,0.1,1.1,0.2l-0.3,1.2c-0.4-0.1-0.6-0.2-1.1-0.2
			c-0.8,0-1.6,0.4-2.2,1.6v3.2h-1.4V293.2z"/>
		<path d="M177.9,297v-5.2h-2v-1.1h3.4v6.4c0,0.8,0.5,1.1,1.1,1.1c0.3,0,0.6-0.1,1-0.2l0.3,1c-0.6,0.2-1,0.3-1.7,0.3
			C178.6,299.3,177.9,298.4,177.9,297z"/>
		<path d="M186,294.3h-2.5v-1.1h3.9v5.9H186V294.3z M185.6,291.2c0-0.6,0.4-0.9,1-0.9s1,0.4,1,0.9c0,0.6-0.4,0.9-1,0.9
			S185.6,291.8,185.6,291.2z"/>
		<path d="M190.7,293.3l1.7-0.1h3.6v1.1h-5.2V293.3z M192.3,292.9c0-1.4,0.8-2.4,2.5-2.4c0.6,0,1.2,0.1,1.7,0.3l-0.3,1
			c-0.4-0.2-0.8-0.3-1.3-0.3c-0.9,0-1.3,0.5-1.3,1.3v6.2h-1.4V292.9z"/>
		<path d="M197.5,296.2c0-1.9,1.5-3.1,3-3.1c1.8,0,2.7,1.2,2.7,2.8c0,0.3,0,0.5-0.1,0.7h-4.7v-1h3.8l-0.3,0.3c0-1.2-0.5-1.8-1.5-1.8
			c-1,0-1.7,0.7-1.7,2c0,1.4,0.8,2,2,2c0.6,0,1.1-0.2,1.7-0.5l0.5,0.9c-0.6,0.4-1.4,0.7-2.3,0.7C199,299.3,197.5,298.1,197.5,296.2z
			"/>
	</g>
</g>
</svg>
