<?xml version="1.0" encoding="utf-8"?>
<!-- Generator: Adobe Illustrator 23.0.1, SVG Export Plug-In . SVG Version: 6.00 Build 0)  -->
<svg version="1.1" id="Layer_1" xmlns="http://www.w3.org/2000/svg" xmlns:xlink="http://www.w3.org/1999/xlink" x="0px" y="0px"
	 viewBox="0 0 160.6 120" style="enable-background:new 0 0 160.6 120;" xml:space="preserve">
<style type="text/css">
	.st0{fill-rule:evenodd;clip-rule:evenodd;fill:#5400D5;}
	.st1{fill:#FFFFFF;}
</style>
<path class="st0" d="M15,1.2L6.3,9.9c-0.8,0.8-1.2,1.8-1.2,2.8v10.5H2.9l-2.9,3v67.7l2.9,2.9h2.2v9c0,1.1,0.4,2.1,1.2,2.8l8.8,8.8
	c0.8,0.8,1.8,1.2,2.8,1.2h11v-8h-9.4l-6.4-6.4V14.4L19.5,8h9.4V0h-11C16.8,0,15.8,0.4,15,1.2z"/>
<path class="st0" d="M131.9,9.6h9.4l6.4,6.4v89.7l-6.4,6.4h-9.4v8h11c1.1,0,2.1-0.4,2.8-1.2l8.8-8.8c0.8-0.8,1.2-1.8,1.2-2.8V96.7
	h2.1l2.9-2.9V26.2l-2.9-2.9h-2.1v-9c0-1.1-0.4-2.1-1.2-2.8l-8.8-8.8C145,2,144,1.6,142.9,1.6h-11V9.6z"/>
<g>
	<path class="st1" d="M65.8,85.9c-0.1-0.2-0.2-0.4-0.1-0.6V73.8h10.6c0.8,0,1.6,0.3,2.2,0.8c0.4,0.4,0.7,0.9,0.9,1.5
		c0.1,0.6,0.1,1.2,0.1,1.8c0,0.5-0.3,1-0.6,1.4c-0.1,0.1-0.2,0.1-0.3,0.2c0.3,0.2,0.6,0.5,0.8,0.8c0.2,0.3,0.3,0.6,0.4,1
		s0.1,0.9,0.1,1.3c0,0.5-0.2,1-0.4,1.5c-0.4,1-1.4,1.6-2.5,1.7l-0.1,0.1L65.8,85.9z M69,83.2h1.2c1.7,0,3.3,0,5,0
		c0.6,0,1.2-0.1,1.5-0.8v-0.8L76,81.1c-0.5-0.1-1-0.2-1.5-0.1c-1.7,0-3.4,0-5.1,0H69V83.2z M75.7,76.5H69v1.9h5.8
		c0.5,0.1,1,0,1.4-0.4c0.1-0.2,0.2-0.3,0.2-0.5s-0.1-0.5-0.1-0.7L75.7,76.5z"/>
	<path class="st1" d="M38,85.9c-0.1,0-0.1-0.1-0.2-0.1c-0.3,0-0.5,0-0.8,0c-0.5,0-1-0.2-1.5-0.4c-0.8-0.4-1.3-1.1-1.5-1.9
		c-0.1-0.3-0.1-0.7-0.1-1c-0.1-0.3-0.1-0.6-0.1-0.9H37c0,0.2,0,0.4,0,0.6s0.1,0.5,0.2,0.6c0.2,0.1,0.4,0.2,0.6,0.2
		c0.1,0,0.2,0,0.3,0c2,0,4,0,6.1,0c0.3,0,0.6-0.1,0.9-0.1l0.2-0.3l0.1,0.1c0-0.1,0-0.2,0-0.2c0.3-0.3,0-0.6-0.1-0.8
		c-0.1-0.3-0.5-0.3-0.7-0.4c-0.8-0.1-1.7-0.1-2.6-0.1c-0.8-0.1-1.7-0.1-2.6-0.1c-0.1,0-0.1-0.1-0.2-0.1l-0.1,0.1
		c-0.2,0-0.4-0.1-0.6-0.1c-0.2,0-0.4,0-0.5,0c-0.7,0-1.4-0.1-2-0.3c-0.5-0.1-1-0.4-1.4-0.8c-0.3-0.4-0.6-0.8-0.7-1.3
		c-0.1-0.5-0.2-1.1-0.1-1.6c0.1-0.8,0.5-1.6,1.2-2.1c0.3-0.2,0.6-0.4,0.9-0.5c0.3-0.2,0.7-0.1,1-0.3H37c0.6,0,1.3-0.1,2-0.1
		c1.6,0,3.1,0,4.7,0c0.7,0,1.3,0,2,0.1c0.5,0,1,0.2,1.4,0.5c0.3,0.2,0.5,0.5,0.8,0.7c0.1,0.1,0.2,0.3,0.2,0.4
		c0.1,0.2,0.1,0.3,0.2,0.6c0,0.2,0,0.5,0.1,0.7c0,0.3,0,0.6,0,0.9h-3.3v-0.8l-0.4-0.4c-2-0.2-4-0.1-6-0.1c-0.5,0-0.9,0-1.3,0.2
		c-0.1,0-0.2,0.1-0.3,0.2c0,0.4,0,0.7,0.2,1.1c0.2,0.1,0.5,0.2,0.7,0.2c0.7,0.2,1.4,0,2.1,0.1c0.8,0.1,1.7,0,2.5,0.1
		c0.7,0.1,1.3,0.1,2,0.1c0.1,0,0.3,0.2,0.4,0c0.2,0.2,0.4,0.1,0.6,0.1c0.2,0,0.4,0,0.5,0c0.6,0.1,1.1,0.4,1.6,0.8
		c0.6,0.5,0.9,1.3,0.9,2c0,0.1,0.2,0.2,0.1,0.3c0,0.1,0.1,0.2,0.1,0.3c0,0.8-0.2,1.6-0.6,2.3c-0.4,0.7-1.1,1.2-1.9,1.3
		c-0.5,0.1-1.1,0.1-1.6,0.1c-0.1,0-0.2,0-0.2,0.1L38,85.9z"/>
	<path class="st1" d="M97.2,85.9V73.8c0.2,0,0.3,0,0.5,0c3.4,0,6.9,0,10.3,0c0.6,0,1.2,0.2,1.7,0.5c0.7,0.4,1.1,1.1,1.3,1.8
		c0.2,0.6,0.2,1.3,0.1,2c0,0.7-0.3,1.3-0.8,1.8c-0.1,0.1-0.3,0.2-0.4,0.3c0.5,0.3,0.9,0.7,1.1,1.3c0.2,0.5,0.3,1,0.2,1.5
		c0,0.5,0.1,1,0.1,1.5V86H108c0-0.6,0-1.3,0-1.9s-0.2-1.2-0.1-1.8l-0.6-0.7c-0.4,0-0.9-0.1-1.3-0.1c-1.8,0-3.5,0-5.3,0
		c-0.2,0-0.3,0-0.5,0V86L97.2,85.9z M100.3,78.8h6.8c0.1,0,0.2-0.1,0.3-0.1c0.4-0.1,0.6-0.5,0.5-0.9c0-0.2,0-0.4,0-0.6
		c-0.2-0.5-0.7-0.7-1.2-0.7h-6.4L100.3,78.8z"/>
	<path class="st1" d="M53.1,85.9c-0.1,0-0.1-0.1-0.2-0.1c-0.5,0-1-0.1-1.4-0.4c-0.8-0.4-1.4-1.2-1.6-2.1c-0.1-0.4-0.1-0.8-0.1-1.2
		v-8.3H53v0.5c0,2.4,0,4.7,0,7.1c0,0.3,0.1,0.5,0.1,0.8c0.1,0.3,0.4,0.6,0.7,0.7c0.6-0.1,1.3,0.2,2,0.1c0.7,0,1.4,0,2.1,0
		c0.8,0,1.5-0.2,2.3-0.1c0,0,0,0,0.1-0.1c0.4-0.2,0.7-0.6,0.6-1.1c0-2.5,0-4.9,0-7.3v-0.6h3.3v1.5c0,2.3,0,4.7,0,7
		c0,0.8-0.2,1.5-0.6,2.2c-0.4,0.6-0.9,1-1.6,1.2c-0.2,0.1-0.5,0.2-0.7,0.1c-0.1,0-0.2,0-0.2,0.1L53.1,85.9z"/>
	<path class="st1" d="M79.8,85.9c0.2-0.5,0.4-1,0.7-1.5c0.1-0.2,0.2-0.4,0.3-0.5c0.5-0.7,0.9-1.5,1.3-2.3s0.8-1.5,1.2-2.3
		c0.3-0.6,0.6-1.1,0.9-1.7c0.1-0.2,0.2-0.5,0.4-0.7l1.5-2.7c0.1-0.1,0.1-0.3,0.2-0.5H90c0.4,0.7,0.8,1.5,1.1,2.2
		c0.6,1.1,1.2,2.1,1.7,3.2c0.4,0.8,0.9,1.6,1.3,2.4c0.3,0.6,0.7,1.2,1,1.8c0.1,0.2,0.2,0.4,0.3,0.7c0.3,0.5,0.6,1.1,0.9,1.6
		c0,0.1,0,0.1,0,0.2h-3.6c-0.1-0.1-0.2-0.3-0.2-0.4l-0.9-1.8h-7.2L84.2,84c-0.3,0.6-0.6,1.2-1,1.8L79.8,85.9z M90.3,81.2
		c-0.1-0.2-0.2-0.3-0.4-0.5c-0.4-0.8-0.7-1.6-1.1-2.3c-0.2-0.5-0.5-0.9-0.8-1.5l-2.3,4.3H90.3z"/>
	<path class="st1" d="M115.8,85.9c0-0.2-0.2-0.1-0.3-0.1c-0.4,0-0.8-0.1-1.2-0.3c-0.8-0.4-1.5-1.2-1.7-2.1c0-0.1,0-0.3,0-0.4
		s0-0.2,0-0.2s-0.1-0.1,0-0.1c0-0.3,0.1-0.5,0.1-0.7c0-1.7,0-3.4,0-5.1v-3.2h3.1v7.4c-0.1,0.5,0,1,0.4,1.4l0.3,0.2
		c0.8-0.1,1.5,0.2,2.3,0.1c0.8,0,1.6,0,2.4,0c0.6,0,1.1-0.1,1.8-0.2l0.6-0.4c0.3-1.1,0.1-2.2,0.2-3.3c0-1.8,0-3.5,0-5.3h3.1V83
		l-0.1,0.1c-0.1,0.7-0.6,1.4-1.1,1.8c-0.5,0.3-1,0.5-1.6,0.6c-0.1,0-0.3-0.1-0.3,0.1h-8V85.9z"/>
	<path class="st1" d="M46,50.3v-0.6c0-0.7,0.2-1.3,0.3-2c0.2-0.7,0.4-1.4,0.7-2c0.2-0.4,0.4-0.8,0.6-1.1c0.4-0.7,0.9-1.4,1.5-2
		c0.5-0.6,1-1.2,1.6-1.7c0.8-0.7,1.6-1.3,2.4-1.9c1.6-1.1,3.3-2.1,5.1-2.9c1.1-0.5,2.2-0.9,3.3-1.3c0.6-0.2,1.2-0.4,1.8-0.6
		s1.3-0.4,2-0.6c0.7-0.2,1.5-0.4,2.2-0.6c0.3-0.1,0.5-0.1,0.8-0.1c0.3-0.1,0.6,0,0.8-0.1c0.2-0.1,0.6-0.1,0.8-0.2
		c0.4-0.1,0.7-0.2,1.1-0.2s0.9-0.1,1.3-0.2h0.1c0.5,0,0.9-0.1,1.4-0.1c0.5-0.1,1.1,0,1.6-0.1c0.5-0.1,1.1,0,1.6-0.1
		c0.9-0.1,1.9-0.2,2.8-0.1c0.9,0,1.9,0,2.8,0s1.7,0,2.6,0.1c0.5,0.1,1,0.1,1.5,0.1c0.3,0,0.5,0.2,0.7,0.1c0.2,0,0.5,0,0.7,0.1
		c0.4,0.1,0.9,0.1,1.3,0.1c0.2,0,0.4,0.1,0.6,0.1s0.3,0,0.5,0.1s0.3,0,0.5,0s0.3,0.1,0.4,0.1c0.6,0.1,1.1,0.2,1.7,0.4
		c1,0.1,1.9,0.4,2.8,0.6c0.8,0.2,1.6,0.5,2.4,0.8c0.5,0.1,1,0.4,1.5,0.5s1,0.4,1.5,0.5c0.6,0.2,1.1,0.5,1.6,0.7
		c0.3,0.1,0.6,0.2,0.8,0.3c1,0.6,2,1.1,3,1.7c0.7,0.5,1.4,1,2.1,1.4c0.3,0.2,0.7,0.5,1,0.8s0.6,0.6,0.9,0.8c0.5,0.4,0.9,0.9,1.3,1.4
		s0.7,0.9,1,1.4c0.2,0.2,0.3,0.5,0.4,0.7c0.4,0.7,0.7,1.5,1,2.3c0.1,0.3,0.2,0.7,0.3,1V48c0,0.5,0.1,1.1,0.1,1.6
		c0.1,0.5,0.1,1,0,1.6c0,0.5-0.1,1-0.3,1.5c-0.2,0.5-0.4,0.9-0.5,1.4c-0.3,1.1-1.1,2-1.6,2.9c-0.2,0.3-0.4,0.6-0.7,0.8
		c-0.7,0.7-1.4,1.4-2.1,2.1c-0.6,0.6-1.2,1.1-1.9,1.5c-0.5,0.5-1.1,0.8-1.7,1.2c-0.7,0.4-1.4,0.8-2.1,1.1c-0.5,0.3-1.1,0.6-1.6,0.8
		c-0.6,0.3-1.3,0.5-1.9,0.8c-1.2,0.5-2.4,0.8-3.6,1.2c-0.5,0.2-1.1,0.3-1.6,0.5s-1.1,0.3-1.7,0.4c-0.2,0-0.5,0.1-0.7,0.1
		c-0.3,0.1-0.6,0-0.9,0.2c-0.3,0.1-0.6,0-0.9,0.2c-0.4-0.1-0.7,0.1-1,0.1c-0.2,0-0.4,0.1-0.6,0.1S89,68,88.8,68.2c0,0,0,0-0.1,0
		c-0.5,0-1,0.1-1.5,0.1c-0.3,0-0.6,0.1-0.9,0.1s-0.6-0.1-0.9,0.1c0,0-0.1,0-0.2,0C84.7,68.7,84,69,83.3,69s-1.4,0-2.1,0
		c-1,0-2.1,0-3.1,0c-0.8,0-1.5-0.2-2.3-0.1c-0.4-0.2-0.8,0-1.2-0.1s-0.9,0-1.3-0.1c-0.3-0.1-0.6,0-0.9-0.1s-0.6,0-0.9-0.1
		s-0.5-0.1-0.8-0.1s-0.5-0.1-0.7-0.1c-0.5-0.1-1-0.2-1.4-0.3c-0.5-0.1-1-0.2-1.5-0.3c-0.5-0.1-1.1-0.3-1.6-0.4
		c-1-0.2-1.9-0.6-2.8-0.8c-0.6-0.1-1.2-0.4-1.7-0.6c-0.3-0.1-0.6-0.2-0.9-0.3S59.4,65,59,64.9c-0.9-0.4-1.7-0.8-2.5-1.2
		c-1.1-0.6-2.2-1.2-3.2-1.9c-0.6-0.4-1.2-1-1.8-1.4c-0.8-0.6-1.6-1.4-2.2-2.2c-0.7-0.7-1.2-1.5-1.7-2.3c-0.2-0.3-0.3-0.6-0.5-0.9
		c-0.3-0.7-0.6-1.3-0.8-2c-0.1-0.2-0.1-0.5-0.1-0.7c-0.2-0.4-0.2-0.7-0.2-1C46,50.9,46,50.6,46,50.3z M112.6,50.4c0-0.3,0-0.7-0.1-1
		s0-0.7-0.2-1c-0.3-0.9-0.7-1.8-1.1-2.7c-0.5-0.8-1-1.6-1.6-2.3c-0.5-0.6-1.1-1.1-1.7-1.6c-0.7-0.6-1.4-1.1-2.1-1.6
		c-0.8-0.6-1.7-1.1-2.6-1.6c-1.2-0.6-2.4-1.2-3.7-1.6c-0.5-0.2-0.9-0.4-1.3-0.5c-0.5-0.2-0.9-0.3-1.4-0.4c-0.3,0-0.7-0.3-1-0.3
		s-0.7-0.3-1.1-0.3c-0.2-0.2-0.5-0.1-0.7-0.2c-0.2-0.1-0.5-0.1-0.7-0.1s-0.5-0.1-0.7-0.1c-0.2-0.1-0.5,0-0.7-0.2
		c-0.7-0.1-1.4-0.2-2.1-0.4c-0.6-0.1-1.1-0.1-1.7-0.2c-0.2-0.1-0.5,0.1-0.7,0s-0.5-0.1-0.7-0.1s-0.5-0.1-0.7-0.1
		c-0.8,0-1.7-0.1-2.5-0.1c-0.3,0-0.6,0-0.9,0s-0.6,0-0.9-0.1c-0.3,0.2-0.6,0.1-0.9,0.1c-0.2,0-0.3,0-0.5,0s-0.4,0.1-0.5,0
		s-0.3,0-0.4,0c-0.5,0-1.1,0-1.6,0s-1,0.1-1.5,0.1s-0.9,0-1.3,0.1c-0.3,0.1-0.7,0-1,0.1c-0.4,0.1-0.7,0-1,0.1
		c-0.2,0.1-0.5,0-0.8,0.1s-0.6,0-0.9,0.1s-0.7,0.1-1,0.1c-0.3,0.1-0.7,0.1-1,0.2C69.1,35,68.8,35,68.6,35c-0.3,0-0.5,0.1-0.7,0.1
		s-0.5,0.2-0.7,0.2c-1,0.2-2,0.5-3,0.8c-1.7,0.5-3.4,1.2-5,1.9c-0.8,0.3-1.5,0.7-2.2,1.1c-0.3,0.2-0.6,0.3-0.9,0.5
		c-1.3,0.8-2.5,1.7-3.6,2.7c-0.5,0.4-0.9,0.9-1.3,1.4c-0.4,0.5-0.8,1-1.1,1.6s-0.6,1.1-0.8,1.7c-0.2,0.8-0.4,1.5-0.6,2.3
		c-0.1,0.8,0,1.6,0.1,2.4c0.1,0.2,0,0.5,0.1,0.7c0.3,0.9,0.7,1.8,1.2,2.7c0.4,0.7,1,1.4,1.6,2.1c0.9,1,1.9,1.9,2.9,2.6
		c0.9,0.6,1.8,1.2,2.8,1.8c1.2,0.6,2.4,1.2,3.6,1.7c1.1,0.4,2.1,0.8,3.2,1.2c0.6,0.2,1.2,0.3,1.7,0.5c0.7,0.2,1.4,0.4,2.1,0.5
		c0.2,0.1,0.4,0.1,0.6,0.1s0.4,0.1,0.5,0.1c0.2,0,0.3,0.1,0.5,0.1c0.3,0,0.6,0.2,1,0.1c0.5,0.3,1.2,0.2,1.7,0.3c0.3,0.1,0.6,0,1,0.1
		c0.3,0.1,0.6,0,1,0.1c0.3,0.1,0.8,0,1.2,0.1c0.5,0.1,1.1,0.1,1.6,0.1c1.1,0.1,2.3,0,3.4,0.1c0.8,0.1,1.5-0.1,2.3-0.1
		c0.7,0.1,1.3,0,2-0.1c0.5-0.1,1.1,0,1.7-0.1c0.3,0,0.7-0.1,1-0.1c0.3-0.1,0.6,0,0.9-0.1s0.6-0.1,0.9-0.1c0.4,0,0.7-0.1,1.1-0.2
		c0.4,0,0.7-0.1,1.1-0.2c0.3-0.1,0.5-0.1,0.8-0.1c0.2,0,0.5-0.1,0.7-0.2c0.3-0.2,0.6,0.1,0.8-0.2c0.5-0.1,1-0.2,1.5-0.4
		c0.5-0.1,1-0.3,1.5-0.4s0.9-0.3,1.4-0.5s1-0.3,1.4-0.5c0.8-0.3,1.6-0.7,2.4-1c1.1-0.5,2.1-1.1,3.1-1.7c1.1-0.7,2.2-1.5,3.2-2.4
		c0.7-0.6,1.4-1.3,2-2.1c0.2-0.2,0.3-0.4,0.4-0.5c0.5-0.7,0.9-1.5,1.3-2.3c0.2-0.6,0.4-1.2,0.6-1.8
		C112.5,51.5,112.6,50.9,112.6,50.4z"/>
	<path class="st1" d="M70.8,35.2l0.5,0.2c0,0.5,0.3,0.9,0.3,1.4c0.2,0.4,0.3,0.7,0.3,1.1c0.2,0.7,0.4,1.3,0.6,2
		c0.2,0.8,0.5,1.5,0.9,2.2c0.4,0.8,1.1,1.3,1.9,1.6c0.6,0.2,1.2,0.3,1.8,0.4c0.4,0.1,0.8,0,1.2,0.2h0.1c0.3,0,0.6,0,0.9,0.1
		s0.6-0.1,0.9,0.1h0.1c0.3,0,0.6,0,0.9,0.1s0.6,0,0.9,0.1H82c0.6,0,1.2,0.1,1.8,0.1c0.2,0,0.5,0.1,0.7,0.1s0.5-0.1,0.7,0.1
		c0,0,0.1,0,0.2,0c0.5,0,1,0.1,1.5,0.1c0.3,0,0.7,0.1,1,0.1c0.3,0.1,0.7,0.1,1,0.1c0.6,0.1,1.2,0.2,1.8,0.2c0.6,0.1,1.3,0,1.9,0
		c0.3,0,0.5-0.1,0.8-0.1c0.2,0,0.5,0.1,0.7-0.1h0.1c0.5,0,1-0.1,1.5-0.1c0.2,0,0.4-0.1,0.6-0.1s0.4-0.1,0.6-0.1
		c0.3-0.1,0.6-0.1,1-0.1c0.8-0.1,1.5-0.8,1.6-1.6c0-0.3,0.2-0.5,0.2-0.7c0.1-0.4,0.3-0.9,0.4-1.3h0.3c0.4,0.9,0.5,1.9,1,3
		c0.2,0.2,0.5,0.4,0.8,0.6c0.3,0.1,0.5,0.1,0.8,0.2c0.4,0.1,0.7,0.2,1.1,0.2c0.2,0,0.4,0.1,0.6,0.1s0.5,0.1,0.7,0.1s0.5-0.1,0.7,0
		c0.3,0.2,0.7,0,0.9,0.1s0.6,0,0.9,0.1l0.1,0.4c-0.3,0.1-0.7,0.2-1.1,0.2c-0.2,0-0.4,0.1-0.6,0.1s-0.4-0.1-0.5,0.1h-0.1
		c-0.4,0-0.9,0.1-1.3,0.1c-0.7,0.1-1.4,0.2-2.1,0.4c-0.1,0-0.2,0.1-0.4,0.1c-0.4,0.3-0.7,0.8-0.8,1.3c-0.2,0.7-0.3,1.4-0.6,2.1
		c0,0.1,0,0.3,0,0.4l-0.4,0.4c-0.1-0.3-0.2-0.6-0.3-1c-0.2-0.8-0.4-1.6-0.6-2.4c-0.1-0.3-0.4-0.5-0.6-0.8c-0.7-0.2-1.4-0.4-2.2-0.4
		c-0.2,0-0.4-0.2-0.7-0.1c-0.2,0.1-0.4,0-0.6-0.1c0,0-0.1,0-0.2,0c-0.3,0-0.6,0-0.9-0.1c-0.2-0.1-0.5,0-0.8-0.1c-0.1,0-0.2,0-0.3,0
		s-0.3,0-0.5,0s-0.4,0-0.5,0c-0.2-0.1-0.3,0.1-0.4,0.1s-0.2-0.1-0.3-0.1c-0.2,0-0.4,0.1-0.6,0.1c-0.6,0-1.2,0.1-1.8,0.1
		c-0.3,0.1-0.7,0.1-1,0.1c-0.3,0.1-0.5,0.1-0.8,0.1c-0.3-0.1-0.6,0-0.8,0.1c-0.1,0-0.2,0-0.2,0c-0.5,0-1.1,0.1-1.6,0.1
		c-0.3,0.1-0.7,0-1,0.1s-0.7,0.1-1,0.1c-0.2,0-0.4,0.1-0.6,0.1s-0.4-0.1-0.6,0.1h-0.1c-0.5,0-1,0.1-1.5,0.1
		c-0.6,0.1-1.3,0.2-1.9,0.3c-0.4,0-0.7,0-1.1,0.1c-0.7,0.1-1.3,0.2-2,0.5s-1.2,0.9-1.4,1.6c-0.2,0.4-0.3,0.9-0.4,1.3
		c-0.1,0.4-0.2,0.9-0.4,1.3c-0.2,0.5-0.3,1.1-0.4,1.6s-0.2,1-0.3,1.5c-0.1,0.5-0.2,1-0.3,1.5c-0.1,0.4-0.1,0.7-0.2,1.1
		c-0.2,0.2-0.4,0.2-0.5,0c-0.2-0.2,0.1-0.4-0.1-0.6s0-0.4-0.1-0.6c-0.2-0.2,0-0.4-0.1-0.6c-0.1-0.2-0.1-0.5-0.1-0.7
		c-0.1-0.5-0.2-0.9-0.3-1.3c-0.1-0.5-0.2-0.9-0.3-1.4c-0.2-0.5-0.3-1.1-0.4-1.6s-0.3-1-0.5-1.4c-0.3-0.6-0.8-1.2-1.4-1.5
		c-0.3-0.2-0.7-0.3-1-0.4c-0.4-0.1-0.9-0.2-1.3-0.3c-0.2,0-0.4-0.1-0.6-0.1s-0.4-0.1-0.6-0.1c-0.4-0.1-0.8-0.1-1.2-0.1
		c-0.2,0-0.5-0.1-0.7-0.1s-0.5,0.1-0.7-0.1c0,0,0,0-0.1,0c-0.5,0-0.9-0.1-1.4-0.1s-1-0.1-1.5-0.2h-0.1c-0.6,0-1.1-0.1-1.7-0.1
		c-0.3,0-0.5-0.1-0.8-0.1s-0.6,0.1-0.8-0.1c0,0-0.1,0-0.2,0c-0.6,0-1.1,0-1.7-0.1c-0.4,0-0.9-0.1-1.3-0.1c-0.2,0-0.3-0.1-0.5-0.2V46
		l0.2-0.2c0.6,0.1,1.1-0.2,1.7-0.1c0.4-0.1,0.8-0.2,1.2-0.1c0.3,0,0.5-0.2,0.7-0.1c0.2,0.1,0.5,0,0.7-0.1h0.1c0.6,0,1.2-0.1,1.8-0.1
		c0.2,0,0.4-0.1,0.6-0.1c0.2,0,0.4,0.1,0.6-0.1c0,0,0.1,0,0.2,0c0.6,0.1,1.1-0.2,1.7-0.1c0.2,0,0.4-0.1,0.6-0.1c0.2,0,0.4,0,0.5-0.1
		c0.3-0.1,0.7-0.1,1-0.1c0.6-0.1,1.3-0.2,2-0.3c0.3-0.3,0.7,0,1-0.2c0.3-0.1,0.6-0.2,1-0.3c0.8-0.2,1.5-0.8,1.9-1.6
		c0.2-0.4,0.4-0.8,0.6-1.3c0.2-0.4,0.3-0.9,0.4-1.4c0.3-0.7,0.4-1.5,0.7-2.2c0.1-0.4,0.2-0.7,0.3-1.1C70.6,35.9,70.8,35.6,70.8,35.2
		z"/>
	<path class="st1" d="M79.7,65.5c-0.1-0.3-0.3-0.5-0.3-0.7c0-0.5-0.3-1-0.3-1.5c0-0.2-0.1-0.5-0.2-0.7c-0.1-0.4-0.3-0.7-0.5-1.1
		c-0.2-0.3-0.6-0.5-1-0.5c-0.6-0.1-1.2-0.2-1.8-0.3c-0.3-0.2-0.7,0-1-0.1c-0.5-0.2-1,0-1.4-0.2c0,0,0,0-0.1,0c-0.5,0-1-0.1-1.5-0.2
		l-0.3-0.1c0.2-0.3,0.5-0.4,0.8-0.4c0.6-0.1,1.1-0.1,1.7-0.1c0.2-0.1,0.5-0.1,0.7-0.1c0.3,0.1,0.5,0,0.7-0.1c0.4,0,0.9,0,1.3-0.1
		s0.7-0.1,1.1-0.2c0.4-0.1,0.8-0.4,1-0.8c0.2-0.4,0.4-0.9,0.5-1.4c0.1-0.4,0.2-0.8,0.4-1.2c0.1-0.1,0.1-0.2,0.2-0.3
		c0.3,0.1,0.3,0.4,0.4,0.6c0.2,0.7,0.4,1.3,0.6,2c0.1,0.2,0.2,0.5,0.4,0.7c0,0.1,0.2,0.1,0.2,0.2c0.4,0.2,0.8,0.3,1.2,0.4
		c0.6,0.1,1.3,0.2,1.9,0.3c0.3,0.1,0.7,0.1,1,0.1c0.6,0.1,1.2,0.2,1.8,0.2c0.1,0,0.2,0,0.3,0.1l0.6-0.1c0.3,0,0.6,0.1,0.9-0.1
		c0.3-0.2,0.6,0.1,0.9-0.2c0.4,0.1,0.7-0.1,1-0.1c0.2,0,0.4-0.1,0.6-0.1s0.4,0,0.6-0.1c0.3-0.1,0.6,0,0.8-0.1
		c0.4-0.1,0.7-0.4,0.8-0.7c0.2-0.6,0.4-1.1,0.5-1.7c0-0.1,0.1-0.3,0.1-0.4c0.1-0.2,0.1-0.2,0.4-0.3c0.3,0.8,0.4,1.6,0.8,2.3
		c0.3,0.5,0.8,0.9,1.4,0.9c0.4,0,0.8,0.1,1.2,0.2h0.1c0.5,0,0.9,0.1,1.4,0.1c0.3,0,0.5,0.2,0.7,0.1c0.2,0,0.5,0,0.7,0.1
		c0.3,0,0.7,0,1,0l0.2,0.2v0l-0.1,0.1c-0.6,0-1.1,0.1-1.7,0.2c-0.3,0.1-0.6,0-0.9,0.1c-0.7,0.1-1.3,0.2-2,0.2
		c-0.3,0.2-0.7,0.1-1.1,0.2c-0.4,0.1-0.7,0.3-0.9,0.7c-0.3,0.5-0.5,1.1-0.6,1.7c0,0.4-0.2,0.7-0.5,0.9c-0.1-0.1-0.2-0.2-0.2-0.3
		c-0.1-0.3-0.1-0.6-0.2-0.8c-0.1-0.3-0.1-0.5-0.2-0.8s-0.2-0.6-0.4-0.9c-0.3-0.4-0.7-0.6-1.1-0.7c-0.2-0.1-0.5,0-0.7-0.1
		c-0.4-0.1-0.8-0.1-1.2-0.2c-0.3-0.1-0.6,0-0.9-0.1s-0.6,0-0.9-0.1c-0.7-0.2-1.4-0.1-2.1-0.1c-0.2,0-0.4,0.1-0.6,0.1
		s-0.4,0.1-0.6,0.1c-0.3,0.1-0.7,0.1-1,0.1c-0.7,0-1.3,0.3-2,0.3c-0.2,0.2-0.4,0.1-0.6,0.1c-0.6,0.1-1,0.5-1.2,1.1
		c-0.3,0.7-0.4,1.5-0.7,2.3c0.2,0.4,0.2,0.7,0.2,1C80,65.2,79.9,65.3,79.7,65.5z"/>
	<path class="st1" d="M104.3,48.9l0.2,0.4l0,0c0.1,0.4,0.2,0.8,0.3,1.1c0.1,0.2,0.1,0.3,0.2,0.5c0.2,0.7,0.8,1.1,1.5,1.2
		c0.4,0.1,0.8,0.2,1.2,0.1c0.2,0.3,0.6,0,0.8,0.2c0,0,0.1,0,0.2,0c0.5,0,0.9,0.1,1.4,0.1c0.2,0,0.4,0.1,0.6,0.2v0.4
		c-0.4,0.1-0.8,0.1-1.2,0.2c-0.2,0-0.4,0-0.6,0.1c-0.2,0-0.4-0.1-0.6,0.1c-0.1,0.1-0.2,0-0.3,0c-0.2,0-0.4,0-0.6,0.1
		c-0.1,0.1-0.3,0-0.5,0.1s-0.5,0.2-0.8,0.2c-0.4,0.1-0.7,0.3-0.9,0.6c-0.2,0.5-0.4,0.9-0.5,1.4s-0.3,0.9-0.4,1.5l-0.4-0.1
		c-0.1-0.5-0.2-1-0.3-1.4c-0.1-0.4-0.2-0.7-0.3-1.1c-0.1-0.5-0.5-0.8-1-0.9c-0.2,0-0.4-0.1-0.7-0.2c-0.2-0.2-0.5,0-0.7-0.2
		s-0.4,0-0.7-0.1c-0.2-0.1-0.5-0.1-0.8-0.1c-0.5-0.1-1.1-0.1-1.6-0.1c-0.4,0-0.7,0-1,0.1s-0.7-0.1-1,0.1c-0.4,0-0.8,0-1.2,0.1
		c-0.8,0.1-1.5,0.2-2.3,0.4c-0.4,0-0.7,0.2-1,0.4c-0.1,0.2-0.3,0.3-0.4,0.5c-0.2,0.7-0.4,1.5-0.6,2.2c-0.1,0.3-0.1,0.6-0.1,0.9
		l-0.3,0.3L89.8,58c-0.2-1.1-0.5-2.2-0.8-3.3c-0.1-0.1-0.3-0.2-0.4-0.4C88.3,54.1,88,54,87.7,54c-0.4-0.1-0.8,0-1.2-0.2
		c-0.4-0.1-0.6,0-0.9-0.1s-0.6,0-0.9-0.1c-0.4-0.1-0.8,0-1.2-0.1c-0.2-0.1-0.5-0.1-0.7-0.1s-0.4-0.1-0.7-0.1c-0.1,0-0.2,0-0.2,0
		L81.6,53c0.1-0.1,0.2-0.2,0.2-0.2c0.3-0.1,0.6-0.1,1-0.1c0.3,0,0.6-0.1,0.9-0.1s0.6,0.1,0.9-0.1c0,0,0,0,0.1,0c0.5,0,1-0.1,1.5-0.1
		c0.2,0,0.4-0.2,0.7-0.1c0.3,0.1,0.4-0.1,0.6-0.1s0.5-0.1,0.7-0.1c0.5-0.1,0.9-0.5,1.1-1c0.1-0.3,0.2-0.7,0.3-1
		c0.1-0.3,0.2-0.6,0.3-1c0-0.1,0-0.2,0-0.4c0.1-0.1,0.3-0.1,0.4-0.1s0.2,0.2,0.2,0.3c0.2,0.7,0.4,1.3,0.6,2s0.8,1.2,1.5,1.3
		c0.6,0.1,1.1,0.2,1.7,0.3c0.3,0.3,0.7,0,1,0.2c0.4-0.1,0.8,0.1,1.3,0.1c0.3,0,0.6,0.1,0.9,0.1s0.6,0,0.8,0c0.3,0,0.5,0,0.8-0.1
		c0.2-0.1,0.6,0.1,0.8-0.1c0.5,0.1,1-0.2,1.5-0.3c0.4-0.1,0.8-0.1,1.2-0.2c0.3-0.1,0.6-0.3,0.7-0.6c0.3-0.5,0.5-1.1,0.6-1.6
		c0.1-0.3,0.2-0.5,0.3-0.8L104.3,48.9z"/>
</g>
</svg>
