<?xml version="1.0" encoding="utf-8"?>
<!-- Generator: Adobe Illustrator 25.0.0, SVG Export Plug-In . SVG Version: 6.00 Build 0)  -->
<svg version="1.1" id="Layer_1" xmlns="http://www.w3.org/2000/svg" xmlns:xlink="http://www.w3.org/1999/xlink" x="0px" y="0px"
	 viewBox="0 0 581 328.8" style="enable-background:new 0 0 581 328.8;" xml:space="preserve">
<style type="text/css">
	.st0{fill:#5400D5;}
	.st1{fill-rule:evenodd;clip-rule:evenodd;fill-opacity:0;}
	.st2{fill:none;stroke:#5400D5;stroke-width:16;stroke-linejoin:round;stroke-miterlimit:10;}
	.st3{fill:none;stroke:#5400D5;stroke-width:2;stroke-linejoin:round;stroke-miterlimit:10;stroke-dasharray:2,6;}
	.st4{fill:#FF008A;}
	.st5{fill:#FF8F00;}
	.st6{fill:none;stroke:#FF008A;stroke-linejoin:round;stroke-miterlimit:10;}
	.st7{fill-rule:evenodd;clip-rule:evenodd;fill:#FF8F00;}
	.st8{fill:#FFFFFF;}
	.st9{fill-rule:evenodd;clip-rule:evenodd;fill:#5400D5;}
	.st10{fill:none;stroke:#5400D5;stroke-linejoin:round;stroke-miterlimit:10;}
	.st11{fill-rule:evenodd;clip-rule:evenodd;fill:#FF008A;}
	.st12{fill:none;stroke:#FF008A;stroke-linejoin:round;stroke-miterlimit:10;stroke-dasharray:8,3,1,3;}
</style>
<g>
	<path class="st0" d="M271.3,79.7v-9.6h8c0.4,0,0.8,0.2,1.1,0.5s0.5,0.7,0.5,1.1v2.8c0,0.4-0.2,0.8-0.5,1.1s-0.7,0.5-1.1,0.5h-6.9
		v3.6H271.3z M272.9,75h6.4c0.1,0,0.3,0,0.4-0.1s0.2-0.2,0.2-0.4v-2.8c0-0.1-0.1-0.3-0.2-0.4c-0.1-0.1-0.2-0.2-0.4-0.2h-6.4
		c-0.1,0-0.3,0.1-0.4,0.2c-0.1,0.1-0.1,0.2-0.1,0.4v2.8c0,0.1,0,0.3,0.1,0.4C272.6,75,272.7,75,272.9,75z M281.8,79.7v-6.1
		c0-0.4,0.2-0.8,0.5-1.1c0.3-0.3,0.7-0.5,1.2-0.5h4.3v1.1h-4.3c-0.1,0-0.3,0.1-0.4,0.2c-0.1,0.1-0.2,0.2-0.2,0.4v6.1H281.8z
		 M290.2,79.7c-0.4,0-0.8-0.2-1.1-0.5c-0.3-0.3-0.5-0.7-0.5-1.1v-4.5c0-0.4,0.2-0.8,0.5-1.1c0.3-0.3,0.7-0.5,1.1-0.5h4.6
		c0.4,0,0.8,0.2,1.1,0.5c0.3,0.3,0.5,0.7,0.5,1.1v2.8h-6.8v1.7c0,0.1,0.1,0.3,0.2,0.4c0.1,0.1,0.2,0.2,0.4,0.2h6.3v1.1H290.2z
		 M289.7,75.3h5.7v-1.7c0-0.1-0.1-0.3-0.2-0.4c-0.1-0.1-0.2-0.2-0.4-0.2h-4.6c-0.1,0-0.3,0.1-0.4,0.2c-0.1,0.1-0.2,0.2-0.2,0.4V75.3
		z"/>
	<path class="st1" d="M245.4,121.3c23.7-18,56.7-17.2,79.4,2l-41,48.7L245.4,121.3z"/>
	<path class="st1" d="M245.4,121.3c23.7-18,56.7-17.2,79.4,2"/>
	<path class="st2" d="M245.4,121.3c23.7-18,56.7-17.2,79.4,2"/>
	<path class="st1" d="M336.8,136.7L336.8,136.7c12,18,14,40.8,5.4,60.6c-8.6,19.8-26.7,33.9-48,37.4L283.9,172L336.8,136.7z"/>
	<path class="st1" d="M336.8,136.7L336.8,136.7c12,18,14,40.8,5.4,60.6c-8.6,19.8-26.7,33.9-48,37.4"/>
	<path class="st2" d="M336.8,136.7L336.8,136.7c12,18,14,40.8,5.4,60.6c-8.6,19.8-26.7,33.9-48,37.4"/>
	<path class="st1" d="M230.9,136.7L230.9,136.7c-12,18-14,40.8-5.4,60.6c8.6,19.8,26.7,33.9,48,37.4l10.4-62.8L230.9,136.7z"/>
	<path class="st1" d="M230.9,136.7L230.9,136.7c-12,18-14,40.8-5.4,60.6c8.6,19.8,26.7,33.9,48,37.4"/>
	<path class="st2" d="M230.9,136.7L230.9,136.7c-12,18-14,40.8-5.4,60.6c8.6,19.8,26.7,33.9,48,37.4"/>
	<path class="st1" d="M232.7,172L232.7,172c0-28.3,22.9-51.2,51.2-51.2l0,0c13.6,0,26.6,5.4,36.2,15c9.6,9.6,15,22.6,15,36.2l0,0
		c0,28.3-22.9,51.2-51.2,51.2l0,0C255.6,223.1,232.7,200.2,232.7,172z"/>
	<path class="st3" d="M232.7,172L232.7,172c0-28.3,22.9-51.2,51.2-51.2l0,0c13.6,0,26.6,5.4,36.2,15c9.6,9.6,15,22.6,15,36.2l0,0
		c0,28.3-22.9,51.2-51.2,51.2l0,0C255.6,223.1,232.7,200.2,232.7,172z"/>
	<path class="st1" d="M243.3,148.5h81v46.8h-81V148.5z"/>
	<path d="M259.7,150v-10.5h8.1c0.6,0,1,0.2,1.4,0.6c0.4,0.4,0.6,0.9,0.6,1.4v2.1c0,0.1,0,0.2,0,0.4c0,0.1-0.1,0.2-0.1,0.3
		c0.2,0.2,0.3,0.5,0.4,0.7c0.1,0.2,0.2,0.5,0.2,0.7v2.3c0,0.6-0.2,1-0.6,1.4c-0.4,0.4-0.9,0.6-1.5,0.6H259.7z M262.1,148.1h5.6
		c0.3,0,0.4,0,0.5,0c0,0,0.1-0.2,0.1-0.5v-1.4c0-0.3,0-0.4-0.1-0.5c0,0-0.2,0-0.5,0h-5.6c-0.3,0-0.4,0-0.5,0c0,0,0,0.2,0,0.5v1.4
		c0,0.3,0,0.4,0,0.5C261.7,148.1,261.9,148.1,262.1,148.1z M262.1,143.7h5.2c0.3,0,0.4,0,0.5,0c0,0,0-0.2,0-0.5V142
		c0-0.3,0-0.4,0-0.5c0,0-0.2-0.1-0.5-0.1h-5.2c-0.3,0-0.4,0-0.5,0.1c0,0,0,0.2,0,0.5v1.2c0,0.3,0,0.4,0,0.5
		C261.7,143.7,261.9,143.7,262.1,143.7z M271.8,150v-6.5c0-0.6,0.2-1,0.6-1.4c0.4-0.4,0.9-0.6,1.4-0.6h4.7v1.9h-4.3
		c-0.3,0-0.4,0-0.5,0s0,0.2,0,0.5v6.1H271.8z M281.7,150c-0.6,0-1-0.2-1.4-0.6s-0.6-0.9-0.6-1.4v-3.2h6.7V144c0-0.3,0-0.4,0-0.5
		s-0.2,0-0.5,0h-6.2v-1.9h6.6c0.6,0,1,0.2,1.4,0.6s0.6,0.9,0.6,1.4v6.5H281.7z M282.1,148.1h4.3v-1.6h-4.8v1c0,0.3,0,0.4,0,0.5
		S281.8,148.1,282.1,148.1z M289.7,150v-8.5h6.6c0.6,0,1,0.2,1.4,0.6s0.6,0.9,0.6,1.4v6.5h-1.9V144c0-0.3,0-0.4,0-0.5s-0.2,0-0.5,0
		h-3.8c-0.3,0-0.4,0-0.5,0s0,0.2,0,0.5v6.1H289.7z M301.4,150c-0.6,0-1-0.2-1.4-0.6s-0.6-0.9-0.6-1.4v-4.5c0-0.6,0.2-1,0.6-1.4
		s0.9-0.6,1.4-0.6h4.7v-2.8h1.9V150H301.4z M301.9,148.1h3.8c0.3,0,0.4,0,0.5,0s0-0.2,0-0.5V144c0-0.3,0-0.4,0-0.5s-0.2,0-0.5,0
		h-3.8c-0.3,0-0.4,0-0.5,0c0,0,0,0.2,0,0.5v3.6c0,0.3,0,0.4,0,0.5C301.4,148.1,301.6,148.1,301.9,148.1z"/>
	<path d="M263.7,168v-8.6h-4.3v-1.9h10.5v1.9h-4.3v8.6H263.7z M272.2,168c-0.6,0-1-0.2-1.4-0.6c-0.4-0.4-0.6-0.9-0.6-1.4v-4.5
		c0-0.6,0.2-1,0.6-1.4c0.4-0.4,0.9-0.6,1.4-0.6h4.6c0.6,0,1,0.2,1.4,0.6c0.4,0.4,0.6,0.9,0.6,1.4v4.5c0,0.6-0.2,1-0.6,1.4
		c-0.4,0.4-0.9,0.6-1.4,0.6H272.2z M272.6,166.1h3.8c0.3,0,0.4,0,0.5,0s0-0.2,0-0.5V162c0-0.3,0-0.4,0-0.5s-0.2,0-0.5,0h-3.8
		c-0.3,0-0.4,0-0.5,0s0,0.2,0,0.5v3.6c0,0.3,0,0.4,0,0.5S272.3,166.1,272.6,166.1z M282,168c-0.6,0-1-0.2-1.4-0.6s-0.6-0.9-0.6-1.4
		v-6.5h1.9v6.1c0,0.3,0,0.4,0,0.5s0.2,0,0.5,0h3.8c0.3,0,0.4,0,0.5,0s0-0.2,0-0.5v-6.1h1.9v6.5c0,0.6-0.2,1-0.6,1.4
		s-0.9,0.6-1.4,0.6H282z M291.8,168c-0.6,0-1-0.2-1.4-0.6c-0.4-0.4-0.6-0.9-0.6-1.4v-4.5c0-0.6,0.2-1,0.6-1.4
		c0.4-0.4,0.9-0.6,1.4-0.6h6.6v1.9h-6.2c-0.3,0-0.4,0-0.5,0s0,0.2,0,0.5v3.6c0,0.3,0,0.4,0,0.5s0.2,0,0.5,0h6.2v1.9H291.8z
		 M299.6,168v-11.3h1.9v2.8h4.7c0.5,0,1,0.2,1.4,0.6c0.4,0.4,0.6,0.9,0.6,1.4v6.5h-1.9V162c0-0.3,0-0.4,0-0.5s-0.2,0-0.5,0H302
		c-0.3,0-0.4,0-0.5,0s0,0.2,0,0.5v6.1H299.6z"/>
	<path d="M263.7,186.1v-10.5h8.5c0.6,0,1,0.2,1.4,0.6c0.4,0.4,0.6,0.9,0.6,1.4v2.8c0,0.6-0.2,1-0.6,1.4c-0.4,0.4-0.9,0.6-1.4,0.6
		l-6.6,0v3.6H263.7z M266.1,180.5h5.6c0.3,0,0.4,0,0.5,0c0,0,0.1-0.2,0.1-0.5v-2c0-0.3,0-0.4-0.1-0.5c0,0-0.2-0.1-0.5-0.1h-5.6
		c-0.3,0-0.4,0-0.5,0.1c0,0,0,0.2,0,0.5v2c0,0.3,0,0.4,0,0.5C265.7,180.5,265.9,180.5,266.1,180.5z M277.2,186.1
		c-0.6,0-1-0.2-1.4-0.6c-0.4-0.4-0.6-0.9-0.6-1.4v-4.5c0-0.6,0.2-1,0.6-1.4c0.4-0.4,0.9-0.6,1.4-0.6h4.6c0.6,0,1,0.2,1.4,0.6
		c0.4,0.4,0.6,0.9,0.6,1.4v4.5c0,0.6-0.2,1-0.6,1.4c-0.4,0.4-0.9,0.6-1.4,0.6H277.2z M277.7,184.1h3.8c0.3,0,0.4,0,0.5,0
		c0,0,0-0.2,0-0.5V180c0-0.3,0-0.4,0-0.5c0,0-0.2,0-0.5,0h-3.8c-0.3,0-0.4,0-0.5,0c0,0,0,0.2,0,0.5v3.6c0,0.3,0,0.4,0,0.5
		C277.2,184.1,277.4,184.1,277.7,184.1z M285.4,186.1v-8.5h1.9v8.5H285.4z M285.4,176.7v-1.9h1.9v1.9H285.4z M289,186.1v-8.5h6.6
		c0.6,0,1,0.2,1.4,0.6c0.4,0.4,0.6,0.9,0.6,1.4v6.5h-1.9V180c0-0.3,0-0.4,0-0.5s-0.2,0-0.5,0h-3.8c-0.3,0-0.4,0-0.5,0s0,0.2,0,0.5
		v6.1H289z M301.2,186.1c-0.6,0-1-0.2-1.4-0.6c-0.4-0.4-0.6-0.9-0.6-1.4v-9.1h1.9v2.6h3.3v1.9h-3.3v4.1c0,0.3,0,0.4,0,0.5
		s0.2,0,0.5,0h2.8v1.9H301.2z"/>
	<path d="M262.6,204.1l-3.8-10.5h2l2.5,7l2.6-7h1.9l2.5,7l2.5-7h2.1l-3.8,10.5h-1.5l-2.7-7.5l-2.7,7.5H262.6z M276,204.1v-11.3h1.9
		v2.8h4.7c0.5,0,1,0.2,1.4,0.6c0.4,0.4,0.6,0.9,0.6,1.4v6.5h-1.9V198c0-0.3,0-0.4,0-0.5s-0.2,0-0.5,0h-3.8c-0.3,0-0.4,0-0.5,0
		s0,0.2,0,0.5v6.1H276z M287.8,204.1c-0.6,0-1-0.2-1.4-0.6s-0.6-0.9-0.6-1.4v-4.5c0-0.6,0.2-1,0.6-1.4s0.9-0.6,1.4-0.6h4.6
		c0.6,0,1,0.2,1.4,0.6s0.6,0.9,0.6,1.4v3.2h-6.7v0.8c0,0.3,0,0.4,0,0.5s0.2,0,0.5,0h6.2v1.9H287.8z M287.7,199h4.8v-1
		c0-0.3,0-0.4,0-0.5s-0.2,0-0.5,0h-3.8c-0.3,0-0.4,0-0.5,0s0,0.2,0,0.5V199z M297.6,204.1c-0.6,0-1-0.2-1.4-0.6
		c-0.4-0.4-0.6-0.9-0.6-1.4v-4.5c0-0.6,0.2-1,0.6-1.4c0.4-0.4,0.9-0.6,1.4-0.6h4.6c0.6,0,1,0.2,1.4,0.6c0.4,0.4,0.6,0.9,0.6,1.4v3.2
		h-6.7v0.8c0,0.3,0,0.4,0,0.5s0.2,0,0.5,0h6.2v1.9H297.6z M297.5,199h4.8v-1c0-0.3,0-0.4,0-0.5s-0.2,0-0.5,0H298c-0.3,0-0.4,0-0.5,0
		s0,0.2,0,0.5V199z M307.4,204.1c-0.6,0-1-0.2-1.4-0.6c-0.4-0.4-0.6-0.9-0.6-1.4v-9.3h1.9v8.9c0,0.3,0,0.4,0,0.5s0.2,0,0.4,0h1.3
		v1.9H307.4z"/>
	<path class="st4" d="M355.9,241.5l-8.8-3.8l3.2-7.3c0.2-0.4,0.5-0.7,0.9-0.8c0.4-0.2,0.8-0.2,1.2,0l2.6,1.1
		c0.4,0.2,0.7,0.5,0.8,0.9c0.2,0.4,0.2,0.8,0,1.2l-2.8,6.3l3.3,1.4L355.9,241.5z M352.3,238.2l2.6-5.9c0.1-0.1,0.1-0.3,0-0.4
		s-0.1-0.2-0.3-0.3l-2.6-1.1c-0.1-0.1-0.3-0.1-0.4,0c-0.1,0.1-0.2,0.1-0.3,0.3l-2.6,5.9c-0.1,0.1-0.1,0.3,0,0.4
		c0,0.1,0.1,0.2,0.3,0.3l2.6,1.1c0.1,0.1,0.3,0.1,0.4,0C352.1,238.4,352.2,238.3,352.3,238.2z M360.7,230.4
		c-0.2,0.4-0.5,0.7-0.9,0.9c-0.4,0.2-0.8,0.1-1.2,0l-5.6-2.4l0.4-1l5.6,2.4c0.1,0.1,0.3,0.1,0.4,0c0.1-0.1,0.2-0.1,0.3-0.3l1.8-4.3
		c0.1-0.1,0.1-0.3,0-0.4c-0.1-0.1-0.1-0.2-0.3-0.3l-5.6-2.4l0.4-1l5.6,2.4c0.4,0.2,0.7,0.5,0.9,0.9c0.2,0.4,0.2,0.8,0,1.2
		L360.7,230.4z M363.8,223.4l-5.6-2.4c-0.4-0.2-0.7-0.5-0.8-0.9c-0.2-0.4-0.2-0.8,0-1.3l1.7-4l1,0.4l-1.7,4c-0.1,0.1-0.1,0.3,0,0.4
		c0.1,0.1,0.1,0.2,0.3,0.3l5.6,2.4L363.8,223.4z M367.1,215.6c-0.2,0.4-0.5,0.7-0.9,0.9c-0.4,0.2-0.8,0.1-1.2,0l-4.1-1.8
		c-0.4-0.2-0.7-0.5-0.8-0.9c-0.2-0.4-0.2-0.8,0-1.2l2.5-5.7l1,0.4L361,213c-0.1,0.1-0.1,0.3,0,0.4c0.1,0.1,0.1,0.2,0.3,0.3l4.1,1.8
		c0.1,0.1,0.3,0.1,0.4,0c0.1-0.1,0.2-0.1,0.3-0.3l2.5-5.7l1,0.4L367.1,215.6z M370.1,208.8l-9.4-4.1l0.4-1l2.3,1l2.1-4.7
		c0.2-0.4,0.5-0.7,0.9-0.8c0.4-0.2,0.8-0.2,1.2,0l5.6,2.4l-0.4,1l-5.6-2.4c-0.1-0.1-0.3-0.1-0.4,0c-0.1,0-0.2,0.1-0.3,0.3l-1.8,4.3
		c-0.1,0.1-0.1,0.3,0,0.4c0.1,0.1,0.1,0.2,0.3,0.3l5.6,2.4L370.1,208.8z M374.3,199.1c-0.2,0.4-0.5,0.7-0.9,0.9
		c-0.4,0.2-0.8,0.1-1.2,0l-2.6-1.1l2.7-6.2l-1.6-0.7c-0.1-0.1-0.3-0.1-0.4,0s-0.2,0.1-0.3,0.3l-2.5,5.7l-1-0.4l2.5-5.7
		c0.2-0.4,0.5-0.7,0.9-0.9c0.4-0.2,0.8-0.2,1.2,0l5.6,2.4L374.3,199.1z M373.3,198.6l2.1-4.7l-2-0.9l-2.3,5.2l1.6,0.7
		c0.1,0.1,0.3,0.1,0.4,0C373.2,198.9,373.3,198.8,373.3,198.6z M377.9,190.9c-0.2,0.4-0.5,0.7-0.9,0.9c-0.4,0.2-0.8,0.1-1.2,0
		l-0.1,0l0.4-1l0.1,0c0.1,0.1,0.3,0.1,0.4,0s0.2-0.1,0.3-0.3l1.8-4.3c0.1-0.1,0.1-0.3,0-0.4c-0.1-0.1-0.1-0.2-0.3-0.3l-1.1-0.5
		c-0.1-0.1-0.3-0.1-0.4,0c-0.1,0-0.2,0.1-0.3,0.3l-1.8,4.3c-0.2,0.4-0.5,0.7-0.9,0.9c-0.4,0.2-0.8,0.1-1.2,0l-1.1-0.5
		c-0.4-0.2-0.7-0.5-0.8-0.9c-0.2-0.4-0.2-0.8,0-1.2l1.8-4.3c0.2-0.4,0.5-0.7,0.9-0.9c0.4-0.2,0.8-0.2,1.2,0l0.1,0l-0.4,1l-0.1,0
		c-0.1-0.1-0.3-0.1-0.4,0c-0.1,0-0.2,0.1-0.3,0.3l-1.8,4.3c-0.1,0.1-0.1,0.3,0,0.4c0.1,0.1,0.1,0.2,0.3,0.3l1.1,0.5
		c0.1,0.1,0.3,0.1,0.4,0s0.2-0.1,0.3-0.3l1.8-4.3c0.2-0.4,0.5-0.7,0.9-0.9s0.8-0.2,1.2,0l1.1,0.5c0.4,0.2,0.7,0.5,0.9,0.9
		c0.2,0.4,0.2,0.8,0,1.2L377.9,190.9z M381.5,182.7c-0.2,0.4-0.5,0.7-0.9,0.9c-0.4,0.2-0.8,0.1-1.2,0l-4.1-1.8
		c-0.4-0.2-0.7-0.5-0.8-0.9c-0.2-0.4-0.2-0.8,0-1.2l1.8-4.3c0.2-0.4,0.5-0.7,0.9-0.9c0.4-0.2,0.8-0.2,1.2,0l2.6,1.1l-2.7,6.2
		l1.6,0.7c0.1,0.1,0.3,0.1,0.4,0s0.2-0.1,0.3-0.3l2.5-5.7l1,0.4L381.5,182.7z M377.2,181.4l2.3-5.2l-1.6-0.7c-0.1-0.1-0.3-0.1-0.4,0
		s-0.2,0.1-0.3,0.3l-1.8,4.3c-0.1,0.1-0.1,0.3,0,0.4c0.1,0.1,0.1,0.2,0.3,0.3L377.2,181.4z"/>
	<path class="st4" d="M368.3,253.2l-8.8-3.8l3.5-8l1,0.4l-3.1,7l2.9,1.3l2.5-5.7l1,0.4l-2.5,5.7l2.9,1.3l3.1-7l1,0.4L368.3,253.2z
		 M372.3,243.9L372.3,243.9l-2.3-4.5l-4.8,1.5l0,0l0.6-1.3l3.7-1.1l-1.7-3.5l0.6-1.3l0,0l2.2,4.5l4.9-1.4l0,0l-0.6,1.3l-3.8,1.1
		l1.8,3.5L372.3,243.9z M378.8,236.6l-9.9-4.3l2.5-5.7c0.2-0.4,0.5-0.7,0.9-0.9c0.4-0.2,0.8-0.2,1.2,0l4.1,1.8
		c0.4,0.2,0.7,0.5,0.9,0.9c0.2,0.4,0.2,0.8,0,1.2l-2.1,4.7l2.8,1.2L378.8,236.6z M375.6,233.5l1.8-4.3c0.1-0.1,0.1-0.3,0-0.4
		c-0.1-0.1-0.1-0.2-0.3-0.3l-4.1-1.8c-0.1-0.1-0.3-0.1-0.4,0c-0.1,0-0.2,0.1-0.3,0.3l-1.8,4.3c-0.1,0.1-0.1,0.3,0,0.4
		c0.1,0.1,0.1,0.2,0.3,0.3l4.1,1.8c0.1,0.1,0.3,0.1,0.4,0C375.5,233.7,375.6,233.6,375.6,233.5z M380.2,225.8
		c-0.2,0.4-0.5,0.7-0.9,0.9c-0.4,0.2-0.8,0.1-1.2,0l-4.1-1.8c-0.4-0.2-0.7-0.5-0.8-0.9c-0.2-0.4-0.2-0.8,0-1.2l1.8-4.3
		c0.2-0.4,0.5-0.7,0.9-0.9c0.4-0.2,0.8-0.2,1.2,0l2.6,1.1l-2.7,6.2l1.6,0.7c0.1,0.1,0.3,0.1,0.4,0c0.1-0.1,0.2-0.1,0.3-0.3l2.5-5.7
		l1,0.4L380.2,225.8z M375.9,224.6l2.3-5.2l-1.6-0.7c-0.1-0.1-0.3-0.1-0.4,0s-0.2,0.1-0.3,0.3l-1.8,4.3c-0.1,0.1-0.1,0.3,0,0.4
		c0.1,0.1,0.1,0.2,0.3,0.3L375.9,224.6z M383.2,218.9l-5.6-2.4c-0.4-0.2-0.7-0.5-0.8-0.9c-0.2-0.4-0.2-0.8,0-1.3l1.7-4l1,0.4l-1.7,4
		c-0.1,0.1-0.1,0.3,0,0.4s0.1,0.2,0.3,0.3l5.6,2.4L383.2,218.9z M385.9,212.6l-7.1-3.1l0.4-1l7.1,3.1L385.9,212.6z M377.5,209
		l-1-0.4l0.4-1l1,0.4L377.5,209z M387.6,208.6c-0.2,0.4-0.5,0.7-0.9,0.9c-0.4,0.2-0.8,0.1-1.2,0l-4.1-1.8c-0.4-0.2-0.7-0.5-0.8-0.9
		c-0.2-0.4-0.2-0.8,0-1.2l1.8-4.3c0.2-0.4,0.5-0.7,0.9-0.9c0.4-0.2,0.8-0.2,1.2,0l2.6,1.1l-2.7,6.2l1.6,0.7c0.1,0.1,0.3,0.1,0.4,0
		c0.1-0.1,0.2-0.1,0.3-0.3l2.5-5.7l1,0.4L387.6,208.6z M383.4,207.4l2.3-5.2l-1.6-0.7c-0.1-0.1-0.3-0.1-0.4,0
		c-0.1,0.1-0.2,0.1-0.3,0.3l-1.8,4.3c-0.1,0.1-0.1,0.3,0,0.4c0.1,0.1,0.1,0.2,0.3,0.3L383.4,207.4z M390.7,201.6l-7.1-3.1l2.5-5.7
		c0.2-0.4,0.5-0.7,0.9-0.9c0.4-0.2,0.8-0.2,1.2,0l5.6,2.4l-0.4,1l-5.6-2.4c-0.1-0.1-0.3-0.1-0.4,0c-0.1,0-0.2,0.1-0.3,0.3l-1.8,4.3
		c-0.1,0.1-0.1,0.3,0,0.4s0.1,0.2,0.3,0.3l5.6,2.4L390.7,201.6z M394.9,191.9c-0.2,0.4-0.5,0.7-0.9,0.9c-0.4,0.2-0.8,0.1-1.2,0
		l-4.1-1.8c-0.4-0.2-0.7-0.5-0.8-0.9c-0.2-0.4-0.2-0.8,0-1.2l2.5-5.7l1,0.4l-2.5,5.7c-0.1,0.1-0.1,0.3,0,0.4
		c0.1,0.1,0.1,0.2,0.3,0.3l4.1,1.8c0.1,0.1,0.3,0.1,0.4,0c0.1-0.1,0.2-0.1,0.3-0.3l2.5-5.7l1,0.4L394.9,191.9z M398.5,183.7
		c-0.2,0.4-0.5,0.7-0.9,0.9c-0.4,0.2-0.8,0.1-1.2,0l-4.1-1.8c-0.4-0.2-0.7-0.5-0.8-0.9c-0.2-0.4-0.2-0.8,0-1.2l1.8-4.3
		c0.2-0.4,0.5-0.7,0.9-0.9c0.4-0.2,0.8-0.2,1.2,0l2.6,1.1l-2.7,6.2l1.6,0.7c0.1,0.1,0.3,0.1,0.4,0s0.2-0.1,0.3-0.3l2.5-5.7l1,0.4
		L398.5,183.7z M394.2,182.4l2.3-5.2l-1.6-0.7c-0.1-0.1-0.3-0.1-0.4,0c-0.1,0.1-0.2,0.1-0.3,0.3l-1.8,4.3c-0.1,0.1-0.1,0.3,0,0.4
		c0.1,0.1,0.1,0.2,0.3,0.3L394.2,182.4z"/>
	<path class="st5" d="M165.8,161.8l8.8-3.7l3.1,7.4c0.2,0.4,0.2,0.8,0,1.2s-0.5,0.7-0.9,0.9l-2.6,1.1c-0.4,0.2-0.8,0.2-1.2,0
		c-0.4-0.2-0.7-0.5-0.9-0.9l-2.7-6.4l-3.3,1.4L165.8,161.8z M170.7,161.4l2.5,5.9c0.1,0.1,0.1,0.2,0.3,0.3c0.1,0.1,0.3,0.1,0.4,0
		l2.6-1.1c0.1-0.1,0.2-0.2,0.3-0.3c0.1-0.1,0.1-0.3,0-0.4l-2.5-5.9c-0.1-0.1-0.2-0.2-0.3-0.3c-0.1-0.1-0.3,0-0.4,0l-2.6,1.1
		c-0.1,0.1-0.2,0.1-0.3,0.3C170.7,161.2,170.7,161.3,170.7,161.4z M170.5,172.9c-0.2-0.4-0.2-0.8,0-1.2c0.2-0.4,0.5-0.7,0.9-0.9
		l4.2-1.7c0.4-0.2,0.8-0.2,1.2,0c0.4,0.2,0.7,0.5,0.9,0.9l1.8,4.3c0.2,0.4,0.2,0.8,0,1.2c-0.2,0.4-0.4,0.7-0.9,0.9l-4.2,1.7
		c-0.4,0.2-0.8,0.2-1.2,0c-0.4-0.2-0.7-0.5-0.9-0.9L170.5,172.9z M171.5,172.5l1.8,4.3c0.1,0.1,0.1,0.2,0.3,0.3s0.3,0.1,0.4,0
		l4.2-1.7c0.1-0.1,0.2-0.1,0.3-0.3s0.1-0.3,0-0.4l-1.8-4.3c-0.1-0.1-0.2-0.2-0.3-0.3c-0.1-0.1-0.3-0.1-0.4,0l-4.2,1.7
		c-0.1,0.1-0.2,0.1-0.3,0.3C171.4,172.2,171.4,172.4,171.5,172.5z M173.9,181.1c-0.2-0.4-0.2-0.8,0-1.2c0.2-0.4,0.5-0.7,0.9-0.9
		l0.1,0l0.4,1l-0.1,0c-0.1,0.1-0.2,0.1-0.3,0.3s-0.1,0.3,0,0.4l1.8,4.3c0.1,0.1,0.2,0.2,0.3,0.3c0.1,0.1,0.3,0.1,0.4,0l1.1-0.5
		c0.1-0.1,0.2-0.2,0.3-0.3c0.1-0.1,0.1-0.3,0-0.4l-1.8-4.3c-0.2-0.4-0.2-0.8,0-1.2c0.2-0.4,0.5-0.7,0.9-0.9l1.1-0.5
		c0.4-0.2,0.8-0.2,1.2,0c0.4,0.2,0.7,0.5,0.9,0.9l1.8,4.3c0.2,0.4,0.2,0.8,0,1.3c-0.2,0.4-0.5,0.7-0.9,0.9l-0.1,0l-0.4-1l0.1,0
		c0.1-0.1,0.2-0.1,0.3-0.3c0.1-0.1,0.1-0.3,0-0.4l-1.8-4.3c-0.1-0.1-0.1-0.2-0.3-0.3c-0.1-0.1-0.3-0.1-0.4,0l-1.1,0.5
		c-0.1,0.1-0.2,0.2-0.3,0.3s-0.1,0.3,0,0.4l1.8,4.3c0.2,0.4,0.2,0.8,0,1.2c-0.2,0.4-0.5,0.7-0.9,0.9l-1.1,0.5
		c-0.4,0.2-0.8,0.2-1.2,0c-0.4-0.2-0.7-0.5-0.9-0.9L173.9,181.1z M177.5,189.6c-0.2-0.4-0.2-0.8,0-1.2c0.2-0.4,0.5-0.7,0.9-0.9
		l8-3.3l0.4,1l-2.3,1l1.3,3.1l-1,0.4l-1.3-3.1l-4.6,1.9c-0.1,0.1-0.2,0.1-0.3,0.3c-0.1,0.1-0.1,0.3,0,0.4l1.1,2.6l-1,0.4
		L177.5,189.6z M177.5,197.7l10-4.2l2.4,5.8c0.2,0.4,0.2,0.8,0,1.2c-0.2,0.4-0.5,0.7-0.9,0.9l-4.2,1.7c-0.4,0.2-0.8,0.2-1.2,0
		c-0.4-0.2-0.7-0.5-0.9-0.9l-2-4.8l-2.8,1.2L177.5,197.7z M182,197.6l1.8,4.3c0.1,0.1,0.2,0.2,0.3,0.3c0.1,0.1,0.3,0.1,0.4,0
		l4.2-1.7c0.1-0.1,0.2-0.1,0.3-0.3c0.1-0.1,0.1-0.3,0-0.4l-1.8-4.3c-0.1-0.1-0.2-0.2-0.3-0.3c-0.1-0.1-0.3-0.1-0.4,0l-4.2,1.7
		c-0.1,0.1-0.2,0.1-0.3,0.3C181.9,197.4,181.9,197.5,182,197.6z M184.4,206.2c-0.2-0.4-0.2-0.8,0-1.2c0.2-0.4,0.5-0.7,0.9-0.9
		l5.7-2.4l0.4,1l-5.7,2.4c-0.1,0.1-0.2,0.1-0.3,0.3s-0.1,0.3,0,0.4l1.8,4.3c0.1,0.1,0.2,0.2,0.3,0.3c0.1,0.1,0.3,0.1,0.4,0l5.7-2.4
		l0.4,1l-5.7,2.4c-0.4,0.2-0.8,0.2-1.2,0c-0.4-0.2-0.7-0.5-0.9-0.9L184.4,206.2z M187.3,213.2l5.7-2.4c0.4-0.2,0.8-0.2,1.2,0
		c0.4,0.2,0.7,0.5,0.9,0.9l1.7,4l-1,0.4l-1.7-4c-0.1-0.1-0.2-0.2-0.3-0.3c-0.1-0.1-0.3-0.1-0.4,0l-5.7,2.4L187.3,213.2z M190.6,221
		c-0.2-0.4-0.2-0.8,0-1.2c0.2-0.4,0.5-0.7,0.9-0.9l4.2-1.7c0.4-0.2,0.8-0.2,1.2,0c0.4,0.2,0.7,0.5,0.9,0.9l2.4,5.8l-1,0.4l-2.4-5.8
		c-0.1-0.1-0.2-0.2-0.3-0.3c-0.1-0.1-0.3-0.1-0.4,0l-4.2,1.7c-0.1,0.1-0.2,0.1-0.3,0.3s-0.1,0.3,0,0.4l2.4,5.8l-1,0.4L190.6,221z
		 M193.5,227.9l9.5-4l0.4,1l-2.3,1l2,4.8c0.2,0.4,0.2,0.8,0,1.2c-0.2,0.4-0.4,0.7-0.9,0.9l-5.7,2.4l-0.4-1l5.7-2.4
		c0.1-0.1,0.2-0.1,0.3-0.3c0.1-0.1,0.1-0.3,0-0.4l-1.8-4.3c-0.1-0.1-0.2-0.2-0.3-0.3s-0.3-0.1-0.4,0l-5.7,2.4L193.5,227.9z
		 M197.5,237.7c-0.2-0.4-0.2-0.8,0-1.2c0.2-0.4,0.5-0.7,0.9-0.9l2.6-1.1l2.6,6.3l1.6-0.7c0.1-0.1,0.2-0.1,0.3-0.3s0.1-0.3,0-0.4
		l-2.4-5.8l1-0.4l2.4,5.8c0.2,0.4,0.2,0.8,0,1.3c-0.2,0.4-0.5,0.7-0.9,0.9l-5.7,2.4L197.5,237.7z M198.6,237.2l2,4.8l2-0.9l-2.2-5.2
		l-1.6,0.7c-0.1,0.1-0.2,0.1-0.3,0.3S198.5,237.1,198.6,237.2z M201,245.9c-0.2-0.4-0.2-0.8,0-1.2c0.2-0.4,0.5-0.7,0.9-0.9l0.1,0
		l0.4,1l-0.1,0c-0.1,0.1-0.2,0.1-0.3,0.3c-0.1,0.1-0.1,0.3,0,0.4l1.8,4.3c0.1,0.1,0.2,0.2,0.3,0.3c0.1,0.1,0.3,0.1,0.4,0l1.1-0.5
		c0.1-0.1,0.2-0.2,0.3-0.3c0.1-0.1,0.1-0.3,0-0.4l-1.8-4.3c-0.2-0.4-0.2-0.8,0-1.2c0.2-0.4,0.5-0.7,0.9-0.9l1.1-0.5
		c0.4-0.2,0.8-0.2,1.2,0c0.4,0.2,0.7,0.5,0.9,0.9l1.8,4.3c0.2,0.4,0.2,0.8,0,1.3c-0.2,0.4-0.5,0.7-0.9,0.9l-0.1,0l-0.4-1l0.1,0
		c0.1-0.1,0.2-0.1,0.3-0.3c0.1-0.1,0.1-0.3,0-0.4l-1.8-4.3c-0.1-0.1-0.1-0.2-0.3-0.3s-0.3-0.1-0.4,0l-1.1,0.5
		c-0.1,0.1-0.2,0.2-0.3,0.3c-0.1,0.1-0.1,0.3,0,0.4l1.8,4.3c0.2,0.4,0.2,0.8,0,1.2c-0.2,0.4-0.5,0.7-0.9,0.9l-1.1,0.5
		c-0.4,0.2-0.8,0.2-1.2,0c-0.4-0.2-0.7-0.5-0.9-0.9L201,245.9z M204.5,254.2c-0.2-0.4-0.2-0.8,0-1.2c0.2-0.4,0.5-0.7,0.9-0.9
		l4.2-1.7c0.4-0.2,0.8-0.2,1.2,0c0.4,0.2,0.7,0.5,0.9,0.9l1.8,4.3c0.2,0.4,0.2,0.8,0,1.2c-0.2,0.4-0.4,0.7-0.9,0.9l-2.6,1.1
		l-2.6-6.3l-1.6,0.7c-0.1,0.1-0.2,0.1-0.3,0.3s-0.1,0.3,0,0.4l2.4,5.8l-1,0.4L204.5,254.2z M208.3,252l2.2,5.2l1.6-0.7
		c0.1-0.1,0.2-0.1,0.3-0.3s0.1-0.3,0-0.4l-1.8-4.3c-0.1-0.1-0.2-0.2-0.3-0.3c-0.1-0.1-0.3-0.1-0.4,0L208.3,252z"/>
	<path class="st5" d="M155.8,179.2l8.9-3.7l3.4,8.1l-1,0.4l-3-7.1l-2.9,1.2l2.4,5.7l-1,0.4l-2.4-5.7l-2.9,1.2l3,7.1l-1,0.4
		L155.8,179.2z M159.6,188.5L159.6,188.5l4.9,1.5l2.2-4.4l0,0l0.6,1.3l-1.7,3.5l3.7,1.2l0.5,1.3l0,0l-4.7-1.5l-2.4,4.5l0,0l-0.6-1.3
		l1.9-3.5l-3.8-1.1L159.6,188.5z M160.4,198.3l10-4.2l2.4,5.8c0.2,0.4,0.2,0.8,0,1.2c-0.2,0.4-0.5,0.7-0.9,0.9l-4.2,1.7
		c-0.4,0.2-0.8,0.2-1.2,0c-0.4-0.2-0.7-0.5-0.9-0.9l-2-4.8l-2.8,1.2L160.4,198.3z M164.9,198.2l1.8,4.3c0.1,0.1,0.2,0.2,0.3,0.3
		c0.1,0.1,0.3,0.1,0.4,0l4.2-1.7c0.1-0.1,0.2-0.1,0.3-0.3c0.1-0.1,0.1-0.3,0-0.4L170,196c-0.1-0.1-0.2-0.2-0.3-0.3
		c-0.1-0.1-0.3-0.1-0.4,0l-4.2,1.7c-0.1,0.1-0.2,0.1-0.3,0.3S164.8,198,164.9,198.2z M167.3,206.7c-0.2-0.4-0.2-0.8,0-1.2
		c0.2-0.4,0.5-0.7,0.9-0.9l4.2-1.7c0.4-0.2,0.8-0.2,1.2,0c0.4,0.2,0.7,0.5,0.9,0.9l1.8,4.3c0.2,0.4,0.2,0.8,0,1.2
		c-0.2,0.4-0.4,0.7-0.9,0.9l-2.6,1.1l-2.6-6.3l-1.6,0.7c-0.1,0.1-0.2,0.1-0.3,0.3c-0.1,0.1-0.1,0.3,0,0.4l2.4,5.8l-1,0.4
		L167.3,206.7z M171.1,204.5l2.2,5.2l1.6-0.7c0.1-0.1,0.2-0.1,0.3-0.3c0.1-0.1,0.1-0.3,0-0.4l-1.8-4.3c-0.1-0.1-0.2-0.2-0.3-0.3
		c-0.1-0.1-0.3-0.1-0.4,0L171.1,204.5z M170.2,213.7l5.7-2.4c0.4-0.2,0.8-0.2,1.2,0c0.4,0.2,0.7,0.5,0.9,0.9l1.7,4l-1,0.4l-1.7-4
		c-0.1-0.1-0.2-0.2-0.3-0.3c-0.1-0.1-0.3-0.1-0.4,0l-5.7,2.4L170.2,213.7z M172.8,220l7.1-3l0.4,1l-7.1,3L172.8,220z M181.3,216.4
		l1-0.4l0.4,1l-1,0.4L181.3,216.4z M174.5,224c-0.2-0.4-0.2-0.8,0-1.2c0.2-0.4,0.5-0.7,0.9-0.9l4.2-1.7c0.4-0.2,0.8-0.2,1.2,0
		c0.4,0.2,0.7,0.5,0.9,0.9l1.8,4.3c0.2,0.4,0.2,0.8,0,1.2c-0.2,0.4-0.4,0.7-0.9,0.9l-2.6,1.1l-2.6-6.3l-1.6,0.7
		c-0.1,0.1-0.2,0.1-0.3,0.3s-0.1,0.3,0,0.4l2.4,5.8l-1,0.4L174.5,224z M178.4,221.8l2.2,5.2l1.6-0.7c0.1-0.1,0.2-0.1,0.3-0.3
		c0.1-0.1,0.1-0.3,0-0.4l-1.8-4.3c-0.1-0.1-0.2-0.2-0.3-0.3s-0.3-0.1-0.4,0L178.4,221.8z M177.4,231.1l7.1-3l2.4,5.8
		c0.2,0.4,0.2,0.8,0,1.2c-0.2,0.4-0.5,0.7-0.9,0.9l-5.7,2.4l-0.4-1l5.7-2.4c0.1-0.1,0.2-0.1,0.3-0.3c0.1-0.1,0.1-0.3,0-0.4l-1.8-4.3
		c-0.1-0.1-0.2-0.2-0.3-0.3s-0.3-0.1-0.4,0l-5.7,2.4L177.4,231.1z M181.5,240.8c-0.2-0.4-0.2-0.8,0-1.2c0.2-0.4,0.5-0.7,0.9-0.9
		l4.2-1.7c0.4-0.2,0.8-0.2,1.2,0c0.4,0.2,0.7,0.5,0.9,0.9l2.4,5.8l-1,0.4l-2.4-5.8c-0.1-0.1-0.2-0.2-0.3-0.3c-0.1-0.1-0.3-0.1-0.4,0
		l-4.2,1.7c-0.1,0.1-0.2,0.1-0.3,0.3s-0.1,0.3,0,0.4l2.4,5.8l-1,0.4L181.5,240.8z M185,249.1c-0.2-0.4-0.2-0.8,0-1.2
		c0.2-0.4,0.5-0.7,0.9-0.9l4.2-1.7c0.4-0.2,0.8-0.2,1.2,0c0.4,0.2,0.7,0.5,0.9,0.9l1.8,4.3c0.2,0.4,0.2,0.8,0,1.2
		c-0.2,0.4-0.4,0.7-0.9,0.9l-2.6,1.1l-2.6-6.3l-1.6,0.7c-0.1,0.1-0.2,0.1-0.3,0.3c-0.1,0.1-0.1,0.3,0,0.4l2.4,5.8l-1,0.4L185,249.1z
		 M188.8,246.9l2.2,5.2l1.6-0.7c0.1-0.1,0.2-0.1,0.3-0.3s0.1-0.3,0-0.4l-1.8-4.3c-0.1-0.1-0.2-0.2-0.3-0.3c-0.1-0.1-0.3-0.1-0.4,0
		L188.8,246.9z"/>
	<path class="st1" d="M0.5,222.5v12.4l8.6,8.6h10.6"/>
	<path class="st6" d="M0.5,222.5v12.4l8.6,8.6h10.6"/>
	<path class="st1" d="M128.5,217.8v-12.4l-8.6-8.6h-10.6"/>
	<path class="st6" d="M128.5,217.8v-12.4l-8.6-8.6h-10.6"/>
	<path class="st7" d="M5.1,200.7h112.8l6.4,6.4v31.8l0,0H11.4l-6.4-6.4V200.7z"/>
	<path class="st8" d="M21.4,224.5c-0.5,0-1.1-0.1-1.6-0.3c-0.5-0.2-1-0.5-1.4-0.8l1-1.2c0.3,0.2,0.6,0.4,1,0.6
		c0.4,0.2,0.7,0.2,1.1,0.2c0.4,0,0.7-0.1,0.8-0.2c0.2-0.1,0.3-0.3,0.3-0.5c0-0.1,0-0.2-0.1-0.3c-0.1-0.1-0.1-0.2-0.2-0.2
		c-0.1-0.1-0.2-0.1-0.4-0.2c-0.1-0.1-0.3-0.1-0.5-0.2l-1-0.4c-0.2-0.1-0.4-0.2-0.6-0.3c-0.2-0.1-0.4-0.3-0.5-0.5
		c-0.1-0.2-0.3-0.4-0.4-0.6c-0.1-0.2-0.1-0.5-0.1-0.8c0-0.3,0.1-0.6,0.2-0.9c0.1-0.3,0.3-0.5,0.6-0.7c0.3-0.2,0.6-0.4,0.9-0.5
		c0.4-0.1,0.7-0.2,1.2-0.2c0.5,0,0.9,0.1,1.4,0.3c0.4,0.2,0.9,0.4,1.2,0.8l-0.9,1.1c-0.3-0.2-0.5-0.4-0.8-0.5
		c-0.3-0.1-0.6-0.2-1-0.2c-0.3,0-0.5,0.1-0.7,0.2c-0.2,0.1-0.3,0.3-0.3,0.5s0.1,0.4,0.3,0.5c0.2,0.1,0.6,0.3,0.9,0.4l1,0.4
		c0.5,0.2,0.9,0.5,1.2,0.8c0.3,0.3,0.5,0.8,0.5,1.3c0,0.3-0.1,0.6-0.2,0.9c-0.1,0.3-0.3,0.5-0.6,0.8c-0.2,0.2-0.6,0.4-0.9,0.5
		C22.4,224.4,21.9,224.5,21.4,224.5z M28.7,224.5c-1,0-1.7-0.3-2.2-0.8c-0.5-0.5-0.7-1.3-0.7-2.4v-4.8h1.8v5c0,0.5,0.1,0.8,0.3,1.1
		s0.5,0.4,0.8,0.4s0.7-0.1,0.8-0.4c0.2-0.2,0.3-0.6,0.3-1.1v-5h1.7v4.8c0,1-0.2,1.8-0.7,2.4C30.3,224.2,29.6,224.5,28.7,224.5z
		 M33.1,224.4v-7.8h2.6c0.4,0,0.8,0,1.1,0.1c0.4,0.1,0.7,0.2,0.9,0.3c0.3,0.1,0.5,0.3,0.6,0.6c0.2,0.2,0.2,0.6,0.2,0.9
		c0,0.2,0,0.4-0.1,0.5c-0.1,0.2-0.1,0.3-0.2,0.5c-0.1,0.2-0.3,0.3-0.4,0.4c-0.2,0.1-0.4,0.2-0.6,0.2v0c0.6,0.1,1,0.3,1.3,0.6
		c0.3,0.3,0.4,0.7,0.4,1.2c0,0.4-0.1,0.7-0.2,1c-0.2,0.3-0.4,0.5-0.6,0.7c-0.3,0.2-0.6,0.3-1,0.4c-0.4,0.1-0.8,0.1-1.2,0.1H33.1z
		 M34.9,219.7h0.8c0.4,0,0.7-0.1,0.9-0.2c0.2-0.2,0.3-0.4,0.3-0.7c0-0.3-0.1-0.5-0.3-0.6c-0.2-0.1-0.5-0.2-0.9-0.2h-0.8V219.7z
		 M34.9,223h0.9c0.9,0,1.4-0.4,1.4-1.1c0-0.3-0.1-0.6-0.3-0.7c-0.2-0.2-0.6-0.2-1.1-0.2h-0.9V223z M42.4,220.4l-0.2,0.7h1.6
		l-0.2-0.7c-0.1-0.4-0.2-0.8-0.3-1.2c-0.1-0.4-0.2-0.9-0.3-1.3h0c-0.1,0.4-0.2,0.8-0.3,1.3C42.6,219.6,42.5,220,42.4,220.4z
		 M39.6,224.4l2.4-7.8h2.1l2.4,7.8h-1.9l-0.5-1.9h-2.4l-0.5,1.9H39.6z M47.5,224.4v-7.8h2.8c0.4,0,0.8,0,1.2,0.1
		c0.4,0.1,0.7,0.2,1,0.4c0.3,0.2,0.5,0.4,0.7,0.8c0.2,0.3,0.2,0.7,0.2,1.2c0,0.6-0.1,1-0.4,1.4c-0.2,0.4-0.6,0.7-1,0.8l1.8,3.1h-2
		l-1.5-2.8h-0.9v2.8H47.5z M49.3,220.1h0.9c0.9,0,1.4-0.4,1.4-1.2c0-0.4-0.1-0.7-0.4-0.8c-0.2-0.2-0.6-0.2-1.1-0.2h-0.9V220.1z
		 M57.5,224.5c-1,0-1.7-0.3-2.2-0.8c-0.5-0.5-0.7-1.3-0.7-2.4v-4.8h1.8v5c0,0.5,0.1,0.8,0.3,1.1s0.5,0.4,0.8,0.4s0.7-0.1,0.8-0.4
		c0.2-0.2,0.3-0.6,0.3-1.1v-5h1.7v4.8c0,1-0.2,1.8-0.7,2.4C59.1,224.2,58.4,224.5,57.5,224.5z M69,224.4v-7.8h1.8l0.8,2.8l0.3,1.1h0
		l0.3-1.1l0.8-2.8h1.8v7.8h-1.5v-2.4c0-0.2,0-0.5,0-0.8c0-0.3,0-0.7,0.1-1c0-0.3,0.1-0.7,0.1-1c0-0.3,0.1-0.6,0.1-0.8h0l-0.6,2.1
		l-0.6,1.9h-0.9l-0.6-1.9l-0.6-2.1h0c0,0.2,0,0.5,0.1,0.8c0,0.3,0.1,0.7,0.1,1c0,0.3,0,0.7,0,1c0,0.3,0,0.6,0,0.8v2.4H69z
		 M79.4,224.5c-0.5,0-0.9-0.1-1.3-0.2c-0.4-0.1-0.8-0.3-1.1-0.6c-0.3-0.3-0.5-0.6-0.7-1c-0.2-0.4-0.2-0.8-0.2-1.3s0.1-0.9,0.2-1.3
		c0.2-0.4,0.4-0.7,0.7-1c0.3-0.3,0.6-0.5,1-0.6c0.4-0.1,0.8-0.2,1.2-0.2c0.5,0,0.9,0.1,1.2,0.2c0.4,0.1,0.6,0.3,0.9,0.6
		c0.2,0.2,0.4,0.5,0.5,0.9c0.1,0.3,0.2,0.7,0.2,1.1c0,0.2,0,0.3,0,0.5c0,0.1,0,0.3,0,0.3h-4.1c0.1,0.4,0.3,0.8,0.6,1
		c0.3,0.2,0.7,0.3,1.2,0.3c0.3,0,0.5,0,0.8-0.1c0.2-0.1,0.5-0.2,0.8-0.3l0.6,1.1c-0.3,0.2-0.7,0.4-1.1,0.5
		C80.2,224.4,79.8,224.5,79.4,224.5z M79.3,219.6c-0.4,0-0.7,0.1-0.9,0.3c-0.2,0.2-0.4,0.5-0.5,0.8h2.5
		C80.4,220,80,219.6,79.3,219.6z M86.6,224.5c-0.5,0-0.9-0.1-1.3-0.2c-0.4-0.1-0.8-0.3-1.1-0.6c-0.3-0.3-0.5-0.6-0.7-1
		c-0.2-0.4-0.2-0.8-0.2-1.3s0.1-0.9,0.2-1.3c0.2-0.4,0.4-0.7,0.7-1c0.3-0.3,0.6-0.5,1-0.6c0.4-0.1,0.8-0.2,1.2-0.2
		c0.5,0,0.9,0.1,1.2,0.2s0.6,0.3,0.9,0.6c0.2,0.2,0.4,0.5,0.5,0.9c0.1,0.3,0.2,0.7,0.2,1.1c0,0.2,0,0.3,0,0.5s0,0.3,0,0.3h-4.1
		c0.1,0.4,0.3,0.8,0.6,1s0.7,0.3,1.2,0.3c0.3,0,0.5,0,0.8-0.1c0.2-0.1,0.5-0.2,0.8-0.3l0.6,1.1c-0.3,0.2-0.7,0.4-1.1,0.5
		S87,224.5,86.6,224.5z M86.5,219.6c-0.4,0-0.7,0.1-0.9,0.3c-0.2,0.2-0.4,0.5-0.5,0.8h2.5C87.6,220,87.2,219.6,86.5,219.6z
		 M94.5,224.5c-0.5,0-0.9-0.1-1.2-0.2c-0.3-0.1-0.6-0.3-0.8-0.5c-0.2-0.2-0.3-0.5-0.4-0.8c-0.1-0.3-0.1-0.7-0.1-1.1v-2.1h-1.5v-1.3
		l1.6-0.1l0.2-1.8h1.5v1.8h2.5v1.4h-2.5v2.1c0,0.5,0.1,0.8,0.3,1s0.5,0.3,1,0.3c0.2,0,0.4,0,0.6-0.1s0.4-0.1,0.5-0.2l0.3,1.3
		c-0.3,0.1-0.6,0.2-0.9,0.2C95.3,224.5,94.9,224.5,94.5,224.5z M99.7,224.5c-0.7,0-1.2-0.2-1.5-0.6c-0.3-0.4-0.5-1-0.5-1.8v-3.7h1.8
		v3.4c0,0.4,0.1,0.7,0.2,0.9c0.1,0.2,0.4,0.3,0.7,0.3c0.2,0,0.4,0,0.6-0.1c0.2-0.1,0.4-0.3,0.6-0.5v-3.9h1.8v6h-1.4l-0.1-0.9h0
		c-0.3,0.3-0.6,0.6-0.9,0.7C100.5,224.4,100.2,224.5,99.7,224.5z M105.1,226.6v-8.2h1.4l0.1,0.6h0c0.2-0.2,0.5-0.4,0.8-0.5
		c0.3-0.1,0.6-0.2,1-0.2c0.4,0,0.7,0.1,1,0.2c0.3,0.1,0.6,0.3,0.8,0.6c0.2,0.3,0.4,0.6,0.5,1c0.1,0.4,0.2,0.8,0.2,1.2
		c0,0.5-0.1,1-0.2,1.4c-0.1,0.4-0.3,0.7-0.6,1c-0.2,0.3-0.5,0.5-0.8,0.6c-0.3,0.1-0.6,0.2-1,0.2c-0.6,0-1-0.2-1.5-0.6h0l0.1,1v1.7
		H105.1z M107.9,223.1c0.3,0,0.6-0.1,0.8-0.4c0.2-0.3,0.3-0.7,0.3-1.3c0-1.1-0.4-1.6-1.1-1.6c-0.4,0-0.7,0.2-1.1,0.5v2.4
		c0.2,0.1,0.3,0.2,0.5,0.3C107.6,223,107.7,223.1,107.9,223.1z"/>
	<path class="st1" d="M18.8,286.8v12.4l8.6,8.6H38"/>
	<path class="st6" d="M18.8,286.8v12.4l8.6,8.6H38"/>
	<path class="st1" d="M146.8,282.2v-12.4l-8.6-8.6h-10.6"/>
	<path class="st6" d="M146.8,282.2v-12.4l-8.6-8.6h-10.6"/>
	<path class="st7" d="M23.4,265.1h112.8l6.4,6.4v31.8l0,0H29.8l-6.4-6.4V265.1z"/>
	<path class="st8" d="M43.4,288.9c-0.5,0-1.1-0.1-1.6-0.3c-0.5-0.2-1-0.5-1.4-0.8l1-1.2c0.3,0.2,0.6,0.4,1,0.6
		c0.4,0.2,0.7,0.2,1.1,0.2c0.4,0,0.7-0.1,0.8-0.2c0.2-0.1,0.3-0.3,0.3-0.5c0-0.1,0-0.2-0.1-0.3c-0.1-0.1-0.1-0.2-0.2-0.2
		c-0.1-0.1-0.2-0.1-0.4-0.2c-0.1-0.1-0.3-0.1-0.5-0.2l-1-0.4c-0.2-0.1-0.4-0.2-0.6-0.3c-0.2-0.1-0.4-0.3-0.5-0.5
		c-0.1-0.2-0.3-0.4-0.4-0.6c-0.1-0.2-0.1-0.5-0.1-0.8c0-0.3,0.1-0.6,0.2-0.9c0.1-0.3,0.3-0.5,0.6-0.7c0.3-0.2,0.6-0.4,0.9-0.5
		c0.4-0.1,0.7-0.2,1.2-0.2c0.5,0,0.9,0.1,1.4,0.3c0.4,0.2,0.9,0.4,1.2,0.8l-0.9,1.1c-0.3-0.2-0.5-0.4-0.8-0.5
		c-0.3-0.1-0.6-0.2-1-0.2c-0.3,0-0.5,0.1-0.7,0.2c-0.2,0.1-0.3,0.3-0.3,0.5c0,0.2,0.1,0.4,0.3,0.5c0.2,0.1,0.6,0.3,0.9,0.4l1,0.4
		c0.5,0.2,0.9,0.5,1.2,0.8c0.3,0.3,0.5,0.8,0.5,1.3c0,0.3-0.1,0.6-0.2,0.9c-0.1,0.3-0.3,0.5-0.6,0.8c-0.2,0.2-0.6,0.4-0.9,0.5
		C44.3,288.8,43.8,288.9,43.4,288.9z M50.6,288.9c-0.4,0-0.8-0.1-1.1-0.2c-0.4-0.1-0.7-0.3-1-0.6c-0.3-0.3-0.5-0.6-0.7-1
		c-0.2-0.4-0.2-0.8-0.2-1.3c0-0.5,0.1-0.9,0.2-1.3c0.2-0.4,0.4-0.7,0.7-1c0.3-0.3,0.6-0.5,1-0.6c0.4-0.1,0.7-0.2,1.1-0.2
		c0.4,0,0.8,0.1,1.1,0.2c0.4,0.1,0.7,0.3,1,0.6c0.3,0.3,0.5,0.6,0.7,1c0.2,0.4,0.3,0.8,0.3,1.3c0,0.5-0.1,0.9-0.3,1.3
		c-0.2,0.4-0.4,0.7-0.7,1c-0.3,0.3-0.6,0.5-1,0.6C51.3,288.8,51,288.9,50.6,288.9z M50.6,287.5c0.4,0,0.7-0.2,0.9-0.5
		c0.2-0.3,0.3-0.7,0.3-1.2c0-0.5-0.1-0.9-0.3-1.2c-0.2-0.3-0.5-0.5-0.9-0.5c-0.4,0-0.7,0.2-0.9,0.5c-0.2,0.3-0.3,0.7-0.3,1.2
		c0,0.5,0.1,0.9,0.3,1.2C49.9,287.3,50.2,287.5,50.6,287.5z M58.3,288.9c-0.5,0-0.9-0.1-1.3-0.2c-0.4-0.1-0.7-0.3-1-0.6
		c-0.3-0.3-0.5-0.6-0.7-1c-0.2-0.4-0.2-0.8-0.2-1.3c0-0.5,0.1-0.9,0.3-1.3c0.2-0.4,0.5-0.7,0.8-1c0.3-0.3,0.7-0.5,1.1-0.6
		c0.4-0.1,0.9-0.2,1.3-0.2c0.5,0,0.9,0.1,1.3,0.2c0.4,0.1,0.7,0.3,1,0.6l-0.8,1.1c-0.4-0.3-0.9-0.5-1.3-0.5c-0.5,0-0.9,0.2-1.2,0.5
		c-0.3,0.3-0.5,0.7-0.5,1.2c0,0.5,0.2,0.9,0.5,1.2c0.3,0.3,0.7,0.5,1.2,0.5c0.3,0,0.6-0.1,0.9-0.2c0.3-0.1,0.5-0.2,0.7-0.4l0.7,1.1
		c-0.4,0.3-0.8,0.5-1.2,0.7C59.1,288.8,58.7,288.9,58.3,288.9z M64.7,288.7v-4.6h-2.4v-1.4h4.1v6H64.7z M66,281.8
		c-0.3,0-0.6-0.1-0.8-0.3c-0.2-0.2-0.3-0.5-0.3-0.8c0-0.3,0.1-0.6,0.3-0.8c0.2-0.2,0.5-0.3,0.8-0.3c0.3,0,0.6,0.1,0.8,0.3
		c0.2,0.2,0.3,0.5,0.3,0.8c0,0.3-0.1,0.6-0.3,0.8C66.6,281.8,66.3,281.8,66,281.8z M71.3,288.9c-0.3,0-0.6,0-0.8-0.1
		c-0.2-0.1-0.4-0.2-0.6-0.4c-0.2-0.2-0.3-0.4-0.4-0.6c-0.1-0.2-0.1-0.5-0.1-0.7c0-0.3,0.1-0.6,0.2-0.9c0.1-0.3,0.4-0.5,0.7-0.6
		c0.3-0.2,0.7-0.3,1.2-0.4c0.5-0.1,1.1-0.2,1.8-0.2c0-0.3-0.2-0.5-0.4-0.6c-0.2-0.2-0.5-0.2-0.9-0.2c-0.3,0-0.6,0.1-0.9,0.2
		c-0.3,0.1-0.6,0.2-0.9,0.4l-0.6-1.2c0.4-0.2,0.8-0.4,1.3-0.6c0.5-0.2,1-0.2,1.5-0.2c0.8,0,1.5,0.2,2,0.7c0.5,0.4,0.7,1.1,0.7,2v3.4
		h-1.4l-0.1-0.7h0c-0.3,0.2-0.6,0.4-1,0.6C72,288.8,71.7,288.9,71.3,288.9z M71.8,287.5c0.3,0,0.5-0.1,0.7-0.2
		c0.2-0.1,0.5-0.2,0.7-0.4v-1c-0.4,0-0.8,0.1-1.1,0.1c-0.3,0.1-0.5,0.1-0.7,0.2c-0.2,0.1-0.3,0.2-0.4,0.3c-0.1,0.1-0.1,0.2-0.1,0.4
		c0,0.2,0.1,0.3,0.2,0.4C71.4,287.5,71.6,287.5,71.8,287.5z M80.5,288.9c-0.8,0-1.3-0.2-1.7-0.7c-0.4-0.4-0.6-1.1-0.6-1.8v-4.7h-1.9
		v-1.4H80v6.2c0,0.2,0,0.3,0.1,0.5s0.1,0.2,0.2,0.3c0.1,0.1,0.2,0.1,0.3,0.2s0.2,0,0.4,0c0.1,0,0.3,0,0.4,0c0.2,0,0.3-0.1,0.5-0.1
		l0.4,1.3c-0.2,0.1-0.3,0.1-0.5,0.1c-0.1,0-0.3,0.1-0.4,0.1c-0.1,0-0.3,0.1-0.4,0.1C80.9,288.9,80.7,288.9,80.5,288.9z M90.9,288.7
		v-7.8h1.8l0.8,2.8l0.3,1.1h0l0.3-1.1l0.8-2.8h1.8v7.8h-1.5v-2.4c0-0.2,0-0.5,0-0.8c0-0.3,0-0.7,0.1-1c0-0.3,0.1-0.7,0.1-1
		c0-0.3,0.1-0.6,0.1-0.8h0l-0.6,2.1l-0.6,1.9h-0.9l-0.6-1.9l-0.6-2.1h0c0,0.2,0,0.5,0.1,0.8c0,0.3,0.1,0.7,0.1,1c0,0.3,0,0.7,0,1
		c0,0.3,0,0.6,0,0.8v2.4H90.9z M101.3,288.9c-0.5,0-0.9-0.1-1.3-0.2c-0.4-0.1-0.8-0.3-1.1-0.6c-0.3-0.3-0.5-0.6-0.7-1
		c-0.2-0.4-0.2-0.8-0.2-1.3c0-0.5,0.1-0.9,0.2-1.3c0.2-0.4,0.4-0.7,0.7-1c0.3-0.3,0.6-0.5,1-0.6c0.4-0.1,0.8-0.2,1.2-0.2
		c0.5,0,0.9,0.1,1.2,0.2c0.4,0.1,0.6,0.3,0.9,0.6c0.2,0.2,0.4,0.5,0.5,0.9c0.1,0.3,0.2,0.7,0.2,1.1c0,0.2,0,0.3,0,0.5
		c0,0.1,0,0.3,0,0.3h-4.1c0.1,0.4,0.3,0.8,0.6,1c0.3,0.2,0.7,0.3,1.2,0.3c0.3,0,0.5,0,0.8-0.1c0.2-0.1,0.5-0.2,0.8-0.3l0.6,1.1
		c-0.3,0.2-0.7,0.4-1.1,0.5C102.1,288.8,101.7,288.9,101.3,288.9z M101.2,284c-0.4,0-0.7,0.1-0.9,0.3c-0.2,0.2-0.4,0.5-0.5,0.8h2.5
		C102.3,284.4,101.9,284,101.2,284z M107.7,288.9c-0.4,0-0.7-0.1-1-0.2c-0.3-0.1-0.6-0.4-0.8-0.6c-0.2-0.3-0.4-0.6-0.5-1
		c-0.1-0.4-0.2-0.8-0.2-1.3c0-0.5,0.1-0.9,0.2-1.3c0.1-0.4,0.3-0.7,0.6-1c0.2-0.3,0.5-0.5,0.8-0.6c0.3-0.1,0.6-0.2,1-0.2
		s0.6,0.1,0.8,0.2c0.2,0.1,0.5,0.3,0.7,0.5h0l-0.1-0.9v-2h1.8v8.4h-1.5l-0.1-0.6h0c-0.2,0.2-0.5,0.4-0.8,0.5
		C108.3,288.8,108,288.9,107.7,288.9z M108.1,287.4c0.2,0,0.4,0,0.5-0.1c0.2-0.1,0.3-0.2,0.5-0.4v-2.4c-0.2-0.1-0.3-0.2-0.5-0.3
		c-0.2-0.1-0.3-0.1-0.5-0.1c-0.3,0-0.6,0.1-0.9,0.4c-0.2,0.3-0.3,0.7-0.3,1.2c0,0.6,0.1,1,0.3,1.3
		C107.4,287.3,107.7,287.4,108.1,287.4z M115.1,288.7v-4.6h-2.4v-1.4h4.1v6H115.1z M116.4,281.8c-0.3,0-0.6-0.1-0.8-0.3
		c-0.2-0.2-0.3-0.5-0.3-0.8c0-0.3,0.1-0.6,0.3-0.8c0.2-0.2,0.5-0.3,0.8-0.3s0.6,0.1,0.8,0.3c0.2,0.2,0.3,0.5,0.3,0.8
		c0,0.3-0.1,0.6-0.3,0.8C117,281.8,116.7,281.8,116.4,281.8z M121.7,288.9c-0.3,0-0.6,0-0.8-0.1c-0.2-0.1-0.4-0.2-0.6-0.4
		c-0.2-0.2-0.3-0.4-0.4-0.6c-0.1-0.2-0.1-0.5-0.1-0.7c0-0.3,0.1-0.6,0.2-0.9c0.1-0.3,0.4-0.5,0.7-0.6c0.3-0.2,0.7-0.3,1.2-0.4
		c0.5-0.1,1.1-0.2,1.8-0.2c0-0.3-0.2-0.5-0.4-0.6c-0.2-0.2-0.5-0.2-0.9-0.2c-0.3,0-0.6,0.1-0.9,0.2c-0.3,0.1-0.6,0.2-0.9,0.4
		l-0.6-1.2c0.4-0.2,0.8-0.4,1.3-0.6c0.5-0.2,1-0.2,1.5-0.2c0.8,0,1.5,0.2,2,0.7c0.5,0.4,0.7,1.1,0.7,2v3.4H124l-0.1-0.7h0
		c-0.3,0.2-0.6,0.4-1,0.6C122.4,288.8,122.1,288.9,121.7,288.9z M122.2,287.5c0.3,0,0.5-0.1,0.7-0.2c0.2-0.1,0.5-0.2,0.7-0.4v-1
		c-0.4,0-0.8,0.1-1.1,0.1c-0.3,0.1-0.5,0.1-0.7,0.2c-0.2,0.1-0.3,0.2-0.4,0.3c-0.1,0.1-0.1,0.2-0.1,0.4c0,0.2,0.1,0.3,0.2,0.4
		C121.8,287.5,122,287.5,122.2,287.5z"/>
	<path class="st1" d="M217.9,26.2v12.4l8.6,8.6h10.6"/>
	<path class="st6" d="M217.9,26.2v12.4l8.6,8.6h10.6"/>
	<path class="st1" d="M345.9,21.5V9.1l-8.6-8.6h-10.6"/>
	<path class="st6" d="M345.9,21.5V9.1l-8.6-8.6h-10.6"/>
	<path class="st9" d="M222.4,4.5h112.8l6.4,6.4v31.8l0,0H228.8l-6.4-6.4V4.5z"/>
	<path class="st10" d="M222.4,4.5h112.8l6.4,6.4v31.8l0,0H228.8l-6.4-6.4V4.5z"/>
	<path class="st8" d="M264.5,28.2c-0.5,0-1-0.1-1.4-0.2c-0.4-0.2-0.8-0.4-1.1-0.8c-0.3-0.3-0.6-0.8-0.8-1.2
		c-0.2-0.5-0.3-1.1-0.3-1.7c0-0.7,0.1-1.2,0.3-1.8c0.2-0.5,0.4-0.9,0.8-1.3c0.3-0.4,0.7-0.6,1.1-0.8c0.4-0.2,0.9-0.3,1.4-0.3
		c0.5,0,1,0.1,1.3,0.3c0.4,0.2,0.7,0.4,1,0.7l-1,1.1c-0.2-0.2-0.3-0.3-0.5-0.4c-0.2-0.1-0.5-0.2-0.8-0.2c-0.3,0-0.5,0.1-0.7,0.2
		c-0.2,0.1-0.4,0.3-0.6,0.5c-0.2,0.2-0.3,0.5-0.4,0.8c-0.1,0.3-0.1,0.7-0.1,1.1c0,0.8,0.2,1.4,0.5,1.9c0.3,0.4,0.8,0.7,1.4,0.7
		c0.1,0,0.3,0,0.4-0.1c0.1,0,0.3-0.1,0.3-0.2v-1.3h-1.1v-1.4h2.7v3.6c-0.3,0.2-0.6,0.5-1,0.7C265.5,28.1,265.1,28.2,264.5,28.2z
		 M270.3,28.2c-0.3,0-0.6,0-0.8-0.1c-0.2-0.1-0.4-0.2-0.6-0.4c-0.2-0.2-0.3-0.4-0.4-0.6c-0.1-0.2-0.1-0.5-0.1-0.7
		c0-0.3,0.1-0.6,0.2-0.9c0.1-0.3,0.4-0.5,0.7-0.6c0.3-0.2,0.7-0.3,1.2-0.4c0.5-0.1,1.1-0.2,1.8-0.2c0-0.3-0.2-0.5-0.4-0.6
		c-0.2-0.2-0.5-0.2-0.9-0.2c-0.3,0-0.6,0.1-0.9,0.2c-0.3,0.1-0.6,0.2-0.9,0.4l-0.6-1.2c0.4-0.2,0.8-0.4,1.3-0.6
		c0.5-0.2,1-0.2,1.5-0.2c0.8,0,1.5,0.2,2,0.7c0.5,0.4,0.7,1.1,0.7,2v3.4h-1.4l-0.1-0.7h0c-0.3,0.2-0.6,0.4-1,0.6
		C271.1,28.2,270.7,28.2,270.3,28.2z M270.9,26.9c0.3,0,0.5-0.1,0.7-0.2c0.2-0.1,0.5-0.2,0.7-0.4v-1c-0.4,0-0.8,0.1-1.1,0.1
		c-0.3,0.1-0.5,0.1-0.7,0.2c-0.2,0.1-0.3,0.2-0.4,0.3c-0.1,0.1-0.1,0.2-0.1,0.4c0,0.2,0.1,0.3,0.2,0.4
		C270.4,26.8,270.6,26.9,270.9,26.9z M275.3,28.1v-6h1.3l0.1,0.7h0c0.1-0.2,0.3-0.4,0.5-0.6c0.2-0.2,0.5-0.3,0.8-0.3
		c0.3,0,0.5,0.1,0.7,0.2c0.2,0.2,0.3,0.4,0.4,0.7c0.1-0.3,0.3-0.5,0.5-0.7c0.2-0.2,0.5-0.3,0.8-0.3c0.4,0,0.8,0.2,1,0.5
		c0.2,0.3,0.3,0.8,0.3,1.4v4.2H280V24c0-0.2,0-0.3-0.1-0.4c0-0.1-0.1-0.1-0.2-0.1c-0.1,0-0.2,0-0.3,0.1c-0.1,0.1-0.2,0.2-0.2,0.4v4
		h-1.4V24c0-0.4-0.1-0.5-0.3-0.5c-0.1,0-0.2,0-0.3,0.1c-0.1,0.1-0.2,0.2-0.2,0.4v4H275.3z M285.4,28.1v-4.6H283v-1.4h4.1v6H285.4z
		 M286.6,21.2c-0.3,0-0.6-0.1-0.8-0.3c-0.2-0.2-0.3-0.5-0.3-0.8c0-0.3,0.1-0.6,0.3-0.8c0.2-0.2,0.5-0.3,0.8-0.3s0.6,0.1,0.8,0.3
		c0.2,0.2,0.3,0.5,0.3,0.8c0,0.3-0.1,0.6-0.3,0.8C287.3,21.1,287,21.2,286.6,21.2z M290.1,28.1v-6h1.4l0.1,0.8h0
		c0.3-0.3,0.6-0.5,0.9-0.7c0.3-0.2,0.7-0.3,1.2-0.3c0.7,0,1.2,0.2,1.5,0.7c0.3,0.4,0.5,1,0.5,1.8v3.7H294v-3.4
		c0-0.4-0.1-0.7-0.2-0.9c-0.1-0.2-0.3-0.3-0.7-0.3c-0.2,0-0.5,0.1-0.6,0.2c-0.2,0.1-0.4,0.3-0.6,0.5v4H290.1z M299.8,30.6
		c-0.4,0-0.7,0-1.1-0.1c-0.3-0.1-0.6-0.1-0.9-0.3c-0.2-0.1-0.4-0.3-0.6-0.5c-0.1-0.2-0.2-0.4-0.2-0.7c0-0.5,0.3-0.9,0.9-1.2v0
		c-0.2-0.1-0.3-0.2-0.4-0.4c-0.1-0.2-0.2-0.4-0.2-0.6c0-0.2,0.1-0.4,0.2-0.6c0.1-0.2,0.3-0.4,0.5-0.5v0c-0.2-0.1-0.4-0.3-0.6-0.6
		c-0.1-0.3-0.2-0.6-0.2-0.9c0-0.4,0.1-0.7,0.2-0.9c0.1-0.3,0.3-0.5,0.6-0.7c0.2-0.2,0.5-0.3,0.8-0.4s0.6-0.1,1-0.1
		c0.4,0,0.7,0,1,0.1h2.4v1.3H302c0.1,0.1,0.1,0.2,0.2,0.3c0.1,0.1,0.1,0.3,0.1,0.4c0,0.3-0.1,0.6-0.2,0.9s-0.3,0.5-0.5,0.6
		c-0.2,0.2-0.5,0.3-0.8,0.4c-0.3,0.1-0.6,0.1-1,0.1c-0.3,0-0.5,0-0.8-0.1c-0.1,0.1-0.2,0.1-0.2,0.2c0,0.1-0.1,0.1-0.1,0.2
		c0,0.2,0.1,0.3,0.2,0.4c0.2,0.1,0.4,0.1,0.8,0.1h1.1c0.8,0,1.4,0.1,1.8,0.3c0.4,0.2,0.6,0.6,0.6,1.2c0,0.3-0.1,0.6-0.2,0.9
		c-0.2,0.3-0.4,0.5-0.7,0.7c-0.3,0.2-0.7,0.3-1.1,0.4C300.8,30.6,300.3,30.6,299.8,30.6z M299.9,25.1c0.2,0,0.5-0.1,0.6-0.2
		c0.2-0.2,0.3-0.4,0.3-0.8c0-0.3-0.1-0.6-0.3-0.7c-0.2-0.2-0.4-0.2-0.6-0.2s-0.5,0.1-0.6,0.2c-0.2,0.2-0.2,0.4-0.2,0.7
		c0,0.3,0.1,0.6,0.2,0.8C299.4,25.1,299.6,25.1,299.9,25.1z M300,29.5c0.5,0,0.9-0.1,1.2-0.2c0.3-0.1,0.5-0.3,0.5-0.5
		c0-0.2-0.1-0.3-0.3-0.4c-0.2-0.1-0.4-0.1-0.8-0.1h-0.8c-0.2,0-0.4,0-0.5,0c-0.1,0-0.3,0-0.4-0.1c-0.2,0.1-0.3,0.2-0.3,0.3
		s-0.1,0.2-0.1,0.3c0,0.2,0.1,0.4,0.4,0.5C299.2,29.5,299.5,29.5,300,29.5z"/>
	<path class="st1" d="M66.3,60.6V73l8.6,8.6h10.6"/>
	<path class="st6" d="M66.3,60.6V73l8.6,8.6h10.6"/>
	<path class="st1" d="M194.2,55.9V43.5l-8.6-8.6H175"/>
	<path class="st6" d="M194.2,55.9V43.5l-8.6-8.6H175"/>
	<path class="st9" d="M70.8,38.8h112.8l6.4,6.4V77l0,0H77.2l-6.4-6.4V38.8z"/>
	<path class="st10" d="M70.8,38.8h112.8l6.4,6.4V77l0,0H77.2l-6.4-6.4V38.8z"/>
	<path class="st8" d="M86.5,58.5l-0.2,0.7H88l-0.2-0.7c-0.1-0.4-0.2-0.8-0.3-1.2s-0.2-0.9-0.3-1.3h0c-0.1,0.4-0.2,0.8-0.3,1.3
		S86.6,58.1,86.5,58.5z M83.7,62.5l2.4-7.8h2.1l2.4,7.8h-1.9l-0.5-1.9H86l-0.5,1.9H83.7z M91.7,62.5v-7.8h2.8c0.4,0,0.8,0,1.2,0.1
		c0.4,0.1,0.7,0.2,1,0.4c0.3,0.2,0.5,0.4,0.7,0.8c0.2,0.3,0.2,0.7,0.2,1.2c0,0.6-0.1,1-0.4,1.4c-0.2,0.4-0.6,0.7-1,0.8l1.8,3.1h-2
		l-1.5-2.8h-0.9v2.8H91.7z M93.4,58.2h0.9c0.9,0,1.4-0.4,1.4-1.2c0-0.4-0.1-0.7-0.4-0.8c-0.2-0.2-0.6-0.2-1.1-0.2h-0.9V58.2z
		 M106.3,62.5v-7.8h5.2v1.5h-3.4v1.6h2.9v1.5h-2.9V61h3.5v1.5H106.3z M112.8,62.5l2.1-3.1l-1.9-2.9h1.9l0.6,1
		c0.1,0.2,0.2,0.3,0.3,0.5c0.1,0.2,0.2,0.3,0.3,0.5h0c0.1-0.2,0.2-0.3,0.2-0.5s0.2-0.3,0.2-0.5l0.5-1h1.8l-1.9,3.1l2.1,2.9h-1.9
		l-0.7-1c-0.1-0.2-0.2-0.3-0.3-0.5c-0.1-0.2-0.2-0.3-0.3-0.5h0c-0.1,0.2-0.2,0.3-0.3,0.5c-0.1,0.2-0.2,0.3-0.3,0.5l-0.6,1H112.8z
		 M120.5,64.7v-8.2h1.4l0.1,0.6h0c0.2-0.2,0.5-0.4,0.8-0.5c0.3-0.1,0.6-0.2,1-0.2c0.4,0,0.7,0.1,1,0.2c0.3,0.1,0.6,0.3,0.8,0.6
		c0.2,0.3,0.4,0.6,0.5,1c0.1,0.4,0.2,0.8,0.2,1.2c0,0.5-0.1,1-0.2,1.4c-0.1,0.4-0.3,0.7-0.6,1c-0.2,0.3-0.5,0.5-0.8,0.6
		c-0.3,0.1-0.6,0.2-1,0.2c-0.6,0-1-0.2-1.5-0.6h0l0.1,1v1.7H120.5z M123.3,61.2c0.3,0,0.6-0.1,0.8-0.4c0.2-0.3,0.3-0.7,0.3-1.3
		c0-1.1-0.4-1.6-1.1-1.6c-0.4,0-0.7,0.2-1.1,0.5v2.4c0.2,0.1,0.3,0.2,0.5,0.3C122.9,61.1,123.1,61.2,123.3,61.2z M130.8,62.6
		c-0.5,0-0.9-0.1-1.3-0.2c-0.4-0.1-0.8-0.3-1.1-0.6c-0.3-0.3-0.5-0.6-0.7-1c-0.2-0.4-0.2-0.8-0.2-1.3s0.1-0.9,0.2-1.3
		c0.2-0.4,0.4-0.7,0.7-1c0.3-0.3,0.6-0.5,1-0.6c0.4-0.1,0.8-0.2,1.2-0.2c0.5,0,0.9,0.1,1.2,0.2c0.4,0.1,0.6,0.3,0.9,0.6
		c0.2,0.2,0.4,0.5,0.5,0.9c0.1,0.3,0.2,0.7,0.2,1.1c0,0.2,0,0.3,0,0.5c0,0.1,0,0.3,0,0.3h-4.1c0.1,0.4,0.3,0.8,0.6,1
		c0.3,0.2,0.7,0.3,1.2,0.3c0.3,0,0.5,0,0.8-0.1c0.2-0.1,0.5-0.2,0.8-0.3l0.6,1.1c-0.3,0.2-0.7,0.4-1.1,0.5
		C131.6,62.5,131.2,62.6,130.8,62.6z M130.6,57.7c-0.4,0-0.7,0.1-0.9,0.3c-0.2,0.2-0.4,0.5-0.5,0.8h2.5
		C131.7,58.1,131.3,57.7,130.6,57.7z M135.4,62.5v-6h1.4l0.1,1.3h0c0.3-0.5,0.6-0.8,1.1-1.1c0.4-0.2,0.9-0.4,1.3-0.4
		c0.3,0,0.5,0,0.6,0.1s0.3,0.1,0.5,0.2l-0.4,1.5c-0.2-0.1-0.4-0.1-0.5-0.1c-0.1,0-0.3,0-0.6,0c-0.4,0-0.7,0.1-1.1,0.3
		c-0.4,0.2-0.7,0.6-0.9,1.1v3.1H135.4z M144.6,62.5v-4.6h-2.4v-1.4h4.1v6H144.6z M145.8,55.6c-0.3,0-0.6-0.1-0.8-0.3
		c-0.2-0.2-0.3-0.5-0.3-0.8c0-0.3,0.1-0.6,0.3-0.8c0.2-0.2,0.5-0.3,0.8-0.3s0.6,0.1,0.8,0.3c0.2,0.2,0.3,0.5,0.3,0.8
		c0,0.3-0.1,0.6-0.3,0.8C146.4,55.5,146.1,55.6,145.8,55.6z M152.4,62.6c-0.5,0-0.9-0.1-1.3-0.2c-0.4-0.1-0.8-0.3-1.1-0.6
		c-0.3-0.3-0.5-0.6-0.7-1c-0.2-0.4-0.2-0.8-0.2-1.3s0.1-0.9,0.2-1.3c0.2-0.4,0.4-0.7,0.7-1c0.3-0.3,0.6-0.5,1-0.6
		c0.4-0.1,0.8-0.2,1.2-0.2c0.5,0,0.9,0.1,1.2,0.2c0.4,0.1,0.6,0.3,0.9,0.6c0.2,0.2,0.4,0.5,0.5,0.9c0.1,0.3,0.2,0.7,0.2,1.1
		c0,0.2,0,0.3,0,0.5c0,0.1,0,0.3,0,0.3h-4.1c0.1,0.4,0.3,0.8,0.6,1c0.3,0.2,0.7,0.3,1.2,0.3c0.3,0,0.5,0,0.8-0.1
		c0.2-0.1,0.5-0.2,0.8-0.3l0.6,1.1c-0.3,0.2-0.7,0.4-1.1,0.5C153.2,62.5,152.8,62.6,152.4,62.6z M152.2,57.7c-0.4,0-0.7,0.1-0.9,0.3
		c-0.2,0.2-0.4,0.5-0.5,0.8h2.5C153.3,58.1,152.9,57.7,152.2,57.7z M156.5,62.5v-6h1.4l0.1,0.8h0c0.3-0.3,0.6-0.5,0.9-0.7
		c0.3-0.2,0.7-0.3,1.2-0.3c0.7,0,1.2,0.2,1.5,0.7c0.3,0.4,0.5,1,0.5,1.8v3.7h-1.8V59c0-0.4-0.1-0.7-0.2-0.9
		c-0.1-0.2-0.3-0.3-0.7-0.3c-0.2,0-0.5,0.1-0.6,0.2c-0.2,0.1-0.4,0.3-0.6,0.5v4H156.5z M166.9,62.6c-0.5,0-0.9-0.1-1.3-0.2
		c-0.4-0.1-0.7-0.3-1-0.6c-0.3-0.3-0.5-0.6-0.7-1c-0.2-0.4-0.2-0.8-0.2-1.3c0-0.5,0.1-0.9,0.3-1.3c0.2-0.4,0.5-0.7,0.8-1
		c0.3-0.3,0.7-0.5,1.1-0.6c0.4-0.1,0.9-0.2,1.3-0.2c0.5,0,0.9,0.1,1.3,0.2c0.4,0.1,0.7,0.3,1,0.6l-0.8,1.1c-0.4-0.3-0.9-0.5-1.3-0.5
		c-0.5,0-0.9,0.2-1.2,0.5c-0.3,0.3-0.5,0.7-0.5,1.2c0,0.5,0.2,0.9,0.5,1.2c0.3,0.3,0.7,0.5,1.2,0.5c0.3,0,0.6-0.1,0.9-0.2
		c0.3-0.1,0.5-0.2,0.7-0.4l0.7,1.1c-0.4,0.3-0.7,0.5-1.2,0.7C167.8,62.5,167.3,62.6,166.9,62.6z M174,62.6c-0.5,0-0.9-0.1-1.3-0.2
		c-0.4-0.1-0.8-0.3-1.1-0.6c-0.3-0.3-0.5-0.6-0.7-1c-0.2-0.4-0.3-0.8-0.2-1.3c0-0.5,0.1-0.9,0.2-1.3c0.2-0.4,0.4-0.7,0.7-1
		c0.3-0.3,0.6-0.5,1-0.6c0.4-0.1,0.8-0.2,1.2-0.2c0.5,0,0.9,0.1,1.2,0.2c0.4,0.1,0.6,0.3,0.9,0.6c0.2,0.2,0.4,0.5,0.5,0.9
		c0.1,0.3,0.2,0.7,0.2,1.1c0,0.2,0,0.3,0,0.5c0,0.1,0,0.3,0,0.3h-4.1c0.1,0.4,0.3,0.8,0.6,1c0.3,0.2,0.7,0.3,1.2,0.3
		c0.3,0,0.5,0,0.8-0.1c0.2-0.1,0.5-0.2,0.8-0.3l0.6,1.1c-0.3,0.2-0.7,0.4-1.1,0.5C174.8,62.5,174.4,62.6,174,62.6z M173.8,57.7
		c-0.4,0-0.7,0.1-0.9,0.3c-0.2,0.2-0.4,0.5-0.5,0.8h2.5C174.9,58.1,174.5,57.7,173.8,57.7z"/>
	<path class="st1" d="M369.5,60.5V77L381,88.5H395"/>
	<path class="st6" d="M369.5,60.5V77L381,88.5H395"/>
	<path class="st1" d="M539.6,54.3V37.8l-11.5-11.5h-14.1"/>
	<path class="st6" d="M539.6,54.3V37.8l-11.5-11.5h-14.1"/>
	<path class="st9" d="M375.6,31.6h149.9l8.5,8.5v42.3l0,0H384l-8.5-8.5V31.6z"/>
	<path class="st10" d="M375.6,31.6h149.9l8.5,8.5v42.3l0,0H384l-8.5-8.5V31.6z"/>
	<path class="st8" d="M398.1,54.5v-7.8h2.8c0.4,0,0.8,0,1.2,0.1c0.4,0.1,0.7,0.2,1,0.4c0.3,0.2,0.5,0.5,0.7,0.8
		c0.2,0.3,0.2,0.7,0.2,1.2c0,0.4-0.1,0.8-0.2,1.2c-0.2,0.3-0.4,0.6-0.7,0.8c-0.3,0.2-0.6,0.4-1,0.5c-0.4,0.1-0.8,0.2-1.2,0.2h-1v2.7
		H398.1z M399.8,50.5h0.9c1,0,1.4-0.4,1.4-1.2c0-0.4-0.1-0.7-0.4-0.9c-0.2-0.2-0.6-0.2-1.1-0.2h-0.9V50.5z M408.3,54.7
		c-0.5,0-0.9-0.1-1.3-0.2c-0.4-0.1-0.8-0.3-1.1-0.6c-0.3-0.3-0.5-0.6-0.7-1c-0.2-0.4-0.2-0.8-0.2-1.3c0-0.5,0.1-0.9,0.2-1.3
		c0.2-0.4,0.4-0.7,0.7-1c0.3-0.3,0.6-0.5,1-0.6c0.4-0.1,0.8-0.2,1.2-0.2c0.5,0,0.9,0.1,1.2,0.2c0.4,0.1,0.6,0.3,0.9,0.6
		c0.2,0.2,0.4,0.5,0.5,0.9c0.1,0.3,0.2,0.7,0.2,1.1c0,0.2,0,0.3,0,0.5c0,0.1,0,0.3,0,0.3h-4.1c0.1,0.4,0.3,0.8,0.6,1
		c0.3,0.2,0.7,0.3,1.2,0.3c0.3,0,0.5,0,0.8-0.1c0.2-0.1,0.5-0.2,0.8-0.3l0.6,1.1c-0.3,0.2-0.7,0.4-1.1,0.5
		C409.1,54.6,408.7,54.7,408.3,54.7z M408.2,49.8c-0.4,0-0.7,0.1-0.9,0.3c-0.2,0.2-0.4,0.5-0.5,0.8h2.5
		C409.3,50.1,408.9,49.8,408.2,49.8z M412.9,54.5v-6h1.4l0.1,1.3h0c0.3-0.5,0.6-0.8,1.1-1.1c0.4-0.2,0.9-0.4,1.3-0.4
		c0.3,0,0.5,0,0.6,0.1c0.2,0,0.3,0.1,0.5,0.2l-0.4,1.5c-0.2-0.1-0.4-0.1-0.5-0.1c-0.1,0-0.3,0-0.6,0c-0.4,0-0.7,0.1-1.1,0.3
		c-0.4,0.2-0.7,0.6-0.9,1.1v3.1H412.9z M422.3,54.7c-0.5,0-1.1-0.1-1.6-0.3c-0.5-0.2-1-0.4-1.3-0.6l0.8-1.1c0.4,0.2,0.7,0.4,1.1,0.5
		c0.4,0.1,0.8,0.2,1.3,0.2c0.3,0,0.6,0,0.7-0.1c0.2-0.1,0.2-0.2,0.2-0.4c0-0.1,0-0.1-0.1-0.2c0-0.1-0.1-0.1-0.2-0.2
		c-0.1-0.1-0.3-0.1-0.5-0.1c-0.2-0.1-0.4-0.1-0.7-0.2c-0.8-0.2-1.4-0.4-1.8-0.7c-0.3-0.3-0.5-0.7-0.5-1.1c0-0.3,0.1-0.5,0.2-0.8
		c0.1-0.2,0.3-0.4,0.5-0.6c0.2-0.2,0.5-0.3,0.9-0.4c0.3-0.1,0.7-0.1,1.2-0.1c0.5,0,1,0.1,1.5,0.3c0.4,0.2,0.8,0.3,1.1,0.5l-0.8,1.1
		c-0.3-0.2-0.6-0.3-1-0.4c-0.3-0.1-0.7-0.1-1-0.1c-0.3,0-0.5,0-0.6,0.1c-0.1,0.1-0.2,0.2-0.2,0.3c0,0.2,0.1,0.3,0.3,0.4
		c0.2,0.1,0.6,0.2,1.1,0.3c0.5,0.1,0.8,0.2,1.1,0.3c0.3,0.1,0.5,0.2,0.7,0.4c0.2,0.1,0.3,0.3,0.4,0.5c0.1,0.2,0.1,0.4,0.1,0.6
		c0,0.3-0.1,0.5-0.2,0.8c-0.1,0.2-0.3,0.4-0.6,0.6c-0.2,0.2-0.5,0.3-0.9,0.4C423.2,54.6,422.8,54.7,422.3,54.7z M429.6,54.7
		c-0.4,0-0.8-0.1-1.1-0.2c-0.4-0.1-0.7-0.3-1-0.6c-0.3-0.3-0.5-0.6-0.7-1c-0.2-0.4-0.2-0.8-0.2-1.3c0-0.5,0.1-0.9,0.2-1.3
		c0.2-0.4,0.4-0.7,0.7-1c0.3-0.3,0.6-0.5,1-0.6c0.4-0.1,0.7-0.2,1.1-0.2c0.4,0,0.8,0.1,1.1,0.2c0.4,0.1,0.7,0.3,1,0.6
		c0.3,0.3,0.5,0.6,0.7,1c0.2,0.4,0.3,0.8,0.3,1.3c0,0.5-0.1,0.9-0.3,1.3c-0.2,0.4-0.4,0.7-0.7,1s-0.6,0.5-1,0.6
		C430.3,54.6,429.9,54.7,429.6,54.7z M429.6,53.2c0.4,0,0.7-0.2,0.9-0.5c0.2-0.3,0.3-0.7,0.3-1.2c0-0.5-0.1-0.9-0.3-1.2
		c-0.2-0.3-0.5-0.5-0.9-0.5c-0.4,0-0.7,0.2-0.9,0.5c-0.2,0.3-0.3,0.7-0.3,1.2c0,0.5,0.1,0.9,0.3,1.2
		C428.8,53.1,429.1,53.2,429.6,53.2z M434,54.5v-6h1.4l0.1,0.8h0c0.3-0.3,0.6-0.5,0.9-0.7c0.3-0.2,0.7-0.3,1.2-0.3
		c0.7,0,1.2,0.2,1.5,0.7c0.3,0.4,0.5,1,0.5,1.8v3.7h-1.8v-3.4c0-0.4-0.1-0.7-0.2-0.9c-0.1-0.2-0.3-0.3-0.7-0.3
		c-0.2,0-0.5,0.1-0.6,0.2c-0.2,0.1-0.4,0.3-0.6,0.5v4H434z M443,54.7c-0.3,0-0.6,0-0.8-0.1c-0.2-0.1-0.4-0.2-0.6-0.4
		s-0.3-0.4-0.4-0.6c-0.1-0.2-0.1-0.5-0.1-0.7c0-0.3,0.1-0.6,0.2-0.9c0.1-0.3,0.4-0.5,0.7-0.6c0.3-0.2,0.7-0.3,1.2-0.4
		c0.5-0.1,1.1-0.2,1.8-0.2c0-0.3-0.2-0.5-0.4-0.6c-0.2-0.2-0.5-0.2-0.9-0.2c-0.3,0-0.6,0.1-0.9,0.2c-0.3,0.1-0.6,0.2-0.9,0.4
		l-0.6-1.2c0.4-0.2,0.8-0.4,1.3-0.6c0.5-0.2,1-0.2,1.5-0.2c0.8,0,1.5,0.2,2,0.7s0.7,1.1,0.7,2v3.4h-1.4l-0.1-0.7h0
		c-0.3,0.2-0.6,0.4-1,0.6C443.8,54.6,443.4,54.7,443,54.7z M443.6,53.3c0.3,0,0.5-0.1,0.7-0.2c0.2-0.1,0.5-0.2,0.7-0.4v-1
		c-0.4,0-0.8,0.1-1.1,0.1c-0.3,0.1-0.5,0.1-0.7,0.2s-0.3,0.2-0.4,0.3c-0.1,0.1-0.1,0.2-0.1,0.4c0,0.2,0.1,0.3,0.2,0.4
		C443.2,53.3,443.4,53.3,443.6,53.3z M452.3,54.7c-0.8,0-1.3-0.2-1.7-0.7c-0.4-0.4-0.6-1.1-0.6-1.8v-4.7h-1.9v-1.4h3.6v6.2
		c0,0.2,0,0.3,0.1,0.5s0.1,0.2,0.2,0.3c0.1,0.1,0.2,0.1,0.3,0.2s0.2,0,0.4,0c0.1,0,0.3,0,0.4,0c0.2,0,0.3-0.1,0.5-0.1l0.4,1.3
		c-0.2,0.1-0.3,0.1-0.5,0.1s-0.3,0.1-0.4,0.1c-0.1,0-0.3,0.1-0.4,0.1C452.6,54.7,452.5,54.7,452.3,54.7z M458.1,54.5v-4.6h-2.4v-1.4
		h4.1v6H458.1z M459.4,47.6c-0.3,0-0.6-0.1-0.8-0.3c-0.2-0.2-0.3-0.5-0.3-0.8c0-0.3,0.1-0.6,0.3-0.8c0.2-0.2,0.5-0.3,0.8-0.3
		s0.6,0.1,0.8,0.3c0.2,0.2,0.3,0.5,0.3,0.8c0,0.3-0.1,0.6-0.3,0.8C460,47.5,459.7,47.6,459.4,47.6z M462.8,54.5v-1l3.1-3.6h-2.7
		v-1.4h5.2v0.9l-3.1,3.6h3.2v1.4H462.8z M471.8,54.7c-0.3,0-0.6,0-0.8-0.1c-0.2-0.1-0.4-0.2-0.6-0.4c-0.2-0.2-0.3-0.4-0.4-0.6
		c-0.1-0.2-0.1-0.5-0.1-0.7c0-0.3,0.1-0.6,0.2-0.9c0.1-0.3,0.4-0.5,0.7-0.6c0.3-0.2,0.7-0.3,1.2-0.4c0.5-0.1,1.1-0.2,1.8-0.2
		c0-0.3-0.2-0.5-0.4-0.6c-0.2-0.2-0.5-0.2-0.9-0.2c-0.3,0-0.6,0.1-0.9,0.2c-0.3,0.1-0.6,0.2-0.9,0.4l-0.6-1.2
		c0.4-0.2,0.8-0.4,1.3-0.6c0.5-0.2,1-0.2,1.5-0.2c0.8,0,1.5,0.2,2,0.7c0.5,0.4,0.7,1.1,0.7,2v3.4h-1.4l-0.1-0.7h0
		c-0.3,0.2-0.6,0.4-1,0.6C472.6,54.6,472.2,54.7,471.8,54.7z M472.4,53.3c0.3,0,0.5-0.1,0.7-0.2c0.2-0.1,0.5-0.2,0.7-0.4v-1
		c-0.4,0-0.8,0.1-1.1,0.1c-0.3,0.1-0.5,0.1-0.7,0.2c-0.2,0.1-0.3,0.2-0.4,0.3c-0.1,0.1-0.1,0.2-0.1,0.4c0,0.2,0.1,0.3,0.2,0.4
		C472,53.3,472.2,53.3,472.4,53.3z M481,54.7c-0.5,0-0.9-0.1-1.2-0.2c-0.3-0.1-0.6-0.3-0.8-0.5c-0.2-0.2-0.3-0.5-0.4-0.8
		c-0.1-0.3-0.1-0.7-0.1-1.1v-2.1H477v-1.3l1.6-0.1l0.2-1.8h1.5v1.8h2.5v1.4h-2.5V52c0,0.5,0.1,0.8,0.3,1c0.2,0.2,0.5,0.3,1,0.3
		c0.2,0,0.4,0,0.6-0.1s0.4-0.1,0.5-0.2l0.3,1.3c-0.3,0.1-0.6,0.2-0.9,0.2C481.8,54.6,481.4,54.7,481,54.7z M486.9,54.5v-4.6h-2.4
		v-1.4h4.1v6H486.9z M488.2,47.6c-0.3,0-0.6-0.1-0.8-0.3c-0.2-0.2-0.3-0.5-0.3-0.8c0-0.3,0.1-0.6,0.3-0.8c0.2-0.2,0.5-0.3,0.8-0.3
		s0.6,0.1,0.8,0.3c0.2,0.2,0.3,0.5,0.3,0.8c0,0.3-0.1,0.6-0.3,0.8C488.8,47.5,488.5,47.6,488.2,47.6z M494.4,54.7
		c-0.4,0-0.8-0.1-1.1-0.2c-0.4-0.1-0.7-0.3-1-0.6c-0.3-0.3-0.5-0.6-0.7-1c-0.2-0.4-0.2-0.8-0.2-1.3c0-0.5,0.1-0.9,0.2-1.3
		c0.2-0.4,0.4-0.7,0.7-1c0.3-0.3,0.6-0.5,1-0.6c0.4-0.1,0.7-0.2,1.1-0.2c0.4,0,0.8,0.1,1.1,0.2c0.4,0.1,0.7,0.3,1,0.6
		c0.3,0.3,0.5,0.6,0.7,1c0.2,0.4,0.3,0.8,0.3,1.3c0,0.5-0.1,0.9-0.3,1.3c-0.2,0.4-0.4,0.7-0.7,1c-0.3,0.3-0.6,0.5-1,0.6
		C495.1,54.6,494.7,54.7,494.4,54.7z M494.4,53.2c0.4,0,0.7-0.2,0.9-0.5c0.2-0.3,0.3-0.7,0.3-1.2c0-0.5-0.1-0.9-0.3-1.2
		c-0.2-0.3-0.5-0.5-0.9-0.5c-0.4,0-0.7,0.2-0.9,0.5c-0.2,0.3-0.3,0.7-0.3,1.2c0,0.5,0.1,0.9,0.3,1.2
		C493.6,53.1,493.9,53.2,494.4,53.2z M498.8,54.5v-6h1.4l0.1,0.8h0c0.3-0.3,0.6-0.5,0.9-0.7c0.3-0.2,0.7-0.3,1.2-0.3
		c0.7,0,1.2,0.2,1.5,0.7c0.3,0.4,0.5,1,0.5,1.8v3.7h-1.8v-3.4c0-0.4-0.1-0.7-0.2-0.9c-0.1-0.2-0.3-0.3-0.7-0.3
		c-0.2,0-0.5,0.1-0.6,0.2c-0.2,0.1-0.4,0.3-0.6,0.5v4H498.8z M506.1,56.4l4-10.4h1.5l-4,10.4H506.1z"/>
	<path class="st8" d="M412.2,68.7c-0.5,0-0.9-0.1-1.4-0.2c-0.4-0.2-0.8-0.4-1.2-0.8s-0.6-0.8-0.8-1.2s-0.3-1.1-0.3-1.7
		s0.1-1.2,0.3-1.7c0.2-0.5,0.5-0.9,0.8-1.3c0.3-0.4,0.7-0.6,1.2-0.8c0.5-0.2,0.9-0.3,1.5-0.3c0.5,0,0.9,0.1,1.3,0.3
		c0.4,0.2,0.7,0.4,1,0.7l-1,1.1c-0.2-0.2-0.4-0.3-0.6-0.4s-0.5-0.2-0.8-0.2c-0.3,0-0.5,0.1-0.8,0.2s-0.4,0.3-0.6,0.5
		c-0.2,0.2-0.3,0.5-0.4,0.8c-0.1,0.3-0.1,0.7-0.1,1.1c0,0.8,0.2,1.4,0.5,1.9c0.4,0.4,0.9,0.7,1.5,0.7c0.3,0,0.5-0.1,0.8-0.2
		c0.2-0.1,0.5-0.3,0.7-0.5l1,1.1C414.2,68.3,413.3,68.7,412.2,68.7z M417.8,68.7c-0.7,0-1.2-0.2-1.5-0.6c-0.3-0.4-0.5-1-0.5-1.8
		v-3.7h1.8V66c0,0.4,0.1,0.7,0.2,0.9c0.1,0.2,0.4,0.3,0.7,0.3c0.2,0,0.4,0,0.6-0.1c0.2-0.1,0.4-0.3,0.6-0.5v-3.9h1.8v6H420l-0.1-0.9
		h0c-0.3,0.3-0.6,0.6-0.9,0.7C418.6,68.6,418.3,68.7,417.8,68.7z M425.9,68.7c-0.5,0-1.1-0.1-1.6-0.3s-1-0.4-1.3-0.6l0.8-1.1
		c0.4,0.2,0.7,0.4,1.1,0.5c0.4,0.1,0.8,0.2,1.3,0.2c0.3,0,0.6,0,0.7-0.1c0.2-0.1,0.2-0.2,0.2-0.4c0-0.1,0-0.1-0.1-0.2
		c0-0.1-0.1-0.1-0.2-0.2c-0.1-0.1-0.3-0.1-0.5-0.1c-0.2-0.1-0.4-0.1-0.7-0.2c-0.8-0.2-1.4-0.4-1.8-0.7c-0.3-0.3-0.5-0.7-0.5-1.1
		c0-0.3,0.1-0.5,0.2-0.8c0.1-0.2,0.3-0.4,0.5-0.6c0.2-0.2,0.5-0.3,0.9-0.4c0.3-0.1,0.7-0.1,1.2-0.1c0.5,0,1,0.1,1.5,0.3
		c0.4,0.2,0.8,0.3,1.1,0.5l-0.8,1.1c-0.3-0.2-0.6-0.3-1-0.4c-0.3-0.1-0.7-0.1-1-0.1c-0.3,0-0.5,0-0.6,0.1s-0.2,0.2-0.2,0.3
		c0,0.2,0.1,0.3,0.3,0.4c0.2,0.1,0.6,0.2,1.1,0.3c0.5,0.1,0.8,0.2,1.1,0.3c0.3,0.1,0.5,0.2,0.7,0.4c0.2,0.1,0.3,0.3,0.4,0.5
		c0.1,0.2,0.1,0.4,0.1,0.6c0,0.3-0.1,0.5-0.2,0.8c-0.1,0.2-0.3,0.4-0.6,0.6c-0.2,0.2-0.5,0.3-0.9,0.4
		C426.8,68.6,426.4,68.7,425.9,68.7z M434.2,68.7c-0.5,0-0.9-0.1-1.2-0.2c-0.3-0.1-0.6-0.3-0.8-0.5c-0.2-0.2-0.3-0.5-0.4-0.8
		c-0.1-0.3-0.1-0.7-0.1-1.1v-2.1h-1.5v-1.3l1.6-0.1l0.2-1.8h1.5v1.8h2.5v1.4h-2.5V66c0,0.5,0.1,0.8,0.3,1s0.5,0.3,1,0.3
		c0.2,0,0.4,0,0.6-0.1s0.4-0.1,0.5-0.2l0.3,1.3c-0.3,0.1-0.6,0.2-0.9,0.2C435,68.6,434.6,68.7,434.2,68.7z M440.4,68.7
		c-0.4,0-0.8-0.1-1.1-0.2c-0.4-0.1-0.7-0.3-1-0.6c-0.3-0.3-0.5-0.6-0.7-1c-0.2-0.4-0.2-0.8-0.2-1.3c0-0.5,0.1-0.9,0.2-1.3
		c0.2-0.4,0.4-0.7,0.7-1c0.3-0.3,0.6-0.5,1-0.6c0.4-0.1,0.7-0.2,1.1-0.2c0.4,0,0.8,0.1,1.1,0.2c0.4,0.1,0.7,0.3,1,0.6s0.5,0.6,0.7,1
		c0.2,0.4,0.3,0.8,0.3,1.3c0,0.5-0.1,0.9-0.3,1.3c-0.2,0.4-0.4,0.7-0.7,1s-0.6,0.5-1,0.6C441.1,68.6,440.7,68.7,440.4,68.7z
		 M440.4,67.2c0.4,0,0.7-0.2,0.9-0.5c0.2-0.3,0.3-0.7,0.3-1.2c0-0.5-0.1-0.9-0.3-1.2c-0.2-0.3-0.5-0.5-0.9-0.5
		c-0.4,0-0.7,0.2-0.9,0.5c-0.2,0.3-0.3,0.7-0.3,1.2c0,0.5,0.1,0.9,0.3,1.2C439.6,67.1,439.9,67.2,440.4,67.2z M444.4,68.5v-6h1.3
		l0.1,0.7h0c0.1-0.2,0.3-0.4,0.5-0.6c0.2-0.2,0.5-0.3,0.8-0.3c0.3,0,0.5,0.1,0.7,0.2c0.2,0.2,0.3,0.4,0.4,0.7
		c0.1-0.3,0.3-0.5,0.5-0.7c0.2-0.2,0.5-0.3,0.8-0.3c0.4,0,0.8,0.2,1,0.5c0.2,0.3,0.3,0.8,0.3,1.4v4.2h-1.7v-4.1c0-0.2,0-0.3-0.1-0.4
		c0-0.1-0.1-0.1-0.2-0.1c-0.1,0-0.2,0-0.3,0.1c-0.1,0.1-0.2,0.2-0.2,0.4v4h-1.4v-4.1c0-0.4-0.1-0.5-0.3-0.5c-0.1,0-0.2,0-0.3,0.1
		c-0.1,0.1-0.2,0.2-0.2,0.4v4H444.4z M454.5,68.5v-4.6h-2.4v-1.4h4.1v6H454.5z M455.8,61.6c-0.3,0-0.6-0.1-0.8-0.3
		c-0.2-0.2-0.3-0.5-0.3-0.8c0-0.3,0.1-0.6,0.3-0.8c0.2-0.2,0.5-0.3,0.8-0.3s0.6,0.1,0.8,0.3c0.2,0.2,0.3,0.5,0.3,0.8
		c0,0.3-0.1,0.6-0.3,0.8C456.4,61.5,456.1,61.6,455.8,61.6z M459.2,68.5v-1l3.1-3.6h-2.7v-1.4h5.2v0.9l-3.1,3.6h3.2v1.4H459.2z
		 M468.2,68.7c-0.3,0-0.6,0-0.8-0.1c-0.2-0.1-0.4-0.2-0.6-0.4s-0.3-0.4-0.4-0.6c-0.1-0.2-0.1-0.5-0.1-0.7c0-0.3,0.1-0.6,0.2-0.9
		c0.1-0.3,0.4-0.5,0.7-0.6c0.3-0.2,0.7-0.3,1.2-0.4c0.5-0.1,1.1-0.2,1.8-0.2c0-0.3-0.2-0.5-0.4-0.6c-0.2-0.2-0.5-0.2-0.9-0.2
		c-0.3,0-0.6,0.1-0.9,0.2c-0.3,0.1-0.6,0.2-0.9,0.4l-0.6-1.2c0.4-0.2,0.8-0.4,1.3-0.6c0.5-0.2,1-0.2,1.5-0.2c0.8,0,1.5,0.2,2,0.7
		s0.7,1.1,0.7,2v3.4h-1.4l-0.1-0.7h0c-0.3,0.2-0.6,0.4-1,0.6C469,68.6,468.6,68.7,468.2,68.7z M468.8,67.3c0.3,0,0.5-0.1,0.7-0.2
		c0.2-0.1,0.5-0.2,0.7-0.4v-1c-0.4,0-0.8,0.1-1.1,0.1c-0.3,0.1-0.5,0.1-0.7,0.2s-0.3,0.2-0.4,0.3c-0.1,0.1-0.1,0.2-0.1,0.4
		c0,0.2,0.1,0.3,0.2,0.4C468.4,67.3,468.6,67.3,468.8,67.3z M477.4,68.7c-0.5,0-0.9-0.1-1.2-0.2c-0.3-0.1-0.6-0.3-0.8-0.5
		c-0.2-0.2-0.3-0.5-0.4-0.8c-0.1-0.3-0.1-0.7-0.1-1.1v-2.1h-1.5v-1.3l1.6-0.1l0.2-1.8h1.5v1.8h2.5v1.4h-2.5V66c0,0.5,0.1,0.8,0.3,1
		s0.5,0.3,1,0.3c0.2,0,0.4,0,0.6-0.1s0.4-0.1,0.5-0.2l0.3,1.3c-0.3,0.1-0.6,0.2-0.9,0.2C478.2,68.6,477.8,68.7,477.4,68.7z
		 M483.3,68.5v-4.6h-2.4v-1.4h4.1v6H483.3z M484.6,61.6c-0.3,0-0.6-0.1-0.8-0.3c-0.2-0.2-0.3-0.5-0.3-0.8c0-0.3,0.1-0.6,0.3-0.8
		c0.2-0.2,0.5-0.3,0.8-0.3s0.6,0.1,0.8,0.3c0.2,0.2,0.3,0.5,0.3,0.8c0,0.3-0.1,0.6-0.3,0.8C485.2,61.5,484.9,61.6,484.6,61.6z
		 M490.8,68.7c-0.4,0-0.8-0.1-1.1-0.2c-0.4-0.1-0.7-0.3-1-0.6c-0.3-0.3-0.5-0.6-0.7-1c-0.2-0.4-0.2-0.8-0.2-1.3
		c0-0.5,0.1-0.9,0.2-1.3c0.2-0.4,0.4-0.7,0.7-1c0.3-0.3,0.6-0.5,1-0.6c0.4-0.1,0.7-0.2,1.1-0.2c0.4,0,0.8,0.1,1.1,0.2
		c0.4,0.1,0.7,0.3,1,0.6s0.5,0.6,0.7,1c0.2,0.4,0.3,0.8,0.3,1.3c0,0.5-0.1,0.9-0.3,1.3c-0.2,0.4-0.4,0.7-0.7,1s-0.6,0.5-1,0.6
		C491.5,68.6,491.1,68.7,490.8,68.7z M490.8,67.2c0.4,0,0.7-0.2,0.9-0.5c0.2-0.3,0.3-0.7,0.3-1.2c0-0.5-0.1-0.9-0.3-1.2
		c-0.2-0.3-0.5-0.5-0.9-0.5c-0.4,0-0.7,0.2-0.9,0.5c-0.2,0.3-0.3,0.7-0.3,1.2c0,0.5,0.1,0.9,0.3,1.2C490,67.1,490.3,67.2,490.8,67.2
		z M495.2,68.5v-6h1.4l0.1,0.8h0c0.3-0.3,0.6-0.5,0.9-0.7c0.3-0.2,0.7-0.3,1.2-0.3c0.7,0,1.2,0.2,1.5,0.7c0.3,0.4,0.5,1,0.5,1.8v3.7
		h-1.8v-3.4c0-0.4-0.1-0.7-0.2-0.9c-0.1-0.2-0.3-0.3-0.7-0.3c-0.2,0-0.5,0.1-0.6,0.2c-0.2,0.1-0.4,0.3-0.6,0.5v4H495.2z"/>
	<path class="st1" d="M406.7,246.2v12.4l8.6,8.6h10.6"/>
	<path class="st6" d="M406.7,246.2v12.4l8.6,8.6h10.6"/>
	<path class="st1" d="M534.7,242.7v-12.4l-8.6-8.6h-10.6"/>
	<path class="st6" d="M534.7,242.7v-12.4l-8.6-8.6h-10.6"/>
	<path class="st11" d="M411.3,225.6h112.8l6.4,6.4v31.8l0,0H417.7l-6.4-6.4V225.6z"/>
	<path class="st8" d="M431.3,249.4c-0.5,0-1.1-0.1-1.6-0.3c-0.5-0.2-1-0.5-1.4-0.8l1-1.2c0.3,0.2,0.6,0.4,1,0.6
		c0.4,0.2,0.7,0.2,1.1,0.2c0.4,0,0.7-0.1,0.8-0.2c0.2-0.1,0.3-0.3,0.3-0.5c0-0.1,0-0.2-0.1-0.3c-0.1-0.1-0.1-0.2-0.2-0.2
		c-0.1-0.1-0.2-0.1-0.4-0.2c-0.1-0.1-0.3-0.1-0.5-0.2l-1-0.4c-0.2-0.1-0.4-0.2-0.6-0.3c-0.2-0.1-0.4-0.3-0.5-0.5
		c-0.1-0.2-0.3-0.4-0.4-0.6c-0.1-0.2-0.1-0.5-0.1-0.8c0-0.3,0.1-0.6,0.2-0.9c0.1-0.3,0.3-0.5,0.6-0.7c0.3-0.2,0.6-0.4,0.9-0.5
		c0.4-0.1,0.7-0.2,1.2-0.2c0.5,0,0.9,0.1,1.4,0.3c0.4,0.2,0.9,0.4,1.2,0.8l-0.9,1.1c-0.3-0.2-0.5-0.4-0.8-0.5
		c-0.3-0.1-0.6-0.2-1-0.2c-0.3,0-0.5,0.1-0.7,0.2c-0.2,0.1-0.3,0.3-0.3,0.5c0,0.2,0.1,0.4,0.3,0.5c0.2,0.1,0.6,0.3,0.9,0.4l1,0.4
		c0.5,0.2,0.9,0.5,1.2,0.8c0.3,0.3,0.5,0.8,0.5,1.3c0,0.3-0.1,0.6-0.2,0.9c-0.1,0.3-0.3,0.5-0.6,0.8c-0.2,0.2-0.6,0.4-0.9,0.5
		C432.2,249.3,431.7,249.4,431.3,249.4z M439.5,249.4c-0.5,0-0.9-0.1-1.2-0.2c-0.3-0.1-0.6-0.3-0.8-0.5c-0.2-0.2-0.3-0.5-0.4-0.8
		c-0.1-0.3-0.1-0.7-0.1-1.1v-2.1h-1.5v-1.3l1.6-0.1l0.2-1.8h1.5v1.8h2.5v1.4h-2.5v2.1c0,0.5,0.1,0.8,0.3,1c0.2,0.2,0.5,0.3,1,0.3
		c0.2,0,0.4,0,0.6-0.1c0.2,0,0.4-0.1,0.5-0.2l0.3,1.3c-0.3,0.1-0.6,0.2-0.9,0.2C440.3,249.4,439.9,249.4,439.5,249.4z M445.7,249.4
		c-0.4,0-0.8-0.1-1.1-0.2c-0.4-0.1-0.7-0.3-1-0.6c-0.3-0.3-0.5-0.6-0.7-1c-0.2-0.4-0.2-0.8-0.2-1.3c0-0.5,0.1-0.9,0.2-1.3
		c0.2-0.4,0.4-0.7,0.7-1c0.3-0.3,0.6-0.5,1-0.6c0.4-0.1,0.7-0.2,1.1-0.2c0.4,0,0.8,0.1,1.1,0.2c0.4,0.1,0.7,0.3,1,0.6
		c0.3,0.3,0.5,0.6,0.7,1c0.2,0.4,0.3,0.8,0.3,1.3c0,0.5-0.1,0.9-0.3,1.3c-0.2,0.4-0.4,0.7-0.7,1c-0.3,0.3-0.6,0.5-1,0.6
		C446.4,249.3,446.1,249.4,445.7,249.4z M445.7,248c0.4,0,0.7-0.2,0.9-0.5c0.2-0.3,0.3-0.7,0.3-1.2c0-0.5-0.1-0.9-0.3-1.2
		c-0.2-0.3-0.5-0.5-0.9-0.5c-0.4,0-0.7,0.2-0.9,0.5c-0.2,0.3-0.3,0.7-0.3,1.2c0,0.5,0.1,0.9,0.3,1.2C445,247.8,445.3,248,445.7,248z
		 M450.7,249.3v-6h1.4l0.1,1.3h0c0.3-0.5,0.6-0.8,1.1-1.1c0.4-0.2,0.9-0.4,1.3-0.4c0.3,0,0.5,0,0.6,0.1c0.2,0,0.3,0.1,0.5,0.2
		l-0.4,1.5c-0.2-0.1-0.4-0.1-0.5-0.1c-0.1,0-0.3,0-0.6,0c-0.4,0-0.7,0.1-1.1,0.3c-0.4,0.2-0.7,0.6-0.9,1.1v3.1H450.7z M460.4,249.4
		c-0.5,0-0.9-0.1-1.3-0.2c-0.4-0.1-0.8-0.3-1.1-0.6c-0.3-0.3-0.5-0.6-0.7-1c-0.2-0.4-0.2-0.8-0.2-1.3c0-0.5,0.1-0.9,0.2-1.3
		c0.2-0.4,0.4-0.7,0.7-1c0.3-0.3,0.6-0.5,1-0.6c0.4-0.1,0.8-0.2,1.2-0.2c0.5,0,0.9,0.1,1.2,0.2c0.4,0.1,0.6,0.3,0.9,0.6
		c0.2,0.2,0.4,0.5,0.5,0.9c0.1,0.3,0.2,0.7,0.2,1.1c0,0.2,0,0.3,0,0.5c0,0.1,0,0.3,0,0.3h-4.1c0.1,0.4,0.3,0.8,0.6,1
		c0.3,0.2,0.7,0.3,1.2,0.3c0.3,0,0.5,0,0.8-0.1c0.2-0.1,0.5-0.2,0.8-0.3l0.6,1.1c-0.3,0.2-0.7,0.4-1.1,0.5S460.8,249.4,460.4,249.4z
		 M460.3,244.5c-0.4,0-0.7,0.1-0.9,0.3c-0.2,0.2-0.4,0.5-0.5,0.8h2.5C461.4,244.9,461,244.5,460.3,244.5z M464.6,251.2l4-10.4h1.5
		l-4,10.4H464.6z M474.5,249.4c-0.5,0-0.9-0.1-1.3-0.3c-0.4-0.2-0.7-0.4-1-0.8c-0.3-0.3-0.5-0.8-0.6-1.3c-0.1-0.5-0.2-1.1-0.2-1.8
		c0-0.7,0.1-1.2,0.2-1.7c0.2-0.5,0.4-0.9,0.6-1.2c0.3-0.3,0.6-0.6,1-0.8c0.4-0.2,0.8-0.3,1.3-0.3c0.5,0,0.9,0.1,1.3,0.3
		c0.4,0.2,0.7,0.4,1,0.8c0.3,0.3,0.5,0.8,0.7,1.2s0.2,1.1,0.2,1.7c0,0.7-0.1,1.3-0.2,1.8c-0.2,0.5-0.4,0.9-0.7,1.3
		c-0.3,0.3-0.6,0.6-1,0.8C475.4,249.3,474.9,249.4,474.5,249.4z M474.5,247.9c0.4,0,0.7-0.2,1-0.6c0.2-0.4,0.4-1.1,0.4-1.9
		c0-0.8-0.1-1.4-0.4-1.8c-0.2-0.4-0.6-0.6-1-0.6c-0.4,0-0.7,0.2-1,0.6c-0.2,0.4-0.4,1-0.4,1.8c0,0.9,0.1,1.5,0.4,1.9
		C473.7,247.7,474.1,247.9,474.5,247.9z M480.6,249.3v-4.6h-1.6v-1.3l1.6-0.1v-0.2c0-0.3,0.1-0.7,0.2-1c0.1-0.3,0.3-0.6,0.5-0.8
		c0.2-0.2,0.5-0.4,0.8-0.5c0.3-0.1,0.7-0.2,1.2-0.2c0.3,0,0.7,0,1,0.1c0.3,0.1,0.6,0.1,0.8,0.2l-0.3,1.3c-0.4-0.1-0.8-0.2-1.2-0.2
		c-0.4,0-0.7,0.1-0.9,0.2c-0.2,0.2-0.3,0.4-0.3,0.8v0.2h2.1v1.4h-2.1v4.6H480.6z M487.8,249.3v-4.6h-1.6v-1.3l1.6-0.1v-0.2
		c0-0.3,0.1-0.7,0.2-1c0.1-0.3,0.3-0.6,0.5-0.8c0.2-0.2,0.5-0.4,0.8-0.5c0.3-0.1,0.7-0.2,1.2-0.2c0.3,0,0.7,0,1,0.1
		c0.3,0.1,0.6,0.1,0.8,0.2l-0.3,1.3c-0.4-0.1-0.8-0.2-1.2-0.2c-0.4,0-0.7,0.1-0.9,0.2c-0.2,0.2-0.3,0.4-0.3,0.8v0.2h2.1v1.4h-2.1
		v4.6H487.8z M495.8,249.3v-4.6h-2.4v-1.4h4.1v6H495.8z M497.1,242.4c-0.3,0-0.6-0.1-0.8-0.3c-0.2-0.2-0.3-0.5-0.3-0.8
		c0-0.3,0.1-0.6,0.3-0.8c0.2-0.2,0.5-0.3,0.8-0.3s0.6,0.1,0.8,0.3c0.2,0.2,0.3,0.5,0.3,0.8c0,0.3-0.1,0.6-0.3,0.8
		C497.7,242.3,497.4,242.4,497.1,242.4z M503.8,249.4c-0.5,0-0.9-0.1-1.3-0.2c-0.4-0.1-0.7-0.3-1-0.6c-0.3-0.3-0.5-0.6-0.7-1
		c-0.2-0.4-0.2-0.8-0.2-1.3c0-0.5,0.1-0.9,0.3-1.3c0.2-0.4,0.5-0.7,0.8-1c0.3-0.3,0.7-0.5,1.1-0.6c0.4-0.1,0.9-0.2,1.3-0.2
		c0.5,0,0.9,0.1,1.3,0.2c0.4,0.1,0.7,0.3,1,0.6l-0.8,1.1c-0.4-0.3-0.9-0.5-1.3-0.5c-0.5,0-0.9,0.2-1.2,0.5c-0.3,0.3-0.5,0.7-0.5,1.2
		c0,0.5,0.2,0.9,0.5,1.2c0.3,0.3,0.7,0.5,1.2,0.5c0.3,0,0.6-0.1,0.9-0.2c0.3-0.1,0.5-0.2,0.7-0.4l0.7,1.1c-0.4,0.3-0.8,0.5-1.2,0.7
		C504.6,249.3,504.2,249.4,503.8,249.4z M510.8,249.4c-0.5,0-0.9-0.1-1.3-0.2c-0.4-0.1-0.8-0.3-1.1-0.6c-0.3-0.3-0.5-0.6-0.7-1
		c-0.2-0.4-0.2-0.8-0.2-1.3c0-0.5,0.1-0.9,0.2-1.3c0.2-0.4,0.4-0.7,0.7-1c0.3-0.3,0.6-0.5,1-0.6c0.4-0.1,0.8-0.2,1.2-0.2
		c0.5,0,0.9,0.1,1.2,0.2c0.4,0.1,0.6,0.3,0.9,0.6c0.2,0.2,0.4,0.5,0.5,0.9c0.1,0.3,0.2,0.7,0.2,1.1c0,0.2,0,0.3,0,0.5
		c0,0.1,0,0.3,0,0.3h-4.1c0.1,0.4,0.3,0.8,0.6,1c0.3,0.2,0.7,0.3,1.2,0.3c0.3,0,0.5,0,0.8-0.1c0.3-0.1,0.5-0.2,0.8-0.3l0.6,1.1
		c-0.3,0.2-0.7,0.4-1.1,0.5C511.7,249.3,511.2,249.4,510.8,249.4z M510.7,244.5c-0.4,0-0.7,0.1-0.9,0.3c-0.2,0.2-0.4,0.5-0.5,0.8
		h2.5C511.8,244.9,511.4,244.5,510.7,244.5z"/>
	<path class="st1" d="M327.2,307.3v12.4l8.6,8.6h10.6"/>
	<path class="st6" d="M327.2,307.3v12.4l8.6,8.6h10.6"/>
	<path class="st1" d="M455.2,302.6v-12.4l-8.6-8.6H436"/>
	<path class="st6" d="M455.2,302.6v-12.4l-8.6-8.6H436"/>
	<path class="st11" d="M331.8,285.6h112.8l6.4,6.4v31.8l0,0H338.2l-6.4-6.4V285.6z"/>
	<path class="st8" d="M352.9,309.2l-1-7.8h1.8l0.2,4.2c0,0.3,0,0.7,0,1c0,0.3,0,0.6,0,1h0c0.1-0.4,0.1-0.7,0.2-1
		c0.1-0.3,0.1-0.6,0.2-1l0.5-2.2h1.1l0.5,2.2c0.1,0.3,0.1,0.6,0.2,1s0.1,0.7,0.2,1h0c0-0.4,0-0.7,0-1c0-0.3,0-0.6,0-1l0.2-4.2h1.7
		l-1,7.8h-1.9l-0.5-2.4c-0.1-0.2-0.1-0.5-0.1-0.8c0-0.3-0.1-0.5-0.1-0.7h0c0,0.2-0.1,0.5-0.1,0.7c0,0.2-0.1,0.5-0.1,0.8l-0.5,2.4
		H352.9z M362.9,309.3c-0.5,0-0.9-0.1-1.3-0.2c-0.4-0.1-0.8-0.3-1.1-0.6c-0.3-0.3-0.5-0.6-0.7-1c-0.2-0.4-0.2-0.8-0.2-1.3
		c0-0.5,0.1-0.9,0.2-1.3c0.2-0.4,0.4-0.7,0.7-1c0.3-0.3,0.6-0.5,1-0.6c0.4-0.1,0.8-0.2,1.2-0.2c0.5,0,0.9,0.1,1.2,0.2
		c0.4,0.1,0.6,0.3,0.9,0.6c0.2,0.2,0.4,0.5,0.5,0.9c0.1,0.3,0.2,0.7,0.2,1.1c0,0.2,0,0.3,0,0.5c0,0.1,0,0.3,0,0.3h-4.1
		c0.1,0.4,0.3,0.8,0.6,1c0.3,0.2,0.7,0.3,1.2,0.3c0.3,0,0.5,0,0.8-0.1c0.2-0.1,0.5-0.2,0.8-0.3l0.6,1.1c-0.3,0.2-0.7,0.4-1.1,0.5
		S363.3,309.3,362.9,309.3z M362.8,304.4c-0.4,0-0.7,0.1-0.9,0.3c-0.2,0.2-0.4,0.5-0.5,0.8h2.5C363.9,304.8,363.5,304.4,362.8,304.4
		z M370.3,309.3c-0.3,0-0.6-0.1-0.8-0.2c-0.3-0.1-0.5-0.3-0.8-0.6h0l-0.1,0.6H367v-8.4h1.8v2.1l-0.1,0.9h0c0.2-0.2,0.5-0.4,0.8-0.5
		c0.3-0.1,0.6-0.2,0.9-0.2c0.4,0,0.7,0.1,1,0.2c0.3,0.1,0.6,0.3,0.8,0.6c0.2,0.2,0.4,0.6,0.5,0.9s0.2,0.8,0.2,1.2
		c0,0.5-0.1,1-0.2,1.4c-0.1,0.4-0.3,0.7-0.6,1c-0.2,0.3-0.5,0.5-0.8,0.6C370.9,309.3,370.6,309.3,370.3,309.3z M369.8,307.9
		c0.3,0,0.6-0.1,0.8-0.4c0.2-0.3,0.3-0.7,0.3-1.3c0-1.1-0.4-1.6-1.1-1.6c-0.4,0-0.7,0.2-1.1,0.5v2.4c0.2,0.1,0.3,0.2,0.5,0.3
		C369.5,307.9,369.7,307.9,369.8,307.9z M376.9,309.3c-0.5,0-1.1-0.1-1.6-0.3c-0.5-0.2-1-0.4-1.3-0.6l0.8-1.1
		c0.4,0.2,0.7,0.4,1.1,0.5c0.4,0.1,0.8,0.2,1.3,0.2c0.3,0,0.6,0,0.7-0.1c0.2-0.1,0.2-0.2,0.2-0.4c0-0.1,0-0.1-0.1-0.2
		c0-0.1-0.1-0.1-0.2-0.2c-0.1-0.1-0.3-0.1-0.5-0.1c-0.2-0.1-0.4-0.1-0.7-0.2c-0.8-0.2-1.4-0.4-1.8-0.7c-0.3-0.3-0.5-0.7-0.5-1.1
		c0-0.3,0.1-0.5,0.2-0.8c0.1-0.2,0.3-0.4,0.5-0.6c0.2-0.2,0.5-0.3,0.9-0.4c0.3-0.1,0.7-0.1,1.2-0.1c0.5,0,1,0.1,1.5,0.3
		c0.4,0.2,0.8,0.3,1.1,0.5l-0.8,1.1c-0.3-0.2-0.6-0.3-1-0.4c-0.3-0.1-0.7-0.1-1-0.1c-0.3,0-0.5,0-0.6,0.1c-0.1,0.1-0.2,0.2-0.2,0.3
		c0,0.2,0.1,0.3,0.3,0.4c0.2,0.1,0.6,0.2,1.1,0.3c0.5,0.1,0.8,0.2,1.1,0.3c0.3,0.1,0.5,0.2,0.7,0.4c0.2,0.1,0.3,0.3,0.4,0.5
		c0.1,0.2,0.1,0.4,0.1,0.6c0,0.3-0.1,0.5-0.2,0.8c-0.1,0.2-0.3,0.4-0.6,0.6c-0.2,0.2-0.5,0.3-0.9,0.4
		C377.8,309.3,377.4,309.3,376.9,309.3z M383.9,309.2v-4.6h-2.4v-1.4h4.1v6H383.9z M385.2,302.3c-0.3,0-0.6-0.1-0.8-0.3
		c-0.2-0.2-0.3-0.5-0.3-0.8c0-0.3,0.1-0.6,0.3-0.8c0.2-0.2,0.5-0.3,0.8-0.3s0.6,0.1,0.8,0.3c0.2,0.2,0.3,0.5,0.3,0.8
		c0,0.3-0.1,0.6-0.3,0.8C385.8,302.2,385.5,302.3,385.2,302.3z M392.4,309.3c-0.5,0-0.9-0.1-1.2-0.2c-0.3-0.1-0.6-0.3-0.8-0.5
		c-0.2-0.2-0.3-0.5-0.4-0.8c-0.1-0.3-0.1-0.7-0.1-1.1v-2.1h-1.5v-1.3l1.6-0.1l0.2-1.8h1.5v1.8h2.5v1.4h-2.5v2.1c0,0.5,0.1,0.8,0.3,1
		c0.2,0.2,0.5,0.3,1,0.3c0.2,0,0.4,0,0.6-0.1c0.2,0,0.4-0.1,0.5-0.2l0.3,1.3c-0.3,0.1-0.6,0.2-0.9,0.2
		C393.2,309.3,392.8,309.3,392.4,309.3z M398.9,309.3c-0.5,0-0.9-0.1-1.3-0.2c-0.4-0.1-0.8-0.3-1.1-0.6c-0.3-0.3-0.5-0.6-0.7-1
		c-0.2-0.4-0.2-0.8-0.2-1.3c0-0.5,0.1-0.9,0.2-1.3c0.2-0.4,0.4-0.7,0.7-1c0.3-0.3,0.6-0.5,1-0.6c0.4-0.1,0.8-0.2,1.2-0.2
		c0.5,0,0.9,0.1,1.2,0.2c0.4,0.1,0.6,0.3,0.9,0.6c0.2,0.2,0.4,0.5,0.5,0.9c0.1,0.3,0.2,0.7,0.2,1.1c0,0.2,0,0.3,0,0.5
		c0,0.1,0,0.3,0,0.3h-4.1c0.1,0.4,0.3,0.8,0.6,1c0.3,0.2,0.7,0.3,1.2,0.3c0.3,0,0.5,0,0.8-0.1c0.2-0.1,0.5-0.2,0.8-0.3l0.6,1.1
		c-0.3,0.2-0.7,0.4-1.1,0.5C399.8,309.3,399.3,309.3,398.9,309.3z M398.8,304.4c-0.4,0-0.7,0.1-0.9,0.3c-0.2,0.2-0.4,0.5-0.5,0.8
		h2.5C399.9,304.8,399.5,304.4,398.8,304.4z M403.1,311.1l4-10.4h1.5l-4,10.4H403.1z M412.3,305.2l-0.2,0.7h1.6l-0.2-0.7
		c-0.1-0.4-0.2-0.8-0.3-1.2s-0.2-0.9-0.3-1.3h0c-0.1,0.4-0.2,0.8-0.3,1.3S412.4,304.8,412.3,305.2z M409.5,309.2l2.4-7.8h2.1
		l2.4,7.8h-1.9l-0.5-1.9h-2.4l-0.5,1.9H409.5z M417.4,311.4v-8.2h1.4l0.1,0.6h0c0.2-0.2,0.5-0.4,0.8-0.5c0.3-0.1,0.6-0.2,1-0.2
		c0.4,0,0.7,0.1,1,0.2c0.3,0.1,0.6,0.3,0.8,0.6c0.2,0.3,0.4,0.6,0.5,1c0.1,0.4,0.2,0.8,0.2,1.2c0,0.5-0.1,1-0.2,1.4
		c-0.1,0.4-0.3,0.7-0.6,1c-0.2,0.3-0.5,0.5-0.8,0.6c-0.3,0.1-0.6,0.2-1,0.2c-0.6,0-1-0.2-1.5-0.6h0l0.1,1v1.7H417.4z M420.2,307.9
		c0.3,0,0.6-0.1,0.8-0.4c0.2-0.3,0.3-0.7,0.3-1.3c0-1.1-0.4-1.6-1.1-1.6c-0.4,0-0.7,0.2-1.1,0.5v2.4c0.2,0.1,0.3,0.2,0.5,0.3
		C419.9,307.9,420.1,307.9,420.2,307.9z M424.6,311.4v-8.2h1.4l0.1,0.6h0c0.2-0.2,0.5-0.4,0.8-0.5c0.3-0.1,0.6-0.2,1-0.2
		c0.4,0,0.7,0.1,1,0.2c0.3,0.1,0.6,0.3,0.8,0.6c0.2,0.3,0.4,0.6,0.5,1c0.1,0.4,0.2,0.8,0.2,1.2c0,0.5-0.1,1-0.2,1.4
		c-0.1,0.4-0.3,0.7-0.6,1c-0.2,0.3-0.5,0.5-0.8,0.6c-0.3,0.1-0.6,0.2-1,0.2c-0.6,0-1-0.2-1.5-0.6h0l0.1,1v1.7H424.6z M427.4,307.9
		c0.3,0,0.6-0.1,0.8-0.4c0.2-0.3,0.3-0.7,0.3-1.3c0-1.1-0.4-1.6-1.1-1.6c-0.4,0-0.7,0.2-1.1,0.5v2.4c0.2,0.1,0.3,0.2,0.5,0.3
		C427.1,307.9,427.3,307.9,427.4,307.9z"/>
	<path class="st1" d="M452.5,183.7v12.4l8.6,8.6h10.6"/>
	<path class="st6" d="M452.5,183.7v12.4l8.6,8.6h10.6"/>
	<path class="st1" d="M580.5,179.1v-12.4l-8.6-8.6h-10.6"/>
	<path class="st6" d="M580.5,179.1v-12.4l-8.6-8.6h-10.6"/>
	<path class="st11" d="M457.1,162h112.8l6.4,6.4v31.8l0,0H463.4l-6.4-6.4V162z"/>
	<path class="st8" d="M481.8,178.6v-7.8h5.2v1.5h-3.4v1.6h2.9v1.5h-2.9v1.8h3.5v1.5H481.8z M488.3,178.6l2.1-3.1l-1.9-2.9h1.9l0.6,1
		c0.1,0.2,0.2,0.3,0.3,0.5c0.1,0.2,0.2,0.3,0.3,0.5h0c0.1-0.2,0.2-0.3,0.2-0.5c0.1-0.2,0.2-0.3,0.2-0.5l0.5-1h1.8l-1.9,3.1l2.1,2.9
		h-1.9l-0.7-1c-0.1-0.2-0.2-0.3-0.3-0.5c-0.1-0.2-0.2-0.3-0.3-0.5h0c-0.1,0.2-0.2,0.3-0.3,0.5c-0.1,0.2-0.2,0.3-0.3,0.5l-0.6,1
		H488.3z M495.9,180.8v-8.2h1.4l0.1,0.6h0c0.2-0.2,0.5-0.4,0.8-0.5c0.3-0.1,0.6-0.2,1-0.2c0.4,0,0.7,0.1,1,0.2
		c0.3,0.1,0.6,0.3,0.8,0.6c0.2,0.3,0.4,0.6,0.5,1c0.1,0.4,0.2,0.8,0.2,1.2c0,0.5-0.1,1-0.2,1.4c-0.1,0.4-0.3,0.7-0.6,1
		c-0.2,0.3-0.5,0.5-0.8,0.6c-0.3,0.1-0.6,0.2-1,0.2c-0.6,0-1-0.2-1.5-0.6h0l0.1,1v1.7H495.9z M498.7,177.3c0.3,0,0.6-0.1,0.8-0.4
		c0.2-0.3,0.3-0.7,0.3-1.3c0-1.1-0.4-1.6-1.1-1.6c-0.4,0-0.7,0.2-1.1,0.5v2.4c0.2,0.1,0.3,0.2,0.5,0.3
		C498.4,177.3,498.5,177.3,498.7,177.3z M506.2,178.7c-0.5,0-0.9-0.1-1.3-0.2c-0.4-0.1-0.8-0.3-1.1-0.6c-0.3-0.3-0.5-0.6-0.7-1
		c-0.2-0.4-0.2-0.8-0.2-1.3c0-0.5,0.1-0.9,0.2-1.3c0.2-0.4,0.4-0.7,0.7-1c0.3-0.3,0.6-0.5,1-0.6c0.4-0.1,0.8-0.2,1.2-0.2
		c0.5,0,0.9,0.1,1.2,0.2c0.4,0.1,0.6,0.3,0.9,0.6c0.2,0.2,0.4,0.5,0.5,0.9c0.1,0.3,0.2,0.7,0.2,1.1c0,0.2,0,0.3,0,0.5
		c0,0.1,0,0.3,0,0.3h-4.1c0.1,0.4,0.3,0.8,0.6,1c0.3,0.2,0.7,0.3,1.2,0.3c0.3,0,0.5,0,0.8-0.1c0.2-0.1,0.5-0.2,0.8-0.3l0.6,1.1
		c-0.3,0.2-0.7,0.4-1.1,0.5C507,178.7,506.6,178.7,506.2,178.7z M506.1,173.9c-0.4,0-0.7,0.1-0.9,0.3c-0.2,0.2-0.4,0.5-0.5,0.8h2.5
		C507.1,174.2,506.8,173.9,506.1,173.9z M510.8,178.6v-6h1.4l0.1,1.3h0c0.3-0.5,0.6-0.8,1.1-1.1c0.4-0.2,0.9-0.4,1.3-0.4
		c0.3,0,0.5,0,0.6,0.1c0.2,0,0.3,0.1,0.5,0.2l-0.4,1.5c-0.2-0.1-0.4-0.1-0.5-0.1c-0.1,0-0.3,0-0.6,0c-0.4,0-0.7,0.1-1.1,0.3
		c-0.4,0.2-0.7,0.6-0.9,1.1v3.1H510.8z M520,178.6V174h-2.4v-1.4h4.1v6H520z M521.2,171.7c-0.3,0-0.6-0.1-0.8-0.3
		c-0.2-0.2-0.3-0.5-0.3-0.8c0-0.3,0.1-0.6,0.3-0.8c0.2-0.2,0.5-0.3,0.8-0.3c0.3,0,0.6,0.1,0.8,0.3c0.2,0.2,0.3,0.5,0.3,0.8
		c0,0.3-0.1,0.6-0.3,0.8C521.9,171.6,521.6,171.7,521.2,171.7z M527.8,178.7c-0.5,0-0.9-0.1-1.3-0.2c-0.4-0.1-0.8-0.3-1.1-0.6
		c-0.3-0.3-0.5-0.6-0.7-1c-0.2-0.4-0.2-0.8-0.2-1.3c0-0.5,0.1-0.9,0.2-1.3c0.2-0.4,0.4-0.7,0.7-1c0.3-0.3,0.6-0.5,1-0.6
		c0.4-0.1,0.8-0.2,1.2-0.2c0.5,0,0.9,0.1,1.2,0.2c0.4,0.1,0.6,0.3,0.9,0.6c0.2,0.2,0.4,0.5,0.5,0.9c0.1,0.3,0.2,0.7,0.2,1.1
		c0,0.2,0,0.3,0,0.5c0,0.1,0,0.3,0,0.3h-4.1c0.1,0.4,0.3,0.8,0.6,1c0.3,0.2,0.7,0.3,1.2,0.3c0.3,0,0.5,0,0.8-0.1
		c0.2-0.1,0.5-0.2,0.8-0.3l0.6,1.1c-0.3,0.2-0.7,0.4-1.1,0.5S528.2,178.7,527.8,178.7z M527.7,173.9c-0.4,0-0.7,0.1-0.9,0.3
		c-0.2,0.2-0.4,0.5-0.5,0.8h2.5C528.7,174.2,528.4,173.9,527.7,173.9z M531.9,178.6v-6h1.4l0.1,0.8h0c0.3-0.3,0.6-0.5,0.9-0.7
		c0.3-0.2,0.7-0.3,1.2-0.3c0.7,0,1.2,0.2,1.5,0.7c0.3,0.4,0.5,1,0.5,1.8v3.7h-1.8v-3.4c0-0.4-0.1-0.7-0.2-0.9
		c-0.1-0.2-0.3-0.3-0.7-0.3c-0.2,0-0.5,0.1-0.6,0.2c-0.2,0.1-0.4,0.3-0.6,0.5v4H531.9z M542.4,178.7c-0.5,0-0.9-0.1-1.3-0.2
		c-0.4-0.1-0.7-0.3-1-0.6c-0.3-0.3-0.5-0.6-0.7-1c-0.2-0.4-0.2-0.8-0.2-1.3c0-0.5,0.1-0.9,0.3-1.3c0.2-0.4,0.5-0.7,0.8-1
		c0.3-0.3,0.7-0.5,1.1-0.6c0.4-0.1,0.9-0.2,1.3-0.2c0.5,0,0.9,0.1,1.3,0.2c0.4,0.1,0.7,0.3,1,0.6l-0.8,1.1c-0.4-0.3-0.9-0.5-1.3-0.5
		c-0.5,0-0.9,0.2-1.2,0.5c-0.3,0.3-0.5,0.7-0.5,1.2c0,0.5,0.2,0.9,0.5,1.2c0.3,0.3,0.7,0.5,1.2,0.5c0.3,0,0.6-0.1,0.9-0.2
		c0.3-0.1,0.5-0.2,0.7-0.4l0.7,1.1c-0.4,0.3-0.8,0.5-1.2,0.7C543.2,178.7,542.8,178.7,542.4,178.7z M549.4,178.7
		c-0.5,0-0.9-0.1-1.3-0.2c-0.4-0.1-0.8-0.3-1.1-0.6c-0.3-0.3-0.5-0.6-0.7-1c-0.2-0.4-0.2-0.8-0.2-1.3c0-0.5,0.1-0.9,0.2-1.3
		c0.2-0.4,0.4-0.7,0.7-1c0.3-0.3,0.6-0.5,1-0.6c0.4-0.1,0.8-0.2,1.2-0.2c0.5,0,0.9,0.1,1.2,0.2c0.4,0.1,0.6,0.3,0.9,0.6
		c0.2,0.2,0.4,0.5,0.5,0.9c0.1,0.3,0.2,0.7,0.2,1.1c0,0.2,0,0.3,0,0.5c0,0.1,0,0.3,0,0.3h-4.1c0.1,0.4,0.3,0.8,0.6,1
		c0.3,0.2,0.7,0.3,1.2,0.3c0.3,0,0.5,0,0.8-0.1c0.2-0.1,0.5-0.2,0.8-0.3l0.6,1.1c-0.3,0.2-0.7,0.4-1.1,0.5
		C550.2,178.7,549.8,178.7,549.4,178.7z M549.3,173.9c-0.4,0-0.7,0.1-0.9,0.3c-0.2,0.2-0.4,0.5-0.5,0.8h2.5
		C550.3,174.2,550,173.9,549.3,173.9z"/>
	<path class="st8" d="M499.3,192.7c-0.5,0-0.9-0.1-1.4-0.2c-0.4-0.2-0.8-0.4-1.2-0.8c-0.3-0.3-0.6-0.8-0.8-1.2
		c-0.2-0.5-0.3-1.1-0.3-1.7s0.1-1.2,0.3-1.7c0.2-0.5,0.5-0.9,0.8-1.3c0.3-0.4,0.7-0.6,1.2-0.8c0.5-0.2,0.9-0.3,1.5-0.3
		c0.5,0,0.9,0.1,1.3,0.3c0.4,0.2,0.7,0.4,1,0.7l-1,1.1c-0.2-0.2-0.4-0.3-0.6-0.4c-0.2-0.1-0.5-0.2-0.8-0.2c-0.3,0-0.5,0.1-0.8,0.2
		c-0.2,0.1-0.4,0.3-0.6,0.5c-0.2,0.2-0.3,0.5-0.4,0.8c-0.1,0.3-0.1,0.7-0.1,1.1c0,0.8,0.2,1.4,0.5,1.9c0.4,0.4,0.9,0.7,1.5,0.7
		c0.3,0,0.5-0.1,0.8-0.2c0.2-0.1,0.5-0.3,0.7-0.5l1,1.1C501.2,192.4,500.4,192.7,499.3,192.7z M506.2,192.7c-0.5,0-0.9-0.1-1.3-0.2
		c-0.4-0.1-0.8-0.3-1.1-0.6c-0.3-0.3-0.5-0.6-0.7-1c-0.2-0.4-0.2-0.8-0.2-1.3c0-0.5,0.1-0.9,0.2-1.3c0.2-0.4,0.4-0.7,0.7-1
		c0.3-0.3,0.6-0.5,1-0.6c0.4-0.1,0.8-0.2,1.2-0.2c0.5,0,0.9,0.1,1.2,0.2c0.4,0.1,0.6,0.3,0.9,0.6c0.2,0.2,0.4,0.5,0.5,0.9
		c0.1,0.3,0.2,0.7,0.2,1.1c0,0.2,0,0.3,0,0.5c0,0.1,0,0.3,0,0.3h-4.1c0.1,0.4,0.3,0.8,0.6,1c0.3,0.2,0.7,0.3,1.2,0.3
		c0.3,0,0.5,0,0.8-0.1c0.2-0.1,0.5-0.2,0.8-0.3l0.6,1.1c-0.3,0.2-0.7,0.4-1.1,0.5C507,192.7,506.6,192.7,506.2,192.7z M506.1,187.9
		c-0.4,0-0.7,0.1-0.9,0.3c-0.2,0.2-0.4,0.5-0.5,0.8h2.5C507.1,188.2,506.8,187.9,506.1,187.9z M510.3,192.6v-6h1.4l0.1,0.8h0
		c0.3-0.3,0.6-0.5,0.9-0.7c0.3-0.2,0.7-0.3,1.2-0.3c0.7,0,1.2,0.2,1.5,0.7c0.3,0.4,0.5,1,0.5,1.8v3.7h-1.8v-3.4
		c0-0.4-0.1-0.7-0.2-0.9c-0.1-0.2-0.3-0.3-0.7-0.3c-0.2,0-0.5,0.1-0.6,0.2c-0.2,0.1-0.4,0.3-0.6,0.5v4H510.3z M521.3,192.7
		c-0.5,0-0.9-0.1-1.2-0.2c-0.3-0.1-0.6-0.3-0.8-0.5c-0.2-0.2-0.3-0.5-0.4-0.8c-0.1-0.3-0.1-0.7-0.1-1.1V188h-1.5v-1.3l1.6-0.1
		l0.2-1.8h1.5v1.8h2.5v1.4h-2.5v2.1c0,0.5,0.1,0.8,0.3,1c0.2,0.2,0.5,0.3,1,0.3c0.2,0,0.4,0,0.6-0.1c0.2,0,0.4-0.1,0.5-0.2l0.3,1.3
		c-0.3,0.1-0.6,0.2-0.9,0.2C522,192.7,521.7,192.7,521.3,192.7z M527.8,192.7c-0.5,0-0.9-0.1-1.3-0.2c-0.4-0.1-0.8-0.3-1.1-0.6
		c-0.3-0.3-0.5-0.6-0.7-1c-0.2-0.4-0.2-0.8-0.2-1.3c0-0.5,0.1-0.9,0.2-1.3c0.2-0.4,0.4-0.7,0.7-1c0.3-0.3,0.6-0.5,1-0.6
		c0.4-0.1,0.8-0.2,1.2-0.2c0.5,0,0.9,0.1,1.2,0.2c0.4,0.1,0.6,0.3,0.9,0.6c0.2,0.2,0.4,0.5,0.5,0.9c0.1,0.3,0.2,0.7,0.2,1.1
		c0,0.2,0,0.3,0,0.5c0,0.1,0,0.3,0,0.3h-4.1c0.1,0.4,0.3,0.8,0.6,1c0.3,0.2,0.7,0.3,1.2,0.3c0.3,0,0.5,0,0.8-0.1
		c0.2-0.1,0.5-0.2,0.8-0.3l0.6,1.1c-0.3,0.2-0.7,0.4-1.1,0.5S528.2,192.7,527.8,192.7z M527.7,187.9c-0.4,0-0.7,0.1-0.9,0.3
		c-0.2,0.2-0.4,0.5-0.5,0.8h2.5C528.7,188.2,528.4,187.9,527.7,187.9z M532.4,192.6v-6h1.4l0.1,1.3h0c0.3-0.5,0.6-0.8,1.1-1.1
		c0.4-0.2,0.9-0.4,1.3-0.4c0.3,0,0.5,0,0.6,0.1c0.2,0,0.3,0.1,0.5,0.2l-0.4,1.5c-0.2-0.1-0.4-0.1-0.5-0.1c-0.1,0-0.3,0-0.6,0
		c-0.4,0-0.7,0.1-1.1,0.3c-0.4,0.2-0.7,0.6-0.9,1.1v3.1H532.4z"/>
	<path class="st12" d="M380,145.6c-4.5-16.5-13.3-31.8-25.6-44.1c-6.4-6.4-13.7-11.9-21.4-16.3"/>
	<path class="st12" d="M236.5,259.7c14.1,7.6,30.2,11.9,47.3,11.9c16.7,0,32.5-4.1,46.3-11.4"/>
	<path class="st12" d="M234.8,85.2c-22.3,12.6-39.3,33.7-46.6,58.8"/>
</g>
</svg>
